<?xml version="1.0" encoding="utf-8" standalone="no"?>
<!DOCTYPE svg PUBLIC "-//W3C//DTD SVG 1.1//EN"
  "http://www.w3.org/Graphics/SVG/1.1/DTD/svg11.dtd">
<svg xmlns:xlink="http://www.w3.org/1999/xlink" width="568.8pt" height="208.518281pt" viewBox="0 0 568.8 208.518281" xmlns="http://www.w3.org/2000/svg" version="1.1">
 <metadata>
  <rdf:RDF xmlns:dc="http://purl.org/dc/elements/1.1/" xmlns:cc="http://creativecommons.org/ns#" xmlns:rdf="http://www.w3.org/1999/02/22-rdf-syntax-ns#">
   <cc:Work>
    <dc:type rdf:resource="http://purl.org/dc/dcmitype/StillImage"/>
    <dc:date>2026-01-08T05:52:03.805556</dc:date>
    <dc:format>image/svg+xml</dc:format>
    <dc:creator>
     <cc:Agent>
      <dc:title>Matplotlib v3.10.7, https://matplotlib.org/</dc:title>
     </cc:Agent>
    </dc:creator>
   </cc:Work>
  </rdf:RDF>
 </metadata>
 <defs>
  <style type="text/css">*{stroke-linejoin: round; stroke-linecap: butt}</style>
 </defs>
 <g id="figure_1">
  <g id="patch_1">
   <path d="M 0 208.518281 
L 568.8 208.518281 
L 568.8 0 
L 0 0 
z
" style="fill: #ffffff"/>
  </g>
  <g id="axes_1">
   <g id="patch_2">
    <path d="M 20.093023 113.685281 
L 45.87907 113.685281 
Q 47.168372 113.685281 47.168372 111.438281 
L 47.168372 55.263281 
Q 47.168372 53.016281 45.87907 53.016281 
L 20.093023 53.016281 
Q 18.803721 53.016281 18.803721 55.263281 
L 18.803721 111.438281 
Q 18.803721 113.685281 20.093023 113.685281 
z
" clip-path="url(#p2bccc97f86)" style="fill: #2ca02c; stroke: #ffffff; stroke-linejoin: miter"/>
   </g>
   <g id="patch_3">
    <path d="M 52.325581 113.685281 
L 78.111628 113.685281 
Q 79.40093 113.685281 79.40093 111.438281 
L 79.40093 55.263281 
Q 79.40093 53.016281 78.111628 53.016281 
L 52.325581 53.016281 
Q 51.036279 53.016281 51.036279 55.263281 
L 51.036279 111.438281 
Q 51.036279 113.685281 52.325581 113.685281 
z
" clip-path="url(#p2bccc97f86)" style="fill: #d62728; stroke: #ffffff; stroke-linejoin: miter"/>
   </g>
   <g id="patch_4">
    <path d="M 84.55814 113.685281 
L 110.344186 113.685281 
Q 111.633488 113.685281 111.633488 111.438281 
L 111.633488 55.263281 
Q 111.633488 53.016281 110.344186 53.016281 
L 84.55814 53.016281 
Q 83.268837 53.016281 83.268837 55.263281 
L 83.268837 111.438281 
Q 83.268837 113.685281 84.55814 113.685281 
z
" clip-path="url(#p2bccc97f86)" style="fill: #7f7f7f; stroke: #ffffff; stroke-linejoin: miter"/>
   </g>
   <g id="patch_5">
    <path d="M 116.790698 113.685281 
L 142.576744 113.685281 
Q 143.866047 113.685281 143.866047 111.438281 
L 143.866047 55.263281 
Q 143.866047 53.016281 142.576744 53.016281 
L 116.790698 53.016281 
Q 115.501395 53.016281 115.501395 55.263281 
L 115.501395 111.438281 
Q 115.501395 113.685281 116.790698 113.685281 
z
" clip-path="url(#p2bccc97f86)" style="fill: #7f7f7f; stroke: #ffffff; stroke-linejoin: miter"/>
   </g>
   <g id="patch_6">
    <path d="M 149.023256 113.685281 
L 174.809302 113.685281 
Q 176.098605 113.685281 176.098605 111.438281 
L 176.098605 55.263281 
Q 176.098605 53.016281 174.809302 53.016281 
L 149.023256 53.016281 
Q 147.733953 53.016281 147.733953 55.263281 
L 147.733953 111.438281 
Q 147.733953 113.685281 149.023256 113.685281 
z
" clip-path="url(#p2bccc97f86)" style="fill: #7f7f7f; stroke: #ffffff; stroke-linejoin: miter"/>
   </g>
   <g id="patch_7">
    <path d="M 181.255814 113.685281 
L 207.04186 113.685281 
Q 208.331163 113.685281 208.331163 111.438281 
L 208.331163 55.263281 
Q 208.331163 53.016281 207.04186 53.016281 
L 181.255814 53.016281 
Q 179.966512 53.016281 179.966512 55.263281 
L 179.966512 111.438281 
Q 179.966512 113.685281 181.255814 113.685281 
z
" clip-path="url(#p2bccc97f86)" style="fill: #d62728; stroke: #ffffff; stroke-linejoin: miter"/>
   </g>
   <g id="patch_8">
    <path d="M 213.488372 113.685281 
L 239.274419 113.685281 
Q 240.563721 113.685281 240.563721 111.438281 
L 240.563721 55.263281 
Q 240.563721 53.016281 239.274419 53.016281 
L 213.488372 53.016281 
Q 212.19907 53.016281 212.19907 55.263281 
L 212.19907 111.438281 
Q 212.19907 113.685281 213.488372 113.685281 
z
" clip-path="url(#p2bccc97f86)" style="fill: #1f77b4; stroke: #ffffff; stroke-linejoin: miter"/>
   </g>
   <g id="patch_9">
    <path d="M 245.72093 113.685281 
L 271.506977 113.685281 
Q 272.796279 113.685281 272.796279 111.438281 
L 272.796279 55.263281 
Q 272.796279 53.016281 271.506977 53.016281 
L 245.72093 53.016281 
Q 244.431628 53.016281 244.431628 55.263281 
L 244.431628 111.438281 
Q 244.431628 113.685281 245.72093 113.685281 
z
" clip-path="url(#p2bccc97f86)" style="fill: #ff7f0e; stroke: #ffffff; stroke-linejoin: miter"/>
   </g>
   <g id="patch_10">
    <path d="M 277.953488 113.685281 
L 303.739535 113.685281 
Q 305.028837 113.685281 305.028837 111.438281 
L 305.028837 55.263281 
Q 305.028837 53.016281 303.739535 53.016281 
L 277.953488 53.016281 
Q 276.664186 53.016281 276.664186 55.263281 
L 276.664186 111.438281 
Q 276.664186 113.685281 277.953488 113.685281 
z
" clip-path="url(#p2bccc97f86)" style="fill: #2ca02c; stroke: #ffffff; stroke-linejoin: miter"/>
   </g>
   <g id="patch_11">
    <path d="M 310.186047 113.685281 
L 335.972093 113.685281 
Q 337.261395 113.685281 337.261395 111.438281 
L 337.261395 55.263281 
Q 337.261395 53.016281 335.972093 53.016281 
L 310.186047 53.016281 
Q 308.896744 53.016281 308.896744 55.263281 
L 308.896744 111.438281 
Q 308.896744 113.685281 310.186047 113.685281 
z
" clip-path="url(#p2bccc97f86)" style="fill: #d62728; stroke: #ffffff; stroke-linejoin: miter"/>
   </g>
   <g id="patch_12">
    <path d="M 342.418605 113.685281 
L 368.204651 113.685281 
Q 369.493953 113.685281 369.493953 111.438281 
L 369.493953 55.263281 
Q 369.493953 53.016281 368.204651 53.016281 
L 342.418605 53.016281 
Q 341.129302 53.016281 341.129302 55.263281 
L 341.129302 111.438281 
Q 341.129302 113.685281 342.418605 113.685281 
z
" clip-path="url(#p2bccc97f86)" style="fill: #7f7f7f; stroke: #ffffff; stroke-linejoin: miter"/>
   </g>
   <g id="patch_13">
    <path d="M 374.651163 113.685281 
L 400.437209 113.685281 
Q 401.726512 113.685281 401.726512 111.438281 
L 401.726512 55.263281 
Q 401.726512 53.016281 400.437209 53.016281 
L 374.651163 53.016281 
Q 373.36186 53.016281 373.36186 55.263281 
L 373.36186 111.438281 
Q 373.36186 113.685281 374.651163 113.685281 
z
" clip-path="url(#p2bccc97f86)" style="fill: #7f7f7f; stroke: #ffffff; stroke-linejoin: miter"/>
   </g>
   <g id="patch_14">
    <path d="M 406.883721 113.685281 
L 432.669767 113.685281 
Q 433.95907 113.685281 433.95907 111.438281 
L 433.95907 55.263281 
Q 433.95907 53.016281 432.669767 53.016281 
L 406.883721 53.016281 
Q 405.594419 53.016281 405.594419 55.263281 
L 405.594419 111.438281 
Q 405.594419 113.685281 406.883721 113.685281 
z
" clip-path="url(#p2bccc97f86)" style="fill: #7f7f7f; stroke: #ffffff; stroke-linejoin: miter"/>
   </g>
   <g id="patch_15">
    <path d="M 439.116279 113.685281 
L 464.902326 113.685281 
Q 466.191628 113.685281 466.191628 111.438281 
L 466.191628 55.263281 
Q 466.191628 53.016281 464.902326 53.016281 
L 439.116279 53.016281 
Q 437.826977 53.016281 437.826977 55.263281 
L 437.826977 111.438281 
Q 437.826977 113.685281 439.116279 113.685281 
z
" clip-path="url(#p2bccc97f86)" style="fill: #d62728; stroke: #ffffff; stroke-linejoin: miter"/>
   </g>
   <g id="patch_16">
    <path d="M 471.348837 113.685281 
L 497.134884 113.685281 
Q 498.424186 113.685281 498.424186 111.438281 
L 498.424186 55.263281 
Q 498.424186 53.016281 497.134884 53.016281 
L 471.348837 53.016281 
Q 470.059535 53.016281 470.059535 55.263281 
L 470.059535 111.438281 
Q 470.059535 113.685281 471.348837 113.685281 
z
" clip-path="url(#p2bccc97f86)" style="fill: #1f77b4; stroke: #ffffff; stroke-linejoin: miter"/>
   </g>
   <g id="patch_17">
    <path d="M 503.581395 113.685281 
L 529.367442 113.685281 
Q 530.656744 113.685281 530.656744 111.438281 
L 530.656744 55.263281 
Q 530.656744 53.016281 529.367442 53.016281 
L 503.581395 53.016281 
Q 502.292093 53.016281 502.292093 55.263281 
L 502.292093 111.438281 
Q 502.292093 113.685281 503.581395 113.685281 
z
" clip-path="url(#p2bccc97f86)" style="fill: #ff7f0e; stroke: #ffffff; stroke-linejoin: miter"/>
   </g>
   <g id="patch_18">
    <path d="M 81.334884 124.920281 
L 184.47907 124.920281 
Q 185.768372 124.920281 185.768372 122.673281 
L 185.768372 44.028281 
Q 185.768372 41.781281 184.47907 41.781281 
L 81.334884 41.781281 
Q 80.045581 41.781281 80.045581 44.028281 
L 80.045581 122.673281 
Q 80.045581 124.920281 81.334884 124.920281 
L 81.334884 124.920281 
z
" clip-path="url(#p2bccc97f86)" style="fill: none; stroke-dasharray: 7.4,3.2; stroke-dashoffset: 0; stroke: #d62728; stroke-width: 2; stroke-linejoin: miter"/>
   </g>
   <g id="patch_19">
    <path d="M 339.195349 124.920281 
L 442.339535 124.920281 
Q 443.628837 124.920281 443.628837 122.673281 
L 443.628837 44.028281 
Q 443.628837 41.781281 442.339535 41.781281 
L 339.195349 41.781281 
Q 337.906047 41.781281 337.906047 44.028281 
L 337.906047 122.673281 
Q 337.906047 124.920281 339.195349 124.920281 
L 339.195349 124.920281 
z
" clip-path="url(#p2bccc97f86)" style="fill: none; stroke-dasharray: 7.4,3.2; stroke-dashoffset: 0; stroke: #d62728; stroke-width: 2; stroke-linejoin: miter"/>
   </g>
   <g id="text_1">
    <!-- A -->
    <g style="fill: #ffffff" transform="translate(29.116515 86.110156) scale(0.1 -0.1)">
     <defs>
      <path id="DejaVuSans-Bold-41" d="M 3419 850 
L 1538 850 
L 1241 0 
L 31 0 
L 1759 4666 
L 3194 4666 
L 4922 0 
L 3713 0 
L 3419 850 
z
M 1838 1716 
L 3116 1716 
L 2478 3572 
L 1838 1716 
z
" transform="scale(0.015625)"/>
     </defs>
     <use xlink:href="#DejaVuSans-Bold-41"/>
    </g>
   </g>
   <g id="text_2">
    <!-- T -->
    <g style="fill: #ffffff" transform="translate(61.807667 86.110156) scale(0.1 -0.1)">
     <defs>
      <path id="DejaVuSans-Bold-54" d="M 31 4666 
L 4331 4666 
L 4331 3756 
L 2784 3756 
L 2784 0 
L 1581 0 
L 1581 3756 
L 31 3756 
L 31 4666 
z
" transform="scale(0.015625)"/>
     </defs>
     <use xlink:href="#DejaVuSans-Bold-54"/>
    </g>
   </g>
   <g id="text_3">
    <!-- ? -->
    <g style="fill: #ffffff" transform="translate(94.550382 86.110156) scale(0.1 -0.1)">
     <defs>
      <path id="DejaVuSans-Bold-3f" d="M 2216 1575 
L 1088 1575 
L 1088 1728 
Q 1088 1984 1191 2182 
Q 1294 2381 1625 2688 
L 1825 2869 
Q 2003 3031 2086 3175 
Q 2169 3319 2169 3463 
Q 2169 3681 2019 3804 
Q 1869 3928 1600 3928 
Q 1347 3928 1053 3823 
Q 759 3719 441 3513 
L 441 4494 
Q 819 4625 1131 4687 
Q 1444 4750 1734 4750 
Q 2497 4750 2897 4439 
Q 3297 4128 3297 3531 
Q 3297 3225 3175 2983 
Q 3053 2741 2759 2463 
L 2559 2284 
Q 2347 2091 2281 1973 
Q 2216 1856 2216 1716 
L 2216 1575 
z
M 1088 1113 
L 2216 1113 
L 2216 0 
L 1088 0 
L 1088 1113 
z
" transform="scale(0.015625)"/>
     </defs>
     <use xlink:href="#DejaVuSans-Bold-3f"/>
    </g>
   </g>
   <g id="text_4">
    <!-- ? -->
    <g style="fill: #ffffff" transform="translate(126.78294 86.110156) scale(0.1 -0.1)">
     <use xlink:href="#DejaVuSans-Bold-3f"/>
    </g>
   </g>
   <g id="text_5">
    <!-- ? -->
    <g style="fill: #ffffff" transform="translate(159.015498 86.110156) scale(0.1 -0.1)">
     <use xlink:href="#DejaVuSans-Bold-3f"/>
    </g>
   </g>
   <g id="text_6">
    <!-- T -->
    <g style="fill: #ffffff" transform="translate(190.7379 86.110156) scale(0.1 -0.1)">
     <use xlink:href="#DejaVuSans-Bold-54"/>
    </g>
   </g>
   <g id="text_7">
    <!-- C -->
    <g style="fill: #ffffff" transform="translate(222.711864 86.110156) scale(0.1 -0.1)">
     <defs>
      <path id="DejaVuSans-Bold-43" d="M 4288 256 
Q 3956 84 3597 -3 
Q 3238 -91 2847 -91 
Q 1681 -91 1000 561 
Q 319 1213 319 2328 
Q 319 3447 1000 4098 
Q 1681 4750 2847 4750 
Q 3238 4750 3597 4662 
Q 3956 4575 4288 4403 
L 4288 3438 
Q 3953 3666 3628 3772 
Q 3303 3878 2944 3878 
Q 2300 3878 1931 3465 
Q 1563 3053 1563 2328 
Q 1563 1606 1931 1193 
Q 2300 781 2944 781 
Q 3303 781 3628 887 
Q 3953 994 4288 1222 
L 4288 256 
z
" transform="scale(0.015625)"/>
     </defs>
     <use xlink:href="#DejaVuSans-Bold-43"/>
    </g>
   </g>
   <g id="text_8">
    <!-- G -->
    <g style="fill: #ffffff" transform="translate(254.510047 86.110156) scale(0.1 -0.1)">
     <defs>
      <path id="DejaVuSans-Bold-47" d="M 4781 347 
Q 4331 128 3847 18 
Q 3363 -91 2847 -91 
Q 1681 -91 1000 561 
Q 319 1213 319 2328 
Q 319 3456 1012 4103 
Q 1706 4750 2913 4750 
Q 3378 4750 3804 4662 
Q 4231 4575 4609 4403 
L 4609 3438 
Q 4219 3659 3833 3768 
Q 3447 3878 3059 3878 
Q 2341 3878 1952 3476 
Q 1563 3075 1563 2328 
Q 1563 1588 1938 1184 
Q 2313 781 3003 781 
Q 3191 781 3352 804 
Q 3513 828 3641 878 
L 3641 1784 
L 2906 1784 
L 2906 2591 
L 4781 2591 
L 4781 347 
z
" transform="scale(0.015625)"/>
     </defs>
     <use xlink:href="#DejaVuSans-Bold-47"/>
    </g>
   </g>
   <g id="text_9">
    <!-- A -->
    <g style="fill: #ffffff" transform="translate(286.97698 86.110156) scale(0.1 -0.1)">
     <use xlink:href="#DejaVuSans-Bold-41"/>
    </g>
   </g>
   <g id="text_10">
    <!-- T -->
    <g style="fill: #ffffff" transform="translate(319.668132 86.110156) scale(0.1 -0.1)">
     <use xlink:href="#DejaVuSans-Bold-54"/>
    </g>
   </g>
   <g id="text_11">
    <!-- ? -->
    <g style="fill: #ffffff" transform="translate(352.410847 86.110156) scale(0.1 -0.1)">
     <use xlink:href="#DejaVuSans-Bold-3f"/>
    </g>
   </g>
   <g id="text_12">
    <!-- ? -->
    <g style="fill: #ffffff" transform="translate(384.643405 86.110156) scale(0.1 -0.1)">
     <use xlink:href="#DejaVuSans-Bold-3f"/>
    </g>
   </g>
   <g id="text_13">
    <!-- ? -->
    <g style="fill: #ffffff" transform="translate(416.875963 86.110156) scale(0.1 -0.1)">
     <use xlink:href="#DejaVuSans-Bold-3f"/>
    </g>
   </g>
   <g id="text_14">
    <!-- T -->
    <g style="fill: #ffffff" transform="translate(448.598365 86.110156) scale(0.1 -0.1)">
     <use xlink:href="#DejaVuSans-Bold-54"/>
    </g>
   </g>
   <g id="text_15">
    <!-- C -->
    <g style="fill: #ffffff" transform="translate(480.572329 86.110156) scale(0.1 -0.1)">
     <use xlink:href="#DejaVuSans-Bold-43"/>
    </g>
   </g>
   <g id="text_16">
    <!-- G -->
    <g style="fill: #ffffff" transform="translate(512.370512 86.110156) scale(0.1 -0.1)">
     <use xlink:href="#DejaVuSans-Bold-47"/>
    </g>
   </g>
   <g id="text_17">
    <!-- span -->
    <g style="fill: #d62728" transform="translate(123.297602 139.525781) scale(0.08 -0.08)">
     <defs>
      <path id="DejaVuSans-73" d="M 2834 3397 
L 2834 2853 
Q 2591 2978 2328 3040 
Q 2066 3103 1784 3103 
Q 1356 3103 1142 2972 
Q 928 2841 928 2578 
Q 928 2378 1081 2264 
Q 1234 2150 1697 2047 
L 1894 2003 
Q 2506 1872 2764 1633 
Q 3022 1394 3022 966 
Q 3022 478 2636 193 
Q 2250 -91 1575 -91 
Q 1294 -91 989 -36 
Q 684 19 347 128 
L 347 722 
Q 666 556 975 473 
Q 1284 391 1588 391 
Q 1994 391 2212 530 
Q 2431 669 2431 922 
Q 2431 1156 2273 1281 
Q 2116 1406 1581 1522 
L 1381 1569 
Q 847 1681 609 1914 
Q 372 2147 372 2553 
Q 372 3047 722 3315 
Q 1072 3584 1716 3584 
Q 2034 3584 2315 3537 
Q 2597 3491 2834 3397 
z
" transform="scale(0.015625)"/>
      <path id="DejaVuSans-70" d="M 1159 525 
L 1159 -1331 
L 581 -1331 
L 581 3500 
L 1159 3500 
L 1159 2969 
Q 1341 3281 1617 3432 
Q 1894 3584 2278 3584 
Q 2916 3584 3314 3078 
Q 3713 2572 3713 1747 
Q 3713 922 3314 415 
Q 2916 -91 2278 -91 
Q 1894 -91 1617 61 
Q 1341 213 1159 525 
z
M 3116 1747 
Q 3116 2381 2855 2742 
Q 2594 3103 2138 3103 
Q 1681 3103 1420 2742 
Q 1159 2381 1159 1747 
Q 1159 1113 1420 752 
Q 1681 391 2138 391 
Q 2594 391 2855 752 
Q 3116 1113 3116 1747 
z
" transform="scale(0.015625)"/>
      <path id="DejaVuSans-61" d="M 2194 1759 
Q 1497 1759 1228 1600 
Q 959 1441 959 1056 
Q 959 750 1161 570 
Q 1363 391 1709 391 
Q 2188 391 2477 730 
Q 2766 1069 2766 1631 
L 2766 1759 
L 2194 1759 
z
M 3341 1997 
L 3341 0 
L 2766 0 
L 2766 531 
Q 2569 213 2275 61 
Q 1981 -91 1556 -91 
Q 1019 -91 701 211 
Q 384 513 384 1019 
Q 384 1609 779 1909 
Q 1175 2209 1959 2209 
L 2766 2209 
L 2766 2266 
Q 2766 2663 2505 2880 
Q 2244 3097 1772 3097 
Q 1472 3097 1187 3025 
Q 903 2953 641 2809 
L 641 3341 
Q 956 3463 1253 3523 
Q 1550 3584 1831 3584 
Q 2591 3584 2966 3190 
Q 3341 2797 3341 1997 
z
" transform="scale(0.015625)"/>
      <path id="DejaVuSans-6e" d="M 3513 2113 
L 3513 0 
L 2938 0 
L 2938 2094 
Q 2938 2591 2744 2837 
Q 2550 3084 2163 3084 
Q 1697 3084 1428 2787 
Q 1159 2491 1159 1978 
L 1159 0 
L 581 0 
L 581 3500 
L 1159 3500 
L 1159 2956 
Q 1366 3272 1645 3428 
Q 1925 3584 2291 3584 
Q 2894 3584 3203 3211 
Q 3513 2838 3513 2113 
z
" transform="scale(0.015625)"/>
     </defs>
     <use xlink:href="#DejaVuSans-73"/>
     <use xlink:href="#DejaVuSans-70" transform="translate(52.099609 0)"/>
     <use xlink:href="#DejaVuSans-61" transform="translate(115.576172 0)"/>
     <use xlink:href="#DejaVuSans-6e" transform="translate(176.855469 0)"/>
    </g>
   </g>
   <g id="text_18">
    <!-- span -->
    <g style="fill: #d62728" transform="translate(381.158067 139.525781) scale(0.08 -0.08)">
     <use xlink:href="#DejaVuSans-73"/>
     <use xlink:href="#DejaVuSans-70" transform="translate(52.099609 0)"/>
     <use xlink:href="#DejaVuSans-61" transform="translate(115.576172 0)"/>
     <use xlink:href="#DejaVuSans-6e" transform="translate(176.855469 0)"/>
    </g>
   </g>
   <g id="text_19">
    <!-- Contiguous spans masked together (e.g., span length ~ Poisson(3)) -->
    <g transform="translate(118.658149 178.848281) scale(0.09 -0.09)">
     <defs>
      <path id="DejaVuSans-Oblique-43" d="M 4447 4306 
L 4319 3641 
Q 4019 3944 3683 4091 
Q 3347 4238 2956 4238 
Q 2422 4238 2017 3981 
Q 1613 3725 1319 3200 
Q 1131 2863 1032 2486 
Q 934 2109 934 1728 
Q 934 1091 1264 756 
Q 1594 422 2222 422 
Q 2656 422 3056 561 
Q 3456 700 3834 978 
L 3688 231 
Q 3316 72 2936 -9 
Q 2556 -91 2175 -91 
Q 1278 -91 773 396 
Q 269 884 269 1753 
Q 269 2309 461 2846 
Q 653 3384 1013 3828 
Q 1394 4300 1883 4525 
Q 2372 4750 3022 4750 
Q 3422 4750 3780 4639 
Q 4138 4528 4447 4306 
z
" transform="scale(0.015625)"/>
      <path id="DejaVuSans-Oblique-6f" d="M 1625 -91 
Q 1009 -91 651 289 
Q 294 669 294 1325 
Q 294 1706 417 2101 
Q 541 2497 738 2766 
Q 1047 3184 1428 3384 
Q 1809 3584 2291 3584 
Q 2888 3584 3255 3212 
Q 3622 2841 3622 2241 
Q 3622 1825 3500 1412 
Q 3378 1000 3181 728 
Q 2875 309 2494 109 
Q 2113 -91 1625 -91 
z
M 891 1344 
Q 891 869 1089 633 
Q 1288 397 1691 397 
Q 2269 397 2648 901 
Q 3028 1406 3028 2181 
Q 3028 2634 2825 2865 
Q 2622 3097 2228 3097 
Q 1903 3097 1650 2945 
Q 1397 2794 1197 2484 
Q 1050 2253 970 1956 
Q 891 1659 891 1344 
z
" transform="scale(0.015625)"/>
      <path id="DejaVuSans-Oblique-6e" d="M 3566 2113 
L 3156 0 
L 2578 0 
L 2988 2091 
Q 3016 2238 3031 2350 
Q 3047 2463 3047 2528 
Q 3047 2791 2881 2937 
Q 2716 3084 2419 3084 
Q 1956 3084 1622 2776 
Q 1288 2469 1184 1941 
L 800 0 
L 225 0 
L 903 3500 
L 1478 3500 
L 1363 2950 
Q 1603 3253 1940 3418 
Q 2278 3584 2650 3584 
Q 3113 3584 3367 3334 
Q 3622 3084 3622 2631 
Q 3622 2519 3608 2391 
Q 3594 2263 3566 2113 
z
" transform="scale(0.015625)"/>
      <path id="DejaVuSans-Oblique-74" d="M 2706 3500 
L 2619 3053 
L 1472 3053 
L 1100 1153 
Q 1081 1047 1072 975 
Q 1063 903 1063 863 
Q 1063 663 1183 572 
Q 1303 481 1569 481 
L 2150 481 
L 2053 0 
L 1503 0 
Q 991 0 739 200 
Q 488 400 488 806 
Q 488 878 497 964 
Q 506 1050 525 1153 
L 897 3053 
L 409 3053 
L 500 3500 
L 978 3500 
L 1172 4494 
L 1747 4494 
L 1556 3500 
L 2706 3500 
z
" transform="scale(0.015625)"/>
      <path id="DejaVuSans-Oblique-69" d="M 1172 4863 
L 1747 4863 
L 1606 4134 
L 1031 4134 
L 1172 4863 
z
M 909 3500 
L 1484 3500 
L 800 0 
L 225 0 
L 909 3500 
z
" transform="scale(0.015625)"/>
      <path id="DejaVuSans-Oblique-67" d="M 3816 3500 
L 3219 434 
Q 3047 -456 2561 -893 
Q 2075 -1331 1253 -1331 
Q 950 -1331 690 -1286 
Q 431 -1241 206 -1147 
L 313 -588 
Q 525 -725 762 -790 
Q 1000 -856 1269 -856 
Q 1816 -856 2167 -557 
Q 2519 -259 2631 300 
L 2681 563 
Q 2441 288 2122 144 
Q 1803 0 1434 0 
Q 903 0 598 351 
Q 294 703 294 1319 
Q 294 1803 478 2267 
Q 663 2731 997 3091 
Q 1219 3328 1514 3456 
Q 1809 3584 2131 3584 
Q 2484 3584 2746 3420 
Q 3009 3256 3138 2956 
L 3238 3500 
L 3816 3500 
z
M 2950 2216 
Q 2950 2641 2750 2872 
Q 2550 3103 2181 3103 
Q 1953 3103 1747 3012 
Q 1541 2922 1394 2759 
Q 1156 2491 1023 2127 
Q 891 1763 891 1375 
Q 891 944 1092 712 
Q 1294 481 1672 481 
Q 2219 481 2584 976 
Q 2950 1472 2950 2216 
z
" transform="scale(0.015625)"/>
      <path id="DejaVuSans-Oblique-75" d="M 428 1388 
L 838 3500 
L 1416 3500 
L 1006 1409 
Q 975 1256 961 1147 
Q 947 1038 947 966 
Q 947 700 1109 554 
Q 1272 409 1569 409 
Q 2031 409 2368 721 
Q 2706 1034 2809 1563 
L 3194 3500 
L 3769 3500 
L 3091 0 
L 2516 0 
L 2631 550 
Q 2388 244 2052 76 
Q 1716 -91 1338 -91 
Q 878 -91 622 161 
Q 366 413 366 863 
Q 366 956 381 1097 
Q 397 1238 428 1388 
z
" transform="scale(0.015625)"/>
      <path id="DejaVuSans-Oblique-73" d="M 3200 3397 
L 3091 2853 
Q 2863 2978 2609 3040 
Q 2356 3103 2088 3103 
Q 1634 3103 1373 2948 
Q 1113 2794 1113 2528 
Q 1113 2219 1719 2053 
Q 1766 2041 1788 2034 
L 1972 1978 
Q 2547 1819 2739 1644 
Q 2931 1469 2931 1166 
Q 2931 609 2489 259 
Q 2047 -91 1331 -91 
Q 1053 -91 747 -37 
Q 441 16 72 128 
L 184 722 
Q 500 559 806 475 
Q 1113 391 1394 391 
Q 1816 391 2080 572 
Q 2344 753 2344 1031 
Q 2344 1331 1650 1516 
L 1591 1531 
L 1394 1581 
Q 956 1697 753 1886 
Q 550 2075 550 2369 
Q 550 2928 970 3256 
Q 1391 3584 2113 3584 
Q 2397 3584 2667 3537 
Q 2938 3491 3200 3397 
z
" transform="scale(0.015625)"/>
      <path id="DejaVuSans-Oblique-20" transform="scale(0.015625)"/>
      <path id="DejaVuSans-Oblique-70" d="M 3175 2156 
Q 3175 2616 2975 2859 
Q 2775 3103 2400 3103 
Q 2144 3103 1911 2972 
Q 1678 2841 1497 2591 
Q 1319 2344 1212 1994 
Q 1106 1644 1106 1300 
Q 1106 863 1306 627 
Q 1506 391 1875 391 
Q 2147 391 2380 519 
Q 2613 647 2778 891 
Q 2956 1147 3065 1494 
Q 3175 1841 3175 2156 
z
M 1394 2969 
Q 1625 3272 1939 3428 
Q 2253 3584 2638 3584 
Q 3175 3584 3472 3232 
Q 3769 2881 3769 2247 
Q 3769 1728 3584 1258 
Q 3400 788 3053 416 
Q 2822 169 2531 39 
Q 2241 -91 1919 -91 
Q 1547 -91 1294 64 
Q 1041 219 916 525 
L 556 -1331 
L -19 -1331 
L 922 3500 
L 1497 3500 
L 1394 2969 
z
" transform="scale(0.015625)"/>
      <path id="DejaVuSans-Oblique-61" d="M 3438 1997 
L 3047 0 
L 2472 0 
L 2578 531 
Q 2325 219 2001 64 
Q 1678 -91 1281 -91 
Q 834 -91 548 182 
Q 263 456 263 884 
Q 263 1497 752 1853 
Q 1241 2209 2100 2209 
L 2900 2209 
L 2931 2363 
Q 2938 2388 2941 2417 
Q 2944 2447 2944 2509 
Q 2944 2788 2717 2942 
Q 2491 3097 2081 3097 
Q 1800 3097 1504 3025 
Q 1209 2953 897 2809 
L 997 3341 
Q 1322 3463 1633 3523 
Q 1944 3584 2234 3584 
Q 2853 3584 3176 3315 
Q 3500 3047 3500 2534 
Q 3500 2431 3484 2292 
Q 3469 2153 3438 1997 
z
M 2816 1759 
L 2241 1759 
Q 1534 1759 1195 1570 
Q 856 1381 856 984 
Q 856 709 1029 553 
Q 1203 397 1509 397 
Q 1978 397 2328 733 
Q 2678 1069 2791 1631 
L 2816 1759 
z
" transform="scale(0.015625)"/>
      <path id="DejaVuSans-Oblique-6d" d="M 5747 2113 
L 5338 0 
L 4763 0 
L 5166 2094 
Q 5191 2228 5203 2325 
Q 5216 2422 5216 2491 
Q 5216 2772 5059 2928 
Q 4903 3084 4622 3084 
Q 4203 3084 3875 2770 
Q 3547 2456 3450 1953 
L 3066 0 
L 2491 0 
L 2900 2094 
Q 2925 2209 2937 2307 
Q 2950 2406 2950 2484 
Q 2950 2769 2794 2926 
Q 2638 3084 2363 3084 
Q 1938 3084 1609 2770 
Q 1281 2456 1184 1953 
L 800 0 
L 225 0 
L 909 3500 
L 1484 3500 
L 1375 2956 
Q 1609 3263 1923 3423 
Q 2238 3584 2597 3584 
Q 2978 3584 3223 3384 
Q 3469 3184 3519 2828 
Q 3781 3197 4126 3390 
Q 4472 3584 4856 3584 
Q 5306 3584 5551 3325 
Q 5797 3066 5797 2591 
Q 5797 2488 5784 2364 
Q 5772 2241 5747 2113 
z
" transform="scale(0.015625)"/>
      <path id="DejaVuSans-Oblique-6b" d="M 1172 4863 
L 1747 4863 
L 1197 2028 
L 3169 3500 
L 3916 3500 
L 1716 1825 
L 3322 0 
L 2625 0 
L 1131 1709 
L 800 0 
L 225 0 
L 1172 4863 
z
" transform="scale(0.015625)"/>
      <path id="DejaVuSans-Oblique-65" d="M 3078 2063 
Q 3088 2113 3092 2166 
Q 3097 2219 3097 2272 
Q 3097 2653 2873 2875 
Q 2650 3097 2266 3097 
Q 1838 3097 1509 2826 
Q 1181 2556 1013 2059 
L 3078 2063 
z
M 3578 1613 
L 903 1613 
Q 884 1494 878 1425 
Q 872 1356 872 1306 
Q 872 872 1139 634 
Q 1406 397 1894 397 
Q 2269 397 2603 481 
Q 2938 566 3225 728 
L 3116 159 
Q 2806 34 2476 -28 
Q 2147 -91 1806 -91 
Q 1078 -91 686 257 
Q 294 606 294 1247 
Q 294 1794 489 2264 
Q 684 2734 1063 3103 
Q 1306 3334 1642 3459 
Q 1978 3584 2356 3584 
Q 2950 3584 3301 3228 
Q 3653 2872 3653 2272 
Q 3653 2128 3634 1964 
Q 3616 1800 3578 1613 
z
" transform="scale(0.015625)"/>
      <path id="DejaVuSans-Oblique-64" d="M 2675 525 
Q 2444 222 2128 65 
Q 1813 -91 1428 -91 
Q 903 -91 598 267 
Q 294 625 294 1247 
Q 294 1766 478 2236 
Q 663 2706 1013 3078 
Q 1244 3325 1534 3454 
Q 1825 3584 2144 3584 
Q 2481 3584 2739 3421 
Q 2997 3259 3138 2956 
L 3513 4863 
L 4091 4863 
L 3144 0 
L 2566 0 
L 2675 525 
z
M 891 1350 
Q 891 897 1095 644 
Q 1300 391 1663 391 
Q 1931 391 2161 520 
Q 2391 650 2566 903 
Q 2750 1166 2856 1509 
Q 2963 1853 2963 2188 
Q 2963 2622 2758 2865 
Q 2553 3109 2194 3109 
Q 1922 3109 1687 2981 
Q 1453 2853 1288 2613 
Q 1106 2353 998 2009 
Q 891 1666 891 1350 
z
" transform="scale(0.015625)"/>
      <path id="DejaVuSans-Oblique-68" d="M 3566 2113 
L 3156 0 
L 2578 0 
L 2988 2091 
Q 3016 2238 3031 2350 
Q 3047 2463 3047 2528 
Q 3047 2791 2881 2937 
Q 2716 3084 2419 3084 
Q 1956 3084 1617 2771 
Q 1278 2459 1178 1941 
L 800 0 
L 225 0 
L 1172 4863 
L 1747 4863 
L 1375 2950 
Q 1594 3244 1934 3414 
Q 2275 3584 2650 3584 
Q 3113 3584 3367 3334 
Q 3622 3084 3622 2631 
Q 3622 2519 3608 2391 
Q 3594 2263 3566 2113 
z
" transform="scale(0.015625)"/>
      <path id="DejaVuSans-Oblique-72" d="M 2853 2969 
Q 2766 3016 2653 3041 
Q 2541 3066 2413 3066 
Q 1953 3066 1609 2717 
Q 1266 2369 1153 1784 
L 800 0 
L 225 0 
L 909 3500 
L 1484 3500 
L 1375 2956 
Q 1603 3259 1920 3421 
Q 2238 3584 2597 3584 
Q 2691 3584 2781 3573 
Q 2872 3563 2963 3538 
L 2853 2969 
z
" transform="scale(0.015625)"/>
      <path id="DejaVuSans-Oblique-28" d="M 2731 4856 
Q 1903 3822 1495 2892 
Q 1088 1963 1088 1100 
Q 1088 606 1206 120 
Q 1325 -366 1563 -844 
L 1063 -844 
Q 775 -306 634 201 
Q 494 709 494 1197 
Q 494 2125 923 3036 
Q 1353 3947 2222 4856 
L 2731 4856 
z
" transform="scale(0.015625)"/>
      <path id="DejaVuSans-Oblique-2e" d="M 525 794 
L 1184 794 
L 1031 0 
L 372 0 
L 525 794 
z
" transform="scale(0.015625)"/>
      <path id="DejaVuSans-Oblique-2c" d="M 575 794 
L 1234 794 
L 1131 256 
L 422 -744 
L 19 -744 
L 469 256 
L 575 794 
z
" transform="scale(0.015625)"/>
      <path id="DejaVuSans-Oblique-6c" d="M 1172 4863 
L 1747 4863 
L 800 0 
L 225 0 
L 1172 4863 
z
" transform="scale(0.015625)"/>
      <path id="DejaVuSans-Oblique-7e" d="M 4684 2553 
L 4684 1997 
Q 4356 1750 4076 1644 
Q 3797 1538 3494 1538 
Q 3150 1538 2694 1722 
Q 2659 1734 2644 1741 
Q 2622 1750 2575 1766 
Q 2091 1959 1797 1959 
Q 1522 1959 1253 1839 
Q 984 1719 678 1459 
L 678 2016 
Q 1006 2263 1286 2370 
Q 1566 2478 1869 2478 
Q 2213 2478 2672 2291 
Q 2703 2278 2719 2272 
Q 2744 2263 2788 2247 
Q 3272 2053 3566 2053 
Q 3834 2053 4098 2172 
Q 4363 2291 4684 2553 
z
" transform="scale(0.015625)"/>
      <path id="DejaVuSans-Oblique-50" d="M 1081 4666 
L 2541 4666 
Q 3178 4666 3512 4369 
Q 3847 4072 3847 3500 
Q 3847 2731 3353 2303 
Q 2859 1875 1966 1875 
L 1172 1875 
L 806 0 
L 172 0 
L 1081 4666 
z
M 1613 4147 
L 1275 2394 
L 2069 2394 
Q 2606 2394 2893 2669 
Q 3181 2944 3181 3456 
Q 3181 3784 2986 3965 
Q 2791 4147 2438 4147 
L 1613 4147 
z
" transform="scale(0.015625)"/>
      <path id="DejaVuSans-Oblique-33" d="M 1013 4550 
Q 1356 4650 1679 4700 
Q 2003 4750 2316 4750 
Q 2934 4750 3296 4475 
Q 3659 4200 3659 3738 
Q 3659 3284 3373 2959 
Q 3088 2634 2584 2516 
Q 2978 2403 3162 2165 
Q 3347 1928 3347 1538 
Q 3347 1163 3167 834 
Q 2988 506 2650 269 
Q 2394 88 2037 -1 
Q 1681 -91 1216 -91 
Q 922 -91 622 -33 
Q 322 25 13 141 
L 128 738 
Q 422 575 720 495 
Q 1019 416 1331 416 
Q 1947 416 2330 733 
Q 2713 1050 2713 1556 
Q 2713 1881 2469 2057 
Q 2225 2234 1772 2234 
L 1228 2234 
L 1325 2747 
L 1900 2747 
Q 2419 2747 2717 2984 
Q 3016 3222 3016 3628 
Q 3016 3922 2797 4083 
Q 2578 4244 2181 4244 
Q 1881 4244 1567 4180 
Q 1253 4116 916 3988 
L 1013 4550 
z
" transform="scale(0.015625)"/>
      <path id="DejaVuSans-Oblique-29" d="M -397 -844 
Q 434 191 840 1120 
Q 1247 2050 1247 2913 
Q 1247 3406 1130 3892 
Q 1013 4378 775 4856 
L 1275 4856 
Q 1563 4316 1703 3812 
Q 1844 3309 1844 2822 
Q 1844 1891 1411 973 
Q 978 56 116 -844 
L -397 -844 
z
" transform="scale(0.015625)"/>
     </defs>
     <use xlink:href="#DejaVuSans-Oblique-43"/>
     <use xlink:href="#DejaVuSans-Oblique-6f" transform="translate(69.824219 0)"/>
     <use xlink:href="#DejaVuSans-Oblique-6e" transform="translate(131.005859 0)"/>
     <use xlink:href="#DejaVuSans-Oblique-74" transform="translate(194.384766 0)"/>
     <use xlink:href="#DejaVuSans-Oblique-69" transform="translate(233.59375 0)"/>
     <use xlink:href="#DejaVuSans-Oblique-67" transform="translate(261.376953 0)"/>
     <use xlink:href="#DejaVuSans-Oblique-75" transform="translate(324.853516 0)"/>
     <use xlink:href="#DejaVuSans-Oblique-6f" transform="translate(388.232422 0)"/>
     <use xlink:href="#DejaVuSans-Oblique-75" transform="translate(449.414062 0)"/>
     <use xlink:href="#DejaVuSans-Oblique-73" transform="translate(512.792969 0)"/>
     <use xlink:href="#DejaVuSans-Oblique-20" transform="translate(564.892578 0)"/>
     <use xlink:href="#DejaVuSans-Oblique-73" transform="translate(596.679688 0)"/>
     <use xlink:href="#DejaVuSans-Oblique-70" transform="translate(648.779297 0)"/>
     <use xlink:href="#DejaVuSans-Oblique-61" transform="translate(712.255859 0)"/>
     <use xlink:href="#DejaVuSans-Oblique-6e" transform="translate(773.535156 0)"/>
     <use xlink:href="#DejaVuSans-Oblique-73" transform="translate(836.914062 0)"/>
     <use xlink:href="#DejaVuSans-Oblique-20" transform="translate(889.013672 0)"/>
     <use xlink:href="#DejaVuSans-Oblique-6d" transform="translate(920.800781 0)"/>
     <use xlink:href="#DejaVuSans-Oblique-61" transform="translate(1018.212891 0)"/>
     <use xlink:href="#DejaVuSans-Oblique-73" transform="translate(1079.492188 0)"/>
     <use xlink:href="#DejaVuSans-Oblique-6b" transform="translate(1131.591797 0)"/>
     <use xlink:href="#DejaVuSans-Oblique-65" transform="translate(1189.501953 0)"/>
     <use xlink:href="#DejaVuSans-Oblique-64" transform="translate(1251.025391 0)"/>
     <use xlink:href="#DejaVuSans-Oblique-20" transform="translate(1314.501953 0)"/>
     <use xlink:href="#DejaVuSans-Oblique-74" transform="translate(1346.289062 0)"/>
     <use xlink:href="#DejaVuSans-Oblique-6f" transform="translate(1385.498047 0)"/>
     <use xlink:href="#DejaVuSans-Oblique-67" transform="translate(1446.679688 0)"/>
     <use xlink:href="#DejaVuSans-Oblique-65" transform="translate(1510.15625 0)"/>
     <use xlink:href="#DejaVuSans-Oblique-74" transform="translate(1571.679688 0)"/>
     <use xlink:href="#DejaVuSans-Oblique-68" transform="translate(1610.888672 0)"/>
     <use xlink:href="#DejaVuSans-Oblique-65" transform="translate(1674.267578 0)"/>
     <use xlink:href="#DejaVuSans-Oblique-72" transform="translate(1735.791016 0)"/>
     <use xlink:href="#DejaVuSans-Oblique-20" transform="translate(1776.904297 0)"/>
     <use xlink:href="#DejaVuSans-Oblique-28" transform="translate(1808.691406 0)"/>
     <use xlink:href="#DejaVuSans-Oblique-65" transform="translate(1847.705078 0)"/>
     <use xlink:href="#DejaVuSans-Oblique-2e" transform="translate(1909.228516 0)"/>
     <use xlink:href="#DejaVuSans-Oblique-67" transform="translate(1941.015625 0)"/>
     <use xlink:href="#DejaVuSans-Oblique-2e" transform="translate(2004.492188 0)"/>
     <use xlink:href="#DejaVuSans-Oblique-2c" transform="translate(2036.279297 0)"/>
     <use xlink:href="#DejaVuSans-Oblique-20" transform="translate(2068.066406 0)"/>
     <use xlink:href="#DejaVuSans-Oblique-73" transform="translate(2099.853516 0)"/>
     <use xlink:href="#DejaVuSans-Oblique-70" transform="translate(2151.953125 0)"/>
     <use xlink:href="#DejaVuSans-Oblique-61" transform="translate(2215.429688 0)"/>
     <use xlink:href="#DejaVuSans-Oblique-6e" transform="translate(2276.708984 0)"/>
     <use xlink:href="#DejaVuSans-Oblique-20" transform="translate(2340.087891 0)"/>
     <use xlink:href="#DejaVuSans-Oblique-6c" transform="translate(2371.875 0)"/>
     <use xlink:href="#DejaVuSans-Oblique-65" transform="translate(2399.658203 0)"/>
     <use xlink:href="#DejaVuSans-Oblique-6e" transform="translate(2461.181641 0)"/>
     <use xlink:href="#DejaVuSans-Oblique-67" transform="translate(2524.560547 0)"/>
     <use xlink:href="#DejaVuSans-Oblique-74" transform="translate(2588.037109 0)"/>
     <use xlink:href="#DejaVuSans-Oblique-68" transform="translate(2627.246094 0)"/>
     <use xlink:href="#DejaVuSans-Oblique-20" transform="translate(2690.625 0)"/>
     <use xlink:href="#DejaVuSans-Oblique-7e" transform="translate(2722.412109 0)"/>
     <use xlink:href="#DejaVuSans-Oblique-20" transform="translate(2806.201172 0)"/>
     <use xlink:href="#DejaVuSans-Oblique-50" transform="translate(2837.988281 0)"/>
     <use xlink:href="#DejaVuSans-Oblique-6f" transform="translate(2898.291016 0)"/>
     <use xlink:href="#DejaVuSans-Oblique-69" transform="translate(2959.472656 0)"/>
     <use xlink:href="#DejaVuSans-Oblique-73" transform="translate(2987.255859 0)"/>
     <use xlink:href="#DejaVuSans-Oblique-73" transform="translate(3039.355469 0)"/>
     <use xlink:href="#DejaVuSans-Oblique-6f" transform="translate(3091.455078 0)"/>
     <use xlink:href="#DejaVuSans-Oblique-6e" transform="translate(3152.636719 0)"/>
     <use xlink:href="#DejaVuSans-Oblique-28" transform="translate(3216.015625 0)"/>
     <use xlink:href="#DejaVuSans-Oblique-33" transform="translate(3255.029297 0)"/>
     <use xlink:href="#DejaVuSans-Oblique-29" transform="translate(3318.652344 0)"/>
     <use xlink:href="#DejaVuSans-Oblique-29" transform="translate(3357.666016 0)"/>
    </g>
   </g>
   <g id="text_20">
    <!-- B. Span Masking -->
    <g transform="translate(7.2 15.558281) scale(0.11 -0.11)">
     <defs>
      <path id="DejaVuSans-Bold-42" d="M 2456 2859 
Q 2741 2859 2887 2984 
Q 3034 3109 3034 3353 
Q 3034 3594 2887 3720 
Q 2741 3847 2456 3847 
L 1791 3847 
L 1791 2859 
L 2456 2859 
z
M 2497 819 
Q 2859 819 3042 972 
Q 3225 1125 3225 1434 
Q 3225 1738 3044 1889 
Q 2863 2041 2497 2041 
L 1791 2041 
L 1791 819 
L 2497 819 
z
M 3616 2497 
Q 4003 2384 4215 2081 
Q 4428 1778 4428 1338 
Q 4428 663 3972 331 
Q 3516 0 2584 0 
L 588 0 
L 588 4666 
L 2394 4666 
Q 3366 4666 3802 4372 
Q 4238 4078 4238 3431 
Q 4238 3091 4078 2852 
Q 3919 2613 3616 2497 
z
" transform="scale(0.015625)"/>
      <path id="DejaVuSans-Bold-2e" d="M 653 1209 
L 1778 1209 
L 1778 0 
L 653 0 
L 653 1209 
z
" transform="scale(0.015625)"/>
      <path id="DejaVuSans-Bold-20" transform="scale(0.015625)"/>
      <path id="DejaVuSans-Bold-53" d="M 3834 4519 
L 3834 3531 
Q 3450 3703 3084 3790 
Q 2719 3878 2394 3878 
Q 1963 3878 1756 3759 
Q 1550 3641 1550 3391 
Q 1550 3203 1689 3098 
Q 1828 2994 2194 2919 
L 2706 2816 
Q 3484 2659 3812 2340 
Q 4141 2022 4141 1434 
Q 4141 663 3683 286 
Q 3225 -91 2284 -91 
Q 1841 -91 1394 -6 
Q 947 78 500 244 
L 500 1259 
Q 947 1022 1364 901 
Q 1781 781 2169 781 
Q 2563 781 2772 912 
Q 2981 1044 2981 1288 
Q 2981 1506 2839 1625 
Q 2697 1744 2272 1838 
L 1806 1941 
Q 1106 2091 782 2419 
Q 459 2747 459 3303 
Q 459 4000 909 4375 
Q 1359 4750 2203 4750 
Q 2588 4750 2994 4692 
Q 3400 4634 3834 4519 
z
" transform="scale(0.015625)"/>
      <path id="DejaVuSans-Bold-70" d="M 1656 506 
L 1656 -1331 
L 538 -1331 
L 538 3500 
L 1656 3500 
L 1656 2988 
Q 1888 3294 2169 3439 
Q 2450 3584 2816 3584 
Q 3463 3584 3878 3070 
Q 4294 2556 4294 1747 
Q 4294 938 3878 423 
Q 3463 -91 2816 -91 
Q 2450 -91 2169 54 
Q 1888 200 1656 506 
z
M 2400 2772 
Q 2041 2772 1848 2508 
Q 1656 2244 1656 1747 
Q 1656 1250 1848 986 
Q 2041 722 2400 722 
Q 2759 722 2948 984 
Q 3138 1247 3138 1747 
Q 3138 2247 2948 2509 
Q 2759 2772 2400 2772 
z
" transform="scale(0.015625)"/>
      <path id="DejaVuSans-Bold-61" d="M 2106 1575 
Q 1756 1575 1579 1456 
Q 1403 1338 1403 1106 
Q 1403 894 1545 773 
Q 1688 653 1941 653 
Q 2256 653 2472 879 
Q 2688 1106 2688 1447 
L 2688 1575 
L 2106 1575 
z
M 3816 1997 
L 3816 0 
L 2688 0 
L 2688 519 
Q 2463 200 2181 54 
Q 1900 -91 1497 -91 
Q 953 -91 614 226 
Q 275 544 275 1050 
Q 275 1666 698 1953 
Q 1122 2241 2028 2241 
L 2688 2241 
L 2688 2328 
Q 2688 2594 2478 2717 
Q 2269 2841 1825 2841 
Q 1466 2841 1156 2769 
Q 847 2697 581 2553 
L 581 3406 
Q 941 3494 1303 3539 
Q 1666 3584 2028 3584 
Q 2975 3584 3395 3211 
Q 3816 2838 3816 1997 
z
" transform="scale(0.015625)"/>
      <path id="DejaVuSans-Bold-6e" d="M 4056 2131 
L 4056 0 
L 2931 0 
L 2931 347 
L 2931 1631 
Q 2931 2084 2911 2256 
Q 2891 2428 2841 2509 
Q 2775 2619 2662 2680 
Q 2550 2741 2406 2741 
Q 2056 2741 1856 2470 
Q 1656 2200 1656 1722 
L 1656 0 
L 538 0 
L 538 3500 
L 1656 3500 
L 1656 2988 
Q 1909 3294 2193 3439 
Q 2478 3584 2822 3584 
Q 3428 3584 3742 3212 
Q 4056 2841 4056 2131 
z
" transform="scale(0.015625)"/>
      <path id="DejaVuSans-Bold-4d" d="M 588 4666 
L 2119 4666 
L 3181 2169 
L 4250 4666 
L 5778 4666 
L 5778 0 
L 4641 0 
L 4641 3413 
L 3566 897 
L 2803 897 
L 1728 3413 
L 1728 0 
L 588 0 
L 588 4666 
z
" transform="scale(0.015625)"/>
      <path id="DejaVuSans-Bold-73" d="M 3272 3391 
L 3272 2541 
Q 2913 2691 2578 2766 
Q 2244 2841 1947 2841 
Q 1628 2841 1473 2761 
Q 1319 2681 1319 2516 
Q 1319 2381 1436 2309 
Q 1553 2238 1856 2203 
L 2053 2175 
Q 2913 2066 3209 1816 
Q 3506 1566 3506 1031 
Q 3506 472 3093 190 
Q 2681 -91 1863 -91 
Q 1516 -91 1145 -36 
Q 775 19 384 128 
L 384 978 
Q 719 816 1070 734 
Q 1422 653 1784 653 
Q 2113 653 2278 743 
Q 2444 834 2444 1013 
Q 2444 1163 2330 1236 
Q 2216 1309 1875 1350 
L 1678 1375 
Q 931 1469 631 1722 
Q 331 1975 331 2491 
Q 331 3047 712 3315 
Q 1094 3584 1881 3584 
Q 2191 3584 2531 3537 
Q 2872 3491 3272 3391 
z
" transform="scale(0.015625)"/>
      <path id="DejaVuSans-Bold-6b" d="M 538 4863 
L 1656 4863 
L 1656 2216 
L 2944 3500 
L 4244 3500 
L 2534 1894 
L 4378 0 
L 3022 0 
L 1656 1459 
L 1656 0 
L 538 0 
L 538 4863 
z
" transform="scale(0.015625)"/>
      <path id="DejaVuSans-Bold-69" d="M 538 3500 
L 1656 3500 
L 1656 0 
L 538 0 
L 538 3500 
z
M 538 4863 
L 1656 4863 
L 1656 3950 
L 538 3950 
L 538 4863 
z
" transform="scale(0.015625)"/>
      <path id="DejaVuSans-Bold-67" d="M 2919 594 
Q 2688 288 2409 144 
Q 2131 0 1766 0 
Q 1125 0 706 504 
Q 288 1009 288 1791 
Q 288 2575 706 3076 
Q 1125 3578 1766 3578 
Q 2131 3578 2409 3434 
Q 2688 3291 2919 2981 
L 2919 3500 
L 4044 3500 
L 4044 353 
Q 4044 -491 3511 -936 
Q 2978 -1381 1966 -1381 
Q 1638 -1381 1331 -1331 
Q 1025 -1281 716 -1178 
L 716 -306 
Q 1009 -475 1290 -558 
Q 1572 -641 1856 -641 
Q 2406 -641 2662 -400 
Q 2919 -159 2919 353 
L 2919 594 
z
M 2181 2772 
Q 1834 2772 1640 2515 
Q 1447 2259 1447 1791 
Q 1447 1309 1634 1061 
Q 1822 813 2181 813 
Q 2531 813 2725 1069 
Q 2919 1325 2919 1791 
Q 2919 2259 2725 2515 
Q 2531 2772 2181 2772 
z
" transform="scale(0.015625)"/>
     </defs>
     <use xlink:href="#DejaVuSans-Bold-42"/>
     <use xlink:href="#DejaVuSans-Bold-2e" transform="translate(76.220703 0)"/>
     <use xlink:href="#DejaVuSans-Bold-20" transform="translate(114.208984 0)"/>
     <use xlink:href="#DejaVuSans-Bold-53" transform="translate(149.023438 0)"/>
     <use xlink:href="#DejaVuSans-Bold-70" transform="translate(221.044922 0)"/>
     <use xlink:href="#DejaVuSans-Bold-61" transform="translate(292.626953 0)"/>
     <use xlink:href="#DejaVuSans-Bold-6e" transform="translate(360.107422 0)"/>
     <use xlink:href="#DejaVuSans-Bold-20" transform="translate(431.298828 0)"/>
     <use xlink:href="#DejaVuSans-Bold-4d" transform="translate(466.113281 0)"/>
     <use xlink:href="#DejaVuSans-Bold-61" transform="translate(565.625 0)"/>
     <use xlink:href="#DejaVuSans-Bold-73" transform="translate(633.105469 0)"/>
     <use xlink:href="#DejaVuSans-Bold-6b" transform="translate(692.626953 0)"/>
     <use xlink:href="#DejaVuSans-Bold-69" transform="translate(759.130859 0)"/>
     <use xlink:href="#DejaVuSans-Bold-6e" transform="translate(793.408203 0)"/>
     <use xlink:href="#DejaVuSans-Bold-67" transform="translate(864.599609 0)"/>
    </g>
   </g>
  </g>
 </g>
 <defs>
  <clipPath id="p2bccc97f86">
   <rect x="7.2" y="21.558281" width="554.4" height="179.76"/>
  </clipPath>
 </defs>
</svg>
