<?xml version="1.0" encoding="UTF-8" standalone="no"?>
<!DOCTYPE svg PUBLIC "-//W3C//DTD SVG 1.1//EN"
 "http://www.w3.org/Graphics/SVG/1.1/DTD/svg11.dtd">
<!-- Generated by graphviz version 2.43.0 (0)
 -->
<!-- Title: multitask Pages: 1 -->
<svg width="576pt" height="237pt"
 viewBox="0.00 0.00 576.00 236.90" xmlns="http://www.w3.org/2000/svg" xmlns:xlink="http://www.w3.org/1999/xlink">
<g id="graph0" class="graph" transform="scale(1.16 1.16) rotate(0) translate(4 200)">
<title>multitask</title>
<polygon fill="white" stroke="transparent" points="-4,4 -4,-200 492,-200 492,4 -4,4"/>
<!-- input -->
<g id="node1" class="node">
<title>input</title>
<path fill="#aec7e8" stroke="#333333" stroke-width="1.5" d="M204.5,-188C204.5,-188 119.5,-188 119.5,-188 113.5,-188 107.5,-182 107.5,-176 107.5,-176 107.5,-164 107.5,-164 107.5,-158 113.5,-152 119.5,-152 119.5,-152 204.5,-152 204.5,-152 210.5,-152 216.5,-158 216.5,-164 216.5,-164 216.5,-176 216.5,-176 216.5,-182 210.5,-188 204.5,-188"/>
<text text-anchor="middle" x="162" y="-173" font-family="Arial" font-size="10.00">DNA Sequence</text>
<text text-anchor="middle" x="162" y="-162" font-family="Arial" font-size="10.00">(e.g., 100kb window)</text>
</g>
<!-- encoder -->
<g id="node2" class="node">
<title>encoder</title>
<path fill="#9467bd" stroke="#333333" stroke-width="1.5" d="M202,-108C202,-108 122,-108 122,-108 116,-108 110,-102 110,-96 110,-96 110,-84 110,-84 110,-78 116,-72 122,-72 122,-72 202,-72 202,-72 208,-72 214,-78 214,-84 214,-84 214,-96 214,-96 214,-102 208,-108 202,-108"/>
<text text-anchor="middle" x="162" y="-93" font-family="Arial" font-size="10.00" fill="white">Shared Transformer</text>
<text text-anchor="middle" x="162" y="-82" font-family="Arial" font-size="10.00" fill="white">Encoder</text>
</g>
<!-- input&#45;&gt;encoder -->
<g id="edge1" class="edge">
<title>input&#45;&gt;encoder</title>
<path fill="none" stroke="black" d="M162,-151.69C162,-141.89 162,-129.42 162,-118.33"/>
<polygon fill="black" stroke="black" points="165.5,-118.26 162,-108.26 158.5,-118.26 165.5,-118.26"/>
</g>
<!-- head_tf -->
<g id="node3" class="node">
<title>head_tf</title>
<path fill="#1f77b4" stroke="#333333" stroke-width="1.5" d="M54,-36C54,-36 12,-36 12,-36 6,-36 0,-30 0,-24 0,-24 0,-12 0,-12 0,-6 6,0 12,0 12,0 54,0 54,0 60,0 66,-6 66,-12 66,-12 66,-24 66,-24 66,-30 60,-36 54,-36"/>
<text text-anchor="middle" x="33" y="-21" font-family="Arial" font-size="10.00" fill="white">TF Binding</text>
<text text-anchor="middle" x="33" y="-10" font-family="Arial" font-size="10.00" fill="white">(690 TFs)</text>
</g>
<!-- encoder&#45;&gt;head_tf -->
<g id="edge2" class="edge">
<title>encoder&#45;&gt;head_tf</title>
<path fill="none" stroke="black" d="M130.44,-71.88C113.34,-62.6 92.02,-51.03 73.68,-41.08"/>
<polygon fill="black" stroke="black" points="75.14,-37.88 64.68,-36.19 71.8,-44.04 75.14,-37.88"/>
</g>
<!-- head_dnase -->
<g id="node4" class="node">
<title>head_dnase</title>
<path fill="#2ca02c" stroke="#333333" stroke-width="1.5" d="M168.5,-36C168.5,-36 107.5,-36 107.5,-36 101.5,-36 95.5,-30 95.5,-24 95.5,-24 95.5,-12 95.5,-12 95.5,-6 101.5,0 107.5,0 107.5,0 168.5,0 168.5,0 174.5,0 180.5,-6 180.5,-12 180.5,-12 180.5,-24 180.5,-24 180.5,-30 174.5,-36 168.5,-36"/>
<text text-anchor="middle" x="138" y="-21" font-family="Arial" font-size="10.00" fill="white">DNase</text>
<text text-anchor="middle" x="138" y="-10" font-family="Arial" font-size="10.00" fill="white">(125 cell types)</text>
</g>
<!-- encoder&#45;&gt;head_dnase -->
<g id="edge3" class="edge">
<title>encoder&#45;&gt;head_dnase</title>
<path fill="none" stroke="black" d="M156.07,-71.7C153.39,-63.9 150.17,-54.51 147.2,-45.83"/>
<polygon fill="black" stroke="black" points="150.42,-44.43 143.86,-36.1 143.8,-46.7 150.42,-44.43"/>
</g>
<!-- head_histone -->
<g id="node5" class="node">
<title>head_histone</title>
<path fill="#ff7f0e" stroke="#333333" stroke-width="1.5" d="M282.5,-36C282.5,-36 221.5,-36 221.5,-36 215.5,-36 209.5,-30 209.5,-24 209.5,-24 209.5,-12 209.5,-12 209.5,-6 215.5,0 221.5,0 221.5,0 282.5,0 282.5,0 288.5,0 294.5,-6 294.5,-12 294.5,-12 294.5,-24 294.5,-24 294.5,-30 288.5,-36 282.5,-36"/>
<text text-anchor="middle" x="252" y="-21" font-family="Arial" font-size="10.00" fill="white">Histone Marks</text>
<text text-anchor="middle" x="252" y="-10" font-family="Arial" font-size="10.00" fill="white">(100+ features)</text>
</g>
<!-- encoder&#45;&gt;head_histone -->
<g id="edge4" class="edge">
<title>encoder&#45;&gt;head_histone</title>
<path fill="none" stroke="black" d="M184.25,-71.7C195.58,-62.88 209.53,-52.03 221.82,-42.47"/>
<polygon fill="black" stroke="black" points="224.26,-45.01 230.01,-36.1 219.97,-39.48 224.26,-45.01"/>
</g>
<!-- head_expr -->
<g id="node6" class="node">
<title>head_expr</title>
<path fill="#d62728" stroke="#333333" stroke-width="1.5" d="M396.5,-36C396.5,-36 335.5,-36 335.5,-36 329.5,-36 323.5,-30 323.5,-24 323.5,-24 323.5,-12 323.5,-12 323.5,-6 329.5,0 335.5,0 335.5,0 396.5,0 396.5,0 402.5,0 408.5,-6 408.5,-12 408.5,-12 408.5,-24 408.5,-24 408.5,-30 402.5,-36 396.5,-36"/>
<text text-anchor="middle" x="366" y="-21" font-family="Arial" font-size="10.00" fill="white">Expression</text>
<text text-anchor="middle" x="366" y="-10" font-family="Arial" font-size="10.00" fill="white">(GTEx tissues)</text>
</g>
<!-- encoder&#45;&gt;head_expr -->
<g id="edge5" class="edge">
<title>encoder&#45;&gt;head_expr</title>
<path fill="none" stroke="black" d="M211.64,-71.97C242.64,-61.33 282.48,-47.66 313.93,-36.87"/>
<polygon fill="black" stroke="black" points="315.07,-40.17 323.4,-33.62 312.8,-33.55 315.07,-40.17"/>
</g>
<!-- note -->
<g id="node7" class="node">
<title>note</title>
<polygon fill="#fff8dc" stroke="#333333" stroke-width="1.5" points="482,-196 342,-196 342,-144 488,-144 488,-190 482,-196"/>
<polyline fill="none" stroke="#333333" stroke-width="1.5" points="482,-196 482,-190 "/>
<polyline fill="none" stroke="#333333" stroke-width="1.5" points="488,-190 482,-190 "/>
<text text-anchor="middle" x="415" y="-182.8" font-family="Arial" font-size="9.00">Shared encoder learns general</text>
<text text-anchor="middle" x="415" y="-172.8" font-family="Arial" font-size="9.00">regulatory grammar</text>
<text text-anchor="middle" x="415" y="-152.8" font-family="Arial" font-size="9.00">Task heads specialize</text>
</g>
</g>
</svg>
