<?xml version="1.0" encoding="utf-8" standalone="no"?>
<!DOCTYPE svg PUBLIC "-//W3C//DTD SVG 1.1//EN"
  "http://www.w3.org/Graphics/SVG/1.1/DTD/svg11.dtd">
<svg xmlns:xlink="http://www.w3.org/1999/xlink" width="712.96125pt" height="281.0325pt" viewBox="0 0 712.96125 281.0325" xmlns="http://www.w3.org/2000/svg" version="1.1">
 <metadata>
  <rdf:RDF xmlns:dc="http://purl.org/dc/elements/1.1/" xmlns:cc="http://creativecommons.org/ns#" xmlns:rdf="http://www.w3.org/1999/02/22-rdf-syntax-ns#">
   <cc:Work>
    <dc:type rdf:resource="http://purl.org/dc/dcmitype/StillImage"/>
    <dc:date>2026-01-08T05:52:05.752200</dc:date>
    <dc:format>image/svg+xml</dc:format>
    <dc:creator>
     <cc:Agent>
      <dc:title>Matplotlib v3.10.7, https://matplotlib.org/</dc:title>
     </cc:Agent>
    </dc:creator>
   </cc:Work>
  </rdf:RDF>
 </metadata>
 <defs>
  <style type="text/css">*{stroke-linejoin: round; stroke-linecap: butt}</style>
 </defs>
 <g id="figure_1">
  <g id="patch_1">
   <path d="M 0 281.0325 
L 712.96125 281.0325 
L 712.96125 0 
L 0 0 
z
" style="fill: #ffffff"/>
  </g>
  <g id="axes_1">
   <g id="patch_2">
    <path d="M 40.68125 243.398125 
L 349.57125 243.398125 
L 349.57125 22.318125 
L 40.68125 22.318125 
z
" style="fill: #ffffff"/>
   </g>
   <g id="matplotlib.axis_1">
    <g id="xtick_1">
     <g id="line2d_1">
      <defs>
       <path id="mebe0b224c9" d="M 0 0 
L 0 3.5 
" style="stroke: #000000; stroke-width: 0.8"/>
      </defs>
      <g>
       <use xlink:href="#mebe0b224c9" x="54.721705" y="243.398125" style="stroke: #000000; stroke-width: 0.8"/>
      </g>
     </g>
     <g id="text_1">
      <!-- 0 -->
      <g transform="translate(51.540455 257.996562) scale(0.1 -0.1)">
       <defs>
        <path id="DejaVuSans-30" d="M 2034 4250 
Q 1547 4250 1301 3770 
Q 1056 3291 1056 2328 
Q 1056 1369 1301 889 
Q 1547 409 2034 409 
Q 2525 409 2770 889 
Q 3016 1369 3016 2328 
Q 3016 3291 2770 3770 
Q 2525 4250 2034 4250 
z
M 2034 4750 
Q 2819 4750 3233 4129 
Q 3647 3509 3647 2328 
Q 3647 1150 3233 529 
Q 2819 -91 2034 -91 
Q 1250 -91 836 529 
Q 422 1150 422 2328 
Q 422 3509 836 4129 
Q 1250 4750 2034 4750 
z
" transform="scale(0.015625)"/>
       </defs>
       <use xlink:href="#DejaVuSans-30"/>
      </g>
     </g>
    </g>
    <g id="xtick_2">
     <g id="line2d_2">
      <g>
       <use xlink:href="#mebe0b224c9" x="110.883523" y="243.398125" style="stroke: #000000; stroke-width: 0.8"/>
      </g>
     </g>
     <g id="text_2">
      <!-- 50 -->
      <g transform="translate(104.521023 257.996562) scale(0.1 -0.1)">
       <defs>
        <path id="DejaVuSans-35" d="M 691 4666 
L 3169 4666 
L 3169 4134 
L 1269 4134 
L 1269 2991 
Q 1406 3038 1543 3061 
Q 1681 3084 1819 3084 
Q 2600 3084 3056 2656 
Q 3513 2228 3513 1497 
Q 3513 744 3044 326 
Q 2575 -91 1722 -91 
Q 1428 -91 1123 -41 
Q 819 9 494 109 
L 494 744 
Q 775 591 1075 516 
Q 1375 441 1709 441 
Q 2250 441 2565 725 
Q 2881 1009 2881 1497 
Q 2881 1984 2565 2268 
Q 2250 2553 1709 2553 
Q 1456 2553 1204 2497 
Q 953 2441 691 2322 
L 691 4666 
z
" transform="scale(0.015625)"/>
       </defs>
       <use xlink:href="#DejaVuSans-35"/>
       <use xlink:href="#DejaVuSans-30" transform="translate(63.623047 0)"/>
      </g>
     </g>
    </g>
    <g id="xtick_3">
     <g id="line2d_3">
      <g>
       <use xlink:href="#mebe0b224c9" x="167.045341" y="243.398125" style="stroke: #000000; stroke-width: 0.8"/>
      </g>
     </g>
     <g id="text_3">
      <!-- 100 -->
      <g transform="translate(157.501591 257.996562) scale(0.1 -0.1)">
       <defs>
        <path id="DejaVuSans-31" d="M 794 531 
L 1825 531 
L 1825 4091 
L 703 3866 
L 703 4441 
L 1819 4666 
L 2450 4666 
L 2450 531 
L 3481 531 
L 3481 0 
L 794 0 
L 794 531 
z
" transform="scale(0.015625)"/>
       </defs>
       <use xlink:href="#DejaVuSans-31"/>
       <use xlink:href="#DejaVuSans-30" transform="translate(63.623047 0)"/>
       <use xlink:href="#DejaVuSans-30" transform="translate(127.246094 0)"/>
      </g>
     </g>
    </g>
    <g id="xtick_4">
     <g id="line2d_4">
      <g>
       <use xlink:href="#mebe0b224c9" x="223.207159" y="243.398125" style="stroke: #000000; stroke-width: 0.8"/>
      </g>
     </g>
     <g id="text_4">
      <!-- 150 -->
      <g transform="translate(213.663409 257.996562) scale(0.1 -0.1)">
       <use xlink:href="#DejaVuSans-31"/>
       <use xlink:href="#DejaVuSans-35" transform="translate(63.623047 0)"/>
       <use xlink:href="#DejaVuSans-30" transform="translate(127.246094 0)"/>
      </g>
     </g>
    </g>
    <g id="xtick_5">
     <g id="line2d_5">
      <g>
       <use xlink:href="#mebe0b224c9" x="279.368977" y="243.398125" style="stroke: #000000; stroke-width: 0.8"/>
      </g>
     </g>
     <g id="text_5">
      <!-- 200 -->
      <g transform="translate(269.825227 257.996562) scale(0.1 -0.1)">
       <defs>
        <path id="DejaVuSans-32" d="M 1228 531 
L 3431 531 
L 3431 0 
L 469 0 
L 469 531 
Q 828 903 1448 1529 
Q 2069 2156 2228 2338 
Q 2531 2678 2651 2914 
Q 2772 3150 2772 3378 
Q 2772 3750 2511 3984 
Q 2250 4219 1831 4219 
Q 1534 4219 1204 4116 
Q 875 4013 500 3803 
L 500 4441 
Q 881 4594 1212 4672 
Q 1544 4750 1819 4750 
Q 2544 4750 2975 4387 
Q 3406 4025 3406 3419 
Q 3406 3131 3298 2873 
Q 3191 2616 2906 2266 
Q 2828 2175 2409 1742 
Q 1991 1309 1228 531 
z
" transform="scale(0.015625)"/>
       </defs>
       <use xlink:href="#DejaVuSans-32"/>
       <use xlink:href="#DejaVuSans-30" transform="translate(63.623047 0)"/>
       <use xlink:href="#DejaVuSans-30" transform="translate(127.246094 0)"/>
      </g>
     </g>
    </g>
    <g id="xtick_6">
     <g id="line2d_6">
      <g>
       <use xlink:href="#mebe0b224c9" x="335.530795" y="243.398125" style="stroke: #000000; stroke-width: 0.8"/>
      </g>
     </g>
     <g id="text_6">
      <!-- 250 -->
      <g transform="translate(325.987045 257.996562) scale(0.1 -0.1)">
       <use xlink:href="#DejaVuSans-32"/>
       <use xlink:href="#DejaVuSans-35" transform="translate(63.623047 0)"/>
       <use xlink:href="#DejaVuSans-30" transform="translate(127.246094 0)"/>
      </g>
     </g>
    </g>
    <g id="text_7">
     <!-- Training Steps (thousands) -->
     <g transform="translate(118.903594 271.674687) scale(0.1 -0.1)">
      <defs>
       <path id="DejaVuSans-Bold-54" d="M 31 4666 
L 4331 4666 
L 4331 3756 
L 2784 3756 
L 2784 0 
L 1581 0 
L 1581 3756 
L 31 3756 
L 31 4666 
z
" transform="scale(0.015625)"/>
       <path id="DejaVuSans-Bold-72" d="M 3138 2547 
Q 2991 2616 2845 2648 
Q 2700 2681 2553 2681 
Q 2122 2681 1889 2404 
Q 1656 2128 1656 1613 
L 1656 0 
L 538 0 
L 538 3500 
L 1656 3500 
L 1656 2925 
Q 1872 3269 2151 3426 
Q 2431 3584 2822 3584 
Q 2878 3584 2943 3579 
Q 3009 3575 3134 3559 
L 3138 2547 
z
" transform="scale(0.015625)"/>
       <path id="DejaVuSans-Bold-61" d="M 2106 1575 
Q 1756 1575 1579 1456 
Q 1403 1338 1403 1106 
Q 1403 894 1545 773 
Q 1688 653 1941 653 
Q 2256 653 2472 879 
Q 2688 1106 2688 1447 
L 2688 1575 
L 2106 1575 
z
M 3816 1997 
L 3816 0 
L 2688 0 
L 2688 519 
Q 2463 200 2181 54 
Q 1900 -91 1497 -91 
Q 953 -91 614 226 
Q 275 544 275 1050 
Q 275 1666 698 1953 
Q 1122 2241 2028 2241 
L 2688 2241 
L 2688 2328 
Q 2688 2594 2478 2717 
Q 2269 2841 1825 2841 
Q 1466 2841 1156 2769 
Q 847 2697 581 2553 
L 581 3406 
Q 941 3494 1303 3539 
Q 1666 3584 2028 3584 
Q 2975 3584 3395 3211 
Q 3816 2838 3816 1997 
z
" transform="scale(0.015625)"/>
       <path id="DejaVuSans-Bold-69" d="M 538 3500 
L 1656 3500 
L 1656 0 
L 538 0 
L 538 3500 
z
M 538 4863 
L 1656 4863 
L 1656 3950 
L 538 3950 
L 538 4863 
z
" transform="scale(0.015625)"/>
       <path id="DejaVuSans-Bold-6e" d="M 4056 2131 
L 4056 0 
L 2931 0 
L 2931 347 
L 2931 1631 
Q 2931 2084 2911 2256 
Q 2891 2428 2841 2509 
Q 2775 2619 2662 2680 
Q 2550 2741 2406 2741 
Q 2056 2741 1856 2470 
Q 1656 2200 1656 1722 
L 1656 0 
L 538 0 
L 538 3500 
L 1656 3500 
L 1656 2988 
Q 1909 3294 2193 3439 
Q 2478 3584 2822 3584 
Q 3428 3584 3742 3212 
Q 4056 2841 4056 2131 
z
" transform="scale(0.015625)"/>
       <path id="DejaVuSans-Bold-67" d="M 2919 594 
Q 2688 288 2409 144 
Q 2131 0 1766 0 
Q 1125 0 706 504 
Q 288 1009 288 1791 
Q 288 2575 706 3076 
Q 1125 3578 1766 3578 
Q 2131 3578 2409 3434 
Q 2688 3291 2919 2981 
L 2919 3500 
L 4044 3500 
L 4044 353 
Q 4044 -491 3511 -936 
Q 2978 -1381 1966 -1381 
Q 1638 -1381 1331 -1331 
Q 1025 -1281 716 -1178 
L 716 -306 
Q 1009 -475 1290 -558 
Q 1572 -641 1856 -641 
Q 2406 -641 2662 -400 
Q 2919 -159 2919 353 
L 2919 594 
z
M 2181 2772 
Q 1834 2772 1640 2515 
Q 1447 2259 1447 1791 
Q 1447 1309 1634 1061 
Q 1822 813 2181 813 
Q 2531 813 2725 1069 
Q 2919 1325 2919 1791 
Q 2919 2259 2725 2515 
Q 2531 2772 2181 2772 
z
" transform="scale(0.015625)"/>
       <path id="DejaVuSans-Bold-20" transform="scale(0.015625)"/>
       <path id="DejaVuSans-Bold-53" d="M 3834 4519 
L 3834 3531 
Q 3450 3703 3084 3790 
Q 2719 3878 2394 3878 
Q 1963 3878 1756 3759 
Q 1550 3641 1550 3391 
Q 1550 3203 1689 3098 
Q 1828 2994 2194 2919 
L 2706 2816 
Q 3484 2659 3812 2340 
Q 4141 2022 4141 1434 
Q 4141 663 3683 286 
Q 3225 -91 2284 -91 
Q 1841 -91 1394 -6 
Q 947 78 500 244 
L 500 1259 
Q 947 1022 1364 901 
Q 1781 781 2169 781 
Q 2563 781 2772 912 
Q 2981 1044 2981 1288 
Q 2981 1506 2839 1625 
Q 2697 1744 2272 1838 
L 1806 1941 
Q 1106 2091 782 2419 
Q 459 2747 459 3303 
Q 459 4000 909 4375 
Q 1359 4750 2203 4750 
Q 2588 4750 2994 4692 
Q 3400 4634 3834 4519 
z
" transform="scale(0.015625)"/>
       <path id="DejaVuSans-Bold-74" d="M 1759 4494 
L 1759 3500 
L 2913 3500 
L 2913 2700 
L 1759 2700 
L 1759 1216 
Q 1759 972 1856 886 
Q 1953 800 2241 800 
L 2816 800 
L 2816 0 
L 1856 0 
Q 1194 0 917 276 
Q 641 553 641 1216 
L 641 2700 
L 84 2700 
L 84 3500 
L 641 3500 
L 641 4494 
L 1759 4494 
z
" transform="scale(0.015625)"/>
       <path id="DejaVuSans-Bold-65" d="M 4031 1759 
L 4031 1441 
L 1416 1441 
Q 1456 1047 1700 850 
Q 1944 653 2381 653 
Q 2734 653 3104 758 
Q 3475 863 3866 1075 
L 3866 213 
Q 3469 63 3072 -14 
Q 2675 -91 2278 -91 
Q 1328 -91 801 392 
Q 275 875 275 1747 
Q 275 2603 792 3093 
Q 1309 3584 2216 3584 
Q 3041 3584 3536 3087 
Q 4031 2591 4031 1759 
z
M 2881 2131 
Q 2881 2450 2695 2645 
Q 2509 2841 2209 2841 
Q 1884 2841 1681 2658 
Q 1478 2475 1428 2131 
L 2881 2131 
z
" transform="scale(0.015625)"/>
       <path id="DejaVuSans-Bold-70" d="M 1656 506 
L 1656 -1331 
L 538 -1331 
L 538 3500 
L 1656 3500 
L 1656 2988 
Q 1888 3294 2169 3439 
Q 2450 3584 2816 3584 
Q 3463 3584 3878 3070 
Q 4294 2556 4294 1747 
Q 4294 938 3878 423 
Q 3463 -91 2816 -91 
Q 2450 -91 2169 54 
Q 1888 200 1656 506 
z
M 2400 2772 
Q 2041 2772 1848 2508 
Q 1656 2244 1656 1747 
Q 1656 1250 1848 986 
Q 2041 722 2400 722 
Q 2759 722 2948 984 
Q 3138 1247 3138 1747 
Q 3138 2247 2948 2509 
Q 2759 2772 2400 2772 
z
" transform="scale(0.015625)"/>
       <path id="DejaVuSans-Bold-73" d="M 3272 3391 
L 3272 2541 
Q 2913 2691 2578 2766 
Q 2244 2841 1947 2841 
Q 1628 2841 1473 2761 
Q 1319 2681 1319 2516 
Q 1319 2381 1436 2309 
Q 1553 2238 1856 2203 
L 2053 2175 
Q 2913 2066 3209 1816 
Q 3506 1566 3506 1031 
Q 3506 472 3093 190 
Q 2681 -91 1863 -91 
Q 1516 -91 1145 -36 
Q 775 19 384 128 
L 384 978 
Q 719 816 1070 734 
Q 1422 653 1784 653 
Q 2113 653 2278 743 
Q 2444 834 2444 1013 
Q 2444 1163 2330 1236 
Q 2216 1309 1875 1350 
L 1678 1375 
Q 931 1469 631 1722 
Q 331 1975 331 2491 
Q 331 3047 712 3315 
Q 1094 3584 1881 3584 
Q 2191 3584 2531 3537 
Q 2872 3491 3272 3391 
z
" transform="scale(0.015625)"/>
       <path id="DejaVuSans-Bold-28" d="M 2413 -844 
L 1484 -844 
Q 1006 -72 778 623 
Q 550 1319 550 2003 
Q 550 2688 779 3389 
Q 1009 4091 1484 4856 
L 2413 4856 
Q 2013 4116 1813 3408 
Q 1613 2700 1613 2009 
Q 1613 1319 1811 609 
Q 2009 -100 2413 -844 
z
" transform="scale(0.015625)"/>
       <path id="DejaVuSans-Bold-68" d="M 4056 2131 
L 4056 0 
L 2931 0 
L 2931 347 
L 2931 1625 
Q 2931 2084 2911 2256 
Q 2891 2428 2841 2509 
Q 2775 2619 2662 2680 
Q 2550 2741 2406 2741 
Q 2056 2741 1856 2470 
Q 1656 2200 1656 1722 
L 1656 0 
L 538 0 
L 538 4863 
L 1656 4863 
L 1656 2988 
Q 1909 3294 2193 3439 
Q 2478 3584 2822 3584 
Q 3428 3584 3742 3212 
Q 4056 2841 4056 2131 
z
" transform="scale(0.015625)"/>
       <path id="DejaVuSans-Bold-6f" d="M 2203 2784 
Q 1831 2784 1636 2517 
Q 1441 2250 1441 1747 
Q 1441 1244 1636 976 
Q 1831 709 2203 709 
Q 2569 709 2762 976 
Q 2956 1244 2956 1747 
Q 2956 2250 2762 2517 
Q 2569 2784 2203 2784 
z
M 2203 3584 
Q 3106 3584 3614 3096 
Q 4122 2609 4122 1747 
Q 4122 884 3614 396 
Q 3106 -91 2203 -91 
Q 1297 -91 786 396 
Q 275 884 275 1747 
Q 275 2609 786 3096 
Q 1297 3584 2203 3584 
z
" transform="scale(0.015625)"/>
       <path id="DejaVuSans-Bold-75" d="M 500 1363 
L 500 3500 
L 1625 3500 
L 1625 3150 
Q 1625 2866 1622 2436 
Q 1619 2006 1619 1863 
Q 1619 1441 1641 1255 
Q 1663 1069 1716 984 
Q 1784 875 1895 815 
Q 2006 756 2150 756 
Q 2500 756 2700 1025 
Q 2900 1294 2900 1772 
L 2900 3500 
L 4019 3500 
L 4019 0 
L 2900 0 
L 2900 506 
Q 2647 200 2364 54 
Q 2081 -91 1741 -91 
Q 1134 -91 817 281 
Q 500 653 500 1363 
z
" transform="scale(0.015625)"/>
       <path id="DejaVuSans-Bold-64" d="M 2919 2988 
L 2919 4863 
L 4044 4863 
L 4044 0 
L 2919 0 
L 2919 506 
Q 2688 197 2409 53 
Q 2131 -91 1766 -91 
Q 1119 -91 703 423 
Q 288 938 288 1747 
Q 288 2556 703 3070 
Q 1119 3584 1766 3584 
Q 2128 3584 2408 3439 
Q 2688 3294 2919 2988 
z
M 2181 722 
Q 2541 722 2730 984 
Q 2919 1247 2919 1747 
Q 2919 2247 2730 2509 
Q 2541 2772 2181 2772 
Q 1825 2772 1636 2509 
Q 1447 2247 1447 1747 
Q 1447 1247 1636 984 
Q 1825 722 2181 722 
z
" transform="scale(0.015625)"/>
       <path id="DejaVuSans-Bold-29" d="M 513 -844 
Q 913 -100 1113 609 
Q 1313 1319 1313 2009 
Q 1313 2700 1113 3408 
Q 913 4116 513 4856 
L 1441 4856 
Q 1916 4091 2145 3389 
Q 2375 2688 2375 2003 
Q 2375 1319 2147 623 
Q 1919 -72 1441 -844 
L 513 -844 
z
" transform="scale(0.015625)"/>
      </defs>
      <use xlink:href="#DejaVuSans-Bold-54"/>
      <use xlink:href="#DejaVuSans-Bold-72" transform="translate(57.212891 0)"/>
      <use xlink:href="#DejaVuSans-Bold-61" transform="translate(106.529297 0)"/>
      <use xlink:href="#DejaVuSans-Bold-69" transform="translate(174.009766 0)"/>
      <use xlink:href="#DejaVuSans-Bold-6e" transform="translate(208.287109 0)"/>
      <use xlink:href="#DejaVuSans-Bold-69" transform="translate(279.478516 0)"/>
      <use xlink:href="#DejaVuSans-Bold-6e" transform="translate(313.755859 0)"/>
      <use xlink:href="#DejaVuSans-Bold-67" transform="translate(384.947266 0)"/>
      <use xlink:href="#DejaVuSans-Bold-20" transform="translate(456.529297 0)"/>
      <use xlink:href="#DejaVuSans-Bold-53" transform="translate(491.34375 0)"/>
      <use xlink:href="#DejaVuSans-Bold-74" transform="translate(563.365234 0)"/>
      <use xlink:href="#DejaVuSans-Bold-65" transform="translate(611.167969 0)"/>
      <use xlink:href="#DejaVuSans-Bold-70" transform="translate(678.990234 0)"/>
      <use xlink:href="#DejaVuSans-Bold-73" transform="translate(750.572266 0)"/>
      <use xlink:href="#DejaVuSans-Bold-20" transform="translate(810.09375 0)"/>
      <use xlink:href="#DejaVuSans-Bold-28" transform="translate(844.908203 0)"/>
      <use xlink:href="#DejaVuSans-Bold-74" transform="translate(890.611328 0)"/>
      <use xlink:href="#DejaVuSans-Bold-68" transform="translate(938.414062 0)"/>
      <use xlink:href="#DejaVuSans-Bold-6f" transform="translate(1009.605469 0)"/>
      <use xlink:href="#DejaVuSans-Bold-75" transform="translate(1078.306641 0)"/>
      <use xlink:href="#DejaVuSans-Bold-73" transform="translate(1149.498047 0)"/>
      <use xlink:href="#DejaVuSans-Bold-61" transform="translate(1209.019531 0)"/>
      <use xlink:href="#DejaVuSans-Bold-6e" transform="translate(1276.5 0)"/>
      <use xlink:href="#DejaVuSans-Bold-64" transform="translate(1347.691406 0)"/>
      <use xlink:href="#DejaVuSans-Bold-73" transform="translate(1419.273438 0)"/>
      <use xlink:href="#DejaVuSans-Bold-29" transform="translate(1478.794922 0)"/>
     </g>
    </g>
   </g>
   <g id="matplotlib.axis_2">
    <g id="ytick_1">
     <g id="line2d_7">
      <defs>
       <path id="m680b807f0e" d="M 0 0 
L -3.5 0 
" style="stroke: #000000; stroke-width: 0.8"/>
      </defs>
      <g>
       <use xlink:href="#m680b807f0e" x="40.68125" y="239.832319" style="stroke: #000000; stroke-width: 0.8"/>
      </g>
     </g>
     <g id="text_8">
      <!-- 0 -->
      <g transform="translate(27.31875 243.631537) scale(0.1 -0.1)">
       <use xlink:href="#DejaVuSans-30"/>
      </g>
     </g>
    </g>
    <g id="ytick_2">
     <g id="line2d_8">
      <g>
       <use xlink:href="#m680b807f0e" x="40.68125" y="208.175656" style="stroke: #000000; stroke-width: 0.8"/>
      </g>
     </g>
     <g id="text_9">
      <!-- 5 -->
      <g transform="translate(27.31875 211.974875) scale(0.1 -0.1)">
       <use xlink:href="#DejaVuSans-35"/>
      </g>
     </g>
    </g>
    <g id="ytick_3">
     <g id="line2d_9">
      <g>
       <use xlink:href="#m680b807f0e" x="40.68125" y="176.518994" style="stroke: #000000; stroke-width: 0.8"/>
      </g>
     </g>
     <g id="text_10">
      <!-- 10 -->
      <g transform="translate(20.95625 180.318213) scale(0.1 -0.1)">
       <use xlink:href="#DejaVuSans-31"/>
       <use xlink:href="#DejaVuSans-30" transform="translate(63.623047 0)"/>
      </g>
     </g>
    </g>
    <g id="ytick_4">
     <g id="line2d_10">
      <g>
       <use xlink:href="#m680b807f0e" x="40.68125" y="144.862331" style="stroke: #000000; stroke-width: 0.8"/>
      </g>
     </g>
     <g id="text_11">
      <!-- 15 -->
      <g transform="translate(20.95625 148.66155) scale(0.1 -0.1)">
       <use xlink:href="#DejaVuSans-31"/>
       <use xlink:href="#DejaVuSans-35" transform="translate(63.623047 0)"/>
      </g>
     </g>
    </g>
    <g id="ytick_5">
     <g id="line2d_11">
      <g>
       <use xlink:href="#m680b807f0e" x="40.68125" y="113.205669" style="stroke: #000000; stroke-width: 0.8"/>
      </g>
     </g>
     <g id="text_12">
      <!-- 20 -->
      <g transform="translate(20.95625 117.004888) scale(0.1 -0.1)">
       <use xlink:href="#DejaVuSans-32"/>
       <use xlink:href="#DejaVuSans-30" transform="translate(63.623047 0)"/>
      </g>
     </g>
    </g>
    <g id="ytick_6">
     <g id="line2d_12">
      <g>
       <use xlink:href="#m680b807f0e" x="40.68125" y="81.549007" style="stroke: #000000; stroke-width: 0.8"/>
      </g>
     </g>
     <g id="text_13">
      <!-- 25 -->
      <g transform="translate(20.95625 85.348225) scale(0.1 -0.1)">
       <use xlink:href="#DejaVuSans-32"/>
       <use xlink:href="#DejaVuSans-35" transform="translate(63.623047 0)"/>
      </g>
     </g>
    </g>
    <g id="ytick_7">
     <g id="line2d_13">
      <g>
       <use xlink:href="#m680b807f0e" x="40.68125" y="49.892344" style="stroke: #000000; stroke-width: 0.8"/>
      </g>
     </g>
     <g id="text_14">
      <!-- 30 -->
      <g transform="translate(20.95625 53.691563) scale(0.1 -0.1)">
       <defs>
        <path id="DejaVuSans-33" d="M 2597 2516 
Q 3050 2419 3304 2112 
Q 3559 1806 3559 1356 
Q 3559 666 3084 287 
Q 2609 -91 1734 -91 
Q 1441 -91 1130 -33 
Q 819 25 488 141 
L 488 750 
Q 750 597 1062 519 
Q 1375 441 1716 441 
Q 2309 441 2620 675 
Q 2931 909 2931 1356 
Q 2931 1769 2642 2001 
Q 2353 2234 1838 2234 
L 1294 2234 
L 1294 2753 
L 1863 2753 
Q 2328 2753 2575 2939 
Q 2822 3125 2822 3475 
Q 2822 3834 2567 4026 
Q 2313 4219 1838 4219 
Q 1578 4219 1281 4162 
Q 984 4106 628 3988 
L 628 4550 
Q 988 4650 1302 4700 
Q 1616 4750 1894 4750 
Q 2613 4750 3031 4423 
Q 3450 4097 3450 3541 
Q 3450 3153 3228 2886 
Q 3006 2619 2597 2516 
z
" transform="scale(0.015625)"/>
       </defs>
       <use xlink:href="#DejaVuSans-33"/>
       <use xlink:href="#DejaVuSans-30" transform="translate(63.623047 0)"/>
      </g>
     </g>
    </g>
    <g id="text_15">
     <!-- Context Length (thousands of tokens) -->
     <g transform="translate(14.798438 240.079219) rotate(-90) scale(0.1 -0.1)">
      <defs>
       <path id="DejaVuSans-Bold-43" d="M 4288 256 
Q 3956 84 3597 -3 
Q 3238 -91 2847 -91 
Q 1681 -91 1000 561 
Q 319 1213 319 2328 
Q 319 3447 1000 4098 
Q 1681 4750 2847 4750 
Q 3238 4750 3597 4662 
Q 3956 4575 4288 4403 
L 4288 3438 
Q 3953 3666 3628 3772 
Q 3303 3878 2944 3878 
Q 2300 3878 1931 3465 
Q 1563 3053 1563 2328 
Q 1563 1606 1931 1193 
Q 2300 781 2944 781 
Q 3303 781 3628 887 
Q 3953 994 4288 1222 
L 4288 256 
z
" transform="scale(0.015625)"/>
       <path id="DejaVuSans-Bold-78" d="M 1422 1791 
L 159 3500 
L 1344 3500 
L 2059 2463 
L 2784 3500 
L 3969 3500 
L 2706 1797 
L 4031 0 
L 2847 0 
L 2059 1106 
L 1281 0 
L 97 0 
L 1422 1791 
z
" transform="scale(0.015625)"/>
       <path id="DejaVuSans-Bold-4c" d="M 588 4666 
L 1791 4666 
L 1791 909 
L 3903 909 
L 3903 0 
L 588 0 
L 588 4666 
z
" transform="scale(0.015625)"/>
       <path id="DejaVuSans-Bold-66" d="M 2841 4863 
L 2841 4128 
L 2222 4128 
Q 1984 4128 1890 4042 
Q 1797 3956 1797 3744 
L 1797 3500 
L 2753 3500 
L 2753 2700 
L 1797 2700 
L 1797 0 
L 678 0 
L 678 2700 
L 122 2700 
L 122 3500 
L 678 3500 
L 678 3744 
Q 678 4316 997 4589 
Q 1316 4863 1984 4863 
L 2841 4863 
z
" transform="scale(0.015625)"/>
       <path id="DejaVuSans-Bold-6b" d="M 538 4863 
L 1656 4863 
L 1656 2216 
L 2944 3500 
L 4244 3500 
L 2534 1894 
L 4378 0 
L 3022 0 
L 1656 1459 
L 1656 0 
L 538 0 
L 538 4863 
z
" transform="scale(0.015625)"/>
      </defs>
      <use xlink:href="#DejaVuSans-Bold-43"/>
      <use xlink:href="#DejaVuSans-Bold-6f" transform="translate(73.388672 0)"/>
      <use xlink:href="#DejaVuSans-Bold-6e" transform="translate(142.089844 0)"/>
      <use xlink:href="#DejaVuSans-Bold-74" transform="translate(213.28125 0)"/>
      <use xlink:href="#DejaVuSans-Bold-65" transform="translate(261.083984 0)"/>
      <use xlink:href="#DejaVuSans-Bold-78" transform="translate(328.90625 0)"/>
      <use xlink:href="#DejaVuSans-Bold-74" transform="translate(393.408203 0)"/>
      <use xlink:href="#DejaVuSans-Bold-20" transform="translate(441.210938 0)"/>
      <use xlink:href="#DejaVuSans-Bold-4c" transform="translate(476.025391 0)"/>
      <use xlink:href="#DejaVuSans-Bold-65" transform="translate(539.746094 0)"/>
      <use xlink:href="#DejaVuSans-Bold-6e" transform="translate(607.568359 0)"/>
      <use xlink:href="#DejaVuSans-Bold-67" transform="translate(678.759766 0)"/>
      <use xlink:href="#DejaVuSans-Bold-74" transform="translate(750.341797 0)"/>
      <use xlink:href="#DejaVuSans-Bold-68" transform="translate(798.144531 0)"/>
      <use xlink:href="#DejaVuSans-Bold-20" transform="translate(869.335938 0)"/>
      <use xlink:href="#DejaVuSans-Bold-28" transform="translate(904.150391 0)"/>
      <use xlink:href="#DejaVuSans-Bold-74" transform="translate(949.853516 0)"/>
      <use xlink:href="#DejaVuSans-Bold-68" transform="translate(997.65625 0)"/>
      <use xlink:href="#DejaVuSans-Bold-6f" transform="translate(1068.847656 0)"/>
      <use xlink:href="#DejaVuSans-Bold-75" transform="translate(1137.548828 0)"/>
      <use xlink:href="#DejaVuSans-Bold-73" transform="translate(1208.740234 0)"/>
      <use xlink:href="#DejaVuSans-Bold-61" transform="translate(1268.261719 0)"/>
      <use xlink:href="#DejaVuSans-Bold-6e" transform="translate(1335.742188 0)"/>
      <use xlink:href="#DejaVuSans-Bold-64" transform="translate(1406.933594 0)"/>
      <use xlink:href="#DejaVuSans-Bold-73" transform="translate(1478.515625 0)"/>
      <use xlink:href="#DejaVuSans-Bold-20" transform="translate(1538.037109 0)"/>
      <use xlink:href="#DejaVuSans-Bold-6f" transform="translate(1572.851562 0)"/>
      <use xlink:href="#DejaVuSans-Bold-66" transform="translate(1641.552734 0)"/>
      <use xlink:href="#DejaVuSans-Bold-20" transform="translate(1685.058594 0)"/>
      <use xlink:href="#DejaVuSans-Bold-74" transform="translate(1719.873047 0)"/>
      <use xlink:href="#DejaVuSans-Bold-6f" transform="translate(1767.675781 0)"/>
      <use xlink:href="#DejaVuSans-Bold-6b" transform="translate(1836.376953 0)"/>
      <use xlink:href="#DejaVuSans-Bold-65" transform="translate(1900.255859 0)"/>
      <use xlink:href="#DejaVuSans-Bold-6e" transform="translate(1968.078125 0)"/>
      <use xlink:href="#DejaVuSans-Bold-73" transform="translate(2039.269531 0)"/>
      <use xlink:href="#DejaVuSans-Bold-29" transform="translate(2098.791016 0)"/>
     </g>
    </g>
   </g>
   <g id="line2d_14">
    <path d="M 54.721705 233.349034 
L 110.883523 233.349034 
L 110.883523 226.86575 
L 167.045341 226.86575 
L 167.045341 213.899181 
L 223.207159 213.899181 
L 223.207159 187.966043 
L 279.368977 187.966043 
L 279.368977 136.099767 
L 335.530795 136.099767 
L 335.530795 32.367216 
" clip-path="url(#p45529f9901)" style="fill: none; stroke: #1f77b4; stroke-width: 2.5; stroke-linecap: square"/>
   </g>
   <g id="patch_3">
    <path d="M 40.68125 243.398125 
L 40.68125 22.318125 
" style="fill: none; stroke: #000000; stroke-width: 0.8; stroke-linejoin: miter; stroke-linecap: square"/>
   </g>
   <g id="patch_4">
    <path d="M 40.68125 243.398125 
L 349.57125 243.398125 
" style="fill: none; stroke: #000000; stroke-width: 0.8; stroke-linejoin: miter; stroke-linecap: square"/>
   </g>
   <g id="patch_5">
    <path d="M 102.812246 219.32473 
Q 93.624474 225.834006 85.166528 231.82622 
" style="fill: none; stroke: #555555; stroke-width: 0.8; stroke-linecap: round"/>
    <path d="M 88.702584 231.281878 
L 85.166528 231.82622 
L 86.852688 228.67077 
" style="fill: none; stroke: #555555; stroke-width: 0.8; stroke-linecap: round"/>
   </g>
   <g id="text_16">
    <!-- Stage 1: -->
    <g transform="translate(99.651159 205.548739) scale(0.08 -0.08)">
     <defs>
      <path id="DejaVuSans-53" d="M 3425 4513 
L 3425 3897 
Q 3066 4069 2747 4153 
Q 2428 4238 2131 4238 
Q 1616 4238 1336 4038 
Q 1056 3838 1056 3469 
Q 1056 3159 1242 3001 
Q 1428 2844 1947 2747 
L 2328 2669 
Q 3034 2534 3370 2195 
Q 3706 1856 3706 1288 
Q 3706 609 3251 259 
Q 2797 -91 1919 -91 
Q 1588 -91 1214 -16 
Q 841 59 441 206 
L 441 856 
Q 825 641 1194 531 
Q 1563 422 1919 422 
Q 2459 422 2753 634 
Q 3047 847 3047 1241 
Q 3047 1584 2836 1778 
Q 2625 1972 2144 2069 
L 1759 2144 
Q 1053 2284 737 2584 
Q 422 2884 422 3419 
Q 422 4038 858 4394 
Q 1294 4750 2059 4750 
Q 2388 4750 2728 4690 
Q 3069 4631 3425 4513 
z
" transform="scale(0.015625)"/>
      <path id="DejaVuSans-74" d="M 1172 4494 
L 1172 3500 
L 2356 3500 
L 2356 3053 
L 1172 3053 
L 1172 1153 
Q 1172 725 1289 603 
Q 1406 481 1766 481 
L 2356 481 
L 2356 0 
L 1766 0 
Q 1100 0 847 248 
Q 594 497 594 1153 
L 594 3053 
L 172 3053 
L 172 3500 
L 594 3500 
L 594 4494 
L 1172 4494 
z
" transform="scale(0.015625)"/>
      <path id="DejaVuSans-61" d="M 2194 1759 
Q 1497 1759 1228 1600 
Q 959 1441 959 1056 
Q 959 750 1161 570 
Q 1363 391 1709 391 
Q 2188 391 2477 730 
Q 2766 1069 2766 1631 
L 2766 1759 
L 2194 1759 
z
M 3341 1997 
L 3341 0 
L 2766 0 
L 2766 531 
Q 2569 213 2275 61 
Q 1981 -91 1556 -91 
Q 1019 -91 701 211 
Q 384 513 384 1019 
Q 384 1609 779 1909 
Q 1175 2209 1959 2209 
L 2766 2209 
L 2766 2266 
Q 2766 2663 2505 2880 
Q 2244 3097 1772 3097 
Q 1472 3097 1187 3025 
Q 903 2953 641 2809 
L 641 3341 
Q 956 3463 1253 3523 
Q 1550 3584 1831 3584 
Q 2591 3584 2966 3190 
Q 3341 2797 3341 1997 
z
" transform="scale(0.015625)"/>
      <path id="DejaVuSans-67" d="M 2906 1791 
Q 2906 2416 2648 2759 
Q 2391 3103 1925 3103 
Q 1463 3103 1205 2759 
Q 947 2416 947 1791 
Q 947 1169 1205 825 
Q 1463 481 1925 481 
Q 2391 481 2648 825 
Q 2906 1169 2906 1791 
z
M 3481 434 
Q 3481 -459 3084 -895 
Q 2688 -1331 1869 -1331 
Q 1566 -1331 1297 -1286 
Q 1028 -1241 775 -1147 
L 775 -588 
Q 1028 -725 1275 -790 
Q 1522 -856 1778 -856 
Q 2344 -856 2625 -561 
Q 2906 -266 2906 331 
L 2906 616 
Q 2728 306 2450 153 
Q 2172 0 1784 0 
Q 1141 0 747 490 
Q 353 981 353 1791 
Q 353 2603 747 3093 
Q 1141 3584 1784 3584 
Q 2172 3584 2450 3431 
Q 2728 3278 2906 2969 
L 2906 3500 
L 3481 3500 
L 3481 434 
z
" transform="scale(0.015625)"/>
      <path id="DejaVuSans-65" d="M 3597 1894 
L 3597 1613 
L 953 1613 
Q 991 1019 1311 708 
Q 1631 397 2203 397 
Q 2534 397 2845 478 
Q 3156 559 3463 722 
L 3463 178 
Q 3153 47 2828 -22 
Q 2503 -91 2169 -91 
Q 1331 -91 842 396 
Q 353 884 353 1716 
Q 353 2575 817 3079 
Q 1281 3584 2069 3584 
Q 2775 3584 3186 3129 
Q 3597 2675 3597 1894 
z
M 3022 2063 
Q 3016 2534 2758 2815 
Q 2500 3097 2075 3097 
Q 1594 3097 1305 2825 
Q 1016 2553 972 2059 
L 3022 2063 
z
" transform="scale(0.015625)"/>
      <path id="DejaVuSans-20" transform="scale(0.015625)"/>
      <path id="DejaVuSans-3a" d="M 750 794 
L 1409 794 
L 1409 0 
L 750 0 
L 750 794 
z
M 750 3309 
L 1409 3309 
L 1409 2516 
L 750 2516 
L 750 3309 
z
" transform="scale(0.015625)"/>
     </defs>
     <use xlink:href="#DejaVuSans-53"/>
     <use xlink:href="#DejaVuSans-74" transform="translate(63.476562 0)"/>
     <use xlink:href="#DejaVuSans-61" transform="translate(102.685547 0)"/>
     <use xlink:href="#DejaVuSans-67" transform="translate(163.964844 0)"/>
     <use xlink:href="#DejaVuSans-65" transform="translate(227.441406 0)"/>
     <use xlink:href="#DejaVuSans-20" transform="translate(288.964844 0)"/>
     <use xlink:href="#DejaVuSans-31" transform="translate(320.751953 0)"/>
     <use xlink:href="#DejaVuSans-3a" transform="translate(384.375 0)"/>
    </g>
    <!-- 1k tokens -->
    <g transform="translate(99.651159 214.506989) scale(0.08 -0.08)">
     <defs>
      <path id="DejaVuSans-6b" d="M 581 4863 
L 1159 4863 
L 1159 1991 
L 2875 3500 
L 3609 3500 
L 1753 1863 
L 3688 0 
L 2938 0 
L 1159 1709 
L 1159 0 
L 581 0 
L 581 4863 
z
" transform="scale(0.015625)"/>
      <path id="DejaVuSans-6f" d="M 1959 3097 
Q 1497 3097 1228 2736 
Q 959 2375 959 1747 
Q 959 1119 1226 758 
Q 1494 397 1959 397 
Q 2419 397 2687 759 
Q 2956 1122 2956 1747 
Q 2956 2369 2687 2733 
Q 2419 3097 1959 3097 
z
M 1959 3584 
Q 2709 3584 3137 3096 
Q 3566 2609 3566 1747 
Q 3566 888 3137 398 
Q 2709 -91 1959 -91 
Q 1206 -91 779 398 
Q 353 888 353 1747 
Q 353 2609 779 3096 
Q 1206 3584 1959 3584 
z
" transform="scale(0.015625)"/>
      <path id="DejaVuSans-6e" d="M 3513 2113 
L 3513 0 
L 2938 0 
L 2938 2094 
Q 2938 2591 2744 2837 
Q 2550 3084 2163 3084 
Q 1697 3084 1428 2787 
Q 1159 2491 1159 1978 
L 1159 0 
L 581 0 
L 581 3500 
L 1159 3500 
L 1159 2956 
Q 1366 3272 1645 3428 
Q 1925 3584 2291 3584 
Q 2894 3584 3203 3211 
Q 3513 2838 3513 2113 
z
" transform="scale(0.015625)"/>
      <path id="DejaVuSans-73" d="M 2834 3397 
L 2834 2853 
Q 2591 2978 2328 3040 
Q 2066 3103 1784 3103 
Q 1356 3103 1142 2972 
Q 928 2841 928 2578 
Q 928 2378 1081 2264 
Q 1234 2150 1697 2047 
L 1894 2003 
Q 2506 1872 2764 1633 
Q 3022 1394 3022 966 
Q 3022 478 2636 193 
Q 2250 -91 1575 -91 
Q 1294 -91 989 -36 
Q 684 19 347 128 
L 347 722 
Q 666 556 975 473 
Q 1284 391 1588 391 
Q 1994 391 2212 530 
Q 2431 669 2431 922 
Q 2431 1156 2273 1281 
Q 2116 1406 1581 1522 
L 1381 1569 
Q 847 1681 609 1914 
Q 372 2147 372 2553 
Q 372 3047 722 3315 
Q 1072 3584 1716 3584 
Q 2034 3584 2315 3537 
Q 2597 3491 2834 3397 
z
" transform="scale(0.015625)"/>
     </defs>
     <use xlink:href="#DejaVuSans-31"/>
     <use xlink:href="#DejaVuSans-6b" transform="translate(63.623047 0)"/>
     <use xlink:href="#DejaVuSans-20" transform="translate(121.533203 0)"/>
     <use xlink:href="#DejaVuSans-74" transform="translate(153.320312 0)"/>
     <use xlink:href="#DejaVuSans-6f" transform="translate(192.529297 0)"/>
     <use xlink:href="#DejaVuSans-6b" transform="translate(253.710938 0)"/>
     <use xlink:href="#DejaVuSans-65" transform="translate(307.996094 0)"/>
     <use xlink:href="#DejaVuSans-6e" transform="translate(369.519531 0)"/>
     <use xlink:href="#DejaVuSans-73" transform="translate(432.898438 0)"/>
    </g>
   </g>
   <g id="patch_6">
    <path d="M 158.974064 212.993397 
Q 149.786292 219.502673 141.328346 225.494887 
" style="fill: none; stroke: #555555; stroke-width: 0.8; stroke-linecap: round"/>
    <path d="M 144.864402 224.950546 
L 141.328346 225.494887 
L 143.014506 222.339438 
" style="fill: none; stroke: #555555; stroke-width: 0.8; stroke-linecap: round"/>
   </g>
   <g id="text_17">
    <!-- Stage 2: -->
    <g transform="translate(155.812977 199.217406) scale(0.08 -0.08)">
     <use xlink:href="#DejaVuSans-53"/>
     <use xlink:href="#DejaVuSans-74" transform="translate(63.476562 0)"/>
     <use xlink:href="#DejaVuSans-61" transform="translate(102.685547 0)"/>
     <use xlink:href="#DejaVuSans-67" transform="translate(163.964844 0)"/>
     <use xlink:href="#DejaVuSans-65" transform="translate(227.441406 0)"/>
     <use xlink:href="#DejaVuSans-20" transform="translate(288.964844 0)"/>
     <use xlink:href="#DejaVuSans-32" transform="translate(320.751953 0)"/>
     <use xlink:href="#DejaVuSans-3a" transform="translate(384.375 0)"/>
    </g>
    <!-- 2k tokens -->
    <g transform="translate(155.812977 208.175656) scale(0.08 -0.08)">
     <use xlink:href="#DejaVuSans-32"/>
     <use xlink:href="#DejaVuSans-6b" transform="translate(63.623047 0)"/>
     <use xlink:href="#DejaVuSans-20" transform="translate(121.533203 0)"/>
     <use xlink:href="#DejaVuSans-74" transform="translate(153.320312 0)"/>
     <use xlink:href="#DejaVuSans-6f" transform="translate(192.529297 0)"/>
     <use xlink:href="#DejaVuSans-6b" transform="translate(253.710938 0)"/>
     <use xlink:href="#DejaVuSans-65" transform="translate(307.996094 0)"/>
     <use xlink:href="#DejaVuSans-6e" transform="translate(369.519531 0)"/>
     <use xlink:href="#DejaVuSans-73" transform="translate(432.898438 0)"/>
    </g>
   </g>
   <g id="patch_7">
    <path d="M 215.135882 200.330732 
Q 205.94811 206.840008 197.490164 212.832222 
" style="fill: none; stroke: #555555; stroke-width: 0.8; stroke-linecap: round"/>
    <path d="M 201.02622 212.287881 
L 197.490164 212.832222 
L 199.176324 209.676773 
" style="fill: none; stroke: #555555; stroke-width: 0.8; stroke-linecap: round"/>
   </g>
   <g id="text_18">
    <!-- Stage 3: -->
    <g transform="translate(211.974795 186.554741) scale(0.08 -0.08)">
     <use xlink:href="#DejaVuSans-53"/>
     <use xlink:href="#DejaVuSans-74" transform="translate(63.476562 0)"/>
     <use xlink:href="#DejaVuSans-61" transform="translate(102.685547 0)"/>
     <use xlink:href="#DejaVuSans-67" transform="translate(163.964844 0)"/>
     <use xlink:href="#DejaVuSans-65" transform="translate(227.441406 0)"/>
     <use xlink:href="#DejaVuSans-20" transform="translate(288.964844 0)"/>
     <use xlink:href="#DejaVuSans-33" transform="translate(320.751953 0)"/>
     <use xlink:href="#DejaVuSans-3a" transform="translate(384.375 0)"/>
    </g>
    <!-- 4k tokens -->
    <g transform="translate(211.974795 195.512991) scale(0.08 -0.08)">
     <defs>
      <path id="DejaVuSans-34" d="M 2419 4116 
L 825 1625 
L 2419 1625 
L 2419 4116 
z
M 2253 4666 
L 3047 4666 
L 3047 1625 
L 3713 1625 
L 3713 1100 
L 3047 1100 
L 3047 0 
L 2419 0 
L 2419 1100 
L 313 1100 
L 313 1709 
L 2253 4666 
z
" transform="scale(0.015625)"/>
     </defs>
     <use xlink:href="#DejaVuSans-34"/>
     <use xlink:href="#DejaVuSans-6b" transform="translate(63.623047 0)"/>
     <use xlink:href="#DejaVuSans-20" transform="translate(121.533203 0)"/>
     <use xlink:href="#DejaVuSans-74" transform="translate(153.320312 0)"/>
     <use xlink:href="#DejaVuSans-6f" transform="translate(192.529297 0)"/>
     <use xlink:href="#DejaVuSans-6b" transform="translate(253.710938 0)"/>
     <use xlink:href="#DejaVuSans-65" transform="translate(307.996094 0)"/>
     <use xlink:href="#DejaVuSans-6e" transform="translate(369.519531 0)"/>
     <use xlink:href="#DejaVuSans-73" transform="translate(432.898438 0)"/>
    </g>
   </g>
   <g id="patch_8">
    <path d="M 271.297701 175.005402 
Q 262.109928 181.514678 253.651982 187.506893 
" style="fill: none; stroke: #555555; stroke-width: 0.8; stroke-linecap: round"/>
    <path d="M 257.188038 186.962551 
L 253.651982 187.506893 
L 255.338143 184.351443 
" style="fill: none; stroke: #555555; stroke-width: 0.8; stroke-linecap: round"/>
   </g>
   <g id="text_19">
    <!-- Stage 4: -->
    <g transform="translate(268.136614 161.229411) scale(0.08 -0.08)">
     <use xlink:href="#DejaVuSans-53"/>
     <use xlink:href="#DejaVuSans-74" transform="translate(63.476562 0)"/>
     <use xlink:href="#DejaVuSans-61" transform="translate(102.685547 0)"/>
     <use xlink:href="#DejaVuSans-67" transform="translate(163.964844 0)"/>
     <use xlink:href="#DejaVuSans-65" transform="translate(227.441406 0)"/>
     <use xlink:href="#DejaVuSans-20" transform="translate(288.964844 0)"/>
     <use xlink:href="#DejaVuSans-34" transform="translate(320.751953 0)"/>
     <use xlink:href="#DejaVuSans-3a" transform="translate(384.375 0)"/>
    </g>
    <!-- 8k tokens -->
    <g transform="translate(268.136614 170.187661) scale(0.08 -0.08)">
     <defs>
      <path id="DejaVuSans-38" d="M 2034 2216 
Q 1584 2216 1326 1975 
Q 1069 1734 1069 1313 
Q 1069 891 1326 650 
Q 1584 409 2034 409 
Q 2484 409 2743 651 
Q 3003 894 3003 1313 
Q 3003 1734 2745 1975 
Q 2488 2216 2034 2216 
z
M 1403 2484 
Q 997 2584 770 2862 
Q 544 3141 544 3541 
Q 544 4100 942 4425 
Q 1341 4750 2034 4750 
Q 2731 4750 3128 4425 
Q 3525 4100 3525 3541 
Q 3525 3141 3298 2862 
Q 3072 2584 2669 2484 
Q 3125 2378 3379 2068 
Q 3634 1759 3634 1313 
Q 3634 634 3220 271 
Q 2806 -91 2034 -91 
Q 1263 -91 848 271 
Q 434 634 434 1313 
Q 434 1759 690 2068 
Q 947 2378 1403 2484 
z
M 1172 3481 
Q 1172 3119 1398 2916 
Q 1625 2713 2034 2713 
Q 2441 2713 2670 2916 
Q 2900 3119 2900 3481 
Q 2900 3844 2670 4047 
Q 2441 4250 2034 4250 
Q 1625 4250 1398 4047 
Q 1172 3844 1172 3481 
z
" transform="scale(0.015625)"/>
     </defs>
     <use xlink:href="#DejaVuSans-38"/>
     <use xlink:href="#DejaVuSans-6b" transform="translate(63.623047 0)"/>
     <use xlink:href="#DejaVuSans-20" transform="translate(121.533203 0)"/>
     <use xlink:href="#DejaVuSans-74" transform="translate(153.320312 0)"/>
     <use xlink:href="#DejaVuSans-6f" transform="translate(192.529297 0)"/>
     <use xlink:href="#DejaVuSans-6b" transform="translate(253.710938 0)"/>
     <use xlink:href="#DejaVuSans-65" transform="translate(307.996094 0)"/>
     <use xlink:href="#DejaVuSans-6e" transform="translate(369.519531 0)"/>
     <use xlink:href="#DejaVuSans-73" transform="translate(432.898438 0)"/>
    </g>
   </g>
   <g id="text_20">
    <!-- Context Length Curriculum -->
    <g transform="translate(103.82125 16.318125) scale(0.12 -0.12)">
     <defs>
      <path id="DejaVuSans-Bold-63" d="M 3366 3391 
L 3366 2478 
Q 3138 2634 2908 2709 
Q 2678 2784 2431 2784 
Q 1963 2784 1702 2511 
Q 1441 2238 1441 1747 
Q 1441 1256 1702 982 
Q 1963 709 2431 709 
Q 2694 709 2930 787 
Q 3166 866 3366 1019 
L 3366 103 
Q 3103 6 2833 -42 
Q 2563 -91 2291 -91 
Q 1344 -91 809 395 
Q 275 881 275 1747 
Q 275 2613 809 3098 
Q 1344 3584 2291 3584 
Q 2566 3584 2833 3536 
Q 3100 3488 3366 3391 
z
" transform="scale(0.015625)"/>
      <path id="DejaVuSans-Bold-6c" d="M 538 4863 
L 1656 4863 
L 1656 0 
L 538 0 
L 538 4863 
z
" transform="scale(0.015625)"/>
      <path id="DejaVuSans-Bold-6d" d="M 3781 2919 
Q 3994 3244 4286 3414 
Q 4578 3584 4928 3584 
Q 5531 3584 5847 3212 
Q 6163 2841 6163 2131 
L 6163 0 
L 5038 0 
L 5038 1825 
Q 5041 1866 5042 1909 
Q 5044 1953 5044 2034 
Q 5044 2406 4934 2573 
Q 4825 2741 4581 2741 
Q 4263 2741 4089 2478 
Q 3916 2216 3909 1719 
L 3909 0 
L 2784 0 
L 2784 1825 
Q 2784 2406 2684 2573 
Q 2584 2741 2328 2741 
Q 2006 2741 1831 2477 
Q 1656 2213 1656 1722 
L 1656 0 
L 531 0 
L 531 3500 
L 1656 3500 
L 1656 2988 
Q 1863 3284 2130 3434 
Q 2397 3584 2719 3584 
Q 3081 3584 3359 3409 
Q 3638 3234 3781 2919 
z
" transform="scale(0.015625)"/>
     </defs>
     <use xlink:href="#DejaVuSans-Bold-43"/>
     <use xlink:href="#DejaVuSans-Bold-6f" transform="translate(73.388672 0)"/>
     <use xlink:href="#DejaVuSans-Bold-6e" transform="translate(142.089844 0)"/>
     <use xlink:href="#DejaVuSans-Bold-74" transform="translate(213.28125 0)"/>
     <use xlink:href="#DejaVuSans-Bold-65" transform="translate(261.083984 0)"/>
     <use xlink:href="#DejaVuSans-Bold-78" transform="translate(328.90625 0)"/>
     <use xlink:href="#DejaVuSans-Bold-74" transform="translate(393.408203 0)"/>
     <use xlink:href="#DejaVuSans-Bold-20" transform="translate(441.210938 0)"/>
     <use xlink:href="#DejaVuSans-Bold-4c" transform="translate(476.025391 0)"/>
     <use xlink:href="#DejaVuSans-Bold-65" transform="translate(539.746094 0)"/>
     <use xlink:href="#DejaVuSans-Bold-6e" transform="translate(607.568359 0)"/>
     <use xlink:href="#DejaVuSans-Bold-67" transform="translate(678.759766 0)"/>
     <use xlink:href="#DejaVuSans-Bold-74" transform="translate(750.341797 0)"/>
     <use xlink:href="#DejaVuSans-Bold-68" transform="translate(798.144531 0)"/>
     <use xlink:href="#DejaVuSans-Bold-20" transform="translate(869.335938 0)"/>
     <use xlink:href="#DejaVuSans-Bold-43" transform="translate(904.150391 0)"/>
     <use xlink:href="#DejaVuSans-Bold-75" transform="translate(977.539062 0)"/>
     <use xlink:href="#DejaVuSans-Bold-72" transform="translate(1048.730469 0)"/>
     <use xlink:href="#DejaVuSans-Bold-72" transform="translate(1098.046875 0)"/>
     <use xlink:href="#DejaVuSans-Bold-69" transform="translate(1147.363281 0)"/>
     <use xlink:href="#DejaVuSans-Bold-63" transform="translate(1181.640625 0)"/>
     <use xlink:href="#DejaVuSans-Bold-75" transform="translate(1240.917969 0)"/>
     <use xlink:href="#DejaVuSans-Bold-6c" transform="translate(1312.109375 0)"/>
     <use xlink:href="#DejaVuSans-Bold-75" transform="translate(1346.386719 0)"/>
     <use xlink:href="#DejaVuSans-Bold-6d" transform="translate(1417.578125 0)"/>
    </g>
   </g>
  </g>
  <g id="axes_2">
   <g id="patch_9">
    <path d="M 396.87125 243.398125 
L 705.76125 243.398125 
L 705.76125 22.318125 
L 396.87125 22.318125 
z
" style="fill: #ffffff"/>
   </g>
   <g id="matplotlib.axis_3">
    <g id="xtick_7">
     <g id="line2d_15">
      <g>
       <use xlink:href="#mebe0b224c9" x="410.911705" y="243.398125" style="stroke: #000000; stroke-width: 0.8"/>
      </g>
     </g>
     <g id="text_21">
      <!-- 0 -->
      <g transform="translate(407.730455 257.996562) scale(0.1 -0.1)">
       <use xlink:href="#DejaVuSans-30"/>
      </g>
     </g>
    </g>
    <g id="xtick_8">
     <g id="line2d_16">
      <g>
       <use xlink:href="#mebe0b224c9" x="467.073523" y="243.398125" style="stroke: #000000; stroke-width: 0.8"/>
      </g>
     </g>
     <g id="text_22">
      <!-- 50 -->
      <g transform="translate(460.711023 257.996562) scale(0.1 -0.1)">
       <use xlink:href="#DejaVuSans-35"/>
       <use xlink:href="#DejaVuSans-30" transform="translate(63.623047 0)"/>
      </g>
     </g>
    </g>
    <g id="xtick_9">
     <g id="line2d_17">
      <g>
       <use xlink:href="#mebe0b224c9" x="523.235341" y="243.398125" style="stroke: #000000; stroke-width: 0.8"/>
      </g>
     </g>
     <g id="text_23">
      <!-- 100 -->
      <g transform="translate(513.691591 257.996562) scale(0.1 -0.1)">
       <use xlink:href="#DejaVuSans-31"/>
       <use xlink:href="#DejaVuSans-30" transform="translate(63.623047 0)"/>
       <use xlink:href="#DejaVuSans-30" transform="translate(127.246094 0)"/>
      </g>
     </g>
    </g>
    <g id="xtick_10">
     <g id="line2d_18">
      <g>
       <use xlink:href="#mebe0b224c9" x="579.397159" y="243.398125" style="stroke: #000000; stroke-width: 0.8"/>
      </g>
     </g>
     <g id="text_24">
      <!-- 150 -->
      <g transform="translate(569.853409 257.996562) scale(0.1 -0.1)">
       <use xlink:href="#DejaVuSans-31"/>
       <use xlink:href="#DejaVuSans-35" transform="translate(63.623047 0)"/>
       <use xlink:href="#DejaVuSans-30" transform="translate(127.246094 0)"/>
      </g>
     </g>
    </g>
    <g id="xtick_11">
     <g id="line2d_19">
      <g>
       <use xlink:href="#mebe0b224c9" x="635.558977" y="243.398125" style="stroke: #000000; stroke-width: 0.8"/>
      </g>
     </g>
     <g id="text_25">
      <!-- 200 -->
      <g transform="translate(626.015227 257.996562) scale(0.1 -0.1)">
       <use xlink:href="#DejaVuSans-32"/>
       <use xlink:href="#DejaVuSans-30" transform="translate(63.623047 0)"/>
       <use xlink:href="#DejaVuSans-30" transform="translate(127.246094 0)"/>
      </g>
     </g>
    </g>
    <g id="xtick_12">
     <g id="line2d_20">
      <g>
       <use xlink:href="#mebe0b224c9" x="691.720795" y="243.398125" style="stroke: #000000; stroke-width: 0.8"/>
      </g>
     </g>
     <g id="text_26">
      <!-- 250 -->
      <g transform="translate(682.177045 257.996562) scale(0.1 -0.1)">
       <use xlink:href="#DejaVuSans-32"/>
       <use xlink:href="#DejaVuSans-35" transform="translate(63.623047 0)"/>
       <use xlink:href="#DejaVuSans-30" transform="translate(127.246094 0)"/>
      </g>
     </g>
    </g>
    <g id="text_27">
     <!-- Training Steps (thousands) -->
     <g transform="translate(475.093594 271.674687) scale(0.1 -0.1)">
      <use xlink:href="#DejaVuSans-Bold-54"/>
      <use xlink:href="#DejaVuSans-Bold-72" transform="translate(57.212891 0)"/>
      <use xlink:href="#DejaVuSans-Bold-61" transform="translate(106.529297 0)"/>
      <use xlink:href="#DejaVuSans-Bold-69" transform="translate(174.009766 0)"/>
      <use xlink:href="#DejaVuSans-Bold-6e" transform="translate(208.287109 0)"/>
      <use xlink:href="#DejaVuSans-Bold-69" transform="translate(279.478516 0)"/>
      <use xlink:href="#DejaVuSans-Bold-6e" transform="translate(313.755859 0)"/>
      <use xlink:href="#DejaVuSans-Bold-67" transform="translate(384.947266 0)"/>
      <use xlink:href="#DejaVuSans-Bold-20" transform="translate(456.529297 0)"/>
      <use xlink:href="#DejaVuSans-Bold-53" transform="translate(491.34375 0)"/>
      <use xlink:href="#DejaVuSans-Bold-74" transform="translate(563.365234 0)"/>
      <use xlink:href="#DejaVuSans-Bold-65" transform="translate(611.167969 0)"/>
      <use xlink:href="#DejaVuSans-Bold-70" transform="translate(678.990234 0)"/>
      <use xlink:href="#DejaVuSans-Bold-73" transform="translate(750.572266 0)"/>
      <use xlink:href="#DejaVuSans-Bold-20" transform="translate(810.09375 0)"/>
      <use xlink:href="#DejaVuSans-Bold-28" transform="translate(844.908203 0)"/>
      <use xlink:href="#DejaVuSans-Bold-74" transform="translate(890.611328 0)"/>
      <use xlink:href="#DejaVuSans-Bold-68" transform="translate(938.414062 0)"/>
      <use xlink:href="#DejaVuSans-Bold-6f" transform="translate(1009.605469 0)"/>
      <use xlink:href="#DejaVuSans-Bold-75" transform="translate(1078.306641 0)"/>
      <use xlink:href="#DejaVuSans-Bold-73" transform="translate(1149.498047 0)"/>
      <use xlink:href="#DejaVuSans-Bold-61" transform="translate(1209.019531 0)"/>
      <use xlink:href="#DejaVuSans-Bold-6e" transform="translate(1276.5 0)"/>
      <use xlink:href="#DejaVuSans-Bold-64" transform="translate(1347.691406 0)"/>
      <use xlink:href="#DejaVuSans-Bold-73" transform="translate(1419.273438 0)"/>
      <use xlink:href="#DejaVuSans-Bold-29" transform="translate(1478.794922 0)"/>
     </g>
    </g>
   </g>
   <g id="matplotlib.axis_4">
    <g id="ytick_8">
     <g id="line2d_21">
      <g>
       <use xlink:href="#m680b807f0e" x="396.87125" y="234.288391" style="stroke: #000000; stroke-width: 0.8"/>
      </g>
     </g>
     <g id="text_28">
      <!-- 1.0 -->
      <g transform="translate(373.968125 238.087609) scale(0.1 -0.1)">
       <defs>
        <path id="DejaVuSans-2e" d="M 684 794 
L 1344 794 
L 1344 0 
L 684 0 
L 684 794 
z
" transform="scale(0.015625)"/>
       </defs>
       <use xlink:href="#DejaVuSans-31"/>
       <use xlink:href="#DejaVuSans-2e" transform="translate(63.623047 0)"/>
       <use xlink:href="#DejaVuSans-30" transform="translate(95.410156 0)"/>
      </g>
     </g>
    </g>
    <g id="ytick_9">
     <g id="line2d_22">
      <g>
       <use xlink:href="#m680b807f0e" x="396.87125" y="203.922804" style="stroke: #000000; stroke-width: 0.8"/>
      </g>
     </g>
     <g id="text_29">
      <!-- 1.5 -->
      <g transform="translate(373.968125 207.722023) scale(0.1 -0.1)">
       <use xlink:href="#DejaVuSans-31"/>
       <use xlink:href="#DejaVuSans-2e" transform="translate(63.623047 0)"/>
       <use xlink:href="#DejaVuSans-35" transform="translate(95.410156 0)"/>
      </g>
     </g>
    </g>
    <g id="ytick_10">
     <g id="line2d_23">
      <g>
       <use xlink:href="#m680b807f0e" x="396.87125" y="173.557217" style="stroke: #000000; stroke-width: 0.8"/>
      </g>
     </g>
     <g id="text_30">
      <!-- 2.0 -->
      <g transform="translate(373.968125 177.356436) scale(0.1 -0.1)">
       <use xlink:href="#DejaVuSans-32"/>
       <use xlink:href="#DejaVuSans-2e" transform="translate(63.623047 0)"/>
       <use xlink:href="#DejaVuSans-30" transform="translate(95.410156 0)"/>
      </g>
     </g>
    </g>
    <g id="ytick_11">
     <g id="line2d_24">
      <g>
       <use xlink:href="#m680b807f0e" x="396.87125" y="143.19163" style="stroke: #000000; stroke-width: 0.8"/>
      </g>
     </g>
     <g id="text_31">
      <!-- 2.5 -->
      <g transform="translate(373.968125 146.990849) scale(0.1 -0.1)">
       <use xlink:href="#DejaVuSans-32"/>
       <use xlink:href="#DejaVuSans-2e" transform="translate(63.623047 0)"/>
       <use xlink:href="#DejaVuSans-35" transform="translate(95.410156 0)"/>
      </g>
     </g>
    </g>
    <g id="ytick_12">
     <g id="line2d_25">
      <g>
       <use xlink:href="#m680b807f0e" x="396.87125" y="112.826043" style="stroke: #000000; stroke-width: 0.8"/>
      </g>
     </g>
     <g id="text_32">
      <!-- 3.0 -->
      <g transform="translate(373.968125 116.625262) scale(0.1 -0.1)">
       <use xlink:href="#DejaVuSans-33"/>
       <use xlink:href="#DejaVuSans-2e" transform="translate(63.623047 0)"/>
       <use xlink:href="#DejaVuSans-30" transform="translate(95.410156 0)"/>
      </g>
     </g>
    </g>
    <g id="ytick_13">
     <g id="line2d_26">
      <g>
       <use xlink:href="#m680b807f0e" x="396.87125" y="82.460457" style="stroke: #000000; stroke-width: 0.8"/>
      </g>
     </g>
     <g id="text_33">
      <!-- 3.5 -->
      <g transform="translate(373.968125 86.259675) scale(0.1 -0.1)">
       <use xlink:href="#DejaVuSans-33"/>
       <use xlink:href="#DejaVuSans-2e" transform="translate(63.623047 0)"/>
       <use xlink:href="#DejaVuSans-35" transform="translate(95.410156 0)"/>
      </g>
     </g>
    </g>
    <g id="ytick_14">
     <g id="line2d_27">
      <g>
       <use xlink:href="#m680b807f0e" x="396.87125" y="52.09487" style="stroke: #000000; stroke-width: 0.8"/>
      </g>
     </g>
     <g id="text_34">
      <!-- 4.0 -->
      <g transform="translate(373.968125 55.894088) scale(0.1 -0.1)">
       <use xlink:href="#DejaVuSans-34"/>
       <use xlink:href="#DejaVuSans-2e" transform="translate(63.623047 0)"/>
       <use xlink:href="#DejaVuSans-30" transform="translate(95.410156 0)"/>
      </g>
     </g>
    </g>
    <g id="text_35">
     <!-- Training Loss -->
     <g transform="translate(367.810312 169.997969) rotate(-90) scale(0.1 -0.1)">
      <use xlink:href="#DejaVuSans-Bold-54"/>
      <use xlink:href="#DejaVuSans-Bold-72" transform="translate(57.212891 0)"/>
      <use xlink:href="#DejaVuSans-Bold-61" transform="translate(106.529297 0)"/>
      <use xlink:href="#DejaVuSans-Bold-69" transform="translate(174.009766 0)"/>
      <use xlink:href="#DejaVuSans-Bold-6e" transform="translate(208.287109 0)"/>
      <use xlink:href="#DejaVuSans-Bold-69" transform="translate(279.478516 0)"/>
      <use xlink:href="#DejaVuSans-Bold-6e" transform="translate(313.755859 0)"/>
      <use xlink:href="#DejaVuSans-Bold-67" transform="translate(384.947266 0)"/>
      <use xlink:href="#DejaVuSans-Bold-20" transform="translate(456.529297 0)"/>
      <use xlink:href="#DejaVuSans-Bold-4c" transform="translate(491.34375 0)"/>
      <use xlink:href="#DejaVuSans-Bold-6f" transform="translate(555.064453 0)"/>
      <use xlink:href="#DejaVuSans-Bold-73" transform="translate(623.765625 0)"/>
      <use xlink:href="#DejaVuSans-Bold-73" transform="translate(683.287109 0)"/>
     </g>
    </g>
   </g>
   <g id="line2d_28">
    <path d="M 410.911705 32.367216 
L 411.474448 35.357627 
L 412.599936 32.421635 
L 413.162679 38.803841 
L 413.725423 39.844977 
L 414.288167 35.374617 
L 414.85091 38.870435 
L 415.413654 43.652036 
L 415.976398 41.599463 
L 416.539141 45.669601 
L 417.101885 46.686976 
L 417.664629 45.543332 
L 418.227372 53.088133 
L 418.790116 53.511441 
L 419.35286 50.971354 
L 419.915603 53.324815 
L 420.478347 50.275497 
L 421.041091 54.962531 
L 421.603834 57.464465 
L 422.166578 49.691202 
L 422.729322 55.788296 
L 423.292065 55.853839 
L 423.854809 61.336625 
L 424.417553 59.60999 
L 424.980296 58.562032 
L 425.54304 63.331123 
L 426.105784 59.627759 
L 426.668527 63.520327 
L 427.231271 63.505425 
L 427.794015 65.36541 
L 428.356758 58.827764 
L 428.919502 65.402756 
L 429.482246 69.478482 
L 430.044989 64.669362 
L 430.607733 71.77012 
L 431.170477 68.32014 
L 431.73322 75.791976 
L 432.295964 74.756961 
L 432.858708 71.004179 
L 433.421451 70.233287 
L 433.984195 72.824672 
L 435.109682 75.985066 
L 435.672426 80.416755 
L 436.23517 78.965095 
L 436.797913 79.025853 
L 437.360657 75.260697 
L 437.923401 78.266692 
L 438.486144 85.498887 
L 439.048888 79.992241 
L 439.611632 82.972543 
L 440.174375 84.681475 
L 440.737119 81.587203 
L 441.299863 81.128445 
L 441.862606 82.241719 
L 442.42535 88.424359 
L 442.988094 87.617358 
L 444.113581 85.308886 
L 444.676325 90.516648 
L 445.239068 90.411841 
L 445.801812 93.990068 
L 446.364556 95.041598 
L 446.927299 89.716702 
L 447.490043 88.836548 
L 448.052787 93.940527 
L 448.61553 91.437758 
L 449.178274 94.146282 
L 449.741018 97.958927 
L 450.303761 95.65438 
L 450.866505 92.829479 
L 451.429249 98.352905 
L 451.991992 94.233566 
L 452.554736 107.676588 
L 453.11748 97.95902 
L 453.680223 100.919984 
L 454.242967 102.818148 
L 454.805711 102.353818 
L 455.368454 109.386474 
L 455.931198 104.73321 
L 456.493942 103.693255 
L 457.056685 100.997866 
L 457.619429 107.763727 
L 458.182173 109.345879 
L 458.744916 109.111824 
L 459.30766 105.502421 
L 459.870404 107.974237 
L 460.433147 111.268123 
L 460.995891 108.784441 
L 461.558635 110.728342 
L 462.121378 108.758494 
L 462.684122 114.505003 
L 463.246866 114.038114 
L 463.809609 114.900431 
L 464.372353 118.817111 
L 464.935097 114.133852 
L 465.49784 114.897007 
L 466.623328 117.705582 
L 467.186071 113.009049 
L 467.748815 111.483475 
L 468.311559 112.657418 
L 468.874302 115.386861 
L 469.99979 114.189195 
L 470.562533 110.832165 
L 471.125277 117.120805 
L 471.688021 117.912482 
L 472.250764 119.920879 
L 472.813508 126.48205 
L 473.376252 121.660852 
L 473.938995 122.289342 
L 474.501739 115.854345 
L 475.064483 124.752712 
L 475.627226 124.062325 
L 476.18997 125.869832 
L 476.752714 130.078584 
L 477.315458 123.805668 
L 478.440945 127.517881 
L 479.003689 133.263585 
L 479.566432 126.821881 
L 480.129176 135.914827 
L 480.69192 130.449593 
L 481.254663 126.150901 
L 481.817407 136.378046 
L 482.380151 135.654859 
L 482.942894 134.19488 
L 483.505638 136.585715 
L 484.068382 140.322172 
L 484.631125 135.959123 
L 485.193869 139.944126 
L 485.756613 135.828593 
L 486.319356 140.604136 
L 486.8821 133.648623 
L 487.444844 141.273611 
L 488.007587 140.410602 
L 488.570331 137.497092 
L 489.133075 144.237046 
L 489.695818 140.338168 
L 490.258562 137.586412 
L 490.821306 146.960977 
L 491.384049 142.040621 
L 491.946793 142.331029 
L 492.509537 141.262441 
L 493.07228 147.906298 
L 493.635024 148.671034 
L 494.197768 143.585094 
L 494.760511 144.774258 
L 495.323255 145.418973 
L 495.885999 145.628623 
L 496.448742 149.244088 
L 497.011486 146.969929 
L 497.57423 147.278799 
L 498.136973 150.828983 
L 498.699717 143.482908 
L 499.825204 153.735849 
L 500.387948 148.606062 
L 500.950692 154.038338 
L 501.513435 149.165172 
L 502.076179 148.511216 
L 502.638923 154.993199 
L 503.201666 150.045232 
L 503.76441 152.184233 
L 504.327154 151.406184 
L 504.889897 148.605123 
L 505.452641 155.5701 
L 506.015385 157.571547 
L 506.578128 158.439376 
L 507.140872 158.668823 
L 507.703616 156.87668 
L 508.266359 156.055363 
L 508.829103 156.697596 
L 509.391847 155.470254 
L 509.95459 158.384605 
L 510.517334 154.450176 
L 511.080078 160.105197 
L 511.642821 151.477045 
L 512.205565 158.270393 
L 512.768309 163.204183 
L 513.331052 164.282153 
L 513.893796 159.992076 
L 514.45654 162.560364 
L 515.019283 160.136254 
L 515.582027 161.287785 
L 516.144771 163.364287 
L 517.270258 168.573477 
L 517.833002 165.741522 
L 518.395745 162.195187 
L 518.958489 164.553573 
L 519.521233 169.392391 
L 520.083976 165.487681 
L 520.64672 165.245419 
L 521.209464 169.499238 
L 521.772207 166.746455 
L 522.334951 167.432404 
L 522.897695 171.473784 
L 523.460438 158.556827 
L 524.023182 159.164845 
L 524.585926 158.721876 
L 525.148669 159.879705 
L 525.711413 168.264983 
L 526.274157 167.87052 
L 526.8369 164.344778 
L 527.962388 165.970933 
L 528.525131 156.584873 
L 529.087875 167.261825 
L 529.650619 166.224455 
L 530.213362 167.42202 
L 530.776106 168.958882 
L 531.33885 172.486431 
L 531.901593 169.793218 
L 532.464337 174.991997 
L 533.027081 173.89227 
L 533.589824 175.157069 
L 534.152568 173.928423 
L 534.715312 168.807049 
L 535.278055 181.858524 
L 535.840799 174.455648 
L 536.403543 181.785924 
L 536.966286 178.669421 
L 537.52903 174.275528 
L 538.654517 181.541285 
L 539.217261 180.78137 
L 539.780005 176.884626 
L 540.342748 181.503328 
L 540.905492 178.963815 
L 541.468236 179.816622 
L 542.030979 182.265858 
L 542.593723 174.107594 
L 543.156467 179.021793 
L 543.71921 187.423465 
L 544.281954 181.033461 
L 544.844698 183.933206 
L 545.407441 179.657581 
L 545.970185 184.973363 
L 547.095672 181.670166 
L 547.658416 180.89067 
L 548.22116 187.478774 
L 548.783903 185.162582 
L 549.909391 186.751732 
L 550.472134 179.715133 
L 551.034878 184.152926 
L 551.597622 189.516532 
L 552.160366 183.204224 
L 552.723109 179.849378 
L 553.285853 183.458844 
L 553.848597 191.506694 
L 554.41134 188.661002 
L 554.974084 183.639618 
L 555.536828 189.93014 
L 556.099571 186.726696 
L 556.662315 186.013813 
L 557.225059 191.470911 
L 557.787802 189.125731 
L 558.350546 199.074581 
L 558.91329 192.628764 
L 559.476033 190.569528 
L 560.038777 193.874575 
L 560.601521 185.4103 
L 561.164264 194.990117 
L 561.727008 192.262426 
L 562.289752 190.806606 
L 562.852495 187.103113 
L 563.415239 196.114341 
L 563.977983 188.495511 
L 565.10347 195.550374 
L 565.666214 191.435949 
L 566.228957 192.50254 
L 566.791701 195.196094 
L 567.354445 193.426715 
L 567.917188 195.072547 
L 569.042676 192.415667 
L 569.605419 189.870144 
L 570.168163 198.703489 
L 570.730907 188.725028 
L 571.29365 201.385772 
L 571.856394 196.173802 
L 572.419138 194.179919 
L 572.981881 195.365345 
L 573.544625 198.360411 
L 574.107369 197.351223 
L 574.670112 198.464726 
L 575.232856 199.004551 
L 575.7956 194.881019 
L 576.358343 196.621533 
L 576.921087 200.053215 
L 577.483831 195.459772 
L 578.046574 197.499422 
L 578.609318 196.204141 
L 579.172062 196.999231 
L 579.734805 193.087787 
L 580.297549 193.325702 
L 580.860293 190.330503 
L 581.423036 191.649584 
L 581.98578 194.404795 
L 582.548524 194.764475 
L 583.111267 191.967075 
L 583.674011 198.320753 
L 584.236755 195.496861 
L 584.799498 198.366057 
L 585.362242 198.970904 
L 585.924986 195.498442 
L 586.487729 196.823805 
L 587.050473 197.32823 
L 587.613217 196.278064 
L 588.17596 200.599872 
L 588.738704 198.994009 
L 589.301448 202.389647 
L 589.864191 200.829076 
L 590.426935 202.559253 
L 590.989679 203.36253 
L 591.552422 202.063616 
L 592.115166 206.568132 
L 592.67791 197.941549 
L 593.240653 207.560628 
L 593.803397 208.402291 
L 594.366141 201.407156 
L 594.928884 202.727348 
L 595.491628 203.442515 
L 596.054372 203.635065 
L 596.617115 205.784616 
L 597.179859 208.675327 
L 597.742603 205.922894 
L 598.305346 208.410627 
L 598.86809 203.593678 
L 599.430834 207.200535 
L 599.993577 209.458961 
L 600.556321 208.125509 
L 601.119065 206.092038 
L 601.681808 209.253057 
L 602.244552 210.232364 
L 602.807296 207.189071 
L 603.370039 207.377617 
L 603.932783 209.852305 
L 604.495527 209.933791 
L 605.05827 207.988382 
L 605.621014 213.278822 
L 606.183758 213.343146 
L 606.746501 211.437631 
L 607.871989 208.682614 
L 608.434732 205.330645 
L 608.997476 207.389345 
L 609.56022 210.661455 
L 610.122963 210.414739 
L 610.685707 213.581532 
L 611.248451 210.772906 
L 611.811194 211.771718 
L 612.373938 210.092844 
L 612.936682 213.761453 
L 613.499425 209.848329 
L 614.062169 206.946062 
L 614.624913 212.104654 
L 615.187656 210.727791 
L 615.7504 210.024298 
L 616.313144 213.509777 
L 616.875887 211.781608 
L 617.438631 212.593618 
L 618.001375 212.504185 
L 618.564118 215.316159 
L 619.126862 213.061688 
L 619.689606 211.790322 
L 620.252349 209.061618 
L 620.815093 210.719968 
L 621.377837 207.258512 
L 621.94058 216.28998 
L 622.503324 211.473324 
L 623.066068 213.726929 
L 623.628811 207.794867 
L 624.191555 217.058648 
L 624.754299 217.31314 
L 625.317042 216.741644 
L 625.879786 221.528373 
L 626.44253 216.832224 
L 627.005274 217.696805 
L 627.568017 215.090112 
L 628.130761 214.663391 
L 628.693505 210.15764 
L 629.256248 213.121548 
L 629.818992 217.911427 
L 630.381736 219.039013 
L 630.944479 214.967725 
L 631.507223 220.620223 
L 632.069967 211.198967 
L 632.63271 213.327157 
L 633.195454 218.480832 
L 633.758198 222.405005 
L 634.320941 213.237943 
L 634.883685 217.842218 
L 635.446429 213.880338 
L 636.009172 214.216576 
L 636.571916 212.139872 
L 637.13466 211.171597 
L 637.697403 211.842689 
L 638.260147 214.086566 
L 638.822891 211.50587 
L 639.385634 217.264462 
L 639.948378 215.033284 
L 640.511122 214.771435 
L 641.073865 214.071783 
L 641.636609 213.935258 
L 642.199353 219.941668 
L 642.762096 221.58682 
L 643.32484 213.424355 
L 644.450327 220.259599 
L 645.013071 213.587767 
L 645.575815 218.240166 
L 646.138558 215.287859 
L 646.701302 218.926714 
L 647.264046 214.257126 
L 647.826789 215.314047 
L 648.389533 221.529124 
L 648.952277 217.951141 
L 649.51502 219.069253 
L 650.077764 217.000009 
L 650.640508 224.212316 
L 651.203251 219.324733 
L 651.765995 218.319071 
L 652.328739 226.998 
L 652.891482 225.374342 
L 653.454226 228.096761 
L 654.01697 222.845171 
L 654.579713 219.970219 
L 655.142457 217.708449 
L 655.705201 222.166212 
L 656.267944 217.565975 
L 656.830688 226.821677 
L 657.393432 227.922297 
L 657.956175 223.036915 
L 658.518919 221.819777 
L 659.081663 223.202478 
L 659.644406 229.497706 
L 660.20715 223.606431 
L 660.769894 227.412347 
L 661.332637 221.532608 
L 661.895381 222.567196 
L 662.458125 226.648107 
L 663.020868 225.46764 
L 663.583612 227.236197 
L 664.709099 221.342963 
L 665.271843 227.347425 
L 665.834587 222.93399 
L 666.39733 226.18451 
L 666.960074 227.091203 
L 667.522818 225.117303 
L 668.085561 228.04403 
L 668.648305 226.689261 
L 669.211049 228.752578 
L 669.773792 219.255693 
L 670.336536 225.220627 
L 670.89928 227.557946 
L 671.462023 224.888381 
L 672.024767 225.983664 
L 672.587511 226.417469 
L 673.150254 223.984917 
L 673.712998 223.652526 
L 674.275742 227.665998 
L 674.838485 227.905453 
L 675.401229 227.093495 
L 675.963973 233.349034 
L 676.526716 231.060409 
L 677.08946 222.408674 
L 677.652204 221.663554 
L 678.214947 227.513638 
L 678.777691 225.105013 
L 679.340435 226.008478 
L 679.903178 217.701762 
L 680.465922 223.748179 
L 681.028666 227.632648 
L 681.591409 230.241678 
L 682.154153 232.313616 
L 682.716897 226.912666 
L 683.27964 229.921672 
L 683.842384 232.037726 
L 684.405128 229.775857 
L 684.967871 231.189749 
L 685.530615 222.875059 
L 686.656102 228.206185 
L 687.218846 223.779255 
L 687.78159 228.129021 
L 688.344333 231.069602 
L 688.907077 223.919063 
L 689.469821 226.997095 
L 690.032564 231.872146 
L 690.595308 229.388978 
L 691.158052 231.557944 
L 691.720795 233.185664 
L 691.720795 233.185664 
" clip-path="url(#p867e7bf644)" style="fill: none; stroke: #d62728; stroke-opacity: 0.8; stroke-width: 1.5; stroke-linecap: square"/>
   </g>
   <g id="line2d_29">
    <path d="M 467.073523 243.398125 
L 467.073523 22.318125 
" clip-path="url(#p867e7bf644)" style="fill: none; stroke-dasharray: 3.7,1.6; stroke-dashoffset: 0; stroke: #2ca02c; stroke-opacity: 0.7"/>
   </g>
   <g id="line2d_30">
    <path d="M 523.235341 243.398125 
L 523.235341 22.318125 
" clip-path="url(#p867e7bf644)" style="fill: none; stroke-dasharray: 3.7,1.6; stroke-dashoffset: 0; stroke: #2ca02c; stroke-opacity: 0.7"/>
   </g>
   <g id="line2d_31">
    <path d="M 579.397159 243.398125 
L 579.397159 22.318125 
" clip-path="url(#p867e7bf644)" style="fill: none; stroke-dasharray: 3.7,1.6; stroke-dashoffset: 0; stroke: #2ca02c; stroke-opacity: 0.7"/>
   </g>
   <g id="line2d_32">
    <path d="M 635.558977 243.398125 
L 635.558977 22.318125 
" clip-path="url(#p867e7bf644)" style="fill: none; stroke-dasharray: 3.7,1.6; stroke-dashoffset: 0; stroke: #2ca02c; stroke-opacity: 0.7"/>
   </g>
   <g id="patch_10">
    <path d="M 396.87125 243.398125 
L 396.87125 22.318125 
" style="fill: none; stroke: #000000; stroke-width: 0.8; stroke-linejoin: miter; stroke-linecap: square"/>
   </g>
   <g id="patch_11">
    <path d="M 396.87125 243.398125 
L 705.76125 243.398125 
" style="fill: none; stroke: #000000; stroke-width: 0.8; stroke-linejoin: miter; stroke-linecap: square"/>
   </g>
   <g id="text_36">
    <!-- Small bumps at -->
    <g style="fill: #2ca02c" transform="translate(495.154432 133.113599) scale(0.09 -0.09)">
     <defs>
      <path id="DejaVuSans-6d" d="M 3328 2828 
Q 3544 3216 3844 3400 
Q 4144 3584 4550 3584 
Q 5097 3584 5394 3201 
Q 5691 2819 5691 2113 
L 5691 0 
L 5113 0 
L 5113 2094 
Q 5113 2597 4934 2840 
Q 4756 3084 4391 3084 
Q 3944 3084 3684 2787 
Q 3425 2491 3425 1978 
L 3425 0 
L 2847 0 
L 2847 2094 
Q 2847 2600 2669 2842 
Q 2491 3084 2119 3084 
Q 1678 3084 1418 2786 
Q 1159 2488 1159 1978 
L 1159 0 
L 581 0 
L 581 3500 
L 1159 3500 
L 1159 2956 
Q 1356 3278 1631 3431 
Q 1906 3584 2284 3584 
Q 2666 3584 2933 3390 
Q 3200 3197 3328 2828 
z
" transform="scale(0.015625)"/>
      <path id="DejaVuSans-6c" d="M 603 4863 
L 1178 4863 
L 1178 0 
L 603 0 
L 603 4863 
z
" transform="scale(0.015625)"/>
      <path id="DejaVuSans-62" d="M 3116 1747 
Q 3116 2381 2855 2742 
Q 2594 3103 2138 3103 
Q 1681 3103 1420 2742 
Q 1159 2381 1159 1747 
Q 1159 1113 1420 752 
Q 1681 391 2138 391 
Q 2594 391 2855 752 
Q 3116 1113 3116 1747 
z
M 1159 2969 
Q 1341 3281 1617 3432 
Q 1894 3584 2278 3584 
Q 2916 3584 3314 3078 
Q 3713 2572 3713 1747 
Q 3713 922 3314 415 
Q 2916 -91 2278 -91 
Q 1894 -91 1617 61 
Q 1341 213 1159 525 
L 1159 0 
L 581 0 
L 581 4863 
L 1159 4863 
L 1159 2969 
z
" transform="scale(0.015625)"/>
      <path id="DejaVuSans-75" d="M 544 1381 
L 544 3500 
L 1119 3500 
L 1119 1403 
Q 1119 906 1312 657 
Q 1506 409 1894 409 
Q 2359 409 2629 706 
Q 2900 1003 2900 1516 
L 2900 3500 
L 3475 3500 
L 3475 0 
L 2900 0 
L 2900 538 
Q 2691 219 2414 64 
Q 2138 -91 1772 -91 
Q 1169 -91 856 284 
Q 544 659 544 1381 
z
M 1991 3584 
L 1991 3584 
z
" transform="scale(0.015625)"/>
      <path id="DejaVuSans-70" d="M 1159 525 
L 1159 -1331 
L 581 -1331 
L 581 3500 
L 1159 3500 
L 1159 2969 
Q 1341 3281 1617 3432 
Q 1894 3584 2278 3584 
Q 2916 3584 3314 3078 
Q 3713 2572 3713 1747 
Q 3713 922 3314 415 
Q 2916 -91 2278 -91 
Q 1894 -91 1617 61 
Q 1341 213 1159 525 
z
M 3116 1747 
Q 3116 2381 2855 2742 
Q 2594 3103 2138 3103 
Q 1681 3103 1420 2742 
Q 1159 2381 1159 1747 
Q 1159 1113 1420 752 
Q 1681 391 2138 391 
Q 2594 391 2855 752 
Q 3116 1113 3116 1747 
z
" transform="scale(0.015625)"/>
     </defs>
     <use xlink:href="#DejaVuSans-53"/>
     <use xlink:href="#DejaVuSans-6d" transform="translate(63.476562 0)"/>
     <use xlink:href="#DejaVuSans-61" transform="translate(160.888672 0)"/>
     <use xlink:href="#DejaVuSans-6c" transform="translate(222.167969 0)"/>
     <use xlink:href="#DejaVuSans-6c" transform="translate(249.951172 0)"/>
     <use xlink:href="#DejaVuSans-20" transform="translate(277.734375 0)"/>
     <use xlink:href="#DejaVuSans-62" transform="translate(309.521484 0)"/>
     <use xlink:href="#DejaVuSans-75" transform="translate(372.998047 0)"/>
     <use xlink:href="#DejaVuSans-6d" transform="translate(436.376953 0)"/>
     <use xlink:href="#DejaVuSans-70" transform="translate(533.789062 0)"/>
     <use xlink:href="#DejaVuSans-73" transform="translate(597.265625 0)"/>
     <use xlink:href="#DejaVuSans-20" transform="translate(649.365234 0)"/>
     <use xlink:href="#DejaVuSans-61" transform="translate(681.152344 0)"/>
     <use xlink:href="#DejaVuSans-74" transform="translate(742.431641 0)"/>
    </g>
    <!-- context increases -->
    <g style="fill: #2ca02c" transform="translate(495.154432 143.19163) scale(0.09 -0.09)">
     <defs>
      <path id="DejaVuSans-63" d="M 3122 3366 
L 3122 2828 
Q 2878 2963 2633 3030 
Q 2388 3097 2138 3097 
Q 1578 3097 1268 2742 
Q 959 2388 959 1747 
Q 959 1106 1268 751 
Q 1578 397 2138 397 
Q 2388 397 2633 464 
Q 2878 531 3122 666 
L 3122 134 
Q 2881 22 2623 -34 
Q 2366 -91 2075 -91 
Q 1284 -91 818 406 
Q 353 903 353 1747 
Q 353 2603 823 3093 
Q 1294 3584 2113 3584 
Q 2378 3584 2631 3529 
Q 2884 3475 3122 3366 
z
" transform="scale(0.015625)"/>
      <path id="DejaVuSans-78" d="M 3513 3500 
L 2247 1797 
L 3578 0 
L 2900 0 
L 1881 1375 
L 863 0 
L 184 0 
L 1544 1831 
L 300 3500 
L 978 3500 
L 1906 2253 
L 2834 3500 
L 3513 3500 
z
" transform="scale(0.015625)"/>
      <path id="DejaVuSans-69" d="M 603 3500 
L 1178 3500 
L 1178 0 
L 603 0 
L 603 3500 
z
M 603 4863 
L 1178 4863 
L 1178 4134 
L 603 4134 
L 603 4863 
z
" transform="scale(0.015625)"/>
      <path id="DejaVuSans-72" d="M 2631 2963 
Q 2534 3019 2420 3045 
Q 2306 3072 2169 3072 
Q 1681 3072 1420 2755 
Q 1159 2438 1159 1844 
L 1159 0 
L 581 0 
L 581 3500 
L 1159 3500 
L 1159 2956 
Q 1341 3275 1631 3429 
Q 1922 3584 2338 3584 
Q 2397 3584 2469 3576 
Q 2541 3569 2628 3553 
L 2631 2963 
z
" transform="scale(0.015625)"/>
     </defs>
     <use xlink:href="#DejaVuSans-63"/>
     <use xlink:href="#DejaVuSans-6f" transform="translate(54.980469 0)"/>
     <use xlink:href="#DejaVuSans-6e" transform="translate(116.162109 0)"/>
     <use xlink:href="#DejaVuSans-74" transform="translate(179.541016 0)"/>
     <use xlink:href="#DejaVuSans-65" transform="translate(218.75 0)"/>
     <use xlink:href="#DejaVuSans-78" transform="translate(278.523438 0)"/>
     <use xlink:href="#DejaVuSans-74" transform="translate(337.703125 0)"/>
     <use xlink:href="#DejaVuSans-20" transform="translate(376.912109 0)"/>
     <use xlink:href="#DejaVuSans-69" transform="translate(408.699219 0)"/>
     <use xlink:href="#DejaVuSans-6e" transform="translate(436.482422 0)"/>
     <use xlink:href="#DejaVuSans-63" transform="translate(499.861328 0)"/>
     <use xlink:href="#DejaVuSans-72" transform="translate(554.841797 0)"/>
     <use xlink:href="#DejaVuSans-65" transform="translate(593.705078 0)"/>
     <use xlink:href="#DejaVuSans-61" transform="translate(655.228516 0)"/>
     <use xlink:href="#DejaVuSans-73" transform="translate(716.507812 0)"/>
     <use xlink:href="#DejaVuSans-65" transform="translate(768.607422 0)"/>
     <use xlink:href="#DejaVuSans-73" transform="translate(830.130859 0)"/>
    </g>
   </g>
   <g id="text_37">
    <!-- Loss During Curriculum Training -->
    <g transform="translate(442.679687 16.318125) scale(0.12 -0.12)">
     <defs>
      <path id="DejaVuSans-Bold-44" d="M 1791 3756 
L 1791 909 
L 2222 909 
Q 2959 909 3348 1275 
Q 3738 1641 3738 2338 
Q 3738 3031 3350 3393 
Q 2963 3756 2222 3756 
L 1791 3756 
z
M 588 4666 
L 1856 4666 
Q 2919 4666 3439 4514 
Q 3959 4363 4331 4000 
Q 4659 3684 4818 3271 
Q 4978 2859 4978 2338 
Q 4978 1809 4818 1395 
Q 4659 981 4331 666 
Q 3956 303 3431 151 
Q 2906 0 1856 0 
L 588 0 
L 588 4666 
z
" transform="scale(0.015625)"/>
     </defs>
     <use xlink:href="#DejaVuSans-Bold-4c"/>
     <use xlink:href="#DejaVuSans-Bold-6f" transform="translate(63.720703 0)"/>
     <use xlink:href="#DejaVuSans-Bold-73" transform="translate(132.421875 0)"/>
     <use xlink:href="#DejaVuSans-Bold-73" transform="translate(191.943359 0)"/>
     <use xlink:href="#DejaVuSans-Bold-20" transform="translate(251.464844 0)"/>
     <use xlink:href="#DejaVuSans-Bold-44" transform="translate(286.279297 0)"/>
     <use xlink:href="#DejaVuSans-Bold-75" transform="translate(369.287109 0)"/>
     <use xlink:href="#DejaVuSans-Bold-72" transform="translate(440.478516 0)"/>
     <use xlink:href="#DejaVuSans-Bold-69" transform="translate(489.794922 0)"/>
     <use xlink:href="#DejaVuSans-Bold-6e" transform="translate(524.072266 0)"/>
     <use xlink:href="#DejaVuSans-Bold-67" transform="translate(595.263672 0)"/>
     <use xlink:href="#DejaVuSans-Bold-20" transform="translate(666.845703 0)"/>
     <use xlink:href="#DejaVuSans-Bold-43" transform="translate(701.660156 0)"/>
     <use xlink:href="#DejaVuSans-Bold-75" transform="translate(775.048828 0)"/>
     <use xlink:href="#DejaVuSans-Bold-72" transform="translate(846.240234 0)"/>
     <use xlink:href="#DejaVuSans-Bold-72" transform="translate(895.556641 0)"/>
     <use xlink:href="#DejaVuSans-Bold-69" transform="translate(944.873047 0)"/>
     <use xlink:href="#DejaVuSans-Bold-63" transform="translate(979.150391 0)"/>
     <use xlink:href="#DejaVuSans-Bold-75" transform="translate(1038.427734 0)"/>
     <use xlink:href="#DejaVuSans-Bold-6c" transform="translate(1109.619141 0)"/>
     <use xlink:href="#DejaVuSans-Bold-75" transform="translate(1143.896484 0)"/>
     <use xlink:href="#DejaVuSans-Bold-6d" transform="translate(1215.087891 0)"/>
     <use xlink:href="#DejaVuSans-Bold-20" transform="translate(1319.287109 0)"/>
     <use xlink:href="#DejaVuSans-Bold-54" transform="translate(1354.101562 0)"/>
     <use xlink:href="#DejaVuSans-Bold-72" transform="translate(1411.314453 0)"/>
     <use xlink:href="#DejaVuSans-Bold-61" transform="translate(1460.630859 0)"/>
     <use xlink:href="#DejaVuSans-Bold-69" transform="translate(1528.111328 0)"/>
     <use xlink:href="#DejaVuSans-Bold-6e" transform="translate(1562.388672 0)"/>
     <use xlink:href="#DejaVuSans-Bold-69" transform="translate(1633.580078 0)"/>
     <use xlink:href="#DejaVuSans-Bold-6e" transform="translate(1667.857422 0)"/>
     <use xlink:href="#DejaVuSans-Bold-67" transform="translate(1739.048828 0)"/>
    </g>
   </g>
  </g>
 </g>
 <defs>
  <clipPath id="p45529f9901">
   <rect x="40.68125" y="22.318125" width="308.89" height="221.08"/>
  </clipPath>
  <clipPath id="p867e7bf644">
   <rect x="396.87125" y="22.318125" width="308.89" height="221.08"/>
  </clipPath>
 </defs>
</svg>
