<?xml version="1.0" encoding="UTF-8" standalone="no"?>
<!DOCTYPE svg PUBLIC "-//W3C//DTD SVG 1.1//EN"
 "http://www.w3.org/Graphics/SVG/1.1/DTD/svg11.dtd">
<!-- Generated by graphviz version 2.43.0 (0)
 -->
<!-- Title: integration_C Pages: 1 -->
<svg width="343pt" height="288pt"
 viewBox="0.00 0.00 342.57 288.00" xmlns="http://www.w3.org/2000/svg" xmlns:xlink="http://www.w3.org/1999/xlink">
<g id="graph0" class="graph" transform="scale(1.52 1.52) rotate(0) translate(4 186)">
<title>integration_C</title>
<polygon fill="white" stroke="transparent" points="-4,4 -4,-186 222,-186 222,4 -4,4"/>
<!-- fm -->
<g id="node1" class="node">
<title>fm</title>
<path fill="#ff7f0e" stroke="black" stroke-width="1.5" d="M137.5,-182C137.5,-182 98.5,-182 98.5,-182 92.5,-182 86.5,-176 86.5,-170 86.5,-170 86.5,-156 86.5,-156 86.5,-150 92.5,-144 98.5,-144 98.5,-144 137.5,-144 137.5,-144 143.5,-144 149.5,-150 149.5,-156 149.5,-156 149.5,-170 149.5,-170 149.5,-176 143.5,-182 137.5,-182"/>
<text text-anchor="middle" x="118" y="-170.8" font-family="Arial" font-size="9.00" fill="white">Protein</text>
<text text-anchor="middle" x="118" y="-160.8" font-family="Arial" font-size="9.00" fill="white">Foundation</text>
<text text-anchor="middle" x="118" y="-150.8" font-family="Arial" font-size="9.00" fill="white">Models</text>
</g>
<!-- f0 -->
<g id="node2" class="node">
<title>f0</title>
<path fill="#aec7e8" stroke="black" stroke-width="1.5" d="M60,-108C60,-108 12,-108 12,-108 6,-108 0,-102 0,-96 0,-96 0,-84 0,-84 0,-78 6,-72 12,-72 12,-72 60,-72 60,-72 66,-72 72,-78 72,-84 72,-84 72,-96 72,-96 72,-102 66,-108 60,-108"/>
<text text-anchor="middle" x="36" y="-92.8" font-family="Arial" font-size="9.00">Pathogenicity</text>
<text text-anchor="middle" x="36" y="-82.8" font-family="Arial" font-size="9.00">scores</text>
</g>
<!-- fm&#45;&gt;f0 -->
<g id="edge1" class="edge">
<title>fm&#45;&gt;f0</title>
<path fill="none" stroke="black" d="M96.88,-143.72C86.65,-134.85 74.24,-124.11 63.29,-114.63"/>
<polygon fill="black" stroke="black" points="65.49,-111.9 55.64,-108 60.91,-117.2 65.49,-111.9"/>
</g>
<!-- f1 -->
<g id="node3" class="node">
<title>f1</title>
<path fill="#aec7e8" stroke="black" stroke-width="1.5" d="M134,-108C134,-108 102,-108 102,-108 96,-108 90,-102 90,-96 90,-96 90,-84 90,-84 90,-78 96,-72 102,-72 102,-72 134,-72 134,-72 140,-72 146,-78 146,-84 146,-84 146,-96 146,-96 146,-102 140,-108 134,-108"/>
<text text-anchor="middle" x="118" y="-92.8" font-family="Arial" font-size="9.00">Structural</text>
<text text-anchor="middle" x="118" y="-82.8" font-family="Arial" font-size="9.00">effects</text>
</g>
<!-- fm&#45;&gt;f1 -->
<g id="edge2" class="edge">
<title>fm&#45;&gt;f1</title>
<path fill="none" stroke="black" d="M118,-143.72C118,-135.97 118,-126.79 118,-118.27"/>
<polygon fill="black" stroke="black" points="121.5,-118 118,-108 114.5,-118 121.5,-118"/>
</g>
<!-- f2 -->
<g id="node4" class="node">
<title>f2</title>
<path fill="#aec7e8" stroke="black" stroke-width="1.5" d="M206,-108C206,-108 176,-108 176,-108 170,-108 164,-102 164,-96 164,-96 164,-84 164,-84 164,-78 170,-72 176,-72 176,-72 206,-72 206,-72 212,-72 218,-78 218,-84 218,-84 218,-96 218,-96 218,-102 212,-108 206,-108"/>
<text text-anchor="middle" x="191" y="-92.8" font-family="Arial" font-size="9.00">Stability</text>
<text text-anchor="middle" x="191" y="-82.8" font-family="Arial" font-size="9.00">changes</text>
</g>
<!-- fm&#45;&gt;f2 -->
<g id="edge3" class="edge">
<title>fm&#45;&gt;f2</title>
<path fill="none" stroke="black" d="M136.8,-143.72C145.73,-135.03 156.53,-124.52 166.13,-115.19"/>
<polygon fill="black" stroke="black" points="168.79,-117.48 173.52,-108 163.91,-112.47 168.79,-117.48"/>
</g>
<!-- risk -->
<g id="node5" class="node">
<title>risk</title>
<path fill="#9467bd" stroke="black" stroke-width="1.5" d="M133,-36C133,-36 103,-36 103,-36 97,-36 91,-30 91,-24 91,-24 91,-12 91,-12 91,-6 97,0 103,0 103,0 133,0 133,0 139,0 145,-6 145,-12 145,-12 145,-24 145,-24 145,-30 139,-36 133,-36"/>
<text text-anchor="middle" x="118" y="-20.8" font-family="Arial" font-size="9.00" fill="white">Risk</text>
<text text-anchor="middle" x="118" y="-10.8" font-family="Arial" font-size="9.00" fill="white">Score</text>
</g>
<!-- f0&#45;&gt;risk -->
<g id="edge4" class="edge">
<title>f0&#45;&gt;risk</title>
<path fill="none" stroke="black" d="M56.27,-71.7C66.5,-62.97 79.06,-52.24 90.18,-42.75"/>
<polygon fill="black" stroke="black" points="92.63,-45.26 97.96,-36.1 88.09,-39.94 92.63,-45.26"/>
</g>
<!-- f1&#45;&gt;risk -->
<g id="edge5" class="edge">
<title>f1&#45;&gt;risk</title>
<path fill="none" stroke="black" d="M118,-71.7C118,-63.98 118,-54.71 118,-46.11"/>
<polygon fill="black" stroke="black" points="121.5,-46.1 118,-36.1 114.5,-46.1 121.5,-46.1"/>
</g>
<!-- f2&#45;&gt;risk -->
<g id="edge6" class="edge">
<title>f2&#45;&gt;risk</title>
<path fill="none" stroke="black" d="M172.96,-71.7C163.94,-63.05 152.88,-52.45 143.06,-43.03"/>
<polygon fill="black" stroke="black" points="145.48,-40.5 135.84,-36.1 140.63,-45.55 145.48,-40.5"/>
</g>
</g>
</svg>
