<?xml version="1.0" encoding="utf-8" standalone="no"?>
<!DOCTYPE svg PUBLIC "-//W3C//DTD SVG 1.1//EN"
  "http://www.w3.org/Graphics/SVG/1.1/DTD/svg11.dtd">
<svg xmlns:xlink="http://www.w3.org/1999/xlink" width="424.7625pt" height="280.752656pt" viewBox="0 0 424.7625 280.752656" xmlns="http://www.w3.org/2000/svg" version="1.1">
 <metadata>
  <rdf:RDF xmlns:dc="http://purl.org/dc/elements/1.1/" xmlns:cc="http://creativecommons.org/ns#" xmlns:rdf="http://www.w3.org/1999/02/22-rdf-syntax-ns#">
   <cc:Work>
    <dc:type rdf:resource="http://purl.org/dc/dcmitype/StillImage"/>
    <dc:date>2026-01-08T06:35:35.560665</dc:date>
    <dc:format>image/svg+xml</dc:format>
    <dc:creator>
     <cc:Agent>
      <dc:title>Matplotlib v3.10.7, https://matplotlib.org/</dc:title>
     </cc:Agent>
    </dc:creator>
   </cc:Work>
  </rdf:RDF>
 </metadata>
 <defs>
  <style type="text/css">*{stroke-linejoin: round; stroke-linecap: butt}</style>
 </defs>
 <g id="figure_1">
  <g id="patch_1">
   <path d="M -0 280.752656 
L 424.7625 280.752656 
L 424.7625 0 
L -0 0 
z
" style="fill: #ffffff"/>
  </g>
  <g id="axes_1">
   <g id="patch_2">
    <path d="M 59.7625 243.118281 
L 417.5625 243.118281 
L 417.5625 21.558281 
L 59.7625 21.558281 
z
" style="fill: #ffffff"/>
   </g>
   <g id="FillBetweenPolyCollection_1">
    <defs>
     <path id="me6fec11f52" d="M 76.026136 -52.406069 
L 76.026136 -47.705284 
L 79.311719 -47.705284 
L 82.597303 -47.705284 
L 85.882886 -47.705284 
L 89.168469 -47.705284 
L 92.454052 -47.705284 
L 95.739635 -47.705284 
L 99.025218 -47.705284 
L 102.310801 -47.705284 
L 105.596384 -47.705284 
L 108.881967 -47.705284 
L 112.167551 -47.705284 
L 115.453134 -47.705284 
L 118.738717 -47.705284 
L 122.0243 -47.705284 
L 125.309883 -47.705284 
L 128.595466 -47.705284 
L 131.881049 -47.705284 
L 135.166632 -47.705284 
L 138.452215 -47.705284 
L 141.737798 -47.705284 
L 145.023382 -47.705284 
L 148.308965 -47.705284 
L 151.594548 -47.705284 
L 154.880131 -47.705284 
L 158.165714 -47.705284 
L 161.451297 -47.705284 
L 164.73688 -47.705284 
L 168.022463 -47.705284 
L 171.308046 -47.705284 
L 174.593629 -47.705284 
L 177.879213 -47.705284 
L 181.164796 -47.705284 
L 184.450379 -47.705284 
L 187.735962 -47.705284 
L 191.021545 -47.705284 
L 194.307128 -47.705284 
L 197.592711 -47.705284 
L 200.878294 -47.705284 
L 204.163877 -47.705284 
L 207.449461 -47.705284 
L 210.735044 -47.705284 
L 214.020627 -47.705284 
L 217.30621 -47.705284 
L 220.591793 -47.705284 
L 223.877376 -47.705284 
L 227.162959 -47.705284 
L 230.448542 -47.705284 
L 233.734125 -47.705284 
L 237.019708 -47.705284 
L 240.305292 -47.705284 
L 243.590875 -47.705284 
L 246.876458 -47.705284 
L 250.162041 -47.705284 
L 253.447624 -47.705284 
L 256.733207 -47.705284 
L 260.01879 -47.705284 
L 263.304373 -47.705284 
L 266.589956 -47.705284 
L 269.875539 -47.705284 
L 273.161123 -47.705284 
L 276.446706 -47.705284 
L 279.732289 -47.705284 
L 283.017872 -47.705284 
L 286.303455 -47.705284 
L 289.589038 -47.705284 
L 292.874621 -47.705284 
L 296.160204 -47.705284 
L 299.445787 -47.705284 
L 302.731371 -47.705284 
L 306.016954 -47.705284 
L 309.302537 -47.705284 
L 312.58812 -47.705284 
L 315.873703 -47.705284 
L 319.159286 -47.705284 
L 322.444869 -47.705284 
L 325.730452 -47.705284 
L 329.016035 -47.705284 
L 332.301618 -47.705284 
L 335.587202 -47.705284 
L 338.872785 -47.705284 
L 342.158368 -47.705284 
L 345.443951 -47.705284 
L 348.729534 -47.705284 
L 352.015117 -47.705284 
L 355.3007 -47.705284 
L 358.586283 -47.705284 
L 361.871866 -47.705284 
L 365.157449 -47.705284 
L 368.443033 -47.705284 
L 371.728616 -47.705284 
L 375.014199 -47.705284 
L 378.299782 -47.705284 
L 381.585365 -47.705284 
L 384.870948 -47.705284 
L 388.156531 -47.705284 
L 391.442114 -47.705284 
L 394.727697 -47.705284 
L 398.013281 -47.705284 
L 401.298864 -47.705284 
L 401.298864 -47.705932 
L 401.298864 -47.705932 
L 398.013281 -47.70617 
L 394.727697 -47.706489 
L 391.442114 -47.706915 
L 388.156531 -47.707482 
L 384.870948 -47.708232 
L 381.585365 -47.709221 
L 378.299782 -47.710519 
L 375.014199 -47.712212 
L 371.728616 -47.714411 
L 368.443033 -47.717254 
L 365.157449 -47.720912 
L 361.871866 -47.725595 
L 358.586283 -47.731562 
L 355.3007 -47.739128 
L 352.015117 -47.748675 
L 348.729534 -47.760664 
L 345.443951 -47.775646 
L 342.158368 -47.794276 
L 338.872785 -47.81733 
L 335.587202 -47.845717 
L 332.301618 -47.880501 
L 329.016035 -47.922911 
L 325.730452 -47.974363 
L 322.444869 -48.036475 
L 319.159286 -48.111079 
L 315.873703 -48.200239 
L 312.58812 -48.306258 
L 309.302537 -48.431685 
L 306.016954 -48.579316 
L 302.731371 -48.752193 
L 299.445787 -48.95359 
L 296.160204 -49.186997 
L 292.874621 -49.456088 
L 289.589038 -49.764688 
L 286.303455 -50.116723 
L 283.017872 -50.51616 
L 279.732289 -50.966936 
L 276.446706 -51.472879 
L 273.161123 -52.037612 
L 269.875539 -52.664456 
L 266.589956 -53.356313 
L 263.304373 -54.115557 
L 260.01879 -54.94391 
L 256.733207 -55.842322 
L 253.447624 -56.810855 
L 250.162041 -57.848569 
L 246.876458 -58.953423 
L 243.590875 -60.122189 
L 240.305292 -61.350382 
L 237.019708 -62.632215 
L 233.734125 -63.960586 
L 230.448542 -65.327079 
L 227.162959 -66.722016 
L 223.877376 -68.134525 
L 220.591793 -69.552654 
L 217.30621 -70.963518 
L 214.020627 -72.353467 
L 210.735044 -73.708298 
L 207.449461 -75.013485 
L 204.163877 -76.254428 
L 200.878294 -77.416725 
L 197.592711 -78.486441 
L 194.307128 -79.45039 
L 191.021545 -80.296401 
L 187.735962 -81.013571 
L 184.450379 -81.592507 
L 181.164796 -82.02552 
L 177.879213 -82.306803 
L 174.593629 -82.432557 
L 171.308046 -82.401076 
L 168.022463 -82.212787 
L 164.73688 -81.870241 
L 161.451297 -81.378053 
L 158.165714 -80.742801 
L 154.880131 -79.972878 
L 151.594548 -79.078308 
L 148.308965 -78.070528 
L 145.023382 -76.962149 
L 141.737798 -75.766689 
L 138.452215 -74.498303 
L 135.166632 -73.171505 
L 131.881049 -71.800896 
L 128.595466 -70.400903 
L 125.309883 -68.985534 
L 122.0243 -67.568155 
L 118.738717 -66.161298 
L 115.453134 -64.776499 
L 112.167551 -63.424163 
L 108.881967 -62.11347 
L 105.596384 -60.852314 
L 102.310801 -59.647272 
L 99.025218 -58.503604 
L 95.739635 -57.425287 
L 92.454052 -56.415064 
L 89.168469 -55.474525 
L 85.882886 -54.604196 
L 82.597303 -53.803647 
L 79.311719 -53.071603 
L 76.026136 -52.406069 
z
" style="stroke: #440154; stroke-opacity: 0.4"/>
    </defs>
    <g clip-path="url(#pcac4d597db)">
     <use xlink:href="#me6fec11f52" x="0" y="280.752656" style="fill: #440154; fill-opacity: 0.4; stroke: #440154; stroke-opacity: 0.4"/>
    </g>
   </g>
   <g id="FillBetweenPolyCollection_2">
    <defs>
     <path id="mee6e1e5eef" d="M 76.026136 -89.871867 
L 76.026136 -89.378011 
L 79.311719 -89.378011 
L 82.597303 -89.378011 
L 85.882886 -89.378011 
L 89.168469 -89.378011 
L 92.454052 -89.378011 
L 95.739635 -89.378011 
L 99.025218 -89.378011 
L 102.310801 -89.378011 
L 105.596384 -89.378011 
L 108.881967 -89.378011 
L 112.167551 -89.378011 
L 115.453134 -89.378011 
L 118.738717 -89.378011 
L 122.0243 -89.378011 
L 125.309883 -89.378011 
L 128.595466 -89.378011 
L 131.881049 -89.378011 
L 135.166632 -89.378011 
L 138.452215 -89.378011 
L 141.737798 -89.378011 
L 145.023382 -89.378011 
L 148.308965 -89.378011 
L 151.594548 -89.378011 
L 154.880131 -89.378011 
L 158.165714 -89.378011 
L 161.451297 -89.378011 
L 164.73688 -89.378011 
L 168.022463 -89.378011 
L 171.308046 -89.378011 
L 174.593629 -89.378011 
L 177.879213 -89.378011 
L 181.164796 -89.378011 
L 184.450379 -89.378011 
L 187.735962 -89.378011 
L 191.021545 -89.378011 
L 194.307128 -89.378011 
L 197.592711 -89.378011 
L 200.878294 -89.378011 
L 204.163877 -89.378011 
L 207.449461 -89.378011 
L 210.735044 -89.378011 
L 214.020627 -89.378011 
L 217.30621 -89.378011 
L 220.591793 -89.378011 
L 223.877376 -89.378011 
L 227.162959 -89.378011 
L 230.448542 -89.378011 
L 233.734125 -89.378011 
L 237.019708 -89.378011 
L 240.305292 -89.378011 
L 243.590875 -89.378011 
L 246.876458 -89.378011 
L 250.162041 -89.378011 
L 253.447624 -89.378011 
L 256.733207 -89.378011 
L 260.01879 -89.378011 
L 263.304373 -89.378011 
L 266.589956 -89.378011 
L 269.875539 -89.378011 
L 273.161123 -89.378011 
L 276.446706 -89.378011 
L 279.732289 -89.378011 
L 283.017872 -89.378011 
L 286.303455 -89.378011 
L 289.589038 -89.378011 
L 292.874621 -89.378011 
L 296.160204 -89.378011 
L 299.445787 -89.378011 
L 302.731371 -89.378011 
L 306.016954 -89.378011 
L 309.302537 -89.378011 
L 312.58812 -89.378011 
L 315.873703 -89.378011 
L 319.159286 -89.378011 
L 322.444869 -89.378011 
L 325.730452 -89.378011 
L 329.016035 -89.378011 
L 332.301618 -89.378011 
L 335.587202 -89.378011 
L 338.872785 -89.378011 
L 342.158368 -89.378011 
L 345.443951 -89.378011 
L 348.729534 -89.378011 
L 352.015117 -89.378011 
L 355.3007 -89.378011 
L 358.586283 -89.378011 
L 361.871866 -89.378011 
L 365.157449 -89.378011 
L 368.443033 -89.378011 
L 371.728616 -89.378011 
L 375.014199 -89.378011 
L 378.299782 -89.378011 
L 381.585365 -89.378011 
L 384.870948 -89.378011 
L 388.156531 -89.378011 
L 391.442114 -89.378011 
L 394.727697 -89.378011 
L 398.013281 -89.378011 
L 401.298864 -89.378011 
L 401.298864 -89.378026 
L 401.298864 -89.378026 
L 398.013281 -89.378035 
L 394.727697 -89.378048 
L 391.442114 -89.378068 
L 388.156531 -89.378098 
L 384.870948 -89.378144 
L 381.585365 -89.378212 
L 378.299782 -89.378314 
L 375.014199 -89.378464 
L 371.728616 -89.378683 
L 368.443033 -89.379002 
L 365.157449 -89.379462 
L 361.871866 -89.380122 
L 358.586283 -89.381058 
L 355.3007 -89.38238 
L 352.015117 -89.384231 
L 348.729534 -89.386803 
L 345.443951 -89.390351 
L 342.158368 -89.39521 
L 338.872785 -89.401811 
L 335.587202 -89.410714 
L 332.301618 -89.42263 
L 329.016035 -89.438458 
L 325.730452 -89.459323 
L 322.444869 -89.486618 
L 319.159286 -89.52205 
L 315.873703 -89.567694 
L 312.58812 -89.626038 
L 309.302537 -89.700038 
L 306.016954 -89.793165 
L 302.731371 -89.909444 
L 299.445787 -90.053488 
L 296.160204 -90.230514 
L 292.874621 -90.446336 
L 289.589038 -90.707345 
L 286.303455 -91.020444 
L 283.017872 -91.39296 
L 279.732289 -91.832512 
L 276.446706 -92.34684 
L 273.161123 -92.943589 
L 269.875539 -93.630054 
L 266.589956 -94.41288 
L 263.304373 -95.297735 
L 260.01879 -96.288959 
L 256.733207 -97.389193 
L 253.447624 -98.599019 
L 250.162041 -99.916614 
L 246.876458 -101.337442 
L 243.590875 -102.854006 
L 240.305292 -104.455672 
L 237.019708 -106.128594 
L 233.734125 -107.855746 
L 230.448542 -109.617072 
L 227.162959 -111.389774 
L 223.877376 -113.148719 
L 220.591793 -114.866978 
L 217.30621 -116.51647 
L 214.020627 -118.068699 
L 210.735044 -119.495556 
L 207.449461 -120.770158 
L 204.163877 -121.86768 
L 200.878294 -122.766164 
L 197.592711 -123.447241 
L 194.307128 -123.896763 
L 191.021545 -124.105284 
L 187.735962 -124.068395 
L 184.450379 -123.786877 
L 181.164796 -123.266675 
L 177.879213 -122.518687 
L 174.593629 -121.558387 
L 171.308046 -120.40529 
L 168.022463 -119.082295 
L 164.73688 -117.614932 
L 161.451297 -116.030538 
L 158.165714 -114.357428 
L 154.880131 -112.624054 
L 151.594548 -110.858224 
L 148.308965 -109.086393 
L 145.023382 -107.333044 
L 141.737798 -105.620188 
L 138.452215 -103.966998 
L 135.166632 -102.389555 
L 131.881049 -100.900741 
L 128.595466 -99.510235 
L 125.309883 -98.224623 
L 122.0243 -97.047598 
L 118.738717 -95.980229 
L 115.453134 -95.021278 
L 112.167551 -94.167554 
L 108.881967 -93.414283 
L 105.596384 -92.755467 
L 102.310801 -92.184231 
L 99.025218 -91.693147 
L 95.739635 -91.274517 
L 92.454052 -90.920616 
L 89.168469 -90.623896 
L 85.882886 -90.377146 
L 82.597303 -90.173608 
L 79.311719 -90.007061 
L 76.026136 -89.871867 
z
" style="stroke: #414487; stroke-opacity: 0.4"/>
    </defs>
    <g clip-path="url(#pcac4d597db)">
     <use xlink:href="#mee6e1e5eef" x="0" y="280.752656" style="fill: #414487; fill-opacity: 0.4; stroke: #414487; stroke-opacity: 0.4"/>
    </g>
   </g>
   <g id="FillBetweenPolyCollection_3">
    <defs>
     <path id="m290b52ae08" d="M 76.026136 -131.062398 
L 76.026136 -131.050739 
L 79.311719 -131.050739 
L 82.597303 -131.050739 
L 85.882886 -131.050739 
L 89.168469 -131.050739 
L 92.454052 -131.050739 
L 95.739635 -131.050739 
L 99.025218 -131.050739 
L 102.310801 -131.050739 
L 105.596384 -131.050739 
L 108.881967 -131.050739 
L 112.167551 -131.050739 
L 115.453134 -131.050739 
L 118.738717 -131.050739 
L 122.0243 -131.050739 
L 125.309883 -131.050739 
L 128.595466 -131.050739 
L 131.881049 -131.050739 
L 135.166632 -131.050739 
L 138.452215 -131.050739 
L 141.737798 -131.050739 
L 145.023382 -131.050739 
L 148.308965 -131.050739 
L 151.594548 -131.050739 
L 154.880131 -131.050739 
L 158.165714 -131.050739 
L 161.451297 -131.050739 
L 164.73688 -131.050739 
L 168.022463 -131.050739 
L 171.308046 -131.050739 
L 174.593629 -131.050739 
L 177.879213 -131.050739 
L 181.164796 -131.050739 
L 184.450379 -131.050739 
L 187.735962 -131.050739 
L 191.021545 -131.050739 
L 194.307128 -131.050739 
L 197.592711 -131.050739 
L 200.878294 -131.050739 
L 204.163877 -131.050739 
L 207.449461 -131.050739 
L 210.735044 -131.050739 
L 214.020627 -131.050739 
L 217.30621 -131.050739 
L 220.591793 -131.050739 
L 223.877376 -131.050739 
L 227.162959 -131.050739 
L 230.448542 -131.050739 
L 233.734125 -131.050739 
L 237.019708 -131.050739 
L 240.305292 -131.050739 
L 243.590875 -131.050739 
L 246.876458 -131.050739 
L 250.162041 -131.050739 
L 253.447624 -131.050739 
L 256.733207 -131.050739 
L 260.01879 -131.050739 
L 263.304373 -131.050739 
L 266.589956 -131.050739 
L 269.875539 -131.050739 
L 273.161123 -131.050739 
L 276.446706 -131.050739 
L 279.732289 -131.050739 
L 283.017872 -131.050739 
L 286.303455 -131.050739 
L 289.589038 -131.050739 
L 292.874621 -131.050739 
L 296.160204 -131.050739 
L 299.445787 -131.050739 
L 302.731371 -131.050739 
L 306.016954 -131.050739 
L 309.302537 -131.050739 
L 312.58812 -131.050739 
L 315.873703 -131.050739 
L 319.159286 -131.050739 
L 322.444869 -131.050739 
L 325.730452 -131.050739 
L 329.016035 -131.050739 
L 332.301618 -131.050739 
L 335.587202 -131.050739 
L 338.872785 -131.050739 
L 342.158368 -131.050739 
L 345.443951 -131.050739 
L 348.729534 -131.050739 
L 352.015117 -131.050739 
L 355.3007 -131.050739 
L 358.586283 -131.050739 
L 361.871866 -131.050739 
L 365.157449 -131.050739 
L 368.443033 -131.050739 
L 371.728616 -131.050739 
L 375.014199 -131.050739 
L 378.299782 -131.050739 
L 381.585365 -131.050739 
L 384.870948 -131.050739 
L 388.156531 -131.050739 
L 391.442114 -131.050739 
L 394.727697 -131.050739 
L 398.013281 -131.050739 
L 401.298864 -131.050739 
L 401.298864 -131.050739 
L 401.298864 -131.050739 
L 398.013281 -131.05074 
L 394.727697 -131.05074 
L 391.442114 -131.050742 
L 388.156531 -131.050744 
L 384.870948 -131.050748 
L 381.585365 -131.050755 
L 378.299782 -131.050767 
L 375.014199 -131.050787 
L 371.728616 -131.050821 
L 368.443033 -131.050875 
L 365.157449 -131.050963 
L 361.871866 -131.051104 
L 358.586283 -131.051329 
L 355.3007 -131.051681 
L 352.015117 -131.052229 
L 348.729534 -131.053071 
L 345.443951 -131.054353 
L 342.158368 -131.05628 
L 338.872785 -131.05915 
L 335.587202 -131.063377 
L 332.301618 -131.069534 
L 329.016035 -131.078407 
L 325.730452 -131.091056 
L 322.444869 -131.108892 
L 319.159286 -131.133765 
L 315.873703 -131.168075 
L 312.58812 -131.214879 
L 309.302537 -131.278023 
L 306.016954 -131.362262 
L 302.731371 -131.47339 
L 299.445787 -131.618337 
L 296.160204 -131.805257 
L 292.874621 -132.043551 
L 289.589038 -132.343842 
L 286.303455 -132.717863 
L 283.017872 -133.17825 
L 279.732289 -133.738215 
L 276.446706 -134.411103 
L 273.161123 -135.209815 
L 269.875539 -136.146114 
L 266.589956 -137.229828 
L 263.304373 -138.467966 
L 260.01879 -139.863816 
L 256.733207 -141.416053 
L 253.447624 -143.11793 
L 250.162041 -144.95663 
L 246.876458 -146.912826 
L 243.590875 -148.960538 
L 240.305292 -151.067323 
L 237.019708 -153.194842 
L 233.734125 -155.29981 
L 230.448542 -157.335315 
L 227.162959 -159.252468 
L 223.877376 -161.002294 
L 220.591793 -162.537782 
L 217.30621 -163.815972 
L 214.020627 -164.799942 
L 210.735044 -165.46058 
L 207.449461 -165.778011 
L 204.163877 -165.742597 
L 200.878294 -165.355415 
L 197.592711 -164.628208 
L 194.307128 -163.582793 
L 191.021545 -162.249968 
L 187.735962 -160.668017 
L 184.450379 -158.880872 
L 181.164796 -156.936104 
L 177.879213 -154.882832 
L 174.593629 -152.769696 
L 171.308046 -150.643002 
L 168.022463 -148.545142 
L 164.73688 -146.513339 
L 161.451297 -144.578776 
L 158.165714 -142.766107 
L 154.880131 -141.093334 
L 151.594548 -139.572019 
L 148.308965 -138.207766 
L 145.023382 -137.000908 
L 141.737798 -135.947341 
L 138.452215 -135.039419 
L 135.166632 -134.266861 
L 131.881049 -133.617613 
L 128.595466 -133.078635 
L 125.309883 -132.636565 
L 122.0243 -132.278275 
L 118.738717 -131.991289 
L 115.453134 -131.764082 
L 112.167551 -131.586269 
L 108.881967 -131.448698 
L 105.596384 -131.343465 
L 102.310801 -131.263873 
L 99.025218 -131.204347 
L 95.739635 -131.160322 
L 92.454052 -131.128121 
L 89.168469 -131.104828 
L 85.882886 -131.088162 
L 82.597303 -131.076369 
L 79.311719 -131.068114 
L 76.026136 -131.062398 
z
" style="stroke: #2a788e; stroke-opacity: 0.4"/>
    </defs>
    <g clip-path="url(#pcac4d597db)">
     <use xlink:href="#m290b52ae08" x="0" y="280.752656" style="fill: #2a788e; fill-opacity: 0.4; stroke: #2a788e; stroke-opacity: 0.4"/>
    </g>
   </g>
   <g id="FillBetweenPolyCollection_4">
    <defs>
     <path id="m52ae088a2f" d="M 76.026136 -172.723471 
L 76.026136 -172.723466 
L 79.311719 -172.723466 
L 82.597303 -172.723466 
L 85.882886 -172.723466 
L 89.168469 -172.723466 
L 92.454052 -172.723466 
L 95.739635 -172.723466 
L 99.025218 -172.723466 
L 102.310801 -172.723466 
L 105.596384 -172.723466 
L 108.881967 -172.723466 
L 112.167551 -172.723466 
L 115.453134 -172.723466 
L 118.738717 -172.723466 
L 122.0243 -172.723466 
L 125.309883 -172.723466 
L 128.595466 -172.723466 
L 131.881049 -172.723466 
L 135.166632 -172.723466 
L 138.452215 -172.723466 
L 141.737798 -172.723466 
L 145.023382 -172.723466 
L 148.308965 -172.723466 
L 151.594548 -172.723466 
L 154.880131 -172.723466 
L 158.165714 -172.723466 
L 161.451297 -172.723466 
L 164.73688 -172.723466 
L 168.022463 -172.723466 
L 171.308046 -172.723466 
L 174.593629 -172.723466 
L 177.879213 -172.723466 
L 181.164796 -172.723466 
L 184.450379 -172.723466 
L 187.735962 -172.723466 
L 191.021545 -172.723466 
L 194.307128 -172.723466 
L 197.592711 -172.723466 
L 200.878294 -172.723466 
L 204.163877 -172.723466 
L 207.449461 -172.723466 
L 210.735044 -172.723466 
L 214.020627 -172.723466 
L 217.30621 -172.723466 
L 220.591793 -172.723466 
L 223.877376 -172.723466 
L 227.162959 -172.723466 
L 230.448542 -172.723466 
L 233.734125 -172.723466 
L 237.019708 -172.723466 
L 240.305292 -172.723466 
L 243.590875 -172.723466 
L 246.876458 -172.723466 
L 250.162041 -172.723466 
L 253.447624 -172.723466 
L 256.733207 -172.723466 
L 260.01879 -172.723466 
L 263.304373 -172.723466 
L 266.589956 -172.723466 
L 269.875539 -172.723466 
L 273.161123 -172.723466 
L 276.446706 -172.723466 
L 279.732289 -172.723466 
L 283.017872 -172.723466 
L 286.303455 -172.723466 
L 289.589038 -172.723466 
L 292.874621 -172.723466 
L 296.160204 -172.723466 
L 299.445787 -172.723466 
L 302.731371 -172.723466 
L 306.016954 -172.723466 
L 309.302537 -172.723466 
L 312.58812 -172.723466 
L 315.873703 -172.723466 
L 319.159286 -172.723466 
L 322.444869 -172.723466 
L 325.730452 -172.723466 
L 329.016035 -172.723466 
L 332.301618 -172.723466 
L 335.587202 -172.723466 
L 338.872785 -172.723466 
L 342.158368 -172.723466 
L 345.443951 -172.723466 
L 348.729534 -172.723466 
L 352.015117 -172.723466 
L 355.3007 -172.723466 
L 358.586283 -172.723466 
L 361.871866 -172.723466 
L 365.157449 -172.723466 
L 368.443033 -172.723466 
L 371.728616 -172.723466 
L 375.014199 -172.723466 
L 378.299782 -172.723466 
L 381.585365 -172.723466 
L 384.870948 -172.723466 
L 388.156531 -172.723466 
L 391.442114 -172.723466 
L 394.727697 -172.723466 
L 398.013281 -172.723466 
L 401.298864 -172.723466 
L 401.298864 -172.723466 
L 401.298864 -172.723466 
L 398.013281 -172.723466 
L 394.727697 -172.723466 
L 391.442114 -172.723466 
L 388.156531 -172.723466 
L 384.870948 -172.723466 
L 381.585365 -172.723466 
L 378.299782 -172.723466 
L 375.014199 -172.723467 
L 371.728616 -172.723468 
L 368.443033 -172.723471 
L 365.157449 -172.723476 
L 361.871866 -172.723486 
L 358.586283 -172.723505 
L 355.3007 -172.723541 
L 352.015117 -172.723608 
L 348.729534 -172.723731 
L 345.443951 -172.723951 
L 342.158368 -172.724341 
L 338.872785 -172.725018 
L 335.587202 -172.726175 
L 332.301618 -172.728121 
L 329.016035 -172.731338 
L 325.730452 -172.736566 
L 322.444869 -172.744923 
L 319.159286 -172.758054 
L 315.873703 -172.77834 
L 312.58812 -172.809147 
L 309.302537 -172.855133 
L 306.016954 -172.9226 
L 302.731371 -173.019874 
L 299.445787 -173.157687 
L 296.160204 -173.349514 
L 292.874621 -173.611811 
L 289.589038 -173.964066 
L 286.303455 -174.428598 
L 283.017872 -175.030006 
L 279.732289 -175.794185 
L 276.446706 -176.746889 
L 273.161123 -177.911796 
L 269.875539 -179.308165 
L 266.589956 -180.948175 
L 263.304373 -182.834175 
L 260.01879 -184.956072 
L 256.733207 -187.289213 
L 253.447624 -189.793048 
L 250.162041 -192.410913 
L 246.876458 -195.071137 
L 243.590875 -197.689612 
L 240.305292 -200.173767 
L 237.019708 -202.42775 
L 233.734125 -204.358436 
L 230.448542 -205.881757 
L 227.162959 -206.928752 
L 223.877376 -207.450739 
L 220.591793 -207.423068 
L 217.30621 -206.847053 
L 214.020627 -205.749866 
L 210.735044 -204.182411 
L 207.449461 -202.215414 
L 204.163877 -199.934128 
L 200.878294 -197.432237 
L 197.592711 -194.805524 
L 194.307128 -192.145929 
L 191.021545 -189.536475 
L 187.735962 -187.047421 
L 184.450379 -184.733848 
L 181.164796 -182.634685 
L 177.879213 -180.773054 
L 174.593629 -179.157697 
L 171.308046 -177.785161 
L 168.022463 -176.642434 
L 164.73688 -175.7097 
L 161.451297 -174.962972 
L 158.165714 -174.376406 
L 154.880131 -173.924176 
L 151.594548 -173.581878 
L 148.308965 -173.327456 
L 145.023382 -173.14172 
L 141.737798 -173.00852 
L 138.452215 -172.914667 
L 135.166632 -172.849686 
L 131.881049 -172.805472 
L 128.595466 -172.775903 
L 125.309883 -172.756465 
L 122.0243 -172.743904 
L 118.738717 -172.735925 
L 115.453134 -172.73094 
L 112.167551 -172.727879 
L 108.881967 -172.72603 
L 105.596384 -172.724933 
L 102.310801 -172.724291 
L 99.025218 -172.723923 
L 95.739635 -172.723715 
L 92.454052 -172.7236 
L 89.168469 -172.723537 
L 85.882886 -172.723503 
L 82.597303 -172.723485 
L 79.311719 -172.723475 
L 76.026136 -172.723471 
z
" style="stroke: #22a884; stroke-opacity: 0.4"/>
    </defs>
    <g clip-path="url(#pcac4d597db)">
     <use xlink:href="#m52ae088a2f" x="0" y="280.752656" style="fill: #22a884; fill-opacity: 0.4; stroke: #22a884; stroke-opacity: 0.4"/>
    </g>
   </g>
   <g id="FillBetweenPolyCollection_5">
    <defs>
     <path id="m10ecdfde95" d="M 76.026136 -214.396193 
L 76.026136 -214.396193 
L 79.311719 -214.396193 
L 82.597303 -214.396193 
L 85.882886 -214.396193 
L 89.168469 -214.396193 
L 92.454052 -214.396193 
L 95.739635 -214.396193 
L 99.025218 -214.396193 
L 102.310801 -214.396193 
L 105.596384 -214.396193 
L 108.881967 -214.396193 
L 112.167551 -214.396193 
L 115.453134 -214.396193 
L 118.738717 -214.396193 
L 122.0243 -214.396193 
L 125.309883 -214.396193 
L 128.595466 -214.396193 
L 131.881049 -214.396193 
L 135.166632 -214.396193 
L 138.452215 -214.396193 
L 141.737798 -214.396193 
L 145.023382 -214.396193 
L 148.308965 -214.396193 
L 151.594548 -214.396193 
L 154.880131 -214.396193 
L 158.165714 -214.396193 
L 161.451297 -214.396193 
L 164.73688 -214.396193 
L 168.022463 -214.396193 
L 171.308046 -214.396193 
L 174.593629 -214.396193 
L 177.879213 -214.396193 
L 181.164796 -214.396193 
L 184.450379 -214.396193 
L 187.735962 -214.396193 
L 191.021545 -214.396193 
L 194.307128 -214.396193 
L 197.592711 -214.396193 
L 200.878294 -214.396193 
L 204.163877 -214.396193 
L 207.449461 -214.396193 
L 210.735044 -214.396193 
L 214.020627 -214.396193 
L 217.30621 -214.396193 
L 220.591793 -214.396193 
L 223.877376 -214.396193 
L 227.162959 -214.396193 
L 230.448542 -214.396193 
L 233.734125 -214.396193 
L 237.019708 -214.396193 
L 240.305292 -214.396193 
L 243.590875 -214.396193 
L 246.876458 -214.396193 
L 250.162041 -214.396193 
L 253.447624 -214.396193 
L 256.733207 -214.396193 
L 260.01879 -214.396193 
L 263.304373 -214.396193 
L 266.589956 -214.396193 
L 269.875539 -214.396193 
L 273.161123 -214.396193 
L 276.446706 -214.396193 
L 279.732289 -214.396193 
L 283.017872 -214.396193 
L 286.303455 -214.396193 
L 289.589038 -214.396193 
L 292.874621 -214.396193 
L 296.160204 -214.396193 
L 299.445787 -214.396193 
L 302.731371 -214.396193 
L 306.016954 -214.396193 
L 309.302537 -214.396193 
L 312.58812 -214.396193 
L 315.873703 -214.396193 
L 319.159286 -214.396193 
L 322.444869 -214.396193 
L 325.730452 -214.396193 
L 329.016035 -214.396193 
L 332.301618 -214.396193 
L 335.587202 -214.396193 
L 338.872785 -214.396193 
L 342.158368 -214.396193 
L 345.443951 -214.396193 
L 348.729534 -214.396193 
L 352.015117 -214.396193 
L 355.3007 -214.396193 
L 358.586283 -214.396193 
L 361.871866 -214.396193 
L 365.157449 -214.396193 
L 368.443033 -214.396193 
L 371.728616 -214.396193 
L 375.014199 -214.396193 
L 378.299782 -214.396193 
L 381.585365 -214.396193 
L 384.870948 -214.396193 
L 388.156531 -214.396193 
L 391.442114 -214.396193 
L 394.727697 -214.396193 
L 398.013281 -214.396193 
L 401.298864 -214.396193 
L 401.298864 -214.396193 
L 401.298864 -214.396193 
L 398.013281 -214.396193 
L 394.727697 -214.396193 
L 391.442114 -214.396193 
L 388.156531 -214.396193 
L 384.870948 -214.396193 
L 381.585365 -214.396193 
L 378.299782 -214.396193 
L 375.014199 -214.396193 
L 371.728616 -214.396193 
L 368.443033 -214.396193 
L 365.157449 -214.396193 
L 361.871866 -214.396193 
L 358.586283 -214.396193 
L 355.3007 -214.396193 
L 352.015117 -214.396194 
L 348.729534 -214.396195 
L 345.443951 -214.3962 
L 342.158368 -214.396213 
L 338.872785 -214.39625 
L 335.587202 -214.396352 
L 332.301618 -214.396617 
L 329.016035 -214.39728 
L 325.730452 -214.398865 
L 322.444869 -214.402502 
L 319.159286 -214.410492 
L 315.873703 -214.427306 
L 312.58812 -214.461187 
L 309.302537 -214.526532 
L 306.016954 -214.647123 
L 302.731371 -214.859966 
L 299.445787 -215.219069 
L 296.160204 -215.797841 
L 292.874621 -216.688217 
L 289.589038 -217.994307 
L 286.303455 -219.818775 
L 283.017872 -222.241551 
L 279.732289 -225.292893 
L 276.446706 -228.92576 
L 273.161123 -232.995034 
L 269.875539 -237.251896 
L 266.589956 -241.35985 
L 263.304373 -244.934047 
L 260.01879 -247.598918 
L 256.733207 -249.052673 
L 253.447624 -249.123466 
L 250.162041 -247.802803 
L 246.876458 -245.247221 
L 243.590875 -241.74777 
L 240.305292 -237.67553 
L 237.019708 -233.417237 
L 233.734125 -229.316357 
L 230.448542 -225.631588 
L 227.162959 -222.518485 
L 223.877376 -220.033145 
L 220.591793 -218.151847 
L 217.30621 -216.798356 
L 214.020627 -215.871202 
L 210.735044 -215.265679 
L 207.449461 -214.888239 
L 204.163877 -214.663509 
L 200.878294 -214.535611 
L 197.592711 -214.465998 
L 194.307128 -214.429746 
L 191.021545 -214.411676 
L 187.735962 -214.403052 
L 184.450379 -214.39911 
L 181.164796 -214.397384 
L 177.879213 -214.39666 
L 174.593629 -214.396369 
L 171.308046 -214.396257 
L 168.022463 -214.396215 
L 164.73688 -214.396201 
L 161.451297 -214.396196 
L 158.165714 -214.396194 
L 154.880131 -214.396193 
L 151.594548 -214.396193 
L 148.308965 -214.396193 
L 145.023382 -214.396193 
L 141.737798 -214.396193 
L 138.452215 -214.396193 
L 135.166632 -214.396193 
L 131.881049 -214.396193 
L 128.595466 -214.396193 
L 125.309883 -214.396193 
L 122.0243 -214.396193 
L 118.738717 -214.396193 
L 115.453134 -214.396193 
L 112.167551 -214.396193 
L 108.881967 -214.396193 
L 105.596384 -214.396193 
L 102.310801 -214.396193 
L 99.025218 -214.396193 
L 95.739635 -214.396193 
L 92.454052 -214.396193 
L 89.168469 -214.396193 
L 85.882886 -214.396193 
L 82.597303 -214.396193 
L 79.311719 -214.396193 
L 76.026136 -214.396193 
z
" style="stroke: #7ad151; stroke-opacity: 0.4"/>
    </defs>
    <g clip-path="url(#pcac4d597db)">
     <use xlink:href="#m10ecdfde95" x="0" y="280.752656" style="fill: #7ad151; fill-opacity: 0.4; stroke: #7ad151; stroke-opacity: 0.4"/>
    </g>
   </g>
   <g id="matplotlib.axis_1">
    <g id="xtick_1">
     <g id="line2d_1">
      <defs>
       <path id="m775602ad19" d="M 0 0 
L 0 3.5 
" style="stroke: #000000; stroke-width: 0.8"/>
      </defs>
      <g>
       <use xlink:href="#m775602ad19" x="76.026136" y="243.118281" style="stroke: #000000; stroke-width: 0.8"/>
      </g>
     </g>
     <g id="text_1">
      <!-- 0.0 -->
      <g transform="translate(68.074574 257.716719) scale(0.1 -0.1)">
       <defs>
        <path id="DejaVuSans-30" d="M 2034 4250 
Q 1547 4250 1301 3770 
Q 1056 3291 1056 2328 
Q 1056 1369 1301 889 
Q 1547 409 2034 409 
Q 2525 409 2770 889 
Q 3016 1369 3016 2328 
Q 3016 3291 2770 3770 
Q 2525 4250 2034 4250 
z
M 2034 4750 
Q 2819 4750 3233 4129 
Q 3647 3509 3647 2328 
Q 3647 1150 3233 529 
Q 2819 -91 2034 -91 
Q 1250 -91 836 529 
Q 422 1150 422 2328 
Q 422 3509 836 4129 
Q 1250 4750 2034 4750 
z
" transform="scale(0.015625)"/>
        <path id="DejaVuSans-2e" d="M 684 794 
L 1344 794 
L 1344 0 
L 684 0 
L 684 794 
z
" transform="scale(0.015625)"/>
       </defs>
       <use xlink:href="#DejaVuSans-30"/>
       <use xlink:href="#DejaVuSans-2e" transform="translate(63.623047 0)"/>
       <use xlink:href="#DejaVuSans-30" transform="translate(95.410156 0)"/>
      </g>
     </g>
    </g>
    <g id="xtick_2">
     <g id="line2d_2">
      <g>
       <use xlink:href="#m775602ad19" x="141.080682" y="243.118281" style="stroke: #000000; stroke-width: 0.8"/>
      </g>
     </g>
     <g id="text_2">
      <!-- 0.2 -->
      <g transform="translate(133.129119 257.716719) scale(0.1 -0.1)">
       <defs>
        <path id="DejaVuSans-32" d="M 1228 531 
L 3431 531 
L 3431 0 
L 469 0 
L 469 531 
Q 828 903 1448 1529 
Q 2069 2156 2228 2338 
Q 2531 2678 2651 2914 
Q 2772 3150 2772 3378 
Q 2772 3750 2511 3984 
Q 2250 4219 1831 4219 
Q 1534 4219 1204 4116 
Q 875 4013 500 3803 
L 500 4441 
Q 881 4594 1212 4672 
Q 1544 4750 1819 4750 
Q 2544 4750 2975 4387 
Q 3406 4025 3406 3419 
Q 3406 3131 3298 2873 
Q 3191 2616 2906 2266 
Q 2828 2175 2409 1742 
Q 1991 1309 1228 531 
z
" transform="scale(0.015625)"/>
       </defs>
       <use xlink:href="#DejaVuSans-30"/>
       <use xlink:href="#DejaVuSans-2e" transform="translate(63.623047 0)"/>
       <use xlink:href="#DejaVuSans-32" transform="translate(95.410156 0)"/>
      </g>
     </g>
    </g>
    <g id="xtick_3">
     <g id="line2d_3">
      <g>
       <use xlink:href="#m775602ad19" x="206.135227" y="243.118281" style="stroke: #000000; stroke-width: 0.8"/>
      </g>
     </g>
     <g id="text_3">
      <!-- 0.4 -->
      <g transform="translate(198.183665 257.716719) scale(0.1 -0.1)">
       <defs>
        <path id="DejaVuSans-34" d="M 2419 4116 
L 825 1625 
L 2419 1625 
L 2419 4116 
z
M 2253 4666 
L 3047 4666 
L 3047 1625 
L 3713 1625 
L 3713 1100 
L 3047 1100 
L 3047 0 
L 2419 0 
L 2419 1100 
L 313 1100 
L 313 1709 
L 2253 4666 
z
" transform="scale(0.015625)"/>
       </defs>
       <use xlink:href="#DejaVuSans-30"/>
       <use xlink:href="#DejaVuSans-2e" transform="translate(63.623047 0)"/>
       <use xlink:href="#DejaVuSans-34" transform="translate(95.410156 0)"/>
      </g>
     </g>
    </g>
    <g id="xtick_4">
     <g id="line2d_4">
      <g>
       <use xlink:href="#m775602ad19" x="271.189773" y="243.118281" style="stroke: #000000; stroke-width: 0.8"/>
      </g>
     </g>
     <g id="text_4">
      <!-- 0.6 -->
      <g transform="translate(263.23821 257.716719) scale(0.1 -0.1)">
       <defs>
        <path id="DejaVuSans-36" d="M 2113 2584 
Q 1688 2584 1439 2293 
Q 1191 2003 1191 1497 
Q 1191 994 1439 701 
Q 1688 409 2113 409 
Q 2538 409 2786 701 
Q 3034 994 3034 1497 
Q 3034 2003 2786 2293 
Q 2538 2584 2113 2584 
z
M 3366 4563 
L 3366 3988 
Q 3128 4100 2886 4159 
Q 2644 4219 2406 4219 
Q 1781 4219 1451 3797 
Q 1122 3375 1075 2522 
Q 1259 2794 1537 2939 
Q 1816 3084 2150 3084 
Q 2853 3084 3261 2657 
Q 3669 2231 3669 1497 
Q 3669 778 3244 343 
Q 2819 -91 2113 -91 
Q 1303 -91 875 529 
Q 447 1150 447 2328 
Q 447 3434 972 4092 
Q 1497 4750 2381 4750 
Q 2619 4750 2861 4703 
Q 3103 4656 3366 4563 
z
" transform="scale(0.015625)"/>
       </defs>
       <use xlink:href="#DejaVuSans-30"/>
       <use xlink:href="#DejaVuSans-2e" transform="translate(63.623047 0)"/>
       <use xlink:href="#DejaVuSans-36" transform="translate(95.410156 0)"/>
      </g>
     </g>
    </g>
    <g id="xtick_5">
     <g id="line2d_5">
      <g>
       <use xlink:href="#m775602ad19" x="336.244318" y="243.118281" style="stroke: #000000; stroke-width: 0.8"/>
      </g>
     </g>
     <g id="text_5">
      <!-- 0.8 -->
      <g transform="translate(328.292756 257.716719) scale(0.1 -0.1)">
       <defs>
        <path id="DejaVuSans-38" d="M 2034 2216 
Q 1584 2216 1326 1975 
Q 1069 1734 1069 1313 
Q 1069 891 1326 650 
Q 1584 409 2034 409 
Q 2484 409 2743 651 
Q 3003 894 3003 1313 
Q 3003 1734 2745 1975 
Q 2488 2216 2034 2216 
z
M 1403 2484 
Q 997 2584 770 2862 
Q 544 3141 544 3541 
Q 544 4100 942 4425 
Q 1341 4750 2034 4750 
Q 2731 4750 3128 4425 
Q 3525 4100 3525 3541 
Q 3525 3141 3298 2862 
Q 3072 2584 2669 2484 
Q 3125 2378 3379 2068 
Q 3634 1759 3634 1313 
Q 3634 634 3220 271 
Q 2806 -91 2034 -91 
Q 1263 -91 848 271 
Q 434 634 434 1313 
Q 434 1759 690 2068 
Q 947 2378 1403 2484 
z
M 1172 3481 
Q 1172 3119 1398 2916 
Q 1625 2713 2034 2713 
Q 2441 2713 2670 2916 
Q 2900 3119 2900 3481 
Q 2900 3844 2670 4047 
Q 2441 4250 2034 4250 
Q 1625 4250 1398 4047 
Q 1172 3844 1172 3481 
z
" transform="scale(0.015625)"/>
       </defs>
       <use xlink:href="#DejaVuSans-30"/>
       <use xlink:href="#DejaVuSans-2e" transform="translate(63.623047 0)"/>
       <use xlink:href="#DejaVuSans-38" transform="translate(95.410156 0)"/>
      </g>
     </g>
    </g>
    <g id="xtick_6">
     <g id="line2d_6">
      <g>
       <use xlink:href="#m775602ad19" x="401.298864" y="243.118281" style="stroke: #000000; stroke-width: 0.8"/>
      </g>
     </g>
     <g id="text_6">
      <!-- 1.0 -->
      <g transform="translate(393.347301 257.716719) scale(0.1 -0.1)">
       <defs>
        <path id="DejaVuSans-31" d="M 794 531 
L 1825 531 
L 1825 4091 
L 703 3866 
L 703 4441 
L 1819 4666 
L 2450 4666 
L 2450 531 
L 3481 531 
L 3481 0 
L 794 0 
L 794 531 
z
" transform="scale(0.015625)"/>
       </defs>
       <use xlink:href="#DejaVuSans-31"/>
       <use xlink:href="#DejaVuSans-2e" transform="translate(63.623047 0)"/>
       <use xlink:href="#DejaVuSans-30" transform="translate(95.410156 0)"/>
      </g>
     </g>
    </g>
    <g id="text_7">
     <!-- Risk Probability -->
     <g transform="translate(194.167969 271.394844) scale(0.1 -0.1)">
      <defs>
       <path id="DejaVuSans-Bold-52" d="M 2297 2597 
Q 2675 2597 2839 2737 
Q 3003 2878 3003 3200 
Q 3003 3519 2839 3656 
Q 2675 3794 2297 3794 
L 1791 3794 
L 1791 2597 
L 2297 2597 
z
M 1791 1766 
L 1791 0 
L 588 0 
L 588 4666 
L 2425 4666 
Q 3347 4666 3776 4356 
Q 4206 4047 4206 3378 
Q 4206 2916 3982 2619 
Q 3759 2322 3309 2181 
Q 3556 2125 3751 1926 
Q 3947 1728 4147 1325 
L 4800 0 
L 3519 0 
L 2950 1159 
Q 2778 1509 2601 1637 
Q 2425 1766 2131 1766 
L 1791 1766 
z
" transform="scale(0.015625)"/>
       <path id="DejaVuSans-Bold-69" d="M 538 3500 
L 1656 3500 
L 1656 0 
L 538 0 
L 538 3500 
z
M 538 4863 
L 1656 4863 
L 1656 3950 
L 538 3950 
L 538 4863 
z
" transform="scale(0.015625)"/>
       <path id="DejaVuSans-Bold-73" d="M 3272 3391 
L 3272 2541 
Q 2913 2691 2578 2766 
Q 2244 2841 1947 2841 
Q 1628 2841 1473 2761 
Q 1319 2681 1319 2516 
Q 1319 2381 1436 2309 
Q 1553 2238 1856 2203 
L 2053 2175 
Q 2913 2066 3209 1816 
Q 3506 1566 3506 1031 
Q 3506 472 3093 190 
Q 2681 -91 1863 -91 
Q 1516 -91 1145 -36 
Q 775 19 384 128 
L 384 978 
Q 719 816 1070 734 
Q 1422 653 1784 653 
Q 2113 653 2278 743 
Q 2444 834 2444 1013 
Q 2444 1163 2330 1236 
Q 2216 1309 1875 1350 
L 1678 1375 
Q 931 1469 631 1722 
Q 331 1975 331 2491 
Q 331 3047 712 3315 
Q 1094 3584 1881 3584 
Q 2191 3584 2531 3537 
Q 2872 3491 3272 3391 
z
" transform="scale(0.015625)"/>
       <path id="DejaVuSans-Bold-6b" d="M 538 4863 
L 1656 4863 
L 1656 2216 
L 2944 3500 
L 4244 3500 
L 2534 1894 
L 4378 0 
L 3022 0 
L 1656 1459 
L 1656 0 
L 538 0 
L 538 4863 
z
" transform="scale(0.015625)"/>
       <path id="DejaVuSans-Bold-20" transform="scale(0.015625)"/>
       <path id="DejaVuSans-Bold-50" d="M 588 4666 
L 2584 4666 
Q 3475 4666 3951 4270 
Q 4428 3875 4428 3144 
Q 4428 2409 3951 2014 
Q 3475 1619 2584 1619 
L 1791 1619 
L 1791 0 
L 588 0 
L 588 4666 
z
M 1791 3794 
L 1791 2491 
L 2456 2491 
Q 2806 2491 2997 2661 
Q 3188 2831 3188 3144 
Q 3188 3456 2997 3625 
Q 2806 3794 2456 3794 
L 1791 3794 
z
" transform="scale(0.015625)"/>
       <path id="DejaVuSans-Bold-72" d="M 3138 2547 
Q 2991 2616 2845 2648 
Q 2700 2681 2553 2681 
Q 2122 2681 1889 2404 
Q 1656 2128 1656 1613 
L 1656 0 
L 538 0 
L 538 3500 
L 1656 3500 
L 1656 2925 
Q 1872 3269 2151 3426 
Q 2431 3584 2822 3584 
Q 2878 3584 2943 3579 
Q 3009 3575 3134 3559 
L 3138 2547 
z
" transform="scale(0.015625)"/>
       <path id="DejaVuSans-Bold-6f" d="M 2203 2784 
Q 1831 2784 1636 2517 
Q 1441 2250 1441 1747 
Q 1441 1244 1636 976 
Q 1831 709 2203 709 
Q 2569 709 2762 976 
Q 2956 1244 2956 1747 
Q 2956 2250 2762 2517 
Q 2569 2784 2203 2784 
z
M 2203 3584 
Q 3106 3584 3614 3096 
Q 4122 2609 4122 1747 
Q 4122 884 3614 396 
Q 3106 -91 2203 -91 
Q 1297 -91 786 396 
Q 275 884 275 1747 
Q 275 2609 786 3096 
Q 1297 3584 2203 3584 
z
" transform="scale(0.015625)"/>
       <path id="DejaVuSans-Bold-62" d="M 2400 722 
Q 2759 722 2948 984 
Q 3138 1247 3138 1747 
Q 3138 2247 2948 2509 
Q 2759 2772 2400 2772 
Q 2041 2772 1848 2508 
Q 1656 2244 1656 1747 
Q 1656 1250 1848 986 
Q 2041 722 2400 722 
z
M 1656 2988 
Q 1888 3294 2169 3439 
Q 2450 3584 2816 3584 
Q 3463 3584 3878 3070 
Q 4294 2556 4294 1747 
Q 4294 938 3878 423 
Q 3463 -91 2816 -91 
Q 2450 -91 2169 54 
Q 1888 200 1656 506 
L 1656 0 
L 538 0 
L 538 4863 
L 1656 4863 
L 1656 2988 
z
" transform="scale(0.015625)"/>
       <path id="DejaVuSans-Bold-61" d="M 2106 1575 
Q 1756 1575 1579 1456 
Q 1403 1338 1403 1106 
Q 1403 894 1545 773 
Q 1688 653 1941 653 
Q 2256 653 2472 879 
Q 2688 1106 2688 1447 
L 2688 1575 
L 2106 1575 
z
M 3816 1997 
L 3816 0 
L 2688 0 
L 2688 519 
Q 2463 200 2181 54 
Q 1900 -91 1497 -91 
Q 953 -91 614 226 
Q 275 544 275 1050 
Q 275 1666 698 1953 
Q 1122 2241 2028 2241 
L 2688 2241 
L 2688 2328 
Q 2688 2594 2478 2717 
Q 2269 2841 1825 2841 
Q 1466 2841 1156 2769 
Q 847 2697 581 2553 
L 581 3406 
Q 941 3494 1303 3539 
Q 1666 3584 2028 3584 
Q 2975 3584 3395 3211 
Q 3816 2838 3816 1997 
z
" transform="scale(0.015625)"/>
       <path id="DejaVuSans-Bold-6c" d="M 538 4863 
L 1656 4863 
L 1656 0 
L 538 0 
L 538 4863 
z
" transform="scale(0.015625)"/>
       <path id="DejaVuSans-Bold-74" d="M 1759 4494 
L 1759 3500 
L 2913 3500 
L 2913 2700 
L 1759 2700 
L 1759 1216 
Q 1759 972 1856 886 
Q 1953 800 2241 800 
L 2816 800 
L 2816 0 
L 1856 0 
Q 1194 0 917 276 
Q 641 553 641 1216 
L 641 2700 
L 84 2700 
L 84 3500 
L 641 3500 
L 641 4494 
L 1759 4494 
z
" transform="scale(0.015625)"/>
       <path id="DejaVuSans-Bold-79" d="M 78 3500 
L 1197 3500 
L 2138 1125 
L 2938 3500 
L 4056 3500 
L 2584 -331 
Q 2363 -916 2067 -1148 
Q 1772 -1381 1288 -1381 
L 641 -1381 
L 641 -647 
L 991 -647 
Q 1275 -647 1404 -556 
Q 1534 -466 1606 -231 
L 1638 -134 
L 78 3500 
z
" transform="scale(0.015625)"/>
      </defs>
      <use xlink:href="#DejaVuSans-Bold-52"/>
      <use xlink:href="#DejaVuSans-Bold-69" transform="translate(77.001953 0)"/>
      <use xlink:href="#DejaVuSans-Bold-73" transform="translate(111.279297 0)"/>
      <use xlink:href="#DejaVuSans-Bold-6b" transform="translate(170.800781 0)"/>
      <use xlink:href="#DejaVuSans-Bold-20" transform="translate(237.304688 0)"/>
      <use xlink:href="#DejaVuSans-Bold-50" transform="translate(272.119141 0)"/>
      <use xlink:href="#DejaVuSans-Bold-72" transform="translate(345.410156 0)"/>
      <use xlink:href="#DejaVuSans-Bold-6f" transform="translate(394.726562 0)"/>
      <use xlink:href="#DejaVuSans-Bold-62" transform="translate(463.427734 0)"/>
      <use xlink:href="#DejaVuSans-Bold-61" transform="translate(535.009766 0)"/>
      <use xlink:href="#DejaVuSans-Bold-62" transform="translate(602.490234 0)"/>
      <use xlink:href="#DejaVuSans-Bold-69" transform="translate(674.072266 0)"/>
      <use xlink:href="#DejaVuSans-Bold-6c" transform="translate(708.349609 0)"/>
      <use xlink:href="#DejaVuSans-Bold-69" transform="translate(742.626953 0)"/>
      <use xlink:href="#DejaVuSans-Bold-74" transform="translate(776.904297 0)"/>
      <use xlink:href="#DejaVuSans-Bold-79" transform="translate(824.707031 0)"/>
     </g>
    </g>
   </g>
   <g id="matplotlib.axis_2">
    <g id="ytick_1">
     <g id="line2d_7">
      <defs>
       <path id="m1a37e0d71b" d="M 0 0 
L -3.5 0 
" style="stroke: #000000; stroke-width: 0.8"/>
      </defs>
      <g>
       <use xlink:href="#m1a37e0d71b" x="59.7625" y="215.683736" style="stroke: #000000; stroke-width: 0.8"/>
      </g>
     </g>
     <g id="text_8">
      <!-- Prior -->
      <g transform="translate(29.789062 219.482955) scale(0.1 -0.1)">
       <defs>
        <path id="DejaVuSans-50" d="M 1259 4147 
L 1259 2394 
L 2053 2394 
Q 2494 2394 2734 2622 
Q 2975 2850 2975 3272 
Q 2975 3691 2734 3919 
Q 2494 4147 2053 4147 
L 1259 4147 
z
M 628 4666 
L 2053 4666 
Q 2838 4666 3239 4311 
Q 3641 3956 3641 3272 
Q 3641 2581 3239 2228 
Q 2838 1875 2053 1875 
L 1259 1875 
L 1259 0 
L 628 0 
L 628 4666 
z
" transform="scale(0.015625)"/>
        <path id="DejaVuSans-72" d="M 2631 2963 
Q 2534 3019 2420 3045 
Q 2306 3072 2169 3072 
Q 1681 3072 1420 2755 
Q 1159 2438 1159 1844 
L 1159 0 
L 581 0 
L 581 3500 
L 1159 3500 
L 1159 2956 
Q 1341 3275 1631 3429 
Q 1922 3584 2338 3584 
Q 2397 3584 2469 3576 
Q 2541 3569 2628 3553 
L 2631 2963 
z
" transform="scale(0.015625)"/>
        <path id="DejaVuSans-69" d="M 603 3500 
L 1178 3500 
L 1178 0 
L 603 0 
L 603 3500 
z
M 603 4863 
L 1178 4863 
L 1178 4134 
L 603 4134 
L 603 4863 
z
" transform="scale(0.015625)"/>
        <path id="DejaVuSans-6f" d="M 1959 3097 
Q 1497 3097 1228 2736 
Q 959 2375 959 1747 
Q 959 1119 1226 758 
Q 1494 397 1959 397 
Q 2419 397 2687 759 
Q 2956 1122 2956 1747 
Q 2956 2369 2687 2733 
Q 2419 3097 1959 3097 
z
M 1959 3584 
Q 2709 3584 3137 3096 
Q 3566 2609 3566 1747 
Q 3566 888 3137 398 
Q 2709 -91 1959 -91 
Q 1206 -91 779 398 
Q 353 888 353 1747 
Q 353 2609 779 3096 
Q 1206 3584 1959 3584 
z
" transform="scale(0.015625)"/>
       </defs>
       <use xlink:href="#DejaVuSans-50"/>
       <use xlink:href="#DejaVuSans-72" transform="translate(58.552734 0)"/>
       <use xlink:href="#DejaVuSans-69" transform="translate(99.666016 0)"/>
       <use xlink:href="#DejaVuSans-6f" transform="translate(127.449219 0)"/>
       <use xlink:href="#DejaVuSans-72" transform="translate(188.630859 0)"/>
      </g>
     </g>
    </g>
    <g id="ytick_2">
     <g id="line2d_8">
      <g>
       <use xlink:href="#m1a37e0d71b" x="59.7625" y="174.011009" style="stroke: #000000; stroke-width: 0.8"/>
      </g>
     </g>
     <g id="text_9">
      <!-- Lab 1 -->
      <g transform="translate(25.173438 177.810227) scale(0.1 -0.1)">
       <defs>
        <path id="DejaVuSans-4c" d="M 628 4666 
L 1259 4666 
L 1259 531 
L 3531 531 
L 3531 0 
L 628 0 
L 628 4666 
z
" transform="scale(0.015625)"/>
        <path id="DejaVuSans-61" d="M 2194 1759 
Q 1497 1759 1228 1600 
Q 959 1441 959 1056 
Q 959 750 1161 570 
Q 1363 391 1709 391 
Q 2188 391 2477 730 
Q 2766 1069 2766 1631 
L 2766 1759 
L 2194 1759 
z
M 3341 1997 
L 3341 0 
L 2766 0 
L 2766 531 
Q 2569 213 2275 61 
Q 1981 -91 1556 -91 
Q 1019 -91 701 211 
Q 384 513 384 1019 
Q 384 1609 779 1909 
Q 1175 2209 1959 2209 
L 2766 2209 
L 2766 2266 
Q 2766 2663 2505 2880 
Q 2244 3097 1772 3097 
Q 1472 3097 1187 3025 
Q 903 2953 641 2809 
L 641 3341 
Q 956 3463 1253 3523 
Q 1550 3584 1831 3584 
Q 2591 3584 2966 3190 
Q 3341 2797 3341 1997 
z
" transform="scale(0.015625)"/>
        <path id="DejaVuSans-62" d="M 3116 1747 
Q 3116 2381 2855 2742 
Q 2594 3103 2138 3103 
Q 1681 3103 1420 2742 
Q 1159 2381 1159 1747 
Q 1159 1113 1420 752 
Q 1681 391 2138 391 
Q 2594 391 2855 752 
Q 3116 1113 3116 1747 
z
M 1159 2969 
Q 1341 3281 1617 3432 
Q 1894 3584 2278 3584 
Q 2916 3584 3314 3078 
Q 3713 2572 3713 1747 
Q 3713 922 3314 415 
Q 2916 -91 2278 -91 
Q 1894 -91 1617 61 
Q 1341 213 1159 525 
L 1159 0 
L 581 0 
L 581 4863 
L 1159 4863 
L 1159 2969 
z
" transform="scale(0.015625)"/>
        <path id="DejaVuSans-20" transform="scale(0.015625)"/>
       </defs>
       <use xlink:href="#DejaVuSans-4c"/>
       <use xlink:href="#DejaVuSans-61" transform="translate(55.712891 0)"/>
       <use xlink:href="#DejaVuSans-62" transform="translate(116.992188 0)"/>
       <use xlink:href="#DejaVuSans-20" transform="translate(180.46875 0)"/>
       <use xlink:href="#DejaVuSans-31" transform="translate(212.255859 0)"/>
      </g>
     </g>
    </g>
    <g id="ytick_3">
     <g id="line2d_9">
      <g>
       <use xlink:href="#m1a37e0d71b" x="59.7625" y="132.338281" style="stroke: #000000; stroke-width: 0.8"/>
      </g>
     </g>
     <g id="text_10">
      <!-- Lab 2 -->
      <g transform="translate(25.173438 136.1375) scale(0.1 -0.1)">
       <use xlink:href="#DejaVuSans-4c"/>
       <use xlink:href="#DejaVuSans-61" transform="translate(55.712891 0)"/>
       <use xlink:href="#DejaVuSans-62" transform="translate(116.992188 0)"/>
       <use xlink:href="#DejaVuSans-20" transform="translate(180.46875 0)"/>
       <use xlink:href="#DejaVuSans-32" transform="translate(212.255859 0)"/>
      </g>
     </g>
    </g>
    <g id="ytick_4">
     <g id="line2d_10">
      <g>
       <use xlink:href="#m1a37e0d71b" x="59.7625" y="90.665554" style="stroke: #000000; stroke-width: 0.8"/>
      </g>
     </g>
     <g id="text_11">
      <!-- Imaging -->
      <g transform="translate(12.13125 94.464773) scale(0.1 -0.1)">
       <defs>
        <path id="DejaVuSans-49" d="M 628 4666 
L 1259 4666 
L 1259 0 
L 628 0 
L 628 4666 
z
" transform="scale(0.015625)"/>
        <path id="DejaVuSans-6d" d="M 3328 2828 
Q 3544 3216 3844 3400 
Q 4144 3584 4550 3584 
Q 5097 3584 5394 3201 
Q 5691 2819 5691 2113 
L 5691 0 
L 5113 0 
L 5113 2094 
Q 5113 2597 4934 2840 
Q 4756 3084 4391 3084 
Q 3944 3084 3684 2787 
Q 3425 2491 3425 1978 
L 3425 0 
L 2847 0 
L 2847 2094 
Q 2847 2600 2669 2842 
Q 2491 3084 2119 3084 
Q 1678 3084 1418 2786 
Q 1159 2488 1159 1978 
L 1159 0 
L 581 0 
L 581 3500 
L 1159 3500 
L 1159 2956 
Q 1356 3278 1631 3431 
Q 1906 3584 2284 3584 
Q 2666 3584 2933 3390 
Q 3200 3197 3328 2828 
z
" transform="scale(0.015625)"/>
        <path id="DejaVuSans-67" d="M 2906 1791 
Q 2906 2416 2648 2759 
Q 2391 3103 1925 3103 
Q 1463 3103 1205 2759 
Q 947 2416 947 1791 
Q 947 1169 1205 825 
Q 1463 481 1925 481 
Q 2391 481 2648 825 
Q 2906 1169 2906 1791 
z
M 3481 434 
Q 3481 -459 3084 -895 
Q 2688 -1331 1869 -1331 
Q 1566 -1331 1297 -1286 
Q 1028 -1241 775 -1147 
L 775 -588 
Q 1028 -725 1275 -790 
Q 1522 -856 1778 -856 
Q 2344 -856 2625 -561 
Q 2906 -266 2906 331 
L 2906 616 
Q 2728 306 2450 153 
Q 2172 0 1784 0 
Q 1141 0 747 490 
Q 353 981 353 1791 
Q 353 2603 747 3093 
Q 1141 3584 1784 3584 
Q 2172 3584 2450 3431 
Q 2728 3278 2906 2969 
L 2906 3500 
L 3481 3500 
L 3481 434 
z
" transform="scale(0.015625)"/>
        <path id="DejaVuSans-6e" d="M 3513 2113 
L 3513 0 
L 2938 0 
L 2938 2094 
Q 2938 2591 2744 2837 
Q 2550 3084 2163 3084 
Q 1697 3084 1428 2787 
Q 1159 2491 1159 1978 
L 1159 0 
L 581 0 
L 581 3500 
L 1159 3500 
L 1159 2956 
Q 1366 3272 1645 3428 
Q 1925 3584 2291 3584 
Q 2894 3584 3203 3211 
Q 3513 2838 3513 2113 
z
" transform="scale(0.015625)"/>
       </defs>
       <use xlink:href="#DejaVuSans-49"/>
       <use xlink:href="#DejaVuSans-6d" transform="translate(29.492188 0)"/>
       <use xlink:href="#DejaVuSans-61" transform="translate(126.904297 0)"/>
       <use xlink:href="#DejaVuSans-67" transform="translate(188.183594 0)"/>
       <use xlink:href="#DejaVuSans-69" transform="translate(251.660156 0)"/>
       <use xlink:href="#DejaVuSans-6e" transform="translate(279.443359 0)"/>
       <use xlink:href="#DejaVuSans-67" transform="translate(342.822266 0)"/>
      </g>
     </g>
    </g>
    <g id="ytick_5">
     <g id="line2d_11">
      <g>
       <use xlink:href="#m1a37e0d71b" x="59.7625" y="48.992827" style="stroke: #000000; stroke-width: 0.8"/>
      </g>
     </g>
     <g id="text_12">
      <!-- FM Score -->
      <g transform="translate(7.2 52.792045) scale(0.1 -0.1)">
       <defs>
        <path id="DejaVuSans-46" d="M 628 4666 
L 3309 4666 
L 3309 4134 
L 1259 4134 
L 1259 2759 
L 3109 2759 
L 3109 2228 
L 1259 2228 
L 1259 0 
L 628 0 
L 628 4666 
z
" transform="scale(0.015625)"/>
        <path id="DejaVuSans-4d" d="M 628 4666 
L 1569 4666 
L 2759 1491 
L 3956 4666 
L 4897 4666 
L 4897 0 
L 4281 0 
L 4281 4097 
L 3078 897 
L 2444 897 
L 1241 4097 
L 1241 0 
L 628 0 
L 628 4666 
z
" transform="scale(0.015625)"/>
        <path id="DejaVuSans-53" d="M 3425 4513 
L 3425 3897 
Q 3066 4069 2747 4153 
Q 2428 4238 2131 4238 
Q 1616 4238 1336 4038 
Q 1056 3838 1056 3469 
Q 1056 3159 1242 3001 
Q 1428 2844 1947 2747 
L 2328 2669 
Q 3034 2534 3370 2195 
Q 3706 1856 3706 1288 
Q 3706 609 3251 259 
Q 2797 -91 1919 -91 
Q 1588 -91 1214 -16 
Q 841 59 441 206 
L 441 856 
Q 825 641 1194 531 
Q 1563 422 1919 422 
Q 2459 422 2753 634 
Q 3047 847 3047 1241 
Q 3047 1584 2836 1778 
Q 2625 1972 2144 2069 
L 1759 2144 
Q 1053 2284 737 2584 
Q 422 2884 422 3419 
Q 422 4038 858 4394 
Q 1294 4750 2059 4750 
Q 2388 4750 2728 4690 
Q 3069 4631 3425 4513 
z
" transform="scale(0.015625)"/>
        <path id="DejaVuSans-63" d="M 3122 3366 
L 3122 2828 
Q 2878 2963 2633 3030 
Q 2388 3097 2138 3097 
Q 1578 3097 1268 2742 
Q 959 2388 959 1747 
Q 959 1106 1268 751 
Q 1578 397 2138 397 
Q 2388 397 2633 464 
Q 2878 531 3122 666 
L 3122 134 
Q 2881 22 2623 -34 
Q 2366 -91 2075 -91 
Q 1284 -91 818 406 
Q 353 903 353 1747 
Q 353 2603 823 3093 
Q 1294 3584 2113 3584 
Q 2378 3584 2631 3529 
Q 2884 3475 3122 3366 
z
" transform="scale(0.015625)"/>
        <path id="DejaVuSans-65" d="M 3597 1894 
L 3597 1613 
L 953 1613 
Q 991 1019 1311 708 
Q 1631 397 2203 397 
Q 2534 397 2845 478 
Q 3156 559 3463 722 
L 3463 178 
Q 3153 47 2828 -22 
Q 2503 -91 2169 -91 
Q 1331 -91 842 396 
Q 353 884 353 1716 
Q 353 2575 817 3079 
Q 1281 3584 2069 3584 
Q 2775 3584 3186 3129 
Q 3597 2675 3597 1894 
z
M 3022 2063 
Q 3016 2534 2758 2815 
Q 2500 3097 2075 3097 
Q 1594 3097 1305 2825 
Q 1016 2553 972 2059 
L 3022 2063 
z
" transform="scale(0.015625)"/>
       </defs>
       <use xlink:href="#DejaVuSans-46"/>
       <use xlink:href="#DejaVuSans-4d" transform="translate(57.519531 0)"/>
       <use xlink:href="#DejaVuSans-20" transform="translate(143.798828 0)"/>
       <use xlink:href="#DejaVuSans-53" transform="translate(175.585938 0)"/>
       <use xlink:href="#DejaVuSans-63" transform="translate(239.0625 0)"/>
       <use xlink:href="#DejaVuSans-6f" transform="translate(294.042969 0)"/>
       <use xlink:href="#DejaVuSans-72" transform="translate(355.224609 0)"/>
       <use xlink:href="#DejaVuSans-65" transform="translate(394.087891 0)"/>
      </g>
     </g>
    </g>
   </g>
   <g id="line2d_12">
    <path d="M 76.026136 228.346588 
L 79.311719 227.681053 
L 82.597303 226.94901 
L 85.882886 226.14846 
L 89.168469 225.278131 
L 92.454052 224.337592 
L 95.739635 223.32737 
L 99.025218 222.249052 
L 102.310801 221.105385 
L 105.596384 219.900342 
L 108.881967 218.639186 
L 112.167551 217.328493 
L 115.453134 215.976157 
L 118.738717 214.591358 
L 122.0243 213.184502 
L 125.309883 211.767123 
L 128.595466 210.351753 
L 131.881049 208.95176 
L 135.166632 207.581151 
L 138.452215 206.254353 
L 141.737798 204.985967 
L 145.023382 203.790507 
L 148.308965 202.682128 
L 151.594548 201.674349 
L 154.880131 200.779778 
L 158.165714 200.009855 
L 161.451297 199.374603 
L 164.73688 198.882415 
L 168.022463 198.539869 
L 171.308046 198.351581 
L 174.593629 198.320099 
L 177.879213 198.445853 
L 181.164796 198.727136 
L 184.450379 199.160149 
L 187.735962 199.739085 
L 191.021545 200.456256 
L 194.307128 201.302266 
L 197.592711 202.266215 
L 200.878294 203.335931 
L 204.163877 204.498228 
L 207.449461 205.739171 
L 210.735044 207.044358 
L 214.020627 208.399189 
L 217.30621 209.789138 
L 220.591793 211.200002 
L 223.877376 212.618132 
L 227.162959 214.03064 
L 230.448542 215.425577 
L 233.734125 216.79207 
L 237.019708 218.120441 
L 240.305292 219.402275 
L 243.590875 220.630467 
L 246.876458 221.799233 
L 250.162041 222.904087 
L 253.447624 223.941801 
L 256.733207 224.910334 
L 260.01879 225.808746 
L 263.304373 226.637099 
L 266.589956 227.396343 
L 269.875539 228.088201 
L 273.161123 228.715044 
L 276.446706 229.279777 
L 279.732289 229.78572 
L 283.017872 230.236496 
L 286.303455 230.635933 
L 289.589038 230.987968 
L 292.874621 231.296568 
L 296.160204 231.565659 
L 299.445787 231.799066 
L 302.731371 232.000463 
L 306.016954 232.17334 
L 309.302537 232.320972 
L 312.58812 232.446398 
L 315.873703 232.552417 
L 319.159286 232.641577 
L 322.444869 232.716182 
L 325.730452 232.778293 
L 329.016035 232.829745 
L 332.301618 232.872155 
L 335.587202 232.906939 
L 338.872785 232.935327 
L 342.158368 232.958381 
L 345.443951 232.977011 
L 348.729534 232.991992 
L 352.015117 233.003981 
L 355.3007 233.013529 
L 358.586283 233.021095 
L 361.871866 233.027062 
L 365.157449 233.031745 
L 368.443033 233.035402 
L 371.728616 233.038245 
L 375.014199 233.040445 
L 378.299782 233.042138 
L 381.585365 233.043435 
L 384.870948 233.044424 
L 388.156531 233.045175 
L 391.442114 233.045742 
L 394.727697 233.046168 
L 398.013281 233.046486 
L 401.298864 233.046724 
" clip-path="url(#pcac4d597db)" style="fill: none; stroke: #440154; stroke-width: 2; stroke-linecap: square"/>
   </g>
   <g id="line2d_13">
    <path d="M 76.026136 190.88079 
L 79.311719 190.745595 
L 82.597303 190.579048 
L 85.882886 190.37551 
L 89.168469 190.12876 
L 92.454052 189.83204 
L 95.739635 189.478139 
L 99.025218 189.059509 
L 102.310801 188.568426 
L 105.596384 187.99719 
L 108.881967 187.338373 
L 112.167551 186.585102 
L 115.453134 185.731379 
L 118.738717 184.772427 
L 122.0243 183.705058 
L 125.309883 182.528034 
L 128.595466 181.242422 
L 131.881049 179.851915 
L 135.166632 178.363101 
L 138.452215 176.785658 
L 141.737798 175.132468 
L 145.023382 173.419613 
L 148.308965 171.666263 
L 151.594548 169.894432 
L 154.880131 168.128603 
L 158.165714 166.395228 
L 161.451297 164.722118 
L 164.73688 163.137725 
L 168.022463 161.670361 
L 171.308046 160.347367 
L 174.593629 159.19427 
L 177.879213 158.233969 
L 181.164796 157.485981 
L 184.450379 156.965779 
L 187.735962 156.684261 
L 191.021545 156.647372 
L 194.307128 156.855893 
L 197.592711 157.305415 
L 200.878294 157.986493 
L 204.163877 158.884976 
L 207.449461 159.982498 
L 210.735044 161.2571 
L 214.020627 162.683957 
L 217.30621 164.236186 
L 220.591793 165.885678 
L 223.877376 167.603938 
L 227.162959 169.362883 
L 230.448542 171.135584 
L 233.734125 172.89691 
L 237.019708 174.624062 
L 240.305292 176.296984 
L 243.590875 177.89865 
L 246.876458 179.415214 
L 250.162041 180.836042 
L 253.447624 182.153637 
L 256.733207 183.363463 
L 260.01879 184.463697 
L 263.304373 185.454921 
L 266.589956 186.339777 
L 269.875539 187.122602 
L 273.161123 187.809067 
L 276.446706 188.405816 
L 279.732289 188.920144 
L 283.017872 189.359696 
L 286.303455 189.732212 
L 289.589038 190.045311 
L 292.874621 190.30632 
L 296.160204 190.522143 
L 299.445787 190.699168 
L 302.731371 190.843212 
L 306.016954 190.959491 
L 309.302537 191.052618 
L 312.58812 191.126618 
L 315.873703 191.184962 
L 319.159286 191.230606 
L 322.444869 191.266039 
L 325.730452 191.293333 
L 329.016035 191.314198 
L 332.301618 191.330026 
L 335.587202 191.341942 
L 338.872785 191.350845 
L 342.158368 191.357447 
L 345.443951 191.362305 
L 348.729534 191.365853 
L 352.015117 191.368425 
L 355.3007 191.370276 
L 358.586283 191.371598 
L 361.871866 191.372535 
L 365.157449 191.373194 
L 368.443033 191.373654 
L 371.728616 191.373973 
L 375.014199 191.374193 
L 378.299782 191.374343 
L 381.585365 191.374444 
L 384.870948 191.374513 
L 388.156531 191.374558 
L 391.442114 191.374589 
L 394.727697 191.374609 
L 398.013281 191.374622 
L 401.298864 191.37463 
" clip-path="url(#pcac4d597db)" style="fill: none; stroke: #414487; stroke-width: 2; stroke-linecap: square"/>
   </g>
   <g id="line2d_14">
    <path d="M 76.026136 149.690258 
L 79.311719 149.684543 
L 82.597303 149.676287 
L 85.882886 149.664494 
L 89.168469 149.647828 
L 92.454052 149.624535 
L 95.739635 149.592334 
L 99.025218 149.548309 
L 102.310801 149.488783 
L 105.596384 149.409192 
L 108.881967 149.303959 
L 112.167551 149.166387 
L 115.453134 148.988574 
L 118.738717 148.761367 
L 122.0243 148.474381 
L 125.309883 148.116091 
L 128.595466 147.674021 
L 131.881049 147.135043 
L 135.166632 146.485796 
L 138.452215 145.713237 
L 141.737798 144.805315 
L 145.023382 143.751749 
L 148.308965 142.544891 
L 151.594548 141.180637 
L 154.880131 139.659322 
L 158.165714 137.986549 
L 161.451297 136.17388 
L 164.73688 134.239317 
L 168.022463 132.207514 
L 171.308046 130.109654 
L 174.593629 127.982961 
L 177.879213 125.869824 
L 181.164796 123.816552 
L 184.450379 121.871785 
L 187.735962 120.08464 
L 191.021545 118.502688 
L 194.307128 117.169864 
L 197.592711 116.124448 
L 200.878294 115.397241 
L 204.163877 115.010059 
L 207.449461 114.974645 
L 210.735044 115.292077 
L 214.020627 115.952714 
L 217.30621 116.936684 
L 220.591793 118.214874 
L 223.877376 119.750362 
L 227.162959 121.500188 
L 230.448542 123.417341 
L 233.734125 125.452847 
L 237.019708 127.557814 
L 240.305292 129.685333 
L 243.590875 131.792118 
L 246.876458 133.83983 
L 250.162041 135.796026 
L 253.447624 137.634726 
L 256.733207 139.336604 
L 260.01879 140.88884 
L 263.304373 142.28469 
L 266.589956 143.522828 
L 269.875539 144.606542 
L 273.161123 145.542842 
L 276.446706 146.341553 
L 279.732289 147.014441 
L 283.017872 147.574406 
L 286.303455 148.034793 
L 289.589038 148.408815 
L 292.874621 148.709106 
L 296.160204 148.947399 
L 299.445787 149.134319 
L 302.731371 149.279267 
L 306.016954 149.390394 
L 309.302537 149.474633 
L 312.58812 149.537777 
L 315.873703 149.584581 
L 319.159286 149.618891 
L 322.444869 149.643765 
L 325.730452 149.6616 
L 329.016035 149.674249 
L 332.301618 149.683122 
L 335.587202 149.68928 
L 338.872785 149.693506 
L 342.158368 149.696376 
L 345.443951 149.698304 
L 348.729534 149.699585 
L 352.015117 149.700427 
L 355.3007 149.700975 
L 358.586283 149.701327 
L 361.871866 149.701552 
L 365.157449 149.701693 
L 368.443033 149.701781 
L 371.728616 149.701836 
L 375.014199 149.701869 
L 378.299782 149.701889 
L 381.585365 149.701901 
L 384.870948 149.701908 
L 388.156531 149.701912 
L 391.442114 149.701914 
L 394.727697 149.701916 
L 398.013281 149.701917 
L 401.298864 149.701917 
" clip-path="url(#pcac4d597db)" style="fill: none; stroke: #2a788e; stroke-width: 2; stroke-linecap: square"/>
   </g>
   <g id="line2d_15">
    <path d="M 76.026136 108.029186 
L 79.311719 108.029181 
L 82.597303 108.029172 
L 85.882886 108.029154 
L 89.168469 108.02912 
L 92.454052 108.029057 
L 95.739635 108.028941 
L 99.025218 108.028733 
L 102.310801 108.028365 
L 105.596384 108.027724 
L 108.881967 108.026626 
L 112.167551 108.024777 
L 115.453134 108.021716 
L 118.738717 108.016732 
L 122.0243 108.008752 
L 125.309883 107.996191 
L 128.595466 107.976753 
L 131.881049 107.947184 
L 135.166632 107.90297 
L 138.452215 107.83799 
L 141.737798 107.744137 
L 145.023382 107.610936 
L 148.308965 107.4252 
L 151.594548 107.170778 
L 154.880131 106.82848 
L 158.165714 106.37625 
L 161.451297 105.789684 
L 164.73688 105.042957 
L 168.022463 104.110222 
L 171.308046 102.967495 
L 174.593629 101.594959 
L 177.879213 99.979602 
L 181.164796 98.117972 
L 184.450379 96.018808 
L 187.735962 93.705235 
L 191.021545 91.216181 
L 194.307128 88.606727 
L 197.592711 85.947133 
L 200.878294 83.320419 
L 204.163877 80.818528 
L 207.449461 78.537243 
L 210.735044 76.570245 
L 214.020627 75.00279 
L 217.30621 73.905603 
L 220.591793 73.329588 
L 223.877376 73.301918 
L 227.162959 73.823904 
L 230.448542 74.870899 
L 233.734125 76.39422 
L 237.019708 78.324906 
L 240.305292 80.578889 
L 243.590875 83.063044 
L 246.876458 85.68152 
L 250.162041 88.341744 
L 253.447624 90.959608 
L 256.733207 93.463443 
L 260.01879 95.796584 
L 263.304373 97.918482 
L 266.589956 99.804481 
L 269.875539 101.444492 
L 273.161123 102.84086 
L 276.446706 104.005767 
L 279.732289 104.958471 
L 283.017872 105.722651 
L 286.303455 106.324058 
L 289.589038 106.788591 
L 292.874621 107.140845 
L 296.160204 107.403142 
L 299.445787 107.59497 
L 302.731371 107.732783 
L 306.016954 107.830057 
L 309.302537 107.897523 
L 312.58812 107.943509 
L 315.873703 107.974316 
L 319.159286 107.994602 
L 322.444869 108.007733 
L 325.730452 108.01609 
L 329.016035 108.021319 
L 332.301618 108.024535 
L 335.587202 108.026481 
L 338.872785 108.027638 
L 342.158368 108.028315 
L 345.443951 108.028705 
L 348.729534 108.028925 
L 352.015117 108.029048 
L 355.3007 108.029115 
L 358.586283 108.029151 
L 361.871866 108.02917 
L 365.157449 108.02918 
L 368.443033 108.029185 
L 371.728616 108.029188 
L 375.014199 108.029189 
L 378.299782 108.02919 
L 381.585365 108.02919 
L 384.870948 108.02919 
L 388.156531 108.02919 
L 391.442114 108.02919 
L 394.727697 108.02919 
L 398.013281 108.02919 
L 401.298864 108.02919 
" clip-path="url(#pcac4d597db)" style="fill: none; stroke: #22a884; stroke-width: 2; stroke-linecap: square"/>
   </g>
   <g id="line2d_16">
    <path d="M 76.026136 66.356463 
L 79.311719 66.356463 
L 82.597303 66.356463 
L 85.882886 66.356463 
L 89.168469 66.356463 
L 92.454052 66.356463 
L 95.739635 66.356463 
L 99.025218 66.356463 
L 102.310801 66.356463 
L 105.596384 66.356463 
L 108.881967 66.356463 
L 112.167551 66.356463 
L 115.453134 66.356463 
L 118.738717 66.356463 
L 122.0243 66.356463 
L 125.309883 66.356463 
L 128.595466 66.356463 
L 131.881049 66.356463 
L 135.166632 66.356463 
L 138.452215 66.356463 
L 141.737798 66.356463 
L 145.023382 66.356463 
L 148.308965 66.356463 
L 151.594548 66.356463 
L 154.880131 66.356463 
L 158.165714 66.356462 
L 161.451297 66.356461 
L 164.73688 66.356456 
L 168.022463 66.356441 
L 171.308046 66.3564 
L 174.593629 66.356287 
L 177.879213 66.355996 
L 181.164796 66.355272 
L 184.450379 66.353546 
L 187.735962 66.349604 
L 191.021545 66.34098 
L 194.307128 66.32291 
L 197.592711 66.286658 
L 200.878294 66.217045 
L 204.163877 66.089147 
L 207.449461 65.864417 
L 210.735044 65.486977 
L 214.020627 64.881454 
L 217.30621 63.954301 
L 220.591793 62.600809 
L 223.877376 60.719511 
L 227.162959 58.234171 
L 230.448542 55.121068 
L 233.734125 51.436299 
L 237.019708 47.335419 
L 240.305292 43.077126 
L 243.590875 39.004886 
L 246.876458 35.505435 
L 250.162041 32.949853 
L 253.447624 31.62919 
L 256.733207 31.699983 
L 260.01879 33.153738 
L 263.304373 35.818609 
L 266.589956 39.392806 
L 269.875539 43.50076 
L 273.161123 47.757622 
L 276.446706 51.826896 
L 279.732289 55.459764 
L 283.017872 58.511105 
L 286.303455 60.933882 
L 289.589038 62.758349 
L 292.874621 64.064439 
L 296.160204 64.954815 
L 299.445787 65.533587 
L 302.731371 65.89269 
L 306.016954 66.105534 
L 309.302537 66.226124 
L 312.58812 66.291469 
L 315.873703 66.32535 
L 319.159286 66.342165 
L 322.444869 66.350155 
L 325.730452 66.353791 
L 329.016035 66.355377 
L 332.301618 66.356039 
L 335.587202 66.356304 
L 338.872785 66.356406 
L 342.158368 66.356443 
L 345.443951 66.356457 
L 348.729534 66.356461 
L 352.015117 66.356462 
L 355.3007 66.356463 
L 358.586283 66.356463 
L 361.871866 66.356463 
L 365.157449 66.356463 
L 368.443033 66.356463 
L 371.728616 66.356463 
L 375.014199 66.356463 
L 378.299782 66.356463 
L 381.585365 66.356463 
L 384.870948 66.356463 
L 388.156531 66.356463 
L 391.442114 66.356463 
L 394.727697 66.356463 
L 398.013281 66.356463 
L 401.298864 66.356463 
" clip-path="url(#pcac4d597db)" style="fill: none; stroke: #7ad151; stroke-width: 2; stroke-linecap: square"/>
   </g>
   <g id="patch_3">
    <path d="M 59.7625 243.118281 
L 59.7625 21.558281 
" style="fill: none; stroke: #000000; stroke-width: 0.8; stroke-linejoin: miter; stroke-linecap: square"/>
   </g>
   <g id="patch_4">
    <path d="M 59.7625 243.118281 
L 417.5625 243.118281 
" style="fill: none; stroke: #000000; stroke-width: 0.8; stroke-linejoin: miter; stroke-linecap: square"/>
   </g>
   <g id="text_13">
    <!-- C. Bayesian Updating -->
    <g transform="translate(59.7625 15.558281) scale(0.11 -0.11)">
     <defs>
      <path id="DejaVuSans-Bold-43" d="M 4288 256 
Q 3956 84 3597 -3 
Q 3238 -91 2847 -91 
Q 1681 -91 1000 561 
Q 319 1213 319 2328 
Q 319 3447 1000 4098 
Q 1681 4750 2847 4750 
Q 3238 4750 3597 4662 
Q 3956 4575 4288 4403 
L 4288 3438 
Q 3953 3666 3628 3772 
Q 3303 3878 2944 3878 
Q 2300 3878 1931 3465 
Q 1563 3053 1563 2328 
Q 1563 1606 1931 1193 
Q 2300 781 2944 781 
Q 3303 781 3628 887 
Q 3953 994 4288 1222 
L 4288 256 
z
" transform="scale(0.015625)"/>
      <path id="DejaVuSans-Bold-2e" d="M 653 1209 
L 1778 1209 
L 1778 0 
L 653 0 
L 653 1209 
z
" transform="scale(0.015625)"/>
      <path id="DejaVuSans-Bold-42" d="M 2456 2859 
Q 2741 2859 2887 2984 
Q 3034 3109 3034 3353 
Q 3034 3594 2887 3720 
Q 2741 3847 2456 3847 
L 1791 3847 
L 1791 2859 
L 2456 2859 
z
M 2497 819 
Q 2859 819 3042 972 
Q 3225 1125 3225 1434 
Q 3225 1738 3044 1889 
Q 2863 2041 2497 2041 
L 1791 2041 
L 1791 819 
L 2497 819 
z
M 3616 2497 
Q 4003 2384 4215 2081 
Q 4428 1778 4428 1338 
Q 4428 663 3972 331 
Q 3516 0 2584 0 
L 588 0 
L 588 4666 
L 2394 4666 
Q 3366 4666 3802 4372 
Q 4238 4078 4238 3431 
Q 4238 3091 4078 2852 
Q 3919 2613 3616 2497 
z
" transform="scale(0.015625)"/>
      <path id="DejaVuSans-Bold-65" d="M 4031 1759 
L 4031 1441 
L 1416 1441 
Q 1456 1047 1700 850 
Q 1944 653 2381 653 
Q 2734 653 3104 758 
Q 3475 863 3866 1075 
L 3866 213 
Q 3469 63 3072 -14 
Q 2675 -91 2278 -91 
Q 1328 -91 801 392 
Q 275 875 275 1747 
Q 275 2603 792 3093 
Q 1309 3584 2216 3584 
Q 3041 3584 3536 3087 
Q 4031 2591 4031 1759 
z
M 2881 2131 
Q 2881 2450 2695 2645 
Q 2509 2841 2209 2841 
Q 1884 2841 1681 2658 
Q 1478 2475 1428 2131 
L 2881 2131 
z
" transform="scale(0.015625)"/>
      <path id="DejaVuSans-Bold-6e" d="M 4056 2131 
L 4056 0 
L 2931 0 
L 2931 347 
L 2931 1631 
Q 2931 2084 2911 2256 
Q 2891 2428 2841 2509 
Q 2775 2619 2662 2680 
Q 2550 2741 2406 2741 
Q 2056 2741 1856 2470 
Q 1656 2200 1656 1722 
L 1656 0 
L 538 0 
L 538 3500 
L 1656 3500 
L 1656 2988 
Q 1909 3294 2193 3439 
Q 2478 3584 2822 3584 
Q 3428 3584 3742 3212 
Q 4056 2841 4056 2131 
z
" transform="scale(0.015625)"/>
      <path id="DejaVuSans-Bold-55" d="M 588 4666 
L 1791 4666 
L 1791 1869 
Q 1791 1291 1980 1042 
Q 2169 794 2597 794 
Q 3028 794 3217 1042 
Q 3406 1291 3406 1869 
L 3406 4666 
L 4609 4666 
L 4609 1869 
Q 4609 878 4112 393 
Q 3616 -91 2597 -91 
Q 1581 -91 1084 393 
Q 588 878 588 1869 
L 588 4666 
z
" transform="scale(0.015625)"/>
      <path id="DejaVuSans-Bold-70" d="M 1656 506 
L 1656 -1331 
L 538 -1331 
L 538 3500 
L 1656 3500 
L 1656 2988 
Q 1888 3294 2169 3439 
Q 2450 3584 2816 3584 
Q 3463 3584 3878 3070 
Q 4294 2556 4294 1747 
Q 4294 938 3878 423 
Q 3463 -91 2816 -91 
Q 2450 -91 2169 54 
Q 1888 200 1656 506 
z
M 2400 2772 
Q 2041 2772 1848 2508 
Q 1656 2244 1656 1747 
Q 1656 1250 1848 986 
Q 2041 722 2400 722 
Q 2759 722 2948 984 
Q 3138 1247 3138 1747 
Q 3138 2247 2948 2509 
Q 2759 2772 2400 2772 
z
" transform="scale(0.015625)"/>
      <path id="DejaVuSans-Bold-64" d="M 2919 2988 
L 2919 4863 
L 4044 4863 
L 4044 0 
L 2919 0 
L 2919 506 
Q 2688 197 2409 53 
Q 2131 -91 1766 -91 
Q 1119 -91 703 423 
Q 288 938 288 1747 
Q 288 2556 703 3070 
Q 1119 3584 1766 3584 
Q 2128 3584 2408 3439 
Q 2688 3294 2919 2988 
z
M 2181 722 
Q 2541 722 2730 984 
Q 2919 1247 2919 1747 
Q 2919 2247 2730 2509 
Q 2541 2772 2181 2772 
Q 1825 2772 1636 2509 
Q 1447 2247 1447 1747 
Q 1447 1247 1636 984 
Q 1825 722 2181 722 
z
" transform="scale(0.015625)"/>
      <path id="DejaVuSans-Bold-67" d="M 2919 594 
Q 2688 288 2409 144 
Q 2131 0 1766 0 
Q 1125 0 706 504 
Q 288 1009 288 1791 
Q 288 2575 706 3076 
Q 1125 3578 1766 3578 
Q 2131 3578 2409 3434 
Q 2688 3291 2919 2981 
L 2919 3500 
L 4044 3500 
L 4044 353 
Q 4044 -491 3511 -936 
Q 2978 -1381 1966 -1381 
Q 1638 -1381 1331 -1331 
Q 1025 -1281 716 -1178 
L 716 -306 
Q 1009 -475 1290 -558 
Q 1572 -641 1856 -641 
Q 2406 -641 2662 -400 
Q 2919 -159 2919 353 
L 2919 594 
z
M 2181 2772 
Q 1834 2772 1640 2515 
Q 1447 2259 1447 1791 
Q 1447 1309 1634 1061 
Q 1822 813 2181 813 
Q 2531 813 2725 1069 
Q 2919 1325 2919 1791 
Q 2919 2259 2725 2515 
Q 2531 2772 2181 2772 
z
" transform="scale(0.015625)"/>
     </defs>
     <use xlink:href="#DejaVuSans-Bold-43"/>
     <use xlink:href="#DejaVuSans-Bold-2e" transform="translate(73.388672 0)"/>
     <use xlink:href="#DejaVuSans-Bold-20" transform="translate(111.376953 0)"/>
     <use xlink:href="#DejaVuSans-Bold-42" transform="translate(146.191406 0)"/>
     <use xlink:href="#DejaVuSans-Bold-61" transform="translate(222.412109 0)"/>
     <use xlink:href="#DejaVuSans-Bold-79" transform="translate(286.767578 0)"/>
     <use xlink:href="#DejaVuSans-Bold-65" transform="translate(351.953125 0)"/>
     <use xlink:href="#DejaVuSans-Bold-73" transform="translate(419.775391 0)"/>
     <use xlink:href="#DejaVuSans-Bold-69" transform="translate(479.296875 0)"/>
     <use xlink:href="#DejaVuSans-Bold-61" transform="translate(513.574219 0)"/>
     <use xlink:href="#DejaVuSans-Bold-6e" transform="translate(581.054688 0)"/>
     <use xlink:href="#DejaVuSans-Bold-20" transform="translate(652.246094 0)"/>
     <use xlink:href="#DejaVuSans-Bold-55" transform="translate(687.060547 0)"/>
     <use xlink:href="#DejaVuSans-Bold-70" transform="translate(768.261719 0)"/>
     <use xlink:href="#DejaVuSans-Bold-64" transform="translate(839.84375 0)"/>
     <use xlink:href="#DejaVuSans-Bold-61" transform="translate(911.425781 0)"/>
     <use xlink:href="#DejaVuSans-Bold-74" transform="translate(978.90625 0)"/>
     <use xlink:href="#DejaVuSans-Bold-69" transform="translate(1026.708984 0)"/>
     <use xlink:href="#DejaVuSans-Bold-6e" transform="translate(1060.986328 0)"/>
     <use xlink:href="#DejaVuSans-Bold-67" transform="translate(1132.177734 0)"/>
    </g>
   </g>
  </g>
 </g>
 <defs>
  <clipPath id="pcac4d597db">
   <rect x="59.7625" y="21.558281" width="357.8" height="221.56"/>
  </clipPath>
 </defs>
</svg>
