<?xml version="1.0" encoding="utf-8" ?>
<svg xmlns="http://www.w3.org/2000/svg" xmlns:ev="http://www.w3.org/2001/xml-events" xmlns:xlink="http://www.w3.org/1999/xlink" baseProfile="full" height="800" version="1.1" width="1200">
  <defs>
    <marker id="id334" markerHeight="7" markerWidth="7" orient="auto" refX="6" refY="3">
      <path d="M0,0 L0,6 L6,3 z" fill="#333333"/>
    </marker>
  </defs>
  <rect fill="white" height="800" width="1200" x="0" y="0"/>
  <text fill="#111" font-family="Arial, Helvetica, sans-serif" font-size="28" font-weight="700" x="60" y="50">Figure 5: Fairness Assessment</text>
  <text fill="#444" font-family="Arial, Helvetica, sans-serif" font-size="16" x="60" y="78">Panel B</text>
  <line stroke="#333" stroke-width="2" x1="140" x2="1000" y1="720" y2="720"/>
  <line stroke="#333" stroke-width="2" x1="140" x2="140" y1="160" y2="720"/>
  <circle cx="433.22588508314993" cy="535.4518443464995" fill="#ff7f0e" opacity="0.75" r="4"/>
  <circle cx="225.5346068663896" cy="428.4608003537985" fill="#ff7f0e" opacity="0.75" r="4"/>
  <circle cx="411.09785510594423" cy="527.5416054110692" fill="#2ca02c" opacity="0.75" r="4"/>
  <circle cx="468.62278663869336" cy="483.44842051581196" fill="#1f77b4" opacity="0.75" r="4"/>
  <circle cx="366.31239524432596" cy="492.37005950149484" fill="#ff7f0e" opacity="0.75" r="4"/>
  <circle cx="420.4628359999139" cy="560.0210885186071" fill="#1f77b4" opacity="0.75" r="4"/>
  <circle cx="398.2007319750134" cy="507.04399951809256" fill="#1f77b4" opacity="0.75" r="4"/>
  <circle cx="316.27389840104945" cy="567.2348371036055" fill="#1f77b4" opacity="0.75" r="4"/>
  <circle cx="631.3449229574439" cy="467.650438369177" fill="#2ca02c" opacity="0.75" r="4"/>
  <circle cx="288.15915829895636" cy="542.5487715348053" fill="#2ca02c" opacity="0.75" r="4"/>
  <circle cx="259.139654480188" cy="468.7548836057435" fill="#1f77b4" opacity="0.75" r="4"/>
  <circle cx="424.2134497991769" cy="518.7282759870607" fill="#ff7f0e" opacity="0.75" r="4"/>
  <circle cx="372.15370115317694" cy="492.0016688874828" fill="#ff7f0e" opacity="0.75" r="4"/>
  <circle cx="309.66841790961394" cy="502.7418185155685" fill="#1f77b4" opacity="0.75" r="4"/>
  <circle cx="355.5852899140907" cy="532.1695307206003" fill="#2ca02c" opacity="0.75" r="4"/>
  <circle cx="395.7790059751844" cy="475.9565565650217" fill="#ff7f0e" opacity="0.75" r="4"/>
  <circle cx="401.83554282957874" cy="621.615850810104" fill="#2ca02c" opacity="0.75" r="4"/>
  <circle cx="461.1620335292367" cy="523.4745857726438" fill="#ff7f0e" opacity="0.75" r="4"/>
  <circle cx="457.38313994447" cy="579.9647466155753" fill="#ff7f0e" opacity="0.75" r="4"/>
  <circle cx="404.7504326953855" cy="499.40037633401994" fill="#ff7f0e" opacity="0.75" r="4"/>
  <circle cx="376.4419272532052" cy="506.0131177076356" fill="#1f77b4" opacity="0.75" r="4"/>
  <circle cx="329.1155256007769" cy="487.28259962437517" fill="#ff7f0e" opacity="0.75" r="4"/>
  <circle cx="449.31395080106773" cy="581.6017658457774" fill="#2ca02c" opacity="0.75" r="4"/>
  <circle cx="446.5255486012966" cy="611.344359180904" fill="#ff7f0e" opacity="0.75" r="4"/>
  <circle cx="346.16737935404865" cy="510.70484611177284" fill="#1f77b4" opacity="0.75" r="4"/>
  <circle cx="316.79615457678926" cy="449.5505673671963" fill="#1f77b4" opacity="0.75" r="4"/>
  <circle cx="550.6909178649119" cy="527.5760618527902" fill="#ff7f0e" opacity="0.75" r="4"/>
  <circle cx="427.6083174247806" cy="494.5316074382619" fill="#1f77b4" opacity="0.75" r="4"/>
  <circle cx="342.83494606171985" cy="578.576463046154" fill="#2ca02c" opacity="0.75" r="4"/>
  <circle cx="359.1346935521835" cy="517.7379339520878" fill="#1f77b4" opacity="0.75" r="4"/>
  <circle cx="367.7140353963284" cy="641.7951844726097" fill="#2ca02c" opacity="0.75" r="4"/>
  <circle cx="293.5130545195957" cy="492.72746259726864" fill="#ff7f0e" opacity="0.75" r="4"/>
  <circle cx="369.0813538611999" cy="551.3852453692434" fill="#2ca02c" opacity="0.75" r="4"/>
  <circle cx="320.04669477294385" cy="525.5391738327608" fill="#ff7f0e" opacity="0.75" r="4"/>
  <circle cx="406.6859276281551" cy="496.40377832813147" fill="#1f77b4" opacity="0.75" r="4"/>
  <circle cx="282.94358792205895" cy="532.2011541912191" fill="#1f77b4" opacity="0.75" r="4"/>
  <circle cx="410.30043026761143" cy="454.8876595827378" fill="#2ca02c" opacity="0.75" r="4"/>
  <circle cx="494.3240929150311" cy="569.0966814094436" fill="#2ca02c" opacity="0.75" r="4"/>
  <circle cx="292.3814355241185" cy="578.7894074558723" fill="#ff7f0e" opacity="0.75" r="4"/>
  <circle cx="342.8844743965284" cy="562.3114028096918" fill="#2ca02c" opacity="0.75" r="4"/>
  <circle cx="487.2678004774573" cy="435.0369025466354" fill="#1f77b4" opacity="0.75" r="4"/>
  <circle cx="280.8067323669246" cy="501.62661655189254" fill="#1f77b4" opacity="0.75" r="4"/>
  <circle cx="419.2663723827002" cy="497.1051740402788" fill="#ff7f0e" opacity="0.75" r="4"/>
  <circle cx="396.4899597103673" cy="452.2908377806481" fill="#2ca02c" opacity="0.75" r="4"/>
  <circle cx="466.89558147499423" cy="450.5862397179437" fill="#1f77b4" opacity="0.75" r="4"/>
  <circle cx="406.043867842319" cy="482.046228918882" fill="#1f77b4" opacity="0.75" r="4"/>
  <circle cx="347.21714199346076" cy="460.99198114844864" fill="#ff7f0e" opacity="0.75" r="4"/>
  <circle cx="362.35835588949783" cy="531.7578133417132" fill="#1f77b4" opacity="0.75" r="4"/>
  <circle cx="428.3406403898973" cy="548.2061578007638" fill="#2ca02c" opacity="0.75" r="4"/>
  <circle cx="258.40560645068507" cy="574.2573768310237" fill="#2ca02c" opacity="0.75" r="4"/>
  <circle cx="451.68330880756844" cy="479.8899096374988" fill="#2ca02c" opacity="0.75" r="4"/>
  <circle cx="351.50867903857284" cy="607.3301371041168" fill="#ff7f0e" opacity="0.75" r="4"/>
  <circle cx="457.9631549972229" cy="569.4934851737532" fill="#1f77b4" opacity="0.75" r="4"/>
  <circle cx="435.9615964025522" cy="472.3806558551863" fill="#ff7f0e" opacity="0.75" r="4"/>
  <circle cx="454.9745845187526" cy="431.7819725779331" fill="#ff7f0e" opacity="0.75" r="4"/>
  <circle cx="446.8735300924198" cy="433.4149545158154" fill="#2ca02c" opacity="0.75" r="4"/>
  <circle cx="693.5360933729959" cy="451.4743603804891" fill="#1f77b4" opacity="0.75" r="4"/>
  <circle cx="670.9693626577763" cy="347.0045549044122" fill="#ff7f0e" opacity="0.75" r="4"/>
  <circle cx="757.6294173926996" cy="406.9577560164586" fill="#ff7f0e" opacity="0.75" r="4"/>
  <circle cx="720.025451995855" cy="349.95210459561326" fill="#ff7f0e" opacity="0.75" r="4"/>
  <circle cx="726.1596974900498" cy="344.857956535597" fill="#ff7f0e" opacity="0.75" r="4"/>
  <circle cx="596.5159100330318" cy="448.15771760343205" fill="#1f77b4" opacity="0.75" r="4"/>
  <circle cx="577.9469766632583" cy="438.5719813082628" fill="#2ca02c" opacity="0.75" r="4"/>
  <circle cx="513.917057042421" cy="343.8710257079033" fill="#2ca02c" opacity="0.75" r="4"/>
  <circle cx="659.083964458305" cy="327.4516045570872" fill="#ff7f0e" opacity="0.75" r="4"/>
  <circle cx="647.0527907577966" cy="432.7296298398944" fill="#2ca02c" opacity="0.75" r="4"/>
  <circle cx="745.7774077197829" cy="442.6975602795953" fill="#1f77b4" opacity="0.75" r="4"/>
  <circle cx="733.1636638431457" cy="353.31528349557396" fill="#1f77b4" opacity="0.75" r="4"/>
  <circle cx="889.1982260994006" cy="503.20717317725564" fill="#2ca02c" opacity="0.75" r="4"/>
  <circle cx="627.1316474332515" cy="375.2510301630224" fill="#1f77b4" opacity="0.75" r="4"/>
  <circle cx="607.1232974333248" cy="411.64340314420815" fill="#1f77b4" opacity="0.75" r="4"/>
  <circle cx="583.5443774849031" cy="463.65504440364566" fill="#ff7f0e" opacity="0.75" r="4"/>
  <circle cx="694.9597703076173" cy="473.0362297517201" fill="#1f77b4" opacity="0.75" r="4"/>
  <circle cx="652.1642251223395" cy="372.1730742015267" fill="#2ca02c" opacity="0.75" r="4"/>
  <circle cx="629.5054834295327" cy="466.72011205064956" fill="#2ca02c" opacity="0.75" r="4"/>
  <circle cx="674.4493472778433" cy="395.6655331814876" fill="#2ca02c" opacity="0.75" r="4"/>
  <circle cx="672.4921434290133" cy="471.52084018396357" fill="#2ca02c" opacity="0.75" r="4"/>
  <circle cx="684.7494877957903" cy="414.13979327500357" fill="#ff7f0e" opacity="0.75" r="4"/>
  <circle cx="690.1328148658212" cy="424.6277189572454" fill="#ff7f0e" opacity="0.75" r="4"/>
  <circle cx="657.5519649237838" cy="307.33375373534994" fill="#1f77b4" opacity="0.75" r="4"/>
  <circle cx="625.7543570379152" cy="434.6489803692835" fill="#2ca02c" opacity="0.75" r="4"/>
  <circle cx="679.4994419801131" cy="401.747127984116" fill="#2ca02c" opacity="0.75" r="4"/>
  <circle cx="468.9171987201999" cy="496.8160547294437" fill="#2ca02c" opacity="0.75" r="4"/>
  <circle cx="668.0125682651537" cy="353.5268057162684" fill="#2ca02c" opacity="0.75" r="4"/>
  <circle cx="665.3618538903751" cy="424.1438647859678" fill="#ff7f0e" opacity="0.75" r="4"/>
  <circle cx="671.8888160204473" cy="294.96658208972616" fill="#ff7f0e" opacity="0.75" r="4"/>
  <circle cx="567.2395155373868" cy="371.8372586028375" fill="#1f77b4" opacity="0.75" r="4"/>
  <circle cx="688.0655322343764" cy="379.7901245894005" fill="#1f77b4" opacity="0.75" r="4"/>
  <circle cx="598.7489689979527" cy="431.3254351048045" fill="#2ca02c" opacity="0.75" r="4"/>
  <circle cx="570.2207388825996" cy="365.93602991180427" fill="#ff7f0e" opacity="0.75" r="4"/>
  <circle cx="637.2247325396179" cy="460.5624745171634" fill="#2ca02c" opacity="0.75" r="4"/>
  <circle cx="654.3920483960068" cy="472.0246820142015" fill="#2ca02c" opacity="0.75" r="4"/>
  <circle cx="636.9965872976004" cy="425.42648186607283" fill="#2ca02c" opacity="0.75" r="4"/>
  <circle cx="519.8480365825646" cy="466.20032908368097" fill="#1f77b4" opacity="0.75" r="4"/>
  <circle cx="584.6290569382818" cy="470.9427903057185" fill="#1f77b4" opacity="0.75" r="4"/>
  <circle cx="748.3516693191873" cy="317.66312663814506" fill="#2ca02c" opacity="0.75" r="4"/>
  <circle cx="652.32742903674" cy="435.25035976910686" fill="#1f77b4" opacity="0.75" r="4"/>
  <circle cx="641.2161708944494" cy="424.50620618308346" fill="#2ca02c" opacity="0.75" r="4"/>
  <circle cx="601.9450088180195" cy="420.4408753899481" fill="#1f77b4" opacity="0.75" r="4"/>
  <circle cx="857.7736298887115" cy="491.59162343245566" fill="#1f77b4" opacity="0.75" r="4"/>
  <circle cx="734.9966481553556" cy="410.697555548594" fill="#2ca02c" opacity="0.75" r="4"/>
  <circle cx="640.552057275605" cy="353.63605579647003" fill="#1f77b4" opacity="0.75" r="4"/>
  <circle cx="659.9133041976719" cy="394.04733082958444" fill="#2ca02c" opacity="0.75" r="4"/>
  <circle cx="770.0528481945684" cy="406.54646288765093" fill="#2ca02c" opacity="0.75" r="4"/>
  <circle cx="773.3705235536721" cy="479.4382386590749" fill="#ff7f0e" opacity="0.75" r="4"/>
  <circle cx="752.4019028364468" cy="466.28292234198915" fill="#2ca02c" opacity="0.75" r="4"/>
  <circle cx="646.7987216260824" cy="423.1501604794746" fill="#ff7f0e" opacity="0.75" r="4"/>
  <circle cx="602.3543685360148" cy="341.1714713501535" fill="#1f77b4" opacity="0.75" r="4"/>
  <circle cx="602.4014637057394" cy="430.41834876627206" fill="#2ca02c" opacity="0.75" r="4"/>
  <circle cx="729.1277345930358" cy="428.0336341783349" fill="#1f77b4" opacity="0.75" r="4"/>
  <circle cx="472.9723294339187" cy="631.7247382930251" fill="#ff7f0e" opacity="0.75" r="4"/>
  <circle cx="509.8789751847655" cy="573.6840018852338" fill="#ff7f0e" opacity="0.75" r="4"/>
  <circle cx="542.9025335756987" cy="603.1753187980491" fill="#ff7f0e" opacity="0.75" r="4"/>
  <circle cx="449.66210655693214" cy="595.4371370733575" fill="#1f77b4" opacity="0.75" r="4"/>
  <circle cx="543.5006746651392" cy="632.0334927674269" fill="#2ca02c" opacity="0.75" r="4"/>
  <circle cx="557.6165870779346" cy="630.7968231233747" fill="#ff7f0e" opacity="0.75" r="4"/>
  <circle cx="662.0024228566989" cy="594.8784146337136" fill="#1f77b4" opacity="0.75" r="4"/>
  <circle cx="492.08178661196877" cy="570.7444940123486" fill="#ff7f0e" opacity="0.75" r="4"/>
  <circle cx="452.16017267334587" cy="638.7640170048368" fill="#1f77b4" opacity="0.75" r="4"/>
  <circle cx="512.817234526471" cy="606.6220388523434" fill="#2ca02c" opacity="0.75" r="4"/>
  <circle cx="464.67795363376047" cy="546.8877620200694" fill="#2ca02c" opacity="0.75" r="4"/>
  <circle cx="559.2436764959941" cy="530.0220671615696" fill="#ff7f0e" opacity="0.75" r="4"/>
  <circle cx="590.7047266749216" cy="538.9946966576413" fill="#1f77b4" opacity="0.75" r="4"/>
  <circle cx="599.5710054082946" cy="595.9706535144712" fill="#2ca02c" opacity="0.75" r="4"/>
  <circle cx="521.369381430236" cy="634.591180660248" fill="#2ca02c" opacity="0.75" r="4"/>
  <circle cx="407.9342988221164" cy="496.0963076443896" fill="#2ca02c" opacity="0.75" r="4"/>
  <circle cx="484.84705609421974" cy="633.9189721833226" fill="#1f77b4" opacity="0.75" r="4"/>
  <circle cx="633.7935154049612" cy="530.9465093006124" fill="#ff7f0e" opacity="0.75" r="4"/>
  <circle cx="552.2785536511533" cy="585.1174376062189" fill="#2ca02c" opacity="0.75" r="4"/>
  <circle cx="563.7390100450903" cy="608.1592541577296" fill="#2ca02c" opacity="0.75" r="4"/>
  <circle cx="449.87652865470864" cy="552.5740443942061" fill="#2ca02c" opacity="0.75" r="4"/>
  <circle cx="485.37370651820385" cy="581.1280954418704" fill="#ff7f0e" opacity="0.75" r="4"/>
  <circle cx="609.1866312414164" cy="535.2587029709391" fill="#ff7f0e" opacity="0.75" r="4"/>
  <circle cx="640.4643660172885" cy="605.8120649321187" fill="#1f77b4" opacity="0.75" r="4"/>
  <circle cx="555.5372662911618" cy="616.5527269049292" fill="#ff7f0e" opacity="0.75" r="4"/>
  <circle cx="503.71848374530856" cy="603.8391622060022" fill="#1f77b4" opacity="0.75" r="4"/>
  <circle cx="441.7000081161779" cy="616.5644353149286" fill="#1f77b4" opacity="0.75" r="4"/>
  <circle cx="568.2829038276518" cy="564.6945762203236" fill="#2ca02c" opacity="0.75" r="4"/>
  <circle cx="576.5396361334878" cy="585.6761167898926" fill="#2ca02c" opacity="0.75" r="4"/>
  <circle cx="573.7130305250946" cy="620.2881845553347" fill="#2ca02c" opacity="0.75" r="4"/>
  <circle cx="683.9543125548552" cy="533.4640848191584" fill="#1f77b4" opacity="0.75" r="4"/>
  <circle cx="528.2575373596799" cy="539.4264602351716" fill="#1f77b4" opacity="0.75" r="4"/>
  <circle cx="549.7627215216363" cy="532.7607883951769" fill="#2ca02c" opacity="0.75" r="4"/>
  <circle cx="611.4741717416961" cy="577.7683586097269" fill="#ff7f0e" opacity="0.75" r="4"/>
  <circle cx="492.1529519630355" cy="596.8237076849368" fill="#1f77b4" opacity="0.75" r="4"/>
  <circle cx="480.6503327091892" cy="585.7643266586176" fill="#1f77b4" opacity="0.75" r="4"/>
  <circle cx="537.3561781004488" cy="482.0346075842412" fill="#1f77b4" opacity="0.75" r="4"/>
  <circle cx="534.8357040184117" cy="562.6485699644011" fill="#ff7f0e" opacity="0.75" r="4"/>
  <circle cx="536.1807574315985" cy="578.2873640679309" fill="#2ca02c" opacity="0.75" r="4"/>
  <circle cx="548.9763267435462" cy="543.8817612779072" fill="#ff7f0e" opacity="0.75" r="4"/>
  <circle cx="540.006942256493" cy="614.9528933691046" fill="#ff7f0e" opacity="0.75" r="4"/>
  <circle cx="464.7266494919347" cy="569.2961344106582" fill="#ff7f0e" opacity="0.75" r="4"/>
  <circle cx="453.08220481906676" cy="611.6317590962583" fill="#2ca02c" opacity="0.75" r="4"/>
  <circle cx="446.70251378537404" cy="554.9457402621755" fill="#ff7f0e" opacity="0.75" r="4"/>
  <circle cx="437.22082160537883" cy="547.7676639013197" fill="#2ca02c" opacity="0.75" r="4"/>
  <circle cx="535.6679833896479" cy="549.5261793293753" fill="#2ca02c" opacity="0.75" r="4"/>
  <circle cx="569.224086916654" cy="539.322983270781" fill="#1f77b4" opacity="0.75" r="4"/>
  <circle cx="454.2665704279361" cy="559.6788992874057" fill="#2ca02c" opacity="0.75" r="4"/>
  <circle cx="501.942367805105" cy="524.7319330878993" fill="#ff7f0e" opacity="0.75" r="4"/>
  <circle cx="602.4580942849582" cy="587.664317176641" fill="#1f77b4" opacity="0.75" r="4"/>
  <circle cx="425.1999150465712" cy="508.605811437877" fill="#1f77b4" opacity="0.75" r="4"/>
  <circle cx="547.4226305315642" cy="565.9220173046617" fill="#ff7f0e" opacity="0.75" r="4"/>
  <circle cx="625.7592967837377" cy="635.8995529591157" fill="#ff7f0e" opacity="0.75" r="4"/>
  <circle cx="503.2385690936998" cy="592.5654710158258" fill="#2ca02c" opacity="0.75" r="4"/>
  <circle cx="613.2719235683915" cy="552.4037669143868" fill="#ff7f0e" opacity="0.75" r="4"/>
  <circle cx="914.0" cy="244.0" fill="#d62728" opacity="0.9" r="7"/>
  <text fill="#333" font-family="Arial, Helvetica, sans-serif" font-size="16" text-anchor="middle" x="570.0" y="765">Dimension 1</text>
  <text fill="#333" font-family="Arial, Helvetica, sans-serif" font-size="16" text-anchor="middle" transform="rotate(-90,85,440.0)" x="85" y="440.0">Dimension 2</text>
  <text fill="#999" font-family="Arial, Helvetica, sans-serif" font-size="12" text-anchor="end" x="1140" y="776">Auto-generated SVG</text>
</svg>
