<?xml version="1.0" encoding="UTF-8" standalone="no"?>
<!DOCTYPE svg PUBLIC "-//W3C//DTD SVG 1.1//EN"
 "http://www.w3.org/Graphics/SVG/1.1/DTD/svg11.dtd">
<!-- Generated by graphviz version 2.43.0 (0)
 -->
<!-- Title: bias Pages: 1 -->
<svg width="720pt" height="77pt"
 viewBox="0.00 0.00 720.00 76.71" xmlns="http://www.w3.org/2000/svg" xmlns:xlink="http://www.w3.org/1999/xlink">
<g id="graph0" class="graph" transform="scale(1.74 1.74) rotate(0) translate(4 40)">
<title>bias</title>
<polygon fill="white" stroke="transparent" points="-4,4 -4,-40 409,-40 409,4 -4,4"/>
<!-- data -->
<g id="node1" class="node">
<title>data</title>
<path fill="#ff7f0e" stroke="black" stroke-width="1.5" d="M42,-36C42,-36 12,-36 12,-36 6,-36 0,-30 0,-24 0,-24 0,-12 0,-12 0,-6 6,0 12,0 12,0 42,0 42,0 48,0 54,-6 54,-12 54,-12 54,-24 54,-24 54,-30 48,-36 42,-36"/>
<text text-anchor="middle" x="27" y="-20.8" font-family="Arial" font-size="9.00" fill="white">Training</text>
<text text-anchor="middle" x="27" y="-10.8" font-family="Arial" font-size="9.00" fill="white">Data</text>
</g>
<!-- model -->
<g id="node2" class="node">
<title>model</title>
<path fill="#d62728" stroke="black" stroke-width="1.5" d="M133,-36C133,-36 103,-36 103,-36 97,-36 91,-30 91,-24 91,-24 91,-12 91,-12 91,-6 97,0 103,0 103,0 133,0 133,0 139,0 145,-6 145,-12 145,-12 145,-24 145,-24 145,-30 139,-36 133,-36"/>
<text text-anchor="middle" x="118" y="-20.8" font-family="Arial" font-size="9.00" fill="white">Model</text>
<text text-anchor="middle" x="118" y="-10.8" font-family="Arial" font-size="9.00" fill="white">Bias</text>
</g>
<!-- data&#45;&gt;model -->
<g id="edge1" class="edge">
<title>data&#45;&gt;model</title>
<path fill="none" stroke="black" d="M54.22,-18C62.55,-18 71.91,-18 80.82,-18"/>
<polygon fill="black" stroke="black" points="80.97,-21.5 90.97,-18 80.97,-14.5 80.97,-21.5"/>
</g>
<!-- deploy -->
<g id="node3" class="node">
<title>deploy</title>
<path fill="#d62728" stroke="black" stroke-width="1.5" d="M302,-36C302,-36 260,-36 260,-36 254,-36 248,-30 248,-24 248,-24 248,-12 248,-12 248,-6 254,0 260,0 260,0 302,0 302,0 308,0 314,-6 314,-12 314,-12 314,-24 314,-24 314,-30 308,-36 302,-36"/>
<text text-anchor="middle" x="281" y="-20.8" font-family="Arial" font-size="9.00" fill="white">Deployment</text>
<text text-anchor="middle" x="281" y="-10.8" font-family="Arial" font-size="9.00" fill="white">Bias</text>
</g>
<!-- model&#45;&gt;deploy -->
<g id="edge2" class="edge">
<title>model&#45;&gt;deploy</title>
<path fill="none" stroke="black" d="M145.23,-18C170.22,-18 208.29,-18 237.6,-18"/>
<polygon fill="black" stroke="black" points="237.96,-21.5 247.96,-18 237.96,-14.5 237.96,-21.5"/>
<text text-anchor="middle" x="196.5" y="-21.8" font-family="Times,serif" font-size="14.00">Amplifies</text>
</g>
<!-- outcome -->
<g id="node4" class="node">
<title>outcome</title>
<path fill="#d62728" stroke="black" stroke-width="1.5" d="M393,-36C393,-36 363,-36 363,-36 357,-36 351,-30 351,-24 351,-24 351,-12 351,-12 351,-6 357,0 363,0 363,0 393,0 393,0 399,0 405,-6 405,-12 405,-12 405,-24 405,-24 405,-30 399,-36 393,-36"/>
<text text-anchor="middle" x="378" y="-20.8" font-family="Arial" font-size="9.00" fill="white">Outcome</text>
<text text-anchor="middle" x="378" y="-10.8" font-family="Arial" font-size="9.00" fill="white">Disparity</text>
</g>
<!-- deploy&#45;&gt;outcome -->
<g id="edge3" class="edge">
<title>deploy&#45;&gt;outcome</title>
<path fill="none" stroke="black" d="M314.16,-18C322.66,-18 331.89,-18 340.59,-18"/>
<polygon fill="black" stroke="black" points="340.86,-21.5 350.86,-18 340.86,-14.5 340.86,-21.5"/>
</g>
</g>
</svg>
