<?xml version="1.0" encoding="utf-8" ?>
<svg xmlns="http://www.w3.org/2000/svg" xmlns:ev="http://www.w3.org/2001/xml-events" xmlns:xlink="http://www.w3.org/1999/xlink" baseProfile="full" height="800" version="1.1" width="1200">
  <defs>
    <marker id="id336" markerHeight="7" markerWidth="7" orient="auto" refX="6" refY="3">
      <path d="M0,0 L0,6 L6,3 z" fill="#333333"/>
    </marker>
  </defs>
  <rect fill="white" height="800" width="1200" x="0" y="0"/>
  <text fill="#111" font-family="Arial, Helvetica, sans-serif" font-size="28" font-weight="700" x="60" y="50">Figure 5: Fairness Assessment</text>
  <text fill="#444" font-family="Arial, Helvetica, sans-serif" font-size="16" x="60" y="78">Panel D</text>
  <line stroke="#333" stroke-width="2" x1="140" x2="1000" y1="720" y2="720"/>
  <line stroke="#333" stroke-width="2" x1="140" x2="140" y1="160" y2="720"/>
  <circle cx="475.42513925713274" cy="567.9758989002489" fill="#ff7f0e" opacity="0.75" r="4"/>
  <circle cx="413.5885781692817" cy="604.0726630046811" fill="#2ca02c" opacity="0.75" r="4"/>
  <circle cx="319.0903628897322" cy="533.3454738072675" fill="#2ca02c" opacity="0.75" r="4"/>
  <circle cx="410.9792228560088" cy="472.5126755512461" fill="#2ca02c" opacity="0.75" r="4"/>
  <circle cx="471.190281834807" cy="586.453057290556" fill="#1f77b4" opacity="0.75" r="4"/>
  <circle cx="382.8260009873019" cy="413.23642350375667" fill="#2ca02c" opacity="0.75" r="4"/>
  <circle cx="511.54696258016327" cy="587.7729187612849" fill="#ff7f0e" opacity="0.75" r="4"/>
  <circle cx="378.48793435891724" cy="608.8377711004717" fill="#1f77b4" opacity="0.75" r="4"/>
  <circle cx="508.3842300991874" cy="459.5888600489825" fill="#2ca02c" opacity="0.75" r="4"/>
  <circle cx="340.6012506535558" cy="619.0660379896149" fill="#1f77b4" opacity="0.75" r="4"/>
  <circle cx="477.7079594075078" cy="474.68711606190254" fill="#1f77b4" opacity="0.75" r="4"/>
  <circle cx="393.621539681053" cy="573.4559836988257" fill="#ff7f0e" opacity="0.75" r="4"/>
  <circle cx="469.38949401686057" cy="505.5373200292503" fill="#ff7f0e" opacity="0.75" r="4"/>
  <circle cx="438.6546476342226" cy="588.2841038663743" fill="#1f77b4" opacity="0.75" r="4"/>
  <circle cx="436.76139113747917" cy="499.51239757889323" fill="#1f77b4" opacity="0.75" r="4"/>
  <circle cx="322.9997904342332" cy="478.96985931591917" fill="#1f77b4" opacity="0.75" r="4"/>
  <circle cx="394.30936672497256" cy="565.3546724289397" fill="#2ca02c" opacity="0.75" r="4"/>
  <circle cx="306.60701700436255" cy="530.8648800489591" fill="#1f77b4" opacity="0.75" r="4"/>
  <circle cx="388.9628550081216" cy="478.95437911810956" fill="#ff7f0e" opacity="0.75" r="4"/>
  <circle cx="408.4995710631856" cy="513.8818650825265" fill="#2ca02c" opacity="0.75" r="4"/>
  <circle cx="285.9707564574303" cy="529.820135214828" fill="#2ca02c" opacity="0.75" r="4"/>
  <circle cx="395.0856921931841" cy="497.34579419490797" fill="#2ca02c" opacity="0.75" r="4"/>
  <circle cx="375.89491822978914" cy="465.5952469199282" fill="#2ca02c" opacity="0.75" r="4"/>
  <circle cx="474.6041798909757" cy="476.37320137398603" fill="#1f77b4" opacity="0.75" r="4"/>
  <circle cx="416.53063069426304" cy="578.8788700039674" fill="#ff7f0e" opacity="0.75" r="4"/>
  <circle cx="499.8107125204449" cy="602.3913887663084" fill="#1f77b4" opacity="0.75" r="4"/>
  <circle cx="341.2106508812618" cy="458.72711672429426" fill="#ff7f0e" opacity="0.75" r="4"/>
  <circle cx="422.84017593826786" cy="497.57021684248144" fill="#1f77b4" opacity="0.75" r="4"/>
  <circle cx="401.8661735873313" cy="550.649481142795" fill="#ff7f0e" opacity="0.75" r="4"/>
  <circle cx="455.1983561396292" cy="529.736724289095" fill="#1f77b4" opacity="0.75" r="4"/>
  <circle cx="417.87942527553326" cy="540.5131153467811" fill="#ff7f0e" opacity="0.75" r="4"/>
  <circle cx="367.07046591402184" cy="609.7740772698431" fill="#2ca02c" opacity="0.75" r="4"/>
  <circle cx="384.69703291481017" cy="587.6727088311509" fill="#1f77b4" opacity="0.75" r="4"/>
  <circle cx="380.6783293115379" cy="535.8073465397044" fill="#2ca02c" opacity="0.75" r="4"/>
  <circle cx="404.82168378691074" cy="527.8325221121952" fill="#1f77b4" opacity="0.75" r="4"/>
  <circle cx="525.0557083363371" cy="548.5534393204412" fill="#1f77b4" opacity="0.75" r="4"/>
  <circle cx="464.51021279927267" cy="472.9649633157988" fill="#ff7f0e" opacity="0.75" r="4"/>
  <circle cx="269.5537738911326" cy="513.2529946374332" fill="#ff7f0e" opacity="0.75" r="4"/>
  <circle cx="304.9711539154806" cy="502.245215792547" fill="#1f77b4" opacity="0.75" r="4"/>
  <circle cx="473.3451191104216" cy="455.7001783362148" fill="#2ca02c" opacity="0.75" r="4"/>
  <circle cx="474.61202892676766" cy="548.6040675549478" fill="#1f77b4" opacity="0.75" r="4"/>
  <circle cx="267.8790869268137" cy="510.3803162024893" fill="#2ca02c" opacity="0.75" r="4"/>
  <circle cx="480.41906346819167" cy="507.63447239592944" fill="#1f77b4" opacity="0.75" r="4"/>
  <circle cx="380.3592957425384" cy="528.339986927989" fill="#2ca02c" opacity="0.75" r="4"/>
  <circle cx="383.47442847688524" cy="444.42245696174234" fill="#1f77b4" opacity="0.75" r="4"/>
  <circle cx="362.23010787950363" cy="540.9952775623756" fill="#1f77b4" opacity="0.75" r="4"/>
  <circle cx="482.55478599791434" cy="564.1229224200276" fill="#1f77b4" opacity="0.75" r="4"/>
  <circle cx="333.2661968629935" cy="534.0350616849391" fill="#2ca02c" opacity="0.75" r="4"/>
  <circle cx="316.2883652921283" cy="513.5242123632722" fill="#1f77b4" opacity="0.75" r="4"/>
  <circle cx="329.1963728572041" cy="484.89038036010186" fill="#1f77b4" opacity="0.75" r="4"/>
  <circle cx="366.44770342968616" cy="531.6993219525104" fill="#ff7f0e" opacity="0.75" r="4"/>
  <circle cx="513.6946435539938" cy="534.2788679128255" fill="#2ca02c" opacity="0.75" r="4"/>
  <circle cx="337.94713658279227" cy="490.1661500805512" fill="#2ca02c" opacity="0.75" r="4"/>
  <circle cx="519.5302649505468" cy="476.028089037695" fill="#2ca02c" opacity="0.75" r="4"/>
  <circle cx="410.5953935504849" cy="499.3642020750944" fill="#1f77b4" opacity="0.75" r="4"/>
  <circle cx="681.0502000987065" cy="308.88457064910165" fill="#ff7f0e" opacity="0.75" r="4"/>
  <circle cx="552.6934339610368" cy="377.1889575954185" fill="#ff7f0e" opacity="0.75" r="4"/>
  <circle cx="832.3575187585132" cy="372.3197554086479" fill="#1f77b4" opacity="0.75" r="4"/>
  <circle cx="641.8030507705024" cy="445.24409374964625" fill="#1f77b4" opacity="0.75" r="4"/>
  <circle cx="549.268440105429" cy="457.65214961938926" fill="#1f77b4" opacity="0.75" r="4"/>
  <circle cx="614.7474710501525" cy="325.6815777143398" fill="#2ca02c" opacity="0.75" r="4"/>
  <circle cx="609.789184769166" cy="378.14299969785014" fill="#2ca02c" opacity="0.75" r="4"/>
  <circle cx="799.4338064520902" cy="390.64893478654614" fill="#ff7f0e" opacity="0.75" r="4"/>
  <circle cx="700.1745497674564" cy="431.35067457841626" fill="#1f77b4" opacity="0.75" r="4"/>
  <circle cx="703.1700381019907" cy="398.947909921754" fill="#1f77b4" opacity="0.75" r="4"/>
  <circle cx="634.7550823807962" cy="408.3227942435216" fill="#2ca02c" opacity="0.75" r="4"/>
  <circle cx="620.5460892507429" cy="443.7554330378093" fill="#2ca02c" opacity="0.75" r="4"/>
  <circle cx="503.0652871100394" cy="488.44094601027876" fill="#2ca02c" opacity="0.75" r="4"/>
  <circle cx="712.287833870858" cy="457.2363640809785" fill="#1f77b4" opacity="0.75" r="4"/>
  <circle cx="535.7055314938659" cy="400.46159053329865" fill="#2ca02c" opacity="0.75" r="4"/>
  <circle cx="770.707784361526" cy="431.5192623838457" fill="#2ca02c" opacity="0.75" r="4"/>
  <circle cx="674.8357809434409" cy="403.26993481035504" fill="#1f77b4" opacity="0.75" r="4"/>
  <circle cx="669.3072319991213" cy="325.61495628783814" fill="#1f77b4" opacity="0.75" r="4"/>
  <circle cx="607.0479309773249" cy="259.79472314269833" fill="#1f77b4" opacity="0.75" r="4"/>
  <circle cx="667.5251622733847" cy="398.6351785306724" fill="#1f77b4" opacity="0.75" r="4"/>
  <circle cx="612.5368836808086" cy="362.5506368272161" fill="#ff7f0e" opacity="0.75" r="4"/>
  <circle cx="619.0697025173183" cy="537.9032379046912" fill="#1f77b4" opacity="0.75" r="4"/>
  <circle cx="606.9863335436241" cy="372.9442517397228" fill="#2ca02c" opacity="0.75" r="4"/>
  <circle cx="681.3438446955764" cy="392.90888996674903" fill="#ff7f0e" opacity="0.75" r="4"/>
  <circle cx="575.2966764578528" cy="392.62636610093614" fill="#1f77b4" opacity="0.75" r="4"/>
  <circle cx="654.0879845586807" cy="396.97406885563106" fill="#ff7f0e" opacity="0.75" r="4"/>
  <circle cx="529.8561351965808" cy="485.87182627128186" fill="#2ca02c" opacity="0.75" r="4"/>
  <circle cx="585.1066981795009" cy="413.8329102912903" fill="#2ca02c" opacity="0.75" r="4"/>
  <circle cx="614.165407950915" cy="377.5755190104768" fill="#ff7f0e" opacity="0.75" r="4"/>
  <circle cx="568.1283113563336" cy="395.77119690295643" fill="#1f77b4" opacity="0.75" r="4"/>
  <circle cx="687.0214311000918" cy="433.49851106124385" fill="#2ca02c" opacity="0.75" r="4"/>
  <circle cx="728.6190807587712" cy="434.69352523265337" fill="#1f77b4" opacity="0.75" r="4"/>
  <circle cx="559.2955371584931" cy="420.04209436051883" fill="#ff7f0e" opacity="0.75" r="4"/>
  <circle cx="706.9447366331093" cy="334.17074894703694" fill="#1f77b4" opacity="0.75" r="4"/>
  <circle cx="706.9100058267262" cy="399.5999351604662" fill="#1f77b4" opacity="0.75" r="4"/>
  <circle cx="657.2574333012437" cy="407.73966457208417" fill="#ff7f0e" opacity="0.75" r="4"/>
  <circle cx="637.2188350557868" cy="372.2663600257073" fill="#1f77b4" opacity="0.75" r="4"/>
  <circle cx="790.3895192515157" cy="421.1873661643772" fill="#1f77b4" opacity="0.75" r="4"/>
  <circle cx="667.7861495455884" cy="433.4332937128031" fill="#2ca02c" opacity="0.75" r="4"/>
  <circle cx="528.3116838174316" cy="454.82744598126544" fill="#1f77b4" opacity="0.75" r="4"/>
  <circle cx="612.711822769953" cy="398.80453248810625" fill="#2ca02c" opacity="0.75" r="4"/>
  <circle cx="657.7040461607093" cy="384.8909118407818" fill="#ff7f0e" opacity="0.75" r="4"/>
  <circle cx="751.6099237711954" cy="443.8677252234899" fill="#2ca02c" opacity="0.75" r="4"/>
  <circle cx="690.9922653295602" cy="472.16593793095353" fill="#1f77b4" opacity="0.75" r="4"/>
  <circle cx="638.7933411208264" cy="332.31078207063456" fill="#1f77b4" opacity="0.75" r="4"/>
  <circle cx="488.65712079002475" cy="392.2443632446599" fill="#ff7f0e" opacity="0.75" r="4"/>
  <circle cx="734.3793713946269" cy="434.02089678021326" fill="#2ca02c" opacity="0.75" r="4"/>
  <circle cx="622.1534091060789" cy="438.8642825463656" fill="#2ca02c" opacity="0.75" r="4"/>
  <circle cx="675.0667456597716" cy="419.68277909595764" fill="#2ca02c" opacity="0.75" r="4"/>
  <circle cx="691.7741755081407" cy="470.92685604828404" fill="#ff7f0e" opacity="0.75" r="4"/>
  <circle cx="798.7703193526097" cy="392.92587809858736" fill="#ff7f0e" opacity="0.75" r="4"/>
  <circle cx="595.7786300981745" cy="377.4895839513455" fill="#1f77b4" opacity="0.75" r="4"/>
  <circle cx="578.9822497169507" cy="340.3507901167884" fill="#1f77b4" opacity="0.75" r="4"/>
  <circle cx="630.2632548980318" cy="479.22200148471615" fill="#1f77b4" opacity="0.75" r="4"/>
  <circle cx="478.3192169088762" cy="398.01016335119544" fill="#1f77b4" opacity="0.75" r="4"/>
  <circle cx="481.4600086491756" cy="567.7932825336486" fill="#2ca02c" opacity="0.75" r="4"/>
  <circle cx="469.85602781187697" cy="620.4548066886186" fill="#2ca02c" opacity="0.75" r="4"/>
  <circle cx="544.964657858889" cy="567.280911888158" fill="#2ca02c" opacity="0.75" r="4"/>
  <circle cx="516.216625123081" cy="539.2240367021977" fill="#2ca02c" opacity="0.75" r="4"/>
  <circle cx="500.754195703702" cy="582.3137597303339" fill="#1f77b4" opacity="0.75" r="4"/>
  <circle cx="656.648887980057" cy="588.9684387023322" fill="#1f77b4" opacity="0.75" r="4"/>
  <circle cx="511.39428236640185" cy="542.1067190978692" fill="#1f77b4" opacity="0.75" r="4"/>
  <circle cx="472.86924268436496" cy="555.4787946730935" fill="#2ca02c" opacity="0.75" r="4"/>
  <circle cx="591.8758167533372" cy="566.9320998784754" fill="#ff7f0e" opacity="0.75" r="4"/>
  <circle cx="597.9393567716832" cy="673.423248105923" fill="#ff7f0e" opacity="0.75" r="4"/>
  <circle cx="454.12968798014555" cy="603.2636439608958" fill="#2ca02c" opacity="0.75" r="4"/>
  <circle cx="555.377241962525" cy="610.2348792632872" fill="#1f77b4" opacity="0.75" r="4"/>
  <circle cx="534.8059161583378" cy="597.9759595423324" fill="#2ca02c" opacity="0.75" r="4"/>
  <circle cx="556.0426433856828" cy="604.1280417373673" fill="#ff7f0e" opacity="0.75" r="4"/>
  <circle cx="629.0323986588371" cy="578.9159436356161" fill="#1f77b4" opacity="0.75" r="4"/>
  <circle cx="588.0235642914724" cy="559.848292016219" fill="#2ca02c" opacity="0.75" r="4"/>
  <circle cx="634.105262255032" cy="619.8273181005695" fill="#ff7f0e" opacity="0.75" r="4"/>
  <circle cx="552.9609785702849" cy="564.7802050372457" fill="#ff7f0e" opacity="0.75" r="4"/>
  <circle cx="515.4175402936505" cy="589.7325241742876" fill="#ff7f0e" opacity="0.75" r="4"/>
  <circle cx="542.8255045323896" cy="611.6955099562131" fill="#2ca02c" opacity="0.75" r="4"/>
  <circle cx="589.2645247868954" cy="638.34943720249" fill="#2ca02c" opacity="0.75" r="4"/>
  <circle cx="573.9737234478362" cy="611.9047283268237" fill="#1f77b4" opacity="0.75" r="4"/>
  <circle cx="650.2208558584903" cy="497.67476683678694" fill="#ff7f0e" opacity="0.75" r="4"/>
  <circle cx="643.9417224180261" cy="574.1217193334737" fill="#2ca02c" opacity="0.75" r="4"/>
  <circle cx="541.8268513276771" cy="577.5800334665504" fill="#ff7f0e" opacity="0.75" r="4"/>
  <circle cx="603.340932893664" cy="518.865234579931" fill="#2ca02c" opacity="0.75" r="4"/>
  <circle cx="509.24653396539645" cy="558.897151558705" fill="#2ca02c" opacity="0.75" r="4"/>
  <circle cx="520.3039627097667" cy="621.2563310565032" fill="#1f77b4" opacity="0.75" r="4"/>
  <circle cx="573.6881528489494" cy="593.5365006083182" fill="#2ca02c" opacity="0.75" r="4"/>
  <circle cx="602.0662709633448" cy="548.067444240041" fill="#ff7f0e" opacity="0.75" r="4"/>
  <circle cx="595.2730331475202" cy="609.0950185594683" fill="#2ca02c" opacity="0.75" r="4"/>
  <circle cx="651.1467359594882" cy="585.2055433847622" fill="#1f77b4" opacity="0.75" r="4"/>
  <circle cx="596.35136846208" cy="540.854635173127" fill="#2ca02c" opacity="0.75" r="4"/>
  <circle cx="544.3395862277575" cy="594.444772734503" fill="#1f77b4" opacity="0.75" r="4"/>
  <circle cx="552.8408392331041" cy="630.1287571361337" fill="#2ca02c" opacity="0.75" r="4"/>
  <circle cx="533.1209456309302" cy="569.4124844816603" fill="#ff7f0e" opacity="0.75" r="4"/>
  <circle cx="611.3458514399059" cy="589.965994245233" fill="#ff7f0e" opacity="0.75" r="4"/>
  <circle cx="491.6289163104064" cy="566.3335938929301" fill="#1f77b4" opacity="0.75" r="4"/>
  <circle cx="501.704573576907" cy="604.5916011069716" fill="#ff7f0e" opacity="0.75" r="4"/>
  <circle cx="600.2092122029428" cy="618.2087608777383" fill="#2ca02c" opacity="0.75" r="4"/>
  <circle cx="505.77219822972927" cy="649.4515742334022" fill="#1f77b4" opacity="0.75" r="4"/>
  <circle cx="551.745122872127" cy="610.1480664838318" fill="#2ca02c" opacity="0.75" r="4"/>
  <circle cx="428.6351709316938" cy="571.4222404750591" fill="#1f77b4" opacity="0.75" r="4"/>
  <circle cx="589.0008228334989" cy="604.2039576030932" fill="#ff7f0e" opacity="0.75" r="4"/>
  <circle cx="555.8086001568613" cy="621.7132562716544" fill="#1f77b4" opacity="0.75" r="4"/>
  <circle cx="577.8356742999938" cy="518.1804656124405" fill="#2ca02c" opacity="0.75" r="4"/>
  <circle cx="563.2629107194091" cy="563.4437571232213" fill="#1f77b4" opacity="0.75" r="4"/>
  <circle cx="484.6305365315962" cy="613.7788099096217" fill="#ff7f0e" opacity="0.75" r="4"/>
  <circle cx="395.2193698171867" cy="652.9059113042696" fill="#ff7f0e" opacity="0.75" r="4"/>
  <circle cx="504.0013825090369" cy="568.1395415351535" fill="#ff7f0e" opacity="0.75" r="4"/>
  <circle cx="462.87779868732855" cy="575.4228068311995" fill="#1f77b4" opacity="0.75" r="4"/>
  <circle cx="515.825332058183" cy="573.9694338753835" fill="#1f77b4" opacity="0.75" r="4"/>
  <circle cx="539.8615626446162" cy="568.3006584948672" fill="#ff7f0e" opacity="0.75" r="4"/>
  <circle cx="500.84070729284224" cy="549.4491235457022" fill="#2ca02c" opacity="0.75" r="4"/>
  <circle cx="563.6978573147603" cy="654.1311204717792" fill="#2ca02c" opacity="0.75" r="4"/>
  <circle cx="914.0" cy="244.0" fill="#d62728" opacity="0.9" r="7"/>
  <text fill="#333" font-family="Arial, Helvetica, sans-serif" font-size="16" text-anchor="middle" x="570.0" y="765">Dimension 1</text>
  <text fill="#333" font-family="Arial, Helvetica, sans-serif" font-size="16" text-anchor="middle" transform="rotate(-90,85,440.0)" x="85" y="440.0">Dimension 2</text>
  <text fill="#999" font-family="Arial, Helvetica, sans-serif" font-size="12" text-anchor="end" x="1140" y="776">Auto-generated SVG</text>
</svg>
