<?xml version="1.0" encoding="UTF-8" standalone="no"?>
<!DOCTYPE svg PUBLIC "-//W3C//DTD SVG 1.1//EN"
 "http://www.w3.org/Graphics/SVG/1.1/DTD/svg11.dtd">
<!-- Generated by graphviz version 2.43.0 (0)
 -->
<!-- Title: workflow Pages: 1 -->
<svg width="1008pt" height="101pt"
 viewBox="0.00 0.00 1008.00 101.49" xmlns="http://www.w3.org/2000/svg" xmlns:xlink="http://www.w3.org/1999/xlink">
<g id="graph0" class="graph" transform="scale(2.31 2.31) rotate(0) translate(4 40)">
<title>workflow</title>
<polygon fill="white" stroke="transparent" points="-4,4 -4,-40 433,-40 433,4 -4,4"/>
<!-- patient -->
<g id="node1" class="node">
<title>patient</title>
<path fill="#aec7e8" stroke="black" stroke-width="1.5" d="M42,-36C42,-36 12,-36 12,-36 6,-36 0,-30 0,-24 0,-24 0,-12 0,-12 0,-6 6,0 12,0 12,0 42,0 42,0 48,0 54,-6 54,-12 54,-12 54,-24 54,-24 54,-30 48,-36 42,-36"/>
<text text-anchor="middle" x="27" y="-20.8" font-family="Arial" font-size="9.00">Patient</text>
<text text-anchor="middle" x="27" y="-10.8" font-family="Arial" font-size="9.00">Data</text>
</g>
<!-- ehr -->
<g id="node2" class="node">
<title>ehr</title>
<path fill="#98df8a" stroke="black" stroke-width="1.5" d="M138,-36C138,-36 102,-36 102,-36 96,-36 90,-30 90,-24 90,-24 90,-12 90,-12 90,-6 96,0 102,0 102,0 138,0 138,0 144,0 150,-6 150,-12 150,-12 150,-24 150,-24 150,-30 144,-36 138,-36"/>
<text text-anchor="middle" x="120" y="-20.8" font-family="Arial" font-size="9.00">EHR</text>
<text text-anchor="middle" x="120" y="-10.8" font-family="Arial" font-size="9.00">Integration</text>
</g>
<!-- patient&#45;&gt;ehr -->
<g id="edge1" class="edge">
<title>patient&#45;&gt;ehr</title>
<path fill="none" stroke="black" d="M54.32,-18C62.23,-18 71.09,-18 79.65,-18"/>
<polygon fill="black" stroke="black" points="79.87,-21.5 89.87,-18 79.87,-14.5 79.87,-21.5"/>
</g>
<!-- fm -->
<g id="node3" class="node">
<title>fm</title>
<path fill="#9467bd" stroke="black" stroke-width="1.5" d="M237,-36C237,-36 198,-36 198,-36 192,-36 186,-30 186,-24 186,-24 186,-12 186,-12 186,-6 192,0 198,0 198,0 237,0 237,0 243,0 249,-6 249,-12 249,-12 249,-24 249,-24 249,-30 243,-36 237,-36"/>
<text text-anchor="middle" x="217.5" y="-20.8" font-family="Arial" font-size="9.00" fill="white">Foundation</text>
<text text-anchor="middle" x="217.5" y="-10.8" font-family="Arial" font-size="9.00" fill="white">Model</text>
</g>
<!-- ehr&#45;&gt;fm -->
<g id="edge2" class="edge">
<title>ehr&#45;&gt;fm</title>
<path fill="none" stroke="black" d="M150.17,-18C158.21,-18 167.07,-18 175.63,-18"/>
<polygon fill="black" stroke="black" points="175.85,-21.5 185.85,-18 175.85,-14.5 175.85,-21.5"/>
</g>
<!-- risk -->
<g id="node4" class="node">
<title>risk</title>
<path fill="#ffbb78" stroke="black" stroke-width="1.5" d="M327,-36C327,-36 297,-36 297,-36 291,-36 285,-30 285,-24 285,-24 285,-12 285,-12 285,-6 291,0 297,0 297,0 327,0 327,0 333,0 339,-6 339,-12 339,-12 339,-24 339,-24 339,-30 333,-36 327,-36"/>
<text text-anchor="middle" x="312" y="-20.8" font-family="Arial" font-size="9.00">Risk</text>
<text text-anchor="middle" x="312" y="-10.8" font-family="Arial" font-size="9.00">Score</text>
</g>
<!-- fm&#45;&gt;risk -->
<g id="edge3" class="edge">
<title>fm&#45;&gt;risk</title>
<path fill="none" stroke="black" d="M249.04,-18C257.27,-18 266.26,-18 274.77,-18"/>
<polygon fill="black" stroke="black" points="274.83,-21.5 284.83,-18 274.83,-14.5 274.83,-21.5"/>
</g>
<!-- decision -->
<g id="node5" class="node">
<title>decision</title>
<path fill="#2ca02c" stroke="black" stroke-width="1.5" d="M417,-36C417,-36 387,-36 387,-36 381,-36 375,-30 375,-24 375,-24 375,-12 375,-12 375,-6 381,0 387,0 387,0 417,0 417,0 423,0 429,-6 429,-12 429,-12 429,-24 429,-24 429,-30 423,-36 417,-36"/>
<text text-anchor="middle" x="402" y="-20.8" font-family="Arial" font-size="9.00" fill="white">Clinical</text>
<text text-anchor="middle" x="402" y="-10.8" font-family="Arial" font-size="9.00" fill="white">Decision</text>
</g>
<!-- risk&#45;&gt;decision -->
<g id="edge4" class="edge">
<title>risk&#45;&gt;decision</title>
<path fill="none" stroke="black" d="M339.4,-18C347.39,-18 356.31,-18 364.82,-18"/>
<polygon fill="black" stroke="black" points="364.92,-21.5 374.92,-18 364.92,-14.5 364.92,-21.5"/>
</g>
</g>
</svg>
