<?xml version="1.0" encoding="UTF-8" standalone="no"?>
<!DOCTYPE svg PUBLIC "-//W3C//DTD SVG 1.1//EN"
 "http://www.w3.org/Graphics/SVG/1.1/DTD/svg11.dtd">
<!-- Generated by graphviz version 2.43.0 (0)
 -->
<!-- Title: cardio Pages: 1 -->
<svg width="453pt" height="576pt"
 viewBox="0.00 0.00 452.83 576.00" xmlns="http://www.w3.org/2000/svg" xmlns:xlink="http://www.w3.org/1999/xlink">
<g id="graph0" class="graph" transform="scale(1.81 1.81) rotate(0) translate(4 314)">
<title>cardio</title>
<polygon fill="white" stroke="transparent" points="-4,4 -4,-314 246,-314 246,4 -4,4"/>
<g id="clust1" class="cluster">
<title>cluster_inputs</title>
<path fill="none" stroke="#555555" d="M20,-227C20,-227 222,-227 222,-227 228,-227 234,-233 234,-239 234,-239 234,-290 234,-290 234,-296 228,-302 222,-302 222,-302 20,-302 20,-302 14,-302 8,-296 8,-290 8,-290 8,-239 8,-239 8,-233 14,-227 20,-227"/>
<text text-anchor="middle" x="121" y="-286.8" font-family="Times,serif" font-size="14.00">Inputs</text>
</g>
<g id="clust2" class="cluster">
<title>cluster_outputs</title>
<path fill="none" stroke="#555555" d="M50,-8C50,-8 180,-8 180,-8 186,-8 192,-14 192,-20 192,-20 192,-71 192,-71 192,-77 186,-83 180,-83 180,-83 50,-83 50,-83 44,-83 38,-77 38,-71 38,-71 38,-20 38,-20 38,-14 44,-8 50,-8"/>
<text text-anchor="middle" x="115" y="-67.8" font-family="Times,serif" font-size="14.00">Actions</text>
</g>
<!-- prs -->
<g id="node1" class="node">
<title>prs</title>
<path fill="#aec7e8" stroke="black" stroke-width="1.5" d="M214,-271C214,-271 172,-271 172,-271 166,-271 160,-265 160,-259 160,-259 160,-247 160,-247 160,-241 166,-235 172,-235 172,-235 214,-235 214,-235 220,-235 226,-241 226,-247 226,-247 226,-259 226,-259 226,-265 220,-271 214,-271"/>
<text text-anchor="middle" x="193" y="-255.8" font-family="Arial" font-size="9.00">PRS</text>
<text text-anchor="middle" x="193" y="-245.8" font-family="Arial" font-size="9.00">(Traditional)</text>
</g>
<!-- integrate -->
<g id="node4" class="node">
<title>integrate</title>
<path fill="#9467bd" stroke="black" stroke-width="1.5" d="M133,-199C133,-199 97,-199 97,-199 91,-199 85,-193 85,-187 85,-187 85,-175 85,-175 85,-169 91,-163 97,-163 97,-163 133,-163 133,-163 139,-163 145,-169 145,-175 145,-175 145,-187 145,-187 145,-193 139,-199 133,-199"/>
<text text-anchor="middle" x="115" y="-183.8" font-family="Arial" font-size="9.00" fill="white">Integration</text>
<text text-anchor="middle" x="115" y="-173.8" font-family="Arial" font-size="9.00" fill="white">Model</text>
</g>
<!-- prs&#45;&gt;integrate -->
<g id="edge1" class="edge">
<title>prs&#45;&gt;integrate</title>
<path fill="none" stroke="black" d="M173.72,-234.7C164.08,-226.05 152.27,-215.45 141.77,-206.03"/>
<polygon fill="black" stroke="black" points="143.84,-203.18 134.06,-199.1 139.16,-208.39 143.84,-203.18"/>
</g>
<!-- dna -->
<g id="node2" class="node">
<title>dna</title>
<path fill="#1f77b4" stroke="black" stroke-width="1.5" d="M130,-271C130,-271 100,-271 100,-271 94,-271 88,-265 88,-259 88,-259 88,-247 88,-247 88,-241 94,-235 100,-235 100,-235 130,-235 130,-235 136,-235 142,-241 142,-247 142,-247 142,-259 142,-259 142,-265 136,-271 130,-271"/>
<text text-anchor="middle" x="115" y="-255.8" font-family="Arial" font-size="9.00" fill="white">DNA&#45;FM</text>
<text text-anchor="middle" x="115" y="-245.8" font-family="Arial" font-size="9.00" fill="white">Scores</text>
</g>
<!-- dna&#45;&gt;integrate -->
<g id="edge2" class="edge">
<title>dna&#45;&gt;integrate</title>
<path fill="none" stroke="black" d="M115,-234.7C115,-226.98 115,-217.71 115,-209.11"/>
<polygon fill="black" stroke="black" points="118.5,-209.1 115,-199.1 111.5,-209.1 118.5,-209.1"/>
</g>
<!-- clinical -->
<g id="node3" class="node">
<title>clinical</title>
<path fill="#98df8a" stroke="black" stroke-width="1.5" d="M58,-271C58,-271 28,-271 28,-271 22,-271 16,-265 16,-259 16,-259 16,-247 16,-247 16,-241 22,-235 28,-235 28,-235 58,-235 58,-235 64,-235 70,-241 70,-247 70,-247 70,-259 70,-259 70,-265 64,-271 58,-271"/>
<text text-anchor="middle" x="43" y="-255.8" font-family="Arial" font-size="9.00">Clinical</text>
<text text-anchor="middle" x="43" y="-245.8" font-family="Arial" font-size="9.00">Features</text>
</g>
<!-- clinical&#45;&gt;integrate -->
<g id="edge3" class="edge">
<title>clinical&#45;&gt;integrate</title>
<path fill="none" stroke="black" d="M60.8,-234.7C69.6,-226.14 80.38,-215.66 90,-206.3"/>
<polygon fill="black" stroke="black" points="92.68,-208.58 97.41,-199.1 87.8,-203.57 92.68,-208.58"/>
</g>
<!-- risk -->
<g id="node5" class="node">
<title>risk</title>
<path fill="#ff7f0e" stroke="black" stroke-width="1.5" d="M131,-127C131,-127 99,-127 99,-127 93,-127 87,-121 87,-115 87,-115 87,-103 87,-103 87,-97 93,-91 99,-91 99,-91 131,-91 131,-91 137,-91 143,-97 143,-103 143,-103 143,-115 143,-115 143,-121 137,-127 131,-127"/>
<text text-anchor="middle" x="115" y="-111.8" font-family="Arial" font-size="9.00">CVD Risk</text>
<text text-anchor="middle" x="115" y="-101.8" font-family="Arial" font-size="9.00">Score</text>
</g>
<!-- integrate&#45;&gt;risk -->
<g id="edge4" class="edge">
<title>integrate&#45;&gt;risk</title>
<path fill="none" stroke="black" d="M115,-162.7C115,-154.98 115,-145.71 115,-137.11"/>
<polygon fill="black" stroke="black" points="118.5,-137.1 115,-127.1 111.5,-137.1 118.5,-137.1"/>
</g>
<!-- screen -->
<g id="node6" class="node">
<title>screen</title>
<path fill="#2ca02c" stroke="black" stroke-width="1.5" d="M171.5,-52C171.5,-52 136.5,-52 136.5,-52 130.5,-52 124.5,-46 124.5,-40 124.5,-40 124.5,-28 124.5,-28 124.5,-22 130.5,-16 136.5,-16 136.5,-16 171.5,-16 171.5,-16 177.5,-16 183.5,-22 183.5,-28 183.5,-28 183.5,-40 183.5,-40 183.5,-46 177.5,-52 171.5,-52"/>
<text text-anchor="middle" x="154" y="-36.8" font-family="Arial" font-size="9.00" fill="white">Enhanced</text>
<text text-anchor="middle" x="154" y="-26.8" font-family="Arial" font-size="9.00" fill="white">Screening</text>
</g>
<!-- risk&#45;&gt;screen -->
<g id="edge5" class="edge">
<title>risk&#45;&gt;screen</title>
<path fill="none" stroke="black" d="M124.24,-90.7C128.95,-81.88 134.78,-70.97 140.03,-61.15"/>
<polygon fill="black" stroke="black" points="143.2,-62.65 144.82,-52.18 137.02,-59.35 143.2,-62.65"/>
</g>
<!-- therapy -->
<g id="node7" class="node">
<title>therapy</title>
<path fill="#2ca02c" stroke="black" stroke-width="1.5" d="M94,-52C94,-52 58,-52 58,-52 52,-52 46,-46 46,-40 46,-40 46,-28 46,-28 46,-22 52,-16 58,-16 58,-16 94,-16 94,-16 100,-16 106,-22 106,-28 106,-28 106,-40 106,-40 106,-46 100,-52 94,-52"/>
<text text-anchor="middle" x="76" y="-36.8" font-family="Arial" font-size="9.00" fill="white">Preventive</text>
<text text-anchor="middle" x="76" y="-26.8" font-family="Arial" font-size="9.00" fill="white">Therapy</text>
</g>
<!-- risk&#45;&gt;therapy -->
<g id="edge6" class="edge">
<title>risk&#45;&gt;therapy</title>
<path fill="none" stroke="black" d="M105.76,-90.7C101.05,-81.88 95.22,-70.97 89.97,-61.15"/>
<polygon fill="black" stroke="black" points="92.98,-59.35 85.18,-52.18 86.8,-62.65 92.98,-59.35"/>
</g>
</g>
</svg>
