<?xml version="1.0" encoding="UTF-8" standalone="no"?>
<!DOCTYPE svg PUBLIC "-//W3C//DTD SVG 1.1//EN"
 "http://www.w3.org/Graphics/SVG/1.1/DTD/svg11.dtd">
<!-- Generated by graphviz version 2.43.0 (0)
 -->
<!-- Title: variant_funnel Pages: 1 -->
<svg width="431pt" height="720pt"
 viewBox="0.00 0.00 431.42 720.00" xmlns="http://www.w3.org/2000/svg" xmlns:xlink="http://www.w3.org/1999/xlink">
<g id="graph0" class="graph" transform="scale(1.46 1.46) rotate(0) translate(4 490)">
<title>variant_funnel</title>
<polygon fill="white" stroke="transparent" points="-4,4 -4,-490 292,-490 292,4 -4,4"/>
<!-- all -->
<g id="node1" class="node">
<title>all</title>
<path fill="#aec7e8" stroke="#333333" stroke-width="1.5" d="M276,-486C276,-486 12,-486 12,-486 6,-486 0,-480 0,-474 0,-474 0,-462 0,-462 0,-456 6,-450 12,-450 12,-450 276,-450 276,-450 282,-450 288,-456 288,-462 288,-462 288,-474 288,-474 288,-480 282,-486 276,-486"/>
<text text-anchor="middle" x="144" y="-471" font-family="Arial" font-size="10.00">~4&#45;5 Million Variants</text>
<text text-anchor="middle" x="144" y="-460" font-family="Arial" font-size="10.00">(Whole Genome Sequencing)</text>
</g>
<!-- rare -->
<g id="node2" class="node">
<title>rare</title>
<path fill="#c6dbef" stroke="#333333" stroke-width="1.5" d="M258,-396C258,-396 30,-396 30,-396 24,-396 18,-390 18,-384 18,-384 18,-372 18,-372 18,-366 24,-360 30,-360 30,-360 258,-360 258,-360 264,-360 270,-366 270,-372 270,-372 270,-384 270,-384 270,-390 264,-396 258,-396"/>
<text text-anchor="middle" x="144" y="-381" font-family="Arial" font-size="10.00">~100,000 Rare Variants</text>
<text text-anchor="middle" x="144" y="-370" font-family="Arial" font-size="10.00">(MAF &lt; 1% in gnomAD)</text>
</g>
<!-- all&#45;&gt;rare -->
<g id="edge1" class="edge">
<title>all&#45;&gt;rare</title>
<path fill="none" stroke="#555555" stroke-width="1.2" d="M144,-449.61C144,-436.63 144,-418.7 144,-404.16"/>
<polygon fill="#555555" stroke="#555555" stroke-width="1.2" points="146.8,-404.05 144,-396.05 141.2,-404.05 146.8,-404.05"/>
<text text-anchor="middle" x="173.5" y="-425.6" font-family="Arial" font-size="8.00">Population</text>
<text text-anchor="middle" x="173.5" y="-416.6" font-family="Arial" font-size="8.00">Frequency Filter</text>
</g>
<!-- coding -->
<g id="node3" class="node">
<title>coding</title>
<path fill="#98df8a" stroke="#333333" stroke-width="1.5" d="M240,-306C240,-306 48,-306 48,-306 42,-306 36,-300 36,-294 36,-294 36,-282 36,-282 36,-276 42,-270 48,-270 48,-270 240,-270 240,-270 246,-270 252,-276 252,-282 252,-282 252,-294 252,-294 252,-300 246,-306 240,-306"/>
<text text-anchor="middle" x="144" y="-291" font-family="Arial" font-size="10.00">~25,000 Coding/Splice Variants</text>
<text text-anchor="middle" x="144" y="-280" font-family="Arial" font-size="10.00">(Protein&#45;altering or splice&#45;site)</text>
</g>
<!-- rare&#45;&gt;coding -->
<g id="edge2" class="edge">
<title>rare&#45;&gt;coding</title>
<path fill="none" stroke="#555555" stroke-width="1.2" d="M144,-359.61C144,-346.63 144,-328.7 144,-314.16"/>
<polygon fill="#555555" stroke="#555555" stroke-width="1.2" points="146.8,-314.05 144,-306.05 141.2,-314.05 146.8,-314.05"/>
<text text-anchor="middle" x="169" y="-335.6" font-family="Arial" font-size="8.00">Consequence</text>
<text text-anchor="middle" x="169" y="-326.6" font-family="Arial" font-size="8.00">Filter</text>
</g>
<!-- conserved -->
<g id="node4" class="node">
<title>conserved</title>
<path fill="#ffbb78" stroke="#333333" stroke-width="1.5" d="M222,-216C222,-216 66,-216 66,-216 60,-216 54,-210 54,-204 54,-204 54,-192 54,-192 54,-186 60,-180 66,-180 66,-180 222,-180 222,-180 228,-180 234,-186 234,-192 234,-192 234,-204 234,-204 234,-210 228,-216 222,-216"/>
<text text-anchor="middle" x="144" y="-201" font-family="Arial" font-size="10.00">~5,000 Conserved Positions</text>
<text text-anchor="middle" x="144" y="-190" font-family="Arial" font-size="10.00">(phyloP &gt; 2)</text>
</g>
<!-- coding&#45;&gt;conserved -->
<g id="edge3" class="edge">
<title>coding&#45;&gt;conserved</title>
<path fill="none" stroke="#555555" stroke-width="1.2" d="M144,-269.61C144,-256.63 144,-238.7 144,-224.16"/>
<polygon fill="#555555" stroke="#555555" stroke-width="1.2" points="146.8,-224.05 144,-216.05 141.2,-224.05 146.8,-224.05"/>
<text text-anchor="middle" x="168" y="-245.6" font-family="Arial" font-size="8.00">Conservation</text>
<text text-anchor="middle" x="168" y="-236.6" font-family="Arial" font-size="8.00">Filter</text>
</g>
<!-- highscore -->
<g id="node5" class="node">
<title>highscore</title>
<path fill="#c5b0d5" stroke="#333333" stroke-width="1.5" d="M204,-126C204,-126 84,-126 84,-126 78,-126 72,-120 72,-114 72,-114 72,-102 72,-102 72,-96 78,-90 84,-90 84,-90 204,-90 204,-90 210,-90 216,-96 216,-102 216,-102 216,-114 216,-114 216,-120 210,-126 204,-126"/>
<text text-anchor="middle" x="144" y="-111" font-family="Arial" font-size="10.00">~500 High&#45;Scoring Variants</text>
<text text-anchor="middle" x="144" y="-100" font-family="Arial" font-size="10.00">(CADD ≥ 20)</text>
</g>
<!-- conserved&#45;&gt;highscore -->
<g id="edge4" class="edge">
<title>conserved&#45;&gt;highscore</title>
<path fill="none" stroke="#555555" stroke-width="1.2" d="M144,-179.61C144,-166.63 144,-148.7 144,-134.16"/>
<polygon fill="#555555" stroke="#555555" stroke-width="1.2" points="146.8,-134.05 144,-126.05 141.2,-134.05 146.8,-134.05"/>
<text text-anchor="middle" x="162" y="-155.6" font-family="Arial" font-size="8.00">Ensemble</text>
<text text-anchor="middle" x="162" y="-146.6" font-family="Arial" font-size="8.00">Scoring</text>
</g>
<!-- final -->
<g id="node6" class="node">
<title>final</title>
<path fill="#d62728" stroke="#333333" stroke-width="1.5" d="M186,-36C186,-36 102,-36 102,-36 96,-36 90,-30 90,-24 90,-24 90,-12 90,-12 90,-6 96,0 102,0 102,0 186,0 186,0 192,0 198,-6 198,-12 198,-12 198,-24 198,-24 198,-30 192,-36 186,-36"/>
<text text-anchor="middle" x="144" y="-21" font-family="Arial" font-size="10.00" fill="white">50&#45;100 Candidates</text>
<text text-anchor="middle" x="144" y="-10" font-family="Arial" font-size="10.00" fill="white">(Expert Review)</text>
</g>
<!-- highscore&#45;&gt;final -->
<g id="edge5" class="edge">
<title>highscore&#45;&gt;final</title>
<path fill="none" stroke="#555555" stroke-width="1.2" d="M144,-89.61C144,-76.63 144,-58.7 144,-44.16"/>
<polygon fill="#555555" stroke="#555555" stroke-width="1.2" points="146.8,-44.05 144,-36.05 141.2,-44.05 146.8,-44.05"/>
<text text-anchor="middle" x="166" y="-65.6" font-family="Arial" font-size="8.00">Clinical</text>
<text text-anchor="middle" x="166" y="-56.6" font-family="Arial" font-size="8.00">Prioritization</text>
</g>
</g>
</svg>
