<?xml version="1.0" encoding="utf-8" standalone="no"?>
<!DOCTYPE svg PUBLIC "-//W3C//DTD SVG 1.1//EN"
  "http://www.w3.org/Graphics/SVG/1.1/DTD/svg11.dtd">
<svg xmlns:xlink="http://www.w3.org/1999/xlink" width="568.8pt" height="297.36pt" viewBox="0 0 568.8 297.36" xmlns="http://www.w3.org/2000/svg" version="1.1">
 <metadata>
  <rdf:RDF xmlns:dc="http://purl.org/dc/elements/1.1/" xmlns:cc="http://creativecommons.org/ns#" xmlns:rdf="http://www.w3.org/1999/02/22-rdf-syntax-ns#">
   <cc:Work>
    <dc:type rdf:resource="http://purl.org/dc/dcmitype/StillImage"/>
    <dc:date>2026-01-08T05:38:01.013523</dc:date>
    <dc:format>image/svg+xml</dc:format>
    <dc:creator>
     <cc:Agent>
      <dc:title>Matplotlib v3.10.7, https://matplotlib.org/</dc:title>
     </cc:Agent>
    </dc:creator>
   </cc:Work>
  </rdf:RDF>
 </metadata>
 <defs>
  <style type="text/css">*{stroke-linejoin: round; stroke-linecap: butt}</style>
 </defs>
 <g id="figure_1">
  <g id="patch_1">
   <path d="M 0 297.36 
L 568.8 297.36 
L 568.8 0 
L 0 0 
z
" style="fill: #ffffff"/>
  </g>
  <g id="axes_1">
   <g id="patch_2">
    <path d="M 152.16 104.155422 
L 224.64 104.155422 
Q 228.264 104.155422 228.264 103.488738 
L 228.264 76.821415 
Q 228.264 76.154732 224.64 76.154732 
L 152.16 76.154732 
Q 148.536 76.154732 148.536 76.821415 
L 148.536 103.488738 
Q 148.536 104.155422 152.16 104.155422 
z
" clip-path="url(#p3ad576fec5)" style="fill: #1f77b4; stroke: #ffffff; stroke-width: 2; stroke-linejoin: miter"/>
   </g>
   <g id="patch_3">
    <path d="M 152.16 137.489575 
L 224.64 137.489575 
Q 228.264 137.489575 228.264 136.822892 
L 228.264 110.155569 
Q 228.264 109.488886 224.64 109.488886 
L 152.16 109.488886 
Q 148.536 109.488886 148.536 110.155569 
L 148.536 136.822892 
Q 148.536 137.489575 152.16 137.489575 
z
" clip-path="url(#p3ad576fec5)" style="fill: #1f77b4; stroke: #ffffff; stroke-width: 2; stroke-linejoin: miter"/>
   </g>
   <g id="patch_4">
    <path d="M 152.16 170.823729 
L 224.64 170.823729 
Q 228.264 170.823729 228.264 170.157046 
L 228.264 143.489723 
Q 228.264 142.82304 224.64 142.82304 
L 152.16 142.82304 
Q 148.536 142.82304 148.536 143.489723 
L 148.536 170.157046 
Q 148.536 170.823729 152.16 170.823729 
z
" clip-path="url(#p3ad576fec5)" style="fill: #1f77b4; stroke: #ffffff; stroke-width: 2; stroke-linejoin: miter"/>
   </g>
   <g id="patch_5">
    <path d="M 152.16 204.157883 
L 224.64 204.157883 
Q 228.264 204.157883 228.264 203.4912 
L 228.264 176.823877 
Q 228.264 176.157194 224.64 176.157194 
L 152.16 176.157194 
Q 148.536 176.157194 148.536 176.823877 
L 148.536 203.4912 
Q 148.536 204.157883 152.16 204.157883 
z
" clip-path="url(#p3ad576fec5)" style="fill: #1f77b4; stroke: #ffffff; stroke-width: 2; stroke-linejoin: miter"/>
   </g>
   <g id="patch_6">
    <path d="M 152.16 237.492037 
L 224.64 237.492037 
Q 228.264 237.492037 228.264 236.825354 
L 228.264 210.158031 
Q 228.264 209.491348 224.64 209.491348 
L 152.16 209.491348 
Q 148.536 209.491348 148.536 210.158031 
L 148.536 236.825354 
Q 148.536 237.492037 152.16 237.492037 
z
" clip-path="url(#p3ad576fec5)" style="fill: #1f77b4; stroke: #ffffff; stroke-width: 2; stroke-linejoin: miter"/>
   </g>
   <g id="patch_7">
    <path d="M 152.16 270.826191 
L 224.64 270.826191 
Q 228.264 270.826191 228.264 270.159508 
L 228.264 243.492185 
Q 228.264 242.825502 224.64 242.825502 
L 152.16 242.825502 
Q 148.536 242.825502 148.536 243.492185 
L 148.536 270.159508 
Q 148.536 270.826191 152.16 270.826191 
z
" clip-path="url(#p3ad576fec5)" style="fill: #1f77b4; stroke: #ffffff; stroke-width: 2; stroke-linejoin: miter"/>
   </g>
   <g id="text_1">
    <!-- A -->
    <g style="fill: #ffffff" transform="translate(182.982656 94.018202) scale(0.14 -0.14)">
     <defs>
      <path id="DejaVuSans-Bold-41" d="M 3419 850 
L 1538 850 
L 1241 0 
L 31 0 
L 1759 4666 
L 3194 4666 
L 4922 0 
L 3713 0 
L 3419 850 
z
M 1838 1716 
L 3116 1716 
L 2478 3572 
L 1838 1716 
z
" transform="scale(0.015625)"/>
     </defs>
     <use xlink:href="#DejaVuSans-Bold-41"/>
    </g>
   </g>
   <g id="text_2">
    <!-- Human -->
    <g transform="translate(65.342344 92.638514) scale(0.09 -0.09)">
     <defs>
      <path id="DejaVuSans-48" d="M 628 4666 
L 1259 4666 
L 1259 2753 
L 3553 2753 
L 3553 4666 
L 4184 4666 
L 4184 0 
L 3553 0 
L 3553 2222 
L 1259 2222 
L 1259 0 
L 628 0 
L 628 4666 
z
" transform="scale(0.015625)"/>
      <path id="DejaVuSans-75" d="M 544 1381 
L 544 3500 
L 1119 3500 
L 1119 1403 
Q 1119 906 1312 657 
Q 1506 409 1894 409 
Q 2359 409 2629 706 
Q 2900 1003 2900 1516 
L 2900 3500 
L 3475 3500 
L 3475 0 
L 2900 0 
L 2900 538 
Q 2691 219 2414 64 
Q 2138 -91 1772 -91 
Q 1169 -91 856 284 
Q 544 659 544 1381 
z
M 1991 3584 
L 1991 3584 
z
" transform="scale(0.015625)"/>
      <path id="DejaVuSans-6d" d="M 3328 2828 
Q 3544 3216 3844 3400 
Q 4144 3584 4550 3584 
Q 5097 3584 5394 3201 
Q 5691 2819 5691 2113 
L 5691 0 
L 5113 0 
L 5113 2094 
Q 5113 2597 4934 2840 
Q 4756 3084 4391 3084 
Q 3944 3084 3684 2787 
Q 3425 2491 3425 1978 
L 3425 0 
L 2847 0 
L 2847 2094 
Q 2847 2600 2669 2842 
Q 2491 3084 2119 3084 
Q 1678 3084 1418 2786 
Q 1159 2488 1159 1978 
L 1159 0 
L 581 0 
L 581 3500 
L 1159 3500 
L 1159 2956 
Q 1356 3278 1631 3431 
Q 1906 3584 2284 3584 
Q 2666 3584 2933 3390 
Q 3200 3197 3328 2828 
z
" transform="scale(0.015625)"/>
      <path id="DejaVuSans-61" d="M 2194 1759 
Q 1497 1759 1228 1600 
Q 959 1441 959 1056 
Q 959 750 1161 570 
Q 1363 391 1709 391 
Q 2188 391 2477 730 
Q 2766 1069 2766 1631 
L 2766 1759 
L 2194 1759 
z
M 3341 1997 
L 3341 0 
L 2766 0 
L 2766 531 
Q 2569 213 2275 61 
Q 1981 -91 1556 -91 
Q 1019 -91 701 211 
Q 384 513 384 1019 
Q 384 1609 779 1909 
Q 1175 2209 1959 2209 
L 2766 2209 
L 2766 2266 
Q 2766 2663 2505 2880 
Q 2244 3097 1772 3097 
Q 1472 3097 1187 3025 
Q 903 2953 641 2809 
L 641 3341 
Q 956 3463 1253 3523 
Q 1550 3584 1831 3584 
Q 2591 3584 2966 3190 
Q 3341 2797 3341 1997 
z
" transform="scale(0.015625)"/>
      <path id="DejaVuSans-6e" d="M 3513 2113 
L 3513 0 
L 2938 0 
L 2938 2094 
Q 2938 2591 2744 2837 
Q 2550 3084 2163 3084 
Q 1697 3084 1428 2787 
Q 1159 2491 1159 1978 
L 1159 0 
L 581 0 
L 581 3500 
L 1159 3500 
L 1159 2956 
Q 1366 3272 1645 3428 
Q 1925 3584 2291 3584 
Q 2894 3584 3203 3211 
Q 3513 2838 3513 2113 
z
" transform="scale(0.015625)"/>
     </defs>
     <use xlink:href="#DejaVuSans-48"/>
     <use xlink:href="#DejaVuSans-75" transform="translate(75.195312 0)"/>
     <use xlink:href="#DejaVuSans-6d" transform="translate(138.574219 0)"/>
     <use xlink:href="#DejaVuSans-61" transform="translate(235.986328 0)"/>
     <use xlink:href="#DejaVuSans-6e" transform="translate(297.265625 0)"/>
    </g>
   </g>
   <g id="text_3">
    <!-- A -->
    <g style="fill: #ffffff" transform="translate(182.982656 127.352356) scale(0.14 -0.14)">
     <use xlink:href="#DejaVuSans-Bold-41"/>
    </g>
   </g>
   <g id="text_4">
    <!-- Chimp -->
    <g transform="translate(68.83125 125.972668) scale(0.09 -0.09)">
     <defs>
      <path id="DejaVuSans-43" d="M 4122 4306 
L 4122 3641 
Q 3803 3938 3442 4084 
Q 3081 4231 2675 4231 
Q 1875 4231 1450 3742 
Q 1025 3253 1025 2328 
Q 1025 1406 1450 917 
Q 1875 428 2675 428 
Q 3081 428 3442 575 
Q 3803 722 4122 1019 
L 4122 359 
Q 3791 134 3420 21 
Q 3050 -91 2638 -91 
Q 1578 -91 968 557 
Q 359 1206 359 2328 
Q 359 3453 968 4101 
Q 1578 4750 2638 4750 
Q 3056 4750 3426 4639 
Q 3797 4528 4122 4306 
z
" transform="scale(0.015625)"/>
      <path id="DejaVuSans-68" d="M 3513 2113 
L 3513 0 
L 2938 0 
L 2938 2094 
Q 2938 2591 2744 2837 
Q 2550 3084 2163 3084 
Q 1697 3084 1428 2787 
Q 1159 2491 1159 1978 
L 1159 0 
L 581 0 
L 581 4863 
L 1159 4863 
L 1159 2956 
Q 1366 3272 1645 3428 
Q 1925 3584 2291 3584 
Q 2894 3584 3203 3211 
Q 3513 2838 3513 2113 
z
" transform="scale(0.015625)"/>
      <path id="DejaVuSans-69" d="M 603 3500 
L 1178 3500 
L 1178 0 
L 603 0 
L 603 3500 
z
M 603 4863 
L 1178 4863 
L 1178 4134 
L 603 4134 
L 603 4863 
z
" transform="scale(0.015625)"/>
      <path id="DejaVuSans-70" d="M 1159 525 
L 1159 -1331 
L 581 -1331 
L 581 3500 
L 1159 3500 
L 1159 2969 
Q 1341 3281 1617 3432 
Q 1894 3584 2278 3584 
Q 2916 3584 3314 3078 
Q 3713 2572 3713 1747 
Q 3713 922 3314 415 
Q 2916 -91 2278 -91 
Q 1894 -91 1617 61 
Q 1341 213 1159 525 
z
M 3116 1747 
Q 3116 2381 2855 2742 
Q 2594 3103 2138 3103 
Q 1681 3103 1420 2742 
Q 1159 2381 1159 1747 
Q 1159 1113 1420 752 
Q 1681 391 2138 391 
Q 2594 391 2855 752 
Q 3116 1113 3116 1747 
z
" transform="scale(0.015625)"/>
     </defs>
     <use xlink:href="#DejaVuSans-43"/>
     <use xlink:href="#DejaVuSans-68" transform="translate(69.824219 0)"/>
     <use xlink:href="#DejaVuSans-69" transform="translate(133.203125 0)"/>
     <use xlink:href="#DejaVuSans-6d" transform="translate(160.986328 0)"/>
     <use xlink:href="#DejaVuSans-70" transform="translate(258.398438 0)"/>
    </g>
   </g>
   <g id="text_5">
    <!-- A -->
    <g style="fill: #ffffff" transform="translate(182.982656 160.68651) scale(0.14 -0.14)">
     <use xlink:href="#DejaVuSans-Bold-41"/>
    </g>
   </g>
   <g id="text_6">
    <!-- Mouse -->
    <g transform="translate(68.597812 159.306822) scale(0.09 -0.09)">
     <defs>
      <path id="DejaVuSans-4d" d="M 628 4666 
L 1569 4666 
L 2759 1491 
L 3956 4666 
L 4897 4666 
L 4897 0 
L 4281 0 
L 4281 4097 
L 3078 897 
L 2444 897 
L 1241 4097 
L 1241 0 
L 628 0 
L 628 4666 
z
" transform="scale(0.015625)"/>
      <path id="DejaVuSans-6f" d="M 1959 3097 
Q 1497 3097 1228 2736 
Q 959 2375 959 1747 
Q 959 1119 1226 758 
Q 1494 397 1959 397 
Q 2419 397 2687 759 
Q 2956 1122 2956 1747 
Q 2956 2369 2687 2733 
Q 2419 3097 1959 3097 
z
M 1959 3584 
Q 2709 3584 3137 3096 
Q 3566 2609 3566 1747 
Q 3566 888 3137 398 
Q 2709 -91 1959 -91 
Q 1206 -91 779 398 
Q 353 888 353 1747 
Q 353 2609 779 3096 
Q 1206 3584 1959 3584 
z
" transform="scale(0.015625)"/>
      <path id="DejaVuSans-73" d="M 2834 3397 
L 2834 2853 
Q 2591 2978 2328 3040 
Q 2066 3103 1784 3103 
Q 1356 3103 1142 2972 
Q 928 2841 928 2578 
Q 928 2378 1081 2264 
Q 1234 2150 1697 2047 
L 1894 2003 
Q 2506 1872 2764 1633 
Q 3022 1394 3022 966 
Q 3022 478 2636 193 
Q 2250 -91 1575 -91 
Q 1294 -91 989 -36 
Q 684 19 347 128 
L 347 722 
Q 666 556 975 473 
Q 1284 391 1588 391 
Q 1994 391 2212 530 
Q 2431 669 2431 922 
Q 2431 1156 2273 1281 
Q 2116 1406 1581 1522 
L 1381 1569 
Q 847 1681 609 1914 
Q 372 2147 372 2553 
Q 372 3047 722 3315 
Q 1072 3584 1716 3584 
Q 2034 3584 2315 3537 
Q 2597 3491 2834 3397 
z
" transform="scale(0.015625)"/>
      <path id="DejaVuSans-65" d="M 3597 1894 
L 3597 1613 
L 953 1613 
Q 991 1019 1311 708 
Q 1631 397 2203 397 
Q 2534 397 2845 478 
Q 3156 559 3463 722 
L 3463 178 
Q 3153 47 2828 -22 
Q 2503 -91 2169 -91 
Q 1331 -91 842 396 
Q 353 884 353 1716 
Q 353 2575 817 3079 
Q 1281 3584 2069 3584 
Q 2775 3584 3186 3129 
Q 3597 2675 3597 1894 
z
M 3022 2063 
Q 3016 2534 2758 2815 
Q 2500 3097 2075 3097 
Q 1594 3097 1305 2825 
Q 1016 2553 972 2059 
L 3022 2063 
z
" transform="scale(0.015625)"/>
     </defs>
     <use xlink:href="#DejaVuSans-4d"/>
     <use xlink:href="#DejaVuSans-6f" transform="translate(86.279297 0)"/>
     <use xlink:href="#DejaVuSans-75" transform="translate(147.460938 0)"/>
     <use xlink:href="#DejaVuSans-73" transform="translate(210.839844 0)"/>
     <use xlink:href="#DejaVuSans-65" transform="translate(262.939453 0)"/>
    </g>
   </g>
   <g id="text_7">
    <!-- A -->
    <g style="fill: #ffffff" transform="translate(182.982656 194.020663) scale(0.14 -0.14)">
     <use xlink:href="#DejaVuSans-Bold-41"/>
    </g>
   </g>
   <g id="text_8">
    <!-- Dog -->
    <g transform="translate(79.649531 192.640976) scale(0.09 -0.09)">
     <defs>
      <path id="DejaVuSans-44" d="M 1259 4147 
L 1259 519 
L 2022 519 
Q 2988 519 3436 956 
Q 3884 1394 3884 2338 
Q 3884 3275 3436 3711 
Q 2988 4147 2022 4147 
L 1259 4147 
z
M 628 4666 
L 1925 4666 
Q 3281 4666 3915 4102 
Q 4550 3538 4550 2338 
Q 4550 1131 3912 565 
Q 3275 0 1925 0 
L 628 0 
L 628 4666 
z
" transform="scale(0.015625)"/>
      <path id="DejaVuSans-67" d="M 2906 1791 
Q 2906 2416 2648 2759 
Q 2391 3103 1925 3103 
Q 1463 3103 1205 2759 
Q 947 2416 947 1791 
Q 947 1169 1205 825 
Q 1463 481 1925 481 
Q 2391 481 2648 825 
Q 2906 1169 2906 1791 
z
M 3481 434 
Q 3481 -459 3084 -895 
Q 2688 -1331 1869 -1331 
Q 1566 -1331 1297 -1286 
Q 1028 -1241 775 -1147 
L 775 -588 
Q 1028 -725 1275 -790 
Q 1522 -856 1778 -856 
Q 2344 -856 2625 -561 
Q 2906 -266 2906 331 
L 2906 616 
Q 2728 306 2450 153 
Q 2172 0 1784 0 
Q 1141 0 747 490 
Q 353 981 353 1791 
Q 353 2603 747 3093 
Q 1141 3584 1784 3584 
Q 2172 3584 2450 3431 
Q 2728 3278 2906 2969 
L 2906 3500 
L 3481 3500 
L 3481 434 
z
" transform="scale(0.015625)"/>
     </defs>
     <use xlink:href="#DejaVuSans-44"/>
     <use xlink:href="#DejaVuSans-6f" transform="translate(77.001953 0)"/>
     <use xlink:href="#DejaVuSans-67" transform="translate(138.183594 0)"/>
    </g>
   </g>
   <g id="text_9">
    <!-- A -->
    <g style="fill: #ffffff" transform="translate(182.982656 227.354817) scale(0.14 -0.14)">
     <use xlink:href="#DejaVuSans-Bold-41"/>
    </g>
   </g>
   <g id="text_10">
    <!-- Chicken -->
    <g transform="translate(62.235937 225.97513) scale(0.09 -0.09)">
     <defs>
      <path id="DejaVuSans-63" d="M 3122 3366 
L 3122 2828 
Q 2878 2963 2633 3030 
Q 2388 3097 2138 3097 
Q 1578 3097 1268 2742 
Q 959 2388 959 1747 
Q 959 1106 1268 751 
Q 1578 397 2138 397 
Q 2388 397 2633 464 
Q 2878 531 3122 666 
L 3122 134 
Q 2881 22 2623 -34 
Q 2366 -91 2075 -91 
Q 1284 -91 818 406 
Q 353 903 353 1747 
Q 353 2603 823 3093 
Q 1294 3584 2113 3584 
Q 2378 3584 2631 3529 
Q 2884 3475 3122 3366 
z
" transform="scale(0.015625)"/>
      <path id="DejaVuSans-6b" d="M 581 4863 
L 1159 4863 
L 1159 1991 
L 2875 3500 
L 3609 3500 
L 1753 1863 
L 3688 0 
L 2938 0 
L 1159 1709 
L 1159 0 
L 581 0 
L 581 4863 
z
" transform="scale(0.015625)"/>
     </defs>
     <use xlink:href="#DejaVuSans-43"/>
     <use xlink:href="#DejaVuSans-68" transform="translate(69.824219 0)"/>
     <use xlink:href="#DejaVuSans-69" transform="translate(133.203125 0)"/>
     <use xlink:href="#DejaVuSans-63" transform="translate(160.986328 0)"/>
     <use xlink:href="#DejaVuSans-6b" transform="translate(215.966797 0)"/>
     <use xlink:href="#DejaVuSans-65" transform="translate(270.251953 0)"/>
     <use xlink:href="#DejaVuSans-6e" transform="translate(331.775391 0)"/>
    </g>
   </g>
   <g id="text_11">
    <!-- A -->
    <g style="fill: #ffffff" transform="translate(182.982656 260.688971) scale(0.14 -0.14)">
     <use xlink:href="#DejaVuSans-Bold-41"/>
    </g>
   </g>
   <g id="text_12">
    <!-- Zebrafish -->
    <g transform="translate(55.107656 259.309284) scale(0.09 -0.09)">
     <defs>
      <path id="DejaVuSans-5a" d="M 359 4666 
L 4025 4666 
L 4025 4184 
L 1075 531 
L 4097 531 
L 4097 0 
L 288 0 
L 288 481 
L 3238 4134 
L 359 4134 
L 359 4666 
z
" transform="scale(0.015625)"/>
      <path id="DejaVuSans-62" d="M 3116 1747 
Q 3116 2381 2855 2742 
Q 2594 3103 2138 3103 
Q 1681 3103 1420 2742 
Q 1159 2381 1159 1747 
Q 1159 1113 1420 752 
Q 1681 391 2138 391 
Q 2594 391 2855 752 
Q 3116 1113 3116 1747 
z
M 1159 2969 
Q 1341 3281 1617 3432 
Q 1894 3584 2278 3584 
Q 2916 3584 3314 3078 
Q 3713 2572 3713 1747 
Q 3713 922 3314 415 
Q 2916 -91 2278 -91 
Q 1894 -91 1617 61 
Q 1341 213 1159 525 
L 1159 0 
L 581 0 
L 581 4863 
L 1159 4863 
L 1159 2969 
z
" transform="scale(0.015625)"/>
      <path id="DejaVuSans-72" d="M 2631 2963 
Q 2534 3019 2420 3045 
Q 2306 3072 2169 3072 
Q 1681 3072 1420 2755 
Q 1159 2438 1159 1844 
L 1159 0 
L 581 0 
L 581 3500 
L 1159 3500 
L 1159 2956 
Q 1341 3275 1631 3429 
Q 1922 3584 2338 3584 
Q 2397 3584 2469 3576 
Q 2541 3569 2628 3553 
L 2631 2963 
z
" transform="scale(0.015625)"/>
      <path id="DejaVuSans-66" d="M 2375 4863 
L 2375 4384 
L 1825 4384 
Q 1516 4384 1395 4259 
Q 1275 4134 1275 3809 
L 1275 3500 
L 2222 3500 
L 2222 3053 
L 1275 3053 
L 1275 0 
L 697 0 
L 697 3053 
L 147 3053 
L 147 3500 
L 697 3500 
L 697 3744 
Q 697 4328 969 4595 
Q 1241 4863 1831 4863 
L 2375 4863 
z
" transform="scale(0.015625)"/>
     </defs>
     <use xlink:href="#DejaVuSans-5a"/>
     <use xlink:href="#DejaVuSans-65" transform="translate(68.505859 0)"/>
     <use xlink:href="#DejaVuSans-62" transform="translate(130.029297 0)"/>
     <use xlink:href="#DejaVuSans-72" transform="translate(193.505859 0)"/>
     <use xlink:href="#DejaVuSans-61" transform="translate(234.619141 0)"/>
     <use xlink:href="#DejaVuSans-66" transform="translate(295.898438 0)"/>
     <use xlink:href="#DejaVuSans-69" transform="translate(331.103516 0)"/>
     <use xlink:href="#DejaVuSans-73" transform="translate(358.886719 0)"/>
     <use xlink:href="#DejaVuSans-68" transform="translate(410.986328 0)"/>
    </g>
   </g>
   <g id="text_13">
    <!-- Conserved Position -->
    <g transform="translate(83.308984 55.170406) scale(0.11 -0.11)">
     <defs>
      <path id="DejaVuSans-Bold-43" d="M 4288 256 
Q 3956 84 3597 -3 
Q 3238 -91 2847 -91 
Q 1681 -91 1000 561 
Q 319 1213 319 2328 
Q 319 3447 1000 4098 
Q 1681 4750 2847 4750 
Q 3238 4750 3597 4662 
Q 3956 4575 4288 4403 
L 4288 3438 
Q 3953 3666 3628 3772 
Q 3303 3878 2944 3878 
Q 2300 3878 1931 3465 
Q 1563 3053 1563 2328 
Q 1563 1606 1931 1193 
Q 2300 781 2944 781 
Q 3303 781 3628 887 
Q 3953 994 4288 1222 
L 4288 256 
z
" transform="scale(0.015625)"/>
      <path id="DejaVuSans-Bold-6f" d="M 2203 2784 
Q 1831 2784 1636 2517 
Q 1441 2250 1441 1747 
Q 1441 1244 1636 976 
Q 1831 709 2203 709 
Q 2569 709 2762 976 
Q 2956 1244 2956 1747 
Q 2956 2250 2762 2517 
Q 2569 2784 2203 2784 
z
M 2203 3584 
Q 3106 3584 3614 3096 
Q 4122 2609 4122 1747 
Q 4122 884 3614 396 
Q 3106 -91 2203 -91 
Q 1297 -91 786 396 
Q 275 884 275 1747 
Q 275 2609 786 3096 
Q 1297 3584 2203 3584 
z
" transform="scale(0.015625)"/>
      <path id="DejaVuSans-Bold-6e" d="M 4056 2131 
L 4056 0 
L 2931 0 
L 2931 347 
L 2931 1631 
Q 2931 2084 2911 2256 
Q 2891 2428 2841 2509 
Q 2775 2619 2662 2680 
Q 2550 2741 2406 2741 
Q 2056 2741 1856 2470 
Q 1656 2200 1656 1722 
L 1656 0 
L 538 0 
L 538 3500 
L 1656 3500 
L 1656 2988 
Q 1909 3294 2193 3439 
Q 2478 3584 2822 3584 
Q 3428 3584 3742 3212 
Q 4056 2841 4056 2131 
z
" transform="scale(0.015625)"/>
      <path id="DejaVuSans-Bold-73" d="M 3272 3391 
L 3272 2541 
Q 2913 2691 2578 2766 
Q 2244 2841 1947 2841 
Q 1628 2841 1473 2761 
Q 1319 2681 1319 2516 
Q 1319 2381 1436 2309 
Q 1553 2238 1856 2203 
L 2053 2175 
Q 2913 2066 3209 1816 
Q 3506 1566 3506 1031 
Q 3506 472 3093 190 
Q 2681 -91 1863 -91 
Q 1516 -91 1145 -36 
Q 775 19 384 128 
L 384 978 
Q 719 816 1070 734 
Q 1422 653 1784 653 
Q 2113 653 2278 743 
Q 2444 834 2444 1013 
Q 2444 1163 2330 1236 
Q 2216 1309 1875 1350 
L 1678 1375 
Q 931 1469 631 1722 
Q 331 1975 331 2491 
Q 331 3047 712 3315 
Q 1094 3584 1881 3584 
Q 2191 3584 2531 3537 
Q 2872 3491 3272 3391 
z
" transform="scale(0.015625)"/>
      <path id="DejaVuSans-Bold-65" d="M 4031 1759 
L 4031 1441 
L 1416 1441 
Q 1456 1047 1700 850 
Q 1944 653 2381 653 
Q 2734 653 3104 758 
Q 3475 863 3866 1075 
L 3866 213 
Q 3469 63 3072 -14 
Q 2675 -91 2278 -91 
Q 1328 -91 801 392 
Q 275 875 275 1747 
Q 275 2603 792 3093 
Q 1309 3584 2216 3584 
Q 3041 3584 3536 3087 
Q 4031 2591 4031 1759 
z
M 2881 2131 
Q 2881 2450 2695 2645 
Q 2509 2841 2209 2841 
Q 1884 2841 1681 2658 
Q 1478 2475 1428 2131 
L 2881 2131 
z
" transform="scale(0.015625)"/>
      <path id="DejaVuSans-Bold-72" d="M 3138 2547 
Q 2991 2616 2845 2648 
Q 2700 2681 2553 2681 
Q 2122 2681 1889 2404 
Q 1656 2128 1656 1613 
L 1656 0 
L 538 0 
L 538 3500 
L 1656 3500 
L 1656 2925 
Q 1872 3269 2151 3426 
Q 2431 3584 2822 3584 
Q 2878 3584 2943 3579 
Q 3009 3575 3134 3559 
L 3138 2547 
z
" transform="scale(0.015625)"/>
      <path id="DejaVuSans-Bold-76" d="M 97 3500 
L 1216 3500 
L 2088 1081 
L 2956 3500 
L 4078 3500 
L 2700 0 
L 1472 0 
L 97 3500 
z
" transform="scale(0.015625)"/>
      <path id="DejaVuSans-Bold-64" d="M 2919 2988 
L 2919 4863 
L 4044 4863 
L 4044 0 
L 2919 0 
L 2919 506 
Q 2688 197 2409 53 
Q 2131 -91 1766 -91 
Q 1119 -91 703 423 
Q 288 938 288 1747 
Q 288 2556 703 3070 
Q 1119 3584 1766 3584 
Q 2128 3584 2408 3439 
Q 2688 3294 2919 2988 
z
M 2181 722 
Q 2541 722 2730 984 
Q 2919 1247 2919 1747 
Q 2919 2247 2730 2509 
Q 2541 2772 2181 2772 
Q 1825 2772 1636 2509 
Q 1447 2247 1447 1747 
Q 1447 1247 1636 984 
Q 1825 722 2181 722 
z
" transform="scale(0.015625)"/>
      <path id="DejaVuSans-Bold-20" transform="scale(0.015625)"/>
      <path id="DejaVuSans-Bold-50" d="M 588 4666 
L 2584 4666 
Q 3475 4666 3951 4270 
Q 4428 3875 4428 3144 
Q 4428 2409 3951 2014 
Q 3475 1619 2584 1619 
L 1791 1619 
L 1791 0 
L 588 0 
L 588 4666 
z
M 1791 3794 
L 1791 2491 
L 2456 2491 
Q 2806 2491 2997 2661 
Q 3188 2831 3188 3144 
Q 3188 3456 2997 3625 
Q 2806 3794 2456 3794 
L 1791 3794 
z
" transform="scale(0.015625)"/>
      <path id="DejaVuSans-Bold-69" d="M 538 3500 
L 1656 3500 
L 1656 0 
L 538 0 
L 538 3500 
z
M 538 4863 
L 1656 4863 
L 1656 3950 
L 538 3950 
L 538 4863 
z
" transform="scale(0.015625)"/>
      <path id="DejaVuSans-Bold-74" d="M 1759 4494 
L 1759 3500 
L 2913 3500 
L 2913 2700 
L 1759 2700 
L 1759 1216 
Q 1759 972 1856 886 
Q 1953 800 2241 800 
L 2816 800 
L 2816 0 
L 1856 0 
Q 1194 0 917 276 
Q 641 553 641 1216 
L 641 2700 
L 84 2700 
L 84 3500 
L 641 3500 
L 641 4494 
L 1759 4494 
z
" transform="scale(0.015625)"/>
     </defs>
     <use xlink:href="#DejaVuSans-Bold-43"/>
     <use xlink:href="#DejaVuSans-Bold-6f" transform="translate(73.388672 0)"/>
     <use xlink:href="#DejaVuSans-Bold-6e" transform="translate(142.089844 0)"/>
     <use xlink:href="#DejaVuSans-Bold-73" transform="translate(213.28125 0)"/>
     <use xlink:href="#DejaVuSans-Bold-65" transform="translate(272.802734 0)"/>
     <use xlink:href="#DejaVuSans-Bold-72" transform="translate(340.625 0)"/>
     <use xlink:href="#DejaVuSans-Bold-76" transform="translate(389.941406 0)"/>
     <use xlink:href="#DejaVuSans-Bold-65" transform="translate(455.126953 0)"/>
     <use xlink:href="#DejaVuSans-Bold-64" transform="translate(522.949219 0)"/>
     <use xlink:href="#DejaVuSans-Bold-20" transform="translate(594.53125 0)"/>
     <use xlink:href="#DejaVuSans-Bold-50" transform="translate(629.345703 0)"/>
     <use xlink:href="#DejaVuSans-Bold-6f" transform="translate(702.636719 0)"/>
     <use xlink:href="#DejaVuSans-Bold-73" transform="translate(771.337891 0)"/>
     <use xlink:href="#DejaVuSans-Bold-69" transform="translate(830.859375 0)"/>
     <use xlink:href="#DejaVuSans-Bold-74" transform="translate(865.136719 0)"/>
     <use xlink:href="#DejaVuSans-Bold-69" transform="translate(912.939453 0)"/>
     <use xlink:href="#DejaVuSans-Bold-6f" transform="translate(947.216797 0)"/>
     <use xlink:href="#DejaVuSans-Bold-6e" transform="translate(1015.917969 0)"/>
    </g>
    <!-- (phyloP = 4.2) -->
    <g transform="translate(98.758828 67.488) scale(0.11 -0.11)">
     <defs>
      <path id="DejaVuSans-Bold-28" d="M 2413 -844 
L 1484 -844 
Q 1006 -72 778 623 
Q 550 1319 550 2003 
Q 550 2688 779 3389 
Q 1009 4091 1484 4856 
L 2413 4856 
Q 2013 4116 1813 3408 
Q 1613 2700 1613 2009 
Q 1613 1319 1811 609 
Q 2009 -100 2413 -844 
z
" transform="scale(0.015625)"/>
      <path id="DejaVuSans-Bold-70" d="M 1656 506 
L 1656 -1331 
L 538 -1331 
L 538 3500 
L 1656 3500 
L 1656 2988 
Q 1888 3294 2169 3439 
Q 2450 3584 2816 3584 
Q 3463 3584 3878 3070 
Q 4294 2556 4294 1747 
Q 4294 938 3878 423 
Q 3463 -91 2816 -91 
Q 2450 -91 2169 54 
Q 1888 200 1656 506 
z
M 2400 2772 
Q 2041 2772 1848 2508 
Q 1656 2244 1656 1747 
Q 1656 1250 1848 986 
Q 2041 722 2400 722 
Q 2759 722 2948 984 
Q 3138 1247 3138 1747 
Q 3138 2247 2948 2509 
Q 2759 2772 2400 2772 
z
" transform="scale(0.015625)"/>
      <path id="DejaVuSans-Bold-68" d="M 4056 2131 
L 4056 0 
L 2931 0 
L 2931 347 
L 2931 1625 
Q 2931 2084 2911 2256 
Q 2891 2428 2841 2509 
Q 2775 2619 2662 2680 
Q 2550 2741 2406 2741 
Q 2056 2741 1856 2470 
Q 1656 2200 1656 1722 
L 1656 0 
L 538 0 
L 538 4863 
L 1656 4863 
L 1656 2988 
Q 1909 3294 2193 3439 
Q 2478 3584 2822 3584 
Q 3428 3584 3742 3212 
Q 4056 2841 4056 2131 
z
" transform="scale(0.015625)"/>
      <path id="DejaVuSans-Bold-79" d="M 78 3500 
L 1197 3500 
L 2138 1125 
L 2938 3500 
L 4056 3500 
L 2584 -331 
Q 2363 -916 2067 -1148 
Q 1772 -1381 1288 -1381 
L 641 -1381 
L 641 -647 
L 991 -647 
Q 1275 -647 1404 -556 
Q 1534 -466 1606 -231 
L 1638 -134 
L 78 3500 
z
" transform="scale(0.015625)"/>
      <path id="DejaVuSans-Bold-6c" d="M 538 4863 
L 1656 4863 
L 1656 0 
L 538 0 
L 538 4863 
z
" transform="scale(0.015625)"/>
      <path id="DejaVuSans-Bold-3d" d="M 678 3084 
L 4684 3084 
L 4684 2350 
L 678 2350 
L 678 3084 
z
M 678 1663 
L 4684 1663 
L 4684 922 
L 678 922 
L 678 1663 
z
" transform="scale(0.015625)"/>
      <path id="DejaVuSans-Bold-34" d="M 2356 3675 
L 1038 1722 
L 2356 1722 
L 2356 3675 
z
M 2156 4666 
L 3494 4666 
L 3494 1722 
L 4159 1722 
L 4159 850 
L 3494 850 
L 3494 0 
L 2356 0 
L 2356 850 
L 288 850 
L 288 1881 
L 2156 4666 
z
" transform="scale(0.015625)"/>
      <path id="DejaVuSans-Bold-2e" d="M 653 1209 
L 1778 1209 
L 1778 0 
L 653 0 
L 653 1209 
z
" transform="scale(0.015625)"/>
      <path id="DejaVuSans-Bold-32" d="M 1844 884 
L 3897 884 
L 3897 0 
L 506 0 
L 506 884 
L 2209 2388 
Q 2438 2594 2547 2791 
Q 2656 2988 2656 3200 
Q 2656 3528 2436 3728 
Q 2216 3928 1850 3928 
Q 1569 3928 1234 3808 
Q 900 3688 519 3450 
L 519 4475 
Q 925 4609 1322 4679 
Q 1719 4750 2100 4750 
Q 2938 4750 3402 4381 
Q 3866 4013 3866 3353 
Q 3866 2972 3669 2642 
Q 3472 2313 2841 1759 
L 1844 884 
z
" transform="scale(0.015625)"/>
      <path id="DejaVuSans-Bold-29" d="M 513 -844 
Q 913 -100 1113 609 
Q 1313 1319 1313 2009 
Q 1313 2700 1113 3408 
Q 913 4116 513 4856 
L 1441 4856 
Q 1916 4091 2145 3389 
Q 2375 2688 2375 2003 
Q 2375 1319 2147 623 
Q 1919 -72 1441 -844 
L 513 -844 
z
" transform="scale(0.015625)"/>
     </defs>
     <use xlink:href="#DejaVuSans-Bold-28"/>
     <use xlink:href="#DejaVuSans-Bold-70" transform="translate(45.703125 0)"/>
     <use xlink:href="#DejaVuSans-Bold-68" transform="translate(117.285156 0)"/>
     <use xlink:href="#DejaVuSans-Bold-79" transform="translate(188.476562 0)"/>
     <use xlink:href="#DejaVuSans-Bold-6c" transform="translate(253.662109 0)"/>
     <use xlink:href="#DejaVuSans-Bold-6f" transform="translate(287.939453 0)"/>
     <use xlink:href="#DejaVuSans-Bold-50" transform="translate(356.640625 0)"/>
     <use xlink:href="#DejaVuSans-Bold-20" transform="translate(429.931641 0)"/>
     <use xlink:href="#DejaVuSans-Bold-3d" transform="translate(464.746094 0)"/>
     <use xlink:href="#DejaVuSans-Bold-20" transform="translate(548.535156 0)"/>
     <use xlink:href="#DejaVuSans-Bold-34" transform="translate(583.349609 0)"/>
     <use xlink:href="#DejaVuSans-Bold-2e" transform="translate(652.929688 0)"/>
     <use xlink:href="#DejaVuSans-Bold-32" transform="translate(690.917969 0)"/>
     <use xlink:href="#DejaVuSans-Bold-29" transform="translate(760.498047 0)"/>
    </g>
   </g>
  </g>
  <g id="axes_2">
   <g id="patch_8">
    <path d="M 434.76 104.155422 
L 507.24 104.155422 
Q 510.864 104.155422 510.864 103.488738 
L 510.864 76.821415 
Q 510.864 76.154732 507.24 76.154732 
L 434.76 76.154732 
Q 431.136 76.154732 431.136 76.821415 
L 431.136 103.488738 
Q 431.136 104.155422 434.76 104.155422 
z
" clip-path="url(#p0af15cd6cd)" style="fill: #ff7f0e; stroke: #ffffff; stroke-width: 2; stroke-linejoin: miter"/>
   </g>
   <g id="patch_9">
    <path d="M 434.76 137.489575 
L 507.24 137.489575 
Q 510.864 137.489575 510.864 136.822892 
L 510.864 110.155569 
Q 510.864 109.488886 507.24 109.488886 
L 434.76 109.488886 
Q 431.136 109.488886 431.136 110.155569 
L 431.136 136.822892 
Q 431.136 137.489575 434.76 137.489575 
z
" clip-path="url(#p0af15cd6cd)" style="fill: #ff7f0e; stroke: #ffffff; stroke-width: 2; stroke-linejoin: miter"/>
   </g>
   <g id="patch_10">
    <path d="M 434.76 170.823729 
L 507.24 170.823729 
Q 510.864 170.823729 510.864 170.157046 
L 510.864 143.489723 
Q 510.864 142.82304 507.24 142.82304 
L 434.76 142.82304 
Q 431.136 142.82304 431.136 143.489723 
L 431.136 170.157046 
Q 431.136 170.823729 434.76 170.823729 
z
" clip-path="url(#p0af15cd6cd)" style="fill: #2ca02c; stroke: #ffffff; stroke-width: 2; stroke-linejoin: miter"/>
   </g>
   <g id="patch_11">
    <path d="M 434.76 204.157883 
L 507.24 204.157883 
Q 510.864 204.157883 510.864 203.4912 
L 510.864 176.823877 
Q 510.864 176.157194 507.24 176.157194 
L 434.76 176.157194 
Q 431.136 176.157194 431.136 176.823877 
L 431.136 203.4912 
Q 431.136 204.157883 434.76 204.157883 
z
" clip-path="url(#p0af15cd6cd)" style="fill: #d62728; stroke: #ffffff; stroke-width: 2; stroke-linejoin: miter"/>
   </g>
   <g id="patch_12">
    <path d="M 434.76 237.492037 
L 507.24 237.492037 
Q 510.864 237.492037 510.864 236.825354 
L 510.864 210.158031 
Q 510.864 209.491348 507.24 209.491348 
L 434.76 209.491348 
Q 431.136 209.491348 431.136 210.158031 
L 431.136 236.825354 
Q 431.136 237.492037 434.76 237.492037 
z
" clip-path="url(#p0af15cd6cd)" style="fill: #1f77b4; stroke: #ffffff; stroke-width: 2; stroke-linejoin: miter"/>
   </g>
   <g id="patch_13">
    <path d="M 434.76 270.826191 
L 507.24 270.826191 
Q 510.864 270.826191 510.864 270.159508 
L 510.864 243.492185 
Q 510.864 242.825502 507.24 242.825502 
L 434.76 242.825502 
Q 431.136 242.825502 431.136 243.492185 
L 431.136 270.159508 
Q 431.136 270.826191 434.76 270.826191 
z
" clip-path="url(#p0af15cd6cd)" style="fill: #2ca02c; stroke: #ffffff; stroke-width: 2; stroke-linejoin: miter"/>
   </g>
   <g id="text_14">
    <!-- G -->
    <g style="fill: #ffffff" transform="translate(465.254531 94.018202) scale(0.14 -0.14)">
     <defs>
      <path id="DejaVuSans-Bold-47" d="M 4781 347 
Q 4331 128 3847 18 
Q 3363 -91 2847 -91 
Q 1681 -91 1000 561 
Q 319 1213 319 2328 
Q 319 3456 1012 4103 
Q 1706 4750 2913 4750 
Q 3378 4750 3804 4662 
Q 4231 4575 4609 4403 
L 4609 3438 
Q 4219 3659 3833 3768 
Q 3447 3878 3059 3878 
Q 2341 3878 1952 3476 
Q 1563 3075 1563 2328 
Q 1563 1588 1938 1184 
Q 2313 781 3003 781 
Q 3191 781 3352 804 
Q 3513 828 3641 878 
L 3641 1784 
L 2906 1784 
L 2906 2591 
L 4781 2591 
L 4781 347 
z
" transform="scale(0.015625)"/>
     </defs>
     <use xlink:href="#DejaVuSans-Bold-47"/>
    </g>
   </g>
   <g id="text_15">
    <!-- Human -->
    <g transform="translate(347.942344 92.638514) scale(0.09 -0.09)">
     <use xlink:href="#DejaVuSans-48"/>
     <use xlink:href="#DejaVuSans-75" transform="translate(75.195312 0)"/>
     <use xlink:href="#DejaVuSans-6d" transform="translate(138.574219 0)"/>
     <use xlink:href="#DejaVuSans-61" transform="translate(235.986328 0)"/>
     <use xlink:href="#DejaVuSans-6e" transform="translate(297.265625 0)"/>
    </g>
   </g>
   <g id="text_16">
    <!-- G -->
    <g style="fill: #ffffff" transform="translate(465.254531 127.352356) scale(0.14 -0.14)">
     <use xlink:href="#DejaVuSans-Bold-47"/>
    </g>
   </g>
   <g id="text_17">
    <!-- Chimp -->
    <g transform="translate(351.43125 125.972668) scale(0.09 -0.09)">
     <use xlink:href="#DejaVuSans-43"/>
     <use xlink:href="#DejaVuSans-68" transform="translate(69.824219 0)"/>
     <use xlink:href="#DejaVuSans-69" transform="translate(133.203125 0)"/>
     <use xlink:href="#DejaVuSans-6d" transform="translate(160.986328 0)"/>
     <use xlink:href="#DejaVuSans-70" transform="translate(258.398438 0)"/>
    </g>
   </g>
   <g id="text_18">
    <!-- A -->
    <g style="fill: #ffffff" transform="translate(465.582656 160.68651) scale(0.14 -0.14)">
     <use xlink:href="#DejaVuSans-Bold-41"/>
    </g>
   </g>
   <g id="text_19">
    <!-- Mouse -->
    <g transform="translate(351.197812 159.306822) scale(0.09 -0.09)">
     <use xlink:href="#DejaVuSans-4d"/>
     <use xlink:href="#DejaVuSans-6f" transform="translate(86.279297 0)"/>
     <use xlink:href="#DejaVuSans-75" transform="translate(147.460938 0)"/>
     <use xlink:href="#DejaVuSans-73" transform="translate(210.839844 0)"/>
     <use xlink:href="#DejaVuSans-65" transform="translate(262.939453 0)"/>
    </g>
   </g>
   <g id="text_20">
    <!-- T -->
    <g style="fill: #ffffff" transform="translate(466.224687 194.020663) scale(0.14 -0.14)">
     <defs>
      <path id="DejaVuSans-Bold-54" d="M 31 4666 
L 4331 4666 
L 4331 3756 
L 2784 3756 
L 2784 0 
L 1581 0 
L 1581 3756 
L 31 3756 
L 31 4666 
z
" transform="scale(0.015625)"/>
     </defs>
     <use xlink:href="#DejaVuSans-Bold-54"/>
    </g>
   </g>
   <g id="text_21">
    <!-- Dog -->
    <g transform="translate(362.249531 192.640976) scale(0.09 -0.09)">
     <use xlink:href="#DejaVuSans-44"/>
     <use xlink:href="#DejaVuSans-6f" transform="translate(77.001953 0)"/>
     <use xlink:href="#DejaVuSans-67" transform="translate(138.183594 0)"/>
    </g>
   </g>
   <g id="text_22">
    <!-- C -->
    <g style="fill: #ffffff" transform="translate(465.862656 227.354817) scale(0.14 -0.14)">
     <use xlink:href="#DejaVuSans-Bold-43"/>
    </g>
   </g>
   <g id="text_23">
    <!-- Chicken -->
    <g transform="translate(344.835937 225.97513) scale(0.09 -0.09)">
     <use xlink:href="#DejaVuSans-43"/>
     <use xlink:href="#DejaVuSans-68" transform="translate(69.824219 0)"/>
     <use xlink:href="#DejaVuSans-69" transform="translate(133.203125 0)"/>
     <use xlink:href="#DejaVuSans-63" transform="translate(160.986328 0)"/>
     <use xlink:href="#DejaVuSans-6b" transform="translate(215.966797 0)"/>
     <use xlink:href="#DejaVuSans-65" transform="translate(270.251953 0)"/>
     <use xlink:href="#DejaVuSans-6e" transform="translate(331.775391 0)"/>
    </g>
   </g>
   <g id="text_24">
    <!-- A -->
    <g style="fill: #ffffff" transform="translate(465.582656 260.688971) scale(0.14 -0.14)">
     <use xlink:href="#DejaVuSans-Bold-41"/>
    </g>
   </g>
   <g id="text_25">
    <!-- Zebrafish -->
    <g transform="translate(337.707656 259.309284) scale(0.09 -0.09)">
     <use xlink:href="#DejaVuSans-5a"/>
     <use xlink:href="#DejaVuSans-65" transform="translate(68.505859 0)"/>
     <use xlink:href="#DejaVuSans-62" transform="translate(130.029297 0)"/>
     <use xlink:href="#DejaVuSans-72" transform="translate(193.505859 0)"/>
     <use xlink:href="#DejaVuSans-61" transform="translate(234.619141 0)"/>
     <use xlink:href="#DejaVuSans-66" transform="translate(295.898438 0)"/>
     <use xlink:href="#DejaVuSans-69" transform="translate(331.103516 0)"/>
     <use xlink:href="#DejaVuSans-73" transform="translate(358.886719 0)"/>
     <use xlink:href="#DejaVuSans-68" transform="translate(410.986328 0)"/>
    </g>
   </g>
   <g id="text_26">
    <!-- Neutrally Evolving Position -->
    <g transform="translate(341.706406 55.084469) scale(0.11 -0.11)">
     <defs>
      <path id="DejaVuSans-Bold-4e" d="M 588 4666 
L 1931 4666 
L 3628 1466 
L 3628 4666 
L 4769 4666 
L 4769 0 
L 3425 0 
L 1728 3200 
L 1728 0 
L 588 0 
L 588 4666 
z
" transform="scale(0.015625)"/>
      <path id="DejaVuSans-Bold-75" d="M 500 1363 
L 500 3500 
L 1625 3500 
L 1625 3150 
Q 1625 2866 1622 2436 
Q 1619 2006 1619 1863 
Q 1619 1441 1641 1255 
Q 1663 1069 1716 984 
Q 1784 875 1895 815 
Q 2006 756 2150 756 
Q 2500 756 2700 1025 
Q 2900 1294 2900 1772 
L 2900 3500 
L 4019 3500 
L 4019 0 
L 2900 0 
L 2900 506 
Q 2647 200 2364 54 
Q 2081 -91 1741 -91 
Q 1134 -91 817 281 
Q 500 653 500 1363 
z
" transform="scale(0.015625)"/>
      <path id="DejaVuSans-Bold-61" d="M 2106 1575 
Q 1756 1575 1579 1456 
Q 1403 1338 1403 1106 
Q 1403 894 1545 773 
Q 1688 653 1941 653 
Q 2256 653 2472 879 
Q 2688 1106 2688 1447 
L 2688 1575 
L 2106 1575 
z
M 3816 1997 
L 3816 0 
L 2688 0 
L 2688 519 
Q 2463 200 2181 54 
Q 1900 -91 1497 -91 
Q 953 -91 614 226 
Q 275 544 275 1050 
Q 275 1666 698 1953 
Q 1122 2241 2028 2241 
L 2688 2241 
L 2688 2328 
Q 2688 2594 2478 2717 
Q 2269 2841 1825 2841 
Q 1466 2841 1156 2769 
Q 847 2697 581 2553 
L 581 3406 
Q 941 3494 1303 3539 
Q 1666 3584 2028 3584 
Q 2975 3584 3395 3211 
Q 3816 2838 3816 1997 
z
" transform="scale(0.015625)"/>
      <path id="DejaVuSans-Bold-45" d="M 588 4666 
L 3834 4666 
L 3834 3756 
L 1791 3756 
L 1791 2888 
L 3713 2888 
L 3713 1978 
L 1791 1978 
L 1791 909 
L 3903 909 
L 3903 0 
L 588 0 
L 588 4666 
z
" transform="scale(0.015625)"/>
      <path id="DejaVuSans-Bold-67" d="M 2919 594 
Q 2688 288 2409 144 
Q 2131 0 1766 0 
Q 1125 0 706 504 
Q 288 1009 288 1791 
Q 288 2575 706 3076 
Q 1125 3578 1766 3578 
Q 2131 3578 2409 3434 
Q 2688 3291 2919 2981 
L 2919 3500 
L 4044 3500 
L 4044 353 
Q 4044 -491 3511 -936 
Q 2978 -1381 1966 -1381 
Q 1638 -1381 1331 -1331 
Q 1025 -1281 716 -1178 
L 716 -306 
Q 1009 -475 1290 -558 
Q 1572 -641 1856 -641 
Q 2406 -641 2662 -400 
Q 2919 -159 2919 353 
L 2919 594 
z
M 2181 2772 
Q 1834 2772 1640 2515 
Q 1447 2259 1447 1791 
Q 1447 1309 1634 1061 
Q 1822 813 2181 813 
Q 2531 813 2725 1069 
Q 2919 1325 2919 1791 
Q 2919 2259 2725 2515 
Q 2531 2772 2181 2772 
z
" transform="scale(0.015625)"/>
     </defs>
     <use xlink:href="#DejaVuSans-Bold-4e"/>
     <use xlink:href="#DejaVuSans-Bold-65" transform="translate(83.691406 0)"/>
     <use xlink:href="#DejaVuSans-Bold-75" transform="translate(151.513672 0)"/>
     <use xlink:href="#DejaVuSans-Bold-74" transform="translate(222.705078 0)"/>
     <use xlink:href="#DejaVuSans-Bold-72" transform="translate(270.507812 0)"/>
     <use xlink:href="#DejaVuSans-Bold-61" transform="translate(319.824219 0)"/>
     <use xlink:href="#DejaVuSans-Bold-6c" transform="translate(387.304688 0)"/>
     <use xlink:href="#DejaVuSans-Bold-6c" transform="translate(421.582031 0)"/>
     <use xlink:href="#DejaVuSans-Bold-79" transform="translate(455.859375 0)"/>
     <use xlink:href="#DejaVuSans-Bold-20" transform="translate(521.044922 0)"/>
     <use xlink:href="#DejaVuSans-Bold-45" transform="translate(555.859375 0)"/>
     <use xlink:href="#DejaVuSans-Bold-76" transform="translate(624.169922 0)"/>
     <use xlink:href="#DejaVuSans-Bold-6f" transform="translate(689.355469 0)"/>
     <use xlink:href="#DejaVuSans-Bold-6c" transform="translate(758.056641 0)"/>
     <use xlink:href="#DejaVuSans-Bold-76" transform="translate(792.333984 0)"/>
     <use xlink:href="#DejaVuSans-Bold-69" transform="translate(857.519531 0)"/>
     <use xlink:href="#DejaVuSans-Bold-6e" transform="translate(891.796875 0)"/>
     <use xlink:href="#DejaVuSans-Bold-67" transform="translate(962.988281 0)"/>
     <use xlink:href="#DejaVuSans-Bold-20" transform="translate(1034.570312 0)"/>
     <use xlink:href="#DejaVuSans-Bold-50" transform="translate(1069.384766 0)"/>
     <use xlink:href="#DejaVuSans-Bold-6f" transform="translate(1142.675781 0)"/>
     <use xlink:href="#DejaVuSans-Bold-73" transform="translate(1211.376953 0)"/>
     <use xlink:href="#DejaVuSans-Bold-69" transform="translate(1270.898438 0)"/>
     <use xlink:href="#DejaVuSans-Bold-74" transform="translate(1305.175781 0)"/>
     <use xlink:href="#DejaVuSans-Bold-69" transform="translate(1352.978516 0)"/>
     <use xlink:href="#DejaVuSans-Bold-6f" transform="translate(1387.255859 0)"/>
     <use xlink:href="#DejaVuSans-Bold-6e" transform="translate(1455.957031 0)"/>
    </g>
    <!-- (phyloP = -0.2) -->
    <g transform="translate(379.076328 67.488) scale(0.11 -0.11)">
     <defs>
      <path id="DejaVuSans-Bold-2d" d="M 347 2297 
L 2309 2297 
L 2309 1388 
L 347 1388 
L 347 2297 
z
" transform="scale(0.015625)"/>
      <path id="DejaVuSans-Bold-30" d="M 2944 2338 
Q 2944 3213 2780 3570 
Q 2616 3928 2228 3928 
Q 1841 3928 1675 3570 
Q 1509 3213 1509 2338 
Q 1509 1453 1675 1090 
Q 1841 728 2228 728 
Q 2613 728 2778 1090 
Q 2944 1453 2944 2338 
z
M 4147 2328 
Q 4147 1169 3647 539 
Q 3147 -91 2228 -91 
Q 1306 -91 806 539 
Q 306 1169 306 2328 
Q 306 3491 806 4120 
Q 1306 4750 2228 4750 
Q 3147 4750 3647 4120 
Q 4147 3491 4147 2328 
z
" transform="scale(0.015625)"/>
     </defs>
     <use xlink:href="#DejaVuSans-Bold-28"/>
     <use xlink:href="#DejaVuSans-Bold-70" transform="translate(45.703125 0)"/>
     <use xlink:href="#DejaVuSans-Bold-68" transform="translate(117.285156 0)"/>
     <use xlink:href="#DejaVuSans-Bold-79" transform="translate(188.476562 0)"/>
     <use xlink:href="#DejaVuSans-Bold-6c" transform="translate(253.662109 0)"/>
     <use xlink:href="#DejaVuSans-Bold-6f" transform="translate(287.939453 0)"/>
     <use xlink:href="#DejaVuSans-Bold-50" transform="translate(356.640625 0)"/>
     <use xlink:href="#DejaVuSans-Bold-20" transform="translate(429.931641 0)"/>
     <use xlink:href="#DejaVuSans-Bold-3d" transform="translate(464.746094 0)"/>
     <use xlink:href="#DejaVuSans-Bold-20" transform="translate(548.535156 0)"/>
     <use xlink:href="#DejaVuSans-Bold-2d" transform="translate(583.349609 0)"/>
     <use xlink:href="#DejaVuSans-Bold-30" transform="translate(624.853516 0)"/>
     <use xlink:href="#DejaVuSans-Bold-2e" transform="translate(694.433594 0)"/>
     <use xlink:href="#DejaVuSans-Bold-32" transform="translate(732.421875 0)"/>
     <use xlink:href="#DejaVuSans-Bold-29" transform="translate(802.001953 0)"/>
    </g>
   </g>
  </g>
  <g id="text_27">
   <!-- A. Multiple Sequence Alignment -->
   <g transform="translate(175.745625 16.318125) scale(0.12 -0.12)">
    <defs>
     <path id="DejaVuSans-Bold-4d" d="M 588 4666 
L 2119 4666 
L 3181 2169 
L 4250 4666 
L 5778 4666 
L 5778 0 
L 4641 0 
L 4641 3413 
L 3566 897 
L 2803 897 
L 1728 3413 
L 1728 0 
L 588 0 
L 588 4666 
z
" transform="scale(0.015625)"/>
     <path id="DejaVuSans-Bold-53" d="M 3834 4519 
L 3834 3531 
Q 3450 3703 3084 3790 
Q 2719 3878 2394 3878 
Q 1963 3878 1756 3759 
Q 1550 3641 1550 3391 
Q 1550 3203 1689 3098 
Q 1828 2994 2194 2919 
L 2706 2816 
Q 3484 2659 3812 2340 
Q 4141 2022 4141 1434 
Q 4141 663 3683 286 
Q 3225 -91 2284 -91 
Q 1841 -91 1394 -6 
Q 947 78 500 244 
L 500 1259 
Q 947 1022 1364 901 
Q 1781 781 2169 781 
Q 2563 781 2772 912 
Q 2981 1044 2981 1288 
Q 2981 1506 2839 1625 
Q 2697 1744 2272 1838 
L 1806 1941 
Q 1106 2091 782 2419 
Q 459 2747 459 3303 
Q 459 4000 909 4375 
Q 1359 4750 2203 4750 
Q 2588 4750 2994 4692 
Q 3400 4634 3834 4519 
z
" transform="scale(0.015625)"/>
     <path id="DejaVuSans-Bold-71" d="M 2181 2772 
Q 1825 2772 1636 2509 
Q 1447 2247 1447 1747 
Q 1447 1247 1636 984 
Q 1825 722 2181 722 
Q 2541 722 2730 984 
Q 2919 1247 2919 1747 
Q 2919 2247 2730 2509 
Q 2541 2772 2181 2772 
z
M 2919 506 
Q 2688 197 2409 53 
Q 2131 -91 1766 -91 
Q 1119 -91 703 423 
Q 288 938 288 1747 
Q 288 2556 703 3067 
Q 1119 3578 1766 3578 
Q 2131 3578 2409 3434 
Q 2688 3291 2919 2981 
L 2919 3500 
L 4044 3500 
L 4044 -1331 
L 2919 -1331 
L 2919 506 
z
" transform="scale(0.015625)"/>
     <path id="DejaVuSans-Bold-63" d="M 3366 3391 
L 3366 2478 
Q 3138 2634 2908 2709 
Q 2678 2784 2431 2784 
Q 1963 2784 1702 2511 
Q 1441 2238 1441 1747 
Q 1441 1256 1702 982 
Q 1963 709 2431 709 
Q 2694 709 2930 787 
Q 3166 866 3366 1019 
L 3366 103 
Q 3103 6 2833 -42 
Q 2563 -91 2291 -91 
Q 1344 -91 809 395 
Q 275 881 275 1747 
Q 275 2613 809 3098 
Q 1344 3584 2291 3584 
Q 2566 3584 2833 3536 
Q 3100 3488 3366 3391 
z
" transform="scale(0.015625)"/>
     <path id="DejaVuSans-Bold-6d" d="M 3781 2919 
Q 3994 3244 4286 3414 
Q 4578 3584 4928 3584 
Q 5531 3584 5847 3212 
Q 6163 2841 6163 2131 
L 6163 0 
L 5038 0 
L 5038 1825 
Q 5041 1866 5042 1909 
Q 5044 1953 5044 2034 
Q 5044 2406 4934 2573 
Q 4825 2741 4581 2741 
Q 4263 2741 4089 2478 
Q 3916 2216 3909 1719 
L 3909 0 
L 2784 0 
L 2784 1825 
Q 2784 2406 2684 2573 
Q 2584 2741 2328 2741 
Q 2006 2741 1831 2477 
Q 1656 2213 1656 1722 
L 1656 0 
L 531 0 
L 531 3500 
L 1656 3500 
L 1656 2988 
Q 1863 3284 2130 3434 
Q 2397 3584 2719 3584 
Q 3081 3584 3359 3409 
Q 3638 3234 3781 2919 
z
" transform="scale(0.015625)"/>
    </defs>
    <use xlink:href="#DejaVuSans-Bold-41"/>
    <use xlink:href="#DejaVuSans-Bold-2e" transform="translate(79.267578 0)"/>
    <use xlink:href="#DejaVuSans-Bold-20" transform="translate(117.255859 0)"/>
    <use xlink:href="#DejaVuSans-Bold-4d" transform="translate(152.070312 0)"/>
    <use xlink:href="#DejaVuSans-Bold-75" transform="translate(251.582031 0)"/>
    <use xlink:href="#DejaVuSans-Bold-6c" transform="translate(322.773438 0)"/>
    <use xlink:href="#DejaVuSans-Bold-74" transform="translate(357.050781 0)"/>
    <use xlink:href="#DejaVuSans-Bold-69" transform="translate(404.853516 0)"/>
    <use xlink:href="#DejaVuSans-Bold-70" transform="translate(439.130859 0)"/>
    <use xlink:href="#DejaVuSans-Bold-6c" transform="translate(510.712891 0)"/>
    <use xlink:href="#DejaVuSans-Bold-65" transform="translate(544.990234 0)"/>
    <use xlink:href="#DejaVuSans-Bold-20" transform="translate(612.8125 0)"/>
    <use xlink:href="#DejaVuSans-Bold-53" transform="translate(647.626953 0)"/>
    <use xlink:href="#DejaVuSans-Bold-65" transform="translate(719.648438 0)"/>
    <use xlink:href="#DejaVuSans-Bold-71" transform="translate(787.470703 0)"/>
    <use xlink:href="#DejaVuSans-Bold-75" transform="translate(859.052734 0)"/>
    <use xlink:href="#DejaVuSans-Bold-65" transform="translate(930.244141 0)"/>
    <use xlink:href="#DejaVuSans-Bold-6e" transform="translate(998.066406 0)"/>
    <use xlink:href="#DejaVuSans-Bold-63" transform="translate(1069.257812 0)"/>
    <use xlink:href="#DejaVuSans-Bold-65" transform="translate(1128.535156 0)"/>
    <use xlink:href="#DejaVuSans-Bold-20" transform="translate(1196.357422 0)"/>
    <use xlink:href="#DejaVuSans-Bold-41" transform="translate(1231.171875 0)"/>
    <use xlink:href="#DejaVuSans-Bold-6c" transform="translate(1308.564453 0)"/>
    <use xlink:href="#DejaVuSans-Bold-69" transform="translate(1342.841797 0)"/>
    <use xlink:href="#DejaVuSans-Bold-67" transform="translate(1377.119141 0)"/>
    <use xlink:href="#DejaVuSans-Bold-6e" transform="translate(1448.701172 0)"/>
    <use xlink:href="#DejaVuSans-Bold-6d" transform="translate(1519.892578 0)"/>
    <use xlink:href="#DejaVuSans-Bold-65" transform="translate(1624.091797 0)"/>
    <use xlink:href="#DejaVuSans-Bold-6e" transform="translate(1691.914062 0)"/>
    <use xlink:href="#DejaVuSans-Bold-74" transform="translate(1763.105469 0)"/>
   </g>
  </g>
 </g>
 <defs>
  <clipPath id="p3ad576fec5">
   <rect x="7.2" y="73.488" width="271.8" height="216.672"/>
  </clipPath>
  <clipPath id="p0af15cd6cd">
   <rect x="289.8" y="73.488" width="271.8" height="216.672"/>
  </clipPath>
 </defs>
</svg>
