<?xml version="1.0" encoding="UTF-8" standalone="no"?>
<!DOCTYPE svg PUBLIC "-//W3C//DTD SVG 1.1//EN"
 "http://www.w3.org/Graphics/SVG/1.1/DTD/svg11.dtd">
<!-- Generated by graphviz version 2.43.0 (0)
 -->
<!-- Title: acmg_classification Pages: 1 -->
<svg width="720pt" height="387pt"
 viewBox="0.00 0.00 720.00 387.34" xmlns="http://www.w3.org/2000/svg" xmlns:xlink="http://www.w3.org/1999/xlink">
<g id="graph0" class="graph" transform="scale(1.03 1.03) rotate(0) translate(4 371.5)">
<title>acmg_classification</title>
<polygon fill="white" stroke="transparent" points="-4,4 -4,-371.5 694,-371.5 694,4 -4,4"/>
<g id="clust1" class="cluster">
<title>cluster_evidence</title>
<path fill="#f7f7f7" stroke="#555555" d="M20,-114.5C20,-114.5 187,-114.5 187,-114.5 193,-114.5 199,-120.5 199,-126.5 199,-126.5 199,-347.5 199,-347.5 199,-353.5 193,-359.5 187,-359.5 187,-359.5 20,-359.5 20,-359.5 14,-359.5 8,-353.5 8,-347.5 8,-347.5 8,-126.5 8,-126.5 8,-120.5 14,-114.5 20,-114.5"/>
<text text-anchor="middle" x="51" y="-347.5" font-family="Arial" font-size="10.00">Evidence Types</text>
</g>
<g id="clust2" class="cluster">
<title>cluster_computational</title>
<path fill="none" stroke="#1f77b4" stroke-dasharray="5,2" d="M260,-114.5C260,-114.5 374,-114.5 374,-114.5 380,-114.5 386,-120.5 386,-126.5 386,-126.5 386,-172.5 386,-172.5 386,-178.5 380,-184.5 374,-184.5 374,-184.5 260,-184.5 260,-184.5 254,-184.5 248,-178.5 248,-172.5 248,-172.5 248,-126.5 248,-126.5 248,-120.5 254,-114.5 260,-114.5"/>
<text text-anchor="middle" x="309" y="-173.3" font-family="Arial" font-size="9.00">Computational (PP3/BP4)</text>
</g>
<!-- benign -->
<g id="node1" class="node">
<title>benign</title>
<path fill="#2ca02c" stroke="#333333" stroke-width="1.5" d="M118.5,-40.5C118.5,-40.5 88.5,-40.5 88.5,-40.5 82.5,-40.5 76.5,-34.5 76.5,-28.5 76.5,-28.5 76.5,-16.5 76.5,-16.5 76.5,-10.5 82.5,-4.5 88.5,-4.5 88.5,-4.5 118.5,-4.5 118.5,-4.5 124.5,-4.5 130.5,-10.5 130.5,-16.5 130.5,-16.5 130.5,-28.5 130.5,-28.5 130.5,-34.5 124.5,-40.5 118.5,-40.5"/>
<text text-anchor="middle" x="103.5" y="-25.5" font-family="Arial" font-size="10.00" fill="white">Benign</text>
<text text-anchor="middle" x="103.5" y="-14.5" font-family="Arial" font-size="10.00" fill="white">(B)</text>
</g>
<!-- likely_benign -->
<g id="node2" class="node">
<title>likely_benign</title>
<path fill="#98df8a" stroke="#333333" stroke-width="1.5" d="M332,-45C332,-45 302,-45 302,-45 296,-45 290,-39 290,-33 290,-33 290,-12 290,-12 290,-6 296,0 302,0 302,0 332,0 332,0 338,0 344,-6 344,-12 344,-12 344,-33 344,-33 344,-39 338,-45 332,-45"/>
<text text-anchor="middle" x="317" y="-31" font-family="Arial" font-size="10.00">Likely</text>
<text text-anchor="middle" x="317" y="-20" font-family="Arial" font-size="10.00">Benign</text>
<text text-anchor="middle" x="317" y="-9" font-family="Arial" font-size="10.00">(LB)</text>
</g>
<!-- benign&#45;&gt;likely_benign -->
<!-- vus -->
<g id="node3" class="node">
<title>vus</title>
<path fill="#7f7f7f" stroke="#333333" stroke-width="1.5" d="M470,-40.5C470,-40.5 427,-40.5 427,-40.5 421,-40.5 415,-34.5 415,-28.5 415,-28.5 415,-16.5 415,-16.5 415,-10.5 421,-4.5 427,-4.5 427,-4.5 470,-4.5 470,-4.5 476,-4.5 482,-10.5 482,-16.5 482,-16.5 482,-28.5 482,-28.5 482,-34.5 476,-40.5 470,-40.5"/>
<text text-anchor="middle" x="448.5" y="-25.5" font-family="Arial" font-size="10.00" fill="white">VUS</text>
<text text-anchor="middle" x="448.5" y="-14.5" font-family="Arial" font-size="10.00" fill="white">(Uncertain)</text>
</g>
<!-- likely_benign&#45;&gt;vus -->
<!-- likely_path -->
<g id="node4" class="node">
<title>likely_path</title>
<path fill="#ffbb78" stroke="#333333" stroke-width="1.5" d="M574,-45C574,-45 531,-45 531,-45 525,-45 519,-39 519,-33 519,-33 519,-12 519,-12 519,-6 525,0 531,0 531,0 574,0 574,0 580,0 586,-6 586,-12 586,-12 586,-33 586,-33 586,-39 580,-45 574,-45"/>
<text text-anchor="middle" x="552.5" y="-31" font-family="Arial" font-size="10.00">Likely</text>
<text text-anchor="middle" x="552.5" y="-20" font-family="Arial" font-size="10.00">Pathogenic</text>
<text text-anchor="middle" x="552.5" y="-9" font-family="Arial" font-size="10.00">(LP)</text>
</g>
<!-- vus&#45;&gt;likely_path -->
<!-- pathogenic -->
<g id="node5" class="node">
<title>pathogenic</title>
<path fill="#d62728" stroke="#333333" stroke-width="1.5" d="M678,-40.5C678,-40.5 635,-40.5 635,-40.5 629,-40.5 623,-34.5 623,-28.5 623,-28.5 623,-16.5 623,-16.5 623,-10.5 629,-4.5 635,-4.5 635,-4.5 678,-4.5 678,-4.5 684,-4.5 690,-10.5 690,-16.5 690,-16.5 690,-28.5 690,-28.5 690,-34.5 684,-40.5 678,-40.5"/>
<text text-anchor="middle" x="656.5" y="-25.5" font-family="Arial" font-size="10.00" fill="white">Pathogenic</text>
<text text-anchor="middle" x="656.5" y="-14.5" font-family="Arial" font-size="10.00" fill="white">(P)</text>
</g>
<!-- likely_path&#45;&gt;pathogenic -->
<!-- pvs -->
<g id="node6" class="node">
<title>pvs</title>
<path fill="#fee0d2" stroke="#333333" stroke-width="1.5" d="M167,-332.5C167,-332.5 40,-332.5 40,-332.5 34,-332.5 28,-326.5 28,-320.5 28,-320.5 28,-308.5 28,-308.5 28,-302.5 34,-296.5 40,-296.5 40,-296.5 167,-296.5 167,-296.5 173,-296.5 179,-302.5 179,-308.5 179,-308.5 179,-320.5 179,-320.5 179,-326.5 173,-332.5 167,-332.5"/>
<text text-anchor="middle" x="103.5" y="-317.5" font-family="Arial" font-size="10.00">PVS: Very Strong</text>
<text text-anchor="middle" x="103.5" y="-306.5" font-family="Arial" font-size="10.00">(e.g., null variant in LOF gene)</text>
</g>
<!-- ps -->
<g id="node7" class="node">
<title>ps</title>
<path fill="#fcbba1" stroke="#333333" stroke-width="1.5" d="M169.5,-274.5C169.5,-274.5 37.5,-274.5 37.5,-274.5 31.5,-274.5 25.5,-268.5 25.5,-262.5 25.5,-262.5 25.5,-250.5 25.5,-250.5 25.5,-244.5 31.5,-238.5 37.5,-238.5 37.5,-238.5 169.5,-238.5 169.5,-238.5 175.5,-238.5 181.5,-244.5 181.5,-250.5 181.5,-250.5 181.5,-262.5 181.5,-262.5 181.5,-268.5 175.5,-274.5 169.5,-274.5"/>
<text text-anchor="middle" x="103.5" y="-259.5" font-family="Arial" font-size="10.00">PS: Strong</text>
<text text-anchor="middle" x="103.5" y="-248.5" font-family="Arial" font-size="10.00">(e.g., functional study, de novo)</text>
</g>
<!-- pm -->
<g id="node8" class="node">
<title>pm</title>
<path fill="#fc9272" stroke="#333333" stroke-width="1.5" d="M159.5,-216.5C159.5,-216.5 47.5,-216.5 47.5,-216.5 41.5,-216.5 35.5,-210.5 35.5,-204.5 35.5,-204.5 35.5,-192.5 35.5,-192.5 35.5,-186.5 41.5,-180.5 47.5,-180.5 47.5,-180.5 159.5,-180.5 159.5,-180.5 165.5,-180.5 171.5,-186.5 171.5,-192.5 171.5,-192.5 171.5,-204.5 171.5,-204.5 171.5,-210.5 165.5,-216.5 159.5,-216.5"/>
<text text-anchor="middle" x="103.5" y="-201.5" font-family="Arial" font-size="10.00">PM: Moderate</text>
<text text-anchor="middle" x="103.5" y="-190.5" font-family="Arial" font-size="10.00">(e.g., absent from controls)</text>
</g>
<!-- pp -->
<g id="node9" class="node">
<title>pp</title>
<path fill="#fb6a4a" stroke="#333333" stroke-width="1.5" d="M179,-158.5C179,-158.5 28,-158.5 28,-158.5 22,-158.5 16,-152.5 16,-146.5 16,-146.5 16,-134.5 16,-134.5 16,-128.5 22,-122.5 28,-122.5 28,-122.5 179,-122.5 179,-122.5 185,-122.5 191,-128.5 191,-134.5 191,-134.5 191,-146.5 191,-146.5 191,-152.5 185,-158.5 179,-158.5"/>
<text text-anchor="middle" x="103.5" y="-143.5" font-family="Arial" font-size="10.00">PP: Supporting</text>
<text text-anchor="middle" x="103.5" y="-132.5" font-family="Arial" font-size="10.00">(e.g., computational, cosegregation)</text>
</g>
<!-- comp -->
<g id="node10" class="node">
<title>comp</title>
<path fill="#aec7e8" stroke="#333333" stroke-width="1.5" d="M366,-158.5C366,-158.5 268,-158.5 268,-158.5 262,-158.5 256,-152.5 256,-146.5 256,-146.5 256,-134.5 256,-134.5 256,-128.5 262,-122.5 268,-122.5 268,-122.5 366,-122.5 366,-122.5 372,-122.5 378,-128.5 378,-134.5 378,-134.5 378,-146.5 378,-146.5 378,-152.5 372,-158.5 366,-158.5"/>
<text text-anchor="middle" x="317" y="-143.5" font-family="Arial" font-size="10.00">CADD, REVEL, SIFT,</text>
<text text-anchor="middle" x="317" y="-132.5" font-family="Arial" font-size="10.00">PolyPhen, conservation</text>
</g>
<!-- pp&#45;&gt;comp -->
<g id="edge5" class="edge">
<title>pp&#45;&gt;comp</title>
<path fill="none" stroke="#555555" stroke-dasharray="5,2" d="M191.14,-140.5C212.92,-140.5 235.83,-140.5 255.99,-140.5"/>
<text text-anchor="middle" x="223.5" y="-143.1" font-family="Arial" font-size="8.00">includes</text>
</g>
</g>
</svg>
