<?xml version="1.0" encoding="UTF-8" standalone="no"?>
<!DOCTYPE svg PUBLIC "-//W3C//DTD SVG 1.1//EN"
 "http://www.w3.org/Graphics/SVG/1.1/DTD/svg11.dtd">
<!-- Generated by graphviz version 2.43.0 (0)
 -->
<!-- Title: circularity Pages: 1 -->
<svg width="576pt" height="405pt"
 viewBox="0.00 0.00 576.00 404.80" xmlns="http://www.w3.org/2000/svg" xmlns:xlink="http://www.w3.org/1999/xlink">
<g id="graph0" class="graph" transform="scale(1.03 1.03) rotate(0) translate(4 388.5)">
<title>circularity</title>
<polygon fill="white" stroke="transparent" points="-4,4 -4,-388.5 554.5,-388.5 554.5,4 -4,4"/>
<g id="clust1" class="cluster">
<title>cluster_solutions</title>
<path fill="none" stroke="#555555" stroke-dasharray="5,2" d="M144.5,-305.5C144.5,-305.5 530.5,-305.5 530.5,-305.5 536.5,-305.5 542.5,-311.5 542.5,-317.5 542.5,-317.5 542.5,-364.5 542.5,-364.5 542.5,-370.5 536.5,-376.5 530.5,-376.5 530.5,-376.5 144.5,-376.5 144.5,-376.5 138.5,-376.5 132.5,-370.5 132.5,-364.5 132.5,-364.5 132.5,-317.5 132.5,-317.5 132.5,-311.5 138.5,-305.5 144.5,-305.5"/>
<text text-anchor="middle" x="190" y="-364.5" font-family="Arial" font-size="10.00">Intervention Strategies</text>
</g>
<!-- predictor -->
<g id="node1" class="node">
<title>predictor</title>
<path fill="#aec7e8" stroke="#333333" stroke-width="1.5" d="M92,-354C92,-354 23,-354 23,-354 17,-354 11,-348 11,-342 11,-342 11,-321 11,-321 11,-315 17,-309 23,-309 23,-309 92,-309 92,-309 98,-309 104,-315 104,-321 104,-321 104,-342 104,-342 104,-348 98,-354 92,-354"/>
<text text-anchor="middle" x="57.5" y="-340" font-family="Arial" font-size="10.00">Computational</text>
<text text-anchor="middle" x="57.5" y="-329" font-family="Arial" font-size="10.00">Predictor</text>
<text text-anchor="middle" x="57.5" y="-318" font-family="Arial" font-size="10.00">(CADD, REVEL)</text>
</g>
<!-- clinician -->
<g id="node2" class="node">
<title>clinician</title>
<path fill="#98df8a" stroke="#333333" stroke-width="1.5" d="M156.5,-245C156.5,-245 116.5,-245 116.5,-245 110.5,-245 104.5,-239 104.5,-233 104.5,-233 104.5,-221 104.5,-221 104.5,-215 110.5,-209 116.5,-209 116.5,-209 156.5,-209 156.5,-209 162.5,-209 168.5,-215 168.5,-221 168.5,-221 168.5,-233 168.5,-233 168.5,-239 162.5,-245 156.5,-245"/>
<text text-anchor="middle" x="136.5" y="-230" font-family="Arial" font-size="10.00">Clinical</text>
<text text-anchor="middle" x="136.5" y="-219" font-family="Arial" font-size="10.00">Laboratory</text>
</g>
<!-- predictor&#45;&gt;clinician -->
<g id="edge1" class="edge">
<title>predictor&#45;&gt;clinician</title>
<path fill="none" stroke="#d62728" stroke-width="1.5" d="M88.37,-308.9C99.53,-298.13 107.54,-284.36 123.48,-252.93"/>
<polygon fill="#d62728" stroke="#d62728" stroke-width="1.5" points="126.13,-253.89 127.24,-245.49 121.13,-251.37 126.13,-253.89"/>
<text text-anchor="middle" x="147" y="-279.8" font-family="Arial" font-size="9.00">1. High score</text>
<text text-anchor="middle" x="147" y="-269.8" font-family="Arial" font-size="9.00">supports classification</text>
</g>
<!-- warning -->
<g id="node5" class="node">
<title>warning</title>
<path fill="#fee0d2" stroke="#333333" stroke-width="1.5" d="M240,-45C240,-45 137,-45 137,-45 131,-45 125,-39 125,-33 125,-33 125,-12 125,-12 125,-6 131,0 137,0 137,0 240,0 240,0 246,0 252,-6 252,-12 252,-12 252,-33 252,-33 252,-39 246,-45 240,-45"/>
<text text-anchor="middle" x="188.5" y="-31" font-family="Arial" font-size="10.00" fill="#d62728">Circularity:</text>
<text text-anchor="middle" x="188.5" y="-20" font-family="Arial" font-size="10.00" fill="#d62728">Predictors evaluated on</text>
<text text-anchor="middle" x="188.5" y="-9" font-family="Arial" font-size="10.00" fill="#d62728">labels they helped create</text>
</g>
<!-- predictor&#45;&gt;warning -->
<!-- clinvar -->
<g id="node3" class="node">
<title>clinvar</title>
<path fill="#ffbb78" stroke="#333333" stroke-width="1.5" d="M168,-145C168,-145 131,-145 131,-145 125,-145 119,-139 119,-133 119,-133 119,-121 119,-121 119,-115 125,-109 131,-109 131,-109 168,-109 168,-109 174,-109 180,-115 180,-121 180,-121 180,-133 180,-133 180,-139 174,-145 168,-145"/>
<text text-anchor="middle" x="149.5" y="-130" font-family="Arial" font-size="10.00">ClinVar</text>
<text text-anchor="middle" x="149.5" y="-119" font-family="Arial" font-size="10.00">Database</text>
</g>
<!-- clinician&#45;&gt;clinvar -->
<g id="edge2" class="edge">
<title>clinician&#45;&gt;clinvar</title>
<path fill="none" stroke="#d62728" stroke-width="1.5" d="M146.2,-208.59C158.8,-184.01 160.95,-174.53 156.2,-152.9"/>
<polygon fill="#d62728" stroke="#d62728" stroke-width="1.5" points="158.91,-152.2 154.33,-145.06 153.47,-153.5 158.91,-152.2"/>
<text text-anchor="middle" x="182" y="-179.8" font-family="Arial" font-size="9.00">2. Classification</text>
<text text-anchor="middle" x="182" y="-169.8" font-family="Arial" font-size="9.00">submitted</text>
</g>
<!-- benchmark -->
<g id="node4" class="node">
<title>benchmark</title>
<path fill="#c5b0d5" stroke="#333333" stroke-width="1.5" d="M69,-40.5C69,-40.5 12,-40.5 12,-40.5 6,-40.5 0,-34.5 0,-28.5 0,-28.5 0,-16.5 0,-16.5 0,-10.5 6,-4.5 12,-4.5 12,-4.5 69,-4.5 69,-4.5 75,-4.5 81,-10.5 81,-16.5 81,-16.5 81,-28.5 81,-28.5 81,-34.5 75,-40.5 69,-40.5"/>
<text text-anchor="middle" x="40.5" y="-25.5" font-family="Arial" font-size="10.00">Benchmarking</text>
<text text-anchor="middle" x="40.5" y="-14.5" font-family="Arial" font-size="10.00">Study</text>
</g>
<!-- clinvar&#45;&gt;benchmark -->
<g id="edge3" class="edge">
<title>clinvar&#45;&gt;benchmark</title>
<path fill="none" stroke="#d62728" stroke-width="1.5" d="M137.33,-108.73C113.17,-72.56 101.33,-56.22 86.73,-45.23"/>
<polygon fill="#d62728" stroke="#d62728" stroke-width="1.5" points="87.96,-42.69 79.77,-40.51 84.82,-47.32 87.96,-42.69"/>
<text text-anchor="middle" x="133" y="-79.8" font-family="Arial" font-size="9.00">3. Benchmark</text>
<text text-anchor="middle" x="133" y="-69.8" font-family="Arial" font-size="9.00">uses ClinVar</text>
</g>
<!-- clinvar&#45;&gt;warning -->
<!-- benchmark&#45;&gt;predictor -->
<g id="edge4" class="edge">
<title>benchmark&#45;&gt;predictor</title>
<path fill="none" stroke="#d62728" stroke-width="1.5" d="M47.18,-308.81C-8.98,-184.9 -10.22,-170.48 31.52,-48.55"/>
<polygon fill="#d62728" stroke="#d62728" stroke-width="1.5" points="34.25,-49.23 34.2,-40.75 28.95,-47.41 34.25,-49.23"/>
<text text-anchor="middle" x="63.5" y="-179.8" font-family="Arial" font-size="9.00">4. &quot;High performance&quot;</text>
<text text-anchor="middle" x="63.5" y="-169.8" font-family="Arial" font-size="9.00">encourages use</text>
</g>
<!-- temporal -->
<g id="node6" class="node">
<title>temporal</title>
<path fill="#e8f4f8" stroke="#333333" stroke-width="1.5" d="M522.5,-349.5C522.5,-349.5 434.5,-349.5 434.5,-349.5 428.5,-349.5 422.5,-343.5 422.5,-337.5 422.5,-337.5 422.5,-325.5 422.5,-325.5 422.5,-319.5 428.5,-313.5 434.5,-313.5 434.5,-313.5 522.5,-313.5 522.5,-313.5 528.5,-313.5 534.5,-319.5 534.5,-325.5 534.5,-325.5 534.5,-337.5 534.5,-337.5 534.5,-343.5 528.5,-349.5 522.5,-349.5"/>
<text text-anchor="middle" x="478.5" y="-334.3" font-family="Arial" font-size="9.00">Temporal Holdouts</text>
<text text-anchor="middle" x="478.5" y="-324.3" font-family="Arial" font-size="9.00">(pre&#45;adoption variants)</text>
</g>
<!-- functional -->
<g id="node7" class="node">
<title>functional</title>
<path fill="#e8f4f8" stroke="#333333" stroke-width="1.5" d="M374,-349.5C374,-349.5 301,-349.5 301,-349.5 295,-349.5 289,-343.5 289,-337.5 289,-337.5 289,-325.5 289,-325.5 289,-319.5 295,-313.5 301,-313.5 301,-313.5 374,-313.5 374,-313.5 380,-313.5 386,-319.5 386,-325.5 386,-325.5 386,-337.5 386,-337.5 386,-343.5 380,-349.5 374,-349.5"/>
<text text-anchor="middle" x="337.5" y="-334.3" font-family="Arial" font-size="9.00">Functional Assays</text>
<text text-anchor="middle" x="337.5" y="-324.3" font-family="Arial" font-size="9.00">(DMS ground truth)</text>
</g>
<!-- prospective -->
<g id="node8" class="node">
<title>prospective</title>
<path fill="#e8f4f8" stroke="#333333" stroke-width="1.5" d="M240.5,-349.5C240.5,-349.5 152.5,-349.5 152.5,-349.5 146.5,-349.5 140.5,-343.5 140.5,-337.5 140.5,-337.5 140.5,-325.5 140.5,-325.5 140.5,-319.5 146.5,-313.5 152.5,-313.5 152.5,-313.5 240.5,-313.5 240.5,-313.5 246.5,-313.5 252.5,-319.5 252.5,-325.5 252.5,-325.5 252.5,-337.5 252.5,-337.5 252.5,-343.5 246.5,-349.5 240.5,-349.5"/>
<text text-anchor="middle" x="196.5" y="-334.3" font-family="Arial" font-size="9.00">Prospective Evaluation</text>
<text text-anchor="middle" x="196.5" y="-324.3" font-family="Arial" font-size="9.00">(new variants)</text>
</g>
</g>
</svg>
