<?xml version="1.0" encoding="utf-8" ?>
<svg xmlns="http://www.w3.org/2000/svg" xmlns:ev="http://www.w3.org/2001/xml-events" xmlns:xlink="http://www.w3.org/1999/xlink" baseProfile="full" height="800" version="1.1" width="1200">
  <defs>
    <marker id="id129" markerHeight="7" markerWidth="7" orient="auto" refX="6" refY="3">
      <path d="M0,0 L0,6 L6,3 z" fill="#333333"/>
    </marker>
  </defs>
  <rect fill="white" height="800" width="1200" x="0" y="0"/>
  <text fill="#111" font-family="Arial, Helvetica, sans-serif" font-size="28" font-weight="700" x="60" y="50">Figure 14.3: Caduceus Equivariance (Three-Panel)</text>
  <text fill="#444" font-family="Arial, Helvetica, sans-serif" font-size="16" x="60" y="78">Panel B</text>
  <line stroke="#333" stroke-width="2" x1="140" x2="1000" y1="720" y2="720"/>
  <line stroke="#333" stroke-width="2" x1="140" x2="140" y1="160" y2="720"/>
  <circle cx="394.3796818266352" cy="541.1293122345401" fill="#ff7f0e" opacity="0.75" r="4"/>
  <circle cx="484.06045029792165" cy="554.8231525419716" fill="#2ca02c" opacity="0.75" r="4"/>
  <circle cx="347.1433481512849" cy="546.1855693957227" fill="#1f77b4" opacity="0.75" r="4"/>
  <circle cx="371.87802680450534" cy="576.9317538277026" fill="#ff7f0e" opacity="0.75" r="4"/>
  <circle cx="328.39433129047086" cy="563.6026153975913" fill="#1f77b4" opacity="0.75" r="4"/>
  <circle cx="303.0788271731908" cy="491.5169671645504" fill="#1f77b4" opacity="0.75" r="4"/>
  <circle cx="285.5596057390495" cy="476.98425349053326" fill="#1f77b4" opacity="0.75" r="4"/>
  <circle cx="403.15021227112396" cy="525.7567462841884" fill="#ff7f0e" opacity="0.75" r="4"/>
  <circle cx="447.99625153298734" cy="509.4406400510085" fill="#2ca02c" opacity="0.75" r="4"/>
  <circle cx="365.6118688083441" cy="487.99666169335705" fill="#ff7f0e" opacity="0.75" r="4"/>
  <circle cx="417.52774527042726" cy="487.67623255610874" fill="#2ca02c" opacity="0.75" r="4"/>
  <circle cx="410.5755237133347" cy="553.8497357307108" fill="#2ca02c" opacity="0.75" r="4"/>
  <circle cx="458.27486960430366" cy="566.8391328430662" fill="#2ca02c" opacity="0.75" r="4"/>
  <circle cx="509.34633336482716" cy="476.4855068426638" fill="#ff7f0e" opacity="0.75" r="4"/>
  <circle cx="470.06498424310666" cy="511.29518529733923" fill="#ff7f0e" opacity="0.75" r="4"/>
  <circle cx="392.4721531571363" cy="430.0863432688182" fill="#1f77b4" opacity="0.75" r="4"/>
  <circle cx="411.0072623787077" cy="499.4683656338399" fill="#ff7f0e" opacity="0.75" r="4"/>
  <circle cx="418.2304110012656" cy="482.0490185223967" fill="#1f77b4" opacity="0.75" r="4"/>
  <circle cx="396.17036520552875" cy="525.1066467712146" fill="#ff7f0e" opacity="0.75" r="4"/>
  <circle cx="564.3678905493567" cy="535.712877101374" fill="#ff7f0e" opacity="0.75" r="4"/>
  <circle cx="430.2060420649773" cy="516.9328046152829" fill="#ff7f0e" opacity="0.75" r="4"/>
  <circle cx="307.779458389096" cy="463.07350172782645" fill="#ff7f0e" opacity="0.75" r="4"/>
  <circle cx="415.9054594503539" cy="553.1982564294557" fill="#1f77b4" opacity="0.75" r="4"/>
  <circle cx="514.9515383940287" cy="511.9657752887561" fill="#1f77b4" opacity="0.75" r="4"/>
  <circle cx="406.07351403949815" cy="539.7995143064808" fill="#2ca02c" opacity="0.75" r="4"/>
  <circle cx="397.91625726689534" cy="541.383319611813" fill="#ff7f0e" opacity="0.75" r="4"/>
  <circle cx="458.40670107055774" cy="481.4391084819268" fill="#1f77b4" opacity="0.75" r="4"/>
  <circle cx="439.36419847031067" cy="546.5679689256236" fill="#ff7f0e" opacity="0.75" r="4"/>
  <circle cx="301.740783331427" cy="491.54972715745293" fill="#2ca02c" opacity="0.75" r="4"/>
  <circle cx="392.51044715431874" cy="547.1750297229125" fill="#ff7f0e" opacity="0.75" r="4"/>
  <circle cx="410.9819320420255" cy="543.2059932336799" fill="#1f77b4" opacity="0.75" r="4"/>
  <circle cx="458.8297847770784" cy="440.34304301055073" fill="#1f77b4" opacity="0.75" r="4"/>
  <circle cx="608.6256548990839" cy="561.7127472666002" fill="#ff7f0e" opacity="0.75" r="4"/>
  <circle cx="364.7168611240148" cy="521.9481078707518" fill="#1f77b4" opacity="0.75" r="4"/>
  <circle cx="388.7171270790839" cy="479.9939123196103" fill="#1f77b4" opacity="0.75" r="4"/>
  <circle cx="320.815564211131" cy="596.0814717314786" fill="#ff7f0e" opacity="0.75" r="4"/>
  <circle cx="435.0681139616053" cy="540.1388736514889" fill="#2ca02c" opacity="0.75" r="4"/>
  <circle cx="369.0683627856289" cy="481.51078877885044" fill="#2ca02c" opacity="0.75" r="4"/>
  <circle cx="366.96867353115516" cy="541.4604361073436" fill="#1f77b4" opacity="0.75" r="4"/>
  <circle cx="352.32228185168964" cy="595.7917879656604" fill="#2ca02c" opacity="0.75" r="4"/>
  <circle cx="427.5202625143213" cy="542.2777801570905" fill="#ff7f0e" opacity="0.75" r="4"/>
  <circle cx="397.8695675291368" cy="430.82014746016654" fill="#2ca02c" opacity="0.75" r="4"/>
  <circle cx="398.6221253852761" cy="460.367456136341" fill="#2ca02c" opacity="0.75" r="4"/>
  <circle cx="304.8417333405459" cy="581.2975140180437" fill="#1f77b4" opacity="0.75" r="4"/>
  <circle cx="396.6480453672257" cy="516.4235517739223" fill="#ff7f0e" opacity="0.75" r="4"/>
  <circle cx="418.8585015186947" cy="554.6548107216927" fill="#2ca02c" opacity="0.75" r="4"/>
  <circle cx="468.4455817791993" cy="534.5509427587899" fill="#ff7f0e" opacity="0.75" r="4"/>
  <circle cx="458.077123910788" cy="458.85437360474606" fill="#ff7f0e" opacity="0.75" r="4"/>
  <circle cx="484.76182929161416" cy="535.5078152556725" fill="#ff7f0e" opacity="0.75" r="4"/>
  <circle cx="337.4309060289912" cy="531.0790401587087" fill="#ff7f0e" opacity="0.75" r="4"/>
  <circle cx="485.26401938641897" cy="493.77282359901994" fill="#2ca02c" opacity="0.75" r="4"/>
  <circle cx="440.6337851476859" cy="472.5353504703338" fill="#ff7f0e" opacity="0.75" r="4"/>
  <circle cx="402.68780602113463" cy="513.5022043475808" fill="#1f77b4" opacity="0.75" r="4"/>
  <circle cx="296.34026668762806" cy="503.49354444505224" fill="#2ca02c" opacity="0.75" r="4"/>
  <circle cx="370.74968061347124" cy="527.8058477783816" fill="#1f77b4" opacity="0.75" r="4"/>
  <circle cx="594.1159048772383" cy="428.07386081232113" fill="#1f77b4" opacity="0.75" r="4"/>
  <circle cx="591.6616572474501" cy="440.7212545217156" fill="#2ca02c" opacity="0.75" r="4"/>
  <circle cx="592.5524407261677" cy="439.6691810880816" fill="#1f77b4" opacity="0.75" r="4"/>
  <circle cx="657.9982515841035" cy="350.4155387362967" fill="#1f77b4" opacity="0.75" r="4"/>
  <circle cx="545.2543422180922" cy="394.9940747525984" fill="#ff7f0e" opacity="0.75" r="4"/>
  <circle cx="735.1605520422958" cy="407.2415820073113" fill="#1f77b4" opacity="0.75" r="4"/>
  <circle cx="687.1153769728841" cy="425.3401040643008" fill="#2ca02c" opacity="0.75" r="4"/>
  <circle cx="644.4379444277088" cy="411.1491723192911" fill="#ff7f0e" opacity="0.75" r="4"/>
  <circle cx="717.3055515841048" cy="423.6212225859943" fill="#ff7f0e" opacity="0.75" r="4"/>
  <circle cx="671.7845568459928" cy="375.2176132983817" fill="#2ca02c" opacity="0.75" r="4"/>
  <circle cx="619.9204775756805" cy="337.539929727697" fill="#1f77b4" opacity="0.75" r="4"/>
  <circle cx="659.095735929937" cy="366.5869261005915" fill="#1f77b4" opacity="0.75" r="4"/>
  <circle cx="791.5287586244021" cy="402.6479054820412" fill="#2ca02c" opacity="0.75" r="4"/>
  <circle cx="677.6889647485941" cy="458.411980024278" fill="#ff7f0e" opacity="0.75" r="4"/>
  <circle cx="768.763651528097" cy="429.7449981411313" fill="#ff7f0e" opacity="0.75" r="4"/>
  <circle cx="726.1939332695827" cy="349.19779306565215" fill="#ff7f0e" opacity="0.75" r="4"/>
  <circle cx="624.0111345969788" cy="467.7235410761562" fill="#1f77b4" opacity="0.75" r="4"/>
  <circle cx="705.5644541510717" cy="419.1616874368328" fill="#ff7f0e" opacity="0.75" r="4"/>
  <circle cx="765.6365474346085" cy="339.2520479633397" fill="#2ca02c" opacity="0.75" r="4"/>
  <circle cx="680.8249921511008" cy="491.4444751663397" fill="#1f77b4" opacity="0.75" r="4"/>
  <circle cx="747.9705468887634" cy="376.6928520569562" fill="#2ca02c" opacity="0.75" r="4"/>
  <circle cx="652.0430866320552" cy="536.3377797859839" fill="#ff7f0e" opacity="0.75" r="4"/>
  <circle cx="623.8361208675822" cy="480.1582893069989" fill="#ff7f0e" opacity="0.75" r="4"/>
  <circle cx="656.1543270873474" cy="428.11608080884815" fill="#2ca02c" opacity="0.75" r="4"/>
  <circle cx="769.4717910605905" cy="419.58688756239184" fill="#ff7f0e" opacity="0.75" r="4"/>
  <circle cx="669.9267782753864" cy="438.63149200576356" fill="#1f77b4" opacity="0.75" r="4"/>
  <circle cx="812.1416963520596" cy="414.88389352012337" fill="#1f77b4" opacity="0.75" r="4"/>
  <circle cx="701.0881816888709" cy="463.37653611572415" fill="#ff7f0e" opacity="0.75" r="4"/>
  <circle cx="553.051159499444" cy="404.0699098903908" fill="#2ca02c" opacity="0.75" r="4"/>
  <circle cx="634.5492917957481" cy="456.76972751142904" fill="#2ca02c" opacity="0.75" r="4"/>
  <circle cx="612.0005127329812" cy="435.19369101275674" fill="#1f77b4" opacity="0.75" r="4"/>
  <circle cx="711.5353596544769" cy="373.8442819072668" fill="#1f77b4" opacity="0.75" r="4"/>
  <circle cx="685.0244189340425" cy="359.49411837424225" fill="#ff7f0e" opacity="0.75" r="4"/>
  <circle cx="699.8616546879804" cy="412.3567962460928" fill="#1f77b4" opacity="0.75" r="4"/>
  <circle cx="670.9375174812718" cy="450.1470021946517" fill="#1f77b4" opacity="0.75" r="4"/>
  <circle cx="602.9811386573704" cy="323.8353645507452" fill="#2ca02c" opacity="0.75" r="4"/>
  <circle cx="629.8920939218656" cy="444.4733041091675" fill="#2ca02c" opacity="0.75" r="4"/>
  <circle cx="841.7397108971259" cy="489.8984839334492" fill="#1f77b4" opacity="0.75" r="4"/>
  <circle cx="668.3212018827529" cy="455.78251896175675" fill="#2ca02c" opacity="0.75" r="4"/>
  <circle cx="668.4764652305439" cy="440.95431550092354" fill="#1f77b4" opacity="0.75" r="4"/>
  <circle cx="718.8787025158482" cy="458.8762470983148" fill="#1f77b4" opacity="0.75" r="4"/>
  <circle cx="656.2819298729681" cy="426.9140899953881" fill="#1f77b4" opacity="0.75" r="4"/>
  <circle cx="648.8748635467473" cy="443.74172091908474" fill="#ff7f0e" opacity="0.75" r="4"/>
  <circle cx="593.4152239339348" cy="406.6772909680519" fill="#ff7f0e" opacity="0.75" r="4"/>
  <circle cx="610.5126768773443" cy="471.2611303204513" fill="#2ca02c" opacity="0.75" r="4"/>
  <circle cx="741.656629643322" cy="507.08457640245746" fill="#ff7f0e" opacity="0.75" r="4"/>
  <circle cx="665.7841526825016" cy="441.5815794884155" fill="#1f77b4" opacity="0.75" r="4"/>
  <circle cx="655.8191073906746" cy="415.92446684368383" fill="#1f77b4" opacity="0.75" r="4"/>
  <circle cx="608.4977013723889" cy="376.7843987536976" fill="#ff7f0e" opacity="0.75" r="4"/>
  <circle cx="631.9823171213351" cy="409.0486205378139" fill="#2ca02c" opacity="0.75" r="4"/>
  <circle cx="540.6336173733209" cy="410.1132101564386" fill="#ff7f0e" opacity="0.75" r="4"/>
  <circle cx="762.0738934043682" cy="405.6969842055511" fill="#ff7f0e" opacity="0.75" r="4"/>
  <circle cx="698.1375382104162" cy="358.3758303772631" fill="#ff7f0e" opacity="0.75" r="4"/>
  <circle cx="468.9524613658753" cy="457.40893240760056" fill="#2ca02c" opacity="0.75" r="4"/>
  <circle cx="644.3577897481089" cy="415.2042836399261" fill="#2ca02c" opacity="0.75" r="4"/>
  <circle cx="514.412604723549" cy="594.3703460304177" fill="#ff7f0e" opacity="0.75" r="4"/>
  <circle cx="567.6798197522414" cy="584.2220032442058" fill="#1f77b4" opacity="0.75" r="4"/>
  <circle cx="499.1738841218546" cy="628.7716846803849" fill="#2ca02c" opacity="0.75" r="4"/>
  <circle cx="414.84912074306305" cy="582.7596852884569" fill="#1f77b4" opacity="0.75" r="4"/>
  <circle cx="425.7427482869718" cy="637.0323648389162" fill="#ff7f0e" opacity="0.75" r="4"/>
  <circle cx="564.8214871648959" cy="631.5964638550961" fill="#1f77b4" opacity="0.75" r="4"/>
  <circle cx="512.9689203503178" cy="589.0980335802758" fill="#1f77b4" opacity="0.75" r="4"/>
  <circle cx="530.2671313564373" cy="533.284248829567" fill="#ff7f0e" opacity="0.75" r="4"/>
  <circle cx="562.4356410591424" cy="565.6407927346456" fill="#2ca02c" opacity="0.75" r="4"/>
  <circle cx="452.15326043402587" cy="603.4453571060524" fill="#ff7f0e" opacity="0.75" r="4"/>
  <circle cx="538.0283311858539" cy="603.8543852318298" fill="#2ca02c" opacity="0.75" r="4"/>
  <circle cx="573.9553883816536" cy="609.9319318173809" fill="#2ca02c" opacity="0.75" r="4"/>
  <circle cx="524.4615366714117" cy="564.8427343955434" fill="#1f77b4" opacity="0.75" r="4"/>
  <circle cx="522.5005445941435" cy="628.1999313089931" fill="#ff7f0e" opacity="0.75" r="4"/>
  <circle cx="551.1825330801823" cy="507.1835712476331" fill="#2ca02c" opacity="0.75" r="4"/>
  <circle cx="595.308743753156" cy="569.1791685785952" fill="#2ca02c" opacity="0.75" r="4"/>
  <circle cx="532.4153533690617" cy="551.7912922725725" fill="#ff7f0e" opacity="0.75" r="4"/>
  <circle cx="596.064637920132" cy="600.9710996760914" fill="#1f77b4" opacity="0.75" r="4"/>
  <circle cx="615.4608951843098" cy="580.7255139825079" fill="#1f77b4" opacity="0.75" r="4"/>
  <circle cx="535.6061666377175" cy="589.254767238009" fill="#1f77b4" opacity="0.75" r="4"/>
  <circle cx="503.85465524483226" cy="581.6798975663052" fill="#2ca02c" opacity="0.75" r="4"/>
  <circle cx="561.3252072441879" cy="610.9144437594755" fill="#2ca02c" opacity="0.75" r="4"/>
  <circle cx="476.75425226815116" cy="584.8477800335289" fill="#ff7f0e" opacity="0.75" r="4"/>
  <circle cx="478.95730088099856" cy="558.7624561215903" fill="#1f77b4" opacity="0.75" r="4"/>
  <circle cx="423.52283262553476" cy="617.101321352462" fill="#ff7f0e" opacity="0.75" r="4"/>
  <circle cx="558.2885535017823" cy="585.3895530553636" fill="#1f77b4" opacity="0.75" r="4"/>
  <circle cx="612.1489489585672" cy="609.8829260177286" fill="#ff7f0e" opacity="0.75" r="4"/>
  <circle cx="689.2197711080901" cy="606.3992309281505" fill="#ff7f0e" opacity="0.75" r="4"/>
  <circle cx="507.74373802018926" cy="525.1325103499205" fill="#2ca02c" opacity="0.75" r="4"/>
  <circle cx="547.5336703062305" cy="615.9566257722579" fill="#ff7f0e" opacity="0.75" r="4"/>
  <circle cx="558.2315879422144" cy="572.8849507490924" fill="#ff7f0e" opacity="0.75" r="4"/>
  <circle cx="537.1009568636109" cy="558.3435277275331" fill="#2ca02c" opacity="0.75" r="4"/>
  <circle cx="542.3181001506973" cy="556.6115931161642" fill="#ff7f0e" opacity="0.75" r="4"/>
  <circle cx="479.1469501280782" cy="624.1578821636713" fill="#1f77b4" opacity="0.75" r="4"/>
  <circle cx="625.1628387437613" cy="504.931903815497" fill="#1f77b4" opacity="0.75" r="4"/>
  <circle cx="474.3954362766944" cy="574.203209817874" fill="#1f77b4" opacity="0.75" r="4"/>
  <circle cx="441.70285346219083" cy="606.3986116410604" fill="#ff7f0e" opacity="0.75" r="4"/>
  <circle cx="414.2049270728955" cy="492.27353407145176" fill="#1f77b4" opacity="0.75" r="4"/>
  <circle cx="452.3351144011247" cy="583.7459161663137" fill="#2ca02c" opacity="0.75" r="4"/>
  <circle cx="547.1591106610728" cy="570.9253279079051" fill="#2ca02c" opacity="0.75" r="4"/>
  <circle cx="561.2791003940555" cy="607.9422413514923" fill="#ff7f0e" opacity="0.75" r="4"/>
  <circle cx="474.6948681630351" cy="568.2394064183329" fill="#2ca02c" opacity="0.75" r="4"/>
  <circle cx="541.5441655916843" cy="603.91347263716" fill="#2ca02c" opacity="0.75" r="4"/>
  <circle cx="580.569894671919" cy="587.9190307133438" fill="#2ca02c" opacity="0.75" r="4"/>
  <circle cx="650.0340079616903" cy="556.7342586739549" fill="#2ca02c" opacity="0.75" r="4"/>
  <circle cx="542.1295811101854" cy="569.1472804862902" fill="#2ca02c" opacity="0.75" r="4"/>
  <circle cx="482.7555719147989" cy="551.249039968697" fill="#1f77b4" opacity="0.75" r="4"/>
  <circle cx="452.6022238256511" cy="546.1095668246489" fill="#ff7f0e" opacity="0.75" r="4"/>
  <circle cx="409.10370797517635" cy="579.6963864750637" fill="#ff7f0e" opacity="0.75" r="4"/>
  <circle cx="591.1598332300903" cy="619.6240391856471" fill="#2ca02c" opacity="0.75" r="4"/>
  <circle cx="541.1950854940885" cy="512.2201653230741" fill="#2ca02c" opacity="0.75" r="4"/>
  <circle cx="524.8824329621191" cy="559.8708523726827" fill="#ff7f0e" opacity="0.75" r="4"/>
  <circle cx="497.91460820303206" cy="550.1416487157876" fill="#ff7f0e" opacity="0.75" r="4"/>
  <circle cx="614.0789695383514" cy="586.2693465151295" fill="#1f77b4" opacity="0.75" r="4"/>
  <circle cx="507.7477252183028" cy="594.2396162422338" fill="#ff7f0e" opacity="0.75" r="4"/>
  <circle cx="914.0" cy="244.0" fill="#d62728" opacity="0.9" r="7"/>
  <text fill="#333" font-family="Arial, Helvetica, sans-serif" font-size="16" text-anchor="middle" x="570.0" y="765">Dimension 1</text>
  <text fill="#333" font-family="Arial, Helvetica, sans-serif" font-size="16" text-anchor="middle" transform="rotate(-90,85,440.0)" x="85" y="440.0">Dimension 2</text>
  <text fill="#999" font-family="Arial, Helvetica, sans-serif" font-size="12" text-anchor="end" x="1140" y="776">Auto-generated SVG</text>
</svg>
