<?xml version="1.0" encoding="utf-8" ?>
<svg xmlns="http://www.w3.org/2000/svg" xmlns:ev="http://www.w3.org/2001/xml-events" xmlns:xlink="http://www.w3.org/1999/xlink" baseProfile="full" height="800" version="1.1" width="1200">
  <defs>
    <marker id="id130" markerHeight="7" markerWidth="7" orient="auto" refX="6" refY="3">
      <path d="M0,0 L0,6 L6,3 z" fill="#333333"/>
    </marker>
  </defs>
  <rect fill="white" height="800" width="1200" x="0" y="0"/>
  <text fill="#111" font-family="Arial, Helvetica, sans-serif" font-size="28" font-weight="700" x="60" y="50">Figure 14.3: Caduceus Equivariance (Three-Panel)</text>
  <text fill="#444" font-family="Arial, Helvetica, sans-serif" font-size="16" x="60" y="78">Panel C</text>
  <line stroke="#333" stroke-width="2" x1="140" x2="1000" y1="720" y2="720"/>
  <line stroke="#333" stroke-width="2" x1="140" x2="140" y1="160" y2="720"/>
  <circle cx="436.8410925928168" cy="482.00527017279006" fill="#ff7f0e" opacity="0.75" r="4"/>
  <circle cx="423.7681357640258" cy="446.6186898172192" fill="#2ca02c" opacity="0.75" r="4"/>
  <circle cx="394.36908891872133" cy="478.46562417422143" fill="#1f77b4" opacity="0.75" r="4"/>
  <circle cx="423.3513893663361" cy="527.1038496773892" fill="#2ca02c" opacity="0.75" r="4"/>
  <circle cx="352.7153177835565" cy="483.9290380562265" fill="#2ca02c" opacity="0.75" r="4"/>
  <circle cx="413.7592578181627" cy="479.933176495397" fill="#ff7f0e" opacity="0.75" r="4"/>
  <circle cx="446.84093338959315" cy="578.4287411781003" fill="#2ca02c" opacity="0.75" r="4"/>
  <circle cx="389.5633576764492" cy="490.17536826198267" fill="#1f77b4" opacity="0.75" r="4"/>
  <circle cx="390.3796348851891" cy="476.68201121097525" fill="#2ca02c" opacity="0.75" r="4"/>
  <circle cx="255.46420265883586" cy="547.8652679003844" fill="#ff7f0e" opacity="0.75" r="4"/>
  <circle cx="423.540927929662" cy="549.5293410542154" fill="#1f77b4" opacity="0.75" r="4"/>
  <circle cx="397.13798327232956" cy="589.4076028326524" fill="#2ca02c" opacity="0.75" r="4"/>
  <circle cx="431.7138080154292" cy="481.5354166784235" fill="#ff7f0e" opacity="0.75" r="4"/>
  <circle cx="440.0744843209229" cy="439.4689856740461" fill="#ff7f0e" opacity="0.75" r="4"/>
  <circle cx="287.0973364279315" cy="563.1088924870216" fill="#1f77b4" opacity="0.75" r="4"/>
  <circle cx="406.62713626198837" cy="463.74030806881" fill="#2ca02c" opacity="0.75" r="4"/>
  <circle cx="336.7011729934313" cy="567.4981350681962" fill="#2ca02c" opacity="0.75" r="4"/>
  <circle cx="398.95399485588575" cy="531.3276915068495" fill="#2ca02c" opacity="0.75" r="4"/>
  <circle cx="402.82131557492767" cy="512.8372126326199" fill="#2ca02c" opacity="0.75" r="4"/>
  <circle cx="415.7814265378178" cy="580.0244214000977" fill="#1f77b4" opacity="0.75" r="4"/>
  <circle cx="429.17025793340736" cy="484.8835261679749" fill="#2ca02c" opacity="0.75" r="4"/>
  <circle cx="329.3209540844559" cy="535.9239836552949" fill="#2ca02c" opacity="0.75" r="4"/>
  <circle cx="459.9416182809951" cy="555.0558084972" fill="#ff7f0e" opacity="0.75" r="4"/>
  <circle cx="449.07678922343916" cy="471.3997739612262" fill="#1f77b4" opacity="0.75" r="4"/>
  <circle cx="457.05316300094864" cy="493.3747941867442" fill="#2ca02c" opacity="0.75" r="4"/>
  <circle cx="359.8342015602323" cy="506.72702468785565" fill="#2ca02c" opacity="0.75" r="4"/>
  <circle cx="382.8634993662597" cy="580.986052918371" fill="#2ca02c" opacity="0.75" r="4"/>
  <circle cx="363.4973585505917" cy="410.89505555202186" fill="#ff7f0e" opacity="0.75" r="4"/>
  <circle cx="351.1800809883728" cy="598.0735271736754" fill="#1f77b4" opacity="0.75" r="4"/>
  <circle cx="390.90909870968915" cy="571.583756603397" fill="#ff7f0e" opacity="0.75" r="4"/>
  <circle cx="407.4529461906473" cy="519.7008926357676" fill="#ff7f0e" opacity="0.75" r="4"/>
  <circle cx="340.3087706229195" cy="597.9522421400691" fill="#2ca02c" opacity="0.75" r="4"/>
  <circle cx="393.85642464761384" cy="490.53943360337576" fill="#2ca02c" opacity="0.75" r="4"/>
  <circle cx="398.0231353849749" cy="520.6362495754391" fill="#1f77b4" opacity="0.75" r="4"/>
  <circle cx="411.00321930755996" cy="522.9244295392836" fill="#1f77b4" opacity="0.75" r="4"/>
  <circle cx="358.9535712127683" cy="498.10618070747256" fill="#2ca02c" opacity="0.75" r="4"/>
  <circle cx="517.9801177819443" cy="536.4715233033614" fill="#ff7f0e" opacity="0.75" r="4"/>
  <circle cx="341.1755770852127" cy="481.5510822836809" fill="#2ca02c" opacity="0.75" r="4"/>
  <circle cx="455.2407637686868" cy="501.5354158352433" fill="#1f77b4" opacity="0.75" r="4"/>
  <circle cx="457.78433789944614" cy="529.8547399099506" fill="#1f77b4" opacity="0.75" r="4"/>
  <circle cx="388.77511734579207" cy="592.3505884473408" fill="#ff7f0e" opacity="0.75" r="4"/>
  <circle cx="388.01262520838907" cy="541.9558119247763" fill="#1f77b4" opacity="0.75" r="4"/>
  <circle cx="471.09875568028775" cy="503.1771010430011" fill="#2ca02c" opacity="0.75" r="4"/>
  <circle cx="338.94342174495506" cy="537.8625314588414" fill="#2ca02c" opacity="0.75" r="4"/>
  <circle cx="384.96140110903" cy="485.20985965480145" fill="#2ca02c" opacity="0.75" r="4"/>
  <circle cx="498.97619153517667" cy="560.0791751564809" fill="#ff7f0e" opacity="0.75" r="4"/>
  <circle cx="319.9989867681832" cy="514.5073643670609" fill="#1f77b4" opacity="0.75" r="4"/>
  <circle cx="344.86615812225955" cy="523.2120750034146" fill="#1f77b4" opacity="0.75" r="4"/>
  <circle cx="471.60733018089695" cy="497.0244889050457" fill="#1f77b4" opacity="0.75" r="4"/>
  <circle cx="325.169517133723" cy="489.16793486972176" fill="#2ca02c" opacity="0.75" r="4"/>
  <circle cx="515.0076694619261" cy="439.6995423263778" fill="#2ca02c" opacity="0.75" r="4"/>
  <circle cx="339.10107416617996" cy="593.2960013305592" fill="#2ca02c" opacity="0.75" r="4"/>
  <circle cx="358.24603416142486" cy="551.1730749757596" fill="#1f77b4" opacity="0.75" r="4"/>
  <circle cx="532.2492270625919" cy="534.3142401748405" fill="#ff7f0e" opacity="0.75" r="4"/>
  <circle cx="485.5464250421033" cy="449.83557753187733" fill="#2ca02c" opacity="0.75" r="4"/>
  <circle cx="744.8503688768046" cy="374.2721925012074" fill="#2ca02c" opacity="0.75" r="4"/>
  <circle cx="503.24477204604983" cy="346.2436687840178" fill="#ff7f0e" opacity="0.75" r="4"/>
  <circle cx="705.3769656606379" cy="458.1783460437768" fill="#ff7f0e" opacity="0.75" r="4"/>
  <circle cx="827.398260086174" cy="448.95065636342775" fill="#1f77b4" opacity="0.75" r="4"/>
  <circle cx="477.3158987814508" cy="405.0787794682764" fill="#1f77b4" opacity="0.75" r="4"/>
  <circle cx="592.8018670201071" cy="365.3894373645775" fill="#2ca02c" opacity="0.75" r="4"/>
  <circle cx="598.5981542682508" cy="386.6241005674654" fill="#2ca02c" opacity="0.75" r="4"/>
  <circle cx="666.5895618452658" cy="293.08248778055565" fill="#1f77b4" opacity="0.75" r="4"/>
  <circle cx="642.2849274040059" cy="474.838224733528" fill="#1f77b4" opacity="0.75" r="4"/>
  <circle cx="698.1526885576551" cy="400.1176282157767" fill="#2ca02c" opacity="0.75" r="4"/>
  <circle cx="703.7941953294604" cy="371.291691053695" fill="#ff7f0e" opacity="0.75" r="4"/>
  <circle cx="648.3765107701245" cy="371.22974633713574" fill="#1f77b4" opacity="0.75" r="4"/>
  <circle cx="654.6000157630058" cy="485.4490078861763" fill="#1f77b4" opacity="0.75" r="4"/>
  <circle cx="709.2900709715383" cy="349.4528033933458" fill="#ff7f0e" opacity="0.75" r="4"/>
  <circle cx="757.3946199278147" cy="348.98303678791444" fill="#ff7f0e" opacity="0.75" r="4"/>
  <circle cx="568.4144327641964" cy="373.8846966363052" fill="#2ca02c" opacity="0.75" r="4"/>
  <circle cx="620.627071065685" cy="300.21725146184224" fill="#1f77b4" opacity="0.75" r="4"/>
  <circle cx="831.9245671910691" cy="409.3654652696495" fill="#ff7f0e" opacity="0.75" r="4"/>
  <circle cx="564.8545760823708" cy="416.21356295296516" fill="#ff7f0e" opacity="0.75" r="4"/>
  <circle cx="679.1875930893713" cy="444.1528155957793" fill="#1f77b4" opacity="0.75" r="4"/>
  <circle cx="634.9337863768799" cy="496.490055466316" fill="#1f77b4" opacity="0.75" r="4"/>
  <circle cx="654.3010715172602" cy="356.3632836991528" fill="#ff7f0e" opacity="0.75" r="4"/>
  <circle cx="638.3490436321847" cy="426.9277109896161" fill="#ff7f0e" opacity="0.75" r="4"/>
  <circle cx="690.8959341557436" cy="471.4230097727504" fill="#2ca02c" opacity="0.75" r="4"/>
  <circle cx="766.6665542824626" cy="386.06770020541455" fill="#2ca02c" opacity="0.75" r="4"/>
  <circle cx="453.19972543186" cy="446.2356366098604" fill="#2ca02c" opacity="0.75" r="4"/>
  <circle cx="601.5320518713669" cy="434.97418070857464" fill="#ff7f0e" opacity="0.75" r="4"/>
  <circle cx="551.294645196457" cy="316.9247721872712" fill="#1f77b4" opacity="0.75" r="4"/>
  <circle cx="759.0462369198283" cy="414.5497790942586" fill="#2ca02c" opacity="0.75" r="4"/>
  <circle cx="751.2912090874413" cy="378.593323496106" fill="#1f77b4" opacity="0.75" r="4"/>
  <circle cx="747.6055343297027" cy="538.971704248208" fill="#2ca02c" opacity="0.75" r="4"/>
  <circle cx="699.1282789257709" cy="424.1403342571576" fill="#ff7f0e" opacity="0.75" r="4"/>
  <circle cx="532.6575656560788" cy="493.9383436931942" fill="#1f77b4" opacity="0.75" r="4"/>
  <circle cx="658.4443592161084" cy="398.33304927343" fill="#ff7f0e" opacity="0.75" r="4"/>
  <circle cx="637.0647180457297" cy="472.8954051745573" fill="#2ca02c" opacity="0.75" r="4"/>
  <circle cx="604.0261418254468" cy="352.17995705927115" fill="#1f77b4" opacity="0.75" r="4"/>
  <circle cx="635.371017092739" cy="380.8985320519681" fill="#ff7f0e" opacity="0.75" r="4"/>
  <circle cx="663.6009574790551" cy="416.1434900031402" fill="#ff7f0e" opacity="0.75" r="4"/>
  <circle cx="685.2997316791813" cy="336.9491519064451" fill="#1f77b4" opacity="0.75" r="4"/>
  <circle cx="669.5850222038574" cy="335.5958238967112" fill="#2ca02c" opacity="0.75" r="4"/>
  <circle cx="597.9071632161916" cy="389.3759941470804" fill="#1f77b4" opacity="0.75" r="4"/>
  <circle cx="542.694780046914" cy="396.18966145815295" fill="#ff7f0e" opacity="0.75" r="4"/>
  <circle cx="710.9303421197967" cy="448.761121928897" fill="#1f77b4" opacity="0.75" r="4"/>
  <circle cx="508.66374752240466" cy="462.8193635392437" fill="#1f77b4" opacity="0.75" r="4"/>
  <circle cx="710.0200304132163" cy="386.62486722119365" fill="#1f77b4" opacity="0.75" r="4"/>
  <circle cx="556.2312067307007" cy="495.0514601987204" fill="#ff7f0e" opacity="0.75" r="4"/>
  <circle cx="645.4689500969984" cy="316.55366581593876" fill="#ff7f0e" opacity="0.75" r="4"/>
  <circle cx="683.4155006412378" cy="433.1280429345033" fill="#2ca02c" opacity="0.75" r="4"/>
  <circle cx="733.4242563703684" cy="479.1642753238334" fill="#1f77b4" opacity="0.75" r="4"/>
  <circle cx="689.7232625105052" cy="559.391677766906" fill="#1f77b4" opacity="0.75" r="4"/>
  <circle cx="686.3752776963888" cy="481.17493291608685" fill="#2ca02c" opacity="0.75" r="4"/>
  <circle cx="714.6300837809293" cy="473.39287244023706" fill="#2ca02c" opacity="0.75" r="4"/>
  <circle cx="700.2725346512863" cy="372.18592241598174" fill="#1f77b4" opacity="0.75" r="4"/>
  <circle cx="610.8080805391317" cy="555.0452288617307" fill="#2ca02c" opacity="0.75" r="4"/>
  <circle cx="684.6125373759444" cy="442.49202244238325" fill="#2ca02c" opacity="0.75" r="4"/>
  <circle cx="520.9170863446678" cy="576.2161102615871" fill="#ff7f0e" opacity="0.75" r="4"/>
  <circle cx="506.4672093197283" cy="635.0817056107323" fill="#2ca02c" opacity="0.75" r="4"/>
  <circle cx="445.34826530385413" cy="497.47909507608006" fill="#2ca02c" opacity="0.75" r="4"/>
  <circle cx="514.0154614075159" cy="552.6412792180606" fill="#1f77b4" opacity="0.75" r="4"/>
  <circle cx="425.54614601284703" cy="563.713589712204" fill="#2ca02c" opacity="0.75" r="4"/>
  <circle cx="511.5921453693729" cy="631.1128801946638" fill="#ff7f0e" opacity="0.75" r="4"/>
  <circle cx="603.7521580211409" cy="555.1029654275616" fill="#ff7f0e" opacity="0.75" r="4"/>
  <circle cx="508.0632758193131" cy="673.9111704813923" fill="#2ca02c" opacity="0.75" r="4"/>
  <circle cx="498.8718626007419" cy="574.3305305874246" fill="#2ca02c" opacity="0.75" r="4"/>
  <circle cx="598.7083618771344" cy="546.700119571266" fill="#2ca02c" opacity="0.75" r="4"/>
  <circle cx="508.36037347128246" cy="577.7894606484874" fill="#1f77b4" opacity="0.75" r="4"/>
  <circle cx="542.1206848348227" cy="610.0146829553189" fill="#2ca02c" opacity="0.75" r="4"/>
  <circle cx="538.9066509867756" cy="551.1735075410556" fill="#2ca02c" opacity="0.75" r="4"/>
  <circle cx="594.38883406994" cy="581.2867278855848" fill="#2ca02c" opacity="0.75" r="4"/>
  <circle cx="523.1443395233507" cy="648.3035071970025" fill="#ff7f0e" opacity="0.75" r="4"/>
  <circle cx="582.824324106153" cy="656.3936461393473" fill="#ff7f0e" opacity="0.75" r="4"/>
  <circle cx="525.3027782094632" cy="645.9031448324708" fill="#2ca02c" opacity="0.75" r="4"/>
  <circle cx="427.88174589604637" cy="580.729685236256" fill="#2ca02c" opacity="0.75" r="4"/>
  <circle cx="496.9460102722704" cy="600.0447870181428" fill="#2ca02c" opacity="0.75" r="4"/>
  <circle cx="472.57365722607136" cy="606.17914970324" fill="#2ca02c" opacity="0.75" r="4"/>
  <circle cx="585.1144066502914" cy="599.6518824879283" fill="#2ca02c" opacity="0.75" r="4"/>
  <circle cx="558.5422457012993" cy="561.4419038241485" fill="#1f77b4" opacity="0.75" r="4"/>
  <circle cx="402.21357891291893" cy="567.588091857548" fill="#1f77b4" opacity="0.75" r="4"/>
  <circle cx="473.5879840222047" cy="563.8038583953033" fill="#ff7f0e" opacity="0.75" r="4"/>
  <circle cx="548.1473081348155" cy="603.7059576242834" fill="#1f77b4" opacity="0.75" r="4"/>
  <circle cx="497.8102717376978" cy="581.2648987472659" fill="#2ca02c" opacity="0.75" r="4"/>
  <circle cx="483.2157466177467" cy="524.3070947774678" fill="#ff7f0e" opacity="0.75" r="4"/>
  <circle cx="403.9597575270837" cy="634.448953053899" fill="#1f77b4" opacity="0.75" r="4"/>
  <circle cx="552.8673402493944" cy="614.3301583656024" fill="#ff7f0e" opacity="0.75" r="4"/>
  <circle cx="500.2121121652678" cy="528.6181110535256" fill="#2ca02c" opacity="0.75" r="4"/>
  <circle cx="568.350111589787" cy="649.6758939556125" fill="#1f77b4" opacity="0.75" r="4"/>
  <circle cx="503.39562078780295" cy="575.4588379049134" fill="#2ca02c" opacity="0.75" r="4"/>
  <circle cx="467.3128704355762" cy="571.7404219015793" fill="#ff7f0e" opacity="0.75" r="4"/>
  <circle cx="498.7674030394198" cy="627.2100280416298" fill="#ff7f0e" opacity="0.75" r="4"/>
  <circle cx="486.3078271559021" cy="543.2270567779325" fill="#2ca02c" opacity="0.75" r="4"/>
  <circle cx="556.5148436898744" cy="655.5758716482234" fill="#2ca02c" opacity="0.75" r="4"/>
  <circle cx="551.2935217164707" cy="579.6174624732265" fill="#ff7f0e" opacity="0.75" r="4"/>
  <circle cx="485.4860072935697" cy="593.4227462875087" fill="#2ca02c" opacity="0.75" r="4"/>
  <circle cx="522.7542975062031" cy="531.7392990817204" fill="#2ca02c" opacity="0.75" r="4"/>
  <circle cx="545.2350221597394" cy="543.0767160345304" fill="#2ca02c" opacity="0.75" r="4"/>
  <circle cx="572.3062015149783" cy="565.5500577911325" fill="#ff7f0e" opacity="0.75" r="4"/>
  <circle cx="510.84073836900063" cy="620.1886292038935" fill="#2ca02c" opacity="0.75" r="4"/>
  <circle cx="400.60000815421597" cy="598.0586862319092" fill="#1f77b4" opacity="0.75" r="4"/>
  <circle cx="525.582379113451" cy="609.0238690150569" fill="#ff7f0e" opacity="0.75" r="4"/>
  <circle cx="464.31783990203314" cy="584.0820715242453" fill="#ff7f0e" opacity="0.75" r="4"/>
  <circle cx="510.4374598151299" cy="578.3380235408738" fill="#1f77b4" opacity="0.75" r="4"/>
  <circle cx="555.2285987012403" cy="584.0359832297722" fill="#1f77b4" opacity="0.75" r="4"/>
  <circle cx="463.5017900926407" cy="598.1029914090104" fill="#1f77b4" opacity="0.75" r="4"/>
  <circle cx="634.487527277863" cy="606.3378452103426" fill="#ff7f0e" opacity="0.75" r="4"/>
  <circle cx="604.9125141897968" cy="637.6168180098434" fill="#1f77b4" opacity="0.75" r="4"/>
  <circle cx="549.4535160334194" cy="598.8512327551736" fill="#1f77b4" opacity="0.75" r="4"/>
  <circle cx="509.26031910914435" cy="539.6944468366415" fill="#ff7f0e" opacity="0.75" r="4"/>
  <circle cx="410.76592364003494" cy="575.0760255288217" fill="#2ca02c" opacity="0.75" r="4"/>
  <circle cx="568.9935119434424" cy="647.7165861876324" fill="#ff7f0e" opacity="0.75" r="4"/>
  <circle cx="587.4656059947455" cy="579.1173534066133" fill="#ff7f0e" opacity="0.75" r="4"/>
  <circle cx="914.0" cy="244.0" fill="#d62728" opacity="0.9" r="7"/>
  <text fill="#333" font-family="Arial, Helvetica, sans-serif" font-size="16" text-anchor="middle" x="570.0" y="765">Dimension 1</text>
  <text fill="#333" font-family="Arial, Helvetica, sans-serif" font-size="16" text-anchor="middle" transform="rotate(-90,85,440.0)" x="85" y="440.0">Dimension 2</text>
  <text fill="#999" font-family="Arial, Helvetica, sans-serif" font-size="12" text-anchor="end" x="1140" y="776">Auto-generated SVG</text>
</svg>
