<?xml version="1.0" encoding="UTF-8" standalone="no"?>
<!DOCTYPE svg PUBLIC "-//W3C//DTD SVG 1.1//EN"
 "http://www.w3.org/Graphics/SVG/1.1/DTD/svg11.dtd">
<!-- Generated by graphviz version 2.43.0 (0)
 -->
<!-- Title: caduceus Pages: 1 -->
<svg width="576pt" height="161pt"
 viewBox="0.00 0.00 576.00 161.28" xmlns="http://www.w3.org/2000/svg" xmlns:xlink="http://www.w3.org/1999/xlink">
<g id="graph0" class="graph" transform="scale(1.65 1.65) rotate(0) translate(4 94)">
<title>caduceus</title>
<polygon fill="white" stroke="transparent" points="-4,4 -4,-94 346,-94 346,4 -4,4"/>
<!-- input -->
<g id="node1" class="node">
<title>input</title>
<path fill="#aec7e8" stroke="black" stroke-width="1.5" d="M47,-63C47,-63 12,-63 12,-63 6,-63 0,-57 0,-51 0,-51 0,-39 0,-39 0,-33 6,-27 12,-27 12,-27 47,-27 47,-27 53,-27 59,-33 59,-39 59,-39 59,-51 59,-51 59,-57 53,-63 47,-63"/>
<text text-anchor="middle" x="29.5" y="-42.8" font-family="Arial" font-size="9.00">Sequence</text>
</g>
<!-- fwd -->
<g id="node2" class="node">
<title>fwd</title>
<path fill="#2ca02c" stroke="black" stroke-width="1.5" d="M137,-90C137,-90 107,-90 107,-90 101,-90 95,-84 95,-78 95,-78 95,-66 95,-66 95,-60 101,-54 107,-54 107,-54 137,-54 137,-54 143,-54 149,-60 149,-66 149,-66 149,-78 149,-78 149,-84 143,-90 137,-90"/>
<text text-anchor="middle" x="122" y="-74.8" font-family="Arial" font-size="9.00" fill="white">Forward</text>
<text text-anchor="middle" x="122" y="-64.8" font-family="Arial" font-size="9.00" fill="white">Mamba</text>
</g>
<!-- input&#45;&gt;fwd -->
<g id="edge1" class="edge">
<title>input&#45;&gt;fwd</title>
<path fill="none" stroke="black" d="M59.13,-53.54C67.32,-55.99 76.35,-58.68 84.93,-61.24"/>
<polygon fill="black" stroke="black" points="84.12,-64.65 94.7,-64.15 86.12,-57.94 84.12,-64.65"/>
</g>
<!-- rev -->
<g id="node3" class="node">
<title>rev</title>
<path fill="#2ca02c" stroke="black" stroke-width="1.5" d="M137,-36C137,-36 107,-36 107,-36 101,-36 95,-30 95,-24 95,-24 95,-12 95,-12 95,-6 101,0 107,0 107,0 137,0 137,0 143,0 149,-6 149,-12 149,-12 149,-24 149,-24 149,-30 143,-36 137,-36"/>
<text text-anchor="middle" x="122" y="-20.8" font-family="Arial" font-size="9.00" fill="white">Reverse</text>
<text text-anchor="middle" x="122" y="-10.8" font-family="Arial" font-size="9.00" fill="white">Mamba</text>
</g>
<!-- input&#45;&gt;rev -->
<g id="edge2" class="edge">
<title>input&#45;&gt;rev</title>
<path fill="none" stroke="black" d="M59.13,-36.46C67.32,-34.01 76.35,-31.32 84.93,-28.76"/>
<polygon fill="black" stroke="black" points="86.12,-32.06 94.7,-25.85 84.12,-25.35 86.12,-32.06"/>
</g>
<!-- equi -->
<g id="node4" class="node">
<title>equi</title>
<path fill="#9467bd" stroke="black" stroke-width="1.5" d="M236,-63C236,-63 197,-63 197,-63 191,-63 185,-57 185,-51 185,-51 185,-39 185,-39 185,-33 191,-27 197,-27 197,-27 236,-27 236,-27 242,-27 248,-33 248,-39 248,-39 248,-51 248,-51 248,-57 242,-63 236,-63"/>
<text text-anchor="middle" x="216.5" y="-47.8" font-family="Arial" font-size="9.00" fill="white">Equivariant</text>
<text text-anchor="middle" x="216.5" y="-37.8" font-family="Arial" font-size="9.00" fill="white">Fusion</text>
</g>
<!-- fwd&#45;&gt;equi -->
<g id="edge3" class="edge">
<title>fwd&#45;&gt;equi</title>
<path fill="none" stroke="black" d="M149.26,-64.34C157.33,-61.98 166.41,-59.33 175.2,-56.76"/>
<polygon fill="black" stroke="black" points="176.3,-60.09 184.92,-53.93 174.34,-53.37 176.3,-60.09"/>
</g>
<!-- rev&#45;&gt;equi -->
<g id="edge4" class="edge">
<title>rev&#45;&gt;equi</title>
<path fill="none" stroke="black" d="M149.26,-25.66C157.33,-28.02 166.41,-30.67 175.2,-33.24"/>
<polygon fill="black" stroke="black" points="174.34,-36.63 184.92,-36.07 176.3,-29.91 174.34,-36.63"/>
</g>
<!-- output -->
<g id="node5" class="node">
<title>output</title>
<path fill="#98df8a" stroke="black" stroke-width="1.5" d="M330,-63C330,-63 296,-63 296,-63 290,-63 284,-57 284,-51 284,-51 284,-39 284,-39 284,-33 290,-27 296,-27 296,-27 330,-27 330,-27 336,-27 342,-33 342,-39 342,-39 342,-51 342,-51 342,-57 336,-63 330,-63"/>
<text text-anchor="middle" x="313" y="-47.8" font-family="Arial" font-size="9.00">Identical</text>
<text text-anchor="middle" x="313" y="-37.8" font-family="Arial" font-size="9.00">Prediction</text>
</g>
<!-- equi&#45;&gt;output -->
<g id="edge5" class="edge">
<title>equi&#45;&gt;output</title>
<path fill="none" stroke="black" d="M248.18,-45C256.3,-45 265.17,-45 273.65,-45"/>
<polygon fill="black" stroke="black" points="273.71,-48.5 283.71,-45 273.71,-41.5 273.71,-48.5"/>
</g>
</g>
</svg>
