<?xml version="1.0" encoding="utf-8" ?>
<svg xmlns="http://www.w3.org/2000/svg" xmlns:ev="http://www.w3.org/2001/xml-events" xmlns:xlink="http://www.w3.org/1999/xlink" baseProfile="full" height="800" version="1.1" width="1200">
  <defs>
    <marker id="id133" markerHeight="7" markerWidth="7" orient="auto" refX="6" refY="3">
      <path d="M0,0 L0,6 L6,3 z" fill="#333333"/>
    </marker>
  </defs>
  <rect fill="white" height="800" width="1200" x="0" y="0"/>
  <text fill="#111" font-family="Arial, Helvetica, sans-serif" font-size="28" font-weight="700" x="60" y="50">Figure 14.4: Evo 2 Training (Three-Panel)</text>
  <text fill="#444" font-family="Arial, Helvetica, sans-serif" font-size="16" x="60" y="78">Panel C</text>
  <line stroke="#333" stroke-width="2" x1="140" x2="1000" y1="720" y2="720"/>
  <line stroke="#333" stroke-width="2" x1="140" x2="140" y1="160" y2="720"/>
  <circle cx="371.1138245456988" cy="549.927882971735" fill="#2ca02c" opacity="0.75" r="4"/>
  <circle cx="358.4832592137076" cy="542.7431282856235" fill="#1f77b4" opacity="0.75" r="4"/>
  <circle cx="431.9065349644336" cy="544.5148378394761" fill="#ff7f0e" opacity="0.75" r="4"/>
  <circle cx="489.1196888506651" cy="506.79186254728154" fill="#1f77b4" opacity="0.75" r="4"/>
  <circle cx="425.2143689085713" cy="521.4866016651488" fill="#2ca02c" opacity="0.75" r="4"/>
  <circle cx="413.6746989667245" cy="546.946558287787" fill="#ff7f0e" opacity="0.75" r="4"/>
  <circle cx="479.1812088525399" cy="529.6099767848347" fill="#2ca02c" opacity="0.75" r="4"/>
  <circle cx="461.1958417735451" cy="517.3122474439685" fill="#1f77b4" opacity="0.75" r="4"/>
  <circle cx="447.62046861319857" cy="481.73778552065494" fill="#ff7f0e" opacity="0.75" r="4"/>
  <circle cx="404.97025228451946" cy="566.1082818715436" fill="#1f77b4" opacity="0.75" r="4"/>
  <circle cx="354.50674737251325" cy="493.99562167210314" fill="#ff7f0e" opacity="0.75" r="4"/>
  <circle cx="437.9179854497417" cy="528.5248570531751" fill="#1f77b4" opacity="0.75" r="4"/>
  <circle cx="434.452447863008" cy="525.0101630061856" fill="#2ca02c" opacity="0.75" r="4"/>
  <circle cx="453.0256658478735" cy="541.7609194624848" fill="#2ca02c" opacity="0.75" r="4"/>
  <circle cx="363.7001315389671" cy="574.6871010023574" fill="#2ca02c" opacity="0.75" r="4"/>
  <circle cx="345.8126482927557" cy="539.0779011387639" fill="#2ca02c" opacity="0.75" r="4"/>
  <circle cx="470.75675342289577" cy="574.7252578108155" fill="#1f77b4" opacity="0.75" r="4"/>
  <circle cx="327.9359987450954" cy="493.1703184586446" fill="#2ca02c" opacity="0.75" r="4"/>
  <circle cx="412.5412048679552" cy="529.3479334253991" fill="#1f77b4" opacity="0.75" r="4"/>
  <circle cx="496.5605015662015" cy="521.8710094146759" fill="#2ca02c" opacity="0.75" r="4"/>
  <circle cx="518.3519737540767" cy="538.9852772190554" fill="#1f77b4" opacity="0.75" r="4"/>
  <circle cx="357.5108683266736" cy="530.278579592774" fill="#2ca02c" opacity="0.75" r="4"/>
  <circle cx="423.4370148573549" cy="493.4141677580563" fill="#2ca02c" opacity="0.75" r="4"/>
  <circle cx="394.74045742922067" cy="554.6218851571304" fill="#2ca02c" opacity="0.75" r="4"/>
  <circle cx="390.9307562155841" cy="469.18973590850334" fill="#1f77b4" opacity="0.75" r="4"/>
  <circle cx="324.08010910926873" cy="499.8164985607012" fill="#ff7f0e" opacity="0.75" r="4"/>
  <circle cx="445.75754574233275" cy="464.29903767263147" fill="#1f77b4" opacity="0.75" r="4"/>
  <circle cx="340.55389349280773" cy="548.8427207673374" fill="#1f77b4" opacity="0.75" r="4"/>
  <circle cx="361.68604683039325" cy="528.357221064265" fill="#ff7f0e" opacity="0.75" r="4"/>
  <circle cx="357.8748112403131" cy="504.52426779143013" fill="#2ca02c" opacity="0.75" r="4"/>
  <circle cx="394.94771725756516" cy="548.6065960287078" fill="#2ca02c" opacity="0.75" r="4"/>
  <circle cx="384.6312821196526" cy="480.1063097560395" fill="#1f77b4" opacity="0.75" r="4"/>
  <circle cx="460.5333949625489" cy="534.1082274501707" fill="#2ca02c" opacity="0.75" r="4"/>
  <circle cx="329.03332012947044" cy="489.5934123655649" fill="#1f77b4" opacity="0.75" r="4"/>
  <circle cx="519.3704346548382" cy="532.4513281570718" fill="#1f77b4" opacity="0.75" r="4"/>
  <circle cx="366.6743588356712" cy="557.5855485353768" fill="#ff7f0e" opacity="0.75" r="4"/>
  <circle cx="381.00714342639367" cy="584.9567210830317" fill="#1f77b4" opacity="0.75" r="4"/>
  <circle cx="286.76690829481134" cy="466.29160055407885" fill="#2ca02c" opacity="0.75" r="4"/>
  <circle cx="373.0107686234678" cy="504.6874694681193" fill="#ff7f0e" opacity="0.75" r="4"/>
  <circle cx="332.28282892322125" cy="493.007650516025" fill="#ff7f0e" opacity="0.75" r="4"/>
  <circle cx="460.3513039878925" cy="529.5760528084827" fill="#2ca02c" opacity="0.75" r="4"/>
  <circle cx="488.58875649055483" cy="431.02118610005306" fill="#ff7f0e" opacity="0.75" r="4"/>
  <circle cx="360.3358069193906" cy="519.4596540155251" fill="#ff7f0e" opacity="0.75" r="4"/>
  <circle cx="312.6613957189343" cy="518.5498986469994" fill="#ff7f0e" opacity="0.75" r="4"/>
  <circle cx="422.9915596921343" cy="495.94995656163644" fill="#ff7f0e" opacity="0.75" r="4"/>
  <circle cx="510.3181785240195" cy="522.8367020170142" fill="#2ca02c" opacity="0.75" r="4"/>
  <circle cx="383.86932505745114" cy="606.4367661114447" fill="#2ca02c" opacity="0.75" r="4"/>
  <circle cx="343.52050089368" cy="454.7198439971136" fill="#1f77b4" opacity="0.75" r="4"/>
  <circle cx="351.39614045879944" cy="530.263298148217" fill="#ff7f0e" opacity="0.75" r="4"/>
  <circle cx="408.8429906603575" cy="515.2353859665344" fill="#ff7f0e" opacity="0.75" r="4"/>
  <circle cx="489.3663901228344" cy="499.68417493536424" fill="#ff7f0e" opacity="0.75" r="4"/>
  <circle cx="373.47196570437507" cy="528.510463077728" fill="#1f77b4" opacity="0.75" r="4"/>
  <circle cx="277.6326029669624" cy="593.5756657297088" fill="#1f77b4" opacity="0.75" r="4"/>
  <circle cx="479.07280515285885" cy="565.047679655413" fill="#ff7f0e" opacity="0.75" r="4"/>
  <circle cx="360.12691048929423" cy="559.2591039137943" fill="#ff7f0e" opacity="0.75" r="4"/>
  <circle cx="742.6453920642452" cy="422.83137321870345" fill="#ff7f0e" opacity="0.75" r="4"/>
  <circle cx="585.5113532772557" cy="374.0367218992148" fill="#ff7f0e" opacity="0.75" r="4"/>
  <circle cx="616.0710836972631" cy="442.07553833343155" fill="#1f77b4" opacity="0.75" r="4"/>
  <circle cx="699.2980744572664" cy="440.8838449508816" fill="#ff7f0e" opacity="0.75" r="4"/>
  <circle cx="660.2122629129927" cy="432.9654286162554" fill="#2ca02c" opacity="0.75" r="4"/>
  <circle cx="587.5413255804942" cy="392.0031639518264" fill="#1f77b4" opacity="0.75" r="4"/>
  <circle cx="615.5502569884086" cy="417.93470938090724" fill="#1f77b4" opacity="0.75" r="4"/>
  <circle cx="794.0440853248815" cy="367.8545723513803" fill="#1f77b4" opacity="0.75" r="4"/>
  <circle cx="785.3876777158758" cy="421.2597170199637" fill="#2ca02c" opacity="0.75" r="4"/>
  <circle cx="538.4481636299901" cy="454.4604255468196" fill="#ff7f0e" opacity="0.75" r="4"/>
  <circle cx="666.4199363195801" cy="353.5591908568666" fill="#ff7f0e" opacity="0.75" r="4"/>
  <circle cx="649.618334077626" cy="455.6896257941993" fill="#ff7f0e" opacity="0.75" r="4"/>
  <circle cx="512.4365241592938" cy="352.89168073933735" fill="#1f77b4" opacity="0.75" r="4"/>
  <circle cx="706.4983047238694" cy="375.9838516589003" fill="#1f77b4" opacity="0.75" r="4"/>
  <circle cx="696.2603332825097" cy="467.8631656998976" fill="#ff7f0e" opacity="0.75" r="4"/>
  <circle cx="781.5128690961495" cy="385.1436224373189" fill="#2ca02c" opacity="0.75" r="4"/>
  <circle cx="623.4386125260614" cy="541.4148216648045" fill="#1f77b4" opacity="0.75" r="4"/>
  <circle cx="786.2531183414434" cy="399.6944122747493" fill="#2ca02c" opacity="0.75" r="4"/>
  <circle cx="722.8685813341112" cy="465.8503391252847" fill="#1f77b4" opacity="0.75" r="4"/>
  <circle cx="631.2879275821789" cy="465.9664925543941" fill="#1f77b4" opacity="0.75" r="4"/>
  <circle cx="578.886552360159" cy="465.01949002016767" fill="#ff7f0e" opacity="0.75" r="4"/>
  <circle cx="634.2466638930191" cy="416.68299366031516" fill="#ff7f0e" opacity="0.75" r="4"/>
  <circle cx="621.5956664491246" cy="487.59781666988926" fill="#ff7f0e" opacity="0.75" r="4"/>
  <circle cx="698.4675572949595" cy="374.8126825296427" fill="#2ca02c" opacity="0.75" r="4"/>
  <circle cx="778.2759896022071" cy="461.1186165225371" fill="#2ca02c" opacity="0.75" r="4"/>
  <circle cx="643.8372732499765" cy="476.8314227204068" fill="#ff7f0e" opacity="0.75" r="4"/>
  <circle cx="589.0675403224196" cy="404.26508950263224" fill="#1f77b4" opacity="0.75" r="4"/>
  <circle cx="673.6685470525521" cy="413.23648749449046" fill="#ff7f0e" opacity="0.75" r="4"/>
  <circle cx="671.9817050975531" cy="440.4817076881782" fill="#1f77b4" opacity="0.75" r="4"/>
  <circle cx="725.1986942940681" cy="387.5840289609723" fill="#1f77b4" opacity="0.75" r="4"/>
  <circle cx="647.2740624135413" cy="478.3669915988068" fill="#ff7f0e" opacity="0.75" r="4"/>
  <circle cx="599.8989713957585" cy="325.61756454989666" fill="#2ca02c" opacity="0.75" r="4"/>
  <circle cx="644.3906788452871" cy="525.733945243491" fill="#2ca02c" opacity="0.75" r="4"/>
  <circle cx="744.4334518227021" cy="524.9818435015188" fill="#ff7f0e" opacity="0.75" r="4"/>
  <circle cx="581.2471471140111" cy="402.8231192961173" fill="#2ca02c" opacity="0.75" r="4"/>
  <circle cx="634.7301032595466" cy="458.06221080326156" fill="#ff7f0e" opacity="0.75" r="4"/>
  <circle cx="606.6297322701196" cy="396.94822569825516" fill="#2ca02c" opacity="0.75" r="4"/>
  <circle cx="625.6775709242999" cy="363.44952545438946" fill="#ff7f0e" opacity="0.75" r="4"/>
  <circle cx="661.0975067095237" cy="505.17760318720644" fill="#ff7f0e" opacity="0.75" r="4"/>
  <circle cx="552.6704268742828" cy="399.9389796036537" fill="#1f77b4" opacity="0.75" r="4"/>
  <circle cx="603.9599744372704" cy="515.0672179231211" fill="#2ca02c" opacity="0.75" r="4"/>
  <circle cx="593.181705564868" cy="406.2516943122883" fill="#2ca02c" opacity="0.75" r="4"/>
  <circle cx="692.2382531361127" cy="328.2789822155446" fill="#2ca02c" opacity="0.75" r="4"/>
  <circle cx="577.9057535522077" cy="355.9058770515893" fill="#ff7f0e" opacity="0.75" r="4"/>
  <circle cx="770.3756416603766" cy="452.484252180612" fill="#1f77b4" opacity="0.75" r="4"/>
  <circle cx="628.7980921128228" cy="501.06769906821705" fill="#2ca02c" opacity="0.75" r="4"/>
  <circle cx="614.7069031179634" cy="418.2528557121613" fill="#ff7f0e" opacity="0.75" r="4"/>
  <circle cx="607.3427290274269" cy="410.9734581999807" fill="#ff7f0e" opacity="0.75" r="4"/>
  <circle cx="626.7844286709931" cy="509.4317169258822" fill="#ff7f0e" opacity="0.75" r="4"/>
  <circle cx="691.9530452355343" cy="389.12862576444667" fill="#ff7f0e" opacity="0.75" r="4"/>
  <circle cx="463.2606207926934" cy="401.45562859002723" fill="#1f77b4" opacity="0.75" r="4"/>
  <circle cx="739.5626609729867" cy="413.39921476406664" fill="#ff7f0e" opacity="0.75" r="4"/>
  <circle cx="609.7800263287205" cy="470.40230719556894" fill="#2ca02c" opacity="0.75" r="4"/>
  <circle cx="726.4876448371349" cy="406.1434721268558" fill="#1f77b4" opacity="0.75" r="4"/>
  <circle cx="679.6374153828879" cy="452.06166106406084" fill="#1f77b4" opacity="0.75" r="4"/>
  <circle cx="566.6309132161439" cy="553.2666880898939" fill="#ff7f0e" opacity="0.75" r="4"/>
  <circle cx="543.9336919352794" cy="568.7854711555659" fill="#1f77b4" opacity="0.75" r="4"/>
  <circle cx="541.710799635711" cy="597.7733979467928" fill="#2ca02c" opacity="0.75" r="4"/>
  <circle cx="705.7187099133465" cy="583.8853537012277" fill="#ff7f0e" opacity="0.75" r="4"/>
  <circle cx="563.9689622504004" cy="591.3350805547701" fill="#2ca02c" opacity="0.75" r="4"/>
  <circle cx="563.2055082128165" cy="575.8299168007948" fill="#ff7f0e" opacity="0.75" r="4"/>
  <circle cx="521.0509006182498" cy="576.7633335657397" fill="#2ca02c" opacity="0.75" r="4"/>
  <circle cx="547.962361687772" cy="546.9048833919127" fill="#ff7f0e" opacity="0.75" r="4"/>
  <circle cx="476.24063934589554" cy="641.8351505004624" fill="#ff7f0e" opacity="0.75" r="4"/>
  <circle cx="434.93890489480714" cy="602.4495459890553" fill="#ff7f0e" opacity="0.75" r="4"/>
  <circle cx="559.6739797913658" cy="584.763929017942" fill="#1f77b4" opacity="0.75" r="4"/>
  <circle cx="501.9563191087464" cy="605.8175443786338" fill="#1f77b4" opacity="0.75" r="4"/>
  <circle cx="397.2932072887834" cy="533.1479754363841" fill="#ff7f0e" opacity="0.75" r="4"/>
  <circle cx="454.7054515964175" cy="528.2495077461283" fill="#2ca02c" opacity="0.75" r="4"/>
  <circle cx="546.0485145753755" cy="544.7161299841415" fill="#2ca02c" opacity="0.75" r="4"/>
  <circle cx="542.3458155337535" cy="589.4404885483877" fill="#1f77b4" opacity="0.75" r="4"/>
  <circle cx="439.9099996691888" cy="632.3393238172795" fill="#ff7f0e" opacity="0.75" r="4"/>
  <circle cx="483.4696651344752" cy="561.3631314130506" fill="#ff7f0e" opacity="0.75" r="4"/>
  <circle cx="590.0581720113767" cy="632.1338439049769" fill="#2ca02c" opacity="0.75" r="4"/>
  <circle cx="530.9873072240327" cy="529.8445505749763" fill="#1f77b4" opacity="0.75" r="4"/>
  <circle cx="597.1695219449543" cy="571.3486178766018" fill="#1f77b4" opacity="0.75" r="4"/>
  <circle cx="513.846938156586" cy="573.068082360676" fill="#ff7f0e" opacity="0.75" r="4"/>
  <circle cx="472.0979951699981" cy="678.05193218954" fill="#ff7f0e" opacity="0.75" r="4"/>
  <circle cx="481.2035994099673" cy="570.0244040455375" fill="#1f77b4" opacity="0.75" r="4"/>
  <circle cx="485.33178626834126" cy="564.1849668421382" fill="#2ca02c" opacity="0.75" r="4"/>
  <circle cx="548.629668297171" cy="623.5815974467876" fill="#ff7f0e" opacity="0.75" r="4"/>
  <circle cx="419.23342531294514" cy="597.4504340395214" fill="#2ca02c" opacity="0.75" r="4"/>
  <circle cx="558.272955362755" cy="553.8832677184809" fill="#ff7f0e" opacity="0.75" r="4"/>
  <circle cx="483.8653930145086" cy="645.7823749110291" fill="#ff7f0e" opacity="0.75" r="4"/>
  <circle cx="589.2780738203842" cy="665.2488988410705" fill="#1f77b4" opacity="0.75" r="4"/>
  <circle cx="623.5052735180623" cy="645.5284272111173" fill="#1f77b4" opacity="0.75" r="4"/>
  <circle cx="503.6616866826375" cy="597.5242629710822" fill="#2ca02c" opacity="0.75" r="4"/>
  <circle cx="583.4575216607182" cy="564.3042094838825" fill="#ff7f0e" opacity="0.75" r="4"/>
  <circle cx="559.8335416408418" cy="576.3945687539034" fill="#2ca02c" opacity="0.75" r="4"/>
  <circle cx="585.2049817381013" cy="592.2657565705184" fill="#2ca02c" opacity="0.75" r="4"/>
  <circle cx="574.9537078802938" cy="558.7870155492733" fill="#ff7f0e" opacity="0.75" r="4"/>
  <circle cx="504.97041978407236" cy="592.7988388021889" fill="#1f77b4" opacity="0.75" r="4"/>
  <circle cx="550.864899614442" cy="599.8096462126746" fill="#2ca02c" opacity="0.75" r="4"/>
  <circle cx="572.0344112718687" cy="610.3000443371313" fill="#2ca02c" opacity="0.75" r="4"/>
  <circle cx="537.6540141643225" cy="590.7345652953761" fill="#2ca02c" opacity="0.75" r="4"/>
  <circle cx="647.5543961661563" cy="608.0598166315345" fill="#2ca02c" opacity="0.75" r="4"/>
  <circle cx="381.16250546592653" cy="588.5769538666601" fill="#1f77b4" opacity="0.75" r="4"/>
  <circle cx="489.49963533141" cy="588.8651898144954" fill="#ff7f0e" opacity="0.75" r="4"/>
  <circle cx="509.49024885119996" cy="626.6094964485363" fill="#2ca02c" opacity="0.75" r="4"/>
  <circle cx="530.7844227759325" cy="553.7643229429325" fill="#2ca02c" opacity="0.75" r="4"/>
  <circle cx="552.3174514955273" cy="616.4366312790435" fill="#ff7f0e" opacity="0.75" r="4"/>
  <circle cx="422.8470422689813" cy="610.9335525094398" fill="#2ca02c" opacity="0.75" r="4"/>
  <circle cx="639.1038876396559" cy="564.9330326558413" fill="#2ca02c" opacity="0.75" r="4"/>
  <circle cx="603.4634188452943" cy="602.3640394139027" fill="#ff7f0e" opacity="0.75" r="4"/>
  <circle cx="481.18179825301013" cy="470.9571986504453" fill="#2ca02c" opacity="0.75" r="4"/>
  <circle cx="520.034990924702" cy="573.3153629120093" fill="#1f77b4" opacity="0.75" r="4"/>
  <circle cx="541.2877936618046" cy="545.1923144055145" fill="#2ca02c" opacity="0.75" r="4"/>
  <circle cx="491.15614236688043" cy="540.7200302352301" fill="#1f77b4" opacity="0.75" r="4"/>
  <circle cx="604.8893164430108" cy="592.8214412711859" fill="#ff7f0e" opacity="0.75" r="4"/>
  <circle cx="556.5652999958788" cy="584.3170138181843" fill="#2ca02c" opacity="0.75" r="4"/>
  <circle cx="914.0" cy="244.0" fill="#d62728" opacity="0.9" r="7"/>
  <text fill="#333" font-family="Arial, Helvetica, sans-serif" font-size="16" text-anchor="middle" x="570.0" y="765">Dimension 1</text>
  <text fill="#333" font-family="Arial, Helvetica, sans-serif" font-size="16" text-anchor="middle" transform="rotate(-90,85,440.0)" x="85" y="440.0">Dimension 2</text>
  <text fill="#999" font-family="Arial, Helvetica, sans-serif" font-size="12" text-anchor="end" x="1140" y="776">Auto-generated SVG</text>
</svg>
