<?xml version="1.0" encoding="utf-8" ?>
<svg xmlns="http://www.w3.org/2000/svg" xmlns:ev="http://www.w3.org/2001/xml-events" xmlns:xlink="http://www.w3.org/1999/xlink" baseProfile="full" height="800" version="1.1" width="1200">
  <defs>
    <marker id="id85" markerHeight="7" markerWidth="7" orient="auto" refX="6" refY="3">
      <path d="M0,0 L0,6 L6,3 z" fill="#333333"/>
    </marker>
  </defs>
  <rect fill="white" height="800" width="1200" x="0" y="0"/>
  <text fill="#111" font-family="Arial, Helvetica, sans-serif" font-size="28" font-weight="700" x="60" y="50">Figure 10.4: Domain Shift Detection (Three-Panel)</text>
  <text fill="#444" font-family="Arial, Helvetica, sans-serif" font-size="16" x="60" y="78">Panel B</text>
  <line stroke="#333" stroke-width="2" x1="140" x2="1000" y1="720" y2="720"/>
  <line stroke="#333" stroke-width="2" x1="140" x2="140" y1="160" y2="720"/>
  <circle cx="292.26920807651027" cy="572.3125793260504" fill="#2ca02c" opacity="0.75" r="4"/>
  <circle cx="479.5668534828453" cy="521.442961709515" fill="#2ca02c" opacity="0.75" r="4"/>
  <circle cx="271.4970736157277" cy="429.9191931190586" fill="#1f77b4" opacity="0.75" r="4"/>
  <circle cx="344.92199732896745" cy="508.6141034248011" fill="#2ca02c" opacity="0.75" r="4"/>
  <circle cx="392.68748342170426" cy="479.0145853919771" fill="#2ca02c" opacity="0.75" r="4"/>
  <circle cx="444.7416526037985" cy="588.8946446851521" fill="#ff7f0e" opacity="0.75" r="4"/>
  <circle cx="560.2680601001853" cy="542.9250983657485" fill="#ff7f0e" opacity="0.75" r="4"/>
  <circle cx="479.70124117851617" cy="523.0573707301305" fill="#1f77b4" opacity="0.75" r="4"/>
  <circle cx="272.22915073877016" cy="468.3243311320525" fill="#1f77b4" opacity="0.75" r="4"/>
  <circle cx="559.5203415991589" cy="530.7081216448343" fill="#1f77b4" opacity="0.75" r="4"/>
  <circle cx="423.76473585500355" cy="569.3882853635612" fill="#2ca02c" opacity="0.75" r="4"/>
  <circle cx="236.52047057975128" cy="517.8324003683434" fill="#2ca02c" opacity="0.75" r="4"/>
  <circle cx="372.0558712430352" cy="531.990646550247" fill="#1f77b4" opacity="0.75" r="4"/>
  <circle cx="326.3551152883092" cy="650.5368923482959" fill="#2ca02c" opacity="0.75" r="4"/>
  <circle cx="449.3145027747992" cy="447.315897878169" fill="#ff7f0e" opacity="0.75" r="4"/>
  <circle cx="412.89948264952335" cy="498.17909509665145" fill="#ff7f0e" opacity="0.75" r="4"/>
  <circle cx="396.3261512728955" cy="474.03164904732023" fill="#1f77b4" opacity="0.75" r="4"/>
  <circle cx="390.17126824841864" cy="543.3671885799391" fill="#ff7f0e" opacity="0.75" r="4"/>
  <circle cx="420.5436108568066" cy="538.9281163607944" fill="#2ca02c" opacity="0.75" r="4"/>
  <circle cx="500.83637487260955" cy="554.2352854323653" fill="#2ca02c" opacity="0.75" r="4"/>
  <circle cx="409.40314669341046" cy="513.2426568797696" fill="#1f77b4" opacity="0.75" r="4"/>
  <circle cx="404.0780513989567" cy="506.2781124935927" fill="#1f77b4" opacity="0.75" r="4"/>
  <circle cx="412.27023313063296" cy="539.1877895757953" fill="#2ca02c" opacity="0.75" r="4"/>
  <circle cx="316.41767919141853" cy="482.67054055535095" fill="#2ca02c" opacity="0.75" r="4"/>
  <circle cx="344.1635104661834" cy="487.6034337759597" fill="#2ca02c" opacity="0.75" r="4"/>
  <circle cx="444.6125655256182" cy="415.47184775611834" fill="#2ca02c" opacity="0.75" r="4"/>
  <circle cx="332.6780972720553" cy="598.2917446270483" fill="#2ca02c" opacity="0.75" r="4"/>
  <circle cx="417.5697241760298" cy="524.9215616839343" fill="#ff7f0e" opacity="0.75" r="4"/>
  <circle cx="377.0515160036016" cy="514.1882514936945" fill="#1f77b4" opacity="0.75" r="4"/>
  <circle cx="363.1871590286741" cy="492.6036127711973" fill="#ff7f0e" opacity="0.75" r="4"/>
  <circle cx="348.8990262276812" cy="511.4689376837293" fill="#1f77b4" opacity="0.75" r="4"/>
  <circle cx="528.4589560868759" cy="462.06326929921295" fill="#2ca02c" opacity="0.75" r="4"/>
  <circle cx="407.58579208929507" cy="519.4859637546978" fill="#1f77b4" opacity="0.75" r="4"/>
  <circle cx="324.98947165911204" cy="555.5102519619227" fill="#2ca02c" opacity="0.75" r="4"/>
  <circle cx="294.6169260081874" cy="482.40632051030406" fill="#ff7f0e" opacity="0.75" r="4"/>
  <circle cx="423.2700098543731" cy="580.6082262116381" fill="#ff7f0e" opacity="0.75" r="4"/>
  <circle cx="259.8790481172425" cy="572.427290161918" fill="#1f77b4" opacity="0.75" r="4"/>
  <circle cx="347.8970141536987" cy="538.6992461920199" fill="#1f77b4" opacity="0.75" r="4"/>
  <circle cx="590.7693024585503" cy="525.49851974442" fill="#1f77b4" opacity="0.75" r="4"/>
  <circle cx="322.1916603530145" cy="514.2497632032361" fill="#2ca02c" opacity="0.75" r="4"/>
  <circle cx="378.2352353705093" cy="546.4693793445801" fill="#1f77b4" opacity="0.75" r="4"/>
  <circle cx="425.33728777512573" cy="576.8524822753675" fill="#ff7f0e" opacity="0.75" r="4"/>
  <circle cx="440.09920615425233" cy="578.684749961556" fill="#2ca02c" opacity="0.75" r="4"/>
  <circle cx="471.144130245403" cy="534.6181964009768" fill="#2ca02c" opacity="0.75" r="4"/>
  <circle cx="380.2358207201669" cy="455.4149898215252" fill="#ff7f0e" opacity="0.75" r="4"/>
  <circle cx="474.6403690873884" cy="493.6867932798294" fill="#2ca02c" opacity="0.75" r="4"/>
  <circle cx="400.25364778496464" cy="471.4154503083495" fill="#ff7f0e" opacity="0.75" r="4"/>
  <circle cx="429.9717011183534" cy="565.8050597338793" fill="#2ca02c" opacity="0.75" r="4"/>
  <circle cx="362.1262225888129" cy="475.6651851038116" fill="#ff7f0e" opacity="0.75" r="4"/>
  <circle cx="350.5304499971527" cy="547.0932963266707" fill="#1f77b4" opacity="0.75" r="4"/>
  <circle cx="302.2984903706802" cy="472.7659544397692" fill="#1f77b4" opacity="0.75" r="4"/>
  <circle cx="484.5183609568808" cy="554.861360432378" fill="#ff7f0e" opacity="0.75" r="4"/>
  <circle cx="395.27930258471815" cy="505.33574141239365" fill="#ff7f0e" opacity="0.75" r="4"/>
  <circle cx="364.9832704206029" cy="519.4348324241378" fill="#1f77b4" opacity="0.75" r="4"/>
  <circle cx="476.21187618246694" cy="482.07067115491304" fill="#1f77b4" opacity="0.75" r="4"/>
  <circle cx="783.4609784778564" cy="384.902088364876" fill="#1f77b4" opacity="0.75" r="4"/>
  <circle cx="591.7951932602123" cy="398.74357381640027" fill="#1f77b4" opacity="0.75" r="4"/>
  <circle cx="570.8780375632964" cy="368.77429046448776" fill="#ff7f0e" opacity="0.75" r="4"/>
  <circle cx="583.0888420455974" cy="476.5418982026193" fill="#2ca02c" opacity="0.75" r="4"/>
  <circle cx="554.3456279276752" cy="409.884728227472" fill="#2ca02c" opacity="0.75" r="4"/>
  <circle cx="663.6413597994865" cy="365.67545056426593" fill="#ff7f0e" opacity="0.75" r="4"/>
  <circle cx="684.8628551089912" cy="354.22142936223685" fill="#2ca02c" opacity="0.75" r="4"/>
  <circle cx="680.9056447665465" cy="415.8619135008761" fill="#2ca02c" opacity="0.75" r="4"/>
  <circle cx="564.7266302512783" cy="358.079431787963" fill="#1f77b4" opacity="0.75" r="4"/>
  <circle cx="709.2835667953782" cy="468.2589765187352" fill="#1f77b4" opacity="0.75" r="4"/>
  <circle cx="759.4815726096132" cy="382.4128591224653" fill="#ff7f0e" opacity="0.75" r="4"/>
  <circle cx="642.9320782428927" cy="363.3621346098144" fill="#1f77b4" opacity="0.75" r="4"/>
  <circle cx="720.1854002732974" cy="426.273403964601" fill="#2ca02c" opacity="0.75" r="4"/>
  <circle cx="665.2443127922667" cy="452.33334535765425" fill="#ff7f0e" opacity="0.75" r="4"/>
  <circle cx="597.5284220937507" cy="532.1499970612841" fill="#ff7f0e" opacity="0.75" r="4"/>
  <circle cx="834.0336002279357" cy="379.86205365514667" fill="#ff7f0e" opacity="0.75" r="4"/>
  <circle cx="604.8641275763443" cy="404.11883389085835" fill="#2ca02c" opacity="0.75" r="4"/>
  <circle cx="671.8588779683756" cy="410.09917193504225" fill="#2ca02c" opacity="0.75" r="4"/>
  <circle cx="582.9553176536033" cy="394.9417008734424" fill="#ff7f0e" opacity="0.75" r="4"/>
  <circle cx="689.7518135750627" cy="397.82363761898284" fill="#2ca02c" opacity="0.75" r="4"/>
  <circle cx="710.2502228530609" cy="428.709463090988" fill="#ff7f0e" opacity="0.75" r="4"/>
  <circle cx="775.8288762890116" cy="388.7038479124264" fill="#1f77b4" opacity="0.75" r="4"/>
  <circle cx="611.8776465246075" cy="500.53890303338227" fill="#2ca02c" opacity="0.75" r="4"/>
  <circle cx="723.6287942902762" cy="430.69552083446996" fill="#1f77b4" opacity="0.75" r="4"/>
  <circle cx="603.249714543635" cy="303.6566925251259" fill="#ff7f0e" opacity="0.75" r="4"/>
  <circle cx="681.1411073763023" cy="417.0064638546182" fill="#ff7f0e" opacity="0.75" r="4"/>
  <circle cx="681.8901355599547" cy="478.9517697152027" fill="#ff7f0e" opacity="0.75" r="4"/>
  <circle cx="689.2575621534705" cy="438.73993494715955" fill="#1f77b4" opacity="0.75" r="4"/>
  <circle cx="560.2720588565918" cy="448.61115777174234" fill="#2ca02c" opacity="0.75" r="4"/>
  <circle cx="673.6542275836865" cy="293.91296310066923" fill="#2ca02c" opacity="0.75" r="4"/>
  <circle cx="655.827805188694" cy="428.3861613054841" fill="#2ca02c" opacity="0.75" r="4"/>
  <circle cx="761.1980826708113" cy="392.22672351494066" fill="#ff7f0e" opacity="0.75" r="4"/>
  <circle cx="826.6180857571813" cy="392.81068007417474" fill="#1f77b4" opacity="0.75" r="4"/>
  <circle cx="689.7079653360032" cy="423.7559948062323" fill="#1f77b4" opacity="0.75" r="4"/>
  <circle cx="730.4468603523998" cy="482.0229265148226" fill="#2ca02c" opacity="0.75" r="4"/>
  <circle cx="552.6098201052955" cy="429.0106460927425" fill="#2ca02c" opacity="0.75" r="4"/>
  <circle cx="619.194222604489" cy="387.6791283964928" fill="#ff7f0e" opacity="0.75" r="4"/>
  <circle cx="603.3249211456955" cy="427.5142482119614" fill="#1f77b4" opacity="0.75" r="4"/>
  <circle cx="722.3704849638282" cy="418.11936381961766" fill="#1f77b4" opacity="0.75" r="4"/>
  <circle cx="701.3722166212774" cy="466.58667963458345" fill="#2ca02c" opacity="0.75" r="4"/>
  <circle cx="504.15706770697386" cy="407.34497481479525" fill="#2ca02c" opacity="0.75" r="4"/>
  <circle cx="597.4390757460241" cy="503.53691740505275" fill="#2ca02c" opacity="0.75" r="4"/>
  <circle cx="772.3098072502813" cy="428.938924357876" fill="#2ca02c" opacity="0.75" r="4"/>
  <circle cx="721.201437683857" cy="410.1882679668916" fill="#1f77b4" opacity="0.75" r="4"/>
  <circle cx="729.825472781508" cy="384.89794517637824" fill="#1f77b4" opacity="0.75" r="4"/>
  <circle cx="757.2168948531886" cy="351.47594199121465" fill="#1f77b4" opacity="0.75" r="4"/>
  <circle cx="702.41419118672" cy="361.9931058899442" fill="#ff7f0e" opacity="0.75" r="4"/>
  <circle cx="748.986007564053" cy="466.8980589743102" fill="#2ca02c" opacity="0.75" r="4"/>
  <circle cx="796.3307290916931" cy="469.23115499347307" fill="#ff7f0e" opacity="0.75" r="4"/>
  <circle cx="538.1136006558678" cy="414.75620897317356" fill="#ff7f0e" opacity="0.75" r="4"/>
  <circle cx="568.148044490441" cy="332.02867570685964" fill="#ff7f0e" opacity="0.75" r="4"/>
  <circle cx="801.3089693542338" cy="392.17578651073416" fill="#2ca02c" opacity="0.75" r="4"/>
  <circle cx="636.5104323772339" cy="360.79439256777704" fill="#2ca02c" opacity="0.75" r="4"/>
  <circle cx="780.5789211249597" cy="458.61825144087845" fill="#2ca02c" opacity="0.75" r="4"/>
  <circle cx="610.6908747811858" cy="510.5194857583673" fill="#1f77b4" opacity="0.75" r="4"/>
  <circle cx="572.4017082133716" cy="589.7978367683753" fill="#1f77b4" opacity="0.75" r="4"/>
  <circle cx="650.099150175218" cy="537.3771955963623" fill="#2ca02c" opacity="0.75" r="4"/>
  <circle cx="524.3624169230424" cy="558.7971527414982" fill="#ff7f0e" opacity="0.75" r="4"/>
  <circle cx="654.871091283267" cy="603.8405666778888" fill="#1f77b4" opacity="0.75" r="4"/>
  <circle cx="556.5947629257935" cy="572.9709361670232" fill="#1f77b4" opacity="0.75" r="4"/>
  <circle cx="566.0656377599028" cy="591.5360399121507" fill="#1f77b4" opacity="0.75" r="4"/>
  <circle cx="434.63594711002764" cy="575.8363051760789" fill="#2ca02c" opacity="0.75" r="4"/>
  <circle cx="500.0299841333363" cy="615.504213703033" fill="#1f77b4" opacity="0.75" r="4"/>
  <circle cx="477.3578236679692" cy="597.3053181001121" fill="#2ca02c" opacity="0.75" r="4"/>
  <circle cx="490.29889566440465" cy="598.6251597590864" fill="#1f77b4" opacity="0.75" r="4"/>
  <circle cx="526.3426570020431" cy="564.6377014455281" fill="#2ca02c" opacity="0.75" r="4"/>
  <circle cx="461.84005133965326" cy="538.6823733178715" fill="#1f77b4" opacity="0.75" r="4"/>
  <circle cx="557.9851614732461" cy="594.5022559945932" fill="#ff7f0e" opacity="0.75" r="4"/>
  <circle cx="540.2270252401886" cy="558.5998035060223" fill="#2ca02c" opacity="0.75" r="4"/>
  <circle cx="589.5626219279854" cy="608.6643840740868" fill="#1f77b4" opacity="0.75" r="4"/>
  <circle cx="462.2934224634812" cy="530.0588718992677" fill="#2ca02c" opacity="0.75" r="4"/>
  <circle cx="462.63074993450545" cy="593.8470557966216" fill="#1f77b4" opacity="0.75" r="4"/>
  <circle cx="512.4986818696887" cy="686.3868871225201" fill="#2ca02c" opacity="0.75" r="4"/>
  <circle cx="554.4918983774197" cy="545.1581766030636" fill="#ff7f0e" opacity="0.75" r="4"/>
  <circle cx="531.2307074889063" cy="610.9776549728886" fill="#1f77b4" opacity="0.75" r="4"/>
  <circle cx="568.7174499476959" cy="515.1364811906388" fill="#2ca02c" opacity="0.75" r="4"/>
  <circle cx="508.9508434118871" cy="618.9304209240343" fill="#ff7f0e" opacity="0.75" r="4"/>
  <circle cx="506.6053595079867" cy="547.0076670288684" fill="#2ca02c" opacity="0.75" r="4"/>
  <circle cx="522.9418164020647" cy="564.6383411438451" fill="#ff7f0e" opacity="0.75" r="4"/>
  <circle cx="483.76605274636734" cy="634.1400595061577" fill="#ff7f0e" opacity="0.75" r="4"/>
  <circle cx="555.2854091563029" cy="585.5278708168444" fill="#2ca02c" opacity="0.75" r="4"/>
  <circle cx="708.2624783735304" cy="629.8490818349103" fill="#ff7f0e" opacity="0.75" r="4"/>
  <circle cx="542.0662238558439" cy="617.3270534254309" fill="#ff7f0e" opacity="0.75" r="4"/>
  <circle cx="511.3641319406044" cy="631.4907279135612" fill="#1f77b4" opacity="0.75" r="4"/>
  <circle cx="506.0442881024291" cy="624.3799050136361" fill="#2ca02c" opacity="0.75" r="4"/>
  <circle cx="382.6046509619267" cy="583.5889795234089" fill="#ff7f0e" opacity="0.75" r="4"/>
  <circle cx="485.6159729146697" cy="534.5100797607474" fill="#ff7f0e" opacity="0.75" r="4"/>
  <circle cx="484.6146315579184" cy="626.4271020108813" fill="#ff7f0e" opacity="0.75" r="4"/>
  <circle cx="413.9159647662336" cy="580.2180316612403" fill="#2ca02c" opacity="0.75" r="4"/>
  <circle cx="482.72736705059515" cy="576.0626844298354" fill="#2ca02c" opacity="0.75" r="4"/>
  <circle cx="480.81542254104244" cy="637.2317137562154" fill="#1f77b4" opacity="0.75" r="4"/>
  <circle cx="557.5700736936665" cy="599.4892100000393" fill="#1f77b4" opacity="0.75" r="4"/>
  <circle cx="586.9189924038795" cy="507.28846313956" fill="#1f77b4" opacity="0.75" r="4"/>
  <circle cx="557.8792058582494" cy="669.1062138391959" fill="#ff7f0e" opacity="0.75" r="4"/>
  <circle cx="453.30142944106535" cy="540.274269217208" fill="#1f77b4" opacity="0.75" r="4"/>
  <circle cx="437.68802411214534" cy="613.2383613341883" fill="#1f77b4" opacity="0.75" r="4"/>
  <circle cx="539.8758942211808" cy="603.8001153160735" fill="#ff7f0e" opacity="0.75" r="4"/>
  <circle cx="623.2881852248436" cy="500.7275180838982" fill="#ff7f0e" opacity="0.75" r="4"/>
  <circle cx="440.0437351468486" cy="609.1887789597317" fill="#2ca02c" opacity="0.75" r="4"/>
  <circle cx="652.3234600696125" cy="542.9944124490191" fill="#ff7f0e" opacity="0.75" r="4"/>
  <circle cx="444.1021818470554" cy="624.1152149820441" fill="#ff7f0e" opacity="0.75" r="4"/>
  <circle cx="488.21805409533664" cy="658.9323539743734" fill="#ff7f0e" opacity="0.75" r="4"/>
  <circle cx="463.24729996350334" cy="624.6078778548647" fill="#ff7f0e" opacity="0.75" r="4"/>
  <circle cx="573.8015825489781" cy="567.7792718668152" fill="#ff7f0e" opacity="0.75" r="4"/>
  <circle cx="418.72056413650813" cy="611.033707521852" fill="#ff7f0e" opacity="0.75" r="4"/>
  <circle cx="607.3963498032031" cy="501.9661239535928" fill="#ff7f0e" opacity="0.75" r="4"/>
  <circle cx="455.2633405503341" cy="578.8737500484442" fill="#2ca02c" opacity="0.75" r="4"/>
  <circle cx="553.8038620715854" cy="622.8898338026645" fill="#1f77b4" opacity="0.75" r="4"/>
  <circle cx="653.1278049754145" cy="568.6011153176808" fill="#1f77b4" opacity="0.75" r="4"/>
  <circle cx="513.8875308539139" cy="608.2185649355229" fill="#ff7f0e" opacity="0.75" r="4"/>
  <circle cx="914.0" cy="244.0" fill="#d62728" opacity="0.9" r="7"/>
  <text fill="#333" font-family="Arial, Helvetica, sans-serif" font-size="16" text-anchor="middle" x="570.0" y="765">Dimension 1</text>
  <text fill="#333" font-family="Arial, Helvetica, sans-serif" font-size="16" text-anchor="middle" transform="rotate(-90,85,440.0)" x="85" y="440.0">Dimension 2</text>
  <text fill="#999" font-family="Arial, Helvetica, sans-serif" font-size="12" text-anchor="end" x="1140" y="776">Auto-generated SVG</text>
</svg>
