<?xml version="1.0" encoding="UTF-8" standalone="no"?>
<!DOCTYPE svg PUBLIC "-//W3C//DTD SVG 1.1//EN"
 "http://www.w3.org/Graphics/SVG/1.1/DTD/svg11.dtd">
<!-- Generated by graphviz version 2.43.0 (0)
 -->
<!-- Title: classical_vep Pages: 1 -->
<svg width="576pt" height="88pt"
 viewBox="0.00 0.00 576.00 88.14" xmlns="http://www.w3.org/2000/svg" xmlns:xlink="http://www.w3.org/1999/xlink">
<g id="graph0" class="graph" transform="scale(1.24 1.24) rotate(0) translate(4 67)">
<title>classical_vep</title>
<polygon fill="white" stroke="transparent" points="-4,4 -4,-67 460,-67 460,4 -4,4"/>
<!-- var -->
<g id="node1" class="node">
<title>var</title>
<path fill="#aec7e8" stroke="black" stroke-width="1.5" d="M42,-36C42,-36 12,-36 12,-36 6,-36 0,-30 0,-24 0,-24 0,-12 0,-12 0,-6 6,0 12,0 12,0 42,0 42,0 48,0 54,-6 54,-12 54,-12 54,-24 54,-24 54,-30 48,-36 42,-36"/>
<text text-anchor="middle" x="27" y="-15.8" font-family="Arial" font-size="9.00">Variant</text>
</g>
<!-- feat -->
<g id="node2" class="node">
<title>feat</title>
<path fill="#ffbb78" stroke="black" stroke-width="1.5" d="M243,-36C243,-36 197,-36 197,-36 191,-36 185,-30 185,-24 185,-24 185,-12 185,-12 185,-6 191,0 197,0 197,0 243,0 243,0 249,0 255,-6 255,-12 255,-12 255,-24 255,-24 255,-30 249,-36 243,-36"/>
<text text-anchor="middle" x="220" y="-20.8" font-family="Arial" font-size="9.00">Hand&#45;crafted</text>
<text text-anchor="middle" x="220" y="-10.8" font-family="Arial" font-size="9.00">Features</text>
</g>
<!-- var&#45;&gt;feat -->
<g id="edge1" class="edge">
<title>var&#45;&gt;feat</title>
<path fill="none" stroke="black" d="M54.16,-18C85.16,-18 137.32,-18 174.67,-18"/>
<polygon fill="black" stroke="black" points="174.78,-21.5 184.78,-18 174.78,-14.5 174.78,-21.5"/>
<text text-anchor="middle" x="119.5" y="-51.8" font-family="Times,serif" font-size="14.00">Conservation</text>
<text text-anchor="middle" x="119.5" y="-36.8" font-family="Times,serif" font-size="14.00">Frequency</text>
<text text-anchor="middle" x="119.5" y="-21.8" font-family="Times,serif" font-size="14.00">Annotation</text>
</g>
<!-- model -->
<g id="node3" class="node">
<title>model</title>
<path fill="#9467bd" stroke="black" stroke-width="1.5" d="M335,-36C335,-36 304,-36 304,-36 298,-36 292,-30 292,-24 292,-24 292,-12 292,-12 292,-6 298,0 304,0 304,0 335,0 335,0 341,0 347,-6 347,-12 347,-12 347,-24 347,-24 347,-30 341,-36 335,-36"/>
<text text-anchor="middle" x="319.5" y="-20.8" font-family="Arial" font-size="9.00" fill="white">ML</text>
<text text-anchor="middle" x="319.5" y="-10.8" font-family="Arial" font-size="9.00" fill="white">Classifier</text>
</g>
<!-- feat&#45;&gt;model -->
<g id="edge2" class="edge">
<title>feat&#45;&gt;model</title>
<path fill="none" stroke="black" d="M255.1,-18C263.69,-18 272.95,-18 281.66,-18"/>
<polygon fill="black" stroke="black" points="281.95,-21.5 291.95,-18 281.95,-14.5 281.95,-21.5"/>
</g>
<!-- score -->
<g id="node4" class="node">
<title>score</title>
<path fill="#98df8a" stroke="black" stroke-width="1.5" d="M444,-36C444,-36 396,-36 396,-36 390,-36 384,-30 384,-24 384,-24 384,-12 384,-12 384,-6 390,0 396,0 396,0 444,0 444,0 450,0 456,-6 456,-12 456,-12 456,-24 456,-24 456,-30 450,-36 444,-36"/>
<text text-anchor="middle" x="420" y="-20.8" font-family="Arial" font-size="9.00">Pathogenicity</text>
<text text-anchor="middle" x="420" y="-10.8" font-family="Arial" font-size="9.00">Score</text>
</g>
<!-- model&#45;&gt;score -->
<g id="edge3" class="edge">
<title>model&#45;&gt;score</title>
<path fill="none" stroke="black" d="M347.16,-18C355.35,-18 364.61,-18 373.7,-18"/>
<polygon fill="black" stroke="black" points="373.81,-21.5 383.81,-18 373.81,-14.5 373.81,-21.5"/>
</g>
</g>
</svg>
