<?xml version="1.0" encoding="UTF-8" standalone="no"?>
<!DOCTYPE svg PUBLIC "-//W3C//DTD SVG 1.1//EN"
 "http://www.w3.org/Graphics/SVG/1.1/DTD/svg11.dtd">
<!-- Generated by graphviz version 2.43.0 (0)
 -->
<!-- Title: fm_vep Pages: 1 -->
<svg width="576pt" height="52pt"
 viewBox="0.00 0.00 576.00 51.78" xmlns="http://www.w3.org/2000/svg" xmlns:xlink="http://www.w3.org/1999/xlink">
<g id="graph0" class="graph" transform="scale(0.92 0.92) rotate(0) translate(4 52)">
<title>fm_vep</title>
<polygon fill="white" stroke="transparent" points="-4,4 -4,-52 619,-52 619,4 -4,4"/>
<!-- var -->
<g id="node1" class="node">
<title>var</title>
<path fill="#aec7e8" stroke="black" stroke-width="1.5" d="M42,-36C42,-36 12,-36 12,-36 6,-36 0,-30 0,-24 0,-24 0,-12 0,-12 0,-6 6,0 12,0 12,0 42,0 42,0 48,0 54,-6 54,-12 54,-12 54,-24 54,-24 54,-30 48,-36 42,-36"/>
<text text-anchor="middle" x="27" y="-20.8" font-family="Arial" font-size="9.00">Variant +</text>
<text text-anchor="middle" x="27" y="-10.8" font-family="Arial" font-size="9.00">Context</text>
</g>
<!-- fm -->
<g id="node2" class="node">
<title>fm</title>
<path fill="#9467bd" stroke="black" stroke-width="1.5" d="M211,-36C211,-36 172,-36 172,-36 166,-36 160,-30 160,-24 160,-24 160,-12 160,-12 160,-6 166,0 172,0 172,0 211,0 211,0 217,0 223,-6 223,-12 223,-12 223,-24 223,-24 223,-30 217,-36 211,-36"/>
<text text-anchor="middle" x="191.5" y="-20.8" font-family="Arial" font-size="9.00" fill="white">Foundation</text>
<text text-anchor="middle" x="191.5" y="-10.8" font-family="Arial" font-size="9.00" fill="white">Model</text>
</g>
<!-- var&#45;&gt;fm -->
<g id="edge1" class="edge">
<title>var&#45;&gt;fm</title>
<path fill="none" stroke="black" d="M54.11,-18C79.87,-18 119.64,-18 149.59,-18"/>
<polygon fill="black" stroke="black" points="149.74,-21.5 159.74,-18 149.74,-14.5 149.74,-21.5"/>
<text text-anchor="middle" x="107" y="-21.8" font-family="Times,serif" font-size="14.00">Sequence</text>
</g>
<!-- embed -->
<g id="node3" class="node">
<title>embed</title>
<path fill="#c5b0d5" stroke="black" stroke-width="1.5" d="M425,-36C425,-36 381,-36 381,-36 375,-36 369,-30 369,-24 369,-24 369,-12 369,-12 369,-6 375,0 381,0 381,0 425,0 425,0 431,0 437,-6 437,-12 437,-12 437,-24 437,-24 437,-30 431,-36 425,-36"/>
<text text-anchor="middle" x="403" y="-20.8" font-family="Arial" font-size="9.00">Learned</text>
<text text-anchor="middle" x="403" y="-10.8" font-family="Arial" font-size="9.00">Embeddings</text>
</g>
<!-- fm&#45;&gt;embed -->
<g id="edge2" class="edge">
<title>fm&#45;&gt;embed</title>
<path fill="none" stroke="black" d="M223.41,-18C259.22,-18 318.45,-18 358.8,-18"/>
<polygon fill="black" stroke="black" points="358.88,-21.5 368.88,-18 358.88,-14.5 358.88,-21.5"/>
<text text-anchor="middle" x="296" y="-21.8" font-family="Times,serif" font-size="14.00">Self&#45;supervised</text>
</g>
<!-- score -->
<g id="node4" class="node">
<title>score</title>
<path fill="#98df8a" stroke="black" stroke-width="1.5" d="M603,-36C603,-36 573,-36 573,-36 567,-36 561,-30 561,-24 561,-24 561,-12 561,-12 561,-6 567,0 573,0 573,0 603,0 603,0 609,0 615,-6 615,-12 615,-12 615,-24 615,-24 615,-30 609,-36 603,-36"/>
<text text-anchor="middle" x="588" y="-20.8" font-family="Arial" font-size="9.00">Effect</text>
<text text-anchor="middle" x="588" y="-10.8" font-family="Arial" font-size="9.00">Score</text>
</g>
<!-- embed&#45;&gt;score -->
<g id="edge3" class="edge">
<title>embed&#45;&gt;score</title>
<path fill="none" stroke="black" d="M437.14,-18C469.2,-18 517.68,-18 550.75,-18"/>
<polygon fill="black" stroke="black" points="550.91,-21.5 560.91,-18 550.91,-14.5 550.91,-21.5"/>
<text text-anchor="middle" x="499" y="-36.8" font-family="Times,serif" font-size="14.00">Zero&#45;shot or</text>
<text text-anchor="middle" x="499" y="-21.8" font-family="Times,serif" font-size="14.00">fine&#45;tuned</text>
</g>
</g>
</svg>
