<?xml version="1.0" encoding="utf-8" ?>
<svg xmlns="http://www.w3.org/2000/svg" xmlns:ev="http://www.w3.org/2001/xml-events" xmlns:xlink="http://www.w3.org/1999/xlink" baseProfile="full" height="800" version="1.1" width="1200">
  <defs>
    <marker id="id174" markerHeight="7" markerWidth="7" orient="auto" refX="6" refY="3">
      <path d="M0,0 L0,6 L6,3 z" fill="#333333"/>
    </marker>
  </defs>
  <rect fill="white" height="800" width="1200" x="0" y="0"/>
  <text fill="#111" font-family="Arial, Helvetica, sans-serif" font-size="28" font-weight="700" x="60" y="50">Figure 17.2: AlphaMissense Architecture (Four-Panel)</text>
  <text fill="#444" font-family="Arial, Helvetica, sans-serif" font-size="16" x="60" y="78">Panel B</text>
  <line stroke="#333" stroke-width="2" x1="140" x2="1040" y1="690" y2="690"/>
  <line stroke="#333" stroke-width="2" x1="140" x2="140" y1="170" y2="690"/>
  <rect fill="#1f77b4" height="139.93018801050374" stroke="white" stroke-width="1" width="120.0" x="200.0" y="550.0698119894962"/>
  <rect fill="#ff7f0e" height="120.94128677576634" stroke="white" stroke-width="1" width="120.0" x="200.0" y="429.12852521372986"/>
  <rect fill="#2ca02c" height="120.26593784008226" stroke="white" stroke-width="1" width="120.0" x="200.0" y="308.8625873736476"/>
  <rect fill="#9467bd" height="86.3762226525202" stroke="white" stroke-width="1" width="120.0" x="200.0" y="222.48636472112742"/>
  <rect fill="#8c564b" height="52.486364721127494" stroke="white" stroke-width="1" width="120.0" x="200.0" y="169.99999999999991"/>
  <text fill="#333" font-family="Arial, Helvetica, sans-serif" font-size="14" text-anchor="middle" x="260.0" y="720">Resource 1</text>
  <rect fill="#1f77b4" height="147.43284508925709" stroke="white" stroke-width="1" width="120.0" x="380.0" y="542.5671549107429"/>
  <rect fill="#ff7f0e" height="119.17910143069764" stroke="white" stroke-width="1" width="120.0" x="380.0" y="423.3880534800453"/>
  <rect fill="#2ca02c" height="53.298278142835024" stroke="white" stroke-width="1" width="120.0" x="380.0" y="370.08977533721026"/>
  <rect fill="#9467bd" height="138.18417875722346" stroke="white" stroke-width="1" width="120.0" x="380.0" y="231.9055965799868"/>
  <rect fill="#8c564b" height="61.905596579986806" stroke="white" stroke-width="1" width="120.0" x="380.0" y="170.0"/>
  <text fill="#333" font-family="Arial, Helvetica, sans-serif" font-size="14" text-anchor="middle" x="440.0" y="720">Resource 2</text>
  <rect fill="#1f77b4" height="105.93919006697477" stroke="white" stroke-width="1" width="120.0" x="560.0" y="584.0608099330252"/>
  <rect fill="#ff7f0e" height="151.52259310007818" stroke="white" stroke-width="1" width="120.0" x="560.0" y="432.538216832947"/>
  <rect fill="#2ca02c" height="109.2541935235183" stroke="white" stroke-width="1" width="120.0" x="560.0" y="323.2840233094287"/>
  <rect fill="#9467bd" height="80.64143886615167" stroke="white" stroke-width="1" width="120.0" x="560.0" y="242.642584443277"/>
  <rect fill="#8c564b" height="72.64258444327716" stroke="white" stroke-width="1" width="120.0" x="560.0" y="169.99999999999983"/>
  <text fill="#333" font-family="Arial, Helvetica, sans-serif" font-size="14" text-anchor="middle" x="620.0" y="720">Resource 3</text>
  <rect fill="#1f77b4" height="110.56141269262518" stroke="white" stroke-width="1" width="120.0" x="740.0" y="579.4385873073749"/>
  <rect fill="#ff7f0e" height="130.92539718958295" stroke="white" stroke-width="1" width="120.0" x="740.0" y="448.5131901177919"/>
  <rect fill="#2ca02c" height="38.086582649075375" stroke="white" stroke-width="1" width="120.0" x="740.0" y="410.42660746871655"/>
  <rect fill="#9467bd" height="116.83517799618971" stroke="white" stroke-width="1" width="120.0" x="740.0" y="293.59142947252684"/>
  <rect fill="#8c564b" height="123.59142947252678" stroke="white" stroke-width="1" width="120.0" x="740.0" y="170.00000000000006"/>
  <text fill="#333" font-family="Arial, Helvetica, sans-serif" font-size="14" text-anchor="middle" x="800.0" y="720">Resource 4</text>
  <rect fill="#1f77b4" height="60.879568340764806" stroke="white" stroke-width="1" width="120.0" x="920.0" y="629.1204316592352"/>
  <rect fill="#ff7f0e" height="99.83336339174448" stroke="white" stroke-width="1" width="120.0" x="920.0" y="529.2870682674908"/>
  <rect fill="#2ca02c" height="97.75379561740493" stroke="white" stroke-width="1" width="120.0" x="920.0" y="431.53327265008585"/>
  <rect fill="#9467bd" height="148.10285537448007" stroke="white" stroke-width="1" width="120.0" x="920.0" y="283.4304172756058"/>
  <rect fill="#8c564b" height="113.43041727560568" stroke="white" stroke-width="1" width="120.0" x="920.0" y="170.0000000000001"/>
  <text fill="#333" font-family="Arial, Helvetica, sans-serif" font-size="14" text-anchor="middle" x="980.0" y="720">Resource 5</text>
  <rect fill="#1f77b4" height="18" stroke="none" width="18" x="1070" y="176"/>
  <text fill="#333" font-family="Arial, Helvetica, sans-serif" font-size="14" x="1096" y="190">Group 1</text>
  <rect fill="#ff7f0e" height="18" stroke="none" width="18" x="1070" y="202"/>
  <text fill="#333" font-family="Arial, Helvetica, sans-serif" font-size="14" x="1096" y="216">Group 2</text>
  <rect fill="#2ca02c" height="18" stroke="none" width="18" x="1070" y="228"/>
  <text fill="#333" font-family="Arial, Helvetica, sans-serif" font-size="14" x="1096" y="242">Group 3</text>
  <rect fill="#9467bd" height="18" stroke="none" width="18" x="1070" y="254"/>
  <text fill="#333" font-family="Arial, Helvetica, sans-serif" font-size="14" x="1096" y="268">Group 4</text>
  <rect fill="#8c564b" height="18" stroke="none" width="18" x="1070" y="280"/>
  <text fill="#333" font-family="Arial, Helvetica, sans-serif" font-size="14" x="1096" y="294">Other</text>
  <text fill="#999" font-family="Arial, Helvetica, sans-serif" font-size="12" text-anchor="end" x="1140" y="776">Auto-generated SVG</text>
</svg>
