<?xml version="1.0" encoding="UTF-8" standalone="no"?>
<!DOCTYPE svg PUBLIC "-//W3C//DTD SVG 1.1//EN"
 "http://www.w3.org/Graphics/SVG/1.1/DTD/svg11.dtd">
<!-- Generated by graphviz version 2.43.0 (0)
 -->
<!-- Title: ensemble Pages: 1 -->
<svg width="517pt" height="288pt"
 viewBox="0.00 0.00 517.28 288.00" xmlns="http://www.w3.org/2000/svg" xmlns:xlink="http://www.w3.org/1999/xlink">
<g id="graph0" class="graph" transform="scale(1.4 1.4) rotate(0) translate(4 202)">
<title>ensemble</title>
<polygon fill="white" stroke="transparent" points="-4,4 -4,-202 366,-202 366,4 -4,4"/>
<!-- var -->
<g id="node1" class="node">
<title>var</title>
<path fill="#aec7e8" stroke="black" stroke-width="1.5" d="M42,-117C42,-117 12,-117 12,-117 6,-117 0,-111 0,-105 0,-105 0,-93 0,-93 0,-87 6,-81 12,-81 12,-81 42,-81 42,-81 48,-81 54,-87 54,-93 54,-93 54,-105 54,-105 54,-111 48,-117 42,-117"/>
<text text-anchor="middle" x="27" y="-96.8" font-family="Arial" font-size="9.00">Variant</text>
</g>
<!-- dna -->
<g id="node2" class="node">
<title>dna</title>
<path fill="#1f77b4" stroke="black" stroke-width="1.5" d="M148,-198C148,-198 118,-198 118,-198 112,-198 106,-192 106,-186 106,-186 106,-174 106,-174 106,-168 112,-162 118,-162 118,-162 148,-162 148,-162 154,-162 160,-168 160,-174 160,-174 160,-186 160,-186 160,-192 154,-198 148,-198"/>
<text text-anchor="middle" x="133" y="-182.8" font-family="Arial" font-size="9.00" fill="white">DNA&#45;LM</text>
<text text-anchor="middle" x="133" y="-172.8" font-family="Arial" font-size="9.00" fill="white">(Evo 2)</text>
</g>
<!-- var&#45;&gt;dna -->
<g id="edge1" class="edge">
<title>var&#45;&gt;dna</title>
<path fill="none" stroke="black" d="M48.99,-117.28C66.98,-132.95 90,-153 90,-153 90,-153 92.81,-154.81 96.98,-157.49"/>
<polygon fill="black" stroke="black" points="95.33,-160.59 105.64,-163.05 99.12,-154.7 95.33,-160.59"/>
</g>
<!-- prot -->
<g id="node3" class="node">
<title>prot</title>
<path fill="#2ca02c" stroke="black" stroke-width="1.5" d="M152,-144C152,-144 114,-144 114,-144 108,-144 102,-138 102,-132 102,-132 102,-120 102,-120 102,-114 108,-108 114,-108 114,-108 152,-108 152,-108 158,-108 164,-114 164,-120 164,-120 164,-132 164,-132 164,-138 158,-144 152,-144"/>
<text text-anchor="middle" x="133" y="-128.8" font-family="Arial" font-size="9.00" fill="white">Protein&#45;LM</text>
<text text-anchor="middle" x="133" y="-118.8" font-family="Arial" font-size="9.00" fill="white">(ESM&#45;2)</text>
</g>
<!-- var&#45;&gt;prot -->
<g id="edge2" class="edge">
<title>var&#45;&gt;prot</title>
<path fill="none" stroke="black" d="M54.24,-105.81C65.64,-108.77 79.24,-112.3 91.86,-115.58"/>
<polygon fill="black" stroke="black" points="91.15,-119.01 101.71,-118.14 92.91,-112.24 91.15,-119.01"/>
</g>
<!-- reg -->
<g id="node4" class="node">
<title>reg</title>
<path fill="#ff7f0e" stroke="black" stroke-width="1.5" d="M152,-90C152,-90 114,-90 114,-90 108,-90 102,-84 102,-78 102,-78 102,-66 102,-66 102,-60 108,-54 114,-54 114,-54 152,-54 152,-54 158,-54 164,-60 164,-66 164,-66 164,-78 164,-78 164,-84 158,-90 152,-90"/>
<text text-anchor="middle" x="133" y="-74.8" font-family="Arial" font-size="9.00" fill="white">Regulatory</text>
<text text-anchor="middle" x="133" y="-64.8" font-family="Arial" font-size="9.00" fill="white">(Enformer)</text>
</g>
<!-- var&#45;&gt;reg -->
<g id="edge3" class="edge">
<title>var&#45;&gt;reg</title>
<path fill="none" stroke="black" d="M54.24,-92.19C65.64,-89.23 79.24,-85.7 91.86,-82.42"/>
<polygon fill="black" stroke="black" points="92.91,-85.76 101.71,-79.86 91.15,-78.99 92.91,-85.76"/>
</g>
<!-- struct -->
<g id="node5" class="node">
<title>struct</title>
<path fill="#9467bd" stroke="black" stroke-width="1.5" d="M164,-36C164,-36 102,-36 102,-36 96,-36 90,-30 90,-24 90,-24 90,-12 90,-12 90,-6 96,0 102,0 102,0 164,0 164,0 170,0 176,-6 176,-12 176,-12 176,-24 176,-24 176,-30 170,-36 164,-36"/>
<text text-anchor="middle" x="133" y="-20.8" font-family="Arial" font-size="9.00" fill="white">Structure</text>
<text text-anchor="middle" x="133" y="-10.8" font-family="Arial" font-size="9.00" fill="white">(AlphaMissense)</text>
</g>
<!-- var&#45;&gt;struct -->
<g id="edge4" class="edge">
<title>var&#45;&gt;struct</title>
<path fill="none" stroke="black" d="M48.99,-80.72C66.98,-65.05 90,-45 90,-45 90,-45 92.06,-43.68 95.26,-41.62"/>
<polygon fill="black" stroke="black" points="97.23,-44.51 103.75,-36.16 93.45,-38.62 97.23,-44.51"/>
</g>
<!-- combine -->
<g id="node6" class="node">
<title>combine</title>
<path fill="#d62728" stroke="black" stroke-width="1.5" d="M260,-117C260,-117 224,-117 224,-117 218,-117 212,-111 212,-105 212,-105 212,-93 212,-93 212,-87 218,-81 224,-81 224,-81 260,-81 260,-81 266,-81 272,-87 272,-93 272,-93 272,-105 272,-105 272,-111 266,-117 260,-117"/>
<text text-anchor="middle" x="242" y="-101.8" font-family="Arial" font-size="9.00" fill="white">Integration</text>
<text text-anchor="middle" x="242" y="-91.8" font-family="Arial" font-size="9.00" fill="white">Layer</text>
</g>
<!-- dna&#45;&gt;combine -->
<g id="edge5" class="edge">
<title>dna&#45;&gt;combine</title>
<path fill="none" stroke="black" d="M160.36,-163.05C168.8,-157.63 176,-153 176,-153 176,-153 194.15,-137.92 211.27,-123.7"/>
<polygon fill="black" stroke="black" points="213.54,-126.36 218.99,-117.28 209.07,-120.98 213.54,-126.36"/>
</g>
<!-- prot&#45;&gt;combine -->
<g id="edge6" class="edge">
<title>prot&#45;&gt;combine</title>
<path fill="none" stroke="black" d="M164.09,-118.41C175.89,-115.43 189.59,-111.97 202.13,-108.81"/>
<polygon fill="black" stroke="black" points="203.03,-112.19 211.87,-106.35 201.32,-105.4 203.03,-112.19"/>
</g>
<!-- reg&#45;&gt;combine -->
<g id="edge7" class="edge">
<title>reg&#45;&gt;combine</title>
<path fill="none" stroke="black" d="M164.09,-79.59C175.89,-82.57 189.59,-86.03 202.13,-89.19"/>
<polygon fill="black" stroke="black" points="201.32,-92.6 211.87,-91.65 203.03,-85.81 201.32,-92.6"/>
</g>
<!-- struct&#45;&gt;combine -->
<g id="edge8" class="edge">
<title>struct&#45;&gt;combine</title>
<path fill="none" stroke="black" d="M162.25,-36.16C169.85,-41.04 176,-45 176,-45 176,-45 194.15,-60.08 211.27,-74.3"/>
<polygon fill="black" stroke="black" points="209.07,-77.02 218.99,-80.72 213.54,-71.64 209.07,-77.02"/>
</g>
<!-- final -->
<g id="node7" class="node">
<title>final</title>
<path fill="#98df8a" stroke="black" stroke-width="1.5" d="M350,-117C350,-117 320,-117 320,-117 314,-117 308,-111 308,-105 308,-105 308,-93 308,-93 308,-87 314,-81 320,-81 320,-81 350,-81 350,-81 356,-81 362,-87 362,-93 362,-93 362,-105 362,-105 362,-111 356,-117 350,-117"/>
<text text-anchor="middle" x="335" y="-101.8" font-family="Arial" font-size="9.00">Final</text>
<text text-anchor="middle" x="335" y="-91.8" font-family="Arial" font-size="9.00">Score</text>
</g>
<!-- combine&#45;&gt;final -->
<g id="edge9" class="edge">
<title>combine&#45;&gt;final</title>
<path fill="none" stroke="black" d="M272.04,-99C280.18,-99 289.13,-99 297.63,-99"/>
<polygon fill="black" stroke="black" points="297.7,-102.5 307.7,-99 297.7,-95.5 297.7,-102.5"/>
</g>
</g>
</svg>
