<?xml version="1.0" encoding="utf-8" ?>
<svg xmlns="http://www.w3.org/2000/svg" xmlns:ev="http://www.w3.org/2001/xml-events" xmlns:xlink="http://www.w3.org/1999/xlink" baseProfile="full" height="800" version="1.1" width="1200">
  <defs>
    <marker id="id181" markerHeight="7" markerWidth="7" orient="auto" refX="6" refY="3">
      <path d="M0,0 L0,6 L6,3 z" fill="#333333"/>
    </marker>
  </defs>
  <rect fill="white" height="800" width="1200" x="0" y="0"/>
  <text fill="#111" font-family="Arial, Helvetica, sans-serif" font-size="28" font-weight="700" x="60" y="50">Figure 17.4: Calibration for Clinical Use (Four-Panel)</text>
  <text fill="#444" font-family="Arial, Helvetica, sans-serif" font-size="16" x="60" y="78">Panel A</text>
  <line stroke="#333" stroke-width="2" x1="140" x2="1000" y1="720" y2="720"/>
  <line stroke="#333" stroke-width="2" x1="140" x2="140" y1="160" y2="720"/>
  <circle cx="405.18808718034427" cy="599.643669543413" fill="#1f77b4" opacity="0.75" r="4"/>
  <circle cx="481.01011099108837" cy="530.5817244510457" fill="#1f77b4" opacity="0.75" r="4"/>
  <circle cx="469.8614739100487" cy="472.10304590274166" fill="#1f77b4" opacity="0.75" r="4"/>
  <circle cx="323.77332051074745" cy="622.0703183033679" fill="#1f77b4" opacity="0.75" r="4"/>
  <circle cx="378.6588284611944" cy="539.8566140215122" fill="#ff7f0e" opacity="0.75" r="4"/>
  <circle cx="447.44061336331856" cy="555.5677858693546" fill="#1f77b4" opacity="0.75" r="4"/>
  <circle cx="416.5755131895139" cy="470.8515219960245" fill="#1f77b4" opacity="0.75" r="4"/>
  <circle cx="524.5620487207492" cy="454.41451066138984" fill="#2ca02c" opacity="0.75" r="4"/>
  <circle cx="413.94323685158486" cy="550.6876797611308" fill="#ff7f0e" opacity="0.75" r="4"/>
  <circle cx="485.9213417990829" cy="489.6105408636907" fill="#ff7f0e" opacity="0.75" r="4"/>
  <circle cx="386.0998842172197" cy="530.549943074119" fill="#1f77b4" opacity="0.75" r="4"/>
  <circle cx="352.3381271141549" cy="507.60410785182347" fill="#ff7f0e" opacity="0.75" r="4"/>
  <circle cx="410.31600229184767" cy="475.99209191835126" fill="#1f77b4" opacity="0.75" r="4"/>
  <circle cx="531.0654916588065" cy="557.0442396683509" fill="#ff7f0e" opacity="0.75" r="4"/>
  <circle cx="401.1202980646381" cy="586.6879106007783" fill="#2ca02c" opacity="0.75" r="4"/>
  <circle cx="435.6588939220117" cy="531.679258050772" fill="#ff7f0e" opacity="0.75" r="4"/>
  <circle cx="309.08652786464495" cy="501.716673011443" fill="#ff7f0e" opacity="0.75" r="4"/>
  <circle cx="421.9858355214554" cy="496.055801344327" fill="#ff7f0e" opacity="0.75" r="4"/>
  <circle cx="464.1092382570896" cy="437.01175238082055" fill="#1f77b4" opacity="0.75" r="4"/>
  <circle cx="382.829129885307" cy="543.1109050044026" fill="#1f77b4" opacity="0.75" r="4"/>
  <circle cx="374.71316594202494" cy="546.2514081231723" fill="#2ca02c" opacity="0.75" r="4"/>
  <circle cx="452.27250945446906" cy="463.72641260519026" fill="#2ca02c" opacity="0.75" r="4"/>
  <circle cx="456.39220160111904" cy="605.9791037156754" fill="#ff7f0e" opacity="0.75" r="4"/>
  <circle cx="440.22069220950846" cy="470.49460019041413" fill="#1f77b4" opacity="0.75" r="4"/>
  <circle cx="548.4372684743206" cy="620.2338788167692" fill="#2ca02c" opacity="0.75" r="4"/>
  <circle cx="470.2143512489785" cy="532.6178518887606" fill="#1f77b4" opacity="0.75" r="4"/>
  <circle cx="520.9611036412672" cy="543.1750655818901" fill="#2ca02c" opacity="0.75" r="4"/>
  <circle cx="378.95835374157235" cy="510.3351221201685" fill="#ff7f0e" opacity="0.75" r="4"/>
  <circle cx="302.18863428456257" cy="496.48314033179923" fill="#1f77b4" opacity="0.75" r="4"/>
  <circle cx="325.6513946828335" cy="511.7902224120976" fill="#2ca02c" opacity="0.75" r="4"/>
  <circle cx="350.47171267233955" cy="499.9093337272351" fill="#ff7f0e" opacity="0.75" r="4"/>
  <circle cx="376.41307496195213" cy="562.0405138690992" fill="#2ca02c" opacity="0.75" r="4"/>
  <circle cx="218.8294837939933" cy="536.0701986766411" fill="#2ca02c" opacity="0.75" r="4"/>
  <circle cx="353.36944276879404" cy="569.2909628652412" fill="#1f77b4" opacity="0.75" r="4"/>
  <circle cx="400.8075497561981" cy="544.2477067832654" fill="#ff7f0e" opacity="0.75" r="4"/>
  <circle cx="405.1482349722145" cy="539.5450041298286" fill="#2ca02c" opacity="0.75" r="4"/>
  <circle cx="395.2247726783718" cy="451.92550478203987" fill="#1f77b4" opacity="0.75" r="4"/>
  <circle cx="482.80397832036056" cy="510.7798242916475" fill="#ff7f0e" opacity="0.75" r="4"/>
  <circle cx="353.83568998038845" cy="449.73685987879134" fill="#2ca02c" opacity="0.75" r="4"/>
  <circle cx="435.74418350581834" cy="490.30044554981555" fill="#1f77b4" opacity="0.75" r="4"/>
  <circle cx="409.3926655442832" cy="554.420722045711" fill="#ff7f0e" opacity="0.75" r="4"/>
  <circle cx="343.8601655810353" cy="462.62349538605594" fill="#ff7f0e" opacity="0.75" r="4"/>
  <circle cx="480.99708529653094" cy="630.0252593669846" fill="#ff7f0e" opacity="0.75" r="4"/>
  <circle cx="465.8832487176261" cy="517.0135009409603" fill="#ff7f0e" opacity="0.75" r="4"/>
  <circle cx="483.30240305533425" cy="521.5873171110146" fill="#ff7f0e" opacity="0.75" r="4"/>
  <circle cx="516.0404968677738" cy="501.40951570444736" fill="#2ca02c" opacity="0.75" r="4"/>
  <circle cx="475.89749327969594" cy="492.7385251175141" fill="#2ca02c" opacity="0.75" r="4"/>
  <circle cx="440.73167163795137" cy="599.6809400510499" fill="#ff7f0e" opacity="0.75" r="4"/>
  <circle cx="492.0846235185095" cy="536.6586693857233" fill="#1f77b4" opacity="0.75" r="4"/>
  <circle cx="252.45275640344346" cy="449.30378223728934" fill="#1f77b4" opacity="0.75" r="4"/>
  <circle cx="483.5186652557718" cy="605.5180575445652" fill="#2ca02c" opacity="0.75" r="4"/>
  <circle cx="364.5682642194114" cy="529.7333430043099" fill="#1f77b4" opacity="0.75" r="4"/>
  <circle cx="400.05069202367474" cy="525.1473148841947" fill="#ff7f0e" opacity="0.75" r="4"/>
  <circle cx="264.2161661200032" cy="538.5266268514589" fill="#1f77b4" opacity="0.75" r="4"/>
  <circle cx="455.2913667067655" cy="626.7336721720353" fill="#2ca02c" opacity="0.75" r="4"/>
  <circle cx="494.18890918135196" cy="401.80485873550293" fill="#2ca02c" opacity="0.75" r="4"/>
  <circle cx="583.2948031729645" cy="367.4700569803655" fill="#ff7f0e" opacity="0.75" r="4"/>
  <circle cx="520.3760467672269" cy="487.53475805255675" fill="#ff7f0e" opacity="0.75" r="4"/>
  <circle cx="615.5592879606638" cy="391.19442677745957" fill="#ff7f0e" opacity="0.75" r="4"/>
  <circle cx="507.30890703599437" cy="551.1406300094222" fill="#2ca02c" opacity="0.75" r="4"/>
  <circle cx="673.9873715663857" cy="476.1325960254151" fill="#ff7f0e" opacity="0.75" r="4"/>
  <circle cx="614.2640775594639" cy="546.24265485421" fill="#ff7f0e" opacity="0.75" r="4"/>
  <circle cx="637.0279713837119" cy="423.3859476967594" fill="#ff7f0e" opacity="0.75" r="4"/>
  <circle cx="771.6782154029596" cy="439.42250387573677" fill="#1f77b4" opacity="0.75" r="4"/>
  <circle cx="710.6884565062627" cy="333.8249104801067" fill="#2ca02c" opacity="0.75" r="4"/>
  <circle cx="703.2339567193784" cy="477.66571342443035" fill="#2ca02c" opacity="0.75" r="4"/>
  <circle cx="709.177803617041" cy="402.85723335635237" fill="#2ca02c" opacity="0.75" r="4"/>
  <circle cx="790.371099355655" cy="433.4615897819637" fill="#ff7f0e" opacity="0.75" r="4"/>
  <circle cx="824.1207859153892" cy="379.77501451544117" fill="#ff7f0e" opacity="0.75" r="4"/>
  <circle cx="531.0998612225658" cy="257.90322565520955" fill="#2ca02c" opacity="0.75" r="4"/>
  <circle cx="601.6426856862731" cy="440.51401715440966" fill="#1f77b4" opacity="0.75" r="4"/>
  <circle cx="593.5071945757061" cy="452.0313846164523" fill="#1f77b4" opacity="0.75" r="4"/>
  <circle cx="717.8696709876916" cy="452.86955837335375" fill="#2ca02c" opacity="0.75" r="4"/>
  <circle cx="543.8843510278296" cy="440.49037363872526" fill="#ff7f0e" opacity="0.75" r="4"/>
  <circle cx="670.5583803946428" cy="471.8909214111943" fill="#2ca02c" opacity="0.75" r="4"/>
  <circle cx="646.8540658067946" cy="344.7457358424798" fill="#2ca02c" opacity="0.75" r="4"/>
  <circle cx="742.8255460195936" cy="456.3828507121573" fill="#ff7f0e" opacity="0.75" r="4"/>
  <circle cx="652.2226705089417" cy="408.3552778237108" fill="#1f77b4" opacity="0.75" r="4"/>
  <circle cx="613.873726991787" cy="443.95860625092104" fill="#ff7f0e" opacity="0.75" r="4"/>
  <circle cx="583.4419026677313" cy="362.01160919889213" fill="#1f77b4" opacity="0.75" r="4"/>
  <circle cx="567.3127583337375" cy="409.54177840113744" fill="#1f77b4" opacity="0.75" r="4"/>
  <circle cx="731.935778277058" cy="390.0227547178164" fill="#1f77b4" opacity="0.75" r="4"/>
  <circle cx="730.9841556897502" cy="388.2227310813589" fill="#1f77b4" opacity="0.75" r="4"/>
  <circle cx="664.9177723489283" cy="436.8814475849456" fill="#2ca02c" opacity="0.75" r="4"/>
  <circle cx="699.5140566363909" cy="353.04375930542653" fill="#2ca02c" opacity="0.75" r="4"/>
  <circle cx="701.1543257474125" cy="449.7075464742227" fill="#ff7f0e" opacity="0.75" r="4"/>
  <circle cx="737.4463226176886" cy="368.56670587152144" fill="#1f77b4" opacity="0.75" r="4"/>
  <circle cx="648.5182692892897" cy="437.9606933626526" fill="#2ca02c" opacity="0.75" r="4"/>
  <circle cx="574.6457969606533" cy="424.96524008348916" fill="#2ca02c" opacity="0.75" r="4"/>
  <circle cx="577.3152667016734" cy="452.6106787803384" fill="#ff7f0e" opacity="0.75" r="4"/>
  <circle cx="605.7018315484138" cy="482.7447508228299" fill="#ff7f0e" opacity="0.75" r="4"/>
  <circle cx="817.8371820615405" cy="488.9611919763208" fill="#1f77b4" opacity="0.75" r="4"/>
  <circle cx="569.3732912627413" cy="356.89859048587056" fill="#1f77b4" opacity="0.75" r="4"/>
  <circle cx="679.1771845381131" cy="413.8884283586199" fill="#1f77b4" opacity="0.75" r="4"/>
  <circle cx="640.7395065377434" cy="302.74604522750946" fill="#ff7f0e" opacity="0.75" r="4"/>
  <circle cx="614.3420066890606" cy="372.43136045274787" fill="#2ca02c" opacity="0.75" r="4"/>
  <circle cx="638.6992402662897" cy="389.04249520906046" fill="#2ca02c" opacity="0.75" r="4"/>
  <circle cx="695.4870206208449" cy="494.6464460195795" fill="#ff7f0e" opacity="0.75" r="4"/>
  <circle cx="730.3311170603434" cy="487.3725371031138" fill="#ff7f0e" opacity="0.75" r="4"/>
  <circle cx="610.595356787582" cy="437.7926764289577" fill="#2ca02c" opacity="0.75" r="4"/>
  <circle cx="678.136283459157" cy="453.46389108116045" fill="#1f77b4" opacity="0.75" r="4"/>
  <circle cx="605.4049594729051" cy="477.98881748930444" fill="#1f77b4" opacity="0.75" r="4"/>
  <circle cx="700.3559601801345" cy="386.54152306873834" fill="#1f77b4" opacity="0.75" r="4"/>
  <circle cx="659.2871816527689" cy="486.5735745452566" fill="#1f77b4" opacity="0.75" r="4"/>
  <circle cx="678.003857794064" cy="471.87202302760966" fill="#2ca02c" opacity="0.75" r="4"/>
  <circle cx="786.806399016501" cy="451.96140898382527" fill="#2ca02c" opacity="0.75" r="4"/>
  <circle cx="772.2834884782146" cy="343.9613880648071" fill="#ff7f0e" opacity="0.75" r="4"/>
  <circle cx="536.3518483049639" cy="412.87633542259334" fill="#1f77b4" opacity="0.75" r="4"/>
  <circle cx="696.9742458100072" cy="267.9404833820997" fill="#ff7f0e" opacity="0.75" r="4"/>
  <circle cx="664.9871724604565" cy="418.2171877301442" fill="#ff7f0e" opacity="0.75" r="4"/>
  <circle cx="611.9679129459278" cy="627.5006334392966" fill="#1f77b4" opacity="0.75" r="4"/>
  <circle cx="451.20511880345094" cy="499.64711939250964" fill="#2ca02c" opacity="0.75" r="4"/>
  <circle cx="557.3393022956434" cy="663.022913437778" fill="#1f77b4" opacity="0.75" r="4"/>
  <circle cx="401.6166854880137" cy="583.8648839614561" fill="#1f77b4" opacity="0.75" r="4"/>
  <circle cx="497.53980483382657" cy="612.5418866195037" fill="#ff7f0e" opacity="0.75" r="4"/>
  <circle cx="470.33629189544" cy="639.5541074506014" fill="#1f77b4" opacity="0.75" r="4"/>
  <circle cx="480.43696163101987" cy="680.2438375133105" fill="#1f77b4" opacity="0.75" r="4"/>
  <circle cx="528.2579005170073" cy="597.4606425826715" fill="#1f77b4" opacity="0.75" r="4"/>
  <circle cx="649.6055951965468" cy="545.4372968196631" fill="#2ca02c" opacity="0.75" r="4"/>
  <circle cx="558.8961095971877" cy="530.2752751052823" fill="#2ca02c" opacity="0.75" r="4"/>
  <circle cx="433.05840866056354" cy="559.8062369648987" fill="#ff7f0e" opacity="0.75" r="4"/>
  <circle cx="516.1921849441264" cy="603.890949095109" fill="#ff7f0e" opacity="0.75" r="4"/>
  <circle cx="533.8124968764057" cy="592.0139245767188" fill="#2ca02c" opacity="0.75" r="4"/>
  <circle cx="573.2532651024255" cy="569.4095388535277" fill="#ff7f0e" opacity="0.75" r="4"/>
  <circle cx="570.1328817042862" cy="513.259291183042" fill="#2ca02c" opacity="0.75" r="4"/>
  <circle cx="409.67048116357984" cy="557.3872815531635" fill="#1f77b4" opacity="0.75" r="4"/>
  <circle cx="462.1706031308504" cy="521.9256050750174" fill="#2ca02c" opacity="0.75" r="4"/>
  <circle cx="453.2269298340087" cy="618.8196656047662" fill="#ff7f0e" opacity="0.75" r="4"/>
  <circle cx="579.7419906367923" cy="629.4360250309032" fill="#ff7f0e" opacity="0.75" r="4"/>
  <circle cx="615.7071436120862" cy="653.8364299271802" fill="#2ca02c" opacity="0.75" r="4"/>
  <circle cx="559.5071342848332" cy="584.8394261177071" fill="#1f77b4" opacity="0.75" r="4"/>
  <circle cx="549.2278933541597" cy="592.4776179055224" fill="#1f77b4" opacity="0.75" r="4"/>
  <circle cx="510.146290440956" cy="550.6048617522406" fill="#2ca02c" opacity="0.75" r="4"/>
  <circle cx="511.61110875971815" cy="602.42351516329" fill="#ff7f0e" opacity="0.75" r="4"/>
  <circle cx="493.1483607408226" cy="521.7132956201824" fill="#ff7f0e" opacity="0.75" r="4"/>
  <circle cx="498.5367981183554" cy="621.657845874722" fill="#1f77b4" opacity="0.75" r="4"/>
  <circle cx="498.4513230045063" cy="570.485462662029" fill="#2ca02c" opacity="0.75" r="4"/>
  <circle cx="573.4379497959085" cy="588.734743678738" fill="#ff7f0e" opacity="0.75" r="4"/>
  <circle cx="506.0341140456032" cy="554.0978106820413" fill="#ff7f0e" opacity="0.75" r="4"/>
  <circle cx="592.3454873684262" cy="587.6483748708653" fill="#ff7f0e" opacity="0.75" r="4"/>
  <circle cx="512.3879204576151" cy="580.6476355262499" fill="#ff7f0e" opacity="0.75" r="4"/>
  <circle cx="631.2118684255036" cy="589.4102660464984" fill="#ff7f0e" opacity="0.75" r="4"/>
  <circle cx="565.7719218274785" cy="549.1376858770255" fill="#ff7f0e" opacity="0.75" r="4"/>
  <circle cx="421.0150474804395" cy="682.9760013885391" fill="#2ca02c" opacity="0.75" r="4"/>
  <circle cx="457.0510326182347" cy="572.0873811891568" fill="#ff7f0e" opacity="0.75" r="4"/>
  <circle cx="468.28967408465974" cy="521.4560053985415" fill="#1f77b4" opacity="0.75" r="4"/>
  <circle cx="652.7878522932733" cy="602.7239500377444" fill="#2ca02c" opacity="0.75" r="4"/>
  <circle cx="435.27776208281955" cy="531.2766226849227" fill="#ff7f0e" opacity="0.75" r="4"/>
  <circle cx="589.2520267139696" cy="532.7989420796587" fill="#1f77b4" opacity="0.75" r="4"/>
  <circle cx="682.1896282176997" cy="602.5355118697925" fill="#2ca02c" opacity="0.75" r="4"/>
  <circle cx="612.1381486692767" cy="567.552178494968" fill="#2ca02c" opacity="0.75" r="4"/>
  <circle cx="472.7407079718911" cy="541.3452450463574" fill="#1f77b4" opacity="0.75" r="4"/>
  <circle cx="444.1541614532115" cy="560.5661282684333" fill="#1f77b4" opacity="0.75" r="4"/>
  <circle cx="577.2908233477543" cy="638.3028444556311" fill="#1f77b4" opacity="0.75" r="4"/>
  <circle cx="666.401149470067" cy="609.6923567459503" fill="#ff7f0e" opacity="0.75" r="4"/>
  <circle cx="587.6206806164946" cy="630.5876800129626" fill="#1f77b4" opacity="0.75" r="4"/>
  <circle cx="567.5460667856669" cy="570.2076401664428" fill="#ff7f0e" opacity="0.75" r="4"/>
  <circle cx="406.44985736472347" cy="595.3446419345958" fill="#2ca02c" opacity="0.75" r="4"/>
  <circle cx="511.7493382504675" cy="575.4598216996785" fill="#1f77b4" opacity="0.75" r="4"/>
  <circle cx="523.0318855814785" cy="625.3880213283362" fill="#ff7f0e" opacity="0.75" r="4"/>
  <circle cx="479.25804723772814" cy="652.6306149426603" fill="#ff7f0e" opacity="0.75" r="4"/>
  <circle cx="548.8162754479931" cy="572.8983237750631" fill="#1f77b4" opacity="0.75" r="4"/>
  <circle cx="485.05497122965943" cy="460.1328369936312" fill="#2ca02c" opacity="0.75" r="4"/>
  <circle cx="548.9534817165545" cy="595.5469612526837" fill="#1f77b4" opacity="0.75" r="4"/>
  <circle cx="523.7543682918108" cy="550.3504880969132" fill="#2ca02c" opacity="0.75" r="4"/>
  <circle cx="914.0" cy="244.0" fill="#d62728" opacity="0.9" r="7"/>
  <text fill="#333" font-family="Arial, Helvetica, sans-serif" font-size="16" text-anchor="middle" x="570.0" y="765">Dimension 1</text>
  <text fill="#333" font-family="Arial, Helvetica, sans-serif" font-size="16" text-anchor="middle" transform="rotate(-90,85,440.0)" x="85" y="440.0">Dimension 2</text>
  <text fill="#999" font-family="Arial, Helvetica, sans-serif" font-size="12" text-anchor="end" x="1140" y="776">Auto-generated SVG</text>
</svg>
