<?xml version="1.0" encoding="utf-8" ?>
<svg xmlns="http://www.w3.org/2000/svg" xmlns:ev="http://www.w3.org/2001/xml-events" xmlns:xlink="http://www.w3.org/1999/xlink" baseProfile="full" height="800" version="1.1" width="1200">
  <defs>
    <marker id="id182" markerHeight="7" markerWidth="7" orient="auto" refX="6" refY="3">
      <path d="M0,0 L0,6 L6,3 z" fill="#333333"/>
    </marker>
  </defs>
  <rect fill="white" height="800" width="1200" x="0" y="0"/>
  <text fill="#111" font-family="Arial, Helvetica, sans-serif" font-size="28" font-weight="700" x="60" y="50">Figure 17.4: Calibration for Clinical Use (Four-Panel)</text>
  <text fill="#444" font-family="Arial, Helvetica, sans-serif" font-size="16" x="60" y="78">Panel B</text>
  <line stroke="#333" stroke-width="2" x1="140" x2="1000" y1="720" y2="720"/>
  <line stroke="#333" stroke-width="2" x1="140" x2="140" y1="160" y2="720"/>
  <circle cx="449.9167932020949" cy="493.74201833184486" fill="#2ca02c" opacity="0.75" r="4"/>
  <circle cx="306.4246227107933" cy="579.9174650050512" fill="#1f77b4" opacity="0.75" r="4"/>
  <circle cx="430.5967601724852" cy="464.6644440513404" fill="#ff7f0e" opacity="0.75" r="4"/>
  <circle cx="372.9115124921622" cy="433.5995286350955" fill="#ff7f0e" opacity="0.75" r="4"/>
  <circle cx="449.61240316101146" cy="466.795348682609" fill="#2ca02c" opacity="0.75" r="4"/>
  <circle cx="302.6517378406029" cy="501.5149713636672" fill="#2ca02c" opacity="0.75" r="4"/>
  <circle cx="442.23257513074657" cy="503.5092408042086" fill="#ff7f0e" opacity="0.75" r="4"/>
  <circle cx="358.7693383662703" cy="440.68319731750887" fill="#1f77b4" opacity="0.75" r="4"/>
  <circle cx="467.9116327894366" cy="555.6263604113467" fill="#2ca02c" opacity="0.75" r="4"/>
  <circle cx="393.02135034328546" cy="555.4763492191461" fill="#2ca02c" opacity="0.75" r="4"/>
  <circle cx="385.53205299096396" cy="549.4131337087167" fill="#1f77b4" opacity="0.75" r="4"/>
  <circle cx="465.753499228368" cy="521.1825521467183" fill="#2ca02c" opacity="0.75" r="4"/>
  <circle cx="499.3470163476126" cy="508.4045569454595" fill="#ff7f0e" opacity="0.75" r="4"/>
  <circle cx="430.30740090090643" cy="466.9600720959085" fill="#2ca02c" opacity="0.75" r="4"/>
  <circle cx="388.0048651622885" cy="515.84695949097" fill="#2ca02c" opacity="0.75" r="4"/>
  <circle cx="364.8255778566594" cy="616.61931413557" fill="#1f77b4" opacity="0.75" r="4"/>
  <circle cx="386.0549592462354" cy="493.45588636662893" fill="#ff7f0e" opacity="0.75" r="4"/>
  <circle cx="454.1924319607047" cy="537.550440949158" fill="#2ca02c" opacity="0.75" r="4"/>
  <circle cx="427.3574813623711" cy="488.04238309823296" fill="#2ca02c" opacity="0.75" r="4"/>
  <circle cx="545.1427166537175" cy="525.0041870137245" fill="#2ca02c" opacity="0.75" r="4"/>
  <circle cx="345.7546455533418" cy="548.5565264064187" fill="#2ca02c" opacity="0.75" r="4"/>
  <circle cx="397.5934047609375" cy="589.9614525769879" fill="#2ca02c" opacity="0.75" r="4"/>
  <circle cx="383.6169227934474" cy="601.5572186411132" fill="#2ca02c" opacity="0.75" r="4"/>
  <circle cx="447.1551706859654" cy="598.2064511959662" fill="#2ca02c" opacity="0.75" r="4"/>
  <circle cx="436.496731923724" cy="565.2593020402924" fill="#2ca02c" opacity="0.75" r="4"/>
  <circle cx="374.58887888555716" cy="552.1194673474586" fill="#2ca02c" opacity="0.75" r="4"/>
  <circle cx="416.70287277698463" cy="400.0489848474603" fill="#ff7f0e" opacity="0.75" r="4"/>
  <circle cx="380.47370265021334" cy="539.3663042425544" fill="#2ca02c" opacity="0.75" r="4"/>
  <circle cx="307.27872708815784" cy="512.0026456917697" fill="#1f77b4" opacity="0.75" r="4"/>
  <circle cx="256.16118237181695" cy="474.55925201731816" fill="#2ca02c" opacity="0.75" r="4"/>
  <circle cx="327.66785693490823" cy="525.0752206363844" fill="#ff7f0e" opacity="0.75" r="4"/>
  <circle cx="435.78164726526455" cy="484.1031098121272" fill="#ff7f0e" opacity="0.75" r="4"/>
  <circle cx="473.22778061312994" cy="524.2072108598006" fill="#2ca02c" opacity="0.75" r="4"/>
  <circle cx="483.0726902936396" cy="651.7858504650303" fill="#ff7f0e" opacity="0.75" r="4"/>
  <circle cx="290.56219482684673" cy="497.79179394954195" fill="#1f77b4" opacity="0.75" r="4"/>
  <circle cx="472.3161012047035" cy="485.58504588833534" fill="#1f77b4" opacity="0.75" r="4"/>
  <circle cx="428.9030268195466" cy="552.5599582688219" fill="#ff7f0e" opacity="0.75" r="4"/>
  <circle cx="404.73013395440535" cy="561.3878890574326" fill="#1f77b4" opacity="0.75" r="4"/>
  <circle cx="297.3028235946701" cy="526.4956369432356" fill="#ff7f0e" opacity="0.75" r="4"/>
  <circle cx="329.2744072626093" cy="541.9596341928873" fill="#1f77b4" opacity="0.75" r="4"/>
  <circle cx="347.43792941779407" cy="469.59002421884816" fill="#ff7f0e" opacity="0.75" r="4"/>
  <circle cx="303.3345681377857" cy="474.3882752901518" fill="#1f77b4" opacity="0.75" r="4"/>
  <circle cx="330.7041662801135" cy="508.14872011013915" fill="#ff7f0e" opacity="0.75" r="4"/>
  <circle cx="386.15734682642403" cy="509.0326780372102" fill="#1f77b4" opacity="0.75" r="4"/>
  <circle cx="394.0919198575575" cy="504.5381383542702" fill="#ff7f0e" opacity="0.75" r="4"/>
  <circle cx="360.9892010587453" cy="521.9709174320881" fill="#1f77b4" opacity="0.75" r="4"/>
  <circle cx="351.9846196796499" cy="529.9309228319485" fill="#2ca02c" opacity="0.75" r="4"/>
  <circle cx="418.08356126119895" cy="567.3511739240304" fill="#2ca02c" opacity="0.75" r="4"/>
  <circle cx="417.1385592617815" cy="556.4939398851238" fill="#1f77b4" opacity="0.75" r="4"/>
  <circle cx="366.4987509795561" cy="530.6094189452999" fill="#1f77b4" opacity="0.75" r="4"/>
  <circle cx="425.3578113867318" cy="566.6373297281438" fill="#1f77b4" opacity="0.75" r="4"/>
  <circle cx="400.3386263582969" cy="446.4101676852663" fill="#1f77b4" opacity="0.75" r="4"/>
  <circle cx="297.21856163148084" cy="507.6888800812863" fill="#ff7f0e" opacity="0.75" r="4"/>
  <circle cx="304.0945385442768" cy="532.5420016711994" fill="#1f77b4" opacity="0.75" r="4"/>
  <circle cx="411.7152944991203" cy="535.3138139741243" fill="#1f77b4" opacity="0.75" r="4"/>
  <circle cx="625.2026294410125" cy="476.69756744292073" fill="#2ca02c" opacity="0.75" r="4"/>
  <circle cx="634.8827984051045" cy="437.151789045286" fill="#2ca02c" opacity="0.75" r="4"/>
  <circle cx="644.4830372613823" cy="396.3318879606396" fill="#2ca02c" opacity="0.75" r="4"/>
  <circle cx="634.4721881511468" cy="380.7258827984896" fill="#1f77b4" opacity="0.75" r="4"/>
  <circle cx="543.1163651523086" cy="463.74288535889235" fill="#1f77b4" opacity="0.75" r="4"/>
  <circle cx="587.5710597307516" cy="439.16222251190896" fill="#ff7f0e" opacity="0.75" r="4"/>
  <circle cx="773.120681289906" cy="389.31682854024933" fill="#2ca02c" opacity="0.75" r="4"/>
  <circle cx="595.7401666592714" cy="536.8977390390462" fill="#ff7f0e" opacity="0.75" r="4"/>
  <circle cx="745.9231602316254" cy="453.17441214149693" fill="#1f77b4" opacity="0.75" r="4"/>
  <circle cx="642.6301775955233" cy="462.58169598970574" fill="#1f77b4" opacity="0.75" r="4"/>
  <circle cx="691.2416345484287" cy="363.0030102849318" fill="#ff7f0e" opacity="0.75" r="4"/>
  <circle cx="585.451509019636" cy="336.2217407182895" fill="#1f77b4" opacity="0.75" r="4"/>
  <circle cx="710.570947749402" cy="364.2220290989686" fill="#1f77b4" opacity="0.75" r="4"/>
  <circle cx="717.7322837424881" cy="434.1921558186556" fill="#ff7f0e" opacity="0.75" r="4"/>
  <circle cx="754.118572079542" cy="388.836526617561" fill="#ff7f0e" opacity="0.75" r="4"/>
  <circle cx="669.2455264459692" cy="499.24844169753715" fill="#ff7f0e" opacity="0.75" r="4"/>
  <circle cx="565.846230718992" cy="372.2496733946334" fill="#1f77b4" opacity="0.75" r="4"/>
  <circle cx="657.2841746758932" cy="434.3604792071338" fill="#2ca02c" opacity="0.75" r="4"/>
  <circle cx="711.6112953326302" cy="409.8532118050555" fill="#ff7f0e" opacity="0.75" r="4"/>
  <circle cx="608.5707744174285" cy="453.48700609618714" fill="#2ca02c" opacity="0.75" r="4"/>
  <circle cx="603.3895260432425" cy="473.858444344091" fill="#1f77b4" opacity="0.75" r="4"/>
  <circle cx="694.0353858189003" cy="481.7008656389968" fill="#1f77b4" opacity="0.75" r="4"/>
  <circle cx="743.5479657063337" cy="438.5495157759025" fill="#2ca02c" opacity="0.75" r="4"/>
  <circle cx="564.5580180788304" cy="422.53386973689373" fill="#2ca02c" opacity="0.75" r="4"/>
  <circle cx="653.4908127400893" cy="531.0819449210303" fill="#1f77b4" opacity="0.75" r="4"/>
  <circle cx="655.2659207844966" cy="349.1055031556013" fill="#1f77b4" opacity="0.75" r="4"/>
  <circle cx="718.1023653140447" cy="355.32977897990696" fill="#1f77b4" opacity="0.75" r="4"/>
  <circle cx="700.7386549676214" cy="470.4418548593137" fill="#2ca02c" opacity="0.75" r="4"/>
  <circle cx="691.5022751153517" cy="399.9871825667923" fill="#2ca02c" opacity="0.75" r="4"/>
  <circle cx="477.4913860991384" cy="428.83881157458416" fill="#1f77b4" opacity="0.75" r="4"/>
  <circle cx="584.1201069631638" cy="431.1479921980025" fill="#1f77b4" opacity="0.75" r="4"/>
  <circle cx="580.6403724179521" cy="402.91740142818475" fill="#ff7f0e" opacity="0.75" r="4"/>
  <circle cx="560.8340855015396" cy="359.1605662791121" fill="#2ca02c" opacity="0.75" r="4"/>
  <circle cx="823.9987827231421" cy="408.07043594712474" fill="#2ca02c" opacity="0.75" r="4"/>
  <circle cx="749.7542167984421" cy="418.9163147882339" fill="#ff7f0e" opacity="0.75" r="4"/>
  <circle cx="669.7603636027975" cy="520.1802248265703" fill="#ff7f0e" opacity="0.75" r="4"/>
  <circle cx="668.5101328749556" cy="467.78412366253434" fill="#2ca02c" opacity="0.75" r="4"/>
  <circle cx="656.0126085706181" cy="450.4842534935194" fill="#2ca02c" opacity="0.75" r="4"/>
  <circle cx="779.7172404762966" cy="510.5789995337948" fill="#2ca02c" opacity="0.75" r="4"/>
  <circle cx="701.4881996339905" cy="410.5647963659753" fill="#2ca02c" opacity="0.75" r="4"/>
  <circle cx="634.5787332347846" cy="412.3831934963066" fill="#2ca02c" opacity="0.75" r="4"/>
  <circle cx="638.7636386961074" cy="500.00482734976924" fill="#1f77b4" opacity="0.75" r="4"/>
  <circle cx="674.8438153714269" cy="337.9546671853451" fill="#2ca02c" opacity="0.75" r="4"/>
  <circle cx="684.7419144539588" cy="406.7525068367063" fill="#2ca02c" opacity="0.75" r="4"/>
  <circle cx="623.1251101125999" cy="385.9260567210748" fill="#1f77b4" opacity="0.75" r="4"/>
  <circle cx="695.0955493248813" cy="408.4818240313548" fill="#2ca02c" opacity="0.75" r="4"/>
  <circle cx="716.0777479655584" cy="409.7434069061171" fill="#2ca02c" opacity="0.75" r="4"/>
  <circle cx="491.60880098004765" cy="393.9044689085663" fill="#1f77b4" opacity="0.75" r="4"/>
  <circle cx="630.8942917004684" cy="420.66945294975386" fill="#ff7f0e" opacity="0.75" r="4"/>
  <circle cx="706.284329014741" cy="455.2414145110667" fill="#1f77b4" opacity="0.75" r="4"/>
  <circle cx="547.2853788063251" cy="372.6506859761879" fill="#2ca02c" opacity="0.75" r="4"/>
  <circle cx="692.6726335902334" cy="422.5609382845677" fill="#1f77b4" opacity="0.75" r="4"/>
  <circle cx="683.8110364378884" cy="375.14371486326866" fill="#ff7f0e" opacity="0.75" r="4"/>
  <circle cx="647.5317845936644" cy="417.3012883485324" fill="#ff7f0e" opacity="0.75" r="4"/>
  <circle cx="695.0612840663233" cy="327.7679377488971" fill="#1f77b4" opacity="0.75" r="4"/>
  <circle cx="546.3932322205949" cy="615.0054083591123" fill="#ff7f0e" opacity="0.75" r="4"/>
  <circle cx="536.7631855354207" cy="532.1939086480702" fill="#1f77b4" opacity="0.75" r="4"/>
  <circle cx="532.0548054164917" cy="512.7143466407458" fill="#ff7f0e" opacity="0.75" r="4"/>
  <circle cx="482.910625503665" cy="538.4214533151862" fill="#1f77b4" opacity="0.75" r="4"/>
  <circle cx="500.37131734604714" cy="536.8542922068106" fill="#2ca02c" opacity="0.75" r="4"/>
  <circle cx="481.65823878558945" cy="624.5640296529223" fill="#2ca02c" opacity="0.75" r="4"/>
  <circle cx="688.9950792982792" cy="590.2513485976826" fill="#1f77b4" opacity="0.75" r="4"/>
  <circle cx="625.3301318753415" cy="567.2809049303448" fill="#1f77b4" opacity="0.75" r="4"/>
  <circle cx="551.0430560092339" cy="547.1804569975552" fill="#ff7f0e" opacity="0.75" r="4"/>
  <circle cx="474.4124552764902" cy="568.3575949853298" fill="#2ca02c" opacity="0.75" r="4"/>
  <circle cx="521.4577593308056" cy="575.2496963937153" fill="#2ca02c" opacity="0.75" r="4"/>
  <circle cx="389.66510030120344" cy="551.69919395723" fill="#2ca02c" opacity="0.75" r="4"/>
  <circle cx="494.726122429449" cy="619.6323612156269" fill="#2ca02c" opacity="0.75" r="4"/>
  <circle cx="532.098855323926" cy="582.2592081015638" fill="#2ca02c" opacity="0.75" r="4"/>
  <circle cx="677.120117456535" cy="506.84697975522454" fill="#ff7f0e" opacity="0.75" r="4"/>
  <circle cx="584.1404729424687" cy="636.7778495737232" fill="#ff7f0e" opacity="0.75" r="4"/>
  <circle cx="466.1169874411736" cy="622.5339889731274" fill="#ff7f0e" opacity="0.75" r="4"/>
  <circle cx="600.3731980961577" cy="592.957625984473" fill="#2ca02c" opacity="0.75" r="4"/>
  <circle cx="528.0613726109407" cy="555.281269606957" fill="#ff7f0e" opacity="0.75" r="4"/>
  <circle cx="529.7079397911046" cy="574.3077362314345" fill="#2ca02c" opacity="0.75" r="4"/>
  <circle cx="544.1465381707749" cy="551.4236112906947" fill="#2ca02c" opacity="0.75" r="4"/>
  <circle cx="499.92325780957975" cy="539.2186678864066" fill="#ff7f0e" opacity="0.75" r="4"/>
  <circle cx="439.83472092524767" cy="523.0588709315964" fill="#ff7f0e" opacity="0.75" r="4"/>
  <circle cx="570.9675028695028" cy="569.6939934151069" fill="#ff7f0e" opacity="0.75" r="4"/>
  <circle cx="485.48159493663815" cy="593.4407947936394" fill="#2ca02c" opacity="0.75" r="4"/>
  <circle cx="612.307466500296" cy="614.8902377385402" fill="#ff7f0e" opacity="0.75" r="4"/>
  <circle cx="492.8032788839537" cy="612.262155979743" fill="#2ca02c" opacity="0.75" r="4"/>
  <circle cx="434.13556360535057" cy="589.9660067769615" fill="#2ca02c" opacity="0.75" r="4"/>
  <circle cx="573.3926513649058" cy="600.1055858861444" fill="#ff7f0e" opacity="0.75" r="4"/>
  <circle cx="515.5469103185774" cy="547.3010870325563" fill="#1f77b4" opacity="0.75" r="4"/>
  <circle cx="505.3365932363526" cy="534.581204555485" fill="#ff7f0e" opacity="0.75" r="4"/>
  <circle cx="557.5447918688801" cy="548.4488193841702" fill="#ff7f0e" opacity="0.75" r="4"/>
  <circle cx="601.6280940120962" cy="576.9014547997706" fill="#2ca02c" opacity="0.75" r="4"/>
  <circle cx="579.5511593306833" cy="590.9821875691757" fill="#2ca02c" opacity="0.75" r="4"/>
  <circle cx="565.0859422736527" cy="571.7290488007303" fill="#ff7f0e" opacity="0.75" r="4"/>
  <circle cx="504.6019827634484" cy="641.5063485273773" fill="#1f77b4" opacity="0.75" r="4"/>
  <circle cx="471.67326141936906" cy="571.801069776262" fill="#ff7f0e" opacity="0.75" r="4"/>
  <circle cx="528.6121372597983" cy="570.3374951349425" fill="#1f77b4" opacity="0.75" r="4"/>
  <circle cx="535.0906550863072" cy="543.2237529194492" fill="#ff7f0e" opacity="0.75" r="4"/>
  <circle cx="514.3451343605312" cy="565.5451952711676" fill="#ff7f0e" opacity="0.75" r="4"/>
  <circle cx="540.3334949583759" cy="604.0836795887467" fill="#1f77b4" opacity="0.75" r="4"/>
  <circle cx="527.8400109895051" cy="599.7195041973167" fill="#2ca02c" opacity="0.75" r="4"/>
  <circle cx="468.95805376576664" cy="609.8135175395566" fill="#2ca02c" opacity="0.75" r="4"/>
  <circle cx="518.8432486486855" cy="570.250071115182" fill="#2ca02c" opacity="0.75" r="4"/>
  <circle cx="560.8011702374004" cy="535.4035998084007" fill="#ff7f0e" opacity="0.75" r="4"/>
  <circle cx="552.3977943115954" cy="564.6995322599618" fill="#1f77b4" opacity="0.75" r="4"/>
  <circle cx="543.7652443262873" cy="558.9574470877559" fill="#ff7f0e" opacity="0.75" r="4"/>
  <circle cx="589.2201109710346" cy="571.0971020803199" fill="#1f77b4" opacity="0.75" r="4"/>
  <circle cx="483.55405916580935" cy="580.2618643116544" fill="#ff7f0e" opacity="0.75" r="4"/>
  <circle cx="499.9402005035265" cy="667.9260624097592" fill="#1f77b4" opacity="0.75" r="4"/>
  <circle cx="615.9149504716008" cy="618.3098105059419" fill="#ff7f0e" opacity="0.75" r="4"/>
  <circle cx="465.2129630477124" cy="606.5232898194831" fill="#1f77b4" opacity="0.75" r="4"/>
  <circle cx="544.1540705689192" cy="515.3605697493226" fill="#1f77b4" opacity="0.75" r="4"/>
  <circle cx="529.9440706286778" cy="660.0628653957544" fill="#1f77b4" opacity="0.75" r="4"/>
  <circle cx="507.8052436079248" cy="633.3615768495603" fill="#2ca02c" opacity="0.75" r="4"/>
  <circle cx="914.0" cy="244.0" fill="#d62728" opacity="0.9" r="7"/>
  <text fill="#333" font-family="Arial, Helvetica, sans-serif" font-size="16" text-anchor="middle" x="570.0" y="765">Dimension 1</text>
  <text fill="#333" font-family="Arial, Helvetica, sans-serif" font-size="16" text-anchor="middle" transform="rotate(-90,85,440.0)" x="85" y="440.0">Dimension 2</text>
  <text fill="#999" font-family="Arial, Helvetica, sans-serif" font-size="12" text-anchor="end" x="1140" y="776">Auto-generated SVG</text>
</svg>
