<?xml version="1.0" encoding="UTF-8" standalone="no"?>
<!DOCTYPE svg PUBLIC "-//W3C//DTD SVG 1.1//EN"
 "http://www.w3.org/Graphics/SVG/1.1/DTD/svg11.dtd">
<!-- Generated by graphviz version 2.43.0 (0)
 -->
<!-- Title: longread Pages: 1 -->
<svg width="741pt" height="288pt"
 viewBox="0.00 0.00 740.84 288.00" xmlns="http://www.w3.org/2000/svg" xmlns:xlink="http://www.w3.org/1999/xlink">
<g id="graph0" class="graph" transform="scale(1.89 1.89) rotate(0) translate(4 148)">
<title>longread</title>
<polygon fill="white" stroke="transparent" points="-4,4 -4,-148 387,-148 387,4 -4,4"/>
<!-- longread -->
<g id="node1" class="node">
<title>longread</title>
<path fill="#aec7e8" stroke="black" stroke-width="1.5" d="M54,-90C54,-90 12,-90 12,-90 6,-90 0,-84 0,-78 0,-78 0,-66 0,-66 0,-60 6,-54 12,-54 12,-54 54,-54 54,-54 60,-54 66,-60 66,-66 66,-66 66,-78 66,-78 66,-84 60,-90 54,-90"/>
<text text-anchor="middle" x="33" y="-74.8" font-family="Arial" font-size="9.00">Long&#45;Read</text>
<text text-anchor="middle" x="33" y="-64.8" font-family="Arial" font-size="9.00">Sequencing</text>
</g>
<!-- sv -->
<g id="node2" class="node">
<title>sv</title>
<path fill="#ffbb78" stroke="black" stroke-width="1.5" d="M150.5,-144C150.5,-144 118.5,-144 118.5,-144 112.5,-144 106.5,-138 106.5,-132 106.5,-132 106.5,-120 106.5,-120 106.5,-114 112.5,-108 118.5,-108 118.5,-108 150.5,-108 150.5,-108 156.5,-108 162.5,-114 162.5,-120 162.5,-120 162.5,-132 162.5,-132 162.5,-138 156.5,-144 150.5,-144"/>
<text text-anchor="middle" x="134.5" y="-128.8" font-family="Arial" font-size="9.00">Structural</text>
<text text-anchor="middle" x="134.5" y="-118.8" font-family="Arial" font-size="9.00">Variants</text>
</g>
<!-- longread&#45;&gt;sv -->
<g id="edge1" class="edge">
<title>longread&#45;&gt;sv</title>
<path fill="none" stroke="black" d="M66.03,-89.38C75.95,-94.77 86.94,-100.73 97.13,-106.26"/>
<polygon fill="black" stroke="black" points="95.75,-109.49 106.21,-111.19 99.09,-103.34 95.75,-109.49"/>
</g>
<!-- phase -->
<g id="node3" class="node">
<title>phase</title>
<path fill="#ffbb78" stroke="black" stroke-width="1.5" d="M154,-90C154,-90 115,-90 115,-90 109,-90 103,-84 103,-78 103,-78 103,-66 103,-66 103,-60 109,-54 115,-54 115,-54 154,-54 154,-54 160,-54 166,-60 166,-66 166,-66 166,-78 166,-78 166,-84 160,-90 154,-90"/>
<text text-anchor="middle" x="134.5" y="-74.8" font-family="Arial" font-size="9.00">Phased</text>
<text text-anchor="middle" x="134.5" y="-64.8" font-family="Arial" font-size="9.00">Haplotypes</text>
</g>
<!-- longread&#45;&gt;phase -->
<g id="edge2" class="edge">
<title>longread&#45;&gt;phase</title>
<path fill="none" stroke="black" d="M66.03,-72C74.52,-72 83.81,-72 92.7,-72"/>
<polygon fill="black" stroke="black" points="92.89,-75.5 102.89,-72 92.89,-68.5 92.89,-75.5"/>
</g>
<!-- repeat -->
<g id="node4" class="node">
<title>repeat</title>
<path fill="#ffbb78" stroke="black" stroke-width="1.5" d="M155,-36C155,-36 114,-36 114,-36 108,-36 102,-30 102,-24 102,-24 102,-12 102,-12 102,-6 108,0 114,0 114,0 155,0 155,0 161,0 167,-6 167,-12 167,-12 167,-24 167,-24 167,-30 161,-36 155,-36"/>
<text text-anchor="middle" x="134.5" y="-20.8" font-family="Arial" font-size="9.00">Repeat</text>
<text text-anchor="middle" x="134.5" y="-10.8" font-family="Arial" font-size="9.00">Expansions</text>
</g>
<!-- longread&#45;&gt;repeat -->
<g id="edge3" class="edge">
<title>longread&#45;&gt;repeat</title>
<path fill="none" stroke="black" d="M66.03,-54.62C74.64,-49.95 84.06,-44.83 93.06,-39.95"/>
<polygon fill="black" stroke="black" points="94.75,-43.01 101.87,-35.17 91.41,-36.86 94.75,-43.01"/>
</g>
<!-- fm -->
<g id="node5" class="node">
<title>fm</title>
<path fill="#9467bd" stroke="black" stroke-width="1.5" d="M263,-90C263,-90 215,-90 215,-90 209,-90 203,-84 203,-78 203,-78 203,-66 203,-66 203,-60 209,-54 215,-54 215,-54 263,-54 263,-54 269,-54 275,-60 275,-66 275,-66 275,-78 275,-78 275,-84 269,-90 263,-90"/>
<text text-anchor="middle" x="239" y="-74.8" font-family="Arial" font-size="9.00" fill="white">Long&#45;Context</text>
<text text-anchor="middle" x="239" y="-64.8" font-family="Arial" font-size="9.00" fill="white">FM (Evo 2)</text>
</g>
<!-- sv&#45;&gt;fm -->
<g id="edge4" class="edge">
<title>sv&#45;&gt;fm</title>
<path fill="none" stroke="black" d="M162.7,-111.67C172.52,-106.5 183.87,-100.52 194.73,-94.8"/>
<polygon fill="black" stroke="black" points="196.47,-97.83 203.69,-90.08 193.21,-91.64 196.47,-97.83"/>
</g>
<!-- phase&#45;&gt;fm -->
<g id="edge5" class="edge">
<title>phase&#45;&gt;fm</title>
<path fill="none" stroke="black" d="M166.25,-72C174.65,-72 183.93,-72 192.94,-72"/>
<polygon fill="black" stroke="black" points="192.95,-75.5 202.95,-72 192.95,-68.5 192.95,-75.5"/>
</g>
<!-- repeat&#45;&gt;fm -->
<g id="edge6" class="edge">
<title>repeat&#45;&gt;fm</title>
<path fill="none" stroke="black" d="M167.09,-34.64C175.74,-39.2 185.26,-44.22 194.45,-49.06"/>
<polygon fill="black" stroke="black" points="193,-52.25 203.48,-53.82 196.27,-46.06 193,-52.25"/>
</g>
<!-- sv_score -->
<g id="node6" class="node">
<title>sv_score</title>
<path fill="#98df8a" stroke="black" stroke-width="1.5" d="M362,-144C362,-144 332,-144 332,-144 326,-144 320,-138 320,-132 320,-132 320,-120 320,-120 320,-114 326,-108 332,-108 332,-108 362,-108 362,-108 368,-108 374,-114 374,-120 374,-120 374,-132 374,-132 374,-138 368,-144 362,-144"/>
<text text-anchor="middle" x="347" y="-128.8" font-family="Arial" font-size="9.00">SV Effect</text>
<text text-anchor="middle" x="347" y="-118.8" font-family="Arial" font-size="9.00">Score</text>
</g>
<!-- fm&#45;&gt;sv_score -->
<g id="edge7" class="edge">
<title>fm&#45;&gt;sv_score</title>
<path fill="none" stroke="black" d="M275,-89.83C286.52,-95.7 299.32,-102.22 310.85,-108.09"/>
<polygon fill="black" stroke="black" points="309.27,-111.22 319.77,-112.64 312.45,-104.98 309.27,-111.22"/>
</g>
<!-- hap_score -->
<g id="node7" class="node">
<title>hap_score</title>
<path fill="#98df8a" stroke="black" stroke-width="1.5" d="M364.5,-90C364.5,-90 329.5,-90 329.5,-90 323.5,-90 317.5,-84 317.5,-78 317.5,-78 317.5,-66 317.5,-66 317.5,-60 323.5,-54 329.5,-54 329.5,-54 364.5,-54 364.5,-54 370.5,-54 376.5,-60 376.5,-66 376.5,-66 376.5,-78 376.5,-78 376.5,-84 370.5,-90 364.5,-90"/>
<text text-anchor="middle" x="347" y="-74.8" font-family="Arial" font-size="9.00">Haplotype</text>
<text text-anchor="middle" x="347" y="-64.8" font-family="Arial" font-size="9.00">Effect</text>
</g>
<!-- fm&#45;&gt;hap_score -->
<g id="edge8" class="edge">
<title>fm&#45;&gt;hap_score</title>
<path fill="none" stroke="black" d="M275,-72C285.31,-72 296.66,-72 307.19,-72"/>
<polygon fill="black" stroke="black" points="307.39,-75.5 317.39,-72 307.39,-68.5 307.39,-75.5"/>
</g>
<!-- rep_score -->
<g id="node8" class="node">
<title>rep_score</title>
<path fill="#98df8a" stroke="black" stroke-width="1.5" d="M371,-36C371,-36 323,-36 323,-36 317,-36 311,-30 311,-24 311,-24 311,-12 311,-12 311,-6 317,0 323,0 323,0 371,0 371,0 377,0 383,-6 383,-12 383,-12 383,-24 383,-24 383,-30 377,-36 371,-36"/>
<text text-anchor="middle" x="347" y="-20.8" font-family="Arial" font-size="9.00">Expansion</text>
<text text-anchor="middle" x="347" y="-10.8" font-family="Arial" font-size="9.00">Pathogenicity</text>
</g>
<!-- fm&#45;&gt;rep_score -->
<g id="edge9" class="edge">
<title>fm&#45;&gt;rep_score</title>
<path fill="none" stroke="black" d="M275,-54.17C283.51,-49.84 292.71,-45.15 301.59,-40.63"/>
<polygon fill="black" stroke="black" points="303.35,-43.66 310.67,-36 300.17,-37.42 303.35,-43.66"/>
</g>
</g>
</svg>
