<?xml version="1.0" encoding="UTF-8" standalone="no"?>
<!DOCTYPE svg PUBLIC "-//W3C//DTD SVG 1.1//EN"
 "http://www.w3.org/Graphics/SVG/1.1/DTD/svg11.dtd">
<!-- Generated by graphviz version 2.43.0 (0)
 -->
<!-- Title: hierarchy Pages: 1 -->
<svg width="175pt" height="576pt"
 viewBox="0.00 0.00 175.23 576.00" xmlns="http://www.w3.org/2000/svg" xmlns:xlink="http://www.w3.org/1999/xlink">
<g id="graph0" class="graph" transform="scale(1.73 1.73) rotate(0) translate(4 328)">
<title>hierarchy</title>
<polygon fill="white" stroke="transparent" points="-4,4 -4,-328 97,-328 97,4 -4,4"/>
<!-- chromosome -->
<g id="node1" class="node">
<title>chromosome</title>
<path fill="#d62728" stroke="black" stroke-width="1.5" d="M70.5,-324C70.5,-324 22.5,-324 22.5,-324 16.5,-324 10.5,-318 10.5,-312 10.5,-312 10.5,-300 10.5,-300 10.5,-294 16.5,-288 22.5,-288 22.5,-288 70.5,-288 70.5,-288 76.5,-288 82.5,-294 82.5,-300 82.5,-300 82.5,-312 82.5,-312 82.5,-318 76.5,-324 70.5,-324"/>
<text text-anchor="middle" x="46.5" y="-308.8" font-family="Arial" font-size="9.00" fill="white">Chromosome</text>
<text text-anchor="middle" x="46.5" y="-298.8" font-family="Arial" font-size="9.00" fill="white">(~100 Mb)</text>
</g>
<!-- compartment -->
<g id="node2" class="node">
<title>compartment</title>
<path fill="#ff7f0e" stroke="black" stroke-width="1.5" d="M81,-252C81,-252 12,-252 12,-252 6,-252 0,-246 0,-240 0,-240 0,-228 0,-228 0,-222 6,-216 12,-216 12,-216 81,-216 81,-216 87,-216 93,-222 93,-228 93,-228 93,-240 93,-240 93,-246 87,-252 81,-252"/>
<text text-anchor="middle" x="46.5" y="-236.8" font-family="Arial" font-size="9.00">A/B Compartments</text>
<text text-anchor="middle" x="46.5" y="-226.8" font-family="Arial" font-size="9.00">(~10 Mb)</text>
</g>
<!-- chromosome&#45;&gt;compartment -->
<g id="edge1" class="edge">
<title>chromosome&#45;&gt;compartment</title>
<path fill="none" stroke="black" d="M46.5,-287.7C46.5,-279.98 46.5,-270.71 46.5,-262.11"/>
<polygon fill="black" stroke="black" points="50,-262.1 46.5,-252.1 43,-262.1 50,-262.1"/>
</g>
<!-- tad -->
<g id="node3" class="node">
<title>tad</title>
<path fill="#2ca02c" stroke="black" stroke-width="1.5" d="M61.5,-180C61.5,-180 31.5,-180 31.5,-180 25.5,-180 19.5,-174 19.5,-168 19.5,-168 19.5,-156 19.5,-156 19.5,-150 25.5,-144 31.5,-144 31.5,-144 61.5,-144 61.5,-144 67.5,-144 73.5,-150 73.5,-156 73.5,-156 73.5,-168 73.5,-168 73.5,-174 67.5,-180 61.5,-180"/>
<text text-anchor="middle" x="46.5" y="-164.8" font-family="Arial" font-size="9.00" fill="white">TADs</text>
<text text-anchor="middle" x="46.5" y="-154.8" font-family="Arial" font-size="9.00" fill="white">(~1 Mb)</text>
</g>
<!-- compartment&#45;&gt;tad -->
<g id="edge2" class="edge">
<title>compartment&#45;&gt;tad</title>
<path fill="none" stroke="black" d="M46.5,-215.7C46.5,-207.98 46.5,-198.71 46.5,-190.11"/>
<polygon fill="black" stroke="black" points="50,-190.1 46.5,-180.1 43,-190.1 50,-190.1"/>
</g>
<!-- loop -->
<g id="node4" class="node">
<title>loop</title>
<path fill="#1f77b4" stroke="black" stroke-width="1.5" d="M62.5,-108C62.5,-108 30.5,-108 30.5,-108 24.5,-108 18.5,-102 18.5,-96 18.5,-96 18.5,-84 18.5,-84 18.5,-78 24.5,-72 30.5,-72 30.5,-72 62.5,-72 62.5,-72 68.5,-72 74.5,-78 74.5,-84 74.5,-84 74.5,-96 74.5,-96 74.5,-102 68.5,-108 62.5,-108"/>
<text text-anchor="middle" x="46.5" y="-92.8" font-family="Arial" font-size="9.00" fill="white">Loops</text>
<text text-anchor="middle" x="46.5" y="-82.8" font-family="Arial" font-size="9.00" fill="white">(~100 kb)</text>
</g>
<!-- tad&#45;&gt;loop -->
<g id="edge3" class="edge">
<title>tad&#45;&gt;loop</title>
<path fill="none" stroke="black" d="M46.5,-143.7C46.5,-135.98 46.5,-126.71 46.5,-118.11"/>
<polygon fill="black" stroke="black" points="50,-118.1 46.5,-108.1 43,-118.1 50,-118.1"/>
</g>
<!-- nucleosome -->
<g id="node5" class="node">
<title>nucleosome</title>
<path fill="#9467bd" stroke="black" stroke-width="1.5" d="M71,-36C71,-36 22,-36 22,-36 16,-36 10,-30 10,-24 10,-24 10,-12 10,-12 10,-6 16,0 22,0 22,0 71,0 71,0 77,0 83,-6 83,-12 83,-12 83,-24 83,-24 83,-30 77,-36 71,-36"/>
<text text-anchor="middle" x="46.5" y="-20.8" font-family="Arial" font-size="9.00" fill="white">Nucleosomes</text>
<text text-anchor="middle" x="46.5" y="-10.8" font-family="Arial" font-size="9.00" fill="white">(~200 bp)</text>
</g>
<!-- loop&#45;&gt;nucleosome -->
<g id="edge4" class="edge">
<title>loop&#45;&gt;nucleosome</title>
<path fill="none" stroke="black" d="M46.5,-71.7C46.5,-63.98 46.5,-54.71 46.5,-46.11"/>
<polygon fill="black" stroke="black" points="50,-46.1 46.5,-36.1 43,-46.1 50,-46.1"/>
</g>
</g>
</svg>
