<?xml version="1.0" encoding="utf-8" standalone="no"?>
<!DOCTYPE svg PUBLIC "-//W3C//DTD SVG 1.1//EN"
  "http://www.w3.org/Graphics/SVG/1.1/DTD/svg11.dtd">
<svg xmlns:xlink="http://www.w3.org/1999/xlink" width="568.8pt" height="352.518281pt" viewBox="0 0 568.8 352.518281" xmlns="http://www.w3.org/2000/svg" version="1.1">
 <metadata>
  <rdf:RDF xmlns:dc="http://purl.org/dc/elements/1.1/" xmlns:cc="http://creativecommons.org/ns#" xmlns:rdf="http://www.w3.org/1999/02/22-rdf-syntax-ns#">
   <cc:Work>
    <dc:type rdf:resource="http://purl.org/dc/dcmitype/StillImage"/>
    <dc:date>2026-01-08T07:31:42.201544</dc:date>
    <dc:format>image/svg+xml</dc:format>
    <dc:creator>
     <cc:Agent>
      <dc:title>Matplotlib v3.10.7, https://matplotlib.org/</dc:title>
     </cc:Agent>
    </dc:creator>
   </cc:Work>
  </rdf:RDF>
 </metadata>
 <defs>
  <style type="text/css">*{stroke-linejoin: round; stroke-linecap: butt}</style>
 </defs>
 <g id="figure_1">
  <g id="patch_1">
   <path d="M 0 352.518281 
L 568.8 352.518281 
L 568.8 0 
L 0 0 
z
" style="fill: #ffffff"/>
  </g>
  <g id="axes_1">
   <g id="line2d_1">
    <path d="M 62.64 223.908281 
L 506.16 223.908281 
" clip-path="url(#paf211168ba)" style="fill: none; stroke: #555555; stroke-width: 4; stroke-linecap: square"/>
   </g>
   <g id="line2d_2">
    <path d="M 328.752 142.968281 
L 328.662705 138.861456 
L 328.39518 134.771167 
L 327.950502 130.713885 
L 327.330461 126.705947 
L 326.537554 122.763492 
L 325.574975 118.902394 
L 324.446598 115.138201 
L 323.156968 111.48607 
L 321.711277 107.960707 
L 320.115346 104.576307 
L 318.375603 101.346498 
L 316.499052 98.284285 
L 314.493249 95.401999 
L 312.366272 92.711245 
L 310.126684 90.222859 
L 307.783504 87.94686 
L 305.346167 85.892413 
L 302.824487 84.06779 
L 300.228618 82.480339 
L 297.569012 81.136451 
L 294.85638 80.041539 
L 292.101644 79.20001 
L 289.315896 78.615253 
L 286.510353 78.289623 
L 283.696313 78.224432 
L 280.885106 78.419941 
L 278.088052 78.875363 
L 275.316415 79.588865 
L 272.581353 80.557574 
L 269.893882 81.777588 
L 267.264821 83.243996 
L 264.704758 84.950892 
L 262.224 86.891404 
L 259.832537 89.057718 
L 257.539999 91.441111 
L 255.355617 94.031985 
L 253.288186 96.819908 
L 251.346031 99.793655 
L 249.536973 102.941251 
L 247.868296 106.250021 
L 246.34672 109.706643 
L 244.97837 113.297198 
L 243.768758 117.007227 
L 242.722753 120.821793 
L 241.844568 124.725535 
L 241.137738 128.702734 
L 240.60511 132.737375 
L 240.248829 136.813212 
L 240.070329 140.913834 
L 240.070329 145.022728 
L 240.248829 149.12335 
L 240.60511 153.199188 
L 241.137738 157.233829 
L 241.844568 161.211028 
L 242.722753 165.11477 
L 243.768758 168.929335 
L 244.97837 172.639365 
L 246.34672 176.22992 
L 247.868296 179.686542 
L 249.536973 182.995312 
L 251.346031 186.142908 
L 253.288186 189.116654 
L 255.355617 191.904578 
L 257.539999 194.495452 
L 259.832537 196.878844 
L 262.224 199.045158 
L 264.704758 200.98567 
L 267.264821 202.692567 
L 269.893882 204.158974 
L 272.581353 205.378989 
L 275.316415 206.347697 
L 278.088052 207.061199 
L 280.885106 207.516622 
L 283.696313 207.712131 
L 286.510353 207.646939 
L 289.315896 207.32131 
L 292.101644 206.736553 
L 294.85638 205.895024 
L 297.569012 204.800111 
L 300.228618 203.456223 
L 302.824487 201.868772 
L 305.346167 200.044149 
L 307.783504 197.989702 
L 310.126684 195.713703 
L 312.366272 193.225317 
L 314.493249 190.534564 
L 316.499052 187.652277 
L 318.375603 184.590065 
L 320.115346 181.360255 
L 321.711277 177.975855 
L 323.156968 174.450492 
L 324.446598 170.798361 
L 325.574975 167.034169 
L 326.537554 163.173071 
L 327.330461 159.230616 
L 327.950502 155.222678 
L 328.39518 151.165396 
L 328.662705 147.075107 
L 328.752 142.968281 
" clip-path="url(#paf211168ba)" style="fill: none; stroke: #2ca02c; stroke-width: 3; stroke-linecap: square"/>
   </g>
   <g id="line2d_3">
    <path d="M 118.08 223.908281 
L 121.44 220.056193 
L 124.8 216.207983 
L 128.16 212.367527 
L 131.52 208.538691 
L 134.88 204.725332 
L 138.24 200.931288 
L 141.6 197.160379 
L 144.96 193.416404 
L 148.32 189.703132 
L 151.68 186.024301 
L 155.04 182.383616 
L 158.4 178.784743 
L 161.76 175.231305 
L 165.12 171.726881 
L 168.48 168.274999 
L 171.84 164.879136 
L 175.2 161.542709 
L 178.56 158.26908 
L 181.92 155.061543 
L 185.28 151.92333 
L 188.64 148.857599 
L 192 145.867438 
L 195.36 142.955857 
L 198.72 140.125788 
L 202.08 137.380082 
L 205.44 134.721502 
L 208.8 132.152725 
L 212.16 129.676339 
L 215.52 127.294836 
L 218.88 125.010615 
L 222.24 122.825975 
L 225.6 120.743117 
L 228.96 118.764137 
L 232.32 116.891028 
L 235.68 115.125677 
L 239.04 113.469861 
L 242.4 111.925246 
L 245.76 110.49339 
L 249.12 109.175732 
L 252.48 107.9736 
L 255.84 106.888205 
L 259.2 105.920639 
L 262.56 105.071876 
L 265.92 104.342772 
L 269.28 103.73406 
L 272.64 103.246353 
L 276 102.880143 
L 279.36 102.635798 
L 282.72 102.513563 
L 286.08 102.513563 
L 289.44 102.635798 
L 292.8 102.880143 
L 296.16 103.246353 
L 299.52 103.73406 
L 302.88 104.342772 
L 306.24 105.071876 
L 309.6 105.920639 
L 312.96 106.888205 
L 316.32 107.9736 
L 319.68 109.175732 
L 323.04 110.49339 
L 326.4 111.925246 
L 329.76 113.469861 
L 333.12 115.125677 
L 336.48 116.891028 
L 339.84 118.764137 
L 343.2 120.743117 
L 346.56 122.825975 
L 349.92 125.010615 
L 353.28 127.294836 
L 356.64 129.676339 
L 360 132.152725 
L 363.36 134.721502 
L 366.72 137.380082 
L 370.08 140.125788 
L 373.44 142.955857 
L 376.8 145.867438 
L 380.16 148.857599 
L 383.52 151.92333 
L 386.88 155.061543 
L 390.24 158.26908 
L 393.6 161.542709 
L 396.96 164.879136 
L 400.32 168.274999 
L 403.68 171.726881 
L 407.04 175.231305 
L 410.4 178.784743 
L 413.76 182.383616 
L 417.12 186.024301 
L 420.48 189.703132 
L 423.84 193.416404 
L 427.2 197.160379 
L 430.56 200.931288 
L 433.92 204.725332 
L 437.28 208.538691 
L 440.64 212.367527 
L 444 216.207983 
L 447.36 220.056193 
L 450.72 223.908281 
" clip-path="url(#paf211168ba)" style="fill: none; stroke-dasharray: 7.4,3.2; stroke-dashoffset: 0; stroke: #1f77b4; stroke-opacity: 0.7; stroke-width: 2"/>
   </g>
   <g id="text_1">
    <!-- Cohesin -->
    <g transform="translate(264.325781 145.451719) scale(0.09 -0.09)">
     <defs>
      <path id="DejaVuSans-Bold-43" d="M 4288 256 
Q 3956 84 3597 -3 
Q 3238 -91 2847 -91 
Q 1681 -91 1000 561 
Q 319 1213 319 2328 
Q 319 3447 1000 4098 
Q 1681 4750 2847 4750 
Q 3238 4750 3597 4662 
Q 3956 4575 4288 4403 
L 4288 3438 
Q 3953 3666 3628 3772 
Q 3303 3878 2944 3878 
Q 2300 3878 1931 3465 
Q 1563 3053 1563 2328 
Q 1563 1606 1931 1193 
Q 2300 781 2944 781 
Q 3303 781 3628 887 
Q 3953 994 4288 1222 
L 4288 256 
z
" transform="scale(0.015625)"/>
      <path id="DejaVuSans-Bold-6f" d="M 2203 2784 
Q 1831 2784 1636 2517 
Q 1441 2250 1441 1747 
Q 1441 1244 1636 976 
Q 1831 709 2203 709 
Q 2569 709 2762 976 
Q 2956 1244 2956 1747 
Q 2956 2250 2762 2517 
Q 2569 2784 2203 2784 
z
M 2203 3584 
Q 3106 3584 3614 3096 
Q 4122 2609 4122 1747 
Q 4122 884 3614 396 
Q 3106 -91 2203 -91 
Q 1297 -91 786 396 
Q 275 884 275 1747 
Q 275 2609 786 3096 
Q 1297 3584 2203 3584 
z
" transform="scale(0.015625)"/>
      <path id="DejaVuSans-Bold-68" d="M 4056 2131 
L 4056 0 
L 2931 0 
L 2931 347 
L 2931 1625 
Q 2931 2084 2911 2256 
Q 2891 2428 2841 2509 
Q 2775 2619 2662 2680 
Q 2550 2741 2406 2741 
Q 2056 2741 1856 2470 
Q 1656 2200 1656 1722 
L 1656 0 
L 538 0 
L 538 4863 
L 1656 4863 
L 1656 2988 
Q 1909 3294 2193 3439 
Q 2478 3584 2822 3584 
Q 3428 3584 3742 3212 
Q 4056 2841 4056 2131 
z
" transform="scale(0.015625)"/>
      <path id="DejaVuSans-Bold-65" d="M 4031 1759 
L 4031 1441 
L 1416 1441 
Q 1456 1047 1700 850 
Q 1944 653 2381 653 
Q 2734 653 3104 758 
Q 3475 863 3866 1075 
L 3866 213 
Q 3469 63 3072 -14 
Q 2675 -91 2278 -91 
Q 1328 -91 801 392 
Q 275 875 275 1747 
Q 275 2603 792 3093 
Q 1309 3584 2216 3584 
Q 3041 3584 3536 3087 
Q 4031 2591 4031 1759 
z
M 2881 2131 
Q 2881 2450 2695 2645 
Q 2509 2841 2209 2841 
Q 1884 2841 1681 2658 
Q 1478 2475 1428 2131 
L 2881 2131 
z
" transform="scale(0.015625)"/>
      <path id="DejaVuSans-Bold-73" d="M 3272 3391 
L 3272 2541 
Q 2913 2691 2578 2766 
Q 2244 2841 1947 2841 
Q 1628 2841 1473 2761 
Q 1319 2681 1319 2516 
Q 1319 2381 1436 2309 
Q 1553 2238 1856 2203 
L 2053 2175 
Q 2913 2066 3209 1816 
Q 3506 1566 3506 1031 
Q 3506 472 3093 190 
Q 2681 -91 1863 -91 
Q 1516 -91 1145 -36 
Q 775 19 384 128 
L 384 978 
Q 719 816 1070 734 
Q 1422 653 1784 653 
Q 2113 653 2278 743 
Q 2444 834 2444 1013 
Q 2444 1163 2330 1236 
Q 2216 1309 1875 1350 
L 1678 1375 
Q 931 1469 631 1722 
Q 331 1975 331 2491 
Q 331 3047 712 3315 
Q 1094 3584 1881 3584 
Q 2191 3584 2531 3537 
Q 2872 3491 3272 3391 
z
" transform="scale(0.015625)"/>
      <path id="DejaVuSans-Bold-69" d="M 538 3500 
L 1656 3500 
L 1656 0 
L 538 0 
L 538 3500 
z
M 538 4863 
L 1656 4863 
L 1656 3950 
L 538 3950 
L 538 4863 
z
" transform="scale(0.015625)"/>
      <path id="DejaVuSans-Bold-6e" d="M 4056 2131 
L 4056 0 
L 2931 0 
L 2931 347 
L 2931 1631 
Q 2931 2084 2911 2256 
Q 2891 2428 2841 2509 
Q 2775 2619 2662 2680 
Q 2550 2741 2406 2741 
Q 2056 2741 1856 2470 
Q 1656 2200 1656 1722 
L 1656 0 
L 538 0 
L 538 3500 
L 1656 3500 
L 1656 2988 
Q 1909 3294 2193 3439 
Q 2478 3584 2822 3584 
Q 3428 3584 3742 3212 
Q 4056 2841 4056 2131 
z
" transform="scale(0.015625)"/>
     </defs>
     <use xlink:href="#DejaVuSans-Bold-43"/>
     <use xlink:href="#DejaVuSans-Bold-6f" transform="translate(73.388672 0)"/>
     <use xlink:href="#DejaVuSans-Bold-68" transform="translate(142.089844 0)"/>
     <use xlink:href="#DejaVuSans-Bold-65" transform="translate(213.28125 0)"/>
     <use xlink:href="#DejaVuSans-Bold-73" transform="translate(281.103516 0)"/>
     <use xlink:href="#DejaVuSans-Bold-69" transform="translate(340.625 0)"/>
     <use xlink:href="#DejaVuSans-Bold-6e" transform="translate(374.902344 0)"/>
    </g>
   </g>
   <g id="text_2">
    <!-- CTCF -->
    <g style="fill: #d62728" transform="translate(106.723125 280.566281) scale(0.09 -0.09)">
     <defs>
      <path id="DejaVuSans-43" d="M 4122 4306 
L 4122 3641 
Q 3803 3938 3442 4084 
Q 3081 4231 2675 4231 
Q 1875 4231 1450 3742 
Q 1025 3253 1025 2328 
Q 1025 1406 1450 917 
Q 1875 428 2675 428 
Q 3081 428 3442 575 
Q 3803 722 4122 1019 
L 4122 359 
Q 3791 134 3420 21 
Q 3050 -91 2638 -91 
Q 1578 -91 968 557 
Q 359 1206 359 2328 
Q 359 3453 968 4101 
Q 1578 4750 2638 4750 
Q 3056 4750 3426 4639 
Q 3797 4528 4122 4306 
z
" transform="scale(0.015625)"/>
      <path id="DejaVuSans-54" d="M -19 4666 
L 3928 4666 
L 3928 4134 
L 2272 4134 
L 2272 0 
L 1638 0 
L 1638 4134 
L -19 4134 
L -19 4666 
z
" transform="scale(0.015625)"/>
      <path id="DejaVuSans-46" d="M 628 4666 
L 3309 4666 
L 3309 4134 
L 1259 4134 
L 1259 2759 
L 3109 2759 
L 3109 2228 
L 1259 2228 
L 1259 0 
L 628 0 
L 628 4666 
z
" transform="scale(0.015625)"/>
     </defs>
     <use xlink:href="#DejaVuSans-43"/>
     <use xlink:href="#DejaVuSans-54" transform="translate(69.824219 0)"/>
     <use xlink:href="#DejaVuSans-43" transform="translate(125.033203 0)"/>
     <use xlink:href="#DejaVuSans-46" transform="translate(194.857422 0)"/>
    </g>
   </g>
   <g id="text_3">
    <!-- CTCF -->
    <g style="fill: #d62728" transform="translate(439.363125 280.566281) scale(0.09 -0.09)">
     <use xlink:href="#DejaVuSans-43"/>
     <use xlink:href="#DejaVuSans-54" transform="translate(69.824219 0)"/>
     <use xlink:href="#DejaVuSans-43" transform="translate(125.033203 0)"/>
     <use xlink:href="#DejaVuSans-46" transform="translate(194.857422 0)"/>
    </g>
   </g>
   <g id="text_4">
    <!-- A. Loop Extrusion Mechanism -->
    <g transform="translate(7.2 15.558281) scale(0.11 -0.11)">
     <defs>
      <path id="DejaVuSans-Bold-41" d="M 3419 850 
L 1538 850 
L 1241 0 
L 31 0 
L 1759 4666 
L 3194 4666 
L 4922 0 
L 3713 0 
L 3419 850 
z
M 1838 1716 
L 3116 1716 
L 2478 3572 
L 1838 1716 
z
" transform="scale(0.015625)"/>
      <path id="DejaVuSans-Bold-2e" d="M 653 1209 
L 1778 1209 
L 1778 0 
L 653 0 
L 653 1209 
z
" transform="scale(0.015625)"/>
      <path id="DejaVuSans-Bold-20" transform="scale(0.015625)"/>
      <path id="DejaVuSans-Bold-4c" d="M 588 4666 
L 1791 4666 
L 1791 909 
L 3903 909 
L 3903 0 
L 588 0 
L 588 4666 
z
" transform="scale(0.015625)"/>
      <path id="DejaVuSans-Bold-70" d="M 1656 506 
L 1656 -1331 
L 538 -1331 
L 538 3500 
L 1656 3500 
L 1656 2988 
Q 1888 3294 2169 3439 
Q 2450 3584 2816 3584 
Q 3463 3584 3878 3070 
Q 4294 2556 4294 1747 
Q 4294 938 3878 423 
Q 3463 -91 2816 -91 
Q 2450 -91 2169 54 
Q 1888 200 1656 506 
z
M 2400 2772 
Q 2041 2772 1848 2508 
Q 1656 2244 1656 1747 
Q 1656 1250 1848 986 
Q 2041 722 2400 722 
Q 2759 722 2948 984 
Q 3138 1247 3138 1747 
Q 3138 2247 2948 2509 
Q 2759 2772 2400 2772 
z
" transform="scale(0.015625)"/>
      <path id="DejaVuSans-Bold-45" d="M 588 4666 
L 3834 4666 
L 3834 3756 
L 1791 3756 
L 1791 2888 
L 3713 2888 
L 3713 1978 
L 1791 1978 
L 1791 909 
L 3903 909 
L 3903 0 
L 588 0 
L 588 4666 
z
" transform="scale(0.015625)"/>
      <path id="DejaVuSans-Bold-78" d="M 1422 1791 
L 159 3500 
L 1344 3500 
L 2059 2463 
L 2784 3500 
L 3969 3500 
L 2706 1797 
L 4031 0 
L 2847 0 
L 2059 1106 
L 1281 0 
L 97 0 
L 1422 1791 
z
" transform="scale(0.015625)"/>
      <path id="DejaVuSans-Bold-74" d="M 1759 4494 
L 1759 3500 
L 2913 3500 
L 2913 2700 
L 1759 2700 
L 1759 1216 
Q 1759 972 1856 886 
Q 1953 800 2241 800 
L 2816 800 
L 2816 0 
L 1856 0 
Q 1194 0 917 276 
Q 641 553 641 1216 
L 641 2700 
L 84 2700 
L 84 3500 
L 641 3500 
L 641 4494 
L 1759 4494 
z
" transform="scale(0.015625)"/>
      <path id="DejaVuSans-Bold-72" d="M 3138 2547 
Q 2991 2616 2845 2648 
Q 2700 2681 2553 2681 
Q 2122 2681 1889 2404 
Q 1656 2128 1656 1613 
L 1656 0 
L 538 0 
L 538 3500 
L 1656 3500 
L 1656 2925 
Q 1872 3269 2151 3426 
Q 2431 3584 2822 3584 
Q 2878 3584 2943 3579 
Q 3009 3575 3134 3559 
L 3138 2547 
z
" transform="scale(0.015625)"/>
      <path id="DejaVuSans-Bold-75" d="M 500 1363 
L 500 3500 
L 1625 3500 
L 1625 3150 
Q 1625 2866 1622 2436 
Q 1619 2006 1619 1863 
Q 1619 1441 1641 1255 
Q 1663 1069 1716 984 
Q 1784 875 1895 815 
Q 2006 756 2150 756 
Q 2500 756 2700 1025 
Q 2900 1294 2900 1772 
L 2900 3500 
L 4019 3500 
L 4019 0 
L 2900 0 
L 2900 506 
Q 2647 200 2364 54 
Q 2081 -91 1741 -91 
Q 1134 -91 817 281 
Q 500 653 500 1363 
z
" transform="scale(0.015625)"/>
      <path id="DejaVuSans-Bold-4d" d="M 588 4666 
L 2119 4666 
L 3181 2169 
L 4250 4666 
L 5778 4666 
L 5778 0 
L 4641 0 
L 4641 3413 
L 3566 897 
L 2803 897 
L 1728 3413 
L 1728 0 
L 588 0 
L 588 4666 
z
" transform="scale(0.015625)"/>
      <path id="DejaVuSans-Bold-63" d="M 3366 3391 
L 3366 2478 
Q 3138 2634 2908 2709 
Q 2678 2784 2431 2784 
Q 1963 2784 1702 2511 
Q 1441 2238 1441 1747 
Q 1441 1256 1702 982 
Q 1963 709 2431 709 
Q 2694 709 2930 787 
Q 3166 866 3366 1019 
L 3366 103 
Q 3103 6 2833 -42 
Q 2563 -91 2291 -91 
Q 1344 -91 809 395 
Q 275 881 275 1747 
Q 275 2613 809 3098 
Q 1344 3584 2291 3584 
Q 2566 3584 2833 3536 
Q 3100 3488 3366 3391 
z
" transform="scale(0.015625)"/>
      <path id="DejaVuSans-Bold-61" d="M 2106 1575 
Q 1756 1575 1579 1456 
Q 1403 1338 1403 1106 
Q 1403 894 1545 773 
Q 1688 653 1941 653 
Q 2256 653 2472 879 
Q 2688 1106 2688 1447 
L 2688 1575 
L 2106 1575 
z
M 3816 1997 
L 3816 0 
L 2688 0 
L 2688 519 
Q 2463 200 2181 54 
Q 1900 -91 1497 -91 
Q 953 -91 614 226 
Q 275 544 275 1050 
Q 275 1666 698 1953 
Q 1122 2241 2028 2241 
L 2688 2241 
L 2688 2328 
Q 2688 2594 2478 2717 
Q 2269 2841 1825 2841 
Q 1466 2841 1156 2769 
Q 847 2697 581 2553 
L 581 3406 
Q 941 3494 1303 3539 
Q 1666 3584 2028 3584 
Q 2975 3584 3395 3211 
Q 3816 2838 3816 1997 
z
" transform="scale(0.015625)"/>
      <path id="DejaVuSans-Bold-6d" d="M 3781 2919 
Q 3994 3244 4286 3414 
Q 4578 3584 4928 3584 
Q 5531 3584 5847 3212 
Q 6163 2841 6163 2131 
L 6163 0 
L 5038 0 
L 5038 1825 
Q 5041 1866 5042 1909 
Q 5044 1953 5044 2034 
Q 5044 2406 4934 2573 
Q 4825 2741 4581 2741 
Q 4263 2741 4089 2478 
Q 3916 2216 3909 1719 
L 3909 0 
L 2784 0 
L 2784 1825 
Q 2784 2406 2684 2573 
Q 2584 2741 2328 2741 
Q 2006 2741 1831 2477 
Q 1656 2213 1656 1722 
L 1656 0 
L 531 0 
L 531 3500 
L 1656 3500 
L 1656 2988 
Q 1863 3284 2130 3434 
Q 2397 3584 2719 3584 
Q 3081 3584 3359 3409 
Q 3638 3234 3781 2919 
z
" transform="scale(0.015625)"/>
     </defs>
     <use xlink:href="#DejaVuSans-Bold-41"/>
     <use xlink:href="#DejaVuSans-Bold-2e" transform="translate(79.267578 0)"/>
     <use xlink:href="#DejaVuSans-Bold-20" transform="translate(117.255859 0)"/>
     <use xlink:href="#DejaVuSans-Bold-4c" transform="translate(152.070312 0)"/>
     <use xlink:href="#DejaVuSans-Bold-6f" transform="translate(215.791016 0)"/>
     <use xlink:href="#DejaVuSans-Bold-6f" transform="translate(284.492188 0)"/>
     <use xlink:href="#DejaVuSans-Bold-70" transform="translate(353.193359 0)"/>
     <use xlink:href="#DejaVuSans-Bold-20" transform="translate(424.775391 0)"/>
     <use xlink:href="#DejaVuSans-Bold-45" transform="translate(459.589844 0)"/>
     <use xlink:href="#DejaVuSans-Bold-78" transform="translate(527.900391 0)"/>
     <use xlink:href="#DejaVuSans-Bold-74" transform="translate(592.402344 0)"/>
     <use xlink:href="#DejaVuSans-Bold-72" transform="translate(640.205078 0)"/>
     <use xlink:href="#DejaVuSans-Bold-75" transform="translate(689.521484 0)"/>
     <use xlink:href="#DejaVuSans-Bold-73" transform="translate(760.712891 0)"/>
     <use xlink:href="#DejaVuSans-Bold-69" transform="translate(820.234375 0)"/>
     <use xlink:href="#DejaVuSans-Bold-6f" transform="translate(854.511719 0)"/>
     <use xlink:href="#DejaVuSans-Bold-6e" transform="translate(923.212891 0)"/>
     <use xlink:href="#DejaVuSans-Bold-20" transform="translate(994.404297 0)"/>
     <use xlink:href="#DejaVuSans-Bold-4d" transform="translate(1029.21875 0)"/>
     <use xlink:href="#DejaVuSans-Bold-65" transform="translate(1128.730469 0)"/>
     <use xlink:href="#DejaVuSans-Bold-63" transform="translate(1196.552734 0)"/>
     <use xlink:href="#DejaVuSans-Bold-68" transform="translate(1255.830078 0)"/>
     <use xlink:href="#DejaVuSans-Bold-61" transform="translate(1327.021484 0)"/>
     <use xlink:href="#DejaVuSans-Bold-6e" transform="translate(1394.501953 0)"/>
     <use xlink:href="#DejaVuSans-Bold-69" transform="translate(1465.693359 0)"/>
     <use xlink:href="#DejaVuSans-Bold-73" transform="translate(1499.970703 0)"/>
     <use xlink:href="#DejaVuSans-Bold-6d" transform="translate(1559.492188 0)"/>
    </g>
   </g>
   <g id="PathCollection_1">
    <defs>
     <path id="me94b71d305" d="M 7.071068 0 
L -7.071068 -7.071068 
L -7.071068 7.071068 
z
" style="stroke: #d62728"/>
    </defs>
    <g clip-path="url(#paf211168ba)">
     <use xlink:href="#me94b71d305" x="118.08" y="223.908281" style="fill: #d62728; stroke: #d62728"/>
    </g>
   </g>
   <g id="PathCollection_2">
    <defs>
     <path id="m6bb0fd7d35" d="M -7.071068 -0 
L 7.071068 7.071068 
L 7.071068 -7.071068 
z
" style="stroke: #d62728"/>
    </defs>
    <g clip-path="url(#paf211168ba)">
     <use xlink:href="#m6bb0fd7d35" x="450.72" y="223.908281" style="fill: #d62728; stroke: #d62728"/>
    </g>
   </g>
  </g>
 </g>
 <defs>
  <clipPath id="paf211168ba">
   <rect x="7.2" y="21.558281" width="554.4" height="323.76"/>
  </clipPath>
 </defs>
</svg>
