<?xml version="1.0" encoding="UTF-8" standalone="no"?>
<!DOCTYPE svg PUBLIC "-//W3C//DTD SVG 1.1//EN"
 "http://www.w3.org/Graphics/SVG/1.1/DTD/svg11.dtd">
<!-- Generated by graphviz version 2.43.0 (0)
 -->
<!-- Title: seq2struct Pages: 1 -->
<svg width="720pt" height="93pt"
 viewBox="0.00 0.00 720.00 93.33" xmlns="http://www.w3.org/2000/svg" xmlns:xlink="http://www.w3.org/1999/xlink">
<g id="graph0" class="graph" transform="scale(1.67 1.67) rotate(0) translate(4 52)">
<title>seq2struct</title>
<polygon fill="white" stroke="transparent" points="-4,4 -4,-52 428,-52 428,4 -4,4"/>
<!-- seq -->
<g id="node1" class="node">
<title>seq</title>
<path fill="#aec7e8" stroke="black" stroke-width="1.5" d="M47,-36C47,-36 12,-36 12,-36 6,-36 0,-30 0,-24 0,-24 0,-12 0,-12 0,-6 6,0 12,0 12,0 47,0 47,0 53,0 59,-6 59,-12 59,-12 59,-24 59,-24 59,-30 53,-36 47,-36"/>
<text text-anchor="middle" x="29.5" y="-20.8" font-family="Arial" font-size="9.00">DNA</text>
<text text-anchor="middle" x="29.5" y="-10.8" font-family="Arial" font-size="9.00">Sequence</text>
</g>
<!-- model -->
<g id="node2" class="node">
<title>model</title>
<path fill="#9467bd" stroke="black" stroke-width="1.5" d="M138,-36C138,-36 108,-36 108,-36 102,-36 96,-30 96,-24 96,-24 96,-12 96,-12 96,-6 102,0 108,0 108,0 138,0 138,0 144,0 150,-6 150,-12 150,-12 150,-24 150,-24 150,-30 144,-36 138,-36"/>
<text text-anchor="middle" x="123" y="-20.8" font-family="Arial" font-size="9.00" fill="white">Akita /</text>
<text text-anchor="middle" x="123" y="-10.8" font-family="Arial" font-size="9.00" fill="white">Orca</text>
</g>
<!-- seq&#45;&gt;model -->
<g id="edge1" class="edge">
<title>seq&#45;&gt;model</title>
<path fill="none" stroke="black" d="M59.45,-18C67.71,-18 76.83,-18 85.48,-18"/>
<polygon fill="black" stroke="black" points="85.72,-21.5 95.72,-18 85.72,-14.5 85.72,-21.5"/>
</g>
<!-- contact -->
<g id="node3" class="node">
<title>contact</title>
<path fill="#ffbb78" stroke="black" stroke-width="1.5" d="M231,-36C231,-36 199,-36 199,-36 193,-36 187,-30 187,-24 187,-24 187,-12 187,-12 187,-6 193,0 199,0 199,0 231,0 231,0 237,0 243,-6 243,-12 243,-12 243,-24 243,-24 243,-30 237,-36 231,-36"/>
<text text-anchor="middle" x="215" y="-20.8" font-family="Arial" font-size="9.00">Predicted</text>
<text text-anchor="middle" x="215" y="-10.8" font-family="Arial" font-size="9.00">Hi&#45;C Map</text>
</g>
<!-- model&#45;&gt;contact -->
<g id="edge2" class="edge">
<title>model&#45;&gt;contact</title>
<path fill="none" stroke="black" d="M150.03,-18C158.32,-18 167.65,-18 176.57,-18"/>
<polygon fill="black" stroke="black" points="176.77,-21.5 186.77,-18 176.77,-14.5 176.77,-21.5"/>
</g>
<!-- variant -->
<g id="node4" class="node">
<title>variant</title>
<path fill="#98df8a" stroke="black" stroke-width="1.5" d="M412,-36C412,-36 382,-36 382,-36 376,-36 370,-30 370,-24 370,-24 370,-12 370,-12 370,-6 376,0 382,0 382,0 412,0 412,0 418,0 424,-6 424,-12 424,-12 424,-24 424,-24 424,-30 418,-36 412,-36"/>
<text text-anchor="middle" x="397" y="-20.8" font-family="Arial" font-size="9.00">Variant</text>
<text text-anchor="middle" x="397" y="-10.8" font-family="Arial" font-size="9.00">Effect</text>
</g>
<!-- contact&#45;&gt;variant -->
<g id="edge3" class="edge">
<title>contact&#45;&gt;variant</title>
<path fill="none" stroke="black" d="M243.34,-18C274.44,-18 325.37,-18 359.77,-18"/>
<polygon fill="black" stroke="black" points="359.87,-21.5 369.87,-18 359.87,-14.5 359.87,-21.5"/>
<text text-anchor="middle" x="306.5" y="-36.8" font-family="Times,serif" font-size="14.00">In silico</text>
<text text-anchor="middle" x="306.5" y="-21.8" font-family="Times,serif" font-size="14.00">mutagenesis</text>
</g>
</g>
</svg>
