<?xml version="1.0" encoding="utf-8" standalone="no"?>
<!DOCTYPE svg PUBLIC "-//W3C//DTD SVG 1.1//EN"
  "http://www.w3.org/Graphics/SVG/1.1/DTD/svg11.dtd">
<svg xmlns:xlink="http://www.w3.org/1999/xlink" width="568.8pt" height="424.518281pt" viewBox="0 0 568.8 424.518281" xmlns="http://www.w3.org/2000/svg" version="1.1">
 <metadata>
  <rdf:RDF xmlns:dc="http://purl.org/dc/elements/1.1/" xmlns:cc="http://creativecommons.org/ns#" xmlns:rdf="http://www.w3.org/1999/02/22-rdf-syntax-ns#">
   <cc:Work>
    <dc:type rdf:resource="http://purl.org/dc/dcmitype/StillImage"/>
    <dc:date>2026-01-08T06:35:36.776543</dc:date>
    <dc:format>image/svg+xml</dc:format>
    <dc:creator>
     <cc:Agent>
      <dc:title>Matplotlib v3.10.7, https://matplotlib.org/</dc:title>
     </cc:Agent>
    </dc:creator>
   </cc:Work>
  </rdf:RDF>
 </metadata>
 <defs>
  <style type="text/css">*{stroke-linejoin: round; stroke-linecap: butt}</style>
 </defs>
 <g id="figure_1">
  <g id="patch_1">
   <path d="M 0 424.518281 
L 568.8 424.518281 
L 568.8 0 
L 0 0 
z
" style="fill: #ffffff"/>
  </g>
  <g id="axes_1">
   <g id="patch_2">
    <path d="M 34.92 104.667881 
L 533.88 104.667881 
Q 539.424 104.667881 539.424 100.710281 
L 539.424 69.049481 
Q 539.424 65.091881 533.88 65.091881 
L 34.92 65.091881 
Q 29.376 65.091881 29.376 69.049481 
L 29.376 100.710281 
Q 29.376 104.667881 34.92 104.667881 
z
" clip-path="url(#p29482ed564)" style="fill: #aec7e8; stroke: #ffffff; stroke-width: 2; stroke-linejoin: miter"/>
   </g>
   <g id="patch_3">
    <path d="M 98.19211 164.031881 
L 470.60789 164.031881 
Q 476.15189 164.031881 476.15189 160.074281 
L 476.15189 128.413481 
Q 476.15189 124.455881 470.60789 124.455881 
L 98.19211 124.455881 
Q 92.64811 124.455881 92.64811 128.413481 
L 92.64811 160.074281 
Q 92.64811 164.031881 98.19211 164.031881 
z
" clip-path="url(#p29482ed564)" style="fill: #98df8a; stroke: #ffffff; stroke-width: 2; stroke-linejoin: miter"/>
   </g>
   <g id="patch_4">
    <path d="M 146.641406 223.395881 
L 422.158594 223.395881 
Q 427.702594 223.395881 427.702594 219.438281 
L 427.702594 187.777481 
Q 427.702594 183.819881 422.158594 183.819881 
L 146.641406 183.819881 
Q 141.097406 183.819881 141.097406 187.777481 
L 141.097406 219.438281 
Q 141.097406 223.395881 146.641406 223.395881 
z
" clip-path="url(#p29482ed564)" style="fill: #ffbb78; stroke: #ffffff; stroke-width: 2; stroke-linejoin: miter"/>
   </g>
   <g id="patch_5">
    <path d="M 183.85387 282.759881 
L 384.94613 282.759881 
Q 390.49013 282.759881 390.49013 278.802281 
L 390.49013 247.141481 
Q 390.49013 243.183881 384.94613 243.183881 
L 183.85387 243.183881 
Q 178.30987 243.183881 178.30987 247.141481 
L 178.30987 278.802281 
Q 178.30987 282.759881 183.85387 282.759881 
z
" clip-path="url(#p29482ed564)" style="fill: #ff7f0e; stroke: #ffffff; stroke-width: 2; stroke-linejoin: miter"/>
   </g>
   <g id="patch_6">
    <path d="M 220.807447 342.123881 
L 347.992553 342.123881 
Q 353.536553 342.123881 353.536553 338.166281 
L 353.536553 306.505481 
Q 353.536553 302.547881 347.992553 302.547881 
L 220.807447 302.547881 
Q 215.263447 302.547881 215.263447 306.505481 
L 215.263447 338.166281 
Q 215.263447 342.123881 220.807447 342.123881 
z
" clip-path="url(#p29482ed564)" style="fill: #d62728; stroke: #ffffff; stroke-width: 2; stroke-linejoin: miter"/>
   </g>
   <g id="patch_7">
    <path d="M 273.189178 401.487881 
L 295.610822 401.487881 
Q 301.154822 401.487881 301.154822 397.530281 
L 301.154822 365.869481 
Q 301.154822 361.911881 295.610822 361.911881 
L 273.189178 361.911881 
Q 267.645178 361.911881 267.645178 365.869481 
L 267.645178 397.530281 
Q 267.645178 401.487881 273.189178 401.487881 
z
" clip-path="url(#p29482ed564)" style="fill: #9467bd; stroke: #ffffff; stroke-width: 2; stroke-linejoin: miter"/>
   </g>
   <g id="text_1">
    <!-- All Variants -->
    <g transform="translate(255.162656 78.366703) scale(0.09 -0.09)">
     <defs>
      <path id="DejaVuSans-Bold-41" d="M 3419 850 
L 1538 850 
L 1241 0 
L 31 0 
L 1759 4666 
L 3194 4666 
L 4922 0 
L 3713 0 
L 3419 850 
z
M 1838 1716 
L 3116 1716 
L 2478 3572 
L 1838 1716 
z
" transform="scale(0.015625)"/>
      <path id="DejaVuSans-Bold-6c" d="M 538 4863 
L 1656 4863 
L 1656 0 
L 538 0 
L 538 4863 
z
" transform="scale(0.015625)"/>
      <path id="DejaVuSans-Bold-20" transform="scale(0.015625)"/>
      <path id="DejaVuSans-Bold-56" d="M 31 4666 
L 1241 4666 
L 2478 1222 
L 3713 4666 
L 4922 4666 
L 3194 0 
L 1759 0 
L 31 4666 
z
" transform="scale(0.015625)"/>
      <path id="DejaVuSans-Bold-61" d="M 2106 1575 
Q 1756 1575 1579 1456 
Q 1403 1338 1403 1106 
Q 1403 894 1545 773 
Q 1688 653 1941 653 
Q 2256 653 2472 879 
Q 2688 1106 2688 1447 
L 2688 1575 
L 2106 1575 
z
M 3816 1997 
L 3816 0 
L 2688 0 
L 2688 519 
Q 2463 200 2181 54 
Q 1900 -91 1497 -91 
Q 953 -91 614 226 
Q 275 544 275 1050 
Q 275 1666 698 1953 
Q 1122 2241 2028 2241 
L 2688 2241 
L 2688 2328 
Q 2688 2594 2478 2717 
Q 2269 2841 1825 2841 
Q 1466 2841 1156 2769 
Q 847 2697 581 2553 
L 581 3406 
Q 941 3494 1303 3539 
Q 1666 3584 2028 3584 
Q 2975 3584 3395 3211 
Q 3816 2838 3816 1997 
z
" transform="scale(0.015625)"/>
      <path id="DejaVuSans-Bold-72" d="M 3138 2547 
Q 2991 2616 2845 2648 
Q 2700 2681 2553 2681 
Q 2122 2681 1889 2404 
Q 1656 2128 1656 1613 
L 1656 0 
L 538 0 
L 538 3500 
L 1656 3500 
L 1656 2925 
Q 1872 3269 2151 3426 
Q 2431 3584 2822 3584 
Q 2878 3584 2943 3579 
Q 3009 3575 3134 3559 
L 3138 2547 
z
" transform="scale(0.015625)"/>
      <path id="DejaVuSans-Bold-69" d="M 538 3500 
L 1656 3500 
L 1656 0 
L 538 0 
L 538 3500 
z
M 538 4863 
L 1656 4863 
L 1656 3950 
L 538 3950 
L 538 4863 
z
" transform="scale(0.015625)"/>
      <path id="DejaVuSans-Bold-6e" d="M 4056 2131 
L 4056 0 
L 2931 0 
L 2931 347 
L 2931 1631 
Q 2931 2084 2911 2256 
Q 2891 2428 2841 2509 
Q 2775 2619 2662 2680 
Q 2550 2741 2406 2741 
Q 2056 2741 1856 2470 
Q 1656 2200 1656 1722 
L 1656 0 
L 538 0 
L 538 3500 
L 1656 3500 
L 1656 2988 
Q 1909 3294 2193 3439 
Q 2478 3584 2822 3584 
Q 3428 3584 3742 3212 
Q 4056 2841 4056 2131 
z
" transform="scale(0.015625)"/>
      <path id="DejaVuSans-Bold-74" d="M 1759 4494 
L 1759 3500 
L 2913 3500 
L 2913 2700 
L 1759 2700 
L 1759 1216 
Q 1759 972 1856 886 
Q 1953 800 2241 800 
L 2816 800 
L 2816 0 
L 1856 0 
Q 1194 0 917 276 
Q 641 553 641 1216 
L 641 2700 
L 84 2700 
L 84 3500 
L 641 3500 
L 641 4494 
L 1759 4494 
z
" transform="scale(0.015625)"/>
      <path id="DejaVuSans-Bold-73" d="M 3272 3391 
L 3272 2541 
Q 2913 2691 2578 2766 
Q 2244 2841 1947 2841 
Q 1628 2841 1473 2761 
Q 1319 2681 1319 2516 
Q 1319 2381 1436 2309 
Q 1553 2238 1856 2203 
L 2053 2175 
Q 2913 2066 3209 1816 
Q 3506 1566 3506 1031 
Q 3506 472 3093 190 
Q 2681 -91 1863 -91 
Q 1516 -91 1145 -36 
Q 775 19 384 128 
L 384 978 
Q 719 816 1070 734 
Q 1422 653 1784 653 
Q 2113 653 2278 743 
Q 2444 834 2444 1013 
Q 2444 1163 2330 1236 
Q 2216 1309 1875 1350 
L 1678 1375 
Q 931 1469 631 1722 
Q 331 1975 331 2491 
Q 331 3047 712 3315 
Q 1094 3584 1881 3584 
Q 2191 3584 2531 3537 
Q 2872 3491 3272 3391 
z
" transform="scale(0.015625)"/>
     </defs>
     <use xlink:href="#DejaVuSans-Bold-41"/>
     <use xlink:href="#DejaVuSans-Bold-6c" transform="translate(77.392578 0)"/>
     <use xlink:href="#DejaVuSans-Bold-6c" transform="translate(111.669922 0)"/>
     <use xlink:href="#DejaVuSans-Bold-20" transform="translate(145.947266 0)"/>
     <use xlink:href="#DejaVuSans-Bold-56" transform="translate(180.761719 0)"/>
     <use xlink:href="#DejaVuSans-Bold-61" transform="translate(252.654297 0)"/>
     <use xlink:href="#DejaVuSans-Bold-72" transform="translate(320.134766 0)"/>
     <use xlink:href="#DejaVuSans-Bold-69" transform="translate(369.451172 0)"/>
     <use xlink:href="#DejaVuSans-Bold-61" transform="translate(403.728516 0)"/>
     <use xlink:href="#DejaVuSans-Bold-6e" transform="translate(471.208984 0)"/>
     <use xlink:href="#DejaVuSans-Bold-74" transform="translate(542.400391 0)"/>
     <use xlink:href="#DejaVuSans-Bold-73" transform="translate(590.203125 0)"/>
    </g>
    <!-- (5,000,000) -->
    <g transform="translate(254.951016 88.444734) scale(0.09 -0.09)">
     <defs>
      <path id="DejaVuSans-Bold-28" d="M 2413 -844 
L 1484 -844 
Q 1006 -72 778 623 
Q 550 1319 550 2003 
Q 550 2688 779 3389 
Q 1009 4091 1484 4856 
L 2413 4856 
Q 2013 4116 1813 3408 
Q 1613 2700 1613 2009 
Q 1613 1319 1811 609 
Q 2009 -100 2413 -844 
z
" transform="scale(0.015625)"/>
      <path id="DejaVuSans-Bold-35" d="M 678 4666 
L 3669 4666 
L 3669 3781 
L 1638 3781 
L 1638 3059 
Q 1775 3097 1914 3117 
Q 2053 3138 2203 3138 
Q 3056 3138 3531 2711 
Q 4006 2284 4006 1522 
Q 4006 766 3489 337 
Q 2972 -91 2053 -91 
Q 1656 -91 1267 -14 
Q 878 63 494 219 
L 494 1166 
Q 875 947 1217 837 
Q 1559 728 1863 728 
Q 2300 728 2551 942 
Q 2803 1156 2803 1522 
Q 2803 1891 2551 2103 
Q 2300 2316 1863 2316 
Q 1603 2316 1309 2248 
Q 1016 2181 678 2041 
L 678 4666 
z
" transform="scale(0.015625)"/>
      <path id="DejaVuSans-Bold-2c" d="M 653 1209 
L 1778 1209 
L 1778 256 
L 1006 -909 
L 341 -909 
L 653 256 
L 653 1209 
z
" transform="scale(0.015625)"/>
      <path id="DejaVuSans-Bold-30" d="M 2944 2338 
Q 2944 3213 2780 3570 
Q 2616 3928 2228 3928 
Q 1841 3928 1675 3570 
Q 1509 3213 1509 2338 
Q 1509 1453 1675 1090 
Q 1841 728 2228 728 
Q 2613 728 2778 1090 
Q 2944 1453 2944 2338 
z
M 4147 2328 
Q 4147 1169 3647 539 
Q 3147 -91 2228 -91 
Q 1306 -91 806 539 
Q 306 1169 306 2328 
Q 306 3491 806 4120 
Q 1306 4750 2228 4750 
Q 3147 4750 3647 4120 
Q 4147 3491 4147 2328 
z
" transform="scale(0.015625)"/>
      <path id="DejaVuSans-Bold-29" d="M 513 -844 
Q 913 -100 1113 609 
Q 1313 1319 1313 2009 
Q 1313 2700 1113 3408 
Q 913 4116 513 4856 
L 1441 4856 
Q 1916 4091 2145 3389 
Q 2375 2688 2375 2003 
Q 2375 1319 2147 623 
Q 1919 -72 1441 -844 
L 513 -844 
z
" transform="scale(0.015625)"/>
     </defs>
     <use xlink:href="#DejaVuSans-Bold-28"/>
     <use xlink:href="#DejaVuSans-Bold-35" transform="translate(45.703125 0)"/>
     <use xlink:href="#DejaVuSans-Bold-2c" transform="translate(115.283203 0)"/>
     <use xlink:href="#DejaVuSans-Bold-30" transform="translate(153.271484 0)"/>
     <use xlink:href="#DejaVuSans-Bold-30" transform="translate(222.851562 0)"/>
     <use xlink:href="#DejaVuSans-Bold-30" transform="translate(292.431641 0)"/>
     <use xlink:href="#DejaVuSans-Bold-2c" transform="translate(362.011719 0)"/>
     <use xlink:href="#DejaVuSans-Bold-30" transform="translate(400 0)"/>
     <use xlink:href="#DejaVuSans-Bold-30" transform="translate(469.580078 0)"/>
     <use xlink:href="#DejaVuSans-Bold-30" transform="translate(539.160156 0)"/>
     <use xlink:href="#DejaVuSans-Bold-29" transform="translate(608.740234 0)"/>
    </g>
   </g>
   <g id="text_2">
    <!-- Rare (AF &lt; 1%) -->
    <g transform="translate(245.84625 137.730703) scale(0.09 -0.09)">
     <defs>
      <path id="DejaVuSans-Bold-52" d="M 2297 2597 
Q 2675 2597 2839 2737 
Q 3003 2878 3003 3200 
Q 3003 3519 2839 3656 
Q 2675 3794 2297 3794 
L 1791 3794 
L 1791 2597 
L 2297 2597 
z
M 1791 1766 
L 1791 0 
L 588 0 
L 588 4666 
L 2425 4666 
Q 3347 4666 3776 4356 
Q 4206 4047 4206 3378 
Q 4206 2916 3982 2619 
Q 3759 2322 3309 2181 
Q 3556 2125 3751 1926 
Q 3947 1728 4147 1325 
L 4800 0 
L 3519 0 
L 2950 1159 
Q 2778 1509 2601 1637 
Q 2425 1766 2131 1766 
L 1791 1766 
z
" transform="scale(0.015625)"/>
      <path id="DejaVuSans-Bold-65" d="M 4031 1759 
L 4031 1441 
L 1416 1441 
Q 1456 1047 1700 850 
Q 1944 653 2381 653 
Q 2734 653 3104 758 
Q 3475 863 3866 1075 
L 3866 213 
Q 3469 63 3072 -14 
Q 2675 -91 2278 -91 
Q 1328 -91 801 392 
Q 275 875 275 1747 
Q 275 2603 792 3093 
Q 1309 3584 2216 3584 
Q 3041 3584 3536 3087 
Q 4031 2591 4031 1759 
z
M 2881 2131 
Q 2881 2450 2695 2645 
Q 2509 2841 2209 2841 
Q 1884 2841 1681 2658 
Q 1478 2475 1428 2131 
L 2881 2131 
z
" transform="scale(0.015625)"/>
      <path id="DejaVuSans-Bold-46" d="M 588 4666 
L 3834 4666 
L 3834 3756 
L 1791 3756 
L 1791 2888 
L 3713 2888 
L 3713 1978 
L 1791 1978 
L 1791 0 
L 588 0 
L 588 4666 
z
" transform="scale(0.015625)"/>
      <path id="DejaVuSans-Bold-3c" d="M 4684 3041 
L 1672 2003 
L 4684 972 
L 4684 191 
L 678 1638 
L 678 2375 
L 4684 3822 
L 4684 3041 
z
" transform="scale(0.015625)"/>
      <path id="DejaVuSans-Bold-31" d="M 750 831 
L 1813 831 
L 1813 3847 
L 722 3622 
L 722 4441 
L 1806 4666 
L 2950 4666 
L 2950 831 
L 4013 831 
L 4013 0 
L 750 0 
L 750 831 
z
" transform="scale(0.015625)"/>
      <path id="DejaVuSans-Bold-25" d="M 4959 1925 
Q 4738 1925 4616 1733 
Q 4494 1541 4494 1184 
Q 4494 825 4614 633 
Q 4734 441 4959 441 
Q 5184 441 5303 633 
Q 5422 825 5422 1184 
Q 5422 1541 5301 1733 
Q 5181 1925 4959 1925 
z
M 4959 2450 
Q 5541 2450 5875 2112 
Q 6209 1775 6209 1184 
Q 6209 594 5875 251 
Q 5541 -91 4959 -91 
Q 4378 -91 4042 251 
Q 3706 594 3706 1184 
Q 3706 1772 4042 2111 
Q 4378 2450 4959 2450 
z
M 2094 -91 
L 1403 -91 
L 4319 4750 
L 5013 4750 
L 2094 -91 
z
M 1453 4750 
Q 2034 4750 2367 4411 
Q 2700 4072 2700 3481 
Q 2700 2891 2367 2550 
Q 2034 2209 1453 2209 
Q 872 2209 539 2550 
Q 206 2891 206 3481 
Q 206 4072 539 4411 
Q 872 4750 1453 4750 
z
M 1453 4225 
Q 1228 4225 1106 4031 
Q 984 3838 984 3481 
Q 984 3122 1106 2926 
Q 1228 2731 1453 2731 
Q 1678 2731 1798 2926 
Q 1919 3122 1919 3481 
Q 1919 3838 1797 4031 
Q 1675 4225 1453 4225 
z
" transform="scale(0.015625)"/>
     </defs>
     <use xlink:href="#DejaVuSans-Bold-52"/>
     <use xlink:href="#DejaVuSans-Bold-61" transform="translate(77.001953 0)"/>
     <use xlink:href="#DejaVuSans-Bold-72" transform="translate(144.482422 0)"/>
     <use xlink:href="#DejaVuSans-Bold-65" transform="translate(193.798828 0)"/>
     <use xlink:href="#DejaVuSans-Bold-20" transform="translate(261.621094 0)"/>
     <use xlink:href="#DejaVuSans-Bold-28" transform="translate(296.435547 0)"/>
     <use xlink:href="#DejaVuSans-Bold-41" transform="translate(342.138672 0)"/>
     <use xlink:href="#DejaVuSans-Bold-46" transform="translate(419.53125 0)"/>
     <use xlink:href="#DejaVuSans-Bold-20" transform="translate(487.841797 0)"/>
     <use xlink:href="#DejaVuSans-Bold-3c" transform="translate(522.65625 0)"/>
     <use xlink:href="#DejaVuSans-Bold-20" transform="translate(606.445312 0)"/>
     <use xlink:href="#DejaVuSans-Bold-31" transform="translate(641.259766 0)"/>
     <use xlink:href="#DejaVuSans-Bold-25" transform="translate(710.839844 0)"/>
     <use xlink:href="#DejaVuSans-Bold-29" transform="translate(811.035156 0)"/>
    </g>
    <!-- (100,000) -->
    <g transform="translate(259.791328 147.808734) scale(0.09 -0.09)">
     <use xlink:href="#DejaVuSans-Bold-28"/>
     <use xlink:href="#DejaVuSans-Bold-31" transform="translate(45.703125 0)"/>
     <use xlink:href="#DejaVuSans-Bold-30" transform="translate(115.283203 0)"/>
     <use xlink:href="#DejaVuSans-Bold-30" transform="translate(184.863281 0)"/>
     <use xlink:href="#DejaVuSans-Bold-2c" transform="translate(254.443359 0)"/>
     <use xlink:href="#DejaVuSans-Bold-30" transform="translate(292.431641 0)"/>
     <use xlink:href="#DejaVuSans-Bold-30" transform="translate(362.011719 0)"/>
     <use xlink:href="#DejaVuSans-Bold-30" transform="translate(431.591797 0)"/>
     <use xlink:href="#DejaVuSans-Bold-29" transform="translate(501.171875 0)"/>
    </g>
   </g>
   <g id="text_3">
    <!-- Coding/Splice -->
    <g transform="translate(249.906797 197.059547) scale(0.09 -0.09)">
     <defs>
      <path id="DejaVuSans-Bold-43" d="M 4288 256 
Q 3956 84 3597 -3 
Q 3238 -91 2847 -91 
Q 1681 -91 1000 561 
Q 319 1213 319 2328 
Q 319 3447 1000 4098 
Q 1681 4750 2847 4750 
Q 3238 4750 3597 4662 
Q 3956 4575 4288 4403 
L 4288 3438 
Q 3953 3666 3628 3772 
Q 3303 3878 2944 3878 
Q 2300 3878 1931 3465 
Q 1563 3053 1563 2328 
Q 1563 1606 1931 1193 
Q 2300 781 2944 781 
Q 3303 781 3628 887 
Q 3953 994 4288 1222 
L 4288 256 
z
" transform="scale(0.015625)"/>
      <path id="DejaVuSans-Bold-6f" d="M 2203 2784 
Q 1831 2784 1636 2517 
Q 1441 2250 1441 1747 
Q 1441 1244 1636 976 
Q 1831 709 2203 709 
Q 2569 709 2762 976 
Q 2956 1244 2956 1747 
Q 2956 2250 2762 2517 
Q 2569 2784 2203 2784 
z
M 2203 3584 
Q 3106 3584 3614 3096 
Q 4122 2609 4122 1747 
Q 4122 884 3614 396 
Q 3106 -91 2203 -91 
Q 1297 -91 786 396 
Q 275 884 275 1747 
Q 275 2609 786 3096 
Q 1297 3584 2203 3584 
z
" transform="scale(0.015625)"/>
      <path id="DejaVuSans-Bold-64" d="M 2919 2988 
L 2919 4863 
L 4044 4863 
L 4044 0 
L 2919 0 
L 2919 506 
Q 2688 197 2409 53 
Q 2131 -91 1766 -91 
Q 1119 -91 703 423 
Q 288 938 288 1747 
Q 288 2556 703 3070 
Q 1119 3584 1766 3584 
Q 2128 3584 2408 3439 
Q 2688 3294 2919 2988 
z
M 2181 722 
Q 2541 722 2730 984 
Q 2919 1247 2919 1747 
Q 2919 2247 2730 2509 
Q 2541 2772 2181 2772 
Q 1825 2772 1636 2509 
Q 1447 2247 1447 1747 
Q 1447 1247 1636 984 
Q 1825 722 2181 722 
z
" transform="scale(0.015625)"/>
      <path id="DejaVuSans-Bold-67" d="M 2919 594 
Q 2688 288 2409 144 
Q 2131 0 1766 0 
Q 1125 0 706 504 
Q 288 1009 288 1791 
Q 288 2575 706 3076 
Q 1125 3578 1766 3578 
Q 2131 3578 2409 3434 
Q 2688 3291 2919 2981 
L 2919 3500 
L 4044 3500 
L 4044 353 
Q 4044 -491 3511 -936 
Q 2978 -1381 1966 -1381 
Q 1638 -1381 1331 -1331 
Q 1025 -1281 716 -1178 
L 716 -306 
Q 1009 -475 1290 -558 
Q 1572 -641 1856 -641 
Q 2406 -641 2662 -400 
Q 2919 -159 2919 353 
L 2919 594 
z
M 2181 2772 
Q 1834 2772 1640 2515 
Q 1447 2259 1447 1791 
Q 1447 1309 1634 1061 
Q 1822 813 2181 813 
Q 2531 813 2725 1069 
Q 2919 1325 2919 1791 
Q 2919 2259 2725 2515 
Q 2531 2772 2181 2772 
z
" transform="scale(0.015625)"/>
      <path id="DejaVuSans-Bold-2f" d="M 1644 4666 
L 2338 4666 
L 691 -594 
L 0 -594 
L 1644 4666 
z
" transform="scale(0.015625)"/>
      <path id="DejaVuSans-Bold-53" d="M 3834 4519 
L 3834 3531 
Q 3450 3703 3084 3790 
Q 2719 3878 2394 3878 
Q 1963 3878 1756 3759 
Q 1550 3641 1550 3391 
Q 1550 3203 1689 3098 
Q 1828 2994 2194 2919 
L 2706 2816 
Q 3484 2659 3812 2340 
Q 4141 2022 4141 1434 
Q 4141 663 3683 286 
Q 3225 -91 2284 -91 
Q 1841 -91 1394 -6 
Q 947 78 500 244 
L 500 1259 
Q 947 1022 1364 901 
Q 1781 781 2169 781 
Q 2563 781 2772 912 
Q 2981 1044 2981 1288 
Q 2981 1506 2839 1625 
Q 2697 1744 2272 1838 
L 1806 1941 
Q 1106 2091 782 2419 
Q 459 2747 459 3303 
Q 459 4000 909 4375 
Q 1359 4750 2203 4750 
Q 2588 4750 2994 4692 
Q 3400 4634 3834 4519 
z
" transform="scale(0.015625)"/>
      <path id="DejaVuSans-Bold-70" d="M 1656 506 
L 1656 -1331 
L 538 -1331 
L 538 3500 
L 1656 3500 
L 1656 2988 
Q 1888 3294 2169 3439 
Q 2450 3584 2816 3584 
Q 3463 3584 3878 3070 
Q 4294 2556 4294 1747 
Q 4294 938 3878 423 
Q 3463 -91 2816 -91 
Q 2450 -91 2169 54 
Q 1888 200 1656 506 
z
M 2400 2772 
Q 2041 2772 1848 2508 
Q 1656 2244 1656 1747 
Q 1656 1250 1848 986 
Q 2041 722 2400 722 
Q 2759 722 2948 984 
Q 3138 1247 3138 1747 
Q 3138 2247 2948 2509 
Q 2759 2772 2400 2772 
z
" transform="scale(0.015625)"/>
      <path id="DejaVuSans-Bold-63" d="M 3366 3391 
L 3366 2478 
Q 3138 2634 2908 2709 
Q 2678 2784 2431 2784 
Q 1963 2784 1702 2511 
Q 1441 2238 1441 1747 
Q 1441 1256 1702 982 
Q 1963 709 2431 709 
Q 2694 709 2930 787 
Q 3166 866 3366 1019 
L 3366 103 
Q 3103 6 2833 -42 
Q 2563 -91 2291 -91 
Q 1344 -91 809 395 
Q 275 881 275 1747 
Q 275 2613 809 3098 
Q 1344 3584 2291 3584 
Q 2566 3584 2833 3536 
Q 3100 3488 3366 3391 
z
" transform="scale(0.015625)"/>
     </defs>
     <use xlink:href="#DejaVuSans-Bold-43"/>
     <use xlink:href="#DejaVuSans-Bold-6f" transform="translate(73.388672 0)"/>
     <use xlink:href="#DejaVuSans-Bold-64" transform="translate(142.089844 0)"/>
     <use xlink:href="#DejaVuSans-Bold-69" transform="translate(213.671875 0)"/>
     <use xlink:href="#DejaVuSans-Bold-6e" transform="translate(247.949219 0)"/>
     <use xlink:href="#DejaVuSans-Bold-67" transform="translate(319.140625 0)"/>
     <use xlink:href="#DejaVuSans-Bold-2f" transform="translate(390.722656 0)"/>
     <use xlink:href="#DejaVuSans-Bold-53" transform="translate(427.246094 0)"/>
     <use xlink:href="#DejaVuSans-Bold-70" transform="translate(499.267578 0)"/>
     <use xlink:href="#DejaVuSans-Bold-6c" transform="translate(570.849609 0)"/>
     <use xlink:href="#DejaVuSans-Bold-69" transform="translate(605.126953 0)"/>
     <use xlink:href="#DejaVuSans-Bold-63" transform="translate(639.404297 0)"/>
     <use xlink:href="#DejaVuSans-Bold-65" transform="translate(698.681641 0)"/>
    </g>
    <!-- (5,000) -->
    <g transform="translate(266.053359 207.207891) scale(0.09 -0.09)">
     <use xlink:href="#DejaVuSans-Bold-28"/>
     <use xlink:href="#DejaVuSans-Bold-35" transform="translate(45.703125 0)"/>
     <use xlink:href="#DejaVuSans-Bold-2c" transform="translate(115.283203 0)"/>
     <use xlink:href="#DejaVuSans-Bold-30" transform="translate(153.271484 0)"/>
     <use xlink:href="#DejaVuSans-Bold-30" transform="translate(222.851562 0)"/>
     <use xlink:href="#DejaVuSans-Bold-30" transform="translate(292.431641 0)"/>
     <use xlink:href="#DejaVuSans-Bold-29" transform="translate(362.011719 0)"/>
    </g>
   </g>
   <g id="text_4">
    <!-- Predicted Damaging -->
    <g transform="translate(232.721719 256.423547) scale(0.09 -0.09)">
     <defs>
      <path id="DejaVuSans-Bold-50" d="M 588 4666 
L 2584 4666 
Q 3475 4666 3951 4270 
Q 4428 3875 4428 3144 
Q 4428 2409 3951 2014 
Q 3475 1619 2584 1619 
L 1791 1619 
L 1791 0 
L 588 0 
L 588 4666 
z
M 1791 3794 
L 1791 2491 
L 2456 2491 
Q 2806 2491 2997 2661 
Q 3188 2831 3188 3144 
Q 3188 3456 2997 3625 
Q 2806 3794 2456 3794 
L 1791 3794 
z
" transform="scale(0.015625)"/>
      <path id="DejaVuSans-Bold-44" d="M 1791 3756 
L 1791 909 
L 2222 909 
Q 2959 909 3348 1275 
Q 3738 1641 3738 2338 
Q 3738 3031 3350 3393 
Q 2963 3756 2222 3756 
L 1791 3756 
z
M 588 4666 
L 1856 4666 
Q 2919 4666 3439 4514 
Q 3959 4363 4331 4000 
Q 4659 3684 4818 3271 
Q 4978 2859 4978 2338 
Q 4978 1809 4818 1395 
Q 4659 981 4331 666 
Q 3956 303 3431 151 
Q 2906 0 1856 0 
L 588 0 
L 588 4666 
z
" transform="scale(0.015625)"/>
      <path id="DejaVuSans-Bold-6d" d="M 3781 2919 
Q 3994 3244 4286 3414 
Q 4578 3584 4928 3584 
Q 5531 3584 5847 3212 
Q 6163 2841 6163 2131 
L 6163 0 
L 5038 0 
L 5038 1825 
Q 5041 1866 5042 1909 
Q 5044 1953 5044 2034 
Q 5044 2406 4934 2573 
Q 4825 2741 4581 2741 
Q 4263 2741 4089 2478 
Q 3916 2216 3909 1719 
L 3909 0 
L 2784 0 
L 2784 1825 
Q 2784 2406 2684 2573 
Q 2584 2741 2328 2741 
Q 2006 2741 1831 2477 
Q 1656 2213 1656 1722 
L 1656 0 
L 531 0 
L 531 3500 
L 1656 3500 
L 1656 2988 
Q 1863 3284 2130 3434 
Q 2397 3584 2719 3584 
Q 3081 3584 3359 3409 
Q 3638 3234 3781 2919 
z
" transform="scale(0.015625)"/>
     </defs>
     <use xlink:href="#DejaVuSans-Bold-50"/>
     <use xlink:href="#DejaVuSans-Bold-72" transform="translate(73.291016 0)"/>
     <use xlink:href="#DejaVuSans-Bold-65" transform="translate(122.607422 0)"/>
     <use xlink:href="#DejaVuSans-Bold-64" transform="translate(190.429688 0)"/>
     <use xlink:href="#DejaVuSans-Bold-69" transform="translate(262.011719 0)"/>
     <use xlink:href="#DejaVuSans-Bold-63" transform="translate(296.289062 0)"/>
     <use xlink:href="#DejaVuSans-Bold-74" transform="translate(355.566406 0)"/>
     <use xlink:href="#DejaVuSans-Bold-65" transform="translate(403.369141 0)"/>
     <use xlink:href="#DejaVuSans-Bold-64" transform="translate(471.191406 0)"/>
     <use xlink:href="#DejaVuSans-Bold-20" transform="translate(542.773438 0)"/>
     <use xlink:href="#DejaVuSans-Bold-44" transform="translate(577.587891 0)"/>
     <use xlink:href="#DejaVuSans-Bold-61" transform="translate(660.595703 0)"/>
     <use xlink:href="#DejaVuSans-Bold-6d" transform="translate(728.076172 0)"/>
     <use xlink:href="#DejaVuSans-Bold-61" transform="translate(832.275391 0)"/>
     <use xlink:href="#DejaVuSans-Bold-67" transform="translate(899.755859 0)"/>
     <use xlink:href="#DejaVuSans-Bold-69" transform="translate(971.337891 0)"/>
     <use xlink:href="#DejaVuSans-Bold-6e" transform="translate(1005.615234 0)"/>
     <use xlink:href="#DejaVuSans-Bold-67" transform="translate(1076.806641 0)"/>
    </g>
    <!-- (500) -->
    <g transform="translate(270.893672 266.571891) scale(0.09 -0.09)">
     <use xlink:href="#DejaVuSans-Bold-28"/>
     <use xlink:href="#DejaVuSans-Bold-35" transform="translate(45.703125 0)"/>
     <use xlink:href="#DejaVuSans-Bold-30" transform="translate(115.283203 0)"/>
     <use xlink:href="#DejaVuSans-Bold-30" transform="translate(184.863281 0)"/>
     <use xlink:href="#DejaVuSans-Bold-29" transform="translate(254.443359 0)"/>
    </g>
   </g>
   <g id="text_5">
    <!-- Gene Match -->
    <g transform="translate(254.295 315.822703) scale(0.09 -0.09)">
     <defs>
      <path id="DejaVuSans-Bold-47" d="M 4781 347 
Q 4331 128 3847 18 
Q 3363 -91 2847 -91 
Q 1681 -91 1000 561 
Q 319 1213 319 2328 
Q 319 3456 1012 4103 
Q 1706 4750 2913 4750 
Q 3378 4750 3804 4662 
Q 4231 4575 4609 4403 
L 4609 3438 
Q 4219 3659 3833 3768 
Q 3447 3878 3059 3878 
Q 2341 3878 1952 3476 
Q 1563 3075 1563 2328 
Q 1563 1588 1938 1184 
Q 2313 781 3003 781 
Q 3191 781 3352 804 
Q 3513 828 3641 878 
L 3641 1784 
L 2906 1784 
L 2906 2591 
L 4781 2591 
L 4781 347 
z
" transform="scale(0.015625)"/>
      <path id="DejaVuSans-Bold-4d" d="M 588 4666 
L 2119 4666 
L 3181 2169 
L 4250 4666 
L 5778 4666 
L 5778 0 
L 4641 0 
L 4641 3413 
L 3566 897 
L 2803 897 
L 1728 3413 
L 1728 0 
L 588 0 
L 588 4666 
z
" transform="scale(0.015625)"/>
      <path id="DejaVuSans-Bold-68" d="M 4056 2131 
L 4056 0 
L 2931 0 
L 2931 347 
L 2931 1625 
Q 2931 2084 2911 2256 
Q 2891 2428 2841 2509 
Q 2775 2619 2662 2680 
Q 2550 2741 2406 2741 
Q 2056 2741 1856 2470 
Q 1656 2200 1656 1722 
L 1656 0 
L 538 0 
L 538 4863 
L 1656 4863 
L 1656 2988 
Q 1909 3294 2193 3439 
Q 2478 3584 2822 3584 
Q 3428 3584 3742 3212 
Q 4056 2841 4056 2131 
z
" transform="scale(0.015625)"/>
     </defs>
     <use xlink:href="#DejaVuSans-Bold-47"/>
     <use xlink:href="#DejaVuSans-Bold-65" transform="translate(82.080078 0)"/>
     <use xlink:href="#DejaVuSans-Bold-6e" transform="translate(149.902344 0)"/>
     <use xlink:href="#DejaVuSans-Bold-65" transform="translate(221.09375 0)"/>
     <use xlink:href="#DejaVuSans-Bold-20" transform="translate(288.916016 0)"/>
     <use xlink:href="#DejaVuSans-Bold-4d" transform="translate(323.730469 0)"/>
     <use xlink:href="#DejaVuSans-Bold-61" transform="translate(423.242188 0)"/>
     <use xlink:href="#DejaVuSans-Bold-74" transform="translate(490.722656 0)"/>
     <use xlink:href="#DejaVuSans-Bold-63" transform="translate(538.525391 0)"/>
     <use xlink:href="#DejaVuSans-Bold-68" transform="translate(597.802734 0)"/>
    </g>
    <!-- (50) -->
    <g transform="translate(274.024687 325.900734) scale(0.09 -0.09)">
     <use xlink:href="#DejaVuSans-Bold-28"/>
     <use xlink:href="#DejaVuSans-Bold-35" transform="translate(45.703125 0)"/>
     <use xlink:href="#DejaVuSans-Bold-30" transform="translate(115.283203 0)"/>
     <use xlink:href="#DejaVuSans-Bold-29" transform="translate(184.863281 0)"/>
    </g>
   </g>
   <g id="text_6">
    <!-- Diagnostic -->
    <g transform="translate(257.529375 375.151547) scale(0.09 -0.09)">
     <use xlink:href="#DejaVuSans-Bold-44"/>
     <use xlink:href="#DejaVuSans-Bold-69" transform="translate(83.007812 0)"/>
     <use xlink:href="#DejaVuSans-Bold-61" transform="translate(117.285156 0)"/>
     <use xlink:href="#DejaVuSans-Bold-67" transform="translate(184.765625 0)"/>
     <use xlink:href="#DejaVuSans-Bold-6e" transform="translate(256.347656 0)"/>
     <use xlink:href="#DejaVuSans-Bold-6f" transform="translate(327.539062 0)"/>
     <use xlink:href="#DejaVuSans-Bold-73" transform="translate(396.240234 0)"/>
     <use xlink:href="#DejaVuSans-Bold-74" transform="translate(455.761719 0)"/>
     <use xlink:href="#DejaVuSans-Bold-69" transform="translate(503.564453 0)"/>
     <use xlink:href="#DejaVuSans-Bold-63" transform="translate(537.841797 0)"/>
    </g>
    <!-- (1) -->
    <g transform="translate(277.155703 385.299891) scale(0.09 -0.09)">
     <use xlink:href="#DejaVuSans-Bold-28"/>
     <use xlink:href="#DejaVuSans-Bold-31" transform="translate(45.703125 0)"/>
     <use xlink:href="#DejaVuSans-Bold-29" transform="translate(115.283203 0)"/>
    </g>
   </g>
   <g id="text_7">
    <!-- Variant Filtering Pipeline for Rare Disease -->
    <g transform="translate(153.525781 15.558281) scale(0.11 -0.11)">
     <defs>
      <path id="DejaVuSans-Bold-66" d="M 2841 4863 
L 2841 4128 
L 2222 4128 
Q 1984 4128 1890 4042 
Q 1797 3956 1797 3744 
L 1797 3500 
L 2753 3500 
L 2753 2700 
L 1797 2700 
L 1797 0 
L 678 0 
L 678 2700 
L 122 2700 
L 122 3500 
L 678 3500 
L 678 3744 
Q 678 4316 997 4589 
Q 1316 4863 1984 4863 
L 2841 4863 
z
" transform="scale(0.015625)"/>
     </defs>
     <use xlink:href="#DejaVuSans-Bold-56"/>
     <use xlink:href="#DejaVuSans-Bold-61" transform="translate(71.892578 0)"/>
     <use xlink:href="#DejaVuSans-Bold-72" transform="translate(139.373047 0)"/>
     <use xlink:href="#DejaVuSans-Bold-69" transform="translate(188.689453 0)"/>
     <use xlink:href="#DejaVuSans-Bold-61" transform="translate(222.966797 0)"/>
     <use xlink:href="#DejaVuSans-Bold-6e" transform="translate(290.447266 0)"/>
     <use xlink:href="#DejaVuSans-Bold-74" transform="translate(361.638672 0)"/>
     <use xlink:href="#DejaVuSans-Bold-20" transform="translate(409.441406 0)"/>
     <use xlink:href="#DejaVuSans-Bold-46" transform="translate(444.255859 0)"/>
     <use xlink:href="#DejaVuSans-Bold-69" transform="translate(512.566406 0)"/>
     <use xlink:href="#DejaVuSans-Bold-6c" transform="translate(546.84375 0)"/>
     <use xlink:href="#DejaVuSans-Bold-74" transform="translate(581.121094 0)"/>
     <use xlink:href="#DejaVuSans-Bold-65" transform="translate(628.923828 0)"/>
     <use xlink:href="#DejaVuSans-Bold-72" transform="translate(696.746094 0)"/>
     <use xlink:href="#DejaVuSans-Bold-69" transform="translate(746.0625 0)"/>
     <use xlink:href="#DejaVuSans-Bold-6e" transform="translate(780.339844 0)"/>
     <use xlink:href="#DejaVuSans-Bold-67" transform="translate(851.53125 0)"/>
     <use xlink:href="#DejaVuSans-Bold-20" transform="translate(923.113281 0)"/>
     <use xlink:href="#DejaVuSans-Bold-50" transform="translate(957.927734 0)"/>
     <use xlink:href="#DejaVuSans-Bold-69" transform="translate(1031.21875 0)"/>
     <use xlink:href="#DejaVuSans-Bold-70" transform="translate(1065.496094 0)"/>
     <use xlink:href="#DejaVuSans-Bold-65" transform="translate(1137.078125 0)"/>
     <use xlink:href="#DejaVuSans-Bold-6c" transform="translate(1204.900391 0)"/>
     <use xlink:href="#DejaVuSans-Bold-69" transform="translate(1239.177734 0)"/>
     <use xlink:href="#DejaVuSans-Bold-6e" transform="translate(1273.455078 0)"/>
     <use xlink:href="#DejaVuSans-Bold-65" transform="translate(1344.646484 0)"/>
     <use xlink:href="#DejaVuSans-Bold-20" transform="translate(1412.46875 0)"/>
     <use xlink:href="#DejaVuSans-Bold-66" transform="translate(1447.283203 0)"/>
     <use xlink:href="#DejaVuSans-Bold-6f" transform="translate(1490.789062 0)"/>
     <use xlink:href="#DejaVuSans-Bold-72" transform="translate(1559.490234 0)"/>
     <use xlink:href="#DejaVuSans-Bold-20" transform="translate(1608.806641 0)"/>
     <use xlink:href="#DejaVuSans-Bold-52" transform="translate(1643.621094 0)"/>
     <use xlink:href="#DejaVuSans-Bold-61" transform="translate(1720.623047 0)"/>
     <use xlink:href="#DejaVuSans-Bold-72" transform="translate(1788.103516 0)"/>
     <use xlink:href="#DejaVuSans-Bold-65" transform="translate(1837.419922 0)"/>
     <use xlink:href="#DejaVuSans-Bold-20" transform="translate(1905.242188 0)"/>
     <use xlink:href="#DejaVuSans-Bold-44" transform="translate(1940.056641 0)"/>
     <use xlink:href="#DejaVuSans-Bold-69" transform="translate(2023.064453 0)"/>
     <use xlink:href="#DejaVuSans-Bold-73" transform="translate(2057.341797 0)"/>
     <use xlink:href="#DejaVuSans-Bold-65" transform="translate(2116.863281 0)"/>
     <use xlink:href="#DejaVuSans-Bold-61" transform="translate(2184.685547 0)"/>
     <use xlink:href="#DejaVuSans-Bold-73" transform="translate(2252.166016 0)"/>
     <use xlink:href="#DejaVuSans-Bold-65" transform="translate(2311.6875 0)"/>
    </g>
   </g>
  </g>
 </g>
 <defs>
  <clipPath id="p29482ed564">
   <rect x="7.2" y="21.558281" width="554.4" height="395.76"/>
  </clipPath>
 </defs>
</svg>
