<?xml version="1.0" encoding="UTF-8" standalone="no"?>
<!DOCTYPE svg PUBLIC "-//W3C//DTD SVG 1.1//EN"
 "http://www.w3.org/Graphics/SVG/1.1/DTD/svg11.dtd">
<!-- Generated by graphviz version 2.43.0 (0)
 -->
<!-- Title: acmg Pages: 1 -->
<svg width="720pt" height="285pt"
 viewBox="0.00 0.00 720.00 284.74" xmlns="http://www.w3.org/2000/svg" xmlns:xlink="http://www.w3.org/1999/xlink">
<g id="graph0" class="graph" transform="scale(1.25 1.25) rotate(0) translate(4 223)">
<title>acmg</title>
<polygon fill="white" stroke="transparent" points="-4,4 -4,-223 570,-223 570,4 -4,4"/>
<g id="clust1" class="cluster">
<title>cluster_evidence</title>
<path fill="none" stroke="black" d="M20,-136C20,-136 302,-136 302,-136 308,-136 314,-142 314,-148 314,-148 314,-199 314,-199 314,-205 308,-211 302,-211 302,-211 20,-211 20,-211 14,-211 8,-205 8,-199 8,-199 8,-148 8,-148 8,-142 14,-136 20,-136"/>
<text text-anchor="middle" x="161" y="-195.8" font-family="Times,serif" font-size="14.00">Evidence Categories</text>
</g>
<g id="clust2" class="cluster">
<title>cluster_benign</title>
<path fill="none" stroke="black" d="M334,-136C334,-136 546,-136 546,-136 552,-136 558,-142 558,-148 558,-148 558,-199 558,-199 558,-205 552,-211 546,-211 546,-211 334,-211 334,-211 328,-211 322,-205 322,-199 322,-199 322,-148 322,-148 322,-142 328,-136 334,-136"/>
<text text-anchor="middle" x="440" y="-195.8" font-family="Times,serif" font-size="14.00">Benign Evidence</text>
</g>
<!-- pvs -->
<g id="node1" class="node">
<title>pvs</title>
<path fill="#d62728" stroke="black" stroke-width="1.5" d="M294,-180C294,-180 254,-180 254,-180 248,-180 242,-174 242,-168 242,-168 242,-156 242,-156 242,-150 248,-144 254,-144 254,-144 294,-144 294,-144 300,-144 306,-150 306,-156 306,-156 306,-168 306,-168 306,-174 300,-180 294,-180"/>
<text text-anchor="middle" x="274" y="-164.8" font-family="Arial" font-size="9.00" fill="white">Very Strong</text>
<text text-anchor="middle" x="274" y="-154.8" font-family="Arial" font-size="9.00" fill="white">(PVS1)</text>
</g>
<!-- combine -->
<g id="node8" class="node">
<title>combine</title>
<path fill="#9467bd" stroke="black" stroke-width="1.5" d="M296.5,-108C296.5,-108 251.5,-108 251.5,-108 245.5,-108 239.5,-102 239.5,-96 239.5,-96 239.5,-84 239.5,-84 239.5,-78 245.5,-72 251.5,-72 251.5,-72 296.5,-72 296.5,-72 302.5,-72 308.5,-78 308.5,-84 308.5,-84 308.5,-96 308.5,-96 308.5,-102 302.5,-108 296.5,-108"/>
<text text-anchor="middle" x="274" y="-92.8" font-family="Arial" font-size="9.00" fill="white">Evidence</text>
<text text-anchor="middle" x="274" y="-82.8" font-family="Arial" font-size="9.00" fill="white">Combination</text>
</g>
<!-- pvs&#45;&gt;combine -->
<g id="edge1" class="edge">
<title>pvs&#45;&gt;combine</title>
<path fill="none" stroke="black" d="M274,-143.7C274,-135.98 274,-126.71 274,-118.11"/>
<polygon fill="black" stroke="black" points="277.5,-118.1 274,-108.1 270.5,-118.1 277.5,-118.1"/>
</g>
<!-- ps -->
<g id="node2" class="node">
<title>ps</title>
<path fill="#ff7f0e" stroke="black" stroke-width="1.5" d="M212,-180C212,-180 182,-180 182,-180 176,-180 170,-174 170,-168 170,-168 170,-156 170,-156 170,-150 176,-144 182,-144 182,-144 212,-144 212,-144 218,-144 224,-150 224,-156 224,-156 224,-168 224,-168 224,-174 218,-180 212,-180"/>
<text text-anchor="middle" x="197" y="-164.8" font-family="Arial" font-size="9.00">Strong</text>
<text text-anchor="middle" x="197" y="-154.8" font-family="Arial" font-size="9.00">(PS1&#45;4)</text>
</g>
<!-- ps&#45;&gt;combine -->
<g id="edge2" class="edge">
<title>ps&#45;&gt;combine</title>
<path fill="none" stroke="black" d="M216.03,-143.7C225.54,-135.05 237.21,-124.45 247.57,-115.03"/>
<polygon fill="black" stroke="black" points="250.14,-117.42 255.19,-108.1 245.43,-112.24 250.14,-117.42"/>
</g>
<!-- pm -->
<g id="node3" class="node">
<title>pm</title>
<path fill="#ffbb78" stroke="black" stroke-width="1.5" d="M140,-180C140,-180 108,-180 108,-180 102,-180 96,-174 96,-168 96,-168 96,-156 96,-156 96,-150 102,-144 108,-144 108,-144 140,-144 140,-144 146,-144 152,-150 152,-156 152,-156 152,-168 152,-168 152,-174 146,-180 140,-180"/>
<text text-anchor="middle" x="124" y="-164.8" font-family="Arial" font-size="9.00">Moderate</text>
<text text-anchor="middle" x="124" y="-154.8" font-family="Arial" font-size="9.00">(PM1&#45;6)</text>
</g>
<!-- pm&#45;&gt;combine -->
<g id="edge3" class="edge">
<title>pm&#45;&gt;combine</title>
<path fill="none" stroke="black" d="M149.29,-143.91C155.8,-139.52 161,-136 161,-136 161,-136 198.16,-121.2 229.87,-108.58"/>
<polygon fill="black" stroke="black" points="231.49,-111.7 239.48,-104.75 228.9,-105.19 231.49,-111.7"/>
</g>
<!-- pp -->
<g id="node4" class="node">
<title>pp</title>
<path fill="#98df8a" stroke="black" stroke-width="1.5" d="M66,-180C66,-180 28,-180 28,-180 22,-180 16,-174 16,-168 16,-168 16,-156 16,-156 16,-150 22,-144 28,-144 28,-144 66,-144 66,-144 72,-144 78,-150 78,-156 78,-156 78,-168 78,-168 78,-174 72,-180 66,-180"/>
<text text-anchor="middle" x="47" y="-164.8" font-family="Arial" font-size="9.00">Supporting</text>
<text text-anchor="middle" x="47" y="-154.8" font-family="Arial" font-size="9.00">(PP1&#45;5)</text>
</g>
<!-- pp&#45;&gt;combine -->
<g id="edge4" class="edge">
<title>pp&#45;&gt;combine</title>
<path fill="none" stroke="black" d="M74.34,-143.91C81.38,-139.52 87,-136 87,-136 87,-136 174.02,-115.06 229.33,-101.75"/>
<polygon fill="black" stroke="black" points="230.36,-105.1 239.26,-99.36 228.72,-98.3 230.36,-105.1"/>
</g>
<!-- ba -->
<g id="node5" class="node">
<title>ba</title>
<path fill="#2ca02c" stroke="black" stroke-width="1.5" d="M537.5,-180C537.5,-180 494.5,-180 494.5,-180 488.5,-180 482.5,-174 482.5,-168 482.5,-168 482.5,-156 482.5,-156 482.5,-150 488.5,-144 494.5,-144 494.5,-144 537.5,-144 537.5,-144 543.5,-144 549.5,-150 549.5,-156 549.5,-156 549.5,-168 549.5,-168 549.5,-174 543.5,-180 537.5,-180"/>
<text text-anchor="middle" x="516" y="-164.8" font-family="Arial" font-size="9.00" fill="white">Stand&#45;alone</text>
<text text-anchor="middle" x="516" y="-154.8" font-family="Arial" font-size="9.00" fill="white">(BA1)</text>
</g>
<!-- ba&#45;&gt;combine -->
<g id="edge5" class="edge">
<title>ba&#45;&gt;combine</title>
<path fill="none" stroke="black" d="M486.61,-143.91C479.05,-139.52 473,-136 473,-136 473,-136 377.1,-114.31 318.44,-101.05"/>
<polygon fill="black" stroke="black" points="319.19,-97.63 308.66,-98.84 317.64,-104.46 319.19,-97.63"/>
</g>
<!-- bs -->
<g id="node6" class="node">
<title>bs</title>
<path fill="#aec7e8" stroke="black" stroke-width="1.5" d="M452,-180C452,-180 422,-180 422,-180 416,-180 410,-174 410,-168 410,-168 410,-156 410,-156 410,-150 416,-144 422,-144 422,-144 452,-144 452,-144 458,-144 464,-150 464,-156 464,-156 464,-168 464,-168 464,-174 458,-180 452,-180"/>
<text text-anchor="middle" x="437" y="-164.8" font-family="Arial" font-size="9.00">Strong</text>
<text text-anchor="middle" x="437" y="-154.8" font-family="Arial" font-size="9.00">(BS1&#45;4)</text>
</g>
<!-- bs&#45;&gt;combine -->
<g id="edge6" class="edge">
<title>bs&#45;&gt;combine</title>
<path fill="none" stroke="black" d="M412.39,-143.91C406.06,-139.52 401,-136 401,-136 401,-136 354.91,-119.67 318.26,-106.68"/>
<polygon fill="black" stroke="black" points="319.3,-103.34 308.7,-103.3 316.96,-109.94 319.3,-103.34"/>
</g>
<!-- bp -->
<g id="node7" class="node">
<title>bp</title>
<path fill="#c5b0d5" stroke="black" stroke-width="1.5" d="M380,-180C380,-180 342,-180 342,-180 336,-180 330,-174 330,-168 330,-168 330,-156 330,-156 330,-150 336,-144 342,-144 342,-144 380,-144 380,-144 386,-144 392,-150 392,-156 392,-156 392,-168 392,-168 392,-174 386,-180 380,-180"/>
<text text-anchor="middle" x="361" y="-164.8" font-family="Arial" font-size="9.00">Supporting</text>
<text text-anchor="middle" x="361" y="-154.8" font-family="Arial" font-size="9.00">(BP1&#45;7)</text>
</g>
<!-- bp&#45;&gt;combine -->
<g id="edge7" class="edge">
<title>bp&#45;&gt;combine</title>
<path fill="none" stroke="black" d="M339.49,-143.7C328.54,-134.88 315.05,-124.03 303.18,-114.47"/>
<polygon fill="black" stroke="black" points="305.24,-111.65 295.26,-108.1 300.86,-117.1 305.24,-111.65"/>
</g>
<!-- class0 -->
<g id="node9" class="node">
<title>class0</title>
<path fill="#d62728" stroke="black" stroke-width="1.5" d="M135.5,-36C135.5,-36 96.5,-36 96.5,-36 90.5,-36 84.5,-30 84.5,-24 84.5,-24 84.5,-12 84.5,-12 84.5,-6 90.5,0 96.5,0 96.5,0 135.5,0 135.5,0 141.5,0 147.5,-6 147.5,-12 147.5,-12 147.5,-24 147.5,-24 147.5,-30 141.5,-36 135.5,-36"/>
<text text-anchor="middle" x="116" y="-15.8" font-family="Arial" font-size="9.00" fill="white">Pathogenic</text>
</g>
<!-- combine&#45;&gt;class0 -->
<g id="edge8" class="edge">
<title>combine&#45;&gt;class0</title>
<path fill="none" stroke="black" d="M239.33,-73.64C215.08,-62.9 182.6,-48.51 157.06,-37.19"/>
<polygon fill="black" stroke="black" points="158.2,-33.87 147.64,-33.02 155.37,-40.27 158.2,-33.87"/>
</g>
<!-- class1 -->
<g id="node10" class="node">
<title>class1</title>
<path fill="#d62728" stroke="black" stroke-width="1.5" d="M216.5,-36C216.5,-36 177.5,-36 177.5,-36 171.5,-36 165.5,-30 165.5,-24 165.5,-24 165.5,-12 165.5,-12 165.5,-6 171.5,0 177.5,0 177.5,0 216.5,0 216.5,0 222.5,0 228.5,-6 228.5,-12 228.5,-12 228.5,-24 228.5,-24 228.5,-30 222.5,-36 216.5,-36"/>
<text text-anchor="middle" x="197" y="-20.8" font-family="Arial" font-size="9.00" fill="white">Likely</text>
<text text-anchor="middle" x="197" y="-10.8" font-family="Arial" font-size="9.00" fill="white">Pathogenic</text>
</g>
<!-- combine&#45;&gt;class1 -->
<g id="edge9" class="edge">
<title>combine&#45;&gt;class1</title>
<path fill="none" stroke="black" d="M254.97,-71.7C245.46,-63.05 233.79,-52.45 223.43,-43.03"/>
<polygon fill="black" stroke="black" points="225.57,-40.24 215.81,-36.1 220.86,-45.42 225.57,-40.24"/>
</g>
<!-- class2 -->
<g id="node11" class="node">
<title>class2</title>
<path fill="#ff7f0e" stroke="black" stroke-width="1.5" d="M289,-36C289,-36 259,-36 259,-36 253,-36 247,-30 247,-24 247,-24 247,-12 247,-12 247,-6 253,0 259,0 259,0 289,0 289,0 295,0 301,-6 301,-12 301,-12 301,-24 301,-24 301,-30 295,-36 289,-36"/>
<text text-anchor="middle" x="274" y="-15.8" font-family="Arial" font-size="9.00">VUS</text>
</g>
<!-- combine&#45;&gt;class2 -->
<g id="edge10" class="edge">
<title>combine&#45;&gt;class2</title>
<path fill="none" stroke="black" d="M274,-71.7C274,-63.98 274,-54.71 274,-46.11"/>
<polygon fill="black" stroke="black" points="277.5,-46.1 274,-36.1 270.5,-46.1 277.5,-46.1"/>
</g>
<!-- class3 -->
<g id="node12" class="node">
<title>class3</title>
<path fill="#2ca02c" stroke="black" stroke-width="1.5" d="M361,-36C361,-36 331,-36 331,-36 325,-36 319,-30 319,-24 319,-24 319,-12 319,-12 319,-6 325,0 331,0 331,0 361,0 361,0 367,0 373,-6 373,-12 373,-12 373,-24 373,-24 373,-30 367,-36 361,-36"/>
<text text-anchor="middle" x="346" y="-20.8" font-family="Arial" font-size="9.00" fill="white">Likely</text>
<text text-anchor="middle" x="346" y="-10.8" font-family="Arial" font-size="9.00" fill="white">Benign</text>
</g>
<!-- combine&#45;&gt;class3 -->
<g id="edge11" class="edge">
<title>combine&#45;&gt;class3</title>
<path fill="none" stroke="black" d="M291.8,-71.7C300.6,-63.14 311.38,-52.66 321,-43.3"/>
<polygon fill="black" stroke="black" points="323.68,-45.58 328.41,-36.1 318.8,-40.57 323.68,-45.58"/>
</g>
<!-- class4 -->
<g id="node13" class="node">
<title>class4</title>
<path fill="#2ca02c" stroke="black" stroke-width="1.5" d="M433,-36C433,-36 403,-36 403,-36 397,-36 391,-30 391,-24 391,-24 391,-12 391,-12 391,-6 397,0 403,0 403,0 433,0 433,0 439,0 445,-6 445,-12 445,-12 445,-24 445,-24 445,-30 439,-36 433,-36"/>
<text text-anchor="middle" x="418" y="-15.8" font-family="Arial" font-size="9.00" fill="white">Benign</text>
</g>
<!-- combine&#45;&gt;class4 -->
<g id="edge12" class="edge">
<title>combine&#45;&gt;class4</title>
<path fill="none" stroke="black" d="M308.86,-72.05C330.85,-61.36 359.22,-47.57 381.52,-36.73"/>
<polygon fill="black" stroke="black" points="383.2,-39.81 390.67,-32.29 380.14,-33.51 383.2,-39.81"/>
</g>
</g>
</svg>
