<?xml version="1.0" encoding="UTF-8" standalone="no"?>
<!DOCTYPE svg PUBLIC "-//W3C//DTD SVG 1.1//EN"
 "http://www.w3.org/Graphics/SVG/1.1/DTD/svg11.dtd">
<!-- Generated by graphviz version 2.43.0 (0)
 -->
<!-- Title: segregation Pages: 1 -->
<svg width="576pt" height="312pt"
 viewBox="0.00 0.00 576.00 312.22" xmlns="http://www.w3.org/2000/svg" xmlns:xlink="http://www.w3.org/1999/xlink">
<g id="graph0" class="graph" transform="scale(2.69 2.69) rotate(0) translate(4 112)">
<title>segregation</title>
<polygon fill="white" stroke="transparent" points="-4,4 -4,-112 210,-112 210,4 -4,4"/>
<!-- g1m -->
<g id="node1" class="node">
<title>g1m</title>
<path fill="#d62728" stroke="black" stroke-width="1.5" d="M80,-108C80,-108 50,-108 50,-108 44,-108 38,-102 38,-96 38,-96 38,-84 38,-84 38,-78 44,-72 50,-72 50,-72 80,-72 80,-72 86,-72 92,-78 92,-84 92,-84 92,-96 92,-96 92,-102 86,-108 80,-108"/>
<text text-anchor="middle" x="65" y="-92.8" font-family="Arial" font-size="9.00" fill="white">I&#45;1</text>
<text text-anchor="middle" x="65" y="-82.8" font-family="Arial" font-size="9.00" fill="white">Affected</text>
</g>
<!-- g2a -->
<g id="node3" class="node">
<title>g2a</title>
<path fill="#d62728" stroke="black" stroke-width="1.5" d="M42,-36C42,-36 12,-36 12,-36 6,-36 0,-30 0,-24 0,-24 0,-12 0,-12 0,-6 6,0 12,0 12,0 42,0 42,0 48,0 54,-6 54,-12 54,-12 54,-24 54,-24 54,-30 48,-36 42,-36"/>
<text text-anchor="middle" x="27" y="-20.8" font-family="Arial" font-size="9.00" fill="white">II&#45;1</text>
<text text-anchor="middle" x="27" y="-10.8" font-family="Arial" font-size="9.00" fill="white">Affected</text>
</g>
<!-- g1m&#45;&gt;g2a -->
<g id="edge1" class="edge">
<title>g1m&#45;&gt;g2a</title>
<path fill="none" stroke="black" d="M55.61,-71.7C51.24,-63.64 45.94,-53.89 41.1,-44.98"/>
<polygon fill="black" stroke="black" points="44.13,-43.22 36.29,-36.1 37.98,-46.56 44.13,-43.22"/>
</g>
<!-- g2b -->
<g id="node4" class="node">
<title>g2b</title>
<path fill="#98df8a" stroke="black" stroke-width="1.5" d="M121.5,-36C121.5,-36 84.5,-36 84.5,-36 78.5,-36 72.5,-30 72.5,-24 72.5,-24 72.5,-12 72.5,-12 72.5,-6 78.5,0 84.5,0 84.5,0 121.5,0 121.5,0 127.5,0 133.5,-6 133.5,-12 133.5,-12 133.5,-24 133.5,-24 133.5,-30 127.5,-36 121.5,-36"/>
<text text-anchor="middle" x="103" y="-20.8" font-family="Arial" font-size="9.00">II&#45;2</text>
<text text-anchor="middle" x="103" y="-10.8" font-family="Arial" font-size="9.00">Unaffected</text>
</g>
<!-- g1m&#45;&gt;g2b -->
<g id="edge3" class="edge">
<title>g1m&#45;&gt;g2b</title>
<path fill="none" stroke="black" d="M74.39,-71.7C78.76,-63.64 84.06,-53.89 88.9,-44.98"/>
<polygon fill="black" stroke="black" points="92.02,-46.56 93.71,-36.1 85.87,-43.22 92.02,-46.56"/>
</g>
<!-- g2c -->
<g id="node5" class="node">
<title>g2c</title>
<path fill="#d62728" stroke="black" stroke-width="1.5" d="M194,-36C194,-36 164,-36 164,-36 158,-36 152,-30 152,-24 152,-24 152,-12 152,-12 152,-6 158,0 164,0 164,0 194,0 194,0 200,0 206,-6 206,-12 206,-12 206,-24 206,-24 206,-30 200,-36 194,-36"/>
<text text-anchor="middle" x="179" y="-20.8" font-family="Arial" font-size="9.00" fill="white">II&#45;3</text>
<text text-anchor="middle" x="179" y="-10.8" font-family="Arial" font-size="9.00" fill="white">Affected</text>
</g>
<!-- g1m&#45;&gt;g2c -->
<g id="edge5" class="edge">
<title>g1m&#45;&gt;g2c</title>
<path fill="none" stroke="black" d="M92.02,-72.41C107.24,-63.06 126.45,-51.27 142.94,-41.14"/>
<polygon fill="black" stroke="black" points="145.09,-43.93 151.78,-35.71 141.43,-37.96 145.09,-43.93"/>
</g>
<!-- g1f -->
<g id="node2" class="node">
<title>g1f</title>
<path fill="#98df8a" stroke="black" stroke-width="1.5" d="M159.5,-108C159.5,-108 122.5,-108 122.5,-108 116.5,-108 110.5,-102 110.5,-96 110.5,-96 110.5,-84 110.5,-84 110.5,-78 116.5,-72 122.5,-72 122.5,-72 159.5,-72 159.5,-72 165.5,-72 171.5,-78 171.5,-84 171.5,-84 171.5,-96 171.5,-96 171.5,-102 165.5,-108 159.5,-108"/>
<text text-anchor="middle" x="141" y="-92.8" font-family="Arial" font-size="9.00">I&#45;2</text>
<text text-anchor="middle" x="141" y="-82.8" font-family="Arial" font-size="9.00">Unaffected</text>
</g>
<!-- g1f&#45;&gt;g2a -->
<g id="edge2" class="edge">
<title>g1f&#45;&gt;g2a</title>
<path fill="none" stroke="black" d="M113.11,-71.88C97.98,-62.59 79.12,-51 62.9,-41.04"/>
<polygon fill="black" stroke="black" points="64.56,-37.96 54.21,-35.71 60.9,-43.92 64.56,-37.96"/>
</g>
<!-- g1f&#45;&gt;g2b -->
<g id="edge4" class="edge">
<title>g1f&#45;&gt;g2b</title>
<path fill="none" stroke="black" d="M131.61,-71.7C127.24,-63.64 121.94,-53.89 117.1,-44.98"/>
<polygon fill="black" stroke="black" points="120.13,-43.22 112.29,-36.1 113.98,-46.56 120.13,-43.22"/>
</g>
<!-- g1f&#45;&gt;g2c -->
<g id="edge6" class="edge">
<title>g1f&#45;&gt;g2c</title>
<path fill="none" stroke="black" d="M150.39,-71.7C154.76,-63.64 160.06,-53.89 164.9,-44.98"/>
<polygon fill="black" stroke="black" points="168.02,-46.56 169.71,-36.1 161.87,-43.22 168.02,-46.56"/>
</g>
</g>
</svg>
