<?xml version="1.0" encoding="UTF-8" standalone="no"?>
<!DOCTYPE svg PUBLIC "-//W3C//DTD SVG 1.1//EN"
 "http://www.w3.org/Graphics/SVG/1.1/DTD/svg11.dtd">
<!-- Generated by graphviz version 2.43.0 (0)
 -->
<!-- Title: origins Pages: 1 -->
<svg width="711pt" height="288pt"
 viewBox="0.00 0.00 711.18 288.00" xmlns="http://www.w3.org/2000/svg" xmlns:xlink="http://www.w3.org/1999/xlink">
<g id="graph0" class="graph" transform="scale(2.94 2.94) rotate(0) translate(4 94)">
<title>origins</title>
<polygon fill="white" stroke="transparent" points="-4,4 -4,-94 238,-94 238,4 -4,4"/>
<!-- zygote -->
<g id="node1" class="node">
<title>zygote</title>
<path fill="#aec7e8" stroke="black" stroke-width="1.5" d="M42,-63C42,-63 12,-63 12,-63 6,-63 0,-57 0,-51 0,-51 0,-39 0,-39 0,-33 6,-27 12,-27 12,-27 42,-27 42,-27 48,-27 54,-33 54,-39 54,-39 54,-51 54,-51 54,-57 48,-63 42,-63"/>
<text text-anchor="middle" x="27" y="-42.8" font-family="Arial" font-size="9.00">Zygote</text>
</g>
<!-- germline -->
<g id="node2" class="node">
<title>germline</title>
<path fill="#2ca02c" stroke="black" stroke-width="1.5" d="M132,-90C132,-90 102,-90 102,-90 96,-90 90,-84 90,-78 90,-78 90,-66 90,-66 90,-60 96,-54 102,-54 102,-54 132,-54 132,-54 138,-54 144,-60 144,-66 144,-66 144,-78 144,-78 144,-84 138,-90 132,-90"/>
<text text-anchor="middle" x="117" y="-74.8" font-family="Arial" font-size="9.00" fill="white">Germline</text>
<text text-anchor="middle" x="117" y="-64.8" font-family="Arial" font-size="9.00" fill="white">Cells</text>
</g>
<!-- zygote&#45;&gt;germline -->
<g id="edge1" class="edge">
<title>zygote&#45;&gt;germline</title>
<path fill="none" stroke="black" d="M54.4,-53.1C62.48,-55.58 71.51,-58.35 80.1,-60.99"/>
<polygon fill="black" stroke="black" points="79.33,-64.41 89.92,-64 81.39,-57.72 79.33,-64.41"/>
</g>
<!-- somatic -->
<g id="node3" class="node">
<title>somatic</title>
<path fill="#ff7f0e" stroke="black" stroke-width="1.5" d="M132,-36C132,-36 102,-36 102,-36 96,-36 90,-30 90,-24 90,-24 90,-12 90,-12 90,-6 96,0 102,0 102,0 132,0 132,0 138,0 144,-6 144,-12 144,-12 144,-24 144,-24 144,-30 138,-36 132,-36"/>
<text text-anchor="middle" x="117" y="-20.8" font-family="Arial" font-size="9.00">Somatic</text>
<text text-anchor="middle" x="117" y="-10.8" font-family="Arial" font-size="9.00">Cells</text>
</g>
<!-- zygote&#45;&gt;somatic -->
<g id="edge2" class="edge">
<title>zygote&#45;&gt;somatic</title>
<path fill="none" stroke="black" d="M54.4,-36.9C62.48,-34.42 71.51,-31.65 80.1,-29.01"/>
<polygon fill="black" stroke="black" points="81.39,-32.28 89.92,-26 79.33,-25.59 81.39,-32.28"/>
</g>
<!-- inherited -->
<g id="node4" class="node">
<title>inherited</title>
<path fill="#1f77b4" stroke="black" stroke-width="1.5" d="M222,-90C222,-90 192,-90 192,-90 186,-90 180,-84 180,-78 180,-78 180,-66 180,-66 180,-60 186,-54 192,-54 192,-54 222,-54 222,-54 228,-54 234,-60 234,-66 234,-66 234,-78 234,-78 234,-84 228,-90 222,-90"/>
<text text-anchor="middle" x="207" y="-74.8" font-family="Arial" font-size="9.00" fill="white">Inherited</text>
<text text-anchor="middle" x="207" y="-64.8" font-family="Arial" font-size="9.00" fill="white">Variants</text>
</g>
<!-- germline&#45;&gt;inherited -->
<g id="edge3" class="edge">
<title>germline&#45;&gt;inherited</title>
<path fill="none" stroke="black" d="M144.4,-72C152.39,-72 161.31,-72 169.82,-72"/>
<polygon fill="black" stroke="black" points="169.92,-75.5 179.92,-72 169.92,-68.5 169.92,-75.5"/>
</g>
<!-- acquired -->
<g id="node5" class="node">
<title>acquired</title>
<path fill="#d62728" stroke="black" stroke-width="1.5" d="M222,-36C222,-36 192,-36 192,-36 186,-36 180,-30 180,-24 180,-24 180,-12 180,-12 180,-6 186,0 192,0 192,0 222,0 222,0 228,0 234,-6 234,-12 234,-12 234,-24 234,-24 234,-30 228,-36 222,-36"/>
<text text-anchor="middle" x="207" y="-20.8" font-family="Arial" font-size="9.00" fill="white">Acquired</text>
<text text-anchor="middle" x="207" y="-10.8" font-family="Arial" font-size="9.00" fill="white">Variants</text>
</g>
<!-- somatic&#45;&gt;acquired -->
<g id="edge4" class="edge">
<title>somatic&#45;&gt;acquired</title>
<path fill="none" stroke="black" d="M144.4,-18C152.39,-18 161.31,-18 169.82,-18"/>
<polygon fill="black" stroke="black" points="169.92,-21.5 179.92,-18 169.92,-14.5 169.92,-21.5"/>
</g>
</g>
</svg>
