<?xml version="1.0" encoding="utf-8" ?>
<svg xmlns="http://www.w3.org/2000/svg" xmlns:ev="http://www.w3.org/2001/xml-events" xmlns:xlink="http://www.w3.org/1999/xlink" baseProfile="full" height="800" version="1.1" width="1200">
  <defs>
    <marker id="id305" markerHeight="7" markerWidth="7" orient="auto" refX="6" refY="3">
      <path d="M0,0 L0,6 L6,3 z" fill="#333333"/>
    </marker>
  </defs>
  <rect fill="white" height="800" width="1200" x="0" y="0"/>
  <text fill="#111" font-family="Arial, Helvetica, sans-serif" font-size="28" font-weight="700" x="60" y="50">Figure 2: In Silico Mutagenesis</text>
  <text fill="#444" font-family="Arial, Helvetica, sans-serif" font-size="16" x="60" y="78">Panel A</text>
  <line stroke="#333" stroke-width="2" x1="140" x2="1000" y1="720" y2="720"/>
  <line stroke="#333" stroke-width="2" x1="140" x2="140" y1="160" y2="720"/>
  <circle cx="418.0305124938761" cy="457.1483018246487" fill="#1f77b4" opacity="0.75" r="4"/>
  <circle cx="374.1597875933767" cy="565.4243663782217" fill="#1f77b4" opacity="0.75" r="4"/>
  <circle cx="394.5597311218067" cy="556.6993123881158" fill="#1f77b4" opacity="0.75" r="4"/>
  <circle cx="384.23187744661413" cy="487.8787685246896" fill="#2ca02c" opacity="0.75" r="4"/>
  <circle cx="270.28950149888794" cy="454.04950538029595" fill="#1f77b4" opacity="0.75" r="4"/>
  <circle cx="408.59203144967455" cy="563.8743671920577" fill="#ff7f0e" opacity="0.75" r="4"/>
  <circle cx="363.82718355565646" cy="538.4312365831512" fill="#1f77b4" opacity="0.75" r="4"/>
  <circle cx="431.3582649272051" cy="529.3557783002834" fill="#ff7f0e" opacity="0.75" r="4"/>
  <circle cx="430.1908977201736" cy="491.2852543696709" fill="#2ca02c" opacity="0.75" r="4"/>
  <circle cx="370.3206534951069" cy="551.4629320490935" fill="#2ca02c" opacity="0.75" r="4"/>
  <circle cx="341.3278910948661" cy="605.8203417672738" fill="#2ca02c" opacity="0.75" r="4"/>
  <circle cx="374.1169394165047" cy="541.2084736380275" fill="#1f77b4" opacity="0.75" r="4"/>
  <circle cx="420.4120501736292" cy="491.79393496494095" fill="#1f77b4" opacity="0.75" r="4"/>
  <circle cx="445.0339894483672" cy="531.8848092633853" fill="#1f77b4" opacity="0.75" r="4"/>
  <circle cx="343.4479712468863" cy="527.5158228119067" fill="#2ca02c" opacity="0.75" r="4"/>
  <circle cx="418.4362728932361" cy="449.79212177252776" fill="#ff7f0e" opacity="0.75" r="4"/>
  <circle cx="394.53086337385895" cy="585.1705062263187" fill="#ff7f0e" opacity="0.75" r="4"/>
  <circle cx="351.60952830415874" cy="458.44922879575313" fill="#1f77b4" opacity="0.75" r="4"/>
  <circle cx="327.84985418172005" cy="523.4753686631173" fill="#2ca02c" opacity="0.75" r="4"/>
  <circle cx="416.7937411697255" cy="432.85635158995876" fill="#ff7f0e" opacity="0.75" r="4"/>
  <circle cx="424.39850028434887" cy="493.22345217215445" fill="#2ca02c" opacity="0.75" r="4"/>
  <circle cx="384.7380699176499" cy="526.6524845527566" fill="#2ca02c" opacity="0.75" r="4"/>
  <circle cx="464.61862793189954" cy="531.1425440360956" fill="#ff7f0e" opacity="0.75" r="4"/>
  <circle cx="463.85090226677926" cy="591.0056874436236" fill="#1f77b4" opacity="0.75" r="4"/>
  <circle cx="342.69591995515634" cy="434.0720921015784" fill="#ff7f0e" opacity="0.75" r="4"/>
  <circle cx="317.1710867734474" cy="602.0030232751428" fill="#2ca02c" opacity="0.75" r="4"/>
  <circle cx="433.2333117975635" cy="488.7445628544863" fill="#2ca02c" opacity="0.75" r="4"/>
  <circle cx="310.8850260413752" cy="551.3817315555825" fill="#1f77b4" opacity="0.75" r="4"/>
  <circle cx="340.2140194812266" cy="434.8729015396383" fill="#ff7f0e" opacity="0.75" r="4"/>
  <circle cx="326.56333355872164" cy="507.46631818822306" fill="#2ca02c" opacity="0.75" r="4"/>
  <circle cx="498.7117433204" cy="529.5051886702183" fill="#ff7f0e" opacity="0.75" r="4"/>
  <circle cx="310.59906734528226" cy="497.2819224822875" fill="#ff7f0e" opacity="0.75" r="4"/>
  <circle cx="430.9635694052134" cy="544.7756065899894" fill="#ff7f0e" opacity="0.75" r="4"/>
  <circle cx="439.24150453847494" cy="546.9335789131928" fill="#2ca02c" opacity="0.75" r="4"/>
  <circle cx="346.72688914700194" cy="489.6274042168623" fill="#2ca02c" opacity="0.75" r="4"/>
  <circle cx="418.8542051722777" cy="553.8623153862824" fill="#2ca02c" opacity="0.75" r="4"/>
  <circle cx="408.5548774260465" cy="492.71915096810744" fill="#1f77b4" opacity="0.75" r="4"/>
  <circle cx="479.09846286054346" cy="480.38750025695913" fill="#2ca02c" opacity="0.75" r="4"/>
  <circle cx="338.41048769974356" cy="548.4076678754255" fill="#2ca02c" opacity="0.75" r="4"/>
  <circle cx="332.1598061638049" cy="584.2994364157033" fill="#ff7f0e" opacity="0.75" r="4"/>
  <circle cx="208.3246139562458" cy="469.11597294230023" fill="#1f77b4" opacity="0.75" r="4"/>
  <circle cx="269.3346502820898" cy="545.6655839356631" fill="#ff7f0e" opacity="0.75" r="4"/>
  <circle cx="383.60126638993535" cy="581.3942375292806" fill="#ff7f0e" opacity="0.75" r="4"/>
  <circle cx="396.7381032639539" cy="552.8850100044651" fill="#2ca02c" opacity="0.75" r="4"/>
  <circle cx="312.10530409016775" cy="559.8692583942882" fill="#ff7f0e" opacity="0.75" r="4"/>
  <circle cx="504.6300488003196" cy="497.6359495026081" fill="#1f77b4" opacity="0.75" r="4"/>
  <circle cx="463.02975950342704" cy="536.8300119091994" fill="#2ca02c" opacity="0.75" r="4"/>
  <circle cx="414.71453541958414" cy="476.20149028749154" fill="#ff7f0e" opacity="0.75" r="4"/>
  <circle cx="384.79623026081134" cy="547.3543434197345" fill="#2ca02c" opacity="0.75" r="4"/>
  <circle cx="447.28358275354924" cy="555.7912659686622" fill="#1f77b4" opacity="0.75" r="4"/>
  <circle cx="334.5233255250571" cy="534.6047556644471" fill="#2ca02c" opacity="0.75" r="4"/>
  <circle cx="402.4731243693773" cy="540.5345113137219" fill="#2ca02c" opacity="0.75" r="4"/>
  <circle cx="378.04952669264117" cy="545.2431260994713" fill="#2ca02c" opacity="0.75" r="4"/>
  <circle cx="305.4221238513079" cy="522.2013236723797" fill="#2ca02c" opacity="0.75" r="4"/>
  <circle cx="392.3044478232864" cy="515.4778056609339" fill="#2ca02c" opacity="0.75" r="4"/>
  <circle cx="607.8364981104048" cy="419.2689467024194" fill="#1f77b4" opacity="0.75" r="4"/>
  <circle cx="571.3166613872697" cy="425.36031061114585" fill="#2ca02c" opacity="0.75" r="4"/>
  <circle cx="646.098644552972" cy="315.7725214096099" fill="#ff7f0e" opacity="0.75" r="4"/>
  <circle cx="451.54174584214155" cy="368.3492511896434" fill="#2ca02c" opacity="0.75" r="4"/>
  <circle cx="735.1126506779848" cy="407.4580756482685" fill="#ff7f0e" opacity="0.75" r="4"/>
  <circle cx="741.6366178749007" cy="457.53156430768996" fill="#ff7f0e" opacity="0.75" r="4"/>
  <circle cx="459.98740459037674" cy="381.7447435396866" fill="#1f77b4" opacity="0.75" r="4"/>
  <circle cx="582.214905240359" cy="462.1328702632199" fill="#ff7f0e" opacity="0.75" r="4"/>
  <circle cx="660.7388301997552" cy="412.60160412433595" fill="#2ca02c" opacity="0.75" r="4"/>
  <circle cx="666.0929417104453" cy="366.8323971722223" fill="#1f77b4" opacity="0.75" r="4"/>
  <circle cx="697.7977880560259" cy="362.6874339084036" fill="#2ca02c" opacity="0.75" r="4"/>
  <circle cx="716.8075064788134" cy="461.79391470440504" fill="#2ca02c" opacity="0.75" r="4"/>
  <circle cx="773.6712575380121" cy="405.51292201011336" fill="#ff7f0e" opacity="0.75" r="4"/>
  <circle cx="561.5708348062236" cy="376.1319599897399" fill="#2ca02c" opacity="0.75" r="4"/>
  <circle cx="769.8006064711136" cy="402.2017676281425" fill="#2ca02c" opacity="0.75" r="4"/>
  <circle cx="624.5780942920196" cy="345.4154333846976" fill="#ff7f0e" opacity="0.75" r="4"/>
  <circle cx="730.2391190034842" cy="453.29976865835" fill="#1f77b4" opacity="0.75" r="4"/>
  <circle cx="693.6217070163025" cy="417.639697065365" fill="#1f77b4" opacity="0.75" r="4"/>
  <circle cx="663.9845637608844" cy="341.8173834995586" fill="#1f77b4" opacity="0.75" r="4"/>
  <circle cx="677.0613114388565" cy="292.9591568736317" fill="#ff7f0e" opacity="0.75" r="4"/>
  <circle cx="644.5442311843423" cy="358.5095788518624" fill="#ff7f0e" opacity="0.75" r="4"/>
  <circle cx="631.4197049365641" cy="414.1575894511362" fill="#2ca02c" opacity="0.75" r="4"/>
  <circle cx="647.0107607580744" cy="501.1744079433986" fill="#1f77b4" opacity="0.75" r="4"/>
  <circle cx="735.0231522283187" cy="327.6833099009667" fill="#1f77b4" opacity="0.75" r="4"/>
  <circle cx="610.7869786312033" cy="400.15512269279395" fill="#2ca02c" opacity="0.75" r="4"/>
  <circle cx="613.7836144169721" cy="367.9037781986151" fill="#2ca02c" opacity="0.75" r="4"/>
  <circle cx="671.4513850216675" cy="389.9502281102626" fill="#1f77b4" opacity="0.75" r="4"/>
  <circle cx="754.2202925524906" cy="279.2455785210459" fill="#1f77b4" opacity="0.75" r="4"/>
  <circle cx="619.497686754223" cy="458.3825365498894" fill="#2ca02c" opacity="0.75" r="4"/>
  <circle cx="581.4502378710536" cy="375.1751304646636" fill="#ff7f0e" opacity="0.75" r="4"/>
  <circle cx="717.5256748103674" cy="460.27915976574303" fill="#ff7f0e" opacity="0.75" r="4"/>
  <circle cx="761.330154743228" cy="413.68154670824185" fill="#2ca02c" opacity="0.75" r="4"/>
  <circle cx="526.3186146038072" cy="466.138698214405" fill="#ff7f0e" opacity="0.75" r="4"/>
  <circle cx="610.8385526002314" cy="350.122739663222" fill="#2ca02c" opacity="0.75" r="4"/>
  <circle cx="765.1515391812713" cy="475.3105206967487" fill="#ff7f0e" opacity="0.75" r="4"/>
  <circle cx="676.4387703944308" cy="361.0268151487197" fill="#2ca02c" opacity="0.75" r="4"/>
  <circle cx="712.8767847819453" cy="450.7488618646542" fill="#2ca02c" opacity="0.75" r="4"/>
  <circle cx="603.6438155971032" cy="405.2665404256246" fill="#ff7f0e" opacity="0.75" r="4"/>
  <circle cx="604.794013076579" cy="515.4656995408768" fill="#1f77b4" opacity="0.75" r="4"/>
  <circle cx="570.346065413627" cy="356.00602435830785" fill="#1f77b4" opacity="0.75" r="4"/>
  <circle cx="718.3836067009283" cy="442.21465637243574" fill="#2ca02c" opacity="0.75" r="4"/>
  <circle cx="574.1881971067857" cy="460.8733380129055" fill="#ff7f0e" opacity="0.75" r="4"/>
  <circle cx="654.5097190433269" cy="417.31100004966726" fill="#1f77b4" opacity="0.75" r="4"/>
  <circle cx="695.4448759988061" cy="343.6134576298057" fill="#1f77b4" opacity="0.75" r="4"/>
  <circle cx="738.1966039660807" cy="457.9243354478103" fill="#2ca02c" opacity="0.75" r="4"/>
  <circle cx="684.8762667033485" cy="382.69544932450225" fill="#2ca02c" opacity="0.75" r="4"/>
  <circle cx="720.7254761756191" cy="359.6921646457766" fill="#2ca02c" opacity="0.75" r="4"/>
  <circle cx="731.9195397369363" cy="393.8851061315108" fill="#1f77b4" opacity="0.75" r="4"/>
  <circle cx="736.7173216000355" cy="439.4243367090763" fill="#1f77b4" opacity="0.75" r="4"/>
  <circle cx="539.3634171623385" cy="413.74134111623346" fill="#1f77b4" opacity="0.75" r="4"/>
  <circle cx="651.2493501775832" cy="360.1477532815852" fill="#2ca02c" opacity="0.75" r="4"/>
  <circle cx="622.2976825337462" cy="392.3429104284344" fill="#1f77b4" opacity="0.75" r="4"/>
  <circle cx="657.250384076704" cy="447.00574540616594" fill="#1f77b4" opacity="0.75" r="4"/>
  <circle cx="703.9258455056048" cy="374.8604845580219" fill="#1f77b4" opacity="0.75" r="4"/>
  <circle cx="682.3397425313055" cy="399.6584569471504" fill="#ff7f0e" opacity="0.75" r="4"/>
  <circle cx="380.49422734936945" cy="581.19405757501" fill="#1f77b4" opacity="0.75" r="4"/>
  <circle cx="386.11465510060486" cy="608.0676056592202" fill="#1f77b4" opacity="0.75" r="4"/>
  <circle cx="492.7552159461952" cy="556.5497177230844" fill="#ff7f0e" opacity="0.75" r="4"/>
  <circle cx="446.42326069567815" cy="555.0465780726411" fill="#ff7f0e" opacity="0.75" r="4"/>
  <circle cx="569.426814028385" cy="559.3504196158588" fill="#2ca02c" opacity="0.75" r="4"/>
  <circle cx="472.640162499785" cy="563.0229985565211" fill="#2ca02c" opacity="0.75" r="4"/>
  <circle cx="608.6922774559521" cy="589.4451609047412" fill="#2ca02c" opacity="0.75" r="4"/>
  <circle cx="519.2679294918121" cy="590.5423497471437" fill="#2ca02c" opacity="0.75" r="4"/>
  <circle cx="497.04398821563575" cy="513.7613667943797" fill="#ff7f0e" opacity="0.75" r="4"/>
  <circle cx="510.82771214648653" cy="575.2545582004511" fill="#ff7f0e" opacity="0.75" r="4"/>
  <circle cx="503.61569049449736" cy="608.6008396550128" fill="#1f77b4" opacity="0.75" r="4"/>
  <circle cx="368.31887256160473" cy="580.5787538321684" fill="#ff7f0e" opacity="0.75" r="4"/>
  <circle cx="499.67557539136925" cy="492.8787745874943" fill="#ff7f0e" opacity="0.75" r="4"/>
  <circle cx="507.77810879905917" cy="579.3312009262688" fill="#2ca02c" opacity="0.75" r="4"/>
  <circle cx="560.9213118518041" cy="561.3512057172611" fill="#ff7f0e" opacity="0.75" r="4"/>
  <circle cx="560.3875626550894" cy="585.0692553992678" fill="#2ca02c" opacity="0.75" r="4"/>
  <circle cx="496.60231797972847" cy="590.6618961674582" fill="#1f77b4" opacity="0.75" r="4"/>
  <circle cx="529.5165848321569" cy="530.5046864304173" fill="#ff7f0e" opacity="0.75" r="4"/>
  <circle cx="426.8475161288768" cy="534.1316325480066" fill="#2ca02c" opacity="0.75" r="4"/>
  <circle cx="568.1290139828061" cy="543.8794351956379" fill="#1f77b4" opacity="0.75" r="4"/>
  <circle cx="519.4719071856996" cy="617.5306619991674" fill="#ff7f0e" opacity="0.75" r="4"/>
  <circle cx="541.8743061236125" cy="551.5051503751652" fill="#ff7f0e" opacity="0.75" r="4"/>
  <circle cx="598.3479832077821" cy="631.987798481116" fill="#2ca02c" opacity="0.75" r="4"/>
  <circle cx="544.7161881239861" cy="627.2551018560771" fill="#ff7f0e" opacity="0.75" r="4"/>
  <circle cx="481.7036221727261" cy="648.8148254352197" fill="#1f77b4" opacity="0.75" r="4"/>
  <circle cx="485.55777389390124" cy="567.5215268046309" fill="#2ca02c" opacity="0.75" r="4"/>
  <circle cx="575.9823755383327" cy="558.3256953442963" fill="#1f77b4" opacity="0.75" r="4"/>
  <circle cx="564.6797210792672" cy="665.5469926792073" fill="#ff7f0e" opacity="0.75" r="4"/>
  <circle cx="508.5261788690185" cy="549.0024625807105" fill="#1f77b4" opacity="0.75" r="4"/>
  <circle cx="477.81301692188873" cy="593.3303166498447" fill="#ff7f0e" opacity="0.75" r="4"/>
  <circle cx="541.1424333678619" cy="489.6271456927463" fill="#2ca02c" opacity="0.75" r="4"/>
  <circle cx="528.1795841938504" cy="632.0280554194278" fill="#ff7f0e" opacity="0.75" r="4"/>
  <circle cx="547.4000479132083" cy="541.3670888067737" fill="#ff7f0e" opacity="0.75" r="4"/>
  <circle cx="501.3893928286355" cy="534.4298530763954" fill="#2ca02c" opacity="0.75" r="4"/>
  <circle cx="522.9338739037585" cy="605.4956792270411" fill="#ff7f0e" opacity="0.75" r="4"/>
  <circle cx="575.161413898566" cy="583.8445843900913" fill="#2ca02c" opacity="0.75" r="4"/>
  <circle cx="555.3785379283444" cy="530.3262138579669" fill="#ff7f0e" opacity="0.75" r="4"/>
  <circle cx="585.3216168893674" cy="580.2482146382526" fill="#ff7f0e" opacity="0.75" r="4"/>
  <circle cx="617.3196394177958" cy="616.7539297801336" fill="#2ca02c" opacity="0.75" r="4"/>
  <circle cx="535.8595538398436" cy="539.6387341347377" fill="#2ca02c" opacity="0.75" r="4"/>
  <circle cx="523.6383503312757" cy="623.7136340767399" fill="#ff7f0e" opacity="0.75" r="4"/>
  <circle cx="435.07440689569" cy="544.5887446442501" fill="#2ca02c" opacity="0.75" r="4"/>
  <circle cx="515.1151344680046" cy="556.4070397262677" fill="#1f77b4" opacity="0.75" r="4"/>
  <circle cx="659.1507615360101" cy="553.5844930473116" fill="#2ca02c" opacity="0.75" r="4"/>
  <circle cx="602.4455493346775" cy="597.6245546535988" fill="#ff7f0e" opacity="0.75" r="4"/>
  <circle cx="589.5234168170066" cy="555.6761725947931" fill="#ff7f0e" opacity="0.75" r="4"/>
  <circle cx="493.65736473200695" cy="572.2041940067584" fill="#1f77b4" opacity="0.75" r="4"/>
  <circle cx="494.4243686243855" cy="578.3108482013927" fill="#2ca02c" opacity="0.75" r="4"/>
  <circle cx="512.2607324382614" cy="545.453004415329" fill="#ff7f0e" opacity="0.75" r="4"/>
  <circle cx="593.3282669152578" cy="540.713465323189" fill="#2ca02c" opacity="0.75" r="4"/>
  <circle cx="571.3592916066385" cy="559.9211464984223" fill="#1f77b4" opacity="0.75" r="4"/>
  <circle cx="444.8654724952007" cy="514.1234090705605" fill="#ff7f0e" opacity="0.75" r="4"/>
  <circle cx="528.9816185346101" cy="572.8021081034461" fill="#ff7f0e" opacity="0.75" r="4"/>
  <circle cx="565.680634329462" cy="586.8996266453236" fill="#1f77b4" opacity="0.75" r="4"/>
  <circle cx="538.8204748339448" cy="606.6671718326032" fill="#ff7f0e" opacity="0.75" r="4"/>
  <circle cx="914.0" cy="244.0" fill="#d62728" opacity="0.9" r="7"/>
  <text fill="#333" font-family="Arial, Helvetica, sans-serif" font-size="16" text-anchor="middle" x="570.0" y="765">Dimension 1</text>
  <text fill="#333" font-family="Arial, Helvetica, sans-serif" font-size="16" text-anchor="middle" transform="rotate(-90,85,440.0)" x="85" y="440.0">Dimension 2</text>
  <text fill="#999" font-family="Arial, Helvetica, sans-serif" font-size="12" text-anchor="end" x="1140" y="776">Auto-generated SVG</text>
</svg>
