<?xml version="1.0" encoding="utf-8" standalone="no"?>
<!DOCTYPE svg PUBLIC "-//W3C//DTD SVG 1.1//EN"
  "http://www.w3.org/Graphics/SVG/1.1/DTD/svg11.dtd">
<svg xmlns:xlink="http://www.w3.org/1999/xlink" width="424.8pt" height="280.518281pt" viewBox="0 0 424.8 280.518281" xmlns="http://www.w3.org/2000/svg" version="1.1">
 <metadata>
  <rdf:RDF xmlns:dc="http://purl.org/dc/elements/1.1/" xmlns:cc="http://creativecommons.org/ns#" xmlns:rdf="http://www.w3.org/1999/02/22-rdf-syntax-ns#">
   <cc:Work>
    <dc:type rdf:resource="http://purl.org/dc/dcmitype/StillImage"/>
    <dc:date>2026-01-08T06:27:28.432966</dc:date>
    <dc:format>image/svg+xml</dc:format>
    <dc:creator>
     <cc:Agent>
      <dc:title>Matplotlib v3.10.7, https://matplotlib.org/</dc:title>
     </cc:Agent>
    </dc:creator>
   </cc:Work>
  </rdf:RDF>
 </metadata>
 <defs>
  <style type="text/css">*{stroke-linejoin: round; stroke-linecap: butt}</style>
 </defs>
 <g id="figure_1">
  <g id="patch_1">
   <path d="M 0 280.518281 
L 424.8 280.518281 
L 424.8 0 
L 0 0 
z
" style="fill: #ffffff"/>
  </g>
  <g id="axes_1">
   <g id="patch_2">
    <path d="M 22.984615 210.378281 
L 48.24 210.378281 
L 48.24 109.674281 
L 22.984615 109.674281 
z
" clip-path="url(#p96aa2aee16)" style="fill: #2ca02c; stroke: #ffffff; stroke-linejoin: miter"/>
   </g>
   <g id="patch_3">
    <path d="M 54.553846 210.378281 
L 79.809231 210.378281 
L 79.809231 109.674281 
L 54.553846 109.674281 
z
" clip-path="url(#p96aa2aee16)" style="fill: #d62728; stroke: #ffffff; stroke-linejoin: miter"/>
   </g>
   <g id="patch_4">
    <path d="M 86.123077 210.378281 
L 111.378462 210.378281 
L 111.378462 109.674281 
L 86.123077 109.674281 
z
" clip-path="url(#p96aa2aee16)" style="fill: #1f77b4; stroke: #ffffff; stroke-linejoin: miter"/>
   </g>
   <g id="patch_5">
    <path d="M 117.692308 210.378281 
L 142.947692 210.378281 
L 142.947692 109.674281 
L 117.692308 109.674281 
z
" clip-path="url(#p96aa2aee16)" style="fill: #ff7f0e; stroke: #ffffff; stroke-linejoin: miter"/>
   </g>
   <g id="patch_6">
    <path d="M 149.261538 210.378281 
L 174.516923 210.378281 
L 174.516923 109.674281 
L 149.261538 109.674281 
z
" clip-path="url(#p96aa2aee16)" style="fill: #2ca02c; stroke: #ffffff; stroke-linejoin: miter"/>
   </g>
   <g id="patch_7">
    <path d="M 180.830769 210.378281 
L 206.086154 210.378281 
L 206.086154 109.674281 
L 180.830769 109.674281 
z
" clip-path="url(#p96aa2aee16)" style="fill: #d62728; stroke: #ffffff; stroke-linejoin: miter"/>
   </g>
   <g id="patch_8">
    <path d="M 212.4 210.378281 
L 237.655385 210.378281 
L 237.655385 109.674281 
L 212.4 109.674281 
z
" clip-path="url(#p96aa2aee16)" style="fill: #1f77b4; stroke: #ffffff; stroke-linejoin: miter"/>
   </g>
   <g id="patch_9">
    <path d="M 243.969231 210.378281 
L 269.224615 210.378281 
L 269.224615 109.674281 
L 243.969231 109.674281 
z
" clip-path="url(#p96aa2aee16)" style="fill: #ff7f0e; stroke: #ffffff; stroke-linejoin: miter"/>
   </g>
   <g id="patch_10">
    <path d="M 275.538462 210.378281 
L 300.793846 210.378281 
L 300.793846 109.674281 
L 275.538462 109.674281 
z
" clip-path="url(#p96aa2aee16)" style="fill: #2ca02c; stroke: #ffffff; stroke-linejoin: miter"/>
   </g>
   <g id="patch_11">
    <path d="M 307.107692 210.378281 
L 332.363077 210.378281 
L 332.363077 109.674281 
L 307.107692 109.674281 
z
" clip-path="url(#p96aa2aee16)" style="fill: #d62728; stroke: #ffffff; stroke-linejoin: miter"/>
   </g>
   <g id="patch_12">
    <path d="M 338.676923 210.378281 
L 363.932308 210.378281 
L 363.932308 109.674281 
L 338.676923 109.674281 
z
" clip-path="url(#p96aa2aee16)" style="fill: #1f77b4; stroke: #ffffff; stroke-linejoin: miter"/>
   </g>
   <g id="patch_13">
    <path d="M 370.246154 210.378281 
L 395.501538 210.378281 
L 395.501538 109.674281 
L 370.246154 109.674281 
z
" clip-path="url(#p96aa2aee16)" style="fill: #ff7f0e; stroke: #ffffff; stroke-linejoin: miter"/>
   </g>
   <g id="text_1">
    <!-- A -->
    <g style="fill: #ffffff" transform="translate(30.96887 163.337531) scale(0.12 -0.12)">
     <defs>
      <path id="DejaVuSans-Bold-41" d="M 3419 850 
L 1538 850 
L 1241 0 
L 31 0 
L 1759 4666 
L 3194 4666 
L 4922 0 
L 3713 0 
L 3419 850 
z
M 1838 1716 
L 3116 1716 
L 2478 3572 
L 1838 1716 
z
" transform="scale(0.015625)"/>
     </defs>
     <use xlink:href="#DejaVuSans-Bold-41"/>
    </g>
   </g>
   <g id="text_2">
    <!-- T -->
    <g style="fill: #ffffff" transform="translate(63.088413 163.337531) scale(0.12 -0.12)">
     <defs>
      <path id="DejaVuSans-Bold-54" d="M 31 4666 
L 4331 4666 
L 4331 3756 
L 2784 3756 
L 2784 0 
L 1581 0 
L 1581 3756 
L 31 3756 
L 31 4666 
z
" transform="scale(0.015625)"/>
     </defs>
     <use xlink:href="#DejaVuSans-Bold-54"/>
    </g>
   </g>
   <g id="text_3">
    <!-- C -->
    <g style="fill: #ffffff" transform="translate(94.347332 163.337531) scale(0.12 -0.12)">
     <defs>
      <path id="DejaVuSans-Bold-43" d="M 4288 256 
Q 3956 84 3597 -3 
Q 3238 -91 2847 -91 
Q 1681 -91 1000 561 
Q 319 1213 319 2328 
Q 319 3447 1000 4098 
Q 1681 4750 2847 4750 
Q 3238 4750 3597 4662 
Q 3956 4575 4288 4403 
L 4288 3438 
Q 3953 3666 3628 3772 
Q 3303 3878 2944 3878 
Q 2300 3878 1931 3465 
Q 1563 3053 1563 2328 
Q 1563 1606 1931 1193 
Q 2300 781 2944 781 
Q 3303 781 3628 887 
Q 3953 994 4288 1222 
L 4288 256 
z
" transform="scale(0.015625)"/>
     </defs>
     <use xlink:href="#DejaVuSans-Bold-43"/>
    </g>
   </g>
   <g id="text_4">
    <!-- G -->
    <g style="fill: #ffffff" transform="translate(125.395312 163.337531) scale(0.12 -0.12)">
     <defs>
      <path id="DejaVuSans-Bold-47" d="M 4781 347 
Q 4331 128 3847 18 
Q 3363 -91 2847 -91 
Q 1681 -91 1000 561 
Q 319 1213 319 2328 
Q 319 3456 1012 4103 
Q 1706 4750 2913 4750 
Q 3378 4750 3804 4662 
Q 4231 4575 4609 4403 
L 4609 3438 
Q 4219 3659 3833 3768 
Q 3447 3878 3059 3878 
Q 2341 3878 1952 3476 
Q 1563 3075 1563 2328 
Q 1563 1588 1938 1184 
Q 2313 781 3003 781 
Q 3191 781 3352 804 
Q 3513 828 3641 878 
L 3641 1784 
L 2906 1784 
L 2906 2591 
L 4781 2591 
L 4781 347 
z
" transform="scale(0.015625)"/>
     </defs>
     <use xlink:href="#DejaVuSans-Bold-47"/>
    </g>
   </g>
   <g id="text_5">
    <!-- A -->
    <g style="fill: #ffffff" transform="translate(157.245793 163.337531) scale(0.12 -0.12)">
     <use xlink:href="#DejaVuSans-Bold-41"/>
    </g>
   </g>
   <g id="text_6">
    <!-- T -->
    <g style="fill: #ffffff" transform="translate(189.365337 163.337531) scale(0.12 -0.12)">
     <use xlink:href="#DejaVuSans-Bold-54"/>
    </g>
   </g>
   <g id="text_7">
    <!-- C -->
    <g style="fill: #ffffff" transform="translate(220.624255 163.337531) scale(0.12 -0.12)">
     <use xlink:href="#DejaVuSans-Bold-43"/>
    </g>
   </g>
   <g id="text_8">
    <!-- G -->
    <g style="fill: #ffffff" transform="translate(251.672236 163.337531) scale(0.12 -0.12)">
     <use xlink:href="#DejaVuSans-Bold-47"/>
    </g>
   </g>
   <g id="text_9">
    <!-- A -->
    <g style="fill: #ffffff" transform="translate(283.522716 163.337531) scale(0.12 -0.12)">
     <use xlink:href="#DejaVuSans-Bold-41"/>
    </g>
   </g>
   <g id="text_10">
    <!-- T -->
    <g style="fill: #ffffff" transform="translate(315.64226 163.337531) scale(0.12 -0.12)">
     <use xlink:href="#DejaVuSans-Bold-54"/>
    </g>
   </g>
   <g id="text_11">
    <!-- C -->
    <g style="fill: #ffffff" transform="translate(346.901178 163.337531) scale(0.12 -0.12)">
     <use xlink:href="#DejaVuSans-Bold-43"/>
    </g>
   </g>
   <g id="text_12">
    <!-- G -->
    <g style="fill: #ffffff" transform="translate(377.949159 163.337531) scale(0.12 -0.12)">
     <use xlink:href="#DejaVuSans-Bold-47"/>
    </g>
   </g>
   <g id="text_13">
    <!-- A. Reference Sequence -->
    <g transform="translate(7.2 15.558281) scale(0.11 -0.11)">
     <defs>
      <path id="DejaVuSans-Bold-2e" d="M 653 1209 
L 1778 1209 
L 1778 0 
L 653 0 
L 653 1209 
z
" transform="scale(0.015625)"/>
      <path id="DejaVuSans-Bold-20" transform="scale(0.015625)"/>
      <path id="DejaVuSans-Bold-52" d="M 2297 2597 
Q 2675 2597 2839 2737 
Q 3003 2878 3003 3200 
Q 3003 3519 2839 3656 
Q 2675 3794 2297 3794 
L 1791 3794 
L 1791 2597 
L 2297 2597 
z
M 1791 1766 
L 1791 0 
L 588 0 
L 588 4666 
L 2425 4666 
Q 3347 4666 3776 4356 
Q 4206 4047 4206 3378 
Q 4206 2916 3982 2619 
Q 3759 2322 3309 2181 
Q 3556 2125 3751 1926 
Q 3947 1728 4147 1325 
L 4800 0 
L 3519 0 
L 2950 1159 
Q 2778 1509 2601 1637 
Q 2425 1766 2131 1766 
L 1791 1766 
z
" transform="scale(0.015625)"/>
      <path id="DejaVuSans-Bold-65" d="M 4031 1759 
L 4031 1441 
L 1416 1441 
Q 1456 1047 1700 850 
Q 1944 653 2381 653 
Q 2734 653 3104 758 
Q 3475 863 3866 1075 
L 3866 213 
Q 3469 63 3072 -14 
Q 2675 -91 2278 -91 
Q 1328 -91 801 392 
Q 275 875 275 1747 
Q 275 2603 792 3093 
Q 1309 3584 2216 3584 
Q 3041 3584 3536 3087 
Q 4031 2591 4031 1759 
z
M 2881 2131 
Q 2881 2450 2695 2645 
Q 2509 2841 2209 2841 
Q 1884 2841 1681 2658 
Q 1478 2475 1428 2131 
L 2881 2131 
z
" transform="scale(0.015625)"/>
      <path id="DejaVuSans-Bold-66" d="M 2841 4863 
L 2841 4128 
L 2222 4128 
Q 1984 4128 1890 4042 
Q 1797 3956 1797 3744 
L 1797 3500 
L 2753 3500 
L 2753 2700 
L 1797 2700 
L 1797 0 
L 678 0 
L 678 2700 
L 122 2700 
L 122 3500 
L 678 3500 
L 678 3744 
Q 678 4316 997 4589 
Q 1316 4863 1984 4863 
L 2841 4863 
z
" transform="scale(0.015625)"/>
      <path id="DejaVuSans-Bold-72" d="M 3138 2547 
Q 2991 2616 2845 2648 
Q 2700 2681 2553 2681 
Q 2122 2681 1889 2404 
Q 1656 2128 1656 1613 
L 1656 0 
L 538 0 
L 538 3500 
L 1656 3500 
L 1656 2925 
Q 1872 3269 2151 3426 
Q 2431 3584 2822 3584 
Q 2878 3584 2943 3579 
Q 3009 3575 3134 3559 
L 3138 2547 
z
" transform="scale(0.015625)"/>
      <path id="DejaVuSans-Bold-6e" d="M 4056 2131 
L 4056 0 
L 2931 0 
L 2931 347 
L 2931 1631 
Q 2931 2084 2911 2256 
Q 2891 2428 2841 2509 
Q 2775 2619 2662 2680 
Q 2550 2741 2406 2741 
Q 2056 2741 1856 2470 
Q 1656 2200 1656 1722 
L 1656 0 
L 538 0 
L 538 3500 
L 1656 3500 
L 1656 2988 
Q 1909 3294 2193 3439 
Q 2478 3584 2822 3584 
Q 3428 3584 3742 3212 
Q 4056 2841 4056 2131 
z
" transform="scale(0.015625)"/>
      <path id="DejaVuSans-Bold-63" d="M 3366 3391 
L 3366 2478 
Q 3138 2634 2908 2709 
Q 2678 2784 2431 2784 
Q 1963 2784 1702 2511 
Q 1441 2238 1441 1747 
Q 1441 1256 1702 982 
Q 1963 709 2431 709 
Q 2694 709 2930 787 
Q 3166 866 3366 1019 
L 3366 103 
Q 3103 6 2833 -42 
Q 2563 -91 2291 -91 
Q 1344 -91 809 395 
Q 275 881 275 1747 
Q 275 2613 809 3098 
Q 1344 3584 2291 3584 
Q 2566 3584 2833 3536 
Q 3100 3488 3366 3391 
z
" transform="scale(0.015625)"/>
      <path id="DejaVuSans-Bold-53" d="M 3834 4519 
L 3834 3531 
Q 3450 3703 3084 3790 
Q 2719 3878 2394 3878 
Q 1963 3878 1756 3759 
Q 1550 3641 1550 3391 
Q 1550 3203 1689 3098 
Q 1828 2994 2194 2919 
L 2706 2816 
Q 3484 2659 3812 2340 
Q 4141 2022 4141 1434 
Q 4141 663 3683 286 
Q 3225 -91 2284 -91 
Q 1841 -91 1394 -6 
Q 947 78 500 244 
L 500 1259 
Q 947 1022 1364 901 
Q 1781 781 2169 781 
Q 2563 781 2772 912 
Q 2981 1044 2981 1288 
Q 2981 1506 2839 1625 
Q 2697 1744 2272 1838 
L 1806 1941 
Q 1106 2091 782 2419 
Q 459 2747 459 3303 
Q 459 4000 909 4375 
Q 1359 4750 2203 4750 
Q 2588 4750 2994 4692 
Q 3400 4634 3834 4519 
z
" transform="scale(0.015625)"/>
      <path id="DejaVuSans-Bold-71" d="M 2181 2772 
Q 1825 2772 1636 2509 
Q 1447 2247 1447 1747 
Q 1447 1247 1636 984 
Q 1825 722 2181 722 
Q 2541 722 2730 984 
Q 2919 1247 2919 1747 
Q 2919 2247 2730 2509 
Q 2541 2772 2181 2772 
z
M 2919 506 
Q 2688 197 2409 53 
Q 2131 -91 1766 -91 
Q 1119 -91 703 423 
Q 288 938 288 1747 
Q 288 2556 703 3067 
Q 1119 3578 1766 3578 
Q 2131 3578 2409 3434 
Q 2688 3291 2919 2981 
L 2919 3500 
L 4044 3500 
L 4044 -1331 
L 2919 -1331 
L 2919 506 
z
" transform="scale(0.015625)"/>
      <path id="DejaVuSans-Bold-75" d="M 500 1363 
L 500 3500 
L 1625 3500 
L 1625 3150 
Q 1625 2866 1622 2436 
Q 1619 2006 1619 1863 
Q 1619 1441 1641 1255 
Q 1663 1069 1716 984 
Q 1784 875 1895 815 
Q 2006 756 2150 756 
Q 2500 756 2700 1025 
Q 2900 1294 2900 1772 
L 2900 3500 
L 4019 3500 
L 4019 0 
L 2900 0 
L 2900 506 
Q 2647 200 2364 54 
Q 2081 -91 1741 -91 
Q 1134 -91 817 281 
Q 500 653 500 1363 
z
" transform="scale(0.015625)"/>
     </defs>
     <use xlink:href="#DejaVuSans-Bold-41"/>
     <use xlink:href="#DejaVuSans-Bold-2e" transform="translate(79.267578 0)"/>
     <use xlink:href="#DejaVuSans-Bold-20" transform="translate(117.255859 0)"/>
     <use xlink:href="#DejaVuSans-Bold-52" transform="translate(152.070312 0)"/>
     <use xlink:href="#DejaVuSans-Bold-65" transform="translate(229.072266 0)"/>
     <use xlink:href="#DejaVuSans-Bold-66" transform="translate(296.894531 0)"/>
     <use xlink:href="#DejaVuSans-Bold-65" transform="translate(340.400391 0)"/>
     <use xlink:href="#DejaVuSans-Bold-72" transform="translate(408.222656 0)"/>
     <use xlink:href="#DejaVuSans-Bold-65" transform="translate(457.539062 0)"/>
     <use xlink:href="#DejaVuSans-Bold-6e" transform="translate(525.361328 0)"/>
     <use xlink:href="#DejaVuSans-Bold-63" transform="translate(596.552734 0)"/>
     <use xlink:href="#DejaVuSans-Bold-65" transform="translate(655.830078 0)"/>
     <use xlink:href="#DejaVuSans-Bold-20" transform="translate(723.652344 0)"/>
     <use xlink:href="#DejaVuSans-Bold-53" transform="translate(758.466797 0)"/>
     <use xlink:href="#DejaVuSans-Bold-65" transform="translate(830.488281 0)"/>
     <use xlink:href="#DejaVuSans-Bold-71" transform="translate(898.310547 0)"/>
     <use xlink:href="#DejaVuSans-Bold-75" transform="translate(969.892578 0)"/>
     <use xlink:href="#DejaVuSans-Bold-65" transform="translate(1041.083984 0)"/>
     <use xlink:href="#DejaVuSans-Bold-6e" transform="translate(1108.90625 0)"/>
     <use xlink:href="#DejaVuSans-Bold-63" transform="translate(1180.097656 0)"/>
     <use xlink:href="#DejaVuSans-Bold-65" transform="translate(1239.375 0)"/>
    </g>
   </g>
  </g>
 </g>
 <defs>
  <clipPath id="p96aa2aee16">
   <rect x="7.2" y="21.558281" width="410.4" height="251.76"/>
  </clipPath>
 </defs>
</svg>
