<?xml version="1.0" encoding="utf-8" ?>
<svg xmlns="http://www.w3.org/2000/svg" xmlns:ev="http://www.w3.org/2001/xml-events" xmlns:xlink="http://www.w3.org/1999/xlink" baseProfile="full" height="800" version="1.1" width="1200">
  <defs>
    <marker id="id308" markerHeight="7" markerWidth="7" orient="auto" refX="6" refY="3">
      <path d="M0,0 L0,6 L6,3 z" fill="#333333"/>
    </marker>
  </defs>
  <rect fill="white" height="800" width="1200" x="0" y="0"/>
  <text fill="#111" font-family="Arial, Helvetica, sans-serif" font-size="28" font-weight="700" x="60" y="50">Figure 2: In Silico Mutagenesis</text>
  <text fill="#444" font-family="Arial, Helvetica, sans-serif" font-size="16" x="60" y="78">Panel D</text>
  <line stroke="#333" stroke-width="2" x1="140" x2="1000" y1="720" y2="720"/>
  <line stroke="#333" stroke-width="2" x1="140" x2="140" y1="160" y2="720"/>
  <circle cx="237.93655538842717" cy="531.6001522025667" fill="#2ca02c" opacity="0.75" r="4"/>
  <circle cx="443.618204201726" cy="467.7048108284633" fill="#2ca02c" opacity="0.75" r="4"/>
  <circle cx="347.5660751278783" cy="555.403876436052" fill="#2ca02c" opacity="0.75" r="4"/>
  <circle cx="415.1423213558896" cy="508.93575439302094" fill="#ff7f0e" opacity="0.75" r="4"/>
  <circle cx="344.36047585323456" cy="474.1867657760313" fill="#ff7f0e" opacity="0.75" r="4"/>
  <circle cx="318.57995184836363" cy="565.9139083660917" fill="#1f77b4" opacity="0.75" r="4"/>
  <circle cx="340.80028839948363" cy="516.8128669752962" fill="#ff7f0e" opacity="0.75" r="4"/>
  <circle cx="254.34903347158505" cy="505.07663460116817" fill="#1f77b4" opacity="0.75" r="4"/>
  <circle cx="315.28496153254133" cy="597.8708852061717" fill="#2ca02c" opacity="0.75" r="4"/>
  <circle cx="365.0156709981951" cy="551.3817693270325" fill="#ff7f0e" opacity="0.75" r="4"/>
  <circle cx="431.9476709879698" cy="481.2553567674227" fill="#1f77b4" opacity="0.75" r="4"/>
  <circle cx="439.0294880966641" cy="525.8657422609504" fill="#1f77b4" opacity="0.75" r="4"/>
  <circle cx="374.74929279311345" cy="485.9856776521471" fill="#ff7f0e" opacity="0.75" r="4"/>
  <circle cx="237.89203477985234" cy="541.5870456793584" fill="#ff7f0e" opacity="0.75" r="4"/>
  <circle cx="469.6492962737735" cy="431.5325101457473" fill="#1f77b4" opacity="0.75" r="4"/>
  <circle cx="399.91640218623905" cy="475.0767095184404" fill="#ff7f0e" opacity="0.75" r="4"/>
  <circle cx="249.82395636146987" cy="530.3750417759493" fill="#ff7f0e" opacity="0.75" r="4"/>
  <circle cx="306.744279537978" cy="556.0975868838402" fill="#ff7f0e" opacity="0.75" r="4"/>
  <circle cx="325.7004569665329" cy="477.3788628384403" fill="#1f77b4" opacity="0.75" r="4"/>
  <circle cx="426.66522291856114" cy="537.8351522543892" fill="#ff7f0e" opacity="0.75" r="4"/>
  <circle cx="206.2311497882788" cy="426.4329239748885" fill="#ff7f0e" opacity="0.75" r="4"/>
  <circle cx="294.0952912177445" cy="524.2186925729262" fill="#2ca02c" opacity="0.75" r="4"/>
  <circle cx="312.39395022593965" cy="479.3843050654139" fill="#ff7f0e" opacity="0.75" r="4"/>
  <circle cx="376.1685974140619" cy="411.03310365359175" fill="#2ca02c" opacity="0.75" r="4"/>
  <circle cx="397.4017717564348" cy="489.14085599244004" fill="#2ca02c" opacity="0.75" r="4"/>
  <circle cx="390.52666097836925" cy="534.152697545634" fill="#2ca02c" opacity="0.75" r="4"/>
  <circle cx="398.8676026166087" cy="525.0070555309908" fill="#2ca02c" opacity="0.75" r="4"/>
  <circle cx="366.3730204691582" cy="624.1649519155777" fill="#ff7f0e" opacity="0.75" r="4"/>
  <circle cx="492.51277725485215" cy="512.2209940058444" fill="#ff7f0e" opacity="0.75" r="4"/>
  <circle cx="402.99995120281386" cy="507.3872172285965" fill="#ff7f0e" opacity="0.75" r="4"/>
  <circle cx="477.2362337368412" cy="520.9484366339752" fill="#ff7f0e" opacity="0.75" r="4"/>
  <circle cx="444.6056647919055" cy="523.5578811593555" fill="#ff7f0e" opacity="0.75" r="4"/>
  <circle cx="354.8305193748892" cy="480.0859150789342" fill="#1f77b4" opacity="0.75" r="4"/>
  <circle cx="383.0180772968878" cy="585.0884553151085" fill="#ff7f0e" opacity="0.75" r="4"/>
  <circle cx="308.0981181871347" cy="533.1947639503935" fill="#ff7f0e" opacity="0.75" r="4"/>
  <circle cx="268.88641688482085" cy="521.3915763780747" fill="#2ca02c" opacity="0.75" r="4"/>
  <circle cx="296.4634384637394" cy="508.14366962956416" fill="#2ca02c" opacity="0.75" r="4"/>
  <circle cx="459.21254501337415" cy="501.04566388812617" fill="#2ca02c" opacity="0.75" r="4"/>
  <circle cx="439.56031988390566" cy="449.86535194969025" fill="#1f77b4" opacity="0.75" r="4"/>
  <circle cx="485.99416731883235" cy="557.9098481277863" fill="#ff7f0e" opacity="0.75" r="4"/>
  <circle cx="418.2432922372763" cy="488.75579601532434" fill="#ff7f0e" opacity="0.75" r="4"/>
  <circle cx="532.2001976784272" cy="459.54227915400253" fill="#2ca02c" opacity="0.75" r="4"/>
  <circle cx="365.15534362221456" cy="514.9706744588723" fill="#1f77b4" opacity="0.75" r="4"/>
  <circle cx="439.5306527015968" cy="475.00071303341605" fill="#1f77b4" opacity="0.75" r="4"/>
  <circle cx="406.8346457802753" cy="504.68904886785833" fill="#1f77b4" opacity="0.75" r="4"/>
  <circle cx="343.39261283733094" cy="543.3799710749751" fill="#ff7f0e" opacity="0.75" r="4"/>
  <circle cx="375.05923564895716" cy="505.358224832844" fill="#2ca02c" opacity="0.75" r="4"/>
  <circle cx="449.62243124308503" cy="545.5404581089074" fill="#1f77b4" opacity="0.75" r="4"/>
  <circle cx="447.38778542848496" cy="536.9986981957522" fill="#ff7f0e" opacity="0.75" r="4"/>
  <circle cx="261.13649387818396" cy="533.300112786039" fill="#2ca02c" opacity="0.75" r="4"/>
  <circle cx="386.3189314419459" cy="510.5966783824314" fill="#1f77b4" opacity="0.75" r="4"/>
  <circle cx="386.8658629246391" cy="528.3943171739977" fill="#ff7f0e" opacity="0.75" r="4"/>
  <circle cx="515.6293145023299" cy="565.6191301220628" fill="#2ca02c" opacity="0.75" r="4"/>
  <circle cx="423.71537560117815" cy="515.6928714602966" fill="#1f77b4" opacity="0.75" r="4"/>
  <circle cx="297.1774664067502" cy="613.8905556917341" fill="#2ca02c" opacity="0.75" r="4"/>
  <circle cx="513.1534405555201" cy="406.02676049339016" fill="#2ca02c" opacity="0.75" r="4"/>
  <circle cx="700.9511779488297" cy="388.16785739713373" fill="#ff7f0e" opacity="0.75" r="4"/>
  <circle cx="688.2791520720243" cy="522.9778471803409" fill="#ff7f0e" opacity="0.75" r="4"/>
  <circle cx="688.8756728559131" cy="363.6485841324774" fill="#ff7f0e" opacity="0.75" r="4"/>
  <circle cx="667.719697068016" cy="439.30801610332907" fill="#ff7f0e" opacity="0.75" r="4"/>
  <circle cx="678.7227802978799" cy="366.1979630507735" fill="#ff7f0e" opacity="0.75" r="4"/>
  <circle cx="632.9853785494468" cy="434.0351956640225" fill="#1f77b4" opacity="0.75" r="4"/>
  <circle cx="642.7141196856885" cy="474.82781337485534" fill="#2ca02c" opacity="0.75" r="4"/>
  <circle cx="685.9931924013787" cy="445.54480348223467" fill="#2ca02c" opacity="0.75" r="4"/>
  <circle cx="656.1281594776307" cy="419.2713122027991" fill="#2ca02c" opacity="0.75" r="4"/>
  <circle cx="623.7846856607317" cy="444.4778599203811" fill="#1f77b4" opacity="0.75" r="4"/>
  <circle cx="625.4185673108659" cy="405.53748526747773" fill="#ff7f0e" opacity="0.75" r="4"/>
  <circle cx="645.1544940645124" cy="435.6083275528146" fill="#ff7f0e" opacity="0.75" r="4"/>
  <circle cx="638.4334034257922" cy="309.8530077260386" fill="#1f77b4" opacity="0.75" r="4"/>
  <circle cx="731.8788416296412" cy="441.9604826879904" fill="#2ca02c" opacity="0.75" r="4"/>
  <circle cx="544.1427755704981" cy="380.52003730298475" fill="#ff7f0e" opacity="0.75" r="4"/>
  <circle cx="678.2576530397372" cy="477.17541481279005" fill="#1f77b4" opacity="0.75" r="4"/>
  <circle cx="626.7285288717993" cy="348.0905079367167" fill="#1f77b4" opacity="0.75" r="4"/>
  <circle cx="723.3577527579015" cy="405.6787916961598" fill="#ff7f0e" opacity="0.75" r="4"/>
  <circle cx="716.0427206994469" cy="365.95047459223946" fill="#1f77b4" opacity="0.75" r="4"/>
  <circle cx="772.368995830117" cy="422.334471050111" fill="#ff7f0e" opacity="0.75" r="4"/>
  <circle cx="642.8373499818512" cy="382.0835760047166" fill="#ff7f0e" opacity="0.75" r="4"/>
  <circle cx="743.3445186095543" cy="400.54514376986526" fill="#1f77b4" opacity="0.75" r="4"/>
  <circle cx="684.488242559926" cy="355.93939156593615" fill="#2ca02c" opacity="0.75" r="4"/>
  <circle cx="666.2579990641626" cy="504.7565432728329" fill="#2ca02c" opacity="0.75" r="4"/>
  <circle cx="622.8602188611892" cy="470.53410735373814" fill="#2ca02c" opacity="0.75" r="4"/>
  <circle cx="753.3273871322991" cy="377.27028994707234" fill="#2ca02c" opacity="0.75" r="4"/>
  <circle cx="746.2299013030242" cy="454.52768609367155" fill="#ff7f0e" opacity="0.75" r="4"/>
  <circle cx="697.2321535999552" cy="407.07342335971924" fill="#2ca02c" opacity="0.75" r="4"/>
  <circle cx="658.3846154639651" cy="360.37538998356825" fill="#ff7f0e" opacity="0.75" r="4"/>
  <circle cx="638.8410556863257" cy="309.05195208643" fill="#ff7f0e" opacity="0.75" r="4"/>
  <circle cx="689.483569107124" cy="366.3773268152021" fill="#1f77b4" opacity="0.75" r="4"/>
  <circle cx="614.6276701522454" cy="334.27901192720833" fill="#1f77b4" opacity="0.75" r="4"/>
  <circle cx="745.2478496891681" cy="365.99969683883614" fill="#ff7f0e" opacity="0.75" r="4"/>
  <circle cx="815.302889097381" cy="479.6719370716869" fill="#1f77b4" opacity="0.75" r="4"/>
  <circle cx="736.963247103785" cy="474.60404341402995" fill="#2ca02c" opacity="0.75" r="4"/>
  <circle cx="779.9983741934797" cy="416.9935911259262" fill="#ff7f0e" opacity="0.75" r="4"/>
  <circle cx="660.232340544392" cy="412.85492159493674" fill="#1f77b4" opacity="0.75" r="4"/>
  <circle cx="733.7927945645031" cy="446.2629454238124" fill="#1f77b4" opacity="0.75" r="4"/>
  <circle cx="589.0054066038892" cy="380.9873489351439" fill="#1f77b4" opacity="0.75" r="4"/>
  <circle cx="690.236103896528" cy="414.88915156747083" fill="#ff7f0e" opacity="0.75" r="4"/>
  <circle cx="581.5108033102381" cy="326.0708143201979" fill="#2ca02c" opacity="0.75" r="4"/>
  <circle cx="694.455711190856" cy="362.886498553569" fill="#2ca02c" opacity="0.75" r="4"/>
  <circle cx="634.3910906566005" cy="399.5718179746413" fill="#1f77b4" opacity="0.75" r="4"/>
  <circle cx="576.0398133351165" cy="360.944787855653" fill="#2ca02c" opacity="0.75" r="4"/>
  <circle cx="606.1661802303842" cy="499.13373325037463" fill="#1f77b4" opacity="0.75" r="4"/>
  <circle cx="616.4177458549" cy="426.19695459704417" fill="#1f77b4" opacity="0.75" r="4"/>
  <circle cx="723.7914921731982" cy="398.5401318114763" fill="#ff7f0e" opacity="0.75" r="4"/>
  <circle cx="576.0348227312296" cy="489.72193819889554" fill="#1f77b4" opacity="0.75" r="4"/>
  <circle cx="626.567050186345" cy="385.63485319211003" fill="#ff7f0e" opacity="0.75" r="4"/>
  <circle cx="666.0366658375214" cy="424.1651328270741" fill="#1f77b4" opacity="0.75" r="4"/>
  <circle cx="681.8862763399003" cy="503.9072056000562" fill="#1f77b4" opacity="0.75" r="4"/>
  <circle cx="667.3788248010437" cy="408.86867635789747" fill="#ff7f0e" opacity="0.75" r="4"/>
  <circle cx="695.5339995539155" cy="406.70386066014765" fill="#1f77b4" opacity="0.75" r="4"/>
  <circle cx="587.2774013900603" cy="424.37429678181394" fill="#ff7f0e" opacity="0.75" r="4"/>
  <circle cx="597.7181419674007" cy="556.9132235031226" fill="#1f77b4" opacity="0.75" r="4"/>
  <circle cx="561.6974135158018" cy="539.9415607243211" fill="#1f77b4" opacity="0.75" r="4"/>
  <circle cx="543.0512146338151" cy="560.3798992103722" fill="#1f77b4" opacity="0.75" r="4"/>
  <circle cx="547.5362740842897" cy="608.5539339197157" fill="#ff7f0e" opacity="0.75" r="4"/>
  <circle cx="463.53085643957945" cy="632.813540543774" fill="#ff7f0e" opacity="0.75" r="4"/>
  <circle cx="522.5366954730798" cy="611.3699368328226" fill="#ff7f0e" opacity="0.75" r="4"/>
  <circle cx="511.9551446255605" cy="560.8958107324906" fill="#2ca02c" opacity="0.75" r="4"/>
  <circle cx="506.26338775499534" cy="615.4175300229981" fill="#ff7f0e" opacity="0.75" r="4"/>
  <circle cx="459.91145610146947" cy="635.4447030717948" fill="#1f77b4" opacity="0.75" r="4"/>
  <circle cx="485.83467037575195" cy="601.9937016704193" fill="#1f77b4" opacity="0.75" r="4"/>
  <circle cx="489.5273992138268" cy="526.8939384238015" fill="#ff7f0e" opacity="0.75" r="4"/>
  <circle cx="565.4423817742065" cy="594.2229238838934" fill="#ff7f0e" opacity="0.75" r="4"/>
  <circle cx="576.1822343814157" cy="553.3630195668643" fill="#1f77b4" opacity="0.75" r="4"/>
  <circle cx="581.56020707863" cy="621.4453136736969" fill="#ff7f0e" opacity="0.75" r="4"/>
  <circle cx="461.34003902052586" cy="594.8619979251623" fill="#2ca02c" opacity="0.75" r="4"/>
  <circle cx="450.0610681623028" cy="604.9461733861963" fill="#1f77b4" opacity="0.75" r="4"/>
  <circle cx="571.1925313938673" cy="545.7449658002581" fill="#1f77b4" opacity="0.75" r="4"/>
  <circle cx="470.03319225431824" cy="560.8588134582865" fill="#1f77b4" opacity="0.75" r="4"/>
  <circle cx="510.04880939004374" cy="616.951906620732" fill="#ff7f0e" opacity="0.75" r="4"/>
  <circle cx="501.1347098089994" cy="548.0396638374539" fill="#1f77b4" opacity="0.75" r="4"/>
  <circle cx="519.6956115173729" cy="529.2936804679207" fill="#1f77b4" opacity="0.75" r="4"/>
  <circle cx="473.49749137986043" cy="531.2075932873125" fill="#2ca02c" opacity="0.75" r="4"/>
  <circle cx="470.4816761093777" cy="602.8733125786546" fill="#1f77b4" opacity="0.75" r="4"/>
  <circle cx="469.95596965967854" cy="510.2497663207099" fill="#ff7f0e" opacity="0.75" r="4"/>
  <circle cx="448.6407663883346" cy="478.6545290253294" fill="#2ca02c" opacity="0.75" r="4"/>
  <circle cx="540.2168652660098" cy="579.0475772169136" fill="#1f77b4" opacity="0.75" r="4"/>
  <circle cx="497.7285744125035" cy="576.9349317181111" fill="#2ca02c" opacity="0.75" r="4"/>
  <circle cx="502.89799436923846" cy="592.9614730802421" fill="#2ca02c" opacity="0.75" r="4"/>
  <circle cx="546.6496454369228" cy="614.1608051260437" fill="#ff7f0e" opacity="0.75" r="4"/>
  <circle cx="597.0238074501387" cy="562.3494042260697" fill="#2ca02c" opacity="0.75" r="4"/>
  <circle cx="593.560232422022" cy="551.1787505869079" fill="#1f77b4" opacity="0.75" r="4"/>
  <circle cx="517.7734932696792" cy="655.158098024186" fill="#2ca02c" opacity="0.75" r="4"/>
  <circle cx="479.2978367705634" cy="604.2407666764852" fill="#ff7f0e" opacity="0.75" r="4"/>
  <circle cx="580.4104958524681" cy="605.0235598982196" fill="#1f77b4" opacity="0.75" r="4"/>
  <circle cx="485.4912463812348" cy="533.6078838516247" fill="#2ca02c" opacity="0.75" r="4"/>
  <circle cx="436.77214285771777" cy="549.0357341252306" fill="#ff7f0e" opacity="0.75" r="4"/>
  <circle cx="524.5423820521114" cy="650.167707065843" fill="#1f77b4" opacity="0.75" r="4"/>
  <circle cx="501.49540895291517" cy="578.5281146256385" fill="#1f77b4" opacity="0.75" r="4"/>
  <circle cx="496.90096587523055" cy="578.9777171954285" fill="#2ca02c" opacity="0.75" r="4"/>
  <circle cx="500.3646114946603" cy="568.5521678997368" fill="#2ca02c" opacity="0.75" r="4"/>
  <circle cx="520.0544689510876" cy="538.8946476899844" fill="#2ca02c" opacity="0.75" r="4"/>
  <circle cx="535.4902342231915" cy="537.5864787984658" fill="#2ca02c" opacity="0.75" r="4"/>
  <circle cx="567.3884480239202" cy="616.60820982424" fill="#2ca02c" opacity="0.75" r="4"/>
  <circle cx="495.8333036888884" cy="560.6664995208795" fill="#1f77b4" opacity="0.75" r="4"/>
  <circle cx="419.3409674459674" cy="530.7624174883584" fill="#2ca02c" opacity="0.75" r="4"/>
  <circle cx="446.2432248783976" cy="630.1857710693579" fill="#1f77b4" opacity="0.75" r="4"/>
  <circle cx="678.3535459796409" cy="630.4187996873899" fill="#2ca02c" opacity="0.75" r="4"/>
  <circle cx="460.04962951722916" cy="606.3044629623778" fill="#ff7f0e" opacity="0.75" r="4"/>
  <circle cx="617.1279433657652" cy="577.8831130107787" fill="#ff7f0e" opacity="0.75" r="4"/>
  <circle cx="549.0486924382318" cy="578.060959701849" fill="#ff7f0e" opacity="0.75" r="4"/>
  <circle cx="500.85257410586036" cy="521.9505183334006" fill="#1f77b4" opacity="0.75" r="4"/>
  <circle cx="600.0761604706734" cy="623.4231287945474" fill="#1f77b4" opacity="0.75" r="4"/>
  <circle cx="537.986028848512" cy="671.3715081327103" fill="#ff7f0e" opacity="0.75" r="4"/>
  <circle cx="522.7640397867372" cy="564.3892981463248" fill="#2ca02c" opacity="0.75" r="4"/>
  <circle cx="445.5172342907645" cy="561.8977785878691" fill="#1f77b4" opacity="0.75" r="4"/>
  <circle cx="914.0" cy="244.0" fill="#d62728" opacity="0.9" r="7"/>
  <text fill="#333" font-family="Arial, Helvetica, sans-serif" font-size="16" text-anchor="middle" x="570.0" y="765">Dimension 1</text>
  <text fill="#333" font-family="Arial, Helvetica, sans-serif" font-size="16" text-anchor="middle" transform="rotate(-90,85,440.0)" x="85" y="440.0">Dimension 2</text>
  <text fill="#999" font-family="Arial, Helvetica, sans-serif" font-size="12" text-anchor="end" x="1140" y="776">Auto-generated SVG</text>
</svg>
