<?xml version="1.0" encoding="UTF-8" standalone="no"?>
<!DOCTYPE svg PUBLIC "-//W3C//DTD SVG 1.1//EN"
 "http://www.w3.org/Graphics/SVG/1.1/DTD/svg11.dtd">
<!-- Generated by graphviz version 2.43.0 (0)
 -->
<!-- Title: tfmodisco Pages: 1 -->
<svg width="720pt" height="92pt"
 viewBox="0.00 0.00 720.00 91.83" xmlns="http://www.w3.org/2000/svg" xmlns:xlink="http://www.w3.org/1999/xlink">
<g id="graph0" class="graph" transform="scale(2.09 2.09) rotate(0) translate(4 40)">
<title>tfmodisco</title>
<polygon fill="white" stroke="transparent" points="-4,4 -4,-40 341,-40 341,4 -4,4"/>
<!-- attr -->
<g id="node1" class="node">
<title>attr</title>
<path fill="#aec7e8" stroke="black" stroke-width="1.5" d="M46,-36C46,-36 12,-36 12,-36 6,-36 0,-30 0,-24 0,-24 0,-12 0,-12 0,-6 6,0 12,0 12,0 46,0 46,0 52,0 58,-6 58,-12 58,-12 58,-24 58,-24 58,-30 52,-36 46,-36"/>
<text text-anchor="middle" x="29" y="-20.8" font-family="Arial" font-size="9.00">Attribution</text>
<text text-anchor="middle" x="29" y="-10.8" font-family="Arial" font-size="9.00">Scores</text>
</g>
<!-- seqlets -->
<g id="node2" class="node">
<title>seqlets</title>
<path fill="#98df8a" stroke="black" stroke-width="1.5" d="M136,-36C136,-36 106,-36 106,-36 100,-36 94,-30 94,-24 94,-24 94,-12 94,-12 94,-6 100,0 106,0 106,0 136,0 136,0 142,0 148,-6 148,-12 148,-12 148,-24 148,-24 148,-30 142,-36 136,-36"/>
<text text-anchor="middle" x="121" y="-20.8" font-family="Arial" font-size="9.00">Extract</text>
<text text-anchor="middle" x="121" y="-10.8" font-family="Arial" font-size="9.00">Seqlets</text>
</g>
<!-- attr&#45;&gt;seqlets -->
<g id="edge1" class="edge">
<title>attr&#45;&gt;seqlets</title>
<path fill="none" stroke="black" d="M58.48,-18C66.44,-18 75.21,-18 83.57,-18"/>
<polygon fill="black" stroke="black" points="83.85,-21.5 93.85,-18 83.85,-14.5 83.85,-21.5"/>
</g>
<!-- cluster -->
<g id="node3" class="node">
<title>cluster</title>
<path fill="#ffbb78" stroke="black" stroke-width="1.5" d="M226,-36C226,-36 196,-36 196,-36 190,-36 184,-30 184,-24 184,-24 184,-12 184,-12 184,-6 190,0 196,0 196,0 226,0 226,0 232,0 238,-6 238,-12 238,-12 238,-24 238,-24 238,-30 232,-36 226,-36"/>
<text text-anchor="middle" x="211" y="-20.8" font-family="Arial" font-size="9.00">Cluster</text>
<text text-anchor="middle" x="211" y="-10.8" font-family="Arial" font-size="9.00">Seqlets</text>
</g>
<!-- seqlets&#45;&gt;cluster -->
<g id="edge2" class="edge">
<title>seqlets&#45;&gt;cluster</title>
<path fill="none" stroke="black" d="M148.4,-18C156.39,-18 165.31,-18 173.82,-18"/>
<polygon fill="black" stroke="black" points="173.92,-21.5 183.92,-18 173.92,-14.5 173.92,-21.5"/>
</g>
<!-- motifs -->
<g id="node4" class="node">
<title>motifs</title>
<path fill="#2ca02c" stroke="black" stroke-width="1.5" d="M325,-36C325,-36 286,-36 286,-36 280,-36 274,-30 274,-24 274,-24 274,-12 274,-12 274,-6 280,0 286,0 286,0 325,0 325,0 331,0 337,-6 337,-12 337,-12 337,-24 337,-24 337,-30 331,-36 325,-36"/>
<text text-anchor="middle" x="305.5" y="-20.8" font-family="Arial" font-size="9.00" fill="white">Discovered</text>
<text text-anchor="middle" x="305.5" y="-10.8" font-family="Arial" font-size="9.00" fill="white">Motifs</text>
</g>
<!-- cluster&#45;&gt;motifs -->
<g id="edge3" class="edge">
<title>cluster&#45;&gt;motifs</title>
<path fill="none" stroke="black" d="M238.26,-18C246.24,-18 255.21,-18 263.91,-18"/>
<polygon fill="black" stroke="black" points="263.92,-21.5 273.92,-18 263.92,-14.5 263.92,-21.5"/>
</g>
</g>
</svg>
