<?xml version="1.0" encoding="UTF-8" standalone="no"?>
<!DOCTYPE svg PUBLIC "-//W3C//DTD SVG 1.1//EN"
 "http://www.w3.org/Graphics/SVG/1.1/DTD/svg11.dtd">
<!-- Generated by graphviz version 2.43.0 (0)
 -->
<!-- Title: task_heads Pages: 1 -->
<svg width="552pt" height="432pt"
 viewBox="0.00 0.00 552.08 432.00" xmlns="http://www.w3.org/2000/svg" xmlns:xlink="http://www.w3.org/1999/xlink">
<g id="graph0" class="graph" transform="scale(2.25 2.25) rotate(0) translate(4 187.6)">
<title>task_heads</title>
<polygon fill="white" stroke="transparent" points="-4,4 -4,-187.6 240.86,-187.6 240.86,4 -4,4"/>
<!-- shared -->
<g id="node1" class="node">
<title>shared</title>
<path fill="#9467bd" stroke="black" stroke-width="1.5" d="M149.5,-183.6C149.5,-183.6 93.5,-183.6 93.5,-183.6 87.5,-183.6 81.5,-177.6 81.5,-171.6 81.5,-171.6 81.5,-159.6 81.5,-159.6 81.5,-153.6 87.5,-147.6 93.5,-147.6 93.5,-147.6 149.5,-147.6 149.5,-147.6 155.5,-147.6 161.5,-153.6 161.5,-159.6 161.5,-159.6 161.5,-171.6 161.5,-171.6 161.5,-177.6 155.5,-183.6 149.5,-183.6"/>
<text text-anchor="middle" x="121.5" y="-168.4" font-family="Arial" font-size="9.00" fill="white">Shared</text>
<text text-anchor="middle" x="121.5" y="-158.4" font-family="Arial" font-size="9.00" fill="white">Representation</text>
</g>
<!-- classify -->
<g id="node2" class="node">
<title>classify</title>
<path fill="#1f77b4" stroke="black" stroke-width="1.5" d="M59,-111.6C59,-111.6 12,-111.6 12,-111.6 6,-111.6 0,-105.6 0,-99.6 0,-99.6 0,-87.6 0,-87.6 0,-81.6 6,-75.6 12,-75.6 12,-75.6 59,-75.6 59,-75.6 65,-75.6 71,-81.6 71,-87.6 71,-87.6 71,-99.6 71,-99.6 71,-105.6 65,-111.6 59,-111.6"/>
<text text-anchor="middle" x="35.5" y="-96.4" font-family="Arial" font-size="9.00" fill="white">Classification</text>
<text text-anchor="middle" x="35.5" y="-86.4" font-family="Arial" font-size="9.00" fill="white">Head</text>
</g>
<!-- shared&#45;&gt;classify -->
<g id="edge1" class="edge">
<title>shared&#45;&gt;classify</title>
<path fill="none" stroke="black" d="M100.24,-147.29C89.41,-138.48 76.08,-127.63 64.34,-118.07"/>
<polygon fill="black" stroke="black" points="66.48,-115.3 56.51,-111.7 62.06,-120.73 66.48,-115.3"/>
</g>
<!-- regress -->
<g id="node3" class="node">
<title>regress</title>
<path fill="#2ca02c" stroke="black" stroke-width="1.5" d="M141.5,-111.6C141.5,-111.6 101.5,-111.6 101.5,-111.6 95.5,-111.6 89.5,-105.6 89.5,-99.6 89.5,-99.6 89.5,-87.6 89.5,-87.6 89.5,-81.6 95.5,-75.6 101.5,-75.6 101.5,-75.6 141.5,-75.6 141.5,-75.6 147.5,-75.6 153.5,-81.6 153.5,-87.6 153.5,-87.6 153.5,-99.6 153.5,-99.6 153.5,-105.6 147.5,-111.6 141.5,-111.6"/>
<text text-anchor="middle" x="121.5" y="-96.4" font-family="Arial" font-size="9.00" fill="white">Regression</text>
<text text-anchor="middle" x="121.5" y="-86.4" font-family="Arial" font-size="9.00" fill="white">Head</text>
</g>
<!-- shared&#45;&gt;regress -->
<g id="edge2" class="edge">
<title>shared&#45;&gt;regress</title>
<path fill="none" stroke="black" d="M121.5,-147.29C121.5,-139.58 121.5,-130.31 121.5,-121.71"/>
<polygon fill="black" stroke="black" points="125,-121.7 121.5,-111.7 118,-121.7 125,-121.7"/>
</g>
<!-- survival -->
<g id="node4" class="node">
<title>survival</title>
<path fill="#ff7f0e" stroke="black" stroke-width="1.5" d="M215.5,-111.6C215.5,-111.6 185.5,-111.6 185.5,-111.6 179.5,-111.6 173.5,-105.6 173.5,-99.6 173.5,-99.6 173.5,-87.6 173.5,-87.6 173.5,-81.6 179.5,-75.6 185.5,-75.6 185.5,-75.6 215.5,-75.6 215.5,-75.6 221.5,-75.6 227.5,-81.6 227.5,-87.6 227.5,-87.6 227.5,-99.6 227.5,-99.6 227.5,-105.6 221.5,-111.6 215.5,-111.6"/>
<text text-anchor="middle" x="200.5" y="-96.4" font-family="Arial" font-size="9.00">Survival</text>
<text text-anchor="middle" x="200.5" y="-86.4" font-family="Arial" font-size="9.00">Head</text>
</g>
<!-- shared&#45;&gt;survival -->
<g id="edge3" class="edge">
<title>shared&#45;&gt;survival</title>
<path fill="none" stroke="black" d="M141.03,-147.29C150.88,-138.56 162.99,-127.84 173.7,-118.35"/>
<polygon fill="black" stroke="black" points="176.03,-120.95 181.2,-111.7 171.39,-115.71 176.03,-120.95"/>
</g>
<!-- label -->
<g id="node5" class="node">
<title>label</title>
<ellipse fill="#aec7e8" stroke="black" stroke-width="1.5" cx="35.5" cy="-19.8" rx="35.21" ry="19.6"/>
<text text-anchor="middle" x="35.5" y="-22.6" font-family="Arial" font-size="9.00">Disease</text>
<text text-anchor="middle" x="35.5" y="-12.6" font-family="Arial" font-size="9.00">Type</text>
</g>
<!-- classify&#45;&gt;label -->
<g id="edge4" class="edge">
<title>classify&#45;&gt;label</title>
<path fill="none" stroke="black" d="M35.5,-75.58C35.5,-67.92 35.5,-58.65 35.5,-49.93"/>
<polygon fill="black" stroke="black" points="39,-49.71 35.5,-39.71 32,-49.71 39,-49.71"/>
</g>
<!-- score -->
<g id="node6" class="node">
<title>score</title>
<ellipse fill="#98df8a" stroke="black" stroke-width="1.5" cx="119.5" cy="-19.8" rx="28.98" ry="19.6"/>
<text text-anchor="middle" x="119.5" y="-22.6" font-family="Arial" font-size="9.00">Risk</text>
<text text-anchor="middle" x="119.5" y="-12.6" font-family="Arial" font-size="9.00">Score</text>
</g>
<!-- regress&#45;&gt;score -->
<g id="edge5" class="edge">
<title>regress&#45;&gt;score</title>
<path fill="none" stroke="black" d="M121.03,-75.58C120.81,-67.92 120.55,-58.65 120.31,-49.93"/>
<polygon fill="black" stroke="black" points="123.8,-49.61 120.03,-39.71 116.81,-49.81 123.8,-49.61"/>
</g>
<!-- time -->
<g id="node7" class="node">
<title>time</title>
<ellipse fill="#ffbb78" stroke="black" stroke-width="1.5" cx="201.5" cy="-19.8" rx="35.21" ry="19.6"/>
<text text-anchor="middle" x="201.5" y="-22.6" font-family="Arial" font-size="9.00">Survival</text>
<text text-anchor="middle" x="201.5" y="-12.6" font-family="Arial" font-size="9.00">Time</text>
</g>
<!-- survival&#45;&gt;time -->
<g id="edge6" class="edge">
<title>survival&#45;&gt;time</title>
<path fill="none" stroke="black" d="M200.74,-75.58C200.84,-67.92 200.97,-58.65 201.09,-49.93"/>
<polygon fill="black" stroke="black" points="204.6,-49.76 201.24,-39.71 197.6,-49.66 204.6,-49.76"/>
</g>
</g>
</svg>
