<?xml version="1.0" encoding="utf-8" ?>
<svg xmlns="http://www.w3.org/2000/svg" xmlns:ev="http://www.w3.org/2001/xml-events" xmlns:xlink="http://www.w3.org/1999/xlink" baseProfile="full" height="800" version="1.1" width="1200">
  <defs>
    <marker id="id142" markerHeight="7" markerWidth="7" orient="auto" refX="6" refY="3">
      <path d="M0,0 L0,6 L6,3 z" fill="#333333"/>
    </marker>
  </defs>
  <rect fill="white" height="800" width="1200" x="0" y="0"/>
  <text fill="#111" font-family="Arial, Helvetica, sans-serif" font-size="28" font-weight="700" x="60" y="50">Figure 15.1: Emergent Properties of PLMs (Four-Panel)</text>
  <text fill="#444" font-family="Arial, Helvetica, sans-serif" font-size="16" x="60" y="78">Panel D</text>
  <line stroke="#333" stroke-width="2" x1="140" x2="1000" y1="720" y2="720"/>
  <line stroke="#333" stroke-width="2" x1="140" x2="140" y1="160" y2="720"/>
  <circle cx="396.31557875145216" cy="513.6051565226267" fill="#ff7f0e" opacity="0.75" r="4"/>
  <circle cx="271.103903853741" cy="487.28222655334673" fill="#2ca02c" opacity="0.75" r="4"/>
  <circle cx="486.95286385165303" cy="507.7869260634472" fill="#ff7f0e" opacity="0.75" r="4"/>
  <circle cx="422.4160541785721" cy="494.77168825865664" fill="#ff7f0e" opacity="0.75" r="4"/>
  <circle cx="420.2466980165361" cy="568.7591733097607" fill="#ff7f0e" opacity="0.75" r="4"/>
  <circle cx="402.5093338573463" cy="429.42098644334317" fill="#2ca02c" opacity="0.75" r="4"/>
  <circle cx="538.0077066586894" cy="524.4944380497849" fill="#ff7f0e" opacity="0.75" r="4"/>
  <circle cx="351.6904663309117" cy="648.679488885692" fill="#ff7f0e" opacity="0.75" r="4"/>
  <circle cx="387.82997620187246" cy="531.3172958481923" fill="#2ca02c" opacity="0.75" r="4"/>
  <circle cx="466.08077031952615" cy="509.8060726909087" fill="#1f77b4" opacity="0.75" r="4"/>
  <circle cx="400.3679805425998" cy="510.4055045063144" fill="#1f77b4" opacity="0.75" r="4"/>
  <circle cx="312.90278464408254" cy="547.3386457177253" fill="#ff7f0e" opacity="0.75" r="4"/>
  <circle cx="290.469523055626" cy="584.4052548499745" fill="#2ca02c" opacity="0.75" r="4"/>
  <circle cx="337.6982224330785" cy="483.41280463293907" fill="#1f77b4" opacity="0.75" r="4"/>
  <circle cx="435.6267192424568" cy="533.7423715337443" fill="#1f77b4" opacity="0.75" r="4"/>
  <circle cx="341.8998535634124" cy="528.3331391677638" fill="#ff7f0e" opacity="0.75" r="4"/>
  <circle cx="477.9911549047583" cy="530.3498498783383" fill="#ff7f0e" opacity="0.75" r="4"/>
  <circle cx="399.99482957672234" cy="554.9756694167943" fill="#ff7f0e" opacity="0.75" r="4"/>
  <circle cx="416.0124666188063" cy="486.9692712782709" fill="#1f77b4" opacity="0.75" r="4"/>
  <circle cx="374.57055969166845" cy="519.9670182391735" fill="#ff7f0e" opacity="0.75" r="4"/>
  <circle cx="405.7156937116717" cy="592.458222284932" fill="#1f77b4" opacity="0.75" r="4"/>
  <circle cx="351.6911005925283" cy="558.3651558356662" fill="#1f77b4" opacity="0.75" r="4"/>
  <circle cx="408.69700301128074" cy="513.8401787037028" fill="#2ca02c" opacity="0.75" r="4"/>
  <circle cx="379.816323723198" cy="524.6155901295101" fill="#2ca02c" opacity="0.75" r="4"/>
  <circle cx="253.02819629619216" cy="511.1283383768753" fill="#2ca02c" opacity="0.75" r="4"/>
  <circle cx="364.54316461943984" cy="516.7301439537754" fill="#ff7f0e" opacity="0.75" r="4"/>
  <circle cx="333.92008968289383" cy="472.21429303541146" fill="#1f77b4" opacity="0.75" r="4"/>
  <circle cx="342.6447889053493" cy="518.5791757919858" fill="#ff7f0e" opacity="0.75" r="4"/>
  <circle cx="377.5921382030756" cy="521.982410739527" fill="#ff7f0e" opacity="0.75" r="4"/>
  <circle cx="375.6382155131176" cy="486.4475249282381" fill="#1f77b4" opacity="0.75" r="4"/>
  <circle cx="259.8006523022848" cy="521.3173993016395" fill="#ff7f0e" opacity="0.75" r="4"/>
  <circle cx="390.19971157825955" cy="570.8386336297567" fill="#1f77b4" opacity="0.75" r="4"/>
  <circle cx="348.06185318439117" cy="532.4320615627983" fill="#1f77b4" opacity="0.75" r="4"/>
  <circle cx="383.08621470056335" cy="539.2822151261719" fill="#ff7f0e" opacity="0.75" r="4"/>
  <circle cx="442.2175555666204" cy="436.6996447399981" fill="#2ca02c" opacity="0.75" r="4"/>
  <circle cx="390.6658062911471" cy="550.1612128761814" fill="#2ca02c" opacity="0.75" r="4"/>
  <circle cx="385.61698346820197" cy="558.715908041642" fill="#2ca02c" opacity="0.75" r="4"/>
  <circle cx="450.1328169116224" cy="575.5681841526647" fill="#ff7f0e" opacity="0.75" r="4"/>
  <circle cx="376.59659691414095" cy="618.3994134610136" fill="#1f77b4" opacity="0.75" r="4"/>
  <circle cx="358.6810130419559" cy="521.5958460658062" fill="#1f77b4" opacity="0.75" r="4"/>
  <circle cx="424.25040980659816" cy="456.91269870023734" fill="#1f77b4" opacity="0.75" r="4"/>
  <circle cx="399.61103965502673" cy="499.0975222963795" fill="#ff7f0e" opacity="0.75" r="4"/>
  <circle cx="464.7358504514782" cy="449.5671770003867" fill="#1f77b4" opacity="0.75" r="4"/>
  <circle cx="393.2034497107988" cy="479.84653526289264" fill="#1f77b4" opacity="0.75" r="4"/>
  <circle cx="376.79147391123695" cy="460.34383756809166" fill="#1f77b4" opacity="0.75" r="4"/>
  <circle cx="590.7564433472412" cy="499.9798623349235" fill="#2ca02c" opacity="0.75" r="4"/>
  <circle cx="336.5612047478442" cy="521.3455902258438" fill="#1f77b4" opacity="0.75" r="4"/>
  <circle cx="341.83102144380535" cy="591.0979138567471" fill="#ff7f0e" opacity="0.75" r="4"/>
  <circle cx="412.28389708355473" cy="565.5832684560712" fill="#ff7f0e" opacity="0.75" r="4"/>
  <circle cx="346.3329367318232" cy="459.05652696628215" fill="#ff7f0e" opacity="0.75" r="4"/>
  <circle cx="423.265958889369" cy="548.2879675679638" fill="#ff7f0e" opacity="0.75" r="4"/>
  <circle cx="315.6228029900607" cy="525.0853141224235" fill="#1f77b4" opacity="0.75" r="4"/>
  <circle cx="378.482623013458" cy="498.56571034527155" fill="#2ca02c" opacity="0.75" r="4"/>
  <circle cx="271.39498268589637" cy="508.7452721560201" fill="#2ca02c" opacity="0.75" r="4"/>
  <circle cx="367.01037333949716" cy="491.0336586244726" fill="#1f77b4" opacity="0.75" r="4"/>
  <circle cx="670.7305245359199" cy="381.33919869241834" fill="#ff7f0e" opacity="0.75" r="4"/>
  <circle cx="662.1407523623056" cy="448.0526392961384" fill="#ff7f0e" opacity="0.75" r="4"/>
  <circle cx="638.7073370928858" cy="387.05064070799847" fill="#1f77b4" opacity="0.75" r="4"/>
  <circle cx="633.6745696461596" cy="389.25381474041694" fill="#1f77b4" opacity="0.75" r="4"/>
  <circle cx="674.3638990949855" cy="388.2718588080066" fill="#ff7f0e" opacity="0.75" r="4"/>
  <circle cx="698.6583327671215" cy="449.01676145887365" fill="#ff7f0e" opacity="0.75" r="4"/>
  <circle cx="614.9342568521444" cy="367.8285720862016" fill="#1f77b4" opacity="0.75" r="4"/>
  <circle cx="674.2410010498894" cy="438.21161034533117" fill="#ff7f0e" opacity="0.75" r="4"/>
  <circle cx="649.6627640934262" cy="415.38785187149506" fill="#ff7f0e" opacity="0.75" r="4"/>
  <circle cx="568.4402197135105" cy="403.6180241771084" fill="#2ca02c" opacity="0.75" r="4"/>
  <circle cx="795.7406794318831" cy="471.8453057620334" fill="#2ca02c" opacity="0.75" r="4"/>
  <circle cx="570.7436371061244" cy="319.3322497608587" fill="#ff7f0e" opacity="0.75" r="4"/>
  <circle cx="699.0289177748484" cy="482.2304265597436" fill="#2ca02c" opacity="0.75" r="4"/>
  <circle cx="773.6342554003578" cy="483.14351423982043" fill="#2ca02c" opacity="0.75" r="4"/>
  <circle cx="498.28312106419855" cy="454.4487209650775" fill="#1f77b4" opacity="0.75" r="4"/>
  <circle cx="608.7283944202961" cy="426.6728655656953" fill="#ff7f0e" opacity="0.75" r="4"/>
  <circle cx="671.0726520368008" cy="386.2414054119925" fill="#1f77b4" opacity="0.75" r="4"/>
  <circle cx="691.2698003286481" cy="476.479734283636" fill="#1f77b4" opacity="0.75" r="4"/>
  <circle cx="707.320370491514" cy="357.83282133956584" fill="#ff7f0e" opacity="0.75" r="4"/>
  <circle cx="677.1633075512766" cy="415.502766961848" fill="#2ca02c" opacity="0.75" r="4"/>
  <circle cx="574.3838440626503" cy="451.0801859068174" fill="#1f77b4" opacity="0.75" r="4"/>
  <circle cx="668.2237644090677" cy="419.8108535623043" fill="#ff7f0e" opacity="0.75" r="4"/>
  <circle cx="711.8333772419618" cy="485.7602533975466" fill="#2ca02c" opacity="0.75" r="4"/>
  <circle cx="791.3754942406744" cy="471.7205703666758" fill="#2ca02c" opacity="0.75" r="4"/>
  <circle cx="702.5485201262342" cy="389.393233502988" fill="#ff7f0e" opacity="0.75" r="4"/>
  <circle cx="687.0488894360255" cy="406.5738410086892" fill="#1f77b4" opacity="0.75" r="4"/>
  <circle cx="716.8660847729697" cy="418.81944572664065" fill="#2ca02c" opacity="0.75" r="4"/>
  <circle cx="738.0218484668618" cy="448.2040468330697" fill="#ff7f0e" opacity="0.75" r="4"/>
  <circle cx="579.5681987280807" cy="426.05007497428676" fill="#1f77b4" opacity="0.75" r="4"/>
  <circle cx="647.7388127477147" cy="386.41169387525986" fill="#2ca02c" opacity="0.75" r="4"/>
  <circle cx="586.6644004125801" cy="360.73677129823534" fill="#1f77b4" opacity="0.75" r="4"/>
  <circle cx="721.855862002797" cy="389.8533991768518" fill="#1f77b4" opacity="0.75" r="4"/>
  <circle cx="483.7171195375039" cy="434.3335436968652" fill="#2ca02c" opacity="0.75" r="4"/>
  <circle cx="802.7769705662242" cy="472.8713850758396" fill="#2ca02c" opacity="0.75" r="4"/>
  <circle cx="691.6107916352322" cy="423.13633235592306" fill="#ff7f0e" opacity="0.75" r="4"/>
  <circle cx="677.4563890025944" cy="422.92681250464653" fill="#1f77b4" opacity="0.75" r="4"/>
  <circle cx="704.0578176340096" cy="426.05848296005775" fill="#1f77b4" opacity="0.75" r="4"/>
  <circle cx="550.7695439374704" cy="421.2118346735335" fill="#2ca02c" opacity="0.75" r="4"/>
  <circle cx="702.999510615421" cy="422.0172382287042" fill="#ff7f0e" opacity="0.75" r="4"/>
  <circle cx="629.0865499620188" cy="368.52049464644654" fill="#1f77b4" opacity="0.75" r="4"/>
  <circle cx="673.5090206529135" cy="381.82229976121624" fill="#1f77b4" opacity="0.75" r="4"/>
  <circle cx="654.5297395875805" cy="512.1991658188056" fill="#ff7f0e" opacity="0.75" r="4"/>
  <circle cx="735.683878141474" cy="418.9795911653215" fill="#2ca02c" opacity="0.75" r="4"/>
  <circle cx="749.3776843441946" cy="351.29814870699244" fill="#1f77b4" opacity="0.75" r="4"/>
  <circle cx="755.8181539981435" cy="362.1983774813921" fill="#2ca02c" opacity="0.75" r="4"/>
  <circle cx="686.841906638582" cy="430.16538025030053" fill="#ff7f0e" opacity="0.75" r="4"/>
  <circle cx="552.7847879776751" cy="434.63628519586126" fill="#1f77b4" opacity="0.75" r="4"/>
  <circle cx="655.4932449282336" cy="425.63284000611407" fill="#2ca02c" opacity="0.75" r="4"/>
  <circle cx="602.1748463393785" cy="404.20847971118246" fill="#1f77b4" opacity="0.75" r="4"/>
  <circle cx="635.5250409627615" cy="384.03920718264453" fill="#1f77b4" opacity="0.75" r="4"/>
  <circle cx="695.0177179062291" cy="467.7746560398439" fill="#ff7f0e" opacity="0.75" r="4"/>
  <circle cx="679.0975202353444" cy="360.96483935810227" fill="#2ca02c" opacity="0.75" r="4"/>
  <circle cx="673.9754381907065" cy="338.62040170612283" fill="#1f77b4" opacity="0.75" r="4"/>
  <circle cx="736.1007220780599" cy="383.9982004167577" fill="#1f77b4" opacity="0.75" r="4"/>
  <circle cx="664.6759278914785" cy="414.92043025439096" fill="#1f77b4" opacity="0.75" r="4"/>
  <circle cx="482.48830253720445" cy="663.5187160053858" fill="#1f77b4" opacity="0.75" r="4"/>
  <circle cx="481.2153416265367" cy="563.0298935588363" fill="#2ca02c" opacity="0.75" r="4"/>
  <circle cx="570.3483822301039" cy="613.6101297863645" fill="#ff7f0e" opacity="0.75" r="4"/>
  <circle cx="492.9240031139454" cy="563.8107347752855" fill="#2ca02c" opacity="0.75" r="4"/>
  <circle cx="463.97549694480404" cy="573.9899259064591" fill="#2ca02c" opacity="0.75" r="4"/>
  <circle cx="570.0289045041523" cy="615.8024570224593" fill="#2ca02c" opacity="0.75" r="4"/>
  <circle cx="513.4473998297037" cy="655.7847139904407" fill="#2ca02c" opacity="0.75" r="4"/>
  <circle cx="543.3921431637481" cy="588.1843506507089" fill="#1f77b4" opacity="0.75" r="4"/>
  <circle cx="445.5300029909943" cy="552.1250426373742" fill="#1f77b4" opacity="0.75" r="4"/>
  <circle cx="491.93050148180816" cy="613.460432037489" fill="#1f77b4" opacity="0.75" r="4"/>
  <circle cx="533.7931139339862" cy="564.3425233244541" fill="#2ca02c" opacity="0.75" r="4"/>
  <circle cx="558.4840029894199" cy="592.9842256986154" fill="#ff7f0e" opacity="0.75" r="4"/>
  <circle cx="525.2497916958062" cy="591.2671757075784" fill="#2ca02c" opacity="0.75" r="4"/>
  <circle cx="549.4742709571851" cy="502.42906341253473" fill="#2ca02c" opacity="0.75" r="4"/>
  <circle cx="522.8206600184259" cy="562.5439882164128" fill="#ff7f0e" opacity="0.75" r="4"/>
  <circle cx="548.847467098876" cy="573.6083291983819" fill="#ff7f0e" opacity="0.75" r="4"/>
  <circle cx="610.6789545018055" cy="542.1822369642249" fill="#2ca02c" opacity="0.75" r="4"/>
  <circle cx="645.2897510165366" cy="666.5129521330684" fill="#ff7f0e" opacity="0.75" r="4"/>
  <circle cx="420.44134181434055" cy="593.5619570698003" fill="#2ca02c" opacity="0.75" r="4"/>
  <circle cx="490.93418132874314" cy="512.8243307513596" fill="#ff7f0e" opacity="0.75" r="4"/>
  <circle cx="500.4612775493118" cy="602.595048690332" fill="#1f77b4" opacity="0.75" r="4"/>
  <circle cx="560.2668074858893" cy="553.5127224948039" fill="#ff7f0e" opacity="0.75" r="4"/>
  <circle cx="520.1214958663893" cy="575.9374612882519" fill="#2ca02c" opacity="0.75" r="4"/>
  <circle cx="415.732079852964" cy="532.8398095774442" fill="#2ca02c" opacity="0.75" r="4"/>
  <circle cx="617.1701280208869" cy="530.6410756107539" fill="#2ca02c" opacity="0.75" r="4"/>
  <circle cx="427.8080548971683" cy="642.4542336890561" fill="#1f77b4" opacity="0.75" r="4"/>
  <circle cx="516.2731882317821" cy="616.7200163189256" fill="#1f77b4" opacity="0.75" r="4"/>
  <circle cx="524.8473958559379" cy="565.4196253983232" fill="#1f77b4" opacity="0.75" r="4"/>
  <circle cx="546.342126803441" cy="561.8239443105658" fill="#2ca02c" opacity="0.75" r="4"/>
  <circle cx="559.6734075642621" cy="600.0700185904132" fill="#1f77b4" opacity="0.75" r="4"/>
  <circle cx="561.1259851451027" cy="605.9707788199" fill="#2ca02c" opacity="0.75" r="4"/>
  <circle cx="493.7359378594559" cy="574.884036283665" fill="#ff7f0e" opacity="0.75" r="4"/>
  <circle cx="534.6153130080666" cy="601.6631122965562" fill="#2ca02c" opacity="0.75" r="4"/>
  <circle cx="538.4386389572355" cy="461.73031505780034" fill="#ff7f0e" opacity="0.75" r="4"/>
  <circle cx="521.6959727307559" cy="528.8429578472417" fill="#1f77b4" opacity="0.75" r="4"/>
  <circle cx="515.3963874026019" cy="568.9770858963534" fill="#ff7f0e" opacity="0.75" r="4"/>
  <circle cx="487.9703561675024" cy="568.0918246892678" fill="#ff7f0e" opacity="0.75" r="4"/>
  <circle cx="481.5958412635262" cy="607.7555174519771" fill="#2ca02c" opacity="0.75" r="4"/>
  <circle cx="565.2228066486662" cy="647.5083896599166" fill="#1f77b4" opacity="0.75" r="4"/>
  <circle cx="522.1233807961612" cy="644.2315111106753" fill="#ff7f0e" opacity="0.75" r="4"/>
  <circle cx="520.2087977697997" cy="531.2574298178265" fill="#2ca02c" opacity="0.75" r="4"/>
  <circle cx="475.20862919658305" cy="530.0383430181578" fill="#1f77b4" opacity="0.75" r="4"/>
  <circle cx="541.6470194139258" cy="611.6483316719402" fill="#1f77b4" opacity="0.75" r="4"/>
  <circle cx="552.1341903998771" cy="608.5705504895786" fill="#2ca02c" opacity="0.75" r="4"/>
  <circle cx="570.3966617205596" cy="502.9619632784863" fill="#ff7f0e" opacity="0.75" r="4"/>
  <circle cx="568.2868245791943" cy="635.4884577467553" fill="#1f77b4" opacity="0.75" r="4"/>
  <circle cx="517.5630591382057" cy="578.6051006534628" fill="#2ca02c" opacity="0.75" r="4"/>
  <circle cx="574.7622076177181" cy="585.8677838811655" fill="#2ca02c" opacity="0.75" r="4"/>
  <circle cx="535.3351506105068" cy="573.4488401697662" fill="#1f77b4" opacity="0.75" r="4"/>
  <circle cx="605.5430108991799" cy="585.6243136327017" fill="#1f77b4" opacity="0.75" r="4"/>
  <circle cx="651.7623078412039" cy="551.8361141368732" fill="#ff7f0e" opacity="0.75" r="4"/>
  <circle cx="478.9439384185828" cy="580.6879125380066" fill="#1f77b4" opacity="0.75" r="4"/>
  <circle cx="476.5700215465931" cy="590.7295787487178" fill="#1f77b4" opacity="0.75" r="4"/>
  <circle cx="578.905890548676" cy="532.8797065003741" fill="#2ca02c" opacity="0.75" r="4"/>
  <circle cx="450.88851693290695" cy="646.6762006364733" fill="#ff7f0e" opacity="0.75" r="4"/>
  <circle cx="914.0" cy="244.0" fill="#d62728" opacity="0.9" r="7"/>
  <text fill="#333" font-family="Arial, Helvetica, sans-serif" font-size="16" text-anchor="middle" x="570.0" y="765">Dimension 1</text>
  <text fill="#333" font-family="Arial, Helvetica, sans-serif" font-size="16" text-anchor="middle" transform="rotate(-90,85,440.0)" x="85" y="440.0">Dimension 2</text>
  <text fill="#999" font-family="Arial, Helvetica, sans-serif" font-size="12" text-anchor="end" x="1140" y="776">Auto-generated SVG</text>
</svg>
