<?xml version="1.0" encoding="utf-8" ?>
<svg xmlns="http://www.w3.org/2000/svg" xmlns:ev="http://www.w3.org/2001/xml-events" xmlns:xlink="http://www.w3.org/1999/xlink" baseProfile="full" height="800" version="1.1" width="1200">
  <defs>
    <marker id="id146" markerHeight="7" markerWidth="7" orient="auto" refX="6" refY="3">
      <path d="M0,0 L0,6 L6,3 z" fill="#333333"/>
    </marker>
  </defs>
  <rect fill="white" height="800" width="1200" x="0" y="0"/>
  <text fill="#111" font-family="Arial, Helvetica, sans-serif" font-size="28" font-weight="700" x="60" y="50">Figure 15.3: ESMFold Architecture (Four-Panel)</text>
  <text fill="#444" font-family="Arial, Helvetica, sans-serif" font-size="16" x="60" y="78">Panel A</text>
  <line stroke="#333" stroke-width="2" x1="140" x2="1000" y1="720" y2="720"/>
  <line stroke="#333" stroke-width="2" x1="140" x2="140" y1="160" y2="720"/>
  <circle cx="354.0479522358769" cy="566.0925886075968" fill="#1f77b4" opacity="0.75" r="4"/>
  <circle cx="390.0706647808811" cy="506.923861770802" fill="#1f77b4" opacity="0.75" r="4"/>
  <circle cx="412.8877020203083" cy="399.40317731158336" fill="#2ca02c" opacity="0.75" r="4"/>
  <circle cx="363.32961900125724" cy="452.1852126953382" fill="#2ca02c" opacity="0.75" r="4"/>
  <circle cx="302.05934930834707" cy="430.8084085917244" fill="#ff7f0e" opacity="0.75" r="4"/>
  <circle cx="291.0108455239998" cy="594.4824739084356" fill="#2ca02c" opacity="0.75" r="4"/>
  <circle cx="342.02019099659003" cy="544.1370546897895" fill="#ff7f0e" opacity="0.75" r="4"/>
  <circle cx="438.3106503870315" cy="518.9770974861672" fill="#2ca02c" opacity="0.75" r="4"/>
  <circle cx="383.06801627878156" cy="497.4773474672367" fill="#1f77b4" opacity="0.75" r="4"/>
  <circle cx="434.95603263594353" cy="542.5318845771478" fill="#2ca02c" opacity="0.75" r="4"/>
  <circle cx="440.9015335924512" cy="509.7013792951753" fill="#2ca02c" opacity="0.75" r="4"/>
  <circle cx="241.05753397822892" cy="499.01992011263167" fill="#1f77b4" opacity="0.75" r="4"/>
  <circle cx="441.12513462799205" cy="480.0510551534805" fill="#ff7f0e" opacity="0.75" r="4"/>
  <circle cx="513.7009599595522" cy="518.0987514478339" fill="#ff7f0e" opacity="0.75" r="4"/>
  <circle cx="398.84287015638563" cy="577.4211342229685" fill="#1f77b4" opacity="0.75" r="4"/>
  <circle cx="204.1084347556368" cy="569.7825566111586" fill="#ff7f0e" opacity="0.75" r="4"/>
  <circle cx="420.87997217265365" cy="518.0141195159308" fill="#2ca02c" opacity="0.75" r="4"/>
  <circle cx="325.4667785131488" cy="482.58947721171904" fill="#1f77b4" opacity="0.75" r="4"/>
  <circle cx="310.42807873375824" cy="540.9480701461734" fill="#ff7f0e" opacity="0.75" r="4"/>
  <circle cx="479.9967906545522" cy="518.6211210199227" fill="#2ca02c" opacity="0.75" r="4"/>
  <circle cx="297.6640957140435" cy="516.4782304180409" fill="#1f77b4" opacity="0.75" r="4"/>
  <circle cx="387.2147596632819" cy="519.3235586681675" fill="#2ca02c" opacity="0.75" r="4"/>
  <circle cx="374.1744487625981" cy="504.44215368211195" fill="#2ca02c" opacity="0.75" r="4"/>
  <circle cx="426.5706933656839" cy="551.1168629874027" fill="#1f77b4" opacity="0.75" r="4"/>
  <circle cx="475.88063414981656" cy="553.9159780676323" fill="#2ca02c" opacity="0.75" r="4"/>
  <circle cx="410.2361368456366" cy="521.5977570717503" fill="#2ca02c" opacity="0.75" r="4"/>
  <circle cx="500.07415924371514" cy="501.8942292899077" fill="#ff7f0e" opacity="0.75" r="4"/>
  <circle cx="393.487091409768" cy="454.9701815268711" fill="#1f77b4" opacity="0.75" r="4"/>
  <circle cx="446.93998380588556" cy="464.196683337872" fill="#2ca02c" opacity="0.75" r="4"/>
  <circle cx="518.3190635593611" cy="502.0466715891622" fill="#1f77b4" opacity="0.75" r="4"/>
  <circle cx="420.3113329793169" cy="514.080888509342" fill="#2ca02c" opacity="0.75" r="4"/>
  <circle cx="381.7721098527003" cy="553.5214192353588" fill="#1f77b4" opacity="0.75" r="4"/>
  <circle cx="452.92142563094114" cy="533.2794189137755" fill="#2ca02c" opacity="0.75" r="4"/>
  <circle cx="435.76986037669957" cy="523.3702295082762" fill="#ff7f0e" opacity="0.75" r="4"/>
  <circle cx="330.605862408473" cy="536.9789944129138" fill="#2ca02c" opacity="0.75" r="4"/>
  <circle cx="459.9525863502433" cy="522.2880629506084" fill="#2ca02c" opacity="0.75" r="4"/>
  <circle cx="315.9498871382418" cy="482.19586135790473" fill="#2ca02c" opacity="0.75" r="4"/>
  <circle cx="307.93289956099" cy="461.7409520721575" fill="#ff7f0e" opacity="0.75" r="4"/>
  <circle cx="464.8148101816133" cy="513.3714929116973" fill="#2ca02c" opacity="0.75" r="4"/>
  <circle cx="316.4647528162975" cy="518.8814688756912" fill="#ff7f0e" opacity="0.75" r="4"/>
  <circle cx="451.36917163377524" cy="414.2687972539534" fill="#2ca02c" opacity="0.75" r="4"/>
  <circle cx="434.59778748081965" cy="604.4676886991776" fill="#2ca02c" opacity="0.75" r="4"/>
  <circle cx="503.9812124321695" cy="565.2609571962175" fill="#1f77b4" opacity="0.75" r="4"/>
  <circle cx="326.58320980495444" cy="574.1554108431285" fill="#2ca02c" opacity="0.75" r="4"/>
  <circle cx="383.0172900817396" cy="455.06616660731936" fill="#1f77b4" opacity="0.75" r="4"/>
  <circle cx="391.95775449281354" cy="570.4453524135262" fill="#2ca02c" opacity="0.75" r="4"/>
  <circle cx="432.2055842024911" cy="556.833665640474" fill="#1f77b4" opacity="0.75" r="4"/>
  <circle cx="524.706877691302" cy="505.32189184259425" fill="#2ca02c" opacity="0.75" r="4"/>
  <circle cx="375.2400842291837" cy="572.7616126884252" fill="#ff7f0e" opacity="0.75" r="4"/>
  <circle cx="438.8792578600267" cy="527.1288017387204" fill="#2ca02c" opacity="0.75" r="4"/>
  <circle cx="429.77886745190705" cy="515.3354919351689" fill="#ff7f0e" opacity="0.75" r="4"/>
  <circle cx="386.2661912123149" cy="600.4690125936684" fill="#ff7f0e" opacity="0.75" r="4"/>
  <circle cx="483.3609672972845" cy="518.5221040159408" fill="#1f77b4" opacity="0.75" r="4"/>
  <circle cx="479.15417175586174" cy="508.94923170811705" fill="#1f77b4" opacity="0.75" r="4"/>
  <circle cx="411.44902403148217" cy="557.8195213032491" fill="#2ca02c" opacity="0.75" r="4"/>
  <circle cx="581.468452327688" cy="395.5268014111573" fill="#1f77b4" opacity="0.75" r="4"/>
  <circle cx="773.5801548304004" cy="420.7849097299881" fill="#1f77b4" opacity="0.75" r="4"/>
  <circle cx="765.8471242854438" cy="445.92971659869056" fill="#ff7f0e" opacity="0.75" r="4"/>
  <circle cx="685.2169033703259" cy="397.96511271978085" fill="#1f77b4" opacity="0.75" r="4"/>
  <circle cx="737.7382550700308" cy="290.83421859848727" fill="#1f77b4" opacity="0.75" r="4"/>
  <circle cx="660.7757977780192" cy="450.13765416518464" fill="#ff7f0e" opacity="0.75" r="4"/>
  <circle cx="665.5326682032487" cy="393.6445529781849" fill="#2ca02c" opacity="0.75" r="4"/>
  <circle cx="575.8849186635844" cy="441.85473178162607" fill="#2ca02c" opacity="0.75" r="4"/>
  <circle cx="699.7501104299902" cy="497.1594010513893" fill="#2ca02c" opacity="0.75" r="4"/>
  <circle cx="624.3539684344413" cy="296.0805115784319" fill="#1f77b4" opacity="0.75" r="4"/>
  <circle cx="620.455399001974" cy="400.89209862363214" fill="#ff7f0e" opacity="0.75" r="4"/>
  <circle cx="600.6266495746501" cy="407.877724690681" fill="#1f77b4" opacity="0.75" r="4"/>
  <circle cx="592.1341728339626" cy="423.981340032046" fill="#1f77b4" opacity="0.75" r="4"/>
  <circle cx="636.9619510376783" cy="468.1969460321831" fill="#2ca02c" opacity="0.75" r="4"/>
  <circle cx="830.0841588584555" cy="476.3578392873848" fill="#2ca02c" opacity="0.75" r="4"/>
  <circle cx="684.3635862596576" cy="396.37397331409534" fill="#2ca02c" opacity="0.75" r="4"/>
  <circle cx="683.4469043116192" cy="477.6955360417042" fill="#ff7f0e" opacity="0.75" r="4"/>
  <circle cx="713.24743211132" cy="320.5043420027802" fill="#2ca02c" opacity="0.75" r="4"/>
  <circle cx="765.9338125405437" cy="384.1979870557807" fill="#2ca02c" opacity="0.75" r="4"/>
  <circle cx="691.1802398794953" cy="422.7221902319008" fill="#2ca02c" opacity="0.75" r="4"/>
  <circle cx="743.4944136707738" cy="406.8460787908539" fill="#ff7f0e" opacity="0.75" r="4"/>
  <circle cx="529.8493779379007" cy="423.3724180631774" fill="#2ca02c" opacity="0.75" r="4"/>
  <circle cx="637.9067056511415" cy="527.9379470040626" fill="#2ca02c" opacity="0.75" r="4"/>
  <circle cx="705.0156666361669" cy="327.41377869776846" fill="#1f77b4" opacity="0.75" r="4"/>
  <circle cx="683.3247133272575" cy="410.1428364519756" fill="#2ca02c" opacity="0.75" r="4"/>
  <circle cx="656.437878968059" cy="395.4131583055716" fill="#2ca02c" opacity="0.75" r="4"/>
  <circle cx="730.9744917915209" cy="460.3672874704664" fill="#ff7f0e" opacity="0.75" r="4"/>
  <circle cx="720.6212855602682" cy="359.36675427930436" fill="#1f77b4" opacity="0.75" r="4"/>
  <circle cx="649.0770537543594" cy="371.4913543451887" fill="#ff7f0e" opacity="0.75" r="4"/>
  <circle cx="630.4775446434626" cy="376.86509987968714" fill="#ff7f0e" opacity="0.75" r="4"/>
  <circle cx="718.1621638558271" cy="409.12114504908857" fill="#1f77b4" opacity="0.75" r="4"/>
  <circle cx="669.9519758522243" cy="448.867504870635" fill="#2ca02c" opacity="0.75" r="4"/>
  <circle cx="676.8266564603931" cy="411.2551971038224" fill="#2ca02c" opacity="0.75" r="4"/>
  <circle cx="656.7822054427594" cy="379.42598678357166" fill="#2ca02c" opacity="0.75" r="4"/>
  <circle cx="493.31451933738344" cy="442.92132627224447" fill="#ff7f0e" opacity="0.75" r="4"/>
  <circle cx="685.0970863571434" cy="390.3473939169509" fill="#ff7f0e" opacity="0.75" r="4"/>
  <circle cx="639.6380342830699" cy="463.2396251873791" fill="#1f77b4" opacity="0.75" r="4"/>
  <circle cx="546.5749225013413" cy="567.9307254790845" fill="#1f77b4" opacity="0.75" r="4"/>
  <circle cx="604.034223064617" cy="492.0613045051157" fill="#ff7f0e" opacity="0.75" r="4"/>
  <circle cx="662.6589911972083" cy="353.11136579931053" fill="#2ca02c" opacity="0.75" r="4"/>
  <circle cx="661.8316093501103" cy="408.14185286085916" fill="#ff7f0e" opacity="0.75" r="4"/>
  <circle cx="690.7272647827224" cy="471.543653107036" fill="#ff7f0e" opacity="0.75" r="4"/>
  <circle cx="731.9703873514502" cy="431.2895577081195" fill="#2ca02c" opacity="0.75" r="4"/>
  <circle cx="668.3427569076713" cy="421.10362545799853" fill="#ff7f0e" opacity="0.75" r="4"/>
  <circle cx="567.0037786491235" cy="453.44533019116824" fill="#2ca02c" opacity="0.75" r="4"/>
  <circle cx="463.9816798208245" cy="437.33202019487436" fill="#ff7f0e" opacity="0.75" r="4"/>
  <circle cx="764.780687565638" cy="396.2722766805323" fill="#2ca02c" opacity="0.75" r="4"/>
  <circle cx="699.8896296888571" cy="413.12123601098375" fill="#1f77b4" opacity="0.75" r="4"/>
  <circle cx="753.1814886184503" cy="470.64749058577536" fill="#ff7f0e" opacity="0.75" r="4"/>
  <circle cx="625.1625478423138" cy="380.0606712437666" fill="#2ca02c" opacity="0.75" r="4"/>
  <circle cx="711.1360230481143" cy="448.4289013967242" fill="#1f77b4" opacity="0.75" r="4"/>
  <circle cx="618.6553664065875" cy="389.8465825767893" fill="#1f77b4" opacity="0.75" r="4"/>
  <circle cx="749.162267915013" cy="325.621302222963" fill="#2ca02c" opacity="0.75" r="4"/>
  <circle cx="602.4168581401225" cy="420.63131738025686" fill="#2ca02c" opacity="0.75" r="4"/>
  <circle cx="753.6778422572729" cy="428.60038329384173" fill="#2ca02c" opacity="0.75" r="4"/>
  <circle cx="511.5487194050236" cy="577.1503343339238" fill="#1f77b4" opacity="0.75" r="4"/>
  <circle cx="492.2044084998952" cy="591.196503532844" fill="#2ca02c" opacity="0.75" r="4"/>
  <circle cx="479.15324056798926" cy="612.8480086278619" fill="#2ca02c" opacity="0.75" r="4"/>
  <circle cx="561.023457773224" cy="527.7272370925355" fill="#2ca02c" opacity="0.75" r="4"/>
  <circle cx="496.897059105335" cy="544.8961832360283" fill="#ff7f0e" opacity="0.75" r="4"/>
  <circle cx="558.8045028910742" cy="624.795287448506" fill="#1f77b4" opacity="0.75" r="4"/>
  <circle cx="527.5214671939192" cy="537.4232364672205" fill="#1f77b4" opacity="0.75" r="4"/>
  <circle cx="548.8870058458288" cy="580.1697129447173" fill="#1f77b4" opacity="0.75" r="4"/>
  <circle cx="509.1683304937045" cy="585.8898743426995" fill="#2ca02c" opacity="0.75" r="4"/>
  <circle cx="549.9822226851782" cy="568.8584510871292" fill="#ff7f0e" opacity="0.75" r="4"/>
  <circle cx="496.96690200317175" cy="561.1599780300002" fill="#2ca02c" opacity="0.75" r="4"/>
  <circle cx="520.989962053543" cy="541.8131475055663" fill="#ff7f0e" opacity="0.75" r="4"/>
  <circle cx="549.6722764101289" cy="517.7128484806929" fill="#1f77b4" opacity="0.75" r="4"/>
  <circle cx="587.4011512457669" cy="608.3568822008342" fill="#2ca02c" opacity="0.75" r="4"/>
  <circle cx="623.8839267285708" cy="572.387853539308" fill="#1f77b4" opacity="0.75" r="4"/>
  <circle cx="438.1337858241579" cy="591.6700046899781" fill="#2ca02c" opacity="0.75" r="4"/>
  <circle cx="531.2801342215996" cy="595.5712923275096" fill="#1f77b4" opacity="0.75" r="4"/>
  <circle cx="470.1875184920721" cy="568.2311124894486" fill="#1f77b4" opacity="0.75" r="4"/>
  <circle cx="541.2053546048394" cy="526.9578056917775" fill="#ff7f0e" opacity="0.75" r="4"/>
  <circle cx="552.2669340437377" cy="580.8962658894468" fill="#ff7f0e" opacity="0.75" r="4"/>
  <circle cx="518.9665819812622" cy="606.1938593328898" fill="#2ca02c" opacity="0.75" r="4"/>
  <circle cx="511.1776515480036" cy="598.5607012416203" fill="#1f77b4" opacity="0.75" r="4"/>
  <circle cx="543.4575510730017" cy="553.1499990599759" fill="#1f77b4" opacity="0.75" r="4"/>
  <circle cx="558.7219272327061" cy="548.5872188610556" fill="#1f77b4" opacity="0.75" r="4"/>
  <circle cx="480.8804959978695" cy="529.7395268144631" fill="#1f77b4" opacity="0.75" r="4"/>
  <circle cx="601.2994510144435" cy="580.9990677235407" fill="#1f77b4" opacity="0.75" r="4"/>
  <circle cx="396.0828519405418" cy="584.7127705486213" fill="#2ca02c" opacity="0.75" r="4"/>
  <circle cx="491.6676113811217" cy="593.4996191454443" fill="#1f77b4" opacity="0.75" r="4"/>
  <circle cx="467.4241014945848" cy="553.0376585252573" fill="#1f77b4" opacity="0.75" r="4"/>
  <circle cx="502.9923830012719" cy="630.1084481046785" fill="#ff7f0e" opacity="0.75" r="4"/>
  <circle cx="534.1264017305427" cy="592.5481369890695" fill="#2ca02c" opacity="0.75" r="4"/>
  <circle cx="489.5824078274432" cy="565.3632493884191" fill="#ff7f0e" opacity="0.75" r="4"/>
  <circle cx="685.0230997094327" cy="604.9359077418508" fill="#1f77b4" opacity="0.75" r="4"/>
  <circle cx="576.64543810391" cy="598.1462144409948" fill="#ff7f0e" opacity="0.75" r="4"/>
  <circle cx="405.67616390319483" cy="560.3901877440198" fill="#ff7f0e" opacity="0.75" r="4"/>
  <circle cx="550.7278016806629" cy="654.3718205206112" fill="#2ca02c" opacity="0.75" r="4"/>
  <circle cx="442.83504322093285" cy="611.525006539367" fill="#1f77b4" opacity="0.75" r="4"/>
  <circle cx="531.0880439544756" cy="597.1567100707439" fill="#1f77b4" opacity="0.75" r="4"/>
  <circle cx="515.2968272821196" cy="564.0706653034624" fill="#1f77b4" opacity="0.75" r="4"/>
  <circle cx="547.8599249162866" cy="526.4995359940452" fill="#1f77b4" opacity="0.75" r="4"/>
  <circle cx="507.20287465694474" cy="619.921665388142" fill="#ff7f0e" opacity="0.75" r="4"/>
  <circle cx="581.2662920097604" cy="567.0429572345613" fill="#ff7f0e" opacity="0.75" r="4"/>
  <circle cx="516.4251338708768" cy="545.6469999311375" fill="#ff7f0e" opacity="0.75" r="4"/>
  <circle cx="395.29768445171817" cy="570.8518101342813" fill="#1f77b4" opacity="0.75" r="4"/>
  <circle cx="485.435993036661" cy="572.7752083670696" fill="#2ca02c" opacity="0.75" r="4"/>
  <circle cx="545.4872249985165" cy="571.0402761296671" fill="#ff7f0e" opacity="0.75" r="4"/>
  <circle cx="540.0856111418948" cy="582.4450018042428" fill="#2ca02c" opacity="0.75" r="4"/>
  <circle cx="592.850112878238" cy="566.7103351825222" fill="#1f77b4" opacity="0.75" r="4"/>
  <circle cx="535.4034059116382" cy="610.1025983771558" fill="#ff7f0e" opacity="0.75" r="4"/>
  <circle cx="503.91175848339094" cy="626.8901465200943" fill="#2ca02c" opacity="0.75" r="4"/>
  <circle cx="434.88281505557654" cy="558.5972696079301" fill="#2ca02c" opacity="0.75" r="4"/>
  <circle cx="516.7182897671105" cy="602.6941399360878" fill="#ff7f0e" opacity="0.75" r="4"/>
  <circle cx="568.0242151972425" cy="596.1506640084926" fill="#ff7f0e" opacity="0.75" r="4"/>
  <circle cx="491.5710094017149" cy="588.4551871706333" fill="#ff7f0e" opacity="0.75" r="4"/>
  <circle cx="488.809009224943" cy="605.347582820514" fill="#2ca02c" opacity="0.75" r="4"/>
  <circle cx="914.0" cy="244.0" fill="#d62728" opacity="0.9" r="7"/>
  <text fill="#333" font-family="Arial, Helvetica, sans-serif" font-size="16" text-anchor="middle" x="570.0" y="765">Dimension 1</text>
  <text fill="#333" font-family="Arial, Helvetica, sans-serif" font-size="16" text-anchor="middle" transform="rotate(-90,85,440.0)" x="85" y="440.0">Dimension 2</text>
  <text fill="#999" font-family="Arial, Helvetica, sans-serif" font-size="12" text-anchor="end" x="1140" y="776">Auto-generated SVG</text>
</svg>
