<?xml version="1.0" encoding="utf-8" ?>
<svg xmlns="http://www.w3.org/2000/svg" xmlns:ev="http://www.w3.org/2001/xml-events" xmlns:xlink="http://www.w3.org/1999/xlink" baseProfile="full" height="800" version="1.1" width="1200">
  <defs>
    <marker id="id147" markerHeight="7" markerWidth="7" orient="auto" refX="6" refY="3">
      <path d="M0,0 L0,6 L6,3 z" fill="#333333"/>
    </marker>
  </defs>
  <rect fill="white" height="800" width="1200" x="0" y="0"/>
  <text fill="#111" font-family="Arial, Helvetica, sans-serif" font-size="28" font-weight="700" x="60" y="50">Figure 15.3: ESMFold Architecture (Four-Panel)</text>
  <text fill="#444" font-family="Arial, Helvetica, sans-serif" font-size="16" x="60" y="78">Panel B</text>
  <line stroke="#333" stroke-width="2" x1="140" x2="1000" y1="720" y2="720"/>
  <line stroke="#333" stroke-width="2" x1="140" x2="140" y1="160" y2="720"/>
  <circle cx="274.5783198465865" cy="484.5527117981987" fill="#1f77b4" opacity="0.75" r="4"/>
  <circle cx="446.5025669466115" cy="428.89493490050705" fill="#1f77b4" opacity="0.75" r="4"/>
  <circle cx="505.1491707917746" cy="499.038294911151" fill="#1f77b4" opacity="0.75" r="4"/>
  <circle cx="483.87569783175036" cy="527.3761073097047" fill="#2ca02c" opacity="0.75" r="4"/>
  <circle cx="339.4183988118494" cy="558.8904784480587" fill="#1f77b4" opacity="0.75" r="4"/>
  <circle cx="271.337839253141" cy="555.7797460354354" fill="#2ca02c" opacity="0.75" r="4"/>
  <circle cx="396.59455770541285" cy="560.2445335300553" fill="#2ca02c" opacity="0.75" r="4"/>
  <circle cx="230.33365646872426" cy="509.6443283581053" fill="#2ca02c" opacity="0.75" r="4"/>
  <circle cx="401.66463138096026" cy="454.8798668220905" fill="#ff7f0e" opacity="0.75" r="4"/>
  <circle cx="430.77694897052766" cy="481.6532331758169" fill="#1f77b4" opacity="0.75" r="4"/>
  <circle cx="449.1669850850087" cy="485.9251624324812" fill="#ff7f0e" opacity="0.75" r="4"/>
  <circle cx="426.77203640422607" cy="600.170375701216" fill="#1f77b4" opacity="0.75" r="4"/>
  <circle cx="382.9420300199659" cy="499.3799020159601" fill="#ff7f0e" opacity="0.75" r="4"/>
  <circle cx="443.555983095784" cy="544.2971748169882" fill="#1f77b4" opacity="0.75" r="4"/>
  <circle cx="454.159376421137" cy="525.4828815611429" fill="#1f77b4" opacity="0.75" r="4"/>
  <circle cx="385.7103518458977" cy="566.9120509738219" fill="#2ca02c" opacity="0.75" r="4"/>
  <circle cx="438.4415689374797" cy="585.9582592409577" fill="#2ca02c" opacity="0.75" r="4"/>
  <circle cx="496.1129009050248" cy="538.7250380706171" fill="#ff7f0e" opacity="0.75" r="4"/>
  <circle cx="504.0190988567182" cy="531.7577145864581" fill="#ff7f0e" opacity="0.75" r="4"/>
  <circle cx="421.1701868964234" cy="536.4670478595528" fill="#ff7f0e" opacity="0.75" r="4"/>
  <circle cx="432.61332801967365" cy="470.71672078630684" fill="#2ca02c" opacity="0.75" r="4"/>
  <circle cx="395.90563126942834" cy="510.28154032047104" fill="#ff7f0e" opacity="0.75" r="4"/>
  <circle cx="335.39139111586576" cy="542.1706156584125" fill="#ff7f0e" opacity="0.75" r="4"/>
  <circle cx="351.72153609181424" cy="456.51940742912205" fill="#ff7f0e" opacity="0.75" r="4"/>
  <circle cx="430.50372128373573" cy="522.933618964835" fill="#ff7f0e" opacity="0.75" r="4"/>
  <circle cx="533.2276109505958" cy="508.1109918628494" fill="#1f77b4" opacity="0.75" r="4"/>
  <circle cx="324.50648455449664" cy="560.7508468537781" fill="#ff7f0e" opacity="0.75" r="4"/>
  <circle cx="359.966444553981" cy="508.93580840708614" fill="#1f77b4" opacity="0.75" r="4"/>
  <circle cx="491.47915243697025" cy="533.5299309083484" fill="#ff7f0e" opacity="0.75" r="4"/>
  <circle cx="464.0365808231757" cy="482.02362268706014" fill="#2ca02c" opacity="0.75" r="4"/>
  <circle cx="400.24415596541843" cy="468.47019976307325" fill="#ff7f0e" opacity="0.75" r="4"/>
  <circle cx="322.58867590369493" cy="478.03039007219337" fill="#ff7f0e" opacity="0.75" r="4"/>
  <circle cx="486.67744797979486" cy="582.3285994967416" fill="#2ca02c" opacity="0.75" r="4"/>
  <circle cx="335.45062708807205" cy="499.99193322794065" fill="#2ca02c" opacity="0.75" r="4"/>
  <circle cx="481.6608799887756" cy="543.4404493828356" fill="#1f77b4" opacity="0.75" r="4"/>
  <circle cx="373.9921256748526" cy="528.1264120370244" fill="#ff7f0e" opacity="0.75" r="4"/>
  <circle cx="398.22072789471963" cy="467.9346551902156" fill="#1f77b4" opacity="0.75" r="4"/>
  <circle cx="351.1112891447465" cy="481.4195125966819" fill="#2ca02c" opacity="0.75" r="4"/>
  <circle cx="315.1758796831125" cy="507.08023284056435" fill="#ff7f0e" opacity="0.75" r="4"/>
  <circle cx="481.77631945223595" cy="571.4964986526925" fill="#ff7f0e" opacity="0.75" r="4"/>
  <circle cx="488.06842511641054" cy="527.418911656887" fill="#2ca02c" opacity="0.75" r="4"/>
  <circle cx="374.7090242922952" cy="618.8138424250767" fill="#2ca02c" opacity="0.75" r="4"/>
  <circle cx="368.8920427608158" cy="431.47743339725014" fill="#2ca02c" opacity="0.75" r="4"/>
  <circle cx="487.21004898213386" cy="460.03493609711154" fill="#2ca02c" opacity="0.75" r="4"/>
  <circle cx="441.0441323546263" cy="471.26527667633445" fill="#1f77b4" opacity="0.75" r="4"/>
  <circle cx="385.36893209781454" cy="619.8165415173207" fill="#2ca02c" opacity="0.75" r="4"/>
  <circle cx="367.79660375221425" cy="455.96914609698325" fill="#1f77b4" opacity="0.75" r="4"/>
  <circle cx="376.74809641097346" cy="465.9045173157991" fill="#1f77b4" opacity="0.75" r="4"/>
  <circle cx="398.626050121771" cy="520.3023839446955" fill="#1f77b4" opacity="0.75" r="4"/>
  <circle cx="312.09791548775877" cy="476.33394740874" fill="#ff7f0e" opacity="0.75" r="4"/>
  <circle cx="523.737774435952" cy="468.5695966661111" fill="#1f77b4" opacity="0.75" r="4"/>
  <circle cx="286.58682873492285" cy="469.8052805664839" fill="#2ca02c" opacity="0.75" r="4"/>
  <circle cx="543.7937968592857" cy="582.0136081164545" fill="#1f77b4" opacity="0.75" r="4"/>
  <circle cx="481.02000289174265" cy="531.1905275657857" fill="#2ca02c" opacity="0.75" r="4"/>
  <circle cx="306.770940058904" cy="559.8344687051444" fill="#ff7f0e" opacity="0.75" r="4"/>
  <circle cx="635.1436660210518" cy="449.3721896647254" fill="#ff7f0e" opacity="0.75" r="4"/>
  <circle cx="573.0822735559532" cy="465.96300374339336" fill="#2ca02c" opacity="0.75" r="4"/>
  <circle cx="592.6585171969311" cy="311.92361874723485" fill="#1f77b4" opacity="0.75" r="4"/>
  <circle cx="636.2223504864569" cy="517.1015343975691" fill="#ff7f0e" opacity="0.75" r="4"/>
  <circle cx="663.304881076167" cy="372.3950274093214" fill="#2ca02c" opacity="0.75" r="4"/>
  <circle cx="596.94637759687" cy="432.73194747718617" fill="#ff7f0e" opacity="0.75" r="4"/>
  <circle cx="720.3380305774182" cy="436.1550860028953" fill="#ff7f0e" opacity="0.75" r="4"/>
  <circle cx="393.4342212278935" cy="436.33129702676877" fill="#2ca02c" opacity="0.75" r="4"/>
  <circle cx="617.2252895741726" cy="361.8730294172626" fill="#1f77b4" opacity="0.75" r="4"/>
  <circle cx="631.1343260991898" cy="356.5942981655296" fill="#1f77b4" opacity="0.75" r="4"/>
  <circle cx="714.0369471268273" cy="405.3747427698685" fill="#2ca02c" opacity="0.75" r="4"/>
  <circle cx="609.8723085306635" cy="470.3508809808815" fill="#ff7f0e" opacity="0.75" r="4"/>
  <circle cx="650.3333021232339" cy="422.6700783459125" fill="#ff7f0e" opacity="0.75" r="4"/>
  <circle cx="583.4945648539057" cy="389.7719942907878" fill="#2ca02c" opacity="0.75" r="4"/>
  <circle cx="687.4510712348094" cy="394.41174609134356" fill="#2ca02c" opacity="0.75" r="4"/>
  <circle cx="681.340767398485" cy="437.3981223686661" fill="#1f77b4" opacity="0.75" r="4"/>
  <circle cx="571.3008377131816" cy="504.68239406882685" fill="#ff7f0e" opacity="0.75" r="4"/>
  <circle cx="709.9402815673131" cy="396.8993226771155" fill="#1f77b4" opacity="0.75" r="4"/>
  <circle cx="560.7467716359737" cy="303.43148622934916" fill="#2ca02c" opacity="0.75" r="4"/>
  <circle cx="627.5838095763937" cy="378.5637955210651" fill="#2ca02c" opacity="0.75" r="4"/>
  <circle cx="685.8959359009756" cy="468.1225487251159" fill="#2ca02c" opacity="0.75" r="4"/>
  <circle cx="782.9026523493725" cy="445.66961473723325" fill="#ff7f0e" opacity="0.75" r="4"/>
  <circle cx="568.8795583264427" cy="442.1519965602272" fill="#1f77b4" opacity="0.75" r="4"/>
  <circle cx="632.3844583140474" cy="375.62159746485116" fill="#1f77b4" opacity="0.75" r="4"/>
  <circle cx="600.3930844992292" cy="406.76463828671416" fill="#ff7f0e" opacity="0.75" r="4"/>
  <circle cx="659.4478415312896" cy="409.35101204522925" fill="#ff7f0e" opacity="0.75" r="4"/>
  <circle cx="723.5701729084736" cy="484.7123824816413" fill="#1f77b4" opacity="0.75" r="4"/>
  <circle cx="528.9106279061518" cy="347.31991668210935" fill="#1f77b4" opacity="0.75" r="4"/>
  <circle cx="784.8921486381295" cy="416.06459086157804" fill="#1f77b4" opacity="0.75" r="4"/>
  <circle cx="639.8505463405261" cy="459.39325492614984" fill="#1f77b4" opacity="0.75" r="4"/>
  <circle cx="534.6403112868137" cy="472.5690399726474" fill="#1f77b4" opacity="0.75" r="4"/>
  <circle cx="586.4776706347006" cy="402.65156516946035" fill="#1f77b4" opacity="0.75" r="4"/>
  <circle cx="723.6441807209495" cy="425.7661635767331" fill="#2ca02c" opacity="0.75" r="4"/>
  <circle cx="572.8603319807387" cy="438.2810453266417" fill="#ff7f0e" opacity="0.75" r="4"/>
  <circle cx="669.9557112124345" cy="409.46741032331704" fill="#2ca02c" opacity="0.75" r="4"/>
  <circle cx="578.1596406384426" cy="373.43061125749676" fill="#ff7f0e" opacity="0.75" r="4"/>
  <circle cx="673.040909426619" cy="406.5649878286389" fill="#2ca02c" opacity="0.75" r="4"/>
  <circle cx="541.481375839681" cy="414.1538015265522" fill="#2ca02c" opacity="0.75" r="4"/>
  <circle cx="526.0857436320091" cy="414.0860534568465" fill="#ff7f0e" opacity="0.75" r="4"/>
  <circle cx="636.1765821016444" cy="482.92215905183116" fill="#ff7f0e" opacity="0.75" r="4"/>
  <circle cx="573.6182374316021" cy="465.67742712746053" fill="#2ca02c" opacity="0.75" r="4"/>
  <circle cx="687.7867365738534" cy="423.2184171302997" fill="#1f77b4" opacity="0.75" r="4"/>
  <circle cx="603.7921839461312" cy="331.9113431583871" fill="#ff7f0e" opacity="0.75" r="4"/>
  <circle cx="626.0835524481633" cy="379.12006506048556" fill="#2ca02c" opacity="0.75" r="4"/>
  <circle cx="541.4289236924227" cy="405.43807098352676" fill="#2ca02c" opacity="0.75" r="4"/>
  <circle cx="575.8764295988573" cy="419.51510589392177" fill="#ff7f0e" opacity="0.75" r="4"/>
  <circle cx="741.7277381395572" cy="478.1411081466774" fill="#1f77b4" opacity="0.75" r="4"/>
  <circle cx="623.09129590044" cy="352.2639047154707" fill="#ff7f0e" opacity="0.75" r="4"/>
  <circle cx="678.9915186157148" cy="439.4153066363369" fill="#ff7f0e" opacity="0.75" r="4"/>
  <circle cx="587.916358329128" cy="458.08717866011386" fill="#2ca02c" opacity="0.75" r="4"/>
  <circle cx="686.9808473661728" cy="410.04760777061915" fill="#2ca02c" opacity="0.75" r="4"/>
  <circle cx="715.2891419214901" cy="414.9414931962719" fill="#1f77b4" opacity="0.75" r="4"/>
  <circle cx="654.1896156955007" cy="352.7958953699936" fill="#1f77b4" opacity="0.75" r="4"/>
  <circle cx="636.1513316381191" cy="518.9028765207279" fill="#ff7f0e" opacity="0.75" r="4"/>
  <circle cx="461.617664009417" cy="410.68441782185124" fill="#ff7f0e" opacity="0.75" r="4"/>
  <circle cx="485.2470326938405" cy="695.1312312972449" fill="#ff7f0e" opacity="0.75" r="4"/>
  <circle cx="608.600849158128" cy="583.6085313506544" fill="#ff7f0e" opacity="0.75" r="4"/>
  <circle cx="549.2373089441901" cy="545.9248684582054" fill="#ff7f0e" opacity="0.75" r="4"/>
  <circle cx="457.8488527658842" cy="605.138387774358" fill="#ff7f0e" opacity="0.75" r="4"/>
  <circle cx="578.8444794397576" cy="537.5526329463233" fill="#ff7f0e" opacity="0.75" r="4"/>
  <circle cx="512.2439987104228" cy="631.3973738741266" fill="#ff7f0e" opacity="0.75" r="4"/>
  <circle cx="534.8397618713128" cy="601.8658978072261" fill="#2ca02c" opacity="0.75" r="4"/>
  <circle cx="625.7918339532184" cy="586.1493699767623" fill="#2ca02c" opacity="0.75" r="4"/>
  <circle cx="566.9355915349192" cy="551.6331168040434" fill="#2ca02c" opacity="0.75" r="4"/>
  <circle cx="613.743292027732" cy="629.3425535394035" fill="#2ca02c" opacity="0.75" r="4"/>
  <circle cx="456.0076276827092" cy="619.498550316426" fill="#2ca02c" opacity="0.75" r="4"/>
  <circle cx="522.193843643664" cy="625.2992842977026" fill="#ff7f0e" opacity="0.75" r="4"/>
  <circle cx="479.5965603391555" cy="584.9918254293026" fill="#1f77b4" opacity="0.75" r="4"/>
  <circle cx="536.5019055487166" cy="519.0781491008697" fill="#1f77b4" opacity="0.75" r="4"/>
  <circle cx="481.64595876051453" cy="609.3296751656187" fill="#2ca02c" opacity="0.75" r="4"/>
  <circle cx="508.53209473822693" cy="597.4497440410912" fill="#2ca02c" opacity="0.75" r="4"/>
  <circle cx="473.01370135206196" cy="631.1444525374802" fill="#2ca02c" opacity="0.75" r="4"/>
  <circle cx="532.6841320839045" cy="599.6088970880742" fill="#1f77b4" opacity="0.75" r="4"/>
  <circle cx="471.0687995719265" cy="518.3208297471134" fill="#1f77b4" opacity="0.75" r="4"/>
  <circle cx="509.7727569526826" cy="589.0679559647652" fill="#1f77b4" opacity="0.75" r="4"/>
  <circle cx="537.9375016631179" cy="587.5127520943024" fill="#ff7f0e" opacity="0.75" r="4"/>
  <circle cx="591.684579177979" cy="648.3307689564832" fill="#ff7f0e" opacity="0.75" r="4"/>
  <circle cx="573.3876734500204" cy="622.4697656581337" fill="#2ca02c" opacity="0.75" r="4"/>
  <circle cx="490.4334560633321" cy="597.3623094300253" fill="#2ca02c" opacity="0.75" r="4"/>
  <circle cx="476.00192969212173" cy="622.208503241852" fill="#1f77b4" opacity="0.75" r="4"/>
  <circle cx="566.7495862229973" cy="552.3427884705445" fill="#1f77b4" opacity="0.75" r="4"/>
  <circle cx="496.638920941332" cy="524.1844511764095" fill="#ff7f0e" opacity="0.75" r="4"/>
  <circle cx="475.65015830191624" cy="634.1631108718893" fill="#2ca02c" opacity="0.75" r="4"/>
  <circle cx="570.0714412999911" cy="579.7739626780251" fill="#1f77b4" opacity="0.75" r="4"/>
  <circle cx="550.1773030173862" cy="510.4709248282553" fill="#ff7f0e" opacity="0.75" r="4"/>
  <circle cx="546.1043739869931" cy="615.740319407252" fill="#ff7f0e" opacity="0.75" r="4"/>
  <circle cx="450.8943443224407" cy="532.5080457388361" fill="#1f77b4" opacity="0.75" r="4"/>
  <circle cx="458.2739709800495" cy="613.3832783307795" fill="#ff7f0e" opacity="0.75" r="4"/>
  <circle cx="509.37289004216797" cy="648.2747266234057" fill="#2ca02c" opacity="0.75" r="4"/>
  <circle cx="537.80287980791" cy="606.5406308794429" fill="#1f77b4" opacity="0.75" r="4"/>
  <circle cx="596.2464307002422" cy="601.4430480061786" fill="#2ca02c" opacity="0.75" r="4"/>
  <circle cx="541.3451096094768" cy="628.0023531559827" fill="#1f77b4" opacity="0.75" r="4"/>
  <circle cx="601.7667885436016" cy="561.2201135311701" fill="#ff7f0e" opacity="0.75" r="4"/>
  <circle cx="561.2712098553701" cy="526.4708228621118" fill="#2ca02c" opacity="0.75" r="4"/>
  <circle cx="479.2152813471692" cy="611.1033340694715" fill="#2ca02c" opacity="0.75" r="4"/>
  <circle cx="515.81437723152" cy="622.5353198316832" fill="#ff7f0e" opacity="0.75" r="4"/>
  <circle cx="525.5706429728069" cy="551.3415552867523" fill="#ff7f0e" opacity="0.75" r="4"/>
  <circle cx="406.8125460282077" cy="574.8594253685236" fill="#2ca02c" opacity="0.75" r="4"/>
  <circle cx="514.9125453515675" cy="548.1861363248954" fill="#2ca02c" opacity="0.75" r="4"/>
  <circle cx="595.9512256007863" cy="637.8267628453086" fill="#ff7f0e" opacity="0.75" r="4"/>
  <circle cx="460.88648076539187" cy="624.2597687817374" fill="#2ca02c" opacity="0.75" r="4"/>
  <circle cx="596.576454780811" cy="613.1421447833552" fill="#2ca02c" opacity="0.75" r="4"/>
  <circle cx="462.83301565011345" cy="511.01009853453814" fill="#1f77b4" opacity="0.75" r="4"/>
  <circle cx="415.5920292562527" cy="459.26114720057353" fill="#2ca02c" opacity="0.75" r="4"/>
  <circle cx="476.5391139456767" cy="559.9768147218771" fill="#ff7f0e" opacity="0.75" r="4"/>
  <circle cx="551.3705443088388" cy="618.1646623334645" fill="#1f77b4" opacity="0.75" r="4"/>
  <circle cx="423.7827546439485" cy="516.0982693967355" fill="#1f77b4" opacity="0.75" r="4"/>
  <circle cx="483.5958767248175" cy="597.5169608184459" fill="#ff7f0e" opacity="0.75" r="4"/>
  <circle cx="509.4449559474167" cy="641.734313272229" fill="#ff7f0e" opacity="0.75" r="4"/>
  <circle cx="593.1413671281173" cy="615.7038594913181" fill="#2ca02c" opacity="0.75" r="4"/>
  <circle cx="914.0" cy="244.0" fill="#d62728" opacity="0.9" r="7"/>
  <text fill="#333" font-family="Arial, Helvetica, sans-serif" font-size="16" text-anchor="middle" x="570.0" y="765">Dimension 1</text>
  <text fill="#333" font-family="Arial, Helvetica, sans-serif" font-size="16" text-anchor="middle" transform="rotate(-90,85,440.0)" x="85" y="440.0">Dimension 2</text>
  <text fill="#999" font-family="Arial, Helvetica, sans-serif" font-size="12" text-anchor="end" x="1140" y="776">Auto-generated SVG</text>
</svg>
