<?xml version="1.0" encoding="UTF-8" standalone="no"?>
<!DOCTYPE svg PUBLIC "-//W3C//DTD SVG 1.1//EN"
 "http://www.w3.org/Graphics/SVG/1.1/DTD/svg11.dtd">
<!-- Generated by graphviz version 2.43.0 (0)
 -->
<!-- Title: confounding_dag Pages: 1 -->
<svg width="694pt" height="432pt"
 viewBox="0.00 0.00 693.62 432.00" xmlns="http://www.w3.org/2000/svg" xmlns:xlink="http://www.w3.org/1999/xlink">
<g id="graph0" class="graph" transform="scale(1.41 1.41) rotate(0) translate(4 302.43)">
<title>confounding_dag</title>
<polygon fill="white" stroke="transparent" points="-4,4 -4,-302.43 488,-302.43 488,4 -4,4"/>
<g id="clust1" class="cluster">
<title>cluster_left</title>
<polygon fill="none" stroke="black" points="8,-8 8,-287.21 195,-287.21 195,-8 8,-8"/>
<text text-anchor="middle" x="101.5" y="-274.41" font-family="Arial Bold" font-size="11.00">Confounded (Spurious Path)</text>
</g>
<g id="clust2" class="cluster">
<title>cluster_right</title>
<polygon fill="none" stroke="black" points="281,-8 281,-290.43 476,-290.43 476,-8 281,-8"/>
<text text-anchor="middle" x="378.5" y="-277.63" font-family="Arial Bold" font-size="11.00">Adjusted (Blocked Spurious Path)</text>
</g>
<!-- ancestry1 -->
<g id="node1" class="node">
<title>ancestry1</title>
<ellipse fill="#ff7f0e" stroke="black" stroke-width="1.5" cx="78" cy="-241.21" rx="32.93" ry="18"/>
<text text-anchor="middle" x="78" y="-238.71" font-family="Arial" font-size="10.00">Ancestry</text>
</g>
<!-- features1 -->
<g id="node2" class="node">
<title>features1</title>
<path fill="#aec7e8" stroke="black" stroke-width="1.5" d="M60,-154C60,-154 28,-154 28,-154 22,-154 16,-148 16,-142 16,-142 16,-130 16,-130 16,-124 22,-118 28,-118 28,-118 60,-118 60,-118 66,-118 72,-124 72,-130 72,-130 72,-142 72,-142 72,-148 66,-154 60,-154"/>
<text text-anchor="middle" x="44" y="-139" font-family="Arial" font-size="10.00">Genomic</text>
<text text-anchor="middle" x="44" y="-128" font-family="Arial" font-size="10.00">Features</text>
</g>
<!-- ancestry1&#45;&gt;features1 -->
<g id="edge1" class="edge">
<title>ancestry1&#45;&gt;features1</title>
<path fill="none" stroke="#d62728" stroke-width="2" d="M71.38,-223.34C67.36,-213.1 63,-202 63,-202 63,-202 57.09,-181.78 51.86,-163.9"/>
<polygon fill="#d62728" stroke="#d62728" stroke-width="2" points="55.16,-162.69 48.99,-154.08 48.44,-164.66 55.16,-162.69"/>
<text text-anchor="middle" x="83" y="-190.8" font-family="Times,serif" font-size="14.00">Allele</text>
<text text-anchor="middle" x="83" y="-175.8" font-family="Times,serif" font-size="14.00">freq</text>
</g>
<!-- outcome1 -->
<g id="node3" class="node">
<title>outcome1</title>
<path fill="#98df8a" stroke="black" stroke-width="1.5" d="M108,-52C108,-52 76,-52 76,-52 70,-52 64,-46 64,-40 64,-40 64,-28 64,-28 64,-22 70,-16 76,-16 76,-16 108,-16 108,-16 114,-16 120,-22 120,-28 120,-28 120,-40 120,-40 120,-46 114,-52 108,-52"/>
<text text-anchor="middle" x="92" y="-37" font-family="Arial" font-size="10.00">Disease</text>
<text text-anchor="middle" x="92" y="-26" font-family="Arial" font-size="10.00">Outcome</text>
</g>
<!-- ancestry1&#45;&gt;outcome1 -->
<g id="edge2" class="edge">
<title>ancestry1&#45;&gt;outcome1</title>
<path fill="none" stroke="#d62728" stroke-width="2" d="M88.75,-223.79C95.52,-213.43 103,-202 103,-202 103,-202 103,-172 103,-172 103,-172 97.39,-102.19 94.19,-62.23"/>
<polygon fill="#d62728" stroke="#d62728" stroke-width="2" points="97.66,-61.76 93.37,-52.07 90.68,-62.32 97.66,-61.76"/>
<text text-anchor="middle" x="140.5" y="-139.8" font-family="Times,serif" font-size="14.00">Healthcare</text>
<text text-anchor="middle" x="140.5" y="-124.8" font-family="Times,serif" font-size="14.00">access</text>
</g>
<!-- features1&#45;&gt;outcome1 -->
<g id="edge3" class="edge">
<title>features1&#45;&gt;outcome1</title>
<path fill="none" stroke="#555555" stroke-dasharray="5,2" d="M52.36,-117.58C59.79,-102.09 70.77,-79.22 79.29,-61.47"/>
<polygon fill="#555555" stroke="#555555" points="82.56,-62.75 83.73,-52.22 76.25,-59.72 82.56,-62.75"/>
<text text-anchor="middle" x="79" y="-81.3" font-family="Times,serif" font-size="14.00">?</text>
</g>
<!-- ancestry2 -->
<g id="node4" class="node">
<title>ancestry2</title>
<ellipse fill="#cccccc" stroke="black" stroke-width="1.5" cx="364" cy="-241.21" rx="50.82" ry="21.43"/>
<text text-anchor="middle" x="364" y="-244.21" font-family="Arial" font-size="10.00">Ancestry</text>
<text text-anchor="middle" x="364" y="-233.21" font-family="Arial" font-size="10.00">(conditioned)</text>
</g>
<!-- features2 -->
<g id="node5" class="node">
<title>features2</title>
<path fill="#aec7e8" stroke="black" stroke-width="1.5" d="M343,-154C343,-154 311,-154 311,-154 305,-154 299,-148 299,-142 299,-142 299,-130 299,-130 299,-124 305,-118 311,-118 311,-118 343,-118 343,-118 349,-118 355,-124 355,-130 355,-130 355,-142 355,-142 355,-148 349,-154 343,-154"/>
<text text-anchor="middle" x="327" y="-139" font-family="Arial" font-size="10.00">Genomic</text>
<text text-anchor="middle" x="327" y="-128" font-family="Arial" font-size="10.00">Features</text>
</g>
<!-- ancestry2&#45;&gt;features2 -->
<g id="edge4" class="edge">
<title>ancestry2&#45;&gt;features2</title>
<path fill="none" stroke="#cccccc" stroke-dasharray="5,2" d="M356.69,-219.82C350.95,-203.81 342.91,-181.38 336.64,-163.9"/>
<polygon fill="#cccccc" stroke="#cccccc" points="339.86,-162.5 333.19,-154.27 333.27,-164.86 339.86,-162.5"/>
</g>
<!-- outcome2 -->
<g id="node6" class="node">
<title>outcome2</title>
<path fill="#98df8a" stroke="black" stroke-width="1.5" d="M363,-52C363,-52 331,-52 331,-52 325,-52 319,-46 319,-40 319,-40 319,-28 319,-28 319,-22 325,-16 331,-16 331,-16 363,-16 363,-16 369,-16 375,-22 375,-28 375,-28 375,-40 375,-40 375,-46 369,-52 363,-52"/>
<text text-anchor="middle" x="347" y="-37" font-family="Arial" font-size="10.00">Disease</text>
<text text-anchor="middle" x="347" y="-26" font-family="Arial" font-size="10.00">Outcome</text>
</g>
<!-- ancestry2&#45;&gt;outcome2 -->
<g id="edge5" class="edge">
<title>ancestry2&#45;&gt;outcome2</title>
<path fill="none" stroke="#cccccc" stroke-dasharray="5,2" d="M365.31,-219.82C367.8,-180.94 373,-100 373,-100 373,-100 373,-70 373,-70 373,-70 369.83,-65.73 365.71,-60.18"/>
<polygon fill="#cccccc" stroke="#cccccc" points="368.47,-58.03 359.7,-52.09 362.85,-62.2 368.47,-58.03"/>
</g>
<!-- features2&#45;&gt;outcome2 -->
<g id="edge6" class="edge">
<title>features2&#45;&gt;outcome2</title>
<path fill="none" stroke="#2ca02c" stroke-width="2" d="M320.16,-117.91C316.61,-109.03 313,-100 313,-100 313,-100 313,-70 313,-70 313,-70 317.53,-65.34 323.28,-59.42"/>
<polygon fill="#2ca02c" stroke="#2ca02c" stroke-width="2" points="325.94,-61.7 330.4,-52.09 320.92,-56.82 325.94,-61.7"/>
<text text-anchor="middle" x="343" y="-88.8" font-family="Times,serif" font-size="14.00">Genuine</text>
<text text-anchor="middle" x="343" y="-73.8" font-family="Times,serif" font-size="14.00">effect?</text>
</g>
</g>
</svg>
