<?xml version="1.0" encoding="utf-8" standalone="no"?>
<!DOCTYPE svg PUBLIC "-//W3C//DTD SVG 1.1//EN"
  "http://www.w3.org/Graphics/SVG/1.1/DTD/svg11.dtd">
<svg xmlns:xlink="http://www.w3.org/1999/xlink" width="352.860312pt" height="280.674531pt" viewBox="0 0 352.860312 280.674531" xmlns="http://www.w3.org/2000/svg" version="1.1">
 <metadata>
  <rdf:RDF xmlns:dc="http://purl.org/dc/elements/1.1/" xmlns:cc="http://creativecommons.org/ns#" xmlns:rdf="http://www.w3.org/1999/02/22-rdf-syntax-ns#">
   <cc:Work>
    <dc:type rdf:resource="http://purl.org/dc/dcmitype/StillImage"/>
    <dc:date>2026-01-08T05:59:53.061899</dc:date>
    <dc:format>image/svg+xml</dc:format>
    <dc:creator>
     <cc:Agent>
      <dc:title>Matplotlib v3.10.7, https://matplotlib.org/</dc:title>
     </cc:Agent>
    </dc:creator>
   </cc:Work>
  </rdf:RDF>
 </metadata>
 <defs>
  <style type="text/css">*{stroke-linejoin: round; stroke-linecap: butt}</style>
 </defs>
 <g id="figure_1">
  <g id="patch_1">
   <path d="M 0 280.674531 
L 352.860312 280.674531 
L 352.860312 0 
L 0 0 
z
" style="fill: #ffffff"/>
  </g>
  <g id="axes_1">
   <g id="patch_2">
    <path d="M 42.620313 243.118281 
L 345.660312 243.118281 
L 345.660312 21.558281 
L 42.620313 21.558281 
z
" style="fill: #ffffff"/>
   </g>
   <g id="PathCollection_1">
    <defs>
     <path id="m156ebda04a" d="M 0 3.162278 
C 0.838646 3.162278 1.643056 2.82908 2.236068 2.236068 
C 2.82908 1.643056 3.162278 0.838646 3.162278 0 
C 3.162278 -0.838646 2.82908 -1.643056 2.236068 -2.236068 
C 1.643056 -2.82908 0.838646 -3.162278 0 -3.162278 
C -0.838646 -3.162278 -1.643056 -2.82908 -2.236068 -2.236068 
C -2.82908 -1.643056 -3.162278 -0.838646 -3.162278 0 
C -3.162278 0.838646 -2.82908 1.643056 -2.236068 2.236068 
C -1.643056 2.82908 -0.838646 3.162278 0 3.162278 
z
" style="stroke: #1f77b4; stroke-opacity: 0.6"/>
    </defs>
    <g clip-path="url(#pe3d9fef879)">
     <use xlink:href="#m156ebda04a" x="134.959572" y="112.862551" style="fill: #1f77b4; fill-opacity: 0.6; stroke: #1f77b4; stroke-opacity: 0.6"/>
     <use xlink:href="#m156ebda04a" x="103.892119" y="182.320184" style="fill: #1f77b4; fill-opacity: 0.6; stroke: #1f77b4; stroke-opacity: 0.6"/>
     <use xlink:href="#m156ebda04a" x="81.673438" y="93.604065" style="fill: #1f77b4; fill-opacity: 0.6; stroke: #1f77b4; stroke-opacity: 0.6"/>
     <use xlink:href="#m156ebda04a" x="130.802557" y="136.459221" style="fill: #1f77b4; fill-opacity: 0.6; stroke: #1f77b4; stroke-opacity: 0.6"/>
     <use xlink:href="#m156ebda04a" x="96.053021" y="134.138345" style="fill: #1f77b4; fill-opacity: 0.6; stroke: #1f77b4; stroke-opacity: 0.6"/>
     <use xlink:href="#m156ebda04a" x="109.925362" y="157.505066" style="fill: #1f77b4; fill-opacity: 0.6; stroke: #1f77b4; stroke-opacity: 0.6"/>
     <use xlink:href="#m156ebda04a" x="112.273753" y="132.968306" style="fill: #1f77b4; fill-opacity: 0.6; stroke: #1f77b4; stroke-opacity: 0.6"/>
     <use xlink:href="#m156ebda04a" x="118.443702" y="154.114385" style="fill: #1f77b4; fill-opacity: 0.6; stroke: #1f77b4; stroke-opacity: 0.6"/>
     <use xlink:href="#m156ebda04a" x="137.176932" y="102.994738" style="fill: #1f77b4; fill-opacity: 0.6; stroke: #1f77b4; stroke-opacity: 0.6"/>
     <use xlink:href="#m156ebda04a" x="82.214608" y="117.790543" style="fill: #1f77b4; fill-opacity: 0.6; stroke: #1f77b4; stroke-opacity: 0.6"/>
     <use xlink:href="#m156ebda04a" x="97.995628" y="141.511709" style="fill: #1f77b4; fill-opacity: 0.6; stroke: #1f77b4; stroke-opacity: 0.6"/>
     <use xlink:href="#m156ebda04a" x="138.753458" y="163.181289" style="fill: #1f77b4; fill-opacity: 0.6; stroke: #1f77b4; stroke-opacity: 0.6"/>
     <use xlink:href="#m156ebda04a" x="81.72753" y="173.519238" style="fill: #1f77b4; fill-opacity: 0.6; stroke: #1f77b4; stroke-opacity: 0.6"/>
     <use xlink:href="#m156ebda04a" x="121.014781" y="158.034841" style="fill: #1f77b4; fill-opacity: 0.6; stroke: #1f77b4; stroke-opacity: 0.6"/>
     <use xlink:href="#m156ebda04a" x="137.085126" y="107.555324" style="fill: #1f77b4; fill-opacity: 0.6; stroke: #1f77b4; stroke-opacity: 0.6"/>
     <use xlink:href="#m156ebda04a" x="135.687915" y="157.984412" style="fill: #1f77b4; fill-opacity: 0.6; stroke: #1f77b4; stroke-opacity: 0.6"/>
     <use xlink:href="#m156ebda04a" x="124.404744" y="197.469095" style="fill: #1f77b4; fill-opacity: 0.6; stroke: #1f77b4; stroke-opacity: 0.6"/>
     <use xlink:href="#m156ebda04a" x="98.166221" y="142.160402" style="fill: #1f77b4; fill-opacity: 0.6; stroke: #1f77b4; stroke-opacity: 0.6"/>
     <use xlink:href="#m156ebda04a" x="119.468269" y="188.215583" style="fill: #1f77b4; fill-opacity: 0.6; stroke: #1f77b4; stroke-opacity: 0.6"/>
     <use xlink:href="#m156ebda04a" x="99.11746" y="195.740326" style="fill: #1f77b4; fill-opacity: 0.6; stroke: #1f77b4; stroke-opacity: 0.6"/>
     <use xlink:href="#m156ebda04a" x="115.165108" y="161.862976" style="fill: #1f77b4; fill-opacity: 0.6; stroke: #1f77b4; stroke-opacity: 0.6"/>
     <use xlink:href="#m156ebda04a" x="56.394858" y="179.500601" style="fill: #1f77b4; fill-opacity: 0.6; stroke: #1f77b4; stroke-opacity: 0.6"/>
     <use xlink:href="#m156ebda04a" x="75.934569" y="150.430461" style="fill: #1f77b4; fill-opacity: 0.6; stroke: #1f77b4; stroke-opacity: 0.6"/>
     <use xlink:href="#m156ebda04a" x="116.671133" y="169.936488" style="fill: #1f77b4; fill-opacity: 0.6; stroke: #1f77b4; stroke-opacity: 0.6"/>
     <use xlink:href="#m156ebda04a" x="143.541254" y="182.966028" style="fill: #1f77b4; fill-opacity: 0.6; stroke: #1f77b4; stroke-opacity: 0.6"/>
     <use xlink:href="#m156ebda04a" x="117.930574" y="136.629871" style="fill: #1f77b4; fill-opacity: 0.6; stroke: #1f77b4; stroke-opacity: 0.6"/>
     <use xlink:href="#m156ebda04a" x="147.286176" y="167.353106" style="fill: #1f77b4; fill-opacity: 0.6; stroke: #1f77b4; stroke-opacity: 0.6"/>
     <use xlink:href="#m156ebda04a" x="123.221051" y="154.326405" style="fill: #1f77b4; fill-opacity: 0.6; stroke: #1f77b4; stroke-opacity: 0.6"/>
     <use xlink:href="#m156ebda04a" x="185.980494" y="106.437377" style="fill: #1f77b4; fill-opacity: 0.6; stroke: #1f77b4; stroke-opacity: 0.6"/>
     <use xlink:href="#m156ebda04a" x="140.830704" y="146.460332" style="fill: #1f77b4; fill-opacity: 0.6; stroke: #1f77b4; stroke-opacity: 0.6"/>
    </g>
   </g>
   <g id="PathCollection_2">
    <defs>
     <path id="m19f174c4df" d="M 0 3.162278 
C 0.838646 3.162278 1.643056 2.82908 2.236068 2.236068 
C 2.82908 1.643056 3.162278 0.838646 3.162278 0 
C 3.162278 -0.838646 2.82908 -1.643056 2.236068 -2.236068 
C 1.643056 -2.82908 0.838646 -3.162278 0 -3.162278 
C -0.838646 -3.162278 -1.643056 -2.82908 -2.236068 -2.236068 
C -2.82908 -1.643056 -3.162278 -0.838646 -3.162278 0 
C -3.162278 0.838646 -2.82908 1.643056 -2.236068 2.236068 
C -1.643056 2.82908 -0.838646 3.162278 0 3.162278 
z
" style="stroke: #2ca02c; stroke-opacity: 0.6"/>
    </defs>
    <g clip-path="url(#pe3d9fef879)">
     <use xlink:href="#m19f174c4df" x="226.807214" y="68.77203" style="fill: #2ca02c; fill-opacity: 0.6; stroke: #2ca02c; stroke-opacity: 0.6"/>
     <use xlink:href="#m19f174c4df" x="186.431836" y="97.666049" style="fill: #2ca02c; fill-opacity: 0.6; stroke: #2ca02c; stroke-opacity: 0.6"/>
     <use xlink:href="#m19f174c4df" x="214.825271" y="83.022035" style="fill: #2ca02c; fill-opacity: 0.6; stroke: #2ca02c; stroke-opacity: 0.6"/>
     <use xlink:href="#m19f174c4df" x="209.500056" y="68.958306" style="fill: #2ca02c; fill-opacity: 0.6; stroke: #2ca02c; stroke-opacity: 0.6"/>
     <use xlink:href="#m19f174c4df" x="238.361692" y="75.245718" style="fill: #2ca02c; fill-opacity: 0.6; stroke: #2ca02c; stroke-opacity: 0.6"/>
     <use xlink:href="#m19f174c4df" x="181.708967" y="41.43441" style="fill: #2ca02c; fill-opacity: 0.6; stroke: #2ca02c; stroke-opacity: 0.6"/>
     <use xlink:href="#m19f174c4df" x="215.793717" y="48.554836" style="fill: #2ca02c; fill-opacity: 0.6; stroke: #2ca02c; stroke-opacity: 0.6"/>
     <use xlink:href="#m19f174c4df" x="143.516857" y="116.996292" style="fill: #2ca02c; fill-opacity: 0.6; stroke: #2ca02c; stroke-opacity: 0.6"/>
     <use xlink:href="#m19f174c4df" x="178.18505" y="85.867603" style="fill: #2ca02c; fill-opacity: 0.6; stroke: #2ca02c; stroke-opacity: 0.6"/>
     <use xlink:href="#m19f174c4df" x="174.48545" y="43.791364" style="fill: #2ca02c; fill-opacity: 0.6; stroke: #2ca02c; stroke-opacity: 0.6"/>
     <use xlink:href="#m19f174c4df" x="212.47723" y="121.460388" style="fill: #2ca02c; fill-opacity: 0.6; stroke: #2ca02c; stroke-opacity: 0.6"/>
     <use xlink:href="#m19f174c4df" x="175.678524" y="77.317002" style="fill: #2ca02c; fill-opacity: 0.6; stroke: #2ca02c; stroke-opacity: 0.6"/>
     <use xlink:href="#m19f174c4df" x="216.211768" y="78.400561" style="fill: #2ca02c; fill-opacity: 0.6; stroke: #2ca02c; stroke-opacity: 0.6"/>
     <use xlink:href="#m19f174c4df" x="240.407866" y="80.646802" style="fill: #2ca02c; fill-opacity: 0.6; stroke: #2ca02c; stroke-opacity: 0.6"/>
     <use xlink:href="#m19f174c4df" x="169.454916" y="115.157322" style="fill: #2ca02c; fill-opacity: 0.6; stroke: #2ca02c; stroke-opacity: 0.6"/>
     <use xlink:href="#m19f174c4df" x="167.397955" y="36.962412" style="fill: #2ca02c; fill-opacity: 0.6; stroke: #2ca02c; stroke-opacity: 0.6"/>
     <use xlink:href="#m19f174c4df" x="249.029018" y="121.163249" style="fill: #2ca02c; fill-opacity: 0.6; stroke: #2ca02c; stroke-opacity: 0.6"/>
     <use xlink:href="#m19f174c4df" x="192.628402" y="99.002337" style="fill: #2ca02c; fill-opacity: 0.6; stroke: #2ca02c; stroke-opacity: 0.6"/>
     <use xlink:href="#m19f174c4df" x="201.595532" y="111.828914" style="fill: #2ca02c; fill-opacity: 0.6; stroke: #2ca02c; stroke-opacity: 0.6"/>
     <use xlink:href="#m19f174c4df" x="187.113225" y="115.161752" style="fill: #2ca02c; fill-opacity: 0.6; stroke: #2ca02c; stroke-opacity: 0.6"/>
     <use xlink:href="#m19f174c4df" x="196.081061" y="70.032296" style="fill: #2ca02c; fill-opacity: 0.6; stroke: #2ca02c; stroke-opacity: 0.6"/>
     <use xlink:href="#m19f174c4df" x="208.909888" y="90.804599" style="fill: #2ca02c; fill-opacity: 0.6; stroke: #2ca02c; stroke-opacity: 0.6"/>
     <use xlink:href="#m19f174c4df" x="173.032046" y="78.23098" style="fill: #2ca02c; fill-opacity: 0.6; stroke: #2ca02c; stroke-opacity: 0.6"/>
     <use xlink:href="#m19f174c4df" x="195.673298" y="96.855555" style="fill: #2ca02c; fill-opacity: 0.6; stroke: #2ca02c; stroke-opacity: 0.6"/>
     <use xlink:href="#m19f174c4df" x="169.677952" y="31.62919" style="fill: #2ca02c; fill-opacity: 0.6; stroke: #2ca02c; stroke-opacity: 0.6"/>
     <use xlink:href="#m19f174c4df" x="271.949125" y="135.655115" style="fill: #2ca02c; fill-opacity: 0.6; stroke: #2ca02c; stroke-opacity: 0.6"/>
     <use xlink:href="#m19f174c4df" x="242.475472" y="40.1509" style="fill: #2ca02c; fill-opacity: 0.6; stroke: #2ca02c; stroke-opacity: 0.6"/>
     <use xlink:href="#m19f174c4df" x="179.397966" y="146.768276" style="fill: #2ca02c; fill-opacity: 0.6; stroke: #2ca02c; stroke-opacity: 0.6"/>
     <use xlink:href="#m19f174c4df" x="154.598441" y="143.930949" style="fill: #2ca02c; fill-opacity: 0.6; stroke: #2ca02c; stroke-opacity: 0.6"/>
     <use xlink:href="#m19f174c4df" x="223.703582" y="86.966837" style="fill: #2ca02c; fill-opacity: 0.6; stroke: #2ca02c; stroke-opacity: 0.6"/>
    </g>
   </g>
   <g id="PathCollection_3">
    <defs>
     <path id="mbc77c293c6" d="M 0 3.162278 
C 0.838646 3.162278 1.643056 2.82908 2.236068 2.236068 
C 2.82908 1.643056 3.162278 0.838646 3.162278 0 
C 3.162278 -0.838646 2.82908 -1.643056 2.236068 -2.236068 
C 1.643056 -2.82908 0.838646 -3.162278 0 -3.162278 
C -0.838646 -3.162278 -1.643056 -2.82908 -2.236068 -2.236068 
C -2.82908 -1.643056 -3.162278 -0.838646 -3.162278 0 
C -3.162278 0.838646 -2.82908 1.643056 -2.236068 2.236068 
C -1.643056 2.82908 -0.838646 3.162278 0 3.162278 
z
" style="stroke: #d62728; stroke-opacity: 0.6"/>
    </defs>
    <g clip-path="url(#pe3d9fef879)">
     <use xlink:href="#mbc77c293c6" x="284.578916" y="117.772492" style="fill: #d62728; fill-opacity: 0.6; stroke: #d62728; stroke-opacity: 0.6"/>
     <use xlink:href="#mbc77c293c6" x="331.885767" y="156.59298" style="fill: #d62728; fill-opacity: 0.6; stroke: #d62728; stroke-opacity: 0.6"/>
     <use xlink:href="#mbc77c293c6" x="218.234208" y="192.773894" style="fill: #d62728; fill-opacity: 0.6; stroke: #d62728; stroke-opacity: 0.6"/>
     <use xlink:href="#mbc77c293c6" x="297.902448" y="129.265976" style="fill: #d62728; fill-opacity: 0.6; stroke: #d62728; stroke-opacity: 0.6"/>
     <use xlink:href="#mbc77c293c6" x="247.061889" y="132.315557" style="fill: #d62728; fill-opacity: 0.6; stroke: #d62728; stroke-opacity: 0.6"/>
     <use xlink:href="#mbc77c293c6" x="272.60592" y="160.014363" style="fill: #d62728; fill-opacity: 0.6; stroke: #d62728; stroke-opacity: 0.6"/>
     <use xlink:href="#mbc77c293c6" x="291.296757" y="172.038289" style="fill: #d62728; fill-opacity: 0.6; stroke: #d62728; stroke-opacity: 0.6"/>
     <use xlink:href="#mbc77c293c6" x="306.460412" y="184.938372" style="fill: #d62728; fill-opacity: 0.6; stroke: #d62728; stroke-opacity: 0.6"/>
     <use xlink:href="#mbc77c293c6" x="286.472968" y="129.773091" style="fill: #d62728; fill-opacity: 0.6; stroke: #d62728; stroke-opacity: 0.6"/>
     <use xlink:href="#mbc77c293c6" x="326.268452" y="150.26542" style="fill: #d62728; fill-opacity: 0.6; stroke: #d62728; stroke-opacity: 0.6"/>
     <use xlink:href="#mbc77c293c6" x="242.204391" y="171.774144" style="fill: #d62728; fill-opacity: 0.6; stroke: #d62728; stroke-opacity: 0.6"/>
     <use xlink:href="#mbc77c293c6" x="304.302027" y="98.634673" style="fill: #d62728; fill-opacity: 0.6; stroke: #d62728; stroke-opacity: 0.6"/>
     <use xlink:href="#mbc77c293c6" x="291.562572" y="140.814531" style="fill: #d62728; fill-opacity: 0.6; stroke: #d62728; stroke-opacity: 0.6"/>
     <use xlink:href="#mbc77c293c6" x="285.716621" y="153.377295" style="fill: #d62728; fill-opacity: 0.6; stroke: #d62728; stroke-opacity: 0.6"/>
     <use xlink:href="#mbc77c293c6" x="279.14707" y="149.952624" style="fill: #d62728; fill-opacity: 0.6; stroke: #d62728; stroke-opacity: 0.6"/>
     <use xlink:href="#mbc77c293c6" x="310.756031" y="145.053186" style="fill: #d62728; fill-opacity: 0.6; stroke: #d62728; stroke-opacity: 0.6"/>
     <use xlink:href="#mbc77c293c6" x="286.228496" y="189.213075" style="fill: #d62728; fill-opacity: 0.6; stroke: #d62728; stroke-opacity: 0.6"/>
     <use xlink:href="#mbc77c293c6" x="320.890654" y="206.072242" style="fill: #d62728; fill-opacity: 0.6; stroke: #d62728; stroke-opacity: 0.6"/>
     <use xlink:href="#mbc77c293c6" x="309.668859" y="233.047372" style="fill: #d62728; fill-opacity: 0.6; stroke: #d62728; stroke-opacity: 0.6"/>
     <use xlink:href="#mbc77c293c6" x="240.563655" y="128.311817" style="fill: #d62728; fill-opacity: 0.6; stroke: #d62728; stroke-opacity: 0.6"/>
     <use xlink:href="#mbc77c293c6" x="278.818878" y="103.223324" style="fill: #d62728; fill-opacity: 0.6; stroke: #d62728; stroke-opacity: 0.6"/>
     <use xlink:href="#mbc77c293c6" x="283.929213" y="136.870119" style="fill: #d62728; fill-opacity: 0.6; stroke: #d62728; stroke-opacity: 0.6"/>
     <use xlink:href="#mbc77c293c6" x="257.344645" y="133.886013" style="fill: #d62728; fill-opacity: 0.6; stroke: #d62728; stroke-opacity: 0.6"/>
     <use xlink:href="#mbc77c293c6" x="291.342639" y="120.687836" style="fill: #d62728; fill-opacity: 0.6; stroke: #d62728; stroke-opacity: 0.6"/>
     <use xlink:href="#mbc77c293c6" x="274.783125" y="92.806435" style="fill: #d62728; fill-opacity: 0.6; stroke: #d62728; stroke-opacity: 0.6"/>
     <use xlink:href="#mbc77c293c6" x="278.361795" y="156.465975" style="fill: #d62728; fill-opacity: 0.6; stroke: #d62728; stroke-opacity: 0.6"/>
     <use xlink:href="#mbc77c293c6" x="219.63112" y="154.866379" style="fill: #d62728; fill-opacity: 0.6; stroke: #d62728; stroke-opacity: 0.6"/>
     <use xlink:href="#mbc77c293c6" x="278.52755" y="148.914852" style="fill: #d62728; fill-opacity: 0.6; stroke: #d62728; stroke-opacity: 0.6"/>
     <use xlink:href="#mbc77c293c6" x="271.119631" y="105.039769" style="fill: #d62728; fill-opacity: 0.6; stroke: #d62728; stroke-opacity: 0.6"/>
     <use xlink:href="#mbc77c293c6" x="283.109378" y="152.881526" style="fill: #d62728; fill-opacity: 0.6; stroke: #d62728; stroke-opacity: 0.6"/>
    </g>
   </g>
   <g id="matplotlib.axis_1">
    <g id="xtick_1">
     <g id="line2d_1">
      <defs>
       <path id="m3a69ba41f6" d="M 0 0 
L 0 3.5 
" style="stroke: #000000; stroke-width: 0.8"/>
      </defs>
      <g>
       <use xlink:href="#m3a69ba41f6" x="67.46478" y="243.118281" style="stroke: #000000; stroke-width: 0.8"/>
      </g>
     </g>
     <g id="text_1">
      <!-- −2 -->
      <g transform="translate(60.093687 257.716719) scale(0.1 -0.1)">
       <defs>
        <path id="DejaVuSans-2212" d="M 678 2272 
L 4684 2272 
L 4684 1741 
L 678 1741 
L 678 2272 
z
" transform="scale(0.015625)"/>
        <path id="DejaVuSans-32" d="M 1228 531 
L 3431 531 
L 3431 0 
L 469 0 
L 469 531 
Q 828 903 1448 1529 
Q 2069 2156 2228 2338 
Q 2531 2678 2651 2914 
Q 2772 3150 2772 3378 
Q 2772 3750 2511 3984 
Q 2250 4219 1831 4219 
Q 1534 4219 1204 4116 
Q 875 4013 500 3803 
L 500 4441 
Q 881 4594 1212 4672 
Q 1544 4750 1819 4750 
Q 2544 4750 2975 4387 
Q 3406 4025 3406 3419 
Q 3406 3131 3298 2873 
Q 3191 2616 2906 2266 
Q 2828 2175 2409 1742 
Q 1991 1309 1228 531 
z
" transform="scale(0.015625)"/>
       </defs>
       <use xlink:href="#DejaVuSans-2212"/>
       <use xlink:href="#DejaVuSans-32" transform="translate(83.789062 0)"/>
      </g>
     </g>
    </g>
    <g id="xtick_2">
     <g id="line2d_2">
      <g>
       <use xlink:href="#m3a69ba41f6" x="121.59069" y="243.118281" style="stroke: #000000; stroke-width: 0.8"/>
      </g>
     </g>
     <g id="text_2">
      <!-- 0 -->
      <g transform="translate(118.40944 257.716719) scale(0.1 -0.1)">
       <defs>
        <path id="DejaVuSans-30" d="M 2034 4250 
Q 1547 4250 1301 3770 
Q 1056 3291 1056 2328 
Q 1056 1369 1301 889 
Q 1547 409 2034 409 
Q 2525 409 2770 889 
Q 3016 1369 3016 2328 
Q 3016 3291 2770 3770 
Q 2525 4250 2034 4250 
z
M 2034 4750 
Q 2819 4750 3233 4129 
Q 3647 3509 3647 2328 
Q 3647 1150 3233 529 
Q 2819 -91 2034 -91 
Q 1250 -91 836 529 
Q 422 1150 422 2328 
Q 422 3509 836 4129 
Q 1250 4750 2034 4750 
z
" transform="scale(0.015625)"/>
       </defs>
       <use xlink:href="#DejaVuSans-30"/>
      </g>
     </g>
    </g>
    <g id="xtick_3">
     <g id="line2d_3">
      <g>
       <use xlink:href="#m3a69ba41f6" x="175.7166" y="243.118281" style="stroke: #000000; stroke-width: 0.8"/>
      </g>
     </g>
     <g id="text_3">
      <!-- 2 -->
      <g transform="translate(172.53535 257.716719) scale(0.1 -0.1)">
       <use xlink:href="#DejaVuSans-32"/>
      </g>
     </g>
    </g>
    <g id="xtick_4">
     <g id="line2d_4">
      <g>
       <use xlink:href="#m3a69ba41f6" x="229.84251" y="243.118281" style="stroke: #000000; stroke-width: 0.8"/>
      </g>
     </g>
     <g id="text_4">
      <!-- 4 -->
      <g transform="translate(226.66126 257.716719) scale(0.1 -0.1)">
       <defs>
        <path id="DejaVuSans-34" d="M 2419 4116 
L 825 1625 
L 2419 1625 
L 2419 4116 
z
M 2253 4666 
L 3047 4666 
L 3047 1625 
L 3713 1625 
L 3713 1100 
L 3047 1100 
L 3047 0 
L 2419 0 
L 2419 1100 
L 313 1100 
L 313 1709 
L 2253 4666 
z
" transform="scale(0.015625)"/>
       </defs>
       <use xlink:href="#DejaVuSans-34"/>
      </g>
     </g>
    </g>
    <g id="xtick_5">
     <g id="line2d_5">
      <g>
       <use xlink:href="#m3a69ba41f6" x="283.96842" y="243.118281" style="stroke: #000000; stroke-width: 0.8"/>
      </g>
     </g>
     <g id="text_5">
      <!-- 6 -->
      <g transform="translate(280.78717 257.716719) scale(0.1 -0.1)">
       <defs>
        <path id="DejaVuSans-36" d="M 2113 2584 
Q 1688 2584 1439 2293 
Q 1191 2003 1191 1497 
Q 1191 994 1439 701 
Q 1688 409 2113 409 
Q 2538 409 2786 701 
Q 3034 994 3034 1497 
Q 3034 2003 2786 2293 
Q 2538 2584 2113 2584 
z
M 3366 4563 
L 3366 3988 
Q 3128 4100 2886 4159 
Q 2644 4219 2406 4219 
Q 1781 4219 1451 3797 
Q 1122 3375 1075 2522 
Q 1259 2794 1537 2939 
Q 1816 3084 2150 3084 
Q 2853 3084 3261 2657 
Q 3669 2231 3669 1497 
Q 3669 778 3244 343 
Q 2819 -91 2113 -91 
Q 1303 -91 875 529 
Q 447 1150 447 2328 
Q 447 3434 972 4092 
Q 1497 4750 2381 4750 
Q 2619 4750 2861 4703 
Q 3103 4656 3366 4563 
z
" transform="scale(0.015625)"/>
       </defs>
       <use xlink:href="#DejaVuSans-36"/>
      </g>
     </g>
    </g>
    <g id="xtick_6">
     <g id="line2d_6">
      <g>
       <use xlink:href="#m3a69ba41f6" x="338.094329" y="243.118281" style="stroke: #000000; stroke-width: 0.8"/>
      </g>
     </g>
     <g id="text_6">
      <!-- 8 -->
      <g transform="translate(334.913079 257.716719) scale(0.1 -0.1)">
       <defs>
        <path id="DejaVuSans-38" d="M 2034 2216 
Q 1584 2216 1326 1975 
Q 1069 1734 1069 1313 
Q 1069 891 1326 650 
Q 1584 409 2034 409 
Q 2484 409 2743 651 
Q 3003 894 3003 1313 
Q 3003 1734 2745 1975 
Q 2488 2216 2034 2216 
z
M 1403 2484 
Q 997 2584 770 2862 
Q 544 3141 544 3541 
Q 544 4100 942 4425 
Q 1341 4750 2034 4750 
Q 2731 4750 3128 4425 
Q 3525 4100 3525 3541 
Q 3525 3141 3298 2862 
Q 3072 2584 2669 2484 
Q 3125 2378 3379 2068 
Q 3634 1759 3634 1313 
Q 3634 634 3220 271 
Q 2806 -91 2034 -91 
Q 1263 -91 848 271 
Q 434 634 434 1313 
Q 434 1759 690 2068 
Q 947 2378 1403 2484 
z
M 1172 3481 
Q 1172 3119 1398 2916 
Q 1625 2713 2034 2713 
Q 2441 2713 2670 2916 
Q 2900 3119 2900 3481 
Q 2900 3844 2670 4047 
Q 2441 4250 2034 4250 
Q 1625 4250 1398 4047 
Q 1172 3844 1172 3481 
z
" transform="scale(0.015625)"/>
       </defs>
       <use xlink:href="#DejaVuSans-38"/>
      </g>
     </g>
    </g>
    <g id="text_7">
     <!-- PC1 -->
     <g transform="translate(183.327031 271.394844) scale(0.1 -0.1)">
      <defs>
       <path id="DejaVuSans-Bold-50" d="M 588 4666 
L 2584 4666 
Q 3475 4666 3951 4270 
Q 4428 3875 4428 3144 
Q 4428 2409 3951 2014 
Q 3475 1619 2584 1619 
L 1791 1619 
L 1791 0 
L 588 0 
L 588 4666 
z
M 1791 3794 
L 1791 2491 
L 2456 2491 
Q 2806 2491 2997 2661 
Q 3188 2831 3188 3144 
Q 3188 3456 2997 3625 
Q 2806 3794 2456 3794 
L 1791 3794 
z
" transform="scale(0.015625)"/>
       <path id="DejaVuSans-Bold-43" d="M 4288 256 
Q 3956 84 3597 -3 
Q 3238 -91 2847 -91 
Q 1681 -91 1000 561 
Q 319 1213 319 2328 
Q 319 3447 1000 4098 
Q 1681 4750 2847 4750 
Q 3238 4750 3597 4662 
Q 3956 4575 4288 4403 
L 4288 3438 
Q 3953 3666 3628 3772 
Q 3303 3878 2944 3878 
Q 2300 3878 1931 3465 
Q 1563 3053 1563 2328 
Q 1563 1606 1931 1193 
Q 2300 781 2944 781 
Q 3303 781 3628 887 
Q 3953 994 4288 1222 
L 4288 256 
z
" transform="scale(0.015625)"/>
       <path id="DejaVuSans-Bold-31" d="M 750 831 
L 1813 831 
L 1813 3847 
L 722 3622 
L 722 4441 
L 1806 4666 
L 2950 4666 
L 2950 831 
L 4013 831 
L 4013 0 
L 750 0 
L 750 831 
z
" transform="scale(0.015625)"/>
      </defs>
      <use xlink:href="#DejaVuSans-Bold-50"/>
      <use xlink:href="#DejaVuSans-Bold-43" transform="translate(73.291016 0)"/>
      <use xlink:href="#DejaVuSans-Bold-31" transform="translate(146.679688 0)"/>
     </g>
    </g>
   </g>
   <g id="matplotlib.axis_2">
    <g id="ytick_1">
     <g id="line2d_7">
      <defs>
       <path id="m6650ee76ed" d="M 0 0 
L -3.5 0 
" style="stroke: #000000; stroke-width: 0.8"/>
      </defs>
      <g>
       <use xlink:href="#m6650ee76ed" x="42.620313" y="238.858456" style="stroke: #000000; stroke-width: 0.8"/>
      </g>
     </g>
     <g id="text_8">
      <!-- −3 -->
      <g transform="translate(20.878125 242.657675) scale(0.1 -0.1)">
       <defs>
        <path id="DejaVuSans-33" d="M 2597 2516 
Q 3050 2419 3304 2112 
Q 3559 1806 3559 1356 
Q 3559 666 3084 287 
Q 2609 -91 1734 -91 
Q 1441 -91 1130 -33 
Q 819 25 488 141 
L 488 750 
Q 750 597 1062 519 
Q 1375 441 1716 441 
Q 2309 441 2620 675 
Q 2931 909 2931 1356 
Q 2931 1769 2642 2001 
Q 2353 2234 1838 2234 
L 1294 2234 
L 1294 2753 
L 1863 2753 
Q 2328 2753 2575 2939 
Q 2822 3125 2822 3475 
Q 2822 3834 2567 4026 
Q 2313 4219 1838 4219 
Q 1578 4219 1281 4162 
Q 984 4106 628 3988 
L 628 4550 
Q 988 4650 1302 4700 
Q 1616 4750 1894 4750 
Q 2613 4750 3031 4423 
Q 3450 4097 3450 3541 
Q 3450 3153 3228 2886 
Q 3006 2619 2597 2516 
z
" transform="scale(0.015625)"/>
       </defs>
       <use xlink:href="#DejaVuSans-2212"/>
       <use xlink:href="#DejaVuSans-33" transform="translate(83.789062 0)"/>
      </g>
     </g>
    </g>
    <g id="ytick_2">
     <g id="line2d_8">
      <g>
       <use xlink:href="#m6650ee76ed" x="42.620313" y="208.913535" style="stroke: #000000; stroke-width: 0.8"/>
      </g>
     </g>
     <g id="text_9">
      <!-- −2 -->
      <g transform="translate(20.878125 212.712754) scale(0.1 -0.1)">
       <use xlink:href="#DejaVuSans-2212"/>
       <use xlink:href="#DejaVuSans-32" transform="translate(83.789062 0)"/>
      </g>
     </g>
    </g>
    <g id="ytick_3">
     <g id="line2d_9">
      <g>
       <use xlink:href="#m6650ee76ed" x="42.620313" y="178.968614" style="stroke: #000000; stroke-width: 0.8"/>
      </g>
     </g>
     <g id="text_10">
      <!-- −1 -->
      <g transform="translate(20.878125 182.767832) scale(0.1 -0.1)">
       <defs>
        <path id="DejaVuSans-31" d="M 794 531 
L 1825 531 
L 1825 4091 
L 703 3866 
L 703 4441 
L 1819 4666 
L 2450 4666 
L 2450 531 
L 3481 531 
L 3481 0 
L 794 0 
L 794 531 
z
" transform="scale(0.015625)"/>
       </defs>
       <use xlink:href="#DejaVuSans-2212"/>
       <use xlink:href="#DejaVuSans-31" transform="translate(83.789062 0)"/>
      </g>
     </g>
    </g>
    <g id="ytick_4">
     <g id="line2d_10">
      <g>
       <use xlink:href="#m6650ee76ed" x="42.620313" y="149.023692" style="stroke: #000000; stroke-width: 0.8"/>
      </g>
     </g>
     <g id="text_11">
      <!-- 0 -->
      <g transform="translate(29.257813 152.822911) scale(0.1 -0.1)">
       <use xlink:href="#DejaVuSans-30"/>
      </g>
     </g>
    </g>
    <g id="ytick_5">
     <g id="line2d_11">
      <g>
       <use xlink:href="#m6650ee76ed" x="42.620313" y="119.078771" style="stroke: #000000; stroke-width: 0.8"/>
      </g>
     </g>
     <g id="text_12">
      <!-- 1 -->
      <g transform="translate(29.257813 122.87799) scale(0.1 -0.1)">
       <use xlink:href="#DejaVuSans-31"/>
      </g>
     </g>
    </g>
    <g id="ytick_6">
     <g id="line2d_12">
      <g>
       <use xlink:href="#m6650ee76ed" x="42.620313" y="89.13385" style="stroke: #000000; stroke-width: 0.8"/>
      </g>
     </g>
     <g id="text_13">
      <!-- 2 -->
      <g transform="translate(29.257813 92.933069) scale(0.1 -0.1)">
       <use xlink:href="#DejaVuSans-32"/>
      </g>
     </g>
    </g>
    <g id="ytick_7">
     <g id="line2d_13">
      <g>
       <use xlink:href="#m6650ee76ed" x="42.620313" y="59.188928" style="stroke: #000000; stroke-width: 0.8"/>
      </g>
     </g>
     <g id="text_14">
      <!-- 3 -->
      <g transform="translate(29.257813 62.988147) scale(0.1 -0.1)">
       <use xlink:href="#DejaVuSans-33"/>
      </g>
     </g>
    </g>
    <g id="ytick_8">
     <g id="line2d_14">
      <g>
       <use xlink:href="#m6650ee76ed" x="42.620313" y="29.244007" style="stroke: #000000; stroke-width: 0.8"/>
      </g>
     </g>
     <g id="text_15">
      <!-- 4 -->
      <g transform="translate(29.257813 33.043226) scale(0.1 -0.1)">
       <use xlink:href="#DejaVuSans-34"/>
      </g>
     </g>
    </g>
    <g id="text_16">
     <!-- PC2 -->
     <g transform="translate(14.798438 143.151562) rotate(-90) scale(0.1 -0.1)">
      <defs>
       <path id="DejaVuSans-Bold-32" d="M 1844 884 
L 3897 884 
L 3897 0 
L 506 0 
L 506 884 
L 2209 2388 
Q 2438 2594 2547 2791 
Q 2656 2988 2656 3200 
Q 2656 3528 2436 3728 
Q 2216 3928 1850 3928 
Q 1569 3928 1234 3808 
Q 900 3688 519 3450 
L 519 4475 
Q 925 4609 1322 4679 
Q 1719 4750 2100 4750 
Q 2938 4750 3402 4381 
Q 3866 4013 3866 3353 
Q 3866 2972 3669 2642 
Q 3472 2313 2841 1759 
L 1844 884 
z
" transform="scale(0.015625)"/>
      </defs>
      <use xlink:href="#DejaVuSans-Bold-50"/>
      <use xlink:href="#DejaVuSans-Bold-43" transform="translate(73.291016 0)"/>
      <use xlink:href="#DejaVuSans-Bold-32" transform="translate(146.679688 0)"/>
     </g>
    </g>
   </g>
   <g id="patch_3">
    <path d="M 42.620313 243.118281 
L 42.620313 21.558281 
" style="fill: none; stroke: #000000; stroke-width: 0.8; stroke-linejoin: miter; stroke-linecap: square"/>
   </g>
   <g id="patch_4">
    <path d="M 42.620313 243.118281 
L 345.660312 243.118281 
" style="fill: none; stroke: #000000; stroke-width: 0.8; stroke-linejoin: miter; stroke-linecap: square"/>
   </g>
   <g id="text_17">
    <!-- A. Population Structure in Genetic Data -->
    <g transform="translate(42.620313 15.558281) scale(0.11 -0.11)">
     <defs>
      <path id="DejaVuSans-Bold-41" d="M 3419 850 
L 1538 850 
L 1241 0 
L 31 0 
L 1759 4666 
L 3194 4666 
L 4922 0 
L 3713 0 
L 3419 850 
z
M 1838 1716 
L 3116 1716 
L 2478 3572 
L 1838 1716 
z
" transform="scale(0.015625)"/>
      <path id="DejaVuSans-Bold-2e" d="M 653 1209 
L 1778 1209 
L 1778 0 
L 653 0 
L 653 1209 
z
" transform="scale(0.015625)"/>
      <path id="DejaVuSans-Bold-20" transform="scale(0.015625)"/>
      <path id="DejaVuSans-Bold-6f" d="M 2203 2784 
Q 1831 2784 1636 2517 
Q 1441 2250 1441 1747 
Q 1441 1244 1636 976 
Q 1831 709 2203 709 
Q 2569 709 2762 976 
Q 2956 1244 2956 1747 
Q 2956 2250 2762 2517 
Q 2569 2784 2203 2784 
z
M 2203 3584 
Q 3106 3584 3614 3096 
Q 4122 2609 4122 1747 
Q 4122 884 3614 396 
Q 3106 -91 2203 -91 
Q 1297 -91 786 396 
Q 275 884 275 1747 
Q 275 2609 786 3096 
Q 1297 3584 2203 3584 
z
" transform="scale(0.015625)"/>
      <path id="DejaVuSans-Bold-70" d="M 1656 506 
L 1656 -1331 
L 538 -1331 
L 538 3500 
L 1656 3500 
L 1656 2988 
Q 1888 3294 2169 3439 
Q 2450 3584 2816 3584 
Q 3463 3584 3878 3070 
Q 4294 2556 4294 1747 
Q 4294 938 3878 423 
Q 3463 -91 2816 -91 
Q 2450 -91 2169 54 
Q 1888 200 1656 506 
z
M 2400 2772 
Q 2041 2772 1848 2508 
Q 1656 2244 1656 1747 
Q 1656 1250 1848 986 
Q 2041 722 2400 722 
Q 2759 722 2948 984 
Q 3138 1247 3138 1747 
Q 3138 2247 2948 2509 
Q 2759 2772 2400 2772 
z
" transform="scale(0.015625)"/>
      <path id="DejaVuSans-Bold-75" d="M 500 1363 
L 500 3500 
L 1625 3500 
L 1625 3150 
Q 1625 2866 1622 2436 
Q 1619 2006 1619 1863 
Q 1619 1441 1641 1255 
Q 1663 1069 1716 984 
Q 1784 875 1895 815 
Q 2006 756 2150 756 
Q 2500 756 2700 1025 
Q 2900 1294 2900 1772 
L 2900 3500 
L 4019 3500 
L 4019 0 
L 2900 0 
L 2900 506 
Q 2647 200 2364 54 
Q 2081 -91 1741 -91 
Q 1134 -91 817 281 
Q 500 653 500 1363 
z
" transform="scale(0.015625)"/>
      <path id="DejaVuSans-Bold-6c" d="M 538 4863 
L 1656 4863 
L 1656 0 
L 538 0 
L 538 4863 
z
" transform="scale(0.015625)"/>
      <path id="DejaVuSans-Bold-61" d="M 2106 1575 
Q 1756 1575 1579 1456 
Q 1403 1338 1403 1106 
Q 1403 894 1545 773 
Q 1688 653 1941 653 
Q 2256 653 2472 879 
Q 2688 1106 2688 1447 
L 2688 1575 
L 2106 1575 
z
M 3816 1997 
L 3816 0 
L 2688 0 
L 2688 519 
Q 2463 200 2181 54 
Q 1900 -91 1497 -91 
Q 953 -91 614 226 
Q 275 544 275 1050 
Q 275 1666 698 1953 
Q 1122 2241 2028 2241 
L 2688 2241 
L 2688 2328 
Q 2688 2594 2478 2717 
Q 2269 2841 1825 2841 
Q 1466 2841 1156 2769 
Q 847 2697 581 2553 
L 581 3406 
Q 941 3494 1303 3539 
Q 1666 3584 2028 3584 
Q 2975 3584 3395 3211 
Q 3816 2838 3816 1997 
z
" transform="scale(0.015625)"/>
      <path id="DejaVuSans-Bold-74" d="M 1759 4494 
L 1759 3500 
L 2913 3500 
L 2913 2700 
L 1759 2700 
L 1759 1216 
Q 1759 972 1856 886 
Q 1953 800 2241 800 
L 2816 800 
L 2816 0 
L 1856 0 
Q 1194 0 917 276 
Q 641 553 641 1216 
L 641 2700 
L 84 2700 
L 84 3500 
L 641 3500 
L 641 4494 
L 1759 4494 
z
" transform="scale(0.015625)"/>
      <path id="DejaVuSans-Bold-69" d="M 538 3500 
L 1656 3500 
L 1656 0 
L 538 0 
L 538 3500 
z
M 538 4863 
L 1656 4863 
L 1656 3950 
L 538 3950 
L 538 4863 
z
" transform="scale(0.015625)"/>
      <path id="DejaVuSans-Bold-6e" d="M 4056 2131 
L 4056 0 
L 2931 0 
L 2931 347 
L 2931 1631 
Q 2931 2084 2911 2256 
Q 2891 2428 2841 2509 
Q 2775 2619 2662 2680 
Q 2550 2741 2406 2741 
Q 2056 2741 1856 2470 
Q 1656 2200 1656 1722 
L 1656 0 
L 538 0 
L 538 3500 
L 1656 3500 
L 1656 2988 
Q 1909 3294 2193 3439 
Q 2478 3584 2822 3584 
Q 3428 3584 3742 3212 
Q 4056 2841 4056 2131 
z
" transform="scale(0.015625)"/>
      <path id="DejaVuSans-Bold-53" d="M 3834 4519 
L 3834 3531 
Q 3450 3703 3084 3790 
Q 2719 3878 2394 3878 
Q 1963 3878 1756 3759 
Q 1550 3641 1550 3391 
Q 1550 3203 1689 3098 
Q 1828 2994 2194 2919 
L 2706 2816 
Q 3484 2659 3812 2340 
Q 4141 2022 4141 1434 
Q 4141 663 3683 286 
Q 3225 -91 2284 -91 
Q 1841 -91 1394 -6 
Q 947 78 500 244 
L 500 1259 
Q 947 1022 1364 901 
Q 1781 781 2169 781 
Q 2563 781 2772 912 
Q 2981 1044 2981 1288 
Q 2981 1506 2839 1625 
Q 2697 1744 2272 1838 
L 1806 1941 
Q 1106 2091 782 2419 
Q 459 2747 459 3303 
Q 459 4000 909 4375 
Q 1359 4750 2203 4750 
Q 2588 4750 2994 4692 
Q 3400 4634 3834 4519 
z
" transform="scale(0.015625)"/>
      <path id="DejaVuSans-Bold-72" d="M 3138 2547 
Q 2991 2616 2845 2648 
Q 2700 2681 2553 2681 
Q 2122 2681 1889 2404 
Q 1656 2128 1656 1613 
L 1656 0 
L 538 0 
L 538 3500 
L 1656 3500 
L 1656 2925 
Q 1872 3269 2151 3426 
Q 2431 3584 2822 3584 
Q 2878 3584 2943 3579 
Q 3009 3575 3134 3559 
L 3138 2547 
z
" transform="scale(0.015625)"/>
      <path id="DejaVuSans-Bold-63" d="M 3366 3391 
L 3366 2478 
Q 3138 2634 2908 2709 
Q 2678 2784 2431 2784 
Q 1963 2784 1702 2511 
Q 1441 2238 1441 1747 
Q 1441 1256 1702 982 
Q 1963 709 2431 709 
Q 2694 709 2930 787 
Q 3166 866 3366 1019 
L 3366 103 
Q 3103 6 2833 -42 
Q 2563 -91 2291 -91 
Q 1344 -91 809 395 
Q 275 881 275 1747 
Q 275 2613 809 3098 
Q 1344 3584 2291 3584 
Q 2566 3584 2833 3536 
Q 3100 3488 3366 3391 
z
" transform="scale(0.015625)"/>
      <path id="DejaVuSans-Bold-65" d="M 4031 1759 
L 4031 1441 
L 1416 1441 
Q 1456 1047 1700 850 
Q 1944 653 2381 653 
Q 2734 653 3104 758 
Q 3475 863 3866 1075 
L 3866 213 
Q 3469 63 3072 -14 
Q 2675 -91 2278 -91 
Q 1328 -91 801 392 
Q 275 875 275 1747 
Q 275 2603 792 3093 
Q 1309 3584 2216 3584 
Q 3041 3584 3536 3087 
Q 4031 2591 4031 1759 
z
M 2881 2131 
Q 2881 2450 2695 2645 
Q 2509 2841 2209 2841 
Q 1884 2841 1681 2658 
Q 1478 2475 1428 2131 
L 2881 2131 
z
" transform="scale(0.015625)"/>
      <path id="DejaVuSans-Bold-47" d="M 4781 347 
Q 4331 128 3847 18 
Q 3363 -91 2847 -91 
Q 1681 -91 1000 561 
Q 319 1213 319 2328 
Q 319 3456 1012 4103 
Q 1706 4750 2913 4750 
Q 3378 4750 3804 4662 
Q 4231 4575 4609 4403 
L 4609 3438 
Q 4219 3659 3833 3768 
Q 3447 3878 3059 3878 
Q 2341 3878 1952 3476 
Q 1563 3075 1563 2328 
Q 1563 1588 1938 1184 
Q 2313 781 3003 781 
Q 3191 781 3352 804 
Q 3513 828 3641 878 
L 3641 1784 
L 2906 1784 
L 2906 2591 
L 4781 2591 
L 4781 347 
z
" transform="scale(0.015625)"/>
      <path id="DejaVuSans-Bold-44" d="M 1791 3756 
L 1791 909 
L 2222 909 
Q 2959 909 3348 1275 
Q 3738 1641 3738 2338 
Q 3738 3031 3350 3393 
Q 2963 3756 2222 3756 
L 1791 3756 
z
M 588 4666 
L 1856 4666 
Q 2919 4666 3439 4514 
Q 3959 4363 4331 4000 
Q 4659 3684 4818 3271 
Q 4978 2859 4978 2338 
Q 4978 1809 4818 1395 
Q 4659 981 4331 666 
Q 3956 303 3431 151 
Q 2906 0 1856 0 
L 588 0 
L 588 4666 
z
" transform="scale(0.015625)"/>
     </defs>
     <use xlink:href="#DejaVuSans-Bold-41"/>
     <use xlink:href="#DejaVuSans-Bold-2e" transform="translate(79.267578 0)"/>
     <use xlink:href="#DejaVuSans-Bold-20" transform="translate(117.255859 0)"/>
     <use xlink:href="#DejaVuSans-Bold-50" transform="translate(152.070312 0)"/>
     <use xlink:href="#DejaVuSans-Bold-6f" transform="translate(225.361328 0)"/>
     <use xlink:href="#DejaVuSans-Bold-70" transform="translate(294.0625 0)"/>
     <use xlink:href="#DejaVuSans-Bold-75" transform="translate(365.644531 0)"/>
     <use xlink:href="#DejaVuSans-Bold-6c" transform="translate(436.835938 0)"/>
     <use xlink:href="#DejaVuSans-Bold-61" transform="translate(471.113281 0)"/>
     <use xlink:href="#DejaVuSans-Bold-74" transform="translate(538.59375 0)"/>
     <use xlink:href="#DejaVuSans-Bold-69" transform="translate(586.396484 0)"/>
     <use xlink:href="#DejaVuSans-Bold-6f" transform="translate(620.673828 0)"/>
     <use xlink:href="#DejaVuSans-Bold-6e" transform="translate(689.375 0)"/>
     <use xlink:href="#DejaVuSans-Bold-20" transform="translate(760.566406 0)"/>
     <use xlink:href="#DejaVuSans-Bold-53" transform="translate(795.380859 0)"/>
     <use xlink:href="#DejaVuSans-Bold-74" transform="translate(867.402344 0)"/>
     <use xlink:href="#DejaVuSans-Bold-72" transform="translate(915.205078 0)"/>
     <use xlink:href="#DejaVuSans-Bold-75" transform="translate(964.521484 0)"/>
     <use xlink:href="#DejaVuSans-Bold-63" transform="translate(1035.712891 0)"/>
     <use xlink:href="#DejaVuSans-Bold-74" transform="translate(1094.990234 0)"/>
     <use xlink:href="#DejaVuSans-Bold-75" transform="translate(1142.792969 0)"/>
     <use xlink:href="#DejaVuSans-Bold-72" transform="translate(1213.984375 0)"/>
     <use xlink:href="#DejaVuSans-Bold-65" transform="translate(1263.300781 0)"/>
     <use xlink:href="#DejaVuSans-Bold-20" transform="translate(1331.123047 0)"/>
     <use xlink:href="#DejaVuSans-Bold-69" transform="translate(1365.9375 0)"/>
     <use xlink:href="#DejaVuSans-Bold-6e" transform="translate(1400.214844 0)"/>
     <use xlink:href="#DejaVuSans-Bold-20" transform="translate(1471.40625 0)"/>
     <use xlink:href="#DejaVuSans-Bold-47" transform="translate(1506.220703 0)"/>
     <use xlink:href="#DejaVuSans-Bold-65" transform="translate(1588.300781 0)"/>
     <use xlink:href="#DejaVuSans-Bold-6e" transform="translate(1656.123047 0)"/>
     <use xlink:href="#DejaVuSans-Bold-65" transform="translate(1727.314453 0)"/>
     <use xlink:href="#DejaVuSans-Bold-74" transform="translate(1795.136719 0)"/>
     <use xlink:href="#DejaVuSans-Bold-69" transform="translate(1842.939453 0)"/>
     <use xlink:href="#DejaVuSans-Bold-63" transform="translate(1877.216797 0)"/>
     <use xlink:href="#DejaVuSans-Bold-20" transform="translate(1936.494141 0)"/>
     <use xlink:href="#DejaVuSans-Bold-44" transform="translate(1971.308594 0)"/>
     <use xlink:href="#DejaVuSans-Bold-61" transform="translate(2054.316406 0)"/>
     <use xlink:href="#DejaVuSans-Bold-74" transform="translate(2121.796875 0)"/>
     <use xlink:href="#DejaVuSans-Bold-61" transform="translate(2169.599609 0)"/>
    </g>
   </g>
   <g id="legend_1">
    <g id="patch_5">
     <path d="M 272.821562 63.185781 
L 340.060312 63.185781 
Q 341.660312 63.185781 341.660312 61.585781 
L 341.660312 27.158281 
Q 341.660312 25.558281 340.060312 25.558281 
L 272.821562 25.558281 
Q 271.221562 25.558281 271.221562 27.158281 
L 271.221562 61.585781 
Q 271.221562 63.185781 272.821562 63.185781 
z
" style="fill: #ffffff; opacity: 0.8; stroke: #cccccc; stroke-linejoin: miter"/>
    </g>
    <g id="PathCollection_4">
     <g>
      <use xlink:href="#m156ebda04a" x="282.421562" y="32.737031" style="fill: #1f77b4; fill-opacity: 0.6; stroke: #1f77b4; stroke-opacity: 0.6"/>
     </g>
    </g>
    <g id="text_18">
     <!-- European -->
     <g transform="translate(296.821562 34.837031) scale(0.08 -0.08)">
      <defs>
       <path id="DejaVuSans-45" d="M 628 4666 
L 3578 4666 
L 3578 4134 
L 1259 4134 
L 1259 2753 
L 3481 2753 
L 3481 2222 
L 1259 2222 
L 1259 531 
L 3634 531 
L 3634 0 
L 628 0 
L 628 4666 
z
" transform="scale(0.015625)"/>
       <path id="DejaVuSans-75" d="M 544 1381 
L 544 3500 
L 1119 3500 
L 1119 1403 
Q 1119 906 1312 657 
Q 1506 409 1894 409 
Q 2359 409 2629 706 
Q 2900 1003 2900 1516 
L 2900 3500 
L 3475 3500 
L 3475 0 
L 2900 0 
L 2900 538 
Q 2691 219 2414 64 
Q 2138 -91 1772 -91 
Q 1169 -91 856 284 
Q 544 659 544 1381 
z
M 1991 3584 
L 1991 3584 
z
" transform="scale(0.015625)"/>
       <path id="DejaVuSans-72" d="M 2631 2963 
Q 2534 3019 2420 3045 
Q 2306 3072 2169 3072 
Q 1681 3072 1420 2755 
Q 1159 2438 1159 1844 
L 1159 0 
L 581 0 
L 581 3500 
L 1159 3500 
L 1159 2956 
Q 1341 3275 1631 3429 
Q 1922 3584 2338 3584 
Q 2397 3584 2469 3576 
Q 2541 3569 2628 3553 
L 2631 2963 
z
" transform="scale(0.015625)"/>
       <path id="DejaVuSans-6f" d="M 1959 3097 
Q 1497 3097 1228 2736 
Q 959 2375 959 1747 
Q 959 1119 1226 758 
Q 1494 397 1959 397 
Q 2419 397 2687 759 
Q 2956 1122 2956 1747 
Q 2956 2369 2687 2733 
Q 2419 3097 1959 3097 
z
M 1959 3584 
Q 2709 3584 3137 3096 
Q 3566 2609 3566 1747 
Q 3566 888 3137 398 
Q 2709 -91 1959 -91 
Q 1206 -91 779 398 
Q 353 888 353 1747 
Q 353 2609 779 3096 
Q 1206 3584 1959 3584 
z
" transform="scale(0.015625)"/>
       <path id="DejaVuSans-70" d="M 1159 525 
L 1159 -1331 
L 581 -1331 
L 581 3500 
L 1159 3500 
L 1159 2969 
Q 1341 3281 1617 3432 
Q 1894 3584 2278 3584 
Q 2916 3584 3314 3078 
Q 3713 2572 3713 1747 
Q 3713 922 3314 415 
Q 2916 -91 2278 -91 
Q 1894 -91 1617 61 
Q 1341 213 1159 525 
z
M 3116 1747 
Q 3116 2381 2855 2742 
Q 2594 3103 2138 3103 
Q 1681 3103 1420 2742 
Q 1159 2381 1159 1747 
Q 1159 1113 1420 752 
Q 1681 391 2138 391 
Q 2594 391 2855 752 
Q 3116 1113 3116 1747 
z
" transform="scale(0.015625)"/>
       <path id="DejaVuSans-65" d="M 3597 1894 
L 3597 1613 
L 953 1613 
Q 991 1019 1311 708 
Q 1631 397 2203 397 
Q 2534 397 2845 478 
Q 3156 559 3463 722 
L 3463 178 
Q 3153 47 2828 -22 
Q 2503 -91 2169 -91 
Q 1331 -91 842 396 
Q 353 884 353 1716 
Q 353 2575 817 3079 
Q 1281 3584 2069 3584 
Q 2775 3584 3186 3129 
Q 3597 2675 3597 1894 
z
M 3022 2063 
Q 3016 2534 2758 2815 
Q 2500 3097 2075 3097 
Q 1594 3097 1305 2825 
Q 1016 2553 972 2059 
L 3022 2063 
z
" transform="scale(0.015625)"/>
       <path id="DejaVuSans-61" d="M 2194 1759 
Q 1497 1759 1228 1600 
Q 959 1441 959 1056 
Q 959 750 1161 570 
Q 1363 391 1709 391 
Q 2188 391 2477 730 
Q 2766 1069 2766 1631 
L 2766 1759 
L 2194 1759 
z
M 3341 1997 
L 3341 0 
L 2766 0 
L 2766 531 
Q 2569 213 2275 61 
Q 1981 -91 1556 -91 
Q 1019 -91 701 211 
Q 384 513 384 1019 
Q 384 1609 779 1909 
Q 1175 2209 1959 2209 
L 2766 2209 
L 2766 2266 
Q 2766 2663 2505 2880 
Q 2244 3097 1772 3097 
Q 1472 3097 1187 3025 
Q 903 2953 641 2809 
L 641 3341 
Q 956 3463 1253 3523 
Q 1550 3584 1831 3584 
Q 2591 3584 2966 3190 
Q 3341 2797 3341 1997 
z
" transform="scale(0.015625)"/>
       <path id="DejaVuSans-6e" d="M 3513 2113 
L 3513 0 
L 2938 0 
L 2938 2094 
Q 2938 2591 2744 2837 
Q 2550 3084 2163 3084 
Q 1697 3084 1428 2787 
Q 1159 2491 1159 1978 
L 1159 0 
L 581 0 
L 581 3500 
L 1159 3500 
L 1159 2956 
Q 1366 3272 1645 3428 
Q 1925 3584 2291 3584 
Q 2894 3584 3203 3211 
Q 3513 2838 3513 2113 
z
" transform="scale(0.015625)"/>
      </defs>
      <use xlink:href="#DejaVuSans-45"/>
      <use xlink:href="#DejaVuSans-75" transform="translate(63.183594 0)"/>
      <use xlink:href="#DejaVuSans-72" transform="translate(126.5625 0)"/>
      <use xlink:href="#DejaVuSans-6f" transform="translate(165.425781 0)"/>
      <use xlink:href="#DejaVuSans-70" transform="translate(226.607422 0)"/>
      <use xlink:href="#DejaVuSans-65" transform="translate(290.083984 0)"/>
      <use xlink:href="#DejaVuSans-61" transform="translate(351.607422 0)"/>
      <use xlink:href="#DejaVuSans-6e" transform="translate(412.886719 0)"/>
     </g>
    </g>
    <g id="PathCollection_5">
     <g>
      <use xlink:href="#m19f174c4df" x="282.421562" y="44.479531" style="fill: #2ca02c; fill-opacity: 0.6; stroke: #2ca02c; stroke-opacity: 0.6"/>
     </g>
    </g>
    <g id="text_19">
     <!-- East Asian -->
     <g transform="translate(296.821562 46.579531) scale(0.08 -0.08)">
      <defs>
       <path id="DejaVuSans-73" d="M 2834 3397 
L 2834 2853 
Q 2591 2978 2328 3040 
Q 2066 3103 1784 3103 
Q 1356 3103 1142 2972 
Q 928 2841 928 2578 
Q 928 2378 1081 2264 
Q 1234 2150 1697 2047 
L 1894 2003 
Q 2506 1872 2764 1633 
Q 3022 1394 3022 966 
Q 3022 478 2636 193 
Q 2250 -91 1575 -91 
Q 1294 -91 989 -36 
Q 684 19 347 128 
L 347 722 
Q 666 556 975 473 
Q 1284 391 1588 391 
Q 1994 391 2212 530 
Q 2431 669 2431 922 
Q 2431 1156 2273 1281 
Q 2116 1406 1581 1522 
L 1381 1569 
Q 847 1681 609 1914 
Q 372 2147 372 2553 
Q 372 3047 722 3315 
Q 1072 3584 1716 3584 
Q 2034 3584 2315 3537 
Q 2597 3491 2834 3397 
z
" transform="scale(0.015625)"/>
       <path id="DejaVuSans-74" d="M 1172 4494 
L 1172 3500 
L 2356 3500 
L 2356 3053 
L 1172 3053 
L 1172 1153 
Q 1172 725 1289 603 
Q 1406 481 1766 481 
L 2356 481 
L 2356 0 
L 1766 0 
Q 1100 0 847 248 
Q 594 497 594 1153 
L 594 3053 
L 172 3053 
L 172 3500 
L 594 3500 
L 594 4494 
L 1172 4494 
z
" transform="scale(0.015625)"/>
       <path id="DejaVuSans-20" transform="scale(0.015625)"/>
       <path id="DejaVuSans-41" d="M 2188 4044 
L 1331 1722 
L 3047 1722 
L 2188 4044 
z
M 1831 4666 
L 2547 4666 
L 4325 0 
L 3669 0 
L 3244 1197 
L 1141 1197 
L 716 0 
L 50 0 
L 1831 4666 
z
" transform="scale(0.015625)"/>
       <path id="DejaVuSans-69" d="M 603 3500 
L 1178 3500 
L 1178 0 
L 603 0 
L 603 3500 
z
M 603 4863 
L 1178 4863 
L 1178 4134 
L 603 4134 
L 603 4863 
z
" transform="scale(0.015625)"/>
      </defs>
      <use xlink:href="#DejaVuSans-45"/>
      <use xlink:href="#DejaVuSans-61" transform="translate(63.183594 0)"/>
      <use xlink:href="#DejaVuSans-73" transform="translate(124.462891 0)"/>
      <use xlink:href="#DejaVuSans-74" transform="translate(176.5625 0)"/>
      <use xlink:href="#DejaVuSans-20" transform="translate(215.771484 0)"/>
      <use xlink:href="#DejaVuSans-41" transform="translate(247.558594 0)"/>
      <use xlink:href="#DejaVuSans-73" transform="translate(315.966797 0)"/>
      <use xlink:href="#DejaVuSans-69" transform="translate(368.066406 0)"/>
      <use xlink:href="#DejaVuSans-61" transform="translate(395.849609 0)"/>
      <use xlink:href="#DejaVuSans-6e" transform="translate(457.128906 0)"/>
     </g>
    </g>
    <g id="PathCollection_6">
     <g>
      <use xlink:href="#mbc77c293c6" x="282.421562" y="56.222031" style="fill: #d62728; fill-opacity: 0.6; stroke: #d62728; stroke-opacity: 0.6"/>
     </g>
    </g>
    <g id="text_20">
     <!-- African -->
     <g transform="translate(296.821562 58.322031) scale(0.08 -0.08)">
      <defs>
       <path id="DejaVuSans-66" d="M 2375 4863 
L 2375 4384 
L 1825 4384 
Q 1516 4384 1395 4259 
Q 1275 4134 1275 3809 
L 1275 3500 
L 2222 3500 
L 2222 3053 
L 1275 3053 
L 1275 0 
L 697 0 
L 697 3053 
L 147 3053 
L 147 3500 
L 697 3500 
L 697 3744 
Q 697 4328 969 4595 
Q 1241 4863 1831 4863 
L 2375 4863 
z
" transform="scale(0.015625)"/>
       <path id="DejaVuSans-63" d="M 3122 3366 
L 3122 2828 
Q 2878 2963 2633 3030 
Q 2388 3097 2138 3097 
Q 1578 3097 1268 2742 
Q 959 2388 959 1747 
Q 959 1106 1268 751 
Q 1578 397 2138 397 
Q 2388 397 2633 464 
Q 2878 531 3122 666 
L 3122 134 
Q 2881 22 2623 -34 
Q 2366 -91 2075 -91 
Q 1284 -91 818 406 
Q 353 903 353 1747 
Q 353 2603 823 3093 
Q 1294 3584 2113 3584 
Q 2378 3584 2631 3529 
Q 2884 3475 3122 3366 
z
" transform="scale(0.015625)"/>
      </defs>
      <use xlink:href="#DejaVuSans-41"/>
      <use xlink:href="#DejaVuSans-66" transform="translate(64.783203 0)"/>
      <use xlink:href="#DejaVuSans-72" transform="translate(99.988281 0)"/>
      <use xlink:href="#DejaVuSans-69" transform="translate(141.101562 0)"/>
      <use xlink:href="#DejaVuSans-63" transform="translate(168.884766 0)"/>
      <use xlink:href="#DejaVuSans-61" transform="translate(223.865234 0)"/>
      <use xlink:href="#DejaVuSans-6e" transform="translate(285.144531 0)"/>
     </g>
    </g>
   </g>
  </g>
 </g>
 <defs>
  <clipPath id="pe3d9fef879">
   <rect x="42.620313" y="21.558281" width="303.04" height="221.56"/>
  </clipPath>
 </defs>
</svg>
