<?xml version="1.0" encoding="UTF-8" standalone="no"?>
<!DOCTYPE svg PUBLIC "-//W3C//DTD SVG 1.1//EN"
 "http://www.w3.org/Graphics/SVG/1.1/DTD/svg11.dtd">
<!-- Generated by graphviz version 2.43.0 (0)
 -->
<!-- Title: shortcut_C Pages: 1 -->
<svg width="153pt" height="288pt"
 viewBox="0.00 0.00 153.41 288.00" xmlns="http://www.w3.org/2000/svg" xmlns:xlink="http://www.w3.org/1999/xlink">
<g id="graph0" class="graph" transform="scale(0.94 0.94) rotate(0) translate(4 302)">
<title>shortcut_C</title>
<polygon fill="white" stroke="transparent" points="-4,4 -4,-302 159,-302 159,4 -4,4"/>
<!-- ancestry -->
<g id="node1" class="node">
<title>ancestry</title>
<ellipse fill="#ff7f0e" stroke="black" stroke-width="1.5" cx="76" cy="-280" rx="30.04" ry="18"/>
<text text-anchor="middle" x="76" y="-277.8" font-family="Arial" font-size="9.00">Ancestry</text>
</g>
<!-- features -->
<g id="node2" class="node">
<title>features</title>
<path fill="#aec7e8" stroke="black" stroke-width="1.5" d="M47,-225C47,-225 17,-225 17,-225 11,-225 5,-219 5,-213 5,-213 5,-201 5,-201 5,-195 11,-189 17,-189 17,-189 47,-189 47,-189 53,-189 59,-195 59,-201 59,-201 59,-213 59,-213 59,-219 53,-225 47,-225"/>
<text text-anchor="middle" x="32" y="-209.8" font-family="Arial" font-size="9.00">Genomic</text>
<text text-anchor="middle" x="32" y="-199.8" font-family="Arial" font-size="9.00">Features</text>
</g>
<!-- ancestry&#45;&gt;features -->
<g id="edge1" class="edge">
<title>ancestry&#45;&gt;features</title>
<path fill="none" stroke="#d62728" stroke-width="2" d="M66.02,-262.89C60.66,-254.24 53.93,-243.38 47.87,-233.61"/>
<polygon fill="#d62728" stroke="#d62728" stroke-width="2" points="50.8,-231.69 42.56,-225.04 44.85,-235.38 50.8,-231.69"/>
</g>
<!-- labels -->
<g id="node3" class="node">
<title>labels</title>
<path fill="#98df8a" stroke="black" stroke-width="1.5" d="M69,-36C69,-36 39,-36 39,-36 33,-36 27,-30 27,-24 27,-24 27,-12 27,-12 27,-6 33,0 39,0 39,0 69,0 69,0 75,0 81,-6 81,-12 81,-12 81,-24 81,-24 81,-30 75,-36 69,-36"/>
<text text-anchor="middle" x="54" y="-20.8" font-family="Arial" font-size="9.00">Disease</text>
<text text-anchor="middle" x="54" y="-10.8" font-family="Arial" font-size="9.00">Labels</text>
</g>
<!-- ancestry&#45;&gt;labels -->
<g id="edge2" class="edge">
<title>ancestry&#45;&gt;labels</title>
<path fill="none" stroke="#d62728" stroke-width="2" d="M76,-261.72C76,-209.03 76,-54 76,-54 76,-54 73.44,-49.93 70.06,-44.56"/>
<polygon fill="#d62728" stroke="#d62728" stroke-width="2" points="73.03,-42.69 64.74,-36.09 67.1,-46.42 73.03,-42.69"/>
<text text-anchor="middle" x="115.5" y="-159.8" font-family="Times,serif" font-size="14.00">Healthcare</text>
</g>
<!-- model -->
<g id="node4" class="node">
<title>model</title>
<path fill="#9467bd" stroke="black" stroke-width="1.5" d="M46,-138C46,-138 12,-138 12,-138 6,-138 0,-132 0,-126 0,-126 0,-114 0,-114 0,-108 6,-102 12,-102 12,-102 46,-102 46,-102 52,-102 58,-108 58,-114 58,-114 58,-126 58,-126 58,-132 52,-138 46,-138"/>
<text text-anchor="middle" x="29" y="-122.8" font-family="Arial" font-size="9.00" fill="white">Model</text>
<text text-anchor="middle" x="29" y="-112.8" font-family="Arial" font-size="9.00" fill="white">Prediction</text>
</g>
<!-- features&#45;&gt;model -->
<g id="edge3" class="edge">
<title>features&#45;&gt;model</title>
<path fill="none" stroke="black" d="M31.39,-188.8C30.98,-177.16 30.43,-161.55 29.96,-148.24"/>
<polygon fill="black" stroke="black" points="33.46,-148.05 29.61,-138.18 26.46,-148.29 33.46,-148.05"/>
</g>
<!-- model&#45;&gt;labels -->
<g id="edge4" class="edge">
<title>model&#45;&gt;labels</title>
<path fill="none" stroke="black" stroke-dasharray="5,2" d="M22.16,-101.91C18.61,-93.03 15,-84 15,-84 15,-84 15,-54 15,-54 15,-54 20.42,-49.13 27.23,-43.03"/>
<polygon fill="black" stroke="black" points="29.85,-45.37 34.96,-36.09 25.18,-40.16 29.85,-45.37"/>
<text text-anchor="middle" x="45.5" y="-72.8" font-family="Times,serif" font-size="14.00">Exploits</text>
<text text-anchor="middle" x="45.5" y="-57.8" font-family="Times,serif" font-size="14.00">shortcut</text>
</g>
</g>
</svg>
