<?xml version="1.0" encoding="utf-8" ?>
<svg xmlns="http://www.w3.org/2000/svg" xmlns:ev="http://www.w3.org/2001/xml-events" xmlns:xlink="http://www.w3.org/1999/xlink" baseProfile="full" height="800" version="1.1" width="1200">
  <defs>
    <marker id="id111" markerHeight="7" markerWidth="7" orient="auto" refX="6" refY="3">
      <path d="M0,0 L0,6 L6,3 z" fill="#333333"/>
    </marker>
  </defs>
  <rect fill="white" height="800" width="1200" x="0" y="0"/>
  <text fill="#111" font-family="Arial, Helvetica, sans-serif" font-size="28" font-weight="700" x="60" y="50">Figure 12.3: Batch Effects (Three-Panel)</text>
  <text fill="#444" font-family="Arial, Helvetica, sans-serif" font-size="16" x="60" y="78">Panel A</text>
  <line stroke="#333" stroke-width="2" x1="140" x2="1000" y1="720" y2="720"/>
  <line stroke="#333" stroke-width="2" x1="140" x2="140" y1="160" y2="720"/>
  <circle cx="372.83662754100686" cy="539.2928809555518" fill="#1f77b4" opacity="0.75" r="4"/>
  <circle cx="306.73939025153595" cy="533.3084234873166" fill="#2ca02c" opacity="0.75" r="4"/>
  <circle cx="351.3748970804928" cy="606.5654257242539" fill="#ff7f0e" opacity="0.75" r="4"/>
  <circle cx="346.28972161018555" cy="586.2988848404691" fill="#1f77b4" opacity="0.75" r="4"/>
  <circle cx="375.6834533033846" cy="552.4358854570917" fill="#ff7f0e" opacity="0.75" r="4"/>
  <circle cx="328.55925660192986" cy="524.8959087605355" fill="#ff7f0e" opacity="0.75" r="4"/>
  <circle cx="555.3186196319136" cy="540.0889614219649" fill="#1f77b4" opacity="0.75" r="4"/>
  <circle cx="400.276013457078" cy="438.25599857573576" fill="#1f77b4" opacity="0.75" r="4"/>
  <circle cx="344.05744514556875" cy="618.7618584611802" fill="#ff7f0e" opacity="0.75" r="4"/>
  <circle cx="357.5456793628707" cy="477.17581416122044" fill="#2ca02c" opacity="0.75" r="4"/>
  <circle cx="406.94348662716186" cy="496.8494395751464" fill="#1f77b4" opacity="0.75" r="4"/>
  <circle cx="512.4568163047263" cy="494.66305806279365" fill="#2ca02c" opacity="0.75" r="4"/>
  <circle cx="328.4597766807626" cy="487.1397920695789" fill="#ff7f0e" opacity="0.75" r="4"/>
  <circle cx="330.00365452645985" cy="537.6509212648248" fill="#2ca02c" opacity="0.75" r="4"/>
  <circle cx="342.49574516583186" cy="538.6788791288543" fill="#ff7f0e" opacity="0.75" r="4"/>
  <circle cx="412.9627009320881" cy="507.3006148651683" fill="#1f77b4" opacity="0.75" r="4"/>
  <circle cx="321.820107537028" cy="496.77275553146234" fill="#2ca02c" opacity="0.75" r="4"/>
  <circle cx="388.81845183967386" cy="542.1066330220988" fill="#1f77b4" opacity="0.75" r="4"/>
  <circle cx="466.5320513790233" cy="519.2596564591784" fill="#1f77b4" opacity="0.75" r="4"/>
  <circle cx="362.28918757908605" cy="514.809714763555" fill="#2ca02c" opacity="0.75" r="4"/>
  <circle cx="458.83612982629677" cy="471.78305366272815" fill="#1f77b4" opacity="0.75" r="4"/>
  <circle cx="448.3018610518849" cy="517.874283489409" fill="#2ca02c" opacity="0.75" r="4"/>
  <circle cx="475.76883124329817" cy="510.2573490199124" fill="#1f77b4" opacity="0.75" r="4"/>
  <circle cx="427.3051115117526" cy="507.98475519351734" fill="#1f77b4" opacity="0.75" r="4"/>
  <circle cx="361.8921213452866" cy="584.5590076327774" fill="#2ca02c" opacity="0.75" r="4"/>
  <circle cx="393.83518118816113" cy="546.432920377262" fill="#1f77b4" opacity="0.75" r="4"/>
  <circle cx="378.2541097629148" cy="585.670610048616" fill="#2ca02c" opacity="0.75" r="4"/>
  <circle cx="453.30889490919117" cy="542.9585866294219" fill="#1f77b4" opacity="0.75" r="4"/>
  <circle cx="371.04667086919034" cy="483.7862579952268" fill="#2ca02c" opacity="0.75" r="4"/>
  <circle cx="538.4067025075117" cy="534.6388915921192" fill="#ff7f0e" opacity="0.75" r="4"/>
  <circle cx="488.8591277542046" cy="610.0790765280774" fill="#1f77b4" opacity="0.75" r="4"/>
  <circle cx="457.6692559579015" cy="525.0393745087226" fill="#ff7f0e" opacity="0.75" r="4"/>
  <circle cx="479.5391889624023" cy="554.3066349905758" fill="#ff7f0e" opacity="0.75" r="4"/>
  <circle cx="381.468277058388" cy="487.97700232607406" fill="#1f77b4" opacity="0.75" r="4"/>
  <circle cx="502.0940335618728" cy="521.2524907592717" fill="#ff7f0e" opacity="0.75" r="4"/>
  <circle cx="457.41931824011766" cy="495.3814660771754" fill="#1f77b4" opacity="0.75" r="4"/>
  <circle cx="424.6132916188324" cy="524.0495909626991" fill="#1f77b4" opacity="0.75" r="4"/>
  <circle cx="334.2752066121469" cy="562.3489204835518" fill="#2ca02c" opacity="0.75" r="4"/>
  <circle cx="438.5703353041912" cy="566.4086039612442" fill="#2ca02c" opacity="0.75" r="4"/>
  <circle cx="430.01367512152956" cy="551.4802039980068" fill="#1f77b4" opacity="0.75" r="4"/>
  <circle cx="495.2751736702441" cy="433.4458814131957" fill="#ff7f0e" opacity="0.75" r="4"/>
  <circle cx="505.6078321938378" cy="464.32904185103996" fill="#2ca02c" opacity="0.75" r="4"/>
  <circle cx="390.699750578291" cy="590.0274610668953" fill="#2ca02c" opacity="0.75" r="4"/>
  <circle cx="371.55406192487817" cy="471.10249323430065" fill="#1f77b4" opacity="0.75" r="4"/>
  <circle cx="452.70299705022796" cy="472.1964880233066" fill="#1f77b4" opacity="0.75" r="4"/>
  <circle cx="393.75666026402706" cy="523.9058332511845" fill="#1f77b4" opacity="0.75" r="4"/>
  <circle cx="366.42294802966944" cy="550.8311737369023" fill="#2ca02c" opacity="0.75" r="4"/>
  <circle cx="519.2545524215888" cy="497.88693891897776" fill="#2ca02c" opacity="0.75" r="4"/>
  <circle cx="294.77885380088435" cy="458.0498666620819" fill="#2ca02c" opacity="0.75" r="4"/>
  <circle cx="298.88644229966485" cy="623.4730956797828" fill="#1f77b4" opacity="0.75" r="4"/>
  <circle cx="314.76490157233275" cy="568.5452725140569" fill="#ff7f0e" opacity="0.75" r="4"/>
  <circle cx="268.4957309369106" cy="592.7777946566329" fill="#1f77b4" opacity="0.75" r="4"/>
  <circle cx="561.1393924247222" cy="593.5973322837649" fill="#2ca02c" opacity="0.75" r="4"/>
  <circle cx="379.3035279460445" cy="564.3967701588599" fill="#1f77b4" opacity="0.75" r="4"/>
  <circle cx="430.0770189034426" cy="516.1702688024159" fill="#ff7f0e" opacity="0.75" r="4"/>
  <circle cx="667.9431808671474" cy="411.8294006856624" fill="#2ca02c" opacity="0.75" r="4"/>
  <circle cx="736.5394473596812" cy="438.0864115196747" fill="#2ca02c" opacity="0.75" r="4"/>
  <circle cx="706.2737412515817" cy="370.34703773496636" fill="#2ca02c" opacity="0.75" r="4"/>
  <circle cx="623.7975815421321" cy="524.9171006602824" fill="#1f77b4" opacity="0.75" r="4"/>
  <circle cx="681.5026477552531" cy="371.38694609909135" fill="#1f77b4" opacity="0.75" r="4"/>
  <circle cx="655.1180430740944" cy="374.6119205720503" fill="#2ca02c" opacity="0.75" r="4"/>
  <circle cx="588.1226673475448" cy="471.80612411089413" fill="#ff7f0e" opacity="0.75" r="4"/>
  <circle cx="605.7916628747951" cy="395.507068692849" fill="#ff7f0e" opacity="0.75" r="4"/>
  <circle cx="662.216654932784" cy="409.2776977887534" fill="#2ca02c" opacity="0.75" r="4"/>
  <circle cx="648.2186116695054" cy="341.93633718836855" fill="#1f77b4" opacity="0.75" r="4"/>
  <circle cx="677.9381054480588" cy="427.2758028520363" fill="#ff7f0e" opacity="0.75" r="4"/>
  <circle cx="742.6886217217998" cy="452.82117637246097" fill="#1f77b4" opacity="0.75" r="4"/>
  <circle cx="643.3426395166308" cy="384.13502228316065" fill="#2ca02c" opacity="0.75" r="4"/>
  <circle cx="632.9200664462787" cy="393.36473942034183" fill="#ff7f0e" opacity="0.75" r="4"/>
  <circle cx="683.1099484588797" cy="381.0773906124465" fill="#2ca02c" opacity="0.75" r="4"/>
  <circle cx="669.2550911756397" cy="435.6005059149414" fill="#2ca02c" opacity="0.75" r="4"/>
  <circle cx="682.8768216908502" cy="435.2177063608295" fill="#1f77b4" opacity="0.75" r="4"/>
  <circle cx="531.2249236634441" cy="463.4526909174983" fill="#2ca02c" opacity="0.75" r="4"/>
  <circle cx="758.751633732728" cy="418.6794200466693" fill="#ff7f0e" opacity="0.75" r="4"/>
  <circle cx="638.6048033345605" cy="396.5781759357085" fill="#1f77b4" opacity="0.75" r="4"/>
  <circle cx="786.9245242024342" cy="468.60794523892577" fill="#ff7f0e" opacity="0.75" r="4"/>
  <circle cx="710.7845046574022" cy="455.22784630093435" fill="#2ca02c" opacity="0.75" r="4"/>
  <circle cx="747.0846079710091" cy="505.1929625936542" fill="#ff7f0e" opacity="0.75" r="4"/>
  <circle cx="709.4324137777951" cy="290.65766062142933" fill="#1f77b4" opacity="0.75" r="4"/>
  <circle cx="789.6750345247921" cy="375.7382109277039" fill="#2ca02c" opacity="0.75" r="4"/>
  <circle cx="608.0071735036069" cy="358.6615666206879" fill="#2ca02c" opacity="0.75" r="4"/>
  <circle cx="554.2733193972572" cy="408.3430391567664" fill="#1f77b4" opacity="0.75" r="4"/>
  <circle cx="547.2528856446686" cy="407.8821898412327" fill="#ff7f0e" opacity="0.75" r="4"/>
  <circle cx="670.3743297090924" cy="428.94829579749177" fill="#ff7f0e" opacity="0.75" r="4"/>
  <circle cx="753.4338641643947" cy="470.45448623706193" fill="#2ca02c" opacity="0.75" r="4"/>
  <circle cx="793.3606892247714" cy="373.8514783829306" fill="#1f77b4" opacity="0.75" r="4"/>
  <circle cx="633.6571501013896" cy="457.5081314546424" fill="#2ca02c" opacity="0.75" r="4"/>
  <circle cx="623.905014567191" cy="405.6739049020707" fill="#2ca02c" opacity="0.75" r="4"/>
  <circle cx="582.6359835267443" cy="392.9408024448346" fill="#ff7f0e" opacity="0.75" r="4"/>
  <circle cx="678.1867146978125" cy="367.0084049726075" fill="#1f77b4" opacity="0.75" r="4"/>
  <circle cx="694.4985123062419" cy="439.0342673358913" fill="#2ca02c" opacity="0.75" r="4"/>
  <circle cx="698.6013050093599" cy="420.36131121556065" fill="#2ca02c" opacity="0.75" r="4"/>
  <circle cx="646.7806509850238" cy="453.30755893928773" fill="#ff7f0e" opacity="0.75" r="4"/>
  <circle cx="603.6644697859676" cy="433.90619041128133" fill="#2ca02c" opacity="0.75" r="4"/>
  <circle cx="633.0823480827291" cy="481.77124738092704" fill="#ff7f0e" opacity="0.75" r="4"/>
  <circle cx="678.9243522297243" cy="363.98278246569527" fill="#2ca02c" opacity="0.75" r="4"/>
  <circle cx="792.8211722882703" cy="334.03431926135386" fill="#2ca02c" opacity="0.75" r="4"/>
  <circle cx="590.3757369589346" cy="329.8369345966709" fill="#1f77b4" opacity="0.75" r="4"/>
  <circle cx="634.4547201936175" cy="412.42447662548204" fill="#2ca02c" opacity="0.75" r="4"/>
  <circle cx="763.2116745853839" cy="388.4227753322434" fill="#2ca02c" opacity="0.75" r="4"/>
  <circle cx="586.8355190447662" cy="335.79328760659143" fill="#2ca02c" opacity="0.75" r="4"/>
  <circle cx="714.2111566919324" cy="405.08550252040425" fill="#1f77b4" opacity="0.75" r="4"/>
  <circle cx="682.8485121853685" cy="408.66107686976" fill="#ff7f0e" opacity="0.75" r="4"/>
  <circle cx="716.6696131794127" cy="455.3003433029517" fill="#ff7f0e" opacity="0.75" r="4"/>
  <circle cx="683.8514405776374" cy="384.03182332461694" fill="#2ca02c" opacity="0.75" r="4"/>
  <circle cx="623.4284129091741" cy="405.3180480749023" fill="#2ca02c" opacity="0.75" r="4"/>
  <circle cx="669.5285794696189" cy="429.9299612743921" fill="#1f77b4" opacity="0.75" r="4"/>
  <circle cx="621.644301274652" cy="386.3557414529437" fill="#2ca02c" opacity="0.75" r="4"/>
  <circle cx="684.794790876947" cy="488.6075517883353" fill="#2ca02c" opacity="0.75" r="4"/>
  <circle cx="705.2756989713449" cy="364.04688832057445" fill="#1f77b4" opacity="0.75" r="4"/>
  <circle cx="591.8928422980969" cy="557.4419895276383" fill="#ff7f0e" opacity="0.75" r="4"/>
  <circle cx="508.9896567780598" cy="516.8457992691289" fill="#1f77b4" opacity="0.75" r="4"/>
  <circle cx="607.1064000025256" cy="577.5967047409295" fill="#2ca02c" opacity="0.75" r="4"/>
  <circle cx="631.8255702861982" cy="589.647159257041" fill="#1f77b4" opacity="0.75" r="4"/>
  <circle cx="631.3849578719505" cy="571.6684531827943" fill="#1f77b4" opacity="0.75" r="4"/>
  <circle cx="584.9373162869815" cy="555.1084638353818" fill="#2ca02c" opacity="0.75" r="4"/>
  <circle cx="521.7217649083947" cy="657.002464626481" fill="#ff7f0e" opacity="0.75" r="4"/>
  <circle cx="395.4507543062032" cy="597.0857039972927" fill="#2ca02c" opacity="0.75" r="4"/>
  <circle cx="548.1958421455422" cy="630.1217555737892" fill="#1f77b4" opacity="0.75" r="4"/>
  <circle cx="518.3985102195003" cy="578.7495996018837" fill="#ff7f0e" opacity="0.75" r="4"/>
  <circle cx="601.439027282343" cy="546.4526794907363" fill="#1f77b4" opacity="0.75" r="4"/>
  <circle cx="477.6281576590593" cy="626.4732441973309" fill="#1f77b4" opacity="0.75" r="4"/>
  <circle cx="639.1748280221705" cy="604.2635063189524" fill="#1f77b4" opacity="0.75" r="4"/>
  <circle cx="596.3734525262659" cy="569.9606340279861" fill="#2ca02c" opacity="0.75" r="4"/>
  <circle cx="411.2310482013697" cy="577.5146467978917" fill="#ff7f0e" opacity="0.75" r="4"/>
  <circle cx="559.0899790795268" cy="562.1483614185794" fill="#1f77b4" opacity="0.75" r="4"/>
  <circle cx="515.8542978521821" cy="556.5594680095357" fill="#2ca02c" opacity="0.75" r="4"/>
  <circle cx="563.4210804578906" cy="587.2067097782995" fill="#1f77b4" opacity="0.75" r="4"/>
  <circle cx="482.58743127471905" cy="601.3393115865792" fill="#ff7f0e" opacity="0.75" r="4"/>
  <circle cx="453.7850039295074" cy="595.8729715462637" fill="#ff7f0e" opacity="0.75" r="4"/>
  <circle cx="420.2874465744987" cy="614.0167122524034" fill="#2ca02c" opacity="0.75" r="4"/>
  <circle cx="470.52862175237294" cy="590.2758664004618" fill="#1f77b4" opacity="0.75" r="4"/>
  <circle cx="538.0300027571237" cy="614.5928684791338" fill="#ff7f0e" opacity="0.75" r="4"/>
  <circle cx="601.7483341474666" cy="578.935618810714" fill="#ff7f0e" opacity="0.75" r="4"/>
  <circle cx="474.3432604446131" cy="517.6199624116382" fill="#1f77b4" opacity="0.75" r="4"/>
  <circle cx="518.329399091863" cy="605.3436828321824" fill="#2ca02c" opacity="0.75" r="4"/>
  <circle cx="581.4000617200178" cy="573.6222195238661" fill="#2ca02c" opacity="0.75" r="4"/>
  <circle cx="447.7296141531908" cy="524.734775992675" fill="#2ca02c" opacity="0.75" r="4"/>
  <circle cx="476.3322083556487" cy="594.0580356161846" fill="#2ca02c" opacity="0.75" r="4"/>
  <circle cx="621.0400557722653" cy="609.7459993159364" fill="#ff7f0e" opacity="0.75" r="4"/>
  <circle cx="604.7005730960555" cy="493.63057916999867" fill="#ff7f0e" opacity="0.75" r="4"/>
  <circle cx="540.9690613764071" cy="529.4607600363536" fill="#2ca02c" opacity="0.75" r="4"/>
  <circle cx="585.2696717202173" cy="586.8740967313918" fill="#ff7f0e" opacity="0.75" r="4"/>
  <circle cx="479.9570685582526" cy="552.0582141788005" fill="#2ca02c" opacity="0.75" r="4"/>
  <circle cx="603.5386298073838" cy="527.4773045752137" fill="#1f77b4" opacity="0.75" r="4"/>
  <circle cx="500.43118520462053" cy="641.7260709447551" fill="#1f77b4" opacity="0.75" r="4"/>
  <circle cx="500.0968159357261" cy="587.6573380256868" fill="#ff7f0e" opacity="0.75" r="4"/>
  <circle cx="508.59323644001887" cy="561.1335661303305" fill="#1f77b4" opacity="0.75" r="4"/>
  <circle cx="504.7846117645976" cy="593.5473376357147" fill="#1f77b4" opacity="0.75" r="4"/>
  <circle cx="531.2198658667576" cy="648.4872709506637" fill="#ff7f0e" opacity="0.75" r="4"/>
  <circle cx="602.1473009661329" cy="575.2818534661484" fill="#2ca02c" opacity="0.75" r="4"/>
  <circle cx="553.0453009824204" cy="498.930721794176" fill="#ff7f0e" opacity="0.75" r="4"/>
  <circle cx="489.23828977139317" cy="590.4251582270904" fill="#2ca02c" opacity="0.75" r="4"/>
  <circle cx="510.8928280734996" cy="554.6005361851423" fill="#2ca02c" opacity="0.75" r="4"/>
  <circle cx="531.4121807405791" cy="559.4033070532553" fill="#2ca02c" opacity="0.75" r="4"/>
  <circle cx="502.67874001409456" cy="538.0817189225465" fill="#2ca02c" opacity="0.75" r="4"/>
  <circle cx="498.38020122196866" cy="521.9656341347343" fill="#2ca02c" opacity="0.75" r="4"/>
  <circle cx="628.1153900507202" cy="559.7207040472201" fill="#1f77b4" opacity="0.75" r="4"/>
  <circle cx="370.2058825195918" cy="561.1454055822229" fill="#2ca02c" opacity="0.75" r="4"/>
  <circle cx="591.8486137533313" cy="594.4008744461216" fill="#1f77b4" opacity="0.75" r="4"/>
  <circle cx="526.6841411061502" cy="577.6713154974675" fill="#2ca02c" opacity="0.75" r="4"/>
  <circle cx="527.4996314614984" cy="636.0628374004837" fill="#ff7f0e" opacity="0.75" r="4"/>
  <circle cx="568.8770730081237" cy="618.843663173391" fill="#2ca02c" opacity="0.75" r="4"/>
  <circle cx="530.6776003329387" cy="549.6998897507211" fill="#2ca02c" opacity="0.75" r="4"/>
  <circle cx="445.08903836135255" cy="591.5892005913967" fill="#1f77b4" opacity="0.75" r="4"/>
  <circle cx="914.0" cy="244.0" fill="#d62728" opacity="0.9" r="7"/>
  <text fill="#333" font-family="Arial, Helvetica, sans-serif" font-size="16" text-anchor="middle" x="570.0" y="765">Dimension 1</text>
  <text fill="#333" font-family="Arial, Helvetica, sans-serif" font-size="16" text-anchor="middle" transform="rotate(-90,85,440.0)" x="85" y="440.0">Dimension 2</text>
  <text fill="#999" font-family="Arial, Helvetica, sans-serif" font-size="12" text-anchor="end" x="1140" y="776">Auto-generated SVG</text>
</svg>
