<?xml version="1.0" encoding="UTF-8" standalone="no"?>
<!DOCTYPE svg PUBLIC "-//W3C//DTD SVG 1.1//EN"
 "http://www.w3.org/Graphics/SVG/1.1/DTD/svg11.dtd">
<!-- Generated by graphviz version 2.43.0 (0)
 -->
<!-- Title: circularity Pages: 1 -->
<svg width="215pt" height="576pt"
 viewBox="0.00 0.00 215.33 576.00" xmlns="http://www.w3.org/2000/svg" xmlns:xlink="http://www.w3.org/1999/xlink">
<g id="graph0" class="graph" transform="scale(1.35 1.35) rotate(0) translate(4 424)">
<title>circularity</title>
<polygon fill="white" stroke="transparent" points="-4,4 -4,-424 156,-424 156,4 -4,4"/>
<!-- lab -->
<g id="node1" class="node">
<title>lab</title>
<path fill="#aec7e8" stroke="black" stroke-width="1.5" d="M69,-420C69,-420 31,-420 31,-420 25,-420 19,-414 19,-408 19,-408 19,-396 19,-396 19,-390 25,-384 31,-384 31,-384 69,-384 69,-384 75,-384 81,-390 81,-396 81,-396 81,-408 81,-408 81,-414 75,-420 69,-420"/>
<text text-anchor="middle" x="50" y="-405" font-family="Arial" font-size="10.00">Clinical</text>
<text text-anchor="middle" x="50" y="-394" font-family="Arial" font-size="10.00">Laboratory</text>
</g>
<!-- tools -->
<g id="node2" class="node">
<title>tools</title>
<path fill="#ff7f0e" stroke="black" stroke-width="1.5" d="M83.5,-318C83.5,-318 16.5,-318 16.5,-318 10.5,-318 4.5,-312 4.5,-306 4.5,-306 4.5,-289 4.5,-289 4.5,-283 10.5,-277 16.5,-277 16.5,-277 83.5,-277 83.5,-277 89.5,-277 95.5,-283 95.5,-289 95.5,-289 95.5,-306 95.5,-306 95.5,-312 89.5,-318 83.5,-318"/>
<text text-anchor="middle" x="50" y="-306" font-family="Arial" font-size="10.00">Computational</text>
<text text-anchor="middle" x="50" y="-295" font-family="Arial" font-size="10.00">Tools</text>
<text text-anchor="middle" x="50" y="-284" font-family="Arial" font-size="10.00">(CADD, REVEL)</text>
</g>
<!-- lab&#45;&gt;tools -->
<g id="edge1" class="edge">
<title>lab&#45;&gt;tools</title>
<path fill="none" stroke="black" d="M50,-383.61C50,-368.43 50,-346.07 50,-328.08"/>
<polygon fill="black" stroke="black" points="53.5,-328.08 50,-318.08 46.5,-328.08 53.5,-328.08"/>
<text text-anchor="middle" x="82" y="-354.8" font-family="Times,serif" font-size="14.00">Uses for</text>
<text text-anchor="middle" x="82" y="-339.8" font-family="Times,serif" font-size="14.00">evidence</text>
</g>
<!-- clinvar -->
<g id="node3" class="node">
<title>clinvar</title>
<path fill="#98df8a" stroke="black" stroke-width="1.5" d="M67.5,-211C67.5,-211 32.5,-211 32.5,-211 26.5,-211 20.5,-205 20.5,-199 20.5,-199 20.5,-187 20.5,-187 20.5,-181 26.5,-175 32.5,-175 32.5,-175 67.5,-175 67.5,-175 73.5,-175 79.5,-181 79.5,-187 79.5,-187 79.5,-199 79.5,-199 79.5,-205 73.5,-211 67.5,-211"/>
<text text-anchor="middle" x="50" y="-196" font-family="Arial" font-size="10.00">ClinVar</text>
<text text-anchor="middle" x="50" y="-185" font-family="Arial" font-size="10.00">Database</text>
</g>
<!-- tools&#45;&gt;clinvar -->
<g id="edge2" class="edge">
<title>tools&#45;&gt;clinvar</title>
<path fill="none" stroke="#d62728" stroke-width="2" d="M50,-276.74C50,-261.03 50,-238.89 50,-221.46"/>
<polygon fill="#d62728" stroke="#d62728" stroke-width="2" points="53.5,-221.32 50,-211.32 46.5,-221.32 53.5,-221.32"/>
<text text-anchor="middle" x="92.5" y="-247.8" font-family="Times,serif" font-size="14.00">Influences</text>
<text text-anchor="middle" x="92.5" y="-232.8" font-family="Times,serif" font-size="14.00">annotations</text>
</g>
<!-- new_model -->
<g id="node4" class="node">
<title>new_model</title>
<path fill="#9467bd" stroke="black" stroke-width="1.5" d="M54,-109C54,-109 12,-109 12,-109 6,-109 0,-103 0,-97 0,-97 0,-85 0,-85 0,-79 6,-73 12,-73 12,-73 54,-73 54,-73 60,-73 66,-79 66,-85 66,-85 66,-97 66,-97 66,-103 60,-109 54,-109"/>
<text text-anchor="middle" x="33" y="-94" font-family="Arial" font-size="10.00" fill="white">New Model</text>
<text text-anchor="middle" x="33" y="-83" font-family="Arial" font-size="10.00" fill="white">(training)</text>
</g>
<!-- clinvar&#45;&gt;new_model -->
<g id="edge3" class="edge">
<title>clinvar&#45;&gt;new_model</title>
<path fill="none" stroke="black" d="M40.23,-174.91C35.16,-166.03 30,-157 30,-157 30,-157 30,-127 30,-127 30,-127 30.27,-123.82 30.65,-119.37"/>
<polygon fill="black" stroke="black" points="34.17,-119.35 31.54,-109.09 27.19,-118.75 34.17,-119.35"/>
<text text-anchor="middle" x="60.5" y="-145.8" font-family="Times,serif" font-size="14.00">Training</text>
<text text-anchor="middle" x="60.5" y="-130.8" font-family="Times,serif" font-size="14.00">labels</text>
</g>
<!-- eval -->
<g id="node5" class="node">
<title>eval</title>
<path fill="#d62728" stroke="black" stroke-width="1.5" d="M106,-36C106,-36 68,-36 68,-36 62,-36 56,-30 56,-24 56,-24 56,-12 56,-12 56,-6 62,0 68,0 68,0 106,0 106,0 112,0 118,-6 118,-12 118,-12 118,-24 118,-24 118,-30 112,-36 106,-36"/>
<text text-anchor="middle" x="87" y="-21" font-family="Arial" font-size="10.00" fill="white">Evaluation</text>
<text text-anchor="middle" x="87" y="-10" font-family="Arial" font-size="10.00" fill="white">(inflated)</text>
</g>
<!-- new_model&#45;&gt;eval -->
<g id="edge4" class="edge">
<title>new_model&#45;&gt;eval</title>
<path fill="none" stroke="black" d="M46.07,-72.81C52.64,-64.18 60.72,-53.56 67.96,-44.03"/>
<polygon fill="black" stroke="black" points="70.78,-46.11 74.05,-36.03 65.21,-41.87 70.78,-46.11"/>
</g>
<!-- eval&#45;&gt;clinvar -->
<g id="edge5" class="edge">
<title>eval&#45;&gt;clinvar</title>
<path fill="none" stroke="#d62728" stroke-dasharray="5,2" d="M87.64,-36.35C88.77,-66.88 91,-127 91,-127 91,-127 91,-157 91,-157 91,-157 85.05,-162.08 77.69,-168.36"/>
<polygon fill="#d62728" stroke="#d62728" points="75.35,-165.76 70.02,-174.91 79.9,-171.08 75.35,-165.76"/>
<text text-anchor="middle" x="121" y="-94.8" font-family="Times,serif" font-size="14.00">Appears</text>
<text text-anchor="middle" x="121" y="-79.8" font-family="Times,serif" font-size="14.00">accurate</text>
</g>
</g>
</svg>
