<?xml version="1.0" encoding="UTF-8" standalone="no"?>
<!DOCTYPE svg PUBLIC "-//W3C//DTD SVG 1.1//EN"
 "http://www.w3.org/Graphics/SVG/1.1/DTD/svg11.dtd">
<!-- Generated by graphviz version 2.43.0 (0)
 -->
<!-- Title: mitigation Pages: 1 -->
<svg width="223pt" height="432pt"
 viewBox="0.00 0.00 223.22 432.00" xmlns="http://www.w3.org/2000/svg" xmlns:xlink="http://www.w3.org/1999/xlink">
<g id="graph0" class="graph" transform="scale(1.11 1.11) rotate(0) translate(4 385)">
<title>mitigation</title>
<polygon fill="white" stroke="transparent" points="-4,4 -4,-385 197,-385 197,4 -4,4"/>
<!-- design -->
<g id="node1" class="node">
<title>design</title>
<path fill="#1f77b4" stroke="black" stroke-width="1.5" d="M45,-36C45,-36 15,-36 15,-36 9,-36 3,-30 3,-24 3,-24 3,-12 3,-12 3,-6 9,0 15,0 15,0 45,0 45,0 51,0 57,-6 57,-12 57,-12 57,-24 57,-24 57,-30 51,-36 45,-36"/>
<text text-anchor="middle" x="30" y="-20.8" font-family="Arial" font-size="9.00" fill="white">Study</text>
<text text-anchor="middle" x="30" y="-10.8" font-family="Arial" font-size="9.00" fill="white">Design</text>
</g>
<!-- match -->
<g id="node4" class="node">
<title>match</title>
<path fill="#aec7e8" stroke="black" stroke-width="1.5" d="M181,-36C181,-36 108,-36 108,-36 102,-36 96,-30 96,-24 96,-24 96,-12 96,-12 96,-6 102,0 108,0 108,0 181,0 181,0 187,0 193,-6 193,-12 193,-12 193,-24 193,-24 193,-30 187,-36 181,-36"/>
<text text-anchor="middle" x="144.5" y="-20.8" font-family="Arial" font-size="9.00">Matching</text>
<text text-anchor="middle" x="144.5" y="-10.8" font-family="Arial" font-size="9.00">Balanced Sampling</text>
</g>
<!-- design&#45;&gt;match -->
<g id="edge1" class="edge">
<title>design&#45;&gt;match</title>
<path fill="none" stroke="black" d="M57.09,-18C65.76,-18 75.78,-18 85.86,-18"/>
<polygon fill="black" stroke="black" points="85.91,-21.5 95.91,-18 85.91,-14.5 85.91,-21.5"/>
</g>
<!-- training -->
<g id="node2" class="node">
<title>training</title>
<path fill="#2ca02c" stroke="black" stroke-width="1.5" d="M45,-185C45,-185 15,-185 15,-185 9,-185 3,-179 3,-173 3,-173 3,-161 3,-161 3,-155 9,-149 15,-149 15,-149 45,-149 45,-149 51,-149 57,-155 57,-161 57,-161 57,-173 57,-173 57,-179 51,-185 45,-185"/>
<text text-anchor="middle" x="30" y="-169.8" font-family="Arial" font-size="9.00" fill="white">Model</text>
<text text-anchor="middle" x="30" y="-159.8" font-family="Arial" font-size="9.00" fill="white">Training</text>
</g>
<!-- adjust -->
<g id="node5" class="node">
<title>adjust</title>
<path fill="#98df8a" stroke="black" stroke-width="1.5" d="M163.5,-266C163.5,-266 125.5,-266 125.5,-266 119.5,-266 113.5,-260 113.5,-254 113.5,-254 113.5,-242 113.5,-242 113.5,-236 119.5,-230 125.5,-230 125.5,-230 163.5,-230 163.5,-230 169.5,-230 175.5,-236 175.5,-242 175.5,-242 175.5,-254 175.5,-254 175.5,-260 169.5,-266 163.5,-266"/>
<text text-anchor="middle" x="144.5" y="-250.8" font-family="Arial" font-size="9.00">Covariate</text>
<text text-anchor="middle" x="144.5" y="-240.8" font-family="Arial" font-size="9.00">Adjustment</text>
</g>
<!-- training&#45;&gt;adjust -->
<g id="edge2" class="edge">
<title>training&#45;&gt;adjust</title>
<path fill="none" stroke="black" d="M53.01,-185.28C71.86,-200.95 96,-221 96,-221 96,-221 99.44,-222.96 104.47,-225.82"/>
<polygon fill="black" stroke="black" points="102.99,-229 113.42,-230.9 106.45,-222.92 102.99,-229"/>
</g>
<!-- adv -->
<g id="node6" class="node">
<title>adv</title>
<path fill="#98df8a" stroke="black" stroke-width="1.5" d="M164,-212C164,-212 125,-212 125,-212 119,-212 113,-206 113,-200 113,-200 113,-188 113,-188 113,-182 119,-176 125,-176 125,-176 164,-176 164,-176 170,-176 176,-182 176,-188 176,-188 176,-200 176,-200 176,-206 170,-212 164,-212"/>
<text text-anchor="middle" x="144.5" y="-196.8" font-family="Arial" font-size="9.00">Adversarial</text>
<text text-anchor="middle" x="144.5" y="-186.8" font-family="Arial" font-size="9.00">Invariance</text>
</g>
<!-- training&#45;&gt;adv -->
<g id="edge3" class="edge">
<title>training&#45;&gt;adv</title>
<path fill="none" stroke="black" d="M57.09,-173.26C70.72,-176.53 87.71,-180.61 103,-184.28"/>
<polygon fill="black" stroke="black" points="102.22,-187.69 112.76,-186.62 103.85,-180.88 102.22,-187.69"/>
</g>
<!-- dro -->
<g id="node7" class="node">
<title>dro</title>
<path fill="#98df8a" stroke="black" stroke-width="1.5" d="M159.5,-158C159.5,-158 129.5,-158 129.5,-158 123.5,-158 117.5,-152 117.5,-146 117.5,-146 117.5,-134 117.5,-134 117.5,-128 123.5,-122 129.5,-122 129.5,-122 159.5,-122 159.5,-122 165.5,-122 171.5,-128 171.5,-134 171.5,-134 171.5,-146 171.5,-146 171.5,-152 165.5,-158 159.5,-158"/>
<text text-anchor="middle" x="144.5" y="-142.8" font-family="Arial" font-size="9.00">Group</text>
<text text-anchor="middle" x="144.5" y="-132.8" font-family="Arial" font-size="9.00">DRO</text>
</g>
<!-- training&#45;&gt;dro -->
<g id="edge4" class="edge">
<title>training&#45;&gt;dro</title>
<path fill="none" stroke="black" d="M57.09,-160.74C72.04,-157.15 91.01,-152.6 107.37,-148.67"/>
<polygon fill="black" stroke="black" points="108.25,-152.06 117.16,-146.32 106.62,-145.25 108.25,-152.06"/>
</g>
<!-- multi -->
<g id="node8" class="node">
<title>multi</title>
<path fill="#98df8a" stroke="black" stroke-width="1.5" d="M159.5,-104C159.5,-104 129.5,-104 129.5,-104 123.5,-104 117.5,-98 117.5,-92 117.5,-92 117.5,-80 117.5,-80 117.5,-74 123.5,-68 129.5,-68 129.5,-68 159.5,-68 159.5,-68 165.5,-68 171.5,-74 171.5,-80 171.5,-80 171.5,-92 171.5,-92 171.5,-98 165.5,-104 159.5,-104"/>
<text text-anchor="middle" x="144.5" y="-88.8" font-family="Arial" font-size="9.00">Multi&#45;site</text>
<text text-anchor="middle" x="144.5" y="-78.8" font-family="Arial" font-size="9.00">Training</text>
</g>
<!-- training&#45;&gt;multi -->
<g id="edge5" class="edge">
<title>training&#45;&gt;multi</title>
<path fill="none" stroke="black" d="M53.01,-148.72C71.86,-133.05 96,-113 96,-113 96,-113 101.3,-109.99 108.36,-105.97"/>
<polygon fill="black" stroke="black" points="110.29,-108.91 117.25,-100.92 106.83,-102.82 110.29,-108.91"/>
</g>
<!-- eval -->
<g id="node3" class="node">
<title>eval</title>
<path fill="#ff7f0e" stroke="black" stroke-width="1.5" d="M48,-354C48,-354 12,-354 12,-354 6,-354 0,-348 0,-342 0,-342 0,-330 0,-330 0,-324 6,-318 12,-318 12,-318 48,-318 48,-318 54,-318 60,-324 60,-330 60,-330 60,-342 60,-342 60,-348 54,-354 48,-354"/>
<text text-anchor="middle" x="30" y="-333.8" font-family="Arial" font-size="9.00" fill="white">Evaluation</text>
</g>
<!-- temporal -->
<g id="node9" class="node">
<title>temporal</title>
<path fill="#ffbb78" stroke="black" stroke-width="1.5" d="M160,-381C160,-381 129,-381 129,-381 123,-381 117,-375 117,-369 117,-369 117,-357 117,-357 117,-351 123,-345 129,-345 129,-345 160,-345 160,-345 166,-345 172,-351 172,-357 172,-357 172,-369 172,-369 172,-375 166,-381 160,-381"/>
<text text-anchor="middle" x="144.5" y="-365.8" font-family="Arial" font-size="9.00">Temporal</text>
<text text-anchor="middle" x="144.5" y="-355.8" font-family="Arial" font-size="9.00">Splits</text>
</g>
<!-- eval&#45;&gt;temporal -->
<g id="edge6" class="edge">
<title>eval&#45;&gt;temporal</title>
<path fill="none" stroke="black" d="M60.26,-343.02C74.44,-346.43 91.61,-350.55 106.67,-354.16"/>
<polygon fill="black" stroke="black" points="106.15,-357.64 116.69,-356.57 107.79,-350.83 106.15,-357.64"/>
</g>
<!-- stratified -->
<g id="node10" class="node">
<title>stratified</title>
<path fill="#ffbb78" stroke="black" stroke-width="1.5" d="M162.5,-327C162.5,-327 126.5,-327 126.5,-327 120.5,-327 114.5,-321 114.5,-315 114.5,-315 114.5,-303 114.5,-303 114.5,-297 120.5,-291 126.5,-291 126.5,-291 162.5,-291 162.5,-291 168.5,-291 174.5,-297 174.5,-303 174.5,-303 174.5,-315 174.5,-315 174.5,-321 168.5,-327 162.5,-327"/>
<text text-anchor="middle" x="144.5" y="-311.8" font-family="Arial" font-size="9.00">Stratified</text>
<text text-anchor="middle" x="144.5" y="-301.8" font-family="Arial" font-size="9.00">Evaluation</text>
</g>
<!-- eval&#45;&gt;stratified -->
<g id="edge7" class="edge">
<title>eval&#45;&gt;stratified</title>
<path fill="none" stroke="black" d="M60.26,-328.98C73.81,-325.73 90.08,-321.82 104.64,-318.33"/>
<polygon fill="black" stroke="black" points="105.48,-321.73 114.38,-315.99 103.84,-314.92 105.48,-321.73"/>
</g>
</g>
</svg>
