<?xml version="1.0" encoding="UTF-8" standalone="no"?>
<!DOCTYPE svg PUBLIC "-//W3C//DTD SVG 1.1//EN"
 "http://www.w3.org/Graphics/SVG/1.1/DTD/svg11.dtd">
<!-- Generated by graphviz version 2.43.0 (0)
 -->
<!-- Title: enformer Pages: 1 -->
<svg width="164pt" height="576pt"
 viewBox="0.00 0.00 164.17 576.00" xmlns="http://www.w3.org/2000/svg" xmlns:xlink="http://www.w3.org/1999/xlink">
<g id="graph0" class="graph" transform="scale(0.94 0.94) rotate(0) translate(4 610)">
<title>enformer</title>
<polygon fill="white" stroke="transparent" points="-4,4 -4,-610 171,-610 171,4 -4,4"/>
<!-- input -->
<g id="node1" class="node">
<title>input</title>
<path fill="#aec7e8" stroke="black" stroke-width="1.5" d="M59.5,-606C59.5,-606 20.5,-606 20.5,-606 14.5,-606 8.5,-600 8.5,-594 8.5,-594 8.5,-582 8.5,-582 8.5,-576 14.5,-570 20.5,-570 20.5,-570 59.5,-570 59.5,-570 65.5,-570 71.5,-576 71.5,-582 71.5,-582 71.5,-594 71.5,-594 71.5,-600 65.5,-606 59.5,-606"/>
<text text-anchor="middle" x="40" y="-590.8" font-family="Arial" font-size="9.00">196,608 bp</text>
<text text-anchor="middle" x="40" y="-580.8" font-family="Arial" font-size="9.00">Sequence</text>
</g>
<!-- conv -->
<g id="node2" class="node">
<title>conv</title>
<path fill="#98df8a" stroke="black" stroke-width="1.5" d="M65,-519C65,-519 15,-519 15,-519 9,-519 3,-513 3,-507 3,-507 3,-495 3,-495 3,-489 9,-483 15,-483 15,-483 65,-483 65,-483 71,-483 77,-489 77,-495 77,-495 77,-507 77,-507 77,-513 71,-519 65,-519"/>
<text text-anchor="middle" x="40" y="-503.8" font-family="Arial" font-size="9.00">Convolutional</text>
<text text-anchor="middle" x="40" y="-493.8" font-family="Arial" font-size="9.00">Stem</text>
</g>
<!-- input&#45;&gt;conv -->
<g id="edge1" class="edge">
<title>input&#45;&gt;conv</title>
<path fill="none" stroke="black" d="M40,-569.8C40,-558.16 40,-542.55 40,-529.24"/>
<polygon fill="black" stroke="black" points="43.5,-529.18 40,-519.18 36.5,-529.18 43.5,-529.18"/>
<text text-anchor="middle" x="68.5" y="-540.8" font-family="Times,serif" font-size="14.00">One&#45;hot</text>
</g>
<!-- tf1 -->
<g id="node3" class="node">
<title>tf1</title>
<path fill="#9467bd" stroke="black" stroke-width="1.5" d="M61,-432C61,-432 19,-432 19,-432 13,-432 7,-426 7,-420 7,-420 7,-408 7,-408 7,-402 13,-396 19,-396 19,-396 61,-396 61,-396 67,-396 73,-402 73,-408 73,-408 73,-420 73,-420 73,-426 67,-432 61,-432"/>
<text text-anchor="middle" x="40" y="-416.8" font-family="Arial" font-size="9.00" fill="white">Transformer</text>
<text text-anchor="middle" x="40" y="-406.8" font-family="Arial" font-size="9.00" fill="white">Block 1</text>
</g>
<!-- conv&#45;&gt;tf1 -->
<g id="edge2" class="edge">
<title>conv&#45;&gt;tf1</title>
<path fill="none" stroke="black" d="M40,-482.8C40,-471.16 40,-455.55 40,-442.24"/>
<polygon fill="black" stroke="black" points="43.5,-442.18 40,-432.18 36.5,-442.18 43.5,-442.18"/>
<text text-anchor="middle" x="103.5" y="-453.8" font-family="Times,serif" font-size="14.00">128 bp resolution</text>
</g>
<!-- tf2 -->
<g id="node4" class="node">
<title>tf2</title>
<path fill="#9467bd" stroke="black" stroke-width="1.5" d="M61,-359C61,-359 19,-359 19,-359 13,-359 7,-353 7,-347 7,-347 7,-335 7,-335 7,-329 13,-323 19,-323 19,-323 61,-323 61,-323 67,-323 73,-329 73,-335 73,-335 73,-347 73,-347 73,-353 67,-359 61,-359"/>
<text text-anchor="middle" x="40" y="-343.8" font-family="Arial" font-size="9.00" fill="white">Transformer</text>
<text text-anchor="middle" x="40" y="-333.8" font-family="Arial" font-size="9.00" fill="white">Block 2</text>
</g>
<!-- tf1&#45;&gt;tf2 -->
<g id="edge3" class="edge">
<title>tf1&#45;&gt;tf2</title>
<path fill="none" stroke="black" d="M40,-395.81C40,-387.79 40,-378.05 40,-369.07"/>
<polygon fill="black" stroke="black" points="43.5,-369.03 40,-359.03 36.5,-369.03 43.5,-369.03"/>
</g>
<!-- tf11 -->
<g id="node5" class="node">
<title>tf11</title>
<path fill="#9467bd" stroke="black" stroke-width="1.5" d="M61,-272C61,-272 19,-272 19,-272 13,-272 7,-266 7,-260 7,-260 7,-248 7,-248 7,-242 13,-236 19,-236 19,-236 61,-236 61,-236 67,-236 73,-242 73,-248 73,-248 73,-260 73,-260 73,-266 67,-272 61,-272"/>
<text text-anchor="middle" x="40" y="-256.8" font-family="Arial" font-size="9.00" fill="white">Transformer</text>
<text text-anchor="middle" x="40" y="-246.8" font-family="Arial" font-size="9.00" fill="white">Block 11</text>
</g>
<!-- tf2&#45;&gt;tf11 -->
<g id="edge4" class="edge">
<title>tf2&#45;&gt;tf11</title>
<path fill="none" stroke="black" stroke-dasharray="5,2" d="M40,-322.8C40,-311.16 40,-295.55 40,-282.24"/>
<polygon fill="black" stroke="black" points="43.5,-282.18 40,-272.18 36.5,-282.18 43.5,-282.18"/>
<text text-anchor="middle" x="47" y="-293.8" font-family="Times,serif" font-size="14.00">...</text>
</g>
<!-- head -->
<g id="node6" class="node">
<title>head</title>
<path fill="#ff7f0e" stroke="black" stroke-width="1.5" d="M57,-199C57,-199 23,-199 23,-199 17,-199 11,-193 11,-187 11,-187 11,-175 11,-175 11,-169 17,-163 23,-163 23,-163 57,-163 57,-163 63,-163 69,-169 69,-175 69,-175 69,-187 69,-187 69,-193 63,-199 57,-199"/>
<text text-anchor="middle" x="40" y="-183.8" font-family="Arial" font-size="9.00">Prediction</text>
<text text-anchor="middle" x="40" y="-173.8" font-family="Arial" font-size="9.00">Heads</text>
</g>
<!-- tf11&#45;&gt;head -->
<g id="edge5" class="edge">
<title>tf11&#45;&gt;head</title>
<path fill="none" stroke="black" d="M40,-235.81C40,-227.79 40,-218.05 40,-209.07"/>
<polygon fill="black" stroke="black" points="43.5,-209.03 40,-199.03 36.5,-209.03 43.5,-209.03"/>
</g>
<!-- tracks -->
<g id="node7" class="node">
<title>tracks</title>
<path fill="#d62728" stroke="black" stroke-width="1.5" d="M62.5,-126C62.5,-126 17.5,-126 17.5,-126 11.5,-126 5.5,-120 5.5,-114 5.5,-114 5.5,-102 5.5,-102 5.5,-96 11.5,-90 17.5,-90 17.5,-90 62.5,-90 62.5,-90 68.5,-90 74.5,-96 74.5,-102 74.5,-102 74.5,-114 74.5,-114 74.5,-120 68.5,-126 62.5,-126"/>
<text text-anchor="middle" x="40" y="-110.8" font-family="Arial" font-size="9.00" fill="white">5,313 Tracks</text>
<text text-anchor="middle" x="40" y="-100.8" font-family="Arial" font-size="9.00" fill="white">(896 bins)</text>
</g>
<!-- head&#45;&gt;tracks -->
<g id="edge6" class="edge">
<title>head&#45;&gt;tracks</title>
<path fill="none" stroke="black" d="M40,-162.81C40,-154.79 40,-145.05 40,-136.07"/>
<polygon fill="black" stroke="black" points="43.5,-136.03 40,-126.03 36.5,-136.03 43.5,-136.03"/>
</g>
<!-- note1 -->
<g id="node8" class="node">
<title>note1</title>
<polygon fill="#fff8dc" stroke="black" stroke-width="1.5" points="74,-53 0,-53 0,0 80,0 80,-47 74,-53"/>
<polyline fill="none" stroke="black" stroke-width="1.5" points="74,-53 74,-47 "/>
<polyline fill="none" stroke="black" stroke-width="1.5" points="80,-47 74,-47 "/>
<text text-anchor="middle" x="40" y="-42.6" font-family="Arial" font-size="8.00">CAGE (RNA)</text>
<text text-anchor="middle" x="40" y="-33.6" font-family="Arial" font-size="8.00">ATAC (chromatin)</text>
<text text-anchor="middle" x="40" y="-24.6" font-family="Arial" font-size="8.00">DNase</text>
<text text-anchor="middle" x="40" y="-15.6" font-family="Arial" font-size="8.00">Histone marks</text>
<text text-anchor="middle" x="40" y="-6.6" font-family="Arial" font-size="8.00">ChIP&#45;seq</text>
</g>
<!-- tracks&#45;&gt;note1 -->
<g id="edge7" class="edge">
<title>tracks&#45;&gt;note1</title>
<path fill="none" stroke="black" stroke-dasharray="5,2" d="M40,-89.75C40,-81.99 40,-72.51 40,-63.32"/>
<polygon fill="black" stroke="black" points="43.5,-63.18 40,-53.18 36.5,-63.18 43.5,-63.18"/>
</g>
</g>
</svg>
