<?xml version="1.0" encoding="utf-8" ?>
<svg xmlns="http://www.w3.org/2000/svg" xmlns:ev="http://www.w3.org/2001/xml-events" xmlns:xlink="http://www.w3.org/1999/xlink" baseProfile="full" height="800" version="1.1" width="1200">
  <defs>
    <marker id="id165" markerHeight="7" markerWidth="7" orient="auto" refX="6" refY="3">
      <path d="M0,0 L0,6 L6,3 z" fill="#333333"/>
    </marker>
  </defs>
  <rect fill="white" height="800" width="1200" x="0" y="0"/>
  <text fill="#111" font-family="Arial, Helvetica, sans-serif" font-size="28" font-weight="700" x="60" y="50">Figure 16.5: Regulatory Model Limitations (Four-Panel)</text>
  <text fill="#444" font-family="Arial, Helvetica, sans-serif" font-size="16" x="60" y="78">Panel A</text>
  <rect fill="#f1f1f1" height="18" stroke="#333" stroke-width="1.5" width="420" x="120" y="140"/>
  <rect fill="#cccccc" height="18" stroke="none" width="12" x="324.0" y="140"/>
  <rect fill="#ffbb78" height="18" opacity="0.35" stroke="none" width="44.82193280500066" x="413.67641617556245" y="140"/>
  <rect fill="#d62728" height="18" opacity="0.35" stroke="none" width="31.149912935774175" x="212.65395932801698" y="140"/>
  <rect fill="#9467bd" height="18" opacity="0.35" stroke="none" width="49.43752786121315" x="480.6155325741498" y="140"/>
  <text fill="#333" font-family="Arial, Helvetica, sans-serif" font-size="13" text-anchor="end" x="90" y="154">1</text>
  <rect fill="#f1f1f1" height="18" stroke="#333" stroke-width="1.5" width="420" x="650" y="140"/>
  <rect fill="#cccccc" height="18" stroke="none" width="12" x="854.0" y="140"/>
  <rect fill="#d62728" height="18" opacity="0.35" stroke="none" width="68.52132115099805" x="737.6191218734223" y="140"/>
  <rect fill="#9467bd" height="18" opacity="0.35" stroke="none" width="38.56997457761081" x="807.5137747369813" y="140"/>
  <text fill="#333" font-family="Arial, Helvetica, sans-serif" font-size="13" text-anchor="end" x="620" y="154">13</text>
  <rect fill="#f1f1f1" height="18" stroke="#333" stroke-width="1.5" width="420" x="120" y="178"/>
  <rect fill="#cccccc" height="18" stroke="none" width="12" x="324.0" y="178"/>
  <rect fill="#9467bd" height="18" opacity="0.35" stroke="none" width="73.72902161905621" x="377.4345040954137" y="178"/>
  <rect fill="#2ca02c" height="18" opacity="0.35" stroke="none" width="70.44641042671357" x="150.93526241310857" y="178"/>
  <rect fill="#2ca02c" height="18" opacity="0.35" stroke="none" width="34.8844691944089" x="200.9511753186885" y="178"/>
  <text fill="#333" font-family="Arial, Helvetica, sans-serif" font-size="13" text-anchor="end" x="90" y="192">2</text>
  <rect fill="#f1f1f1" height="18" stroke="#333" stroke-width="1.5" width="420" x="650" y="178"/>
  <rect fill="#cccccc" height="18" stroke="none" width="12" x="854.0" y="178"/>
  <rect fill="#2ca02c" height="18" opacity="0.35" stroke="none" width="74.70312397879115" x="974.1697326734973" y="178"/>
  <rect fill="#9467bd" height="18" opacity="0.35" stroke="none" width="64.67793710862676" x="846.7290139659855" y="178"/>
  <rect fill="#2ca02c" height="18" opacity="0.35" stroke="none" width="43.036383743899115" x="928.4800180451889" y="178"/>
  <text fill="#333" font-family="Arial, Helvetica, sans-serif" font-size="13" text-anchor="end" x="620" y="192">14</text>
  <rect fill="#f1f1f1" height="18" stroke="#333" stroke-width="1.5" width="420" x="120" y="216"/>
  <rect fill="#cccccc" height="18" stroke="none" width="12" x="324.0" y="216"/>
  <rect fill="#ffbb78" height="18" opacity="0.35" stroke="none" width="47.71117488465028" x="379.5636275984065" y="216"/>
  <rect fill="#ffbb78" height="18" opacity="0.35" stroke="none" width="47.076781742298316" x="168.39467264680172" y="216"/>
  <text fill="#333" font-family="Arial, Helvetica, sans-serif" font-size="13" text-anchor="end" x="90" y="230">3</text>
  <rect fill="#f1f1f1" height="18" stroke="#333" stroke-width="1.5" width="420" x="650" y="216"/>
  <rect fill="#cccccc" height="18" stroke="none" width="12" x="854.0" y="216"/>
  <rect fill="#ffbb78" height="18" opacity="0.35" stroke="none" width="68.87004548236997" x="817.6833168322862" y="216"/>
  <rect fill="#ffbb78" height="18" opacity="0.35" stroke="none" width="56.75917555343513" x="968.5367979337029" y="216"/>
  <rect fill="#2ca02c" height="18" opacity="0.35" stroke="none" width="66.44726201994402" x="885.1099300013534" y="216"/>
  <text fill="#333" font-family="Arial, Helvetica, sans-serif" font-size="13" text-anchor="end" x="620" y="230">15</text>
  <rect fill="#f1f1f1" height="18" stroke="#333" stroke-width="1.5" width="420" x="120" y="254"/>
  <rect fill="#cccccc" height="18" stroke="none" width="12" x="324.0" y="254"/>
  <rect fill="#d62728" height="18" opacity="0.35" stroke="none" width="33.19110141151961" x="336.6085476964216" y="254"/>
  <rect fill="#d62728" height="18" opacity="0.35" stroke="none" width="33.18754753836825" x="352.6934986312081" y="254"/>
  <text fill="#333" font-family="Arial, Helvetica, sans-serif" font-size="13" text-anchor="end" x="90" y="268">4</text>
  <rect fill="#f1f1f1" height="18" stroke="#333" stroke-width="1.5" width="420" x="650" y="254"/>
  <rect fill="#cccccc" height="18" stroke="none" width="12" x="854.0" y="254"/>
  <rect fill="#ffbb78" height="18" opacity="0.35" stroke="none" width="42.23658317000108" x="716.0081382725225" y="254"/>
  <rect fill="#d62728" height="18" opacity="0.35" stroke="none" width="36.11056789834247" x="946.0507141163839" y="254"/>
  <text fill="#333" font-family="Arial, Helvetica, sans-serif" font-size="13" text-anchor="end" x="620" y="268">16</text>
  <rect fill="#f1f1f1" height="18" stroke="#333" stroke-width="1.5" width="420" x="120" y="292"/>
  <rect fill="#cccccc" height="18" stroke="none" width="12" x="324.0" y="292"/>
  <rect fill="#9467bd" height="18" opacity="0.35" stroke="none" width="69.03530366487003" x="465.35622407010845" y="292"/>
  <text fill="#333" font-family="Arial, Helvetica, sans-serif" font-size="13" text-anchor="end" x="90" y="306">5</text>
  <rect fill="#f1f1f1" height="18" stroke="#333" stroke-width="1.5" width="420" x="650" y="292"/>
  <rect fill="#cccccc" height="18" stroke="none" width="12" x="854.0" y="292"/>
  <rect fill="#9467bd" height="18" opacity="0.35" stroke="none" width="49.708132806528056" x="859.7012405242056" y="292"/>
  <rect fill="#9467bd" height="18" opacity="0.35" stroke="none" width="60.232937988077964" x="740.0947102600157" y="292"/>
  <rect fill="#d62728" height="18" opacity="0.35" stroke="none" width="55.65770046668993" x="941.6527673368514" y="292"/>
  <text fill="#333" font-family="Arial, Helvetica, sans-serif" font-size="13" text-anchor="end" x="620" y="306">17</text>
  <rect fill="#f1f1f1" height="18" stroke="#333" stroke-width="1.5" width="420" x="120" y="330"/>
  <rect fill="#cccccc" height="18" stroke="none" width="12" x="324.0" y="330"/>
  <rect fill="#d62728" height="18" opacity="0.35" stroke="none" width="31.25413314060364" x="465.45318051338734" y="330"/>
  <rect fill="#9467bd" height="18" opacity="0.35" stroke="none" width="32.53834398095858" x="487.38618306826254" y="330"/>
  <rect fill="#9467bd" height="18" opacity="0.35" stroke="none" width="68.81633583281702" x="275.27850027830584" y="330"/>
  <text fill="#333" font-family="Arial, Helvetica, sans-serif" font-size="13" text-anchor="end" x="90" y="344">6</text>
  <rect fill="#f1f1f1" height="18" stroke="#333" stroke-width="1.5" width="420" x="650" y="330"/>
  <rect fill="#cccccc" height="18" stroke="none" width="12" x="854.0" y="330"/>
  <rect fill="#2ca02c" height="18" opacity="0.35" stroke="none" width="56.54461373552866" x="931.7676525563387" y="330"/>
  <rect fill="#9467bd" height="18" opacity="0.35" stroke="none" width="40.7632302808071" x="851.8642448952061" y="330"/>
  <rect fill="#2ca02c" height="18" opacity="0.35" stroke="none" width="45.16673086054202" x="981.6926548949666" y="330"/>
  <text fill="#333" font-family="Arial, Helvetica, sans-serif" font-size="13" text-anchor="end" x="620" y="344">18</text>
  <rect fill="#f1f1f1" height="18" stroke="#333" stroke-width="1.5" width="420" x="120" y="368"/>
  <rect fill="#cccccc" height="18" stroke="none" width="12" x="324.0" y="368"/>
  <rect fill="#9467bd" height="18" opacity="0.35" stroke="none" width="33.906567118643295" x="391.236462715383" y="368"/>
  <rect fill="#ffbb78" height="18" opacity="0.35" stroke="none" width="72.81993139415238" x="237.7150961827503" y="368"/>
  <text fill="#333" font-family="Arial, Helvetica, sans-serif" font-size="13" text-anchor="end" x="90" y="382">7</text>
  <rect fill="#f1f1f1" height="18" stroke="#333" stroke-width="1.5" width="420" x="650" y="368"/>
  <rect fill="#cccccc" height="18" stroke="none" width="12" x="854.0" y="368"/>
  <rect fill="#d62728" height="18" opacity="0.35" stroke="none" width="33.178822059043505" x="682.7889374219482" y="368"/>
  <rect fill="#d62728" height="18" opacity="0.35" stroke="none" width="55.22567703002194" x="1018.6473186528885" y="368"/>
  <text fill="#333" font-family="Arial, Helvetica, sans-serif" font-size="13" text-anchor="end" x="620" y="382">19</text>
  <rect fill="#f1f1f1" height="18" stroke="#333" stroke-width="1.5" width="420" x="120" y="406"/>
  <rect fill="#cccccc" height="18" stroke="none" width="12" x="324.0" y="406"/>
  <rect fill="#d62728" height="18" opacity="0.35" stroke="none" width="29.214699797000822" x="181.47271221031946" y="406"/>
  <rect fill="#9467bd" height="18" opacity="0.35" stroke="none" width="73.11711797422177" x="413.67416664668053" y="406"/>
  <rect fill="#ffbb78" height="18" opacity="0.35" stroke="none" width="27.271062525729235" x="163.86080383745082" y="406"/>
  <text fill="#333" font-family="Arial, Helvetica, sans-serif" font-size="13" text-anchor="end" x="90" y="420">8</text>
  <rect fill="#f1f1f1" height="18" stroke="#333" stroke-width="1.5" width="420" x="650" y="406"/>
  <rect fill="#cccccc" height="18" stroke="none" width="12" x="854.0" y="406"/>
  <rect fill="#2ca02c" height="18" opacity="0.35" stroke="none" width="55.041185206730106" x="947.5515203905156" y="406"/>
  <text fill="#333" font-family="Arial, Helvetica, sans-serif" font-size="13" text-anchor="end" x="620" y="420">20</text>
  <rect fill="#f1f1f1" height="18" stroke="#333" stroke-width="1.5" width="420" x="120" y="444"/>
  <rect fill="#cccccc" height="18" stroke="none" width="12" x="324.0" y="444"/>
  <rect fill="#d62728" height="18" opacity="0.35" stroke="none" width="61.719839652249945" x="256.2747399968973" y="444"/>
  <text fill="#333" font-family="Arial, Helvetica, sans-serif" font-size="13" text-anchor="end" x="90" y="458">9</text>
  <rect fill="#f1f1f1" height="18" stroke="#333" stroke-width="1.5" width="420" x="650" y="444"/>
  <rect fill="#cccccc" height="18" stroke="none" width="12" x="854.0" y="444"/>
  <rect fill="#ffbb78" height="18" opacity="0.35" stroke="none" width="55.16984137700749" x="701.9539281680536" y="444"/>
  <rect fill="#d62728" height="18" opacity="0.35" stroke="none" width="66.19252330417844" x="984.7818219700785" y="444"/>
  <text fill="#333" font-family="Arial, Helvetica, sans-serif" font-size="13" text-anchor="end" x="620" y="458">21</text>
  <rect fill="#f1f1f1" height="18" stroke="#333" stroke-width="1.5" width="420" x="120" y="482"/>
  <rect fill="#cccccc" height="18" stroke="none" width="12" x="324.0" y="482"/>
  <rect fill="#ffbb78" height="18" opacity="0.35" stroke="none" width="54.33750682823537" x="454.5676211616077" y="482"/>
  <rect fill="#2ca02c" height="18" opacity="0.35" stroke="none" width="49.061606607677184" x="256.70439031827976" y="482"/>
  <rect fill="#9467bd" height="18" opacity="0.35" stroke="none" width="34.814208383427854" x="211.43392125692617" y="482"/>
  <text fill="#333" font-family="Arial, Helvetica, sans-serif" font-size="13" text-anchor="end" x="90" y="496">10</text>
  <rect fill="#f1f1f1" height="18" stroke="#333" stroke-width="1.5" width="420" x="650" y="482"/>
  <rect fill="#cccccc" height="18" stroke="none" width="12" x="854.0" y="482"/>
  <rect fill="#d62728" height="18" opacity="0.35" stroke="none" width="32.110947651081865" x="722.2598516981425" y="482"/>
  <rect fill="#2ca02c" height="18" opacity="0.35" stroke="none" width="48.06521049527315" x="850.0659677722447" y="482"/>
  <text fill="#333" font-family="Arial, Helvetica, sans-serif" font-size="13" text-anchor="end" x="620" y="496">22</text>
  <rect fill="#f1f1f1" height="18" stroke="#333" stroke-width="1.5" width="420" x="120" y="520"/>
  <rect fill="#cccccc" height="18" stroke="none" width="12" x="324.0" y="520"/>
  <rect fill="#9467bd" height="18" opacity="0.35" stroke="none" width="48.46333585140974" x="238.7954377246005" y="520"/>
  <rect fill="#9467bd" height="18" opacity="0.35" stroke="none" width="47.01086027575816" x="194.89464174554763" y="520"/>
  <text fill="#333" font-family="Arial, Helvetica, sans-serif" font-size="13" text-anchor="end" x="90" y="534">11</text>
  <rect fill="#f1f1f1" height="18" stroke="#333" stroke-width="1.5" width="420" x="650" y="520"/>
  <rect fill="#cccccc" height="18" stroke="none" width="12" x="854.0" y="520"/>
  <rect fill="#2ca02c" height="18" opacity="0.35" stroke="none" width="69.03472195119427" x="674.8120856444762" y="520"/>
  <text fill="#333" font-family="Arial, Helvetica, sans-serif" font-size="13" text-anchor="end" x="620" y="534">X</text>
  <rect fill="#f1f1f1" height="18" stroke="#333" stroke-width="1.5" width="420" x="120" y="558"/>
  <rect fill="#cccccc" height="18" stroke="none" width="12" x="324.0" y="558"/>
  <rect fill="#ffbb78" height="18" opacity="0.35" stroke="none" width="65.06900572228642" x="425.5110932665873" y="558"/>
  <rect fill="#ffbb78" height="18" opacity="0.35" stroke="none" width="35.29083931435419" x="396.5945616165515" y="558"/>
  <text fill="#333" font-family="Arial, Helvetica, sans-serif" font-size="13" text-anchor="end" x="90" y="572">12</text>
  <rect fill="#f1f1f1" height="18" stroke="#333" stroke-width="1.5" width="420" x="650" y="558"/>
  <rect fill="#cccccc" height="18" stroke="none" width="12" x="854.0" y="558"/>
  <rect fill="#2ca02c" height="18" opacity="0.35" stroke="none" width="38.740883987461224" x="682.7398467229872" y="558"/>
  <rect fill="#d62728" height="18" opacity="0.35" stroke="none" width="64.54536916554169" x="849.9335371151233" y="558"/>
  <rect fill="#d62728" height="18" opacity="0.35" stroke="none" width="59.14321601036962" x="877.5632274933689" y="558"/>
  <text fill="#333" font-family="Arial, Helvetica, sans-serif" font-size="13" text-anchor="end" x="620" y="572">Y</text>
  <path d="M 980,160 L 1045.0,160.0 A 65,65 0 1,1 1018.2060413990107,107.4138953656284 Z" fill="#dddddd" stroke="white" stroke-width="1.5"/>
  <path d="M 980,160 L 1018.2060413990107,107.4138953656284 A 65,65 0 0,1 1032.5861046343716,121.79395860098923 Z" fill="#ffbb78" stroke="white" stroke-width="1.5"/>
  <path d="M 980,160 L 1032.5861046343716,121.79395860098923 A 65,65 0 0,1 1041.818673559185,139.9138953656284 Z" fill="#2ca02c" stroke="white" stroke-width="1.5"/>
  <path d="M 980,160 L 1041.818673559185,139.9138953656284 A 65,65 0 0,1 1045.0,159.99999999999997 Z" fill="#9467bd" stroke="white" stroke-width="1.5"/>
  <text fill="#333" font-family="Arial, Helvetica, sans-serif" font-size="12" text-anchor="middle" x="980" y="255">Genome fraction</text>
  <rect fill="none" height="120" stroke="#999" stroke-width="1.5" width="220" x="930" y="340"/>
  <line stroke="#333" stroke-width="3" x1="948" x2="966" y1="375" y2="375"/>
  <line stroke="#333" stroke-width="3" x1="976" x2="994" y1="375" y2="375"/>
  <line stroke="#333" stroke-width="3" x1="1004" x2="1022" y1="375" y2="375"/>
  <line stroke="#333" stroke-width="3" x1="1032" x2="1050" y1="375" y2="375"/>
  <line stroke="#333" stroke-width="3" x1="1060" x2="1078" y1="375" y2="375"/>
  <line stroke="#333" stroke-width="3" x1="1088" x2="1106" y1="375" y2="375"/>
  <line stroke="#333" stroke-width="3" x1="1116" x2="1134" y1="375" y2="375"/>
  <line stroke="#d62728" stroke-width="4" x1="955" x2="1125" y1="420" y2="420"/>
  <text fill="#333" font-family="Arial, Helvetica, sans-serif" font-size="12" x="945" y="360">short reads</text>
  <text fill="#333" font-family="Arial, Helvetica, sans-serif" font-size="12" x="945" y="450">long read spans region</text>
  <text fill="#999" font-family="Arial, Helvetica, sans-serif" font-size="12" text-anchor="end" x="1140" y="776">Auto-generated SVG</text>
</svg>
