<?xml version="1.0" encoding="utf-8" ?>
<svg xmlns="http://www.w3.org/2000/svg" xmlns:ev="http://www.w3.org/2001/xml-events" xmlns:xlink="http://www.w3.org/1999/xlink" baseProfile="full" height="800" version="1.1" width="1200">
  <defs>
    <marker id="id166" markerHeight="7" markerWidth="7" orient="auto" refX="6" refY="3">
      <path d="M0,0 L0,6 L6,3 z" fill="#333333"/>
    </marker>
  </defs>
  <rect fill="white" height="800" width="1200" x="0" y="0"/>
  <text fill="#111" font-family="Arial, Helvetica, sans-serif" font-size="28" font-weight="700" x="60" y="50">Figure 16.5: Regulatory Model Limitations (Four-Panel)</text>
  <text fill="#444" font-family="Arial, Helvetica, sans-serif" font-size="16" x="60" y="78">Panel B</text>
  <line stroke="#333" stroke-width="2" x1="140" x2="1040" y1="690" y2="690"/>
  <line stroke="#333" stroke-width="2" x1="140" x2="140" y1="170" y2="690"/>
  <rect fill="#1f77b4" height="138.0667746971635" stroke="white" stroke-width="1" width="120.0" x="200.0" y="551.9332253028365"/>
  <rect fill="#ff7f0e" height="125.76570194657945" stroke="white" stroke-width="1" width="120.0" x="200.0" y="426.16752335625705"/>
  <rect fill="#2ca02c" height="107.68374810672259" stroke="white" stroke-width="1" width="120.0" x="200.0" y="318.48377524953446"/>
  <rect fill="#9467bd" height="85.67550449702787" stroke="white" stroke-width="1" width="120.0" x="200.0" y="232.8082707525066"/>
  <rect fill="#8c564b" height="62.808270752506594" stroke="white" stroke-width="1" width="120.0" x="200.0" y="170.0"/>
  <text fill="#333" font-family="Arial, Helvetica, sans-serif" font-size="14" text-anchor="middle" x="260.0" y="720">Resource 1</text>
  <rect fill="#1f77b4" height="74.10581070610337" stroke="white" stroke-width="1" width="120.0" x="380.0" y="615.8941892938966"/>
  <rect fill="#ff7f0e" height="143.467353922885" stroke="white" stroke-width="1" width="120.0" x="380.0" y="472.42683537101163"/>
  <rect fill="#2ca02c" height="71.52337296251727" stroke="white" stroke-width="1" width="120.0" x="380.0" y="400.90346240849436"/>
  <rect fill="#9467bd" height="133.1885821851428" stroke="white" stroke-width="1" width="120.0" x="380.0" y="267.71488022335154"/>
  <rect fill="#8c564b" height="97.71488022335159" stroke="white" stroke-width="1" width="120.0" x="380.0" y="169.99999999999994"/>
  <text fill="#333" font-family="Arial, Helvetica, sans-serif" font-size="14" text-anchor="middle" x="440.0" y="720">Resource 2</text>
  <rect fill="#1f77b4" height="74.65617053830849" stroke="white" stroke-width="1" width="120.0" x="560.0" y="615.3438294616915"/>
  <rect fill="#ff7f0e" height="64.54736160616417" stroke="white" stroke-width="1" width="120.0" x="560.0" y="550.7964678555273"/>
  <rect fill="#2ca02c" height="164.83603030910206" stroke="white" stroke-width="1" width="120.0" x="560.0" y="385.9604375464253"/>
  <rect fill="#9467bd" height="112.81176883221791" stroke="white" stroke-width="1" width="120.0" x="560.0" y="273.14866871420736"/>
  <rect fill="#8c564b" height="103.14866871420739" stroke="white" stroke-width="1" width="120.0" x="560.0" y="169.99999999999997"/>
  <text fill="#333" font-family="Arial, Helvetica, sans-serif" font-size="14" text-anchor="middle" x="620.0" y="720">Resource 3</text>
  <rect fill="#1f77b4" height="147.189532888735" stroke="white" stroke-width="1" width="120.0" x="740.0" y="542.810467111265"/>
  <rect fill="#ff7f0e" height="88.14824140486641" stroke="white" stroke-width="1" width="120.0" x="740.0" y="454.66222570639854"/>
  <rect fill="#2ca02c" height="67.59156579519053" stroke="white" stroke-width="1" width="120.0" x="740.0" y="387.070659911208"/>
  <rect fill="#9467bd" height="65.23493337826646" stroke="white" stroke-width="1" width="120.0" x="740.0" y="321.8357265329415"/>
  <rect fill="#8c564b" height="151.8357265329416" stroke="white" stroke-width="1" width="120.0" x="740.0" y="169.99999999999991"/>
  <text fill="#333" font-family="Arial, Helvetica, sans-serif" font-size="14" text-anchor="middle" x="800.0" y="720">Resource 4</text>
  <rect fill="#1f77b4" height="102.34876525505706" stroke="white" stroke-width="1" width="120.0" x="920.0" y="587.6512347449429"/>
  <rect fill="#ff7f0e" height="151.49969518396938" stroke="white" stroke-width="1" width="120.0" x="920.0" y="436.15153956097356"/>
  <rect fill="#2ca02c" height="70.55783868865927" stroke="white" stroke-width="1" width="120.0" x="920.0" y="365.5937008723143"/>
  <rect fill="#9467bd" height="126.61651488087782" stroke="white" stroke-width="1" width="120.0" x="920.0" y="238.97718599143647"/>
  <rect fill="#8c564b" height="68.97718599143646" stroke="white" stroke-width="1" width="120.0" x="920.0" y="170.0"/>
  <text fill="#333" font-family="Arial, Helvetica, sans-serif" font-size="14" text-anchor="middle" x="980.0" y="720">Resource 5</text>
  <rect fill="#1f77b4" height="18" stroke="none" width="18" x="1070" y="176"/>
  <text fill="#333" font-family="Arial, Helvetica, sans-serif" font-size="14" x="1096" y="190">Group 1</text>
  <rect fill="#ff7f0e" height="18" stroke="none" width="18" x="1070" y="202"/>
  <text fill="#333" font-family="Arial, Helvetica, sans-serif" font-size="14" x="1096" y="216">Group 2</text>
  <rect fill="#2ca02c" height="18" stroke="none" width="18" x="1070" y="228"/>
  <text fill="#333" font-family="Arial, Helvetica, sans-serif" font-size="14" x="1096" y="242">Group 3</text>
  <rect fill="#9467bd" height="18" stroke="none" width="18" x="1070" y="254"/>
  <text fill="#333" font-family="Arial, Helvetica, sans-serif" font-size="14" x="1096" y="268">Group 4</text>
  <rect fill="#8c564b" height="18" stroke="none" width="18" x="1070" y="280"/>
  <text fill="#333" font-family="Arial, Helvetica, sans-serif" font-size="14" x="1096" y="294">Other</text>
  <text fill="#999" font-family="Arial, Helvetica, sans-serif" font-size="12" text-anchor="end" x="1140" y="776">Auto-generated SVG</text>
</svg>
