<?xml version="1.0" encoding="utf-8" ?>
<svg xmlns="http://www.w3.org/2000/svg" xmlns:ev="http://www.w3.org/2001/xml-events" xmlns:xlink="http://www.w3.org/1999/xlink" baseProfile="full" height="800" version="1.1" width="1200">
  <defs>
    <marker id="id292" markerHeight="7" markerWidth="7" orient="auto" refX="6" refY="3">
      <path d="M0,0 L0,6 L6,3 z" fill="#333333"/>
    </marker>
  </defs>
  <rect fill="white" height="800" width="1200" x="0" y="0"/>
  <text fill="#111" font-family="Arial, Helvetica, sans-serif" font-size="28" font-weight="700" x="60" y="50">Figure 2: Calibration Diagrams</text>
  <text fill="#444" font-family="Arial, Helvetica, sans-serif" font-size="16" x="60" y="78">Panel B</text>
  <line stroke="#333" stroke-width="2" x1="140" x2="1000" y1="720" y2="720"/>
  <line stroke="#333" stroke-width="2" x1="140" x2="140" y1="160" y2="720"/>
  <circle cx="448.0339605006721" cy="533.1958916602579" fill="#1f77b4" opacity="0.75" r="4"/>
  <circle cx="361.6487462546555" cy="569.2377298619429" fill="#ff7f0e" opacity="0.75" r="4"/>
  <circle cx="397.02565942132816" cy="502.55323499697494" fill="#1f77b4" opacity="0.75" r="4"/>
  <circle cx="484.67433904657037" cy="534.7791091488152" fill="#2ca02c" opacity="0.75" r="4"/>
  <circle cx="454.44199825061" cy="418.02932369365044" fill="#1f77b4" opacity="0.75" r="4"/>
  <circle cx="460.25849252649095" cy="573.9130498971199" fill="#2ca02c" opacity="0.75" r="4"/>
  <circle cx="388.11632239387484" cy="458.1531440533468" fill="#2ca02c" opacity="0.75" r="4"/>
  <circle cx="328.93346300117435" cy="528.4306472262762" fill="#ff7f0e" opacity="0.75" r="4"/>
  <circle cx="392.59065631612935" cy="496.41315862465177" fill="#ff7f0e" opacity="0.75" r="4"/>
  <circle cx="314.7613228411642" cy="503.672010521272" fill="#1f77b4" opacity="0.75" r="4"/>
  <circle cx="350.3181097524269" cy="535.8356038050727" fill="#1f77b4" opacity="0.75" r="4"/>
  <circle cx="414.990899482708" cy="511.4018590640937" fill="#ff7f0e" opacity="0.75" r="4"/>
  <circle cx="409.17941570280306" cy="471.68090201737886" fill="#ff7f0e" opacity="0.75" r="4"/>
  <circle cx="330.442383953119" cy="523.67332639562" fill="#1f77b4" opacity="0.75" r="4"/>
  <circle cx="517.7827647393194" cy="518.4459637652815" fill="#2ca02c" opacity="0.75" r="4"/>
  <circle cx="413.0121762956484" cy="508.629479600145" fill="#2ca02c" opacity="0.75" r="4"/>
  <circle cx="402.0921947905334" cy="519.497485403206" fill="#ff7f0e" opacity="0.75" r="4"/>
  <circle cx="414.778372154865" cy="517.9137800272791" fill="#2ca02c" opacity="0.75" r="4"/>
  <circle cx="464.90221463613966" cy="545.2006263201594" fill="#ff7f0e" opacity="0.75" r="4"/>
  <circle cx="490.51756377283255" cy="513.3258197161865" fill="#ff7f0e" opacity="0.75" r="4"/>
  <circle cx="413.3605536651316" cy="459.29078671891625" fill="#2ca02c" opacity="0.75" r="4"/>
  <circle cx="346.1388090269967" cy="482.9352711493878" fill="#2ca02c" opacity="0.75" r="4"/>
  <circle cx="370.1382616434356" cy="594.5591667517756" fill="#1f77b4" opacity="0.75" r="4"/>
  <circle cx="419.7870707371964" cy="531.4053342351834" fill="#1f77b4" opacity="0.75" r="4"/>
  <circle cx="335.8315204460124" cy="510.4849621016301" fill="#1f77b4" opacity="0.75" r="4"/>
  <circle cx="433.71985445070806" cy="565.0889825137976" fill="#1f77b4" opacity="0.75" r="4"/>
  <circle cx="440.34487042172026" cy="554.8678060202232" fill="#ff7f0e" opacity="0.75" r="4"/>
  <circle cx="312.487687193827" cy="544.7698940415295" fill="#ff7f0e" opacity="0.75" r="4"/>
  <circle cx="418.80560834442633" cy="506.38317211661973" fill="#2ca02c" opacity="0.75" r="4"/>
  <circle cx="325.55790567948293" cy="453.9624100770415" fill="#1f77b4" opacity="0.75" r="4"/>
  <circle cx="529.9167469623818" cy="519.1397358929346" fill="#ff7f0e" opacity="0.75" r="4"/>
  <circle cx="380.3969297378977" cy="490.2926143132999" fill="#ff7f0e" opacity="0.75" r="4"/>
  <circle cx="425.5595348389511" cy="506.1855284362933" fill="#1f77b4" opacity="0.75" r="4"/>
  <circle cx="374.1261091467863" cy="498.4726627907431" fill="#2ca02c" opacity="0.75" r="4"/>
  <circle cx="412.1293111676795" cy="587.1582449266518" fill="#ff7f0e" opacity="0.75" r="4"/>
  <circle cx="247.24676754621925" cy="525.2691987190046" fill="#2ca02c" opacity="0.75" r="4"/>
  <circle cx="292.73333891731113" cy="505.26392687269134" fill="#ff7f0e" opacity="0.75" r="4"/>
  <circle cx="362.5579953696333" cy="483.50174984930146" fill="#2ca02c" opacity="0.75" r="4"/>
  <circle cx="488.95504745744125" cy="634.5549120493058" fill="#1f77b4" opacity="0.75" r="4"/>
  <circle cx="437.51811103276935" cy="529.4217040160964" fill="#1f77b4" opacity="0.75" r="4"/>
  <circle cx="473.05050976681156" cy="514.8480957333304" fill="#ff7f0e" opacity="0.75" r="4"/>
  <circle cx="605.884386877094" cy="501.6009299338691" fill="#1f77b4" opacity="0.75" r="4"/>
  <circle cx="378.51110726408547" cy="458.00116985285433" fill="#1f77b4" opacity="0.75" r="4"/>
  <circle cx="393.3357038220963" cy="522.4587917343583" fill="#2ca02c" opacity="0.75" r="4"/>
  <circle cx="322.0894012898234" cy="530.4200572330087" fill="#ff7f0e" opacity="0.75" r="4"/>
  <circle cx="453.0839861665114" cy="523.7771111648825" fill="#1f77b4" opacity="0.75" r="4"/>
  <circle cx="321.79076772987224" cy="479.119203752167" fill="#2ca02c" opacity="0.75" r="4"/>
  <circle cx="494.81433647292715" cy="427.0016792328235" fill="#ff7f0e" opacity="0.75" r="4"/>
  <circle cx="321.9056716352027" cy="518.1933099615466" fill="#2ca02c" opacity="0.75" r="4"/>
  <circle cx="476.01253001101543" cy="498.37054093751" fill="#ff7f0e" opacity="0.75" r="4"/>
  <circle cx="431.50993276969166" cy="505.1913567433097" fill="#2ca02c" opacity="0.75" r="4"/>
  <circle cx="378.1113557894282" cy="599.9024137969686" fill="#1f77b4" opacity="0.75" r="4"/>
  <circle cx="379.79528497343847" cy="460.30906979417426" fill="#ff7f0e" opacity="0.75" r="4"/>
  <circle cx="408.1271442498296" cy="609.4273610177468" fill="#2ca02c" opacity="0.75" r="4"/>
  <circle cx="296.33420566493766" cy="504.341032890283" fill="#ff7f0e" opacity="0.75" r="4"/>
  <circle cx="579.6514407535745" cy="399.61975379435705" fill="#ff7f0e" opacity="0.75" r="4"/>
  <circle cx="575.115061324131" cy="363.4342080835644" fill="#2ca02c" opacity="0.75" r="4"/>
  <circle cx="672.85706560599" cy="412.1909888120018" fill="#ff7f0e" opacity="0.75" r="4"/>
  <circle cx="716.4334153169049" cy="459.21005142189495" fill="#1f77b4" opacity="0.75" r="4"/>
  <circle cx="650.1326800618349" cy="407.6080141101985" fill="#ff7f0e" opacity="0.75" r="4"/>
  <circle cx="781.8150047654732" cy="399.1495776548099" fill="#1f77b4" opacity="0.75" r="4"/>
  <circle cx="665.3442038040394" cy="452.74712445523943" fill="#2ca02c" opacity="0.75" r="4"/>
  <circle cx="661.1259255509567" cy="387.4993516096804" fill="#1f77b4" opacity="0.75" r="4"/>
  <circle cx="635.3404444817781" cy="331.4665876553197" fill="#1f77b4" opacity="0.75" r="4"/>
  <circle cx="655.3271729159538" cy="431.270312172982" fill="#ff7f0e" opacity="0.75" r="4"/>
  <circle cx="718.5091087224174" cy="477.1700146874632" fill="#1f77b4" opacity="0.75" r="4"/>
  <circle cx="763.9379650757711" cy="547.1737301855694" fill="#2ca02c" opacity="0.75" r="4"/>
  <circle cx="550.1325631814233" cy="381.65349643684107" fill="#ff7f0e" opacity="0.75" r="4"/>
  <circle cx="638.4634127499828" cy="310.2313799058138" fill="#1f77b4" opacity="0.75" r="4"/>
  <circle cx="685.8984161543692" cy="521.9437563764134" fill="#1f77b4" opacity="0.75" r="4"/>
  <circle cx="535.4016791700003" cy="396.0662557746133" fill="#1f77b4" opacity="0.75" r="4"/>
  <circle cx="658.2309320841555" cy="379.2787533765508" fill="#1f77b4" opacity="0.75" r="4"/>
  <circle cx="643.3418925955583" cy="370.4508780124437" fill="#ff7f0e" opacity="0.75" r="4"/>
  <circle cx="725.9774495150125" cy="424.83422116476873" fill="#1f77b4" opacity="0.75" r="4"/>
  <circle cx="628.8766943298263" cy="420.10298724981715" fill="#2ca02c" opacity="0.75" r="4"/>
  <circle cx="584.2861780692643" cy="394.32337332976715" fill="#ff7f0e" opacity="0.75" r="4"/>
  <circle cx="758.0756179511426" cy="374.7743803000644" fill="#2ca02c" opacity="0.75" r="4"/>
  <circle cx="595.060635976221" cy="407.1087602594291" fill="#2ca02c" opacity="0.75" r="4"/>
  <circle cx="752.5242152824665" cy="555.3085808031412" fill="#ff7f0e" opacity="0.75" r="4"/>
  <circle cx="658.7581283669745" cy="396.1716862282552" fill="#2ca02c" opacity="0.75" r="4"/>
  <circle cx="733.2175088979328" cy="358.32819910060834" fill="#1f77b4" opacity="0.75" r="4"/>
  <circle cx="634.8431507463999" cy="369.4414942663435" fill="#2ca02c" opacity="0.75" r="4"/>
  <circle cx="733.2403232310662" cy="482.3960842137076" fill="#ff7f0e" opacity="0.75" r="4"/>
  <circle cx="511.85767989170466" cy="441.93617664120654" fill="#2ca02c" opacity="0.75" r="4"/>
  <circle cx="644.0493195417221" cy="488.2042794544113" fill="#ff7f0e" opacity="0.75" r="4"/>
  <circle cx="568.8059972743738" cy="381.5737964547277" fill="#1f77b4" opacity="0.75" r="4"/>
  <circle cx="779.3928269979182" cy="416.09594968917344" fill="#ff7f0e" opacity="0.75" r="4"/>
  <circle cx="688.1317175823435" cy="509.7388607534269" fill="#ff7f0e" opacity="0.75" r="4"/>
  <circle cx="602.2138994660274" cy="362.6526353152534" fill="#ff7f0e" opacity="0.75" r="4"/>
  <circle cx="669.0100660508587" cy="422.25505375886246" fill="#1f77b4" opacity="0.75" r="4"/>
  <circle cx="654.7769114391645" cy="376.7020707359319" fill="#1f77b4" opacity="0.75" r="4"/>
  <circle cx="604.6867491038504" cy="364.1120244848021" fill="#ff7f0e" opacity="0.75" r="4"/>
  <circle cx="580.1182976467891" cy="422.32457753622117" fill="#2ca02c" opacity="0.75" r="4"/>
  <circle cx="688.2794822030772" cy="419.64884551406976" fill="#1f77b4" opacity="0.75" r="4"/>
  <circle cx="650.4419187641199" cy="423.4976302906062" fill="#ff7f0e" opacity="0.75" r="4"/>
  <circle cx="685.2710820706808" cy="415.2449219623816" fill="#1f77b4" opacity="0.75" r="4"/>
  <circle cx="801.7928124836526" cy="438.87811622411766" fill="#ff7f0e" opacity="0.75" r="4"/>
  <circle cx="638.4605425755448" cy="345.4099441557521" fill="#ff7f0e" opacity="0.75" r="4"/>
  <circle cx="614.1124732240659" cy="381.2585474465932" fill="#2ca02c" opacity="0.75" r="4"/>
  <circle cx="756.3037820344331" cy="414.1879275406164" fill="#1f77b4" opacity="0.75" r="4"/>
  <circle cx="605.9359343501806" cy="429.36783085226455" fill="#1f77b4" opacity="0.75" r="4"/>
  <circle cx="709.8487501251108" cy="432.8340528725737" fill="#1f77b4" opacity="0.75" r="4"/>
  <circle cx="605.6087415081579" cy="438.6557265694111" fill="#1f77b4" opacity="0.75" r="4"/>
  <circle cx="454.33985702291403" cy="500.0685015701076" fill="#1f77b4" opacity="0.75" r="4"/>
  <circle cx="514.8378346664489" cy="422.67973803802863" fill="#1f77b4" opacity="0.75" r="4"/>
  <circle cx="634.6169764362686" cy="363.14881315567857" fill="#1f77b4" opacity="0.75" r="4"/>
  <circle cx="678.8788553772051" cy="425.0117157051834" fill="#1f77b4" opacity="0.75" r="4"/>
  <circle cx="784.5392238497138" cy="496.8406583412223" fill="#1f77b4" opacity="0.75" r="4"/>
  <circle cx="744.6000663937514" cy="397.23451767143337" fill="#2ca02c" opacity="0.75" r="4"/>
  <circle cx="647.7008530760429" cy="380.67970917092646" fill="#ff7f0e" opacity="0.75" r="4"/>
  <circle cx="507.92930261303195" cy="568.0282333416878" fill="#1f77b4" opacity="0.75" r="4"/>
  <circle cx="506.2053354670285" cy="557.7279563973258" fill="#ff7f0e" opacity="0.75" r="4"/>
  <circle cx="565.034449100297" cy="602.0283529004353" fill="#ff7f0e" opacity="0.75" r="4"/>
  <circle cx="542.6473551390986" cy="583.797994020458" fill="#2ca02c" opacity="0.75" r="4"/>
  <circle cx="421.79862210719284" cy="535.257762955767" fill="#1f77b4" opacity="0.75" r="4"/>
  <circle cx="497.0552487307901" cy="586.9902437243791" fill="#2ca02c" opacity="0.75" r="4"/>
  <circle cx="459.1831966841295" cy="571.5843709824728" fill="#ff7f0e" opacity="0.75" r="4"/>
  <circle cx="476.7866634570983" cy="600.2329640649376" fill="#2ca02c" opacity="0.75" r="4"/>
  <circle cx="491.2971928691949" cy="567.145971930061" fill="#ff7f0e" opacity="0.75" r="4"/>
  <circle cx="508.88721034439095" cy="639.7627619942346" fill="#1f77b4" opacity="0.75" r="4"/>
  <circle cx="599.0895920503442" cy="580.8938232824348" fill="#1f77b4" opacity="0.75" r="4"/>
  <circle cx="491.25353095512435" cy="597.2959363183381" fill="#2ca02c" opacity="0.75" r="4"/>
  <circle cx="535.4807746761094" cy="564.2647745525766" fill="#2ca02c" opacity="0.75" r="4"/>
  <circle cx="550.8409763429293" cy="628.2042262547204" fill="#2ca02c" opacity="0.75" r="4"/>
  <circle cx="575.1903177543068" cy="552.0903531680195" fill="#ff7f0e" opacity="0.75" r="4"/>
  <circle cx="533.095624137753" cy="564.2228307926111" fill="#ff7f0e" opacity="0.75" r="4"/>
  <circle cx="608.815379399723" cy="594.3851702437051" fill="#2ca02c" opacity="0.75" r="4"/>
  <circle cx="431.6878651774575" cy="655.7358949217755" fill="#2ca02c" opacity="0.75" r="4"/>
  <circle cx="594.953273718955" cy="613.2166292920713" fill="#2ca02c" opacity="0.75" r="4"/>
  <circle cx="574.7829160794333" cy="536.6798090586467" fill="#2ca02c" opacity="0.75" r="4"/>
  <circle cx="493.33186177004063" cy="604.585751488517" fill="#2ca02c" opacity="0.75" r="4"/>
  <circle cx="553.1180374110693" cy="605.3517547235417" fill="#ff7f0e" opacity="0.75" r="4"/>
  <circle cx="497.3841766777025" cy="597.5190967098972" fill="#ff7f0e" opacity="0.75" r="4"/>
  <circle cx="447.64425092068416" cy="577.4615536697953" fill="#ff7f0e" opacity="0.75" r="4"/>
  <circle cx="496.2897120746097" cy="561.7984454600005" fill="#ff7f0e" opacity="0.75" r="4"/>
  <circle cx="624.0589955863104" cy="530.947127098502" fill="#2ca02c" opacity="0.75" r="4"/>
  <circle cx="560.381863604018" cy="559.3453214331828" fill="#1f77b4" opacity="0.75" r="4"/>
  <circle cx="512.9005483792739" cy="505.4762586241815" fill="#ff7f0e" opacity="0.75" r="4"/>
  <circle cx="543.4021087885153" cy="569.2380950124954" fill="#2ca02c" opacity="0.75" r="4"/>
  <circle cx="441.4417054438964" cy="510.0029817912809" fill="#ff7f0e" opacity="0.75" r="4"/>
  <circle cx="601.1258313916226" cy="534.1952042069529" fill="#2ca02c" opacity="0.75" r="4"/>
  <circle cx="536.3441715112116" cy="521.0834028569726" fill="#2ca02c" opacity="0.75" r="4"/>
  <circle cx="512.7200028107095" cy="635.8113385705379" fill="#2ca02c" opacity="0.75" r="4"/>
  <circle cx="516.8225938642397" cy="618.3041857617606" fill="#1f77b4" opacity="0.75" r="4"/>
  <circle cx="542.5729493915183" cy="601.3864644437679" fill="#ff7f0e" opacity="0.75" r="4"/>
  <circle cx="450.9631797081733" cy="610.1737160489552" fill="#1f77b4" opacity="0.75" r="4"/>
  <circle cx="619.6948353489879" cy="533.5830831368382" fill="#ff7f0e" opacity="0.75" r="4"/>
  <circle cx="423.23836897428663" cy="584.4648397698686" fill="#ff7f0e" opacity="0.75" r="4"/>
  <circle cx="444.4844815313651" cy="609.6832393318384" fill="#1f77b4" opacity="0.75" r="4"/>
  <circle cx="638.2498479569483" cy="606.070583622716" fill="#ff7f0e" opacity="0.75" r="4"/>
  <circle cx="517.246662913539" cy="604.9719590649419" fill="#2ca02c" opacity="0.75" r="4"/>
  <circle cx="481.08775311847234" cy="613.4059024406083" fill="#1f77b4" opacity="0.75" r="4"/>
  <circle cx="550.8275052646477" cy="613.2398651404571" fill="#1f77b4" opacity="0.75" r="4"/>
  <circle cx="524.9452757514171" cy="551.2318043013208" fill="#2ca02c" opacity="0.75" r="4"/>
  <circle cx="516.2138809469395" cy="561.6123844739055" fill="#2ca02c" opacity="0.75" r="4"/>
  <circle cx="544.0155847450557" cy="640.4960698417306" fill="#1f77b4" opacity="0.75" r="4"/>
  <circle cx="495.8575628774501" cy="592.5515965994455" fill="#ff7f0e" opacity="0.75" r="4"/>
  <circle cx="537.3967017323325" cy="651.6423486253107" fill="#ff7f0e" opacity="0.75" r="4"/>
  <circle cx="563.533360666444" cy="621.3007426255274" fill="#2ca02c" opacity="0.75" r="4"/>
  <circle cx="481.763434114835" cy="604.426972910887" fill="#ff7f0e" opacity="0.75" r="4"/>
  <circle cx="431.0600367796519" cy="568.3155011039981" fill="#ff7f0e" opacity="0.75" r="4"/>
  <circle cx="485.730024734899" cy="569.6506409206963" fill="#2ca02c" opacity="0.75" r="4"/>
  <circle cx="557.1258662977061" cy="645.2911467326034" fill="#ff7f0e" opacity="0.75" r="4"/>
  <circle cx="557.2897340042157" cy="601.5219645414757" fill="#ff7f0e" opacity="0.75" r="4"/>
  <circle cx="373.31248067836077" cy="535.3732255060677" fill="#ff7f0e" opacity="0.75" r="4"/>
  <circle cx="914.0" cy="244.0" fill="#d62728" opacity="0.9" r="7"/>
  <text fill="#333" font-family="Arial, Helvetica, sans-serif" font-size="16" text-anchor="middle" x="570.0" y="765">Dimension 1</text>
  <text fill="#333" font-family="Arial, Helvetica, sans-serif" font-size="16" text-anchor="middle" transform="rotate(-90,85,440.0)" x="85" y="440.0">Dimension 2</text>
  <text fill="#999" font-family="Arial, Helvetica, sans-serif" font-size="12" text-anchor="end" x="1140" y="776">Auto-generated SVG</text>
</svg>
