<?xml version="1.0" encoding="utf-8" ?>
<svg xmlns="http://www.w3.org/2000/svg" xmlns:ev="http://www.w3.org/2001/xml-events" xmlns:xlink="http://www.w3.org/1999/xlink" baseProfile="full" height="800" version="1.1" width="1200">
  <defs>
    <marker id="id107" markerHeight="7" markerWidth="7" orient="auto" refX="6" refY="3">
      <path d="M0,0 L0,6 L6,3 z" fill="#333333"/>
    </marker>
  </defs>
  <rect fill="white" height="800" width="1200" x="0" y="0"/>
  <text fill="#111" font-family="Arial, Helvetica, sans-serif" font-size="28" font-weight="700" x="60" y="50">Figure 12.2: Population Structure as Shortcut (Four-Panel)</text>
  <text fill="#444" font-family="Arial, Helvetica, sans-serif" font-size="16" x="60" y="78">Panel A</text>
  <line stroke="#333" stroke-width="2" x1="140" x2="1000" y1="720" y2="720"/>
  <line stroke="#333" stroke-width="2" x1="140" x2="140" y1="160" y2="720"/>
  <circle cx="385.4832130549031" cy="548.107292910634" fill="#2ca02c" opacity="0.75" r="4"/>
  <circle cx="322.0735988573581" cy="553.4666413752695" fill="#2ca02c" opacity="0.75" r="4"/>
  <circle cx="409.5444388734646" cy="578.3036466742801" fill="#1f77b4" opacity="0.75" r="4"/>
  <circle cx="377.5835350014992" cy="540.8208609386527" fill="#1f77b4" opacity="0.75" r="4"/>
  <circle cx="420.2177555296208" cy="474.1795223112811" fill="#1f77b4" opacity="0.75" r="4"/>
  <circle cx="407.50555330943405" cy="552.4455856398032" fill="#1f77b4" opacity="0.75" r="4"/>
  <circle cx="423.21260608701033" cy="546.3466923977" fill="#ff7f0e" opacity="0.75" r="4"/>
  <circle cx="313.4543242924583" cy="579.3077378879058" fill="#ff7f0e" opacity="0.75" r="4"/>
  <circle cx="438.52716174868374" cy="451.0589876828916" fill="#1f77b4" opacity="0.75" r="4"/>
  <circle cx="384.0950041707406" cy="506.4852149061661" fill="#ff7f0e" opacity="0.75" r="4"/>
  <circle cx="446.38119156392736" cy="507.4013877465508" fill="#1f77b4" opacity="0.75" r="4"/>
  <circle cx="406.1692918891376" cy="517.5334378528315" fill="#1f77b4" opacity="0.75" r="4"/>
  <circle cx="458.5493199498328" cy="515.7419854160547" fill="#2ca02c" opacity="0.75" r="4"/>
  <circle cx="419.0234098989366" cy="511.9483354859174" fill="#ff7f0e" opacity="0.75" r="4"/>
  <circle cx="418.3739907770157" cy="529.5079315483233" fill="#2ca02c" opacity="0.75" r="4"/>
  <circle cx="364.84362113906883" cy="523.8373497193636" fill="#ff7f0e" opacity="0.75" r="4"/>
  <circle cx="339.8288537694462" cy="468.6096909407698" fill="#ff7f0e" opacity="0.75" r="4"/>
  <circle cx="428.09928366705856" cy="528.6282311472562" fill="#ff7f0e" opacity="0.75" r="4"/>
  <circle cx="364.0389927738652" cy="460.9488863931061" fill="#ff7f0e" opacity="0.75" r="4"/>
  <circle cx="419.95226712632586" cy="493.860303830026" fill="#2ca02c" opacity="0.75" r="4"/>
  <circle cx="341.3173742842265" cy="507.4766164223154" fill="#ff7f0e" opacity="0.75" r="4"/>
  <circle cx="369.2939499250199" cy="565.4733542150474" fill="#1f77b4" opacity="0.75" r="4"/>
  <circle cx="451.8294893650266" cy="525.8985971019447" fill="#ff7f0e" opacity="0.75" r="4"/>
  <circle cx="405.2626977805951" cy="483.11218147777214" fill="#ff7f0e" opacity="0.75" r="4"/>
  <circle cx="450.6894440475386" cy="476.20946160914673" fill="#1f77b4" opacity="0.75" r="4"/>
  <circle cx="420.66545850388025" cy="527.1889445898705" fill="#1f77b4" opacity="0.75" r="4"/>
  <circle cx="391.41258799044306" cy="497.397827230307" fill="#1f77b4" opacity="0.75" r="4"/>
  <circle cx="449.21648655414293" cy="494.83392365614117" fill="#ff7f0e" opacity="0.75" r="4"/>
  <circle cx="483.0356884096653" cy="556.1473825722313" fill="#1f77b4" opacity="0.75" r="4"/>
  <circle cx="503.65123137913804" cy="450.2491870337209" fill="#1f77b4" opacity="0.75" r="4"/>
  <circle cx="381.8451750588216" cy="500.7238435023096" fill="#2ca02c" opacity="0.75" r="4"/>
  <circle cx="426.35551958495466" cy="586.5713434114277" fill="#1f77b4" opacity="0.75" r="4"/>
  <circle cx="360.53165817910116" cy="516.823630833079" fill="#ff7f0e" opacity="0.75" r="4"/>
  <circle cx="353.3084192344562" cy="520.6109635861594" fill="#1f77b4" opacity="0.75" r="4"/>
  <circle cx="507.8291543192404" cy="608.060210163084" fill="#2ca02c" opacity="0.75" r="4"/>
  <circle cx="415.21715002974827" cy="436.83781176285083" fill="#ff7f0e" opacity="0.75" r="4"/>
  <circle cx="478.57193204890416" cy="481.6992356860333" fill="#1f77b4" opacity="0.75" r="4"/>
  <circle cx="334.63468371332027" cy="549.457803596396" fill="#ff7f0e" opacity="0.75" r="4"/>
  <circle cx="448.9356373361926" cy="495.0592359307483" fill="#2ca02c" opacity="0.75" r="4"/>
  <circle cx="367.0727373436649" cy="552.9844878250124" fill="#1f77b4" opacity="0.75" r="4"/>
  <circle cx="489.30915228371333" cy="563.827025783508" fill="#1f77b4" opacity="0.75" r="4"/>
  <circle cx="368.03799772517755" cy="423.2605762544514" fill="#2ca02c" opacity="0.75" r="4"/>
  <circle cx="329.3158403550363" cy="558.0835469902306" fill="#2ca02c" opacity="0.75" r="4"/>
  <circle cx="340.78705737691746" cy="468.68354334813665" fill="#2ca02c" opacity="0.75" r="4"/>
  <circle cx="405.8142228374041" cy="576.0724906782827" fill="#ff7f0e" opacity="0.75" r="4"/>
  <circle cx="533.1120804305413" cy="448.9377228286422" fill="#1f77b4" opacity="0.75" r="4"/>
  <circle cx="409.9919557786767" cy="505.33396344411244" fill="#ff7f0e" opacity="0.75" r="4"/>
  <circle cx="406.97059269987096" cy="533.9515086064139" fill="#2ca02c" opacity="0.75" r="4"/>
  <circle cx="400.5342420392973" cy="592.6470227750706" fill="#2ca02c" opacity="0.75" r="4"/>
  <circle cx="440.19925054354496" cy="583.54936996588" fill="#2ca02c" opacity="0.75" r="4"/>
  <circle cx="369.8606917268598" cy="484.3427442168378" fill="#2ca02c" opacity="0.75" r="4"/>
  <circle cx="425.67639070068753" cy="549.288493266443" fill="#2ca02c" opacity="0.75" r="4"/>
  <circle cx="340.09078083878114" cy="498.09124789504807" fill="#2ca02c" opacity="0.75" r="4"/>
  <circle cx="482.9382488713855" cy="492.9447425090012" fill="#1f77b4" opacity="0.75" r="4"/>
  <circle cx="265.84809301881205" cy="567.0800116499827" fill="#ff7f0e" opacity="0.75" r="4"/>
  <circle cx="714.360919163727" cy="429.95128903100317" fill="#ff7f0e" opacity="0.75" r="4"/>
  <circle cx="660.7574853451317" cy="480.7671001171595" fill="#1f77b4" opacity="0.75" r="4"/>
  <circle cx="749.9662833800263" cy="498.6306396965342" fill="#1f77b4" opacity="0.75" r="4"/>
  <circle cx="727.2154663514882" cy="329.51369554828244" fill="#ff7f0e" opacity="0.75" r="4"/>
  <circle cx="656.5041738010682" cy="328.74331356669416" fill="#2ca02c" opacity="0.75" r="4"/>
  <circle cx="697.1823413332869" cy="391.5225042140603" fill="#2ca02c" opacity="0.75" r="4"/>
  <circle cx="460.85387657842136" cy="455.3697276661308" fill="#2ca02c" opacity="0.75" r="4"/>
  <circle cx="475.5727079929672" cy="473.0908862255756" fill="#2ca02c" opacity="0.75" r="4"/>
  <circle cx="696.0593203680651" cy="414.2030282928048" fill="#ff7f0e" opacity="0.75" r="4"/>
  <circle cx="579.5692980188564" cy="391.23013851093486" fill="#2ca02c" opacity="0.75" r="4"/>
  <circle cx="730.1424247429159" cy="455.19479320830106" fill="#ff7f0e" opacity="0.75" r="4"/>
  <circle cx="524.3987655460468" cy="410.74059892610165" fill="#2ca02c" opacity="0.75" r="4"/>
  <circle cx="573.177964593577" cy="338.0268894100327" fill="#2ca02c" opacity="0.75" r="4"/>
  <circle cx="630.1087173572248" cy="385.0377938214675" fill="#ff7f0e" opacity="0.75" r="4"/>
  <circle cx="636.101874796182" cy="433.9121807060792" fill="#1f77b4" opacity="0.75" r="4"/>
  <circle cx="616.7393591187056" cy="263.76319816790624" fill="#ff7f0e" opacity="0.75" r="4"/>
  <circle cx="739.8819278583009" cy="443.7452671445835" fill="#2ca02c" opacity="0.75" r="4"/>
  <circle cx="572.3241562398919" cy="422.55292128558006" fill="#ff7f0e" opacity="0.75" r="4"/>
  <circle cx="649.2986418849564" cy="423.12484194896086" fill="#1f77b4" opacity="0.75" r="4"/>
  <circle cx="715.2047482434317" cy="368.36344092263124" fill="#2ca02c" opacity="0.75" r="4"/>
  <circle cx="627.549553621519" cy="472.83788740073845" fill="#1f77b4" opacity="0.75" r="4"/>
  <circle cx="782.2236347502446" cy="487.8258858308953" fill="#ff7f0e" opacity="0.75" r="4"/>
  <circle cx="767.3023248646854" cy="531.8933030446481" fill="#2ca02c" opacity="0.75" r="4"/>
  <circle cx="635.4824925779454" cy="418.67583968409014" fill="#1f77b4" opacity="0.75" r="4"/>
  <circle cx="579.4045453060714" cy="332.04453324073995" fill="#ff7f0e" opacity="0.75" r="4"/>
  <circle cx="623.4529287767756" cy="448.2730671317009" fill="#ff7f0e" opacity="0.75" r="4"/>
  <circle cx="785.2153383038353" cy="442.91771595496556" fill="#2ca02c" opacity="0.75" r="4"/>
  <circle cx="642.8060356553549" cy="474.53815758414487" fill="#1f77b4" opacity="0.75" r="4"/>
  <circle cx="699.8946439591313" cy="400.2340812136193" fill="#ff7f0e" opacity="0.75" r="4"/>
  <circle cx="618.5766889619733" cy="405.70631119079644" fill="#1f77b4" opacity="0.75" r="4"/>
  <circle cx="740.0987098977805" cy="342.5290535187698" fill="#1f77b4" opacity="0.75" r="4"/>
  <circle cx="683.1625092253516" cy="350.02682671516175" fill="#1f77b4" opacity="0.75" r="4"/>
  <circle cx="598.3208441385516" cy="411.66756810356344" fill="#ff7f0e" opacity="0.75" r="4"/>
  <circle cx="642.2957385013644" cy="356.2869628362449" fill="#2ca02c" opacity="0.75" r="4"/>
  <circle cx="671.7570394590025" cy="436.1027235219181" fill="#ff7f0e" opacity="0.75" r="4"/>
  <circle cx="527.1504277541519" cy="570.5591581041731" fill="#ff7f0e" opacity="0.75" r="4"/>
  <circle cx="699.1873452434382" cy="378.57914200728055" fill="#ff7f0e" opacity="0.75" r="4"/>
  <circle cx="623.6700994905318" cy="364.6465862707503" fill="#ff7f0e" opacity="0.75" r="4"/>
  <circle cx="665.7916080373168" cy="395.69475119088366" fill="#2ca02c" opacity="0.75" r="4"/>
  <circle cx="674.0903645956918" cy="455.23813958508987" fill="#2ca02c" opacity="0.75" r="4"/>
  <circle cx="724.0003569512988" cy="483.9185064779781" fill="#1f77b4" opacity="0.75" r="4"/>
  <circle cx="634.0160469996799" cy="478.86744010767393" fill="#2ca02c" opacity="0.75" r="4"/>
  <circle cx="543.391852907198" cy="379.53598222651294" fill="#1f77b4" opacity="0.75" r="4"/>
  <circle cx="626.2192018490471" cy="366.9012404510486" fill="#1f77b4" opacity="0.75" r="4"/>
  <circle cx="708.2961677591287" cy="395.6321654188397" fill="#ff7f0e" opacity="0.75" r="4"/>
  <circle cx="818.057262623348" cy="449.9221759274643" fill="#1f77b4" opacity="0.75" r="4"/>
  <circle cx="547.1770712874429" cy="388.21853855739846" fill="#1f77b4" opacity="0.75" r="4"/>
  <circle cx="787.3865987631166" cy="461.3917789089815" fill="#1f77b4" opacity="0.75" r="4"/>
  <circle cx="625.0384495251772" cy="429.37586393504927" fill="#2ca02c" opacity="0.75" r="4"/>
  <circle cx="630.7401078374266" cy="469.68294063510564" fill="#1f77b4" opacity="0.75" r="4"/>
  <circle cx="646.0404332821247" cy="360.31242405547334" fill="#2ca02c" opacity="0.75" r="4"/>
  <circle cx="670.1716504591776" cy="413.2771472799941" fill="#ff7f0e" opacity="0.75" r="4"/>
  <circle cx="661.1428511467323" cy="383.9547366582516" fill="#2ca02c" opacity="0.75" r="4"/>
  <circle cx="675.5130494800457" cy="401.3334539855258" fill="#1f77b4" opacity="0.75" r="4"/>
  <circle cx="583.1697186583013" cy="364.45015487816227" fill="#1f77b4" opacity="0.75" r="4"/>
  <circle cx="595.18556722437" cy="601.9632828496785" fill="#1f77b4" opacity="0.75" r="4"/>
  <circle cx="438.71330474275095" cy="484.6346460507779" fill="#2ca02c" opacity="0.75" r="4"/>
  <circle cx="689.5198288906278" cy="559.6704169012351" fill="#2ca02c" opacity="0.75" r="4"/>
  <circle cx="406.24421737776436" cy="615.4277596932997" fill="#1f77b4" opacity="0.75" r="4"/>
  <circle cx="546.471228264839" cy="583.042724667851" fill="#ff7f0e" opacity="0.75" r="4"/>
  <circle cx="475.1405752683534" cy="611.1555919159398" fill="#1f77b4" opacity="0.75" r="4"/>
  <circle cx="521.8943877284137" cy="558.7014167730651" fill="#ff7f0e" opacity="0.75" r="4"/>
  <circle cx="610.0422025900859" cy="575.3148508875611" fill="#1f77b4" opacity="0.75" r="4"/>
  <circle cx="613.7826973217856" cy="619.7172745236317" fill="#ff7f0e" opacity="0.75" r="4"/>
  <circle cx="518.06987168759" cy="597.6746463994398" fill="#ff7f0e" opacity="0.75" r="4"/>
  <circle cx="561.77733952602" cy="538.6881930309182" fill="#2ca02c" opacity="0.75" r="4"/>
  <circle cx="568.2179989802842" cy="561.3751101210862" fill="#1f77b4" opacity="0.75" r="4"/>
  <circle cx="555.6962941686761" cy="582.8767840781966" fill="#2ca02c" opacity="0.75" r="4"/>
  <circle cx="552.5120347161335" cy="531.600998592427" fill="#ff7f0e" opacity="0.75" r="4"/>
  <circle cx="589.9999532819104" cy="625.1377098553443" fill="#2ca02c" opacity="0.75" r="4"/>
  <circle cx="536.8577450733801" cy="610.1742414428992" fill="#2ca02c" opacity="0.75" r="4"/>
  <circle cx="493.3879082124374" cy="575.1794354968895" fill="#2ca02c" opacity="0.75" r="4"/>
  <circle cx="659.3881345750168" cy="593.8609609971917" fill="#2ca02c" opacity="0.75" r="4"/>
  <circle cx="604.219928308968" cy="554.2512028826059" fill="#2ca02c" opacity="0.75" r="4"/>
  <circle cx="499.4533881205112" cy="572.6909840938786" fill="#ff7f0e" opacity="0.75" r="4"/>
  <circle cx="583.7678947383135" cy="612.7677879746752" fill="#1f77b4" opacity="0.75" r="4"/>
  <circle cx="542.0476316742445" cy="554.2024081984944" fill="#1f77b4" opacity="0.75" r="4"/>
  <circle cx="427.39230738743146" cy="591.8911513598259" fill="#2ca02c" opacity="0.75" r="4"/>
  <circle cx="453.5687367825738" cy="563.2394081918942" fill="#ff7f0e" opacity="0.75" r="4"/>
  <circle cx="363.51187393541693" cy="612.2362992595865" fill="#1f77b4" opacity="0.75" r="4"/>
  <circle cx="521.7559915532427" cy="538.4960996432319" fill="#1f77b4" opacity="0.75" r="4"/>
  <circle cx="474.7930297310516" cy="550.0918736811045" fill="#ff7f0e" opacity="0.75" r="4"/>
  <circle cx="543.6179123263771" cy="550.1183484025362" fill="#1f77b4" opacity="0.75" r="4"/>
  <circle cx="592.928007834073" cy="706.8025502811957" fill="#ff7f0e" opacity="0.75" r="4"/>
  <circle cx="537.2004748996419" cy="610.3180817560253" fill="#2ca02c" opacity="0.75" r="4"/>
  <circle cx="504.1495276266523" cy="592.3984497694964" fill="#ff7f0e" opacity="0.75" r="4"/>
  <circle cx="522.4151610308535" cy="612.6185090145374" fill="#2ca02c" opacity="0.75" r="4"/>
  <circle cx="577.2407660072876" cy="578.7495914326526" fill="#1f77b4" opacity="0.75" r="4"/>
  <circle cx="536.1108116352871" cy="581.6306005760345" fill="#2ca02c" opacity="0.75" r="4"/>
  <circle cx="638.4408755832105" cy="631.5041792364007" fill="#1f77b4" opacity="0.75" r="4"/>
  <circle cx="539.3606900235586" cy="560.22576665132" fill="#2ca02c" opacity="0.75" r="4"/>
  <circle cx="562.0156650215944" cy="519.9883418937002" fill="#2ca02c" opacity="0.75" r="4"/>
  <circle cx="450.12755262444205" cy="595.9207954140012" fill="#2ca02c" opacity="0.75" r="4"/>
  <circle cx="466.58263307257414" cy="504.9394557975599" fill="#2ca02c" opacity="0.75" r="4"/>
  <circle cx="551.9451177402539" cy="511.19380553960514" fill="#ff7f0e" opacity="0.75" r="4"/>
  <circle cx="493.36192567730205" cy="543.3290493712184" fill="#ff7f0e" opacity="0.75" r="4"/>
  <circle cx="585.3141936115007" cy="526.7341041139207" fill="#ff7f0e" opacity="0.75" r="4"/>
  <circle cx="542.2665747433582" cy="609.5287636038823" fill="#1f77b4" opacity="0.75" r="4"/>
  <circle cx="549.592656360898" cy="575.4562617610528" fill="#2ca02c" opacity="0.75" r="4"/>
  <circle cx="507.60193665097745" cy="623.49611622687" fill="#1f77b4" opacity="0.75" r="4"/>
  <circle cx="560.6171343701417" cy="549.1363563887853" fill="#1f77b4" opacity="0.75" r="4"/>
  <circle cx="542.8027875107466" cy="513.199279317841" fill="#2ca02c" opacity="0.75" r="4"/>
  <circle cx="526.811976433921" cy="600.9416878952622" fill="#1f77b4" opacity="0.75" r="4"/>
  <circle cx="469.2079808623161" cy="514.025019694719" fill="#ff7f0e" opacity="0.75" r="4"/>
  <circle cx="569.7751643237991" cy="660.631060962899" fill="#ff7f0e" opacity="0.75" r="4"/>
  <circle cx="588.4635751060562" cy="582.4301321851265" fill="#1f77b4" opacity="0.75" r="4"/>
  <circle cx="487.15449187764807" cy="520.2689062312509" fill="#ff7f0e" opacity="0.75" r="4"/>
  <circle cx="576.7596206624426" cy="610.6141738736287" fill="#2ca02c" opacity="0.75" r="4"/>
  <circle cx="534.7529335389331" cy="620.5299447277981" fill="#1f77b4" opacity="0.75" r="4"/>
  <circle cx="495.8198852109808" cy="693.2864428047698" fill="#1f77b4" opacity="0.75" r="4"/>
  <circle cx="914.0" cy="244.0" fill="#d62728" opacity="0.9" r="7"/>
  <text fill="#333" font-family="Arial, Helvetica, sans-serif" font-size="16" text-anchor="middle" x="570.0" y="765">Dimension 1</text>
  <text fill="#333" font-family="Arial, Helvetica, sans-serif" font-size="16" text-anchor="middle" transform="rotate(-90,85,440.0)" x="85" y="440.0">Dimension 2</text>
  <text fill="#999" font-family="Arial, Helvetica, sans-serif" font-size="12" text-anchor="end" x="1140" y="776">Auto-generated SVG</text>
</svg>
