<?xml version="1.0" encoding="utf-8" ?>
<svg xmlns="http://www.w3.org/2000/svg" xmlns:ev="http://www.w3.org/2001/xml-events" xmlns:xlink="http://www.w3.org/1999/xlink" baseProfile="full" height="800" version="1.1" width="1200">
  <defs>
    <marker id="id110" markerHeight="7" markerWidth="7" orient="auto" refX="6" refY="3">
      <path d="M0,0 L0,6 L6,3 z" fill="#333333"/>
    </marker>
  </defs>
  <rect fill="white" height="800" width="1200" x="0" y="0"/>
  <text fill="#111" font-family="Arial, Helvetica, sans-serif" font-size="28" font-weight="700" x="60" y="50">Figure 12.2: Population Structure as Shortcut (Four-Panel)</text>
  <text fill="#444" font-family="Arial, Helvetica, sans-serif" font-size="16" x="60" y="78">Panel D</text>
  <line stroke="#333" stroke-width="2" x1="140" x2="1040" y1="690" y2="690"/>
  <line stroke="#333" stroke-width="2" x1="140" x2="140" y1="170" y2="690"/>
  <rect fill="#1f77b4" height="95.47580374021443" stroke="white" stroke-width="1" width="120.0" x="200.0" y="594.5241962597855"/>
  <rect fill="#ff7f0e" height="108.76525525774906" stroke="white" stroke-width="1" width="120.0" x="200.0" y="485.75894100203647"/>
  <rect fill="#2ca02c" height="109.78626263653241" stroke="white" stroke-width="1" width="120.0" x="200.0" y="375.97267836550407"/>
  <rect fill="#9467bd" height="91.585919020045" stroke="white" stroke-width="1" width="120.0" x="200.0" y="284.38675934545904"/>
  <rect fill="#8c564b" height="114.38675934545907" stroke="white" stroke-width="1" width="120.0" x="200.0" y="169.99999999999997"/>
  <text fill="#333" font-family="Arial, Helvetica, sans-serif" font-size="14" text-anchor="middle" x="260.0" y="720">Resource 1</text>
  <rect fill="#1f77b4" height="93.83933187119564" stroke="white" stroke-width="1" width="120.0" x="380.0" y="596.1606681288043"/>
  <rect fill="#ff7f0e" height="136.1033918158871" stroke="white" stroke-width="1" width="120.0" x="380.0" y="460.0572763129172"/>
  <rect fill="#2ca02c" height="94.66048832958522" stroke="white" stroke-width="1" width="120.0" x="380.0" y="365.396787983332"/>
  <rect fill="#9467bd" height="135.60190513312472" stroke="white" stroke-width="1" width="120.0" x="380.0" y="229.79488285020727"/>
  <rect fill="#8c564b" height="59.79488285020734" stroke="white" stroke-width="1" width="120.0" x="380.0" y="169.99999999999994"/>
  <text fill="#333" font-family="Arial, Helvetica, sans-serif" font-size="14" text-anchor="middle" x="440.0" y="720">Resource 2</text>
  <rect fill="#1f77b4" height="153.2558750482245" stroke="white" stroke-width="1" width="120.0" x="560.0" y="536.7441249517755"/>
  <rect fill="#ff7f0e" height="102.1159943350614" stroke="white" stroke-width="1" width="120.0" x="560.0" y="434.6281306167141"/>
  <rect fill="#2ca02c" height="70.75228216435119" stroke="white" stroke-width="1" width="120.0" x="560.0" y="363.8758484523629"/>
  <rect fill="#9467bd" height="71.28741684721653" stroke="white" stroke-width="1" width="120.0" x="560.0" y="292.58843160514635"/>
  <rect fill="#8c564b" height="122.58843160514644" stroke="white" stroke-width="1" width="120.0" x="560.0" y="169.99999999999991"/>
  <text fill="#333" font-family="Arial, Helvetica, sans-serif" font-size="14" text-anchor="middle" x="620.0" y="720">Resource 3</text>
  <rect fill="#1f77b4" height="114.23791565949124" stroke="white" stroke-width="1" width="120.0" x="740.0" y="575.7620843405087"/>
  <rect fill="#ff7f0e" height="108.14591582496348" stroke="white" stroke-width="1" width="120.0" x="740.0" y="467.61616851554527"/>
  <rect fill="#2ca02c" height="103.35699903045428" stroke="white" stroke-width="1" width="120.0" x="740.0" y="364.259169485091"/>
  <rect fill="#9467bd" height="120.35067207531651" stroke="white" stroke-width="1" width="120.0" x="740.0" y="243.90849740977447"/>
  <rect fill="#8c564b" height="73.90849740977454" stroke="white" stroke-width="1" width="120.0" x="740.0" y="169.99999999999994"/>
  <text fill="#333" font-family="Arial, Helvetica, sans-serif" font-size="14" text-anchor="middle" x="800.0" y="720">Resource 4</text>
  <rect fill="#1f77b4" height="150.8544032023452" stroke="white" stroke-width="1" width="120.0" x="920.0" y="539.1455967976548"/>
  <rect fill="#ff7f0e" height="94.51381019550789" stroke="white" stroke-width="1" width="120.0" x="920.0" y="444.6317866021469"/>
  <rect fill="#2ca02c" height="94.85846894211465" stroke="white" stroke-width="1" width="120.0" x="920.0" y="349.77331766003226"/>
  <rect fill="#9467bd" height="62.592970733700696" stroke="white" stroke-width="1" width="120.0" x="920.0" y="287.1803469263316"/>
  <rect fill="#8c564b" height="117.18034692633162" stroke="white" stroke-width="1" width="120.0" x="920.0" y="169.99999999999997"/>
  <text fill="#333" font-family="Arial, Helvetica, sans-serif" font-size="14" text-anchor="middle" x="980.0" y="720">Resource 5</text>
  <rect fill="#1f77b4" height="18" stroke="none" width="18" x="1070" y="176"/>
  <text fill="#333" font-family="Arial, Helvetica, sans-serif" font-size="14" x="1096" y="190">Group 1</text>
  <rect fill="#ff7f0e" height="18" stroke="none" width="18" x="1070" y="202"/>
  <text fill="#333" font-family="Arial, Helvetica, sans-serif" font-size="14" x="1096" y="216">Group 2</text>
  <rect fill="#2ca02c" height="18" stroke="none" width="18" x="1070" y="228"/>
  <text fill="#333" font-family="Arial, Helvetica, sans-serif" font-size="14" x="1096" y="242">Group 3</text>
  <rect fill="#9467bd" height="18" stroke="none" width="18" x="1070" y="254"/>
  <text fill="#333" font-family="Arial, Helvetica, sans-serif" font-size="14" x="1096" y="268">Group 4</text>
  <rect fill="#8c564b" height="18" stroke="none" width="18" x="1070" y="280"/>
  <text fill="#333" font-family="Arial, Helvetica, sans-serif" font-size="14" x="1096" y="294">Other</text>
  <text fill="#999" font-family="Arial, Helvetica, sans-serif" font-size="12" text-anchor="end" x="1140" y="776">Auto-generated SVG</text>
</svg>
