<?xml version="1.0" encoding="UTF-8" standalone="no"?>
<!DOCTYPE svg PUBLIC "-//W3C//DTD SVG 1.1//EN"
 "http://www.w3.org/Graphics/SVG/1.1/DTD/svg11.dtd">
<!-- Generated by graphviz version 2.43.0 (0)
 -->
<!-- Title: taskspecific Pages: 1 -->
<svg width="432pt" height="232pt"
 viewBox="0.00 0.00 432.00 232.38" xmlns="http://www.w3.org/2000/svg" xmlns:xlink="http://www.w3.org/1999/xlink">
<g id="graph0" class="graph" transform="scale(1.24 1.24) rotate(0) translate(4 184)">
<title>taskspecific</title>
<polygon fill="white" stroke="transparent" points="-4,4 -4,-184 345.5,-184 345.5,4 -4,4"/>
<!-- data1 -->
<g id="node1" class="node">
<title>data1</title>
<path fill="#aec7e8" stroke="black" stroke-width="1.5" d="M46,-180C46,-180 15,-180 15,-180 9,-180 3,-174 3,-168 3,-168 3,-156 3,-156 3,-150 9,-144 15,-144 15,-144 46,-144 46,-144 52,-144 58,-150 58,-156 58,-156 58,-168 58,-168 58,-174 52,-180 46,-180"/>
<text text-anchor="middle" x="30.5" y="-164.8" font-family="Arial" font-size="9.00">ChIP&#45;seq</text>
<text text-anchor="middle" x="30.5" y="-154.8" font-family="Arial" font-size="9.00">Data</text>
</g>
<!-- model1 -->
<g id="node4" class="node">
<title>model1</title>
<path fill="#d62728" stroke="black" stroke-width="1.5" d="M49,-108C49,-108 12,-108 12,-108 6,-108 0,-102 0,-96 0,-96 0,-84 0,-84 0,-78 6,-72 12,-72 12,-72 49,-72 49,-72 55,-72 61,-78 61,-84 61,-84 61,-96 61,-96 61,-102 55,-108 49,-108"/>
<text text-anchor="middle" x="30.5" y="-92.8" font-family="Arial" font-size="9.00" fill="white">TF Binding</text>
<text text-anchor="middle" x="30.5" y="-82.8" font-family="Arial" font-size="9.00" fill="white">Model</text>
</g>
<!-- data1&#45;&gt;model1 -->
<g id="edge1" class="edge">
<title>data1&#45;&gt;model1</title>
<path fill="none" stroke="black" d="M30.5,-143.7C30.5,-135.98 30.5,-126.71 30.5,-118.11"/>
<polygon fill="black" stroke="black" points="34,-118.1 30.5,-108.1 27,-118.1 34,-118.1"/>
</g>
<!-- data2 -->
<g id="node2" class="node">
<title>data2</title>
<path fill="#aec7e8" stroke="black" stroke-width="1.5" d="M224.5,-180C224.5,-180 194.5,-180 194.5,-180 188.5,-180 182.5,-174 182.5,-168 182.5,-168 182.5,-156 182.5,-156 182.5,-150 188.5,-144 194.5,-144 194.5,-144 224.5,-144 224.5,-144 230.5,-144 236.5,-150 236.5,-156 236.5,-156 236.5,-168 236.5,-168 236.5,-174 230.5,-180 224.5,-180"/>
<text text-anchor="middle" x="209.5" y="-164.8" font-family="Arial" font-size="9.00">RNA&#45;seq</text>
<text text-anchor="middle" x="209.5" y="-154.8" font-family="Arial" font-size="9.00">Data</text>
</g>
<!-- model2 -->
<g id="node5" class="node">
<title>model2</title>
<path fill="#d62728" stroke="black" stroke-width="1.5" d="M228.5,-108C228.5,-108 190.5,-108 190.5,-108 184.5,-108 178.5,-102 178.5,-96 178.5,-96 178.5,-84 178.5,-84 178.5,-78 184.5,-72 190.5,-72 190.5,-72 228.5,-72 228.5,-72 234.5,-72 240.5,-78 240.5,-84 240.5,-84 240.5,-96 240.5,-96 240.5,-102 234.5,-108 228.5,-108"/>
<text text-anchor="middle" x="209.5" y="-92.8" font-family="Arial" font-size="9.00" fill="white">Expression</text>
<text text-anchor="middle" x="209.5" y="-82.8" font-family="Arial" font-size="9.00" fill="white">Model</text>
</g>
<!-- data2&#45;&gt;model2 -->
<g id="edge2" class="edge">
<title>data2&#45;&gt;model2</title>
<path fill="none" stroke="black" d="M209.5,-143.7C209.5,-135.98 209.5,-126.71 209.5,-118.11"/>
<polygon fill="black" stroke="black" points="213,-118.1 209.5,-108.1 206,-118.1 213,-118.1"/>
</g>
<!-- data3 -->
<g id="node3" class="node">
<title>data3</title>
<path fill="#aec7e8" stroke="black" stroke-width="1.5" d="M327.5,-180C327.5,-180 297.5,-180 297.5,-180 291.5,-180 285.5,-174 285.5,-168 285.5,-168 285.5,-156 285.5,-156 285.5,-150 291.5,-144 297.5,-144 297.5,-144 327.5,-144 327.5,-144 333.5,-144 339.5,-150 339.5,-156 339.5,-156 339.5,-168 339.5,-168 339.5,-174 333.5,-180 327.5,-180"/>
<text text-anchor="middle" x="312.5" y="-164.8" font-family="Arial" font-size="9.00">Splice</text>
<text text-anchor="middle" x="312.5" y="-154.8" font-family="Arial" font-size="9.00">Data</text>
</g>
<!-- model3 -->
<g id="node6" class="node">
<title>model3</title>
<path fill="#d62728" stroke="black" stroke-width="1.5" d="M327.5,-108C327.5,-108 297.5,-108 297.5,-108 291.5,-108 285.5,-102 285.5,-96 285.5,-96 285.5,-84 285.5,-84 285.5,-78 291.5,-72 297.5,-72 297.5,-72 327.5,-72 327.5,-72 333.5,-72 339.5,-78 339.5,-84 339.5,-84 339.5,-96 339.5,-96 339.5,-102 333.5,-108 327.5,-108"/>
<text text-anchor="middle" x="312.5" y="-92.8" font-family="Arial" font-size="9.00" fill="white">Splice</text>
<text text-anchor="middle" x="312.5" y="-82.8" font-family="Arial" font-size="9.00" fill="white">Model</text>
</g>
<!-- data3&#45;&gt;model3 -->
<g id="edge3" class="edge">
<title>data3&#45;&gt;model3</title>
<path fill="none" stroke="black" d="M312.5,-143.7C312.5,-135.98 312.5,-126.71 312.5,-118.11"/>
<polygon fill="black" stroke="black" points="316,-118.1 312.5,-108.1 309,-118.1 316,-118.1"/>
</g>
<!-- task1 -->
<g id="node7" class="node">
<title>task1</title>
<path fill="#98df8a" stroke="black" stroke-width="1.5" d="M49,-36C49,-36 12,-36 12,-36 6,-36 0,-30 0,-24 0,-24 0,-12 0,-12 0,-6 6,0 12,0 12,0 49,0 49,0 55,0 61,-6 61,-12 61,-12 61,-24 61,-24 61,-30 55,-36 49,-36"/>
<text text-anchor="middle" x="30.5" y="-20.8" font-family="Arial" font-size="9.00">TF Binding</text>
<text text-anchor="middle" x="30.5" y="-10.8" font-family="Arial" font-size="9.00">Prediction</text>
</g>
<!-- model1&#45;&gt;task1 -->
<g id="edge4" class="edge">
<title>model1&#45;&gt;task1</title>
<path fill="none" stroke="black" d="M30.5,-71.7C30.5,-63.98 30.5,-54.71 30.5,-46.11"/>
<polygon fill="black" stroke="black" points="34,-46.1 30.5,-36.1 27,-46.1 34,-46.1"/>
</g>
<!-- task2 -->
<g id="node8" class="node">
<title>task2</title>
<path fill="#98df8a" stroke="black" stroke-width="1.5" d="M228.5,-36C228.5,-36 190.5,-36 190.5,-36 184.5,-36 178.5,-30 178.5,-24 178.5,-24 178.5,-12 178.5,-12 178.5,-6 184.5,0 190.5,0 190.5,0 228.5,0 228.5,0 234.5,0 240.5,-6 240.5,-12 240.5,-12 240.5,-24 240.5,-24 240.5,-30 234.5,-36 228.5,-36"/>
<text text-anchor="middle" x="209.5" y="-20.8" font-family="Arial" font-size="9.00">Expression</text>
<text text-anchor="middle" x="209.5" y="-10.8" font-family="Arial" font-size="9.00">Prediction</text>
</g>
<!-- model2&#45;&gt;task2 -->
<g id="edge5" class="edge">
<title>model2&#45;&gt;task2</title>
<path fill="none" stroke="black" d="M209.5,-71.7C209.5,-63.98 209.5,-54.71 209.5,-46.11"/>
<polygon fill="black" stroke="black" points="213,-46.1 209.5,-36.1 206,-46.1 213,-46.1"/>
</g>
<!-- task3 -->
<g id="node9" class="node">
<title>task3</title>
<path fill="#98df8a" stroke="black" stroke-width="1.5" d="M329.5,-36C329.5,-36 295.5,-36 295.5,-36 289.5,-36 283.5,-30 283.5,-24 283.5,-24 283.5,-12 283.5,-12 283.5,-6 289.5,0 295.5,0 295.5,0 329.5,0 329.5,0 335.5,0 341.5,-6 341.5,-12 341.5,-12 341.5,-24 341.5,-24 341.5,-30 335.5,-36 329.5,-36"/>
<text text-anchor="middle" x="312.5" y="-20.8" font-family="Arial" font-size="9.00">Splice</text>
<text text-anchor="middle" x="312.5" y="-10.8" font-family="Arial" font-size="9.00">Prediction</text>
</g>
<!-- model3&#45;&gt;task3 -->
<g id="edge6" class="edge">
<title>model3&#45;&gt;task3</title>
<path fill="none" stroke="black" d="M312.5,-71.7C312.5,-63.98 312.5,-54.71 312.5,-46.11"/>
<polygon fill="black" stroke="black" points="316,-46.1 312.5,-36.1 309,-46.1 316,-46.1"/>
</g>
</g>
</svg>
