<?xml version="1.0" encoding="utf-8" ?>
<svg xmlns="http://www.w3.org/2000/svg" xmlns:ev="http://www.w3.org/2001/xml-events" xmlns:xlink="http://www.w3.org/1999/xlink" baseProfile="full" height="800" version="1.1" width="1200">
  <defs>
    <marker id="id117" markerHeight="7" markerWidth="7" orient="auto" refX="6" refY="3">
      <path d="M0,0 L0,6 L6,3 z" fill="#333333"/>
    </marker>
  </defs>
  <rect fill="white" height="800" width="1200" x="0" y="0"/>
  <text fill="#111" font-family="Arial, Helvetica, sans-serif" font-size="28" font-weight="700" x="60" y="50">Figure 13.1: Paradigm Shift (Two-Panel)</text>
  <text fill="#444" font-family="Arial, Helvetica, sans-serif" font-size="16" x="60" y="78">Panel A</text>
  <rect fill="#f7f7f7" height="72" rx="12" ry="12" stroke="#333" stroke-width="2" width="200.0" x="60.0" y="120"/>
  <text fill="#111" font-family="Arial, Helvetica, sans-serif" font-size="16" text-anchor="middle" x="160.0" y="162.5">Splice Data</text>
  <line marker-end="url(#id117)" stroke="#333" stroke-width="2" x1="260.0" x2="280.0" y1="156.0" y2="156.0"/>
  <rect fill="#f7f7f7" height="72" rx="12" ry="12" stroke="#333" stroke-width="2" width="200.0" x="280.0" y="120"/>
  <text fill="#111" font-family="Arial, Helvetica, sans-serif" font-size="16" text-anchor="middle" x="380.0" y="162.5">Train Model A</text>
  <line marker-end="url(#id117)" stroke="#333" stroke-width="2" x1="480.0" x2="500.0" y1="156.0" y2="156.0"/>
  <rect fill="#f7f7f7" height="72" rx="12" ry="12" stroke="#333" stroke-width="2" width="200.0" x="500.0" y="120"/>
  <text fill="#111" font-family="Arial, Helvetica, sans-serif" font-size="16" text-anchor="middle" x="600.0" y="153.0">Splice</text>
  <text fill="#111" font-family="Arial, Helvetica, sans-serif" font-size="16" text-anchor="middle" x="600.0" y="172.0">Predictor</text>
  <line marker-end="url(#id117)" stroke="#333" stroke-width="2" x1="700.0" x2="720.0" y1="156.0" y2="156.0"/>
  <rect fill="#f7f7f7" height="72" rx="12" ry="12" stroke="#333" stroke-width="2" width="200.0" x="720.0" y="120"/>
  <text fill="#111" font-family="Arial, Helvetica, sans-serif" font-size="16" text-anchor="middle" x="820.0" y="153.0">TF Binding</text>
  <text fill="#111" font-family="Arial, Helvetica, sans-serif" font-size="16" text-anchor="middle" x="820.0" y="172.0">Data</text>
  <line marker-end="url(#id117)" stroke="#333" stroke-width="2" x1="920.0" x2="940.0" y1="156.0" y2="156.0"/>
  <rect fill="#f7f7f7" height="72" rx="12" ry="12" stroke="#333" stroke-width="2" width="200.0" x="940.0" y="120"/>
  <text fill="#111" font-family="Arial, Helvetica, sans-serif" font-size="16" text-anchor="middle" x="1040.0" y="162.5">Train Model B</text>
  <line marker-end="url(#id117)" stroke="#333" stroke-width="2" x1="1040.0" x2="160.0" y1="192" y2="260"/>
  <rect fill="#f7f7f7" height="72" rx="12" ry="12" stroke="#333" stroke-width="2" width="200.0" x="60.0" y="260"/>
  <text fill="#111" font-family="Arial, Helvetica, sans-serif" font-size="16" text-anchor="middle" x="160.0" y="293.0">Binding</text>
  <text fill="#111" font-family="Arial, Helvetica, sans-serif" font-size="16" text-anchor="middle" x="160.0" y="312.0">Predictor</text>
  <line marker-end="url(#id117)" stroke="#333" stroke-width="2" x1="260.0" x2="280.0" y1="296.0" y2="296.0"/>
  <rect fill="#f7f7f7" height="72" rx="12" ry="12" stroke="#333" stroke-width="2" width="200.0" x="280.0" y="260"/>
  <text fill="#111" font-family="Arial, Helvetica, sans-serif" font-size="16" text-anchor="middle" x="380.0" y="293.0">Expression</text>
  <text fill="#111" font-family="Arial, Helvetica, sans-serif" font-size="16" text-anchor="middle" x="380.0" y="312.0">Data</text>
  <line marker-end="url(#id117)" stroke="#333" stroke-width="2" x1="480.0" x2="500.0" y1="296.0" y2="296.0"/>
  <rect fill="#f7f7f7" height="72" rx="12" ry="12" stroke="#333" stroke-width="2" width="200.0" x="500.0" y="260"/>
  <text fill="#111" font-family="Arial, Helvetica, sans-serif" font-size="16" text-anchor="middle" x="600.0" y="302.5">Train Model C</text>
  <line marker-end="url(#id117)" stroke="#333" stroke-width="2" x1="700.0" x2="720.0" y1="296.0" y2="296.0"/>
  <rect fill="#f7f7f7" height="72" rx="12" ry="12" stroke="#333" stroke-width="2" width="200.0" x="720.0" y="260"/>
  <text fill="#111" font-family="Arial, Helvetica, sans-serif" font-size="16" text-anchor="middle" x="820.0" y="293.0">Expression</text>
  <text fill="#111" font-family="Arial, Helvetica, sans-serif" font-size="16" text-anchor="middle" x="820.0" y="312.0">Predictor</text>
  <line marker-end="url(#id117)" stroke="#333" stroke-width="2" x1="920.0" x2="940.0" y1="296.0" y2="296.0"/>
  <rect fill="#f7f7f7" height="72" rx="12" ry="12" stroke="#333" stroke-width="2" width="200.0" x="940.0" y="260"/>
  <text fill="#111" font-family="Arial, Helvetica, sans-serif" font-size="16" text-anchor="middle" x="1040.0" y="293.0">Task-Specific</text>
  <text fill="#111" font-family="Arial, Helvetica, sans-serif" font-size="16" text-anchor="middle" x="1040.0" y="312.0">Paradigm</text>
  <text fill="#999" font-family="Arial, Helvetica, sans-serif" font-size="12" text-anchor="end" x="1140" y="776">Auto-generated SVG</text>
</svg>
