<?xml version="1.0" encoding="UTF-8" standalone="no"?>
<!DOCTYPE svg PUBLIC "-//W3C//DTD SVG 1.1//EN"
 "http://www.w3.org/Graphics/SVG/1.1/DTD/svg11.dtd">
<!-- Generated by graphviz version 2.43.0 (0)
 -->
<!-- Title: foundation Pages: 1 -->
<svg width="280pt" height="432pt"
 viewBox="0.00 0.00 280.43 432.00" xmlns="http://www.w3.org/2000/svg" xmlns:xlink="http://www.w3.org/1999/xlink">
<g id="graph0" class="graph" transform="scale(1.23 1.23) rotate(0) translate(4 348)">
<title>foundation</title>
<polygon fill="white" stroke="transparent" points="-4,4 -4,-348 224.5,-348 224.5,4 -4,4"/>
<!-- genome -->
<g id="node1" class="node">
<title>genome</title>
<path fill="#aec7e8" stroke="black" stroke-width="1.5" d="M128,-344C128,-344 93,-344 93,-344 87,-344 81,-338 81,-332 81,-332 81,-320 81,-320 81,-314 87,-308 93,-308 93,-308 128,-308 128,-308 134,-308 140,-314 140,-320 140,-320 140,-332 140,-332 140,-338 134,-344 128,-344"/>
<text text-anchor="middle" x="110.5" y="-328.8" font-family="Arial" font-size="9.00">Unlabeled</text>
<text text-anchor="middle" x="110.5" y="-318.8" font-family="Arial" font-size="9.00">Genomes</text>
</g>
<!-- pretrain -->
<g id="node2" class="node">
<title>pretrain</title>
<path fill="#9467bd" stroke="black" stroke-width="1.5" d="M131,-257C131,-257 90,-257 90,-257 84,-257 78,-251 78,-245 78,-245 78,-231 78,-231 78,-225 84,-219 90,-219 90,-219 131,-219 131,-219 137,-219 143,-225 143,-231 143,-231 143,-245 143,-245 143,-251 137,-257 131,-257"/>
<text text-anchor="middle" x="110.5" y="-245.8" font-family="Arial" font-size="9.00" fill="white">Foundation</text>
<text text-anchor="middle" x="110.5" y="-235.8" font-family="Arial" font-size="9.00" fill="white">Model</text>
<text text-anchor="middle" x="110.5" y="-225.8" font-family="Arial" font-size="9.00" fill="white">(Pretrained)</text>
</g>
<!-- genome&#45;&gt;pretrain -->
<g id="edge1" class="edge">
<title>genome&#45;&gt;pretrain</title>
<path fill="none" stroke="black" d="M110.5,-307.6C110.5,-296.06 110.5,-280.65 110.5,-267.36"/>
<polygon fill="black" stroke="black" points="114,-267.27 110.5,-257.27 107,-267.27 114,-267.27"/>
<text text-anchor="middle" x="165.5" y="-278.8" font-family="Times,serif" font-size="14.00">Self&#45;supervised</text>
</g>
<!-- embed -->
<g id="node3" class="node">
<title>embed</title>
<path fill="#c5b0d5" stroke="black" stroke-width="1.5" d="M132.5,-182C132.5,-182 88.5,-182 88.5,-182 82.5,-182 76.5,-176 76.5,-170 76.5,-170 76.5,-158 76.5,-158 76.5,-152 82.5,-146 88.5,-146 88.5,-146 132.5,-146 132.5,-146 138.5,-146 144.5,-152 144.5,-158 144.5,-158 144.5,-170 144.5,-170 144.5,-176 138.5,-182 132.5,-182"/>
<text text-anchor="middle" x="110.5" y="-166.8" font-family="Arial" font-size="9.00">General</text>
<text text-anchor="middle" x="110.5" y="-156.8" font-family="Arial" font-size="9.00">Embeddings</text>
</g>
<!-- pretrain&#45;&gt;embed -->
<g id="edge2" class="edge">
<title>pretrain&#45;&gt;embed</title>
<path fill="none" stroke="black" d="M110.5,-218.83C110.5,-210.89 110.5,-201.41 110.5,-192.63"/>
<polygon fill="black" stroke="black" points="114,-192.42 110.5,-182.42 107,-192.42 114,-192.42"/>
</g>
<!-- adapt1 -->
<g id="node4" class="node">
<title>adapt1</title>
<path fill="#ff7f0e" stroke="black" stroke-width="1.5" d="M49.5,-109C49.5,-109 17.5,-109 17.5,-109 11.5,-109 5.5,-103 5.5,-97 5.5,-97 5.5,-85 5.5,-85 5.5,-79 11.5,-73 17.5,-73 17.5,-73 49.5,-73 49.5,-73 55.5,-73 61.5,-79 61.5,-85 61.5,-85 61.5,-97 61.5,-97 61.5,-103 55.5,-109 49.5,-109"/>
<text text-anchor="middle" x="33.5" y="-88.8" font-family="Arial" font-size="9.00">Adapter 1</text>
</g>
<!-- embed&#45;&gt;adapt1 -->
<g id="edge3" class="edge">
<title>embed&#45;&gt;adapt1</title>
<path fill="none" stroke="black" d="M91.86,-145.81C82.12,-136.83 70.04,-125.69 59.4,-115.89"/>
<polygon fill="black" stroke="black" points="61.69,-113.23 51.97,-109.03 56.95,-118.38 61.69,-113.23"/>
</g>
<!-- adapt2 -->
<g id="node5" class="node">
<title>adapt2</title>
<path fill="#ff7f0e" stroke="black" stroke-width="1.5" d="M126.5,-109C126.5,-109 94.5,-109 94.5,-109 88.5,-109 82.5,-103 82.5,-97 82.5,-97 82.5,-85 82.5,-85 82.5,-79 88.5,-73 94.5,-73 94.5,-73 126.5,-73 126.5,-73 132.5,-73 138.5,-79 138.5,-85 138.5,-85 138.5,-97 138.5,-97 138.5,-103 132.5,-109 126.5,-109"/>
<text text-anchor="middle" x="110.5" y="-88.8" font-family="Arial" font-size="9.00">Adapter 2</text>
</g>
<!-- embed&#45;&gt;adapt2 -->
<g id="edge4" class="edge">
<title>embed&#45;&gt;adapt2</title>
<path fill="none" stroke="black" d="M110.5,-145.81C110.5,-137.79 110.5,-128.05 110.5,-119.07"/>
<polygon fill="black" stroke="black" points="114,-119.03 110.5,-109.03 107,-119.03 114,-119.03"/>
</g>
<!-- adapt3 -->
<g id="node6" class="node">
<title>adapt3</title>
<path fill="#ff7f0e" stroke="black" stroke-width="1.5" d="M201.5,-109C201.5,-109 169.5,-109 169.5,-109 163.5,-109 157.5,-103 157.5,-97 157.5,-97 157.5,-85 157.5,-85 157.5,-79 163.5,-73 169.5,-73 169.5,-73 201.5,-73 201.5,-73 207.5,-73 213.5,-79 213.5,-85 213.5,-85 213.5,-97 213.5,-97 213.5,-103 207.5,-109 201.5,-109"/>
<text text-anchor="middle" x="185.5" y="-88.8" font-family="Arial" font-size="9.00">Adapter 3</text>
</g>
<!-- embed&#45;&gt;adapt3 -->
<g id="edge5" class="edge">
<title>embed&#45;&gt;adapt3</title>
<path fill="none" stroke="black" d="M128.66,-145.81C138.05,-136.92 149.68,-125.91 159.97,-116.17"/>
<polygon fill="black" stroke="black" points="162.66,-118.45 167.51,-109.03 157.84,-113.36 162.66,-118.45"/>
</g>
<!-- task1 -->
<g id="node7" class="node">
<title>task1</title>
<path fill="#98df8a" stroke="black" stroke-width="1.5" d="M49,-36C49,-36 12,-36 12,-36 6,-36 0,-30 0,-24 0,-24 0,-12 0,-12 0,-6 6,0 12,0 12,0 49,0 49,0 55,0 61,-6 61,-12 61,-12 61,-24 61,-24 61,-30 55,-36 49,-36"/>
<text text-anchor="middle" x="30.5" y="-15.8" font-family="Arial" font-size="9.00">TF Binding</text>
</g>
<!-- adapt1&#45;&gt;task1 -->
<g id="edge6" class="edge">
<title>adapt1&#45;&gt;task1</title>
<path fill="none" stroke="black" d="M32.77,-72.81C32.43,-64.79 32.02,-55.05 31.64,-46.07"/>
<polygon fill="black" stroke="black" points="35.14,-45.87 31.22,-36.03 28.14,-46.17 35.14,-45.87"/>
</g>
<!-- task2 -->
<g id="node8" class="node">
<title>task2</title>
<path fill="#98df8a" stroke="black" stroke-width="1.5" d="M129.5,-36C129.5,-36 91.5,-36 91.5,-36 85.5,-36 79.5,-30 79.5,-24 79.5,-24 79.5,-12 79.5,-12 79.5,-6 85.5,0 91.5,0 91.5,0 129.5,0 129.5,0 135.5,0 141.5,-6 141.5,-12 141.5,-12 141.5,-24 141.5,-24 141.5,-30 135.5,-36 129.5,-36"/>
<text text-anchor="middle" x="110.5" y="-15.8" font-family="Arial" font-size="9.00">Expression</text>
</g>
<!-- adapt2&#45;&gt;task2 -->
<g id="edge7" class="edge">
<title>adapt2&#45;&gt;task2</title>
<path fill="none" stroke="black" d="M110.5,-72.81C110.5,-64.79 110.5,-55.05 110.5,-46.07"/>
<polygon fill="black" stroke="black" points="114,-46.03 110.5,-36.03 107,-46.03 114,-46.03"/>
</g>
<!-- task3 -->
<g id="node9" class="node">
<title>task3</title>
<path fill="#98df8a" stroke="black" stroke-width="1.5" d="M201.5,-36C201.5,-36 171.5,-36 171.5,-36 165.5,-36 159.5,-30 159.5,-24 159.5,-24 159.5,-12 159.5,-12 159.5,-6 165.5,0 171.5,0 171.5,0 201.5,0 201.5,0 207.5,0 213.5,-6 213.5,-12 213.5,-12 213.5,-24 213.5,-24 213.5,-30 207.5,-36 201.5,-36"/>
<text text-anchor="middle" x="186.5" y="-15.8" font-family="Arial" font-size="9.00">Splicing</text>
</g>
<!-- adapt3&#45;&gt;task3 -->
<g id="edge8" class="edge">
<title>adapt3&#45;&gt;task3</title>
<path fill="none" stroke="black" d="M185.74,-72.81C185.86,-64.79 185.99,-55.05 186.12,-46.07"/>
<polygon fill="black" stroke="black" points="189.62,-46.08 186.26,-36.03 182.62,-45.98 189.62,-46.08"/>
</g>
</g>
</svg>
