<?xml version="1.0" encoding="UTF-8" standalone="no"?>
<!DOCTYPE svg PUBLIC "-//W3C//DTD SVG 1.1//EN"
 "http://www.w3.org/Graphics/SVG/1.1/DTD/svg11.dtd">
<!-- Generated by graphviz version 2.43.0 (0)
 -->
<!-- Title: buildvsuse Pages: 1 -->
<svg width="425pt" height="720pt"
 viewBox="0.00 0.00 425.45 720.00" xmlns="http://www.w3.org/2000/svg" xmlns:xlink="http://www.w3.org/1999/xlink">
<g id="graph0" class="graph" transform="scale(1.72 1.72) rotate(0) translate(4 414)">
<title>buildvsuse</title>
<polygon fill="white" stroke="transparent" points="-4,4 -4,-414 243,-414 243,4 -4,4"/>
<!-- start -->
<g id="node1" class="node">
<title>start</title>
<path fill="#fff8dc" stroke="black" stroke-width="1.5" d="M185,-410C185,-410 153,-410 153,-410 147,-410 141,-404 141,-398 141,-398 141,-386 141,-386 141,-380 147,-374 153,-374 153,-374 185,-374 185,-374 191,-374 197,-380 197,-386 197,-386 197,-398 197,-398 197,-404 191,-410 185,-410"/>
<text text-anchor="middle" x="169" y="-389.8" font-family="Arial" font-size="9.00">New Task</text>
</g>
<!-- q1 -->
<g id="node2" class="node">
<title>q1</title>
<path fill="#fff8dc" stroke="black" stroke-width="1.5" d="M157.44,-333.77C157.44,-333.77 116.05,-322.23 116.05,-322.23 110.27,-320.61 110.27,-317.39 116.05,-315.77 116.05,-315.77 157.44,-304.23 157.44,-304.23 163.22,-302.61 174.78,-302.61 180.56,-304.23 180.56,-304.23 221.95,-315.77 221.95,-315.77 227.73,-317.39 227.73,-320.61 221.95,-322.23 221.95,-322.23 180.56,-333.77 180.56,-333.77 174.78,-335.39 163.22,-335.39 157.44,-333.77"/>
<text text-anchor="middle" x="169" y="-316.8" font-family="Arial" font-size="9.00">Novel domain?</text>
</g>
<!-- start&#45;&gt;q1 -->
<g id="edge1" class="edge">
<title>start&#45;&gt;q1</title>
<path fill="none" stroke="black" d="M169,-373.81C169,-365.79 169,-356.05 169,-347.07"/>
<polygon fill="black" stroke="black" points="172.5,-347.03 169,-337.03 165.5,-347.03 172.5,-347.03"/>
</g>
<!-- q2 -->
<g id="node3" class="node">
<title>q2</title>
<path fill="#fff8dc" stroke="black" stroke-width="1.5" d="M80.84,-245.6C80.84,-245.6 32.16,-226.4 32.16,-226.4 26.58,-224.2 26.58,-219.8 32.16,-217.6 32.16,-217.6 80.84,-198.4 80.84,-198.4 86.42,-196.2 97.58,-196.2 103.16,-198.4 103.16,-198.4 151.84,-217.6 151.84,-217.6 157.42,-219.8 157.42,-224.2 151.84,-226.4 151.84,-226.4 103.16,-245.6 103.16,-245.6 97.58,-247.8 86.42,-247.8 80.84,-245.6"/>
<text text-anchor="middle" x="92" y="-224.8" font-family="Arial" font-size="9.00">Labeled data</text>
<text text-anchor="middle" x="92" y="-214.8" font-family="Arial" font-size="9.00">available?</text>
</g>
<!-- q1&#45;&gt;q2 -->
<g id="edge3" class="edge">
<title>q1&#45;&gt;q2</title>
<path fill="none" stroke="black" d="M157.64,-303.98C146.57,-290.32 129.4,-269.14 115.4,-251.87"/>
<polygon fill="black" stroke="black" points="117.84,-249.32 108.82,-243.75 112.4,-253.73 117.84,-249.32"/>
<text text-anchor="middle" x="149.5" y="-271.8" font-family="Times,serif" font-size="14.00">No</text>
</g>
<!-- build -->
<g id="node5" class="node">
<title>build</title>
<path fill="#d62728" stroke="black" stroke-width="1.5" d="M227,-240C227,-240 193,-240 193,-240 187,-240 181,-234 181,-228 181,-228 181,-216 181,-216 181,-210 187,-204 193,-204 193,-204 227,-204 227,-204 233,-204 239,-210 239,-216 239,-216 239,-228 239,-228 239,-234 233,-240 227,-240"/>
<text text-anchor="middle" x="210" y="-224.8" font-family="Arial" font-size="9.00" fill="white">Train from</text>
<text text-anchor="middle" x="210" y="-214.8" font-family="Arial" font-size="9.00" fill="white">Scratch</text>
</g>
<!-- q1&#45;&gt;build -->
<g id="edge2" class="edge">
<title>q1&#45;&gt;build</title>
<path fill="none" stroke="black" d="M175.59,-302.74C181.76,-288.44 191.11,-266.78 198.51,-249.63"/>
<polygon fill="black" stroke="black" points="201.85,-250.72 202.6,-240.15 195.42,-247.95 201.85,-250.72"/>
<text text-anchor="middle" x="201.5" y="-271.8" font-family="Times,serif" font-size="14.00">Yes</text>
</g>
<!-- q3 -->
<g id="node4" class="node">
<title>q3</title>
<path fill="#fff8dc" stroke="black" stroke-width="1.5" d="M43.35,-137.48C43.35,-137.48 10.65,-120.52 10.65,-120.52 5.33,-117.76 5.33,-112.24 10.65,-109.48 10.65,-109.48 43.35,-92.52 43.35,-92.52 48.67,-89.76 59.33,-89.76 64.65,-92.52 64.65,-92.52 97.35,-109.48 97.35,-109.48 102.67,-112.24 102.67,-117.76 97.35,-120.52 97.35,-120.52 64.65,-137.48 64.65,-137.48 59.33,-140.24 48.67,-140.24 43.35,-137.48"/>
<text text-anchor="middle" x="54" y="-117.8" font-family="Arial" font-size="9.00">Compute</text>
<text text-anchor="middle" x="54" y="-107.8" font-family="Arial" font-size="9.00">budget?</text>
</g>
<!-- q2&#45;&gt;q3 -->
<g id="edge4" class="edge">
<title>q2&#45;&gt;q3</title>
<path fill="none" stroke="black" d="M83.38,-197.17C78.2,-182.88 71.55,-164.49 65.88,-148.84"/>
<polygon fill="black" stroke="black" points="69.02,-147.22 62.33,-139.01 62.44,-149.6 69.02,-147.22"/>
<text text-anchor="middle" x="87.5" y="-164.8" font-family="Times,serif" font-size="14.00">Yes</text>
</g>
<!-- use -->
<g id="node8" class="node">
<title>use</title>
<path fill="#1f77b4" stroke="black" stroke-width="1.5" d="M182,-133C182,-133 138,-133 138,-133 132,-133 126,-127 126,-121 126,-121 126,-109 126,-109 126,-103 132,-97 138,-97 138,-97 182,-97 182,-97 188,-97 194,-103 194,-109 194,-109 194,-121 194,-121 194,-127 188,-133 182,-133"/>
<text text-anchor="middle" x="160" y="-117.8" font-family="Arial" font-size="9.00" fill="white">Use Frozen</text>
<text text-anchor="middle" x="160" y="-107.8" font-family="Arial" font-size="9.00" fill="white">Embeddings</text>
</g>
<!-- q2&#45;&gt;use -->
<g id="edge5" class="edge">
<title>q2&#45;&gt;use</title>
<path fill="none" stroke="black" d="M106.09,-199.24C116.89,-182.57 131.83,-159.5 143.24,-141.88"/>
<polygon fill="black" stroke="black" points="146.35,-143.52 148.85,-133.22 140.47,-139.71 146.35,-143.52"/>
<text text-anchor="middle" x="140.5" y="-164.8" font-family="Times,serif" font-size="14.00">No</text>
</g>
<!-- finetune -->
<g id="node6" class="node">
<title>finetune</title>
<path fill="#ff7f0e" stroke="black" stroke-width="1.5" d="M45,-36C45,-36 13,-36 13,-36 7,-36 1,-30 1,-24 1,-24 1,-12 1,-12 1,-6 7,0 13,0 13,0 45,0 45,0 51,0 57,-6 57,-12 57,-12 57,-24 57,-24 57,-30 51,-36 45,-36"/>
<text text-anchor="middle" x="29" y="-20.8" font-family="Arial" font-size="9.00">Fine&#45;tune</text>
<text text-anchor="middle" x="29" y="-10.8" font-family="Arial" font-size="9.00">Existing</text>
</g>
<!-- q3&#45;&gt;finetune -->
<g id="edge6" class="edge">
<title>q3&#45;&gt;finetune</title>
<path fill="none" stroke="black" d="M47.69,-90.03C44.16,-76.62 39.76,-59.88 36.11,-46.01"/>
<polygon fill="black" stroke="black" points="39.42,-44.85 33.49,-36.07 32.65,-46.63 39.42,-44.85"/>
<text text-anchor="middle" x="58.5" y="-57.8" font-family="Times,serif" font-size="14.00">High</text>
</g>
<!-- adapt -->
<g id="node7" class="node">
<title>adapt</title>
<path fill="#2ca02c" stroke="black" stroke-width="1.5" d="M117,-36C117,-36 87,-36 87,-36 81,-36 75,-30 75,-24 75,-24 75,-12 75,-12 75,-6 81,0 87,0 87,0 117,0 117,0 123,0 129,-6 129,-12 129,-12 129,-24 129,-24 129,-30 123,-36 117,-36"/>
<text text-anchor="middle" x="102" y="-20.8" font-family="Arial" font-size="9.00" fill="white">LoRA/</text>
<text text-anchor="middle" x="102" y="-10.8" font-family="Arial" font-size="9.00" fill="white">Adapters</text>
</g>
<!-- q3&#45;&gt;adapt -->
<g id="edge7" class="edge">
<title>q3&#45;&gt;adapt</title>
<path fill="none" stroke="black" d="M66.09,-93.08C72.88,-81.33 80,-69 80,-69 80,-69 85.02,-57.59 90.27,-45.67"/>
<polygon fill="black" stroke="black" points="93.61,-46.77 94.43,-36.21 87.2,-43.95 93.61,-46.77"/>
<text text-anchor="middle" x="115.5" y="-57.8" font-family="Times,serif" font-size="14.00">Medium</text>
</g>
</g>
</svg>
