<?xml version="1.0" encoding="utf-8" standalone="no"?>
<!DOCTYPE svg PUBLIC "-//W3C//DTD SVG 1.1//EN"
  "http://www.w3.org/Graphics/SVG/1.1/DTD/svg11.dtd">
<svg xmlns:xlink="http://www.w3.org/1999/xlink" width="562.33079pt" height="280.518281pt" viewBox="0 0 562.33079 280.518281" xmlns="http://www.w3.org/2000/svg" version="1.1">
 <metadata>
  <rdf:RDF xmlns:dc="http://purl.org/dc/elements/1.1/" xmlns:cc="http://creativecommons.org/ns#" xmlns:rdf="http://www.w3.org/1999/02/22-rdf-syntax-ns#">
   <cc:Work>
    <dc:type rdf:resource="http://purl.org/dc/dcmitype/StillImage"/>
    <dc:date>2026-01-08T07:31:40.290392</dc:date>
    <dc:format>image/svg+xml</dc:format>
    <dc:creator>
     <cc:Agent>
      <dc:title>Matplotlib v3.10.7, https://matplotlib.org/</dc:title>
     </cc:Agent>
    </dc:creator>
   </cc:Work>
  </rdf:RDF>
 </metadata>
 <defs>
  <style type="text/css">*{stroke-linejoin: round; stroke-linecap: butt}</style>
 </defs>
 <g id="figure_1">
  <g id="patch_1">
   <path d="M 0 280.518281 
L 562.33079 280.518281 
L 562.33079 0 
L 0 0 
z
" style="fill: #ffffff"/>
  </g>
  <g id="axes_1">
   <g id="patch_2">
    <path d="M 99.86039 122.262281 
L 134.88119 122.262281 
L 134.88119 71.910281 
L 99.86039 71.910281 
z
" clip-path="url(#pf3a13353dd)" style="fill: #2ca02c; stroke: #ffffff; stroke-linejoin: miter"/>
   </g>
   <g id="patch_3">
    <path d="M 141.88535 122.262281 
L 176.90615 122.262281 
L 176.90615 71.910281 
L 141.88535 71.910281 
z
" clip-path="url(#pf3a13353dd)" style="fill: #d62728; stroke: #ffffff; stroke-linejoin: miter"/>
   </g>
   <g id="patch_4">
    <path d="M 183.91031 122.262281 
L 218.93111 122.262281 
L 218.93111 71.910281 
L 183.91031 71.910281 
z
" clip-path="url(#pf3a13353dd)" style="fill: #ff7f0e; stroke: #ffffff; stroke-linejoin: miter"/>
   </g>
   <g id="patch_5">
    <path d="M 225.93527 122.262281 
L 260.95607 122.262281 
L 260.95607 71.910281 
L 225.93527 71.910281 
z
" clip-path="url(#pf3a13353dd)" style="fill: #1f77b4; stroke: #ffffff; stroke-linejoin: miter"/>
   </g>
   <g id="patch_6">
    <path d="M 267.96023 122.262281 
L 302.98103 122.262281 
L 302.98103 71.910281 
L 267.96023 71.910281 
z
" clip-path="url(#pf3a13353dd)" style="fill: #2ca02c; stroke: #ffffff; stroke-linejoin: miter"/>
   </g>
   <g id="patch_7">
    <path d="M 309.98519 122.262281 
L 345.00599 122.262281 
L 345.00599 71.910281 
L 309.98519 71.910281 
z
" clip-path="url(#pf3a13353dd)" style="fill: #d62728; stroke: #ffffff; stroke-linejoin: miter"/>
   </g>
   <g id="patch_8">
    <path d="M 352.01015 122.262281 
L 387.03095 122.262281 
L 387.03095 71.910281 
L 352.01015 71.910281 
z
" clip-path="url(#pf3a13353dd)" style="fill: #ff7f0e; stroke: #ffffff; stroke-linejoin: miter"/>
   </g>
   <g id="patch_9">
    <path d="M 394.03511 122.262281 
L 429.05591 122.262281 
L 429.05591 71.910281 
L 394.03511 71.910281 
z
" clip-path="url(#pf3a13353dd)" style="fill: #ff7f0e; stroke: #ffffff; stroke-linejoin: miter"/>
   </g>
   <g id="patch_10">
    <path d="M 436.06007 122.262281 
L 471.08087 122.262281 
L 471.08087 71.910281 
L 436.06007 71.910281 
z
" clip-path="url(#pf3a13353dd)" style="fill: #1f77b4; stroke: #ffffff; stroke-linejoin: miter"/>
   </g>
   <g id="patch_11">
    <path d="M 99.86039 222.966281 
L 211.92695 222.966281 
L 211.92695 172.614281 
L 99.86039 172.614281 
z
" clip-path="url(#pf3a13353dd)" style="fill: #9467bd; stroke: #ffffff; stroke-linejoin: miter"/>
   </g>
   <g id="patch_12">
    <path d="M 225.93527 222.966281 
L 338.00183 222.966281 
L 338.00183 172.614281 
L 225.93527 172.614281 
z
" clip-path="url(#pf3a13353dd)" style="fill: #17becf; stroke: #ffffff; stroke-linejoin: miter"/>
   </g>
   <g id="patch_13">
    <path d="M 352.01015 222.966281 
L 464.07671 222.966281 
L 464.07671 172.614281 
L 352.01015 172.614281 
z
" clip-path="url(#pf3a13353dd)" style="fill: #bcbd22; stroke: #ffffff; stroke-linejoin: miter"/>
   </g>
   <g id="text_1">
    <!-- A -->
    <g style="fill: #ffffff" transform="translate(113.501259 99.845656) scale(0.1 -0.1)">
     <defs>
      <path id="DejaVuSans-Bold-41" d="M 3419 850 
L 1538 850 
L 1241 0 
L 31 0 
L 1759 4666 
L 3194 4666 
L 4922 0 
L 3713 0 
L 3419 850 
z
M 1838 1716 
L 3116 1716 
L 2478 3572 
L 1838 1716 
z
" transform="scale(0.015625)"/>
     </defs>
     <use xlink:href="#DejaVuSans-Bold-41"/>
    </g>
   </g>
   <g id="text_2">
    <!-- U -->
    <g style="fill: #ffffff" transform="translate(155.335594 99.845656) scale(0.1 -0.1)">
     <defs>
      <path id="DejaVuSans-Bold-55" d="M 588 4666 
L 1791 4666 
L 1791 1869 
Q 1791 1291 1980 1042 
Q 2169 794 2597 794 
Q 3028 794 3217 1042 
Q 3406 1291 3406 1869 
L 3406 4666 
L 4609 4666 
L 4609 1869 
Q 4609 878 4112 393 
Q 3616 -91 2597 -91 
Q 1581 -91 1084 393 
Q 588 878 588 1869 
L 588 4666 
z
" transform="scale(0.015625)"/>
     </defs>
     <use xlink:href="#DejaVuSans-Bold-55"/>
    </g>
   </g>
   <g id="text_3">
    <!-- G -->
    <g style="fill: #ffffff" transform="translate(197.316804 99.845656) scale(0.1 -0.1)">
     <defs>
      <path id="DejaVuSans-Bold-47" d="M 4781 347 
Q 4331 128 3847 18 
Q 3363 -91 2847 -91 
Q 1681 -91 1000 561 
Q 319 1213 319 2328 
Q 319 3456 1012 4103 
Q 1706 4750 2913 4750 
Q 3378 4750 3804 4662 
Q 4231 4575 4609 4403 
L 4609 3438 
Q 4219 3659 3833 3768 
Q 3447 3878 3059 3878 
Q 2341 3878 1952 3476 
Q 1563 3075 1563 2328 
Q 1563 1588 1938 1184 
Q 2313 781 3003 781 
Q 3191 781 3352 804 
Q 3513 828 3641 878 
L 3641 1784 
L 2906 1784 
L 2906 2591 
L 4781 2591 
L 4781 347 
z
" transform="scale(0.015625)"/>
     </defs>
     <use xlink:href="#DejaVuSans-Bold-47"/>
    </g>
   </g>
   <g id="text_4">
    <!-- C -->
    <g style="fill: #ffffff" transform="translate(239.776139 99.845656) scale(0.1 -0.1)">
     <defs>
      <path id="DejaVuSans-Bold-43" d="M 4288 256 
Q 3956 84 3597 -3 
Q 3238 -91 2847 -91 
Q 1681 -91 1000 561 
Q 319 1213 319 2328 
Q 319 3447 1000 4098 
Q 1681 4750 2847 4750 
Q 3238 4750 3597 4662 
Q 3956 4575 4288 4403 
L 4288 3438 
Q 3953 3666 3628 3772 
Q 3303 3878 2944 3878 
Q 2300 3878 1931 3465 
Q 1563 3053 1563 2328 
Q 1563 1606 1931 1193 
Q 2300 781 2944 781 
Q 3303 781 3628 887 
Q 3953 994 4288 1222 
L 4288 256 
z
" transform="scale(0.015625)"/>
     </defs>
     <use xlink:href="#DejaVuSans-Bold-43"/>
    </g>
   </g>
   <g id="text_5">
    <!-- A -->
    <g style="fill: #ffffff" transform="translate(281.601099 99.845656) scale(0.1 -0.1)">
     <use xlink:href="#DejaVuSans-Bold-41"/>
    </g>
   </g>
   <g id="text_6">
    <!-- U -->
    <g style="fill: #ffffff" transform="translate(323.435434 99.845656) scale(0.1 -0.1)">
     <use xlink:href="#DejaVuSans-Bold-55"/>
    </g>
   </g>
   <g id="text_7">
    <!-- G -->
    <g style="fill: #ffffff" transform="translate(365.416644 99.845656) scale(0.1 -0.1)">
     <use xlink:href="#DejaVuSans-Bold-47"/>
    </g>
   </g>
   <g id="text_8">
    <!-- G -->
    <g style="fill: #ffffff" transform="translate(407.441604 99.845656) scale(0.1 -0.1)">
     <use xlink:href="#DejaVuSans-Bold-47"/>
    </g>
   </g>
   <g id="text_9">
    <!-- C -->
    <g style="fill: #ffffff" transform="translate(449.900939 99.845656) scale(0.1 -0.1)">
     <use xlink:href="#DejaVuSans-Bold-43"/>
    </g>
   </g>
   <g id="text_10">
    <!-- Nucleotide: -->
    <g transform="translate(7.2 97.086281) scale(0.1 -0.1)">
     <defs>
      <path id="DejaVuSans-Bold-4e" d="M 588 4666 
L 1931 4666 
L 3628 1466 
L 3628 4666 
L 4769 4666 
L 4769 0 
L 3425 0 
L 1728 3200 
L 1728 0 
L 588 0 
L 588 4666 
z
" transform="scale(0.015625)"/>
      <path id="DejaVuSans-Bold-75" d="M 500 1363 
L 500 3500 
L 1625 3500 
L 1625 3150 
Q 1625 2866 1622 2436 
Q 1619 2006 1619 1863 
Q 1619 1441 1641 1255 
Q 1663 1069 1716 984 
Q 1784 875 1895 815 
Q 2006 756 2150 756 
Q 2500 756 2700 1025 
Q 2900 1294 2900 1772 
L 2900 3500 
L 4019 3500 
L 4019 0 
L 2900 0 
L 2900 506 
Q 2647 200 2364 54 
Q 2081 -91 1741 -91 
Q 1134 -91 817 281 
Q 500 653 500 1363 
z
" transform="scale(0.015625)"/>
      <path id="DejaVuSans-Bold-63" d="M 3366 3391 
L 3366 2478 
Q 3138 2634 2908 2709 
Q 2678 2784 2431 2784 
Q 1963 2784 1702 2511 
Q 1441 2238 1441 1747 
Q 1441 1256 1702 982 
Q 1963 709 2431 709 
Q 2694 709 2930 787 
Q 3166 866 3366 1019 
L 3366 103 
Q 3103 6 2833 -42 
Q 2563 -91 2291 -91 
Q 1344 -91 809 395 
Q 275 881 275 1747 
Q 275 2613 809 3098 
Q 1344 3584 2291 3584 
Q 2566 3584 2833 3536 
Q 3100 3488 3366 3391 
z
" transform="scale(0.015625)"/>
      <path id="DejaVuSans-Bold-6c" d="M 538 4863 
L 1656 4863 
L 1656 0 
L 538 0 
L 538 4863 
z
" transform="scale(0.015625)"/>
      <path id="DejaVuSans-Bold-65" d="M 4031 1759 
L 4031 1441 
L 1416 1441 
Q 1456 1047 1700 850 
Q 1944 653 2381 653 
Q 2734 653 3104 758 
Q 3475 863 3866 1075 
L 3866 213 
Q 3469 63 3072 -14 
Q 2675 -91 2278 -91 
Q 1328 -91 801 392 
Q 275 875 275 1747 
Q 275 2603 792 3093 
Q 1309 3584 2216 3584 
Q 3041 3584 3536 3087 
Q 4031 2591 4031 1759 
z
M 2881 2131 
Q 2881 2450 2695 2645 
Q 2509 2841 2209 2841 
Q 1884 2841 1681 2658 
Q 1478 2475 1428 2131 
L 2881 2131 
z
" transform="scale(0.015625)"/>
      <path id="DejaVuSans-Bold-6f" d="M 2203 2784 
Q 1831 2784 1636 2517 
Q 1441 2250 1441 1747 
Q 1441 1244 1636 976 
Q 1831 709 2203 709 
Q 2569 709 2762 976 
Q 2956 1244 2956 1747 
Q 2956 2250 2762 2517 
Q 2569 2784 2203 2784 
z
M 2203 3584 
Q 3106 3584 3614 3096 
Q 4122 2609 4122 1747 
Q 4122 884 3614 396 
Q 3106 -91 2203 -91 
Q 1297 -91 786 396 
Q 275 884 275 1747 
Q 275 2609 786 3096 
Q 1297 3584 2203 3584 
z
" transform="scale(0.015625)"/>
      <path id="DejaVuSans-Bold-74" d="M 1759 4494 
L 1759 3500 
L 2913 3500 
L 2913 2700 
L 1759 2700 
L 1759 1216 
Q 1759 972 1856 886 
Q 1953 800 2241 800 
L 2816 800 
L 2816 0 
L 1856 0 
Q 1194 0 917 276 
Q 641 553 641 1216 
L 641 2700 
L 84 2700 
L 84 3500 
L 641 3500 
L 641 4494 
L 1759 4494 
z
" transform="scale(0.015625)"/>
      <path id="DejaVuSans-Bold-69" d="M 538 3500 
L 1656 3500 
L 1656 0 
L 538 0 
L 538 3500 
z
M 538 4863 
L 1656 4863 
L 1656 3950 
L 538 3950 
L 538 4863 
z
" transform="scale(0.015625)"/>
      <path id="DejaVuSans-Bold-64" d="M 2919 2988 
L 2919 4863 
L 4044 4863 
L 4044 0 
L 2919 0 
L 2919 506 
Q 2688 197 2409 53 
Q 2131 -91 1766 -91 
Q 1119 -91 703 423 
Q 288 938 288 1747 
Q 288 2556 703 3070 
Q 1119 3584 1766 3584 
Q 2128 3584 2408 3439 
Q 2688 3294 2919 2988 
z
M 2181 722 
Q 2541 722 2730 984 
Q 2919 1247 2919 1747 
Q 2919 2247 2730 2509 
Q 2541 2772 2181 2772 
Q 1825 2772 1636 2509 
Q 1447 2247 1447 1747 
Q 1447 1247 1636 984 
Q 1825 722 2181 722 
z
" transform="scale(0.015625)"/>
      <path id="DejaVuSans-Bold-3a" d="M 716 3500 
L 1844 3500 
L 1844 2291 
L 716 2291 
L 716 3500 
z
M 716 1209 
L 1844 1209 
L 1844 0 
L 716 0 
L 716 1209 
z
" transform="scale(0.015625)"/>
     </defs>
     <use xlink:href="#DejaVuSans-Bold-4e"/>
     <use xlink:href="#DejaVuSans-Bold-75" transform="translate(83.691406 0)"/>
     <use xlink:href="#DejaVuSans-Bold-63" transform="translate(154.882812 0)"/>
     <use xlink:href="#DejaVuSans-Bold-6c" transform="translate(214.160156 0)"/>
     <use xlink:href="#DejaVuSans-Bold-65" transform="translate(248.4375 0)"/>
     <use xlink:href="#DejaVuSans-Bold-6f" transform="translate(316.259766 0)"/>
     <use xlink:href="#DejaVuSans-Bold-74" transform="translate(384.960938 0)"/>
     <use xlink:href="#DejaVuSans-Bold-69" transform="translate(432.763672 0)"/>
     <use xlink:href="#DejaVuSans-Bold-64" transform="translate(467.041016 0)"/>
     <use xlink:href="#DejaVuSans-Bold-65" transform="translate(538.623047 0)"/>
     <use xlink:href="#DejaVuSans-Bold-3a" transform="translate(606.445312 0)"/>
    </g>
   </g>
   <g id="text_11">
    <!-- AUG -->
    <g style="fill: #ffffff" transform="translate(144.016326 200.549656) scale(0.1 -0.1)">
     <use xlink:href="#DejaVuSans-Bold-41"/>
     <use xlink:href="#DejaVuSans-Bold-55" transform="translate(74.267578 0)"/>
     <use xlink:href="#DejaVuSans-Bold-47" transform="translate(155.46875 0)"/>
    </g>
   </g>
   <g id="text_12">
    <!-- CAU -->
    <g style="fill: #ffffff" transform="translate(270.525581 200.549656) scale(0.1 -0.1)">
     <use xlink:href="#DejaVuSans-Bold-43"/>
     <use xlink:href="#DejaVuSans-Bold-41" transform="translate(73.388672 0)"/>
     <use xlink:href="#DejaVuSans-Bold-55" transform="translate(147.65625 0)"/>
    </g>
   </g>
   <g id="text_13">
    <!-- GGC -->
    <g style="fill: #ffffff" transform="translate(396.166086 200.549656) scale(0.1 -0.1)">
     <use xlink:href="#DejaVuSans-Bold-47"/>
     <use xlink:href="#DejaVuSans-Bold-47" transform="translate(82.080078 0)"/>
     <use xlink:href="#DejaVuSans-Bold-43" transform="translate(164.160156 0)"/>
    </g>
   </g>
   <g id="text_14">
    <!-- Codon: -->
    <g transform="translate(32.489063 197.790281) scale(0.1 -0.1)">
     <defs>
      <path id="DejaVuSans-Bold-6e" d="M 4056 2131 
L 4056 0 
L 2931 0 
L 2931 347 
L 2931 1631 
Q 2931 2084 2911 2256 
Q 2891 2428 2841 2509 
Q 2775 2619 2662 2680 
Q 2550 2741 2406 2741 
Q 2056 2741 1856 2470 
Q 1656 2200 1656 1722 
L 1656 0 
L 538 0 
L 538 3500 
L 1656 3500 
L 1656 2988 
Q 1909 3294 2193 3439 
Q 2478 3584 2822 3584 
Q 3428 3584 3742 3212 
Q 4056 2841 4056 2131 
z
" transform="scale(0.015625)"/>
     </defs>
     <use xlink:href="#DejaVuSans-Bold-43"/>
     <use xlink:href="#DejaVuSans-Bold-6f" transform="translate(73.388672 0)"/>
     <use xlink:href="#DejaVuSans-Bold-64" transform="translate(142.089844 0)"/>
     <use xlink:href="#DejaVuSans-Bold-6f" transform="translate(213.671875 0)"/>
     <use xlink:href="#DejaVuSans-Bold-6e" transform="translate(282.373047 0)"/>
     <use xlink:href="#DejaVuSans-Bold-3a" transform="translate(353.564453 0)"/>
    </g>
   </g>
   <g id="text_15">
    <!-- A. Nucleotide vs Codon Tokenization -->
    <g transform="translate(29.81879 15.558281) scale(0.11 -0.11)">
     <defs>
      <path id="DejaVuSans-Bold-2e" d="M 653 1209 
L 1778 1209 
L 1778 0 
L 653 0 
L 653 1209 
z
" transform="scale(0.015625)"/>
      <path id="DejaVuSans-Bold-20" transform="scale(0.015625)"/>
      <path id="DejaVuSans-Bold-76" d="M 97 3500 
L 1216 3500 
L 2088 1081 
L 2956 3500 
L 4078 3500 
L 2700 0 
L 1472 0 
L 97 3500 
z
" transform="scale(0.015625)"/>
      <path id="DejaVuSans-Bold-73" d="M 3272 3391 
L 3272 2541 
Q 2913 2691 2578 2766 
Q 2244 2841 1947 2841 
Q 1628 2841 1473 2761 
Q 1319 2681 1319 2516 
Q 1319 2381 1436 2309 
Q 1553 2238 1856 2203 
L 2053 2175 
Q 2913 2066 3209 1816 
Q 3506 1566 3506 1031 
Q 3506 472 3093 190 
Q 2681 -91 1863 -91 
Q 1516 -91 1145 -36 
Q 775 19 384 128 
L 384 978 
Q 719 816 1070 734 
Q 1422 653 1784 653 
Q 2113 653 2278 743 
Q 2444 834 2444 1013 
Q 2444 1163 2330 1236 
Q 2216 1309 1875 1350 
L 1678 1375 
Q 931 1469 631 1722 
Q 331 1975 331 2491 
Q 331 3047 712 3315 
Q 1094 3584 1881 3584 
Q 2191 3584 2531 3537 
Q 2872 3491 3272 3391 
z
" transform="scale(0.015625)"/>
      <path id="DejaVuSans-Bold-54" d="M 31 4666 
L 4331 4666 
L 4331 3756 
L 2784 3756 
L 2784 0 
L 1581 0 
L 1581 3756 
L 31 3756 
L 31 4666 
z
" transform="scale(0.015625)"/>
      <path id="DejaVuSans-Bold-6b" d="M 538 4863 
L 1656 4863 
L 1656 2216 
L 2944 3500 
L 4244 3500 
L 2534 1894 
L 4378 0 
L 3022 0 
L 1656 1459 
L 1656 0 
L 538 0 
L 538 4863 
z
" transform="scale(0.015625)"/>
      <path id="DejaVuSans-Bold-7a" d="M 366 3500 
L 3419 3500 
L 3419 2719 
L 1575 800 
L 3419 800 
L 3419 0 
L 288 0 
L 288 781 
L 2131 2700 
L 366 2700 
L 366 3500 
z
" transform="scale(0.015625)"/>
      <path id="DejaVuSans-Bold-61" d="M 2106 1575 
Q 1756 1575 1579 1456 
Q 1403 1338 1403 1106 
Q 1403 894 1545 773 
Q 1688 653 1941 653 
Q 2256 653 2472 879 
Q 2688 1106 2688 1447 
L 2688 1575 
L 2106 1575 
z
M 3816 1997 
L 3816 0 
L 2688 0 
L 2688 519 
Q 2463 200 2181 54 
Q 1900 -91 1497 -91 
Q 953 -91 614 226 
Q 275 544 275 1050 
Q 275 1666 698 1953 
Q 1122 2241 2028 2241 
L 2688 2241 
L 2688 2328 
Q 2688 2594 2478 2717 
Q 2269 2841 1825 2841 
Q 1466 2841 1156 2769 
Q 847 2697 581 2553 
L 581 3406 
Q 941 3494 1303 3539 
Q 1666 3584 2028 3584 
Q 2975 3584 3395 3211 
Q 3816 2838 3816 1997 
z
" transform="scale(0.015625)"/>
     </defs>
     <use xlink:href="#DejaVuSans-Bold-41"/>
     <use xlink:href="#DejaVuSans-Bold-2e" transform="translate(79.267578 0)"/>
     <use xlink:href="#DejaVuSans-Bold-20" transform="translate(117.255859 0)"/>
     <use xlink:href="#DejaVuSans-Bold-4e" transform="translate(152.070312 0)"/>
     <use xlink:href="#DejaVuSans-Bold-75" transform="translate(235.761719 0)"/>
     <use xlink:href="#DejaVuSans-Bold-63" transform="translate(306.953125 0)"/>
     <use xlink:href="#DejaVuSans-Bold-6c" transform="translate(366.230469 0)"/>
     <use xlink:href="#DejaVuSans-Bold-65" transform="translate(400.507812 0)"/>
     <use xlink:href="#DejaVuSans-Bold-6f" transform="translate(468.330078 0)"/>
     <use xlink:href="#DejaVuSans-Bold-74" transform="translate(537.03125 0)"/>
     <use xlink:href="#DejaVuSans-Bold-69" transform="translate(584.833984 0)"/>
     <use xlink:href="#DejaVuSans-Bold-64" transform="translate(619.111328 0)"/>
     <use xlink:href="#DejaVuSans-Bold-65" transform="translate(690.693359 0)"/>
     <use xlink:href="#DejaVuSans-Bold-20" transform="translate(758.515625 0)"/>
     <use xlink:href="#DejaVuSans-Bold-76" transform="translate(793.330078 0)"/>
     <use xlink:href="#DejaVuSans-Bold-73" transform="translate(858.515625 0)"/>
     <use xlink:href="#DejaVuSans-Bold-20" transform="translate(918.037109 0)"/>
     <use xlink:href="#DejaVuSans-Bold-43" transform="translate(952.851562 0)"/>
     <use xlink:href="#DejaVuSans-Bold-6f" transform="translate(1026.240234 0)"/>
     <use xlink:href="#DejaVuSans-Bold-64" transform="translate(1094.941406 0)"/>
     <use xlink:href="#DejaVuSans-Bold-6f" transform="translate(1166.523438 0)"/>
     <use xlink:href="#DejaVuSans-Bold-6e" transform="translate(1235.224609 0)"/>
     <use xlink:href="#DejaVuSans-Bold-20" transform="translate(1306.416016 0)"/>
     <use xlink:href="#DejaVuSans-Bold-54" transform="translate(1341.230469 0)"/>
     <use xlink:href="#DejaVuSans-Bold-6f" transform="translate(1396.193359 0)"/>
     <use xlink:href="#DejaVuSans-Bold-6b" transform="translate(1464.894531 0)"/>
     <use xlink:href="#DejaVuSans-Bold-65" transform="translate(1528.773438 0)"/>
     <use xlink:href="#DejaVuSans-Bold-6e" transform="translate(1596.595703 0)"/>
     <use xlink:href="#DejaVuSans-Bold-69" transform="translate(1667.787109 0)"/>
     <use xlink:href="#DejaVuSans-Bold-7a" transform="translate(1702.064453 0)"/>
     <use xlink:href="#DejaVuSans-Bold-61" transform="translate(1760.267578 0)"/>
     <use xlink:href="#DejaVuSans-Bold-74" transform="translate(1827.748047 0)"/>
     <use xlink:href="#DejaVuSans-Bold-69" transform="translate(1875.550781 0)"/>
     <use xlink:href="#DejaVuSans-Bold-6f" transform="translate(1909.828125 0)"/>
     <use xlink:href="#DejaVuSans-Bold-6e" transform="translate(1978.529297 0)"/>
    </g>
   </g>
  </g>
 </g>
 <defs>
  <clipPath id="pf3a13353dd">
   <rect x="29.81879" y="21.558281" width="525.312" height="251.76"/>
  </clipPath>
 </defs>
</svg>
