<?xml version="1.0" encoding="UTF-8" standalone="no"?>
<!DOCTYPE svg PUBLIC "-//W3C//DTD SVG 1.1//EN"
 "http://www.w3.org/Graphics/SVG/1.1/DTD/svg11.dtd">
<!-- Generated by graphviz version 2.43.0 (0)
 -->
<!-- Title: data_ecosystem Pages: 1 -->
<svg width="720pt" height="380pt"
 viewBox="0.00 0.00 720.00 380.11" xmlns="http://www.w3.org/2000/svg" xmlns:xlink="http://www.w3.org/1999/xlink">
<g id="graph0" class="graph" transform="scale(0.99 0.99) rotate(0) translate(4 380.33)">
<title>data_ecosystem</title>
<polygon fill="white" stroke="transparent" points="-4,4 -4,-380.33 724,-380.33 724,4 -4,4"/>
<g id="clust1" class="cluster">
<title>cluster_reference</title>
<path fill="#e8f4f8" stroke="#1f77b4" d="M105,-284.25C105,-284.25 700,-284.25 700,-284.25 706,-284.25 712,-290.25 712,-296.25 712,-296.25 712,-356.33 712,-356.33 712,-362.33 706,-368.33 700,-368.33 700,-368.33 105,-368.33 105,-368.33 99,-368.33 93,-362.33 93,-356.33 93,-356.33 93,-296.25 93,-296.25 93,-290.25 99,-284.25 105,-284.25"/>
<text text-anchor="middle" x="176" y="-355.53" font-family="Arial" font-size="11.00" fill="#1f77b4">Layer 1: Reference Foundation</text>
</g>
<g id="clust2" class="cluster">
<title>cluster_population</title>
<path fill="#f0f8e8" stroke="#2ca02c" d="M20,-192.17C20,-192.17 614,-192.17 614,-192.17 620,-192.17 626,-198.17 626,-204.17 626,-204.17 626,-264.25 626,-264.25 626,-270.25 620,-276.25 614,-276.25 614,-276.25 20,-276.25 20,-276.25 14,-276.25 8,-270.25 8,-264.25 8,-264.25 8,-204.17 8,-204.17 8,-198.17 14,-192.17 20,-192.17"/>
<text text-anchor="middle" x="91.5" y="-263.45" font-family="Arial" font-size="11.00" fill="#2ca02c">Layer 2: Population &amp; Biobanks</text>
</g>
<g id="clust3" class="cluster">
<title>cluster_functional</title>
<path fill="#fff8e8" stroke="#ff7f0e" d="M157,-100.08C157,-100.08 700,-100.08 700,-100.08 706,-100.08 712,-106.08 712,-112.08 712,-112.08 712,-172.17 712,-172.17 712,-178.17 706,-184.17 700,-184.17 700,-184.17 157,-184.17 157,-184.17 151,-184.17 145,-178.17 145,-172.17 145,-172.17 145,-112.08 145,-112.08 145,-106.08 151,-100.08 157,-100.08"/>
<text text-anchor="middle" x="224.5" y="-171.37" font-family="Arial" font-size="11.00" fill="#ff7f0e">Layer 3: Functional Genomics</text>
</g>
<g id="clust4" class="cluster">
<title>cluster_clinical</title>
<path fill="#f8f0f8" stroke="#9467bd" d="M20,-8C20,-8 596,-8 596,-8 602,-8 608,-14 608,-20 608,-20 608,-80.08 608,-80.08 608,-86.08 602,-92.08 596,-92.08 596,-92.08 20,-92.08 20,-92.08 14,-92.08 8,-86.08 8,-80.08 8,-80.08 8,-20 8,-20 8,-14 14,-8 20,-8"/>
<text text-anchor="middle" x="88" y="-79.28" font-family="Arial" font-size="11.00" fill="#9467bd">Layer 4: Clinical Interpretation</text>
</g>
<!-- grch38 -->
<g id="node1" class="node">
<title>grch38</title>
<ellipse fill="#aec7e8" stroke="#333333" stroke-width="1.5" cx="659" cy="-316.29" rx="45.01" ry="24.08"/>
<text text-anchor="middle" x="659" y="-319.29" font-family="Arial" font-size="10.00">GRCh38</text>
<text text-anchor="middle" x="659" y="-308.29" font-family="Arial" font-size="10.00">Reference</text>
</g>
<!-- gnomad -->
<g id="node5" class="node">
<title>gnomad</title>
<ellipse fill="#98df8a" stroke="#333333" stroke-width="1.5" cx="548" cy="-224.21" rx="70.01" ry="24.08"/>
<text text-anchor="middle" x="548" y="-227.21" font-family="Arial" font-size="10.00">gnomAD</text>
<text text-anchor="middle" x="548" y="-216.21" font-family="Arial" font-size="10.00">Allele Frequencies</text>
</g>
<!-- grch38&#45;&gt;gnomad -->
<g id="edge1" class="edge">
<title>grch38&#45;&gt;gnomad</title>
<path fill="none" stroke="#888888" stroke-dasharray="5,2" d="M634.91,-295.74C618.87,-282.73 597.61,-265.47 580.14,-251.29"/>
<polygon fill="#888888" stroke="#888888" points="581.35,-249.12 574.37,-246.61 578.26,-252.92 581.35,-249.12"/>
</g>
<!-- t2t -->
<g id="node2" class="node">
<title>t2t</title>
<ellipse fill="#aec7e8" stroke="#333333" stroke-width="1.5" cx="506" cy="-316.29" rx="79.39" ry="24.08"/>
<text text-anchor="middle" x="506" y="-319.29" font-family="Arial" font-size="10.00">T2T&#45;CHM13</text>
<text text-anchor="middle" x="506" y="-308.29" font-family="Arial" font-size="10.00">Telomere&#45;to&#45;Telomere</text>
</g>
<!-- gencode -->
<g id="node3" class="node">
<title>gencode</title>
<ellipse fill="#aec7e8" stroke="#333333" stroke-width="1.5" cx="344" cy="-316.29" rx="53.98" ry="24.08"/>
<text text-anchor="middle" x="344" y="-319.29" font-family="Arial" font-size="10.00">GENCODE</text>
<text text-anchor="middle" x="344" y="-308.29" font-family="Arial" font-size="10.00">Gene Models</text>
</g>
<!-- 1kg -->
<g id="node6" class="node">
<title>1kg</title>
<ellipse fill="#98df8a" stroke="#333333" stroke-width="1.5" cx="381" cy="-224.21" rx="67.76" ry="24.08"/>
<text text-anchor="middle" x="381" y="-227.21" font-family="Arial" font-size="10.00">1000 Genomes</text>
<text text-anchor="middle" x="381" y="-216.21" font-family="Arial" font-size="10.00">Haplotype Panels</text>
</g>
<!-- gencode&#45;&gt;1kg -->
<g id="edge2" class="edge">
<title>gencode&#45;&gt;1kg</title>
<path fill="none" stroke="#888888" stroke-dasharray="5,2" d="M353.34,-292.56C358.03,-281.13 363.78,-267.12 368.82,-254.86"/>
<polygon fill="#888888" stroke="#888888" points="371.14,-255.65 371.54,-248.25 366.61,-253.79 371.14,-255.65"/>
</g>
<!-- mane -->
<g id="node4" class="node">
<title>mane</title>
<ellipse fill="#aec7e8" stroke="#333333" stroke-width="1.5" cx="181" cy="-316.29" rx="79.81" ry="24.08"/>
<text text-anchor="middle" x="181" y="-319.29" font-family="Arial" font-size="10.00">MANE Select</text>
<text text-anchor="middle" x="181" y="-308.29" font-family="Arial" font-size="10.00">Canonical Transcripts</text>
</g>
<!-- ukbb -->
<g id="node7" class="node">
<title>ukbb</title>
<ellipse fill="#98df8a" stroke="#333333" stroke-width="1.5" cx="227" cy="-224.21" rx="57.05" ry="24.08"/>
<text text-anchor="middle" x="227" y="-227.21" font-family="Arial" font-size="10.00">UK Biobank</text>
<text text-anchor="middle" x="227" y="-216.21" font-family="Arial" font-size="10.00">GWAS Cohort</text>
</g>
<!-- mane&#45;&gt;ukbb -->
<g id="edge3" class="edge">
<title>mane&#45;&gt;ukbb</title>
<path fill="none" stroke="#888888" stroke-dasharray="5,2" d="M192.85,-292.09C198.69,-280.66 205.79,-266.74 212.01,-254.57"/>
<polygon fill="#888888" stroke="#888888" points="214.35,-255.36 215.35,-248.02 209.99,-253.14 214.35,-255.36"/>
</g>
<!-- encode -->
<g id="node9" class="node">
<title>encode</title>
<ellipse fill="#ffbb78" stroke="#333333" stroke-width="1.5" cx="617" cy="-132.12" rx="86.95" ry="24.08"/>
<text text-anchor="middle" x="617" y="-135.12" font-family="Arial" font-size="10.00">ENCODE</text>
<text text-anchor="middle" x="617" y="-124.12" font-family="Arial" font-size="10.00">Chromatin &amp; TF Binding</text>
</g>
<!-- gnomad&#45;&gt;encode -->
<g id="edge4" class="edge">
<title>gnomad&#45;&gt;encode</title>
<path fill="none" stroke="#888888" stroke-dasharray="5,2" d="M565.41,-200.48C574.48,-188.63 585.66,-174.04 595.29,-161.47"/>
<polygon fill="#888888" stroke="#888888" points="597.28,-162.9 599.59,-155.85 593.39,-159.92 597.28,-162.9"/>
</g>
<!-- gtex -->
<g id="node11" class="node">
<title>gtex</title>
<ellipse fill="#ffbb78" stroke="#333333" stroke-width="1.5" cx="332" cy="-132.12" rx="33.88" ry="24.08"/>
<text text-anchor="middle" x="332" y="-135.12" font-family="Arial" font-size="10.00">GTEx</text>
<text text-anchor="middle" x="332" y="-124.12" font-family="Arial" font-size="10.00">eQTLs</text>
</g>
<!-- 1kg&#45;&gt;gtex -->
<g id="edge5" class="edge">
<title>1kg&#45;&gt;gtex</title>
<path fill="none" stroke="#888888" stroke-dasharray="5,2" d="M368.64,-200.48C362.16,-188.58 354.18,-173.91 347.32,-161.3"/>
<polygon fill="#888888" stroke="#888888" points="349.35,-159.9 343.85,-154.92 345.05,-162.24 349.35,-159.9"/>
</g>
<!-- dms -->
<g id="node12" class="node">
<title>dms</title>
<ellipse fill="#ffbb78" stroke="#333333" stroke-width="1.5" cx="211" cy="-132.12" rx="57.97" ry="24.08"/>
<text text-anchor="middle" x="211" y="-135.12" font-family="Arial" font-size="10.00">DMS</text>
<text text-anchor="middle" x="211" y="-124.12" font-family="Arial" font-size="10.00">Variant Effects</text>
</g>
<!-- ukbb&#45;&gt;dms -->
<g id="edge6" class="edge">
<title>ukbb&#45;&gt;dms</title>
<path fill="none" stroke="#888888" stroke-dasharray="5,2" d="M222.88,-200.01C220.9,-188.87 218.51,-175.38 216.38,-163.44"/>
<polygon fill="#888888" stroke="#888888" points="218.74,-162.71 215.11,-156.24 213.92,-163.57 218.74,-162.71"/>
</g>
<!-- allofus -->
<g id="node8" class="node">
<title>allofus</title>
<ellipse fill="#98df8a" stroke="#333333" stroke-width="1.5" cx="78" cy="-224.21" rx="62.45" ry="24.08"/>
<text text-anchor="middle" x="78" y="-227.21" font-family="Arial" font-size="10.00">All of Us</text>
<text text-anchor="middle" x="78" y="-216.21" font-family="Arial" font-size="10.00">Diversity Focus</text>
</g>
<!-- clinvar -->
<g id="node13" class="node">
<title>clinvar</title>
<ellipse fill="#c5b0d5" stroke="#333333" stroke-width="1.5" cx="545" cy="-40.04" rx="55.31" ry="24.08"/>
<text text-anchor="middle" x="545" y="-43.04" font-family="Arial" font-size="10.00">ClinVar</text>
<text text-anchor="middle" x="545" y="-32.04" font-family="Arial" font-size="10.00">Pathogenicity</text>
</g>
<!-- encode&#45;&gt;clinvar -->
<g id="edge7" class="edge">
<title>encode&#45;&gt;clinvar</title>
<path fill="none" stroke="#888888" stroke-dasharray="5,2" d="M598.83,-108.39C589.22,-96.37 577.34,-81.51 567.19,-68.81"/>
<polygon fill="#888888" stroke="#888888" points="568.95,-67.08 562.67,-63.14 565.12,-70.14 568.95,-67.08"/>
</g>
<!-- roadmap -->
<g id="node10" class="node">
<title>roadmap</title>
<ellipse fill="#ffbb78" stroke="#333333" stroke-width="1.5" cx="448" cy="-132.12" rx="53.07" ry="24.08"/>
<text text-anchor="middle" x="448" y="-135.12" font-family="Arial" font-size="10.00">Roadmap</text>
<text text-anchor="middle" x="448" y="-124.12" font-family="Arial" font-size="10.00">Epigenomics</text>
</g>
<!-- clingen -->
<g id="node14" class="node">
<title>clingen</title>
<ellipse fill="#c5b0d5" stroke="#333333" stroke-width="1.5" cx="399" cy="-40.04" rx="61.54" ry="24.08"/>
<text text-anchor="middle" x="399" y="-43.04" font-family="Arial" font-size="10.00">ClinGen</text>
<text text-anchor="middle" x="399" y="-32.04" font-family="Arial" font-size="10.00">Expert Curation</text>
</g>
<!-- gtex&#45;&gt;clingen -->
<g id="edge8" class="edge">
<title>gtex&#45;&gt;clingen</title>
<path fill="none" stroke="#888888" stroke-dasharray="5,2" d="M347.54,-110.23C356.59,-98.06 368.13,-82.55 377.98,-69.3"/>
<polygon fill="#888888" stroke="#888888" points="380.16,-70.48 382.37,-63.4 376.23,-67.55 380.16,-70.48"/>
</g>
<!-- pharmgkb -->
<g id="node15" class="node">
<title>pharmgkb</title>
<ellipse fill="#c5b0d5" stroke="#333333" stroke-width="1.5" cx="234" cy="-40.04" rx="74.49" ry="24.08"/>
<text text-anchor="middle" x="234" y="-43.04" font-family="Arial" font-size="10.00">PharmGKB</text>
<text text-anchor="middle" x="234" y="-32.04" font-family="Arial" font-size="10.00">Pharmacogenomics</text>
</g>
<!-- dms&#45;&gt;pharmgkb -->
<g id="edge9" class="edge">
<title>dms&#45;&gt;pharmgkb</title>
<path fill="none" stroke="#888888" stroke-dasharray="5,2" d="M216.92,-107.93C219.79,-96.68 223.28,-83.04 226.35,-71.02"/>
<polygon fill="#888888" stroke="#888888" points="228.74,-71.55 228.1,-64.16 223.99,-70.34 228.74,-71.55"/>
</g>
<!-- omim -->
<g id="node16" class="node">
<title>omim</title>
<ellipse fill="#c5b0d5" stroke="#333333" stroke-width="1.5" cx="73" cy="-40.04" rx="57.05" ry="24.08"/>
<text text-anchor="middle" x="73" y="-43.04" font-family="Arial" font-size="10.00">OMIM</text>
<text text-anchor="middle" x="73" y="-32.04" font-family="Arial" font-size="10.00">Gene&#45;Disease</text>
</g>
</g>
</svg>
