<?xml version="1.0" encoding="utf-8" ?>
<svg xmlns="http://www.w3.org/2000/svg" xmlns:ev="http://www.w3.org/2001/xml-events" xmlns:xlink="http://www.w3.org/1999/xlink" baseProfile="full" height="800" version="1.1" width="1200">
  <defs>
    <marker id="id173" markerHeight="7" markerWidth="7" orient="auto" refX="6" refY="3">
      <path d="M0,0 L0,6 L6,3 z" fill="#333333"/>
    </marker>
  </defs>
  <rect fill="white" height="800" width="1200" x="0" y="0"/>
  <text fill="#111" font-family="Arial, Helvetica, sans-serif" font-size="28" font-weight="700" x="60" y="50">Figure 17.2: AlphaMissense Architecture (Four-Panel)</text>
  <text fill="#444" font-family="Arial, Helvetica, sans-serif" font-size="16" x="60" y="78">Panel A</text>
  <line stroke="#333" stroke-width="2" x1="140" x2="1000" y1="720" y2="720"/>
  <line stroke="#333" stroke-width="2" x1="140" x2="140" y1="160" y2="720"/>
  <circle cx="394.5179360675246" cy="494.6249719228222" fill="#ff7f0e" opacity="0.75" r="4"/>
  <circle cx="422.91521281624864" cy="492.0947123354832" fill="#ff7f0e" opacity="0.75" r="4"/>
  <circle cx="433.1949530195801" cy="557.4560575964307" fill="#2ca02c" opacity="0.75" r="4"/>
  <circle cx="482.6661777217051" cy="608.5484643594571" fill="#2ca02c" opacity="0.75" r="4"/>
  <circle cx="392.28347845748084" cy="528.7356282813421" fill="#2ca02c" opacity="0.75" r="4"/>
  <circle cx="473.549698568295" cy="495.4645327051235" fill="#ff7f0e" opacity="0.75" r="4"/>
  <circle cx="443.6894946205807" cy="582.4573371642906" fill="#2ca02c" opacity="0.75" r="4"/>
  <circle cx="312.58287827088145" cy="543.5027562237805" fill="#ff7f0e" opacity="0.75" r="4"/>
  <circle cx="344.6553739432668" cy="544.081127011438" fill="#ff7f0e" opacity="0.75" r="4"/>
  <circle cx="492.4370507885069" cy="589.3630781218017" fill="#2ca02c" opacity="0.75" r="4"/>
  <circle cx="417.15919663900615" cy="452.48951491886385" fill="#1f77b4" opacity="0.75" r="4"/>
  <circle cx="522.6646292132864" cy="487.5906798086936" fill="#ff7f0e" opacity="0.75" r="4"/>
  <circle cx="398.0572661124406" cy="596.352837540592" fill="#ff7f0e" opacity="0.75" r="4"/>
  <circle cx="456.3372226986017" cy="486.75786720146" fill="#2ca02c" opacity="0.75" r="4"/>
  <circle cx="563.2504423415311" cy="516.3865533965829" fill="#1f77b4" opacity="0.75" r="4"/>
  <circle cx="408.060826339405" cy="577.4050662678728" fill="#ff7f0e" opacity="0.75" r="4"/>
  <circle cx="434.012146985979" cy="585.5198138788852" fill="#1f77b4" opacity="0.75" r="4"/>
  <circle cx="372.92689375717373" cy="522.0429054774754" fill="#ff7f0e" opacity="0.75" r="4"/>
  <circle cx="454.9687037729189" cy="508.14353111180594" fill="#ff7f0e" opacity="0.75" r="4"/>
  <circle cx="454.6695693907931" cy="517.0086402417185" fill="#ff7f0e" opacity="0.75" r="4"/>
  <circle cx="506.1668518766774" cy="473.7840830553822" fill="#1f77b4" opacity="0.75" r="4"/>
  <circle cx="461.08936096079924" cy="531.8264158539466" fill="#1f77b4" opacity="0.75" r="4"/>
  <circle cx="353.2702308937029" cy="521.3998178791737" fill="#ff7f0e" opacity="0.75" r="4"/>
  <circle cx="445.3842656884462" cy="550.9568868476141" fill="#ff7f0e" opacity="0.75" r="4"/>
  <circle cx="385.3368279815676" cy="520.3773863441254" fill="#ff7f0e" opacity="0.75" r="4"/>
  <circle cx="399.5125391097349" cy="510.4898689013284" fill="#2ca02c" opacity="0.75" r="4"/>
  <circle cx="337.0565908510796" cy="485.2689629575323" fill="#1f77b4" opacity="0.75" r="4"/>
  <circle cx="380.10859209323735" cy="537.3916442494087" fill="#1f77b4" opacity="0.75" r="4"/>
  <circle cx="364.29935506446674" cy="604.5716745583698" fill="#ff7f0e" opacity="0.75" r="4"/>
  <circle cx="475.78025145187905" cy="496.70627710704395" fill="#1f77b4" opacity="0.75" r="4"/>
  <circle cx="429.33476427174077" cy="525.1520460383819" fill="#ff7f0e" opacity="0.75" r="4"/>
  <circle cx="415.4041973346718" cy="500.25184119931157" fill="#ff7f0e" opacity="0.75" r="4"/>
  <circle cx="409.5921892823447" cy="538.5112389529011" fill="#ff7f0e" opacity="0.75" r="4"/>
  <circle cx="376.9818409840775" cy="572.7433476980422" fill="#2ca02c" opacity="0.75" r="4"/>
  <circle cx="498.7291119964917" cy="533.3212749648883" fill="#2ca02c" opacity="0.75" r="4"/>
  <circle cx="351.7739722308885" cy="524.991330914373" fill="#2ca02c" opacity="0.75" r="4"/>
  <circle cx="458.0887069045037" cy="548.9068599289196" fill="#2ca02c" opacity="0.75" r="4"/>
  <circle cx="328.1950077191692" cy="530.4587922810219" fill="#ff7f0e" opacity="0.75" r="4"/>
  <circle cx="408.99374151798037" cy="540.1062959207048" fill="#2ca02c" opacity="0.75" r="4"/>
  <circle cx="506.6735080380567" cy="487.7900510241277" fill="#1f77b4" opacity="0.75" r="4"/>
  <circle cx="369.5675609831726" cy="485.2732574506271" fill="#ff7f0e" opacity="0.75" r="4"/>
  <circle cx="301.9305300354878" cy="496.47969595833075" fill="#1f77b4" opacity="0.75" r="4"/>
  <circle cx="479.6076046782897" cy="557.8556597366437" fill="#1f77b4" opacity="0.75" r="4"/>
  <circle cx="339.65256290376203" cy="464.1180296725001" fill="#ff7f0e" opacity="0.75" r="4"/>
  <circle cx="494.66080194475177" cy="504.04854815092796" fill="#ff7f0e" opacity="0.75" r="4"/>
  <circle cx="421.9402568853021" cy="573.6335956000778" fill="#2ca02c" opacity="0.75" r="4"/>
  <circle cx="414.8364348026854" cy="467.8431707857997" fill="#1f77b4" opacity="0.75" r="4"/>
  <circle cx="355.9363978646763" cy="505.42890459271695" fill="#ff7f0e" opacity="0.75" r="4"/>
  <circle cx="430.5987440489376" cy="522.5076715773789" fill="#2ca02c" opacity="0.75" r="4"/>
  <circle cx="511.61209632581176" cy="493.17882716525787" fill="#1f77b4" opacity="0.75" r="4"/>
  <circle cx="308.21963191139594" cy="470.14873703042485" fill="#2ca02c" opacity="0.75" r="4"/>
  <circle cx="384.5408552782251" cy="564.9749998946075" fill="#1f77b4" opacity="0.75" r="4"/>
  <circle cx="284.7005108990449" cy="595.155034664641" fill="#1f77b4" opacity="0.75" r="4"/>
  <circle cx="440.20386530824214" cy="563.0902529623063" fill="#1f77b4" opacity="0.75" r="4"/>
  <circle cx="337.1372906341907" cy="509.76428714519665" fill="#2ca02c" opacity="0.75" r="4"/>
  <circle cx="559.5167381852294" cy="367.0551392632041" fill="#ff7f0e" opacity="0.75" r="4"/>
  <circle cx="754.3734116585756" cy="403.28949502333546" fill="#ff7f0e" opacity="0.75" r="4"/>
  <circle cx="608.2050480558333" cy="452.5637523504074" fill="#1f77b4" opacity="0.75" r="4"/>
  <circle cx="561.8360206937248" cy="322.441275167512" fill="#2ca02c" opacity="0.75" r="4"/>
  <circle cx="675.4795002200029" cy="458.4479083803292" fill="#ff7f0e" opacity="0.75" r="4"/>
  <circle cx="601.7545980137395" cy="411.1848473704481" fill="#ff7f0e" opacity="0.75" r="4"/>
  <circle cx="721.3826003339803" cy="464.4366040561024" fill="#ff7f0e" opacity="0.75" r="4"/>
  <circle cx="645.9472182808145" cy="299.4077506749178" fill="#2ca02c" opacity="0.75" r="4"/>
  <circle cx="693.5404244236314" cy="419.82337155496833" fill="#ff7f0e" opacity="0.75" r="4"/>
  <circle cx="719.5794109237218" cy="432.9612158730756" fill="#ff7f0e" opacity="0.75" r="4"/>
  <circle cx="632.4279982238967" cy="522.247214932408" fill="#ff7f0e" opacity="0.75" r="4"/>
  <circle cx="574.2533558606541" cy="471.0193352923804" fill="#ff7f0e" opacity="0.75" r="4"/>
  <circle cx="542.8282636965047" cy="429.9140188415109" fill="#1f77b4" opacity="0.75" r="4"/>
  <circle cx="641.0565450958459" cy="409.74672655858353" fill="#1f77b4" opacity="0.75" r="4"/>
  <circle cx="665.4692879396058" cy="414.18814619767" fill="#ff7f0e" opacity="0.75" r="4"/>
  <circle cx="647.2470173805991" cy="436.13070213424066" fill="#2ca02c" opacity="0.75" r="4"/>
  <circle cx="747.2173151431755" cy="415.93186917498156" fill="#ff7f0e" opacity="0.75" r="4"/>
  <circle cx="594.1587937658562" cy="503.7968881082937" fill="#ff7f0e" opacity="0.75" r="4"/>
  <circle cx="647.7710058561324" cy="380.1582286235117" fill="#1f77b4" opacity="0.75" r="4"/>
  <circle cx="561.7844759643629" cy="455.2207660335073" fill="#ff7f0e" opacity="0.75" r="4"/>
  <circle cx="665.0414370791634" cy="400.4919323488248" fill="#2ca02c" opacity="0.75" r="4"/>
  <circle cx="635.1407041598054" cy="442.84620405413455" fill="#2ca02c" opacity="0.75" r="4"/>
  <circle cx="748.092218710116" cy="434.71202533397644" fill="#1f77b4" opacity="0.75" r="4"/>
  <circle cx="685.6741843333522" cy="523.590265475385" fill="#ff7f0e" opacity="0.75" r="4"/>
  <circle cx="640.7117124264657" cy="374.07168891640345" fill="#2ca02c" opacity="0.75" r="4"/>
  <circle cx="676.9314779875621" cy="437.76653106400965" fill="#2ca02c" opacity="0.75" r="4"/>
  <circle cx="808.135214520152" cy="421.23696701678693" fill="#ff7f0e" opacity="0.75" r="4"/>
  <circle cx="589.284530535567" cy="446.9563838458198" fill="#1f77b4" opacity="0.75" r="4"/>
  <circle cx="733.0787477861307" cy="439.84348233396514" fill="#1f77b4" opacity="0.75" r="4"/>
  <circle cx="585.4575699974077" cy="395.50007969918914" fill="#1f77b4" opacity="0.75" r="4"/>
  <circle cx="634.0280534190279" cy="472.4606176838501" fill="#2ca02c" opacity="0.75" r="4"/>
  <circle cx="564.3955249416881" cy="402.30425455855635" fill="#1f77b4" opacity="0.75" r="4"/>
  <circle cx="782.8558358563877" cy="447.03489048760594" fill="#1f77b4" opacity="0.75" r="4"/>
  <circle cx="674.0424187983388" cy="378.6578580996861" fill="#ff7f0e" opacity="0.75" r="4"/>
  <circle cx="737.4612933156418" cy="377.113462849397" fill="#1f77b4" opacity="0.75" r="4"/>
  <circle cx="649.5031605850504" cy="427.0717614745316" fill="#2ca02c" opacity="0.75" r="4"/>
  <circle cx="623.2572675111572" cy="401.7943618855222" fill="#2ca02c" opacity="0.75" r="4"/>
  <circle cx="651.8466763565254" cy="428.2032781775115" fill="#ff7f0e" opacity="0.75" r="4"/>
  <circle cx="611.2365176783803" cy="415.9215966486607" fill="#1f77b4" opacity="0.75" r="4"/>
  <circle cx="602.201554745792" cy="456.53755951497703" fill="#ff7f0e" opacity="0.75" r="4"/>
  <circle cx="533.0893655294044" cy="446.0688485982615" fill="#1f77b4" opacity="0.75" r="4"/>
  <circle cx="709.633190386506" cy="420.03650897548937" fill="#2ca02c" opacity="0.75" r="4"/>
  <circle cx="693.415858037974" cy="527.7708505313051" fill="#1f77b4" opacity="0.75" r="4"/>
  <circle cx="681.6069929179567" cy="388.1357798988064" fill="#2ca02c" opacity="0.75" r="4"/>
  <circle cx="610.2798632360812" cy="432.4721923587883" fill="#ff7f0e" opacity="0.75" r="4"/>
  <circle cx="622.4496324119699" cy="384.0758606506298" fill="#1f77b4" opacity="0.75" r="4"/>
  <circle cx="601.5842073039876" cy="382.8463067109982" fill="#1f77b4" opacity="0.75" r="4"/>
  <circle cx="645.5968078823855" cy="338.4027979701017" fill="#2ca02c" opacity="0.75" r="4"/>
  <circle cx="700.1334328081451" cy="369.5878144052779" fill="#ff7f0e" opacity="0.75" r="4"/>
  <circle cx="743.4266538655038" cy="409.20637454158236" fill="#1f77b4" opacity="0.75" r="4"/>
  <circle cx="610.6244279487479" cy="447.0028753498173" fill="#ff7f0e" opacity="0.75" r="4"/>
  <circle cx="560.6867466387637" cy="402.24139476070104" fill="#2ca02c" opacity="0.75" r="4"/>
  <circle cx="808.1874413492196" cy="368.16420412064787" fill="#2ca02c" opacity="0.75" r="4"/>
  <circle cx="675.7700715263601" cy="388.1404426503208" fill="#1f77b4" opacity="0.75" r="4"/>
  <circle cx="678.9074859179915" cy="493.1174892799098" fill="#2ca02c" opacity="0.75" r="4"/>
  <circle cx="603.1316511109726" cy="615.7137096565111" fill="#2ca02c" opacity="0.75" r="4"/>
  <circle cx="494.8615821499122" cy="563.8997222200155" fill="#2ca02c" opacity="0.75" r="4"/>
  <circle cx="542.6724437297929" cy="543.8656644060839" fill="#ff7f0e" opacity="0.75" r="4"/>
  <circle cx="542.6876175213367" cy="639.8252088375508" fill="#1f77b4" opacity="0.75" r="4"/>
  <circle cx="525.346140642336" cy="553.9926709457826" fill="#2ca02c" opacity="0.75" r="4"/>
  <circle cx="543.1823165037861" cy="574.9817445207977" fill="#2ca02c" opacity="0.75" r="4"/>
  <circle cx="506.42027798304366" cy="555.7121800095537" fill="#1f77b4" opacity="0.75" r="4"/>
  <circle cx="616.4644492991599" cy="542.1748956044594" fill="#ff7f0e" opacity="0.75" r="4"/>
  <circle cx="589.2053661169391" cy="528.062514151416" fill="#1f77b4" opacity="0.75" r="4"/>
  <circle cx="571.9577562185793" cy="537.1724424994266" fill="#2ca02c" opacity="0.75" r="4"/>
  <circle cx="426.52664480505763" cy="546.9407505281918" fill="#ff7f0e" opacity="0.75" r="4"/>
  <circle cx="578.8587474668848" cy="573.810667663043" fill="#2ca02c" opacity="0.75" r="4"/>
  <circle cx="580.8356436923767" cy="577.9652370822225" fill="#2ca02c" opacity="0.75" r="4"/>
  <circle cx="522.3331282955331" cy="566.7238358240772" fill="#1f77b4" opacity="0.75" r="4"/>
  <circle cx="607.9040770028909" cy="591.744969766346" fill="#1f77b4" opacity="0.75" r="4"/>
  <circle cx="502.6605978570013" cy="580.1174324477521" fill="#2ca02c" opacity="0.75" r="4"/>
  <circle cx="522.8964234717625" cy="593.7184620505607" fill="#ff7f0e" opacity="0.75" r="4"/>
  <circle cx="534.9357016845203" cy="645.8893088471441" fill="#1f77b4" opacity="0.75" r="4"/>
  <circle cx="616.1330996062106" cy="658.2048950851665" fill="#ff7f0e" opacity="0.75" r="4"/>
  <circle cx="535.1374358150373" cy="539.6204775609622" fill="#1f77b4" opacity="0.75" r="4"/>
  <circle cx="589.4138188476054" cy="601.2304395581796" fill="#ff7f0e" opacity="0.75" r="4"/>
  <circle cx="505.65423143523697" cy="660.3992623289655" fill="#1f77b4" opacity="0.75" r="4"/>
  <circle cx="481.2271403676842" cy="591.8208250708635" fill="#1f77b4" opacity="0.75" r="4"/>
  <circle cx="559.0139215344279" cy="504.4153754841492" fill="#ff7f0e" opacity="0.75" r="4"/>
  <circle cx="527.0084512188316" cy="536.3843557339334" fill="#2ca02c" opacity="0.75" r="4"/>
  <circle cx="516.1191371996775" cy="629.7398532423088" fill="#2ca02c" opacity="0.75" r="4"/>
  <circle cx="499.79408173445796" cy="538.8560606937871" fill="#2ca02c" opacity="0.75" r="4"/>
  <circle cx="501.6100087615205" cy="629.7387793994902" fill="#ff7f0e" opacity="0.75" r="4"/>
  <circle cx="548.1629352126433" cy="631.1199353373063" fill="#1f77b4" opacity="0.75" r="4"/>
  <circle cx="568.9093570186226" cy="489.4071692327101" fill="#1f77b4" opacity="0.75" r="4"/>
  <circle cx="567.6551633796707" cy="557.0632115742999" fill="#1f77b4" opacity="0.75" r="4"/>
  <circle cx="572.4030237674228" cy="634.6368274844335" fill="#1f77b4" opacity="0.75" r="4"/>
  <circle cx="446.49509171826764" cy="671.9745301755834" fill="#ff7f0e" opacity="0.75" r="4"/>
  <circle cx="471.90534270627944" cy="556.2796083362903" fill="#1f77b4" opacity="0.75" r="4"/>
  <circle cx="408.52433241601733" cy="528.9073962186809" fill="#ff7f0e" opacity="0.75" r="4"/>
  <circle cx="430.19454632504056" cy="631.3749466768812" fill="#ff7f0e" opacity="0.75" r="4"/>
  <circle cx="441.7801372768805" cy="609.5032521003277" fill="#1f77b4" opacity="0.75" r="4"/>
  <circle cx="440.64777525154994" cy="627.1817989021185" fill="#ff7f0e" opacity="0.75" r="4"/>
  <circle cx="518.6493701645512" cy="623.6715241372084" fill="#ff7f0e" opacity="0.75" r="4"/>
  <circle cx="539.4258017961924" cy="575.80271058376" fill="#ff7f0e" opacity="0.75" r="4"/>
  <circle cx="507.7903273092837" cy="577.4710194437257" fill="#2ca02c" opacity="0.75" r="4"/>
  <circle cx="617.4517364525482" cy="533.2144610982443" fill="#ff7f0e" opacity="0.75" r="4"/>
  <circle cx="624.6818384363378" cy="614.126349729308" fill="#2ca02c" opacity="0.75" r="4"/>
  <circle cx="580.6769597525127" cy="628.4592251152699" fill="#2ca02c" opacity="0.75" r="4"/>
  <circle cx="575.6095285317617" cy="543.7818816517687" fill="#1f77b4" opacity="0.75" r="4"/>
  <circle cx="608.1651520689838" cy="518.3006005052258" fill="#1f77b4" opacity="0.75" r="4"/>
  <circle cx="548.8219859935418" cy="569.574445896091" fill="#1f77b4" opacity="0.75" r="4"/>
  <circle cx="598.5372047915744" cy="613.9362977631198" fill="#ff7f0e" opacity="0.75" r="4"/>
  <circle cx="554.5834697676244" cy="588.4265570786492" fill="#1f77b4" opacity="0.75" r="4"/>
  <circle cx="534.3022941997606" cy="613.1966398130646" fill="#ff7f0e" opacity="0.75" r="4"/>
  <circle cx="560.9738854050288" cy="541.3217501032173" fill="#2ca02c" opacity="0.75" r="4"/>
  <circle cx="587.3466240384896" cy="526.5091183131605" fill="#ff7f0e" opacity="0.75" r="4"/>
  <circle cx="603.966900031478" cy="594.518304903677" fill="#2ca02c" opacity="0.75" r="4"/>
  <circle cx="603.3584978680753" cy="624.4561647739217" fill="#ff7f0e" opacity="0.75" r="4"/>
  <circle cx="565.3782973090067" cy="582.0637938820765" fill="#2ca02c" opacity="0.75" r="4"/>
  <circle cx="914.0" cy="244.0" fill="#d62728" opacity="0.9" r="7"/>
  <text fill="#333" font-family="Arial, Helvetica, sans-serif" font-size="16" text-anchor="middle" x="570.0" y="765">Dimension 1</text>
  <text fill="#333" font-family="Arial, Helvetica, sans-serif" font-size="16" text-anchor="middle" transform="rotate(-90,85,440.0)" x="85" y="440.0">Dimension 2</text>
  <text fill="#999" font-family="Arial, Helvetica, sans-serif" font-size="12" text-anchor="end" x="1140" y="776">Auto-generated SVG</text>
</svg>
