<?xml version="1.0" encoding="utf-8" ?>
<svg xmlns="http://www.w3.org/2000/svg" xmlns:ev="http://www.w3.org/2001/xml-events" xmlns:xlink="http://www.w3.org/1999/xlink" baseProfile="full" height="800" version="1.1" width="1200">
  <defs>
    <marker id="id176" markerHeight="7" markerWidth="7" orient="auto" refX="6" refY="3">
      <path d="M0,0 L0,6 L6,3 z" fill="#333333"/>
    </marker>
  </defs>
  <rect fill="white" height="800" width="1200" x="0" y="0"/>
  <text fill="#111" font-family="Arial, Helvetica, sans-serif" font-size="28" font-weight="700" x="60" y="50">Figure 17.2: AlphaMissense Architecture (Four-Panel)</text>
  <text fill="#444" font-family="Arial, Helvetica, sans-serif" font-size="16" x="60" y="78">Panel D</text>
  <path d="M 420,420 L 640.0,420.0 A 220,220 0 1,1 200.26158111636212,409.27492347258584 Z" fill="#7f7f7f" stroke="white" stroke-width="2"/>
  <path d="M 420,420 L 200.26158111636212,409.27492347258584 A 220,220 0 0,1 304.05081883217144,233.0353311812361 Z" fill="#d62728" stroke="white" stroke-width="2"/>
  <path d="M 420,420 L 304.05081883217144,233.0353311812361 A 220,220 0 0,1 438.9895035530325,200.82108049630008 Z" fill="#ff7f0e" stroke="white" stroke-width="2"/>
  <path d="M 420,420 L 438.9895035530325,200.82108049630008 A 220,220 0 0,1 554.0604278192312,245.5643336558584 Z" fill="#2ca02c" stroke="white" stroke-width="2"/>
  <path d="M 420,420 L 554.0604278192312,245.5643336558584 A 220,220 0 0,1 627.064704545089,345.6749831372033 Z" fill="#98df8a" stroke="white" stroke-width="2"/>
  <path d="M 420,420 L 627.064704545089,345.6749831372033 A 220,220 0 0,1 640.0,420.0000000000001 Z" fill="#9467bd" stroke="white" stroke-width="2"/>
  <rect fill="#7f7f7f" height="18" stroke="none" width="18" x="740" y="250"/>
  <text fill="#333" font-family="Arial, Helvetica, sans-serif" font-size="14" x="766" y="264">VUS</text>
  <rect fill="#d62728" height="18" stroke="none" width="18" x="740" y="278"/>
  <text fill="#333" font-family="Arial, Helvetica, sans-serif" font-size="14" x="766" y="292">Pathogenic</text>
  <rect fill="#ff7f0e" height="18" stroke="none" width="18" x="740" y="306"/>
  <text fill="#333" font-family="Arial, Helvetica, sans-serif" font-size="14" x="766" y="320">Likely pathogenic</text>
  <rect fill="#2ca02c" height="18" stroke="none" width="18" x="740" y="334"/>
  <text fill="#333" font-family="Arial, Helvetica, sans-serif" font-size="14" x="766" y="348">Benign</text>
  <rect fill="#98df8a" height="18" stroke="none" width="18" x="740" y="362"/>
  <text fill="#333" font-family="Arial, Helvetica, sans-serif" font-size="14" x="766" y="376">Likely benign</text>
  <rect fill="#9467bd" height="18" stroke="none" width="18" x="740" y="390"/>
  <text fill="#333" font-family="Arial, Helvetica, sans-serif" font-size="14" x="766" y="404">Conflicting</text>
  <text fill="#999" font-family="Arial, Helvetica, sans-serif" font-size="12" text-anchor="end" x="1140" y="776">Auto-generated SVG</text>
</svg>
