<?xml version="1.0" encoding="utf-8" ?>
<svg xmlns="http://www.w3.org/2000/svg" xmlns:ev="http://www.w3.org/2001/xml-events" xmlns:xlink="http://www.w3.org/1999/xlink" baseProfile="full" height="800" version="1.1" width="1200">
  <defs>
    <marker id="id183" markerHeight="7" markerWidth="7" orient="auto" refX="6" refY="3">
      <path d="M0,0 L0,6 L6,3 z" fill="#333333"/>
    </marker>
  </defs>
  <rect fill="white" height="800" width="1200" x="0" y="0"/>
  <text fill="#111" font-family="Arial, Helvetica, sans-serif" font-size="28" font-weight="700" x="60" y="50">Figure 17.4: Calibration for Clinical Use (Four-Panel)</text>
  <text fill="#444" font-family="Arial, Helvetica, sans-serif" font-size="16" x="60" y="78">Panel C</text>
  <line stroke="#333" stroke-width="2" x1="140" x2="1000" y1="720" y2="720"/>
  <line stroke="#333" stroke-width="2" x1="140" x2="140" y1="160" y2="720"/>
  <circle cx="339.1032841337809" cy="486.0857172675112" fill="#ff7f0e" opacity="0.75" r="4"/>
  <circle cx="337.2866182628687" cy="485.007579586361" fill="#2ca02c" opacity="0.75" r="4"/>
  <circle cx="349.3777205966467" cy="568.5228135381917" fill="#2ca02c" opacity="0.75" r="4"/>
  <circle cx="325.2093365806935" cy="517.8338327761987" fill="#1f77b4" opacity="0.75" r="4"/>
  <circle cx="398.6239716904017" cy="497.5896371517092" fill="#2ca02c" opacity="0.75" r="4"/>
  <circle cx="494.11430253854644" cy="574.2605391643785" fill="#ff7f0e" opacity="0.75" r="4"/>
  <circle cx="421.63075644607346" cy="454.7149389059544" fill="#ff7f0e" opacity="0.75" r="4"/>
  <circle cx="415.43333480574495" cy="520.941193586423" fill="#1f77b4" opacity="0.75" r="4"/>
  <circle cx="310.13750103454294" cy="558.3748483773577" fill="#1f77b4" opacity="0.75" r="4"/>
  <circle cx="260.68213005455175" cy="526.9890971695964" fill="#1f77b4" opacity="0.75" r="4"/>
  <circle cx="433.7515786212334" cy="601.0162922570319" fill="#2ca02c" opacity="0.75" r="4"/>
  <circle cx="323.61977599695626" cy="554.6348681531936" fill="#ff7f0e" opacity="0.75" r="4"/>
  <circle cx="335.12304037379425" cy="581.982884328964" fill="#ff7f0e" opacity="0.75" r="4"/>
  <circle cx="359.8353110343945" cy="546.5242586011011" fill="#1f77b4" opacity="0.75" r="4"/>
  <circle cx="436.8017443110364" cy="568.9977190962571" fill="#1f77b4" opacity="0.75" r="4"/>
  <circle cx="444.2838228700346" cy="527.1322747113308" fill="#ff7f0e" opacity="0.75" r="4"/>
  <circle cx="282.75431082264436" cy="497.2342823789992" fill="#ff7f0e" opacity="0.75" r="4"/>
  <circle cx="379.3559442169679" cy="524.8478444789451" fill="#1f77b4" opacity="0.75" r="4"/>
  <circle cx="337.2545079753699" cy="510.5431551227043" fill="#ff7f0e" opacity="0.75" r="4"/>
  <circle cx="329.3567835828436" cy="579.154461743109" fill="#1f77b4" opacity="0.75" r="4"/>
  <circle cx="374.23708651898846" cy="541.0142419158232" fill="#ff7f0e" opacity="0.75" r="4"/>
  <circle cx="374.56721874559537" cy="558.3355962768564" fill="#1f77b4" opacity="0.75" r="4"/>
  <circle cx="418.88129923971456" cy="581.3087248581236" fill="#2ca02c" opacity="0.75" r="4"/>
  <circle cx="367.2628291365859" cy="517.9934665608084" fill="#ff7f0e" opacity="0.75" r="4"/>
  <circle cx="361.0497965575713" cy="510.8941274366849" fill="#1f77b4" opacity="0.75" r="4"/>
  <circle cx="393.18276272478073" cy="588.4741857604633" fill="#ff7f0e" opacity="0.75" r="4"/>
  <circle cx="528.3634294768568" cy="439.8947981607827" fill="#2ca02c" opacity="0.75" r="4"/>
  <circle cx="380.99592363492076" cy="534.8065986178586" fill="#ff7f0e" opacity="0.75" r="4"/>
  <circle cx="305.0438287656436" cy="535.3791552592437" fill="#2ca02c" opacity="0.75" r="4"/>
  <circle cx="376.91195581817874" cy="591.8171205572885" fill="#2ca02c" opacity="0.75" r="4"/>
  <circle cx="459.864368361426" cy="560.763878766635" fill="#1f77b4" opacity="0.75" r="4"/>
  <circle cx="500.69425562930655" cy="420.44775739082775" fill="#ff7f0e" opacity="0.75" r="4"/>
  <circle cx="286.2489642750313" cy="538.034439481034" fill="#1f77b4" opacity="0.75" r="4"/>
  <circle cx="398.74534812761647" cy="558.8426958368719" fill="#ff7f0e" opacity="0.75" r="4"/>
  <circle cx="496.07178059802357" cy="436.9381871900742" fill="#ff7f0e" opacity="0.75" r="4"/>
  <circle cx="404.9784938276877" cy="632.6313059434592" fill="#1f77b4" opacity="0.75" r="4"/>
  <circle cx="456.3289721430475" cy="480.5617205363009" fill="#ff7f0e" opacity="0.75" r="4"/>
  <circle cx="299.63254737441065" cy="510.19723340823487" fill="#ff7f0e" opacity="0.75" r="4"/>
  <circle cx="313.832822008632" cy="561.710505693537" fill="#2ca02c" opacity="0.75" r="4"/>
  <circle cx="462.0910077404764" cy="522.4606215302986" fill="#2ca02c" opacity="0.75" r="4"/>
  <circle cx="358.26234334750495" cy="608.8881224330419" fill="#ff7f0e" opacity="0.75" r="4"/>
  <circle cx="392.2811493602066" cy="518.1453136636874" fill="#2ca02c" opacity="0.75" r="4"/>
  <circle cx="317.0975445134019" cy="514.2613662394365" fill="#ff7f0e" opacity="0.75" r="4"/>
  <circle cx="533.0249830628643" cy="489.0853005737022" fill="#ff7f0e" opacity="0.75" r="4"/>
  <circle cx="339.42035881765116" cy="496.13717950960137" fill="#ff7f0e" opacity="0.75" r="4"/>
  <circle cx="492.9379483057857" cy="483.15532559069834" fill="#2ca02c" opacity="0.75" r="4"/>
  <circle cx="379.54195799149977" cy="436.1248988749617" fill="#2ca02c" opacity="0.75" r="4"/>
  <circle cx="316.9045153599542" cy="547.1732074562182" fill="#ff7f0e" opacity="0.75" r="4"/>
  <circle cx="434.5176345289308" cy="480.93588881489984" fill="#ff7f0e" opacity="0.75" r="4"/>
  <circle cx="384.49049354287604" cy="536.5408867760264" fill="#2ca02c" opacity="0.75" r="4"/>
  <circle cx="461.16058604800384" cy="562.150587086722" fill="#2ca02c" opacity="0.75" r="4"/>
  <circle cx="456.3262541252305" cy="547.1647476667239" fill="#1f77b4" opacity="0.75" r="4"/>
  <circle cx="505.44222126250276" cy="487.47823033804355" fill="#ff7f0e" opacity="0.75" r="4"/>
  <circle cx="486.9313795248527" cy="529.6748062108368" fill="#1f77b4" opacity="0.75" r="4"/>
  <circle cx="504.13335974282626" cy="459.3010674601677" fill="#2ca02c" opacity="0.75" r="4"/>
  <circle cx="622.1690620169959" cy="441.8848851614002" fill="#ff7f0e" opacity="0.75" r="4"/>
  <circle cx="666.5772715680534" cy="424.0072867479797" fill="#ff7f0e" opacity="0.75" r="4"/>
  <circle cx="587.112582160961" cy="449.78556560471196" fill="#1f77b4" opacity="0.75" r="4"/>
  <circle cx="654.3545354504164" cy="449.8149190816612" fill="#2ca02c" opacity="0.75" r="4"/>
  <circle cx="567.0252001980949" cy="417.8710483373122" fill="#ff7f0e" opacity="0.75" r="4"/>
  <circle cx="657.7013646987401" cy="369.5066394816279" fill="#2ca02c" opacity="0.75" r="4"/>
  <circle cx="661.8251101221784" cy="345.631163216814" fill="#ff7f0e" opacity="0.75" r="4"/>
  <circle cx="572.3593914357879" cy="445.141737601536" fill="#ff7f0e" opacity="0.75" r="4"/>
  <circle cx="445.59729795089913" cy="298.7183004669965" fill="#1f77b4" opacity="0.75" r="4"/>
  <circle cx="607.2298250279862" cy="427.4245965995676" fill="#2ca02c" opacity="0.75" r="4"/>
  <circle cx="701.2129088761277" cy="368.6645795153937" fill="#1f77b4" opacity="0.75" r="4"/>
  <circle cx="651.4421456905199" cy="454.3047311152241" fill="#1f77b4" opacity="0.75" r="4"/>
  <circle cx="622.2214437766116" cy="405.496222201486" fill="#2ca02c" opacity="0.75" r="4"/>
  <circle cx="578.7932926049208" cy="502.9769889126938" fill="#1f77b4" opacity="0.75" r="4"/>
  <circle cx="643.4355999647946" cy="372.39614854202813" fill="#2ca02c" opacity="0.75" r="4"/>
  <circle cx="593.5585343393607" cy="391.1476913763014" fill="#ff7f0e" opacity="0.75" r="4"/>
  <circle cx="605.1842696883302" cy="407.87652807784866" fill="#2ca02c" opacity="0.75" r="4"/>
  <circle cx="611.8223088631034" cy="505.22078828363504" fill="#ff7f0e" opacity="0.75" r="4"/>
  <circle cx="649.162419991964" cy="355.67639213525223" fill="#ff7f0e" opacity="0.75" r="4"/>
  <circle cx="687.2457110385875" cy="377.99331113526875" fill="#1f77b4" opacity="0.75" r="4"/>
  <circle cx="556.6185374973337" cy="469.4033842105389" fill="#1f77b4" opacity="0.75" r="4"/>
  <circle cx="563.1052650633306" cy="413.3305341426008" fill="#1f77b4" opacity="0.75" r="4"/>
  <circle cx="605.0826247558919" cy="341.64927146228297" fill="#ff7f0e" opacity="0.75" r="4"/>
  <circle cx="624.1386548499331" cy="376.5616773095476" fill="#2ca02c" opacity="0.75" r="4"/>
  <circle cx="681.0257548963876" cy="487.49966224472627" fill="#2ca02c" opacity="0.75" r="4"/>
  <circle cx="602.9304892033324" cy="382.57557098555003" fill="#1f77b4" opacity="0.75" r="4"/>
  <circle cx="670.2650894681824" cy="427.18200744079405" fill="#ff7f0e" opacity="0.75" r="4"/>
  <circle cx="815.8599113737274" cy="500.19499484843647" fill="#2ca02c" opacity="0.75" r="4"/>
  <circle cx="709.1473329866515" cy="476.6247463674065" fill="#2ca02c" opacity="0.75" r="4"/>
  <circle cx="591.1677787232113" cy="425.6684163835378" fill="#2ca02c" opacity="0.75" r="4"/>
  <circle cx="636.0264972137045" cy="373.5646415902831" fill="#1f77b4" opacity="0.75" r="4"/>
  <circle cx="705.4916971308687" cy="421.3457596565716" fill="#ff7f0e" opacity="0.75" r="4"/>
  <circle cx="668.7059036354127" cy="431.8759608880599" fill="#2ca02c" opacity="0.75" r="4"/>
  <circle cx="606.9057531492126" cy="401.99751702712547" fill="#1f77b4" opacity="0.75" r="4"/>
  <circle cx="679.1261632076425" cy="553.2419283284935" fill="#1f77b4" opacity="0.75" r="4"/>
  <circle cx="674.5905811258201" cy="459.33368370680773" fill="#2ca02c" opacity="0.75" r="4"/>
  <circle cx="613.6767540467883" cy="314.27632275519886" fill="#ff7f0e" opacity="0.75" r="4"/>
  <circle cx="774.0917182756145" cy="491.77054093937" fill="#1f77b4" opacity="0.75" r="4"/>
  <circle cx="736.1486034248817" cy="418.4918602038473" fill="#1f77b4" opacity="0.75" r="4"/>
  <circle cx="555.6994520995972" cy="439.6728709298383" fill="#ff7f0e" opacity="0.75" r="4"/>
  <circle cx="742.1559442884026" cy="368.57112621368367" fill="#1f77b4" opacity="0.75" r="4"/>
  <circle cx="601.7087033026504" cy="427.7939476943581" fill="#1f77b4" opacity="0.75" r="4"/>
  <circle cx="669.767883201179" cy="429.4203827935437" fill="#ff7f0e" opacity="0.75" r="4"/>
  <circle cx="638.9387003452671" cy="494.5087409909267" fill="#2ca02c" opacity="0.75" r="4"/>
  <circle cx="614.5098791698588" cy="368.0266767792307" fill="#1f77b4" opacity="0.75" r="4"/>
  <circle cx="711.4020913999251" cy="335.72991453093846" fill="#ff7f0e" opacity="0.75" r="4"/>
  <circle cx="669.877125972945" cy="426.37964621807276" fill="#ff7f0e" opacity="0.75" r="4"/>
  <circle cx="815.3543992211786" cy="530.1229983844371" fill="#ff7f0e" opacity="0.75" r="4"/>
  <circle cx="671.1981992345931" cy="321.3509917332128" fill="#1f77b4" opacity="0.75" r="4"/>
  <circle cx="645.0818538187565" cy="493.4635954297367" fill="#ff7f0e" opacity="0.75" r="4"/>
  <circle cx="596.7532520601253" cy="390.3070633416962" fill="#1f77b4" opacity="0.75" r="4"/>
  <circle cx="445.14229050798303" cy="383.02953577703903" fill="#1f77b4" opacity="0.75" r="4"/>
  <circle cx="759.8114917142284" cy="395.7575890451784" fill="#1f77b4" opacity="0.75" r="4"/>
  <circle cx="665.039235593752" cy="413.2415402183857" fill="#ff7f0e" opacity="0.75" r="4"/>
  <circle cx="557.1757485905059" cy="324.6792618693546" fill="#2ca02c" opacity="0.75" r="4"/>
  <circle cx="573.9249965338477" cy="620.9889450688144" fill="#ff7f0e" opacity="0.75" r="4"/>
  <circle cx="537.1251248984522" cy="564.9230031913676" fill="#1f77b4" opacity="0.75" r="4"/>
  <circle cx="565.7759724995983" cy="589.9831971514175" fill="#1f77b4" opacity="0.75" r="4"/>
  <circle cx="434.1190581502318" cy="615.5563383910282" fill="#2ca02c" opacity="0.75" r="4"/>
  <circle cx="472.9205179216147" cy="550.5512493214192" fill="#1f77b4" opacity="0.75" r="4"/>
  <circle cx="552.3303479629224" cy="573.5057371891685" fill="#1f77b4" opacity="0.75" r="4"/>
  <circle cx="562.6128039562045" cy="584.5674951164301" fill="#2ca02c" opacity="0.75" r="4"/>
  <circle cx="476.60085405131116" cy="527.0129176668031" fill="#1f77b4" opacity="0.75" r="4"/>
  <circle cx="537.3626377777532" cy="550.2820852164366" fill="#2ca02c" opacity="0.75" r="4"/>
  <circle cx="562.0287862967621" cy="629.9099591216674" fill="#2ca02c" opacity="0.75" r="4"/>
  <circle cx="468.7891396892719" cy="527.1523749157093" fill="#1f77b4" opacity="0.75" r="4"/>
  <circle cx="568.1907749932864" cy="584.9938890546946" fill="#1f77b4" opacity="0.75" r="4"/>
  <circle cx="626.4853996840841" cy="537.5035182943832" fill="#1f77b4" opacity="0.75" r="4"/>
  <circle cx="475.224640764679" cy="606.6237758481736" fill="#1f77b4" opacity="0.75" r="4"/>
  <circle cx="498.8953332738052" cy="528.7580640082365" fill="#2ca02c" opacity="0.75" r="4"/>
  <circle cx="686.1922828866433" cy="576.4744604495407" fill="#ff7f0e" opacity="0.75" r="4"/>
  <circle cx="445.88105735233756" cy="592.75766209992" fill="#1f77b4" opacity="0.75" r="4"/>
  <circle cx="632.1939726031321" cy="547.9086140677948" fill="#ff7f0e" opacity="0.75" r="4"/>
  <circle cx="573.064231983057" cy="582.3004856006719" fill="#2ca02c" opacity="0.75" r="4"/>
  <circle cx="556.0346488713984" cy="543.6317139620829" fill="#1f77b4" opacity="0.75" r="4"/>
  <circle cx="511.2349486032316" cy="560.4473326311108" fill="#ff7f0e" opacity="0.75" r="4"/>
  <circle cx="514.202679806242" cy="616.1061854636887" fill="#ff7f0e" opacity="0.75" r="4"/>
  <circle cx="502.57919707976635" cy="606.6930223903383" fill="#1f77b4" opacity="0.75" r="4"/>
  <circle cx="531.0417833054439" cy="533.3899363228832" fill="#1f77b4" opacity="0.75" r="4"/>
  <circle cx="534.0606224978326" cy="556.1920029327448" fill="#ff7f0e" opacity="0.75" r="4"/>
  <circle cx="482.12318030720326" cy="557.8941263039214" fill="#1f77b4" opacity="0.75" r="4"/>
  <circle cx="495.20482534818393" cy="614.9079073565921" fill="#ff7f0e" opacity="0.75" r="4"/>
  <circle cx="507.32525193324796" cy="559.2253109380969" fill="#ff7f0e" opacity="0.75" r="4"/>
  <circle cx="388.71778135810814" cy="555.9468774737092" fill="#1f77b4" opacity="0.75" r="4"/>
  <circle cx="467.511992207053" cy="652.7985783159418" fill="#ff7f0e" opacity="0.75" r="4"/>
  <circle cx="565.400661274924" cy="590.2696832368418" fill="#2ca02c" opacity="0.75" r="4"/>
  <circle cx="505.46344349364267" cy="559.9249982585843" fill="#1f77b4" opacity="0.75" r="4"/>
  <circle cx="539.9422701035527" cy="593.5905005180443" fill="#2ca02c" opacity="0.75" r="4"/>
  <circle cx="629.7159474538139" cy="539.6943824717835" fill="#1f77b4" opacity="0.75" r="4"/>
  <circle cx="701.0852111910855" cy="568.306200674141" fill="#ff7f0e" opacity="0.75" r="4"/>
  <circle cx="417.89288118633755" cy="565.097204464551" fill="#ff7f0e" opacity="0.75" r="4"/>
  <circle cx="530.3264437731898" cy="633.1574922117308" fill="#ff7f0e" opacity="0.75" r="4"/>
  <circle cx="494.1574271631109" cy="584.1647602095254" fill="#1f77b4" opacity="0.75" r="4"/>
  <circle cx="496.6636611748206" cy="644.9077627811291" fill="#1f77b4" opacity="0.75" r="4"/>
  <circle cx="501.2787958167916" cy="640.6937076368868" fill="#2ca02c" opacity="0.75" r="4"/>
  <circle cx="489.04047056600206" cy="593.188676664395" fill="#ff7f0e" opacity="0.75" r="4"/>
  <circle cx="473.2394080421685" cy="577.6010522040136" fill="#ff7f0e" opacity="0.75" r="4"/>
  <circle cx="508.6023578290541" cy="596.0583218513984" fill="#2ca02c" opacity="0.75" r="4"/>
  <circle cx="492.3166569514815" cy="536.9111076910491" fill="#ff7f0e" opacity="0.75" r="4"/>
  <circle cx="403.11757182862664" cy="604.8195948009954" fill="#ff7f0e" opacity="0.75" r="4"/>
  <circle cx="436.7372686471381" cy="502.2331699564519" fill="#2ca02c" opacity="0.75" r="4"/>
  <circle cx="583.7147376060112" cy="610.5577142664363" fill="#1f77b4" opacity="0.75" r="4"/>
  <circle cx="556.7272763565675" cy="634.6394726807282" fill="#2ca02c" opacity="0.75" r="4"/>
  <circle cx="526.2428724383033" cy="558.8803458090558" fill="#ff7f0e" opacity="0.75" r="4"/>
  <circle cx="505.2804312228566" cy="674.1774871481815" fill="#1f77b4" opacity="0.75" r="4"/>
  <circle cx="560.9424864045209" cy="615.2961698890581" fill="#ff7f0e" opacity="0.75" r="4"/>
  <circle cx="556.6246358334629" cy="537.617060966819" fill="#2ca02c" opacity="0.75" r="4"/>
  <circle cx="586.1169297516965" cy="552.5077094982785" fill="#ff7f0e" opacity="0.75" r="4"/>
  <circle cx="581.4127378248456" cy="620.1882389535233" fill="#ff7f0e" opacity="0.75" r="4"/>
  <circle cx="548.9806959450334" cy="606.9614335828221" fill="#1f77b4" opacity="0.75" r="4"/>
  <circle cx="914.0" cy="244.0" fill="#d62728" opacity="0.9" r="7"/>
  <text fill="#333" font-family="Arial, Helvetica, sans-serif" font-size="16" text-anchor="middle" x="570.0" y="765">Dimension 1</text>
  <text fill="#333" font-family="Arial, Helvetica, sans-serif" font-size="16" text-anchor="middle" transform="rotate(-90,85,440.0)" x="85" y="440.0">Dimension 2</text>
  <text fill="#999" font-family="Arial, Helvetica, sans-serif" font-size="12" text-anchor="end" x="1140" y="776">Auto-generated SVG</text>
</svg>
