<?xml version="1.0" encoding="utf-8" ?>
<svg xmlns="http://www.w3.org/2000/svg" xmlns:ev="http://www.w3.org/2001/xml-events" xmlns:xlink="http://www.w3.org/1999/xlink" baseProfile="full" height="800" version="1.1" width="1200">
  <defs>
    <marker id="id184" markerHeight="7" markerWidth="7" orient="auto" refX="6" refY="3">
      <path d="M0,0 L0,6 L6,3 z" fill="#333333"/>
    </marker>
  </defs>
  <rect fill="white" height="800" width="1200" x="0" y="0"/>
  <text fill="#111" font-family="Arial, Helvetica, sans-serif" font-size="28" font-weight="700" x="60" y="50">Figure 17.4: Calibration for Clinical Use (Four-Panel)</text>
  <text fill="#444" font-family="Arial, Helvetica, sans-serif" font-size="16" x="60" y="78">Panel D</text>
  <line stroke="#333" stroke-width="2" x1="140" x2="1000" y1="720" y2="720"/>
  <line stroke="#333" stroke-width="2" x1="140" x2="140" y1="160" y2="720"/>
  <circle cx="466.88076608004116" cy="528.850414921923" fill="#ff7f0e" opacity="0.75" r="4"/>
  <circle cx="467.1138283460457" cy="537.613564341872" fill="#1f77b4" opacity="0.75" r="4"/>
  <circle cx="363.06905767006947" cy="540.6972153758836" fill="#2ca02c" opacity="0.75" r="4"/>
  <circle cx="428.572636568783" cy="494.6861487907484" fill="#1f77b4" opacity="0.75" r="4"/>
  <circle cx="484.38214294256034" cy="499.63605518829445" fill="#1f77b4" opacity="0.75" r="4"/>
  <circle cx="312.5872173248167" cy="508.03847955498577" fill="#1f77b4" opacity="0.75" r="4"/>
  <circle cx="469.53785998972745" cy="530.6790800891196" fill="#ff7f0e" opacity="0.75" r="4"/>
  <circle cx="439.7331760474151" cy="517.0406302563682" fill="#ff7f0e" opacity="0.75" r="4"/>
  <circle cx="324.27330257062647" cy="560.0284166162517" fill="#1f77b4" opacity="0.75" r="4"/>
  <circle cx="356.6021750405019" cy="624.1670082236911" fill="#ff7f0e" opacity="0.75" r="4"/>
  <circle cx="467.24035127916966" cy="521.8060635250889" fill="#ff7f0e" opacity="0.75" r="4"/>
  <circle cx="412.5657611105239" cy="509.79551125777823" fill="#ff7f0e" opacity="0.75" r="4"/>
  <circle cx="416.1697074584455" cy="476.94050655781547" fill="#1f77b4" opacity="0.75" r="4"/>
  <circle cx="388.87064663510444" cy="437.25484120308346" fill="#ff7f0e" opacity="0.75" r="4"/>
  <circle cx="504.81738976882144" cy="577.0564173627586" fill="#2ca02c" opacity="0.75" r="4"/>
  <circle cx="431.4404651874842" cy="571.9594526295663" fill="#1f77b4" opacity="0.75" r="4"/>
  <circle cx="430.9993735575775" cy="529.6452172897741" fill="#2ca02c" opacity="0.75" r="4"/>
  <circle cx="415.8687405537169" cy="479.3054401856705" fill="#1f77b4" opacity="0.75" r="4"/>
  <circle cx="370.96464515073905" cy="571.8182726847945" fill="#ff7f0e" opacity="0.75" r="4"/>
  <circle cx="476.6736907055783" cy="554.020711389295" fill="#2ca02c" opacity="0.75" r="4"/>
  <circle cx="411.865711845449" cy="587.7345050623221" fill="#ff7f0e" opacity="0.75" r="4"/>
  <circle cx="378.6988841153103" cy="496.2650174025837" fill="#1f77b4" opacity="0.75" r="4"/>
  <circle cx="343.18534011556665" cy="530.7213606494536" fill="#ff7f0e" opacity="0.75" r="4"/>
  <circle cx="343.5220807756043" cy="498.2220407704641" fill="#2ca02c" opacity="0.75" r="4"/>
  <circle cx="403.3259447417671" cy="541.8366094720407" fill="#ff7f0e" opacity="0.75" r="4"/>
  <circle cx="482.15209538281005" cy="481.52690971784557" fill="#ff7f0e" opacity="0.75" r="4"/>
  <circle cx="435.4875601213799" cy="593.4915205417753" fill="#ff7f0e" opacity="0.75" r="4"/>
  <circle cx="249.3510882547986" cy="527.1402131615619" fill="#ff7f0e" opacity="0.75" r="4"/>
  <circle cx="314.167879004248" cy="498.0294092778668" fill="#ff7f0e" opacity="0.75" r="4"/>
  <circle cx="404.502891846418" cy="550.3932171235313" fill="#ff7f0e" opacity="0.75" r="4"/>
  <circle cx="363.6405791640957" cy="501.28923658584324" fill="#2ca02c" opacity="0.75" r="4"/>
  <circle cx="373.87022698455786" cy="477.56074071991407" fill="#1f77b4" opacity="0.75" r="4"/>
  <circle cx="297.50945674315926" cy="513.0513659138785" fill="#1f77b4" opacity="0.75" r="4"/>
  <circle cx="446.38323721044" cy="536.1071591744906" fill="#ff7f0e" opacity="0.75" r="4"/>
  <circle cx="431.6621547659437" cy="494.86478171748513" fill="#ff7f0e" opacity="0.75" r="4"/>
  <circle cx="304.54533014252917" cy="553.7392076877429" fill="#1f77b4" opacity="0.75" r="4"/>
  <circle cx="381.22897105659837" cy="508.9220589324042" fill="#1f77b4" opacity="0.75" r="4"/>
  <circle cx="544.0170175511794" cy="521.368683372732" fill="#1f77b4" opacity="0.75" r="4"/>
  <circle cx="539.230620710678" cy="490.2967363491583" fill="#ff7f0e" opacity="0.75" r="4"/>
  <circle cx="368.10077910902163" cy="506.67826405263605" fill="#ff7f0e" opacity="0.75" r="4"/>
  <circle cx="401.2944111121047" cy="580.798426198551" fill="#ff7f0e" opacity="0.75" r="4"/>
  <circle cx="396.87224847216135" cy="522.9207115594445" fill="#2ca02c" opacity="0.75" r="4"/>
  <circle cx="429.7910323225887" cy="639.1669861432238" fill="#1f77b4" opacity="0.75" r="4"/>
  <circle cx="397.47357239434325" cy="556.3973058172141" fill="#1f77b4" opacity="0.75" r="4"/>
  <circle cx="292.6167735478649" cy="618.0437658299825" fill="#1f77b4" opacity="0.75" r="4"/>
  <circle cx="366.7107652018881" cy="578.4052838626407" fill="#ff7f0e" opacity="0.75" r="4"/>
  <circle cx="338.45563823961686" cy="548.2997959060976" fill="#2ca02c" opacity="0.75" r="4"/>
  <circle cx="495.43295946879545" cy="547.4296993848338" fill="#1f77b4" opacity="0.75" r="4"/>
  <circle cx="400.6778313557037" cy="581.0532400927129" fill="#ff7f0e" opacity="0.75" r="4"/>
  <circle cx="535.4743695812233" cy="583.2313067343978" fill="#2ca02c" opacity="0.75" r="4"/>
  <circle cx="459.9140483234625" cy="465.98480386030394" fill="#ff7f0e" opacity="0.75" r="4"/>
  <circle cx="387.8716420646087" cy="415.94808100009425" fill="#ff7f0e" opacity="0.75" r="4"/>
  <circle cx="327.0727263455159" cy="452.00990429776675" fill="#1f77b4" opacity="0.75" r="4"/>
  <circle cx="390.2884354612515" cy="488.66887111117114" fill="#ff7f0e" opacity="0.75" r="4"/>
  <circle cx="416.654700498857" cy="636.8123677378712" fill="#2ca02c" opacity="0.75" r="4"/>
  <circle cx="631.040352332726" cy="436.0219317501781" fill="#1f77b4" opacity="0.75" r="4"/>
  <circle cx="699.2658351180792" cy="336.500056075618" fill="#1f77b4" opacity="0.75" r="4"/>
  <circle cx="732.8867190066936" cy="435.09368860421785" fill="#ff7f0e" opacity="0.75" r="4"/>
  <circle cx="710.478386238313" cy="409.5013779807381" fill="#2ca02c" opacity="0.75" r="4"/>
  <circle cx="659.4364920356942" cy="468.2868115791626" fill="#1f77b4" opacity="0.75" r="4"/>
  <circle cx="615.0788266511972" cy="461.7858503014409" fill="#1f77b4" opacity="0.75" r="4"/>
  <circle cx="567.7926756056129" cy="369.1196061273697" fill="#1f77b4" opacity="0.75" r="4"/>
  <circle cx="637.8938308349113" cy="355.35383895011796" fill="#1f77b4" opacity="0.75" r="4"/>
  <circle cx="565.5475997611024" cy="333.3078621460353" fill="#1f77b4" opacity="0.75" r="4"/>
  <circle cx="709.8526451508347" cy="383.1840918951294" fill="#2ca02c" opacity="0.75" r="4"/>
  <circle cx="643.5256076124822" cy="416.46260999136706" fill="#1f77b4" opacity="0.75" r="4"/>
  <circle cx="619.1233571968985" cy="429.2469072376535" fill="#ff7f0e" opacity="0.75" r="4"/>
  <circle cx="662.548710635949" cy="395.13086405315414" fill="#1f77b4" opacity="0.75" r="4"/>
  <circle cx="688.0398454915274" cy="377.8903374121368" fill="#2ca02c" opacity="0.75" r="4"/>
  <circle cx="648.3651347544052" cy="367.8852081434602" fill="#1f77b4" opacity="0.75" r="4"/>
  <circle cx="555.9660839501803" cy="379.9096025885445" fill="#2ca02c" opacity="0.75" r="4"/>
  <circle cx="727.808339632004" cy="393.36825105307923" fill="#1f77b4" opacity="0.75" r="4"/>
  <circle cx="650.7221427310792" cy="361.69516546501836" fill="#1f77b4" opacity="0.75" r="4"/>
  <circle cx="553.6142908098666" cy="551.847837480185" fill="#2ca02c" opacity="0.75" r="4"/>
  <circle cx="663.1086268022458" cy="345.00872235687416" fill="#1f77b4" opacity="0.75" r="4"/>
  <circle cx="662.9952967478388" cy="360.53861982194474" fill="#1f77b4" opacity="0.75" r="4"/>
  <circle cx="674.6694108507222" cy="396.28548513120586" fill="#1f77b4" opacity="0.75" r="4"/>
  <circle cx="654.3752652957953" cy="383.33220589221196" fill="#1f77b4" opacity="0.75" r="4"/>
  <circle cx="683.396481542486" cy="444.5317771688635" fill="#1f77b4" opacity="0.75" r="4"/>
  <circle cx="622.1126800126242" cy="419.38676610918566" fill="#1f77b4" opacity="0.75" r="4"/>
  <circle cx="560.6846271528834" cy="422.64344308078245" fill="#ff7f0e" opacity="0.75" r="4"/>
  <circle cx="707.7802134078383" cy="451.1953176047113" fill="#2ca02c" opacity="0.75" r="4"/>
  <circle cx="657.1604304560994" cy="304.9861690646345" fill="#2ca02c" opacity="0.75" r="4"/>
  <circle cx="715.9131975174744" cy="467.3301697014172" fill="#1f77b4" opacity="0.75" r="4"/>
  <circle cx="608.8030820219451" cy="395.0487238734502" fill="#ff7f0e" opacity="0.75" r="4"/>
  <circle cx="698.294031755964" cy="443.7181563604311" fill="#1f77b4" opacity="0.75" r="4"/>
  <circle cx="730.2493861790791" cy="378.12637829317646" fill="#1f77b4" opacity="0.75" r="4"/>
  <circle cx="570.5848177884864" cy="435.24983614090615" fill="#2ca02c" opacity="0.75" r="4"/>
  <circle cx="676.4384356935094" cy="475.33318306961985" fill="#ff7f0e" opacity="0.75" r="4"/>
  <circle cx="531.3225676186878" cy="382.32331597526536" fill="#1f77b4" opacity="0.75" r="4"/>
  <circle cx="660.9022452365299" cy="421.76058178936773" fill="#ff7f0e" opacity="0.75" r="4"/>
  <circle cx="579.7797995981739" cy="381.1368717478271" fill="#1f77b4" opacity="0.75" r="4"/>
  <circle cx="589.1987154388851" cy="374.6633489698997" fill="#ff7f0e" opacity="0.75" r="4"/>
  <circle cx="716.2214032988786" cy="375.3612573591114" fill="#2ca02c" opacity="0.75" r="4"/>
  <circle cx="583.6135653061442" cy="407.47669416895576" fill="#2ca02c" opacity="0.75" r="4"/>
  <circle cx="725.4291011089907" cy="380.59289900056507" fill="#2ca02c" opacity="0.75" r="4"/>
  <circle cx="735.4284937894696" cy="343.7464611863564" fill="#2ca02c" opacity="0.75" r="4"/>
  <circle cx="631.5783180721916" cy="401.1906255950155" fill="#ff7f0e" opacity="0.75" r="4"/>
  <circle cx="566.7074350232699" cy="418.31140385277484" fill="#1f77b4" opacity="0.75" r="4"/>
  <circle cx="593.9762117691942" cy="432.86582552234063" fill="#1f77b4" opacity="0.75" r="4"/>
  <circle cx="684.0084654005225" cy="376.4310749223551" fill="#2ca02c" opacity="0.75" r="4"/>
  <circle cx="681.9498718359057" cy="319.3226766797217" fill="#ff7f0e" opacity="0.75" r="4"/>
  <circle cx="731.5259050678693" cy="447.7819485386035" fill="#1f77b4" opacity="0.75" r="4"/>
  <circle cx="642.4853395587666" cy="438.9554269890574" fill="#1f77b4" opacity="0.75" r="4"/>
  <circle cx="616.095073837507" cy="431.2823852388498" fill="#ff7f0e" opacity="0.75" r="4"/>
  <circle cx="518.4123679066879" cy="371.9435491160939" fill="#ff7f0e" opacity="0.75" r="4"/>
  <circle cx="676.0100281823679" cy="389.12835273001645" fill="#1f77b4" opacity="0.75" r="4"/>
  <circle cx="631.7130348982715" cy="495.8994128025114" fill="#2ca02c" opacity="0.75" r="4"/>
  <circle cx="552.4317599377181" cy="383.85076196118587" fill="#1f77b4" opacity="0.75" r="4"/>
  <circle cx="626.5534884003793" cy="362.3004252392284" fill="#2ca02c" opacity="0.75" r="4"/>
  <circle cx="504.2100362784352" cy="543.144969419614" fill="#2ca02c" opacity="0.75" r="4"/>
  <circle cx="555.3569831110904" cy="604.7183101722378" fill="#2ca02c" opacity="0.75" r="4"/>
  <circle cx="523.9835684402509" cy="573.3843592492187" fill="#1f77b4" opacity="0.75" r="4"/>
  <circle cx="545.3075682378179" cy="581.9294559376227" fill="#1f77b4" opacity="0.75" r="4"/>
  <circle cx="562.5573912525898" cy="569.7168757382801" fill="#2ca02c" opacity="0.75" r="4"/>
  <circle cx="499.6644762831913" cy="538.9804805334386" fill="#ff7f0e" opacity="0.75" r="4"/>
  <circle cx="575.5448264761213" cy="655.1952594510526" fill="#ff7f0e" opacity="0.75" r="4"/>
  <circle cx="434.14345429686875" cy="579.643014464893" fill="#1f77b4" opacity="0.75" r="4"/>
  <circle cx="469.2553480222028" cy="581.5040941612821" fill="#2ca02c" opacity="0.75" r="4"/>
  <circle cx="466.3022647434378" cy="601.4804653087099" fill="#1f77b4" opacity="0.75" r="4"/>
  <circle cx="595.3261241337334" cy="576.4669850029961" fill="#1f77b4" opacity="0.75" r="4"/>
  <circle cx="529.4411097665617" cy="571.1635456430433" fill="#ff7f0e" opacity="0.75" r="4"/>
  <circle cx="578.4753206207969" cy="664.3838429340051" fill="#ff7f0e" opacity="0.75" r="4"/>
  <circle cx="519.8681248256946" cy="602.5869051041984" fill="#1f77b4" opacity="0.75" r="4"/>
  <circle cx="470.74007150698276" cy="601.2899008900359" fill="#1f77b4" opacity="0.75" r="4"/>
  <circle cx="591.8246356576003" cy="588.9884093738161" fill="#1f77b4" opacity="0.75" r="4"/>
  <circle cx="597.469348068543" cy="595.6261872594416" fill="#2ca02c" opacity="0.75" r="4"/>
  <circle cx="465.27883272677536" cy="602.5358915405673" fill="#1f77b4" opacity="0.75" r="4"/>
  <circle cx="433.70990867153176" cy="602.9969869729701" fill="#1f77b4" opacity="0.75" r="4"/>
  <circle cx="548.564473291962" cy="598.1563956078411" fill="#ff7f0e" opacity="0.75" r="4"/>
  <circle cx="563.1009836231865" cy="615.5039964669381" fill="#1f77b4" opacity="0.75" r="4"/>
  <circle cx="482.4262570200933" cy="701.2172468313361" fill="#1f77b4" opacity="0.75" r="4"/>
  <circle cx="553.6488583234584" cy="553.3890061053761" fill="#ff7f0e" opacity="0.75" r="4"/>
  <circle cx="488.0934778548541" cy="522.852332884251" fill="#ff7f0e" opacity="0.75" r="4"/>
  <circle cx="454.88376272543064" cy="596.354721178445" fill="#2ca02c" opacity="0.75" r="4"/>
  <circle cx="484.92187646301625" cy="534.4170383372895" fill="#1f77b4" opacity="0.75" r="4"/>
  <circle cx="435.90828661143104" cy="608.0343341313104" fill="#2ca02c" opacity="0.75" r="4"/>
  <circle cx="562.604033092065" cy="592.393461727738" fill="#1f77b4" opacity="0.75" r="4"/>
  <circle cx="413.24985950068987" cy="506.825942720754" fill="#ff7f0e" opacity="0.75" r="4"/>
  <circle cx="489.65888592179107" cy="550.492834159965" fill="#1f77b4" opacity="0.75" r="4"/>
  <circle cx="565.8352837772422" cy="666.3914543216351" fill="#1f77b4" opacity="0.75" r="4"/>
  <circle cx="480.3753126836982" cy="653.9238509553261" fill="#ff7f0e" opacity="0.75" r="4"/>
  <circle cx="540.3181945331319" cy="554.4988557429851" fill="#1f77b4" opacity="0.75" r="4"/>
  <circle cx="623.9049502434013" cy="630.2145835522082" fill="#1f77b4" opacity="0.75" r="4"/>
  <circle cx="562.2849983902786" cy="633.4146498293185" fill="#2ca02c" opacity="0.75" r="4"/>
  <circle cx="518.0972521015209" cy="649.2119576782995" fill="#1f77b4" opacity="0.75" r="4"/>
  <circle cx="552.0242303527857" cy="588.3881945034468" fill="#1f77b4" opacity="0.75" r="4"/>
  <circle cx="548.490596155526" cy="561.6511974340553" fill="#ff7f0e" opacity="0.75" r="4"/>
  <circle cx="496.1844147075043" cy="536.9625969137337" fill="#2ca02c" opacity="0.75" r="4"/>
  <circle cx="513.2351455606961" cy="605.688959600736" fill="#2ca02c" opacity="0.75" r="4"/>
  <circle cx="492.8105260625797" cy="594.1913432580795" fill="#2ca02c" opacity="0.75" r="4"/>
  <circle cx="498.583191664602" cy="506.7067779970986" fill="#2ca02c" opacity="0.75" r="4"/>
  <circle cx="526.3484009094983" cy="596.0865722676897" fill="#ff7f0e" opacity="0.75" r="4"/>
  <circle cx="384.4057221027673" cy="634.6519507294684" fill="#ff7f0e" opacity="0.75" r="4"/>
  <circle cx="522.9688291599659" cy="574.7818815398788" fill="#2ca02c" opacity="0.75" r="4"/>
  <circle cx="571.5248153231742" cy="590.1555051610219" fill="#2ca02c" opacity="0.75" r="4"/>
  <circle cx="634.7977233523969" cy="575.7217390220612" fill="#1f77b4" opacity="0.75" r="4"/>
  <circle cx="540.0998973928613" cy="549.0589334588883" fill="#ff7f0e" opacity="0.75" r="4"/>
  <circle cx="491.01912559978035" cy="537.330690461629" fill="#1f77b4" opacity="0.75" r="4"/>
  <circle cx="602.1164248351813" cy="535.5510161674604" fill="#2ca02c" opacity="0.75" r="4"/>
  <circle cx="590.9078615971898" cy="661.2762076138822" fill="#1f77b4" opacity="0.75" r="4"/>
  <circle cx="394.87979378699197" cy="545.9009200500664" fill="#2ca02c" opacity="0.75" r="4"/>
  <circle cx="496.75788070721677" cy="581.4798446175221" fill="#2ca02c" opacity="0.75" r="4"/>
  <circle cx="538.3447435032772" cy="564.8077045732641" fill="#1f77b4" opacity="0.75" r="4"/>
  <circle cx="527.3182409001361" cy="552.8859528177964" fill="#2ca02c" opacity="0.75" r="4"/>
  <circle cx="914.0" cy="244.0" fill="#d62728" opacity="0.9" r="7"/>
  <text fill="#333" font-family="Arial, Helvetica, sans-serif" font-size="16" text-anchor="middle" x="570.0" y="765">Dimension 1</text>
  <text fill="#333" font-family="Arial, Helvetica, sans-serif" font-size="16" text-anchor="middle" transform="rotate(-90,85,440.0)" x="85" y="440.0">Dimension 2</text>
  <text fill="#999" font-family="Arial, Helvetica, sans-serif" font-size="12" text-anchor="end" x="1140" y="776">Auto-generated SVG</text>
</svg>
