<?xml version="1.0" encoding="utf-8" ?>
<svg xmlns="http://www.w3.org/2000/svg" xmlns:ev="http://www.w3.org/2001/xml-events" xmlns:xlink="http://www.w3.org/1999/xlink" baseProfile="full" height="800" version="1.1" width="1200">
  <defs>
    <marker id="id189" markerHeight="7" markerWidth="7" orient="auto" refX="6" refY="3">
      <path d="M0,0 L0,6 L6,3 z" fill="#333333"/>
    </marker>
  </defs>
  <rect fill="white" height="800" width="1200" x="0" y="0"/>
  <text fill="#111" font-family="Arial, Helvetica, sans-serif" font-size="28" font-weight="700" x="60" y="50">Figure 17.6: VEP Gains and Gaps (Four-Panel)</text>
  <text fill="#444" font-family="Arial, Helvetica, sans-serif" font-size="16" x="60" y="78">Panel A</text>
  <line stroke="#333" stroke-width="2" x1="140" x2="1040" y1="690" y2="690"/>
  <line stroke="#333" stroke-width="2" x1="140" x2="140" y1="170" y2="690"/>
  <rect fill="#1f77b4" height="111.41122919109092" stroke="white" stroke-width="1" width="120.0" x="200.0" y="578.5887708089091"/>
  <rect fill="#ff7f0e" height="168.32820165871408" stroke="white" stroke-width="1" width="120.0" x="200.0" y="410.260569150195"/>
  <rect fill="#2ca02c" height="45.28126531549322" stroke="white" stroke-width="1" width="120.0" x="200.0" y="364.9793038347018"/>
  <rect fill="#9467bd" height="133.00452424402386" stroke="white" stroke-width="1" width="120.0" x="200.0" y="231.97477959067794"/>
  <rect fill="#8c564b" height="61.97477959067788" stroke="white" stroke-width="1" width="120.0" x="200.0" y="170.00000000000006"/>
  <text fill="#333" font-family="Arial, Helvetica, sans-serif" font-size="14" text-anchor="middle" x="260.0" y="720">Resource 1</text>
  <rect fill="#1f77b4" height="119.8065229602449" stroke="white" stroke-width="1" width="120.0" x="380.0" y="570.1934770397551"/>
  <rect fill="#ff7f0e" height="114.3492870809599" stroke="white" stroke-width="1" width="120.0" x="380.0" y="455.84418995879514"/>
  <rect fill="#2ca02c" height="122.89267290851599" stroke="white" stroke-width="1" width="120.0" x="380.0" y="332.95151705027916"/>
  <rect fill="#9467bd" height="115.87701808796434" stroke="white" stroke-width="1" width="120.0" x="380.0" y="217.0744989623148"/>
  <rect fill="#8c564b" height="47.07449896231483" stroke="white" stroke-width="1" width="120.0" x="380.0" y="169.99999999999997"/>
  <text fill="#333" font-family="Arial, Helvetica, sans-serif" font-size="14" text-anchor="middle" x="440.0" y="720">Resource 2</text>
  <rect fill="#1f77b4" height="64.2065321586854" stroke="white" stroke-width="1" width="120.0" x="560.0" y="625.7934678413146"/>
  <rect fill="#ff7f0e" height="61.89908847917405" stroke="white" stroke-width="1" width="120.0" x="560.0" y="563.8943793621406"/>
  <rect fill="#2ca02c" height="75.69096393295747" stroke="white" stroke-width="1" width="120.0" x="560.0" y="488.20341542918317"/>
  <rect fill="#9467bd" height="128.62297480375932" stroke="white" stroke-width="1" width="120.0" x="560.0" y="359.5804406254239"/>
  <rect fill="#8c564b" height="189.58044062542373" stroke="white" stroke-width="1" width="120.0" x="560.0" y="170.00000000000014"/>
  <text fill="#333" font-family="Arial, Helvetica, sans-serif" font-size="14" text-anchor="middle" x="620.0" y="720">Resource 3</text>
  <rect fill="#1f77b4" height="97.47693637100956" stroke="white" stroke-width="1" width="120.0" x="740.0" y="592.5230636289905"/>
  <rect fill="#ff7f0e" height="37.044636420925244" stroke="white" stroke-width="1" width="120.0" x="740.0" y="555.4784272080652"/>
  <rect fill="#2ca02c" height="132.2145907179292" stroke="white" stroke-width="1" width="120.0" x="740.0" y="423.263836490136"/>
  <rect fill="#9467bd" height="127.13221564675804" stroke="white" stroke-width="1" width="120.0" x="740.0" y="296.13162084337796"/>
  <rect fill="#8c564b" height="126.13162084337789" stroke="white" stroke-width="1" width="120.0" x="740.0" y="170.00000000000006"/>
  <text fill="#333" font-family="Arial, Helvetica, sans-serif" font-size="14" text-anchor="middle" x="800.0" y="720">Resource 4</text>
  <rect fill="#1f77b4" height="153.0863820128704" stroke="white" stroke-width="1" width="120.0" x="920.0" y="536.9136179871296"/>
  <rect fill="#ff7f0e" height="118.93981577133678" stroke="white" stroke-width="1" width="120.0" x="920.0" y="417.9738022157928"/>
  <rect fill="#2ca02c" height="41.72119161561085" stroke="white" stroke-width="1" width="120.0" x="920.0" y="376.2526106001819"/>
  <rect fill="#9467bd" height="144.58853457047067" stroke="white" stroke-width="1" width="120.0" x="920.0" y="231.66407602971125"/>
  <rect fill="#8c564b" height="61.66407602971136" stroke="white" stroke-width="1" width="120.0" x="920.0" y="169.9999999999999"/>
  <text fill="#333" font-family="Arial, Helvetica, sans-serif" font-size="14" text-anchor="middle" x="980.0" y="720">Resource 5</text>
  <rect fill="#1f77b4" height="18" stroke="none" width="18" x="1070" y="176"/>
  <text fill="#333" font-family="Arial, Helvetica, sans-serif" font-size="14" x="1096" y="190">Group 1</text>
  <rect fill="#ff7f0e" height="18" stroke="none" width="18" x="1070" y="202"/>
  <text fill="#333" font-family="Arial, Helvetica, sans-serif" font-size="14" x="1096" y="216">Group 2</text>
  <rect fill="#2ca02c" height="18" stroke="none" width="18" x="1070" y="228"/>
  <text fill="#333" font-family="Arial, Helvetica, sans-serif" font-size="14" x="1096" y="242">Group 3</text>
  <rect fill="#9467bd" height="18" stroke="none" width="18" x="1070" y="254"/>
  <text fill="#333" font-family="Arial, Helvetica, sans-serif" font-size="14" x="1096" y="268">Group 4</text>
  <rect fill="#8c564b" height="18" stroke="none" width="18" x="1070" y="280"/>
  <text fill="#333" font-family="Arial, Helvetica, sans-serif" font-size="14" x="1096" y="294">Other</text>
  <text fill="#999" font-family="Arial, Helvetica, sans-serif" font-size="12" text-anchor="end" x="1140" y="776">Auto-generated SVG</text>
</svg>
