<?xml version="1.0" encoding="utf-8" ?>
<svg xmlns="http://www.w3.org/2000/svg" xmlns:ev="http://www.w3.org/2001/xml-events" xmlns:xlink="http://www.w3.org/1999/xlink" baseProfile="full" height="800" version="1.1" width="1200">
  <defs>
    <marker id="id193" markerHeight="7" markerWidth="7" orient="auto" refX="6" refY="3">
      <path d="M0,0 L0,6 L6,3 z" fill="#333333"/>
    </marker>
  </defs>
  <rect fill="white" height="800" width="1200" x="0" y="0"/>
  <text fill="#111" font-family="Arial, Helvetica, sans-serif" font-size="28" font-weight="700" x="60" y="50">Figure 17.7: Long-Read VEP</text>
  <rect fill="#f1f1f1" height="18" stroke="#333" stroke-width="1.5" width="420" x="120" y="140"/>
  <rect fill="#cccccc" height="18" stroke="none" width="12" x="324.0" y="140"/>
  <rect fill="#9467bd" height="18" opacity="0.35" stroke="none" width="53.16866615000137" x="436.9590732205828" y="140"/>
  <rect fill="#ffbb78" height="18" opacity="0.35" stroke="none" width="50.59407214287789" x="166.8907791140055" y="140"/>
  <rect fill="#d62728" height="18" opacity="0.35" stroke="none" width="68.29416284683073" x="435.2506791014905" y="140"/>
  <text fill="#333" font-family="Arial, Helvetica, sans-serif" font-size="13" text-anchor="end" x="90" y="154">1</text>
  <rect fill="#f1f1f1" height="18" stroke="#333" stroke-width="1.5" width="420" x="650" y="140"/>
  <rect fill="#cccccc" height="18" stroke="none" width="12" x="854.0" y="140"/>
  <rect fill="#9467bd" height="18" opacity="0.35" stroke="none" width="73.12302945899799" x="839.5961431591642" y="140"/>
  <rect fill="#d62728" height="18" opacity="0.35" stroke="none" width="46.911732351627386" x="885.0518037500865" y="140"/>
  <text fill="#333" font-family="Arial, Helvetica, sans-serif" font-size="13" text-anchor="end" x="620" y="154">13</text>
  <rect fill="#f1f1f1" height="18" stroke="#333" stroke-width="1.5" width="420" x="120" y="178"/>
  <rect fill="#cccccc" height="18" stroke="none" width="12" x="324.0" y="178"/>
  <rect fill="#9467bd" height="18" opacity="0.35" stroke="none" width="60.513214834495486" x="375.92882045626266" y="178"/>
  <rect fill="#2ca02c" height="18" opacity="0.35" stroke="none" width="44.40267303011637" x="300.078022423168" y="178"/>
  <rect fill="#d62728" height="18" opacity="0.35" stroke="none" width="44.58487895638834" x="192.08430185793355" y="178"/>
  <text fill="#333" font-family="Arial, Helvetica, sans-serif" font-size="13" text-anchor="end" x="90" y="192">2</text>
  <rect fill="#f1f1f1" height="18" stroke="#333" stroke-width="1.5" width="420" x="650" y="178"/>
  <rect fill="#cccccc" height="18" stroke="none" width="12" x="854.0" y="178"/>
  <rect fill="#2ca02c" height="18" opacity="0.35" stroke="none" width="36.61817055988798" x="765.3587959831746" y="178"/>
  <rect fill="#2ca02c" height="18" opacity="0.35" stroke="none" width="68.8131167217781" x="838.4647779492116" y="178"/>
  <rect fill="#ffbb78" height="18" opacity="0.35" stroke="none" width="50.29936178561914" x="883.2253645859445" y="178"/>
  <text fill="#333" font-family="Arial, Helvetica, sans-serif" font-size="13" text-anchor="end" x="620" y="192">14</text>
  <rect fill="#f1f1f1" height="18" stroke="#333" stroke-width="1.5" width="420" x="120" y="216"/>
  <rect fill="#cccccc" height="18" stroke="none" width="12" x="324.0" y="216"/>
  <rect fill="#d62728" height="18" opacity="0.35" stroke="none" width="25.779558898357436" x="375.98754172897816" y="216"/>
  <text fill="#333" font-family="Arial, Helvetica, sans-serif" font-size="13" text-anchor="end" x="90" y="230">3</text>
  <rect fill="#f1f1f1" height="18" stroke="#333" stroke-width="1.5" width="420" x="650" y="216"/>
  <rect fill="#cccccc" height="18" stroke="none" width="12" x="854.0" y="216"/>
  <rect fill="#ffbb78" height="18" opacity="0.35" stroke="none" width="69.0359967802664" x="837.3684685386902" y="216"/>
  <rect fill="#ffbb78" height="18" opacity="0.35" stroke="none" width="62.48132521204931" x="709.316409034538" y="216"/>
  <rect fill="#2ca02c" height="18" opacity="0.35" stroke="none" width="67.59863560205524" x="714.2945767600365" y="216"/>
  <text fill="#333" font-family="Arial, Helvetica, sans-serif" font-size="13" text-anchor="end" x="620" y="230">15</text>
  <rect fill="#f1f1f1" height="18" stroke="#333" stroke-width="1.5" width="420" x="120" y="254"/>
  <rect fill="#cccccc" height="18" stroke="none" width="12" x="324.0" y="254"/>
  <rect fill="#2ca02c" height="18" opacity="0.35" stroke="none" width="45.37878666225952" x="448.6804241155982" y="254"/>
  <rect fill="#9467bd" height="18" opacity="0.35" stroke="none" width="50.53860949100268" x="318.3976361798274" y="254"/>
  <rect fill="#9467bd" height="18" opacity="0.35" stroke="none" width="47.671928739043864" x="368.267829850397" y="254"/>
  <text fill="#333" font-family="Arial, Helvetica, sans-serif" font-size="13" text-anchor="end" x="90" y="268">4</text>
  <rect fill="#f1f1f1" height="18" stroke="#333" stroke-width="1.5" width="420" x="650" y="254"/>
  <rect fill="#cccccc" height="18" stroke="none" width="12" x="854.0" y="254"/>
  <rect fill="#2ca02c" height="18" opacity="0.35" stroke="none" width="50.372906334356976" x="961.0043237846588" y="254"/>
  <rect fill="#d62728" height="18" opacity="0.35" stroke="none" width="55.06648786652469" x="686.8323090125328" y="254"/>
  <text fill="#333" font-family="Arial, Helvetica, sans-serif" font-size="13" text-anchor="end" x="620" y="268">16</text>
  <rect fill="#f1f1f1" height="18" stroke="#333" stroke-width="1.5" width="420" x="120" y="292"/>
  <rect fill="#cccccc" height="18" stroke="none" width="12" x="324.0" y="292"/>
  <rect fill="#2ca02c" height="18" opacity="0.35" stroke="none" width="40.2264787705542" x="427.5798638379558" y="292"/>
  <rect fill="#ffbb78" height="18" opacity="0.35" stroke="none" width="40.58688135867236" x="424.79978353634533" y="292"/>
  <text fill="#333" font-family="Arial, Helvetica, sans-serif" font-size="13" text-anchor="end" x="90" y="306">5</text>
  <rect fill="#f1f1f1" height="18" stroke="#333" stroke-width="1.5" width="420" x="650" y="292"/>
  <rect fill="#cccccc" height="18" stroke="none" width="12" x="854.0" y="292"/>
  <rect fill="#ffbb78" height="18" opacity="0.35" stroke="none" width="69.30183712490648" x="932.4710261573816" y="292"/>
  <rect fill="#2ca02c" height="18" opacity="0.35" stroke="none" width="33.67926032580863" x="916.4273096273974" y="292"/>
  <rect fill="#ffbb78" height="18" opacity="0.35" stroke="none" width="32.02035604526032" x="869.6806431016608" y="292"/>
  <text fill="#333" font-family="Arial, Helvetica, sans-serif" font-size="13" text-anchor="end" x="620" y="306">17</text>
  <rect fill="#f1f1f1" height="18" stroke="#333" stroke-width="1.5" width="420" x="120" y="330"/>
  <rect fill="#cccccc" height="18" stroke="none" width="12" x="324.0" y="330"/>
  <rect fill="#d62728" height="18" opacity="0.35" stroke="none" width="26.85144363171638" x="448.896752306214" y="330"/>
  <rect fill="#2ca02c" height="18" opacity="0.35" stroke="none" width="73.47631966570862" x="291.52048983912914" y="330"/>
  <text fill="#333" font-family="Arial, Helvetica, sans-serif" font-size="13" text-anchor="end" x="90" y="344">6</text>
  <rect fill="#f1f1f1" height="18" stroke="#333" stroke-width="1.5" width="420" x="650" y="330"/>
  <rect fill="#cccccc" height="18" stroke="none" width="12" x="854.0" y="330"/>
  <rect fill="#9467bd" height="18" opacity="0.35" stroke="none" width="52.75973546221167" x="1004.9701404129257" y="330"/>
  <text fill="#333" font-family="Arial, Helvetica, sans-serif" font-size="13" text-anchor="end" x="620" y="344">18</text>
  <rect fill="#f1f1f1" height="18" stroke="#333" stroke-width="1.5" width="420" x="120" y="368"/>
  <rect fill="#cccccc" height="18" stroke="none" width="12" x="324.0" y="368"/>
  <rect fill="#9467bd" height="18" opacity="0.35" stroke="none" width="63.10740473646412" x="228.98763171919657" y="368"/>
  <rect fill="#2ca02c" height="18" opacity="0.35" stroke="none" width="26.022259980512896" x="295.55675971683" y="368"/>
  <text fill="#333" font-family="Arial, Helvetica, sans-serif" font-size="13" text-anchor="end" x="90" y="382">7</text>
  <rect fill="#f1f1f1" height="18" stroke="#333" stroke-width="1.5" width="420" x="650" y="368"/>
  <rect fill="#cccccc" height="18" stroke="none" width="12" x="854.0" y="368"/>
  <rect fill="#2ca02c" height="18" opacity="0.35" stroke="none" width="51.30581529795472" x="833.7344126074723" y="368"/>
  <text fill="#333" font-family="Arial, Helvetica, sans-serif" font-size="13" text-anchor="end" x="620" y="382">19</text>
  <rect fill="#f1f1f1" height="18" stroke="#333" stroke-width="1.5" width="420" x="120" y="406"/>
  <rect fill="#cccccc" height="18" stroke="none" width="12" x="324.0" y="406"/>
  <rect fill="#2ca02c" height="18" opacity="0.35" stroke="none" width="51.98535035767049" x="344.53523570092113" y="406"/>
  <rect fill="#2ca02c" height="18" opacity="0.35" stroke="none" width="28.594382670226626" x="463.3554314785799" y="406"/>
  <text fill="#333" font-family="Arial, Helvetica, sans-serif" font-size="13" text-anchor="end" x="90" y="420">8</text>
  <rect fill="#f1f1f1" height="18" stroke="#333" stroke-width="1.5" width="420" x="650" y="406"/>
  <rect fill="#cccccc" height="18" stroke="none" width="12" x="854.0" y="406"/>
  <rect fill="#d62728" height="18" opacity="0.35" stroke="none" width="47.514373658513044" x="723.3277291400761" y="406"/>
  <text fill="#333" font-family="Arial, Helvetica, sans-serif" font-size="13" text-anchor="end" x="620" y="420">20</text>
  <rect fill="#f1f1f1" height="18" stroke="#333" stroke-width="1.5" width="420" x="120" y="444"/>
  <rect fill="#cccccc" height="18" stroke="none" width="12" x="324.0" y="444"/>
  <rect fill="#2ca02c" height="18" opacity="0.35" stroke="none" width="30.522776664869323" x="241.66791291658043" y="444"/>
  <text fill="#333" font-family="Arial, Helvetica, sans-serif" font-size="13" text-anchor="end" x="90" y="458">9</text>
  <rect fill="#f1f1f1" height="18" stroke="#333" stroke-width="1.5" width="420" x="650" y="444"/>
  <rect fill="#cccccc" height="18" stroke="none" width="12" x="854.0" y="444"/>
  <rect fill="#2ca02c" height="18" opacity="0.35" stroke="none" width="34.179690956312335" x="771.3838619575971" y="444"/>
  <text fill="#333" font-family="Arial, Helvetica, sans-serif" font-size="13" text-anchor="end" x="620" y="458">21</text>
  <rect fill="#f1f1f1" height="18" stroke="#333" stroke-width="1.5" width="420" x="120" y="482"/>
  <rect fill="#cccccc" height="18" stroke="none" width="12" x="324.0" y="482"/>
  <rect fill="#ffbb78" height="18" opacity="0.35" stroke="none" width="39.02576890687778" x="176.76516016162458" y="482"/>
  <text fill="#333" font-family="Arial, Helvetica, sans-serif" font-size="13" text-anchor="end" x="90" y="496">10</text>
  <rect fill="#f1f1f1" height="18" stroke="#333" stroke-width="1.5" width="420" x="650" y="482"/>
  <rect fill="#cccccc" height="18" stroke="none" width="12" x="854.0" y="482"/>
  <rect fill="#ffbb78" height="18" opacity="0.35" stroke="none" width="32.52844995981843" x="835.2757168769493" y="482"/>
  <text fill="#333" font-family="Arial, Helvetica, sans-serif" font-size="13" text-anchor="end" x="620" y="496">22</text>
  <rect fill="#f1f1f1" height="18" stroke="#333" stroke-width="1.5" width="420" x="120" y="520"/>
  <rect fill="#cccccc" height="18" stroke="none" width="12" x="324.0" y="520"/>
  <rect fill="#d62728" height="18" opacity="0.35" stroke="none" width="27.176857992095993" x="291.59172972577795" y="520"/>
  <text fill="#333" font-family="Arial, Helvetica, sans-serif" font-size="13" text-anchor="end" x="90" y="534">11</text>
  <rect fill="#f1f1f1" height="18" stroke="#333" stroke-width="1.5" width="420" x="650" y="520"/>
  <rect fill="#cccccc" height="18" stroke="none" width="12" x="854.0" y="520"/>
  <rect fill="#d62728" height="18" opacity="0.35" stroke="none" width="43.79008274360939" x="768.839165527163" y="520"/>
  <text fill="#333" font-family="Arial, Helvetica, sans-serif" font-size="13" text-anchor="end" x="620" y="534">X</text>
  <rect fill="#f1f1f1" height="18" stroke="#333" stroke-width="1.5" width="420" x="120" y="558"/>
  <rect fill="#cccccc" height="18" stroke="none" width="12" x="324.0" y="558"/>
  <rect fill="#9467bd" height="18" opacity="0.35" stroke="none" width="41.3516135505501" x="314.4482942688621" y="558"/>
  <rect fill="#ffbb78" height="18" opacity="0.35" stroke="none" width="62.586470566537145" x="327.2366486358151" y="558"/>
  <rect fill="#ffbb78" height="18" opacity="0.35" stroke="none" width="31.721482642190765" x="249.52809378258974" y="558"/>
  <text fill="#333" font-family="Arial, Helvetica, sans-serif" font-size="13" text-anchor="end" x="90" y="572">12</text>
  <rect fill="#f1f1f1" height="18" stroke="#333" stroke-width="1.5" width="420" x="650" y="558"/>
  <rect fill="#cccccc" height="18" stroke="none" width="12" x="854.0" y="558"/>
  <rect fill="#ffbb78" height="18" opacity="0.35" stroke="none" width="56.82959498159648" x="820.197189411575" y="558"/>
  <rect fill="#ffbb78" height="18" opacity="0.35" stroke="none" width="59.40171465302472" x="870.623567320465" y="558"/>
  <text fill="#333" font-family="Arial, Helvetica, sans-serif" font-size="13" text-anchor="end" x="620" y="572">Y</text>
  <path d="M 980,160 L 1045.0,160.0 A 65,65 0 1,1 1018.2060413990107,107.4138953656284 Z" fill="#dddddd" stroke="white" stroke-width="1.5"/>
  <path d="M 980,160 L 1018.2060413990107,107.4138953656284 A 65,65 0 0,1 1032.5861046343716,121.79395860098923 Z" fill="#ffbb78" stroke="white" stroke-width="1.5"/>
  <path d="M 980,160 L 1032.5861046343716,121.79395860098923 A 65,65 0 0,1 1041.818673559185,139.9138953656284 Z" fill="#2ca02c" stroke="white" stroke-width="1.5"/>
  <path d="M 980,160 L 1041.818673559185,139.9138953656284 A 65,65 0 0,1 1045.0,159.99999999999997 Z" fill="#9467bd" stroke="white" stroke-width="1.5"/>
  <text fill="#333" font-family="Arial, Helvetica, sans-serif" font-size="12" text-anchor="middle" x="980" y="255">Genome fraction</text>
  <rect fill="none" height="120" stroke="#999" stroke-width="1.5" width="220" x="930" y="340"/>
  <line stroke="#333" stroke-width="3" x1="948" x2="966" y1="375" y2="375"/>
  <line stroke="#333" stroke-width="3" x1="976" x2="994" y1="375" y2="375"/>
  <line stroke="#333" stroke-width="3" x1="1004" x2="1022" y1="375" y2="375"/>
  <line stroke="#333" stroke-width="3" x1="1032" x2="1050" y1="375" y2="375"/>
  <line stroke="#333" stroke-width="3" x1="1060" x2="1078" y1="375" y2="375"/>
  <line stroke="#333" stroke-width="3" x1="1088" x2="1106" y1="375" y2="375"/>
  <line stroke="#333" stroke-width="3" x1="1116" x2="1134" y1="375" y2="375"/>
  <line stroke="#d62728" stroke-width="4" x1="955" x2="1125" y1="420" y2="420"/>
  <text fill="#333" font-family="Arial, Helvetica, sans-serif" font-size="12" x="945" y="360">short reads</text>
  <text fill="#333" font-family="Arial, Helvetica, sans-serif" font-size="12" x="945" y="450">long read spans region</text>
  <text fill="#999" font-family="Arial, Helvetica, sans-serif" font-size="12" text-anchor="end" x="1140" y="776">Auto-generated SVG</text>
</svg>
