<?xml version="1.0" encoding="utf-8" ?>
<svg xmlns="http://www.w3.org/2000/svg" xmlns:ev="http://www.w3.org/2001/xml-events" xmlns:xlink="http://www.w3.org/1999/xlink" baseProfile="full" height="800" version="1.1" width="1200">
  <defs>
    <marker id="id145" markerHeight="7" markerWidth="7" orient="auto" refX="6" refY="3">
      <path d="M0,0 L0,6 L6,3 z" fill="#333333"/>
    </marker>
  </defs>
  <rect fill="white" height="800" width="1200" x="0" y="0"/>
  <text fill="#111" font-family="Arial, Helvetica, sans-serif" font-size="28" font-weight="700" x="60" y="50">Figure 15.2: ESM-2 Scaling (Three-Panel)</text>
  <text fill="#444" font-family="Arial, Helvetica, sans-serif" font-size="16" x="60" y="78">Panel C</text>
  <rect fill="#f7f7f7" height="110" rx="12" ry="12" stroke="#333" stroke-width="2" width="505.0" x="80.0" y="140"/>
  <text fill="#111" font-family="Arial, Helvetica, sans-serif" font-size="16" text-anchor="middle" x="332.5" y="201.5">Training FLOPs</text>
  <rect fill="#f7f7f7" height="110" rx="12" ry="12" stroke="#333" stroke-width="2" width="505.0" x="615.0" y="140"/>
  <text fill="#111" font-family="Arial, Helvetica, sans-serif" font-size="16" text-anchor="middle" x="867.5" y="201.5">Model Parameters</text>
  <rect fill="#f7f7f7" height="110" rx="12" ry="12" stroke="#333" stroke-width="2" width="505.0" x="80.0" y="280"/>
  <text fill="#111" font-family="Arial, Helvetica, sans-serif" font-size="16" text-anchor="middle" x="332.5" y="341.5">Compute-Optimal Model Scaling</text>
  <rect fill="#f7f7f7" height="110" rx="12" ry="12" stroke="#333" stroke-width="2" width="505.0" x="615.0" y="280"/>
  <text fill="#111" font-family="Arial, Helvetica, sans-serif" font-size="16" text-anchor="middle" x="867.5" y="341.5">ESM-2 follows near-optimal scaling</text>
  <line marker-end="url(#id145)" stroke="#333" stroke-width="2" x1="332.5" x2="867.5" y1="195.0" y2="195.0"/>
  <line marker-end="url(#id145)" stroke="#333" stroke-width="2" x1="867.5" x2="332.5" y1="195.0" y2="335.0"/>
  <line marker-end="url(#id145)" stroke="#333" stroke-width="2" x1="332.5" x2="867.5" y1="335.0" y2="335.0"/>
  <text fill="#999" font-family="Arial, Helvetica, sans-serif" font-size="12" text-anchor="end" x="1140" y="776">Auto-generated SVG</text>
</svg>
