<?xml version="1.0" encoding="UTF-8" standalone="no"?>
<!DOCTYPE svg PUBLIC "-//W3C//DTD SVG 1.1//EN"
 "http://www.w3.org/Graphics/SVG/1.1/DTD/svg11.dtd">
<!-- Generated by graphviz version 2.43.0 (0)
 -->
<!-- Title: esmfold Pages: 1 -->
<svg width="720pt" height="68pt"
 viewBox="0.00 0.00 720.00 68.28" xmlns="http://www.w3.org/2000/svg" xmlns:xlink="http://www.w3.org/1999/xlink">
<g id="graph0" class="graph" transform="scale(1.55 1.55) rotate(0) translate(4 40)">
<title>esmfold</title>
<polygon fill="white" stroke="transparent" points="-4,4 -4,-40 460,-40 460,4 -4,4"/>
<!-- seq -->
<g id="node1" class="node">
<title>seq</title>
<path fill="#aec7e8" stroke="black" stroke-width="1.5" d="M47,-36C47,-36 12,-36 12,-36 6,-36 0,-30 0,-24 0,-24 0,-12 0,-12 0,-6 6,0 12,0 12,0 47,0 47,0 53,0 59,-6 59,-12 59,-12 59,-24 59,-24 59,-30 53,-36 47,-36"/>
<text text-anchor="middle" x="29.5" y="-20.8" font-family="Arial" font-size="9.00">Protein</text>
<text text-anchor="middle" x="29.5" y="-10.8" font-family="Arial" font-size="9.00">Sequence</text>
</g>
<!-- esm -->
<g id="node2" class="node">
<title>esm</title>
<path fill="#9467bd" stroke="black" stroke-width="1.5" d="M137,-36C137,-36 107,-36 107,-36 101,-36 95,-30 95,-24 95,-24 95,-12 95,-12 95,-6 101,0 107,0 107,0 137,0 137,0 143,0 149,-6 149,-12 149,-12 149,-24 149,-24 149,-30 143,-36 137,-36"/>
<text text-anchor="middle" x="122" y="-20.8" font-family="Arial" font-size="9.00" fill="white">ESM&#45;2</text>
<text text-anchor="middle" x="122" y="-10.8" font-family="Arial" font-size="9.00" fill="white">(15B)</text>
</g>
<!-- seq&#45;&gt;esm -->
<g id="edge1" class="edge">
<title>seq&#45;&gt;esm</title>
<path fill="none" stroke="black" d="M59.13,-18C67.23,-18 76.16,-18 84.65,-18"/>
<polygon fill="black" stroke="black" points="84.7,-21.5 94.7,-18 84.7,-14.5 84.7,-21.5"/>
</g>
<!-- embed -->
<g id="node3" class="node">
<title>embed</title>
<path fill="#c5b0d5" stroke="black" stroke-width="1.5" d="M250,-36C250,-36 197,-36 197,-36 191,-36 185,-30 185,-24 185,-24 185,-12 185,-12 185,-6 191,0 197,0 197,0 250,0 250,0 256,0 262,-6 262,-12 262,-12 262,-24 262,-24 262,-30 256,-36 250,-36"/>
<text text-anchor="middle" x="223.5" y="-20.8" font-family="Arial" font-size="9.00">Embeddings +</text>
<text text-anchor="middle" x="223.5" y="-10.8" font-family="Arial" font-size="9.00">Attention Maps</text>
</g>
<!-- esm&#45;&gt;embed -->
<g id="edge2" class="edge">
<title>esm&#45;&gt;embed</title>
<path fill="none" stroke="black" d="M149.14,-18C157.01,-18 165.89,-18 174.7,-18"/>
<polygon fill="black" stroke="black" points="174.93,-21.5 184.93,-18 174.93,-14.5 174.93,-21.5"/>
</g>
<!-- fold -->
<g id="node4" class="node">
<title>fold</title>
<path fill="#2ca02c" stroke="black" stroke-width="1.5" d="M340,-36C340,-36 310,-36 310,-36 304,-36 298,-30 298,-24 298,-24 298,-12 298,-12 298,-6 304,0 310,0 310,0 340,0 340,0 346,0 352,-6 352,-12 352,-12 352,-24 352,-24 352,-30 346,-36 340,-36"/>
<text text-anchor="middle" x="325" y="-20.8" font-family="Arial" font-size="9.00" fill="white">Folding</text>
<text text-anchor="middle" x="325" y="-10.8" font-family="Arial" font-size="9.00" fill="white">Module</text>
</g>
<!-- embed&#45;&gt;fold -->
<g id="edge3" class="edge">
<title>embed&#45;&gt;fold</title>
<path fill="none" stroke="black" d="M262.12,-18C270.47,-18 279.32,-18 287.63,-18"/>
<polygon fill="black" stroke="black" points="287.78,-21.5 297.78,-18 287.78,-14.5 287.78,-21.5"/>
</g>
<!-- struct -->
<g id="node5" class="node">
<title>struct</title>
<path fill="#98df8a" stroke="black" stroke-width="1.5" d="M444,-36C444,-36 400,-36 400,-36 394,-36 388,-30 388,-24 388,-24 388,-12 388,-12 388,-6 394,0 400,0 400,0 444,0 444,0 450,0 456,-6 456,-12 456,-12 456,-24 456,-24 456,-30 450,-36 444,-36"/>
<text text-anchor="middle" x="422" y="-15.8" font-family="Arial" font-size="9.00">3D Structure</text>
</g>
<!-- fold&#45;&gt;struct -->
<g id="edge4" class="edge">
<title>fold&#45;&gt;struct</title>
<path fill="none" stroke="black" d="M352.21,-18C360.11,-18 368.99,-18 377.69,-18"/>
<polygon fill="black" stroke="black" points="377.74,-21.5 387.74,-18 377.74,-14.5 377.74,-21.5"/>
</g>
</g>
</svg>
