<?xml version="1.0" encoding="utf-8" ?>
<svg xmlns="http://www.w3.org/2000/svg" xmlns:ev="http://www.w3.org/2001/xml-events" xmlns:xlink="http://www.w3.org/1999/xlink" baseProfile="full" height="800" version="1.1" width="1200">
  <defs>
    <marker id="id150" markerHeight="7" markerWidth="7" orient="auto" refX="6" refY="3">
      <path d="M0,0 L0,6 L6,3 z" fill="#333333"/>
    </marker>
  </defs>
  <rect fill="white" height="800" width="1200" x="0" y="0"/>
  <text fill="#111" font-family="Arial, Helvetica, sans-serif" font-size="28" font-weight="700" x="60" y="50">Figure 15.4: PLM Variant Scoring (Four-Panel)</text>
  <text fill="#444" font-family="Arial, Helvetica, sans-serif" font-size="16" x="60" y="78">Panel A</text>
  <rect fill="#f7f7f7" height="110" rx="12" ry="12" stroke="#333" stroke-width="2" width="326.6666666666667" x="80.0" y="140"/>
  <text fill="#111" font-family="Arial, Helvetica, sans-serif" font-size="16" text-anchor="middle" x="243.33333333333334" y="201.5">Wild-type</text>
  <rect fill="#f7f7f7" height="110" rx="12" ry="12" stroke="#333" stroke-width="2" width="326.6666666666667" x="436.6666666666667" y="140"/>
  <text fill="#111" font-family="Arial, Helvetica, sans-serif" font-size="16" text-anchor="middle" x="600.0" y="201.5">...MVLK...</text>
  <rect fill="#f7f7f7" height="110" rx="12" ry="12" stroke="#333" stroke-width="2" width="326.6666666666667" x="793.3333333333334" y="140"/>
  <text fill="#111" font-family="Arial, Helvetica, sans-serif" font-size="16" text-anchor="middle" x="956.6666666666667" y="201.5">P(L|context) = 0.92</text>
  <rect fill="#f7f7f7" height="110" rx="12" ry="12" stroke="#333" stroke-width="2" width="326.6666666666667" x="80.0" y="280"/>
  <text fill="#111" font-family="Arial, Helvetica, sans-serif" font-size="16" text-anchor="middle" x="243.33333333333334" y="341.5">Mutant</text>
  <rect fill="#f7f7f7" height="110" rx="12" ry="12" stroke="#333" stroke-width="2" width="326.6666666666667" x="436.6666666666667" y="280"/>
  <text fill="#111" font-family="Arial, Helvetica, sans-serif" font-size="16" text-anchor="middle" x="600.0" y="341.5">...MVPK...</text>
  <rect fill="#f7f7f7" height="110" rx="12" ry="12" stroke="#333" stroke-width="2" width="326.6666666666667" x="793.3333333333334" y="280"/>
  <text fill="#111" font-family="Arial, Helvetica, sans-serif" font-size="16" text-anchor="middle" x="956.6666666666667" y="341.5">P(P|context) = 0.03</text>
  <line marker-end="url(#id150)" stroke="#333" stroke-width="2" x1="243.33333333333334" x2="600.0" y1="195.0" y2="195.0"/>
  <line marker-end="url(#id150)" stroke="#333" stroke-width="2" x1="600.0" x2="956.6666666666667" y1="195.0" y2="195.0"/>
  <line marker-end="url(#id150)" stroke="#333" stroke-width="2" x1="956.6666666666667" x2="243.33333333333334" y1="195.0" y2="335.0"/>
  <line marker-end="url(#id150)" stroke="#333" stroke-width="2" x1="243.33333333333334" x2="600.0" y1="335.0" y2="335.0"/>
  <line marker-end="url(#id150)" stroke="#333" stroke-width="2" x1="600.0" x2="956.6666666666667" y1="335.0" y2="335.0"/>
  <text fill="#999" font-family="Arial, Helvetica, sans-serif" font-size="12" text-anchor="end" x="1140" y="776">Auto-generated SVG</text>
</svg>
