<?xml version="1.0" encoding="utf-8" ?>
<svg xmlns="http://www.w3.org/2000/svg" xmlns:ev="http://www.w3.org/2001/xml-events" xmlns:xlink="http://www.w3.org/1999/xlink" baseProfile="full" height="800" version="1.1" width="1200">
  <defs>
    <marker id="id152" markerHeight="7" markerWidth="7" orient="auto" refX="6" refY="3">
      <path d="M0,0 L0,6 L6,3 z" fill="#333333"/>
    </marker>
  </defs>
  <rect fill="white" height="800" width="1200" x="0" y="0"/>
  <text fill="#111" font-family="Arial, Helvetica, sans-serif" font-size="28" font-weight="700" x="60" y="50">Figure 15.4: PLM Variant Scoring (Four-Panel)</text>
  <text fill="#444" font-family="Arial, Helvetica, sans-serif" font-size="16" x="60" y="78">Panel C</text>
  <line stroke="#333" stroke-width="2" x1="140" x2="1000" y1="720" y2="720"/>
  <line stroke="#333" stroke-width="2" x1="140" x2="140" y1="160" y2="720"/>
  <circle cx="437.2345378896891" cy="428.547386138331" fill="#ff7f0e" opacity="0.75" r="4"/>
  <circle cx="325.39293837672903" cy="565.6142403664983" fill="#2ca02c" opacity="0.75" r="4"/>
  <circle cx="354.5885561735222" cy="514.7304827426154" fill="#1f77b4" opacity="0.75" r="4"/>
  <circle cx="362.9696796635367" cy="417.50338923011424" fill="#2ca02c" opacity="0.75" r="4"/>
  <circle cx="351.8793044036578" cy="499.0360683480563" fill="#1f77b4" opacity="0.75" r="4"/>
  <circle cx="415.7145615321712" cy="484.0500191898903" fill="#ff7f0e" opacity="0.75" r="4"/>
  <circle cx="342.4436783126106" cy="558.0148243364497" fill="#ff7f0e" opacity="0.75" r="4"/>
  <circle cx="426.0703114054014" cy="562.6504332321081" fill="#1f77b4" opacity="0.75" r="4"/>
  <circle cx="305.0239545541309" cy="532.9631207707178" fill="#ff7f0e" opacity="0.75" r="4"/>
  <circle cx="393.3183440677235" cy="478.19275172339877" fill="#1f77b4" opacity="0.75" r="4"/>
  <circle cx="385.19190546701884" cy="593.5819034084366" fill="#2ca02c" opacity="0.75" r="4"/>
  <circle cx="421.24074290217766" cy="551.9548117864449" fill="#ff7f0e" opacity="0.75" r="4"/>
  <circle cx="365.37219134746124" cy="611.1188407726337" fill="#ff7f0e" opacity="0.75" r="4"/>
  <circle cx="415.8773078925156" cy="546.5232783808474" fill="#2ca02c" opacity="0.75" r="4"/>
  <circle cx="436.53798886714196" cy="554.770204251919" fill="#1f77b4" opacity="0.75" r="4"/>
  <circle cx="471.8293549305343" cy="466.9403852277967" fill="#1f77b4" opacity="0.75" r="4"/>
  <circle cx="440.06372242387744" cy="472.43032956272174" fill="#1f77b4" opacity="0.75" r="4"/>
  <circle cx="329.1028482920376" cy="444.6974570482295" fill="#2ca02c" opacity="0.75" r="4"/>
  <circle cx="337.57259714169584" cy="550.820647362815" fill="#ff7f0e" opacity="0.75" r="4"/>
  <circle cx="327.0610330309272" cy="486.38151695939524" fill="#1f77b4" opacity="0.75" r="4"/>
  <circle cx="463.7598331614031" cy="500.6235585342306" fill="#ff7f0e" opacity="0.75" r="4"/>
  <circle cx="520.6069535587438" cy="551.8207261242733" fill="#2ca02c" opacity="0.75" r="4"/>
  <circle cx="368.17505140198216" cy="545.9052103811571" fill="#2ca02c" opacity="0.75" r="4"/>
  <circle cx="450.83903326105286" cy="605.224937381003" fill="#ff7f0e" opacity="0.75" r="4"/>
  <circle cx="398.1619715235184" cy="577.1044361625126" fill="#1f77b4" opacity="0.75" r="4"/>
  <circle cx="477.4866404882711" cy="516.6254607779765" fill="#1f77b4" opacity="0.75" r="4"/>
  <circle cx="411.62474974411936" cy="601.3350196932919" fill="#ff7f0e" opacity="0.75" r="4"/>
  <circle cx="327.28786892509805" cy="556.0001645487067" fill="#1f77b4" opacity="0.75" r="4"/>
  <circle cx="457.4756483809166" cy="555.6308543712476" fill="#2ca02c" opacity="0.75" r="4"/>
  <circle cx="416.2593191720439" cy="480.9093125688845" fill="#1f77b4" opacity="0.75" r="4"/>
  <circle cx="502.3827388454026" cy="514.2366188513112" fill="#2ca02c" opacity="0.75" r="4"/>
  <circle cx="431.49414232756067" cy="519.9525782815896" fill="#1f77b4" opacity="0.75" r="4"/>
  <circle cx="320.3211501398875" cy="527.8959902197121" fill="#1f77b4" opacity="0.75" r="4"/>
  <circle cx="448.75478958479897" cy="462.12516204028685" fill="#1f77b4" opacity="0.75" r="4"/>
  <circle cx="357.07352852793053" cy="397.6642420745251" fill="#1f77b4" opacity="0.75" r="4"/>
  <circle cx="252.2869209697809" cy="679.1330411700943" fill="#1f77b4" opacity="0.75" r="4"/>
  <circle cx="316.1154335123026" cy="473.69263537249816" fill="#1f77b4" opacity="0.75" r="4"/>
  <circle cx="373.3538186958723" cy="501.84364752329344" fill="#ff7f0e" opacity="0.75" r="4"/>
  <circle cx="402.88439232693105" cy="561.0731501769444" fill="#2ca02c" opacity="0.75" r="4"/>
  <circle cx="380.21096828003783" cy="520.9077290878707" fill="#1f77b4" opacity="0.75" r="4"/>
  <circle cx="515.6418987044816" cy="599.0743355094228" fill="#1f77b4" opacity="0.75" r="4"/>
  <circle cx="330.00830228389634" cy="513.3834529157411" fill="#ff7f0e" opacity="0.75" r="4"/>
  <circle cx="299.4769451644306" cy="506.46532884071223" fill="#ff7f0e" opacity="0.75" r="4"/>
  <circle cx="484.8628693241378" cy="439.34098611118304" fill="#ff7f0e" opacity="0.75" r="4"/>
  <circle cx="332.794653266778" cy="616.8849278036244" fill="#2ca02c" opacity="0.75" r="4"/>
  <circle cx="353.1930384850024" cy="509.78563755587976" fill="#2ca02c" opacity="0.75" r="4"/>
  <circle cx="321.46656837937655" cy="574.7454647976539" fill="#1f77b4" opacity="0.75" r="4"/>
  <circle cx="395.68949516444997" cy="538.9510144352039" fill="#1f77b4" opacity="0.75" r="4"/>
  <circle cx="425.6471082261235" cy="560.2415763443463" fill="#1f77b4" opacity="0.75" r="4"/>
  <circle cx="414.9450375398898" cy="550.6626680947788" fill="#ff7f0e" opacity="0.75" r="4"/>
  <circle cx="451.3850269667333" cy="568.2068263038207" fill="#2ca02c" opacity="0.75" r="4"/>
  <circle cx="421.9706671525683" cy="469.7753140839462" fill="#1f77b4" opacity="0.75" r="4"/>
  <circle cx="435.59978083893424" cy="553.9598866281879" fill="#1f77b4" opacity="0.75" r="4"/>
  <circle cx="334.42561098169887" cy="500.55850803471833" fill="#1f77b4" opacity="0.75" r="4"/>
  <circle cx="398.6322192762485" cy="548.6850341457591" fill="#ff7f0e" opacity="0.75" r="4"/>
  <circle cx="703.9993695455014" cy="339.28603045993134" fill="#1f77b4" opacity="0.75" r="4"/>
  <circle cx="669.6401156884594" cy="443.94033918473764" fill="#1f77b4" opacity="0.75" r="4"/>
  <circle cx="768.6330730383128" cy="393.12006828533845" fill="#2ca02c" opacity="0.75" r="4"/>
  <circle cx="626.4818299300573" cy="459.18924238240726" fill="#ff7f0e" opacity="0.75" r="4"/>
  <circle cx="530.971399244437" cy="444.26052248789927" fill="#2ca02c" opacity="0.75" r="4"/>
  <circle cx="789.8847023652474" cy="335.5060849662604" fill="#2ca02c" opacity="0.75" r="4"/>
  <circle cx="607.6155734580282" cy="423.91883302622523" fill="#1f77b4" opacity="0.75" r="4"/>
  <circle cx="680.1682110420608" cy="374.47498917099483" fill="#1f77b4" opacity="0.75" r="4"/>
  <circle cx="607.0818582961185" cy="394.2701154521094" fill="#2ca02c" opacity="0.75" r="4"/>
  <circle cx="643.7003408074902" cy="452.8478379956093" fill="#ff7f0e" opacity="0.75" r="4"/>
  <circle cx="621.5670176839963" cy="440.78739246725905" fill="#1f77b4" opacity="0.75" r="4"/>
  <circle cx="758.4128798939813" cy="296.58511283007596" fill="#1f77b4" opacity="0.75" r="4"/>
  <circle cx="730.1175697523728" cy="486.2709379936318" fill="#ff7f0e" opacity="0.75" r="4"/>
  <circle cx="726.0728378899297" cy="326.2696349564724" fill="#1f77b4" opacity="0.75" r="4"/>
  <circle cx="668.419213873614" cy="439.3491321273995" fill="#2ca02c" opacity="0.75" r="4"/>
  <circle cx="733.5755027118589" cy="345.7987914746651" fill="#ff7f0e" opacity="0.75" r="4"/>
  <circle cx="493.0045098928934" cy="380.4514754865326" fill="#ff7f0e" opacity="0.75" r="4"/>
  <circle cx="656.8498981075307" cy="438.51229926157094" fill="#1f77b4" opacity="0.75" r="4"/>
  <circle cx="654.2784428313098" cy="413.56171610330404" fill="#2ca02c" opacity="0.75" r="4"/>
  <circle cx="574.2131504957132" cy="445.2740376373006" fill="#1f77b4" opacity="0.75" r="4"/>
  <circle cx="645.868446557047" cy="458.87300935212505" fill="#ff7f0e" opacity="0.75" r="4"/>
  <circle cx="626.0551084055958" cy="456.4868913760326" fill="#1f77b4" opacity="0.75" r="4"/>
  <circle cx="670.6885647133399" cy="387.1703869917368" fill="#1f77b4" opacity="0.75" r="4"/>
  <circle cx="556.5198911660771" cy="260.3631096348639" fill="#1f77b4" opacity="0.75" r="4"/>
  <circle cx="529.8923959102701" cy="490.98385137301744" fill="#1f77b4" opacity="0.75" r="4"/>
  <circle cx="497.15676826624826" cy="432.16447448524343" fill="#1f77b4" opacity="0.75" r="4"/>
  <circle cx="713.7663688043599" cy="445.2491663420451" fill="#1f77b4" opacity="0.75" r="4"/>
  <circle cx="703.6514224502979" cy="515.2592299640025" fill="#ff7f0e" opacity="0.75" r="4"/>
  <circle cx="690.9776544649876" cy="418.0431182007059" fill="#ff7f0e" opacity="0.75" r="4"/>
  <circle cx="661.684955673961" cy="412.0404296983166" fill="#ff7f0e" opacity="0.75" r="4"/>
  <circle cx="568.7549531113235" cy="343.89316770053034" fill="#ff7f0e" opacity="0.75" r="4"/>
  <circle cx="668.4049891806774" cy="407.82911571037937" fill="#2ca02c" opacity="0.75" r="4"/>
  <circle cx="602.7955550452364" cy="291.9275141777848" fill="#1f77b4" opacity="0.75" r="4"/>
  <circle cx="685.4089472997855" cy="466.9238999209717" fill="#1f77b4" opacity="0.75" r="4"/>
  <circle cx="561.9448490999812" cy="397.4302385989234" fill="#2ca02c" opacity="0.75" r="4"/>
  <circle cx="500.8997409952908" cy="396.29399290279423" fill="#1f77b4" opacity="0.75" r="4"/>
  <circle cx="536.8320121940867" cy="430.2882028767479" fill="#2ca02c" opacity="0.75" r="4"/>
  <circle cx="689.8752925078535" cy="411.86827582423507" fill="#1f77b4" opacity="0.75" r="4"/>
  <circle cx="688.5098798668367" cy="374.81352777302527" fill="#2ca02c" opacity="0.75" r="4"/>
  <circle cx="475.1195879261311" cy="343.9462953674454" fill="#2ca02c" opacity="0.75" r="4"/>
  <circle cx="751.8399443361571" cy="500.63477584582785" fill="#1f77b4" opacity="0.75" r="4"/>
  <circle cx="771.2011241528348" cy="451.57410246723845" fill="#1f77b4" opacity="0.75" r="4"/>
  <circle cx="615.7236821231312" cy="479.3812524201131" fill="#1f77b4" opacity="0.75" r="4"/>
  <circle cx="782.7751539659259" cy="439.82289237208914" fill="#ff7f0e" opacity="0.75" r="4"/>
  <circle cx="643.0727000247076" cy="373.95204503141815" fill="#ff7f0e" opacity="0.75" r="4"/>
  <circle cx="635.6751193743394" cy="381.44976210050163" fill="#ff7f0e" opacity="0.75" r="4"/>
  <circle cx="838.4352623999011" cy="441.1353099477921" fill="#ff7f0e" opacity="0.75" r="4"/>
  <circle cx="496.0534168569418" cy="474.8677107729174" fill="#ff7f0e" opacity="0.75" r="4"/>
  <circle cx="676.4921092868124" cy="439.43591723789126" fill="#2ca02c" opacity="0.75" r="4"/>
  <circle cx="647.8937111577526" cy="395.16859330118143" fill="#2ca02c" opacity="0.75" r="4"/>
  <circle cx="715.9741396921838" cy="434.88139146680044" fill="#1f77b4" opacity="0.75" r="4"/>
  <circle cx="547.8355022689385" cy="359.19522847401186" fill="#ff7f0e" opacity="0.75" r="4"/>
  <circle cx="794.4411374860729" cy="375.85749061108396" fill="#1f77b4" opacity="0.75" r="4"/>
  <circle cx="652.2003888534289" cy="347.6076645550284" fill="#1f77b4" opacity="0.75" r="4"/>
  <circle cx="656.3158740146471" cy="437.23701916432424" fill="#2ca02c" opacity="0.75" r="4"/>
  <circle cx="568.7959280744462" cy="536.5346719097931" fill="#2ca02c" opacity="0.75" r="4"/>
  <circle cx="396.2316709263373" cy="561.8004442828378" fill="#2ca02c" opacity="0.75" r="4"/>
  <circle cx="460.03845724230064" cy="604.8927697782783" fill="#ff7f0e" opacity="0.75" r="4"/>
  <circle cx="639.4713904977028" cy="599.9060401172549" fill="#2ca02c" opacity="0.75" r="4"/>
  <circle cx="525.3588257940202" cy="553.506298039533" fill="#1f77b4" opacity="0.75" r="4"/>
  <circle cx="570.8481073955638" cy="576.4462422427594" fill="#2ca02c" opacity="0.75" r="4"/>
  <circle cx="579.3450350061206" cy="600.3915010065314" fill="#ff7f0e" opacity="0.75" r="4"/>
  <circle cx="504.5109304629142" cy="598.1983781947938" fill="#ff7f0e" opacity="0.75" r="4"/>
  <circle cx="563.706872656308" cy="616.0548309761405" fill="#ff7f0e" opacity="0.75" r="4"/>
  <circle cx="502.9865252894238" cy="597.0406687820431" fill="#ff7f0e" opacity="0.75" r="4"/>
  <circle cx="472.7869171640706" cy="597.4631057208248" fill="#1f77b4" opacity="0.75" r="4"/>
  <circle cx="499.899988427822" cy="591.845454079938" fill="#1f77b4" opacity="0.75" r="4"/>
  <circle cx="536.5135741906081" cy="566.6067119878343" fill="#1f77b4" opacity="0.75" r="4"/>
  <circle cx="510.12419542318986" cy="596.6991759401906" fill="#2ca02c" opacity="0.75" r="4"/>
  <circle cx="464.2476661461403" cy="579.6156277437352" fill="#ff7f0e" opacity="0.75" r="4"/>
  <circle cx="621.8817513756894" cy="551.975158421079" fill="#ff7f0e" opacity="0.75" r="4"/>
  <circle cx="551.7786468058598" cy="598.9502075397659" fill="#ff7f0e" opacity="0.75" r="4"/>
  <circle cx="612.6361974076833" cy="642.6968995336956" fill="#1f77b4" opacity="0.75" r="4"/>
  <circle cx="552.5604638991038" cy="580.1743136219961" fill="#1f77b4" opacity="0.75" r="4"/>
  <circle cx="582.9162493050267" cy="631.3272962638703" fill="#2ca02c" opacity="0.75" r="4"/>
  <circle cx="584.0457214779085" cy="577.6754286125409" fill="#1f77b4" opacity="0.75" r="4"/>
  <circle cx="572.9956988600433" cy="601.3077078812031" fill="#1f77b4" opacity="0.75" r="4"/>
  <circle cx="520.0344349420693" cy="570.9655019670263" fill="#2ca02c" opacity="0.75" r="4"/>
  <circle cx="513.8008784589701" cy="570.9418551142622" fill="#1f77b4" opacity="0.75" r="4"/>
  <circle cx="656.535162955906" cy="553.6681974745464" fill="#1f77b4" opacity="0.75" r="4"/>
  <circle cx="532.5567470356239" cy="547.3439702722499" fill="#2ca02c" opacity="0.75" r="4"/>
  <circle cx="570.054263607612" cy="511.4562959975407" fill="#ff7f0e" opacity="0.75" r="4"/>
  <circle cx="494.53317596891475" cy="598.2702495140429" fill="#1f77b4" opacity="0.75" r="4"/>
  <circle cx="461.7807412502944" cy="585.1782916664295" fill="#2ca02c" opacity="0.75" r="4"/>
  <circle cx="550.7417913933232" cy="563.9062246860258" fill="#2ca02c" opacity="0.75" r="4"/>
  <circle cx="501.48079912829735" cy="618.7354688749539" fill="#ff7f0e" opacity="0.75" r="4"/>
  <circle cx="592.2539341233662" cy="617.5242868222417" fill="#ff7f0e" opacity="0.75" r="4"/>
  <circle cx="623.2438819020429" cy="603.3870876049974" fill="#ff7f0e" opacity="0.75" r="4"/>
  <circle cx="474.42855469500205" cy="602.8298414443268" fill="#2ca02c" opacity="0.75" r="4"/>
  <circle cx="540.9877913183999" cy="502.6634537228629" fill="#2ca02c" opacity="0.75" r="4"/>
  <circle cx="433.8064942157685" cy="501.1696554660809" fill="#1f77b4" opacity="0.75" r="4"/>
  <circle cx="403.1221159412155" cy="610.0972883471652" fill="#1f77b4" opacity="0.75" r="4"/>
  <circle cx="589.6865090731934" cy="574.7363852918635" fill="#2ca02c" opacity="0.75" r="4"/>
  <circle cx="505.89612049380037" cy="583.6004904684917" fill="#2ca02c" opacity="0.75" r="4"/>
  <circle cx="465.1704481692323" cy="614.0619241922309" fill="#ff7f0e" opacity="0.75" r="4"/>
  <circle cx="492.87180346891336" cy="559.4798252213623" fill="#1f77b4" opacity="0.75" r="4"/>
  <circle cx="524.7134738127143" cy="648.3394636477614" fill="#2ca02c" opacity="0.75" r="4"/>
  <circle cx="536.4203592304052" cy="558.5770404316349" fill="#ff7f0e" opacity="0.75" r="4"/>
  <circle cx="391.8762077923508" cy="638.7057039249758" fill="#2ca02c" opacity="0.75" r="4"/>
  <circle cx="530.6721007796541" cy="580.1096951776476" fill="#1f77b4" opacity="0.75" r="4"/>
  <circle cx="556.676732390202" cy="551.8784339945416" fill="#2ca02c" opacity="0.75" r="4"/>
  <circle cx="602.2664274281701" cy="595.6829104484833" fill="#2ca02c" opacity="0.75" r="4"/>
  <circle cx="643.2612940537188" cy="628.01559968641" fill="#2ca02c" opacity="0.75" r="4"/>
  <circle cx="530.3960214132716" cy="544.5808666609137" fill="#2ca02c" opacity="0.75" r="4"/>
  <circle cx="627.4748446453686" cy="579.9921091057579" fill="#1f77b4" opacity="0.75" r="4"/>
  <circle cx="458.5205452534651" cy="622.7125301467006" fill="#2ca02c" opacity="0.75" r="4"/>
  <circle cx="646.7095364531849" cy="578.1915943897568" fill="#1f77b4" opacity="0.75" r="4"/>
  <circle cx="493.6594227403812" cy="599.4995794261386" fill="#2ca02c" opacity="0.75" r="4"/>
  <circle cx="521.3817110979658" cy="593.9065489622545" fill="#1f77b4" opacity="0.75" r="4"/>
  <circle cx="580.9788118036361" cy="582.8419381643769" fill="#ff7f0e" opacity="0.75" r="4"/>
  <circle cx="914.0" cy="244.0" fill="#d62728" opacity="0.9" r="7"/>
  <text fill="#333" font-family="Arial, Helvetica, sans-serif" font-size="16" text-anchor="middle" x="570.0" y="765">Dimension 1</text>
  <text fill="#333" font-family="Arial, Helvetica, sans-serif" font-size="16" text-anchor="middle" transform="rotate(-90,85,440.0)" x="85" y="440.0">Dimension 2</text>
  <text fill="#999" font-family="Arial, Helvetica, sans-serif" font-size="12" text-anchor="end" x="1140" y="776">Auto-generated SVG</text>
</svg>
