<?xml version="1.0" encoding="UTF-8" standalone="no"?>
<!DOCTYPE svg PUBLIC "-//W3C//DTD SVG 1.1//EN"
 "http://www.w3.org/Graphics/SVG/1.1/DTD/svg11.dtd">
<!-- Generated by graphviz version 2.43.0 (0)
 -->
<!-- Title: cascade Pages: 1 -->
<svg width="720pt" height="56pt"
 viewBox="0.00 0.00 720.00 55.68" xmlns="http://www.w3.org/2000/svg" xmlns:xlink="http://www.w3.org/1999/xlink">
<g id="graph0" class="graph" transform="scale(1.27 1.27) rotate(0) translate(4 40)">
<title>cascade</title>
<polygon fill="white" stroke="transparent" points="-4,4 -4,-40 565,-40 565,4 -4,4"/>
<!-- tf -->
<g id="node1" class="node">
<title>tf</title>
<path fill="#d62728" stroke="black" stroke-width="1.5" d="M58,-36C58,-36 12,-36 12,-36 6,-36 0,-30 0,-24 0,-24 0,-12 0,-12 0,-6 6,0 12,0 12,0 58,0 58,0 64,0 70,-6 70,-12 70,-12 70,-24 70,-24 70,-30 64,-36 58,-36"/>
<text text-anchor="middle" x="35" y="-20.8" font-family="Arial" font-size="9.00" fill="white">Transcription</text>
<text text-anchor="middle" x="35" y="-10.8" font-family="Arial" font-size="9.00" fill="white">Factor KO</text>
</g>
<!-- direct -->
<g id="node2" class="node">
<title>direct</title>
<path fill="#ff7f0e" stroke="black" stroke-width="1.5" d="M215,-36C215,-36 185,-36 185,-36 179,-36 173,-30 173,-24 173,-24 173,-12 173,-12 173,-6 179,0 185,0 185,0 215,0 215,0 221,0 227,-6 227,-12 227,-12 227,-24 227,-24 227,-30 221,-36 215,-36"/>
<text text-anchor="middle" x="200" y="-20.8" font-family="Arial" font-size="9.00">Direct</text>
<text text-anchor="middle" x="200" y="-10.8" font-family="Arial" font-size="9.00">Targets</text>
</g>
<!-- tf&#45;&gt;direct -->
<g id="edge1" class="edge">
<title>tf&#45;&gt;direct</title>
<path fill="none" stroke="black" d="M70.17,-18C97.32,-18 135.2,-18 162.85,-18"/>
<polygon fill="black" stroke="black" points="162.91,-21.5 172.91,-18 162.91,-14.5 162.91,-21.5"/>
<text text-anchor="middle" x="121.5" y="-21.8" font-family="Times,serif" font-size="14.00">1st order</text>
</g>
<!-- indirect -->
<g id="node3" class="node">
<title>indirect</title>
<path fill="#ffbb78" stroke="black" stroke-width="1.5" d="M376,-36C376,-36 346,-36 346,-36 340,-36 334,-30 334,-24 334,-24 334,-12 334,-12 334,-6 340,0 346,0 346,0 376,0 376,0 382,0 388,-6 388,-12 388,-12 388,-24 388,-24 388,-30 382,-36 376,-36"/>
<text text-anchor="middle" x="361" y="-20.8" font-family="Arial" font-size="9.00">Indirect</text>
<text text-anchor="middle" x="361" y="-10.8" font-family="Arial" font-size="9.00">Effects</text>
</g>
<!-- direct&#45;&gt;indirect -->
<g id="edge2" class="edge">
<title>direct&#45;&gt;indirect</title>
<path fill="none" stroke="black" d="M227.26,-18C253.57,-18 294.29,-18 323.7,-18"/>
<polygon fill="black" stroke="black" points="323.97,-21.5 333.97,-18 323.97,-14.5 323.97,-21.5"/>
<text text-anchor="middle" x="280.5" y="-21.8" font-family="Times,serif" font-size="14.00">2nd order</text>
</g>
<!-- downstream -->
<g id="node4" class="node">
<title>downstream</title>
<path fill="#aec7e8" stroke="black" stroke-width="1.5" d="M549,-36C549,-36 505,-36 505,-36 499,-36 493,-30 493,-24 493,-24 493,-12 493,-12 493,-6 499,0 505,0 505,0 549,0 549,0 555,0 561,-6 561,-12 561,-12 561,-24 561,-24 561,-30 555,-36 549,-36"/>
<text text-anchor="middle" x="527" y="-20.8" font-family="Arial" font-size="9.00">Downstream</text>
<text text-anchor="middle" x="527" y="-10.8" font-family="Arial" font-size="9.00">Cascade</text>
</g>
<!-- indirect&#45;&gt;downstream -->
<g id="edge3" class="edge">
<title>indirect&#45;&gt;downstream</title>
<path fill="none" stroke="black" d="M388.35,-18C413.78,-18 452.74,-18 482.72,-18"/>
<polygon fill="black" stroke="black" points="482.92,-21.5 492.92,-18 482.92,-14.5 482.92,-21.5"/>
<text text-anchor="middle" x="440.5" y="-21.8" font-family="Times,serif" font-size="14.00">3rd order</text>
</g>
</g>
</svg>
