<?xml version="1.0" encoding="UTF-8" standalone="no"?>
<!DOCTYPE svg PUBLIC "-//W3C//DTD SVG 1.1//EN"
 "http://www.w3.org/Graphics/SVG/1.1/DTD/svg11.dtd">
<!-- Generated by graphviz version 2.43.0 (0)
 -->
<!-- Title: feature_graph Pages: 1 -->
<svg width="576pt" height="352pt"
 viewBox="0.00 0.00 576.00 352.40" xmlns="http://www.w3.org/2000/svg" xmlns:xlink="http://www.w3.org/1999/xlink">
<g id="graph0" class="graph" transform="scale(1.3 1.3) rotate(0) translate(4 266.5)">
<title>feature_graph</title>
<polygon fill="white" stroke="transparent" points="-4,4 -4,-266.5 438.14,-266.5 438.14,4 -4,4"/>
<!-- g1 -->
<g id="node1" class="node">
<title>g1</title>
<ellipse fill="#1f77b4" stroke="black" stroke-width="1.5" cx="27.14" cy="-132.41" rx="27.27" ry="27.27"/>
<text text-anchor="middle" x="27.14" y="-130.21" font-family="Arial" font-size="9.00" fill="white">Gene 1</text>
</g>
<!-- g2 -->
<g id="node2" class="node">
<title>g2</title>
<ellipse fill="#1f77b4" stroke="black" stroke-width="1.5" cx="74.14" cy="-27.14" rx="27.27" ry="27.27"/>
<text text-anchor="middle" x="74.14" y="-24.94" font-family="Arial" font-size="9.00" fill="white">Gene 2</text>
</g>
<!-- g1&#45;&gt;g2 -->
<g id="edge4" class="edge">
<title>g1&#45;&gt;g2</title>
<path fill="none" stroke="#aec7e8" stroke-dasharray="5,2" d="M20.22,-105.99C17.56,-96.18 15.14,-87.27 15.14,-87.27 15.14,-87.27 15.14,-72.27 15.14,-72.27 15.14,-72.27 29.94,-61.19 44.72,-50.14"/>
<polygon fill="#aec7e8" stroke="#aec7e8" points="46.92,-52.86 52.84,-44.07 42.73,-47.26 46.92,-52.86"/>
<text text-anchor="middle" x="65.64" y="-76.07" font-family="Times,serif" font-size="14.00">Co&#45;expression</text>
</g>
<!-- g3 -->
<g id="node3" class="node">
<title>g3</title>
<ellipse fill="#1f77b4" stroke="black" stroke-width="1.5" cx="366.14" cy="-132.41" rx="27.27" ry="27.27"/>
<text text-anchor="middle" x="366.14" y="-130.21" font-family="Arial" font-size="9.00" fill="white">Gene 3</text>
</g>
<!-- p1 -->
<g id="node4" class="node">
<title>p1</title>
<ellipse fill="#2ca02c" stroke="black" stroke-width="1.5" cx="76.14" cy="-236.52" rx="25.96" ry="25.96"/>
<text text-anchor="middle" x="76.14" y="-234.32" font-family="Arial" font-size="9.00" fill="white">Peak 1</text>
</g>
<!-- p1&#45;&gt;g1 -->
<g id="edge1" class="edge">
<title>p1&#45;&gt;g1</title>
<path fill="none" stroke="#ff7f0e" d="M62.3,-214.28C55.25,-203.46 48.14,-192.54 48.14,-192.54 48.14,-192.54 43.95,-180.76 39.32,-167.71"/>
<polygon fill="#ff7f0e" stroke="#ff7f0e" points="42.56,-166.39 35.92,-158.14 35.97,-168.74 42.56,-166.39"/>
<text text-anchor="middle" x="82.14" y="-181.34" font-family="Times,serif" font-size="14.00">Promoter</text>
</g>
<!-- p1&#45;&gt;g2 -->
<g id="edge2" class="edge">
<title>p1&#45;&gt;g2</title>
<path fill="none" stroke="#9467bd" d="M93.33,-217.05C104.17,-205.4 116.14,-192.54 116.14,-192.54 116.14,-192.54 116.14,-72.27 116.14,-72.27 116.14,-72.27 108.27,-64.01 99.35,-54.63"/>
<polygon fill="#9467bd" stroke="#9467bd" points="101.86,-52.2 92.44,-47.37 96.79,-57.02 101.86,-52.2"/>
<text text-anchor="middle" x="150.64" y="-128.71" font-family="Times,serif" font-size="14.00">Enhancer</text>
</g>
<!-- p2 -->
<g id="node5" class="node">
<title>p2</title>
<ellipse fill="#2ca02c" stroke="black" stroke-width="1.5" cx="366.14" cy="-236.52" rx="25.96" ry="25.96"/>
<text text-anchor="middle" x="366.14" y="-234.32" font-family="Arial" font-size="9.00" fill="white">Peak 2</text>
</g>
<!-- p2&#45;&gt;g3 -->
<g id="edge3" class="edge">
<title>p2&#45;&gt;g3</title>
<path fill="none" stroke="#ff7f0e" d="M366.14,-210.28C366.14,-198.16 366.14,-183.41 366.14,-170.09"/>
<polygon fill="#ff7f0e" stroke="#ff7f0e" points="369.64,-169.78 366.14,-159.78 362.64,-169.78 369.64,-169.78"/>
<text text-anchor="middle" x="400.14" y="-181.34" font-family="Times,serif" font-size="14.00">Promoter</text>
</g>
</g>
</svg>
