<?xml version="1.0" encoding="UTF-8" standalone="no"?>
<!DOCTYPE svg PUBLIC "-//W3C//DTD SVG 1.1//EN"
 "http://www.w3.org/Graphics/SVG/1.1/DTD/svg11.dtd">
<!-- Generated by graphviz version 2.43.0 (0)
 -->
<!-- Title: target Pages: 1 -->
<svg width="1008pt" height="101pt"
 viewBox="0.00 0.00 1008.00 101.03" xmlns="http://www.w3.org/2000/svg" xmlns:xlink="http://www.w3.org/1999/xlink">
<g id="graph0" class="graph" transform="scale(2.3 2.3) rotate(0) translate(4 40)">
<title>target</title>
<polygon fill="white" stroke="transparent" points="-4,4 -4,-40 435,-40 435,4 -4,4"/>
<!-- gwas -->
<g id="node1" class="node">
<title>gwas</title>
<path fill="#aec7e8" stroke="black" stroke-width="1.5" d="M42,-36C42,-36 12,-36 12,-36 6,-36 0,-30 0,-24 0,-24 0,-12 0,-12 0,-6 6,0 12,0 12,0 42,0 42,0 48,0 54,-6 54,-12 54,-12 54,-24 54,-24 54,-30 48,-36 42,-36"/>
<text text-anchor="middle" x="27" y="-20.8" font-family="Arial" font-size="9.00">GWAS</text>
<text text-anchor="middle" x="27" y="-10.8" font-family="Arial" font-size="9.00">Signals</text>
</g>
<!-- genes -->
<g id="node2" class="node">
<title>genes</title>
<path fill="#98df8a" stroke="black" stroke-width="1.5" d="M137,-36C137,-36 102,-36 102,-36 96,-36 90,-30 90,-24 90,-24 90,-12 90,-12 90,-6 96,0 102,0 102,0 137,0 137,0 143,0 149,-6 149,-12 149,-12 149,-24 149,-24 149,-30 143,-36 137,-36"/>
<text text-anchor="middle" x="119.5" y="-20.8" font-family="Arial" font-size="9.00">Candidate</text>
<text text-anchor="middle" x="119.5" y="-10.8" font-family="Arial" font-size="9.00">Genes</text>
</g>
<!-- gwas&#45;&gt;genes -->
<g id="edge1" class="edge">
<title>gwas&#45;&gt;genes</title>
<path fill="none" stroke="black" d="M54.18,-18C62.12,-18 71.02,-18 79.61,-18"/>
<polygon fill="black" stroke="black" points="79.85,-21.5 89.85,-18 79.85,-14.5 79.85,-21.5"/>
</g>
<!-- fm -->
<g id="node3" class="node">
<title>fm</title>
<path fill="#9467bd" stroke="black" stroke-width="1.5" d="M227,-36C227,-36 197,-36 197,-36 191,-36 185,-30 185,-24 185,-24 185,-12 185,-12 185,-6 191,0 197,0 197,0 227,0 227,0 233,0 239,-6 239,-12 239,-12 239,-24 239,-24 239,-30 233,-36 227,-36"/>
<text text-anchor="middle" x="212" y="-20.8" font-family="Arial" font-size="9.00" fill="white">FM</text>
<text text-anchor="middle" x="212" y="-10.8" font-family="Arial" font-size="9.00" fill="white">Scoring</text>
</g>
<!-- genes&#45;&gt;fm -->
<g id="edge2" class="edge">
<title>genes&#45;&gt;fm</title>
<path fill="none" stroke="black" d="M149.13,-18C157.23,-18 166.16,-18 174.65,-18"/>
<polygon fill="black" stroke="black" points="174.7,-21.5 184.7,-18 174.7,-14.5 174.7,-21.5"/>
</g>
<!-- druggable -->
<g id="node4" class="node">
<title>druggable</title>
<path fill="#ffbb78" stroke="black" stroke-width="1.5" d="M329,-36C329,-36 287,-36 287,-36 281,-36 275,-30 275,-24 275,-24 275,-12 275,-12 275,-6 281,0 287,0 287,0 329,0 329,0 335,0 341,-6 341,-12 341,-12 341,-24 341,-24 341,-30 335,-36 329,-36"/>
<text text-anchor="middle" x="308" y="-20.8" font-family="Arial" font-size="9.00">Druggability</text>
<text text-anchor="middle" x="308" y="-10.8" font-family="Arial" font-size="9.00">Filter</text>
</g>
<!-- fm&#45;&gt;druggable -->
<g id="edge3" class="edge">
<title>fm&#45;&gt;druggable</title>
<path fill="none" stroke="black" d="M239.18,-18C247.15,-18 256.11,-18 264.85,-18"/>
<polygon fill="black" stroke="black" points="264.93,-21.5 274.93,-18 264.93,-14.5 264.93,-21.5"/>
</g>
<!-- target -->
<g id="node5" class="node">
<title>target</title>
<path fill="#2ca02c" stroke="black" stroke-width="1.5" d="M419,-36C419,-36 389,-36 389,-36 383,-36 377,-30 377,-24 377,-24 377,-12 377,-12 377,-6 383,0 389,0 389,0 419,0 419,0 425,0 431,-6 431,-12 431,-12 431,-24 431,-24 431,-30 425,-36 419,-36"/>
<text text-anchor="middle" x="404" y="-20.8" font-family="Arial" font-size="9.00" fill="white">Priority</text>
<text text-anchor="middle" x="404" y="-10.8" font-family="Arial" font-size="9.00" fill="white">Targets</text>
</g>
<!-- druggable&#45;&gt;target -->
<g id="edge4" class="edge">
<title>druggable&#45;&gt;target</title>
<path fill="none" stroke="black" d="M341.09,-18C349.41,-18 358.42,-18 366.93,-18"/>
<polygon fill="black" stroke="black" points="366.97,-21.5 376.97,-18 366.97,-14.5 366.97,-21.5"/>
</g>
</g>
</svg>
