<?xml version="1.0" encoding="UTF-8" standalone="no"?>
<!DOCTYPE svg PUBLIC "-//W3C//DTD SVG 1.1//EN"
 "http://www.w3.org/Graphics/SVG/1.1/DTD/svg11.dtd">
<!-- Generated by graphviz version 2.43.0 (0)
 -->
<!-- Title: network Pages: 1 -->
<svg width="687pt" height="576pt"
 viewBox="0.00 0.00 686.77 576.00" xmlns="http://www.w3.org/2000/svg" xmlns:xlink="http://www.w3.org/1999/xlink">
<g id="graph0" class="graph" transform="scale(2.22 2.22) rotate(0) translate(4 256)">
<title>network</title>
<polygon fill="white" stroke="transparent" points="-4,4 -4,-256 306,-256 306,4 -4,4"/>
<!-- disease -->
<g id="node1" class="node">
<title>disease</title>
<path fill="#d62728" stroke="black" stroke-width="1.5" d="M166,-180C166,-180 136,-180 136,-180 130,-180 124,-174 124,-168 124,-168 124,-156 124,-156 124,-150 130,-144 136,-144 136,-144 166,-144 166,-144 172,-144 178,-150 178,-156 178,-156 178,-168 178,-168 178,-174 172,-180 166,-180"/>
<text text-anchor="middle" x="151" y="-164.8" font-family="Arial" font-size="9.00" fill="white">Disease</text>
<text text-anchor="middle" x="151" y="-154.8" font-family="Arial" font-size="9.00" fill="white">Genes</text>
</g>
<!-- n0 -->
<g id="node2" class="node">
<title>n0</title>
<path fill="#ff7f0e" stroke="black" stroke-width="1.5" d="M50,-108C50,-108 12,-108 12,-108 6,-108 0,-102 0,-96 0,-96 0,-84 0,-84 0,-78 6,-72 12,-72 12,-72 50,-72 50,-72 56,-72 62,-78 62,-84 62,-84 62,-96 62,-96 62,-102 56,-108 50,-108"/>
<text text-anchor="middle" x="31" y="-87.8" font-family="Arial" font-size="9.00">Neighbor 1</text>
</g>
<!-- disease&#45;&gt;n0 -->
<g id="edge1" class="edge">
<title>disease&#45;&gt;n0</title>
<path fill="none" stroke="black" d="M123.77,-145.12C107.64,-135.7 86.94,-123.63 69.19,-113.28"/>
<polygon fill="black" stroke="black" points="70.62,-110.06 60.22,-108.04 67.09,-116.11 70.62,-110.06"/>
</g>
<!-- n1 -->
<g id="node3" class="node">
<title>n1</title>
<path fill="#ff7f0e" stroke="black" stroke-width="1.5" d="M130,-108C130,-108 92,-108 92,-108 86,-108 80,-102 80,-96 80,-96 80,-84 80,-84 80,-78 86,-72 92,-72 92,-72 130,-72 130,-72 136,-72 142,-78 142,-84 142,-84 142,-96 142,-96 142,-102 136,-108 130,-108"/>
<text text-anchor="middle" x="111" y="-87.8" font-family="Arial" font-size="9.00">Neighbor 2</text>
</g>
<!-- disease&#45;&gt;n1 -->
<g id="edge2" class="edge">
<title>disease&#45;&gt;n1</title>
<path fill="none" stroke="black" d="M141.11,-143.7C136.51,-135.64 130.94,-125.89 125.85,-116.98"/>
<polygon fill="black" stroke="black" points="128.77,-115.05 120.77,-108.1 122.7,-118.52 128.77,-115.05"/>
</g>
<!-- n2 -->
<g id="node4" class="node">
<title>n2</title>
<path fill="#ff7f0e" stroke="black" stroke-width="1.5" d="M210,-108C210,-108 172,-108 172,-108 166,-108 160,-102 160,-96 160,-96 160,-84 160,-84 160,-78 166,-72 172,-72 172,-72 210,-72 210,-72 216,-72 222,-78 222,-84 222,-84 222,-96 222,-96 222,-102 216,-108 210,-108"/>
<text text-anchor="middle" x="191" y="-87.8" font-family="Arial" font-size="9.00">Neighbor 3</text>
</g>
<!-- disease&#45;&gt;n2 -->
<g id="edge3" class="edge">
<title>disease&#45;&gt;n2</title>
<path fill="none" stroke="black" d="M160.89,-143.7C165.49,-135.64 171.06,-125.89 176.15,-116.98"/>
<polygon fill="black" stroke="black" points="179.3,-118.52 181.23,-108.1 173.23,-115.05 179.3,-118.52"/>
</g>
<!-- n3 -->
<g id="node5" class="node">
<title>n3</title>
<path fill="#ff7f0e" stroke="black" stroke-width="1.5" d="M290,-108C290,-108 252,-108 252,-108 246,-108 240,-102 240,-96 240,-96 240,-84 240,-84 240,-78 246,-72 252,-72 252,-72 290,-72 290,-72 296,-72 302,-78 302,-84 302,-84 302,-96 302,-96 302,-102 296,-108 290,-108"/>
<text text-anchor="middle" x="271" y="-87.8" font-family="Arial" font-size="9.00">Neighbor 4</text>
</g>
<!-- disease&#45;&gt;n3 -->
<g id="edge4" class="edge">
<title>disease&#45;&gt;n3</title>
<path fill="none" stroke="black" d="M178.23,-145.12C194.36,-135.7 215.06,-123.63 232.81,-113.28"/>
<polygon fill="black" stroke="black" points="234.91,-116.11 241.78,-108.04 231.38,-110.06 234.91,-116.11"/>
</g>
<!-- candidate -->
<g id="node6" class="node">
<title>candidate</title>
<path fill="#2ca02c" stroke="black" stroke-width="1.5" d="M88.5,-36C88.5,-36 53.5,-36 53.5,-36 47.5,-36 41.5,-30 41.5,-24 41.5,-24 41.5,-12 41.5,-12 41.5,-6 47.5,0 53.5,0 53.5,0 88.5,0 88.5,0 94.5,0 100.5,-6 100.5,-12 100.5,-12 100.5,-24 100.5,-24 100.5,-30 94.5,-36 88.5,-36"/>
<text text-anchor="middle" x="71" y="-20.8" font-family="Arial" font-size="9.00" fill="white">Target</text>
<text text-anchor="middle" x="71" y="-10.8" font-family="Arial" font-size="9.00" fill="white">Candidate</text>
</g>
<!-- n0&#45;&gt;candidate -->
<g id="edge5" class="edge">
<title>n0&#45;&gt;candidate</title>
<path fill="none" stroke="black" d="M40.89,-71.7C45.49,-63.64 51.06,-53.89 56.15,-44.98"/>
<polygon fill="black" stroke="black" points="59.3,-46.52 61.23,-36.1 53.23,-43.05 59.3,-46.52"/>
</g>
<!-- n1&#45;&gt;candidate -->
<g id="edge6" class="edge">
<title>n1&#45;&gt;candidate</title>
<path fill="none" stroke="black" d="M101.11,-71.7C96.51,-63.64 90.94,-53.89 85.85,-44.98"/>
<polygon fill="black" stroke="black" points="88.77,-43.05 80.77,-36.1 82.7,-46.52 88.77,-43.05"/>
</g>
<!-- ppi -->
<g id="node7" class="node">
<title>ppi</title>
<path fill="#aec7e8" stroke="black" stroke-width="1.5" d="M166,-252C166,-252 136,-252 136,-252 130,-252 124,-246 124,-240 124,-240 124,-228 124,-228 124,-222 130,-216 136,-216 136,-216 166,-216 166,-216 172,-216 178,-222 178,-228 178,-228 178,-240 178,-240 178,-246 172,-252 166,-252"/>
<text text-anchor="middle" x="151" y="-236.8" font-family="Arial" font-size="9.00">PPI</text>
<text text-anchor="middle" x="151" y="-226.8" font-family="Arial" font-size="9.00">Network</text>
</g>
<!-- ppi&#45;&gt;disease -->
<g id="edge7" class="edge">
<title>ppi&#45;&gt;disease</title>
<path fill="none" stroke="black" stroke-dasharray="5,2" d="M151,-215.7C151,-207.98 151,-198.71 151,-190.11"/>
<polygon fill="black" stroke="black" points="154.5,-190.1 151,-180.1 147.5,-190.1 154.5,-190.1"/>
</g>
</g>
</svg>
