<?xml version="1.0" encoding="UTF-8" standalone="no"?>
<!DOCTYPE svg PUBLIC "-//W3C//DTD SVG 1.1//EN"
 "http://www.w3.org/Graphics/SVG/1.1/DTD/svg11.dtd">
<!-- Generated by graphviz version 2.43.0 (0)
 -->
<!-- Title: perturbseq Pages: 1 -->
<svg width="1008pt" height="96pt"
 viewBox="0.00 0.00 1008.00 96.21" xmlns="http://www.w3.org/2000/svg" xmlns:xlink="http://www.w3.org/1999/xlink">
<g id="graph0" class="graph" transform="scale(2.19 2.19) rotate(0) translate(4 40)">
<title>perturbseq</title>
<polygon fill="white" stroke="transparent" points="-4,4 -4,-40 457,-40 457,4 -4,4"/>
<!-- guides -->
<g id="node1" class="node">
<title>guides</title>
<path fill="#aec7e8" stroke="black" stroke-width="1.5" d="M42,-36C42,-36 12,-36 12,-36 6,-36 0,-30 0,-24 0,-24 0,-12 0,-12 0,-6 6,0 12,0 12,0 42,0 42,0 48,0 54,-6 54,-12 54,-12 54,-24 54,-24 54,-30 48,-36 42,-36"/>
<text text-anchor="middle" x="27" y="-20.8" font-family="Arial" font-size="9.00">sgRNA</text>
<text text-anchor="middle" x="27" y="-10.8" font-family="Arial" font-size="9.00">Library</text>
</g>
<!-- perturb -->
<g id="node2" class="node">
<title>perturb</title>
<path fill="#ff7f0e" stroke="black" stroke-width="1.5" d="M145,-36C145,-36 102,-36 102,-36 96,-36 90,-30 90,-24 90,-24 90,-12 90,-12 90,-6 96,0 102,0 102,0 145,0 145,0 151,0 157,-6 157,-12 157,-12 157,-24 157,-24 157,-30 151,-36 145,-36"/>
<text text-anchor="middle" x="123.5" y="-20.8" font-family="Arial" font-size="9.00" fill="white">Gene</text>
<text text-anchor="middle" x="123.5" y="-10.8" font-family="Arial" font-size="9.00" fill="white">Perturbation</text>
</g>
<!-- guides&#45;&gt;perturb -->
<g id="edge1" class="edge">
<title>guides&#45;&gt;perturb</title>
<path fill="none" stroke="black" d="M54.07,-18C62,-18 70.94,-18 79.67,-18"/>
<polygon fill="black" stroke="black" points="79.76,-21.5 89.76,-18 79.76,-14.5 79.76,-21.5"/>
</g>
<!-- scrna -->
<g id="node3" class="node">
<title>scrna</title>
<path fill="#2ca02c" stroke="black" stroke-width="1.5" d="M241,-36C241,-36 205,-36 205,-36 199,-36 193,-30 193,-24 193,-24 193,-12 193,-12 193,-6 199,0 205,0 205,0 241,0 241,0 247,0 253,-6 253,-12 253,-12 253,-24 253,-24 253,-30 247,-36 241,-36"/>
<text text-anchor="middle" x="223" y="-20.8" font-family="Arial" font-size="9.00">Single&#45;cell</text>
<text text-anchor="middle" x="223" y="-10.8" font-family="Arial" font-size="9.00">RNA&#45;seq</text>
</g>
<!-- perturb&#45;&gt;scrna -->
<g id="edge2" class="edge">
<title>perturb&#45;&gt;scrna</title>
<path fill="none" stroke="black" d="M157.24,-18C165.42,-18 174.28,-18 182.74,-18"/>
<polygon fill="black" stroke="black" points="182.79,-21.5 192.79,-18 182.79,-14.5 182.79,-21.5"/>
</g>
<!-- embed -->
<g id="node4" class="node">
<title>embed</title>
<path fill="#9467bd" stroke="black" stroke-width="1.5" d="M341,-36C341,-36 301,-36 301,-36 295,-36 289,-30 289,-24 289,-24 289,-12 289,-12 289,-6 295,0 301,0 301,0 341,0 341,0 347,0 353,-6 353,-12 353,-12 353,-24 353,-24 353,-30 347,-36 341,-36"/>
<text text-anchor="middle" x="321" y="-20.8" font-family="Arial" font-size="9.00" fill="white">FM</text>
<text text-anchor="middle" x="321" y="-10.8" font-family="Arial" font-size="9.00" fill="white">Embedding</text>
</g>
<!-- scrna&#45;&gt;embed -->
<g id="edge3" class="edge">
<title>scrna&#45;&gt;embed</title>
<path fill="none" stroke="black" d="M253.06,-18C261.07,-18 269.91,-18 278.47,-18"/>
<polygon fill="black" stroke="black" points="278.7,-21.5 288.7,-18 278.7,-14.5 278.7,-21.5"/>
</g>
<!-- mech -->
<g id="node5" class="node">
<title>mech</title>
<path fill="#d62728" stroke="black" stroke-width="1.5" d="M441,-36C441,-36 401,-36 401,-36 395,-36 389,-30 389,-24 389,-24 389,-12 389,-12 389,-6 395,0 401,0 401,0 441,0 441,0 447,0 453,-6 453,-12 453,-12 453,-24 453,-24 453,-30 447,-36 441,-36"/>
<text text-anchor="middle" x="421" y="-20.8" font-family="Arial" font-size="9.00" fill="white">Mechanism</text>
<text text-anchor="middle" x="421" y="-10.8" font-family="Arial" font-size="9.00" fill="white">Discovery</text>
</g>
<!-- embed&#45;&gt;mech -->
<g id="edge4" class="edge">
<title>embed&#45;&gt;mech</title>
<path fill="none" stroke="black" d="M353.01,-18C361.14,-18 370.04,-18 378.62,-18"/>
<polygon fill="black" stroke="black" points="378.86,-21.5 388.86,-18 378.86,-14.5 378.86,-21.5"/>
</g>
</g>
</svg>
