<?xml version="1.0" encoding="UTF-8" standalone="no"?>
<!DOCTYPE svg PUBLIC "-//W3C//DTD SVG 1.1//EN"
 "http://www.w3.org/Graphics/SVG/1.1/DTD/svg11.dtd">
<!-- Generated by graphviz version 2.43.0 (0)
 -->
<!-- Title: biomarker Pages: 1 -->
<svg width="720pt" height="637pt"
 viewBox="0.00 0.00 720.00 637.12" xmlns="http://www.w3.org/2000/svg" xmlns:xlink="http://www.w3.org/1999/xlink">
<g id="graph0" class="graph" transform="scale(2.59 2.59) rotate(0) translate(4 242)">
<title>biomarker</title>
<polygon fill="white" stroke="transparent" points="-4,4 -4,-242 274,-242 274,4 -4,4"/>
<g id="clust1" class="cluster">
<title>cluster_data</title>
<path fill="none" stroke="black" d="M20,-155C20,-155 250,-155 250,-155 256,-155 262,-161 262,-167 262,-167 262,-218 262,-218 262,-224 256,-230 250,-230 250,-230 20,-230 20,-230 14,-230 8,-224 8,-218 8,-218 8,-167 8,-167 8,-161 14,-155 20,-155"/>
<text text-anchor="middle" x="135" y="-214.8" font-family="Times,serif" font-size="14.00">Multi&#45;omic Data</text>
</g>
<g id="clust2" class="cluster">
<title>cluster_out</title>
<path fill="none" stroke="black" d="M29,-8C29,-8 244,-8 244,-8 250,-8 256,-14 256,-20 256,-20 256,-71 256,-71 256,-77 250,-83 244,-83 244,-83 29,-83 29,-83 23,-83 17,-77 17,-71 17,-71 17,-20 17,-20 17,-14 23,-8 29,-8"/>
<text text-anchor="middle" x="136.5" y="-67.8" font-family="Times,serif" font-size="14.00">Biomarker Applications</text>
</g>
<!-- genomics -->
<g id="node1" class="node">
<title>genomics</title>
<path fill="#1f77b4" stroke="black" stroke-width="1.5" d="M242,-199C242,-199 208,-199 208,-199 202,-199 196,-193 196,-187 196,-187 196,-175 196,-175 196,-169 202,-163 208,-163 208,-163 242,-163 242,-163 248,-163 254,-169 254,-175 254,-175 254,-187 254,-187 254,-193 248,-199 242,-199"/>
<text text-anchor="middle" x="225" y="-178.8" font-family="Arial" font-size="9.00" fill="white">Genomics</text>
</g>
<!-- fm -->
<g id="node4" class="node">
<title>fm</title>
<path fill="#9467bd" stroke="black" stroke-width="1.5" d="M156.5,-127C156.5,-127 117.5,-127 117.5,-127 111.5,-127 105.5,-121 105.5,-115 105.5,-115 105.5,-103 105.5,-103 105.5,-97 111.5,-91 117.5,-91 117.5,-91 156.5,-91 156.5,-91 162.5,-91 168.5,-97 168.5,-103 168.5,-103 168.5,-115 168.5,-115 168.5,-121 162.5,-127 156.5,-127"/>
<text text-anchor="middle" x="137" y="-111.8" font-family="Arial" font-size="9.00" fill="white">Foundation</text>
<text text-anchor="middle" x="137" y="-101.8" font-family="Arial" font-size="9.00" fill="white">Models</text>
</g>
<!-- genomics&#45;&gt;fm -->
<g id="edge1" class="edge">
<title>genomics&#45;&gt;fm</title>
<path fill="none" stroke="black" d="M203.25,-162.7C192.16,-153.88 178.53,-143.03 166.51,-133.47"/>
<polygon fill="black" stroke="black" points="168.51,-130.59 158.5,-127.1 164.15,-136.07 168.51,-130.59"/>
</g>
<!-- transcriptomics -->
<g id="node2" class="node">
<title>transcriptomics</title>
<path fill="#2ca02c" stroke="black" stroke-width="1.5" d="M165.5,-199C165.5,-199 108.5,-199 108.5,-199 102.5,-199 96.5,-193 96.5,-187 96.5,-187 96.5,-175 96.5,-175 96.5,-169 102.5,-163 108.5,-163 108.5,-163 165.5,-163 165.5,-163 171.5,-163 177.5,-169 177.5,-175 177.5,-175 177.5,-187 177.5,-187 177.5,-193 171.5,-199 165.5,-199"/>
<text text-anchor="middle" x="137" y="-178.8" font-family="Arial" font-size="9.00" fill="white">Transcriptomics</text>
</g>
<!-- transcriptomics&#45;&gt;fm -->
<g id="edge2" class="edge">
<title>transcriptomics&#45;&gt;fm</title>
<path fill="none" stroke="black" d="M137,-162.7C137,-154.98 137,-145.71 137,-137.11"/>
<polygon fill="black" stroke="black" points="140.5,-137.1 137,-127.1 133.5,-137.1 140.5,-137.1"/>
</g>
<!-- proteomics -->
<g id="node3" class="node">
<title>proteomics</title>
<path fill="#ff7f0e" stroke="black" stroke-width="1.5" d="M66,-199C66,-199 28,-199 28,-199 22,-199 16,-193 16,-187 16,-187 16,-175 16,-175 16,-169 22,-163 28,-163 28,-163 66,-163 66,-163 72,-163 78,-169 78,-175 78,-175 78,-187 78,-187 78,-193 72,-199 66,-199"/>
<text text-anchor="middle" x="47" y="-178.8" font-family="Arial" font-size="9.00">Proteomics</text>
</g>
<!-- proteomics&#45;&gt;fm -->
<g id="edge3" class="edge">
<title>proteomics&#45;&gt;fm</title>
<path fill="none" stroke="black" d="M69.25,-162.7C80.58,-153.88 94.53,-143.03 106.82,-133.47"/>
<polygon fill="black" stroke="black" points="109.26,-136.01 115.01,-127.1 104.97,-130.48 109.26,-136.01"/>
</g>
<!-- response -->
<g id="node5" class="node">
<title>response</title>
<path fill="#98df8a" stroke="black" stroke-width="1.5" d="M235.5,-52C235.5,-52 200.5,-52 200.5,-52 194.5,-52 188.5,-46 188.5,-40 188.5,-40 188.5,-28 188.5,-28 188.5,-22 194.5,-16 200.5,-16 200.5,-16 235.5,-16 235.5,-16 241.5,-16 247.5,-22 247.5,-28 247.5,-28 247.5,-40 247.5,-40 247.5,-46 241.5,-52 235.5,-52"/>
<text text-anchor="middle" x="218" y="-36.8" font-family="Arial" font-size="9.00">Response</text>
<text text-anchor="middle" x="218" y="-26.8" font-family="Arial" font-size="9.00">Prediction</text>
</g>
<!-- fm&#45;&gt;response -->
<g id="edge4" class="edge">
<title>fm&#45;&gt;response</title>
<path fill="none" stroke="black" d="M166.39,-90.91C173.95,-86.52 180,-83 180,-83 180,-83 188.96,-71.68 198.18,-60.04"/>
<polygon fill="black" stroke="black" points="201.03,-62.07 204.5,-52.06 195.54,-57.73 201.03,-62.07"/>
</g>
<!-- stratify -->
<g id="node6" class="node">
<title>stratify</title>
<path fill="#98df8a" stroke="black" stroke-width="1.5" d="M158.5,-52C158.5,-52 115.5,-52 115.5,-52 109.5,-52 103.5,-46 103.5,-40 103.5,-40 103.5,-28 103.5,-28 103.5,-22 109.5,-16 115.5,-16 115.5,-16 158.5,-16 158.5,-16 164.5,-16 170.5,-22 170.5,-28 170.5,-28 170.5,-40 170.5,-40 170.5,-46 164.5,-52 158.5,-52"/>
<text text-anchor="middle" x="137" y="-36.8" font-family="Arial" font-size="9.00">Patient</text>
<text text-anchor="middle" x="137" y="-26.8" font-family="Arial" font-size="9.00">Stratification</text>
</g>
<!-- fm&#45;&gt;stratify -->
<g id="edge5" class="edge">
<title>fm&#45;&gt;stratify</title>
<path fill="none" stroke="black" d="M137,-90.7C137,-82.25 137,-71.87 137,-62.37"/>
<polygon fill="black" stroke="black" points="140.5,-62.18 137,-52.18 133.5,-62.18 140.5,-62.18"/>
</g>
<!-- monitor -->
<g id="node7" class="node">
<title>monitor</title>
<path fill="#98df8a" stroke="black" stroke-width="1.5" d="M73,-52C73,-52 37,-52 37,-52 31,-52 25,-46 25,-40 25,-40 25,-28 25,-28 25,-22 31,-16 37,-16 37,-16 73,-16 73,-16 79,-16 85,-22 85,-28 85,-28 85,-40 85,-40 85,-46 79,-52 73,-52"/>
<text text-anchor="middle" x="55" y="-36.8" font-family="Arial" font-size="9.00">Treatment</text>
<text text-anchor="middle" x="55" y="-26.8" font-family="Arial" font-size="9.00">Monitoring</text>
</g>
<!-- fm&#45;&gt;monitor -->
<g id="edge6" class="edge">
<title>fm&#45;&gt;monitor</title>
<path fill="none" stroke="black" d="M108.29,-90.91C100.91,-86.52 95,-83 95,-83 95,-83 85.57,-71.68 75.86,-60.04"/>
<polygon fill="black" stroke="black" points="78.31,-57.5 69.22,-52.06 72.93,-61.98 78.31,-57.5"/>
</g>
</g>
</svg>
