<?xml version="1.0" encoding="utf-8" standalone="no"?>
<!DOCTYPE svg PUBLIC "-//W3C//DTD SVG 1.1//EN"
  "http://www.w3.org/Graphics/SVG/1.1/DTD/svg11.dtd">
<svg xmlns:xlink="http://www.w3.org/1999/xlink" width="496.8pt" height="281.337341pt" viewBox="0 0 496.8 281.337341" xmlns="http://www.w3.org/2000/svg" version="1.1">
 <metadata>
  <rdf:RDF xmlns:dc="http://purl.org/dc/elements/1.1/" xmlns:cc="http://creativecommons.org/ns#" xmlns:rdf="http://www.w3.org/1999/02/22-rdf-syntax-ns#">
   <cc:Work>
    <dc:type rdf:resource="http://purl.org/dc/dcmitype/StillImage"/>
    <dc:date>2026-01-08T05:40:55.556394</dc:date>
    <dc:format>image/svg+xml</dc:format>
    <dc:creator>
     <cc:Agent>
      <dc:title>Matplotlib v3.10.7, https://matplotlib.org/</dc:title>
     </cc:Agent>
    </dc:creator>
   </cc:Work>
  </rdf:RDF>
 </metadata>
 <defs>
  <style type="text/css">*{stroke-linejoin: round; stroke-linecap: butt}</style>
 </defs>
 <g id="figure_1">
  <g id="patch_1">
   <path d="M 0 281.337341 
L 496.8 281.337341 
L 496.8 0 
L 0 0 
z
" style="fill: #ffffff"/>
  </g>
  <g id="axes_1">
   <g id="patch_2">
    <path d="M 35.576471 108.166272 
L 85.235294 108.166272 
Q 86.654118 108.166272 86.654118 107.026693 
L 86.654118 67.141434 
Q 86.654118 66.001855 85.235294 66.001855 
L 35.576471 66.001855 
Q 34.157647 66.001855 34.157647 67.141434 
L 34.157647 107.026693 
Q 34.157647 108.166272 35.576471 108.166272 
z
" clip-path="url(#pef7ac1ec7c)" style="fill: #1f77b4; stroke: #ffffff; stroke-width: 1.5; stroke-linejoin: miter"/>
   </g>
   <g id="patch_3">
    <path d="M 92.329412 108.166272 
L 141.988235 108.166272 
Q 143.407059 108.166272 143.407059 107.026693 
L 143.407059 67.141434 
Q 143.407059 66.001855 141.988235 66.001855 
L 92.329412 66.001855 
Q 90.910588 66.001855 90.910588 67.141434 
L 90.910588 107.026693 
Q 90.910588 108.166272 92.329412 108.166272 
z
" clip-path="url(#pef7ac1ec7c)" style="fill: #f0f0f0; stroke: #ffffff; stroke-width: 1.5; stroke-linejoin: miter"/>
   </g>
   <g id="patch_4">
    <path d="M 149.082353 108.166272 
L 198.741176 108.166272 
Q 200.16 108.166272 200.16 107.026693 
L 200.16 67.141434 
Q 200.16 66.001855 198.741176 66.001855 
L 149.082353 66.001855 
Q 147.663529 66.001855 147.663529 67.141434 
L 147.663529 107.026693 
Q 147.663529 108.166272 149.082353 108.166272 
z
" clip-path="url(#pef7ac1ec7c)" style="fill: #f0f0f0; stroke: #ffffff; stroke-width: 1.5; stroke-linejoin: miter"/>
   </g>
   <g id="patch_5">
    <path d="M 205.835294 108.166272 
L 255.494118 108.166272 
Q 256.912941 108.166272 256.912941 107.026693 
L 256.912941 67.141434 
Q 256.912941 66.001855 255.494118 66.001855 
L 205.835294 66.001855 
Q 204.416471 66.001855 204.416471 67.141434 
L 204.416471 107.026693 
Q 204.416471 108.166272 205.835294 108.166272 
z
" clip-path="url(#pef7ac1ec7c)" style="fill: #f0f0f0; stroke: #ffffff; stroke-width: 1.5; stroke-linejoin: miter"/>
   </g>
   <g id="patch_6">
    <path d="M 262.588235 108.166272 
L 312.247059 108.166272 
Q 313.665882 108.166272 313.665882 107.026693 
L 313.665882 67.141434 
Q 313.665882 66.001855 312.247059 66.001855 
L 262.588235 66.001855 
Q 261.169412 66.001855 261.169412 67.141434 
L 261.169412 107.026693 
Q 261.169412 108.166272 262.588235 108.166272 
z
" clip-path="url(#pef7ac1ec7c)" style="fill: #1f77b4; stroke: #ffffff; stroke-width: 1.5; stroke-linejoin: miter"/>
   </g>
   <g id="patch_7">
    <path d="M 319.341176 108.166272 
L 369 108.166272 
Q 370.418824 108.166272 370.418824 107.026693 
L 370.418824 67.141434 
Q 370.418824 66.001855 369 66.001855 
L 319.341176 66.001855 
Q 317.922353 66.001855 317.922353 67.141434 
L 317.922353 107.026693 
Q 317.922353 108.166272 319.341176 108.166272 
z
" clip-path="url(#pef7ac1ec7c)" style="fill: #f0f0f0; stroke: #ffffff; stroke-width: 1.5; stroke-linejoin: miter"/>
   </g>
   <g id="patch_8">
    <path d="M 376.094118 108.166272 
L 425.752941 108.166272 
Q 427.171765 108.166272 427.171765 107.026693 
L 427.171765 67.141434 
Q 427.171765 66.001855 425.752941 66.001855 
L 376.094118 66.001855 
Q 374.675294 66.001855 374.675294 67.141434 
L 374.675294 107.026693 
Q 374.675294 108.166272 376.094118 108.166272 
z
" clip-path="url(#pef7ac1ec7c)" style="fill: #f0f0f0; stroke: #ffffff; stroke-width: 1.5; stroke-linejoin: miter"/>
   </g>
   <g id="patch_9">
    <path d="M 432.847059 108.166272 
L 482.505882 108.166272 
Q 483.924706 108.166272 483.924706 107.026693 
L 483.924706 67.141434 
Q 483.924706 66.001855 482.505882 66.001855 
L 432.847059 66.001855 
Q 431.428235 66.001855 431.428235 67.141434 
L 431.428235 107.026693 
Q 431.428235 108.166272 432.847059 108.166272 
z
" clip-path="url(#pef7ac1ec7c)" style="fill: #f0f0f0; stroke: #ffffff; stroke-width: 1.5; stroke-linejoin: miter"/>
   </g>
   <g id="patch_10">
    <path d="M 35.576471 153.749425 
L 85.235294 153.749425 
Q 86.654118 153.749425 86.654118 152.609846 
L 86.654118 112.724587 
Q 86.654118 111.585008 85.235294 111.585008 
L 35.576471 111.585008 
Q 34.157647 111.585008 34.157647 112.724587 
L 34.157647 152.609846 
Q 34.157647 153.749425 35.576471 153.749425 
z
" clip-path="url(#pef7ac1ec7c)" style="fill: #f0f0f0; stroke: #ffffff; stroke-width: 1.5; stroke-linejoin: miter"/>
   </g>
   <g id="patch_11">
    <path d="M 92.329412 153.749425 
L 141.988235 153.749425 
Q 143.407059 153.749425 143.407059 152.609846 
L 143.407059 112.724587 
Q 143.407059 111.585008 141.988235 111.585008 
L 92.329412 111.585008 
Q 90.910588 111.585008 90.910588 112.724587 
L 90.910588 152.609846 
Q 90.910588 153.749425 92.329412 153.749425 
z
" clip-path="url(#pef7ac1ec7c)" style="fill: #1f77b4; stroke: #ffffff; stroke-width: 1.5; stroke-linejoin: miter"/>
   </g>
   <g id="patch_12">
    <path d="M 149.082353 153.749425 
L 198.741176 153.749425 
Q 200.16 153.749425 200.16 152.609846 
L 200.16 112.724587 
Q 200.16 111.585008 198.741176 111.585008 
L 149.082353 111.585008 
Q 147.663529 111.585008 147.663529 112.724587 
L 147.663529 152.609846 
Q 147.663529 153.749425 149.082353 153.749425 
z
" clip-path="url(#pef7ac1ec7c)" style="fill: #f0f0f0; stroke: #ffffff; stroke-width: 1.5; stroke-linejoin: miter"/>
   </g>
   <g id="patch_13">
    <path d="M 205.835294 153.749425 
L 255.494118 153.749425 
Q 256.912941 153.749425 256.912941 152.609846 
L 256.912941 112.724587 
Q 256.912941 111.585008 255.494118 111.585008 
L 205.835294 111.585008 
Q 204.416471 111.585008 204.416471 112.724587 
L 204.416471 152.609846 
Q 204.416471 153.749425 205.835294 153.749425 
z
" clip-path="url(#pef7ac1ec7c)" style="fill: #f0f0f0; stroke: #ffffff; stroke-width: 1.5; stroke-linejoin: miter"/>
   </g>
   <g id="patch_14">
    <path d="M 262.588235 153.749425 
L 312.247059 153.749425 
Q 313.665882 153.749425 313.665882 152.609846 
L 313.665882 112.724587 
Q 313.665882 111.585008 312.247059 111.585008 
L 262.588235 111.585008 
Q 261.169412 111.585008 261.169412 112.724587 
L 261.169412 152.609846 
Q 261.169412 153.749425 262.588235 153.749425 
z
" clip-path="url(#pef7ac1ec7c)" style="fill: #f0f0f0; stroke: #ffffff; stroke-width: 1.5; stroke-linejoin: miter"/>
   </g>
   <g id="patch_15">
    <path d="M 319.341176 153.749425 
L 369 153.749425 
Q 370.418824 153.749425 370.418824 152.609846 
L 370.418824 112.724587 
Q 370.418824 111.585008 369 111.585008 
L 319.341176 111.585008 
Q 317.922353 111.585008 317.922353 112.724587 
L 317.922353 152.609846 
Q 317.922353 153.749425 319.341176 153.749425 
z
" clip-path="url(#pef7ac1ec7c)" style="fill: #1f77b4; stroke: #ffffff; stroke-width: 1.5; stroke-linejoin: miter"/>
   </g>
   <g id="patch_16">
    <path d="M 376.094118 153.749425 
L 425.752941 153.749425 
Q 427.171765 153.749425 427.171765 152.609846 
L 427.171765 112.724587 
Q 427.171765 111.585008 425.752941 111.585008 
L 376.094118 111.585008 
Q 374.675294 111.585008 374.675294 112.724587 
L 374.675294 152.609846 
Q 374.675294 153.749425 376.094118 153.749425 
z
" clip-path="url(#pef7ac1ec7c)" style="fill: #f0f0f0; stroke: #ffffff; stroke-width: 1.5; stroke-linejoin: miter"/>
   </g>
   <g id="patch_17">
    <path d="M 432.847059 153.749425 
L 482.505882 153.749425 
Q 483.924706 153.749425 483.924706 152.609846 
L 483.924706 112.724587 
Q 483.924706 111.585008 482.505882 111.585008 
L 432.847059 111.585008 
Q 431.428235 111.585008 431.428235 112.724587 
L 431.428235 152.609846 
Q 431.428235 153.749425 432.847059 153.749425 
z
" clip-path="url(#pef7ac1ec7c)" style="fill: #f0f0f0; stroke: #ffffff; stroke-width: 1.5; stroke-linejoin: miter"/>
   </g>
   <g id="patch_18">
    <path d="M 35.576471 199.332578 
L 85.235294 199.332578 
Q 86.654118 199.332578 86.654118 198.192999 
L 86.654118 158.30774 
Q 86.654118 157.168161 85.235294 157.168161 
L 35.576471 157.168161 
Q 34.157647 157.168161 34.157647 158.30774 
L 34.157647 198.192999 
Q 34.157647 199.332578 35.576471 199.332578 
z
" clip-path="url(#pef7ac1ec7c)" style="fill: #f0f0f0; stroke: #ffffff; stroke-width: 1.5; stroke-linejoin: miter"/>
   </g>
   <g id="patch_19">
    <path d="M 92.329412 199.332578 
L 141.988235 199.332578 
Q 143.407059 199.332578 143.407059 198.192999 
L 143.407059 158.30774 
Q 143.407059 157.168161 141.988235 157.168161 
L 92.329412 157.168161 
Q 90.910588 157.168161 90.910588 158.30774 
L 90.910588 198.192999 
Q 90.910588 199.332578 92.329412 199.332578 
z
" clip-path="url(#pef7ac1ec7c)" style="fill: #f0f0f0; stroke: #ffffff; stroke-width: 1.5; stroke-linejoin: miter"/>
   </g>
   <g id="patch_20">
    <path d="M 149.082353 199.332578 
L 198.741176 199.332578 
Q 200.16 199.332578 200.16 198.192999 
L 200.16 158.30774 
Q 200.16 157.168161 198.741176 157.168161 
L 149.082353 157.168161 
Q 147.663529 157.168161 147.663529 158.30774 
L 147.663529 198.192999 
Q 147.663529 199.332578 149.082353 199.332578 
z
" clip-path="url(#pef7ac1ec7c)" style="fill: #1f77b4; stroke: #ffffff; stroke-width: 1.5; stroke-linejoin: miter"/>
   </g>
   <g id="patch_21">
    <path d="M 205.835294 199.332578 
L 255.494118 199.332578 
Q 256.912941 199.332578 256.912941 198.192999 
L 256.912941 158.30774 
Q 256.912941 157.168161 255.494118 157.168161 
L 205.835294 157.168161 
Q 204.416471 157.168161 204.416471 158.30774 
L 204.416471 198.192999 
Q 204.416471 199.332578 205.835294 199.332578 
z
" clip-path="url(#pef7ac1ec7c)" style="fill: #f0f0f0; stroke: #ffffff; stroke-width: 1.5; stroke-linejoin: miter"/>
   </g>
   <g id="patch_22">
    <path d="M 262.588235 199.332578 
L 312.247059 199.332578 
Q 313.665882 199.332578 313.665882 198.192999 
L 313.665882 158.30774 
Q 313.665882 157.168161 312.247059 157.168161 
L 262.588235 157.168161 
Q 261.169412 157.168161 261.169412 158.30774 
L 261.169412 198.192999 
Q 261.169412 199.332578 262.588235 199.332578 
z
" clip-path="url(#pef7ac1ec7c)" style="fill: #f0f0f0; stroke: #ffffff; stroke-width: 1.5; stroke-linejoin: miter"/>
   </g>
   <g id="patch_23">
    <path d="M 319.341176 199.332578 
L 369 199.332578 
Q 370.418824 199.332578 370.418824 198.192999 
L 370.418824 158.30774 
Q 370.418824 157.168161 369 157.168161 
L 319.341176 157.168161 
Q 317.922353 157.168161 317.922353 158.30774 
L 317.922353 198.192999 
Q 317.922353 199.332578 319.341176 199.332578 
z
" clip-path="url(#pef7ac1ec7c)" style="fill: #f0f0f0; stroke: #ffffff; stroke-width: 1.5; stroke-linejoin: miter"/>
   </g>
   <g id="patch_24">
    <path d="M 376.094118 199.332578 
L 425.752941 199.332578 
Q 427.171765 199.332578 427.171765 198.192999 
L 427.171765 158.30774 
Q 427.171765 157.168161 425.752941 157.168161 
L 376.094118 157.168161 
Q 374.675294 157.168161 374.675294 158.30774 
L 374.675294 198.192999 
Q 374.675294 199.332578 376.094118 199.332578 
z
" clip-path="url(#pef7ac1ec7c)" style="fill: #1f77b4; stroke: #ffffff; stroke-width: 1.5; stroke-linejoin: miter"/>
   </g>
   <g id="patch_25">
    <path d="M 432.847059 199.332578 
L 482.505882 199.332578 
Q 483.924706 199.332578 483.924706 198.192999 
L 483.924706 158.30774 
Q 483.924706 157.168161 482.505882 157.168161 
L 432.847059 157.168161 
Q 431.428235 157.168161 431.428235 158.30774 
L 431.428235 198.192999 
Q 431.428235 199.332578 432.847059 199.332578 
z
" clip-path="url(#pef7ac1ec7c)" style="fill: #f0f0f0; stroke: #ffffff; stroke-width: 1.5; stroke-linejoin: miter"/>
   </g>
   <g id="patch_26">
    <path d="M 35.576471 244.91573 
L 85.235294 244.91573 
Q 86.654118 244.91573 86.654118 243.776152 
L 86.654118 203.890893 
Q 86.654118 202.751314 85.235294 202.751314 
L 35.576471 202.751314 
Q 34.157647 202.751314 34.157647 203.890893 
L 34.157647 243.776152 
Q 34.157647 244.91573 35.576471 244.91573 
z
" clip-path="url(#pef7ac1ec7c)" style="fill: #f0f0f0; stroke: #ffffff; stroke-width: 1.5; stroke-linejoin: miter"/>
   </g>
   <g id="patch_27">
    <path d="M 92.329412 244.91573 
L 141.988235 244.91573 
Q 143.407059 244.91573 143.407059 243.776152 
L 143.407059 203.890893 
Q 143.407059 202.751314 141.988235 202.751314 
L 92.329412 202.751314 
Q 90.910588 202.751314 90.910588 203.890893 
L 90.910588 243.776152 
Q 90.910588 244.91573 92.329412 244.91573 
z
" clip-path="url(#pef7ac1ec7c)" style="fill: #f0f0f0; stroke: #ffffff; stroke-width: 1.5; stroke-linejoin: miter"/>
   </g>
   <g id="patch_28">
    <path d="M 149.082353 244.91573 
L 198.741176 244.91573 
Q 200.16 244.91573 200.16 243.776152 
L 200.16 203.890893 
Q 200.16 202.751314 198.741176 202.751314 
L 149.082353 202.751314 
Q 147.663529 202.751314 147.663529 203.890893 
L 147.663529 243.776152 
Q 147.663529 244.91573 149.082353 244.91573 
z
" clip-path="url(#pef7ac1ec7c)" style="fill: #f0f0f0; stroke: #ffffff; stroke-width: 1.5; stroke-linejoin: miter"/>
   </g>
   <g id="patch_29">
    <path d="M 205.835294 244.91573 
L 255.494118 244.91573 
Q 256.912941 244.91573 256.912941 243.776152 
L 256.912941 203.890893 
Q 256.912941 202.751314 255.494118 202.751314 
L 205.835294 202.751314 
Q 204.416471 202.751314 204.416471 203.890893 
L 204.416471 243.776152 
Q 204.416471 244.91573 205.835294 244.91573 
z
" clip-path="url(#pef7ac1ec7c)" style="fill: #1f77b4; stroke: #ffffff; stroke-width: 1.5; stroke-linejoin: miter"/>
   </g>
   <g id="patch_30">
    <path d="M 262.588235 244.91573 
L 312.247059 244.91573 
Q 313.665882 244.91573 313.665882 243.776152 
L 313.665882 203.890893 
Q 313.665882 202.751314 312.247059 202.751314 
L 262.588235 202.751314 
Q 261.169412 202.751314 261.169412 203.890893 
L 261.169412 243.776152 
Q 261.169412 244.91573 262.588235 244.91573 
z
" clip-path="url(#pef7ac1ec7c)" style="fill: #f0f0f0; stroke: #ffffff; stroke-width: 1.5; stroke-linejoin: miter"/>
   </g>
   <g id="patch_31">
    <path d="M 319.341176 244.91573 
L 369 244.91573 
Q 370.418824 244.91573 370.418824 243.776152 
L 370.418824 203.890893 
Q 370.418824 202.751314 369 202.751314 
L 319.341176 202.751314 
Q 317.922353 202.751314 317.922353 203.890893 
L 317.922353 243.776152 
Q 317.922353 244.91573 319.341176 244.91573 
z
" clip-path="url(#pef7ac1ec7c)" style="fill: #f0f0f0; stroke: #ffffff; stroke-width: 1.5; stroke-linejoin: miter"/>
   </g>
   <g id="patch_32">
    <path d="M 376.094118 244.91573 
L 425.752941 244.91573 
Q 427.171765 244.91573 427.171765 243.776152 
L 427.171765 203.890893 
Q 427.171765 202.751314 425.752941 202.751314 
L 376.094118 202.751314 
Q 374.675294 202.751314 374.675294 203.890893 
L 374.675294 243.776152 
Q 374.675294 244.91573 376.094118 244.91573 
z
" clip-path="url(#pef7ac1ec7c)" style="fill: #f0f0f0; stroke: #ffffff; stroke-width: 1.5; stroke-linejoin: miter"/>
   </g>
   <g id="patch_33">
    <path d="M 432.847059 244.91573 
L 482.505882 244.91573 
Q 483.924706 244.91573 483.924706 243.776152 
L 483.924706 203.890893 
Q 483.924706 202.751314 482.505882 202.751314 
L 432.847059 202.751314 
Q 431.428235 202.751314 431.428235 203.890893 
L 431.428235 243.776152 
Q 431.428235 244.91573 432.847059 244.91573 
z
" clip-path="url(#pef7ac1ec7c)" style="fill: #1f77b4; stroke: #ffffff; stroke-width: 1.5; stroke-linejoin: miter"/>
   </g>
   <g id="text_1">
    <!-- 1 -->
    <g style="fill: #ffffff" transform="translate(56.579085 90.119376) scale(0.11 -0.11)">
     <defs>
      <path id="DejaVuSans-Bold-31" d="M 750 831 
L 1813 831 
L 1813 3847 
L 722 3622 
L 722 4441 
L 1806 4666 
L 2950 4666 
L 2950 831 
L 4013 831 
L 4013 0 
L 750 0 
L 750 831 
z
" transform="scale(0.015625)"/>
     </defs>
     <use xlink:href="#DejaVuSans-Bold-31"/>
    </g>
   </g>
   <g id="text_2">
    <!-- 0 -->
    <g style="fill: #888888" transform="translate(113.332027 90.119376) scale(0.11 -0.11)">
     <defs>
      <path id="DejaVuSans-Bold-30" d="M 2944 2338 
Q 2944 3213 2780 3570 
Q 2616 3928 2228 3928 
Q 1841 3928 1675 3570 
Q 1509 3213 1509 2338 
Q 1509 1453 1675 1090 
Q 1841 728 2228 728 
Q 2613 728 2778 1090 
Q 2944 1453 2944 2338 
z
M 4147 2328 
Q 4147 1169 3647 539 
Q 3147 -91 2228 -91 
Q 1306 -91 806 539 
Q 306 1169 306 2328 
Q 306 3491 806 4120 
Q 1306 4750 2228 4750 
Q 3147 4750 3647 4120 
Q 4147 3491 4147 2328 
z
" transform="scale(0.015625)"/>
     </defs>
     <use xlink:href="#DejaVuSans-Bold-30"/>
    </g>
   </g>
   <g id="text_3">
    <!-- 0 -->
    <g style="fill: #888888" transform="translate(170.084968 90.119376) scale(0.11 -0.11)">
     <use xlink:href="#DejaVuSans-Bold-30"/>
    </g>
   </g>
   <g id="text_4">
    <!-- 0 -->
    <g style="fill: #888888" transform="translate(226.837909 90.119376) scale(0.11 -0.11)">
     <use xlink:href="#DejaVuSans-Bold-30"/>
    </g>
   </g>
   <g id="text_5">
    <!-- 1 -->
    <g style="fill: #ffffff" transform="translate(283.59085 90.119376) scale(0.11 -0.11)">
     <use xlink:href="#DejaVuSans-Bold-31"/>
    </g>
   </g>
   <g id="text_6">
    <!-- 0 -->
    <g style="fill: #888888" transform="translate(340.343791 90.119376) scale(0.11 -0.11)">
     <use xlink:href="#DejaVuSans-Bold-30"/>
    </g>
   </g>
   <g id="text_7">
    <!-- 0 -->
    <g style="fill: #888888" transform="translate(397.096733 90.119376) scale(0.11 -0.11)">
     <use xlink:href="#DejaVuSans-Bold-30"/>
    </g>
   </g>
   <g id="text_8">
    <!-- 0 -->
    <g style="fill: #888888" transform="translate(453.849674 90.119376) scale(0.11 -0.11)">
     <use xlink:href="#DejaVuSans-Bold-30"/>
    </g>
   </g>
   <g id="text_9">
    <!-- 0 -->
    <g style="fill: #888888" transform="translate(56.579085 135.702529) scale(0.11 -0.11)">
     <use xlink:href="#DejaVuSans-Bold-30"/>
    </g>
   </g>
   <g id="text_10">
    <!-- 1 -->
    <g style="fill: #ffffff" transform="translate(113.332027 135.702529) scale(0.11 -0.11)">
     <use xlink:href="#DejaVuSans-Bold-31"/>
    </g>
   </g>
   <g id="text_11">
    <!-- 0 -->
    <g style="fill: #888888" transform="translate(170.084968 135.702529) scale(0.11 -0.11)">
     <use xlink:href="#DejaVuSans-Bold-30"/>
    </g>
   </g>
   <g id="text_12">
    <!-- 0 -->
    <g style="fill: #888888" transform="translate(226.837909 135.702529) scale(0.11 -0.11)">
     <use xlink:href="#DejaVuSans-Bold-30"/>
    </g>
   </g>
   <g id="text_13">
    <!-- 0 -->
    <g style="fill: #888888" transform="translate(283.59085 135.702529) scale(0.11 -0.11)">
     <use xlink:href="#DejaVuSans-Bold-30"/>
    </g>
   </g>
   <g id="text_14">
    <!-- 1 -->
    <g style="fill: #ffffff" transform="translate(340.343791 135.702529) scale(0.11 -0.11)">
     <use xlink:href="#DejaVuSans-Bold-31"/>
    </g>
   </g>
   <g id="text_15">
    <!-- 0 -->
    <g style="fill: #888888" transform="translate(397.096733 135.702529) scale(0.11 -0.11)">
     <use xlink:href="#DejaVuSans-Bold-30"/>
    </g>
   </g>
   <g id="text_16">
    <!-- 0 -->
    <g style="fill: #888888" transform="translate(453.849674 135.702529) scale(0.11 -0.11)">
     <use xlink:href="#DejaVuSans-Bold-30"/>
    </g>
   </g>
   <g id="text_17">
    <!-- 0 -->
    <g style="fill: #888888" transform="translate(56.579085 181.285682) scale(0.11 -0.11)">
     <use xlink:href="#DejaVuSans-Bold-30"/>
    </g>
   </g>
   <g id="text_18">
    <!-- 0 -->
    <g style="fill: #888888" transform="translate(113.332027 181.285682) scale(0.11 -0.11)">
     <use xlink:href="#DejaVuSans-Bold-30"/>
    </g>
   </g>
   <g id="text_19">
    <!-- 1 -->
    <g style="fill: #ffffff" transform="translate(170.084968 181.285682) scale(0.11 -0.11)">
     <use xlink:href="#DejaVuSans-Bold-31"/>
    </g>
   </g>
   <g id="text_20">
    <!-- 0 -->
    <g style="fill: #888888" transform="translate(226.837909 181.285682) scale(0.11 -0.11)">
     <use xlink:href="#DejaVuSans-Bold-30"/>
    </g>
   </g>
   <g id="text_21">
    <!-- 0 -->
    <g style="fill: #888888" transform="translate(283.59085 181.285682) scale(0.11 -0.11)">
     <use xlink:href="#DejaVuSans-Bold-30"/>
    </g>
   </g>
   <g id="text_22">
    <!-- 0 -->
    <g style="fill: #888888" transform="translate(340.343791 181.285682) scale(0.11 -0.11)">
     <use xlink:href="#DejaVuSans-Bold-30"/>
    </g>
   </g>
   <g id="text_23">
    <!-- 1 -->
    <g style="fill: #ffffff" transform="translate(397.096733 181.285682) scale(0.11 -0.11)">
     <use xlink:href="#DejaVuSans-Bold-31"/>
    </g>
   </g>
   <g id="text_24">
    <!-- 0 -->
    <g style="fill: #888888" transform="translate(453.849674 181.285682) scale(0.11 -0.11)">
     <use xlink:href="#DejaVuSans-Bold-30"/>
    </g>
   </g>
   <g id="text_25">
    <!-- 0 -->
    <g style="fill: #888888" transform="translate(56.579085 226.868835) scale(0.11 -0.11)">
     <use xlink:href="#DejaVuSans-Bold-30"/>
    </g>
   </g>
   <g id="text_26">
    <!-- 0 -->
    <g style="fill: #888888" transform="translate(113.332027 226.868835) scale(0.11 -0.11)">
     <use xlink:href="#DejaVuSans-Bold-30"/>
    </g>
   </g>
   <g id="text_27">
    <!-- 0 -->
    <g style="fill: #888888" transform="translate(170.084968 226.868835) scale(0.11 -0.11)">
     <use xlink:href="#DejaVuSans-Bold-30"/>
    </g>
   </g>
   <g id="text_28">
    <!-- 1 -->
    <g style="fill: #ffffff" transform="translate(226.837909 226.868835) scale(0.11 -0.11)">
     <use xlink:href="#DejaVuSans-Bold-31"/>
    </g>
   </g>
   <g id="text_29">
    <!-- 0 -->
    <g style="fill: #888888" transform="translate(283.59085 226.868835) scale(0.11 -0.11)">
     <use xlink:href="#DejaVuSans-Bold-30"/>
    </g>
   </g>
   <g id="text_30">
    <!-- 0 -->
    <g style="fill: #888888" transform="translate(340.343791 226.868835) scale(0.11 -0.11)">
     <use xlink:href="#DejaVuSans-Bold-30"/>
    </g>
   </g>
   <g id="text_31">
    <!-- 0 -->
    <g style="fill: #888888" transform="translate(397.096733 226.868835) scale(0.11 -0.11)">
     <use xlink:href="#DejaVuSans-Bold-30"/>
    </g>
   </g>
   <g id="text_32">
    <!-- 1 -->
    <g style="fill: #ffffff" transform="translate(453.849674 226.868835) scale(0.11 -0.11)">
     <use xlink:href="#DejaVuSans-Bold-31"/>
    </g>
   </g>
   <g id="text_33">
    <!-- A -->
    <g style="fill: #2ca02c" transform="translate(12.10136 90.395314) scale(0.12 -0.12)">
     <defs>
      <path id="DejaVuSans-Bold-41" d="M 3419 850 
L 1538 850 
L 1241 0 
L 31 0 
L 1759 4666 
L 3194 4666 
L 4922 0 
L 3713 0 
L 3419 850 
z
M 1838 1716 
L 3116 1716 
L 2478 3572 
L 1838 1716 
z
" transform="scale(0.015625)"/>
     </defs>
     <use xlink:href="#DejaVuSans-Bold-41"/>
    </g>
   </g>
   <g id="text_34">
    <!-- T -->
    <g style="fill: #d62728" transform="translate(13.201985 135.978466) scale(0.12 -0.12)">
     <defs>
      <path id="DejaVuSans-Bold-54" d="M 31 4666 
L 4331 4666 
L 4331 3756 
L 2784 3756 
L 2784 0 
L 1581 0 
L 1581 3756 
L 31 3756 
L 31 4666 
z
" transform="scale(0.015625)"/>
     </defs>
     <use xlink:href="#DejaVuSans-Bold-54"/>
    </g>
   </g>
   <g id="text_35">
    <!-- C -->
    <g style="fill: #1f77b4" transform="translate(12.58136 181.561619) scale(0.12 -0.12)">
     <defs>
      <path id="DejaVuSans-Bold-43" d="M 4288 256 
Q 3956 84 3597 -3 
Q 3238 -91 2847 -91 
Q 1681 -91 1000 561 
Q 319 1213 319 2328 
Q 319 3447 1000 4098 
Q 1681 4750 2847 4750 
Q 3238 4750 3597 4662 
Q 3956 4575 4288 4403 
L 4288 3438 
Q 3953 3666 3628 3772 
Q 3303 3878 2944 3878 
Q 2300 3878 1931 3465 
Q 1563 3053 1563 2328 
Q 1563 1606 1931 1193 
Q 2300 781 2944 781 
Q 3303 781 3628 887 
Q 3953 994 4288 1222 
L 4288 256 
z
" transform="scale(0.015625)"/>
     </defs>
     <use xlink:href="#DejaVuSans-Bold-43"/>
    </g>
   </g>
   <g id="text_36">
    <!-- G -->
    <g style="fill: #ff7f0e" transform="translate(11.53886 227.144772) scale(0.12 -0.12)">
     <defs>
      <path id="DejaVuSans-Bold-47" d="M 4781 347 
Q 4331 128 3847 18 
Q 3363 -91 2847 -91 
Q 1681 -91 1000 561 
Q 319 1213 319 2328 
Q 319 3456 1012 4103 
Q 1706 4750 2913 4750 
Q 3378 4750 3804 4662 
Q 4231 4575 4609 4403 
L 4609 3438 
Q 4219 3659 3833 3768 
Q 3447 3878 3059 3878 
Q 2341 3878 1952 3476 
Q 1563 3075 1563 2328 
Q 1563 1588 1938 1184 
Q 2313 781 3003 781 
Q 3191 781 3352 804 
Q 3513 828 3641 878 
L 3641 1784 
L 2906 1784 
L 2906 2591 
L 4781 2591 
L 4781 347 
z
" transform="scale(0.015625)"/>
     </defs>
     <use xlink:href="#DejaVuSans-Bold-47"/>
    </g>
   </g>
   <g id="text_37">
    <!-- A -->
    <g style="fill: #2ca02c" transform="translate(55.762445 47.552127) scale(0.12 -0.12)">
     <use xlink:href="#DejaVuSans-Bold-41"/>
    </g>
   </g>
   <g id="text_38">
    <!-- T -->
    <g style="fill: #d62728" transform="translate(113.065699 47.552127) scale(0.12 -0.12)">
     <use xlink:href="#DejaVuSans-Bold-54"/>
    </g>
   </g>
   <g id="text_39">
    <!-- C -->
    <g style="fill: #1f77b4" transform="translate(169.508327 47.552127) scale(0.12 -0.12)">
     <use xlink:href="#DejaVuSans-Bold-43"/>
    </g>
   </g>
   <g id="text_40">
    <!-- G -->
    <g style="fill: #ff7f0e" transform="translate(225.740018 47.552127) scale(0.12 -0.12)">
     <use xlink:href="#DejaVuSans-Bold-47"/>
    </g>
   </g>
   <g id="text_41">
    <!-- A -->
    <g style="fill: #2ca02c" transform="translate(282.77421 47.552127) scale(0.12 -0.12)">
     <use xlink:href="#DejaVuSans-Bold-41"/>
    </g>
   </g>
   <g id="text_42">
    <!-- T -->
    <g style="fill: #d62728" transform="translate(340.077463 47.552127) scale(0.12 -0.12)">
     <use xlink:href="#DejaVuSans-Bold-54"/>
    </g>
   </g>
   <g id="text_43">
    <!-- C -->
    <g style="fill: #1f77b4" transform="translate(396.520092 47.552127) scale(0.12 -0.12)">
     <use xlink:href="#DejaVuSans-Bold-43"/>
    </g>
   </g>
   <g id="text_44">
    <!-- G -->
    <g style="fill: #ff7f0e" transform="translate(452.751783 47.552127) scale(0.12 -0.12)">
     <use xlink:href="#DejaVuSans-Bold-47"/>
    </g>
   </g>
   <g id="text_45">
    <!-- Dimension: 4 × sequence length -->
    <g transform="translate(181.675133 272.265622) scale(0.09 -0.09)">
     <defs>
      <path id="DejaVuSans-Oblique-44" d="M 1081 4666 
L 2438 4666 
Q 3519 4666 4070 4208 
Q 4622 3750 4622 2847 
Q 4622 2250 4412 1698 
Q 4203 1147 3834 769 
Q 3463 381 2891 190 
Q 2319 0 1538 0 
L 172 0 
L 1081 4666 
z
M 1613 4147 
L 909 519 
L 1734 519 
Q 2794 519 3375 1128 
Q 3956 1738 3956 2847 
Q 3956 3519 3581 3833 
Q 3206 4147 2406 4147 
L 1613 4147 
z
" transform="scale(0.015625)"/>
      <path id="DejaVuSans-Oblique-69" d="M 1172 4863 
L 1747 4863 
L 1606 4134 
L 1031 4134 
L 1172 4863 
z
M 909 3500 
L 1484 3500 
L 800 0 
L 225 0 
L 909 3500 
z
" transform="scale(0.015625)"/>
      <path id="DejaVuSans-Oblique-6d" d="M 5747 2113 
L 5338 0 
L 4763 0 
L 5166 2094 
Q 5191 2228 5203 2325 
Q 5216 2422 5216 2491 
Q 5216 2772 5059 2928 
Q 4903 3084 4622 3084 
Q 4203 3084 3875 2770 
Q 3547 2456 3450 1953 
L 3066 0 
L 2491 0 
L 2900 2094 
Q 2925 2209 2937 2307 
Q 2950 2406 2950 2484 
Q 2950 2769 2794 2926 
Q 2638 3084 2363 3084 
Q 1938 3084 1609 2770 
Q 1281 2456 1184 1953 
L 800 0 
L 225 0 
L 909 3500 
L 1484 3500 
L 1375 2956 
Q 1609 3263 1923 3423 
Q 2238 3584 2597 3584 
Q 2978 3584 3223 3384 
Q 3469 3184 3519 2828 
Q 3781 3197 4126 3390 
Q 4472 3584 4856 3584 
Q 5306 3584 5551 3325 
Q 5797 3066 5797 2591 
Q 5797 2488 5784 2364 
Q 5772 2241 5747 2113 
z
" transform="scale(0.015625)"/>
      <path id="DejaVuSans-Oblique-65" d="M 3078 2063 
Q 3088 2113 3092 2166 
Q 3097 2219 3097 2272 
Q 3097 2653 2873 2875 
Q 2650 3097 2266 3097 
Q 1838 3097 1509 2826 
Q 1181 2556 1013 2059 
L 3078 2063 
z
M 3578 1613 
L 903 1613 
Q 884 1494 878 1425 
Q 872 1356 872 1306 
Q 872 872 1139 634 
Q 1406 397 1894 397 
Q 2269 397 2603 481 
Q 2938 566 3225 728 
L 3116 159 
Q 2806 34 2476 -28 
Q 2147 -91 1806 -91 
Q 1078 -91 686 257 
Q 294 606 294 1247 
Q 294 1794 489 2264 
Q 684 2734 1063 3103 
Q 1306 3334 1642 3459 
Q 1978 3584 2356 3584 
Q 2950 3584 3301 3228 
Q 3653 2872 3653 2272 
Q 3653 2128 3634 1964 
Q 3616 1800 3578 1613 
z
" transform="scale(0.015625)"/>
      <path id="DejaVuSans-Oblique-6e" d="M 3566 2113 
L 3156 0 
L 2578 0 
L 2988 2091 
Q 3016 2238 3031 2350 
Q 3047 2463 3047 2528 
Q 3047 2791 2881 2937 
Q 2716 3084 2419 3084 
Q 1956 3084 1622 2776 
Q 1288 2469 1184 1941 
L 800 0 
L 225 0 
L 903 3500 
L 1478 3500 
L 1363 2950 
Q 1603 3253 1940 3418 
Q 2278 3584 2650 3584 
Q 3113 3584 3367 3334 
Q 3622 3084 3622 2631 
Q 3622 2519 3608 2391 
Q 3594 2263 3566 2113 
z
" transform="scale(0.015625)"/>
      <path id="DejaVuSans-Oblique-73" d="M 3200 3397 
L 3091 2853 
Q 2863 2978 2609 3040 
Q 2356 3103 2088 3103 
Q 1634 3103 1373 2948 
Q 1113 2794 1113 2528 
Q 1113 2219 1719 2053 
Q 1766 2041 1788 2034 
L 1972 1978 
Q 2547 1819 2739 1644 
Q 2931 1469 2931 1166 
Q 2931 609 2489 259 
Q 2047 -91 1331 -91 
Q 1053 -91 747 -37 
Q 441 16 72 128 
L 184 722 
Q 500 559 806 475 
Q 1113 391 1394 391 
Q 1816 391 2080 572 
Q 2344 753 2344 1031 
Q 2344 1331 1650 1516 
L 1591 1531 
L 1394 1581 
Q 956 1697 753 1886 
Q 550 2075 550 2369 
Q 550 2928 970 3256 
Q 1391 3584 2113 3584 
Q 2397 3584 2667 3537 
Q 2938 3491 3200 3397 
z
" transform="scale(0.015625)"/>
      <path id="DejaVuSans-Oblique-6f" d="M 1625 -91 
Q 1009 -91 651 289 
Q 294 669 294 1325 
Q 294 1706 417 2101 
Q 541 2497 738 2766 
Q 1047 3184 1428 3384 
Q 1809 3584 2291 3584 
Q 2888 3584 3255 3212 
Q 3622 2841 3622 2241 
Q 3622 1825 3500 1412 
Q 3378 1000 3181 728 
Q 2875 309 2494 109 
Q 2113 -91 1625 -91 
z
M 891 1344 
Q 891 869 1089 633 
Q 1288 397 1691 397 
Q 2269 397 2648 901 
Q 3028 1406 3028 2181 
Q 3028 2634 2825 2865 
Q 2622 3097 2228 3097 
Q 1903 3097 1650 2945 
Q 1397 2794 1197 2484 
Q 1050 2253 970 1956 
Q 891 1659 891 1344 
z
" transform="scale(0.015625)"/>
      <path id="DejaVuSans-Oblique-3a" d="M 978 3309 
L 1638 3309 
L 1484 2516 
L 825 2516 
L 978 3309 
z
M 488 794 
L 1147 794 
L 991 0 
L 331 0 
L 488 794 
z
" transform="scale(0.015625)"/>
      <path id="DejaVuSans-Oblique-20" transform="scale(0.015625)"/>
      <path id="DejaVuSans-Oblique-34" d="M 2753 4666 
L 3547 4666 
L 2950 1625 
L 3616 1625 
L 3513 1100 
L 2847 1100 
L 2638 0 
L 2009 0 
L 2222 1100 
L 116 1100 
L 238 1709 
L 2753 4666 
z
M 2809 4116 
L 728 1625 
L 2322 1625 
L 2809 4116 
z
" transform="scale(0.015625)"/>
      <path id="DejaVuSans-Oblique-d7" d="M 4488 3438 
L 3059 2003 
L 4488 575 
L 4116 197 
L 2681 1631 
L 1247 197 
L 878 575 
L 2303 2003 
L 878 3438 
L 1247 3816 
L 2681 2381 
L 4116 3816 
L 4488 3438 
z
" transform="scale(0.015625)"/>
      <path id="DejaVuSans-Oblique-71" d="M 2669 525 
Q 2438 222 2123 65 
Q 1809 -91 1428 -91 
Q 897 -91 595 267 
Q 294 625 294 1253 
Q 294 1759 480 2231 
Q 666 2703 1013 3078 
Q 1238 3322 1530 3453 
Q 1822 3584 2144 3584 
Q 2531 3584 2781 3431 
Q 3031 3278 3144 2969 
L 3244 3494 
L 3822 3494 
L 2888 -1319 
L 2309 -1319 
L 2669 525 
z
M 891 1338 
Q 891 875 1084 633 
Q 1278 391 1644 391 
Q 2188 391 2572 911 
Q 2956 1431 2956 2175 
Q 2956 2625 2757 2864 
Q 2559 3103 2188 3103 
Q 1916 3103 1684 2976 
Q 1453 2850 1281 2606 
Q 1100 2350 995 2006 
Q 891 1663 891 1338 
z
" transform="scale(0.015625)"/>
      <path id="DejaVuSans-Oblique-75" d="M 428 1388 
L 838 3500 
L 1416 3500 
L 1006 1409 
Q 975 1256 961 1147 
Q 947 1038 947 966 
Q 947 700 1109 554 
Q 1272 409 1569 409 
Q 2031 409 2368 721 
Q 2706 1034 2809 1563 
L 3194 3500 
L 3769 3500 
L 3091 0 
L 2516 0 
L 2631 550 
Q 2388 244 2052 76 
Q 1716 -91 1338 -91 
Q 878 -91 622 161 
Q 366 413 366 863 
Q 366 956 381 1097 
Q 397 1238 428 1388 
z
" transform="scale(0.015625)"/>
      <path id="DejaVuSans-Oblique-63" d="M 3431 3366 
L 3316 2797 
Q 3109 2947 2876 3022 
Q 2644 3097 2394 3097 
Q 2119 3097 1870 3000 
Q 1622 2903 1453 2725 
Q 1184 2453 1037 2087 
Q 891 1722 891 1331 
Q 891 859 1127 628 
Q 1363 397 1844 397 
Q 2081 397 2348 469 
Q 2616 541 2906 684 
L 2797 116 
Q 2547 13 2283 -39 
Q 2019 -91 1741 -91 
Q 1044 -91 669 257 
Q 294 606 294 1253 
Q 294 1797 489 2255 
Q 684 2713 1069 3078 
Q 1331 3328 1684 3456 
Q 2038 3584 2456 3584 
Q 2700 3584 2940 3529 
Q 3181 3475 3431 3366 
z
" transform="scale(0.015625)"/>
      <path id="DejaVuSans-Oblique-6c" d="M 1172 4863 
L 1747 4863 
L 800 0 
L 225 0 
L 1172 4863 
z
" transform="scale(0.015625)"/>
      <path id="DejaVuSans-Oblique-67" d="M 3816 3500 
L 3219 434 
Q 3047 -456 2561 -893 
Q 2075 -1331 1253 -1331 
Q 950 -1331 690 -1286 
Q 431 -1241 206 -1147 
L 313 -588 
Q 525 -725 762 -790 
Q 1000 -856 1269 -856 
Q 1816 -856 2167 -557 
Q 2519 -259 2631 300 
L 2681 563 
Q 2441 288 2122 144 
Q 1803 0 1434 0 
Q 903 0 598 351 
Q 294 703 294 1319 
Q 294 1803 478 2267 
Q 663 2731 997 3091 
Q 1219 3328 1514 3456 
Q 1809 3584 2131 3584 
Q 2484 3584 2746 3420 
Q 3009 3256 3138 2956 
L 3238 3500 
L 3816 3500 
z
M 2950 2216 
Q 2950 2641 2750 2872 
Q 2550 3103 2181 3103 
Q 1953 3103 1747 3012 
Q 1541 2922 1394 2759 
Q 1156 2491 1023 2127 
Q 891 1763 891 1375 
Q 891 944 1092 712 
Q 1294 481 1672 481 
Q 2219 481 2584 976 
Q 2950 1472 2950 2216 
z
" transform="scale(0.015625)"/>
      <path id="DejaVuSans-Oblique-74" d="M 2706 3500 
L 2619 3053 
L 1472 3053 
L 1100 1153 
Q 1081 1047 1072 975 
Q 1063 903 1063 863 
Q 1063 663 1183 572 
Q 1303 481 1569 481 
L 2150 481 
L 2053 0 
L 1503 0 
Q 991 0 739 200 
Q 488 400 488 806 
Q 488 878 497 964 
Q 506 1050 525 1153 
L 897 3053 
L 409 3053 
L 500 3500 
L 978 3500 
L 1172 4494 
L 1747 4494 
L 1556 3500 
L 2706 3500 
z
" transform="scale(0.015625)"/>
      <path id="DejaVuSans-Oblique-68" d="M 3566 2113 
L 3156 0 
L 2578 0 
L 2988 2091 
Q 3016 2238 3031 2350 
Q 3047 2463 3047 2528 
Q 3047 2791 2881 2937 
Q 2716 3084 2419 3084 
Q 1956 3084 1617 2771 
Q 1278 2459 1178 1941 
L 800 0 
L 225 0 
L 1172 4863 
L 1747 4863 
L 1375 2950 
Q 1594 3244 1934 3414 
Q 2275 3584 2650 3584 
Q 3113 3584 3367 3334 
Q 3622 3084 3622 2631 
Q 3622 2519 3608 2391 
Q 3594 2263 3566 2113 
z
" transform="scale(0.015625)"/>
     </defs>
     <use xlink:href="#DejaVuSans-Oblique-44"/>
     <use xlink:href="#DejaVuSans-Oblique-69" transform="translate(77.001953 0)"/>
     <use xlink:href="#DejaVuSans-Oblique-6d" transform="translate(104.785156 0)"/>
     <use xlink:href="#DejaVuSans-Oblique-65" transform="translate(202.197266 0)"/>
     <use xlink:href="#DejaVuSans-Oblique-6e" transform="translate(263.720703 0)"/>
     <use xlink:href="#DejaVuSans-Oblique-73" transform="translate(327.099609 0)"/>
     <use xlink:href="#DejaVuSans-Oblique-69" transform="translate(379.199219 0)"/>
     <use xlink:href="#DejaVuSans-Oblique-6f" transform="translate(406.982422 0)"/>
     <use xlink:href="#DejaVuSans-Oblique-6e" transform="translate(468.164062 0)"/>
     <use xlink:href="#DejaVuSans-Oblique-3a" transform="translate(531.542969 0)"/>
     <use xlink:href="#DejaVuSans-Oblique-20" transform="translate(565.234375 0)"/>
     <use xlink:href="#DejaVuSans-Oblique-34" transform="translate(597.021484 0)"/>
     <use xlink:href="#DejaVuSans-Oblique-20" transform="translate(660.644531 0)"/>
     <use xlink:href="#DejaVuSans-Oblique-d7" transform="translate(692.431641 0)"/>
     <use xlink:href="#DejaVuSans-Oblique-20" transform="translate(776.220703 0)"/>
     <use xlink:href="#DejaVuSans-Oblique-73" transform="translate(808.007812 0)"/>
     <use xlink:href="#DejaVuSans-Oblique-65" transform="translate(860.107422 0)"/>
     <use xlink:href="#DejaVuSans-Oblique-71" transform="translate(921.630859 0)"/>
     <use xlink:href="#DejaVuSans-Oblique-75" transform="translate(985.107422 0)"/>
     <use xlink:href="#DejaVuSans-Oblique-65" transform="translate(1048.486328 0)"/>
     <use xlink:href="#DejaVuSans-Oblique-6e" transform="translate(1110.009766 0)"/>
     <use xlink:href="#DejaVuSans-Oblique-63" transform="translate(1173.388672 0)"/>
     <use xlink:href="#DejaVuSans-Oblique-65" transform="translate(1228.369141 0)"/>
     <use xlink:href="#DejaVuSans-Oblique-20" transform="translate(1289.892578 0)"/>
     <use xlink:href="#DejaVuSans-Oblique-6c" transform="translate(1321.679688 0)"/>
     <use xlink:href="#DejaVuSans-Oblique-65" transform="translate(1349.462891 0)"/>
     <use xlink:href="#DejaVuSans-Oblique-6e" transform="translate(1410.986328 0)"/>
     <use xlink:href="#DejaVuSans-Oblique-67" transform="translate(1474.365234 0)"/>
     <use xlink:href="#DejaVuSans-Oblique-74" transform="translate(1537.841797 0)"/>
     <use xlink:href="#DejaVuSans-Oblique-68" transform="translate(1577.050781 0)"/>
    </g>
   </g>
   <g id="text_46">
    <!-- A. One-Hot Encoding -->
    <g transform="translate(7.2 15.558281) scale(0.11 -0.11)">
     <defs>
      <path id="DejaVuSans-Bold-2e" d="M 653 1209 
L 1778 1209 
L 1778 0 
L 653 0 
L 653 1209 
z
" transform="scale(0.015625)"/>
      <path id="DejaVuSans-Bold-20" transform="scale(0.015625)"/>
      <path id="DejaVuSans-Bold-4f" d="M 2719 3878 
Q 2169 3878 1866 3472 
Q 1563 3066 1563 2328 
Q 1563 1594 1866 1187 
Q 2169 781 2719 781 
Q 3272 781 3575 1187 
Q 3878 1594 3878 2328 
Q 3878 3066 3575 3472 
Q 3272 3878 2719 3878 
z
M 2719 4750 
Q 3844 4750 4481 4106 
Q 5119 3463 5119 2328 
Q 5119 1197 4481 553 
Q 3844 -91 2719 -91 
Q 1597 -91 958 553 
Q 319 1197 319 2328 
Q 319 3463 958 4106 
Q 1597 4750 2719 4750 
z
" transform="scale(0.015625)"/>
      <path id="DejaVuSans-Bold-6e" d="M 4056 2131 
L 4056 0 
L 2931 0 
L 2931 347 
L 2931 1631 
Q 2931 2084 2911 2256 
Q 2891 2428 2841 2509 
Q 2775 2619 2662 2680 
Q 2550 2741 2406 2741 
Q 2056 2741 1856 2470 
Q 1656 2200 1656 1722 
L 1656 0 
L 538 0 
L 538 3500 
L 1656 3500 
L 1656 2988 
Q 1909 3294 2193 3439 
Q 2478 3584 2822 3584 
Q 3428 3584 3742 3212 
Q 4056 2841 4056 2131 
z
" transform="scale(0.015625)"/>
      <path id="DejaVuSans-Bold-65" d="M 4031 1759 
L 4031 1441 
L 1416 1441 
Q 1456 1047 1700 850 
Q 1944 653 2381 653 
Q 2734 653 3104 758 
Q 3475 863 3866 1075 
L 3866 213 
Q 3469 63 3072 -14 
Q 2675 -91 2278 -91 
Q 1328 -91 801 392 
Q 275 875 275 1747 
Q 275 2603 792 3093 
Q 1309 3584 2216 3584 
Q 3041 3584 3536 3087 
Q 4031 2591 4031 1759 
z
M 2881 2131 
Q 2881 2450 2695 2645 
Q 2509 2841 2209 2841 
Q 1884 2841 1681 2658 
Q 1478 2475 1428 2131 
L 2881 2131 
z
" transform="scale(0.015625)"/>
      <path id="DejaVuSans-Bold-2d" d="M 347 2297 
L 2309 2297 
L 2309 1388 
L 347 1388 
L 347 2297 
z
" transform="scale(0.015625)"/>
      <path id="DejaVuSans-Bold-48" d="M 588 4666 
L 1791 4666 
L 1791 2888 
L 3566 2888 
L 3566 4666 
L 4769 4666 
L 4769 0 
L 3566 0 
L 3566 1978 
L 1791 1978 
L 1791 0 
L 588 0 
L 588 4666 
z
" transform="scale(0.015625)"/>
      <path id="DejaVuSans-Bold-6f" d="M 2203 2784 
Q 1831 2784 1636 2517 
Q 1441 2250 1441 1747 
Q 1441 1244 1636 976 
Q 1831 709 2203 709 
Q 2569 709 2762 976 
Q 2956 1244 2956 1747 
Q 2956 2250 2762 2517 
Q 2569 2784 2203 2784 
z
M 2203 3584 
Q 3106 3584 3614 3096 
Q 4122 2609 4122 1747 
Q 4122 884 3614 396 
Q 3106 -91 2203 -91 
Q 1297 -91 786 396 
Q 275 884 275 1747 
Q 275 2609 786 3096 
Q 1297 3584 2203 3584 
z
" transform="scale(0.015625)"/>
      <path id="DejaVuSans-Bold-74" d="M 1759 4494 
L 1759 3500 
L 2913 3500 
L 2913 2700 
L 1759 2700 
L 1759 1216 
Q 1759 972 1856 886 
Q 1953 800 2241 800 
L 2816 800 
L 2816 0 
L 1856 0 
Q 1194 0 917 276 
Q 641 553 641 1216 
L 641 2700 
L 84 2700 
L 84 3500 
L 641 3500 
L 641 4494 
L 1759 4494 
z
" transform="scale(0.015625)"/>
      <path id="DejaVuSans-Bold-45" d="M 588 4666 
L 3834 4666 
L 3834 3756 
L 1791 3756 
L 1791 2888 
L 3713 2888 
L 3713 1978 
L 1791 1978 
L 1791 909 
L 3903 909 
L 3903 0 
L 588 0 
L 588 4666 
z
" transform="scale(0.015625)"/>
      <path id="DejaVuSans-Bold-63" d="M 3366 3391 
L 3366 2478 
Q 3138 2634 2908 2709 
Q 2678 2784 2431 2784 
Q 1963 2784 1702 2511 
Q 1441 2238 1441 1747 
Q 1441 1256 1702 982 
Q 1963 709 2431 709 
Q 2694 709 2930 787 
Q 3166 866 3366 1019 
L 3366 103 
Q 3103 6 2833 -42 
Q 2563 -91 2291 -91 
Q 1344 -91 809 395 
Q 275 881 275 1747 
Q 275 2613 809 3098 
Q 1344 3584 2291 3584 
Q 2566 3584 2833 3536 
Q 3100 3488 3366 3391 
z
" transform="scale(0.015625)"/>
      <path id="DejaVuSans-Bold-64" d="M 2919 2988 
L 2919 4863 
L 4044 4863 
L 4044 0 
L 2919 0 
L 2919 506 
Q 2688 197 2409 53 
Q 2131 -91 1766 -91 
Q 1119 -91 703 423 
Q 288 938 288 1747 
Q 288 2556 703 3070 
Q 1119 3584 1766 3584 
Q 2128 3584 2408 3439 
Q 2688 3294 2919 2988 
z
M 2181 722 
Q 2541 722 2730 984 
Q 2919 1247 2919 1747 
Q 2919 2247 2730 2509 
Q 2541 2772 2181 2772 
Q 1825 2772 1636 2509 
Q 1447 2247 1447 1747 
Q 1447 1247 1636 984 
Q 1825 722 2181 722 
z
" transform="scale(0.015625)"/>
      <path id="DejaVuSans-Bold-69" d="M 538 3500 
L 1656 3500 
L 1656 0 
L 538 0 
L 538 3500 
z
M 538 4863 
L 1656 4863 
L 1656 3950 
L 538 3950 
L 538 4863 
z
" transform="scale(0.015625)"/>
      <path id="DejaVuSans-Bold-67" d="M 2919 594 
Q 2688 288 2409 144 
Q 2131 0 1766 0 
Q 1125 0 706 504 
Q 288 1009 288 1791 
Q 288 2575 706 3076 
Q 1125 3578 1766 3578 
Q 2131 3578 2409 3434 
Q 2688 3291 2919 2981 
L 2919 3500 
L 4044 3500 
L 4044 353 
Q 4044 -491 3511 -936 
Q 2978 -1381 1966 -1381 
Q 1638 -1381 1331 -1331 
Q 1025 -1281 716 -1178 
L 716 -306 
Q 1009 -475 1290 -558 
Q 1572 -641 1856 -641 
Q 2406 -641 2662 -400 
Q 2919 -159 2919 353 
L 2919 594 
z
M 2181 2772 
Q 1834 2772 1640 2515 
Q 1447 2259 1447 1791 
Q 1447 1309 1634 1061 
Q 1822 813 2181 813 
Q 2531 813 2725 1069 
Q 2919 1325 2919 1791 
Q 2919 2259 2725 2515 
Q 2531 2772 2181 2772 
z
" transform="scale(0.015625)"/>
     </defs>
     <use xlink:href="#DejaVuSans-Bold-41"/>
     <use xlink:href="#DejaVuSans-Bold-2e" transform="translate(79.267578 0)"/>
     <use xlink:href="#DejaVuSans-Bold-20" transform="translate(117.255859 0)"/>
     <use xlink:href="#DejaVuSans-Bold-4f" transform="translate(152.070312 0)"/>
     <use xlink:href="#DejaVuSans-Bold-6e" transform="translate(237.080078 0)"/>
     <use xlink:href="#DejaVuSans-Bold-65" transform="translate(308.271484 0)"/>
     <use xlink:href="#DejaVuSans-Bold-2d" transform="translate(376.09375 0)"/>
     <use xlink:href="#DejaVuSans-Bold-48" transform="translate(417.597656 0)"/>
     <use xlink:href="#DejaVuSans-Bold-6f" transform="translate(501.289062 0)"/>
     <use xlink:href="#DejaVuSans-Bold-74" transform="translate(569.990234 0)"/>
     <use xlink:href="#DejaVuSans-Bold-20" transform="translate(617.792969 0)"/>
     <use xlink:href="#DejaVuSans-Bold-45" transform="translate(652.607422 0)"/>
     <use xlink:href="#DejaVuSans-Bold-6e" transform="translate(720.917969 0)"/>
     <use xlink:href="#DejaVuSans-Bold-63" transform="translate(792.109375 0)"/>
     <use xlink:href="#DejaVuSans-Bold-6f" transform="translate(851.386719 0)"/>
     <use xlink:href="#DejaVuSans-Bold-64" transform="translate(920.087891 0)"/>
     <use xlink:href="#DejaVuSans-Bold-69" transform="translate(991.669922 0)"/>
     <use xlink:href="#DejaVuSans-Bold-6e" transform="translate(1025.947266 0)"/>
     <use xlink:href="#DejaVuSans-Bold-67" transform="translate(1097.138672 0)"/>
    </g>
   </g>
  </g>
 </g>
 <defs>
  <clipPath id="pef7ac1ec7c">
   <rect x="7.2" y="21.558281" width="482.4" height="233.613659"/>
  </clipPath>
 </defs>
</svg>
