<?xml version="1.0" encoding="utf-8" standalone="no"?>
<!DOCTYPE svg PUBLIC "-//W3C//DTD SVG 1.1//EN"
  "http://www.w3.org/Graphics/SVG/1.1/DTD/svg11.dtd">
<svg xmlns:xlink="http://www.w3.org/1999/xlink" width="496.8pt" height="280.518281pt" viewBox="0 0 496.8 280.518281" xmlns="http://www.w3.org/2000/svg" version="1.1">
 <metadata>
  <rdf:RDF xmlns:dc="http://purl.org/dc/elements/1.1/" xmlns:cc="http://creativecommons.org/ns#" xmlns:rdf="http://www.w3.org/1999/02/22-rdf-syntax-ns#">
   <cc:Work>
    <dc:type rdf:resource="http://purl.org/dc/dcmitype/StillImage"/>
    <dc:date>2026-01-08T05:40:55.853109</dc:date>
    <dc:format>image/svg+xml</dc:format>
    <dc:creator>
     <cc:Agent>
      <dc:title>Matplotlib v3.10.7, https://matplotlib.org/</dc:title>
     </cc:Agent>
    </dc:creator>
   </cc:Work>
  </rdf:RDF>
 </metadata>
 <defs>
  <style type="text/css">*{stroke-linejoin: round; stroke-linecap: butt}</style>
 </defs>
 <g id="figure_1">
  <g id="patch_1">
   <path d="M 0 280.518281 
L 496.8 280.518281 
L 496.8 0 
L 0 0 
z
" style="fill: #ffffff"/>
  </g>
  <g id="axes_1">
   <g id="patch_2">
    <path d="M 25.2 208.04717 
L 32.4 208.04717 
L 32.4 201.099795 
L 25.2 201.099795 
z
" clip-path="url(#p3596ea7c4f)" style="fill: #1f77b4; opacity: 0.7; stroke: #ffffff; stroke-width: 0.5; stroke-linejoin: miter"/>
   </g>
   <g id="patch_3">
    <path d="M 33.84 208.04717 
L 41.04 208.04717 
L 41.04 209.981027 
L 33.84 209.981027 
z
" clip-path="url(#p3596ea7c4f)" style="fill: #d62728; opacity: 0.7; stroke: #ffffff; stroke-width: 0.5; stroke-linejoin: miter"/>
   </g>
   <g id="patch_4">
    <path d="M 42.48 208.04717 
L 49.68 208.04717 
L 49.68 198.988166 
L 42.48 198.988166 
z
" clip-path="url(#p3596ea7c4f)" style="fill: #1f77b4; opacity: 0.7; stroke: #ffffff; stroke-width: 0.5; stroke-linejoin: miter"/>
   </g>
   <g id="patch_5">
    <path d="M 51.12 208.04717 
L 58.32 208.04717 
L 58.32 186.745059 
L 51.12 186.745059 
z
" clip-path="url(#p3596ea7c4f)" style="fill: #1f77b4; opacity: 0.7; stroke: #ffffff; stroke-width: 0.5; stroke-linejoin: miter"/>
   </g>
   <g id="patch_6">
    <path d="M 75.6 208.04717 
L 82.8 208.04717 
L 82.8 211.322195 
L 75.6 211.322195 
z
" clip-path="url(#p3596ea7c4f)" style="fill: #d62728; opacity: 0.7; stroke: #ffffff; stroke-width: 0.5; stroke-linejoin: miter"/>
   </g>
   <g id="patch_7">
    <path d="M 84.24 208.04717 
L 91.44 208.04717 
L 91.44 211.321966 
L 84.24 211.321966 
z
" clip-path="url(#p3596ea7c4f)" style="fill: #d62728; opacity: 0.7; stroke: #ffffff; stroke-width: 0.5; stroke-linejoin: miter"/>
   </g>
   <g id="patch_8">
    <path d="M 92.88 208.04717 
L 100.08 208.04717 
L 100.08 185.959247 
L 92.88 185.959247 
z
" clip-path="url(#p3596ea7c4f)" style="fill: #1f77b4; opacity: 0.7; stroke: #ffffff; stroke-width: 0.5; stroke-linejoin: miter"/>
   </g>
   <g id="patch_9">
    <path d="M 101.52 208.04717 
L 108.72 208.04717 
L 108.72 197.313316 
L 101.52 197.313316 
z
" clip-path="url(#p3596ea7c4f)" style="fill: #1f77b4; opacity: 0.7; stroke: #ffffff; stroke-width: 0.5; stroke-linejoin: miter"/>
   </g>
   <g id="patch_10">
    <path d="M 126 208.04717 
L 133.2 208.04717 
L 133.2 214.613552 
L 126 214.613552 
z
" clip-path="url(#p3596ea7c4f)" style="fill: #d62728; opacity: 0.7; stroke: #ffffff; stroke-width: 0.5; stroke-linejoin: miter"/>
   </g>
   <g id="patch_11">
    <path d="M 134.64 208.04717 
L 141.84 208.04717 
L 141.84 200.458564 
L 134.64 200.458564 
z
" clip-path="url(#p3596ea7c4f)" style="fill: #1f77b4; opacity: 0.7; stroke: #ffffff; stroke-width: 0.5; stroke-linejoin: miter"/>
   </g>
   <g id="patch_12">
    <path d="M 143.28 208.04717 
L 150.48 208.04717 
L 150.48 214.528839 
L 143.28 214.528839 
z
" clip-path="url(#p3596ea7c4f)" style="fill: #d62728; opacity: 0.7; stroke: #ffffff; stroke-width: 0.5; stroke-linejoin: miter"/>
   </g>
   <g id="patch_13">
    <path d="M 151.92 208.04717 
L 159.12 208.04717 
L 159.12 214.561177 
L 151.92 214.561177 
z
" clip-path="url(#p3596ea7c4f)" style="fill: #d62728; opacity: 0.7; stroke: #ffffff; stroke-width: 0.5; stroke-linejoin: miter"/>
   </g>
   <g id="patch_14">
    <path d="M 176.4 208.04717 
L 183.6 208.04717 
L 183.6 204.662925 
L 176.4 204.662925 
z
" clip-path="url(#p3596ea7c4f)" style="fill: #1f77b4; opacity: 0.7; stroke: #ffffff; stroke-width: 0.5; stroke-linejoin: miter"/>
   </g>
   <g id="patch_15">
    <path d="M 185.04 208.04717 
L 192.24 208.04717 
L 192.24 234.807583 
L 185.04 234.807583 
z
" clip-path="url(#p3596ea7c4f)" style="fill: #d62728; opacity: 0.7; stroke: #ffffff; stroke-width: 0.5; stroke-linejoin: miter"/>
   </g>
   <g id="patch_16">
    <path d="M 193.68 208.04717 
L 200.88 208.04717 
L 200.88 232.173021 
L 193.68 232.173021 
z
" clip-path="url(#p3596ea7c4f)" style="fill: #d62728; opacity: 0.7; stroke: #ffffff; stroke-width: 0.5; stroke-linejoin: miter"/>
   </g>
   <g id="patch_17">
    <path d="M 202.32 208.04717 
L 209.52 208.04717 
L 209.52 215.911698 
L 202.32 215.911698 
z
" clip-path="url(#p3596ea7c4f)" style="fill: #d62728; opacity: 0.7; stroke: #ffffff; stroke-width: 0.5; stroke-linejoin: miter"/>
   </g>
   <g id="patch_18">
    <path d="M 226.8 208.04717 
L 234 208.04717 
L 234 222.213301 
L 226.8 222.213301 
z
" clip-path="url(#p3596ea7c4f)" style="fill: #d62728; opacity: 0.7; stroke: #ffffff; stroke-width: 0.5; stroke-linejoin: miter"/>
   </g>
   <g id="patch_19">
    <path d="M 235.44 208.04717 
L 242.64 208.04717 
L 242.64 203.651897 
L 235.44 203.651897 
z
" clip-path="url(#p3596ea7c4f)" style="fill: #1f77b4; opacity: 0.7; stroke: #ffffff; stroke-width: 0.5; stroke-linejoin: miter"/>
   </g>
   <g id="patch_20">
    <path d="M 244.08 208.04717 
L 251.28 208.04717 
L 251.28 220.7474 
L 244.08 220.7474 
z
" clip-path="url(#p3596ea7c4f)" style="fill: #d62728; opacity: 0.7; stroke: #ffffff; stroke-width: 0.5; stroke-linejoin: miter"/>
   </g>
   <g id="patch_21">
    <path d="M 252.72 208.04717 
L 259.92 208.04717 
L 259.92 227.800591 
L 252.72 227.800591 
z
" clip-path="url(#p3596ea7c4f)" style="fill: #d62728; opacity: 0.7; stroke: #ffffff; stroke-width: 0.5; stroke-linejoin: miter"/>
   </g>
   <g id="patch_22">
    <path d="M 277.2 208.04717 
L 284.4 208.04717 
L 284.4 187.547629 
L 277.2 187.547629 
z
" clip-path="url(#p3596ea7c4f)" style="fill: #1f77b4; opacity: 0.7; stroke: #ffffff; stroke-width: 0.5; stroke-linejoin: miter"/>
   </g>
   <g id="patch_23">
    <path d="M 285.84 208.04717 
L 293.04 208.04717 
L 293.04 211.205028 
L 285.84 211.205028 
z
" clip-path="url(#p3596ea7c4f)" style="fill: #d62728; opacity: 0.7; stroke: #ffffff; stroke-width: 0.5; stroke-linejoin: miter"/>
   </g>
   <g id="patch_24">
    <path d="M 294.48 208.04717 
L 301.68 208.04717 
L 301.68 207.102676 
L 294.48 207.102676 
z
" clip-path="url(#p3596ea7c4f)" style="fill: #1f77b4; opacity: 0.7; stroke: #ffffff; stroke-width: 0.5; stroke-linejoin: miter"/>
   </g>
   <g id="patch_25">
    <path d="M 303.12 208.04717 
L 310.32 208.04717 
L 310.32 227.974648 
L 303.12 227.974648 
z
" clip-path="url(#p3596ea7c4f)" style="fill: #d62728; opacity: 0.7; stroke: #ffffff; stroke-width: 0.5; stroke-linejoin: miter"/>
   </g>
   <g id="patch_26">
    <path d="M 327.6 208.04717 
L 334.8 208.04717 
L 334.8 215.66127 
L 327.6 215.66127 
z
" clip-path="url(#p3596ea7c4f)" style="fill: #d62728; opacity: 0.7; stroke: #ffffff; stroke-width: 0.5; stroke-linejoin: miter"/>
   </g>
   <g id="patch_27">
    <path d="M 336.24 208.04717 
L 343.44 208.04717 
L 343.44 206.495733 
L 336.24 206.495733 
z
" clip-path="url(#p3596ea7c4f)" style="fill: #1f77b4; opacity: 0.7; stroke: #ffffff; stroke-width: 0.5; stroke-linejoin: miter"/>
   </g>
   <g id="patch_28">
    <path d="M 344.88 208.04717 
L 352.08 208.04717 
L 352.08 224.145734 
L 344.88 224.145734 
z
" clip-path="url(#p3596ea7c4f)" style="fill: #d62728; opacity: 0.7; stroke: #ffffff; stroke-width: 0.5; stroke-linejoin: miter"/>
   </g>
   <g id="patch_29">
    <path d="M 353.52 208.04717 
L 360.72 208.04717 
L 360.72 202.792407 
L 353.52 202.792407 
z
" clip-path="url(#p3596ea7c4f)" style="fill: #1f77b4; opacity: 0.7; stroke: #ffffff; stroke-width: 0.5; stroke-linejoin: miter"/>
   </g>
   <g id="patch_30">
    <path d="M 378 208.04717 
L 385.2 208.04717 
L 385.2 216.448103 
L 378 216.448103 
z
" clip-path="url(#p3596ea7c4f)" style="fill: #d62728; opacity: 0.7; stroke: #ffffff; stroke-width: 0.5; stroke-linejoin: miter"/>
   </g>
   <g id="patch_31">
    <path d="M 386.64 208.04717 
L 393.84 208.04717 
L 393.84 212.126993 
L 386.64 212.126993 
z
" clip-path="url(#p3596ea7c4f)" style="fill: #d62728; opacity: 0.7; stroke: #ffffff; stroke-width: 0.5; stroke-linejoin: miter"/>
   </g>
   <g id="patch_32">
    <path d="M 395.28 208.04717 
L 402.48 208.04717 
L 402.48 216.46304 
L 395.28 216.46304 
z
" clip-path="url(#p3596ea7c4f)" style="fill: #d62728; opacity: 0.7; stroke: #ffffff; stroke-width: 0.5; stroke-linejoin: miter"/>
   </g>
   <g id="patch_33">
    <path d="M 403.92 208.04717 
L 411.12 208.04717 
L 411.12 182.139973 
L 403.92 182.139973 
z
" clip-path="url(#p3596ea7c4f)" style="fill: #1f77b4; opacity: 0.7; stroke: #ffffff; stroke-width: 0.5; stroke-linejoin: miter"/>
   </g>
   <g id="line2d_1">
    <path d="M 31.32 208.04717 
L 465.48 208.04717 
" clip-path="url(#p3596ea7c4f)" style="fill: none; stroke: #cccccc; stroke-width: 0.5; stroke-linecap: square"/>
   </g>
   <g id="text_1">
    <g id="patch_34">
     <path d="M 41.382656 77.055191 
L 52.217344 77.055191 
Q 54.317344 77.055191 54.317344 74.955191 
L 54.317344 61.405816 
Q 54.317344 59.305816 52.217344 59.305816 
L 41.382656 59.305816 
Q 39.282656 59.305816 39.282656 61.405816 
L 39.282656 74.955191 
Q 39.282656 77.055191 41.382656 77.055191 
z
" style="fill: #ffffff; stroke: #2ca02c; stroke-width: 1.5; stroke-linejoin: miter"/>
    </g>
    <!-- A -->
    <g style="fill: #2ca02c" transform="translate(41.382656 72.043628) scale(0.14 -0.14)">
     <defs>
      <path id="DejaVuSans-Bold-41" d="M 3419 850 
L 1538 850 
L 1241 0 
L 31 0 
L 1759 4666 
L 3194 4666 
L 4922 0 
L 3713 0 
L 3419 850 
z
M 1838 1716 
L 3116 1716 
L 2478 3572 
L 1838 1716 
z
" transform="scale(0.015625)"/>
     </defs>
     <use xlink:href="#DejaVuSans-Bold-41"/>
    </g>
   </g>
   <g id="text_2">
    <g id="patch_35">
     <path d="M 92.424687 77.055191 
L 101.975312 77.055191 
Q 104.075312 77.055191 104.075312 74.955191 
L 104.075312 61.405816 
Q 104.075312 59.305816 101.975312 59.305816 
L 92.424687 59.305816 
Q 90.324687 59.305816 90.324687 61.405816 
L 90.324687 74.955191 
Q 90.324687 77.055191 92.424687 77.055191 
z
" style="fill: #ffffff; stroke: #d62728; stroke-width: 1.5; stroke-linejoin: miter"/>
    </g>
    <!-- T -->
    <g style="fill: #d62728" transform="translate(92.424687 72.043628) scale(0.14 -0.14)">
     <defs>
      <path id="DejaVuSans-Bold-54" d="M 31 4666 
L 4331 4666 
L 4331 3756 
L 2784 3756 
L 2784 0 
L 1581 0 
L 1581 3756 
L 31 3756 
L 31 4666 
z
" transform="scale(0.015625)"/>
     </defs>
     <use xlink:href="#DejaVuSans-Bold-54"/>
    </g>
   </g>
   <g id="text_3">
    <g id="patch_36">
     <path d="M 142.462656 77.055191 
L 152.737344 77.055191 
Q 154.837344 77.055191 154.837344 74.955191 
L 154.837344 61.405816 
Q 154.837344 59.305816 152.737344 59.305816 
L 142.462656 59.305816 
Q 140.362656 59.305816 140.362656 61.405816 
L 140.362656 74.955191 
Q 140.362656 77.055191 142.462656 77.055191 
z
" style="fill: #ffffff; stroke: #1f77b4; stroke-width: 1.5; stroke-linejoin: miter"/>
    </g>
    <!-- C -->
    <g style="fill: #1f77b4" transform="translate(142.462656 72.043628) scale(0.14 -0.14)">
     <defs>
      <path id="DejaVuSans-Bold-43" d="M 4288 256 
Q 3956 84 3597 -3 
Q 3238 -91 2847 -91 
Q 1681 -91 1000 561 
Q 319 1213 319 2328 
Q 319 3447 1000 4098 
Q 1681 4750 2847 4750 
Q 3238 4750 3597 4662 
Q 3956 4575 4288 4403 
L 4288 3438 
Q 3953 3666 3628 3772 
Q 3303 3878 2944 3878 
Q 2300 3878 1931 3465 
Q 1563 3053 1563 2328 
Q 1563 1606 1931 1193 
Q 2300 781 2944 781 
Q 3303 781 3628 887 
Q 3953 994 4288 1222 
L 4288 256 
z
" transform="scale(0.015625)"/>
     </defs>
     <use xlink:href="#DejaVuSans-Bold-43"/>
    </g>
   </g>
   <g id="text_4">
    <g id="patch_37">
     <path d="M 192.254531 77.055191 
L 203.745469 77.055191 
Q 205.845469 77.055191 205.845469 74.955191 
L 205.845469 61.405816 
Q 205.845469 59.305816 203.745469 59.305816 
L 192.254531 59.305816 
Q 190.154531 59.305816 190.154531 61.405816 
L 190.154531 74.955191 
Q 190.154531 77.055191 192.254531 77.055191 
z
" style="fill: #ffffff; stroke: #ff7f0e; stroke-width: 1.5; stroke-linejoin: miter"/>
    </g>
    <!-- G -->
    <g style="fill: #ff7f0e" transform="translate(192.254531 72.043628) scale(0.14 -0.14)">
     <defs>
      <path id="DejaVuSans-Bold-47" d="M 4781 347 
Q 4331 128 3847 18 
Q 3363 -91 2847 -91 
Q 1681 -91 1000 561 
Q 319 1213 319 2328 
Q 319 3456 1012 4103 
Q 1706 4750 2913 4750 
Q 3378 4750 3804 4662 
Q 4231 4575 4609 4403 
L 4609 3438 
Q 4219 3659 3833 3768 
Q 3447 3878 3059 3878 
Q 2341 3878 1952 3476 
Q 1563 3075 1563 2328 
Q 1563 1588 1938 1184 
Q 2313 781 3003 781 
Q 3191 781 3352 804 
Q 3513 828 3641 878 
L 3641 1784 
L 2906 1784 
L 2906 2591 
L 4781 2591 
L 4781 347 
z
" transform="scale(0.015625)"/>
     </defs>
     <use xlink:href="#DejaVuSans-Bold-47"/>
    </g>
   </g>
   <g id="text_5">
    <g id="patch_38">
     <path d="M 242.982656 77.055191 
L 253.817344 77.055191 
Q 255.917344 77.055191 255.917344 74.955191 
L 255.917344 61.405816 
Q 255.917344 59.305816 253.817344 59.305816 
L 242.982656 59.305816 
Q 240.882656 59.305816 240.882656 61.405816 
L 240.882656 74.955191 
Q 240.882656 77.055191 242.982656 77.055191 
z
" style="fill: #ffffff; stroke: #2ca02c; stroke-width: 1.5; stroke-linejoin: miter"/>
    </g>
    <!-- A -->
    <g style="fill: #2ca02c" transform="translate(242.982656 72.043628) scale(0.14 -0.14)">
     <use xlink:href="#DejaVuSans-Bold-41"/>
    </g>
   </g>
   <g id="text_6">
    <g id="patch_39">
     <path d="M 294.024687 77.055191 
L 303.575312 77.055191 
Q 305.675312 77.055191 305.675312 74.955191 
L 305.675312 61.405816 
Q 305.675312 59.305816 303.575312 59.305816 
L 294.024687 59.305816 
Q 291.924687 59.305816 291.924687 61.405816 
L 291.924687 74.955191 
Q 291.924687 77.055191 294.024687 77.055191 
z
" style="fill: #ffffff; stroke: #d62728; stroke-width: 1.5; stroke-linejoin: miter"/>
    </g>
    <!-- T -->
    <g style="fill: #d62728" transform="translate(294.024687 72.043628) scale(0.14 -0.14)">
     <use xlink:href="#DejaVuSans-Bold-54"/>
    </g>
   </g>
   <g id="text_7">
    <g id="patch_40">
     <path d="M 344.062656 77.055191 
L 354.337344 77.055191 
Q 356.437344 77.055191 356.437344 74.955191 
L 356.437344 61.405816 
Q 356.437344 59.305816 354.337344 59.305816 
L 344.062656 59.305816 
Q 341.962656 59.305816 341.962656 61.405816 
L 341.962656 74.955191 
Q 341.962656 77.055191 344.062656 77.055191 
z
" style="fill: #ffffff; stroke: #1f77b4; stroke-width: 1.5; stroke-linejoin: miter"/>
    </g>
    <!-- C -->
    <g style="fill: #1f77b4" transform="translate(344.062656 72.043628) scale(0.14 -0.14)">
     <use xlink:href="#DejaVuSans-Bold-43"/>
    </g>
   </g>
   <g id="text_8">
    <g id="patch_41">
     <path d="M 393.854531 77.055191 
L 405.345469 77.055191 
Q 407.445469 77.055191 407.445469 74.955191 
L 407.445469 61.405816 
Q 407.445469 59.305816 405.345469 59.305816 
L 393.854531 59.305816 
Q 391.754531 59.305816 391.754531 61.405816 
L 391.754531 74.955191 
Q 391.754531 77.055191 393.854531 77.055191 
z
" style="fill: #ffffff; stroke: #ff7f0e; stroke-width: 1.5; stroke-linejoin: miter"/>
    </g>
    <!-- G -->
    <g style="fill: #ff7f0e" transform="translate(393.854531 72.043628) scale(0.14 -0.14)">
     <use xlink:href="#DejaVuSans-Bold-47"/>
    </g>
   </g>
   <g id="patch_42">
    <path d="M 252 98.152582 
Q 252 114.800264 252 129.770895 
" style="fill: none; stroke: #555555; stroke-width: 1.5; stroke-linecap: round"/>
    <path d="M 254 125.770895 
L 252 129.770895 
L 250 125.770895 
" style="fill: none; stroke: #555555; stroke-width: 1.5; stroke-linecap: round"/>
   </g>
   <g id="text_9">
    <!-- Embedding -->
    <g transform="translate(229.31125 112.531101) scale(0.08 -0.08)">
     <defs>
      <path id="DejaVuSans-45" d="M 628 4666 
L 3578 4666 
L 3578 4134 
L 1259 4134 
L 1259 2753 
L 3481 2753 
L 3481 2222 
L 1259 2222 
L 1259 531 
L 3634 531 
L 3634 0 
L 628 0 
L 628 4666 
z
" transform="scale(0.015625)"/>
      <path id="DejaVuSans-6d" d="M 3328 2828 
Q 3544 3216 3844 3400 
Q 4144 3584 4550 3584 
Q 5097 3584 5394 3201 
Q 5691 2819 5691 2113 
L 5691 0 
L 5113 0 
L 5113 2094 
Q 5113 2597 4934 2840 
Q 4756 3084 4391 3084 
Q 3944 3084 3684 2787 
Q 3425 2491 3425 1978 
L 3425 0 
L 2847 0 
L 2847 2094 
Q 2847 2600 2669 2842 
Q 2491 3084 2119 3084 
Q 1678 3084 1418 2786 
Q 1159 2488 1159 1978 
L 1159 0 
L 581 0 
L 581 3500 
L 1159 3500 
L 1159 2956 
Q 1356 3278 1631 3431 
Q 1906 3584 2284 3584 
Q 2666 3584 2933 3390 
Q 3200 3197 3328 2828 
z
" transform="scale(0.015625)"/>
      <path id="DejaVuSans-62" d="M 3116 1747 
Q 3116 2381 2855 2742 
Q 2594 3103 2138 3103 
Q 1681 3103 1420 2742 
Q 1159 2381 1159 1747 
Q 1159 1113 1420 752 
Q 1681 391 2138 391 
Q 2594 391 2855 752 
Q 3116 1113 3116 1747 
z
M 1159 2969 
Q 1341 3281 1617 3432 
Q 1894 3584 2278 3584 
Q 2916 3584 3314 3078 
Q 3713 2572 3713 1747 
Q 3713 922 3314 415 
Q 2916 -91 2278 -91 
Q 1894 -91 1617 61 
Q 1341 213 1159 525 
L 1159 0 
L 581 0 
L 581 4863 
L 1159 4863 
L 1159 2969 
z
" transform="scale(0.015625)"/>
      <path id="DejaVuSans-65" d="M 3597 1894 
L 3597 1613 
L 953 1613 
Q 991 1019 1311 708 
Q 1631 397 2203 397 
Q 2534 397 2845 478 
Q 3156 559 3463 722 
L 3463 178 
Q 3153 47 2828 -22 
Q 2503 -91 2169 -91 
Q 1331 -91 842 396 
Q 353 884 353 1716 
Q 353 2575 817 3079 
Q 1281 3584 2069 3584 
Q 2775 3584 3186 3129 
Q 3597 2675 3597 1894 
z
M 3022 2063 
Q 3016 2534 2758 2815 
Q 2500 3097 2075 3097 
Q 1594 3097 1305 2825 
Q 1016 2553 972 2059 
L 3022 2063 
z
" transform="scale(0.015625)"/>
      <path id="DejaVuSans-64" d="M 2906 2969 
L 2906 4863 
L 3481 4863 
L 3481 0 
L 2906 0 
L 2906 525 
Q 2725 213 2448 61 
Q 2172 -91 1784 -91 
Q 1150 -91 751 415 
Q 353 922 353 1747 
Q 353 2572 751 3078 
Q 1150 3584 1784 3584 
Q 2172 3584 2448 3432 
Q 2725 3281 2906 2969 
z
M 947 1747 
Q 947 1113 1208 752 
Q 1469 391 1925 391 
Q 2381 391 2643 752 
Q 2906 1113 2906 1747 
Q 2906 2381 2643 2742 
Q 2381 3103 1925 3103 
Q 1469 3103 1208 2742 
Q 947 2381 947 1747 
z
" transform="scale(0.015625)"/>
      <path id="DejaVuSans-69" d="M 603 3500 
L 1178 3500 
L 1178 0 
L 603 0 
L 603 3500 
z
M 603 4863 
L 1178 4863 
L 1178 4134 
L 603 4134 
L 603 4863 
z
" transform="scale(0.015625)"/>
      <path id="DejaVuSans-6e" d="M 3513 2113 
L 3513 0 
L 2938 0 
L 2938 2094 
Q 2938 2591 2744 2837 
Q 2550 3084 2163 3084 
Q 1697 3084 1428 2787 
Q 1159 2491 1159 1978 
L 1159 0 
L 581 0 
L 581 3500 
L 1159 3500 
L 1159 2956 
Q 1366 3272 1645 3428 
Q 1925 3584 2291 3584 
Q 2894 3584 3203 3211 
Q 3513 2838 3513 2113 
z
" transform="scale(0.015625)"/>
      <path id="DejaVuSans-67" d="M 2906 1791 
Q 2906 2416 2648 2759 
Q 2391 3103 1925 3103 
Q 1463 3103 1205 2759 
Q 947 2416 947 1791 
Q 947 1169 1205 825 
Q 1463 481 1925 481 
Q 2391 481 2648 825 
Q 2906 1169 2906 1791 
z
M 3481 434 
Q 3481 -459 3084 -895 
Q 2688 -1331 1869 -1331 
Q 1566 -1331 1297 -1286 
Q 1028 -1241 775 -1147 
L 775 -588 
Q 1028 -725 1275 -790 
Q 1522 -856 1778 -856 
Q 2344 -856 2625 -561 
Q 2906 -266 2906 331 
L 2906 616 
Q 2728 306 2450 153 
Q 2172 0 1784 0 
Q 1141 0 747 490 
Q 353 981 353 1791 
Q 353 2603 747 3093 
Q 1141 3584 1784 3584 
Q 2172 3584 2450 3431 
Q 2728 3278 2906 2969 
L 2906 3500 
L 3481 3500 
L 3481 434 
z
" transform="scale(0.015625)"/>
     </defs>
     <use xlink:href="#DejaVuSans-45"/>
     <use xlink:href="#DejaVuSans-6d" transform="translate(63.183594 0)"/>
     <use xlink:href="#DejaVuSans-62" transform="translate(160.595703 0)"/>
     <use xlink:href="#DejaVuSans-65" transform="translate(224.072266 0)"/>
     <use xlink:href="#DejaVuSans-64" transform="translate(285.595703 0)"/>
     <use xlink:href="#DejaVuSans-64" transform="translate(349.072266 0)"/>
     <use xlink:href="#DejaVuSans-69" transform="translate(412.548828 0)"/>
     <use xlink:href="#DejaVuSans-6e" transform="translate(440.332031 0)"/>
     <use xlink:href="#DejaVuSans-67" transform="translate(503.710938 0)"/>
    </g>
    <!-- Lookup -->
    <g transform="translate(237.680625 121.489351) scale(0.08 -0.08)">
     <defs>
      <path id="DejaVuSans-4c" d="M 628 4666 
L 1259 4666 
L 1259 531 
L 3531 531 
L 3531 0 
L 628 0 
L 628 4666 
z
" transform="scale(0.015625)"/>
      <path id="DejaVuSans-6f" d="M 1959 3097 
Q 1497 3097 1228 2736 
Q 959 2375 959 1747 
Q 959 1119 1226 758 
Q 1494 397 1959 397 
Q 2419 397 2687 759 
Q 2956 1122 2956 1747 
Q 2956 2369 2687 2733 
Q 2419 3097 1959 3097 
z
M 1959 3584 
Q 2709 3584 3137 3096 
Q 3566 2609 3566 1747 
Q 3566 888 3137 398 
Q 2709 -91 1959 -91 
Q 1206 -91 779 398 
Q 353 888 353 1747 
Q 353 2609 779 3096 
Q 1206 3584 1959 3584 
z
" transform="scale(0.015625)"/>
      <path id="DejaVuSans-6b" d="M 581 4863 
L 1159 4863 
L 1159 1991 
L 2875 3500 
L 3609 3500 
L 1753 1863 
L 3688 0 
L 2938 0 
L 1159 1709 
L 1159 0 
L 581 0 
L 581 4863 
z
" transform="scale(0.015625)"/>
      <path id="DejaVuSans-75" d="M 544 1381 
L 544 3500 
L 1119 3500 
L 1119 1403 
Q 1119 906 1312 657 
Q 1506 409 1894 409 
Q 2359 409 2629 706 
Q 2900 1003 2900 1516 
L 2900 3500 
L 3475 3500 
L 3475 0 
L 2900 0 
L 2900 538 
Q 2691 219 2414 64 
Q 2138 -91 1772 -91 
Q 1169 -91 856 284 
Q 544 659 544 1381 
z
M 1991 3584 
L 1991 3584 
z
" transform="scale(0.015625)"/>
      <path id="DejaVuSans-70" d="M 1159 525 
L 1159 -1331 
L 581 -1331 
L 581 3500 
L 1159 3500 
L 1159 2969 
Q 1341 3281 1617 3432 
Q 1894 3584 2278 3584 
Q 2916 3584 3314 3078 
Q 3713 2572 3713 1747 
Q 3713 922 3314 415 
Q 2916 -91 2278 -91 
Q 1894 -91 1617 61 
Q 1341 213 1159 525 
z
M 3116 1747 
Q 3116 2381 2855 2742 
Q 2594 3103 2138 3103 
Q 1681 3103 1420 2742 
Q 1159 2381 1159 1747 
Q 1159 1113 1420 752 
Q 1681 391 2138 391 
Q 2594 391 2855 752 
Q 3116 1113 3116 1747 
z
" transform="scale(0.015625)"/>
     </defs>
     <use xlink:href="#DejaVuSans-4c"/>
     <use xlink:href="#DejaVuSans-6f" transform="translate(53.962891 0)"/>
     <use xlink:href="#DejaVuSans-6f" transform="translate(115.144531 0)"/>
     <use xlink:href="#DejaVuSans-6b" transform="translate(176.326172 0)"/>
     <use xlink:href="#DejaVuSans-75" transform="translate(231.111328 0)"/>
     <use xlink:href="#DejaVuSans-70" transform="translate(294.490234 0)"/>
    </g>
   </g>
   <g id="text_10">
    <!-- Each nucleotide → d-dimensional learned vector -->
    <g transform="translate(143.383359 254.669392) scale(0.09 -0.09)">
     <defs>
      <path id="DejaVuSans-Oblique-45" d="M 1081 4666 
L 4031 4666 
L 3928 4134 
L 1606 4134 
L 1338 2753 
L 3566 2753 
L 3463 2222 
L 1234 2222 
L 909 531 
L 3284 531 
L 3181 0 
L 172 0 
L 1081 4666 
z
" transform="scale(0.015625)"/>
      <path id="DejaVuSans-Oblique-61" d="M 3438 1997 
L 3047 0 
L 2472 0 
L 2578 531 
Q 2325 219 2001 64 
Q 1678 -91 1281 -91 
Q 834 -91 548 182 
Q 263 456 263 884 
Q 263 1497 752 1853 
Q 1241 2209 2100 2209 
L 2900 2209 
L 2931 2363 
Q 2938 2388 2941 2417 
Q 2944 2447 2944 2509 
Q 2944 2788 2717 2942 
Q 2491 3097 2081 3097 
Q 1800 3097 1504 3025 
Q 1209 2953 897 2809 
L 997 3341 
Q 1322 3463 1633 3523 
Q 1944 3584 2234 3584 
Q 2853 3584 3176 3315 
Q 3500 3047 3500 2534 
Q 3500 2431 3484 2292 
Q 3469 2153 3438 1997 
z
M 2816 1759 
L 2241 1759 
Q 1534 1759 1195 1570 
Q 856 1381 856 984 
Q 856 709 1029 553 
Q 1203 397 1509 397 
Q 1978 397 2328 733 
Q 2678 1069 2791 1631 
L 2816 1759 
z
" transform="scale(0.015625)"/>
      <path id="DejaVuSans-Oblique-63" d="M 3431 3366 
L 3316 2797 
Q 3109 2947 2876 3022 
Q 2644 3097 2394 3097 
Q 2119 3097 1870 3000 
Q 1622 2903 1453 2725 
Q 1184 2453 1037 2087 
Q 891 1722 891 1331 
Q 891 859 1127 628 
Q 1363 397 1844 397 
Q 2081 397 2348 469 
Q 2616 541 2906 684 
L 2797 116 
Q 2547 13 2283 -39 
Q 2019 -91 1741 -91 
Q 1044 -91 669 257 
Q 294 606 294 1253 
Q 294 1797 489 2255 
Q 684 2713 1069 3078 
Q 1331 3328 1684 3456 
Q 2038 3584 2456 3584 
Q 2700 3584 2940 3529 
Q 3181 3475 3431 3366 
z
" transform="scale(0.015625)"/>
      <path id="DejaVuSans-Oblique-68" d="M 3566 2113 
L 3156 0 
L 2578 0 
L 2988 2091 
Q 3016 2238 3031 2350 
Q 3047 2463 3047 2528 
Q 3047 2791 2881 2937 
Q 2716 3084 2419 3084 
Q 1956 3084 1617 2771 
Q 1278 2459 1178 1941 
L 800 0 
L 225 0 
L 1172 4863 
L 1747 4863 
L 1375 2950 
Q 1594 3244 1934 3414 
Q 2275 3584 2650 3584 
Q 3113 3584 3367 3334 
Q 3622 3084 3622 2631 
Q 3622 2519 3608 2391 
Q 3594 2263 3566 2113 
z
" transform="scale(0.015625)"/>
      <path id="DejaVuSans-Oblique-20" transform="scale(0.015625)"/>
      <path id="DejaVuSans-Oblique-6e" d="M 3566 2113 
L 3156 0 
L 2578 0 
L 2988 2091 
Q 3016 2238 3031 2350 
Q 3047 2463 3047 2528 
Q 3047 2791 2881 2937 
Q 2716 3084 2419 3084 
Q 1956 3084 1622 2776 
Q 1288 2469 1184 1941 
L 800 0 
L 225 0 
L 903 3500 
L 1478 3500 
L 1363 2950 
Q 1603 3253 1940 3418 
Q 2278 3584 2650 3584 
Q 3113 3584 3367 3334 
Q 3622 3084 3622 2631 
Q 3622 2519 3608 2391 
Q 3594 2263 3566 2113 
z
" transform="scale(0.015625)"/>
      <path id="DejaVuSans-Oblique-75" d="M 428 1388 
L 838 3500 
L 1416 3500 
L 1006 1409 
Q 975 1256 961 1147 
Q 947 1038 947 966 
Q 947 700 1109 554 
Q 1272 409 1569 409 
Q 2031 409 2368 721 
Q 2706 1034 2809 1563 
L 3194 3500 
L 3769 3500 
L 3091 0 
L 2516 0 
L 2631 550 
Q 2388 244 2052 76 
Q 1716 -91 1338 -91 
Q 878 -91 622 161 
Q 366 413 366 863 
Q 366 956 381 1097 
Q 397 1238 428 1388 
z
" transform="scale(0.015625)"/>
      <path id="DejaVuSans-Oblique-6c" d="M 1172 4863 
L 1747 4863 
L 800 0 
L 225 0 
L 1172 4863 
z
" transform="scale(0.015625)"/>
      <path id="DejaVuSans-Oblique-65" d="M 3078 2063 
Q 3088 2113 3092 2166 
Q 3097 2219 3097 2272 
Q 3097 2653 2873 2875 
Q 2650 3097 2266 3097 
Q 1838 3097 1509 2826 
Q 1181 2556 1013 2059 
L 3078 2063 
z
M 3578 1613 
L 903 1613 
Q 884 1494 878 1425 
Q 872 1356 872 1306 
Q 872 872 1139 634 
Q 1406 397 1894 397 
Q 2269 397 2603 481 
Q 2938 566 3225 728 
L 3116 159 
Q 2806 34 2476 -28 
Q 2147 -91 1806 -91 
Q 1078 -91 686 257 
Q 294 606 294 1247 
Q 294 1794 489 2264 
Q 684 2734 1063 3103 
Q 1306 3334 1642 3459 
Q 1978 3584 2356 3584 
Q 2950 3584 3301 3228 
Q 3653 2872 3653 2272 
Q 3653 2128 3634 1964 
Q 3616 1800 3578 1613 
z
" transform="scale(0.015625)"/>
      <path id="DejaVuSans-Oblique-6f" d="M 1625 -91 
Q 1009 -91 651 289 
Q 294 669 294 1325 
Q 294 1706 417 2101 
Q 541 2497 738 2766 
Q 1047 3184 1428 3384 
Q 1809 3584 2291 3584 
Q 2888 3584 3255 3212 
Q 3622 2841 3622 2241 
Q 3622 1825 3500 1412 
Q 3378 1000 3181 728 
Q 2875 309 2494 109 
Q 2113 -91 1625 -91 
z
M 891 1344 
Q 891 869 1089 633 
Q 1288 397 1691 397 
Q 2269 397 2648 901 
Q 3028 1406 3028 2181 
Q 3028 2634 2825 2865 
Q 2622 3097 2228 3097 
Q 1903 3097 1650 2945 
Q 1397 2794 1197 2484 
Q 1050 2253 970 1956 
Q 891 1659 891 1344 
z
" transform="scale(0.015625)"/>
      <path id="DejaVuSans-Oblique-74" d="M 2706 3500 
L 2619 3053 
L 1472 3053 
L 1100 1153 
Q 1081 1047 1072 975 
Q 1063 903 1063 863 
Q 1063 663 1183 572 
Q 1303 481 1569 481 
L 2150 481 
L 2053 0 
L 1503 0 
Q 991 0 739 200 
Q 488 400 488 806 
Q 488 878 497 964 
Q 506 1050 525 1153 
L 897 3053 
L 409 3053 
L 500 3500 
L 978 3500 
L 1172 4494 
L 1747 4494 
L 1556 3500 
L 2706 3500 
z
" transform="scale(0.015625)"/>
      <path id="DejaVuSans-Oblique-69" d="M 1172 4863 
L 1747 4863 
L 1606 4134 
L 1031 4134 
L 1172 4863 
z
M 909 3500 
L 1484 3500 
L 800 0 
L 225 0 
L 909 3500 
z
" transform="scale(0.015625)"/>
      <path id="DejaVuSans-Oblique-64" d="M 2675 525 
Q 2444 222 2128 65 
Q 1813 -91 1428 -91 
Q 903 -91 598 267 
Q 294 625 294 1247 
Q 294 1766 478 2236 
Q 663 2706 1013 3078 
Q 1244 3325 1534 3454 
Q 1825 3584 2144 3584 
Q 2481 3584 2739 3421 
Q 2997 3259 3138 2956 
L 3513 4863 
L 4091 4863 
L 3144 0 
L 2566 0 
L 2675 525 
z
M 891 1350 
Q 891 897 1095 644 
Q 1300 391 1663 391 
Q 1931 391 2161 520 
Q 2391 650 2566 903 
Q 2750 1166 2856 1509 
Q 2963 1853 2963 2188 
Q 2963 2622 2758 2865 
Q 2553 3109 2194 3109 
Q 1922 3109 1687 2981 
Q 1453 2853 1288 2613 
Q 1106 2353 998 2009 
Q 891 1666 891 1350 
z
" transform="scale(0.015625)"/>
      <path id="DejaVuSans-Oblique-2192" d="M 5050 2147 
L 5050 1866 
L 3822 638 
L 3447 1013 
L 4175 1741 
L 366 1741 
L 366 2272 
L 4175 2272 
L 3447 3000 
L 3822 3375 
L 5050 2147 
z
" transform="scale(0.015625)"/>
      <path id="DejaVuSans-Oblique-2d" d="M 391 2009 
L 2075 2009 
L 1978 1497 
L 288 1497 
L 391 2009 
z
" transform="scale(0.015625)"/>
      <path id="DejaVuSans-Oblique-6d" d="M 5747 2113 
L 5338 0 
L 4763 0 
L 5166 2094 
Q 5191 2228 5203 2325 
Q 5216 2422 5216 2491 
Q 5216 2772 5059 2928 
Q 4903 3084 4622 3084 
Q 4203 3084 3875 2770 
Q 3547 2456 3450 1953 
L 3066 0 
L 2491 0 
L 2900 2094 
Q 2925 2209 2937 2307 
Q 2950 2406 2950 2484 
Q 2950 2769 2794 2926 
Q 2638 3084 2363 3084 
Q 1938 3084 1609 2770 
Q 1281 2456 1184 1953 
L 800 0 
L 225 0 
L 909 3500 
L 1484 3500 
L 1375 2956 
Q 1609 3263 1923 3423 
Q 2238 3584 2597 3584 
Q 2978 3584 3223 3384 
Q 3469 3184 3519 2828 
Q 3781 3197 4126 3390 
Q 4472 3584 4856 3584 
Q 5306 3584 5551 3325 
Q 5797 3066 5797 2591 
Q 5797 2488 5784 2364 
Q 5772 2241 5747 2113 
z
" transform="scale(0.015625)"/>
      <path id="DejaVuSans-Oblique-73" d="M 3200 3397 
L 3091 2853 
Q 2863 2978 2609 3040 
Q 2356 3103 2088 3103 
Q 1634 3103 1373 2948 
Q 1113 2794 1113 2528 
Q 1113 2219 1719 2053 
Q 1766 2041 1788 2034 
L 1972 1978 
Q 2547 1819 2739 1644 
Q 2931 1469 2931 1166 
Q 2931 609 2489 259 
Q 2047 -91 1331 -91 
Q 1053 -91 747 -37 
Q 441 16 72 128 
L 184 722 
Q 500 559 806 475 
Q 1113 391 1394 391 
Q 1816 391 2080 572 
Q 2344 753 2344 1031 
Q 2344 1331 1650 1516 
L 1591 1531 
L 1394 1581 
Q 956 1697 753 1886 
Q 550 2075 550 2369 
Q 550 2928 970 3256 
Q 1391 3584 2113 3584 
Q 2397 3584 2667 3537 
Q 2938 3491 3200 3397 
z
" transform="scale(0.015625)"/>
      <path id="DejaVuSans-Oblique-72" d="M 2853 2969 
Q 2766 3016 2653 3041 
Q 2541 3066 2413 3066 
Q 1953 3066 1609 2717 
Q 1266 2369 1153 1784 
L 800 0 
L 225 0 
L 909 3500 
L 1484 3500 
L 1375 2956 
Q 1603 3259 1920 3421 
Q 2238 3584 2597 3584 
Q 2691 3584 2781 3573 
Q 2872 3563 2963 3538 
L 2853 2969 
z
" transform="scale(0.015625)"/>
      <path id="DejaVuSans-Oblique-76" d="M 459 3500 
L 1069 3500 
L 1581 525 
L 3256 3500 
L 3866 3500 
L 1875 0 
L 1100 0 
L 459 3500 
z
" transform="scale(0.015625)"/>
     </defs>
     <use xlink:href="#DejaVuSans-Oblique-45"/>
     <use xlink:href="#DejaVuSans-Oblique-61" transform="translate(63.183594 0)"/>
     <use xlink:href="#DejaVuSans-Oblique-63" transform="translate(124.462891 0)"/>
     <use xlink:href="#DejaVuSans-Oblique-68" transform="translate(179.443359 0)"/>
     <use xlink:href="#DejaVuSans-Oblique-20" transform="translate(242.822266 0)"/>
     <use xlink:href="#DejaVuSans-Oblique-6e" transform="translate(274.609375 0)"/>
     <use xlink:href="#DejaVuSans-Oblique-75" transform="translate(337.988281 0)"/>
     <use xlink:href="#DejaVuSans-Oblique-63" transform="translate(401.367188 0)"/>
     <use xlink:href="#DejaVuSans-Oblique-6c" transform="translate(456.347656 0)"/>
     <use xlink:href="#DejaVuSans-Oblique-65" transform="translate(484.130859 0)"/>
     <use xlink:href="#DejaVuSans-Oblique-6f" transform="translate(545.654297 0)"/>
     <use xlink:href="#DejaVuSans-Oblique-74" transform="translate(606.835938 0)"/>
     <use xlink:href="#DejaVuSans-Oblique-69" transform="translate(646.044922 0)"/>
     <use xlink:href="#DejaVuSans-Oblique-64" transform="translate(673.828125 0)"/>
     <use xlink:href="#DejaVuSans-Oblique-65" transform="translate(737.304688 0)"/>
     <use xlink:href="#DejaVuSans-Oblique-20" transform="translate(798.828125 0)"/>
     <use xlink:href="#DejaVuSans-Oblique-2192" transform="translate(830.615234 0)"/>
     <use xlink:href="#DejaVuSans-Oblique-20" transform="translate(914.404297 0)"/>
     <use xlink:href="#DejaVuSans-Oblique-64" transform="translate(946.191406 0)"/>
     <use xlink:href="#DejaVuSans-Oblique-2d" transform="translate(1009.667969 0)"/>
     <use xlink:href="#DejaVuSans-Oblique-64" transform="translate(1045.751953 0)"/>
     <use xlink:href="#DejaVuSans-Oblique-69" transform="translate(1109.228516 0)"/>
     <use xlink:href="#DejaVuSans-Oblique-6d" transform="translate(1137.011719 0)"/>
     <use xlink:href="#DejaVuSans-Oblique-65" transform="translate(1234.423828 0)"/>
     <use xlink:href="#DejaVuSans-Oblique-6e" transform="translate(1295.947266 0)"/>
     <use xlink:href="#DejaVuSans-Oblique-73" transform="translate(1359.326172 0)"/>
     <use xlink:href="#DejaVuSans-Oblique-69" transform="translate(1411.425781 0)"/>
     <use xlink:href="#DejaVuSans-Oblique-6f" transform="translate(1439.208984 0)"/>
     <use xlink:href="#DejaVuSans-Oblique-6e" transform="translate(1500.390625 0)"/>
     <use xlink:href="#DejaVuSans-Oblique-61" transform="translate(1563.769531 0)"/>
     <use xlink:href="#DejaVuSans-Oblique-6c" transform="translate(1625.048828 0)"/>
     <use xlink:href="#DejaVuSans-Oblique-20" transform="translate(1652.832031 0)"/>
     <use xlink:href="#DejaVuSans-Oblique-6c" transform="translate(1684.619141 0)"/>
     <use xlink:href="#DejaVuSans-Oblique-65" transform="translate(1712.402344 0)"/>
     <use xlink:href="#DejaVuSans-Oblique-61" transform="translate(1773.925781 0)"/>
     <use xlink:href="#DejaVuSans-Oblique-72" transform="translate(1835.205078 0)"/>
     <use xlink:href="#DejaVuSans-Oblique-6e" transform="translate(1876.318359 0)"/>
     <use xlink:href="#DejaVuSans-Oblique-65" transform="translate(1939.697266 0)"/>
     <use xlink:href="#DejaVuSans-Oblique-64" transform="translate(2001.220703 0)"/>
     <use xlink:href="#DejaVuSans-Oblique-20" transform="translate(2064.697266 0)"/>
     <use xlink:href="#DejaVuSans-Oblique-76" transform="translate(2096.484375 0)"/>
     <use xlink:href="#DejaVuSans-Oblique-65" transform="translate(2155.664062 0)"/>
     <use xlink:href="#DejaVuSans-Oblique-63" transform="translate(2217.1875 0)"/>
     <use xlink:href="#DejaVuSans-Oblique-74" transform="translate(2272.167969 0)"/>
     <use xlink:href="#DejaVuSans-Oblique-6f" transform="translate(2311.376953 0)"/>
     <use xlink:href="#DejaVuSans-Oblique-72" transform="translate(2372.558594 0)"/>
    </g>
   </g>
   <g id="text_11">
    <!-- D. Single-Nucleotide with Learned Embeddings -->
    <g transform="translate(7.2 15.558281) scale(0.11 -0.11)">
     <defs>
      <path id="DejaVuSans-Bold-44" d="M 1791 3756 
L 1791 909 
L 2222 909 
Q 2959 909 3348 1275 
Q 3738 1641 3738 2338 
Q 3738 3031 3350 3393 
Q 2963 3756 2222 3756 
L 1791 3756 
z
M 588 4666 
L 1856 4666 
Q 2919 4666 3439 4514 
Q 3959 4363 4331 4000 
Q 4659 3684 4818 3271 
Q 4978 2859 4978 2338 
Q 4978 1809 4818 1395 
Q 4659 981 4331 666 
Q 3956 303 3431 151 
Q 2906 0 1856 0 
L 588 0 
L 588 4666 
z
" transform="scale(0.015625)"/>
      <path id="DejaVuSans-Bold-2e" d="M 653 1209 
L 1778 1209 
L 1778 0 
L 653 0 
L 653 1209 
z
" transform="scale(0.015625)"/>
      <path id="DejaVuSans-Bold-20" transform="scale(0.015625)"/>
      <path id="DejaVuSans-Bold-53" d="M 3834 4519 
L 3834 3531 
Q 3450 3703 3084 3790 
Q 2719 3878 2394 3878 
Q 1963 3878 1756 3759 
Q 1550 3641 1550 3391 
Q 1550 3203 1689 3098 
Q 1828 2994 2194 2919 
L 2706 2816 
Q 3484 2659 3812 2340 
Q 4141 2022 4141 1434 
Q 4141 663 3683 286 
Q 3225 -91 2284 -91 
Q 1841 -91 1394 -6 
Q 947 78 500 244 
L 500 1259 
Q 947 1022 1364 901 
Q 1781 781 2169 781 
Q 2563 781 2772 912 
Q 2981 1044 2981 1288 
Q 2981 1506 2839 1625 
Q 2697 1744 2272 1838 
L 1806 1941 
Q 1106 2091 782 2419 
Q 459 2747 459 3303 
Q 459 4000 909 4375 
Q 1359 4750 2203 4750 
Q 2588 4750 2994 4692 
Q 3400 4634 3834 4519 
z
" transform="scale(0.015625)"/>
      <path id="DejaVuSans-Bold-69" d="M 538 3500 
L 1656 3500 
L 1656 0 
L 538 0 
L 538 3500 
z
M 538 4863 
L 1656 4863 
L 1656 3950 
L 538 3950 
L 538 4863 
z
" transform="scale(0.015625)"/>
      <path id="DejaVuSans-Bold-6e" d="M 4056 2131 
L 4056 0 
L 2931 0 
L 2931 347 
L 2931 1631 
Q 2931 2084 2911 2256 
Q 2891 2428 2841 2509 
Q 2775 2619 2662 2680 
Q 2550 2741 2406 2741 
Q 2056 2741 1856 2470 
Q 1656 2200 1656 1722 
L 1656 0 
L 538 0 
L 538 3500 
L 1656 3500 
L 1656 2988 
Q 1909 3294 2193 3439 
Q 2478 3584 2822 3584 
Q 3428 3584 3742 3212 
Q 4056 2841 4056 2131 
z
" transform="scale(0.015625)"/>
      <path id="DejaVuSans-Bold-67" d="M 2919 594 
Q 2688 288 2409 144 
Q 2131 0 1766 0 
Q 1125 0 706 504 
Q 288 1009 288 1791 
Q 288 2575 706 3076 
Q 1125 3578 1766 3578 
Q 2131 3578 2409 3434 
Q 2688 3291 2919 2981 
L 2919 3500 
L 4044 3500 
L 4044 353 
Q 4044 -491 3511 -936 
Q 2978 -1381 1966 -1381 
Q 1638 -1381 1331 -1331 
Q 1025 -1281 716 -1178 
L 716 -306 
Q 1009 -475 1290 -558 
Q 1572 -641 1856 -641 
Q 2406 -641 2662 -400 
Q 2919 -159 2919 353 
L 2919 594 
z
M 2181 2772 
Q 1834 2772 1640 2515 
Q 1447 2259 1447 1791 
Q 1447 1309 1634 1061 
Q 1822 813 2181 813 
Q 2531 813 2725 1069 
Q 2919 1325 2919 1791 
Q 2919 2259 2725 2515 
Q 2531 2772 2181 2772 
z
" transform="scale(0.015625)"/>
      <path id="DejaVuSans-Bold-6c" d="M 538 4863 
L 1656 4863 
L 1656 0 
L 538 0 
L 538 4863 
z
" transform="scale(0.015625)"/>
      <path id="DejaVuSans-Bold-65" d="M 4031 1759 
L 4031 1441 
L 1416 1441 
Q 1456 1047 1700 850 
Q 1944 653 2381 653 
Q 2734 653 3104 758 
Q 3475 863 3866 1075 
L 3866 213 
Q 3469 63 3072 -14 
Q 2675 -91 2278 -91 
Q 1328 -91 801 392 
Q 275 875 275 1747 
Q 275 2603 792 3093 
Q 1309 3584 2216 3584 
Q 3041 3584 3536 3087 
Q 4031 2591 4031 1759 
z
M 2881 2131 
Q 2881 2450 2695 2645 
Q 2509 2841 2209 2841 
Q 1884 2841 1681 2658 
Q 1478 2475 1428 2131 
L 2881 2131 
z
" transform="scale(0.015625)"/>
      <path id="DejaVuSans-Bold-2d" d="M 347 2297 
L 2309 2297 
L 2309 1388 
L 347 1388 
L 347 2297 
z
" transform="scale(0.015625)"/>
      <path id="DejaVuSans-Bold-4e" d="M 588 4666 
L 1931 4666 
L 3628 1466 
L 3628 4666 
L 4769 4666 
L 4769 0 
L 3425 0 
L 1728 3200 
L 1728 0 
L 588 0 
L 588 4666 
z
" transform="scale(0.015625)"/>
      <path id="DejaVuSans-Bold-75" d="M 500 1363 
L 500 3500 
L 1625 3500 
L 1625 3150 
Q 1625 2866 1622 2436 
Q 1619 2006 1619 1863 
Q 1619 1441 1641 1255 
Q 1663 1069 1716 984 
Q 1784 875 1895 815 
Q 2006 756 2150 756 
Q 2500 756 2700 1025 
Q 2900 1294 2900 1772 
L 2900 3500 
L 4019 3500 
L 4019 0 
L 2900 0 
L 2900 506 
Q 2647 200 2364 54 
Q 2081 -91 1741 -91 
Q 1134 -91 817 281 
Q 500 653 500 1363 
z
" transform="scale(0.015625)"/>
      <path id="DejaVuSans-Bold-63" d="M 3366 3391 
L 3366 2478 
Q 3138 2634 2908 2709 
Q 2678 2784 2431 2784 
Q 1963 2784 1702 2511 
Q 1441 2238 1441 1747 
Q 1441 1256 1702 982 
Q 1963 709 2431 709 
Q 2694 709 2930 787 
Q 3166 866 3366 1019 
L 3366 103 
Q 3103 6 2833 -42 
Q 2563 -91 2291 -91 
Q 1344 -91 809 395 
Q 275 881 275 1747 
Q 275 2613 809 3098 
Q 1344 3584 2291 3584 
Q 2566 3584 2833 3536 
Q 3100 3488 3366 3391 
z
" transform="scale(0.015625)"/>
      <path id="DejaVuSans-Bold-6f" d="M 2203 2784 
Q 1831 2784 1636 2517 
Q 1441 2250 1441 1747 
Q 1441 1244 1636 976 
Q 1831 709 2203 709 
Q 2569 709 2762 976 
Q 2956 1244 2956 1747 
Q 2956 2250 2762 2517 
Q 2569 2784 2203 2784 
z
M 2203 3584 
Q 3106 3584 3614 3096 
Q 4122 2609 4122 1747 
Q 4122 884 3614 396 
Q 3106 -91 2203 -91 
Q 1297 -91 786 396 
Q 275 884 275 1747 
Q 275 2609 786 3096 
Q 1297 3584 2203 3584 
z
" transform="scale(0.015625)"/>
      <path id="DejaVuSans-Bold-74" d="M 1759 4494 
L 1759 3500 
L 2913 3500 
L 2913 2700 
L 1759 2700 
L 1759 1216 
Q 1759 972 1856 886 
Q 1953 800 2241 800 
L 2816 800 
L 2816 0 
L 1856 0 
Q 1194 0 917 276 
Q 641 553 641 1216 
L 641 2700 
L 84 2700 
L 84 3500 
L 641 3500 
L 641 4494 
L 1759 4494 
z
" transform="scale(0.015625)"/>
      <path id="DejaVuSans-Bold-64" d="M 2919 2988 
L 2919 4863 
L 4044 4863 
L 4044 0 
L 2919 0 
L 2919 506 
Q 2688 197 2409 53 
Q 2131 -91 1766 -91 
Q 1119 -91 703 423 
Q 288 938 288 1747 
Q 288 2556 703 3070 
Q 1119 3584 1766 3584 
Q 2128 3584 2408 3439 
Q 2688 3294 2919 2988 
z
M 2181 722 
Q 2541 722 2730 984 
Q 2919 1247 2919 1747 
Q 2919 2247 2730 2509 
Q 2541 2772 2181 2772 
Q 1825 2772 1636 2509 
Q 1447 2247 1447 1747 
Q 1447 1247 1636 984 
Q 1825 722 2181 722 
z
" transform="scale(0.015625)"/>
      <path id="DejaVuSans-Bold-77" d="M 225 3500 
L 1313 3500 
L 1900 1088 
L 2491 3500 
L 3425 3500 
L 4013 1113 
L 4603 3500 
L 5691 3500 
L 4769 0 
L 3547 0 
L 2956 2406 
L 2369 0 
L 1147 0 
L 225 3500 
z
" transform="scale(0.015625)"/>
      <path id="DejaVuSans-Bold-68" d="M 4056 2131 
L 4056 0 
L 2931 0 
L 2931 347 
L 2931 1625 
Q 2931 2084 2911 2256 
Q 2891 2428 2841 2509 
Q 2775 2619 2662 2680 
Q 2550 2741 2406 2741 
Q 2056 2741 1856 2470 
Q 1656 2200 1656 1722 
L 1656 0 
L 538 0 
L 538 4863 
L 1656 4863 
L 1656 2988 
Q 1909 3294 2193 3439 
Q 2478 3584 2822 3584 
Q 3428 3584 3742 3212 
Q 4056 2841 4056 2131 
z
" transform="scale(0.015625)"/>
      <path id="DejaVuSans-Bold-4c" d="M 588 4666 
L 1791 4666 
L 1791 909 
L 3903 909 
L 3903 0 
L 588 0 
L 588 4666 
z
" transform="scale(0.015625)"/>
      <path id="DejaVuSans-Bold-61" d="M 2106 1575 
Q 1756 1575 1579 1456 
Q 1403 1338 1403 1106 
Q 1403 894 1545 773 
Q 1688 653 1941 653 
Q 2256 653 2472 879 
Q 2688 1106 2688 1447 
L 2688 1575 
L 2106 1575 
z
M 3816 1997 
L 3816 0 
L 2688 0 
L 2688 519 
Q 2463 200 2181 54 
Q 1900 -91 1497 -91 
Q 953 -91 614 226 
Q 275 544 275 1050 
Q 275 1666 698 1953 
Q 1122 2241 2028 2241 
L 2688 2241 
L 2688 2328 
Q 2688 2594 2478 2717 
Q 2269 2841 1825 2841 
Q 1466 2841 1156 2769 
Q 847 2697 581 2553 
L 581 3406 
Q 941 3494 1303 3539 
Q 1666 3584 2028 3584 
Q 2975 3584 3395 3211 
Q 3816 2838 3816 1997 
z
" transform="scale(0.015625)"/>
      <path id="DejaVuSans-Bold-72" d="M 3138 2547 
Q 2991 2616 2845 2648 
Q 2700 2681 2553 2681 
Q 2122 2681 1889 2404 
Q 1656 2128 1656 1613 
L 1656 0 
L 538 0 
L 538 3500 
L 1656 3500 
L 1656 2925 
Q 1872 3269 2151 3426 
Q 2431 3584 2822 3584 
Q 2878 3584 2943 3579 
Q 3009 3575 3134 3559 
L 3138 2547 
z
" transform="scale(0.015625)"/>
      <path id="DejaVuSans-Bold-45" d="M 588 4666 
L 3834 4666 
L 3834 3756 
L 1791 3756 
L 1791 2888 
L 3713 2888 
L 3713 1978 
L 1791 1978 
L 1791 909 
L 3903 909 
L 3903 0 
L 588 0 
L 588 4666 
z
" transform="scale(0.015625)"/>
      <path id="DejaVuSans-Bold-6d" d="M 3781 2919 
Q 3994 3244 4286 3414 
Q 4578 3584 4928 3584 
Q 5531 3584 5847 3212 
Q 6163 2841 6163 2131 
L 6163 0 
L 5038 0 
L 5038 1825 
Q 5041 1866 5042 1909 
Q 5044 1953 5044 2034 
Q 5044 2406 4934 2573 
Q 4825 2741 4581 2741 
Q 4263 2741 4089 2478 
Q 3916 2216 3909 1719 
L 3909 0 
L 2784 0 
L 2784 1825 
Q 2784 2406 2684 2573 
Q 2584 2741 2328 2741 
Q 2006 2741 1831 2477 
Q 1656 2213 1656 1722 
L 1656 0 
L 531 0 
L 531 3500 
L 1656 3500 
L 1656 2988 
Q 1863 3284 2130 3434 
Q 2397 3584 2719 3584 
Q 3081 3584 3359 3409 
Q 3638 3234 3781 2919 
z
" transform="scale(0.015625)"/>
      <path id="DejaVuSans-Bold-62" d="M 2400 722 
Q 2759 722 2948 984 
Q 3138 1247 3138 1747 
Q 3138 2247 2948 2509 
Q 2759 2772 2400 2772 
Q 2041 2772 1848 2508 
Q 1656 2244 1656 1747 
Q 1656 1250 1848 986 
Q 2041 722 2400 722 
z
M 1656 2988 
Q 1888 3294 2169 3439 
Q 2450 3584 2816 3584 
Q 3463 3584 3878 3070 
Q 4294 2556 4294 1747 
Q 4294 938 3878 423 
Q 3463 -91 2816 -91 
Q 2450 -91 2169 54 
Q 1888 200 1656 506 
L 1656 0 
L 538 0 
L 538 4863 
L 1656 4863 
L 1656 2988 
z
" transform="scale(0.015625)"/>
      <path id="DejaVuSans-Bold-73" d="M 3272 3391 
L 3272 2541 
Q 2913 2691 2578 2766 
Q 2244 2841 1947 2841 
Q 1628 2841 1473 2761 
Q 1319 2681 1319 2516 
Q 1319 2381 1436 2309 
Q 1553 2238 1856 2203 
L 2053 2175 
Q 2913 2066 3209 1816 
Q 3506 1566 3506 1031 
Q 3506 472 3093 190 
Q 2681 -91 1863 -91 
Q 1516 -91 1145 -36 
Q 775 19 384 128 
L 384 978 
Q 719 816 1070 734 
Q 1422 653 1784 653 
Q 2113 653 2278 743 
Q 2444 834 2444 1013 
Q 2444 1163 2330 1236 
Q 2216 1309 1875 1350 
L 1678 1375 
Q 931 1469 631 1722 
Q 331 1975 331 2491 
Q 331 3047 712 3315 
Q 1094 3584 1881 3584 
Q 2191 3584 2531 3537 
Q 2872 3491 3272 3391 
z
" transform="scale(0.015625)"/>
     </defs>
     <use xlink:href="#DejaVuSans-Bold-44"/>
     <use xlink:href="#DejaVuSans-Bold-2e" transform="translate(83.007812 0)"/>
     <use xlink:href="#DejaVuSans-Bold-20" transform="translate(120.996094 0)"/>
     <use xlink:href="#DejaVuSans-Bold-53" transform="translate(155.810547 0)"/>
     <use xlink:href="#DejaVuSans-Bold-69" transform="translate(227.832031 0)"/>
     <use xlink:href="#DejaVuSans-Bold-6e" transform="translate(262.109375 0)"/>
     <use xlink:href="#DejaVuSans-Bold-67" transform="translate(333.300781 0)"/>
     <use xlink:href="#DejaVuSans-Bold-6c" transform="translate(404.882812 0)"/>
     <use xlink:href="#DejaVuSans-Bold-65" transform="translate(439.160156 0)"/>
     <use xlink:href="#DejaVuSans-Bold-2d" transform="translate(506.982422 0)"/>
     <use xlink:href="#DejaVuSans-Bold-4e" transform="translate(548.486328 0)"/>
     <use xlink:href="#DejaVuSans-Bold-75" transform="translate(632.177734 0)"/>
     <use xlink:href="#DejaVuSans-Bold-63" transform="translate(703.369141 0)"/>
     <use xlink:href="#DejaVuSans-Bold-6c" transform="translate(762.646484 0)"/>
     <use xlink:href="#DejaVuSans-Bold-65" transform="translate(796.923828 0)"/>
     <use xlink:href="#DejaVuSans-Bold-6f" transform="translate(864.746094 0)"/>
     <use xlink:href="#DejaVuSans-Bold-74" transform="translate(933.447266 0)"/>
     <use xlink:href="#DejaVuSans-Bold-69" transform="translate(981.25 0)"/>
     <use xlink:href="#DejaVuSans-Bold-64" transform="translate(1015.527344 0)"/>
     <use xlink:href="#DejaVuSans-Bold-65" transform="translate(1087.109375 0)"/>
     <use xlink:href="#DejaVuSans-Bold-20" transform="translate(1154.931641 0)"/>
     <use xlink:href="#DejaVuSans-Bold-77" transform="translate(1189.746094 0)"/>
     <use xlink:href="#DejaVuSans-Bold-69" transform="translate(1282.128906 0)"/>
     <use xlink:href="#DejaVuSans-Bold-74" transform="translate(1316.40625 0)"/>
     <use xlink:href="#DejaVuSans-Bold-68" transform="translate(1364.208984 0)"/>
     <use xlink:href="#DejaVuSans-Bold-20" transform="translate(1435.400391 0)"/>
     <use xlink:href="#DejaVuSans-Bold-4c" transform="translate(1470.214844 0)"/>
     <use xlink:href="#DejaVuSans-Bold-65" transform="translate(1533.935547 0)"/>
     <use xlink:href="#DejaVuSans-Bold-61" transform="translate(1601.757812 0)"/>
     <use xlink:href="#DejaVuSans-Bold-72" transform="translate(1669.238281 0)"/>
     <use xlink:href="#DejaVuSans-Bold-6e" transform="translate(1718.554688 0)"/>
     <use xlink:href="#DejaVuSans-Bold-65" transform="translate(1789.746094 0)"/>
     <use xlink:href="#DejaVuSans-Bold-64" transform="translate(1857.568359 0)"/>
     <use xlink:href="#DejaVuSans-Bold-20" transform="translate(1929.150391 0)"/>
     <use xlink:href="#DejaVuSans-Bold-45" transform="translate(1963.964844 0)"/>
     <use xlink:href="#DejaVuSans-Bold-6d" transform="translate(2032.275391 0)"/>
     <use xlink:href="#DejaVuSans-Bold-62" transform="translate(2136.474609 0)"/>
     <use xlink:href="#DejaVuSans-Bold-65" transform="translate(2208.056641 0)"/>
     <use xlink:href="#DejaVuSans-Bold-64" transform="translate(2275.878906 0)"/>
     <use xlink:href="#DejaVuSans-Bold-64" transform="translate(2347.460938 0)"/>
     <use xlink:href="#DejaVuSans-Bold-69" transform="translate(2419.042969 0)"/>
     <use xlink:href="#DejaVuSans-Bold-6e" transform="translate(2453.320312 0)"/>
     <use xlink:href="#DejaVuSans-Bold-67" transform="translate(2524.511719 0)"/>
     <use xlink:href="#DejaVuSans-Bold-73" transform="translate(2596.09375 0)"/>
    </g>
   </g>
  </g>
 </g>
 <defs>
  <clipPath id="p3596ea7c4f">
   <rect x="7.2" y="21.558281" width="482.4" height="251.76"/>
  </clipPath>
 </defs>
</svg>
