<?xml version="1.0" encoding="utf-8" ?>
<svg xmlns="http://www.w3.org/2000/svg" xmlns:ev="http://www.w3.org/2001/xml-events" xmlns:xlink="http://www.w3.org/1999/xlink" baseProfile="full" height="800" version="1.1" width="1200">
  <defs>
    <marker id="id37" markerHeight="7" markerWidth="7" orient="auto" refX="6" refY="3">
      <path d="M0,0 L0,6 L6,3 z" fill="#333333"/>
    </marker>
  </defs>
  <rect fill="white" height="800" width="1200" x="0" y="0"/>
  <text fill="#111" font-family="Arial, Helvetica, sans-serif" font-size="28" font-weight="700" x="60" y="50">Figure 5.3: Embedding Space Visualization (Three-Panel)</text>
  <text fill="#444" font-family="Arial, Helvetica, sans-serif" font-size="16" x="60" y="78">Panel A</text>
  <line stroke="#333" stroke-width="2" x1="140" x2="1000" y1="720" y2="720"/>
  <line stroke="#333" stroke-width="2" x1="140" x2="140" y1="160" y2="720"/>
  <circle cx="422.6423279934764" cy="507.6519600069655" fill="#2ca02c" opacity="0.75" r="4"/>
  <circle cx="453.39290459830846" cy="481.81715354910756" fill="#1f77b4" opacity="0.75" r="4"/>
  <circle cx="376.7393587559246" cy="480.049570331618" fill="#2ca02c" opacity="0.75" r="4"/>
  <circle cx="467.79798131619054" cy="533.9651748703144" fill="#1f77b4" opacity="0.75" r="4"/>
  <circle cx="527.7023271218861" cy="518.0396831758048" fill="#1f77b4" opacity="0.75" r="4"/>
  <circle cx="424.7028586673867" cy="558.7245168353004" fill="#ff7f0e" opacity="0.75" r="4"/>
  <circle cx="374.1193688110583" cy="630.0288916245051" fill="#1f77b4" opacity="0.75" r="4"/>
  <circle cx="419.52616540756094" cy="434.82121880991895" fill="#1f77b4" opacity="0.75" r="4"/>
  <circle cx="336.0283111435414" cy="512.667200603084" fill="#ff7f0e" opacity="0.75" r="4"/>
  <circle cx="389.98723138595176" cy="502.86084993939227" fill="#2ca02c" opacity="0.75" r="4"/>
  <circle cx="456.16111439053765" cy="481.7102528145037" fill="#2ca02c" opacity="0.75" r="4"/>
  <circle cx="483.83988150970083" cy="495.32720643920806" fill="#2ca02c" opacity="0.75" r="4"/>
  <circle cx="398.9039728872208" cy="454.234205333457" fill="#ff7f0e" opacity="0.75" r="4"/>
  <circle cx="533.9487398693961" cy="486.88585951445515" fill="#1f77b4" opacity="0.75" r="4"/>
  <circle cx="447.26177428335643" cy="479.9883869188457" fill="#2ca02c" opacity="0.75" r="4"/>
  <circle cx="319.2490866956111" cy="631.1162056053223" fill="#1f77b4" opacity="0.75" r="4"/>
  <circle cx="515.8699063922801" cy="513.7537454828787" fill="#ff7f0e" opacity="0.75" r="4"/>
  <circle cx="241.40152495484702" cy="557.2735036767651" fill="#2ca02c" opacity="0.75" r="4"/>
  <circle cx="367.45024179879636" cy="476.4107444992294" fill="#1f77b4" opacity="0.75" r="4"/>
  <circle cx="344.3828471053549" cy="590.2178244467909" fill="#ff7f0e" opacity="0.75" r="4"/>
  <circle cx="443.47252823558154" cy="627.4740173345863" fill="#1f77b4" opacity="0.75" r="4"/>
  <circle cx="433.7191656810407" cy="474.8755601777867" fill="#2ca02c" opacity="0.75" r="4"/>
  <circle cx="429.9494286405075" cy="518.3356852642397" fill="#ff7f0e" opacity="0.75" r="4"/>
  <circle cx="434.4807211437848" cy="529.4637668817147" fill="#2ca02c" opacity="0.75" r="4"/>
  <circle cx="334.23904745335767" cy="564.9861547665782" fill="#ff7f0e" opacity="0.75" r="4"/>
  <circle cx="452.01695310674376" cy="516.4716604413422" fill="#1f77b4" opacity="0.75" r="4"/>
  <circle cx="467.76520241799795" cy="537.0178507035951" fill="#1f77b4" opacity="0.75" r="4"/>
  <circle cx="356.1148093578647" cy="508.9185865521641" fill="#1f77b4" opacity="0.75" r="4"/>
  <circle cx="437.8909329065003" cy="499.73635044693526" fill="#2ca02c" opacity="0.75" r="4"/>
  <circle cx="299.277783226861" cy="514.0553328866504" fill="#2ca02c" opacity="0.75" r="4"/>
  <circle cx="458.42601360364677" cy="512.9311992078439" fill="#ff7f0e" opacity="0.75" r="4"/>
  <circle cx="416.6114485621493" cy="544.2780836907157" fill="#2ca02c" opacity="0.75" r="4"/>
  <circle cx="444.15795663919386" cy="453.37600481588436" fill="#1f77b4" opacity="0.75" r="4"/>
  <circle cx="392.41966815846246" cy="419.2147484505721" fill="#2ca02c" opacity="0.75" r="4"/>
  <circle cx="365.93692819363326" cy="522.1994994010045" fill="#1f77b4" opacity="0.75" r="4"/>
  <circle cx="346.9251055506336" cy="531.3424780749369" fill="#2ca02c" opacity="0.75" r="4"/>
  <circle cx="417.0985024055454" cy="483.2197062486308" fill="#ff7f0e" opacity="0.75" r="4"/>
  <circle cx="395.2861377160279" cy="526.2889039101149" fill="#ff7f0e" opacity="0.75" r="4"/>
  <circle cx="484.75942485601445" cy="472.0177502715607" fill="#2ca02c" opacity="0.75" r="4"/>
  <circle cx="434.9586256732172" cy="563.9432930846725" fill="#ff7f0e" opacity="0.75" r="4"/>
  <circle cx="366.9148243964014" cy="473.8600593632468" fill="#2ca02c" opacity="0.75" r="4"/>
  <circle cx="441.13798404548277" cy="576.3770580206541" fill="#1f77b4" opacity="0.75" r="4"/>
  <circle cx="439.12701911014386" cy="584.2202471896998" fill="#1f77b4" opacity="0.75" r="4"/>
  <circle cx="410.9930469924286" cy="574.356089295663" fill="#2ca02c" opacity="0.75" r="4"/>
  <circle cx="436.7556765644477" cy="543.1956367790262" fill="#ff7f0e" opacity="0.75" r="4"/>
  <circle cx="308.1432594653028" cy="495.9520811787551" fill="#1f77b4" opacity="0.75" r="4"/>
  <circle cx="371.5852889968745" cy="578.7745607911686" fill="#ff7f0e" opacity="0.75" r="4"/>
  <circle cx="376.42213312977435" cy="521.3853591371943" fill="#ff7f0e" opacity="0.75" r="4"/>
  <circle cx="473.736218280763" cy="615.5423688760484" fill="#2ca02c" opacity="0.75" r="4"/>
  <circle cx="338.52489997273926" cy="496.21920286282773" fill="#ff7f0e" opacity="0.75" r="4"/>
  <circle cx="414.18567167478096" cy="559.6763500880492" fill="#1f77b4" opacity="0.75" r="4"/>
  <circle cx="339.4459729044615" cy="460.5671512250808" fill="#2ca02c" opacity="0.75" r="4"/>
  <circle cx="366.59363135057185" cy="468.44477523634623" fill="#ff7f0e" opacity="0.75" r="4"/>
  <circle cx="283.26223706243354" cy="588.5717348458404" fill="#1f77b4" opacity="0.75" r="4"/>
  <circle cx="626.3450186739592" cy="546.2800396422294" fill="#2ca02c" opacity="0.75" r="4"/>
  <circle cx="500.06187483034995" cy="305.95839469840575" fill="#2ca02c" opacity="0.75" r="4"/>
  <circle cx="711.9468899733886" cy="374.5729777312641" fill="#ff7f0e" opacity="0.75" r="4"/>
  <circle cx="623.8881008051494" cy="301.6567009183586" fill="#2ca02c" opacity="0.75" r="4"/>
  <circle cx="608.4066855120834" cy="455.12133746882796" fill="#ff7f0e" opacity="0.75" r="4"/>
  <circle cx="501.40710692899637" cy="420.6429299143425" fill="#2ca02c" opacity="0.75" r="4"/>
  <circle cx="638.7348369448489" cy="423.23129915431696" fill="#1f77b4" opacity="0.75" r="4"/>
  <circle cx="596.0436896010576" cy="406.98915339762107" fill="#1f77b4" opacity="0.75" r="4"/>
  <circle cx="676.772771561947" cy="362.4984688109237" fill="#1f77b4" opacity="0.75" r="4"/>
  <circle cx="690.933722374359" cy="463.0290339191971" fill="#2ca02c" opacity="0.75" r="4"/>
  <circle cx="729.089868667715" cy="427.59092352913996" fill="#2ca02c" opacity="0.75" r="4"/>
  <circle cx="640.9057360332438" cy="311.3749256158749" fill="#1f77b4" opacity="0.75" r="4"/>
  <circle cx="593.8934217282939" cy="421.87698104084524" fill="#2ca02c" opacity="0.75" r="4"/>
  <circle cx="723.0786214565268" cy="427.61887876570927" fill="#2ca02c" opacity="0.75" r="4"/>
  <circle cx="730.564513039354" cy="389.664778912226" fill="#ff7f0e" opacity="0.75" r="4"/>
  <circle cx="765.4001144463102" cy="438.9809191308959" fill="#1f77b4" opacity="0.75" r="4"/>
  <circle cx="768.6286134629146" cy="434.6193076702463" fill="#2ca02c" opacity="0.75" r="4"/>
  <circle cx="794.7743100984512" cy="391.0927413611745" fill="#ff7f0e" opacity="0.75" r="4"/>
  <circle cx="645.1196854784637" cy="404.00503589606865" fill="#2ca02c" opacity="0.75" r="4"/>
  <circle cx="607.9326858208295" cy="432.6651071529608" fill="#2ca02c" opacity="0.75" r="4"/>
  <circle cx="596.6181580430941" cy="391.5934200196454" fill="#2ca02c" opacity="0.75" r="4"/>
  <circle cx="398.0594434824907" cy="495.9435108889118" fill="#ff7f0e" opacity="0.75" r="4"/>
  <circle cx="713.4523981809918" cy="410.2955638416215" fill="#1f77b4" opacity="0.75" r="4"/>
  <circle cx="565.7797575155457" cy="390.13480943054435" fill="#1f77b4" opacity="0.75" r="4"/>
  <circle cx="732.0518781459726" cy="394.7265888595766" fill="#1f77b4" opacity="0.75" r="4"/>
  <circle cx="639.7593256927585" cy="482.34817642215734" fill="#1f77b4" opacity="0.75" r="4"/>
  <circle cx="687.6042773665706" cy="434.8645850141625" fill="#ff7f0e" opacity="0.75" r="4"/>
  <circle cx="684.8640546945712" cy="391.28973330246583" fill="#1f77b4" opacity="0.75" r="4"/>
  <circle cx="754.2281286947884" cy="448.47023698818776" fill="#1f77b4" opacity="0.75" r="4"/>
  <circle cx="678.4801379604755" cy="363.07014628421166" fill="#2ca02c" opacity="0.75" r="4"/>
  <circle cx="605.2619655079931" cy="413.0280735989214" fill="#ff7f0e" opacity="0.75" r="4"/>
  <circle cx="720.6639581398538" cy="392.00336498739296" fill="#2ca02c" opacity="0.75" r="4"/>
  <circle cx="734.6226157063418" cy="416.7846246807201" fill="#1f77b4" opacity="0.75" r="4"/>
  <circle cx="795.3603841673108" cy="402.9453154123585" fill="#2ca02c" opacity="0.75" r="4"/>
  <circle cx="702.7233606016172" cy="376.66045574043835" fill="#2ca02c" opacity="0.75" r="4"/>
  <circle cx="713.0591523153573" cy="389.53867819244294" fill="#ff7f0e" opacity="0.75" r="4"/>
  <circle cx="599.9095294923305" cy="412.6265208502802" fill="#1f77b4" opacity="0.75" r="4"/>
  <circle cx="513.7492542375421" cy="372.77184511795025" fill="#ff7f0e" opacity="0.75" r="4"/>
  <circle cx="712.5041464450434" cy="422.9109514484541" fill="#ff7f0e" opacity="0.75" r="4"/>
  <circle cx="517.6551978286655" cy="507.87976147463337" fill="#ff7f0e" opacity="0.75" r="4"/>
  <circle cx="551.720836666211" cy="470.6407032841981" fill="#1f77b4" opacity="0.75" r="4"/>
  <circle cx="597.9077803328277" cy="370.77385720558755" fill="#2ca02c" opacity="0.75" r="4"/>
  <circle cx="552.1210788608851" cy="388.64559066126526" fill="#1f77b4" opacity="0.75" r="4"/>
  <circle cx="513.6247223341647" cy="490.72426485736577" fill="#ff7f0e" opacity="0.75" r="4"/>
  <circle cx="745.3173280708407" cy="463.1110157635463" fill="#ff7f0e" opacity="0.75" r="4"/>
  <circle cx="583.6270456782181" cy="343.3575482130327" fill="#ff7f0e" opacity="0.75" r="4"/>
  <circle cx="678.507894766531" cy="406.804586842275" fill="#1f77b4" opacity="0.75" r="4"/>
  <circle cx="621.1713860520047" cy="477.8128149845057" fill="#ff7f0e" opacity="0.75" r="4"/>
  <circle cx="609.7786795417837" cy="397.5268471876924" fill="#2ca02c" opacity="0.75" r="4"/>
  <circle cx="692.1975135815255" cy="340.53763915546983" fill="#ff7f0e" opacity="0.75" r="4"/>
  <circle cx="601.2541501173632" cy="427.46363104650715" fill="#ff7f0e" opacity="0.75" r="4"/>
  <circle cx="624.0779753326044" cy="481.18787263919245" fill="#ff7f0e" opacity="0.75" r="4"/>
  <circle cx="628.0573350191648" cy="514.8930887494624" fill="#2ca02c" opacity="0.75" r="4"/>
  <circle cx="621.2475908525147" cy="370.52965699466597" fill="#ff7f0e" opacity="0.75" r="4"/>
  <circle cx="660.2285671821497" cy="451.6226542770047" fill="#2ca02c" opacity="0.75" r="4"/>
  <circle cx="590.9256643028002" cy="361.21297123552415" fill="#1f77b4" opacity="0.75" r="4"/>
  <circle cx="459.9889479756553" cy="624.0094064361864" fill="#1f77b4" opacity="0.75" r="4"/>
  <circle cx="398.8325200711297" cy="642.454025757194" fill="#1f77b4" opacity="0.75" r="4"/>
  <circle cx="547.242939207445" cy="543.0535151951111" fill="#ff7f0e" opacity="0.75" r="4"/>
  <circle cx="560.0570059600361" cy="535.3736053833775" fill="#1f77b4" opacity="0.75" r="4"/>
  <circle cx="358.01487079806617" cy="563.7180949094225" fill="#2ca02c" opacity="0.75" r="4"/>
  <circle cx="505.5731668449424" cy="609.732324795687" fill="#ff7f0e" opacity="0.75" r="4"/>
  <circle cx="489.09899913807607" cy="617.1238103432074" fill="#2ca02c" opacity="0.75" r="4"/>
  <circle cx="553.4789178182837" cy="567.8452292127945" fill="#1f77b4" opacity="0.75" r="4"/>
  <circle cx="530.3627266231622" cy="539.9420365831163" fill="#ff7f0e" opacity="0.75" r="4"/>
  <circle cx="611.5306888677411" cy="609.9815229049608" fill="#1f77b4" opacity="0.75" r="4"/>
  <circle cx="435.1912532285769" cy="550.7274603380861" fill="#2ca02c" opacity="0.75" r="4"/>
  <circle cx="593.8142462114906" cy="624.5537057597419" fill="#2ca02c" opacity="0.75" r="4"/>
  <circle cx="468.0756932843992" cy="555.7467508252023" fill="#1f77b4" opacity="0.75" r="4"/>
  <circle cx="591.8754214933642" cy="579.273913835265" fill="#2ca02c" opacity="0.75" r="4"/>
  <circle cx="387.7522929519277" cy="569.9275744075642" fill="#ff7f0e" opacity="0.75" r="4"/>
  <circle cx="575.455062297063" cy="677.9052793164756" fill="#2ca02c" opacity="0.75" r="4"/>
  <circle cx="483.4357219069561" cy="604.3616102390878" fill="#ff7f0e" opacity="0.75" r="4"/>
  <circle cx="573.9125660293735" cy="628.4133849898269" fill="#1f77b4" opacity="0.75" r="4"/>
  <circle cx="495.46172735287473" cy="544.8312241479288" fill="#ff7f0e" opacity="0.75" r="4"/>
  <circle cx="447.6842053990083" cy="666.4301296791343" fill="#ff7f0e" opacity="0.75" r="4"/>
  <circle cx="519.6633540814423" cy="561.2321546599504" fill="#ff7f0e" opacity="0.75" r="4"/>
  <circle cx="537.8808921392038" cy="568.3227335430818" fill="#ff7f0e" opacity="0.75" r="4"/>
  <circle cx="642.7438001290866" cy="544.235569860225" fill="#2ca02c" opacity="0.75" r="4"/>
  <circle cx="565.4530808156827" cy="629.5751932445227" fill="#2ca02c" opacity="0.75" r="4"/>
  <circle cx="540.4566233307582" cy="592.8471749457633" fill="#1f77b4" opacity="0.75" r="4"/>
  <circle cx="426.2784317694566" cy="574.4213311569206" fill="#ff7f0e" opacity="0.75" r="4"/>
  <circle cx="556.2164366364807" cy="503.0296333447339" fill="#2ca02c" opacity="0.75" r="4"/>
  <circle cx="521.5808684389394" cy="610.7696482452944" fill="#1f77b4" opacity="0.75" r="4"/>
  <circle cx="430.29261721717836" cy="565.4150317715621" fill="#2ca02c" opacity="0.75" r="4"/>
  <circle cx="501.124134154493" cy="607.8563944623531" fill="#2ca02c" opacity="0.75" r="4"/>
  <circle cx="581.1429349920992" cy="547.1053024885946" fill="#ff7f0e" opacity="0.75" r="4"/>
  <circle cx="596.4268567368151" cy="537.1563236263313" fill="#1f77b4" opacity="0.75" r="4"/>
  <circle cx="514.1637977658341" cy="544.0019688253842" fill="#2ca02c" opacity="0.75" r="4"/>
  <circle cx="596.0885479357337" cy="618.9808344053636" fill="#1f77b4" opacity="0.75" r="4"/>
  <circle cx="500.06619458552075" cy="594.8010022897711" fill="#1f77b4" opacity="0.75" r="4"/>
  <circle cx="564.0510592432502" cy="606.2434336359086" fill="#2ca02c" opacity="0.75" r="4"/>
  <circle cx="590.1850024548683" cy="566.9036667106757" fill="#1f77b4" opacity="0.75" r="4"/>
  <circle cx="545.2989973243155" cy="558.2267692205164" fill="#2ca02c" opacity="0.75" r="4"/>
  <circle cx="562.4060901734268" cy="589.928365026952" fill="#1f77b4" opacity="0.75" r="4"/>
  <circle cx="476.2091623054712" cy="509.7022700900465" fill="#ff7f0e" opacity="0.75" r="4"/>
  <circle cx="458.9892835744332" cy="542.902954392628" fill="#ff7f0e" opacity="0.75" r="4"/>
  <circle cx="447.3172431200776" cy="530.5040476449136" fill="#2ca02c" opacity="0.75" r="4"/>
  <circle cx="536.473556845792" cy="548.9072624684964" fill="#ff7f0e" opacity="0.75" r="4"/>
  <circle cx="496.2955736837416" cy="513.3200236268028" fill="#1f77b4" opacity="0.75" r="4"/>
  <circle cx="522.5156413542264" cy="524.866256894102" fill="#ff7f0e" opacity="0.75" r="4"/>
  <circle cx="451.2716061824572" cy="524.540457400625" fill="#1f77b4" opacity="0.75" r="4"/>
  <circle cx="462.31467299622113" cy="606.9256646256165" fill="#ff7f0e" opacity="0.75" r="4"/>
  <circle cx="587.7654339536883" cy="588.6546490103547" fill="#1f77b4" opacity="0.75" r="4"/>
  <circle cx="612.9012725751898" cy="530.5439071656353" fill="#1f77b4" opacity="0.75" r="4"/>
  <circle cx="578.7575914029848" cy="602.6515910854134" fill="#2ca02c" opacity="0.75" r="4"/>
  <circle cx="495.35480105078324" cy="562.156574953449" fill="#ff7f0e" opacity="0.75" r="4"/>
  <circle cx="495.3270509891789" cy="536.8105713753412" fill="#1f77b4" opacity="0.75" r="4"/>
  <circle cx="537.860955286638" cy="569.9654248896529" fill="#1f77b4" opacity="0.75" r="4"/>
  <circle cx="463.56686271870643" cy="613.9512957341233" fill="#ff7f0e" opacity="0.75" r="4"/>
  <circle cx="608.3221169829499" cy="609.7344013014647" fill="#ff7f0e" opacity="0.75" r="4"/>
  <circle cx="914.0" cy="244.0" fill="#d62728" opacity="0.9" r="7"/>
  <text fill="#333" font-family="Arial, Helvetica, sans-serif" font-size="16" text-anchor="middle" x="570.0" y="765">Dimension 1</text>
  <text fill="#333" font-family="Arial, Helvetica, sans-serif" font-size="16" text-anchor="middle" transform="rotate(-90,85,440.0)" x="85" y="440.0">Dimension 2</text>
  <text fill="#999" font-family="Arial, Helvetica, sans-serif" font-size="12" text-anchor="end" x="1140" y="776">Auto-generated SVG</text>
</svg>
