<?xml version="1.0" encoding="utf-8" ?>
<svg xmlns="http://www.w3.org/2000/svg" xmlns:ev="http://www.w3.org/2001/xml-events" xmlns:xlink="http://www.w3.org/1999/xlink" baseProfile="full" height="800" version="1.1" width="1200">
  <defs>
    <marker id="id333" markerHeight="7" markerWidth="7" orient="auto" refX="6" refY="3">
      <path d="M0,0 L0,6 L6,3 z" fill="#333333"/>
    </marker>
  </defs>
  <rect fill="white" height="800" width="1200" x="0" y="0"/>
  <text fill="#111" font-family="Arial, Helvetica, sans-serif" font-size="28" font-weight="700" x="60" y="50">Figure 5: Fairness Assessment</text>
  <text fill="#444" font-family="Arial, Helvetica, sans-serif" font-size="16" x="60" y="78">Panel A</text>
  <line stroke="#333" stroke-width="2" x1="140" x2="1000" y1="720" y2="720"/>
  <line stroke="#333" stroke-width="2" x1="140" x2="140" y1="160" y2="720"/>
  <circle cx="421.8675522208702" cy="627.3473737905618" fill="#ff7f0e" opacity="0.75" r="4"/>
  <circle cx="331.47320029207367" cy="594.7285356012064" fill="#2ca02c" opacity="0.75" r="4"/>
  <circle cx="514.3916515991684" cy="424.69211837261963" fill="#1f77b4" opacity="0.75" r="4"/>
  <circle cx="324.7948817492195" cy="478.7810096009959" fill="#ff7f0e" opacity="0.75" r="4"/>
  <circle cx="328.8465239843227" cy="562.8058143858734" fill="#1f77b4" opacity="0.75" r="4"/>
  <circle cx="301.5471437471423" cy="467.33070842578707" fill="#ff7f0e" opacity="0.75" r="4"/>
  <circle cx="418.7468171096298" cy="475.3308465571423" fill="#2ca02c" opacity="0.75" r="4"/>
  <circle cx="340.4618998235205" cy="500.8753757790141" fill="#1f77b4" opacity="0.75" r="4"/>
  <circle cx="458.2788866741574" cy="380.9733966794927" fill="#1f77b4" opacity="0.75" r="4"/>
  <circle cx="350.0920617603465" cy="602.9609316962689" fill="#1f77b4" opacity="0.75" r="4"/>
  <circle cx="505.4104661101651" cy="548.7177603088246" fill="#2ca02c" opacity="0.75" r="4"/>
  <circle cx="440.171012420652" cy="538.3567796853533" fill="#2ca02c" opacity="0.75" r="4"/>
  <circle cx="278.9174473857664" cy="505.8165665733705" fill="#2ca02c" opacity="0.75" r="4"/>
  <circle cx="344.60324825413534" cy="557.0567308777099" fill="#1f77b4" opacity="0.75" r="4"/>
  <circle cx="450.2213464980608" cy="445.0993280845141" fill="#ff7f0e" opacity="0.75" r="4"/>
  <circle cx="434.8924250679293" cy="540.8420218767926" fill="#ff7f0e" opacity="0.75" r="4"/>
  <circle cx="452.6658933272219" cy="538.1066561694197" fill="#ff7f0e" opacity="0.75" r="4"/>
  <circle cx="329.3313925697541" cy="445.06147264357554" fill="#ff7f0e" opacity="0.75" r="4"/>
  <circle cx="437.97130985825703" cy="537.4064674086321" fill="#ff7f0e" opacity="0.75" r="4"/>
  <circle cx="377.3498843873564" cy="540.6617839500507" fill="#1f77b4" opacity="0.75" r="4"/>
  <circle cx="343.13236074887567" cy="404.4259607603221" fill="#ff7f0e" opacity="0.75" r="4"/>
  <circle cx="361.80333030768963" cy="498.2418426147002" fill="#2ca02c" opacity="0.75" r="4"/>
  <circle cx="417.7807752173068" cy="514.7643179126245" fill="#ff7f0e" opacity="0.75" r="4"/>
  <circle cx="382.27912932608626" cy="520.2391194316754" fill="#ff7f0e" opacity="0.75" r="4"/>
  <circle cx="329.46540232160396" cy="534.1932722001493" fill="#ff7f0e" opacity="0.75" r="4"/>
  <circle cx="389.1060569199251" cy="571.531431913304" fill="#1f77b4" opacity="0.75" r="4"/>
  <circle cx="353.18484466788595" cy="517.3634803985724" fill="#2ca02c" opacity="0.75" r="4"/>
  <circle cx="467.6218182513253" cy="420.4840882839828" fill="#1f77b4" opacity="0.75" r="4"/>
  <circle cx="376.3905823651702" cy="504.0462814783421" fill="#ff7f0e" opacity="0.75" r="4"/>
  <circle cx="563.4017375772936" cy="477.82807253096837" fill="#1f77b4" opacity="0.75" r="4"/>
  <circle cx="317.1669375115266" cy="507.18203594631314" fill="#2ca02c" opacity="0.75" r="4"/>
  <circle cx="295.177180696395" cy="514.6481497819162" fill="#ff7f0e" opacity="0.75" r="4"/>
  <circle cx="302.1363372031936" cy="619.386351065501" fill="#1f77b4" opacity="0.75" r="4"/>
  <circle cx="321.88140784072004" cy="566.948353302122" fill="#ff7f0e" opacity="0.75" r="4"/>
  <circle cx="553.1557707594052" cy="510.006220158264" fill="#ff7f0e" opacity="0.75" r="4"/>
  <circle cx="358.8285642926518" cy="538.470746097826" fill="#1f77b4" opacity="0.75" r="4"/>
  <circle cx="305.6478573023969" cy="572.5740753203643" fill="#2ca02c" opacity="0.75" r="4"/>
  <circle cx="440.88720202290153" cy="526.2719890339015" fill="#ff7f0e" opacity="0.75" r="4"/>
  <circle cx="503.06558997809935" cy="520.0691345704954" fill="#ff7f0e" opacity="0.75" r="4"/>
  <circle cx="425.50548375746354" cy="450.4188359391165" fill="#ff7f0e" opacity="0.75" r="4"/>
  <circle cx="362.20179931528685" cy="545.7798065088871" fill="#2ca02c" opacity="0.75" r="4"/>
  <circle cx="485.7964387583507" cy="457.86600374486176" fill="#ff7f0e" opacity="0.75" r="4"/>
  <circle cx="415.93553847905144" cy="536.8961646494423" fill="#ff7f0e" opacity="0.75" r="4"/>
  <circle cx="417.621673944702" cy="526.1501904047582" fill="#1f77b4" opacity="0.75" r="4"/>
  <circle cx="448.3451644892742" cy="515.6622584160775" fill="#ff7f0e" opacity="0.75" r="4"/>
  <circle cx="409.0809609991386" cy="557.7105261279867" fill="#ff7f0e" opacity="0.75" r="4"/>
  <circle cx="410.2185167950699" cy="541.003131555027" fill="#2ca02c" opacity="0.75" r="4"/>
  <circle cx="525.7110365982269" cy="552.4544488887902" fill="#2ca02c" opacity="0.75" r="4"/>
  <circle cx="418.57936547458286" cy="526.538359800506" fill="#ff7f0e" opacity="0.75" r="4"/>
  <circle cx="490.94000935528646" cy="508.2188036073478" fill="#ff7f0e" opacity="0.75" r="4"/>
  <circle cx="375.2372807519031" cy="560.9642269195799" fill="#1f77b4" opacity="0.75" r="4"/>
  <circle cx="327.5541516301198" cy="531.0738123289896" fill="#1f77b4" opacity="0.75" r="4"/>
  <circle cx="443.5437591695292" cy="474.6876346960893" fill="#1f77b4" opacity="0.75" r="4"/>
  <circle cx="266.32239177641156" cy="553.8101352144099" fill="#1f77b4" opacity="0.75" r="4"/>
  <circle cx="625.5996647766061" cy="537.2965852966596" fill="#ff7f0e" opacity="0.75" r="4"/>
  <circle cx="441.89339855102514" cy="419.1442822666324" fill="#2ca02c" opacity="0.75" r="4"/>
  <circle cx="644.8745157106448" cy="438.2573030213504" fill="#1f77b4" opacity="0.75" r="4"/>
  <circle cx="658.100535166284" cy="399.485239328991" fill="#1f77b4" opacity="0.75" r="4"/>
  <circle cx="593.9701627413394" cy="452.5661726889111" fill="#ff7f0e" opacity="0.75" r="4"/>
  <circle cx="630.5203574221009" cy="403.69565830726617" fill="#2ca02c" opacity="0.75" r="4"/>
  <circle cx="738.2213554619557" cy="409.47333055512127" fill="#1f77b4" opacity="0.75" r="4"/>
  <circle cx="584.915801382162" cy="402.38719990326865" fill="#ff7f0e" opacity="0.75" r="4"/>
  <circle cx="521.5814381042109" cy="336.9479644392489" fill="#2ca02c" opacity="0.75" r="4"/>
  <circle cx="531.8039082485791" cy="464.98444587527086" fill="#2ca02c" opacity="0.75" r="4"/>
  <circle cx="583.800491323617" cy="337.64044277674947" fill="#1f77b4" opacity="0.75" r="4"/>
  <circle cx="637.5493264970116" cy="370.7885608303884" fill="#2ca02c" opacity="0.75" r="4"/>
  <circle cx="729.1666669582726" cy="430.6886137366524" fill="#2ca02c" opacity="0.75" r="4"/>
  <circle cx="627.3502902794605" cy="415.765579562052" fill="#2ca02c" opacity="0.75" r="4"/>
  <circle cx="679.3722868357547" cy="454.8392151067211" fill="#ff7f0e" opacity="0.75" r="4"/>
  <circle cx="539.7706409502638" cy="361.9413159179219" fill="#ff7f0e" opacity="0.75" r="4"/>
  <circle cx="690.1720159055243" cy="446.0941048109666" fill="#2ca02c" opacity="0.75" r="4"/>
  <circle cx="730.9538619579264" cy="385.92326042596494" fill="#2ca02c" opacity="0.75" r="4"/>
  <circle cx="743.8579942662942" cy="446.55065096095336" fill="#ff7f0e" opacity="0.75" r="4"/>
  <circle cx="745.6965651494106" cy="376.3240349320333" fill="#1f77b4" opacity="0.75" r="4"/>
  <circle cx="560.2541401909458" cy="350.8500189046941" fill="#ff7f0e" opacity="0.75" r="4"/>
  <circle cx="723.9644673805766" cy="413.5860914948879" fill="#ff7f0e" opacity="0.75" r="4"/>
  <circle cx="498.18579920847384" cy="392.08640747325455" fill="#2ca02c" opacity="0.75" r="4"/>
  <circle cx="533.7182514934883" cy="393.5823419839935" fill="#2ca02c" opacity="0.75" r="4"/>
  <circle cx="697.8879792584346" cy="407.34226398377257" fill="#1f77b4" opacity="0.75" r="4"/>
  <circle cx="678.6254537583025" cy="473.3250399098383" fill="#1f77b4" opacity="0.75" r="4"/>
  <circle cx="625.7305792901209" cy="385.138883932176" fill="#2ca02c" opacity="0.75" r="4"/>
  <circle cx="769.4805232106237" cy="400.138662232584" fill="#ff7f0e" opacity="0.75" r="4"/>
  <circle cx="616.3489385072387" cy="509.45007658640446" fill="#1f77b4" opacity="0.75" r="4"/>
  <circle cx="539.5810944997502" cy="371.34962048129535" fill="#2ca02c" opacity="0.75" r="4"/>
  <circle cx="704.2303784559579" cy="399.71352032544246" fill="#ff7f0e" opacity="0.75" r="4"/>
  <circle cx="679.911809955222" cy="464.1565770724525" fill="#2ca02c" opacity="0.75" r="4"/>
  <circle cx="629.3628513795682" cy="459.8386232864108" fill="#ff7f0e" opacity="0.75" r="4"/>
  <circle cx="606.4340702119837" cy="392.4400530123676" fill="#ff7f0e" opacity="0.75" r="4"/>
  <circle cx="580.4226088108489" cy="497.649114025735" fill="#ff7f0e" opacity="0.75" r="4"/>
  <circle cx="591.0071738744449" cy="402.2384297758902" fill="#ff7f0e" opacity="0.75" r="4"/>
  <circle cx="683.8739817771469" cy="428.849647880561" fill="#ff7f0e" opacity="0.75" r="4"/>
  <circle cx="513.5913546104589" cy="438.34330498630766" fill="#1f77b4" opacity="0.75" r="4"/>
  <circle cx="623.5687658341117" cy="270.68177794601286" fill="#ff7f0e" opacity="0.75" r="4"/>
  <circle cx="654.5830763734117" cy="523.7343296733459" fill="#2ca02c" opacity="0.75" r="4"/>
  <circle cx="685.9531454157831" cy="439.1158829666905" fill="#2ca02c" opacity="0.75" r="4"/>
  <circle cx="628.1540627691729" cy="421.2683403490964" fill="#1f77b4" opacity="0.75" r="4"/>
  <circle cx="887.3204946440733" cy="387.1081195729229" fill="#1f77b4" opacity="0.75" r="4"/>
  <circle cx="658.5395773315399" cy="449.8301153871614" fill="#ff7f0e" opacity="0.75" r="4"/>
  <circle cx="615.8787088406332" cy="438.9755162660023" fill="#2ca02c" opacity="0.75" r="4"/>
  <circle cx="587.2204063870818" cy="411.9031577627476" fill="#2ca02c" opacity="0.75" r="4"/>
  <circle cx="536.6113850531677" cy="412.9400890407194" fill="#ff7f0e" opacity="0.75" r="4"/>
  <circle cx="575.7532754347596" cy="408.4360058155823" fill="#1f77b4" opacity="0.75" r="4"/>
  <circle cx="597.1330771543046" cy="334.88265010922703" fill="#2ca02c" opacity="0.75" r="4"/>
  <circle cx="704.508762402541" cy="418.71741963573953" fill="#2ca02c" opacity="0.75" r="4"/>
  <circle cx="528.0056048512927" cy="435.39652034871415" fill="#2ca02c" opacity="0.75" r="4"/>
  <circle cx="687.8776579973862" cy="370.10990774832624" fill="#ff7f0e" opacity="0.75" r="4"/>
  <circle cx="838.1294004605163" cy="439.4627352608931" fill="#2ca02c" opacity="0.75" r="4"/>
  <circle cx="722.628358407391" cy="441.72390770016204" fill="#1f77b4" opacity="0.75" r="4"/>
  <circle cx="663.0275424620272" cy="387.8784501306982" fill="#ff7f0e" opacity="0.75" r="4"/>
  <circle cx="628.260766697199" cy="453.6325603675946" fill="#ff7f0e" opacity="0.75" r="4"/>
  <circle cx="532.9495255029684" cy="581.7651676580819" fill="#1f77b4" opacity="0.75" r="4"/>
  <circle cx="445.0752294869139" cy="543.5804676066358" fill="#2ca02c" opacity="0.75" r="4"/>
  <circle cx="446.7934031562214" cy="561.6117264549946" fill="#2ca02c" opacity="0.75" r="4"/>
  <circle cx="590.4116163947676" cy="552.4741373626117" fill="#1f77b4" opacity="0.75" r="4"/>
  <circle cx="650.605677424454" cy="580.8767602417595" fill="#1f77b4" opacity="0.75" r="4"/>
  <circle cx="470.7048825781681" cy="695.9020055190663" fill="#1f77b4" opacity="0.75" r="4"/>
  <circle cx="582.1391798899454" cy="632.3613331364666" fill="#1f77b4" opacity="0.75" r="4"/>
  <circle cx="591.018571012162" cy="571.0087870041416" fill="#2ca02c" opacity="0.75" r="4"/>
  <circle cx="620.5788731309528" cy="609.3635709788223" fill="#1f77b4" opacity="0.75" r="4"/>
  <circle cx="421.5491932547766" cy="555.1105600045726" fill="#1f77b4" opacity="0.75" r="4"/>
  <circle cx="646.337267066478" cy="608.7171181435925" fill="#ff7f0e" opacity="0.75" r="4"/>
  <circle cx="593.736490448873" cy="579.9157923200901" fill="#1f77b4" opacity="0.75" r="4"/>
  <circle cx="471.8191787187985" cy="573.2437683138019" fill="#ff7f0e" opacity="0.75" r="4"/>
  <circle cx="520.1696161203906" cy="563.8309888266523" fill="#ff7f0e" opacity="0.75" r="4"/>
  <circle cx="547.1568873440501" cy="584.8634927853398" fill="#2ca02c" opacity="0.75" r="4"/>
  <circle cx="566.8554976474948" cy="602.8200571474258" fill="#2ca02c" opacity="0.75" r="4"/>
  <circle cx="595.2603284059244" cy="488.63783847543925" fill="#ff7f0e" opacity="0.75" r="4"/>
  <circle cx="404.5936541111333" cy="599.7541530067388" fill="#2ca02c" opacity="0.75" r="4"/>
  <circle cx="490.7782176667688" cy="607.4779964665854" fill="#ff7f0e" opacity="0.75" r="4"/>
  <circle cx="617.1562225555887" cy="613.0788479424762" fill="#1f77b4" opacity="0.75" r="4"/>
  <circle cx="665.2551402258166" cy="568.4116881721662" fill="#1f77b4" opacity="0.75" r="4"/>
  <circle cx="379.1710800858682" cy="662.0974405531667" fill="#2ca02c" opacity="0.75" r="4"/>
  <circle cx="495.4209704565168" cy="634.1924232424612" fill="#2ca02c" opacity="0.75" r="4"/>
  <circle cx="446.727619805386" cy="583.3381707769092" fill="#ff7f0e" opacity="0.75" r="4"/>
  <circle cx="482.67509470349484" cy="605.0404767970128" fill="#1f77b4" opacity="0.75" r="4"/>
  <circle cx="508.7341908244174" cy="626.0991811853793" fill="#2ca02c" opacity="0.75" r="4"/>
  <circle cx="498.892431803561" cy="554.0595664760201" fill="#2ca02c" opacity="0.75" r="4"/>
  <circle cx="507.56154126171657" cy="631.1170435244171" fill="#ff7f0e" opacity="0.75" r="4"/>
  <circle cx="528.0156334751373" cy="571.5606819395828" fill="#2ca02c" opacity="0.75" r="4"/>
  <circle cx="610.4563529855363" cy="587.2593266639633" fill="#ff7f0e" opacity="0.75" r="4"/>
  <circle cx="455.87488781706753" cy="545.5670325162744" fill="#2ca02c" opacity="0.75" r="4"/>
  <circle cx="487.6280808201824" cy="618.6192343684754" fill="#1f77b4" opacity="0.75" r="4"/>
  <circle cx="504.1018498994132" cy="583.9594770621604" fill="#2ca02c" opacity="0.75" r="4"/>
  <circle cx="575.7972856292363" cy="509.4948292436974" fill="#2ca02c" opacity="0.75" r="4"/>
  <circle cx="395.20380162082813" cy="597.5850029986938" fill="#ff7f0e" opacity="0.75" r="4"/>
  <circle cx="516.2920548958955" cy="530.2447903039183" fill="#2ca02c" opacity="0.75" r="4"/>
  <circle cx="606.6581528986317" cy="596.9513209676771" fill="#2ca02c" opacity="0.75" r="4"/>
  <circle cx="521.5009349159791" cy="545.5667598860446" fill="#2ca02c" opacity="0.75" r="4"/>
  <circle cx="518.3733216011849" cy="570.794867049651" fill="#ff7f0e" opacity="0.75" r="4"/>
  <circle cx="478.03071468183225" cy="567.849917012956" fill="#1f77b4" opacity="0.75" r="4"/>
  <circle cx="508.19044090451837" cy="643.5997351987578" fill="#1f77b4" opacity="0.75" r="4"/>
  <circle cx="588.5538590090787" cy="545.1513743238277" fill="#1f77b4" opacity="0.75" r="4"/>
  <circle cx="510.68523599164604" cy="566.126557895913" fill="#ff7f0e" opacity="0.75" r="4"/>
  <circle cx="587.1662803722485" cy="574.2506157457246" fill="#ff7f0e" opacity="0.75" r="4"/>
  <circle cx="477.28435385963627" cy="626.7517842949381" fill="#2ca02c" opacity="0.75" r="4"/>
  <circle cx="659.675169240085" cy="625.9142295755355" fill="#2ca02c" opacity="0.75" r="4"/>
  <circle cx="705.8874532987776" cy="634.561413375048" fill="#ff7f0e" opacity="0.75" r="4"/>
  <circle cx="577.9159533578568" cy="625.542535855933" fill="#ff7f0e" opacity="0.75" r="4"/>
  <circle cx="388.28409937137377" cy="568.6186623773585" fill="#2ca02c" opacity="0.75" r="4"/>
  <circle cx="557.493495802175" cy="654.6532004106805" fill="#ff7f0e" opacity="0.75" r="4"/>
  <circle cx="537.8846235057144" cy="591.2867968907673" fill="#ff7f0e" opacity="0.75" r="4"/>
  <circle cx="587.5833664432186" cy="557.0053691661728" fill="#1f77b4" opacity="0.75" r="4"/>
  <circle cx="616.0922731677786" cy="559.2135979916764" fill="#1f77b4" opacity="0.75" r="4"/>
  <circle cx="578.3155696330689" cy="583.8281577123018" fill="#1f77b4" opacity="0.75" r="4"/>
  <circle cx="582.8351586524545" cy="646.4461774949023" fill="#ff7f0e" opacity="0.75" r="4"/>
  <circle cx="914.0" cy="244.0" fill="#d62728" opacity="0.9" r="7"/>
  <text fill="#333" font-family="Arial, Helvetica, sans-serif" font-size="16" text-anchor="middle" x="570.0" y="765">Dimension 1</text>
  <text fill="#333" font-family="Arial, Helvetica, sans-serif" font-size="16" text-anchor="middle" transform="rotate(-90,85,440.0)" x="85" y="440.0">Dimension 2</text>
  <text fill="#999" font-family="Arial, Helvetica, sans-serif" font-size="12" text-anchor="end" x="1140" y="776">Auto-generated SVG</text>
</svg>
