<?xml version="1.0" encoding="utf-8" ?>
<svg xmlns="http://www.w3.org/2000/svg" xmlns:ev="http://www.w3.org/2001/xml-events" xmlns:xlink="http://www.w3.org/1999/xlink" baseProfile="full" height="800" version="1.1" width="1200">
  <defs>
    <marker id="id335" markerHeight="7" markerWidth="7" orient="auto" refX="6" refY="3">
      <path d="M0,0 L0,6 L6,3 z" fill="#333333"/>
    </marker>
  </defs>
  <rect fill="white" height="800" width="1200" x="0" y="0"/>
  <text fill="#111" font-family="Arial, Helvetica, sans-serif" font-size="28" font-weight="700" x="60" y="50">Figure 5: Fairness Assessment</text>
  <text fill="#444" font-family="Arial, Helvetica, sans-serif" font-size="16" x="60" y="78">Panel C</text>
  <line stroke="#333" stroke-width="2" x1="140" x2="1000" y1="720" y2="720"/>
  <line stroke="#333" stroke-width="2" x1="140" x2="140" y1="160" y2="720"/>
  <circle cx="446.1113826203554" cy="420.3005160008787" fill="#1f77b4" opacity="0.75" r="4"/>
  <circle cx="371.0086786010221" cy="460.3844835578903" fill="#2ca02c" opacity="0.75" r="4"/>
  <circle cx="456.18686722196776" cy="497.7992875907926" fill="#ff7f0e" opacity="0.75" r="4"/>
  <circle cx="557.3823773972622" cy="625.6811628067408" fill="#2ca02c" opacity="0.75" r="4"/>
  <circle cx="535.6140472102456" cy="433.2538742926181" fill="#2ca02c" opacity="0.75" r="4"/>
  <circle cx="349.2636259422122" cy="505.7946825209202" fill="#ff7f0e" opacity="0.75" r="4"/>
  <circle cx="412.3461125801895" cy="528.2639986071008" fill="#2ca02c" opacity="0.75" r="4"/>
  <circle cx="482.7765115697211" cy="541.6270817018551" fill="#1f77b4" opacity="0.75" r="4"/>
  <circle cx="434.80807076009955" cy="516.7214690299568" fill="#2ca02c" opacity="0.75" r="4"/>
  <circle cx="448.34988237900455" cy="575.2660901450273" fill="#2ca02c" opacity="0.75" r="4"/>
  <circle cx="624.1797349219453" cy="603.9075199460881" fill="#2ca02c" opacity="0.75" r="4"/>
  <circle cx="348.2986224064522" cy="547.5979661078546" fill="#ff7f0e" opacity="0.75" r="4"/>
  <circle cx="280.86986655991154" cy="505.3451938410449" fill="#ff7f0e" opacity="0.75" r="4"/>
  <circle cx="371.8881381952755" cy="540.6916498391558" fill="#1f77b4" opacity="0.75" r="4"/>
  <circle cx="340.4623419580397" cy="412.75251507806576" fill="#2ca02c" opacity="0.75" r="4"/>
  <circle cx="320.98681716604733" cy="542.2202372466097" fill="#ff7f0e" opacity="0.75" r="4"/>
  <circle cx="458.11244929242497" cy="516.4572751970716" fill="#1f77b4" opacity="0.75" r="4"/>
  <circle cx="433.0761305581821" cy="527.0943216032338" fill="#1f77b4" opacity="0.75" r="4"/>
  <circle cx="415.61483239971705" cy="557.9689472226314" fill="#2ca02c" opacity="0.75" r="4"/>
  <circle cx="247.3823117133609" cy="530.2600817350584" fill="#1f77b4" opacity="0.75" r="4"/>
  <circle cx="432.890247242665" cy="446.4094593355306" fill="#1f77b4" opacity="0.75" r="4"/>
  <circle cx="407.5831221389852" cy="574.8509082809048" fill="#ff7f0e" opacity="0.75" r="4"/>
  <circle cx="442.931346702996" cy="490.53998523629866" fill="#2ca02c" opacity="0.75" r="4"/>
  <circle cx="376.95989169666416" cy="523.6165024911336" fill="#2ca02c" opacity="0.75" r="4"/>
  <circle cx="321.7991945169548" cy="459.36474364446764" fill="#1f77b4" opacity="0.75" r="4"/>
  <circle cx="354.3908760548153" cy="496.61612321187147" fill="#ff7f0e" opacity="0.75" r="4"/>
  <circle cx="441.4527683296606" cy="539.645096171394" fill="#ff7f0e" opacity="0.75" r="4"/>
  <circle cx="510.7090030663077" cy="511.3243299793794" fill="#ff7f0e" opacity="0.75" r="4"/>
  <circle cx="292.1662787029206" cy="494.0028541393252" fill="#ff7f0e" opacity="0.75" r="4"/>
  <circle cx="381.1874923396409" cy="605.0586027559698" fill="#2ca02c" opacity="0.75" r="4"/>
  <circle cx="427.11421449383" cy="445.3240138131772" fill="#ff7f0e" opacity="0.75" r="4"/>
  <circle cx="456.3657424646587" cy="440.1383165117054" fill="#1f77b4" opacity="0.75" r="4"/>
  <circle cx="466.1325235317672" cy="511.3133276122967" fill="#2ca02c" opacity="0.75" r="4"/>
  <circle cx="307.5304000797911" cy="599.5475746001573" fill="#1f77b4" opacity="0.75" r="4"/>
  <circle cx="425.5817203476762" cy="516.9521341226057" fill="#2ca02c" opacity="0.75" r="4"/>
  <circle cx="459.2278037636586" cy="521.139957705798" fill="#ff7f0e" opacity="0.75" r="4"/>
  <circle cx="362.88889873932726" cy="560.2832901544723" fill="#ff7f0e" opacity="0.75" r="4"/>
  <circle cx="391.5561195675266" cy="568.5785026574783" fill="#ff7f0e" opacity="0.75" r="4"/>
  <circle cx="347.9428383805432" cy="499.234382899772" fill="#ff7f0e" opacity="0.75" r="4"/>
  <circle cx="364.54455941761717" cy="419.61429762903185" fill="#1f77b4" opacity="0.75" r="4"/>
  <circle cx="358.9002775828962" cy="546.5021754936818" fill="#1f77b4" opacity="0.75" r="4"/>
  <circle cx="434.91374339391655" cy="555.3783099862186" fill="#2ca02c" opacity="0.75" r="4"/>
  <circle cx="385.548442079477" cy="525.5911439905317" fill="#1f77b4" opacity="0.75" r="4"/>
  <circle cx="391.2522161722212" cy="539.0294852815618" fill="#ff7f0e" opacity="0.75" r="4"/>
  <circle cx="429.34395279379004" cy="489.15492598190417" fill="#1f77b4" opacity="0.75" r="4"/>
  <circle cx="435.1193671232991" cy="540.9024859910912" fill="#ff7f0e" opacity="0.75" r="4"/>
  <circle cx="440.9657660717769" cy="467.00466869843433" fill="#1f77b4" opacity="0.75" r="4"/>
  <circle cx="567.9528581555377" cy="593.206334783031" fill="#1f77b4" opacity="0.75" r="4"/>
  <circle cx="490.43934253243475" cy="556.4208167542527" fill="#ff7f0e" opacity="0.75" r="4"/>
  <circle cx="324.8907235154081" cy="489.8586365470665" fill="#ff7f0e" opacity="0.75" r="4"/>
  <circle cx="361.46425053688847" cy="559.717885934869" fill="#1f77b4" opacity="0.75" r="4"/>
  <circle cx="240.48401214974479" cy="564.2925498240378" fill="#1f77b4" opacity="0.75" r="4"/>
  <circle cx="478.7156443436985" cy="580.3063945095527" fill="#2ca02c" opacity="0.75" r="4"/>
  <circle cx="389.33942894988786" cy="522.1556590904707" fill="#ff7f0e" opacity="0.75" r="4"/>
  <circle cx="290.35024037879157" cy="533.1600780294583" fill="#2ca02c" opacity="0.75" r="4"/>
  <circle cx="524.3898587766585" cy="426.6160371295181" fill="#1f77b4" opacity="0.75" r="4"/>
  <circle cx="720.2830330281524" cy="458.00430970630265" fill="#1f77b4" opacity="0.75" r="4"/>
  <circle cx="808.8686071473209" cy="437.4496877649876" fill="#ff7f0e" opacity="0.75" r="4"/>
  <circle cx="697.9657573090183" cy="420.16283837089384" fill="#2ca02c" opacity="0.75" r="4"/>
  <circle cx="738.2621572038111" cy="413.15774864142816" fill="#ff7f0e" opacity="0.75" r="4"/>
  <circle cx="706.7705988460187" cy="327.4686122298825" fill="#ff7f0e" opacity="0.75" r="4"/>
  <circle cx="686.7854804568096" cy="397.71767382732" fill="#2ca02c" opacity="0.75" r="4"/>
  <circle cx="702.4565407741048" cy="413.6459188736935" fill="#1f77b4" opacity="0.75" r="4"/>
  <circle cx="702.2789135119426" cy="358.9269908307075" fill="#2ca02c" opacity="0.75" r="4"/>
  <circle cx="532.4270528943052" cy="397.3076403970895" fill="#ff7f0e" opacity="0.75" r="4"/>
  <circle cx="621.3922258970732" cy="387.71476130973315" fill="#1f77b4" opacity="0.75" r="4"/>
  <circle cx="554.3390760658938" cy="448.7240572109488" fill="#ff7f0e" opacity="0.75" r="4"/>
  <circle cx="703.4577658390036" cy="520.2349644867932" fill="#2ca02c" opacity="0.75" r="4"/>
  <circle cx="539.8837008224737" cy="500.85988310270307" fill="#ff7f0e" opacity="0.75" r="4"/>
  <circle cx="769.1880300891356" cy="432.80864624656806" fill="#ff7f0e" opacity="0.75" r="4"/>
  <circle cx="622.458596182953" cy="442.2908133345521" fill="#2ca02c" opacity="0.75" r="4"/>
  <circle cx="668.1129196735055" cy="404.04936197733446" fill="#2ca02c" opacity="0.75" r="4"/>
  <circle cx="650.153215765713" cy="444.4950048767337" fill="#2ca02c" opacity="0.75" r="4"/>
  <circle cx="612.2093009435389" cy="403.4349137187459" fill="#1f77b4" opacity="0.75" r="4"/>
  <circle cx="662.4691283766686" cy="406.77012427634395" fill="#1f77b4" opacity="0.75" r="4"/>
  <circle cx="639.8985178313883" cy="319.1216885371458" fill="#ff7f0e" opacity="0.75" r="4"/>
  <circle cx="666.8475739293743" cy="436.1119718539937" fill="#2ca02c" opacity="0.75" r="4"/>
  <circle cx="706.8635755117955" cy="349.0716174807809" fill="#ff7f0e" opacity="0.75" r="4"/>
  <circle cx="794.5287200828652" cy="489.41091849152593" fill="#ff7f0e" opacity="0.75" r="4"/>
  <circle cx="700.2224391072446" cy="427.8145207466144" fill="#1f77b4" opacity="0.75" r="4"/>
  <circle cx="627.4588114388401" cy="349.113228936013" fill="#1f77b4" opacity="0.75" r="4"/>
  <circle cx="686.6976360734149" cy="469.27428806119514" fill="#2ca02c" opacity="0.75" r="4"/>
  <circle cx="518.861773608574" cy="410.15168446574023" fill="#ff7f0e" opacity="0.75" r="4"/>
  <circle cx="658.1327358028182" cy="459.0452616490189" fill="#1f77b4" opacity="0.75" r="4"/>
  <circle cx="838.2398839329967" cy="462.30086517607367" fill="#2ca02c" opacity="0.75" r="4"/>
  <circle cx="721.143001807097" cy="350.9671435834074" fill="#1f77b4" opacity="0.75" r="4"/>
  <circle cx="714.7731252996597" cy="467.4543900220968" fill="#2ca02c" opacity="0.75" r="4"/>
  <circle cx="648.2033649637017" cy="454.911081080227" fill="#ff7f0e" opacity="0.75" r="4"/>
  <circle cx="637.1775858680285" cy="455.64615337914995" fill="#ff7f0e" opacity="0.75" r="4"/>
  <circle cx="656.945775082191" cy="472.9061838257985" fill="#2ca02c" opacity="0.75" r="4"/>
  <circle cx="733.4238516155551" cy="323.62753543640184" fill="#1f77b4" opacity="0.75" r="4"/>
  <circle cx="677.1973991308519" cy="342.7301764000547" fill="#1f77b4" opacity="0.75" r="4"/>
  <circle cx="676.026402747445" cy="404.15565992590973" fill="#1f77b4" opacity="0.75" r="4"/>
  <circle cx="706.4883221108564" cy="362.7660684688913" fill="#1f77b4" opacity="0.75" r="4"/>
  <circle cx="723.5617245435543" cy="421.37483381067153" fill="#2ca02c" opacity="0.75" r="4"/>
  <circle cx="739.7440009907059" cy="399.4416287518367" fill="#2ca02c" opacity="0.75" r="4"/>
  <circle cx="613.5725535727692" cy="375.68286647875243" fill="#2ca02c" opacity="0.75" r="4"/>
  <circle cx="649.8299390999027" cy="425.58768140126296" fill="#2ca02c" opacity="0.75" r="4"/>
  <circle cx="603.3634482278896" cy="366.4534972455958" fill="#ff7f0e" opacity="0.75" r="4"/>
  <circle cx="710.6794765224505" cy="437.37679977463415" fill="#2ca02c" opacity="0.75" r="4"/>
  <circle cx="673.4757415785658" cy="326.8356315911089" fill="#2ca02c" opacity="0.75" r="4"/>
  <circle cx="650.4846053446004" cy="445.54695540063034" fill="#ff7f0e" opacity="0.75" r="4"/>
  <circle cx="637.5960173638662" cy="326.2243814423898" fill="#1f77b4" opacity="0.75" r="4"/>
  <circle cx="665.7140866710916" cy="413.3006309433763" fill="#1f77b4" opacity="0.75" r="4"/>
  <circle cx="670.5386105047039" cy="402.53205122694885" fill="#ff7f0e" opacity="0.75" r="4"/>
  <circle cx="781.970153693463" cy="443.5882436770701" fill="#1f77b4" opacity="0.75" r="4"/>
  <circle cx="667.0932529504418" cy="440.89887737939057" fill="#1f77b4" opacity="0.75" r="4"/>
  <circle cx="726.1205890759053" cy="363.43680744555377" fill="#1f77b4" opacity="0.75" r="4"/>
  <circle cx="618.7154689471065" cy="504.15926779744643" fill="#ff7f0e" opacity="0.75" r="4"/>
  <circle cx="496.309356155494" cy="342.77097919189737" fill="#2ca02c" opacity="0.75" r="4"/>
  <circle cx="577.2426857725915" cy="619.7904947856307" fill="#ff7f0e" opacity="0.75" r="4"/>
  <circle cx="564.8273563105449" cy="519.6581833939821" fill="#1f77b4" opacity="0.75" r="4"/>
  <circle cx="599.0664844217471" cy="600.7733992846538" fill="#1f77b4" opacity="0.75" r="4"/>
  <circle cx="442.6459502263142" cy="525.3265915619536" fill="#ff7f0e" opacity="0.75" r="4"/>
  <circle cx="499.8669244458025" cy="590.663813910418" fill="#ff7f0e" opacity="0.75" r="4"/>
  <circle cx="481.247806790664" cy="618.156914397769" fill="#ff7f0e" opacity="0.75" r="4"/>
  <circle cx="633.3959128454266" cy="446.8379224462267" fill="#2ca02c" opacity="0.75" r="4"/>
  <circle cx="556.9156976270947" cy="597.3036877282009" fill="#2ca02c" opacity="0.75" r="4"/>
  <circle cx="552.5475886665071" cy="560.215167419783" fill="#1f77b4" opacity="0.75" r="4"/>
  <circle cx="527.8403572355999" cy="634.8366798960994" fill="#ff7f0e" opacity="0.75" r="4"/>
  <circle cx="498.3831125374503" cy="570.5239609308348" fill="#1f77b4" opacity="0.75" r="4"/>
  <circle cx="571.3226871783944" cy="508.4183422386343" fill="#1f77b4" opacity="0.75" r="4"/>
  <circle cx="578.5671013020258" cy="598.3908482300494" fill="#ff7f0e" opacity="0.75" r="4"/>
  <circle cx="563.0345967035948" cy="539.9515773247504" fill="#ff7f0e" opacity="0.75" r="4"/>
  <circle cx="474.646507177967" cy="500.3995644729545" fill="#2ca02c" opacity="0.75" r="4"/>
  <circle cx="440.0832653598452" cy="547.4723405016782" fill="#1f77b4" opacity="0.75" r="4"/>
  <circle cx="518.5579694703093" cy="531.6728795947975" fill="#ff7f0e" opacity="0.75" r="4"/>
  <circle cx="483.85214958418237" cy="675.3769392105766" fill="#ff7f0e" opacity="0.75" r="4"/>
  <circle cx="594.2604266375201" cy="515.6943880603708" fill="#ff7f0e" opacity="0.75" r="4"/>
  <circle cx="544.2543063033675" cy="521.661457473858" fill="#ff7f0e" opacity="0.75" r="4"/>
  <circle cx="441.43981714216477" cy="599.496449890256" fill="#ff7f0e" opacity="0.75" r="4"/>
  <circle cx="486.9424838010643" cy="676.3076081197265" fill="#ff7f0e" opacity="0.75" r="4"/>
  <circle cx="624.7832152912963" cy="619.2075079285761" fill="#ff7f0e" opacity="0.75" r="4"/>
  <circle cx="558.2758623597035" cy="557.1238724497621" fill="#1f77b4" opacity="0.75" r="4"/>
  <circle cx="547.4673248376856" cy="576.1597907016314" fill="#2ca02c" opacity="0.75" r="4"/>
  <circle cx="419.31773141398617" cy="543.9600793614795" fill="#2ca02c" opacity="0.75" r="4"/>
  <circle cx="560.0822729755831" cy="575.0071060759841" fill="#1f77b4" opacity="0.75" r="4"/>
  <circle cx="562.9974590156559" cy="596.2310465085152" fill="#ff7f0e" opacity="0.75" r="4"/>
  <circle cx="519.0443556076184" cy="581.5964624775116" fill="#2ca02c" opacity="0.75" r="4"/>
  <circle cx="533.7632541152699" cy="626.9524579043955" fill="#1f77b4" opacity="0.75" r="4"/>
  <circle cx="510.98075073567406" cy="537.4696388753807" fill="#ff7f0e" opacity="0.75" r="4"/>
  <circle cx="431.8540082154611" cy="569.9092619113467" fill="#2ca02c" opacity="0.75" r="4"/>
  <circle cx="476.69272993455354" cy="562.9975493758607" fill="#1f77b4" opacity="0.75" r="4"/>
  <circle cx="586.6406221291437" cy="599.3533064384666" fill="#ff7f0e" opacity="0.75" r="4"/>
  <circle cx="498.7271972702508" cy="531.9910611632731" fill="#ff7f0e" opacity="0.75" r="4"/>
  <circle cx="452.49411975679624" cy="572.9627798463073" fill="#ff7f0e" opacity="0.75" r="4"/>
  <circle cx="559.0611343508018" cy="572.3214649210222" fill="#1f77b4" opacity="0.75" r="4"/>
  <circle cx="493.643683724199" cy="626.1155423434818" fill="#ff7f0e" opacity="0.75" r="4"/>
  <circle cx="530.4391000354462" cy="581.1111193903298" fill="#ff7f0e" opacity="0.75" r="4"/>
  <circle cx="556.4790647716711" cy="568.302980801522" fill="#2ca02c" opacity="0.75" r="4"/>
  <circle cx="479.78506705193087" cy="632.3907378993686" fill="#2ca02c" opacity="0.75" r="4"/>
  <circle cx="582.0774730222654" cy="535.7548288498775" fill="#ff7f0e" opacity="0.75" r="4"/>
  <circle cx="626.7301749448433" cy="587.6935153047307" fill="#1f77b4" opacity="0.75" r="4"/>
  <circle cx="596.2296027927717" cy="621.6473516567768" fill="#1f77b4" opacity="0.75" r="4"/>
  <circle cx="512.2302048923557" cy="579.7904902659027" fill="#ff7f0e" opacity="0.75" r="4"/>
  <circle cx="556.0272568158995" cy="594.36643512865" fill="#2ca02c" opacity="0.75" r="4"/>
  <circle cx="446.96990340746015" cy="562.8242919127661" fill="#1f77b4" opacity="0.75" r="4"/>
  <circle cx="547.9207899536968" cy="560.7411706864295" fill="#1f77b4" opacity="0.75" r="4"/>
  <circle cx="484.00066812023516" cy="597.6416636001131" fill="#1f77b4" opacity="0.75" r="4"/>
  <circle cx="452.812614083021" cy="570.1627527551907" fill="#1f77b4" opacity="0.75" r="4"/>
  <circle cx="587.1348527355111" cy="586.6883277526463" fill="#1f77b4" opacity="0.75" r="4"/>
  <circle cx="475.68704625037554" cy="546.4981463891997" fill="#ff7f0e" opacity="0.75" r="4"/>
  <circle cx="588.2450353968604" cy="530.4731214619909" fill="#2ca02c" opacity="0.75" r="4"/>
  <circle cx="477.62160183865285" cy="622.6677791332138" fill="#1f77b4" opacity="0.75" r="4"/>
  <circle cx="502.8289708081904" cy="583.0708484201991" fill="#ff7f0e" opacity="0.75" r="4"/>
  <circle cx="914.0" cy="244.0" fill="#d62728" opacity="0.9" r="7"/>
  <text fill="#333" font-family="Arial, Helvetica, sans-serif" font-size="16" text-anchor="middle" x="570.0" y="765">Dimension 1</text>
  <text fill="#333" font-family="Arial, Helvetica, sans-serif" font-size="16" text-anchor="middle" transform="rotate(-90,85,440.0)" x="85" y="440.0">Dimension 2</text>
  <text fill="#999" font-family="Arial, Helvetica, sans-serif" font-size="12" text-anchor="end" x="1140" y="776">Auto-generated SVG</text>
</svg>
