<?xml version="1.0" encoding="utf-8" ?>
<svg xmlns="http://www.w3.org/2000/svg" xmlns:ev="http://www.w3.org/2001/xml-events" xmlns:xlink="http://www.w3.org/1999/xlink" baseProfile="full" height="800" version="1.1" width="1200">
  <defs>
    <marker id="id2" markerHeight="7" markerWidth="7" orient="auto" refX="6" refY="3">
      <path d="M0,0 L0,6 L6,3 z" fill="#333333"/>
    </marker>
  </defs>
  <rect fill="white" height="800" width="1200" x="0" y="0"/>
  <text fill="#111" font-family="Arial, Helvetica, sans-serif" font-size="28" font-weight="700" x="60" y="50">Figure 1.2: Phasing and Compound Heterozygosity (Three-Panel)</text>
  <text fill="#444" font-family="Arial, Helvetica, sans-serif" font-size="16" x="60" y="78">Panel A</text>
  <rect fill="#f1f1f1" height="18" stroke="#333" stroke-width="1.5" width="420" x="120" y="140"/>
  <rect fill="#cccccc" height="18" stroke="none" width="12" x="324.0" y="140"/>
  <rect fill="#9467bd" height="18" opacity="0.35" stroke="none" width="37.70542230041533" x="455.02140401910043" y="140"/>
  <text fill="#333" font-family="Arial, Helvetica, sans-serif" font-size="13" text-anchor="end" x="90" y="154">1</text>
  <rect fill="#f1f1f1" height="18" stroke="#333" stroke-width="1.5" width="420" x="650" y="140"/>
  <rect fill="#cccccc" height="18" stroke="none" width="12" x="854.0" y="140"/>
  <rect fill="#2ca02c" height="18" opacity="0.35" stroke="none" width="54.78078478786078" x="996.2321664274791" y="140"/>
  <text fill="#333" font-family="Arial, Helvetica, sans-serif" font-size="13" text-anchor="end" x="620" y="154">13</text>
  <rect fill="#f1f1f1" height="18" stroke="#333" stroke-width="1.5" width="420" x="120" y="178"/>
  <rect fill="#cccccc" height="18" stroke="none" width="12" x="324.0" y="178"/>
  <rect fill="#ffbb78" height="18" opacity="0.35" stroke="none" width="33.349303890708065" x="476.09895376622416" y="178"/>
  <rect fill="#d62728" height="18" opacity="0.35" stroke="none" width="33.09437381006769" x="287.3587135310886" y="178"/>
  <rect fill="#9467bd" height="18" opacity="0.35" stroke="none" width="30.644545735622657" x="164.6325837043725" y="178"/>
  <text fill="#333" font-family="Arial, Helvetica, sans-serif" font-size="13" text-anchor="end" x="90" y="192">2</text>
  <rect fill="#f1f1f1" height="18" stroke="#333" stroke-width="1.5" width="420" x="650" y="178"/>
  <rect fill="#cccccc" height="18" stroke="none" width="12" x="854.0" y="178"/>
  <rect fill="#2ca02c" height="18" opacity="0.35" stroke="none" width="70.64160644439085" x="781.4541561263738" y="178"/>
  <rect fill="#d62728" height="18" opacity="0.35" stroke="none" width="25.853073830603524" x="833.7072136947897" y="178"/>
  <rect fill="#2ca02c" height="18" opacity="0.35" stroke="none" width="67.40197330599509" x="797.6171400409672" y="178"/>
  <text fill="#333" font-family="Arial, Helvetica, sans-serif" font-size="13" text-anchor="end" x="620" y="192">14</text>
  <rect fill="#f1f1f1" height="18" stroke="#333" stroke-width="1.5" width="420" x="120" y="216"/>
  <rect fill="#cccccc" height="18" stroke="none" width="12" x="324.0" y="216"/>
  <rect fill="#2ca02c" height="18" opacity="0.35" stroke="none" width="53.9702717647321" x="313.84320687386685" y="216"/>
  <text fill="#333" font-family="Arial, Helvetica, sans-serif" font-size="13" text-anchor="end" x="90" y="230">3</text>
  <rect fill="#f1f1f1" height="18" stroke="#333" stroke-width="1.5" width="420" x="650" y="216"/>
  <rect fill="#cccccc" height="18" stroke="none" width="12" x="854.0" y="216"/>
  <rect fill="#ffbb78" height="18" opacity="0.35" stroke="none" width="66.13604703516116" x="893.3096560890707" y="216"/>
  <rect fill="#d62728" height="18" opacity="0.35" stroke="none" width="31.379828761582786" x="983.6899152432758" y="216"/>
  <text fill="#333" font-family="Arial, Helvetica, sans-serif" font-size="13" text-anchor="end" x="620" y="230">15</text>
  <rect fill="#f1f1f1" height="18" stroke="#333" stroke-width="1.5" width="420" x="120" y="254"/>
  <rect fill="#cccccc" height="18" stroke="none" width="12" x="324.0" y="254"/>
  <rect fill="#ffbb78" height="18" opacity="0.35" stroke="none" width="32.13415729347312" x="439.8877012372455" y="254"/>
  <rect fill="#9467bd" height="18" opacity="0.35" stroke="none" width="47.97455067733687" x="373.07807964428196" y="254"/>
  <rect fill="#d62728" height="18" opacity="0.35" stroke="none" width="64.27118280139196" x="316.04086620545115" y="254"/>
  <text fill="#333" font-family="Arial, Helvetica, sans-serif" font-size="13" text-anchor="end" x="90" y="268">4</text>
  <rect fill="#f1f1f1" height="18" stroke="#333" stroke-width="1.5" width="420" x="650" y="254"/>
  <rect fill="#cccccc" height="18" stroke="none" width="12" x="854.0" y="254"/>
  <rect fill="#ffbb78" height="18" opacity="0.35" stroke="none" width="30.347225332960157" x="862.6721734361896" y="254"/>
  <rect fill="#2ca02c" height="18" opacity="0.35" stroke="none" width="51.61161008202026" x="723.4735041051812" y="254"/>
  <text fill="#333" font-family="Arial, Helvetica, sans-serif" font-size="13" text-anchor="end" x="620" y="268">16</text>
  <rect fill="#f1f1f1" height="18" stroke="#333" stroke-width="1.5" width="420" x="120" y="292"/>
  <rect fill="#cccccc" height="18" stroke="none" width="12" x="324.0" y="292"/>
  <rect fill="#9467bd" height="18" opacity="0.35" stroke="none" width="74.63140328323902" x="222.01260576920694" y="292"/>
  <text fill="#333" font-family="Arial, Helvetica, sans-serif" font-size="13" text-anchor="end" x="90" y="306">5</text>
  <rect fill="#f1f1f1" height="18" stroke="#333" stroke-width="1.5" width="420" x="650" y="292"/>
  <rect fill="#cccccc" height="18" stroke="none" width="12" x="854.0" y="292"/>
  <rect fill="#9467bd" height="18" opacity="0.35" stroke="none" width="39.16635675670736" x="804.4240808337254" y="292"/>
  <text fill="#333" font-family="Arial, Helvetica, sans-serif" font-size="13" text-anchor="end" x="620" y="306">17</text>
  <rect fill="#f1f1f1" height="18" stroke="#333" stroke-width="1.5" width="420" x="120" y="330"/>
  <rect fill="#cccccc" height="18" stroke="none" width="12" x="324.0" y="330"/>
  <rect fill="#2ca02c" height="18" opacity="0.35" stroke="none" width="27.56040020204708" x="294.320472928491" y="330"/>
  <rect fill="#9467bd" height="18" opacity="0.35" stroke="none" width="25.50097797696287" x="165.90707099434616" y="330"/>
  <rect fill="#9467bd" height="18" opacity="0.35" stroke="none" width="51.5852129001414" x="408.57295053901316" y="330"/>
  <text fill="#333" font-family="Arial, Helvetica, sans-serif" font-size="13" text-anchor="end" x="90" y="344">6</text>
  <rect fill="#f1f1f1" height="18" stroke="#333" stroke-width="1.5" width="420" x="650" y="330"/>
  <rect fill="#cccccc" height="18" stroke="none" width="12" x="854.0" y="330"/>
  <rect fill="#9467bd" height="18" opacity="0.35" stroke="none" width="71.51471724302624" x="887.1555059228095" y="330"/>
  <rect fill="#9467bd" height="18" opacity="0.35" stroke="none" width="49.68810527957614" x="896.0865800639245" y="330"/>
  <text fill="#333" font-family="Arial, Helvetica, sans-serif" font-size="13" text-anchor="end" x="620" y="344">18</text>
  <rect fill="#f1f1f1" height="18" stroke="#333" stroke-width="1.5" width="420" x="120" y="368"/>
  <rect fill="#cccccc" height="18" stroke="none" width="12" x="324.0" y="368"/>
  <rect fill="#9467bd" height="18" opacity="0.35" stroke="none" width="45.79419968043182" x="443.1256999686194" y="368"/>
  <rect fill="#ffbb78" height="18" opacity="0.35" stroke="none" width="29.120333933491306" x="343.6837178121121" y="368"/>
  <text fill="#333" font-family="Arial, Helvetica, sans-serif" font-size="13" text-anchor="end" x="90" y="382">7</text>
  <rect fill="#f1f1f1" height="18" stroke="#333" stroke-width="1.5" width="420" x="650" y="368"/>
  <rect fill="#cccccc" height="18" stroke="none" width="12" x="854.0" y="368"/>
  <rect fill="#d62728" height="18" opacity="0.35" stroke="none" width="33.645678899052335" x="757.4732329425171" y="368"/>
  <rect fill="#2ca02c" height="18" opacity="0.35" stroke="none" width="55.43562926069222" x="751.2102786326054" y="368"/>
  <rect fill="#9467bd" height="18" opacity="0.35" stroke="none" width="61.240046954172634" x="816.7112389718416" y="368"/>
  <text fill="#333" font-family="Arial, Helvetica, sans-serif" font-size="13" text-anchor="end" x="620" y="382">19</text>
  <rect fill="#f1f1f1" height="18" stroke="#333" stroke-width="1.5" width="420" x="120" y="406"/>
  <rect fill="#cccccc" height="18" stroke="none" width="12" x="324.0" y="406"/>
  <rect fill="#d62728" height="18" opacity="0.35" stroke="none" width="42.85781960548082" x="336.875293304056" y="406"/>
  <rect fill="#ffbb78" height="18" opacity="0.35" stroke="none" width="28.83320667317553" x="187.55219330992514" y="406"/>
  <rect fill="#ffbb78" height="18" opacity="0.35" stroke="none" width="71.50893565638081" x="429.82028256781933" y="406"/>
  <text fill="#333" font-family="Arial, Helvetica, sans-serif" font-size="13" text-anchor="end" x="90" y="420">8</text>
  <rect fill="#f1f1f1" height="18" stroke="#333" stroke-width="1.5" width="420" x="650" y="406"/>
  <rect fill="#cccccc" height="18" stroke="none" width="12" x="854.0" y="406"/>
  <rect fill="#9467bd" height="18" opacity="0.35" stroke="none" width="64.9004352310276" x="798.2981000239879" y="406"/>
  <text fill="#333" font-family="Arial, Helvetica, sans-serif" font-size="13" text-anchor="end" x="620" y="420">20</text>
  <rect fill="#f1f1f1" height="18" stroke="#333" stroke-width="1.5" width="420" x="120" y="444"/>
  <rect fill="#cccccc" height="18" stroke="none" width="12" x="324.0" y="444"/>
  <rect fill="#2ca02c" height="18" opacity="0.35" stroke="none" width="63.56685171958701" x="488.02587418078787" y="444"/>
  <rect fill="#9467bd" height="18" opacity="0.35" stroke="none" width="71.07324220463745" x="470.5116510969319" y="444"/>
  <text fill="#333" font-family="Arial, Helvetica, sans-serif" font-size="13" text-anchor="end" x="90" y="458">9</text>
  <rect fill="#f1f1f1" height="18" stroke="#333" stroke-width="1.5" width="420" x="650" y="444"/>
  <rect fill="#cccccc" height="18" stroke="none" width="12" x="854.0" y="444"/>
  <rect fill="#2ca02c" height="18" opacity="0.35" stroke="none" width="71.58643335999844" x="1023.4389561456953" y="444"/>
  <rect fill="#2ca02c" height="18" opacity="0.35" stroke="none" width="70.86435219143938" x="775.1681420317581" y="444"/>
  <rect fill="#d62728" height="18" opacity="0.35" stroke="none" width="67.67113231985584" x="991.0524189032014" y="444"/>
  <text fill="#333" font-family="Arial, Helvetica, sans-serif" font-size="13" text-anchor="end" x="620" y="458">21</text>
  <rect fill="#f1f1f1" height="18" stroke="#333" stroke-width="1.5" width="420" x="120" y="482"/>
  <rect fill="#cccccc" height="18" stroke="none" width="12" x="324.0" y="482"/>
  <rect fill="#9467bd" height="18" opacity="0.35" stroke="none" width="45.92360815380233" x="443.5338675552159" y="482"/>
  <rect fill="#2ca02c" height="18" opacity="0.35" stroke="none" width="61.332159212044324" x="325.2225876174561" y="482"/>
  <rect fill="#2ca02c" height="18" opacity="0.35" stroke="none" width="71.30844385584084" x="150.17775683451606" y="482"/>
  <text fill="#333" font-family="Arial, Helvetica, sans-serif" font-size="13" text-anchor="end" x="90" y="496">10</text>
  <rect fill="#f1f1f1" height="18" stroke="#333" stroke-width="1.5" width="420" x="650" y="482"/>
  <rect fill="#cccccc" height="18" stroke="none" width="12" x="854.0" y="482"/>
  <rect fill="#ffbb78" height="18" opacity="0.35" stroke="none" width="34.52987066685659" x="1015.5616628731061" y="482"/>
  <rect fill="#9467bd" height="18" opacity="0.35" stroke="none" width="71.49355472453504" x="820.5343464799789" y="482"/>
  <rect fill="#2ca02c" height="18" opacity="0.35" stroke="none" width="42.132135388754136" x="763.4068852637594" y="482"/>
  <text fill="#333" font-family="Arial, Helvetica, sans-serif" font-size="13" text-anchor="end" x="620" y="496">22</text>
  <rect fill="#f1f1f1" height="18" stroke="#333" stroke-width="1.5" width="420" x="120" y="520"/>
  <rect fill="#cccccc" height="18" stroke="none" width="12" x="324.0" y="520"/>
  <rect fill="#9467bd" height="18" opacity="0.35" stroke="none" width="56.12274008813269" x="234.52197489694487" y="520"/>
  <text fill="#333" font-family="Arial, Helvetica, sans-serif" font-size="13" text-anchor="end" x="90" y="534">11</text>
  <rect fill="#f1f1f1" height="18" stroke="#333" stroke-width="1.5" width="420" x="650" y="520"/>
  <rect fill="#cccccc" height="18" stroke="none" width="12" x="854.0" y="520"/>
  <rect fill="#ffbb78" height="18" opacity="0.35" stroke="none" width="36.102600707633286" x="858.8755653912128" y="520"/>
  <rect fill="#9467bd" height="18" opacity="0.35" stroke="none" width="46.86964460758076" x="919.6355789441959" y="520"/>
  <text fill="#333" font-family="Arial, Helvetica, sans-serif" font-size="13" text-anchor="end" x="620" y="534">X</text>
  <rect fill="#f1f1f1" height="18" stroke="#333" stroke-width="1.5" width="420" x="120" y="558"/>
  <rect fill="#cccccc" height="18" stroke="none" width="12" x="324.0" y="558"/>
  <rect fill="#d62728" height="18" opacity="0.35" stroke="none" width="33.922674417890015" x="449.72784310467597" y="558"/>
  <text fill="#333" font-family="Arial, Helvetica, sans-serif" font-size="13" text-anchor="end" x="90" y="572">12</text>
  <rect fill="#f1f1f1" height="18" stroke="#333" stroke-width="1.5" width="420" x="650" y="558"/>
  <rect fill="#cccccc" height="18" stroke="none" width="12" x="854.0" y="558"/>
  <rect fill="#2ca02c" height="18" opacity="0.35" stroke="none" width="60.654112968993836" x="935.6137034767007" y="558"/>
  <text fill="#333" font-family="Arial, Helvetica, sans-serif" font-size="13" text-anchor="end" x="620" y="572">Y</text>
  <path d="M 980,160 L 1045.0,160.0 A 65,65 0 1,1 1018.2060413990107,107.4138953656284 Z" fill="#dddddd" stroke="white" stroke-width="1.5"/>
  <path d="M 980,160 L 1018.2060413990107,107.4138953656284 A 65,65 0 0,1 1032.5861046343716,121.79395860098923 Z" fill="#ffbb78" stroke="white" stroke-width="1.5"/>
  <path d="M 980,160 L 1032.5861046343716,121.79395860098923 A 65,65 0 0,1 1041.818673559185,139.9138953656284 Z" fill="#2ca02c" stroke="white" stroke-width="1.5"/>
  <path d="M 980,160 L 1041.818673559185,139.9138953656284 A 65,65 0 0,1 1045.0,159.99999999999997 Z" fill="#9467bd" stroke="white" stroke-width="1.5"/>
  <text fill="#333" font-family="Arial, Helvetica, sans-serif" font-size="12" text-anchor="middle" x="980" y="255">Genome fraction</text>
  <rect fill="none" height="120" stroke="#999" stroke-width="1.5" width="220" x="930" y="340"/>
  <line stroke="#333" stroke-width="3" x1="948" x2="966" y1="375" y2="375"/>
  <line stroke="#333" stroke-width="3" x1="976" x2="994" y1="375" y2="375"/>
  <line stroke="#333" stroke-width="3" x1="1004" x2="1022" y1="375" y2="375"/>
  <line stroke="#333" stroke-width="3" x1="1032" x2="1050" y1="375" y2="375"/>
  <line stroke="#333" stroke-width="3" x1="1060" x2="1078" y1="375" y2="375"/>
  <line stroke="#333" stroke-width="3" x1="1088" x2="1106" y1="375" y2="375"/>
  <line stroke="#333" stroke-width="3" x1="1116" x2="1134" y1="375" y2="375"/>
  <line stroke="#d62728" stroke-width="4" x1="955" x2="1125" y1="420" y2="420"/>
  <text fill="#333" font-family="Arial, Helvetica, sans-serif" font-size="12" x="945" y="360">short reads</text>
  <text fill="#333" font-family="Arial, Helvetica, sans-serif" font-size="12" x="945" y="450">long read spans region</text>
  <text fill="#999" font-family="Arial, Helvetica, sans-serif" font-size="12" text-anchor="end" x="1140" y="776">Auto-generated SVG</text>
</svg>
