<?xml version="1.0" encoding="utf-8" ?>
<svg xmlns="http://www.w3.org/2000/svg" xmlns:ev="http://www.w3.org/2001/xml-events" xmlns:xlink="http://www.w3.org/1999/xlink" baseProfile="full" height="800" version="1.1" width="1200">
  <defs>
    <marker id="id9" markerHeight="7" markerWidth="7" orient="auto" refX="6" refY="3">
      <path d="M0,0 L0,6 L6,3 z" fill="#333333"/>
    </marker>
  </defs>
  <rect fill="white" height="800" width="1200" x="0" y="0"/>
  <text fill="#111" font-family="Arial, Helvetica, sans-serif" font-size="28" font-weight="700" x="60" y="50">Figure 2.2: Ancestry Representation Disparity</text>
  <line stroke="#333" stroke-width="2" x1="140" x2="1040" y1="690" y2="690"/>
  <line stroke="#333" stroke-width="2" x1="140" x2="140" y1="170" y2="690"/>
  <rect fill="#1f77b4" height="138.49867335765285" stroke="white" stroke-width="1" width="120.0" x="200.0" y="551.5013266423472"/>
  <rect fill="#ff7f0e" height="119.10506086546198" stroke="white" stroke-width="1" width="120.0" x="200.0" y="432.39626577688523"/>
  <rect fill="#2ca02c" height="75.04862004502606" stroke="white" stroke-width="1" width="120.0" x="200.0" y="357.3476457318592"/>
  <rect fill="#9467bd" height="139.7334900108709" stroke="white" stroke-width="1" width="120.0" x="200.0" y="217.6141557209883"/>
  <rect fill="#8c564b" height="47.61415572098825" stroke="white" stroke-width="1" width="120.0" x="200.0" y="170.00000000000006"/>
  <text fill="#333" font-family="Arial, Helvetica, sans-serif" font-size="14" text-anchor="middle" x="260.0" y="720">Resource 1</text>
  <rect fill="#1f77b4" height="158.55306601501616" stroke="white" stroke-width="1" width="120.0" x="380.0" y="531.4469339849838"/>
  <rect fill="#ff7f0e" height="87.88676429728804" stroke="white" stroke-width="1" width="120.0" x="380.0" y="443.5601696876958"/>
  <rect fill="#2ca02c" height="49.7842004191556" stroke="white" stroke-width="1" width="120.0" x="380.0" y="393.7759692685402"/>
  <rect fill="#9467bd" height="73.21275757125167" stroke="white" stroke-width="1" width="120.0" x="380.0" y="320.5632116972886"/>
  <rect fill="#8c564b" height="150.5632116972885" stroke="white" stroke-width="1" width="120.0" x="380.0" y="170.00000000000009"/>
  <text fill="#333" font-family="Arial, Helvetica, sans-serif" font-size="14" text-anchor="middle" x="440.0" y="720">Resource 2</text>
  <rect fill="#1f77b4" height="130.08189524124242" stroke="white" stroke-width="1" width="120.0" x="560.0" y="559.9181047587576"/>
  <rect fill="#ff7f0e" height="83.50893448574085" stroke="white" stroke-width="1" width="120.0" x="560.0" y="476.4091702730168"/>
  <rect fill="#2ca02c" height="98.30667936070599" stroke="white" stroke-width="1" width="120.0" x="560.0" y="378.1024909123108"/>
  <rect fill="#9467bd" height="79.92914146637123" stroke="white" stroke-width="1" width="120.0" x="560.0" y="298.1733494459396"/>
  <rect fill="#8c564b" height="128.17334944593944" stroke="white" stroke-width="1" width="120.0" x="560.0" y="170.00000000000017"/>
  <text fill="#333" font-family="Arial, Helvetica, sans-serif" font-size="14" text-anchor="middle" x="620.0" y="720">Resource 3</text>
  <rect fill="#1f77b4" height="155.4872721140623" stroke="white" stroke-width="1" width="120.0" x="740.0" y="534.5127278859377"/>
  <rect fill="#ff7f0e" height="77.83634678659308" stroke="white" stroke-width="1" width="120.0" x="740.0" y="456.6763810993446"/>
  <rect fill="#2ca02c" height="129.9218309421834" stroke="white" stroke-width="1" width="120.0" x="740.0" y="326.75455015716125"/>
  <rect fill="#9467bd" height="87.75565307529936" stroke="white" stroke-width="1" width="120.0" x="740.0" y="238.99889708186188"/>
  <rect fill="#8c564b" height="68.99889708186188" stroke="white" stroke-width="1" width="120.0" x="740.0" y="170.0"/>
  <text fill="#333" font-family="Arial, Helvetica, sans-serif" font-size="14" text-anchor="middle" x="800.0" y="720">Resource 4</text>
  <rect fill="#1f77b4" height="119.90100618879858" stroke="white" stroke-width="1" width="120.0" x="920.0" y="570.0989938112015"/>
  <rect fill="#ff7f0e" height="103.1807400705263" stroke="white" stroke-width="1" width="120.0" x="920.0" y="466.91825374067514"/>
  <rect fill="#2ca02c" height="85.02905385646108" stroke="white" stroke-width="1" width="120.0" x="920.0" y="381.88919988421407"/>
  <rect fill="#9467bd" height="113.96086794932454" stroke="white" stroke-width="1" width="120.0" x="920.0" y="267.9283319348895"/>
  <rect fill="#8c564b" height="97.92833193488954" stroke="white" stroke-width="1" width="120.0" x="920.0" y="169.99999999999997"/>
  <text fill="#333" font-family="Arial, Helvetica, sans-serif" font-size="14" text-anchor="middle" x="980.0" y="720">Resource 5</text>
  <rect fill="#1f77b4" height="18" stroke="none" width="18" x="1070" y="176"/>
  <text fill="#333" font-family="Arial, Helvetica, sans-serif" font-size="14" x="1096" y="190">Group 1</text>
  <rect fill="#ff7f0e" height="18" stroke="none" width="18" x="1070" y="202"/>
  <text fill="#333" font-family="Arial, Helvetica, sans-serif" font-size="14" x="1096" y="216">Group 2</text>
  <rect fill="#2ca02c" height="18" stroke="none" width="18" x="1070" y="228"/>
  <text fill="#333" font-family="Arial, Helvetica, sans-serif" font-size="14" x="1096" y="242">Group 3</text>
  <rect fill="#9467bd" height="18" stroke="none" width="18" x="1070" y="254"/>
  <text fill="#333" font-family="Arial, Helvetica, sans-serif" font-size="14" x="1096" y="268">Group 4</text>
  <rect fill="#8c564b" height="18" stroke="none" width="18" x="1070" y="280"/>
  <text fill="#333" font-family="Arial, Helvetica, sans-serif" font-size="14" x="1096" y="294">Other</text>
  <text fill="#999" font-family="Arial, Helvetica, sans-serif" font-size="12" text-anchor="end" x="1140" y="776">Auto-generated SVG</text>
</svg>
