<?xml version="1.0" encoding="utf-8" ?>
<svg xmlns="http://www.w3.org/2000/svg" xmlns:ev="http://www.w3.org/2001/xml-events" xmlns:xlink="http://www.w3.org/1999/xlink" baseProfile="full" height="800" version="1.1" width="1200">
  <defs>
    <marker id="id13" markerHeight="7" markerWidth="7" orient="auto" refX="6" refY="3">
      <path d="M0,0 L0,6 L6,3 z" fill="#333333"/>
    </marker>
  </defs>
  <rect fill="white" height="800" width="1200" x="0" y="0"/>
  <text fill="#111" font-family="Arial, Helvetica, sans-serif" font-size="28" font-weight="700" x="60" y="50">Figure 2.4: ClinVar Landscape (Three-Panel)</text>
  <text fill="#444" font-family="Arial, Helvetica, sans-serif" font-size="16" x="60" y="78">Panel C</text>
  <path d="M 420,420 L 640.0,420.0 A 220,220 0 1,1 204.54502115012733,375.51233779123794 Z" fill="#7f7f7f" stroke="white" stroke-width="2"/>
  <path d="M 420,420 L 204.54502115012733,375.51233779123794 A 220,220 0 0,1 320.3636141983883,223.85568928874744 Z" fill="#d62728" stroke="white" stroke-width="2"/>
  <path d="M 420,420 L 320.3636141983883,223.85568928874744 A 220,220 0 0,1 447.4927113375032,201.72459867563472 Z" fill="#ff7f0e" stroke="white" stroke-width="2"/>
  <path d="M 420,420 L 447.4927113375032,201.72459867563472 A 220,220 0 0,1 553.5392708902544,245.16504030915544 Z" fill="#2ca02c" stroke="white" stroke-width="2"/>
  <path d="M 420,420 L 553.5392708902544,245.16504030915544 A 220,220 0 0,1 626.3967989255765,343.83989631522843 Z" fill="#98df8a" stroke="white" stroke-width="2"/>
  <path d="M 420,420 L 626.3967989255765,343.83989631522843 A 220,220 0 0,1 640.0,419.9999999999998 Z" fill="#9467bd" stroke="white" stroke-width="2"/>
  <rect fill="#7f7f7f" height="18" stroke="none" width="18" x="740" y="250"/>
  <text fill="#333" font-family="Arial, Helvetica, sans-serif" font-size="14" x="766" y="264">VUS</text>
  <rect fill="#d62728" height="18" stroke="none" width="18" x="740" y="278"/>
  <text fill="#333" font-family="Arial, Helvetica, sans-serif" font-size="14" x="766" y="292">Pathogenic</text>
  <rect fill="#ff7f0e" height="18" stroke="none" width="18" x="740" y="306"/>
  <text fill="#333" font-family="Arial, Helvetica, sans-serif" font-size="14" x="766" y="320">Likely pathogenic</text>
  <rect fill="#2ca02c" height="18" stroke="none" width="18" x="740" y="334"/>
  <text fill="#333" font-family="Arial, Helvetica, sans-serif" font-size="14" x="766" y="348">Benign</text>
  <rect fill="#98df8a" height="18" stroke="none" width="18" x="740" y="362"/>
  <text fill="#333" font-family="Arial, Helvetica, sans-serif" font-size="14" x="766" y="376">Likely benign</text>
  <rect fill="#9467bd" height="18" stroke="none" width="18" x="740" y="390"/>
  <text fill="#333" font-family="Arial, Helvetica, sans-serif" font-size="14" x="766" y="404">Conflicting</text>
  <text fill="#999" font-family="Arial, Helvetica, sans-serif" font-size="12" text-anchor="end" x="1140" y="776">Auto-generated SVG</text>
</svg>
