<?xml version="1.0" encoding="UTF-8" standalone="no"?>
<!DOCTYPE svg PUBLIC "-//W3C//DTD SVG 1.1//EN"
 "http://www.w3.org/Graphics/SVG/1.1/DTD/svg11.dtd">
<!-- Generated by graphviz version 2.43.0 (0)
 -->
<!-- Title: geneformer Pages: 1 -->
<svg width="299pt" height="432pt"
 viewBox="0.00 0.00 299.29 432.00" xmlns="http://www.w3.org/2000/svg" xmlns:xlink="http://www.w3.org/1999/xlink">
<g id="graph0" class="graph" transform="scale(1.41 1.41) rotate(0) translate(4 302)">
<title>geneformer</title>
<polygon fill="white" stroke="transparent" points="-4,4 -4,-302 208,-302 208,4 -4,4"/>
<!-- cell -->
<g id="node1" class="node">
<title>cell</title>
<path fill="#aec7e8" stroke="black" stroke-width="1.5" d="M129,-298C129,-298 49,-298 49,-298 43,-298 37,-292 37,-286 37,-286 37,-274 37,-274 37,-268 43,-262 49,-262 49,-262 129,-262 129,-262 135,-262 141,-268 141,-274 141,-274 141,-286 141,-286 141,-292 135,-298 129,-298"/>
<text text-anchor="middle" x="89" y="-282.8" font-family="Arial" font-size="9.00">Single Cell</text>
<text text-anchor="middle" x="89" y="-272.8" font-family="Arial" font-size="9.00">(rank&#45;ordered genes)</text>
</g>
<!-- embed -->
<g id="node2" class="node">
<title>embed</title>
<path fill="#98df8a" stroke="black" stroke-width="1.5" d="M111,-196C111,-196 67,-196 67,-196 61,-196 55,-190 55,-184 55,-184 55,-172 55,-172 55,-166 61,-160 67,-160 67,-160 111,-160 111,-160 117,-160 123,-166 123,-172 123,-172 123,-184 123,-184 123,-190 117,-196 111,-196"/>
<text text-anchor="middle" x="89" y="-180.8" font-family="Arial" font-size="9.00">Gene</text>
<text text-anchor="middle" x="89" y="-170.8" font-family="Arial" font-size="9.00">Embeddings</text>
</g>
<!-- cell&#45;&gt;embed -->
<g id="edge1" class="edge">
<title>cell&#45;&gt;embed</title>
<path fill="none" stroke="black" d="M89,-261.58C89,-246.38 89,-224.07 89,-206.46"/>
<polygon fill="black" stroke="black" points="92.5,-206.22 89,-196.22 85.5,-206.22 92.5,-206.22"/>
<text text-anchor="middle" x="146.5" y="-232.8" font-family="Times,serif" font-size="14.00">Tokenize by</text>
<text text-anchor="middle" x="146.5" y="-217.8" font-family="Times,serif" font-size="14.00">expression rank</text>
</g>
<!-- transformer -->
<g id="node3" class="node">
<title>transformer</title>
<path fill="#9467bd" stroke="black" stroke-width="1.5" d="M110,-123C110,-123 68,-123 68,-123 62,-123 56,-117 56,-111 56,-111 56,-99 56,-99 56,-93 62,-87 68,-87 68,-87 110,-87 110,-87 116,-87 122,-93 122,-99 122,-99 122,-111 122,-111 122,-117 116,-123 110,-123"/>
<text text-anchor="middle" x="89" y="-107.8" font-family="Arial" font-size="9.00" fill="white">Transformer</text>
<text text-anchor="middle" x="89" y="-97.8" font-family="Arial" font-size="9.00" fill="white">Encoder</text>
</g>
<!-- embed&#45;&gt;transformer -->
<g id="edge2" class="edge">
<title>embed&#45;&gt;transformer</title>
<path fill="none" stroke="black" d="M89,-159.81C89,-151.79 89,-142.05 89,-133.07"/>
<polygon fill="black" stroke="black" points="92.5,-133.03 89,-123.03 85.5,-133.03 92.5,-133.03"/>
</g>
<!-- mask -->
<g id="node4" class="node">
<title>mask</title>
<path fill="#ffbb78" stroke="black" stroke-width="1.5" d="M62,-36C62,-36 12,-36 12,-36 6,-36 0,-30 0,-24 0,-24 0,-12 0,-12 0,-6 6,0 12,0 12,0 62,0 62,0 68,0 74,-6 74,-12 74,-12 74,-24 74,-24 74,-30 68,-36 62,-36"/>
<text text-anchor="middle" x="37" y="-20.8" font-family="Arial" font-size="9.00">Masked Gene</text>
<text text-anchor="middle" x="37" y="-10.8" font-family="Arial" font-size="9.00">Prediction</text>
</g>
<!-- transformer&#45;&gt;mask -->
<g id="edge3" class="edge">
<title>transformer&#45;&gt;mask</title>
<path fill="none" stroke="black" d="M64.1,-86.91C51.15,-78.03 38,-69 38,-69 38,-69 37.78,-58.04 37.55,-46.37"/>
<polygon fill="black" stroke="black" points="41.04,-46.14 37.34,-36.21 34.04,-46.28 41.04,-46.14"/>
<text text-anchor="middle" x="79" y="-57.8" font-family="Times,serif" font-size="14.00">Pretraining</text>
</g>
<!-- state -->
<g id="node5" class="node">
<title>state</title>
<path fill="#2ca02c" stroke="black" stroke-width="1.5" d="M162,-36C162,-36 122,-36 122,-36 116,-36 110,-30 110,-24 110,-24 110,-12 110,-12 110,-6 116,0 122,0 122,0 162,0 162,0 168,0 174,-6 174,-12 174,-12 174,-24 174,-24 174,-30 168,-36 162,-36"/>
<text text-anchor="middle" x="142" y="-20.8" font-family="Arial" font-size="9.00" fill="white">Cell State</text>
<text text-anchor="middle" x="142" y="-10.8" font-family="Arial" font-size="9.00" fill="white">Embedding</text>
</g>
<!-- transformer&#45;&gt;state -->
<g id="edge4" class="edge">
<title>transformer&#45;&gt;state</title>
<path fill="none" stroke="black" d="M104.14,-86.91C112.01,-78.03 120,-69 120,-69 120,-69 125.02,-57.59 130.27,-45.67"/>
<polygon fill="black" stroke="black" points="133.61,-46.77 134.43,-36.21 127.2,-43.95 133.61,-46.77"/>
<text text-anchor="middle" x="160" y="-57.8" font-family="Times,serif" font-size="14.00">Inference</text>
</g>
</g>
</svg>
