<?xml version="1.0" encoding="UTF-8" standalone="no"?>
<!DOCTYPE svg PUBLIC "-//W3C//DTD SVG 1.1//EN"
 "http://www.w3.org/Graphics/SVG/1.1/DTD/svg11.dtd">
<!-- Generated by graphviz version 2.43.0 (0)
 -->
<!-- Title: perturbation Pages: 1 -->
<svg width="720pt" height="181pt"
 viewBox="0.00 0.00 720.00 180.92" xmlns="http://www.w3.org/2000/svg" xmlns:xlink="http://www.w3.org/1999/xlink">
<g id="graph0" class="graph" transform="scale(1.85 1.85) rotate(0) translate(4 94)">
<title>perturbation</title>
<polygon fill="white" stroke="transparent" points="-4,4 -4,-94 386,-94 386,4 -4,4"/>
<!-- cell -->
<g id="node1" class="node">
<title>cell</title>
<path fill="#aec7e8" stroke="black" stroke-width="1.5" d="M48.5,-90C48.5,-90 18.5,-90 18.5,-90 12.5,-90 6.5,-84 6.5,-78 6.5,-78 6.5,-66 6.5,-66 6.5,-60 12.5,-54 18.5,-54 18.5,-54 48.5,-54 48.5,-54 54.5,-54 60.5,-60 60.5,-66 60.5,-66 60.5,-78 60.5,-78 60.5,-84 54.5,-90 48.5,-90"/>
<text text-anchor="middle" x="33.5" y="-74.8" font-family="Arial" font-size="9.00">Cell</text>
<text text-anchor="middle" x="33.5" y="-64.8" font-family="Arial" font-size="9.00">State</text>
</g>
<!-- model -->
<g id="node3" class="node">
<title>model</title>
<path fill="#9467bd" stroke="black" stroke-width="1.5" d="M274,-63C274,-63 197,-63 197,-63 191,-63 185,-57 185,-51 185,-51 185,-39 185,-39 185,-33 191,-27 197,-27 197,-27 274,-27 274,-27 280,-27 286,-33 286,-39 286,-39 286,-51 286,-51 286,-57 280,-63 274,-63"/>
<text text-anchor="middle" x="235.5" y="-47.8" font-family="Arial" font-size="9.00" fill="white">scFM</text>
<text text-anchor="middle" x="235.5" y="-37.8" font-family="Arial" font-size="9.00" fill="white">(Geneformer/scGPT)</text>
</g>
<!-- cell&#45;&gt;model -->
<g id="edge1" class="edge">
<title>cell&#45;&gt;model</title>
<path fill="none" stroke="black" d="M60.65,-68.47C89.51,-64.57 136.93,-58.17 174.96,-53.04"/>
<polygon fill="black" stroke="black" points="175.47,-56.5 184.91,-51.69 174.53,-49.56 175.47,-56.5"/>
</g>
<!-- perturb -->
<g id="node2" class="node">
<title>perturb</title>
<path fill="#d62728" stroke="black" stroke-width="1.5" d="M55,-36C55,-36 12,-36 12,-36 6,-36 0,-30 0,-24 0,-24 0,-12 0,-12 0,-6 6,0 12,0 12,0 55,0 55,0 61,0 67,-6 67,-12 67,-12 67,-24 67,-24 67,-30 61,-36 55,-36"/>
<text text-anchor="middle" x="33.5" y="-20.8" font-family="Arial" font-size="9.00" fill="white">Gene</text>
<text text-anchor="middle" x="33.5" y="-10.8" font-family="Arial" font-size="9.00" fill="white">Perturbation</text>
</g>
<!-- perturb&#45;&gt;model -->
<g id="edge2" class="edge">
<title>perturb&#45;&gt;model</title>
<path fill="none" stroke="black" d="M67.25,-22.2C106.49,-27.24 167,-35 167,-35 167,-35 169.98,-35.44 174.68,-36.14"/>
<polygon fill="black" stroke="black" points="174.33,-39.62 184.73,-37.63 175.36,-32.7 174.33,-39.62"/>
<text text-anchor="middle" x="126" y="-38.8" font-family="Times,serif" font-size="14.00">In silico KO</text>
</g>
<!-- predict -->
<g id="node4" class="node">
<title>predict</title>
<path fill="#98df8a" stroke="black" stroke-width="1.5" d="M370,-63C370,-63 335,-63 335,-63 329,-63 323,-57 323,-51 323,-51 323,-39 323,-39 323,-33 329,-27 335,-27 335,-27 370,-27 370,-27 376,-27 382,-33 382,-39 382,-39 382,-51 382,-51 382,-57 376,-63 370,-63"/>
<text text-anchor="middle" x="352.5" y="-47.8" font-family="Arial" font-size="9.00">Predicted</text>
<text text-anchor="middle" x="352.5" y="-37.8" font-family="Arial" font-size="9.00">Response</text>
</g>
<!-- model&#45;&gt;predict -->
<g id="edge3" class="edge">
<title>model&#45;&gt;predict</title>
<path fill="none" stroke="black" d="M286.27,-45C295.16,-45 304.3,-45 312.82,-45"/>
<polygon fill="black" stroke="black" points="312.85,-48.5 322.85,-45 312.85,-41.5 312.85,-48.5"/>
</g>
</g>
</svg>
