<?xml version="1.0" encoding="UTF-8" standalone="no"?>
<!DOCTYPE svg PUBLIC "-//W3C//DTD SVG 1.1//EN"
 "http://www.w3.org/Graphics/SVG/1.1/DTD/svg11.dtd">
<!-- Generated by graphviz version 2.43.0 (0)
 -->
<!-- Title: glue Pages: 1 -->
<svg width="380pt" height="432pt"
 viewBox="0.00 0.00 380.49 432.00" xmlns="http://www.w3.org/2000/svg" xmlns:xlink="http://www.w3.org/1999/xlink">
<g id="graph0" class="graph" transform="scale(1.66 1.66) rotate(0) translate(4 256)">
<title>glue</title>
<polygon fill="white" stroke="transparent" points="-4,4 -4,-256 225,-256 225,4 -4,4"/>
<!-- rna -->
<g id="node1" class="node">
<title>rna</title>
<path fill="#1f77b4" stroke="black" stroke-width="1.5" d="M51,-252C51,-252 12,-252 12,-252 6,-252 0,-246 0,-240 0,-240 0,-228 0,-228 0,-222 6,-216 12,-216 12,-216 51,-216 51,-216 57,-216 63,-222 63,-228 63,-228 63,-240 63,-240 63,-246 57,-252 51,-252"/>
<text text-anchor="middle" x="31.5" y="-231.8" font-family="Arial" font-size="9.00" fill="white">scRNA&#45;seq</text>
</g>
<!-- enc_rna -->
<g id="node4" class="node">
<title>enc_rna</title>
<path fill="#aec7e8" stroke="black" stroke-width="1.5" d="M51.5,-180C51.5,-180 21.5,-180 21.5,-180 15.5,-180 9.5,-174 9.5,-168 9.5,-168 9.5,-156 9.5,-156 9.5,-150 15.5,-144 21.5,-144 21.5,-144 51.5,-144 51.5,-144 57.5,-144 63.5,-150 63.5,-156 63.5,-156 63.5,-168 63.5,-168 63.5,-174 57.5,-180 51.5,-180"/>
<text text-anchor="middle" x="36.5" y="-164.8" font-family="Arial" font-size="9.00">RNA</text>
<text text-anchor="middle" x="36.5" y="-154.8" font-family="Arial" font-size="9.00">Encoder</text>
</g>
<!-- rna&#45;&gt;enc_rna -->
<g id="edge1" class="edge">
<title>rna&#45;&gt;enc_rna</title>
<path fill="none" stroke="black" d="M32.74,-215.7C33.29,-207.98 33.95,-198.71 34.56,-190.11"/>
<polygon fill="black" stroke="black" points="38.06,-190.33 35.28,-180.1 31.07,-189.83 38.06,-190.33"/>
</g>
<!-- atac -->
<g id="node2" class="node">
<title>atac</title>
<path fill="#2ca02c" stroke="black" stroke-width="1.5" d="M135.5,-252C135.5,-252 93.5,-252 93.5,-252 87.5,-252 81.5,-246 81.5,-240 81.5,-240 81.5,-228 81.5,-228 81.5,-222 87.5,-216 93.5,-216 93.5,-216 135.5,-216 135.5,-216 141.5,-216 147.5,-222 147.5,-228 147.5,-228 147.5,-240 147.5,-240 147.5,-246 141.5,-252 135.5,-252"/>
<text text-anchor="middle" x="114.5" y="-231.8" font-family="Arial" font-size="9.00" fill="white">scATAC&#45;seq</text>
</g>
<!-- enc_atac -->
<g id="node5" class="node">
<title>enc_atac</title>
<path fill="#98df8a" stroke="black" stroke-width="1.5" d="M129.5,-180C129.5,-180 99.5,-180 99.5,-180 93.5,-180 87.5,-174 87.5,-168 87.5,-168 87.5,-156 87.5,-156 87.5,-150 93.5,-144 99.5,-144 99.5,-144 129.5,-144 129.5,-144 135.5,-144 141.5,-150 141.5,-156 141.5,-156 141.5,-168 141.5,-168 141.5,-174 135.5,-180 129.5,-180"/>
<text text-anchor="middle" x="114.5" y="-164.8" font-family="Arial" font-size="9.00">ATAC</text>
<text text-anchor="middle" x="114.5" y="-154.8" font-family="Arial" font-size="9.00">Encoder</text>
</g>
<!-- atac&#45;&gt;enc_atac -->
<g id="edge2" class="edge">
<title>atac&#45;&gt;enc_atac</title>
<path fill="none" stroke="black" d="M114.5,-215.7C114.5,-207.98 114.5,-198.71 114.5,-190.11"/>
<polygon fill="black" stroke="black" points="118,-190.1 114.5,-180.1 111,-190.1 118,-190.1"/>
</g>
<!-- prot -->
<g id="node3" class="node">
<title>prot</title>
<path fill="#ff7f0e" stroke="black" stroke-width="1.5" d="M209,-252C209,-252 178,-252 178,-252 172,-252 166,-246 166,-240 166,-240 166,-228 166,-228 166,-222 172,-216 178,-216 178,-216 209,-216 209,-216 215,-216 221,-222 221,-228 221,-228 221,-240 221,-240 221,-246 215,-252 209,-252"/>
<text text-anchor="middle" x="193.5" y="-231.8" font-family="Arial" font-size="9.00" fill="white">CITE&#45;seq</text>
</g>
<!-- enc_prot -->
<g id="node6" class="node">
<title>enc_prot</title>
<path fill="#ffbb78" stroke="black" stroke-width="1.5" d="M204.5,-180C204.5,-180 174.5,-180 174.5,-180 168.5,-180 162.5,-174 162.5,-168 162.5,-168 162.5,-156 162.5,-156 162.5,-150 168.5,-144 174.5,-144 174.5,-144 204.5,-144 204.5,-144 210.5,-144 216.5,-150 216.5,-156 216.5,-156 216.5,-168 216.5,-168 216.5,-174 210.5,-180 204.5,-180"/>
<text text-anchor="middle" x="189.5" y="-164.8" font-family="Arial" font-size="9.00">Protein</text>
<text text-anchor="middle" x="189.5" y="-154.8" font-family="Arial" font-size="9.00">Encoder</text>
</g>
<!-- prot&#45;&gt;enc_prot -->
<g id="edge3" class="edge">
<title>prot&#45;&gt;enc_prot</title>
<path fill="none" stroke="black" d="M192.51,-215.7C192.07,-207.98 191.54,-198.71 191.05,-190.11"/>
<polygon fill="black" stroke="black" points="194.54,-189.89 190.48,-180.1 187.55,-190.29 194.54,-189.89"/>
</g>
<!-- align -->
<g id="node7" class="node">
<title>align</title>
<path fill="#9467bd" stroke="black" stroke-width="1.5" d="M134,-108C134,-108 95,-108 95,-108 89,-108 83,-102 83,-96 83,-96 83,-84 83,-84 83,-78 89,-72 95,-72 95,-72 134,-72 134,-72 140,-72 146,-78 146,-84 146,-84 146,-96 146,-96 146,-102 140,-108 134,-108"/>
<text text-anchor="middle" x="114.5" y="-92.8" font-family="Arial" font-size="9.00" fill="white">Contrastive</text>
<text text-anchor="middle" x="114.5" y="-82.8" font-family="Arial" font-size="9.00" fill="white">Alignment</text>
</g>
<!-- enc_rna&#45;&gt;align -->
<g id="edge4" class="edge">
<title>enc_rna&#45;&gt;align</title>
<path fill="none" stroke="black" d="M55.78,-143.7C65.42,-135.05 77.23,-124.45 87.73,-115.03"/>
<polygon fill="black" stroke="black" points="90.34,-117.39 95.44,-108.1 85.66,-112.18 90.34,-117.39"/>
</g>
<!-- enc_atac&#45;&gt;align -->
<g id="edge5" class="edge">
<title>enc_atac&#45;&gt;align</title>
<path fill="none" stroke="black" d="M114.5,-143.7C114.5,-135.98 114.5,-126.71 114.5,-118.11"/>
<polygon fill="black" stroke="black" points="118,-118.1 114.5,-108.1 111,-118.1 118,-118.1"/>
</g>
<!-- enc_prot&#45;&gt;align -->
<g id="edge6" class="edge">
<title>enc_prot&#45;&gt;align</title>
<path fill="none" stroke="black" d="M170.96,-143.7C161.7,-135.05 150.34,-124.45 140.24,-115.03"/>
<polygon fill="black" stroke="black" points="142.52,-112.37 132.83,-108.1 137.75,-117.49 142.52,-112.37"/>
</g>
<!-- unified -->
<g id="node8" class="node">
<title>unified</title>
<path fill="#d62728" stroke="black" stroke-width="1.5" d="M135,-36C135,-36 94,-36 94,-36 88,-36 82,-30 82,-24 82,-24 82,-12 82,-12 82,-6 88,0 94,0 94,0 135,0 135,0 141,0 147,-6 147,-12 147,-12 147,-24 147,-24 147,-30 141,-36 135,-36"/>
<text text-anchor="middle" x="114.5" y="-20.8" font-family="Arial" font-size="9.00" fill="white">Unified Cell</text>
<text text-anchor="middle" x="114.5" y="-10.8" font-family="Arial" font-size="9.00" fill="white">Embedding</text>
</g>
<!-- align&#45;&gt;unified -->
<g id="edge7" class="edge">
<title>align&#45;&gt;unified</title>
<path fill="none" stroke="black" d="M114.5,-71.7C114.5,-63.98 114.5,-54.71 114.5,-46.11"/>
<polygon fill="black" stroke="black" points="118,-46.1 114.5,-36.1 111,-46.1 118,-46.1"/>
</g>
</g>
</svg>
