<?xml version="1.0" encoding="utf-8" ?>
<svg xmlns="http://www.w3.org/2000/svg" xmlns:ev="http://www.w3.org/2001/xml-events" xmlns:xlink="http://www.w3.org/1999/xlink" baseProfile="full" height="800" version="1.1" width="1200">
  <defs>
    <marker id="id96" markerHeight="7" markerWidth="7" orient="auto" refX="6" refY="3">
      <path d="M0,0 L0,6 L6,3 z" fill="#333333"/>
    </marker>
  </defs>
  <rect fill="white" height="800" width="1200" x="0" y="0"/>
  <text fill="#111" font-family="Arial, Helvetica, sans-serif" font-size="28" font-weight="700" x="60" y="50">Figure 11.5: Cross-Population Performance</text>
  <rect fill="none" height="466" stroke="#999" stroke-width="1.5" width="840" x="60" y="120"/>
  <rect fill="rgb(166,166,186)" height="22" stroke="#ddd" stroke-width="0.6" width="30" x="120" y="150"/>
  <rect fill="rgb(213,213,233)" height="22" stroke="#ddd" stroke-width="0.6" width="30" x="150" y="150"/>
  <rect fill="rgb(85,85,105)" height="22" stroke="#ddd" stroke-width="0.6" width="30" x="180" y="150"/>
  <rect fill="rgb(109,109,129)" height="22" stroke="#ddd" stroke-width="0.6" width="30" x="210" y="150"/>
  <rect fill="rgb(221,221,241)" height="22" stroke="#ddd" stroke-width="0.6" width="30" x="240" y="150"/>
  <rect fill="rgb(155,155,175)" height="22" stroke="#ddd" stroke-width="0.6" width="30" x="270" y="150"/>
  <rect fill="rgb(91,91,111)" height="22" stroke="#ddd" stroke-width="0.6" width="30" x="300" y="150"/>
  <rect fill="rgb(188,188,208)" height="22" stroke="#ddd" stroke-width="0.6" width="30" x="330" y="150"/>
  <rect fill="rgb(147,147,167)" height="22" stroke="#ddd" stroke-width="0.6" width="30" x="360" y="150"/>
  <rect fill="rgb(143,143,163)" height="22" stroke="#ddd" stroke-width="0.6" width="30" x="390" y="150"/>
  <rect fill="rgb(111,111,131)" height="22" stroke="#ddd" stroke-width="0.6" width="30" x="420" y="150"/>
  <rect fill="rgb(235,235,255)" height="22" stroke="#ddd" stroke-width="0.6" width="30" x="450" y="150"/>
  <rect fill="rgb(127,127,147)" height="22" stroke="#ddd" stroke-width="0.6" width="30" x="480" y="150"/>
  <rect fill="rgb(195,195,215)" height="22" stroke="#ddd" stroke-width="0.6" width="30" x="510" y="150"/>
  <rect fill="rgb(167,167,187)" height="22" stroke="#ddd" stroke-width="0.6" width="30" x="540" y="150"/>
  <rect fill="rgb(175,175,195)" height="22" stroke="#ddd" stroke-width="0.6" width="30" x="570" y="150"/>
  <rect fill="rgb(217,217,237)" height="22" stroke="#ddd" stroke-width="0.6" width="30" x="600" y="150"/>
  <rect fill="rgb(120,120,140)" height="22" stroke="#ddd" stroke-width="0.6" width="30" x="630" y="150"/>
  <rect fill="rgb(126,126,146)" height="22" stroke="#ddd" stroke-width="0.6" width="30" x="660" y="150"/>
  <rect fill="rgb(190,190,210)" height="22" stroke="#ddd" stroke-width="0.6" width="30" x="690" y="150"/>
  <rect fill="rgb(239,239,255)" height="22" stroke="#ddd" stroke-width="0.6" width="30" x="720" y="150"/>
  <rect fill="rgb(166,166,186)" height="22" stroke="#ddd" stroke-width="0.6" width="30" x="750" y="150"/>
  <rect fill="rgb(222,222,242)" height="22" stroke="#ddd" stroke-width="0.6" width="30" x="780" y="150"/>
  <rect fill="rgb(224,224,244)" height="22" stroke="#ddd" stroke-width="0.6" width="30" x="810" y="150"/>
  <rect fill="rgb(202,202,222)" height="22" stroke="#ddd" stroke-width="0.6" width="30" x="120" y="172"/>
  <rect fill="rgb(171,171,191)" height="22" stroke="#ddd" stroke-width="0.6" width="30" x="150" y="172"/>
  <rect fill="rgb(168,168,188)" height="22" stroke="#ddd" stroke-width="0.6" width="30" x="180" y="172"/>
  <rect fill="rgb(231,231,251)" height="22" stroke="#ddd" stroke-width="0.6" width="30" x="210" y="172"/>
  <rect fill="rgb(112,112,132)" height="22" stroke="#ddd" stroke-width="0.6" width="30" x="240" y="172"/>
  <rect fill="rgb(179,179,199)" height="22" stroke="#ddd" stroke-width="0.6" width="30" x="270" y="172"/>
  <rect fill="rgb(168,168,188)" height="22" stroke="#ddd" stroke-width="0.6" width="30" x="300" y="172"/>
  <rect fill="rgb(183,183,203)" height="22" stroke="#ddd" stroke-width="0.6" width="30" x="330" y="172"/>
  <rect fill="rgb(201,201,221)" height="22" stroke="#ddd" stroke-width="0.6" width="30" x="360" y="172"/>
  <rect fill="rgb(235,235,255)" height="22" stroke="#ddd" stroke-width="0.6" width="30" x="390" y="172"/>
  <rect fill="rgb(105,105,125)" height="22" stroke="#ddd" stroke-width="0.6" width="30" x="420" y="172"/>
  <rect fill="rgb(190,190,210)" height="22" stroke="#ddd" stroke-width="0.6" width="30" x="450" y="172"/>
  <rect fill="rgb(211,211,231)" height="22" stroke="#ddd" stroke-width="0.6" width="30" x="480" y="172"/>
  <rect fill="rgb(191,191,211)" height="22" stroke="#ddd" stroke-width="0.6" width="30" x="510" y="172"/>
  <rect fill="rgb(154,154,174)" height="22" stroke="#ddd" stroke-width="0.6" width="30" x="540" y="172"/>
  <rect fill="rgb(179,179,199)" height="22" stroke="#ddd" stroke-width="0.6" width="30" x="570" y="172"/>
  <rect fill="rgb(92,92,112)" height="22" stroke="#ddd" stroke-width="0.6" width="30" x="600" y="172"/>
  <rect fill="rgb(169,169,189)" height="22" stroke="#ddd" stroke-width="0.6" width="30" x="630" y="172"/>
  <rect fill="rgb(95,95,115)" height="22" stroke="#ddd" stroke-width="0.6" width="30" x="660" y="172"/>
  <rect fill="rgb(242,242,255)" height="22" stroke="#ddd" stroke-width="0.6" width="30" x="690" y="172"/>
  <rect fill="rgb(90,90,110)" height="22" stroke="#ddd" stroke-width="0.6" width="30" x="720" y="172"/>
  <rect fill="rgb(111,111,131)" height="22" stroke="#ddd" stroke-width="0.6" width="30" x="750" y="172"/>
  <rect fill="rgb(215,215,235)" height="22" stroke="#ddd" stroke-width="0.6" width="30" x="780" y="172"/>
  <rect fill="rgb(89,89,109)" height="22" stroke="#ddd" stroke-width="0.6" width="30" x="810" y="172"/>
  <rect fill="rgb(109,109,129)" height="22" stroke="#ddd" stroke-width="0.6" width="30" x="120" y="194"/>
  <rect fill="rgb(122,122,142)" height="22" stroke="#ddd" stroke-width="0.6" width="30" x="150" y="194"/>
  <rect fill="rgb(113,113,133)" height="22" stroke="#ddd" stroke-width="0.6" width="30" x="180" y="194"/>
  <rect fill="rgb(126,126,146)" height="22" stroke="#ddd" stroke-width="0.6" width="30" x="210" y="194"/>
  <rect fill="rgb(87,87,107)" height="22" stroke="#ddd" stroke-width="0.6" width="30" x="240" y="194"/>
  <rect fill="rgb(99,99,119)" height="22" stroke="#ddd" stroke-width="0.6" width="30" x="270" y="194"/>
  <rect fill="rgb(108,108,128)" height="22" stroke="#ddd" stroke-width="0.6" width="30" x="300" y="194"/>
  <rect fill="rgb(124,124,144)" height="22" stroke="#ddd" stroke-width="0.6" width="30" x="330" y="194"/>
  <rect fill="rgb(111,111,131)" height="22" stroke="#ddd" stroke-width="0.6" width="30" x="360" y="194"/>
  <rect fill="rgb(117,117,137)" height="22" stroke="#ddd" stroke-width="0.6" width="30" x="390" y="194"/>
  <rect fill="rgb(127,127,147)" height="22" stroke="#ddd" stroke-width="0.6" width="30" x="420" y="194"/>
  <rect fill="rgb(129,129,149)" height="22" stroke="#ddd" stroke-width="0.6" width="30" x="450" y="194"/>
  <rect fill="rgb(97,97,117)" height="22" stroke="#ddd" stroke-width="0.6" width="30" x="480" y="194"/>
  <rect fill="rgb(118,118,138)" height="22" stroke="#ddd" stroke-width="0.6" width="30" x="510" y="194"/>
  <rect fill="rgb(89,89,109)" height="22" stroke="#ddd" stroke-width="0.6" width="30" x="540" y="194"/>
  <rect fill="rgb(125,125,145)" height="22" stroke="#ddd" stroke-width="0.6" width="30" x="570" y="194"/>
  <rect fill="rgb(118,118,138)" height="22" stroke="#ddd" stroke-width="0.6" width="30" x="600" y="194"/>
  <rect fill="rgb(125,125,145)" height="22" stroke="#ddd" stroke-width="0.6" width="30" x="630" y="194"/>
  <rect fill="rgb(122,122,142)" height="22" stroke="#ddd" stroke-width="0.6" width="30" x="660" y="194"/>
  <rect fill="rgb(106,106,126)" height="22" stroke="#ddd" stroke-width="0.6" width="30" x="690" y="194"/>
  <rect fill="rgb(123,123,143)" height="22" stroke="#ddd" stroke-width="0.6" width="30" x="720" y="194"/>
  <rect fill="rgb(91,91,111)" height="22" stroke="#ddd" stroke-width="0.6" width="30" x="750" y="194"/>
  <rect fill="rgb(120,120,140)" height="22" stroke="#ddd" stroke-width="0.6" width="30" x="780" y="194"/>
  <rect fill="rgb(131,131,151)" height="22" stroke="#ddd" stroke-width="0.6" width="30" x="810" y="194"/>
  <rect fill="rgb(85,85,105)" height="22" stroke="#ddd" stroke-width="0.6" width="30" x="120" y="216"/>
  <rect fill="rgb(105,105,125)" height="22" stroke="#ddd" stroke-width="0.6" width="30" x="150" y="216"/>
  <rect fill="rgb(124,124,144)" height="22" stroke="#ddd" stroke-width="0.6" width="30" x="180" y="216"/>
  <rect fill="rgb(121,121,141)" height="22" stroke="#ddd" stroke-width="0.6" width="30" x="210" y="216"/>
  <rect fill="rgb(111,111,131)" height="22" stroke="#ddd" stroke-width="0.6" width="30" x="240" y="216"/>
  <rect fill="rgb(97,97,117)" height="22" stroke="#ddd" stroke-width="0.6" width="30" x="270" y="216"/>
  <rect fill="rgb(85,85,105)" height="22" stroke="#ddd" stroke-width="0.6" width="30" x="300" y="216"/>
  <rect fill="rgb(131,131,151)" height="22" stroke="#ddd" stroke-width="0.6" width="30" x="330" y="216"/>
  <rect fill="rgb(125,125,145)" height="22" stroke="#ddd" stroke-width="0.6" width="30" x="360" y="216"/>
  <rect fill="rgb(106,106,126)" height="22" stroke="#ddd" stroke-width="0.6" width="30" x="390" y="216"/>
  <rect fill="rgb(102,102,122)" height="22" stroke="#ddd" stroke-width="0.6" width="30" x="420" y="216"/>
  <rect fill="rgb(96,96,116)" height="22" stroke="#ddd" stroke-width="0.6" width="30" x="450" y="216"/>
  <rect fill="rgb(120,120,140)" height="22" stroke="#ddd" stroke-width="0.6" width="30" x="480" y="216"/>
  <rect fill="rgb(87,87,107)" height="22" stroke="#ddd" stroke-width="0.6" width="30" x="510" y="216"/>
  <rect fill="rgb(107,107,127)" height="22" stroke="#ddd" stroke-width="0.6" width="30" x="540" y="216"/>
  <rect fill="rgb(124,124,144)" height="22" stroke="#ddd" stroke-width="0.6" width="30" x="570" y="216"/>
  <rect fill="rgb(119,119,139)" height="22" stroke="#ddd" stroke-width="0.6" width="30" x="600" y="216"/>
  <rect fill="rgb(90,90,110)" height="22" stroke="#ddd" stroke-width="0.6" width="30" x="630" y="216"/>
  <rect fill="rgb(91,91,111)" height="22" stroke="#ddd" stroke-width="0.6" width="30" x="660" y="216"/>
  <rect fill="rgb(108,108,128)" height="22" stroke="#ddd" stroke-width="0.6" width="30" x="690" y="216"/>
  <rect fill="rgb(123,123,143)" height="22" stroke="#ddd" stroke-width="0.6" width="30" x="720" y="216"/>
  <rect fill="rgb(87,87,107)" height="22" stroke="#ddd" stroke-width="0.6" width="30" x="750" y="216"/>
  <rect fill="rgb(130,130,150)" height="22" stroke="#ddd" stroke-width="0.6" width="30" x="780" y="216"/>
  <rect fill="rgb(88,88,108)" height="22" stroke="#ddd" stroke-width="0.6" width="30" x="810" y="216"/>
  <rect fill="rgb(101,101,121)" height="22" stroke="#ddd" stroke-width="0.6" width="30" x="120" y="238"/>
  <rect fill="rgb(120,120,140)" height="22" stroke="#ddd" stroke-width="0.6" width="30" x="150" y="238"/>
  <rect fill="rgb(94,94,114)" height="22" stroke="#ddd" stroke-width="0.6" width="30" x="180" y="238"/>
  <rect fill="rgb(85,85,105)" height="22" stroke="#ddd" stroke-width="0.6" width="30" x="210" y="238"/>
  <rect fill="rgb(116,116,136)" height="22" stroke="#ddd" stroke-width="0.6" width="30" x="240" y="238"/>
  <rect fill="rgb(118,118,138)" height="22" stroke="#ddd" stroke-width="0.6" width="30" x="270" y="238"/>
  <rect fill="rgb(102,102,122)" height="22" stroke="#ddd" stroke-width="0.6" width="30" x="300" y="238"/>
  <rect fill="rgb(107,107,127)" height="22" stroke="#ddd" stroke-width="0.6" width="30" x="330" y="238"/>
  <rect fill="rgb(93,93,113)" height="22" stroke="#ddd" stroke-width="0.6" width="30" x="360" y="238"/>
  <rect fill="rgb(103,103,123)" height="22" stroke="#ddd" stroke-width="0.6" width="30" x="390" y="238"/>
  <rect fill="rgb(112,112,132)" height="22" stroke="#ddd" stroke-width="0.6" width="30" x="420" y="238"/>
  <rect fill="rgb(95,95,115)" height="22" stroke="#ddd" stroke-width="0.6" width="30" x="450" y="238"/>
  <rect fill="rgb(89,89,109)" height="22" stroke="#ddd" stroke-width="0.6" width="30" x="480" y="238"/>
  <rect fill="rgb(96,96,116)" height="22" stroke="#ddd" stroke-width="0.6" width="30" x="510" y="238"/>
  <rect fill="rgb(121,121,141)" height="22" stroke="#ddd" stroke-width="0.6" width="30" x="540" y="238"/>
  <rect fill="rgb(106,106,126)" height="22" stroke="#ddd" stroke-width="0.6" width="30" x="570" y="238"/>
  <rect fill="rgb(95,95,115)" height="22" stroke="#ddd" stroke-width="0.6" width="30" x="600" y="238"/>
  <rect fill="rgb(123,123,143)" height="22" stroke="#ddd" stroke-width="0.6" width="30" x="630" y="238"/>
  <rect fill="rgb(106,106,126)" height="22" stroke="#ddd" stroke-width="0.6" width="30" x="660" y="238"/>
  <rect fill="rgb(116,116,136)" height="22" stroke="#ddd" stroke-width="0.6" width="30" x="690" y="238"/>
  <rect fill="rgb(113,113,133)" height="22" stroke="#ddd" stroke-width="0.6" width="30" x="720" y="238"/>
  <rect fill="rgb(131,131,151)" height="22" stroke="#ddd" stroke-width="0.6" width="30" x="750" y="238"/>
  <rect fill="rgb(114,114,134)" height="22" stroke="#ddd" stroke-width="0.6" width="30" x="780" y="238"/>
  <rect fill="rgb(114,114,134)" height="22" stroke="#ddd" stroke-width="0.6" width="30" x="810" y="238"/>
  <rect fill="rgb(140,140,160)" height="22" stroke="#ddd" stroke-width="0.6" width="30" x="120" y="260"/>
  <rect fill="rgb(178,178,198)" height="22" stroke="#ddd" stroke-width="0.6" width="30" x="150" y="260"/>
  <rect fill="rgb(236,236,255)" height="22" stroke="#ddd" stroke-width="0.6" width="30" x="180" y="260"/>
  <rect fill="rgb(185,185,205)" height="22" stroke="#ddd" stroke-width="0.6" width="30" x="210" y="260"/>
  <rect fill="rgb(170,170,190)" height="22" stroke="#ddd" stroke-width="0.6" width="30" x="240" y="260"/>
  <rect fill="rgb(109,109,129)" height="22" stroke="#ddd" stroke-width="0.6" width="30" x="270" y="260"/>
  <rect fill="rgb(205,205,225)" height="22" stroke="#ddd" stroke-width="0.6" width="30" x="300" y="260"/>
  <rect fill="rgb(156,156,176)" height="22" stroke="#ddd" stroke-width="0.6" width="30" x="330" y="260"/>
  <rect fill="rgb(243,243,255)" height="22" stroke="#ddd" stroke-width="0.6" width="30" x="360" y="260"/>
  <rect fill="rgb(217,217,237)" height="22" stroke="#ddd" stroke-width="0.6" width="30" x="390" y="260"/>
  <rect fill="rgb(244,244,255)" height="22" stroke="#ddd" stroke-width="0.6" width="30" x="420" y="260"/>
  <rect fill="rgb(171,171,191)" height="22" stroke="#ddd" stroke-width="0.6" width="30" x="450" y="260"/>
  <rect fill="rgb(211,211,231)" height="22" stroke="#ddd" stroke-width="0.6" width="30" x="480" y="260"/>
  <rect fill="rgb(206,206,226)" height="22" stroke="#ddd" stroke-width="0.6" width="30" x="510" y="260"/>
  <rect fill="rgb(96,96,116)" height="22" stroke="#ddd" stroke-width="0.6" width="30" x="540" y="260"/>
  <rect fill="rgb(122,122,142)" height="22" stroke="#ddd" stroke-width="0.6" width="30" x="570" y="260"/>
  <rect fill="rgb(240,240,255)" height="22" stroke="#ddd" stroke-width="0.6" width="30" x="600" y="260"/>
  <rect fill="rgb(175,175,195)" height="22" stroke="#ddd" stroke-width="0.6" width="30" x="630" y="260"/>
  <rect fill="rgb(208,208,228)" height="22" stroke="#ddd" stroke-width="0.6" width="30" x="660" y="260"/>
  <rect fill="rgb(116,116,136)" height="22" stroke="#ddd" stroke-width="0.6" width="30" x="690" y="260"/>
  <rect fill="rgb(159,159,179)" height="22" stroke="#ddd" stroke-width="0.6" width="30" x="720" y="260"/>
  <rect fill="rgb(213,213,233)" height="22" stroke="#ddd" stroke-width="0.6" width="30" x="750" y="260"/>
  <rect fill="rgb(176,176,196)" height="22" stroke="#ddd" stroke-width="0.6" width="30" x="780" y="260"/>
  <rect fill="rgb(111,111,131)" height="22" stroke="#ddd" stroke-width="0.6" width="30" x="810" y="260"/>
  <rect fill="rgb(238,238,255)" height="22" stroke="#ddd" stroke-width="0.6" width="30" x="120" y="282"/>
  <rect fill="rgb(243,243,255)" height="22" stroke="#ddd" stroke-width="0.6" width="30" x="150" y="282"/>
  <rect fill="rgb(206,206,226)" height="22" stroke="#ddd" stroke-width="0.6" width="30" x="180" y="282"/>
  <rect fill="rgb(216,216,236)" height="22" stroke="#ddd" stroke-width="0.6" width="30" x="210" y="282"/>
  <rect fill="rgb(240,240,255)" height="22" stroke="#ddd" stroke-width="0.6" width="30" x="240" y="282"/>
  <rect fill="rgb(160,160,180)" height="22" stroke="#ddd" stroke-width="0.6" width="30" x="270" y="282"/>
  <rect fill="rgb(136,136,156)" height="22" stroke="#ddd" stroke-width="0.6" width="30" x="300" y="282"/>
  <rect fill="rgb(174,174,194)" height="22" stroke="#ddd" stroke-width="0.6" width="30" x="330" y="282"/>
  <rect fill="rgb(142,142,162)" height="22" stroke="#ddd" stroke-width="0.6" width="30" x="360" y="282"/>
  <rect fill="rgb(234,234,254)" height="22" stroke="#ddd" stroke-width="0.6" width="30" x="390" y="282"/>
  <rect fill="rgb(120,120,140)" height="22" stroke="#ddd" stroke-width="0.6" width="30" x="420" y="282"/>
  <rect fill="rgb(157,157,177)" height="22" stroke="#ddd" stroke-width="0.6" width="30" x="450" y="282"/>
  <rect fill="rgb(113,113,133)" height="22" stroke="#ddd" stroke-width="0.6" width="30" x="480" y="282"/>
  <rect fill="rgb(188,188,208)" height="22" stroke="#ddd" stroke-width="0.6" width="30" x="510" y="282"/>
  <rect fill="rgb(130,130,150)" height="22" stroke="#ddd" stroke-width="0.6" width="30" x="540" y="282"/>
  <rect fill="rgb(91,91,111)" height="22" stroke="#ddd" stroke-width="0.6" width="30" x="570" y="282"/>
  <rect fill="rgb(231,231,251)" height="22" stroke="#ddd" stroke-width="0.6" width="30" x="600" y="282"/>
  <rect fill="rgb(86,86,106)" height="22" stroke="#ddd" stroke-width="0.6" width="30" x="630" y="282"/>
  <rect fill="rgb(228,228,248)" height="22" stroke="#ddd" stroke-width="0.6" width="30" x="660" y="282"/>
  <rect fill="rgb(212,212,232)" height="22" stroke="#ddd" stroke-width="0.6" width="30" x="690" y="282"/>
  <rect fill="rgb(102,102,122)" height="22" stroke="#ddd" stroke-width="0.6" width="30" x="720" y="282"/>
  <rect fill="rgb(206,206,226)" height="22" stroke="#ddd" stroke-width="0.6" width="30" x="750" y="282"/>
  <rect fill="rgb(223,223,243)" height="22" stroke="#ddd" stroke-width="0.6" width="30" x="780" y="282"/>
  <rect fill="rgb(137,137,157)" height="22" stroke="#ddd" stroke-width="0.6" width="30" x="810" y="282"/>
  <rect fill="rgb(191,191,211)" height="22" stroke="#ddd" stroke-width="0.6" width="30" x="120" y="304"/>
  <rect fill="rgb(91,91,111)" height="22" stroke="#ddd" stroke-width="0.6" width="30" x="150" y="304"/>
  <rect fill="rgb(236,236,255)" height="22" stroke="#ddd" stroke-width="0.6" width="30" x="180" y="304"/>
  <rect fill="rgb(158,158,178)" height="22" stroke="#ddd" stroke-width="0.6" width="30" x="210" y="304"/>
  <rect fill="rgb(189,189,209)" height="22" stroke="#ddd" stroke-width="0.6" width="30" x="240" y="304"/>
  <rect fill="rgb(159,159,179)" height="22" stroke="#ddd" stroke-width="0.6" width="30" x="270" y="304"/>
  <rect fill="rgb(87,87,107)" height="22" stroke="#ddd" stroke-width="0.6" width="30" x="300" y="304"/>
  <rect fill="rgb(200,200,220)" height="22" stroke="#ddd" stroke-width="0.6" width="30" x="330" y="304"/>
  <rect fill="rgb(103,103,123)" height="22" stroke="#ddd" stroke-width="0.6" width="30" x="360" y="304"/>
  <rect fill="rgb(161,161,181)" height="22" stroke="#ddd" stroke-width="0.6" width="30" x="390" y="304"/>
  <rect fill="rgb(134,134,154)" height="22" stroke="#ddd" stroke-width="0.6" width="30" x="420" y="304"/>
  <rect fill="rgb(149,149,169)" height="22" stroke="#ddd" stroke-width="0.6" width="30" x="450" y="304"/>
  <rect fill="rgb(176,176,196)" height="22" stroke="#ddd" stroke-width="0.6" width="30" x="480" y="304"/>
  <rect fill="rgb(96,96,116)" height="22" stroke="#ddd" stroke-width="0.6" width="30" x="510" y="304"/>
  <rect fill="rgb(207,207,227)" height="22" stroke="#ddd" stroke-width="0.6" width="30" x="540" y="304"/>
  <rect fill="rgb(177,177,197)" height="22" stroke="#ddd" stroke-width="0.6" width="30" x="570" y="304"/>
  <rect fill="rgb(139,139,159)" height="22" stroke="#ddd" stroke-width="0.6" width="30" x="600" y="304"/>
  <rect fill="rgb(174,174,194)" height="22" stroke="#ddd" stroke-width="0.6" width="30" x="630" y="304"/>
  <rect fill="rgb(144,144,164)" height="22" stroke="#ddd" stroke-width="0.6" width="30" x="660" y="304"/>
  <rect fill="rgb(193,193,213)" height="22" stroke="#ddd" stroke-width="0.6" width="30" x="690" y="304"/>
  <rect fill="rgb(219,219,239)" height="22" stroke="#ddd" stroke-width="0.6" width="30" x="720" y="304"/>
  <rect fill="rgb(241,241,255)" height="22" stroke="#ddd" stroke-width="0.6" width="30" x="750" y="304"/>
  <rect fill="rgb(147,147,167)" height="22" stroke="#ddd" stroke-width="0.6" width="30" x="780" y="304"/>
  <rect fill="rgb(174,174,194)" height="22" stroke="#ddd" stroke-width="0.6" width="30" x="810" y="304"/>
  <rect fill="rgb(118,118,138)" height="22" stroke="#ddd" stroke-width="0.6" width="30" x="120" y="326"/>
  <rect fill="rgb(221,221,241)" height="22" stroke="#ddd" stroke-width="0.6" width="30" x="150" y="326"/>
  <rect fill="rgb(92,92,112)" height="22" stroke="#ddd" stroke-width="0.6" width="30" x="180" y="326"/>
  <rect fill="rgb(99,99,119)" height="22" stroke="#ddd" stroke-width="0.6" width="30" x="210" y="326"/>
  <rect fill="rgb(128,128,148)" height="22" stroke="#ddd" stroke-width="0.6" width="30" x="240" y="326"/>
  <rect fill="rgb(212,212,232)" height="22" stroke="#ddd" stroke-width="0.6" width="30" x="270" y="326"/>
  <rect fill="rgb(143,143,163)" height="22" stroke="#ddd" stroke-width="0.6" width="30" x="300" y="326"/>
  <rect fill="rgb(88,88,108)" height="22" stroke="#ddd" stroke-width="0.6" width="30" x="330" y="326"/>
  <rect fill="rgb(123,123,143)" height="22" stroke="#ddd" stroke-width="0.6" width="30" x="360" y="326"/>
  <rect fill="rgb(94,94,114)" height="22" stroke="#ddd" stroke-width="0.6" width="30" x="390" y="326"/>
  <rect fill="rgb(192,192,212)" height="22" stroke="#ddd" stroke-width="0.6" width="30" x="420" y="326"/>
  <rect fill="rgb(161,161,181)" height="22" stroke="#ddd" stroke-width="0.6" width="30" x="450" y="326"/>
  <rect fill="rgb(197,197,217)" height="22" stroke="#ddd" stroke-width="0.6" width="30" x="480" y="326"/>
  <rect fill="rgb(142,142,162)" height="22" stroke="#ddd" stroke-width="0.6" width="30" x="510" y="326"/>
  <rect fill="rgb(150,150,170)" height="22" stroke="#ddd" stroke-width="0.6" width="30" x="540" y="326"/>
  <rect fill="rgb(203,203,223)" height="22" stroke="#ddd" stroke-width="0.6" width="30" x="570" y="326"/>
  <rect fill="rgb(240,240,255)" height="22" stroke="#ddd" stroke-width="0.6" width="30" x="600" y="326"/>
  <rect fill="rgb(215,215,235)" height="22" stroke="#ddd" stroke-width="0.6" width="30" x="630" y="326"/>
  <rect fill="rgb(196,196,216)" height="22" stroke="#ddd" stroke-width="0.6" width="30" x="660" y="326"/>
  <rect fill="rgb(195,195,215)" height="22" stroke="#ddd" stroke-width="0.6" width="30" x="690" y="326"/>
  <rect fill="rgb(109,109,129)" height="22" stroke="#ddd" stroke-width="0.6" width="30" x="720" y="326"/>
  <rect fill="rgb(190,190,210)" height="22" stroke="#ddd" stroke-width="0.6" width="30" x="750" y="326"/>
  <rect fill="rgb(98,98,118)" height="22" stroke="#ddd" stroke-width="0.6" width="30" x="780" y="326"/>
  <rect fill="rgb(230,230,250)" height="22" stroke="#ddd" stroke-width="0.6" width="30" x="810" y="326"/>
  <rect fill="rgb(203,203,223)" height="22" stroke="#ddd" stroke-width="0.6" width="30" x="120" y="348"/>
  <rect fill="rgb(176,176,196)" height="22" stroke="#ddd" stroke-width="0.6" width="30" x="150" y="348"/>
  <rect fill="rgb(211,211,231)" height="22" stroke="#ddd" stroke-width="0.6" width="30" x="180" y="348"/>
  <rect fill="rgb(198,198,218)" height="22" stroke="#ddd" stroke-width="0.6" width="30" x="210" y="348"/>
  <rect fill="rgb(126,126,146)" height="22" stroke="#ddd" stroke-width="0.6" width="30" x="240" y="348"/>
  <rect fill="rgb(152,152,172)" height="22" stroke="#ddd" stroke-width="0.6" width="30" x="270" y="348"/>
  <rect fill="rgb(122,122,142)" height="22" stroke="#ddd" stroke-width="0.6" width="30" x="300" y="348"/>
  <rect fill="rgb(185,185,205)" height="22" stroke="#ddd" stroke-width="0.6" width="30" x="330" y="348"/>
  <rect fill="rgb(105,105,125)" height="22" stroke="#ddd" stroke-width="0.6" width="30" x="360" y="348"/>
  <rect fill="rgb(127,127,147)" height="22" stroke="#ddd" stroke-width="0.6" width="30" x="390" y="348"/>
  <rect fill="rgb(213,213,233)" height="22" stroke="#ddd" stroke-width="0.6" width="30" x="420" y="348"/>
  <rect fill="rgb(132,132,152)" height="22" stroke="#ddd" stroke-width="0.6" width="30" x="450" y="348"/>
  <rect fill="rgb(140,140,160)" height="22" stroke="#ddd" stroke-width="0.6" width="30" x="480" y="348"/>
  <rect fill="rgb(238,238,255)" height="22" stroke="#ddd" stroke-width="0.6" width="30" x="510" y="348"/>
  <rect fill="rgb(242,242,255)" height="22" stroke="#ddd" stroke-width="0.6" width="30" x="540" y="348"/>
  <rect fill="rgb(180,180,200)" height="22" stroke="#ddd" stroke-width="0.6" width="30" x="570" y="348"/>
  <rect fill="rgb(234,234,254)" height="22" stroke="#ddd" stroke-width="0.6" width="30" x="600" y="348"/>
  <rect fill="rgb(220,220,240)" height="22" stroke="#ddd" stroke-width="0.6" width="30" x="630" y="348"/>
  <rect fill="rgb(108,108,128)" height="22" stroke="#ddd" stroke-width="0.6" width="30" x="660" y="348"/>
  <rect fill="rgb(147,147,167)" height="22" stroke="#ddd" stroke-width="0.6" width="30" x="690" y="348"/>
  <rect fill="rgb(222,222,242)" height="22" stroke="#ddd" stroke-width="0.6" width="30" x="720" y="348"/>
  <rect fill="rgb(156,156,176)" height="22" stroke="#ddd" stroke-width="0.6" width="30" x="750" y="348"/>
  <rect fill="rgb(233,233,253)" height="22" stroke="#ddd" stroke-width="0.6" width="30" x="780" y="348"/>
  <rect fill="rgb(179,179,199)" height="22" stroke="#ddd" stroke-width="0.6" width="30" x="810" y="348"/>
  <rect fill="rgb(123,123,143)" height="22" stroke="#ddd" stroke-width="0.6" width="30" x="120" y="370"/>
  <rect fill="rgb(155,155,175)" height="22" stroke="#ddd" stroke-width="0.6" width="30" x="150" y="370"/>
  <rect fill="rgb(214,214,234)" height="22" stroke="#ddd" stroke-width="0.6" width="30" x="180" y="370"/>
  <rect fill="rgb(175,175,195)" height="22" stroke="#ddd" stroke-width="0.6" width="30" x="210" y="370"/>
  <rect fill="rgb(120,120,140)" height="22" stroke="#ddd" stroke-width="0.6" width="30" x="240" y="370"/>
  <rect fill="rgb(169,169,189)" height="22" stroke="#ddd" stroke-width="0.6" width="30" x="270" y="370"/>
  <rect fill="rgb(239,239,255)" height="22" stroke="#ddd" stroke-width="0.6" width="30" x="300" y="370"/>
  <rect fill="rgb(233,233,253)" height="22" stroke="#ddd" stroke-width="0.6" width="30" x="330" y="370"/>
  <rect fill="rgb(114,114,134)" height="22" stroke="#ddd" stroke-width="0.6" width="30" x="360" y="370"/>
  <rect fill="rgb(197,197,217)" height="22" stroke="#ddd" stroke-width="0.6" width="30" x="390" y="370"/>
  <rect fill="rgb(103,103,123)" height="22" stroke="#ddd" stroke-width="0.6" width="30" x="420" y="370"/>
  <rect fill="rgb(222,222,242)" height="22" stroke="#ddd" stroke-width="0.6" width="30" x="450" y="370"/>
  <rect fill="rgb(85,85,105)" height="22" stroke="#ddd" stroke-width="0.6" width="30" x="480" y="370"/>
  <rect fill="rgb(164,164,184)" height="22" stroke="#ddd" stroke-width="0.6" width="30" x="510" y="370"/>
  <rect fill="rgb(230,230,250)" height="22" stroke="#ddd" stroke-width="0.6" width="30" x="540" y="370"/>
  <rect fill="rgb(170,170,190)" height="22" stroke="#ddd" stroke-width="0.6" width="30" x="570" y="370"/>
  <rect fill="rgb(219,219,239)" height="22" stroke="#ddd" stroke-width="0.6" width="30" x="600" y="370"/>
  <rect fill="rgb(192,192,212)" height="22" stroke="#ddd" stroke-width="0.6" width="30" x="630" y="370"/>
  <rect fill="rgb(147,147,167)" height="22" stroke="#ddd" stroke-width="0.6" width="30" x="660" y="370"/>
  <rect fill="rgb(215,215,235)" height="22" stroke="#ddd" stroke-width="0.6" width="30" x="690" y="370"/>
  <rect fill="rgb(122,122,142)" height="22" stroke="#ddd" stroke-width="0.6" width="30" x="720" y="370"/>
  <rect fill="rgb(240,240,255)" height="22" stroke="#ddd" stroke-width="0.6" width="30" x="750" y="370"/>
  <rect fill="rgb(227,227,247)" height="22" stroke="#ddd" stroke-width="0.6" width="30" x="780" y="370"/>
  <rect fill="rgb(93,93,113)" height="22" stroke="#ddd" stroke-width="0.6" width="30" x="810" y="370"/>
  <rect fill="rgb(233,233,253)" height="22" stroke="#ddd" stroke-width="0.6" width="30" x="120" y="392"/>
  <rect fill="rgb(187,187,207)" height="22" stroke="#ddd" stroke-width="0.6" width="30" x="150" y="392"/>
  <rect fill="rgb(172,172,192)" height="22" stroke="#ddd" stroke-width="0.6" width="30" x="180" y="392"/>
  <rect fill="rgb(112,112,132)" height="22" stroke="#ddd" stroke-width="0.6" width="30" x="210" y="392"/>
  <rect fill="rgb(177,177,197)" height="22" stroke="#ddd" stroke-width="0.6" width="30" x="240" y="392"/>
  <rect fill="rgb(111,111,131)" height="22" stroke="#ddd" stroke-width="0.6" width="30" x="270" y="392"/>
  <rect fill="rgb(86,86,106)" height="22" stroke="#ddd" stroke-width="0.6" width="30" x="300" y="392"/>
  <rect fill="rgb(200,200,220)" height="22" stroke="#ddd" stroke-width="0.6" width="30" x="330" y="392"/>
  <rect fill="rgb(163,163,183)" height="22" stroke="#ddd" stroke-width="0.6" width="30" x="360" y="392"/>
  <rect fill="rgb(160,160,180)" height="22" stroke="#ddd" stroke-width="0.6" width="30" x="390" y="392"/>
  <rect fill="rgb(136,136,156)" height="22" stroke="#ddd" stroke-width="0.6" width="30" x="420" y="392"/>
  <rect fill="rgb(133,133,153)" height="22" stroke="#ddd" stroke-width="0.6" width="30" x="450" y="392"/>
  <rect fill="rgb(164,164,184)" height="22" stroke="#ddd" stroke-width="0.6" width="30" x="480" y="392"/>
  <rect fill="rgb(124,124,144)" height="22" stroke="#ddd" stroke-width="0.6" width="30" x="510" y="392"/>
  <rect fill="rgb(211,211,231)" height="22" stroke="#ddd" stroke-width="0.6" width="30" x="540" y="392"/>
  <rect fill="rgb(86,86,106)" height="22" stroke="#ddd" stroke-width="0.6" width="30" x="570" y="392"/>
  <rect fill="rgb(148,148,168)" height="22" stroke="#ddd" stroke-width="0.6" width="30" x="600" y="392"/>
  <rect fill="rgb(202,202,222)" height="22" stroke="#ddd" stroke-width="0.6" width="30" x="630" y="392"/>
  <rect fill="rgb(129,129,149)" height="22" stroke="#ddd" stroke-width="0.6" width="30" x="660" y="392"/>
  <rect fill="rgb(118,118,138)" height="22" stroke="#ddd" stroke-width="0.6" width="30" x="690" y="392"/>
  <rect fill="rgb(117,117,137)" height="22" stroke="#ddd" stroke-width="0.6" width="30" x="720" y="392"/>
  <rect fill="rgb(156,156,176)" height="22" stroke="#ddd" stroke-width="0.6" width="30" x="750" y="392"/>
  <rect fill="rgb(94,94,114)" height="22" stroke="#ddd" stroke-width="0.6" width="30" x="780" y="392"/>
  <rect fill="rgb(227,227,247)" height="22" stroke="#ddd" stroke-width="0.6" width="30" x="810" y="392"/>
  <rect fill="rgb(118,118,138)" height="22" stroke="#ddd" stroke-width="0.6" width="30" x="120" y="414"/>
  <rect fill="rgb(158,158,178)" height="22" stroke="#ddd" stroke-width="0.6" width="30" x="150" y="414"/>
  <rect fill="rgb(122,122,142)" height="22" stroke="#ddd" stroke-width="0.6" width="30" x="180" y="414"/>
  <rect fill="rgb(101,101,121)" height="22" stroke="#ddd" stroke-width="0.6" width="30" x="210" y="414"/>
  <rect fill="rgb(124,124,144)" height="22" stroke="#ddd" stroke-width="0.6" width="30" x="240" y="414"/>
  <rect fill="rgb(243,243,255)" height="22" stroke="#ddd" stroke-width="0.6" width="30" x="270" y="414"/>
  <rect fill="rgb(110,110,130)" height="22" stroke="#ddd" stroke-width="0.6" width="30" x="300" y="414"/>
  <rect fill="rgb(169,169,189)" height="22" stroke="#ddd" stroke-width="0.6" width="30" x="330" y="414"/>
  <rect fill="rgb(163,163,183)" height="22" stroke="#ddd" stroke-width="0.6" width="30" x="360" y="414"/>
  <rect fill="rgb(131,131,151)" height="22" stroke="#ddd" stroke-width="0.6" width="30" x="390" y="414"/>
  <rect fill="rgb(223,223,243)" height="22" stroke="#ddd" stroke-width="0.6" width="30" x="420" y="414"/>
  <rect fill="rgb(158,158,178)" height="22" stroke="#ddd" stroke-width="0.6" width="30" x="450" y="414"/>
  <rect fill="rgb(125,125,145)" height="22" stroke="#ddd" stroke-width="0.6" width="30" x="480" y="414"/>
  <rect fill="rgb(110,110,130)" height="22" stroke="#ddd" stroke-width="0.6" width="30" x="510" y="414"/>
  <rect fill="rgb(110,110,130)" height="22" stroke="#ddd" stroke-width="0.6" width="30" x="540" y="414"/>
  <rect fill="rgb(124,124,144)" height="22" stroke="#ddd" stroke-width="0.6" width="30" x="570" y="414"/>
  <rect fill="rgb(182,182,202)" height="22" stroke="#ddd" stroke-width="0.6" width="30" x="600" y="414"/>
  <rect fill="rgb(109,109,129)" height="22" stroke="#ddd" stroke-width="0.6" width="30" x="630" y="414"/>
  <rect fill="rgb(111,111,131)" height="22" stroke="#ddd" stroke-width="0.6" width="30" x="660" y="414"/>
  <rect fill="rgb(216,216,236)" height="22" stroke="#ddd" stroke-width="0.6" width="30" x="690" y="414"/>
  <rect fill="rgb(154,154,174)" height="22" stroke="#ddd" stroke-width="0.6" width="30" x="720" y="414"/>
  <rect fill="rgb(101,101,121)" height="22" stroke="#ddd" stroke-width="0.6" width="30" x="750" y="414"/>
  <rect fill="rgb(88,88,108)" height="22" stroke="#ddd" stroke-width="0.6" width="30" x="780" y="414"/>
  <rect fill="rgb(134,134,154)" height="22" stroke="#ddd" stroke-width="0.6" width="30" x="810" y="414"/>
  <rect fill="rgb(97,97,117)" height="22" stroke="#ddd" stroke-width="0.6" width="30" x="120" y="436"/>
  <rect fill="rgb(93,93,113)" height="22" stroke="#ddd" stroke-width="0.6" width="30" x="150" y="436"/>
  <rect fill="rgb(155,155,175)" height="22" stroke="#ddd" stroke-width="0.6" width="30" x="180" y="436"/>
  <rect fill="rgb(147,147,167)" height="22" stroke="#ddd" stroke-width="0.6" width="30" x="210" y="436"/>
  <rect fill="rgb(185,185,205)" height="22" stroke="#ddd" stroke-width="0.6" width="30" x="240" y="436"/>
  <rect fill="rgb(89,89,109)" height="22" stroke="#ddd" stroke-width="0.6" width="30" x="270" y="436"/>
  <rect fill="rgb(133,133,153)" height="22" stroke="#ddd" stroke-width="0.6" width="30" x="300" y="436"/>
  <rect fill="rgb(200,200,220)" height="22" stroke="#ddd" stroke-width="0.6" width="30" x="330" y="436"/>
  <rect fill="rgb(149,149,169)" height="22" stroke="#ddd" stroke-width="0.6" width="30" x="360" y="436"/>
  <rect fill="rgb(93,93,113)" height="22" stroke="#ddd" stroke-width="0.6" width="30" x="390" y="436"/>
  <rect fill="rgb(198,198,218)" height="22" stroke="#ddd" stroke-width="0.6" width="30" x="420" y="436"/>
  <rect fill="rgb(181,181,201)" height="22" stroke="#ddd" stroke-width="0.6" width="30" x="450" y="436"/>
  <rect fill="rgb(115,115,135)" height="22" stroke="#ddd" stroke-width="0.6" width="30" x="480" y="436"/>
  <rect fill="rgb(239,239,255)" height="22" stroke="#ddd" stroke-width="0.6" width="30" x="510" y="436"/>
  <rect fill="rgb(232,232,252)" height="22" stroke="#ddd" stroke-width="0.6" width="30" x="540" y="436"/>
  <rect fill="rgb(106,106,126)" height="22" stroke="#ddd" stroke-width="0.6" width="30" x="570" y="436"/>
  <rect fill="rgb(124,124,144)" height="22" stroke="#ddd" stroke-width="0.6" width="30" x="600" y="436"/>
  <rect fill="rgb(236,236,255)" height="22" stroke="#ddd" stroke-width="0.6" width="30" x="630" y="436"/>
  <rect fill="rgb(118,118,138)" height="22" stroke="#ddd" stroke-width="0.6" width="30" x="660" y="436"/>
  <rect fill="rgb(128,128,148)" height="22" stroke="#ddd" stroke-width="0.6" width="30" x="690" y="436"/>
  <rect fill="rgb(144,144,164)" height="22" stroke="#ddd" stroke-width="0.6" width="30" x="720" y="436"/>
  <rect fill="rgb(117,117,137)" height="22" stroke="#ddd" stroke-width="0.6" width="30" x="750" y="436"/>
  <rect fill="rgb(211,211,231)" height="22" stroke="#ddd" stroke-width="0.6" width="30" x="780" y="436"/>
  <rect fill="rgb(208,208,228)" height="22" stroke="#ddd" stroke-width="0.6" width="30" x="810" y="436"/>
  <rect fill="rgb(120,120,140)" height="22" stroke="#ddd" stroke-width="0.6" width="30" x="120" y="458"/>
  <rect fill="rgb(150,150,170)" height="22" stroke="#ddd" stroke-width="0.6" width="30" x="150" y="458"/>
  <rect fill="rgb(137,137,157)" height="22" stroke="#ddd" stroke-width="0.6" width="30" x="180" y="458"/>
  <rect fill="rgb(134,134,154)" height="22" stroke="#ddd" stroke-width="0.6" width="30" x="210" y="458"/>
  <rect fill="rgb(99,99,119)" height="22" stroke="#ddd" stroke-width="0.6" width="30" x="240" y="458"/>
  <rect fill="rgb(227,227,247)" height="22" stroke="#ddd" stroke-width="0.6" width="30" x="270" y="458"/>
  <rect fill="rgb(209,209,229)" height="22" stroke="#ddd" stroke-width="0.6" width="30" x="300" y="458"/>
  <rect fill="rgb(137,137,157)" height="22" stroke="#ddd" stroke-width="0.6" width="30" x="330" y="458"/>
  <rect fill="rgb(171,171,191)" height="22" stroke="#ddd" stroke-width="0.6" width="30" x="360" y="458"/>
  <rect fill="rgb(209,209,229)" height="22" stroke="#ddd" stroke-width="0.6" width="30" x="390" y="458"/>
  <rect fill="rgb(223,223,243)" height="22" stroke="#ddd" stroke-width="0.6" width="30" x="420" y="458"/>
  <rect fill="rgb(185,185,205)" height="22" stroke="#ddd" stroke-width="0.6" width="30" x="450" y="458"/>
  <rect fill="rgb(149,149,169)" height="22" stroke="#ddd" stroke-width="0.6" width="30" x="480" y="458"/>
  <rect fill="rgb(182,182,202)" height="22" stroke="#ddd" stroke-width="0.6" width="30" x="510" y="458"/>
  <rect fill="rgb(90,90,110)" height="22" stroke="#ddd" stroke-width="0.6" width="30" x="540" y="458"/>
  <rect fill="rgb(224,224,244)" height="22" stroke="#ddd" stroke-width="0.6" width="30" x="570" y="458"/>
  <rect fill="rgb(210,210,230)" height="22" stroke="#ddd" stroke-width="0.6" width="30" x="600" y="458"/>
  <rect fill="rgb(223,223,243)" height="22" stroke="#ddd" stroke-width="0.6" width="30" x="630" y="458"/>
  <rect fill="rgb(171,171,191)" height="22" stroke="#ddd" stroke-width="0.6" width="30" x="660" y="458"/>
  <rect fill="rgb(91,91,111)" height="22" stroke="#ddd" stroke-width="0.6" width="30" x="690" y="458"/>
  <rect fill="rgb(124,124,144)" height="22" stroke="#ddd" stroke-width="0.6" width="30" x="720" y="458"/>
  <rect fill="rgb(139,139,159)" height="22" stroke="#ddd" stroke-width="0.6" width="30" x="750" y="458"/>
  <rect fill="rgb(117,117,137)" height="22" stroke="#ddd" stroke-width="0.6" width="30" x="780" y="458"/>
  <rect fill="rgb(125,125,145)" height="22" stroke="#ddd" stroke-width="0.6" width="30" x="810" y="458"/>
  <rect fill="rgb(242,242,255)" height="22" stroke="#ddd" stroke-width="0.6" width="30" x="120" y="480"/>
  <rect fill="rgb(205,205,225)" height="22" stroke="#ddd" stroke-width="0.6" width="30" x="150" y="480"/>
  <rect fill="rgb(235,235,255)" height="22" stroke="#ddd" stroke-width="0.6" width="30" x="180" y="480"/>
  <rect fill="rgb(119,119,139)" height="22" stroke="#ddd" stroke-width="0.6" width="30" x="210" y="480"/>
  <rect fill="rgb(150,150,170)" height="22" stroke="#ddd" stroke-width="0.6" width="30" x="240" y="480"/>
  <rect fill="rgb(117,117,137)" height="22" stroke="#ddd" stroke-width="0.6" width="30" x="270" y="480"/>
  <rect fill="rgb(93,93,113)" height="22" stroke="#ddd" stroke-width="0.6" width="30" x="300" y="480"/>
  <rect fill="rgb(102,102,122)" height="22" stroke="#ddd" stroke-width="0.6" width="30" x="330" y="480"/>
  <rect fill="rgb(216,216,236)" height="22" stroke="#ddd" stroke-width="0.6" width="30" x="360" y="480"/>
  <rect fill="rgb(176,176,196)" height="22" stroke="#ddd" stroke-width="0.6" width="30" x="390" y="480"/>
  <rect fill="rgb(157,157,177)" height="22" stroke="#ddd" stroke-width="0.6" width="30" x="420" y="480"/>
  <rect fill="rgb(157,157,177)" height="22" stroke="#ddd" stroke-width="0.6" width="30" x="450" y="480"/>
  <rect fill="rgb(210,210,230)" height="22" stroke="#ddd" stroke-width="0.6" width="30" x="480" y="480"/>
  <rect fill="rgb(159,159,179)" height="22" stroke="#ddd" stroke-width="0.6" width="30" x="510" y="480"/>
  <rect fill="rgb(240,240,255)" height="22" stroke="#ddd" stroke-width="0.6" width="30" x="540" y="480"/>
  <rect fill="rgb(186,186,206)" height="22" stroke="#ddd" stroke-width="0.6" width="30" x="570" y="480"/>
  <rect fill="rgb(125,125,145)" height="22" stroke="#ddd" stroke-width="0.6" width="30" x="600" y="480"/>
  <rect fill="rgb(194,194,214)" height="22" stroke="#ddd" stroke-width="0.6" width="30" x="630" y="480"/>
  <rect fill="rgb(171,171,191)" height="22" stroke="#ddd" stroke-width="0.6" width="30" x="660" y="480"/>
  <rect fill="rgb(211,211,231)" height="22" stroke="#ddd" stroke-width="0.6" width="30" x="690" y="480"/>
  <rect fill="rgb(124,124,144)" height="22" stroke="#ddd" stroke-width="0.6" width="30" x="720" y="480"/>
  <rect fill="rgb(126,126,146)" height="22" stroke="#ddd" stroke-width="0.6" width="30" x="750" y="480"/>
  <rect fill="rgb(148,148,168)" height="22" stroke="#ddd" stroke-width="0.6" width="30" x="780" y="480"/>
  <rect fill="rgb(204,204,224)" height="22" stroke="#ddd" stroke-width="0.6" width="30" x="810" y="480"/>
  <rect fill="rgb(243,243,255)" height="22" stroke="#ddd" stroke-width="0.6" width="30" x="120" y="502"/>
  <rect fill="rgb(203,203,223)" height="22" stroke="#ddd" stroke-width="0.6" width="30" x="150" y="502"/>
  <rect fill="rgb(108,108,128)" height="22" stroke="#ddd" stroke-width="0.6" width="30" x="180" y="502"/>
  <rect fill="rgb(189,189,209)" height="22" stroke="#ddd" stroke-width="0.6" width="30" x="210" y="502"/>
  <rect fill="rgb(212,212,232)" height="22" stroke="#ddd" stroke-width="0.6" width="30" x="240" y="502"/>
  <rect fill="rgb(155,155,175)" height="22" stroke="#ddd" stroke-width="0.6" width="30" x="270" y="502"/>
  <rect fill="rgb(159,159,179)" height="22" stroke="#ddd" stroke-width="0.6" width="30" x="300" y="502"/>
  <rect fill="rgb(235,235,255)" height="22" stroke="#ddd" stroke-width="0.6" width="30" x="330" y="502"/>
  <rect fill="rgb(201,201,221)" height="22" stroke="#ddd" stroke-width="0.6" width="30" x="360" y="502"/>
  <rect fill="rgb(138,138,158)" height="22" stroke="#ddd" stroke-width="0.6" width="30" x="390" y="502"/>
  <rect fill="rgb(190,190,210)" height="22" stroke="#ddd" stroke-width="0.6" width="30" x="420" y="502"/>
  <rect fill="rgb(168,168,188)" height="22" stroke="#ddd" stroke-width="0.6" width="30" x="450" y="502"/>
  <rect fill="rgb(209,209,229)" height="22" stroke="#ddd" stroke-width="0.6" width="30" x="480" y="502"/>
  <rect fill="rgb(171,171,191)" height="22" stroke="#ddd" stroke-width="0.6" width="30" x="510" y="502"/>
  <rect fill="rgb(218,218,238)" height="22" stroke="#ddd" stroke-width="0.6" width="30" x="540" y="502"/>
  <rect fill="rgb(131,131,151)" height="22" stroke="#ddd" stroke-width="0.6" width="30" x="570" y="502"/>
  <rect fill="rgb(120,120,140)" height="22" stroke="#ddd" stroke-width="0.6" width="30" x="600" y="502"/>
  <rect fill="rgb(200,200,220)" height="22" stroke="#ddd" stroke-width="0.6" width="30" x="630" y="502"/>
  <rect fill="rgb(168,168,188)" height="22" stroke="#ddd" stroke-width="0.6" width="30" x="660" y="502"/>
  <rect fill="rgb(147,147,167)" height="22" stroke="#ddd" stroke-width="0.6" width="30" x="690" y="502"/>
  <rect fill="rgb(219,219,239)" height="22" stroke="#ddd" stroke-width="0.6" width="30" x="720" y="502"/>
  <rect fill="rgb(184,184,204)" height="22" stroke="#ddd" stroke-width="0.6" width="30" x="750" y="502"/>
  <rect fill="rgb(174,174,194)" height="22" stroke="#ddd" stroke-width="0.6" width="30" x="780" y="502"/>
  <rect fill="rgb(189,189,209)" height="22" stroke="#ddd" stroke-width="0.6" width="30" x="810" y="502"/>
  <rect fill="rgb(188,188,208)" height="22" stroke="#ddd" stroke-width="0.6" width="30" x="120" y="524"/>
  <rect fill="rgb(117,117,137)" height="22" stroke="#ddd" stroke-width="0.6" width="30" x="150" y="524"/>
  <rect fill="rgb(173,173,193)" height="22" stroke="#ddd" stroke-width="0.6" width="30" x="180" y="524"/>
  <rect fill="rgb(100,100,120)" height="22" stroke="#ddd" stroke-width="0.6" width="30" x="210" y="524"/>
  <rect fill="rgb(238,238,255)" height="22" stroke="#ddd" stroke-width="0.6" width="30" x="240" y="524"/>
  <rect fill="rgb(130,130,150)" height="22" stroke="#ddd" stroke-width="0.6" width="30" x="270" y="524"/>
  <rect fill="rgb(210,210,230)" height="22" stroke="#ddd" stroke-width="0.6" width="30" x="300" y="524"/>
  <rect fill="rgb(238,238,255)" height="22" stroke="#ddd" stroke-width="0.6" width="30" x="330" y="524"/>
  <rect fill="rgb(217,217,237)" height="22" stroke="#ddd" stroke-width="0.6" width="30" x="360" y="524"/>
  <rect fill="rgb(187,187,207)" height="22" stroke="#ddd" stroke-width="0.6" width="30" x="390" y="524"/>
  <rect fill="rgb(196,196,216)" height="22" stroke="#ddd" stroke-width="0.6" width="30" x="420" y="524"/>
  <rect fill="rgb(206,206,226)" height="22" stroke="#ddd" stroke-width="0.6" width="30" x="450" y="524"/>
  <rect fill="rgb(118,118,138)" height="22" stroke="#ddd" stroke-width="0.6" width="30" x="480" y="524"/>
  <rect fill="rgb(169,169,189)" height="22" stroke="#ddd" stroke-width="0.6" width="30" x="510" y="524"/>
  <rect fill="rgb(98,98,118)" height="22" stroke="#ddd" stroke-width="0.6" width="30" x="540" y="524"/>
  <rect fill="rgb(93,93,113)" height="22" stroke="#ddd" stroke-width="0.6" width="30" x="570" y="524"/>
  <rect fill="rgb(211,211,231)" height="22" stroke="#ddd" stroke-width="0.6" width="30" x="600" y="524"/>
  <rect fill="rgb(235,235,255)" height="22" stroke="#ddd" stroke-width="0.6" width="30" x="630" y="524"/>
  <rect fill="rgb(241,241,255)" height="22" stroke="#ddd" stroke-width="0.6" width="30" x="660" y="524"/>
  <rect fill="rgb(99,99,119)" height="22" stroke="#ddd" stroke-width="0.6" width="30" x="690" y="524"/>
  <rect fill="rgb(196,196,216)" height="22" stroke="#ddd" stroke-width="0.6" width="30" x="720" y="524"/>
  <rect fill="rgb(227,227,247)" height="22" stroke="#ddd" stroke-width="0.6" width="30" x="750" y="524"/>
  <rect fill="rgb(180,180,200)" height="22" stroke="#ddd" stroke-width="0.6" width="30" x="780" y="524"/>
  <rect fill="rgb(162,162,182)" height="22" stroke="#ddd" stroke-width="0.6" width="30" x="810" y="524"/>
  <text fill="#333" font-family="Arial, Helvetica, sans-serif" font-size="16" text-anchor="middle" x="480.0" y="100">Assays</text>
  <text fill="#333" font-family="Arial, Helvetica, sans-serif" font-size="16" text-anchor="middle" transform="rotate(-90,30,348.0)" x="30" y="348.0">Cell types / tissues</text>
  <text fill="#999" font-family="Arial, Helvetica, sans-serif" font-size="12" text-anchor="end" x="1140" y="776">Auto-generated SVG</text>
</svg>
