<?xml version="1.0" encoding="utf-8" standalone="no"?>
<!DOCTYPE svg PUBLIC "-//W3C//DTD SVG 1.1//EN"
  "http://www.w3.org/Graphics/SVG/1.1/DTD/svg11.dtd">
<svg xmlns:xlink="http://www.w3.org/1999/xlink" width="352.860312pt" height="280.674531pt" viewBox="0 0 352.860312 280.674531" xmlns="http://www.w3.org/2000/svg" version="1.1">
 <metadata>
  <rdf:RDF xmlns:dc="http://purl.org/dc/elements/1.1/" xmlns:cc="http://creativecommons.org/ns#" xmlns:rdf="http://www.w3.org/1999/02/22-rdf-syntax-ns#">
   <cc:Work>
    <dc:type rdf:resource="http://purl.org/dc/dcmitype/StillImage"/>
    <dc:date>2026-01-08T05:59:51.224111</dc:date>
    <dc:format>image/svg+xml</dc:format>
    <dc:creator>
     <cc:Agent>
      <dc:title>Matplotlib v3.10.7, https://matplotlib.org/</dc:title>
     </cc:Agent>
    </dc:creator>
   </cc:Work>
  </rdf:RDF>
 </metadata>
 <defs>
  <style type="text/css">*{stroke-linejoin: round; stroke-linecap: butt}</style>
 </defs>
 <g id="figure_1">
  <g id="patch_1">
   <path d="M 0 280.674531 
L 352.860312 280.674531 
L 352.860312 0 
L 0 0 
z
" style="fill: #ffffff"/>
  </g>
  <g id="axes_1">
   <g id="patch_2">
    <path d="M 42.620313 243.118281 
L 345.660312 243.118281 
L 345.660312 21.558281 
L 42.620313 21.558281 
z
" style="fill: #ffffff"/>
   </g>
   <g id="PathCollection_1">
    <defs>
     <path id="md8d405da49" d="M 0 3.162278 
C 0.838646 3.162278 1.643056 2.82908 2.236068 2.236068 
C 2.82908 1.643056 3.162278 0.838646 3.162278 0 
C 3.162278 -0.838646 2.82908 -1.643056 2.236068 -2.236068 
C 1.643056 -2.82908 0.838646 -3.162278 0 -3.162278 
C -0.838646 -3.162278 -1.643056 -2.82908 -2.236068 -2.236068 
C -2.82908 -1.643056 -3.162278 -0.838646 -3.162278 0 
C -3.162278 0.838646 -2.82908 1.643056 -2.236068 2.236068 
C -1.643056 2.82908 -0.838646 3.162278 0 3.162278 
z
" style="stroke: #2ca02c; stroke-opacity: 0.6"/>
    </defs>
    <g clip-path="url(#pd2b0c9aa17)">
     <use xlink:href="#md8d405da49" x="223.418497" y="158.304407" style="fill: #2ca02c; fill-opacity: 0.6; stroke: #2ca02c; stroke-opacity: 0.6"/>
     <use xlink:href="#md8d405da49" x="157.371047" y="183.303064" style="fill: #2ca02c; fill-opacity: 0.6; stroke: #2ca02c; stroke-opacity: 0.6"/>
     <use xlink:href="#md8d405da49" x="110.135528" y="142.100553" style="fill: #2ca02c; fill-opacity: 0.6; stroke: #2ca02c; stroke-opacity: 0.6"/>
     <use xlink:href="#md8d405da49" x="214.580945" y="169.747385" style="fill: #2ca02c; fill-opacity: 0.6; stroke: #2ca02c; stroke-opacity: 0.6"/>
     <use xlink:href="#md8d405da49" x="140.705617" y="188.21478" style="fill: #2ca02c; fill-opacity: 0.6; stroke: #2ca02c; stroke-opacity: 0.6"/>
     <use xlink:href="#md8d405da49" x="170.197341" y="122.540311" style="fill: #2ca02c; fill-opacity: 0.6; stroke: #2ca02c; stroke-opacity: 0.6"/>
     <use xlink:href="#md8d405da49" x="175.189875" y="166.085834" style="fill: #2ca02c; fill-opacity: 0.6; stroke: #2ca02c; stroke-opacity: 0.6"/>
     <use xlink:href="#md8d405da49" x="188.306797" y="147.622462" style="fill: #2ca02c; fill-opacity: 0.6; stroke: #2ca02c; stroke-opacity: 0.6"/>
     <use xlink:href="#md8d405da49" x="228.132465" y="79.747035" style="fill: #2ca02c; fill-opacity: 0.6; stroke: #2ca02c; stroke-opacity: 0.6"/>
     <use xlink:href="#md8d405da49" x="111.286022" y="136.473498" style="fill: #2ca02c; fill-opacity: 0.6; stroke: #2ca02c; stroke-opacity: 0.6"/>
     <use xlink:href="#md8d405da49" x="144.835478" y="102.424496" style="fill: #2ca02c; fill-opacity: 0.6; stroke: #2ca02c; stroke-opacity: 0.6"/>
     <use xlink:href="#md8d405da49" x="231.48406" y="165.744527" style="fill: #2ca02c; fill-opacity: 0.6; stroke: #2ca02c; stroke-opacity: 0.6"/>
     <use xlink:href="#md8d405da49" x="110.250525" y="121.215577" style="fill: #2ca02c; fill-opacity: 0.6; stroke: #2ca02c; stroke-opacity: 0.6"/>
     <use xlink:href="#md8d405da49" x="193.772749" y="129.567022" style="fill: #2ca02c; fill-opacity: 0.6; stroke: #2ca02c; stroke-opacity: 0.6"/>
     <use xlink:href="#md8d405da49" x="227.937292" y="84.303801" style="fill: #2ca02c; fill-opacity: 0.6; stroke: #2ca02c; stroke-opacity: 0.6"/>
     <use xlink:href="#md8d405da49" x="224.966909" y="173.151323" style="fill: #2ca02c; fill-opacity: 0.6; stroke: #2ca02c; stroke-opacity: 0.6"/>
     <use xlink:href="#md8d405da49" x="200.979597" y="119.696779" style="fill: #2ca02c; fill-opacity: 0.6; stroke: #2ca02c; stroke-opacity: 0.6"/>
     <use xlink:href="#md8d405da49" x="145.198148" y="233.047372" style="fill: #2ca02c; fill-opacity: 0.6; stroke: #2ca02c; stroke-opacity: 0.6"/>
     <use xlink:href="#md8d405da49" x="190.484962" y="178.677824" style="fill: #2ca02c; fill-opacity: 0.6; stroke: #2ca02c; stroke-opacity: 0.6"/>
     <use xlink:href="#md8d405da49" x="147.220423" y="184.479844" style="fill: #2ca02c; fill-opacity: 0.6; stroke: #2ca02c; stroke-opacity: 0.6"/>
     <use xlink:href="#md8d405da49" x="181.336712" y="124.89797" style="fill: #2ca02c; fill-opacity: 0.6; stroke: #2ca02c; stroke-opacity: 0.6"/>
     <use xlink:href="#md8d405da49" x="56.394858" y="182.608766" style="fill: #2ca02c; fill-opacity: 0.6; stroke: #2ca02c; stroke-opacity: 0.6"/>
     <use xlink:href="#md8d405da49" x="97.935054" y="119.041157" style="fill: #2ca02c; fill-opacity: 0.6; stroke: #2ca02c; stroke-opacity: 0.6"/>
     <use xlink:href="#md8d405da49" x="184.538427" y="81.09482" style="fill: #2ca02c; fill-opacity: 0.6; stroke: #2ca02c; stroke-opacity: 0.6"/>
     <use xlink:href="#md8d405da49" x="241.662613" y="192.369146" style="fill: #2ca02c; fill-opacity: 0.6; stroke: #2ca02c; stroke-opacity: 0.6"/>
     <use xlink:href="#md8d405da49" x="187.215919" y="195.595045" style="fill: #2ca02c; fill-opacity: 0.6; stroke: #2ca02c; stroke-opacity: 0.6"/>
     <use xlink:href="#md8d405da49" x="249.624082" y="67.574412" style="fill: #2ca02c; fill-opacity: 0.6; stroke: #2ca02c; stroke-opacity: 0.6"/>
     <use xlink:href="#md8d405da49" x="198.46314" y="156.026555" style="fill: #2ca02c; fill-opacity: 0.6; stroke: #2ca02c; stroke-opacity: 0.6"/>
     <use xlink:href="#md8d405da49" x="331.885767" y="141.963555" style="fill: #2ca02c; fill-opacity: 0.6; stroke: #2ca02c; stroke-opacity: 0.6"/>
     <use xlink:href="#md8d405da49" x="235.900154" y="164.675916" style="fill: #2ca02c; fill-opacity: 0.6; stroke: #2ca02c; stroke-opacity: 0.6"/>
     <use xlink:href="#md8d405da49" x="264.474659" y="150.611809" style="fill: #2ca02c; fill-opacity: 0.6; stroke: #2ca02c; stroke-opacity: 0.6"/>
     <use xlink:href="#md8d405da49" x="131.023477" y="130.492573" style="fill: #2ca02c; fill-opacity: 0.6; stroke: #2ca02c; stroke-opacity: 0.6"/>
     <use xlink:href="#md8d405da49" x="301.476607" y="186.759193" style="fill: #2ca02c; fill-opacity: 0.6; stroke: #2ca02c; stroke-opacity: 0.6"/>
     <use xlink:href="#md8d405da49" x="219.137618" y="151.251297" style="fill: #2ca02c; fill-opacity: 0.6; stroke: #2ca02c; stroke-opacity: 0.6"/>
     <use xlink:href="#md8d405da49" x="223.596792" y="192.019364" style="fill: #2ca02c; fill-opacity: 0.6; stroke: #2ca02c; stroke-opacity: 0.6"/>
     <use xlink:href="#md8d405da49" x="178.70156" y="31.62919" style="fill: #2ca02c; fill-opacity: 0.6; stroke: #2ca02c; stroke-opacity: 0.6"/>
     <use xlink:href="#md8d405da49" x="225.844826" y="77.852228" style="fill: #2ca02c; fill-opacity: 0.6; stroke: #2ca02c; stroke-opacity: 0.6"/>
     <use xlink:href="#md8d405da49" x="185.216185" y="176.775627" style="fill: #2ca02c; fill-opacity: 0.6; stroke: #2ca02c; stroke-opacity: 0.6"/>
     <use xlink:href="#md8d405da49" x="283.434005" y="215.668309" style="fill: #2ca02c; fill-opacity: 0.6; stroke: #2ca02c; stroke-opacity: 0.6"/>
     <use xlink:href="#md8d405da49" x="255.00635" y="107.29187" style="fill: #2ca02c; fill-opacity: 0.6; stroke: #2ca02c; stroke-opacity: 0.6"/>
     <use xlink:href="#md8d405da49" x="209.430112" y="111.246883" style="fill: #2ca02c; fill-opacity: 0.6; stroke: #2ca02c; stroke-opacity: 0.6"/>
     <use xlink:href="#md8d405da49" x="167.79565" y="152.19977" style="fill: #2ca02c; fill-opacity: 0.6; stroke: #2ca02c; stroke-opacity: 0.6"/>
     <use xlink:href="#md8d405da49" x="147.933016" y="131.444102" style="fill: #2ca02c; fill-opacity: 0.6; stroke: #2ca02c; stroke-opacity: 0.6"/>
     <use xlink:href="#md8d405da49" x="177.683686" y="111.510901" style="fill: #2ca02c; fill-opacity: 0.6; stroke: #2ca02c; stroke-opacity: 0.6"/>
     <use xlink:href="#md8d405da49" x="274.671605" y="120.422353" style="fill: #2ca02c; fill-opacity: 0.6; stroke: #2ca02c; stroke-opacity: 0.6"/>
     <use xlink:href="#md8d405da49" x="177.780577" y="72.499957" style="fill: #2ca02c; fill-opacity: 0.6; stroke: #2ca02c; stroke-opacity: 0.6"/>
     <use xlink:href="#md8d405da49" x="101.917386" y="82.59208" style="fill: #2ca02c; fill-opacity: 0.6; stroke: #2ca02c; stroke-opacity: 0.6"/>
     <use xlink:href="#md8d405da49" x="208.183755" y="179.597455" style="fill: #2ca02c; fill-opacity: 0.6; stroke: #2ca02c; stroke-opacity: 0.6"/>
     <use xlink:href="#md8d405da49" x="119.696457" y="135.477263" style="fill: #2ca02c; fill-opacity: 0.6; stroke: #2ca02c; stroke-opacity: 0.6"/>
     <use xlink:href="#md8d405da49" x="105.238926" y="75.840581" style="fill: #2ca02c; fill-opacity: 0.6; stroke: #2ca02c; stroke-opacity: 0.6"/>
    </g>
   </g>
   <g id="matplotlib.axis_1">
    <g id="xtick_1">
     <g id="line2d_1">
      <defs>
       <path id="me77df28196" d="M 0 0 
L 0 3.5 
" style="stroke: #000000; stroke-width: 0.8"/>
      </defs>
      <g>
       <use xlink:href="#me77df28196" x="79.928817" y="243.118281" style="stroke: #000000; stroke-width: 0.8"/>
      </g>
     </g>
     <g id="text_1">
      <!-- −2 -->
      <g transform="translate(72.557723 257.716719) scale(0.1 -0.1)">
       <defs>
        <path id="DejaVuSans-2212" d="M 678 2272 
L 4684 2272 
L 4684 1741 
L 678 1741 
L 678 2272 
z
" transform="scale(0.015625)"/>
        <path id="DejaVuSans-32" d="M 1228 531 
L 3431 531 
L 3431 0 
L 469 0 
L 469 531 
Q 828 903 1448 1529 
Q 2069 2156 2228 2338 
Q 2531 2678 2651 2914 
Q 2772 3150 2772 3378 
Q 2772 3750 2511 3984 
Q 2250 4219 1831 4219 
Q 1534 4219 1204 4116 
Q 875 4013 500 3803 
L 500 4441 
Q 881 4594 1212 4672 
Q 1544 4750 1819 4750 
Q 2544 4750 2975 4387 
Q 3406 4025 3406 3419 
Q 3406 3131 3298 2873 
Q 3191 2616 2906 2266 
Q 2828 2175 2409 1742 
Q 1991 1309 1228 531 
z
" transform="scale(0.015625)"/>
       </defs>
       <use xlink:href="#DejaVuSans-2212"/>
       <use xlink:href="#DejaVuSans-32" transform="translate(83.789062 0)"/>
      </g>
     </g>
    </g>
    <g id="xtick_2">
     <g id="line2d_2">
      <g>
       <use xlink:href="#me77df28196" x="137.462956" y="243.118281" style="stroke: #000000; stroke-width: 0.8"/>
      </g>
     </g>
     <g id="text_2">
      <!-- −1 -->
      <g transform="translate(130.091863 257.716719) scale(0.1 -0.1)">
       <defs>
        <path id="DejaVuSans-31" d="M 794 531 
L 1825 531 
L 1825 4091 
L 703 3866 
L 703 4441 
L 1819 4666 
L 2450 4666 
L 2450 531 
L 3481 531 
L 3481 0 
L 794 0 
L 794 531 
z
" transform="scale(0.015625)"/>
       </defs>
       <use xlink:href="#DejaVuSans-2212"/>
       <use xlink:href="#DejaVuSans-31" transform="translate(83.789062 0)"/>
      </g>
     </g>
    </g>
    <g id="xtick_3">
     <g id="line2d_3">
      <g>
       <use xlink:href="#me77df28196" x="194.997096" y="243.118281" style="stroke: #000000; stroke-width: 0.8"/>
      </g>
     </g>
     <g id="text_3">
      <!-- 0 -->
      <g transform="translate(191.815846 257.716719) scale(0.1 -0.1)">
       <defs>
        <path id="DejaVuSans-30" d="M 2034 4250 
Q 1547 4250 1301 3770 
Q 1056 3291 1056 2328 
Q 1056 1369 1301 889 
Q 1547 409 2034 409 
Q 2525 409 2770 889 
Q 3016 1369 3016 2328 
Q 3016 3291 2770 3770 
Q 2525 4250 2034 4250 
z
M 2034 4750 
Q 2819 4750 3233 4129 
Q 3647 3509 3647 2328 
Q 3647 1150 3233 529 
Q 2819 -91 2034 -91 
Q 1250 -91 836 529 
Q 422 1150 422 2328 
Q 422 3509 836 4129 
Q 1250 4750 2034 4750 
z
" transform="scale(0.015625)"/>
       </defs>
       <use xlink:href="#DejaVuSans-30"/>
      </g>
     </g>
    </g>
    <g id="xtick_4">
     <g id="line2d_4">
      <g>
       <use xlink:href="#me77df28196" x="252.531235" y="243.118281" style="stroke: #000000; stroke-width: 0.8"/>
      </g>
     </g>
     <g id="text_4">
      <!-- 1 -->
      <g transform="translate(249.349985 257.716719) scale(0.1 -0.1)">
       <use xlink:href="#DejaVuSans-31"/>
      </g>
     </g>
    </g>
    <g id="xtick_5">
     <g id="line2d_5">
      <g>
       <use xlink:href="#me77df28196" x="310.065375" y="243.118281" style="stroke: #000000; stroke-width: 0.8"/>
      </g>
     </g>
     <g id="text_5">
      <!-- 2 -->
      <g transform="translate(306.884125 257.716719) scale(0.1 -0.1)">
       <use xlink:href="#DejaVuSans-32"/>
      </g>
     </g>
    </g>
    <g id="text_6">
     <!-- Feature 1 -->
     <g transform="translate(170.480156 271.394844) scale(0.1 -0.1)">
      <defs>
       <path id="DejaVuSans-46" d="M 628 4666 
L 3309 4666 
L 3309 4134 
L 1259 4134 
L 1259 2759 
L 3109 2759 
L 3109 2228 
L 1259 2228 
L 1259 0 
L 628 0 
L 628 4666 
z
" transform="scale(0.015625)"/>
       <path id="DejaVuSans-65" d="M 3597 1894 
L 3597 1613 
L 953 1613 
Q 991 1019 1311 708 
Q 1631 397 2203 397 
Q 2534 397 2845 478 
Q 3156 559 3463 722 
L 3463 178 
Q 3153 47 2828 -22 
Q 2503 -91 2169 -91 
Q 1331 -91 842 396 
Q 353 884 353 1716 
Q 353 2575 817 3079 
Q 1281 3584 2069 3584 
Q 2775 3584 3186 3129 
Q 3597 2675 3597 1894 
z
M 3022 2063 
Q 3016 2534 2758 2815 
Q 2500 3097 2075 3097 
Q 1594 3097 1305 2825 
Q 1016 2553 972 2059 
L 3022 2063 
z
" transform="scale(0.015625)"/>
       <path id="DejaVuSans-61" d="M 2194 1759 
Q 1497 1759 1228 1600 
Q 959 1441 959 1056 
Q 959 750 1161 570 
Q 1363 391 1709 391 
Q 2188 391 2477 730 
Q 2766 1069 2766 1631 
L 2766 1759 
L 2194 1759 
z
M 3341 1997 
L 3341 0 
L 2766 0 
L 2766 531 
Q 2569 213 2275 61 
Q 1981 -91 1556 -91 
Q 1019 -91 701 211 
Q 384 513 384 1019 
Q 384 1609 779 1909 
Q 1175 2209 1959 2209 
L 2766 2209 
L 2766 2266 
Q 2766 2663 2505 2880 
Q 2244 3097 1772 3097 
Q 1472 3097 1187 3025 
Q 903 2953 641 2809 
L 641 3341 
Q 956 3463 1253 3523 
Q 1550 3584 1831 3584 
Q 2591 3584 2966 3190 
Q 3341 2797 3341 1997 
z
" transform="scale(0.015625)"/>
       <path id="DejaVuSans-74" d="M 1172 4494 
L 1172 3500 
L 2356 3500 
L 2356 3053 
L 1172 3053 
L 1172 1153 
Q 1172 725 1289 603 
Q 1406 481 1766 481 
L 2356 481 
L 2356 0 
L 1766 0 
Q 1100 0 847 248 
Q 594 497 594 1153 
L 594 3053 
L 172 3053 
L 172 3500 
L 594 3500 
L 594 4494 
L 1172 4494 
z
" transform="scale(0.015625)"/>
       <path id="DejaVuSans-75" d="M 544 1381 
L 544 3500 
L 1119 3500 
L 1119 1403 
Q 1119 906 1312 657 
Q 1506 409 1894 409 
Q 2359 409 2629 706 
Q 2900 1003 2900 1516 
L 2900 3500 
L 3475 3500 
L 3475 0 
L 2900 0 
L 2900 538 
Q 2691 219 2414 64 
Q 2138 -91 1772 -91 
Q 1169 -91 856 284 
Q 544 659 544 1381 
z
M 1991 3584 
L 1991 3584 
z
" transform="scale(0.015625)"/>
       <path id="DejaVuSans-72" d="M 2631 2963 
Q 2534 3019 2420 3045 
Q 2306 3072 2169 3072 
Q 1681 3072 1420 2755 
Q 1159 2438 1159 1844 
L 1159 0 
L 581 0 
L 581 3500 
L 1159 3500 
L 1159 2956 
Q 1341 3275 1631 3429 
Q 1922 3584 2338 3584 
Q 2397 3584 2469 3576 
Q 2541 3569 2628 3553 
L 2631 2963 
z
" transform="scale(0.015625)"/>
       <path id="DejaVuSans-20" transform="scale(0.015625)"/>
      </defs>
      <use xlink:href="#DejaVuSans-46"/>
      <use xlink:href="#DejaVuSans-65" transform="translate(52.019531 0)"/>
      <use xlink:href="#DejaVuSans-61" transform="translate(113.542969 0)"/>
      <use xlink:href="#DejaVuSans-74" transform="translate(174.822266 0)"/>
      <use xlink:href="#DejaVuSans-75" transform="translate(214.03125 0)"/>
      <use xlink:href="#DejaVuSans-72" transform="translate(277.410156 0)"/>
      <use xlink:href="#DejaVuSans-65" transform="translate(316.273438 0)"/>
      <use xlink:href="#DejaVuSans-20" transform="translate(377.796875 0)"/>
      <use xlink:href="#DejaVuSans-31" transform="translate(409.583984 0)"/>
     </g>
    </g>
   </g>
   <g id="matplotlib.axis_2">
    <g id="ytick_1">
     <g id="line2d_6">
      <defs>
       <path id="me3153b903b" d="M 0 0 
L -3.5 0 
" style="stroke: #000000; stroke-width: 0.8"/>
      </defs>
      <g>
       <use xlink:href="#me3153b903b" x="42.620313" y="224.991433" style="stroke: #000000; stroke-width: 0.8"/>
      </g>
     </g>
     <g id="text_7">
      <!-- −2 -->
      <g transform="translate(20.878125 228.790651) scale(0.1 -0.1)">
       <use xlink:href="#DejaVuSans-2212"/>
       <use xlink:href="#DejaVuSans-32" transform="translate(83.789062 0)"/>
      </g>
     </g>
    </g>
    <g id="ytick_2">
     <g id="line2d_7">
      <g>
       <use xlink:href="#me3153b903b" x="42.620313" y="182.549052" style="stroke: #000000; stroke-width: 0.8"/>
      </g>
     </g>
     <g id="text_8">
      <!-- −1 -->
      <g transform="translate(20.878125 186.348271) scale(0.1 -0.1)">
       <use xlink:href="#DejaVuSans-2212"/>
       <use xlink:href="#DejaVuSans-31" transform="translate(83.789062 0)"/>
      </g>
     </g>
    </g>
    <g id="ytick_3">
     <g id="line2d_8">
      <g>
       <use xlink:href="#me3153b903b" x="42.620313" y="140.106672" style="stroke: #000000; stroke-width: 0.8"/>
      </g>
     </g>
     <g id="text_9">
      <!-- 0 -->
      <g transform="translate(29.257813 143.905891) scale(0.1 -0.1)">
       <use xlink:href="#DejaVuSans-30"/>
      </g>
     </g>
    </g>
    <g id="ytick_4">
     <g id="line2d_9">
      <g>
       <use xlink:href="#me3153b903b" x="42.620313" y="97.664292" style="stroke: #000000; stroke-width: 0.8"/>
      </g>
     </g>
     <g id="text_10">
      <!-- 1 -->
      <g transform="translate(29.257813 101.46351) scale(0.1 -0.1)">
       <use xlink:href="#DejaVuSans-31"/>
      </g>
     </g>
    </g>
    <g id="ytick_5">
     <g id="line2d_10">
      <g>
       <use xlink:href="#me3153b903b" x="42.620313" y="55.221911" style="stroke: #000000; stroke-width: 0.8"/>
      </g>
     </g>
     <g id="text_11">
      <!-- 2 -->
      <g transform="translate(29.257813 59.02113) scale(0.1 -0.1)">
       <use xlink:href="#DejaVuSans-32"/>
      </g>
     </g>
    </g>
    <g id="text_12">
     <!-- Feature 2 -->
     <g transform="translate(14.798438 155.998437) rotate(-90) scale(0.1 -0.1)">
      <use xlink:href="#DejaVuSans-46"/>
      <use xlink:href="#DejaVuSans-65" transform="translate(52.019531 0)"/>
      <use xlink:href="#DejaVuSans-61" transform="translate(113.542969 0)"/>
      <use xlink:href="#DejaVuSans-74" transform="translate(174.822266 0)"/>
      <use xlink:href="#DejaVuSans-75" transform="translate(214.03125 0)"/>
      <use xlink:href="#DejaVuSans-72" transform="translate(277.410156 0)"/>
      <use xlink:href="#DejaVuSans-65" transform="translate(316.273438 0)"/>
      <use xlink:href="#DejaVuSans-20" transform="translate(377.796875 0)"/>
      <use xlink:href="#DejaVuSans-32" transform="translate(409.583984 0)"/>
     </g>
    </g>
   </g>
   <g id="patch_3">
    <path d="M 42.620313 243.118281 
L 42.620313 21.558281 
" style="fill: none; stroke: #000000; stroke-width: 0.8; stroke-linejoin: miter; stroke-linecap: square"/>
   </g>
   <g id="patch_4">
    <path d="M 42.620313 243.118281 
L 345.660312 243.118281 
" style="fill: none; stroke: #000000; stroke-width: 0.8; stroke-linejoin: miter; stroke-linecap: square"/>
   </g>
   <g id="text_13">
    <g id="patch_5">
     <path d="M 129.034062 237.119969 
L 259.246562 237.119969 
Q 262.246562 237.119969 262.246562 234.119969 
L 262.246562 224.441844 
Q 262.246562 221.441844 259.246562 221.441844 
L 129.034062 221.441844 
Q 126.034062 221.441844 126.034062 224.441844 
L 126.034062 234.119969 
Q 126.034062 237.119969 129.034062 237.119969 
z
" style="fill: #ffffff; opacity: 0.8; stroke: #000000; stroke-linejoin: miter"/>
    </g>
    <!-- Each sample independent -->
    <g transform="translate(129.034062 232.040281) scale(0.1 -0.1)">
     <defs>
      <path id="DejaVuSans-Oblique-45" d="M 1081 4666 
L 4031 4666 
L 3928 4134 
L 1606 4134 
L 1338 2753 
L 3566 2753 
L 3463 2222 
L 1234 2222 
L 909 531 
L 3284 531 
L 3181 0 
L 172 0 
L 1081 4666 
z
" transform="scale(0.015625)"/>
      <path id="DejaVuSans-Oblique-61" d="M 3438 1997 
L 3047 0 
L 2472 0 
L 2578 531 
Q 2325 219 2001 64 
Q 1678 -91 1281 -91 
Q 834 -91 548 182 
Q 263 456 263 884 
Q 263 1497 752 1853 
Q 1241 2209 2100 2209 
L 2900 2209 
L 2931 2363 
Q 2938 2388 2941 2417 
Q 2944 2447 2944 2509 
Q 2944 2788 2717 2942 
Q 2491 3097 2081 3097 
Q 1800 3097 1504 3025 
Q 1209 2953 897 2809 
L 997 3341 
Q 1322 3463 1633 3523 
Q 1944 3584 2234 3584 
Q 2853 3584 3176 3315 
Q 3500 3047 3500 2534 
Q 3500 2431 3484 2292 
Q 3469 2153 3438 1997 
z
M 2816 1759 
L 2241 1759 
Q 1534 1759 1195 1570 
Q 856 1381 856 984 
Q 856 709 1029 553 
Q 1203 397 1509 397 
Q 1978 397 2328 733 
Q 2678 1069 2791 1631 
L 2816 1759 
z
" transform="scale(0.015625)"/>
      <path id="DejaVuSans-Oblique-63" d="M 3431 3366 
L 3316 2797 
Q 3109 2947 2876 3022 
Q 2644 3097 2394 3097 
Q 2119 3097 1870 3000 
Q 1622 2903 1453 2725 
Q 1184 2453 1037 2087 
Q 891 1722 891 1331 
Q 891 859 1127 628 
Q 1363 397 1844 397 
Q 2081 397 2348 469 
Q 2616 541 2906 684 
L 2797 116 
Q 2547 13 2283 -39 
Q 2019 -91 1741 -91 
Q 1044 -91 669 257 
Q 294 606 294 1253 
Q 294 1797 489 2255 
Q 684 2713 1069 3078 
Q 1331 3328 1684 3456 
Q 2038 3584 2456 3584 
Q 2700 3584 2940 3529 
Q 3181 3475 3431 3366 
z
" transform="scale(0.015625)"/>
      <path id="DejaVuSans-Oblique-68" d="M 3566 2113 
L 3156 0 
L 2578 0 
L 2988 2091 
Q 3016 2238 3031 2350 
Q 3047 2463 3047 2528 
Q 3047 2791 2881 2937 
Q 2716 3084 2419 3084 
Q 1956 3084 1617 2771 
Q 1278 2459 1178 1941 
L 800 0 
L 225 0 
L 1172 4863 
L 1747 4863 
L 1375 2950 
Q 1594 3244 1934 3414 
Q 2275 3584 2650 3584 
Q 3113 3584 3367 3334 
Q 3622 3084 3622 2631 
Q 3622 2519 3608 2391 
Q 3594 2263 3566 2113 
z
" transform="scale(0.015625)"/>
      <path id="DejaVuSans-Oblique-20" transform="scale(0.015625)"/>
      <path id="DejaVuSans-Oblique-73" d="M 3200 3397 
L 3091 2853 
Q 2863 2978 2609 3040 
Q 2356 3103 2088 3103 
Q 1634 3103 1373 2948 
Q 1113 2794 1113 2528 
Q 1113 2219 1719 2053 
Q 1766 2041 1788 2034 
L 1972 1978 
Q 2547 1819 2739 1644 
Q 2931 1469 2931 1166 
Q 2931 609 2489 259 
Q 2047 -91 1331 -91 
Q 1053 -91 747 -37 
Q 441 16 72 128 
L 184 722 
Q 500 559 806 475 
Q 1113 391 1394 391 
Q 1816 391 2080 572 
Q 2344 753 2344 1031 
Q 2344 1331 1650 1516 
L 1591 1531 
L 1394 1581 
Q 956 1697 753 1886 
Q 550 2075 550 2369 
Q 550 2928 970 3256 
Q 1391 3584 2113 3584 
Q 2397 3584 2667 3537 
Q 2938 3491 3200 3397 
z
" transform="scale(0.015625)"/>
      <path id="DejaVuSans-Oblique-6d" d="M 5747 2113 
L 5338 0 
L 4763 0 
L 5166 2094 
Q 5191 2228 5203 2325 
Q 5216 2422 5216 2491 
Q 5216 2772 5059 2928 
Q 4903 3084 4622 3084 
Q 4203 3084 3875 2770 
Q 3547 2456 3450 1953 
L 3066 0 
L 2491 0 
L 2900 2094 
Q 2925 2209 2937 2307 
Q 2950 2406 2950 2484 
Q 2950 2769 2794 2926 
Q 2638 3084 2363 3084 
Q 1938 3084 1609 2770 
Q 1281 2456 1184 1953 
L 800 0 
L 225 0 
L 909 3500 
L 1484 3500 
L 1375 2956 
Q 1609 3263 1923 3423 
Q 2238 3584 2597 3584 
Q 2978 3584 3223 3384 
Q 3469 3184 3519 2828 
Q 3781 3197 4126 3390 
Q 4472 3584 4856 3584 
Q 5306 3584 5551 3325 
Q 5797 3066 5797 2591 
Q 5797 2488 5784 2364 
Q 5772 2241 5747 2113 
z
" transform="scale(0.015625)"/>
      <path id="DejaVuSans-Oblique-70" d="M 3175 2156 
Q 3175 2616 2975 2859 
Q 2775 3103 2400 3103 
Q 2144 3103 1911 2972 
Q 1678 2841 1497 2591 
Q 1319 2344 1212 1994 
Q 1106 1644 1106 1300 
Q 1106 863 1306 627 
Q 1506 391 1875 391 
Q 2147 391 2380 519 
Q 2613 647 2778 891 
Q 2956 1147 3065 1494 
Q 3175 1841 3175 2156 
z
M 1394 2969 
Q 1625 3272 1939 3428 
Q 2253 3584 2638 3584 
Q 3175 3584 3472 3232 
Q 3769 2881 3769 2247 
Q 3769 1728 3584 1258 
Q 3400 788 3053 416 
Q 2822 169 2531 39 
Q 2241 -91 1919 -91 
Q 1547 -91 1294 64 
Q 1041 219 916 525 
L 556 -1331 
L -19 -1331 
L 922 3500 
L 1497 3500 
L 1394 2969 
z
" transform="scale(0.015625)"/>
      <path id="DejaVuSans-Oblique-6c" d="M 1172 4863 
L 1747 4863 
L 800 0 
L 225 0 
L 1172 4863 
z
" transform="scale(0.015625)"/>
      <path id="DejaVuSans-Oblique-65" d="M 3078 2063 
Q 3088 2113 3092 2166 
Q 3097 2219 3097 2272 
Q 3097 2653 2873 2875 
Q 2650 3097 2266 3097 
Q 1838 3097 1509 2826 
Q 1181 2556 1013 2059 
L 3078 2063 
z
M 3578 1613 
L 903 1613 
Q 884 1494 878 1425 
Q 872 1356 872 1306 
Q 872 872 1139 634 
Q 1406 397 1894 397 
Q 2269 397 2603 481 
Q 2938 566 3225 728 
L 3116 159 
Q 2806 34 2476 -28 
Q 2147 -91 1806 -91 
Q 1078 -91 686 257 
Q 294 606 294 1247 
Q 294 1794 489 2264 
Q 684 2734 1063 3103 
Q 1306 3334 1642 3459 
Q 1978 3584 2356 3584 
Q 2950 3584 3301 3228 
Q 3653 2872 3653 2272 
Q 3653 2128 3634 1964 
Q 3616 1800 3578 1613 
z
" transform="scale(0.015625)"/>
      <path id="DejaVuSans-Oblique-69" d="M 1172 4863 
L 1747 4863 
L 1606 4134 
L 1031 4134 
L 1172 4863 
z
M 909 3500 
L 1484 3500 
L 800 0 
L 225 0 
L 909 3500 
z
" transform="scale(0.015625)"/>
      <path id="DejaVuSans-Oblique-6e" d="M 3566 2113 
L 3156 0 
L 2578 0 
L 2988 2091 
Q 3016 2238 3031 2350 
Q 3047 2463 3047 2528 
Q 3047 2791 2881 2937 
Q 2716 3084 2419 3084 
Q 1956 3084 1622 2776 
Q 1288 2469 1184 1941 
L 800 0 
L 225 0 
L 903 3500 
L 1478 3500 
L 1363 2950 
Q 1603 3253 1940 3418 
Q 2278 3584 2650 3584 
Q 3113 3584 3367 3334 
Q 3622 3084 3622 2631 
Q 3622 2519 3608 2391 
Q 3594 2263 3566 2113 
z
" transform="scale(0.015625)"/>
      <path id="DejaVuSans-Oblique-64" d="M 2675 525 
Q 2444 222 2128 65 
Q 1813 -91 1428 -91 
Q 903 -91 598 267 
Q 294 625 294 1247 
Q 294 1766 478 2236 
Q 663 2706 1013 3078 
Q 1244 3325 1534 3454 
Q 1825 3584 2144 3584 
Q 2481 3584 2739 3421 
Q 2997 3259 3138 2956 
L 3513 4863 
L 4091 4863 
L 3144 0 
L 2566 0 
L 2675 525 
z
M 891 1350 
Q 891 897 1095 644 
Q 1300 391 1663 391 
Q 1931 391 2161 520 
Q 2391 650 2566 903 
Q 2750 1166 2856 1509 
Q 2963 1853 2963 2188 
Q 2963 2622 2758 2865 
Q 2553 3109 2194 3109 
Q 1922 3109 1687 2981 
Q 1453 2853 1288 2613 
Q 1106 2353 998 2009 
Q 891 1666 891 1350 
z
" transform="scale(0.015625)"/>
      <path id="DejaVuSans-Oblique-74" d="M 2706 3500 
L 2619 3053 
L 1472 3053 
L 1100 1153 
Q 1081 1047 1072 975 
Q 1063 903 1063 863 
Q 1063 663 1183 572 
Q 1303 481 1569 481 
L 2150 481 
L 2053 0 
L 1503 0 
Q 991 0 739 200 
Q 488 400 488 806 
Q 488 878 497 964 
Q 506 1050 525 1153 
L 897 3053 
L 409 3053 
L 500 3500 
L 978 3500 
L 1172 4494 
L 1747 4494 
L 1556 3500 
L 2706 3500 
z
" transform="scale(0.015625)"/>
     </defs>
     <use xlink:href="#DejaVuSans-Oblique-45"/>
     <use xlink:href="#DejaVuSans-Oblique-61" transform="translate(63.183594 0)"/>
     <use xlink:href="#DejaVuSans-Oblique-63" transform="translate(124.462891 0)"/>
     <use xlink:href="#DejaVuSans-Oblique-68" transform="translate(179.443359 0)"/>
     <use xlink:href="#DejaVuSans-Oblique-20" transform="translate(242.822266 0)"/>
     <use xlink:href="#DejaVuSans-Oblique-73" transform="translate(274.609375 0)"/>
     <use xlink:href="#DejaVuSans-Oblique-61" transform="translate(326.708984 0)"/>
     <use xlink:href="#DejaVuSans-Oblique-6d" transform="translate(387.988281 0)"/>
     <use xlink:href="#DejaVuSans-Oblique-70" transform="translate(485.400391 0)"/>
     <use xlink:href="#DejaVuSans-Oblique-6c" transform="translate(548.876953 0)"/>
     <use xlink:href="#DejaVuSans-Oblique-65" transform="translate(576.660156 0)"/>
     <use xlink:href="#DejaVuSans-Oblique-20" transform="translate(638.183594 0)"/>
     <use xlink:href="#DejaVuSans-Oblique-69" transform="translate(669.970703 0)"/>
     <use xlink:href="#DejaVuSans-Oblique-6e" transform="translate(697.753906 0)"/>
     <use xlink:href="#DejaVuSans-Oblique-64" transform="translate(761.132812 0)"/>
     <use xlink:href="#DejaVuSans-Oblique-65" transform="translate(824.609375 0)"/>
     <use xlink:href="#DejaVuSans-Oblique-70" transform="translate(886.132812 0)"/>
     <use xlink:href="#DejaVuSans-Oblique-65" transform="translate(949.609375 0)"/>
     <use xlink:href="#DejaVuSans-Oblique-6e" transform="translate(1011.132812 0)"/>
     <use xlink:href="#DejaVuSans-Oblique-64" transform="translate(1074.511719 0)"/>
     <use xlink:href="#DejaVuSans-Oblique-65" transform="translate(1137.988281 0)"/>
     <use xlink:href="#DejaVuSans-Oblique-6e" transform="translate(1199.511719 0)"/>
     <use xlink:href="#DejaVuSans-Oblique-74" transform="translate(1262.890625 0)"/>
    </g>
   </g>
   <g id="text_14">
    <!-- A. Images: Independent Samples -->
    <g transform="translate(42.620313 15.558281) scale(0.11 -0.11)">
     <defs>
      <path id="DejaVuSans-Bold-41" d="M 3419 850 
L 1538 850 
L 1241 0 
L 31 0 
L 1759 4666 
L 3194 4666 
L 4922 0 
L 3713 0 
L 3419 850 
z
M 1838 1716 
L 3116 1716 
L 2478 3572 
L 1838 1716 
z
" transform="scale(0.015625)"/>
      <path id="DejaVuSans-Bold-2e" d="M 653 1209 
L 1778 1209 
L 1778 0 
L 653 0 
L 653 1209 
z
" transform="scale(0.015625)"/>
      <path id="DejaVuSans-Bold-20" transform="scale(0.015625)"/>
      <path id="DejaVuSans-Bold-49" d="M 588 4666 
L 1791 4666 
L 1791 0 
L 588 0 
L 588 4666 
z
" transform="scale(0.015625)"/>
      <path id="DejaVuSans-Bold-6d" d="M 3781 2919 
Q 3994 3244 4286 3414 
Q 4578 3584 4928 3584 
Q 5531 3584 5847 3212 
Q 6163 2841 6163 2131 
L 6163 0 
L 5038 0 
L 5038 1825 
Q 5041 1866 5042 1909 
Q 5044 1953 5044 2034 
Q 5044 2406 4934 2573 
Q 4825 2741 4581 2741 
Q 4263 2741 4089 2478 
Q 3916 2216 3909 1719 
L 3909 0 
L 2784 0 
L 2784 1825 
Q 2784 2406 2684 2573 
Q 2584 2741 2328 2741 
Q 2006 2741 1831 2477 
Q 1656 2213 1656 1722 
L 1656 0 
L 531 0 
L 531 3500 
L 1656 3500 
L 1656 2988 
Q 1863 3284 2130 3434 
Q 2397 3584 2719 3584 
Q 3081 3584 3359 3409 
Q 3638 3234 3781 2919 
z
" transform="scale(0.015625)"/>
      <path id="DejaVuSans-Bold-61" d="M 2106 1575 
Q 1756 1575 1579 1456 
Q 1403 1338 1403 1106 
Q 1403 894 1545 773 
Q 1688 653 1941 653 
Q 2256 653 2472 879 
Q 2688 1106 2688 1447 
L 2688 1575 
L 2106 1575 
z
M 3816 1997 
L 3816 0 
L 2688 0 
L 2688 519 
Q 2463 200 2181 54 
Q 1900 -91 1497 -91 
Q 953 -91 614 226 
Q 275 544 275 1050 
Q 275 1666 698 1953 
Q 1122 2241 2028 2241 
L 2688 2241 
L 2688 2328 
Q 2688 2594 2478 2717 
Q 2269 2841 1825 2841 
Q 1466 2841 1156 2769 
Q 847 2697 581 2553 
L 581 3406 
Q 941 3494 1303 3539 
Q 1666 3584 2028 3584 
Q 2975 3584 3395 3211 
Q 3816 2838 3816 1997 
z
" transform="scale(0.015625)"/>
      <path id="DejaVuSans-Bold-67" d="M 2919 594 
Q 2688 288 2409 144 
Q 2131 0 1766 0 
Q 1125 0 706 504 
Q 288 1009 288 1791 
Q 288 2575 706 3076 
Q 1125 3578 1766 3578 
Q 2131 3578 2409 3434 
Q 2688 3291 2919 2981 
L 2919 3500 
L 4044 3500 
L 4044 353 
Q 4044 -491 3511 -936 
Q 2978 -1381 1966 -1381 
Q 1638 -1381 1331 -1331 
Q 1025 -1281 716 -1178 
L 716 -306 
Q 1009 -475 1290 -558 
Q 1572 -641 1856 -641 
Q 2406 -641 2662 -400 
Q 2919 -159 2919 353 
L 2919 594 
z
M 2181 2772 
Q 1834 2772 1640 2515 
Q 1447 2259 1447 1791 
Q 1447 1309 1634 1061 
Q 1822 813 2181 813 
Q 2531 813 2725 1069 
Q 2919 1325 2919 1791 
Q 2919 2259 2725 2515 
Q 2531 2772 2181 2772 
z
" transform="scale(0.015625)"/>
      <path id="DejaVuSans-Bold-65" d="M 4031 1759 
L 4031 1441 
L 1416 1441 
Q 1456 1047 1700 850 
Q 1944 653 2381 653 
Q 2734 653 3104 758 
Q 3475 863 3866 1075 
L 3866 213 
Q 3469 63 3072 -14 
Q 2675 -91 2278 -91 
Q 1328 -91 801 392 
Q 275 875 275 1747 
Q 275 2603 792 3093 
Q 1309 3584 2216 3584 
Q 3041 3584 3536 3087 
Q 4031 2591 4031 1759 
z
M 2881 2131 
Q 2881 2450 2695 2645 
Q 2509 2841 2209 2841 
Q 1884 2841 1681 2658 
Q 1478 2475 1428 2131 
L 2881 2131 
z
" transform="scale(0.015625)"/>
      <path id="DejaVuSans-Bold-73" d="M 3272 3391 
L 3272 2541 
Q 2913 2691 2578 2766 
Q 2244 2841 1947 2841 
Q 1628 2841 1473 2761 
Q 1319 2681 1319 2516 
Q 1319 2381 1436 2309 
Q 1553 2238 1856 2203 
L 2053 2175 
Q 2913 2066 3209 1816 
Q 3506 1566 3506 1031 
Q 3506 472 3093 190 
Q 2681 -91 1863 -91 
Q 1516 -91 1145 -36 
Q 775 19 384 128 
L 384 978 
Q 719 816 1070 734 
Q 1422 653 1784 653 
Q 2113 653 2278 743 
Q 2444 834 2444 1013 
Q 2444 1163 2330 1236 
Q 2216 1309 1875 1350 
L 1678 1375 
Q 931 1469 631 1722 
Q 331 1975 331 2491 
Q 331 3047 712 3315 
Q 1094 3584 1881 3584 
Q 2191 3584 2531 3537 
Q 2872 3491 3272 3391 
z
" transform="scale(0.015625)"/>
      <path id="DejaVuSans-Bold-3a" d="M 716 3500 
L 1844 3500 
L 1844 2291 
L 716 2291 
L 716 3500 
z
M 716 1209 
L 1844 1209 
L 1844 0 
L 716 0 
L 716 1209 
z
" transform="scale(0.015625)"/>
      <path id="DejaVuSans-Bold-6e" d="M 4056 2131 
L 4056 0 
L 2931 0 
L 2931 347 
L 2931 1631 
Q 2931 2084 2911 2256 
Q 2891 2428 2841 2509 
Q 2775 2619 2662 2680 
Q 2550 2741 2406 2741 
Q 2056 2741 1856 2470 
Q 1656 2200 1656 1722 
L 1656 0 
L 538 0 
L 538 3500 
L 1656 3500 
L 1656 2988 
Q 1909 3294 2193 3439 
Q 2478 3584 2822 3584 
Q 3428 3584 3742 3212 
Q 4056 2841 4056 2131 
z
" transform="scale(0.015625)"/>
      <path id="DejaVuSans-Bold-64" d="M 2919 2988 
L 2919 4863 
L 4044 4863 
L 4044 0 
L 2919 0 
L 2919 506 
Q 2688 197 2409 53 
Q 2131 -91 1766 -91 
Q 1119 -91 703 423 
Q 288 938 288 1747 
Q 288 2556 703 3070 
Q 1119 3584 1766 3584 
Q 2128 3584 2408 3439 
Q 2688 3294 2919 2988 
z
M 2181 722 
Q 2541 722 2730 984 
Q 2919 1247 2919 1747 
Q 2919 2247 2730 2509 
Q 2541 2772 2181 2772 
Q 1825 2772 1636 2509 
Q 1447 2247 1447 1747 
Q 1447 1247 1636 984 
Q 1825 722 2181 722 
z
" transform="scale(0.015625)"/>
      <path id="DejaVuSans-Bold-70" d="M 1656 506 
L 1656 -1331 
L 538 -1331 
L 538 3500 
L 1656 3500 
L 1656 2988 
Q 1888 3294 2169 3439 
Q 2450 3584 2816 3584 
Q 3463 3584 3878 3070 
Q 4294 2556 4294 1747 
Q 4294 938 3878 423 
Q 3463 -91 2816 -91 
Q 2450 -91 2169 54 
Q 1888 200 1656 506 
z
M 2400 2772 
Q 2041 2772 1848 2508 
Q 1656 2244 1656 1747 
Q 1656 1250 1848 986 
Q 2041 722 2400 722 
Q 2759 722 2948 984 
Q 3138 1247 3138 1747 
Q 3138 2247 2948 2509 
Q 2759 2772 2400 2772 
z
" transform="scale(0.015625)"/>
      <path id="DejaVuSans-Bold-74" d="M 1759 4494 
L 1759 3500 
L 2913 3500 
L 2913 2700 
L 1759 2700 
L 1759 1216 
Q 1759 972 1856 886 
Q 1953 800 2241 800 
L 2816 800 
L 2816 0 
L 1856 0 
Q 1194 0 917 276 
Q 641 553 641 1216 
L 641 2700 
L 84 2700 
L 84 3500 
L 641 3500 
L 641 4494 
L 1759 4494 
z
" transform="scale(0.015625)"/>
      <path id="DejaVuSans-Bold-53" d="M 3834 4519 
L 3834 3531 
Q 3450 3703 3084 3790 
Q 2719 3878 2394 3878 
Q 1963 3878 1756 3759 
Q 1550 3641 1550 3391 
Q 1550 3203 1689 3098 
Q 1828 2994 2194 2919 
L 2706 2816 
Q 3484 2659 3812 2340 
Q 4141 2022 4141 1434 
Q 4141 663 3683 286 
Q 3225 -91 2284 -91 
Q 1841 -91 1394 -6 
Q 947 78 500 244 
L 500 1259 
Q 947 1022 1364 901 
Q 1781 781 2169 781 
Q 2563 781 2772 912 
Q 2981 1044 2981 1288 
Q 2981 1506 2839 1625 
Q 2697 1744 2272 1838 
L 1806 1941 
Q 1106 2091 782 2419 
Q 459 2747 459 3303 
Q 459 4000 909 4375 
Q 1359 4750 2203 4750 
Q 2588 4750 2994 4692 
Q 3400 4634 3834 4519 
z
" transform="scale(0.015625)"/>
      <path id="DejaVuSans-Bold-6c" d="M 538 4863 
L 1656 4863 
L 1656 0 
L 538 0 
L 538 4863 
z
" transform="scale(0.015625)"/>
     </defs>
     <use xlink:href="#DejaVuSans-Bold-41"/>
     <use xlink:href="#DejaVuSans-Bold-2e" transform="translate(79.267578 0)"/>
     <use xlink:href="#DejaVuSans-Bold-20" transform="translate(117.255859 0)"/>
     <use xlink:href="#DejaVuSans-Bold-49" transform="translate(152.070312 0)"/>
     <use xlink:href="#DejaVuSans-Bold-6d" transform="translate(189.277344 0)"/>
     <use xlink:href="#DejaVuSans-Bold-61" transform="translate(293.476562 0)"/>
     <use xlink:href="#DejaVuSans-Bold-67" transform="translate(360.957031 0)"/>
     <use xlink:href="#DejaVuSans-Bold-65" transform="translate(432.539062 0)"/>
     <use xlink:href="#DejaVuSans-Bold-73" transform="translate(500.361328 0)"/>
     <use xlink:href="#DejaVuSans-Bold-3a" transform="translate(559.882812 0)"/>
     <use xlink:href="#DejaVuSans-Bold-20" transform="translate(599.873047 0)"/>
     <use xlink:href="#DejaVuSans-Bold-49" transform="translate(634.6875 0)"/>
     <use xlink:href="#DejaVuSans-Bold-6e" transform="translate(671.894531 0)"/>
     <use xlink:href="#DejaVuSans-Bold-64" transform="translate(743.085938 0)"/>
     <use xlink:href="#DejaVuSans-Bold-65" transform="translate(814.667969 0)"/>
     <use xlink:href="#DejaVuSans-Bold-70" transform="translate(882.490234 0)"/>
     <use xlink:href="#DejaVuSans-Bold-65" transform="translate(954.072266 0)"/>
     <use xlink:href="#DejaVuSans-Bold-6e" transform="translate(1021.894531 0)"/>
     <use xlink:href="#DejaVuSans-Bold-64" transform="translate(1093.085938 0)"/>
     <use xlink:href="#DejaVuSans-Bold-65" transform="translate(1164.667969 0)"/>
     <use xlink:href="#DejaVuSans-Bold-6e" transform="translate(1232.490234 0)"/>
     <use xlink:href="#DejaVuSans-Bold-74" transform="translate(1303.681641 0)"/>
     <use xlink:href="#DejaVuSans-Bold-20" transform="translate(1351.484375 0)"/>
     <use xlink:href="#DejaVuSans-Bold-53" transform="translate(1386.298828 0)"/>
     <use xlink:href="#DejaVuSans-Bold-61" transform="translate(1458.320312 0)"/>
     <use xlink:href="#DejaVuSans-Bold-6d" transform="translate(1525.800781 0)"/>
     <use xlink:href="#DejaVuSans-Bold-70" transform="translate(1630 0)"/>
     <use xlink:href="#DejaVuSans-Bold-6c" transform="translate(1701.582031 0)"/>
     <use xlink:href="#DejaVuSans-Bold-65" transform="translate(1735.859375 0)"/>
     <use xlink:href="#DejaVuSans-Bold-73" transform="translate(1803.681641 0)"/>
    </g>
   </g>
  </g>
 </g>
 <defs>
  <clipPath id="pd2b0c9aa17">
   <rect x="42.620313" y="21.558281" width="303.04" height="221.56"/>
  </clipPath>
 </defs>
</svg>
