<?xml version="1.0" encoding="utf-8" standalone="no"?>
<!DOCTYPE svg PUBLIC "-//W3C//DTD SVG 1.1//EN"
  "http://www.w3.org/Graphics/SVG/1.1/DTD/svg11.dtd">
<svg xmlns:xlink="http://www.w3.org/1999/xlink" width="352.860938pt" height="280.674531pt" viewBox="0 0 352.860938 280.674531" xmlns="http://www.w3.org/2000/svg" version="1.1">
 <metadata>
  <rdf:RDF xmlns:dc="http://purl.org/dc/elements/1.1/" xmlns:cc="http://creativecommons.org/ns#" xmlns:rdf="http://www.w3.org/1999/02/22-rdf-syntax-ns#">
   <cc:Work>
    <dc:type rdf:resource="http://purl.org/dc/dcmitype/StillImage"/>
    <dc:date>2026-01-08T05:59:51.407918</dc:date>
    <dc:format>image/svg+xml</dc:format>
    <dc:creator>
     <cc:Agent>
      <dc:title>Matplotlib v3.10.7, https://matplotlib.org/</dc:title>
     </cc:Agent>
    </dc:creator>
   </cc:Work>
  </rdf:RDF>
 </metadata>
 <defs>
  <style type="text/css">*{stroke-linejoin: round; stroke-linecap: butt}</style>
 </defs>
 <g id="figure_1">
  <g id="patch_1">
   <path d="M -0 280.674531 
L 352.860938 280.674531 
L 352.860938 0 
L -0 0 
z
" style="fill: #ffffff"/>
  </g>
  <g id="axes_1">
   <g id="patch_2">
    <path d="M 52.160938 243.118281 
L 345.660937 243.118281 
L 345.660937 21.558281 
L 52.160938 21.558281 
z
" style="fill: #ffffff"/>
   </g>
   <g id="PathCollection_1">
    <defs>
     <path id="me0bfb559a2" d="M 0 3.162278 
C 0.838646 3.162278 1.643056 2.82908 2.236068 2.236068 
C 2.82908 1.643056 3.162278 0.838646 3.162278 0 
C 3.162278 -0.838646 2.82908 -1.643056 2.236068 -2.236068 
C 1.643056 -2.82908 0.838646 -3.162278 0 -3.162278 
C -0.838646 -3.162278 -1.643056 -2.82908 -2.236068 -2.236068 
C -2.82908 -1.643056 -3.162278 -0.838646 -3.162278 0 
C -3.162278 0.838646 -2.82908 1.643056 -2.236068 2.236068 
C -1.643056 2.82908 -0.838646 3.162278 0 3.162278 
z
" style="stroke: #ff7f0e; stroke-opacity: 0.6"/>
    </defs>
    <g clip-path="url(#p5378d4c161)">
     <use xlink:href="#me0bfb559a2" x="135.691375" y="128.374407" style="fill: #ff7f0e; fill-opacity: 0.6; stroke: #ff7f0e; stroke-opacity: 0.6"/>
     <use xlink:href="#me0bfb559a2" x="136.045532" y="124.159278" style="fill: #ff7f0e; fill-opacity: 0.6; stroke: #ff7f0e; stroke-opacity: 0.6"/>
     <use xlink:href="#me0bfb559a2" x="97.055523" y="134.123117" style="fill: #ff7f0e; fill-opacity: 0.6; stroke: #ff7f0e; stroke-opacity: 0.6"/>
     <use xlink:href="#me0bfb559a2" x="113.009169" y="112.827859" style="fill: #ff7f0e; fill-opacity: 0.6; stroke: #ff7f0e; stroke-opacity: 0.6"/>
     <use xlink:href="#me0bfb559a2" x="99.483914" y="138.329163" style="fill: #ff7f0e; fill-opacity: 0.6; stroke: #ff7f0e; stroke-opacity: 0.6"/>
     <use xlink:href="#me0bfb559a2" x="66.737012" y="110.502806" style="fill: #ff7f0e; fill-opacity: 0.6; stroke: #ff7f0e; stroke-opacity: 0.6"/>
     <use xlink:href="#me0bfb559a2" x="112.410352" y="95.543052" style="fill: #ff7f0e; fill-opacity: 0.6; stroke: #ff7f0e; stroke-opacity: 0.6"/>
     <use xlink:href="#me0bfb559a2" x="130.574209" y="99.33114" style="fill: #ff7f0e; fill-opacity: 0.6; stroke: #ff7f0e; stroke-opacity: 0.6"/>
     <use xlink:href="#me0bfb559a2" x="139.818777" y="115.840094" style="fill: #ff7f0e; fill-opacity: 0.6; stroke: #ff7f0e; stroke-opacity: 0.6"/>
     <use xlink:href="#me0bfb559a2" x="127.63543" y="89.738433" style="fill: #ff7f0e; fill-opacity: 0.6; stroke: #ff7f0e; stroke-opacity: 0.6"/>
    </g>
   </g>
   <g id="patch_3">
    <path d="M 110.345796 152.408368 
C 122.23855 152.408368 133.645809 148.939018 142.055257 142.764402 
C 150.464704 136.589787 155.189745 128.214036 155.189745 119.481811 
C 155.189745 110.749586 150.464704 102.373834 142.055257 96.199219 
C 133.645809 90.024604 122.23855 86.555254 110.345796 86.555254 
C 98.453042 86.555254 87.045783 90.024604 78.636335 96.199219 
C 70.226888 102.373834 65.501847 110.749586 65.501847 119.481811 
C 65.501847 128.214036 70.226888 136.589787 78.636335 142.764402 
C 87.045783 148.939018 98.453042 152.408368 110.345796 152.408368 
L 110.345796 152.408368 
z
" clip-path="url(#p5378d4c161)" style="fill: none; opacity: 0.5; stroke-dasharray: 3.7,1.6; stroke-dashoffset: 0; stroke: #555555; stroke-linejoin: miter"/>
   </g>
   <g id="PathCollection_2">
    <g clip-path="url(#p5378d4c161)">
     <use xlink:href="#me0bfb559a2" x="222.838555" y="157.412617" style="fill: #ff7f0e; fill-opacity: 0.6; stroke: #ff7f0e; stroke-opacity: 0.6"/>
     <use xlink:href="#me0bfb559a2" x="210.601072" y="142.27373" style="fill: #ff7f0e; fill-opacity: 0.6; stroke: #ff7f0e; stroke-opacity: 0.6"/>
     <use xlink:href="#me0bfb559a2" x="212.098512" y="132.67645" style="fill: #ff7f0e; fill-opacity: 0.6; stroke: #ff7f0e; stroke-opacity: 0.6"/>
     <use xlink:href="#me0bfb559a2" x="236.911217" y="132.073429" style="fill: #ff7f0e; fill-opacity: 0.6; stroke: #ff7f0e; stroke-opacity: 0.6"/>
     <use xlink:href="#me0bfb559a2" x="230.836631" y="152.543505" style="fill: #ff7f0e; fill-opacity: 0.6; stroke: #ff7f0e; stroke-opacity: 0.6"/>
     <use xlink:href="#me0bfb559a2" x="212.216872" y="149.844931" style="fill: #ff7f0e; fill-opacity: 0.6; stroke: #ff7f0e; stroke-opacity: 0.6"/>
     <use xlink:href="#me0bfb559a2" x="243.311148" y="147.064987" style="fill: #ff7f0e; fill-opacity: 0.6; stroke: #ff7f0e; stroke-opacity: 0.6"/>
     <use xlink:href="#me0bfb559a2" x="250.226107" y="119.923112" style="fill: #ff7f0e; fill-opacity: 0.6; stroke: #ff7f0e; stroke-opacity: 0.6"/>
     <use xlink:href="#me0bfb559a2" x="182.867673" y="119.539317" style="fill: #ff7f0e; fill-opacity: 0.6; stroke: #ff7f0e; stroke-opacity: 0.6"/>
     <use xlink:href="#me0bfb559a2" x="215.522189" y="156.545364" style="fill: #ff7f0e; fill-opacity: 0.6; stroke: #ff7f0e; stroke-opacity: 0.6"/>
    </g>
   </g>
   <g id="patch_4">
    <path d="M 214.37951 175.084801 
C 226.272264 175.084801 237.679523 171.615451 246.08897 165.440836 
C 254.498418 159.26622 259.223459 150.890469 259.223459 142.158244 
C 259.223459 133.426019 254.498418 125.050268 246.08897 118.875652 
C 237.679523 112.701037 226.272264 109.231687 214.37951 109.231687 
C 202.486755 109.231687 191.079496 112.701037 182.670049 118.875652 
C 174.260602 125.050268 169.53556 133.426019 169.53556 142.158244 
C 169.53556 150.890469 174.260602 159.26622 182.670049 165.440836 
C 191.079496 171.615451 202.486755 175.084801 214.37951 175.084801 
L 214.37951 175.084801 
z
" clip-path="url(#p5378d4c161)" style="fill: none; opacity: 0.5; stroke-dasharray: 3.7,1.6; stroke-dashoffset: 0; stroke: #555555; stroke-linejoin: miter"/>
   </g>
   <g id="PathCollection_3">
    <g clip-path="url(#p5378d4c161)">
     <use xlink:href="#me0bfb559a2" x="325.281306" y="45.220975" style="fill: #ff7f0e; fill-opacity: 0.6; stroke: #ff7f0e; stroke-opacity: 0.6"/>
     <use xlink:href="#me0bfb559a2" x="297.458317" y="91.081742" style="fill: #ff7f0e; fill-opacity: 0.6; stroke: #ff7f0e; stroke-opacity: 0.6"/>
     <use xlink:href="#me0bfb559a2" x="314.02296" y="75.416469" style="fill: #ff7f0e; fill-opacity: 0.6; stroke: #ff7f0e; stroke-opacity: 0.6"/>
     <use xlink:href="#me0bfb559a2" x="316.41462" y="67.387259" style="fill: #ff7f0e; fill-opacity: 0.6; stroke: #ff7f0e; stroke-opacity: 0.6"/>
     <use xlink:href="#me0bfb559a2" x="281.2899" y="58.039959" style="fill: #ff7f0e; fill-opacity: 0.6; stroke: #ff7f0e; stroke-opacity: 0.6"/>
     <use xlink:href="#me0bfb559a2" x="280.810891" y="50.452504" style="fill: #ff7f0e; fill-opacity: 0.6; stroke: #ff7f0e; stroke-opacity: 0.6"/>
     <use xlink:href="#me0bfb559a2" x="283.229059" y="59.560131" style="fill: #ff7f0e; fill-opacity: 0.6; stroke: #ff7f0e; stroke-opacity: 0.6"/>
     <use xlink:href="#me0bfb559a2" x="264.052354" y="78.74998" style="fill: #ff7f0e; fill-opacity: 0.6; stroke: #ff7f0e; stroke-opacity: 0.6"/>
     <use xlink:href="#me0bfb559a2" x="273.85787" y="65.29317" style="fill: #ff7f0e; fill-opacity: 0.6; stroke: #ff7f0e; stroke-opacity: 0.6"/>
     <use xlink:href="#me0bfb559a2" x="314.186725" y="40.799617" style="fill: #ff7f0e; fill-opacity: 0.6; stroke: #ff7f0e; stroke-opacity: 0.6"/>
    </g>
   </g>
   <g id="patch_5">
    <path d="M 287.476079 97.482304 
C 299.368833 97.482304 310.776092 94.012954 319.18554 87.838339 
C 327.594987 81.663723 332.320028 73.287972 332.320028 64.555747 
C 332.320028 55.823522 327.594987 47.447771 319.18554 41.273156 
C 310.776092 35.09854 299.368833 31.62919 287.476079 31.62919 
C 275.583325 31.62919 264.176066 35.09854 255.766618 41.273156 
C 247.357171 47.447771 242.63213 55.823522 242.63213 64.555747 
C 242.63213 73.287972 247.357171 81.663723 255.766618 87.838339 
C 264.176066 94.012954 275.583325 97.482304 287.476079 97.482304 
L 287.476079 97.482304 
z
" clip-path="url(#p5378d4c161)" style="fill: none; opacity: 0.5; stroke-dasharray: 3.7,1.6; stroke-dashoffset: 0; stroke: #555555; stroke-linejoin: miter"/>
   </g>
   <g id="PathCollection_4">
    <g clip-path="url(#p5378d4c161)">
     <use xlink:href="#me0bfb559a2" x="217.582527" y="194.869249" style="fill: #ff7f0e; fill-opacity: 0.6; stroke: #ff7f0e; stroke-opacity: 0.6"/>
     <use xlink:href="#me0bfb559a2" x="209.616604" y="183.82897" style="fill: #ff7f0e; fill-opacity: 0.6; stroke: #ff7f0e; stroke-opacity: 0.6"/>
     <use xlink:href="#me0bfb559a2" x="232.339313" y="211.348371" style="fill: #ff7f0e; fill-opacity: 0.6; stroke: #ff7f0e; stroke-opacity: 0.6"/>
     <use xlink:href="#me0bfb559a2" x="205.674954" y="193.082069" style="fill: #ff7f0e; fill-opacity: 0.6; stroke: #ff7f0e; stroke-opacity: 0.6"/>
     <use xlink:href="#me0bfb559a2" x="213.281445" y="205.931156" style="fill: #ff7f0e; fill-opacity: 0.6; stroke: #ff7f0e; stroke-opacity: 0.6"/>
     <use xlink:href="#me0bfb559a2" x="197.702231" y="202.97552" style="fill: #ff7f0e; fill-opacity: 0.6; stroke: #ff7f0e; stroke-opacity: 0.6"/>
     <use xlink:href="#me0bfb559a2" x="180.622543" y="172.037549" style="fill: #ff7f0e; fill-opacity: 0.6; stroke: #ff7f0e; stroke-opacity: 0.6"/>
     <use xlink:href="#me0bfb559a2" x="189.559834" y="210.339893" style="fill: #ff7f0e; fill-opacity: 0.6; stroke: #ff7f0e; stroke-opacity: 0.6"/>
     <use xlink:href="#me0bfb559a2" x="200.974705" y="219.538824" style="fill: #ff7f0e; fill-opacity: 0.6; stroke: #ff7f0e; stroke-opacity: 0.6"/>
     <use xlink:href="#me0bfb559a2" x="177.230364" y="197.519674" style="fill: #ff7f0e; fill-opacity: 0.6; stroke: #ff7f0e; stroke-opacity: 0.6"/>
    </g>
   </g>
   <g id="patch_6">
    <path d="M 198.871796 233.047372 
C 210.76455 233.047372 222.171809 229.578022 230.581257 223.403407 
C 238.990704 217.228791 243.715745 208.85304 243.715745 200.120815 
C 243.715745 191.38859 238.990704 183.012839 230.581257 176.838224 
C 222.171809 170.663608 210.76455 167.194258 198.871796 167.194258 
C 186.979042 167.194258 175.571782 170.663608 167.162335 176.838224 
C 158.752888 183.012839 154.027847 191.38859 154.027847 200.120815 
C 154.027847 208.85304 158.752888 217.228791 167.162335 223.403407 
C 175.571782 229.578022 186.979042 233.047372 198.871796 233.047372 
L 198.871796 233.047372 
z
" clip-path="url(#p5378d4c161)" style="fill: none; opacity: 0.5; stroke-dasharray: 3.7,1.6; stroke-dashoffset: 0; stroke: #555555; stroke-linejoin: miter"/>
   </g>
   <g id="PathCollection_5">
    <g clip-path="url(#p5378d4c161)">
     <use xlink:href="#me0bfb559a2" x="156.732894" y="125.053742" style="fill: #ff7f0e; fill-opacity: 0.6; stroke: #ff7f0e; stroke-opacity: 0.6"/>
     <use xlink:href="#me0bfb559a2" x="239.159724" y="107.822043" style="fill: #ff7f0e; fill-opacity: 0.6; stroke: #ff7f0e; stroke-opacity: 0.6"/>
     <use xlink:href="#me0bfb559a2" x="197.350257" y="131.759084" style="fill: #ff7f0e; fill-opacity: 0.6; stroke: #ff7f0e; stroke-opacity: 0.6"/>
     <use xlink:href="#me0bfb559a2" x="229.846889" y="125.223167" style="fill: #ff7f0e; fill-opacity: 0.6; stroke: #ff7f0e; stroke-opacity: 0.6"/>
     <use xlink:href="#me0bfb559a2" x="186.876665" y="97.740936" style="fill: #ff7f0e; fill-opacity: 0.6; stroke: #ff7f0e; stroke-opacity: 0.6"/>
     <use xlink:href="#me0bfb559a2" x="205.033583" y="113.947458" style="fill: #ff7f0e; fill-opacity: 0.6; stroke: #ff7f0e; stroke-opacity: 0.6"/>
     <use xlink:href="#me0bfb559a2" x="209.831781" y="98.417966" style="fill: #ff7f0e; fill-opacity: 0.6; stroke: #ff7f0e; stroke-opacity: 0.6"/>
     <use xlink:href="#me0bfb559a2" x="229.823207" y="101.472736" style="fill: #ff7f0e; fill-opacity: 0.6; stroke: #ff7f0e; stroke-opacity: 0.6"/>
     <use xlink:href="#me0bfb559a2" x="187.641079" y="106.219073" style="fill: #ff7f0e; fill-opacity: 0.6; stroke: #ff7f0e; stroke-opacity: 0.6"/>
     <use xlink:href="#me0bfb559a2" x="204.136607" y="116.775096" style="fill: #ff7f0e; fill-opacity: 0.6; stroke: #ff7f0e; stroke-opacity: 0.6"/>
    </g>
   </g>
   <g id="patch_7">
    <path d="M 199.972894 147.324947 
C 211.865648 147.324947 223.272907 143.855597 231.682354 137.680981 
C 240.091802 131.506366 244.816843 123.130615 244.816843 114.39839 
C 244.816843 105.666165 240.091802 97.290413 231.682354 91.115798 
C 223.272907 84.941183 211.865648 81.471833 199.972894 81.471833 
C 188.080139 81.471833 176.67288 84.941183 168.263433 91.115798 
C 159.853985 97.290413 155.128944 105.666165 155.128944 114.39839 
C 155.128944 123.130615 159.853985 131.506366 168.263433 137.680981 
C 176.67288 143.855597 188.080139 147.324947 199.972894 147.324947 
L 199.972894 147.324947 
z
" clip-path="url(#p5378d4c161)" style="fill: none; opacity: 0.5; stroke-dasharray: 3.7,1.6; stroke-dashoffset: 0; stroke: #555555; stroke-linejoin: miter"/>
   </g>
   <g id="matplotlib.axis_1">
    <g id="xtick_1">
     <g id="line2d_1">
      <defs>
       <path id="m0580f1a9bf" d="M 0 0 
L 0 3.5 
" style="stroke: #000000; stroke-width: 0.8"/>
      </defs>
      <g>
       <use xlink:href="#m0580f1a9bf" x="74.986679" y="243.118281" style="stroke: #000000; stroke-width: 0.8"/>
      </g>
     </g>
     <g id="text_1">
      <!-- −1.5 -->
      <g transform="translate(62.845273 257.716719) scale(0.1 -0.1)">
       <defs>
        <path id="DejaVuSans-2212" d="M 678 2272 
L 4684 2272 
L 4684 1741 
L 678 1741 
L 678 2272 
z
" transform="scale(0.015625)"/>
        <path id="DejaVuSans-31" d="M 794 531 
L 1825 531 
L 1825 4091 
L 703 3866 
L 703 4441 
L 1819 4666 
L 2450 4666 
L 2450 531 
L 3481 531 
L 3481 0 
L 794 0 
L 794 531 
z
" transform="scale(0.015625)"/>
        <path id="DejaVuSans-2e" d="M 684 794 
L 1344 794 
L 1344 0 
L 684 0 
L 684 794 
z
" transform="scale(0.015625)"/>
        <path id="DejaVuSans-35" d="M 691 4666 
L 3169 4666 
L 3169 4134 
L 1269 4134 
L 1269 2991 
Q 1406 3038 1543 3061 
Q 1681 3084 1819 3084 
Q 2600 3084 3056 2656 
Q 3513 2228 3513 1497 
Q 3513 744 3044 326 
Q 2575 -91 1722 -91 
Q 1428 -91 1123 -41 
Q 819 9 494 109 
L 494 744 
Q 775 591 1075 516 
Q 1375 441 1709 441 
Q 2250 441 2565 725 
Q 2881 1009 2881 1497 
Q 2881 1984 2565 2268 
Q 2250 2553 1709 2553 
Q 1456 2553 1204 2497 
Q 953 2441 691 2322 
L 691 4666 
z
" transform="scale(0.015625)"/>
       </defs>
       <use xlink:href="#DejaVuSans-2212"/>
       <use xlink:href="#DejaVuSans-31" transform="translate(83.789062 0)"/>
       <use xlink:href="#DejaVuSans-2e" transform="translate(147.412109 0)"/>
       <use xlink:href="#DejaVuSans-35" transform="translate(179.199219 0)"/>
      </g>
     </g>
    </g>
    <g id="xtick_2">
     <g id="line2d_2">
      <g>
       <use xlink:href="#m0580f1a9bf" x="112.356637" y="243.118281" style="stroke: #000000; stroke-width: 0.8"/>
      </g>
     </g>
     <g id="text_2">
      <!-- −1.0 -->
      <g transform="translate(100.215231 257.716719) scale(0.1 -0.1)">
       <defs>
        <path id="DejaVuSans-30" d="M 2034 4250 
Q 1547 4250 1301 3770 
Q 1056 3291 1056 2328 
Q 1056 1369 1301 889 
Q 1547 409 2034 409 
Q 2525 409 2770 889 
Q 3016 1369 3016 2328 
Q 3016 3291 2770 3770 
Q 2525 4250 2034 4250 
z
M 2034 4750 
Q 2819 4750 3233 4129 
Q 3647 3509 3647 2328 
Q 3647 1150 3233 529 
Q 2819 -91 2034 -91 
Q 1250 -91 836 529 
Q 422 1150 422 2328 
Q 422 3509 836 4129 
Q 1250 4750 2034 4750 
z
" transform="scale(0.015625)"/>
       </defs>
       <use xlink:href="#DejaVuSans-2212"/>
       <use xlink:href="#DejaVuSans-31" transform="translate(83.789062 0)"/>
       <use xlink:href="#DejaVuSans-2e" transform="translate(147.412109 0)"/>
       <use xlink:href="#DejaVuSans-30" transform="translate(179.199219 0)"/>
      </g>
     </g>
    </g>
    <g id="xtick_3">
     <g id="line2d_3">
      <g>
       <use xlink:href="#m0580f1a9bf" x="149.726595" y="243.118281" style="stroke: #000000; stroke-width: 0.8"/>
      </g>
     </g>
     <g id="text_3">
      <!-- −0.5 -->
      <g transform="translate(137.585189 257.716719) scale(0.1 -0.1)">
       <use xlink:href="#DejaVuSans-2212"/>
       <use xlink:href="#DejaVuSans-30" transform="translate(83.789062 0)"/>
       <use xlink:href="#DejaVuSans-2e" transform="translate(147.412109 0)"/>
       <use xlink:href="#DejaVuSans-35" transform="translate(179.199219 0)"/>
      </g>
     </g>
    </g>
    <g id="xtick_4">
     <g id="line2d_4">
      <g>
       <use xlink:href="#m0580f1a9bf" x="187.096553" y="243.118281" style="stroke: #000000; stroke-width: 0.8"/>
      </g>
     </g>
     <g id="text_4">
      <!-- 0.0 -->
      <g transform="translate(179.14499 257.716719) scale(0.1 -0.1)">
       <use xlink:href="#DejaVuSans-30"/>
       <use xlink:href="#DejaVuSans-2e" transform="translate(63.623047 0)"/>
       <use xlink:href="#DejaVuSans-30" transform="translate(95.410156 0)"/>
      </g>
     </g>
    </g>
    <g id="xtick_5">
     <g id="line2d_5">
      <g>
       <use xlink:href="#m0580f1a9bf" x="224.466511" y="243.118281" style="stroke: #000000; stroke-width: 0.8"/>
      </g>
     </g>
     <g id="text_5">
      <!-- 0.5 -->
      <g transform="translate(216.514948 257.716719) scale(0.1 -0.1)">
       <use xlink:href="#DejaVuSans-30"/>
       <use xlink:href="#DejaVuSans-2e" transform="translate(63.623047 0)"/>
       <use xlink:href="#DejaVuSans-35" transform="translate(95.410156 0)"/>
      </g>
     </g>
    </g>
    <g id="xtick_6">
     <g id="line2d_6">
      <g>
       <use xlink:href="#m0580f1a9bf" x="261.836468" y="243.118281" style="stroke: #000000; stroke-width: 0.8"/>
      </g>
     </g>
     <g id="text_6">
      <!-- 1.0 -->
      <g transform="translate(253.884906 257.716719) scale(0.1 -0.1)">
       <use xlink:href="#DejaVuSans-31"/>
       <use xlink:href="#DejaVuSans-2e" transform="translate(63.623047 0)"/>
       <use xlink:href="#DejaVuSans-30" transform="translate(95.410156 0)"/>
      </g>
     </g>
    </g>
    <g id="xtick_7">
     <g id="line2d_7">
      <g>
       <use xlink:href="#m0580f1a9bf" x="299.206426" y="243.118281" style="stroke: #000000; stroke-width: 0.8"/>
      </g>
     </g>
     <g id="text_7">
      <!-- 1.5 -->
      <g transform="translate(291.254864 257.716719) scale(0.1 -0.1)">
       <use xlink:href="#DejaVuSans-31"/>
       <use xlink:href="#DejaVuSans-2e" transform="translate(63.623047 0)"/>
       <use xlink:href="#DejaVuSans-35" transform="translate(95.410156 0)"/>
      </g>
     </g>
    </g>
    <g id="xtick_8">
     <g id="line2d_8">
      <g>
       <use xlink:href="#m0580f1a9bf" x="336.576384" y="243.118281" style="stroke: #000000; stroke-width: 0.8"/>
      </g>
     </g>
     <g id="text_8">
      <!-- 2.0 -->
      <g transform="translate(328.624822 257.716719) scale(0.1 -0.1)">
       <defs>
        <path id="DejaVuSans-32" d="M 1228 531 
L 3431 531 
L 3431 0 
L 469 0 
L 469 531 
Q 828 903 1448 1529 
Q 2069 2156 2228 2338 
Q 2531 2678 2651 2914 
Q 2772 3150 2772 3378 
Q 2772 3750 2511 3984 
Q 2250 4219 1831 4219 
Q 1534 4219 1204 4116 
Q 875 4013 500 3803 
L 500 4441 
Q 881 4594 1212 4672 
Q 1544 4750 1819 4750 
Q 2544 4750 2975 4387 
Q 3406 4025 3406 3419 
Q 3406 3131 3298 2873 
Q 3191 2616 2906 2266 
Q 2828 2175 2409 1742 
Q 1991 1309 1228 531 
z
" transform="scale(0.015625)"/>
       </defs>
       <use xlink:href="#DejaVuSans-32"/>
       <use xlink:href="#DejaVuSans-2e" transform="translate(63.623047 0)"/>
       <use xlink:href="#DejaVuSans-30" transform="translate(95.410156 0)"/>
      </g>
     </g>
    </g>
    <g id="text_9">
     <!-- Feature 1 -->
     <g transform="translate(175.250781 271.394844) scale(0.1 -0.1)">
      <defs>
       <path id="DejaVuSans-46" d="M 628 4666 
L 3309 4666 
L 3309 4134 
L 1259 4134 
L 1259 2759 
L 3109 2759 
L 3109 2228 
L 1259 2228 
L 1259 0 
L 628 0 
L 628 4666 
z
" transform="scale(0.015625)"/>
       <path id="DejaVuSans-65" d="M 3597 1894 
L 3597 1613 
L 953 1613 
Q 991 1019 1311 708 
Q 1631 397 2203 397 
Q 2534 397 2845 478 
Q 3156 559 3463 722 
L 3463 178 
Q 3153 47 2828 -22 
Q 2503 -91 2169 -91 
Q 1331 -91 842 396 
Q 353 884 353 1716 
Q 353 2575 817 3079 
Q 1281 3584 2069 3584 
Q 2775 3584 3186 3129 
Q 3597 2675 3597 1894 
z
M 3022 2063 
Q 3016 2534 2758 2815 
Q 2500 3097 2075 3097 
Q 1594 3097 1305 2825 
Q 1016 2553 972 2059 
L 3022 2063 
z
" transform="scale(0.015625)"/>
       <path id="DejaVuSans-61" d="M 2194 1759 
Q 1497 1759 1228 1600 
Q 959 1441 959 1056 
Q 959 750 1161 570 
Q 1363 391 1709 391 
Q 2188 391 2477 730 
Q 2766 1069 2766 1631 
L 2766 1759 
L 2194 1759 
z
M 3341 1997 
L 3341 0 
L 2766 0 
L 2766 531 
Q 2569 213 2275 61 
Q 1981 -91 1556 -91 
Q 1019 -91 701 211 
Q 384 513 384 1019 
Q 384 1609 779 1909 
Q 1175 2209 1959 2209 
L 2766 2209 
L 2766 2266 
Q 2766 2663 2505 2880 
Q 2244 3097 1772 3097 
Q 1472 3097 1187 3025 
Q 903 2953 641 2809 
L 641 3341 
Q 956 3463 1253 3523 
Q 1550 3584 1831 3584 
Q 2591 3584 2966 3190 
Q 3341 2797 3341 1997 
z
" transform="scale(0.015625)"/>
       <path id="DejaVuSans-74" d="M 1172 4494 
L 1172 3500 
L 2356 3500 
L 2356 3053 
L 1172 3053 
L 1172 1153 
Q 1172 725 1289 603 
Q 1406 481 1766 481 
L 2356 481 
L 2356 0 
L 1766 0 
Q 1100 0 847 248 
Q 594 497 594 1153 
L 594 3053 
L 172 3053 
L 172 3500 
L 594 3500 
L 594 4494 
L 1172 4494 
z
" transform="scale(0.015625)"/>
       <path id="DejaVuSans-75" d="M 544 1381 
L 544 3500 
L 1119 3500 
L 1119 1403 
Q 1119 906 1312 657 
Q 1506 409 1894 409 
Q 2359 409 2629 706 
Q 2900 1003 2900 1516 
L 2900 3500 
L 3475 3500 
L 3475 0 
L 2900 0 
L 2900 538 
Q 2691 219 2414 64 
Q 2138 -91 1772 -91 
Q 1169 -91 856 284 
Q 544 659 544 1381 
z
M 1991 3584 
L 1991 3584 
z
" transform="scale(0.015625)"/>
       <path id="DejaVuSans-72" d="M 2631 2963 
Q 2534 3019 2420 3045 
Q 2306 3072 2169 3072 
Q 1681 3072 1420 2755 
Q 1159 2438 1159 1844 
L 1159 0 
L 581 0 
L 581 3500 
L 1159 3500 
L 1159 2956 
Q 1341 3275 1631 3429 
Q 1922 3584 2338 3584 
Q 2397 3584 2469 3576 
Q 2541 3569 2628 3553 
L 2631 2963 
z
" transform="scale(0.015625)"/>
       <path id="DejaVuSans-20" transform="scale(0.015625)"/>
      </defs>
      <use xlink:href="#DejaVuSans-46"/>
      <use xlink:href="#DejaVuSans-65" transform="translate(52.019531 0)"/>
      <use xlink:href="#DejaVuSans-61" transform="translate(113.542969 0)"/>
      <use xlink:href="#DejaVuSans-74" transform="translate(174.822266 0)"/>
      <use xlink:href="#DejaVuSans-75" transform="translate(214.03125 0)"/>
      <use xlink:href="#DejaVuSans-72" transform="translate(277.410156 0)"/>
      <use xlink:href="#DejaVuSans-65" transform="translate(316.273438 0)"/>
      <use xlink:href="#DejaVuSans-20" transform="translate(377.796875 0)"/>
      <use xlink:href="#DejaVuSans-31" transform="translate(409.583984 0)"/>
     </g>
    </g>
   </g>
   <g id="matplotlib.axis_2">
    <g id="ytick_1">
     <g id="line2d_9">
      <defs>
       <path id="mf61815a0f0" d="M 0 0 
L -3.5 0 
" style="stroke: #000000; stroke-width: 0.8"/>
      </defs>
      <g>
       <use xlink:href="#mf61815a0f0" x="52.160938" y="241.406076" style="stroke: #000000; stroke-width: 0.8"/>
      </g>
     </g>
     <g id="text_10">
      <!-- −2.0 -->
      <g transform="translate(20.878125 245.205294) scale(0.1 -0.1)">
       <use xlink:href="#DejaVuSans-2212"/>
       <use xlink:href="#DejaVuSans-32" transform="translate(83.789062 0)"/>
       <use xlink:href="#DejaVuSans-2e" transform="translate(147.412109 0)"/>
       <use xlink:href="#DejaVuSans-30" transform="translate(179.199219 0)"/>
      </g>
     </g>
    </g>
    <g id="ytick_2">
     <g id="line2d_10">
      <g>
       <use xlink:href="#mf61815a0f0" x="52.160938" y="213.967278" style="stroke: #000000; stroke-width: 0.8"/>
      </g>
     </g>
     <g id="text_11">
      <!-- −1.5 -->
      <g transform="translate(20.878125 217.766497) scale(0.1 -0.1)">
       <use xlink:href="#DejaVuSans-2212"/>
       <use xlink:href="#DejaVuSans-31" transform="translate(83.789062 0)"/>
       <use xlink:href="#DejaVuSans-2e" transform="translate(147.412109 0)"/>
       <use xlink:href="#DejaVuSans-35" transform="translate(179.199219 0)"/>
      </g>
     </g>
    </g>
    <g id="ytick_3">
     <g id="line2d_11">
      <g>
       <use xlink:href="#mf61815a0f0" x="52.160938" y="186.528481" style="stroke: #000000; stroke-width: 0.8"/>
      </g>
     </g>
     <g id="text_12">
      <!-- −1.0 -->
      <g transform="translate(20.878125 190.327699) scale(0.1 -0.1)">
       <use xlink:href="#DejaVuSans-2212"/>
       <use xlink:href="#DejaVuSans-31" transform="translate(83.789062 0)"/>
       <use xlink:href="#DejaVuSans-2e" transform="translate(147.412109 0)"/>
       <use xlink:href="#DejaVuSans-30" transform="translate(179.199219 0)"/>
      </g>
     </g>
    </g>
    <g id="ytick_4">
     <g id="line2d_12">
      <g>
       <use xlink:href="#mf61815a0f0" x="52.160938" y="159.089683" style="stroke: #000000; stroke-width: 0.8"/>
      </g>
     </g>
     <g id="text_13">
      <!-- −0.5 -->
      <g transform="translate(20.878125 162.888902) scale(0.1 -0.1)">
       <use xlink:href="#DejaVuSans-2212"/>
       <use xlink:href="#DejaVuSans-30" transform="translate(83.789062 0)"/>
       <use xlink:href="#DejaVuSans-2e" transform="translate(147.412109 0)"/>
       <use xlink:href="#DejaVuSans-35" transform="translate(179.199219 0)"/>
      </g>
     </g>
    </g>
    <g id="ytick_5">
     <g id="line2d_13">
      <g>
       <use xlink:href="#mf61815a0f0" x="52.160938" y="131.650886" style="stroke: #000000; stroke-width: 0.8"/>
      </g>
     </g>
     <g id="text_14">
      <!-- 0.0 -->
      <g transform="translate(29.257812 135.450105) scale(0.1 -0.1)">
       <use xlink:href="#DejaVuSans-30"/>
       <use xlink:href="#DejaVuSans-2e" transform="translate(63.623047 0)"/>
       <use xlink:href="#DejaVuSans-30" transform="translate(95.410156 0)"/>
      </g>
     </g>
    </g>
    <g id="ytick_6">
     <g id="line2d_14">
      <g>
       <use xlink:href="#mf61815a0f0" x="52.160938" y="104.212088" style="stroke: #000000; stroke-width: 0.8"/>
      </g>
     </g>
     <g id="text_15">
      <!-- 0.5 -->
      <g transform="translate(29.257812 108.011307) scale(0.1 -0.1)">
       <use xlink:href="#DejaVuSans-30"/>
       <use xlink:href="#DejaVuSans-2e" transform="translate(63.623047 0)"/>
       <use xlink:href="#DejaVuSans-35" transform="translate(95.410156 0)"/>
      </g>
     </g>
    </g>
    <g id="ytick_7">
     <g id="line2d_15">
      <g>
       <use xlink:href="#mf61815a0f0" x="52.160938" y="76.773291" style="stroke: #000000; stroke-width: 0.8"/>
      </g>
     </g>
     <g id="text_16">
      <!-- 1.0 -->
      <g transform="translate(29.257812 80.57251) scale(0.1 -0.1)">
       <use xlink:href="#DejaVuSans-31"/>
       <use xlink:href="#DejaVuSans-2e" transform="translate(63.623047 0)"/>
       <use xlink:href="#DejaVuSans-30" transform="translate(95.410156 0)"/>
      </g>
     </g>
    </g>
    <g id="ytick_8">
     <g id="line2d_16">
      <g>
       <use xlink:href="#mf61815a0f0" x="52.160938" y="49.334494" style="stroke: #000000; stroke-width: 0.8"/>
      </g>
     </g>
     <g id="text_17">
      <!-- 1.5 -->
      <g transform="translate(29.257812 53.133712) scale(0.1 -0.1)">
       <use xlink:href="#DejaVuSans-31"/>
       <use xlink:href="#DejaVuSans-2e" transform="translate(63.623047 0)"/>
       <use xlink:href="#DejaVuSans-35" transform="translate(95.410156 0)"/>
      </g>
     </g>
    </g>
    <g id="ytick_9">
     <g id="line2d_17">
      <g>
       <use xlink:href="#mf61815a0f0" x="52.160938" y="21.895696" style="stroke: #000000; stroke-width: 0.8"/>
      </g>
     </g>
     <g id="text_18">
      <!-- 2.0 -->
      <g transform="translate(29.257812 25.694915) scale(0.1 -0.1)">
       <use xlink:href="#DejaVuSans-32"/>
       <use xlink:href="#DejaVuSans-2e" transform="translate(63.623047 0)"/>
       <use xlink:href="#DejaVuSans-30" transform="translate(95.410156 0)"/>
      </g>
     </g>
    </g>
    <g id="text_19">
     <!-- Feature 2 -->
     <g transform="translate(14.798437 155.998437) rotate(-90) scale(0.1 -0.1)">
      <use xlink:href="#DejaVuSans-46"/>
      <use xlink:href="#DejaVuSans-65" transform="translate(52.019531 0)"/>
      <use xlink:href="#DejaVuSans-61" transform="translate(113.542969 0)"/>
      <use xlink:href="#DejaVuSans-74" transform="translate(174.822266 0)"/>
      <use xlink:href="#DejaVuSans-75" transform="translate(214.03125 0)"/>
      <use xlink:href="#DejaVuSans-72" transform="translate(277.410156 0)"/>
      <use xlink:href="#DejaVuSans-65" transform="translate(316.273438 0)"/>
      <use xlink:href="#DejaVuSans-20" transform="translate(377.796875 0)"/>
      <use xlink:href="#DejaVuSans-32" transform="translate(409.583984 0)"/>
     </g>
    </g>
   </g>
   <g id="patch_8">
    <path d="M 52.160938 243.118281 
L 52.160938 21.558281 
" style="fill: none; stroke: #000000; stroke-width: 0.8; stroke-linejoin: miter; stroke-linecap: square"/>
   </g>
   <g id="patch_9">
    <path d="M 52.160938 243.118281 
L 345.660938 243.118281 
" style="fill: none; stroke: #000000; stroke-width: 0.8; stroke-linejoin: miter; stroke-linecap: square"/>
   </g>
   <g id="text_20">
    <g id="patch_10">
     <path d="M 143.275 237.119969 
L 254.546875 237.119969 
Q 257.546875 237.119969 257.546875 234.119969 
L 257.546875 224.441844 
Q 257.546875 221.441844 254.546875 221.441844 
L 143.275 221.441844 
Q 140.275 221.441844 140.275 224.441844 
L 140.275 234.119969 
Q 140.275 237.119969 143.275 237.119969 
z
" style="fill: #ffffff; opacity: 0.8; stroke: #000000; stroke-linejoin: miter"/>
    </g>
    <!-- Homologs in train/test -->
    <g transform="translate(143.275 232.040281) scale(0.1 -0.1)">
     <defs>
      <path id="DejaVuSans-Oblique-48" d="M 1081 4666 
L 1716 4666 
L 1344 2753 
L 3634 2753 
L 4006 4666 
L 4641 4666 
L 3731 0 
L 3097 0 
L 3531 2222 
L 1241 2222 
L 806 0 
L 172 0 
L 1081 4666 
z
" transform="scale(0.015625)"/>
      <path id="DejaVuSans-Oblique-6f" d="M 1625 -91 
Q 1009 -91 651 289 
Q 294 669 294 1325 
Q 294 1706 417 2101 
Q 541 2497 738 2766 
Q 1047 3184 1428 3384 
Q 1809 3584 2291 3584 
Q 2888 3584 3255 3212 
Q 3622 2841 3622 2241 
Q 3622 1825 3500 1412 
Q 3378 1000 3181 728 
Q 2875 309 2494 109 
Q 2113 -91 1625 -91 
z
M 891 1344 
Q 891 869 1089 633 
Q 1288 397 1691 397 
Q 2269 397 2648 901 
Q 3028 1406 3028 2181 
Q 3028 2634 2825 2865 
Q 2622 3097 2228 3097 
Q 1903 3097 1650 2945 
Q 1397 2794 1197 2484 
Q 1050 2253 970 1956 
Q 891 1659 891 1344 
z
" transform="scale(0.015625)"/>
      <path id="DejaVuSans-Oblique-6d" d="M 5747 2113 
L 5338 0 
L 4763 0 
L 5166 2094 
Q 5191 2228 5203 2325 
Q 5216 2422 5216 2491 
Q 5216 2772 5059 2928 
Q 4903 3084 4622 3084 
Q 4203 3084 3875 2770 
Q 3547 2456 3450 1953 
L 3066 0 
L 2491 0 
L 2900 2094 
Q 2925 2209 2937 2307 
Q 2950 2406 2950 2484 
Q 2950 2769 2794 2926 
Q 2638 3084 2363 3084 
Q 1938 3084 1609 2770 
Q 1281 2456 1184 1953 
L 800 0 
L 225 0 
L 909 3500 
L 1484 3500 
L 1375 2956 
Q 1609 3263 1923 3423 
Q 2238 3584 2597 3584 
Q 2978 3584 3223 3384 
Q 3469 3184 3519 2828 
Q 3781 3197 4126 3390 
Q 4472 3584 4856 3584 
Q 5306 3584 5551 3325 
Q 5797 3066 5797 2591 
Q 5797 2488 5784 2364 
Q 5772 2241 5747 2113 
z
" transform="scale(0.015625)"/>
      <path id="DejaVuSans-Oblique-6c" d="M 1172 4863 
L 1747 4863 
L 800 0 
L 225 0 
L 1172 4863 
z
" transform="scale(0.015625)"/>
      <path id="DejaVuSans-Oblique-67" d="M 3816 3500 
L 3219 434 
Q 3047 -456 2561 -893 
Q 2075 -1331 1253 -1331 
Q 950 -1331 690 -1286 
Q 431 -1241 206 -1147 
L 313 -588 
Q 525 -725 762 -790 
Q 1000 -856 1269 -856 
Q 1816 -856 2167 -557 
Q 2519 -259 2631 300 
L 2681 563 
Q 2441 288 2122 144 
Q 1803 0 1434 0 
Q 903 0 598 351 
Q 294 703 294 1319 
Q 294 1803 478 2267 
Q 663 2731 997 3091 
Q 1219 3328 1514 3456 
Q 1809 3584 2131 3584 
Q 2484 3584 2746 3420 
Q 3009 3256 3138 2956 
L 3238 3500 
L 3816 3500 
z
M 2950 2216 
Q 2950 2641 2750 2872 
Q 2550 3103 2181 3103 
Q 1953 3103 1747 3012 
Q 1541 2922 1394 2759 
Q 1156 2491 1023 2127 
Q 891 1763 891 1375 
Q 891 944 1092 712 
Q 1294 481 1672 481 
Q 2219 481 2584 976 
Q 2950 1472 2950 2216 
z
" transform="scale(0.015625)"/>
      <path id="DejaVuSans-Oblique-73" d="M 3200 3397 
L 3091 2853 
Q 2863 2978 2609 3040 
Q 2356 3103 2088 3103 
Q 1634 3103 1373 2948 
Q 1113 2794 1113 2528 
Q 1113 2219 1719 2053 
Q 1766 2041 1788 2034 
L 1972 1978 
Q 2547 1819 2739 1644 
Q 2931 1469 2931 1166 
Q 2931 609 2489 259 
Q 2047 -91 1331 -91 
Q 1053 -91 747 -37 
Q 441 16 72 128 
L 184 722 
Q 500 559 806 475 
Q 1113 391 1394 391 
Q 1816 391 2080 572 
Q 2344 753 2344 1031 
Q 2344 1331 1650 1516 
L 1591 1531 
L 1394 1581 
Q 956 1697 753 1886 
Q 550 2075 550 2369 
Q 550 2928 970 3256 
Q 1391 3584 2113 3584 
Q 2397 3584 2667 3537 
Q 2938 3491 3200 3397 
z
" transform="scale(0.015625)"/>
      <path id="DejaVuSans-Oblique-20" transform="scale(0.015625)"/>
      <path id="DejaVuSans-Oblique-69" d="M 1172 4863 
L 1747 4863 
L 1606 4134 
L 1031 4134 
L 1172 4863 
z
M 909 3500 
L 1484 3500 
L 800 0 
L 225 0 
L 909 3500 
z
" transform="scale(0.015625)"/>
      <path id="DejaVuSans-Oblique-6e" d="M 3566 2113 
L 3156 0 
L 2578 0 
L 2988 2091 
Q 3016 2238 3031 2350 
Q 3047 2463 3047 2528 
Q 3047 2791 2881 2937 
Q 2716 3084 2419 3084 
Q 1956 3084 1622 2776 
Q 1288 2469 1184 1941 
L 800 0 
L 225 0 
L 903 3500 
L 1478 3500 
L 1363 2950 
Q 1603 3253 1940 3418 
Q 2278 3584 2650 3584 
Q 3113 3584 3367 3334 
Q 3622 3084 3622 2631 
Q 3622 2519 3608 2391 
Q 3594 2263 3566 2113 
z
" transform="scale(0.015625)"/>
      <path id="DejaVuSans-Oblique-74" d="M 2706 3500 
L 2619 3053 
L 1472 3053 
L 1100 1153 
Q 1081 1047 1072 975 
Q 1063 903 1063 863 
Q 1063 663 1183 572 
Q 1303 481 1569 481 
L 2150 481 
L 2053 0 
L 1503 0 
Q 991 0 739 200 
Q 488 400 488 806 
Q 488 878 497 964 
Q 506 1050 525 1153 
L 897 3053 
L 409 3053 
L 500 3500 
L 978 3500 
L 1172 4494 
L 1747 4494 
L 1556 3500 
L 2706 3500 
z
" transform="scale(0.015625)"/>
      <path id="DejaVuSans-Oblique-72" d="M 2853 2969 
Q 2766 3016 2653 3041 
Q 2541 3066 2413 3066 
Q 1953 3066 1609 2717 
Q 1266 2369 1153 1784 
L 800 0 
L 225 0 
L 909 3500 
L 1484 3500 
L 1375 2956 
Q 1603 3259 1920 3421 
Q 2238 3584 2597 3584 
Q 2691 3584 2781 3573 
Q 2872 3563 2963 3538 
L 2853 2969 
z
" transform="scale(0.015625)"/>
      <path id="DejaVuSans-Oblique-61" d="M 3438 1997 
L 3047 0 
L 2472 0 
L 2578 531 
Q 2325 219 2001 64 
Q 1678 -91 1281 -91 
Q 834 -91 548 182 
Q 263 456 263 884 
Q 263 1497 752 1853 
Q 1241 2209 2100 2209 
L 2900 2209 
L 2931 2363 
Q 2938 2388 2941 2417 
Q 2944 2447 2944 2509 
Q 2944 2788 2717 2942 
Q 2491 3097 2081 3097 
Q 1800 3097 1504 3025 
Q 1209 2953 897 2809 
L 997 3341 
Q 1322 3463 1633 3523 
Q 1944 3584 2234 3584 
Q 2853 3584 3176 3315 
Q 3500 3047 3500 2534 
Q 3500 2431 3484 2292 
Q 3469 2153 3438 1997 
z
M 2816 1759 
L 2241 1759 
Q 1534 1759 1195 1570 
Q 856 1381 856 984 
Q 856 709 1029 553 
Q 1203 397 1509 397 
Q 1978 397 2328 733 
Q 2678 1069 2791 1631 
L 2816 1759 
z
" transform="scale(0.015625)"/>
      <path id="DejaVuSans-Oblique-2f" d="M 2175 4666 
L 2731 4666 
L 84 -594 
L -469 -594 
L 2175 4666 
z
" transform="scale(0.015625)"/>
      <path id="DejaVuSans-Oblique-65" d="M 3078 2063 
Q 3088 2113 3092 2166 
Q 3097 2219 3097 2272 
Q 3097 2653 2873 2875 
Q 2650 3097 2266 3097 
Q 1838 3097 1509 2826 
Q 1181 2556 1013 2059 
L 3078 2063 
z
M 3578 1613 
L 903 1613 
Q 884 1494 878 1425 
Q 872 1356 872 1306 
Q 872 872 1139 634 
Q 1406 397 1894 397 
Q 2269 397 2603 481 
Q 2938 566 3225 728 
L 3116 159 
Q 2806 34 2476 -28 
Q 2147 -91 1806 -91 
Q 1078 -91 686 257 
Q 294 606 294 1247 
Q 294 1794 489 2264 
Q 684 2734 1063 3103 
Q 1306 3334 1642 3459 
Q 1978 3584 2356 3584 
Q 2950 3584 3301 3228 
Q 3653 2872 3653 2272 
Q 3653 2128 3634 1964 
Q 3616 1800 3578 1613 
z
" transform="scale(0.015625)"/>
     </defs>
     <use xlink:href="#DejaVuSans-Oblique-48"/>
     <use xlink:href="#DejaVuSans-Oblique-6f" transform="translate(75.195312 0)"/>
     <use xlink:href="#DejaVuSans-Oblique-6d" transform="translate(136.376953 0)"/>
     <use xlink:href="#DejaVuSans-Oblique-6f" transform="translate(233.789062 0)"/>
     <use xlink:href="#DejaVuSans-Oblique-6c" transform="translate(294.970703 0)"/>
     <use xlink:href="#DejaVuSans-Oblique-6f" transform="translate(322.753906 0)"/>
     <use xlink:href="#DejaVuSans-Oblique-67" transform="translate(383.935547 0)"/>
     <use xlink:href="#DejaVuSans-Oblique-73" transform="translate(447.412109 0)"/>
     <use xlink:href="#DejaVuSans-Oblique-20" transform="translate(499.511719 0)"/>
     <use xlink:href="#DejaVuSans-Oblique-69" transform="translate(531.298828 0)"/>
     <use xlink:href="#DejaVuSans-Oblique-6e" transform="translate(559.082031 0)"/>
     <use xlink:href="#DejaVuSans-Oblique-20" transform="translate(622.460938 0)"/>
     <use xlink:href="#DejaVuSans-Oblique-74" transform="translate(654.248047 0)"/>
     <use xlink:href="#DejaVuSans-Oblique-72" transform="translate(693.457031 0)"/>
     <use xlink:href="#DejaVuSans-Oblique-61" transform="translate(734.570312 0)"/>
     <use xlink:href="#DejaVuSans-Oblique-69" transform="translate(795.849609 0)"/>
     <use xlink:href="#DejaVuSans-Oblique-6e" transform="translate(823.632812 0)"/>
     <use xlink:href="#DejaVuSans-Oblique-2f" transform="translate(887.011719 0)"/>
     <use xlink:href="#DejaVuSans-Oblique-74" transform="translate(920.703125 0)"/>
     <use xlink:href="#DejaVuSans-Oblique-65" transform="translate(959.912109 0)"/>
     <use xlink:href="#DejaVuSans-Oblique-73" transform="translate(1021.435547 0)"/>
     <use xlink:href="#DejaVuSans-Oblique-74" transform="translate(1073.535156 0)"/>
    </g>
   </g>
   <g id="text_21">
    <!-- B. Proteins: Related by Evolution -->
    <g transform="translate(52.160938 15.558281) scale(0.11 -0.11)">
     <defs>
      <path id="DejaVuSans-Bold-42" d="M 2456 2859 
Q 2741 2859 2887 2984 
Q 3034 3109 3034 3353 
Q 3034 3594 2887 3720 
Q 2741 3847 2456 3847 
L 1791 3847 
L 1791 2859 
L 2456 2859 
z
M 2497 819 
Q 2859 819 3042 972 
Q 3225 1125 3225 1434 
Q 3225 1738 3044 1889 
Q 2863 2041 2497 2041 
L 1791 2041 
L 1791 819 
L 2497 819 
z
M 3616 2497 
Q 4003 2384 4215 2081 
Q 4428 1778 4428 1338 
Q 4428 663 3972 331 
Q 3516 0 2584 0 
L 588 0 
L 588 4666 
L 2394 4666 
Q 3366 4666 3802 4372 
Q 4238 4078 4238 3431 
Q 4238 3091 4078 2852 
Q 3919 2613 3616 2497 
z
" transform="scale(0.015625)"/>
      <path id="DejaVuSans-Bold-2e" d="M 653 1209 
L 1778 1209 
L 1778 0 
L 653 0 
L 653 1209 
z
" transform="scale(0.015625)"/>
      <path id="DejaVuSans-Bold-20" transform="scale(0.015625)"/>
      <path id="DejaVuSans-Bold-50" d="M 588 4666 
L 2584 4666 
Q 3475 4666 3951 4270 
Q 4428 3875 4428 3144 
Q 4428 2409 3951 2014 
Q 3475 1619 2584 1619 
L 1791 1619 
L 1791 0 
L 588 0 
L 588 4666 
z
M 1791 3794 
L 1791 2491 
L 2456 2491 
Q 2806 2491 2997 2661 
Q 3188 2831 3188 3144 
Q 3188 3456 2997 3625 
Q 2806 3794 2456 3794 
L 1791 3794 
z
" transform="scale(0.015625)"/>
      <path id="DejaVuSans-Bold-72" d="M 3138 2547 
Q 2991 2616 2845 2648 
Q 2700 2681 2553 2681 
Q 2122 2681 1889 2404 
Q 1656 2128 1656 1613 
L 1656 0 
L 538 0 
L 538 3500 
L 1656 3500 
L 1656 2925 
Q 1872 3269 2151 3426 
Q 2431 3584 2822 3584 
Q 2878 3584 2943 3579 
Q 3009 3575 3134 3559 
L 3138 2547 
z
" transform="scale(0.015625)"/>
      <path id="DejaVuSans-Bold-6f" d="M 2203 2784 
Q 1831 2784 1636 2517 
Q 1441 2250 1441 1747 
Q 1441 1244 1636 976 
Q 1831 709 2203 709 
Q 2569 709 2762 976 
Q 2956 1244 2956 1747 
Q 2956 2250 2762 2517 
Q 2569 2784 2203 2784 
z
M 2203 3584 
Q 3106 3584 3614 3096 
Q 4122 2609 4122 1747 
Q 4122 884 3614 396 
Q 3106 -91 2203 -91 
Q 1297 -91 786 396 
Q 275 884 275 1747 
Q 275 2609 786 3096 
Q 1297 3584 2203 3584 
z
" transform="scale(0.015625)"/>
      <path id="DejaVuSans-Bold-74" d="M 1759 4494 
L 1759 3500 
L 2913 3500 
L 2913 2700 
L 1759 2700 
L 1759 1216 
Q 1759 972 1856 886 
Q 1953 800 2241 800 
L 2816 800 
L 2816 0 
L 1856 0 
Q 1194 0 917 276 
Q 641 553 641 1216 
L 641 2700 
L 84 2700 
L 84 3500 
L 641 3500 
L 641 4494 
L 1759 4494 
z
" transform="scale(0.015625)"/>
      <path id="DejaVuSans-Bold-65" d="M 4031 1759 
L 4031 1441 
L 1416 1441 
Q 1456 1047 1700 850 
Q 1944 653 2381 653 
Q 2734 653 3104 758 
Q 3475 863 3866 1075 
L 3866 213 
Q 3469 63 3072 -14 
Q 2675 -91 2278 -91 
Q 1328 -91 801 392 
Q 275 875 275 1747 
Q 275 2603 792 3093 
Q 1309 3584 2216 3584 
Q 3041 3584 3536 3087 
Q 4031 2591 4031 1759 
z
M 2881 2131 
Q 2881 2450 2695 2645 
Q 2509 2841 2209 2841 
Q 1884 2841 1681 2658 
Q 1478 2475 1428 2131 
L 2881 2131 
z
" transform="scale(0.015625)"/>
      <path id="DejaVuSans-Bold-69" d="M 538 3500 
L 1656 3500 
L 1656 0 
L 538 0 
L 538 3500 
z
M 538 4863 
L 1656 4863 
L 1656 3950 
L 538 3950 
L 538 4863 
z
" transform="scale(0.015625)"/>
      <path id="DejaVuSans-Bold-6e" d="M 4056 2131 
L 4056 0 
L 2931 0 
L 2931 347 
L 2931 1631 
Q 2931 2084 2911 2256 
Q 2891 2428 2841 2509 
Q 2775 2619 2662 2680 
Q 2550 2741 2406 2741 
Q 2056 2741 1856 2470 
Q 1656 2200 1656 1722 
L 1656 0 
L 538 0 
L 538 3500 
L 1656 3500 
L 1656 2988 
Q 1909 3294 2193 3439 
Q 2478 3584 2822 3584 
Q 3428 3584 3742 3212 
Q 4056 2841 4056 2131 
z
" transform="scale(0.015625)"/>
      <path id="DejaVuSans-Bold-73" d="M 3272 3391 
L 3272 2541 
Q 2913 2691 2578 2766 
Q 2244 2841 1947 2841 
Q 1628 2841 1473 2761 
Q 1319 2681 1319 2516 
Q 1319 2381 1436 2309 
Q 1553 2238 1856 2203 
L 2053 2175 
Q 2913 2066 3209 1816 
Q 3506 1566 3506 1031 
Q 3506 472 3093 190 
Q 2681 -91 1863 -91 
Q 1516 -91 1145 -36 
Q 775 19 384 128 
L 384 978 
Q 719 816 1070 734 
Q 1422 653 1784 653 
Q 2113 653 2278 743 
Q 2444 834 2444 1013 
Q 2444 1163 2330 1236 
Q 2216 1309 1875 1350 
L 1678 1375 
Q 931 1469 631 1722 
Q 331 1975 331 2491 
Q 331 3047 712 3315 
Q 1094 3584 1881 3584 
Q 2191 3584 2531 3537 
Q 2872 3491 3272 3391 
z
" transform="scale(0.015625)"/>
      <path id="DejaVuSans-Bold-3a" d="M 716 3500 
L 1844 3500 
L 1844 2291 
L 716 2291 
L 716 3500 
z
M 716 1209 
L 1844 1209 
L 1844 0 
L 716 0 
L 716 1209 
z
" transform="scale(0.015625)"/>
      <path id="DejaVuSans-Bold-52" d="M 2297 2597 
Q 2675 2597 2839 2737 
Q 3003 2878 3003 3200 
Q 3003 3519 2839 3656 
Q 2675 3794 2297 3794 
L 1791 3794 
L 1791 2597 
L 2297 2597 
z
M 1791 1766 
L 1791 0 
L 588 0 
L 588 4666 
L 2425 4666 
Q 3347 4666 3776 4356 
Q 4206 4047 4206 3378 
Q 4206 2916 3982 2619 
Q 3759 2322 3309 2181 
Q 3556 2125 3751 1926 
Q 3947 1728 4147 1325 
L 4800 0 
L 3519 0 
L 2950 1159 
Q 2778 1509 2601 1637 
Q 2425 1766 2131 1766 
L 1791 1766 
z
" transform="scale(0.015625)"/>
      <path id="DejaVuSans-Bold-6c" d="M 538 4863 
L 1656 4863 
L 1656 0 
L 538 0 
L 538 4863 
z
" transform="scale(0.015625)"/>
      <path id="DejaVuSans-Bold-61" d="M 2106 1575 
Q 1756 1575 1579 1456 
Q 1403 1338 1403 1106 
Q 1403 894 1545 773 
Q 1688 653 1941 653 
Q 2256 653 2472 879 
Q 2688 1106 2688 1447 
L 2688 1575 
L 2106 1575 
z
M 3816 1997 
L 3816 0 
L 2688 0 
L 2688 519 
Q 2463 200 2181 54 
Q 1900 -91 1497 -91 
Q 953 -91 614 226 
Q 275 544 275 1050 
Q 275 1666 698 1953 
Q 1122 2241 2028 2241 
L 2688 2241 
L 2688 2328 
Q 2688 2594 2478 2717 
Q 2269 2841 1825 2841 
Q 1466 2841 1156 2769 
Q 847 2697 581 2553 
L 581 3406 
Q 941 3494 1303 3539 
Q 1666 3584 2028 3584 
Q 2975 3584 3395 3211 
Q 3816 2838 3816 1997 
z
" transform="scale(0.015625)"/>
      <path id="DejaVuSans-Bold-64" d="M 2919 2988 
L 2919 4863 
L 4044 4863 
L 4044 0 
L 2919 0 
L 2919 506 
Q 2688 197 2409 53 
Q 2131 -91 1766 -91 
Q 1119 -91 703 423 
Q 288 938 288 1747 
Q 288 2556 703 3070 
Q 1119 3584 1766 3584 
Q 2128 3584 2408 3439 
Q 2688 3294 2919 2988 
z
M 2181 722 
Q 2541 722 2730 984 
Q 2919 1247 2919 1747 
Q 2919 2247 2730 2509 
Q 2541 2772 2181 2772 
Q 1825 2772 1636 2509 
Q 1447 2247 1447 1747 
Q 1447 1247 1636 984 
Q 1825 722 2181 722 
z
" transform="scale(0.015625)"/>
      <path id="DejaVuSans-Bold-62" d="M 2400 722 
Q 2759 722 2948 984 
Q 3138 1247 3138 1747 
Q 3138 2247 2948 2509 
Q 2759 2772 2400 2772 
Q 2041 2772 1848 2508 
Q 1656 2244 1656 1747 
Q 1656 1250 1848 986 
Q 2041 722 2400 722 
z
M 1656 2988 
Q 1888 3294 2169 3439 
Q 2450 3584 2816 3584 
Q 3463 3584 3878 3070 
Q 4294 2556 4294 1747 
Q 4294 938 3878 423 
Q 3463 -91 2816 -91 
Q 2450 -91 2169 54 
Q 1888 200 1656 506 
L 1656 0 
L 538 0 
L 538 4863 
L 1656 4863 
L 1656 2988 
z
" transform="scale(0.015625)"/>
      <path id="DejaVuSans-Bold-79" d="M 78 3500 
L 1197 3500 
L 2138 1125 
L 2938 3500 
L 4056 3500 
L 2584 -331 
Q 2363 -916 2067 -1148 
Q 1772 -1381 1288 -1381 
L 641 -1381 
L 641 -647 
L 991 -647 
Q 1275 -647 1404 -556 
Q 1534 -466 1606 -231 
L 1638 -134 
L 78 3500 
z
" transform="scale(0.015625)"/>
      <path id="DejaVuSans-Bold-45" d="M 588 4666 
L 3834 4666 
L 3834 3756 
L 1791 3756 
L 1791 2888 
L 3713 2888 
L 3713 1978 
L 1791 1978 
L 1791 909 
L 3903 909 
L 3903 0 
L 588 0 
L 588 4666 
z
" transform="scale(0.015625)"/>
      <path id="DejaVuSans-Bold-76" d="M 97 3500 
L 1216 3500 
L 2088 1081 
L 2956 3500 
L 4078 3500 
L 2700 0 
L 1472 0 
L 97 3500 
z
" transform="scale(0.015625)"/>
      <path id="DejaVuSans-Bold-75" d="M 500 1363 
L 500 3500 
L 1625 3500 
L 1625 3150 
Q 1625 2866 1622 2436 
Q 1619 2006 1619 1863 
Q 1619 1441 1641 1255 
Q 1663 1069 1716 984 
Q 1784 875 1895 815 
Q 2006 756 2150 756 
Q 2500 756 2700 1025 
Q 2900 1294 2900 1772 
L 2900 3500 
L 4019 3500 
L 4019 0 
L 2900 0 
L 2900 506 
Q 2647 200 2364 54 
Q 2081 -91 1741 -91 
Q 1134 -91 817 281 
Q 500 653 500 1363 
z
" transform="scale(0.015625)"/>
     </defs>
     <use xlink:href="#DejaVuSans-Bold-42"/>
     <use xlink:href="#DejaVuSans-Bold-2e" transform="translate(76.220703 0)"/>
     <use xlink:href="#DejaVuSans-Bold-20" transform="translate(114.208984 0)"/>
     <use xlink:href="#DejaVuSans-Bold-50" transform="translate(149.023438 0)"/>
     <use xlink:href="#DejaVuSans-Bold-72" transform="translate(222.314453 0)"/>
     <use xlink:href="#DejaVuSans-Bold-6f" transform="translate(271.630859 0)"/>
     <use xlink:href="#DejaVuSans-Bold-74" transform="translate(340.332031 0)"/>
     <use xlink:href="#DejaVuSans-Bold-65" transform="translate(388.134766 0)"/>
     <use xlink:href="#DejaVuSans-Bold-69" transform="translate(455.957031 0)"/>
     <use xlink:href="#DejaVuSans-Bold-6e" transform="translate(490.234375 0)"/>
     <use xlink:href="#DejaVuSans-Bold-73" transform="translate(561.425781 0)"/>
     <use xlink:href="#DejaVuSans-Bold-3a" transform="translate(620.947266 0)"/>
     <use xlink:href="#DejaVuSans-Bold-20" transform="translate(660.9375 0)"/>
     <use xlink:href="#DejaVuSans-Bold-52" transform="translate(695.751953 0)"/>
     <use xlink:href="#DejaVuSans-Bold-65" transform="translate(772.753906 0)"/>
     <use xlink:href="#DejaVuSans-Bold-6c" transform="translate(840.576172 0)"/>
     <use xlink:href="#DejaVuSans-Bold-61" transform="translate(874.853516 0)"/>
     <use xlink:href="#DejaVuSans-Bold-74" transform="translate(942.333984 0)"/>
     <use xlink:href="#DejaVuSans-Bold-65" transform="translate(990.136719 0)"/>
     <use xlink:href="#DejaVuSans-Bold-64" transform="translate(1057.958984 0)"/>
     <use xlink:href="#DejaVuSans-Bold-20" transform="translate(1129.541016 0)"/>
     <use xlink:href="#DejaVuSans-Bold-62" transform="translate(1164.355469 0)"/>
     <use xlink:href="#DejaVuSans-Bold-79" transform="translate(1235.9375 0)"/>
     <use xlink:href="#DejaVuSans-Bold-20" transform="translate(1301.123047 0)"/>
     <use xlink:href="#DejaVuSans-Bold-45" transform="translate(1335.9375 0)"/>
     <use xlink:href="#DejaVuSans-Bold-76" transform="translate(1404.248047 0)"/>
     <use xlink:href="#DejaVuSans-Bold-6f" transform="translate(1469.433594 0)"/>
     <use xlink:href="#DejaVuSans-Bold-6c" transform="translate(1538.134766 0)"/>
     <use xlink:href="#DejaVuSans-Bold-75" transform="translate(1572.412109 0)"/>
     <use xlink:href="#DejaVuSans-Bold-74" transform="translate(1643.603516 0)"/>
     <use xlink:href="#DejaVuSans-Bold-69" transform="translate(1691.40625 0)"/>
     <use xlink:href="#DejaVuSans-Bold-6f" transform="translate(1725.683594 0)"/>
     <use xlink:href="#DejaVuSans-Bold-6e" transform="translate(1794.384766 0)"/>
    </g>
   </g>
  </g>
 </g>
 <defs>
  <clipPath id="p5378d4c161">
   <rect x="52.160938" y="21.558281" width="293.5" height="221.56"/>
  </clipPath>
 </defs>
</svg>
