<?xml version="1.0" encoding="UTF-8" standalone="no"?>
<!DOCTYPE svg PUBLIC "-//W3C//DTD SVG 1.1//EN"
 "http://www.w3.org/Graphics/SVG/1.1/DTD/svg11.dtd">
<!-- Generated by graphviz version 2.43.0 (0)
 -->
<!-- Title: homology_split Pages: 1 -->
<svg width="720pt" height="51pt"
 viewBox="0.00 0.00 720.00 50.98" xmlns="http://www.w3.org/2000/svg" xmlns:xlink="http://www.w3.org/1999/xlink">
<g id="graph0" class="graph" transform="scale(1.04 1.04) rotate(0) translate(4 45)">
<title>homology_split</title>
<polygon fill="white" stroke="transparent" points="-4,4 -4,-45 688,-45 688,4 -4,4"/>
<!-- seqs -->
<g id="node1" class="node">
<title>seqs</title>
<path fill="#aec7e8" stroke="black" stroke-width="1.5" d="M53,-38.5C53,-38.5 12,-38.5 12,-38.5 6,-38.5 0,-32.5 0,-26.5 0,-26.5 0,-14.5 0,-14.5 0,-8.5 6,-2.5 12,-2.5 12,-2.5 53,-2.5 53,-2.5 59,-2.5 65,-8.5 65,-14.5 65,-14.5 65,-26.5 65,-26.5 65,-32.5 59,-38.5 53,-38.5"/>
<text text-anchor="middle" x="32.5" y="-23.5" font-family="Arial" font-size="10.00">All</text>
<text text-anchor="middle" x="32.5" y="-12.5" font-family="Arial" font-size="10.00">Sequences</text>
</g>
<!-- cluster -->
<g id="node2" class="node">
<title>cluster</title>
<path fill="#c5b0d5" stroke="black" stroke-width="1.5" d="M198,-41C198,-41 160,-41 160,-41 154,-41 148,-35 148,-29 148,-29 148,-12 148,-12 148,-6 154,0 160,0 160,0 198,0 198,0 204,0 210,-6 210,-12 210,-12 210,-29 210,-29 210,-35 204,-41 198,-41"/>
<text text-anchor="middle" x="179" y="-29" font-family="Arial" font-size="10.00">Cluster by</text>
<text text-anchor="middle" x="179" y="-18" font-family="Arial" font-size="10.00">Similarity</text>
<text text-anchor="middle" x="179" y="-7" font-family="Arial" font-size="10.00">(CD&#45;HIT)</text>
</g>
<!-- seqs&#45;&gt;cluster -->
<g id="edge1" class="edge">
<title>seqs&#45;&gt;cluster</title>
<path fill="none" stroke="black" d="M65.21,-20.5C86.54,-20.5 114.83,-20.5 137.74,-20.5"/>
<polygon fill="black" stroke="black" points="137.85,-24 147.85,-20.5 137.85,-17 137.85,-24"/>
<text text-anchor="middle" x="106.5" y="-24.3" font-family="Times,serif" font-size="14.00">Step 1</text>
</g>
<!-- viz -->
<g id="node3" class="node">
<title>viz</title>
<path fill="#98df8a" stroke="black" stroke-width="1.5" d="M337,-38.5C337,-38.5 305,-38.5 305,-38.5 299,-38.5 293,-32.5 293,-26.5 293,-26.5 293,-14.5 293,-14.5 293,-8.5 299,-2.5 305,-2.5 305,-2.5 337,-2.5 337,-2.5 343,-2.5 349,-8.5 349,-14.5 349,-14.5 349,-26.5 349,-26.5 349,-32.5 343,-38.5 337,-38.5"/>
<text text-anchor="middle" x="321" y="-23.5" font-family="Arial" font-size="10.00">Visualize</text>
<text text-anchor="middle" x="321" y="-12.5" font-family="Arial" font-size="10.00">Clusters</text>
</g>
<!-- cluster&#45;&gt;viz -->
<g id="edge2" class="edge">
<title>cluster&#45;&gt;viz</title>
<path fill="none" stroke="black" d="M210.03,-20.5C231.26,-20.5 259.85,-20.5 282.57,-20.5"/>
<polygon fill="black" stroke="black" points="282.86,-24 292.86,-20.5 282.86,-17 282.86,-24"/>
<text text-anchor="middle" x="251.5" y="-24.3" font-family="Times,serif" font-size="14.00">Step 2</text>
</g>
<!-- assign -->
<g id="node4" class="node">
<title>assign</title>
<path fill="#ffbb78" stroke="black" stroke-width="1.5" d="M506,-38.5C506,-38.5 444,-38.5 444,-38.5 438,-38.5 432,-32.5 432,-26.5 432,-26.5 432,-14.5 432,-14.5 432,-8.5 438,-2.5 444,-2.5 444,-2.5 506,-2.5 506,-2.5 512,-2.5 518,-8.5 518,-14.5 518,-14.5 518,-26.5 518,-26.5 518,-32.5 512,-38.5 506,-38.5"/>
<text text-anchor="middle" x="475" y="-23.5" font-family="Arial" font-size="10.00">Assign Clusters</text>
<text text-anchor="middle" x="475" y="-12.5" font-family="Arial" font-size="10.00">to Splits</text>
</g>
<!-- viz&#45;&gt;assign -->
<g id="edge3" class="edge">
<title>viz&#45;&gt;assign</title>
<path fill="none" stroke="black" d="M349.17,-20.5C369.27,-20.5 397.27,-20.5 421.66,-20.5"/>
<polygon fill="black" stroke="black" points="421.86,-24 431.86,-20.5 421.86,-17 421.86,-24"/>
<text text-anchor="middle" x="390.5" y="-24.3" font-family="Times,serif" font-size="14.00">Step 3</text>
</g>
<!-- validate -->
<g id="node5" class="node">
<title>validate</title>
<path fill="#2ca02c" stroke="black" stroke-width="1.5" d="M672,-38.5C672,-38.5 613,-38.5 613,-38.5 607,-38.5 601,-32.5 601,-26.5 601,-26.5 601,-14.5 601,-14.5 601,-8.5 607,-2.5 613,-2.5 613,-2.5 672,-2.5 672,-2.5 678,-2.5 684,-8.5 684,-14.5 684,-14.5 684,-26.5 684,-26.5 684,-32.5 678,-38.5 672,-38.5"/>
<text text-anchor="middle" x="642.5" y="-23.5" font-family="Arial" font-size="10.00" fill="white">Validate No</text>
<text text-anchor="middle" x="642.5" y="-12.5" font-family="Arial" font-size="10.00" fill="white">Cross&#45;Leakage</text>
</g>
<!-- assign&#45;&gt;validate -->
<g id="edge4" class="edge">
<title>assign&#45;&gt;validate</title>
<path fill="none" stroke="black" d="M518.19,-20.5C540.3,-20.5 567.54,-20.5 590.79,-20.5"/>
<polygon fill="black" stroke="black" points="590.81,-24 600.81,-20.5 590.81,-17 590.81,-24"/>
<text text-anchor="middle" x="559.5" y="-24.3" font-family="Times,serif" font-size="14.00">Step 4</text>
</g>
</g>
</svg>
