<?xml version="1.0" encoding="utf-8" ?>
<svg xmlns="http://www.w3.org/2000/svg" xmlns:ev="http://www.w3.org/2001/xml-events" xmlns:xlink="http://www.w3.org/1999/xlink" baseProfile="full" height="800" version="1.1" width="1200">
  <defs>
    <marker id="id306" markerHeight="7" markerWidth="7" orient="auto" refX="6" refY="3">
      <path d="M0,0 L0,6 L6,3 z" fill="#333333"/>
    </marker>
  </defs>
  <rect fill="white" height="800" width="1200" x="0" y="0"/>
  <text fill="#111" font-family="Arial, Helvetica, sans-serif" font-size="28" font-weight="700" x="60" y="50">Figure 2: In Silico Mutagenesis</text>
  <text fill="#444" font-family="Arial, Helvetica, sans-serif" font-size="16" x="60" y="78">Panel B</text>
  <line stroke="#333" stroke-width="2" x1="140" x2="1000" y1="720" y2="720"/>
  <line stroke="#333" stroke-width="2" x1="140" x2="140" y1="160" y2="720"/>
  <circle cx="509.49104522471" cy="595.5477278912199" fill="#1f77b4" opacity="0.75" r="4"/>
  <circle cx="454.91156210097455" cy="540.4981497443948" fill="#ff7f0e" opacity="0.75" r="4"/>
  <circle cx="398.15356552849283" cy="539.2218844920235" fill="#2ca02c" opacity="0.75" r="4"/>
  <circle cx="392.71411640008614" cy="477.44927425791974" fill="#ff7f0e" opacity="0.75" r="4"/>
  <circle cx="465.7762426874227" cy="457.442735549731" fill="#ff7f0e" opacity="0.75" r="4"/>
  <circle cx="469.7587645105155" cy="530.5053419968444" fill="#2ca02c" opacity="0.75" r="4"/>
  <circle cx="389.2739172386491" cy="576.1703190685978" fill="#1f77b4" opacity="0.75" r="4"/>
  <circle cx="480.60094040229694" cy="587.5965678336349" fill="#1f77b4" opacity="0.75" r="4"/>
  <circle cx="346.4623867184877" cy="469.31064261731296" fill="#1f77b4" opacity="0.75" r="4"/>
  <circle cx="198.38240358946055" cy="560.7904280651105" fill="#2ca02c" opacity="0.75" r="4"/>
  <circle cx="409.6847900223416" cy="577.5015073113542" fill="#ff7f0e" opacity="0.75" r="4"/>
  <circle cx="308.29536038360845" cy="479.8987243088305" fill="#1f77b4" opacity="0.75" r="4"/>
  <circle cx="355.67943594272003" cy="567.7132321639859" fill="#1f77b4" opacity="0.75" r="4"/>
  <circle cx="453.7923384341735" cy="570.7526966259256" fill="#2ca02c" opacity="0.75" r="4"/>
  <circle cx="366.79747713654325" cy="529.9628019305243" fill="#1f77b4" opacity="0.75" r="4"/>
  <circle cx="410.3034467546676" cy="524.4379889752704" fill="#2ca02c" opacity="0.75" r="4"/>
  <circle cx="401.2017323321159" cy="481.50297578245033" fill="#2ca02c" opacity="0.75" r="4"/>
  <circle cx="445.84464295861466" cy="515.6920747963303" fill="#ff7f0e" opacity="0.75" r="4"/>
  <circle cx="400.30068649962675" cy="456.3077295757431" fill="#2ca02c" opacity="0.75" r="4"/>
  <circle cx="398.78842925317355" cy="568.7294454878331" fill="#2ca02c" opacity="0.75" r="4"/>
  <circle cx="455.2932808193016" cy="526.363374825331" fill="#2ca02c" opacity="0.75" r="4"/>
  <circle cx="347.6144753351598" cy="510.94497438714114" fill="#2ca02c" opacity="0.75" r="4"/>
  <circle cx="484.72942655288216" cy="523.6952824191086" fill="#ff7f0e" opacity="0.75" r="4"/>
  <circle cx="453.0142635675524" cy="558.193808798515" fill="#1f77b4" opacity="0.75" r="4"/>
  <circle cx="401.60244208067553" cy="553.636564689957" fill="#2ca02c" opacity="0.75" r="4"/>
  <circle cx="452.5713764962901" cy="487.4811562171824" fill="#ff7f0e" opacity="0.75" r="4"/>
  <circle cx="240.01971416491665" cy="510.2987511324102" fill="#2ca02c" opacity="0.75" r="4"/>
  <circle cx="324.0639228235152" cy="470.8561701677291" fill="#1f77b4" opacity="0.75" r="4"/>
  <circle cx="189.97362939077124" cy="509.8634463235253" fill="#2ca02c" opacity="0.75" r="4"/>
  <circle cx="302.4916199205112" cy="555.7685048128847" fill="#ff7f0e" opacity="0.75" r="4"/>
  <circle cx="347.3124965469264" cy="605.0225969540345" fill="#ff7f0e" opacity="0.75" r="4"/>
  <circle cx="360.6610056659133" cy="526.2844542992852" fill="#2ca02c" opacity="0.75" r="4"/>
  <circle cx="396.46208465206337" cy="486.9875096686877" fill="#ff7f0e" opacity="0.75" r="4"/>
  <circle cx="583.526332935515" cy="494.8749511310722" fill="#ff7f0e" opacity="0.75" r="4"/>
  <circle cx="448.54417543101147" cy="466.88686851657275" fill="#ff7f0e" opacity="0.75" r="4"/>
  <circle cx="458.4365426264151" cy="558.8656464802052" fill="#ff7f0e" opacity="0.75" r="4"/>
  <circle cx="431.4447280191101" cy="546.140145505211" fill="#2ca02c" opacity="0.75" r="4"/>
  <circle cx="468.7542644570446" cy="517.3985499947478" fill="#1f77b4" opacity="0.75" r="4"/>
  <circle cx="386.71776097425595" cy="585.0681442616869" fill="#1f77b4" opacity="0.75" r="4"/>
  <circle cx="325.4546009742035" cy="543.515732351115" fill="#ff7f0e" opacity="0.75" r="4"/>
  <circle cx="386.91143492082" cy="556.1524004352666" fill="#ff7f0e" opacity="0.75" r="4"/>
  <circle cx="313.2367084392619" cy="602.3093584693764" fill="#1f77b4" opacity="0.75" r="4"/>
  <circle cx="371.66492059460273" cy="616.0542588454571" fill="#2ca02c" opacity="0.75" r="4"/>
  <circle cx="499.1403937715326" cy="567.6132365748706" fill="#ff7f0e" opacity="0.75" r="4"/>
  <circle cx="332.38103775891506" cy="536.126782209273" fill="#1f77b4" opacity="0.75" r="4"/>
  <circle cx="408.63163039990565" cy="506.1059510746969" fill="#2ca02c" opacity="0.75" r="4"/>
  <circle cx="452.7422706176996" cy="551.4659379091622" fill="#2ca02c" opacity="0.75" r="4"/>
  <circle cx="333.3973031718406" cy="442.82454620903394" fill="#1f77b4" opacity="0.75" r="4"/>
  <circle cx="320.92694086554445" cy="496.3630169654752" fill="#1f77b4" opacity="0.75" r="4"/>
  <circle cx="242.87482301272098" cy="558.3541872464662" fill="#2ca02c" opacity="0.75" r="4"/>
  <circle cx="458.6551040194776" cy="476.99903153600866" fill="#ff7f0e" opacity="0.75" r="4"/>
  <circle cx="328.46209695938455" cy="565.693687542587" fill="#ff7f0e" opacity="0.75" r="4"/>
  <circle cx="478.3116901857964" cy="508.8652376737317" fill="#2ca02c" opacity="0.75" r="4"/>
  <circle cx="335.054985995866" cy="477.66550248840673" fill="#ff7f0e" opacity="0.75" r="4"/>
  <circle cx="417.2005098754156" cy="496.0361033135732" fill="#ff7f0e" opacity="0.75" r="4"/>
  <circle cx="836.502736824506" cy="407.3739198259614" fill="#ff7f0e" opacity="0.75" r="4"/>
  <circle cx="521.4316553969892" cy="390.81995930679375" fill="#2ca02c" opacity="0.75" r="4"/>
  <circle cx="594.139696159106" cy="384.21293127803847" fill="#ff7f0e" opacity="0.75" r="4"/>
  <circle cx="617.0174396041535" cy="480.61164875822453" fill="#2ca02c" opacity="0.75" r="4"/>
  <circle cx="607.6701050219272" cy="343.1233397802641" fill="#1f77b4" opacity="0.75" r="4"/>
  <circle cx="672.245480113392" cy="388.8534579128976" fill="#1f77b4" opacity="0.75" r="4"/>
  <circle cx="595.5509288171659" cy="386.29155769431355" fill="#1f77b4" opacity="0.75" r="4"/>
  <circle cx="734.0364351972892" cy="411.7562685889925" fill="#ff7f0e" opacity="0.75" r="4"/>
  <circle cx="659.8551875240476" cy="389.1361517915773" fill="#2ca02c" opacity="0.75" r="4"/>
  <circle cx="567.6109691136851" cy="402.2529968890082" fill="#1f77b4" opacity="0.75" r="4"/>
  <circle cx="606.995593040016" cy="438.75450182609063" fill="#ff7f0e" opacity="0.75" r="4"/>
  <circle cx="573.8505270489438" cy="343.35825796676903" fill="#ff7f0e" opacity="0.75" r="4"/>
  <circle cx="597.0574938765219" cy="379.6929368932017" fill="#1f77b4" opacity="0.75" r="4"/>
  <circle cx="613.1390167168079" cy="446.73931745745944" fill="#2ca02c" opacity="0.75" r="4"/>
  <circle cx="616.483376269894" cy="427.5334845576211" fill="#2ca02c" opacity="0.75" r="4"/>
  <circle cx="652.045890738984" cy="378.4490726053331" fill="#2ca02c" opacity="0.75" r="4"/>
  <circle cx="683.1376676901156" cy="352.37245073342405" fill="#2ca02c" opacity="0.75" r="4"/>
  <circle cx="549.568606186518" cy="465.12467148766297" fill="#ff7f0e" opacity="0.75" r="4"/>
  <circle cx="840.5753869816432" cy="403.6202551793316" fill="#2ca02c" opacity="0.75" r="4"/>
  <circle cx="681.806578090527" cy="321.8425435237664" fill="#1f77b4" opacity="0.75" r="4"/>
  <circle cx="695.5146371259389" cy="384.8544604481425" fill="#1f77b4" opacity="0.75" r="4"/>
  <circle cx="694.6201656276954" cy="393.7294909796299" fill="#1f77b4" opacity="0.75" r="4"/>
  <circle cx="557.1570047671107" cy="458.13687659164617" fill="#1f77b4" opacity="0.75" r="4"/>
  <circle cx="682.1844158393724" cy="380.9961829636663" fill="#2ca02c" opacity="0.75" r="4"/>
  <circle cx="653.5895522981452" cy="453.31830473733964" fill="#1f77b4" opacity="0.75" r="4"/>
  <circle cx="653.561914969606" cy="463.78179075900505" fill="#2ca02c" opacity="0.75" r="4"/>
  <circle cx="815.8417187963522" cy="377.4482326522998" fill="#1f77b4" opacity="0.75" r="4"/>
  <circle cx="478.86401203122483" cy="418.4713851844594" fill="#ff7f0e" opacity="0.75" r="4"/>
  <circle cx="727.0298300765141" cy="364.2302165109826" fill="#2ca02c" opacity="0.75" r="4"/>
  <circle cx="708.3938844835759" cy="318.9986844756405" fill="#2ca02c" opacity="0.75" r="4"/>
  <circle cx="625.0040003280571" cy="443.1215987675222" fill="#ff7f0e" opacity="0.75" r="4"/>
  <circle cx="775.2051368702932" cy="401.07605578931555" fill="#1f77b4" opacity="0.75" r="4"/>
  <circle cx="719.6607546190002" cy="461.8125237644713" fill="#2ca02c" opacity="0.75" r="4"/>
  <circle cx="681.9789647563882" cy="365.0504846348812" fill="#ff7f0e" opacity="0.75" r="4"/>
  <circle cx="630.7406458903743" cy="388.2358810365929" fill="#2ca02c" opacity="0.75" r="4"/>
  <circle cx="660.8533990141606" cy="329.36123090768365" fill="#2ca02c" opacity="0.75" r="4"/>
  <circle cx="682.5920005992557" cy="446.2960037904938" fill="#1f77b4" opacity="0.75" r="4"/>
  <circle cx="651.0944886741031" cy="415.01902672793597" fill="#2ca02c" opacity="0.75" r="4"/>
  <circle cx="612.2067800072228" cy="376.1259215029398" fill="#2ca02c" opacity="0.75" r="4"/>
  <circle cx="578.549536090457" cy="480.34300280612985" fill="#ff7f0e" opacity="0.75" r="4"/>
  <circle cx="699.7219035432721" cy="380.9888818782025" fill="#ff7f0e" opacity="0.75" r="4"/>
  <circle cx="533.1346350007668" cy="434.91880719720336" fill="#1f77b4" opacity="0.75" r="4"/>
  <circle cx="620.5842462394985" cy="370.62121524372435" fill="#ff7f0e" opacity="0.75" r="4"/>
  <circle cx="609.9716402159486" cy="467.107871114995" fill="#2ca02c" opacity="0.75" r="4"/>
  <circle cx="659.6845053755375" cy="400.5584499988202" fill="#1f77b4" opacity="0.75" r="4"/>
  <circle cx="478.2443169670692" cy="417.59159055615874" fill="#1f77b4" opacity="0.75" r="4"/>
  <circle cx="711.0794353601492" cy="423.1082646317596" fill="#1f77b4" opacity="0.75" r="4"/>
  <circle cx="616.9545159956197" cy="374.97728411316893" fill="#2ca02c" opacity="0.75" r="4"/>
  <circle cx="594.5772629764431" cy="406.7342169911044" fill="#2ca02c" opacity="0.75" r="4"/>
  <circle cx="579.3923711886105" cy="441.549133951779" fill="#2ca02c" opacity="0.75" r="4"/>
  <circle cx="670.2542344734796" cy="469.4010719198132" fill="#2ca02c" opacity="0.75" r="4"/>
  <circle cx="697.0314303586213" cy="446.09898446002586" fill="#ff7f0e" opacity="0.75" r="4"/>
  <circle cx="582.4470686198963" cy="337.77965240990466" fill="#ff7f0e" opacity="0.75" r="4"/>
  <circle cx="811.4920774028029" cy="439.45747985817286" fill="#2ca02c" opacity="0.75" r="4"/>
  <circle cx="737.1282298394376" cy="304.4616134624321" fill="#ff7f0e" opacity="0.75" r="4"/>
  <circle cx="577.6356962539471" cy="542.5351364744218" fill="#2ca02c" opacity="0.75" r="4"/>
  <circle cx="550.7884518472495" cy="576.7621408648346" fill="#2ca02c" opacity="0.75" r="4"/>
  <circle cx="553.8540053473869" cy="600.9755187364228" fill="#1f77b4" opacity="0.75" r="4"/>
  <circle cx="552.8405929617322" cy="579.9830721797707" fill="#ff7f0e" opacity="0.75" r="4"/>
  <circle cx="585.170182195661" cy="665.7854495777992" fill="#1f77b4" opacity="0.75" r="4"/>
  <circle cx="599.6398197633644" cy="571.5037941054933" fill="#2ca02c" opacity="0.75" r="4"/>
  <circle cx="492.9923896649729" cy="500.35086276808084" fill="#2ca02c" opacity="0.75" r="4"/>
  <circle cx="565.3767200326712" cy="567.7650866086652" fill="#1f77b4" opacity="0.75" r="4"/>
  <circle cx="518.3380136106825" cy="618.790321752587" fill="#1f77b4" opacity="0.75" r="4"/>
  <circle cx="455.4970979090782" cy="576.1550866300063" fill="#ff7f0e" opacity="0.75" r="4"/>
  <circle cx="484.200269889774" cy="623.0344139939823" fill="#1f77b4" opacity="0.75" r="4"/>
  <circle cx="500.37887296354694" cy="493.2915559394496" fill="#1f77b4" opacity="0.75" r="4"/>
  <circle cx="527.4972639689129" cy="524.2663890424234" fill="#2ca02c" opacity="0.75" r="4"/>
  <circle cx="559.0580976665717" cy="564.5116938454223" fill="#1f77b4" opacity="0.75" r="4"/>
  <circle cx="499.2444001108892" cy="635.3027053930278" fill="#2ca02c" opacity="0.75" r="4"/>
  <circle cx="581.1813833903906" cy="589.8700968365351" fill="#2ca02c" opacity="0.75" r="4"/>
  <circle cx="618.8615925019571" cy="554.3606762810155" fill="#2ca02c" opacity="0.75" r="4"/>
  <circle cx="580.9351320815526" cy="553.6549393294326" fill="#ff7f0e" opacity="0.75" r="4"/>
  <circle cx="462.59871767922334" cy="601.2293318710826" fill="#ff7f0e" opacity="0.75" r="4"/>
  <circle cx="383.48227193839705" cy="616.8968318944574" fill="#2ca02c" opacity="0.75" r="4"/>
  <circle cx="551.033421687624" cy="548.2902406883995" fill="#1f77b4" opacity="0.75" r="4"/>
  <circle cx="512.2679312039872" cy="583.7535736804653" fill="#ff7f0e" opacity="0.75" r="4"/>
  <circle cx="487.90086950625687" cy="586.1483683448919" fill="#ff7f0e" opacity="0.75" r="4"/>
  <circle cx="441.3744738874714" cy="576.52576208486" fill="#1f77b4" opacity="0.75" r="4"/>
  <circle cx="486.05735864237414" cy="579.7843046160169" fill="#2ca02c" opacity="0.75" r="4"/>
  <circle cx="446.37582444669397" cy="588.8432185879653" fill="#2ca02c" opacity="0.75" r="4"/>
  <circle cx="547.1336983402175" cy="592.9723741711166" fill="#1f77b4" opacity="0.75" r="4"/>
  <circle cx="564.7276674049415" cy="570.668833110376" fill="#ff7f0e" opacity="0.75" r="4"/>
  <circle cx="451.7684500475296" cy="540.6869845515155" fill="#ff7f0e" opacity="0.75" r="4"/>
  <circle cx="529.0298148081009" cy="543.7250968781472" fill="#1f77b4" opacity="0.75" r="4"/>
  <circle cx="457.76342864419985" cy="585.7371496447388" fill="#ff7f0e" opacity="0.75" r="4"/>
  <circle cx="558.0144328213514" cy="549.5388300680502" fill="#ff7f0e" opacity="0.75" r="4"/>
  <circle cx="454.1357490215139" cy="575.7800370878217" fill="#2ca02c" opacity="0.75" r="4"/>
  <circle cx="561.5077626007176" cy="617.8622739877154" fill="#1f77b4" opacity="0.75" r="4"/>
  <circle cx="478.33605336953764" cy="596.35010115112" fill="#2ca02c" opacity="0.75" r="4"/>
  <circle cx="450.0224826100791" cy="627.4638062505325" fill="#ff7f0e" opacity="0.75" r="4"/>
  <circle cx="514.6842275339127" cy="520.3974814121605" fill="#ff7f0e" opacity="0.75" r="4"/>
  <circle cx="461.2138683015209" cy="557.2957319763748" fill="#2ca02c" opacity="0.75" r="4"/>
  <circle cx="641.0439019646113" cy="583.1076433363373" fill="#ff7f0e" opacity="0.75" r="4"/>
  <circle cx="565.1606189007903" cy="518.1032206881514" fill="#1f77b4" opacity="0.75" r="4"/>
  <circle cx="524.8486425829271" cy="548.8547755226964" fill="#1f77b4" opacity="0.75" r="4"/>
  <circle cx="511.57344981623294" cy="590.6685994008448" fill="#1f77b4" opacity="0.75" r="4"/>
  <circle cx="446.870626740128" cy="532.1902714966834" fill="#2ca02c" opacity="0.75" r="4"/>
  <circle cx="545.8700020109724" cy="553.9193628594757" fill="#ff7f0e" opacity="0.75" r="4"/>
  <circle cx="490.6375026286827" cy="498.60108254717534" fill="#1f77b4" opacity="0.75" r="4"/>
  <circle cx="510.25254442460056" cy="570.1177436657447" fill="#ff7f0e" opacity="0.75" r="4"/>
  <circle cx="545.3388471779671" cy="545.3945576083993" fill="#ff7f0e" opacity="0.75" r="4"/>
  <circle cx="601.9644777246474" cy="605.9722113286058" fill="#ff7f0e" opacity="0.75" r="4"/>
  <circle cx="528.8580355632785" cy="562.0922450605008" fill="#1f77b4" opacity="0.75" r="4"/>
  <circle cx="690.9652009957177" cy="534.0196595724365" fill="#ff7f0e" opacity="0.75" r="4"/>
  <circle cx="605.0355752255623" cy="651.7626969482905" fill="#2ca02c" opacity="0.75" r="4"/>
  <circle cx="576.2925589305538" cy="638.0114634142117" fill="#ff7f0e" opacity="0.75" r="4"/>
  <circle cx="526.0387189479911" cy="630.5247422971723" fill="#2ca02c" opacity="0.75" r="4"/>
  <circle cx="598.1535897697743" cy="544.5828334758471" fill="#ff7f0e" opacity="0.75" r="4"/>
  <circle cx="468.68719048584694" cy="562.787447935222" fill="#1f77b4" opacity="0.75" r="4"/>
  <circle cx="914.0" cy="244.0" fill="#d62728" opacity="0.9" r="7"/>
  <text fill="#333" font-family="Arial, Helvetica, sans-serif" font-size="16" text-anchor="middle" x="570.0" y="765">Dimension 1</text>
  <text fill="#333" font-family="Arial, Helvetica, sans-serif" font-size="16" text-anchor="middle" transform="rotate(-90,85,440.0)" x="85" y="440.0">Dimension 2</text>
  <text fill="#999" font-family="Arial, Helvetica, sans-serif" font-size="12" text-anchor="end" x="1140" y="776">Auto-generated SVG</text>
</svg>
