<?xml version="1.0" encoding="utf-8" ?>
<svg xmlns="http://www.w3.org/2000/svg" xmlns:ev="http://www.w3.org/2001/xml-events" xmlns:xlink="http://www.w3.org/1999/xlink" baseProfile="full" height="800" version="1.1" width="1200">
  <defs>
    <marker id="id307" markerHeight="7" markerWidth="7" orient="auto" refX="6" refY="3">
      <path d="M0,0 L0,6 L6,3 z" fill="#333333"/>
    </marker>
  </defs>
  <rect fill="white" height="800" width="1200" x="0" y="0"/>
  <text fill="#111" font-family="Arial, Helvetica, sans-serif" font-size="28" font-weight="700" x="60" y="50">Figure 2: In Silico Mutagenesis</text>
  <text fill="#444" font-family="Arial, Helvetica, sans-serif" font-size="16" x="60" y="78">Panel C</text>
  <line stroke="#333" stroke-width="2" x1="140" x2="1000" y1="720" y2="720"/>
  <line stroke="#333" stroke-width="2" x1="140" x2="140" y1="160" y2="720"/>
  <circle cx="310.0325628667415" cy="519.751570769825" fill="#ff7f0e" opacity="0.75" r="4"/>
  <circle cx="375.8838097221359" cy="535.4384927272131" fill="#2ca02c" opacity="0.75" r="4"/>
  <circle cx="420.2049545441994" cy="435.26330485492457" fill="#1f77b4" opacity="0.75" r="4"/>
  <circle cx="324.86543960218467" cy="489.0019638819675" fill="#2ca02c" opacity="0.75" r="4"/>
  <circle cx="356.37117420516415" cy="489.5811117565834" fill="#ff7f0e" opacity="0.75" r="4"/>
  <circle cx="522.6620605235883" cy="554.1467622418062" fill="#2ca02c" opacity="0.75" r="4"/>
  <circle cx="519.3841343732352" cy="517.0054717272333" fill="#1f77b4" opacity="0.75" r="4"/>
  <circle cx="482.88215910428784" cy="581.7288578902264" fill="#1f77b4" opacity="0.75" r="4"/>
  <circle cx="392.41506438273166" cy="419.11899641713376" fill="#1f77b4" opacity="0.75" r="4"/>
  <circle cx="414.1611614592821" cy="598.9846435913039" fill="#1f77b4" opacity="0.75" r="4"/>
  <circle cx="280.02284100185665" cy="577.2281837006653" fill="#2ca02c" opacity="0.75" r="4"/>
  <circle cx="303.53276270520524" cy="564.1499342291447" fill="#2ca02c" opacity="0.75" r="4"/>
  <circle cx="499.83931007315783" cy="606.272232574998" fill="#2ca02c" opacity="0.75" r="4"/>
  <circle cx="432.5895555742469" cy="564.4136189086662" fill="#ff7f0e" opacity="0.75" r="4"/>
  <circle cx="419.68074796543596" cy="544.0718316913217" fill="#2ca02c" opacity="0.75" r="4"/>
  <circle cx="436.6660913779526" cy="507.9357465905841" fill="#ff7f0e" opacity="0.75" r="4"/>
  <circle cx="333.41838553971866" cy="581.7182143441323" fill="#1f77b4" opacity="0.75" r="4"/>
  <circle cx="319.58982640392446" cy="545.5533551966143" fill="#ff7f0e" opacity="0.75" r="4"/>
  <circle cx="382.1674438557471" cy="502.2510255398641" fill="#ff7f0e" opacity="0.75" r="4"/>
  <circle cx="345.6570396538988" cy="555.5162208577199" fill="#ff7f0e" opacity="0.75" r="4"/>
  <circle cx="321.91928559252585" cy="569.5032114785879" fill="#2ca02c" opacity="0.75" r="4"/>
  <circle cx="374.44198282481267" cy="492.598057667137" fill="#ff7f0e" opacity="0.75" r="4"/>
  <circle cx="411.16717501446044" cy="505.073685226128" fill="#ff7f0e" opacity="0.75" r="4"/>
  <circle cx="389.569906681355" cy="516.8498912129622" fill="#1f77b4" opacity="0.75" r="4"/>
  <circle cx="379.08305648841184" cy="566.5315899617564" fill="#ff7f0e" opacity="0.75" r="4"/>
  <circle cx="328.3083829734197" cy="482.77714238503296" fill="#2ca02c" opacity="0.75" r="4"/>
  <circle cx="429.3615085266983" cy="529.5459410091566" fill="#2ca02c" opacity="0.75" r="4"/>
  <circle cx="378.5656626842782" cy="540.3093105462017" fill="#2ca02c" opacity="0.75" r="4"/>
  <circle cx="487.6249658060409" cy="533.5804176710944" fill="#ff7f0e" opacity="0.75" r="4"/>
  <circle cx="356.8007097180621" cy="519.8667265485085" fill="#2ca02c" opacity="0.75" r="4"/>
  <circle cx="334.097542898007" cy="516.0197267047672" fill="#1f77b4" opacity="0.75" r="4"/>
  <circle cx="356.1312109272611" cy="550.5514728404339" fill="#2ca02c" opacity="0.75" r="4"/>
  <circle cx="431.4650490612339" cy="558.2936540087904" fill="#2ca02c" opacity="0.75" r="4"/>
  <circle cx="346.88713507343357" cy="478.963495239927" fill="#1f77b4" opacity="0.75" r="4"/>
  <circle cx="409.64587885647114" cy="494.36261155057025" fill="#2ca02c" opacity="0.75" r="4"/>
  <circle cx="449.81721964809805" cy="433.2273776920429" fill="#1f77b4" opacity="0.75" r="4"/>
  <circle cx="287.3380758390767" cy="532.3641468961312" fill="#1f77b4" opacity="0.75" r="4"/>
  <circle cx="222.43648263218392" cy="569.433671270244" fill="#1f77b4" opacity="0.75" r="4"/>
  <circle cx="316.204551009068" cy="478.91435463312723" fill="#ff7f0e" opacity="0.75" r="4"/>
  <circle cx="372.44789247457555" cy="551.1564869221997" fill="#ff7f0e" opacity="0.75" r="4"/>
  <circle cx="413.16490487354827" cy="487.43890528911044" fill="#1f77b4" opacity="0.75" r="4"/>
  <circle cx="332.3018478516552" cy="579.9043425081738" fill="#ff7f0e" opacity="0.75" r="4"/>
  <circle cx="447.9265906275797" cy="518.679291040892" fill="#2ca02c" opacity="0.75" r="4"/>
  <circle cx="301.8544109766679" cy="578.7110297951774" fill="#1f77b4" opacity="0.75" r="4"/>
  <circle cx="354.7916860640198" cy="535.6048625406163" fill="#2ca02c" opacity="0.75" r="4"/>
  <circle cx="355.9737731352" cy="537.6805017335552" fill="#ff7f0e" opacity="0.75" r="4"/>
  <circle cx="326.1681731640342" cy="530.4889512881382" fill="#2ca02c" opacity="0.75" r="4"/>
  <circle cx="363.149982467175" cy="529.8764020596539" fill="#2ca02c" opacity="0.75" r="4"/>
  <circle cx="410.52048943992975" cy="520.476044716215" fill="#ff7f0e" opacity="0.75" r="4"/>
  <circle cx="340.2258203099519" cy="571.4810600282624" fill="#1f77b4" opacity="0.75" r="4"/>
  <circle cx="334.3592576581349" cy="557.6176334986842" fill="#1f77b4" opacity="0.75" r="4"/>
  <circle cx="414.24007749503437" cy="418.73548736699007" fill="#1f77b4" opacity="0.75" r="4"/>
  <circle cx="373.5192629764854" cy="580.5120373962876" fill="#1f77b4" opacity="0.75" r="4"/>
  <circle cx="329.7515196091734" cy="476.8420653730013" fill="#ff7f0e" opacity="0.75" r="4"/>
  <circle cx="417.9693075435588" cy="538.0963346039507" fill="#1f77b4" opacity="0.75" r="4"/>
  <circle cx="724.5659890777409" cy="319.52605710620367" fill="#1f77b4" opacity="0.75" r="4"/>
  <circle cx="690.8001862403733" cy="429.8447590850845" fill="#ff7f0e" opacity="0.75" r="4"/>
  <circle cx="794.8107445351495" cy="401.69130926876414" fill="#ff7f0e" opacity="0.75" r="4"/>
  <circle cx="579.064106210191" cy="452.74470574685813" fill="#ff7f0e" opacity="0.75" r="4"/>
  <circle cx="712.4750534684259" cy="524.8206754034167" fill="#ff7f0e" opacity="0.75" r="4"/>
  <circle cx="692.7445061161186" cy="462.7610747790363" fill="#ff7f0e" opacity="0.75" r="4"/>
  <circle cx="571.9971436688999" cy="446.4984388481109" fill="#1f77b4" opacity="0.75" r="4"/>
  <circle cx="478.3622134964067" cy="389.8388960941658" fill="#1f77b4" opacity="0.75" r="4"/>
  <circle cx="580.2723952268203" cy="429.1416201285159" fill="#ff7f0e" opacity="0.75" r="4"/>
  <circle cx="661.0990563123124" cy="389.289842420283" fill="#2ca02c" opacity="0.75" r="4"/>
  <circle cx="536.0048739262011" cy="421.4292519075163" fill="#1f77b4" opacity="0.75" r="4"/>
  <circle cx="630.6818307922229" cy="375.75862227800656" fill="#ff7f0e" opacity="0.75" r="4"/>
  <circle cx="587.8163240810761" cy="523.0298814306742" fill="#ff7f0e" opacity="0.75" r="4"/>
  <circle cx="725.0607051871826" cy="413.87248367445767" fill="#1f77b4" opacity="0.75" r="4"/>
  <circle cx="662.0025721451319" cy="505.75677826690463" fill="#ff7f0e" opacity="0.75" r="4"/>
  <circle cx="770.654239791426" cy="443.70575018327474" fill="#1f77b4" opacity="0.75" r="4"/>
  <circle cx="573.5306444456371" cy="475.8612437208807" fill="#2ca02c" opacity="0.75" r="4"/>
  <circle cx="772.7131099894784" cy="472.79106746901886" fill="#1f77b4" opacity="0.75" r="4"/>
  <circle cx="717.9409143670853" cy="425.8166855571409" fill="#ff7f0e" opacity="0.75" r="4"/>
  <circle cx="688.6705883762673" cy="402.7166769898739" fill="#1f77b4" opacity="0.75" r="4"/>
  <circle cx="651.7700248215133" cy="380.02661410629287" fill="#ff7f0e" opacity="0.75" r="4"/>
  <circle cx="518.2277176400303" cy="365.9031791119719" fill="#2ca02c" opacity="0.75" r="4"/>
  <circle cx="617.7524756749701" cy="376.0543042779866" fill="#2ca02c" opacity="0.75" r="4"/>
  <circle cx="645.0504044167963" cy="395.27816267782157" fill="#2ca02c" opacity="0.75" r="4"/>
  <circle cx="682.378994632768" cy="391.0217045886835" fill="#ff7f0e" opacity="0.75" r="4"/>
  <circle cx="649.2302901510785" cy="385.0053171767381" fill="#1f77b4" opacity="0.75" r="4"/>
  <circle cx="679.1600181297342" cy="474.2341611041126" fill="#1f77b4" opacity="0.75" r="4"/>
  <circle cx="758.381034657858" cy="408.2256970104493" fill="#2ca02c" opacity="0.75" r="4"/>
  <circle cx="502.479144491861" cy="342.8262200846869" fill="#ff7f0e" opacity="0.75" r="4"/>
  <circle cx="685.3383599660963" cy="307.9762089093442" fill="#2ca02c" opacity="0.75" r="4"/>
  <circle cx="799.0947305179917" cy="343.3024445846345" fill="#2ca02c" opacity="0.75" r="4"/>
  <circle cx="605.6724895844345" cy="424.19696676835406" fill="#2ca02c" opacity="0.75" r="4"/>
  <circle cx="580.5526417986148" cy="377.42938506553315" fill="#1f77b4" opacity="0.75" r="4"/>
  <circle cx="616.4820765179932" cy="287.9070863851524" fill="#2ca02c" opacity="0.75" r="4"/>
  <circle cx="619.8805976622332" cy="325.9780214308795" fill="#2ca02c" opacity="0.75" r="4"/>
  <circle cx="635.0627746325246" cy="399.4757540349119" fill="#2ca02c" opacity="0.75" r="4"/>
  <circle cx="583.1286017720381" cy="446.0126815922008" fill="#1f77b4" opacity="0.75" r="4"/>
  <circle cx="738.2421429168684" cy="468.0728641076333" fill="#ff7f0e" opacity="0.75" r="4"/>
  <circle cx="526.5489221820095" cy="328.78646528609613" fill="#2ca02c" opacity="0.75" r="4"/>
  <circle cx="674.9395934862251" cy="412.7016153707098" fill="#1f77b4" opacity="0.75" r="4"/>
  <circle cx="725.9193454565019" cy="450.1630680738163" fill="#2ca02c" opacity="0.75" r="4"/>
  <circle cx="664.3954674773083" cy="379.42478434647995" fill="#ff7f0e" opacity="0.75" r="4"/>
  <circle cx="647.6354396607744" cy="428.883988045778" fill="#2ca02c" opacity="0.75" r="4"/>
  <circle cx="648.3416096792289" cy="387.832203296584" fill="#1f77b4" opacity="0.75" r="4"/>
  <circle cx="664.9235116241975" cy="344.39695641840797" fill="#ff7f0e" opacity="0.75" r="4"/>
  <circle cx="670.5906400910634" cy="469.4441225382825" fill="#1f77b4" opacity="0.75" r="4"/>
  <circle cx="706.290452556964" cy="432.5888635515517" fill="#ff7f0e" opacity="0.75" r="4"/>
  <circle cx="630.0974669676345" cy="410.6336628292106" fill="#2ca02c" opacity="0.75" r="4"/>
  <circle cx="623.8034477279821" cy="339.38601872793777" fill="#2ca02c" opacity="0.75" r="4"/>
  <circle cx="603.4133617985578" cy="590.3162986668981" fill="#ff7f0e" opacity="0.75" r="4"/>
  <circle cx="620.0128983995575" cy="404.8177411566961" fill="#2ca02c" opacity="0.75" r="4"/>
  <circle cx="716.8171034137873" cy="335.8474769136325" fill="#ff7f0e" opacity="0.75" r="4"/>
  <circle cx="558.512275402649" cy="427.4940676314795" fill="#2ca02c" opacity="0.75" r="4"/>
  <circle cx="602.3875444421656" cy="447.1282525419429" fill="#ff7f0e" opacity="0.75" r="4"/>
  <circle cx="627.0552795183586" cy="384.0767294162578" fill="#ff7f0e" opacity="0.75" r="4"/>
  <circle cx="509.8885351950754" cy="608.2082074736843" fill="#ff7f0e" opacity="0.75" r="4"/>
  <circle cx="540.2243947078418" cy="577.702114013163" fill="#ff7f0e" opacity="0.75" r="4"/>
  <circle cx="576.4969632142627" cy="656.7999787116398" fill="#ff7f0e" opacity="0.75" r="4"/>
  <circle cx="562.085962307998" cy="574.9157931264338" fill="#1f77b4" opacity="0.75" r="4"/>
  <circle cx="445.4661317424898" cy="642.4373855204767" fill="#2ca02c" opacity="0.75" r="4"/>
  <circle cx="457.18261501271456" cy="633.3673451902109" fill="#1f77b4" opacity="0.75" r="4"/>
  <circle cx="608.3680369514511" cy="614.5488693084817" fill="#ff7f0e" opacity="0.75" r="4"/>
  <circle cx="545.3107483675967" cy="522.2924491446169" fill="#ff7f0e" opacity="0.75" r="4"/>
  <circle cx="563.1124790264389" cy="559.6705827422675" fill="#2ca02c" opacity="0.75" r="4"/>
  <circle cx="494.63800812834575" cy="571.0534261100715" fill="#1f77b4" opacity="0.75" r="4"/>
  <circle cx="596.49047155478" cy="667.3599026664181" fill="#1f77b4" opacity="0.75" r="4"/>
  <circle cx="532.0789442559491" cy="644.628811623772" fill="#1f77b4" opacity="0.75" r="4"/>
  <circle cx="440.33439056098445" cy="609.4194948474593" fill="#ff7f0e" opacity="0.75" r="4"/>
  <circle cx="557.4443962612816" cy="556.9528899906063" fill="#2ca02c" opacity="0.75" r="4"/>
  <circle cx="536.070655588924" cy="536.8952853666516" fill="#2ca02c" opacity="0.75" r="4"/>
  <circle cx="552.2212518460449" cy="558.8444795508154" fill="#ff7f0e" opacity="0.75" r="4"/>
  <circle cx="541.8816964012077" cy="536.0507117625989" fill="#1f77b4" opacity="0.75" r="4"/>
  <circle cx="510.6476263542437" cy="584.9707265629208" fill="#1f77b4" opacity="0.75" r="4"/>
  <circle cx="558.9925658844065" cy="549.9954795959766" fill="#2ca02c" opacity="0.75" r="4"/>
  <circle cx="534.2654247210138" cy="573.2647159796472" fill="#ff7f0e" opacity="0.75" r="4"/>
  <circle cx="437.2823117126485" cy="535.1435983547774" fill="#1f77b4" opacity="0.75" r="4"/>
  <circle cx="551.8895630141836" cy="568.1767522231305" fill="#1f77b4" opacity="0.75" r="4"/>
  <circle cx="657.0424530267366" cy="563.7755520117355" fill="#2ca02c" opacity="0.75" r="4"/>
  <circle cx="580.2583727994831" cy="561.2950903536424" fill="#2ca02c" opacity="0.75" r="4"/>
  <circle cx="518.0179153646743" cy="623.174401132291" fill="#2ca02c" opacity="0.75" r="4"/>
  <circle cx="479.9778838753069" cy="551.6186209614436" fill="#ff7f0e" opacity="0.75" r="4"/>
  <circle cx="545.8734694593317" cy="591.3697386879915" fill="#2ca02c" opacity="0.75" r="4"/>
  <circle cx="586.5593241757161" cy="550.1159318393994" fill="#2ca02c" opacity="0.75" r="4"/>
  <circle cx="550.997783232702" cy="576.0084103999773" fill="#2ca02c" opacity="0.75" r="4"/>
  <circle cx="551.9637512378765" cy="566.7450935783395" fill="#ff7f0e" opacity="0.75" r="4"/>
  <circle cx="610.1737732522006" cy="539.9472813515979" fill="#2ca02c" opacity="0.75" r="4"/>
  <circle cx="514.7130902422691" cy="646.7300549717725" fill="#ff7f0e" opacity="0.75" r="4"/>
  <circle cx="519.9116159952413" cy="505.34817012308486" fill="#ff7f0e" opacity="0.75" r="4"/>
  <circle cx="532.8406162112574" cy="536.1306717196262" fill="#2ca02c" opacity="0.75" r="4"/>
  <circle cx="533.904099470067" cy="553.8650127458084" fill="#1f77b4" opacity="0.75" r="4"/>
  <circle cx="497.8474836069349" cy="570.9910053569592" fill="#ff7f0e" opacity="0.75" r="4"/>
  <circle cx="548.5983612609168" cy="546.951954780331" fill="#1f77b4" opacity="0.75" r="4"/>
  <circle cx="504.10437907492917" cy="589.8740915866576" fill="#2ca02c" opacity="0.75" r="4"/>
  <circle cx="544.1551343483284" cy="603.783873851708" fill="#ff7f0e" opacity="0.75" r="4"/>
  <circle cx="615.1352417297862" cy="630.3026767102076" fill="#2ca02c" opacity="0.75" r="4"/>
  <circle cx="531.1468023317166" cy="594.9869000521985" fill="#1f77b4" opacity="0.75" r="4"/>
  <circle cx="560.015388634019" cy="561.0181179382698" fill="#ff7f0e" opacity="0.75" r="4"/>
  <circle cx="626.2769491078595" cy="549.4669603179973" fill="#1f77b4" opacity="0.75" r="4"/>
  <circle cx="614.8387797371605" cy="594.5412030967025" fill="#1f77b4" opacity="0.75" r="4"/>
  <circle cx="456.5632359952463" cy="617.0972071108354" fill="#2ca02c" opacity="0.75" r="4"/>
  <circle cx="528.5054881436863" cy="635.5223157830787" fill="#ff7f0e" opacity="0.75" r="4"/>
  <circle cx="496.9790773527492" cy="579.4577473223308" fill="#2ca02c" opacity="0.75" r="4"/>
  <circle cx="461.2746383335185" cy="597.8190124248719" fill="#ff7f0e" opacity="0.75" r="4"/>
  <circle cx="598.0214120108899" cy="567.4577250517564" fill="#ff7f0e" opacity="0.75" r="4"/>
  <circle cx="496.4827341830859" cy="585.1254156858311" fill="#2ca02c" opacity="0.75" r="4"/>
  <circle cx="542.1725930926137" cy="554.1434349108611" fill="#2ca02c" opacity="0.75" r="4"/>
  <circle cx="499.479094357251" cy="535.9614538816144" fill="#1f77b4" opacity="0.75" r="4"/>
  <circle cx="482.7674205943958" cy="642.3983010845527" fill="#ff7f0e" opacity="0.75" r="4"/>
  <circle cx="659.9072578358213" cy="570.6767556563011" fill="#ff7f0e" opacity="0.75" r="4"/>
  <circle cx="499.738135675218" cy="571.4157540325086" fill="#1f77b4" opacity="0.75" r="4"/>
  <circle cx="914.0" cy="244.0" fill="#d62728" opacity="0.9" r="7"/>
  <text fill="#333" font-family="Arial, Helvetica, sans-serif" font-size="16" text-anchor="middle" x="570.0" y="765">Dimension 1</text>
  <text fill="#333" font-family="Arial, Helvetica, sans-serif" font-size="16" text-anchor="middle" transform="rotate(-90,85,440.0)" x="85" y="440.0">Dimension 2</text>
  <text fill="#999" font-family="Arial, Helvetica, sans-serif" font-size="12" text-anchor="end" x="1140" y="776">Auto-generated SVG</text>
</svg>
