<?xml version="1.0" encoding="utf-8" ?>
<svg xmlns="http://www.w3.org/2000/svg" xmlns:ev="http://www.w3.org/2001/xml-events" xmlns:xlink="http://www.w3.org/1999/xlink" baseProfile="full" height="800" version="1.1" width="1200">
  <defs>
    <marker id="id241" markerHeight="7" markerWidth="7" orient="auto" refX="6" refY="3">
      <path d="M0,0 L0,6 L6,3 z" fill="#333333"/>
    </marker>
  </defs>
  <rect fill="white" height="800" width="1200" x="0" y="0"/>
  <text fill="#111" font-family="Arial, Helvetica, sans-serif" font-size="28" font-weight="700" x="60" y="50">Figure 4: 3D Structure Prediction Models</text>
  <text fill="#444" font-family="Arial, Helvetica, sans-serif" font-size="16" x="60" y="78">Panel A</text>
  <rect fill="#eef5ff" height="90" rx="12" ry="12" stroke="#333" stroke-width="2" width="240" x="80" y="170"/>
  <text fill="#111" font-family="Arial, Helvetica, sans-serif" font-size="16" text-anchor="middle" x="200.0" y="202.5">Comparison of</text>
  <text fill="#111" font-family="Arial, Helvetica, sans-serif" font-size="16" text-anchor="middle" x="200.0" y="221.5">Akita, Orca, and</text>
  <text fill="#111" font-family="Arial, Helvetica, sans-serif" font-size="16" text-anchor="middle" x="200.0" y="240.5">C.Origami mo...</text>
  <rect fill="#f0fff0" height="90" rx="12" ry="12" stroke="#333" stroke-width="2" width="240" x="380" y="100"/>
  <text fill="#111" font-family="Arial, Helvetica, sans-serif" font-size="16" text-anchor="middle" x="500.0" y="151.5">Encoder (A)</text>
  <rect fill="#fff5ef" height="90" rx="12" ry="12" stroke="#333" stroke-width="2" width="240" x="380" y="240"/>
  <text fill="#111" font-family="Arial, Helvetica, sans-serif" font-size="16" text-anchor="middle" x="500.0" y="291.5">Encoder (B)</text>
  <circle cx="650.0" cy="215.0" fill="#f7f7f7" r="45" stroke="#333" stroke-width="2"/>
  <text fill="#333" font-family="Arial, Helvetica, sans-serif" font-size="16" text-anchor="middle" x="650.0" y="221.0">Latent</text>
  <rect fill="#fffaf0" height="90" rx="12" ry="12" stroke="#333" stroke-width="2" width="240" x="680" y="170"/>
  <text fill="#111" font-family="Arial, Helvetica, sans-serif" font-size="16" text-anchor="middle" x="800.0" y="221.5">Decoder</text>
  <rect fill="#f7f7f7" height="90" rx="12" ry="12" stroke="#333" stroke-width="2" width="240" x="680" y="310"/>
  <text fill="#111" font-family="Arial, Helvetica, sans-serif" font-size="16" text-anchor="middle" x="800.0" y="361.5">Output</text>
  <line marker-end="url(#id241)" stroke="#333" stroke-width="2" x1="320" x2="380" y1="215.0" y2="145.0"/>
  <line marker-end="url(#id241)" stroke="#333" stroke-width="2" x1="320" x2="380" y1="215.0" y2="285.0"/>
  <line marker-end="url(#id241)" stroke="#333" stroke-width="2" x1="620" x2="605.0" y1="145.0" y2="215.0"/>
  <line marker-end="url(#id241)" stroke="#333" stroke-width="2" x1="620" x2="605.0" y1="285.0" y2="215.0"/>
  <line marker-end="url(#id241)" stroke="#333" stroke-width="2" x1="695.0" x2="680" y1="215.0" y2="215.0"/>
  <line marker-end="url(#id241)" stroke="#333" stroke-width="2" x1="800.0" x2="800.0" y1="260" y2="310"/>
  <text fill="#999" font-family="Arial, Helvetica, sans-serif" font-size="12" text-anchor="end" x="1140" y="776">Auto-generated SVG</text>
</svg>
