<?xml version="1.0" encoding="utf-8" ?>
<svg xmlns="http://www.w3.org/2000/svg" xmlns:ev="http://www.w3.org/2001/xml-events" xmlns:xlink="http://www.w3.org/1999/xlink" baseProfile="full" height="800" version="1.1" width="1200">
  <defs>
    <marker id="id76" markerHeight="7" markerWidth="7" orient="auto" refX="6" refY="3">
      <path d="M0,0 L0,6 L6,3 z" fill="#333333"/>
    </marker>
  </defs>
  <rect fill="white" height="800" width="1200" x="0" y="0"/>
  <text fill="#111" font-family="Arial, Helvetica, sans-serif" font-size="28" font-weight="700" x="60" y="50">Figure 8.4: Cross-Species Contrastive Learning</text>
  <line stroke="#333" stroke-width="2" x1="140" x2="1000" y1="720" y2="720"/>
  <line stroke="#333" stroke-width="2" x1="140" x2="140" y1="160" y2="720"/>
  <circle cx="355.075982617779" cy="566.2887010108341" fill="#2ca02c" opacity="0.75" r="4"/>
  <circle cx="396.73231239803795" cy="554.6776880514926" fill="#ff7f0e" opacity="0.75" r="4"/>
  <circle cx="357.43275263908566" cy="452.7810980494652" fill="#1f77b4" opacity="0.75" r="4"/>
  <circle cx="354.82191446223817" cy="544.0054124513292" fill="#1f77b4" opacity="0.75" r="4"/>
  <circle cx="352.6579476727043" cy="543.4838033792062" fill="#ff7f0e" opacity="0.75" r="4"/>
  <circle cx="366.1405315591197" cy="508.49873829587943" fill="#2ca02c" opacity="0.75" r="4"/>
  <circle cx="289.15419714405084" cy="470.0236044980575" fill="#ff7f0e" opacity="0.75" r="4"/>
  <circle cx="444.25789100543506" cy="537.393005155507" fill="#ff7f0e" opacity="0.75" r="4"/>
  <circle cx="384.49574824358496" cy="536.5590407261952" fill="#2ca02c" opacity="0.75" r="4"/>
  <circle cx="503.7274019704732" cy="594.5862004236701" fill="#2ca02c" opacity="0.75" r="4"/>
  <circle cx="395.815737037245" cy="514.057842868121" fill="#2ca02c" opacity="0.75" r="4"/>
  <circle cx="349.00086742564895" cy="572.0359326638109" fill="#ff7f0e" opacity="0.75" r="4"/>
  <circle cx="362.8599612922803" cy="544.4013220325401" fill="#2ca02c" opacity="0.75" r="4"/>
  <circle cx="428.9986262775005" cy="574.4439495166145" fill="#2ca02c" opacity="0.75" r="4"/>
  <circle cx="325.0463437486213" cy="567.9211611286405" fill="#1f77b4" opacity="0.75" r="4"/>
  <circle cx="441.78903148103325" cy="586.0656485245872" fill="#1f77b4" opacity="0.75" r="4"/>
  <circle cx="437.3613387119915" cy="486.56546959738057" fill="#ff7f0e" opacity="0.75" r="4"/>
  <circle cx="354.2307860830133" cy="523.8947141092106" fill="#1f77b4" opacity="0.75" r="4"/>
  <circle cx="360.9472442612273" cy="580.6214886492369" fill="#ff7f0e" opacity="0.75" r="4"/>
  <circle cx="376.06216326170846" cy="513.342050954623" fill="#2ca02c" opacity="0.75" r="4"/>
  <circle cx="303.0897598392106" cy="534.5364480966883" fill="#ff7f0e" opacity="0.75" r="4"/>
  <circle cx="354.87405934834766" cy="542.8385762403632" fill="#ff7f0e" opacity="0.75" r="4"/>
  <circle cx="404.93216068918105" cy="509.702558697715" fill="#ff7f0e" opacity="0.75" r="4"/>
  <circle cx="376.5987059938944" cy="569.5295222481309" fill="#2ca02c" opacity="0.75" r="4"/>
  <circle cx="449.53832988970834" cy="545.1519118242543" fill="#ff7f0e" opacity="0.75" r="4"/>
  <circle cx="493.5532800891377" cy="526.289430474312" fill="#2ca02c" opacity="0.75" r="4"/>
  <circle cx="373.26786930739684" cy="510.54489893226867" fill="#2ca02c" opacity="0.75" r="4"/>
  <circle cx="407.31531039387886" cy="626.3040070656955" fill="#ff7f0e" opacity="0.75" r="4"/>
  <circle cx="420.4159039901634" cy="580.963702303616" fill="#1f77b4" opacity="0.75" r="4"/>
  <circle cx="397.72653837434206" cy="640.7439365279846" fill="#2ca02c" opacity="0.75" r="4"/>
  <circle cx="370.5831770602614" cy="584.2258025099146" fill="#ff7f0e" opacity="0.75" r="4"/>
  <circle cx="326.15343647134864" cy="614.9180894311105" fill="#1f77b4" opacity="0.75" r="4"/>
  <circle cx="362.5595465547199" cy="505.42178481528146" fill="#ff7f0e" opacity="0.75" r="4"/>
  <circle cx="492.3386388692069" cy="579.8803094321433" fill="#ff7f0e" opacity="0.75" r="4"/>
  <circle cx="394.3944141184252" cy="513.380307520416" fill="#2ca02c" opacity="0.75" r="4"/>
  <circle cx="437.2909126936171" cy="599.694401844813" fill="#1f77b4" opacity="0.75" r="4"/>
  <circle cx="406.259115802924" cy="540.1407132074582" fill="#2ca02c" opacity="0.75" r="4"/>
  <circle cx="441.2770795236473" cy="456.02515563247533" fill="#ff7f0e" opacity="0.75" r="4"/>
  <circle cx="427.45771596787955" cy="474.0826017609946" fill="#ff7f0e" opacity="0.75" r="4"/>
  <circle cx="514.2090068809127" cy="472.82103120071895" fill="#2ca02c" opacity="0.75" r="4"/>
  <circle cx="417.47260755280263" cy="580.4004792139176" fill="#ff7f0e" opacity="0.75" r="4"/>
  <circle cx="375.6397509907887" cy="579.31296874069" fill="#ff7f0e" opacity="0.75" r="4"/>
  <circle cx="537.7219103384709" cy="564.9269136317712" fill="#2ca02c" opacity="0.75" r="4"/>
  <circle cx="297.9123669364028" cy="464.9902688164053" fill="#ff7f0e" opacity="0.75" r="4"/>
  <circle cx="529.7378882083106" cy="547.6162499348695" fill="#1f77b4" opacity="0.75" r="4"/>
  <circle cx="361.5927752182504" cy="577.2332136111672" fill="#2ca02c" opacity="0.75" r="4"/>
  <circle cx="518.9075023303521" cy="527.5239841888679" fill="#ff7f0e" opacity="0.75" r="4"/>
  <circle cx="336.1696091677645" cy="603.8951908056451" fill="#ff7f0e" opacity="0.75" r="4"/>
  <circle cx="412.13131793222817" cy="477.4390609400856" fill="#ff7f0e" opacity="0.75" r="4"/>
  <circle cx="480.53545516266104" cy="519.0741531458997" fill="#2ca02c" opacity="0.75" r="4"/>
  <circle cx="396.80607231328577" cy="497.59344792500053" fill="#1f77b4" opacity="0.75" r="4"/>
  <circle cx="483.7090919067816" cy="474.3458881662161" fill="#ff7f0e" opacity="0.75" r="4"/>
  <circle cx="269.43132392484097" cy="554.8821761380138" fill="#ff7f0e" opacity="0.75" r="4"/>
  <circle cx="548.8457435038388" cy="487.28585507554664" fill="#1f77b4" opacity="0.75" r="4"/>
  <circle cx="421.83258388675046" cy="561.7215391193924" fill="#1f77b4" opacity="0.75" r="4"/>
  <circle cx="576.952194218454" cy="465.5643259418474" fill="#1f77b4" opacity="0.75" r="4"/>
  <circle cx="671.5584798692283" cy="408.3325757011796" fill="#1f77b4" opacity="0.75" r="4"/>
  <circle cx="692.2571338275752" cy="389.71118067522184" fill="#ff7f0e" opacity="0.75" r="4"/>
  <circle cx="631.5334974458764" cy="445.5471966907752" fill="#1f77b4" opacity="0.75" r="4"/>
  <circle cx="518.2259969818779" cy="441.33571430703813" fill="#1f77b4" opacity="0.75" r="4"/>
  <circle cx="678.8126744601822" cy="475.82440805821784" fill="#1f77b4" opacity="0.75" r="4"/>
  <circle cx="644.3543309387755" cy="459.37683945167663" fill="#ff7f0e" opacity="0.75" r="4"/>
  <circle cx="599.2195360315984" cy="448.2186546861451" fill="#2ca02c" opacity="0.75" r="4"/>
  <circle cx="747.0052674257415" cy="479.65093254034844" fill="#2ca02c" opacity="0.75" r="4"/>
  <circle cx="726.5671307836141" cy="445.37600930485416" fill="#ff7f0e" opacity="0.75" r="4"/>
  <circle cx="545.3452705966822" cy="380.6604017626288" fill="#2ca02c" opacity="0.75" r="4"/>
  <circle cx="712.6576059651343" cy="413.75411527174106" fill="#2ca02c" opacity="0.75" r="4"/>
  <circle cx="746.1444812553293" cy="403.50589098921546" fill="#ff7f0e" opacity="0.75" r="4"/>
  <circle cx="522.4501923238934" cy="416.07877890310465" fill="#1f77b4" opacity="0.75" r="4"/>
  <circle cx="531.3424266915351" cy="412.64814901123367" fill="#1f77b4" opacity="0.75" r="4"/>
  <circle cx="610.3204475178986" cy="421.4377962525435" fill="#1f77b4" opacity="0.75" r="4"/>
  <circle cx="645.5653154199249" cy="389.0680688392037" fill="#1f77b4" opacity="0.75" r="4"/>
  <circle cx="585.340881942652" cy="446.937993580716" fill="#1f77b4" opacity="0.75" r="4"/>
  <circle cx="478.8246461868557" cy="493.0011657358341" fill="#1f77b4" opacity="0.75" r="4"/>
  <circle cx="597.7845095280054" cy="396.40019501748714" fill="#1f77b4" opacity="0.75" r="4"/>
  <circle cx="564.5629732448429" cy="377.1820967745422" fill="#2ca02c" opacity="0.75" r="4"/>
  <circle cx="612.3450343006757" cy="404.79641581203305" fill="#ff7f0e" opacity="0.75" r="4"/>
  <circle cx="735.941390610875" cy="450.63129660581177" fill="#ff7f0e" opacity="0.75" r="4"/>
  <circle cx="712.3250022169154" cy="371.69382723691524" fill="#ff7f0e" opacity="0.75" r="4"/>
  <circle cx="517.0157393173988" cy="542.5583677324764" fill="#ff7f0e" opacity="0.75" r="4"/>
  <circle cx="676.0109947415953" cy="413.13246560848717" fill="#ff7f0e" opacity="0.75" r="4"/>
  <circle cx="673.454298062517" cy="440.43719473359687" fill="#1f77b4" opacity="0.75" r="4"/>
  <circle cx="663.090507528663" cy="363.8410515028713" fill="#2ca02c" opacity="0.75" r="4"/>
  <circle cx="645.8632985353354" cy="392.72024841412644" fill="#2ca02c" opacity="0.75" r="4"/>
  <circle cx="608.7300246176374" cy="315.70487486001036" fill="#ff7f0e" opacity="0.75" r="4"/>
  <circle cx="723.2649705297791" cy="446.709843119015" fill="#ff7f0e" opacity="0.75" r="4"/>
  <circle cx="826.3060365743263" cy="413.9108711017031" fill="#2ca02c" opacity="0.75" r="4"/>
  <circle cx="752.3351444999096" cy="389.89915868710557" fill="#2ca02c" opacity="0.75" r="4"/>
  <circle cx="534.7775062850634" cy="474.76750620677325" fill="#1f77b4" opacity="0.75" r="4"/>
  <circle cx="725.4119071077205" cy="456.6354099684155" fill="#1f77b4" opacity="0.75" r="4"/>
  <circle cx="706.1229521907499" cy="412.9497075715883" fill="#2ca02c" opacity="0.75" r="4"/>
  <circle cx="599.4646853233372" cy="327.40453548341884" fill="#2ca02c" opacity="0.75" r="4"/>
  <circle cx="760.0156398695444" cy="434.270444049397" fill="#2ca02c" opacity="0.75" r="4"/>
  <circle cx="552.3402074477874" cy="376.8591449555421" fill="#2ca02c" opacity="0.75" r="4"/>
  <circle cx="634.6383558747966" cy="400.28916225854573" fill="#ff7f0e" opacity="0.75" r="4"/>
  <circle cx="879.3681376834085" cy="416.88940305940633" fill="#ff7f0e" opacity="0.75" r="4"/>
  <circle cx="885.3111191835276" cy="362.4074316317178" fill="#2ca02c" opacity="0.75" r="4"/>
  <circle cx="640.4313709926448" cy="406.15259782891974" fill="#1f77b4" opacity="0.75" r="4"/>
  <circle cx="576.9543842123646" cy="508.26496346485203" fill="#2ca02c" opacity="0.75" r="4"/>
  <circle cx="545.6262514463987" cy="394.0760767842253" fill="#2ca02c" opacity="0.75" r="4"/>
  <circle cx="595.5871746687553" cy="416.80148149486143" fill="#1f77b4" opacity="0.75" r="4"/>
  <circle cx="690.8214343359729" cy="378.7330214298979" fill="#2ca02c" opacity="0.75" r="4"/>
  <circle cx="631.1999763826668" cy="337.2534508764711" fill="#1f77b4" opacity="0.75" r="4"/>
  <circle cx="591.8698559874106" cy="407.2861392440482" fill="#1f77b4" opacity="0.75" r="4"/>
  <circle cx="627.4250556557236" cy="434.7790554428556" fill="#2ca02c" opacity="0.75" r="4"/>
  <circle cx="814.3640477503557" cy="413.9729556706774" fill="#2ca02c" opacity="0.75" r="4"/>
  <circle cx="758.4109032828363" cy="414.8131153095113" fill="#1f77b4" opacity="0.75" r="4"/>
  <circle cx="675.5225238456649" cy="402.76347029290537" fill="#ff7f0e" opacity="0.75" r="4"/>
  <circle cx="697.0865073436371" cy="469.7238553457748" fill="#1f77b4" opacity="0.75" r="4"/>
  <circle cx="623.0585096134126" cy="369.2674071956998" fill="#2ca02c" opacity="0.75" r="4"/>
  <circle cx="578.681359087673" cy="599.7367549554315" fill="#ff7f0e" opacity="0.75" r="4"/>
  <circle cx="561.1936860796927" cy="577.7023556705878" fill="#2ca02c" opacity="0.75" r="4"/>
  <circle cx="559.0816371116448" cy="607.7787462607967" fill="#ff7f0e" opacity="0.75" r="4"/>
  <circle cx="565.888586402403" cy="615.476913068976" fill="#1f77b4" opacity="0.75" r="4"/>
  <circle cx="536.7213620758439" cy="617.3449865083016" fill="#ff7f0e" opacity="0.75" r="4"/>
  <circle cx="558.7712329813667" cy="555.6437538984128" fill="#1f77b4" opacity="0.75" r="4"/>
  <circle cx="642.2417898632953" cy="557.5496509887013" fill="#ff7f0e" opacity="0.75" r="4"/>
  <circle cx="434.80275176102475" cy="649.6068561359893" fill="#1f77b4" opacity="0.75" r="4"/>
  <circle cx="428.2335793174397" cy="591.2190984786596" fill="#1f77b4" opacity="0.75" r="4"/>
  <circle cx="710.725621097925" cy="565.4457580879699" fill="#2ca02c" opacity="0.75" r="4"/>
  <circle cx="548.1043473196007" cy="542.1648620690937" fill="#2ca02c" opacity="0.75" r="4"/>
  <circle cx="493.7290034030373" cy="531.3206092517448" fill="#ff7f0e" opacity="0.75" r="4"/>
  <circle cx="528.3189350968132" cy="679.0720596740118" fill="#ff7f0e" opacity="0.75" r="4"/>
  <circle cx="450.16495665472127" cy="632.3779367024429" fill="#2ca02c" opacity="0.75" r="4"/>
  <circle cx="526.3037918730854" cy="648.4216829714223" fill="#1f77b4" opacity="0.75" r="4"/>
  <circle cx="563.8999889901196" cy="602.2433195476154" fill="#2ca02c" opacity="0.75" r="4"/>
  <circle cx="615.6378815506469" cy="599.942211942897" fill="#1f77b4" opacity="0.75" r="4"/>
  <circle cx="542.9323950970695" cy="652.0386758303048" fill="#2ca02c" opacity="0.75" r="4"/>
  <circle cx="629.975144358121" cy="567.5349220041755" fill="#ff7f0e" opacity="0.75" r="4"/>
  <circle cx="588.5762804303354" cy="568.2747187820914" fill="#2ca02c" opacity="0.75" r="4"/>
  <circle cx="515.701213218482" cy="572.5537059186067" fill="#ff7f0e" opacity="0.75" r="4"/>
  <circle cx="490.05547184481253" cy="554.3037287282551" fill="#1f77b4" opacity="0.75" r="4"/>
  <circle cx="540.5940428177444" cy="595.5435684055964" fill="#2ca02c" opacity="0.75" r="4"/>
  <circle cx="451.72158066911885" cy="570.0637285403287" fill="#ff7f0e" opacity="0.75" r="4"/>
  <circle cx="593.4935041725341" cy="643.2340803015635" fill="#2ca02c" opacity="0.75" r="4"/>
  <circle cx="631.9824776699022" cy="561.9309911769514" fill="#2ca02c" opacity="0.75" r="4"/>
  <circle cx="533.374322672629" cy="505.6427584550795" fill="#ff7f0e" opacity="0.75" r="4"/>
  <circle cx="528.276691381285" cy="684.8766000560322" fill="#ff7f0e" opacity="0.75" r="4"/>
  <circle cx="480.45846893065163" cy="590.1005904465451" fill="#ff7f0e" opacity="0.75" r="4"/>
  <circle cx="580.4730623228265" cy="606.4491270963365" fill="#ff7f0e" opacity="0.75" r="4"/>
  <circle cx="558.3275313077652" cy="546.9329276015918" fill="#ff7f0e" opacity="0.75" r="4"/>
  <circle cx="588.4701089460051" cy="624.1337356849522" fill="#2ca02c" opacity="0.75" r="4"/>
  <circle cx="476.6280385456077" cy="556.9708121249523" fill="#2ca02c" opacity="0.75" r="4"/>
  <circle cx="623.6033923541443" cy="579.1849642059885" fill="#ff7f0e" opacity="0.75" r="4"/>
  <circle cx="480.8719334420639" cy="547.3201272040592" fill="#1f77b4" opacity="0.75" r="4"/>
  <circle cx="561.5797212651319" cy="610.8177149054527" fill="#ff7f0e" opacity="0.75" r="4"/>
  <circle cx="529.4516763902585" cy="587.5955200782262" fill="#ff7f0e" opacity="0.75" r="4"/>
  <circle cx="526.8459826765237" cy="566.9114456551447" fill="#2ca02c" opacity="0.75" r="4"/>
  <circle cx="492.1580456677819" cy="626.7723063582384" fill="#1f77b4" opacity="0.75" r="4"/>
  <circle cx="529.4761832753763" cy="598.4364799499231" fill="#2ca02c" opacity="0.75" r="4"/>
  <circle cx="527.2384573105572" cy="535.0429825770102" fill="#2ca02c" opacity="0.75" r="4"/>
  <circle cx="487.71223500560353" cy="524.4522027715102" fill="#ff7f0e" opacity="0.75" r="4"/>
  <circle cx="522.8208028417941" cy="627.1758253474757" fill="#1f77b4" opacity="0.75" r="4"/>
  <circle cx="536.5469734973909" cy="605.9031597846651" fill="#1f77b4" opacity="0.75" r="4"/>
  <circle cx="530.6778365388666" cy="558.9027284298265" fill="#2ca02c" opacity="0.75" r="4"/>
  <circle cx="524.7557216574282" cy="547.664027084206" fill="#2ca02c" opacity="0.75" r="4"/>
  <circle cx="526.725901971327" cy="537.1681615886977" fill="#1f77b4" opacity="0.75" r="4"/>
  <circle cx="434.5166961027331" cy="603.9600475871339" fill="#1f77b4" opacity="0.75" r="4"/>
  <circle cx="538.5351103533737" cy="566.680270122119" fill="#2ca02c" opacity="0.75" r="4"/>
  <circle cx="615.081030985" cy="609.9510274636308" fill="#2ca02c" opacity="0.75" r="4"/>
  <circle cx="515.1044394434705" cy="568.0929804501388" fill="#ff7f0e" opacity="0.75" r="4"/>
  <circle cx="561.6717893941178" cy="545.0363203666698" fill="#1f77b4" opacity="0.75" r="4"/>
  <circle cx="560.6658505596048" cy="532.1866726662804" fill="#2ca02c" opacity="0.75" r="4"/>
  <circle cx="462.13789630461923" cy="545.6870070411234" fill="#ff7f0e" opacity="0.75" r="4"/>
  <circle cx="547.370454515239" cy="520.3854014277492" fill="#2ca02c" opacity="0.75" r="4"/>
  <circle cx="914.0" cy="244.0" fill="#d62728" opacity="0.9" r="7"/>
  <text fill="#333" font-family="Arial, Helvetica, sans-serif" font-size="16" text-anchor="middle" x="570.0" y="765">Dimension 1</text>
  <text fill="#333" font-family="Arial, Helvetica, sans-serif" font-size="16" text-anchor="middle" transform="rotate(-90,85,440.0)" x="85" y="440.0">Dimension 2</text>
  <text fill="#999" font-family="Arial, Helvetica, sans-serif" font-size="12" text-anchor="end" x="1140" y="776">Auto-generated SVG</text>
</svg>
