<?xml version="1.0" encoding="utf-8" ?>
<svg xmlns="http://www.w3.org/2000/svg" xmlns:ev="http://www.w3.org/2001/xml-events" xmlns:xlink="http://www.w3.org/1999/xlink" baseProfile="full" height="800" version="1.1" width="1200">
  <defs>
    <marker id="id53" markerHeight="7" markerWidth="7" orient="auto" refX="6" refY="3">
      <path d="M0,0 L0,6 L6,3 z" fill="#333333"/>
    </marker>
  </defs>
  <rect fill="white" height="800" width="1200" x="0" y="0"/>
  <text fill="#111" font-family="Arial, Helvetica, sans-serif" font-size="28" font-weight="700" x="60" y="50">Figure 7.1: Self-Attention Mechanism (Five-Panel)</text>
  <text fill="#444" font-family="Arial, Helvetica, sans-serif" font-size="16" x="60" y="78">Panel C</text>
  <line stroke="#333" stroke-width="2" x1="140" x2="1000" y1="720" y2="720"/>
  <line stroke="#333" stroke-width="2" x1="140" x2="140" y1="160" y2="720"/>
  <circle cx="334.73105858119686" cy="584.682500390337" fill="#ff7f0e" opacity="0.75" r="4"/>
  <circle cx="427.48616098696834" cy="626.9846142374588" fill="#ff7f0e" opacity="0.75" r="4"/>
  <circle cx="417.45941176293906" cy="505.29296528977875" fill="#2ca02c" opacity="0.75" r="4"/>
  <circle cx="338.8209042003825" cy="503.86015002448937" fill="#2ca02c" opacity="0.75" r="4"/>
  <circle cx="283.01656198194814" cy="500.3441813401752" fill="#1f77b4" opacity="0.75" r="4"/>
  <circle cx="450.6397863724889" cy="564.2552871794794" fill="#1f77b4" opacity="0.75" r="4"/>
  <circle cx="419.3879487725557" cy="495.947313550144" fill="#1f77b4" opacity="0.75" r="4"/>
  <circle cx="333.3812254003226" cy="457.63938826096364" fill="#1f77b4" opacity="0.75" r="4"/>
  <circle cx="387.91123746835035" cy="503.1048968649469" fill="#ff7f0e" opacity="0.75" r="4"/>
  <circle cx="296.0356364732679" cy="524.4472043438368" fill="#ff7f0e" opacity="0.75" r="4"/>
  <circle cx="345.93256639674485" cy="568.8617703467403" fill="#1f77b4" opacity="0.75" r="4"/>
  <circle cx="319.2156247705853" cy="609.8409469126087" fill="#2ca02c" opacity="0.75" r="4"/>
  <circle cx="549.273966025655" cy="501.4287579590115" fill="#ff7f0e" opacity="0.75" r="4"/>
  <circle cx="466.175213687775" cy="472.2533358866918" fill="#2ca02c" opacity="0.75" r="4"/>
  <circle cx="511.7347724893821" cy="538.5068087370998" fill="#2ca02c" opacity="0.75" r="4"/>
  <circle cx="354.70353709518565" cy="508.21796700883823" fill="#ff7f0e" opacity="0.75" r="4"/>
  <circle cx="433.3385299516942" cy="499.8468517482501" fill="#ff7f0e" opacity="0.75" r="4"/>
  <circle cx="423.5040223159078" cy="496.407363282482" fill="#2ca02c" opacity="0.75" r="4"/>
  <circle cx="393.4765210437731" cy="468.06942922599455" fill="#2ca02c" opacity="0.75" r="4"/>
  <circle cx="579.0673841786343" cy="494.5738698263181" fill="#2ca02c" opacity="0.75" r="4"/>
  <circle cx="356.3837808228162" cy="559.4900195897962" fill="#2ca02c" opacity="0.75" r="4"/>
  <circle cx="450.27403907467095" cy="509.9504179215002" fill="#1f77b4" opacity="0.75" r="4"/>
  <circle cx="324.9509863919709" cy="549.5328411255641" fill="#ff7f0e" opacity="0.75" r="4"/>
  <circle cx="420.3885963340254" cy="555.3785903356385" fill="#2ca02c" opacity="0.75" r="4"/>
  <circle cx="425.5615634348278" cy="471.8558165889207" fill="#2ca02c" opacity="0.75" r="4"/>
  <circle cx="534.4472514107765" cy="519.271699498174" fill="#ff7f0e" opacity="0.75" r="4"/>
  <circle cx="375.9673037162812" cy="475.12293267491526" fill="#ff7f0e" opacity="0.75" r="4"/>
  <circle cx="405.2291836533309" cy="513.756244567358" fill="#2ca02c" opacity="0.75" r="4"/>
  <circle cx="404.1689331044545" cy="501.9163808854586" fill="#ff7f0e" opacity="0.75" r="4"/>
  <circle cx="426.0101992384335" cy="562.7261546421221" fill="#2ca02c" opacity="0.75" r="4"/>
  <circle cx="424.39223081294307" cy="569.6866944954284" fill="#2ca02c" opacity="0.75" r="4"/>
  <circle cx="394.21313876024334" cy="528.2941681523903" fill="#1f77b4" opacity="0.75" r="4"/>
  <circle cx="374.68518225494364" cy="541.8750421723195" fill="#ff7f0e" opacity="0.75" r="4"/>
  <circle cx="443.2204761310114" cy="518.5420675805226" fill="#ff7f0e" opacity="0.75" r="4"/>
  <circle cx="507.961539373394" cy="437.82452932698305" fill="#ff7f0e" opacity="0.75" r="4"/>
  <circle cx="454.98071280244085" cy="457.08676944189483" fill="#2ca02c" opacity="0.75" r="4"/>
  <circle cx="465.7481800409837" cy="537.4809952005446" fill="#ff7f0e" opacity="0.75" r="4"/>
  <circle cx="453.9151248462903" cy="592.1734213459081" fill="#1f77b4" opacity="0.75" r="4"/>
  <circle cx="372.8917642645159" cy="476.9781625552168" fill="#ff7f0e" opacity="0.75" r="4"/>
  <circle cx="436.5822661186919" cy="552.7331422185309" fill="#ff7f0e" opacity="0.75" r="4"/>
  <circle cx="442.9710797891755" cy="503.4043623176671" fill="#2ca02c" opacity="0.75" r="4"/>
  <circle cx="501.2635533847764" cy="564.9542269222209" fill="#ff7f0e" opacity="0.75" r="4"/>
  <circle cx="438.75319839453584" cy="500.6796368747298" fill="#ff7f0e" opacity="0.75" r="4"/>
  <circle cx="390.5102072651673" cy="572.2269705939526" fill="#1f77b4" opacity="0.75" r="4"/>
  <circle cx="420.91900120842496" cy="543.6599353032092" fill="#1f77b4" opacity="0.75" r="4"/>
  <circle cx="415.043401220897" cy="490.6760559652713" fill="#1f77b4" opacity="0.75" r="4"/>
  <circle cx="396.2485872868434" cy="531.8945568342858" fill="#2ca02c" opacity="0.75" r="4"/>
  <circle cx="450.1398971591782" cy="535.6946515482971" fill="#2ca02c" opacity="0.75" r="4"/>
  <circle cx="394.4057035818697" cy="548.3948599350699" fill="#1f77b4" opacity="0.75" r="4"/>
  <circle cx="486.9808757020378" cy="585.7739353301226" fill="#1f77b4" opacity="0.75" r="4"/>
  <circle cx="543.460998930084" cy="533.4459259781434" fill="#ff7f0e" opacity="0.75" r="4"/>
  <circle cx="378.9109980881449" cy="539.7926500484905" fill="#2ca02c" opacity="0.75" r="4"/>
  <circle cx="369.0656772602139" cy="550.6312062345554" fill="#2ca02c" opacity="0.75" r="4"/>
  <circle cx="483.19793759664407" cy="480.04444796806916" fill="#1f77b4" opacity="0.75" r="4"/>
  <circle cx="415.54780655944984" cy="534.6758363393274" fill="#ff7f0e" opacity="0.75" r="4"/>
  <circle cx="772.6553545152527" cy="394.0228372186569" fill="#2ca02c" opacity="0.75" r="4"/>
  <circle cx="724.1760851591881" cy="428.56970283351393" fill="#1f77b4" opacity="0.75" r="4"/>
  <circle cx="764.0188781580999" cy="444.9403542576975" fill="#2ca02c" opacity="0.75" r="4"/>
  <circle cx="727.6242837804198" cy="385.17113864373306" fill="#ff7f0e" opacity="0.75" r="4"/>
  <circle cx="745.3106446009338" cy="445.19846150093423" fill="#1f77b4" opacity="0.75" r="4"/>
  <circle cx="635.8747765894477" cy="391.81590602197423" fill="#ff7f0e" opacity="0.75" r="4"/>
  <circle cx="757.5943563260945" cy="302.69559353592547" fill="#1f77b4" opacity="0.75" r="4"/>
  <circle cx="770.8222381125463" cy="429.81636917625025" fill="#ff7f0e" opacity="0.75" r="4"/>
  <circle cx="654.9776139496048" cy="451.2433881221938" fill="#1f77b4" opacity="0.75" r="4"/>
  <circle cx="538.267574170181" cy="532.7122609848366" fill="#1f77b4" opacity="0.75" r="4"/>
  <circle cx="587.9069895963167" cy="443.8711674046749" fill="#ff7f0e" opacity="0.75" r="4"/>
  <circle cx="734.4149414446442" cy="440.9686159633844" fill="#ff7f0e" opacity="0.75" r="4"/>
  <circle cx="636.801015278573" cy="370.1963436449902" fill="#2ca02c" opacity="0.75" r="4"/>
  <circle cx="589.9538538853029" cy="342.3415220069588" fill="#ff7f0e" opacity="0.75" r="4"/>
  <circle cx="745.3852853873307" cy="393.6062039924399" fill="#2ca02c" opacity="0.75" r="4"/>
  <circle cx="651.4384877674502" cy="464.5772424267078" fill="#1f77b4" opacity="0.75" r="4"/>
  <circle cx="711.263751607943" cy="421.1420351141139" fill="#ff7f0e" opacity="0.75" r="4"/>
  <circle cx="717.5448761323796" cy="407.7938336095221" fill="#ff7f0e" opacity="0.75" r="4"/>
  <circle cx="493.78549706903374" cy="404.09337612592446" fill="#ff7f0e" opacity="0.75" r="4"/>
  <circle cx="758.5421670299413" cy="351.9467743985715" fill="#ff7f0e" opacity="0.75" r="4"/>
  <circle cx="691.6787896356565" cy="471.09701284590443" fill="#2ca02c" opacity="0.75" r="4"/>
  <circle cx="459.5598185485679" cy="370.44899772832207" fill="#1f77b4" opacity="0.75" r="4"/>
  <circle cx="777.4576120281727" cy="454.59397563447067" fill="#1f77b4" opacity="0.75" r="4"/>
  <circle cx="739.6837504930432" cy="441.6731641539166" fill="#ff7f0e" opacity="0.75" r="4"/>
  <circle cx="658.8484926312385" cy="279.38649551768174" fill="#2ca02c" opacity="0.75" r="4"/>
  <circle cx="706.9435980547801" cy="423.0586182798702" fill="#ff7f0e" opacity="0.75" r="4"/>
  <circle cx="621.820704336425" cy="392.48673497670933" fill="#1f77b4" opacity="0.75" r="4"/>
  <circle cx="652.2394172031627" cy="609.9260753599551" fill="#2ca02c" opacity="0.75" r="4"/>
  <circle cx="791.311476916942" cy="417.7972670780326" fill="#1f77b4" opacity="0.75" r="4"/>
  <circle cx="497.63418255389985" cy="488.5134617908694" fill="#1f77b4" opacity="0.75" r="4"/>
  <circle cx="641.8394687422269" cy="372.3703723550075" fill="#1f77b4" opacity="0.75" r="4"/>
  <circle cx="688.1452095602698" cy="438.19856214889234" fill="#2ca02c" opacity="0.75" r="4"/>
  <circle cx="631.8255679612373" cy="438.6725984034231" fill="#2ca02c" opacity="0.75" r="4"/>
  <circle cx="766.9500520829505" cy="444.9532434221623" fill="#2ca02c" opacity="0.75" r="4"/>
  <circle cx="600.214220583365" cy="402.1497113021936" fill="#2ca02c" opacity="0.75" r="4"/>
  <circle cx="789.3462883878053" cy="527.6826367980113" fill="#1f77b4" opacity="0.75" r="4"/>
  <circle cx="595.1323892481923" cy="356.76717952838817" fill="#1f77b4" opacity="0.75" r="4"/>
  <circle cx="515.7776941539692" cy="336.6836460295412" fill="#1f77b4" opacity="0.75" r="4"/>
  <circle cx="682.5288654968889" cy="407.17327887780493" fill="#1f77b4" opacity="0.75" r="4"/>
  <circle cx="615.9508693586131" cy="426.2215539686312" fill="#ff7f0e" opacity="0.75" r="4"/>
  <circle cx="721.919787813607" cy="426.50980250632125" fill="#2ca02c" opacity="0.75" r="4"/>
  <circle cx="663.8280683652839" cy="376.23757910031793" fill="#ff7f0e" opacity="0.75" r="4"/>
  <circle cx="681.6768614717708" cy="386.0345514043454" fill="#1f77b4" opacity="0.75" r="4"/>
  <circle cx="666.3797530808961" cy="296.56337965645855" fill="#1f77b4" opacity="0.75" r="4"/>
  <circle cx="756.8900863186408" cy="461.4226235466088" fill="#ff7f0e" opacity="0.75" r="4"/>
  <circle cx="731.35812297797" cy="434.8225209956168" fill="#ff7f0e" opacity="0.75" r="4"/>
  <circle cx="693.8993712192472" cy="434.9460382942788" fill="#ff7f0e" opacity="0.75" r="4"/>
  <circle cx="758.4727688819784" cy="484.5269293298525" fill="#ff7f0e" opacity="0.75" r="4"/>
  <circle cx="629.7909649994841" cy="487.575557875259" fill="#2ca02c" opacity="0.75" r="4"/>
  <circle cx="737.0409520293324" cy="377.8152244013405" fill="#1f77b4" opacity="0.75" r="4"/>
  <circle cx="682.3895289192491" cy="383.5507830730031" fill="#1f77b4" opacity="0.75" r="4"/>
  <circle cx="653.4329918770185" cy="397.1089986425342" fill="#2ca02c" opacity="0.75" r="4"/>
  <circle cx="594.0838230572051" cy="339.3066172448353" fill="#1f77b4" opacity="0.75" r="4"/>
  <circle cx="542.6739139630952" cy="457.1072320029607" fill="#2ca02c" opacity="0.75" r="4"/>
  <circle cx="574.807260787321" cy="427.9109410267658" fill="#1f77b4" opacity="0.75" r="4"/>
  <circle cx="503.5133694693057" cy="550.6345127392779" fill="#1f77b4" opacity="0.75" r="4"/>
  <circle cx="493.3560087945528" cy="567.6331537534662" fill="#2ca02c" opacity="0.75" r="4"/>
  <circle cx="510.02679129589865" cy="541.4645418619132" fill="#1f77b4" opacity="0.75" r="4"/>
  <circle cx="341.33244882975123" cy="569.8548946918514" fill="#ff7f0e" opacity="0.75" r="4"/>
  <circle cx="477.71213766469396" cy="609.0698951232682" fill="#2ca02c" opacity="0.75" r="4"/>
  <circle cx="518.1138849052144" cy="534.1269929043314" fill="#2ca02c" opacity="0.75" r="4"/>
  <circle cx="645.5620898575448" cy="603.3217925487388" fill="#ff7f0e" opacity="0.75" r="4"/>
  <circle cx="554.8829899004539" cy="549.6715483475888" fill="#ff7f0e" opacity="0.75" r="4"/>
  <circle cx="527.3342038060996" cy="612.2809477272552" fill="#2ca02c" opacity="0.75" r="4"/>
  <circle cx="496.36960698257394" cy="625.4581425364659" fill="#2ca02c" opacity="0.75" r="4"/>
  <circle cx="521.5151221630556" cy="586.5259269475289" fill="#ff7f0e" opacity="0.75" r="4"/>
  <circle cx="559.8794964769548" cy="620.0492415275955" fill="#1f77b4" opacity="0.75" r="4"/>
  <circle cx="463.9072602998974" cy="549.5102903722598" fill="#2ca02c" opacity="0.75" r="4"/>
  <circle cx="554.166213094037" cy="589.1954112567154" fill="#ff7f0e" opacity="0.75" r="4"/>
  <circle cx="547.769975242247" cy="546.7523886232747" fill="#2ca02c" opacity="0.75" r="4"/>
  <circle cx="473.7047214682943" cy="626.2584051007061" fill="#ff7f0e" opacity="0.75" r="4"/>
  <circle cx="429.3201615686669" cy="596.8706029512632" fill="#2ca02c" opacity="0.75" r="4"/>
  <circle cx="648.4686942698943" cy="592.5664837294655" fill="#2ca02c" opacity="0.75" r="4"/>
  <circle cx="618.4437121848969" cy="578.0242431397832" fill="#1f77b4" opacity="0.75" r="4"/>
  <circle cx="503.7525881352644" cy="601.3775218179022" fill="#ff7f0e" opacity="0.75" r="4"/>
  <circle cx="499.1979891373033" cy="598.6318617664577" fill="#1f77b4" opacity="0.75" r="4"/>
  <circle cx="473.4410067479755" cy="561.1702574851531" fill="#2ca02c" opacity="0.75" r="4"/>
  <circle cx="563.6972076905579" cy="614.5890854687054" fill="#1f77b4" opacity="0.75" r="4"/>
  <circle cx="461.4595883742592" cy="607.099807510042" fill="#1f77b4" opacity="0.75" r="4"/>
  <circle cx="471.99366185447127" cy="540.6513292360675" fill="#1f77b4" opacity="0.75" r="4"/>
  <circle cx="437.8657138693489" cy="511.41002981437316" fill="#ff7f0e" opacity="0.75" r="4"/>
  <circle cx="554.0865352534088" cy="552.8568378125012" fill="#2ca02c" opacity="0.75" r="4"/>
  <circle cx="530.8777596674662" cy="581.4987958843321" fill="#ff7f0e" opacity="0.75" r="4"/>
  <circle cx="499.4434373954657" cy="637.4011779451235" fill="#1f77b4" opacity="0.75" r="4"/>
  <circle cx="664.8889938781127" cy="641.3590223806516" fill="#2ca02c" opacity="0.75" r="4"/>
  <circle cx="434.2407857750279" cy="602.762236901204" fill="#1f77b4" opacity="0.75" r="4"/>
  <circle cx="555.0669337601489" cy="561.9211509028588" fill="#1f77b4" opacity="0.75" r="4"/>
  <circle cx="587.8774334874992" cy="516.5683055743007" fill="#1f77b4" opacity="0.75" r="4"/>
  <circle cx="445.9525544563998" cy="633.1086468173221" fill="#1f77b4" opacity="0.75" r="4"/>
  <circle cx="553.5024396287286" cy="567.6240810204195" fill="#2ca02c" opacity="0.75" r="4"/>
  <circle cx="517.1323788886987" cy="610.0333560731917" fill="#2ca02c" opacity="0.75" r="4"/>
  <circle cx="461.4914227261747" cy="539.0711357888099" fill="#ff7f0e" opacity="0.75" r="4"/>
  <circle cx="513.2513842804126" cy="582.9679510000174" fill="#ff7f0e" opacity="0.75" r="4"/>
  <circle cx="514.2367537978014" cy="564.7470165574396" fill="#2ca02c" opacity="0.75" r="4"/>
  <circle cx="557.5811566902005" cy="613.079270705571" fill="#1f77b4" opacity="0.75" r="4"/>
  <circle cx="556.2236111838185" cy="592.1373310732354" fill="#2ca02c" opacity="0.75" r="4"/>
  <circle cx="584.8129979265461" cy="604.8255623520438" fill="#1f77b4" opacity="0.75" r="4"/>
  <circle cx="466.64589399278174" cy="601.2451296499205" fill="#1f77b4" opacity="0.75" r="4"/>
  <circle cx="489.77551830130545" cy="598.3692885634806" fill="#2ca02c" opacity="0.75" r="4"/>
  <circle cx="574.1632922552184" cy="612.3440877907403" fill="#1f77b4" opacity="0.75" r="4"/>
  <circle cx="614.4798618245894" cy="587.0095768507891" fill="#ff7f0e" opacity="0.75" r="4"/>
  <circle cx="533.7224904236577" cy="541.9557006014554" fill="#2ca02c" opacity="0.75" r="4"/>
  <circle cx="591.8771447574698" cy="577.9036773159826" fill="#1f77b4" opacity="0.75" r="4"/>
  <circle cx="494.707826678324" cy="593.5746690108926" fill="#1f77b4" opacity="0.75" r="4"/>
  <circle cx="509.0604075895174" cy="597.078804221771" fill="#2ca02c" opacity="0.75" r="4"/>
  <circle cx="666.4321718016154" cy="574.3441189009102" fill="#2ca02c" opacity="0.75" r="4"/>
  <circle cx="420.57333597895513" cy="531.9530783633463" fill="#1f77b4" opacity="0.75" r="4"/>
  <circle cx="527.2826815921242" cy="567.1133749071938" fill="#ff7f0e" opacity="0.75" r="4"/>
  <circle cx="519.0024546350674" cy="524.9255540644845" fill="#1f77b4" opacity="0.75" r="4"/>
  <circle cx="488.8438099316162" cy="569.2011040116372" fill="#ff7f0e" opacity="0.75" r="4"/>
  <circle cx="914.0" cy="244.0" fill="#d62728" opacity="0.9" r="7"/>
  <text fill="#333" font-family="Arial, Helvetica, sans-serif" font-size="16" text-anchor="middle" x="570.0" y="765">Dimension 1</text>
  <text fill="#333" font-family="Arial, Helvetica, sans-serif" font-size="16" text-anchor="middle" transform="rotate(-90,85,440.0)" x="85" y="440.0">Dimension 2</text>
  <text fill="#999" font-family="Arial, Helvetica, sans-serif" font-size="12" text-anchor="end" x="1140" y="776">Auto-generated SVG</text>
</svg>
