<?xml version="1.0" encoding="utf-8" standalone="no"?>
<!DOCTYPE svg PUBLIC "-//W3C//DTD SVG 1.1//EN"
  "http://www.w3.org/Graphics/SVG/1.1/DTD/svg11.dtd">
<svg xmlns:xlink="http://www.w3.org/1999/xlink" width="424.8pt" height="280.518281pt" viewBox="0 0 424.8 280.518281" xmlns="http://www.w3.org/2000/svg" version="1.1">
 <metadata>
  <rdf:RDF xmlns:dc="http://purl.org/dc/elements/1.1/" xmlns:cc="http://creativecommons.org/ns#" xmlns:rdf="http://www.w3.org/1999/02/22-rdf-syntax-ns#">
   <cc:Work>
    <dc:type rdf:resource="http://purl.org/dc/dcmitype/StillImage"/>
    <dc:date>2026-01-08T05:49:21.492849</dc:date>
    <dc:format>image/svg+xml</dc:format>
    <dc:creator>
     <cc:Agent>
      <dc:title>Matplotlib v3.10.7, https://matplotlib.org/</dc:title>
     </cc:Agent>
    </dc:creator>
   </cc:Work>
  </rdf:RDF>
 </metadata>
 <defs>
  <style type="text/css">*{stroke-linejoin: round; stroke-linecap: butt}</style>
 </defs>
 <g id="figure_1">
  <g id="patch_1">
   <path d="M 0 280.518281 
L 424.8 280.518281 
L 424.8 0 
L 0 0 
z
" style="fill: #ffffff"/>
  </g>
  <g id="axes_1">
   <g id="patch_2">
    <path d="M 23.616 56.524948 
L 58.0896 56.524948 
L 58.0896 36.943615 
L 23.616 36.943615 
z
" clip-path="url(#p2dcaa15d5a)" style="fill: #481084; stroke: #ffffff; stroke-width: 0.3; stroke-linejoin: miter"/>
   </g>
   <g id="patch_3">
    <path d="M 60.552 56.524948 
L 95.0256 56.524948 
L 95.0256 36.943615 
L 60.552 36.943615 
z
" clip-path="url(#p2dcaa15d5a)" style="fill: #7d78b7; stroke: #ffffff; stroke-width: 0.3; stroke-linejoin: miter"/>
   </g>
   <g id="patch_4">
    <path d="M 97.488 56.524948 
L 131.9616 56.524948 
L 131.9616 36.943615 
L 97.488 36.943615 
z
" clip-path="url(#p2dcaa15d5a)" style="fill: #b6b6d8; stroke: #ffffff; stroke-width: 0.3; stroke-linejoin: miter"/>
   </g>
   <g id="patch_5">
    <path d="M 134.424 56.524948 
L 168.8976 56.524948 
L 168.8976 36.943615 
L 134.424 36.943615 
z
" clip-path="url(#p2dcaa15d5a)" style="fill: #fcfbfd; stroke: #ffffff; stroke-width: 0.3; stroke-linejoin: miter"/>
   </g>
   <g id="patch_6">
    <path d="M 171.36 56.524948 
L 205.8336 56.524948 
L 205.8336 36.943615 
L 171.36 36.943615 
z
" clip-path="url(#p2dcaa15d5a)" style="fill: #fcfbfd; stroke: #ffffff; stroke-width: 0.3; stroke-linejoin: miter"/>
   </g>
   <g id="patch_7">
    <path d="M 208.296 56.524948 
L 242.7696 56.524948 
L 242.7696 36.943615 
L 208.296 36.943615 
z
" clip-path="url(#p2dcaa15d5a)" style="fill: #fcfbfd; stroke: #ffffff; stroke-width: 0.3; stroke-linejoin: miter"/>
   </g>
   <g id="patch_8">
    <path d="M 245.232 56.524948 
L 279.7056 56.524948 
L 279.7056 36.943615 
L 245.232 36.943615 
z
" clip-path="url(#p2dcaa15d5a)" style="fill: #fcfbfd; stroke: #ffffff; stroke-width: 0.3; stroke-linejoin: miter"/>
   </g>
   <g id="patch_9">
    <path d="M 282.168 56.524948 
L 316.6416 56.524948 
L 316.6416 36.943615 
L 282.168 36.943615 
z
" clip-path="url(#p2dcaa15d5a)" style="fill: #fcfbfd; stroke: #ffffff; stroke-width: 0.3; stroke-linejoin: miter"/>
   </g>
   <g id="patch_10">
    <path d="M 319.104 56.524948 
L 353.5776 56.524948 
L 353.5776 36.943615 
L 319.104 36.943615 
z
" clip-path="url(#p2dcaa15d5a)" style="fill: #fcfbfd; stroke: #ffffff; stroke-width: 0.3; stroke-linejoin: miter"/>
   </g>
   <g id="patch_11">
    <path d="M 356.04 56.524948 
L 390.5136 56.524948 
L 390.5136 36.943615 
L 356.04 36.943615 
z
" clip-path="url(#p2dcaa15d5a)" style="fill: #fcfbfd; stroke: #ffffff; stroke-width: 0.3; stroke-linejoin: miter"/>
   </g>
   <g id="patch_12">
    <path d="M 23.616 77.504948 
L 58.0896 77.504948 
L 58.0896 57.923615 
L 23.616 57.923615 
z
" clip-path="url(#p2dcaa15d5a)" style="fill: #8481bc; stroke: #ffffff; stroke-width: 0.3; stroke-linejoin: miter"/>
   </g>
   <g id="patch_13">
    <path d="M 60.552 77.504948 
L 95.0256 77.504948 
L 95.0256 57.923615 
L 60.552 57.923615 
z
" clip-path="url(#p2dcaa15d5a)" style="fill: #4b1687; stroke: #ffffff; stroke-width: 0.3; stroke-linejoin: miter"/>
   </g>
   <g id="patch_14">
    <path d="M 97.488 77.504948 
L 131.9616 77.504948 
L 131.9616 57.923615 
L 97.488 57.923615 
z
" clip-path="url(#p2dcaa15d5a)" style="fill: #8e8ac0; stroke: #ffffff; stroke-width: 0.3; stroke-linejoin: miter"/>
   </g>
   <g id="patch_15">
    <path d="M 134.424 77.504948 
L 168.8976 77.504948 
L 168.8976 57.923615 
L 134.424 57.923615 
z
" clip-path="url(#p2dcaa15d5a)" style="fill: #c4c5e0; stroke: #ffffff; stroke-width: 0.3; stroke-linejoin: miter"/>
   </g>
   <g id="patch_16">
    <path d="M 171.36 77.504948 
L 205.8336 77.504948 
L 205.8336 57.923615 
L 171.36 57.923615 
z
" clip-path="url(#p2dcaa15d5a)" style="fill: #fcfbfd; stroke: #ffffff; stroke-width: 0.3; stroke-linejoin: miter"/>
   </g>
   <g id="patch_17">
    <path d="M 208.296 77.504948 
L 242.7696 77.504948 
L 242.7696 57.923615 
L 208.296 57.923615 
z
" clip-path="url(#p2dcaa15d5a)" style="fill: #fcfbfd; stroke: #ffffff; stroke-width: 0.3; stroke-linejoin: miter"/>
   </g>
   <g id="patch_18">
    <path d="M 245.232 77.504948 
L 279.7056 77.504948 
L 279.7056 57.923615 
L 245.232 57.923615 
z
" clip-path="url(#p2dcaa15d5a)" style="fill: #fcfbfd; stroke: #ffffff; stroke-width: 0.3; stroke-linejoin: miter"/>
   </g>
   <g id="patch_19">
    <path d="M 282.168 77.504948 
L 316.6416 77.504948 
L 316.6416 57.923615 
L 282.168 57.923615 
z
" clip-path="url(#p2dcaa15d5a)" style="fill: #fcfbfd; stroke: #ffffff; stroke-width: 0.3; stroke-linejoin: miter"/>
   </g>
   <g id="patch_20">
    <path d="M 319.104 77.504948 
L 353.5776 77.504948 
L 353.5776 57.923615 
L 319.104 57.923615 
z
" clip-path="url(#p2dcaa15d5a)" style="fill: #fcfbfd; stroke: #ffffff; stroke-width: 0.3; stroke-linejoin: miter"/>
   </g>
   <g id="patch_21">
    <path d="M 356.04 77.504948 
L 390.5136 77.504948 
L 390.5136 57.923615 
L 356.04 57.923615 
z
" clip-path="url(#p2dcaa15d5a)" style="fill: #fcfbfd; stroke: #ffffff; stroke-width: 0.3; stroke-linejoin: miter"/>
   </g>
   <g id="patch_22">
    <path d="M 23.616 98.484948 
L 58.0896 98.484948 
L 58.0896 78.903615 
L 23.616 78.903615 
z
" clip-path="url(#p2dcaa15d5a)" style="fill: #b2b2d5; stroke: #ffffff; stroke-width: 0.3; stroke-linejoin: miter"/>
   </g>
   <g id="patch_23">
    <path d="M 60.552 98.484948 
L 95.0256 98.484948 
L 95.0256 78.903615 
L 60.552 78.903615 
z
" clip-path="url(#p2dcaa15d5a)" style="fill: #8481bc; stroke: #ffffff; stroke-width: 0.3; stroke-linejoin: miter"/>
   </g>
   <g id="patch_24">
    <path d="M 97.488 98.484948 
L 131.9616 98.484948 
L 131.9616 78.903615 
L 97.488 78.903615 
z
" clip-path="url(#p2dcaa15d5a)" style="fill: #430780; stroke: #ffffff; stroke-width: 0.3; stroke-linejoin: miter"/>
   </g>
   <g id="patch_25">
    <path d="M 134.424 98.484948 
L 168.8976 98.484948 
L 168.8976 78.903615 
L 134.424 78.903615 
z
" clip-path="url(#p2dcaa15d5a)" style="fill: #908dc2; stroke: #ffffff; stroke-width: 0.3; stroke-linejoin: miter"/>
   </g>
   <g id="patch_26">
    <path d="M 171.36 98.484948 
L 205.8336 98.484948 
L 205.8336 78.903615 
L 171.36 78.903615 
z
" clip-path="url(#p2dcaa15d5a)" style="fill: #b0afd4; stroke: #ffffff; stroke-width: 0.3; stroke-linejoin: miter"/>
   </g>
   <g id="patch_27">
    <path d="M 208.296 98.484948 
L 242.7696 98.484948 
L 242.7696 78.903615 
L 208.296 78.903615 
z
" clip-path="url(#p2dcaa15d5a)" style="fill: #fcfbfd; stroke: #ffffff; stroke-width: 0.3; stroke-linejoin: miter"/>
   </g>
   <g id="patch_28">
    <path d="M 245.232 98.484948 
L 279.7056 98.484948 
L 279.7056 78.903615 
L 245.232 78.903615 
z
" clip-path="url(#p2dcaa15d5a)" style="fill: #fcfbfd; stroke: #ffffff; stroke-width: 0.3; stroke-linejoin: miter"/>
   </g>
   <g id="patch_29">
    <path d="M 282.168 98.484948 
L 316.6416 98.484948 
L 316.6416 78.903615 
L 282.168 78.903615 
z
" clip-path="url(#p2dcaa15d5a)" style="fill: #fcfbfd; stroke: #ffffff; stroke-width: 0.3; stroke-linejoin: miter"/>
   </g>
   <g id="patch_30">
    <path d="M 319.104 98.484948 
L 353.5776 98.484948 
L 353.5776 78.903615 
L 319.104 78.903615 
z
" clip-path="url(#p2dcaa15d5a)" style="fill: #fcfbfd; stroke: #ffffff; stroke-width: 0.3; stroke-linejoin: miter"/>
   </g>
   <g id="patch_31">
    <path d="M 356.04 98.484948 
L 390.5136 98.484948 
L 390.5136 78.903615 
L 356.04 78.903615 
z
" clip-path="url(#p2dcaa15d5a)" style="fill: #fcfbfd; stroke: #ffffff; stroke-width: 0.3; stroke-linejoin: miter"/>
   </g>
   <g id="patch_32">
    <path d="M 23.616 119.464948 
L 58.0896 119.464948 
L 58.0896 99.883615 
L 23.616 99.883615 
z
" clip-path="url(#p2dcaa15d5a)" style="fill: #fcfbfd; stroke: #ffffff; stroke-width: 0.3; stroke-linejoin: miter"/>
   </g>
   <g id="patch_33">
    <path d="M 60.552 119.464948 
L 95.0256 119.464948 
L 95.0256 99.883615 
L 60.552 99.883615 
z
" clip-path="url(#p2dcaa15d5a)" style="fill: #b3b3d6; stroke: #ffffff; stroke-width: 0.3; stroke-linejoin: miter"/>
   </g>
   <g id="patch_34">
    <path d="M 97.488 119.464948 
L 131.9616 119.464948 
L 131.9616 99.883615 
L 97.488 99.883615 
z
" clip-path="url(#p2dcaa15d5a)" style="fill: #8d89c0; stroke: #ffffff; stroke-width: 0.3; stroke-linejoin: miter"/>
   </g>
   <g id="patch_35">
    <path d="M 134.424 119.464948 
L 168.8976 119.464948 
L 168.8976 99.883615 
L 134.424 99.883615 
z
" clip-path="url(#p2dcaa15d5a)" style="fill: #4b1687; stroke: #ffffff; stroke-width: 0.3; stroke-linejoin: miter"/>
   </g>
   <g id="patch_36">
    <path d="M 171.36 119.464948 
L 205.8336 119.464948 
L 205.8336 99.883615 
L 171.36 99.883615 
z
" clip-path="url(#p2dcaa15d5a)" style="fill: #8e8ac0; stroke: #ffffff; stroke-width: 0.3; stroke-linejoin: miter"/>
   </g>
   <g id="patch_37">
    <path d="M 208.296 119.464948 
L 242.7696 119.464948 
L 242.7696 99.883615 
L 208.296 99.883615 
z
" clip-path="url(#p2dcaa15d5a)" style="fill: #bfc0de; stroke: #ffffff; stroke-width: 0.3; stroke-linejoin: miter"/>
   </g>
   <g id="patch_38">
    <path d="M 245.232 119.464948 
L 279.7056 119.464948 
L 279.7056 99.883615 
L 245.232 99.883615 
z
" clip-path="url(#p2dcaa15d5a)" style="fill: #fcfbfd; stroke: #ffffff; stroke-width: 0.3; stroke-linejoin: miter"/>
   </g>
   <g id="patch_39">
    <path d="M 282.168 119.464948 
L 316.6416 119.464948 
L 316.6416 99.883615 
L 282.168 99.883615 
z
" clip-path="url(#p2dcaa15d5a)" style="fill: #fcfbfd; stroke: #ffffff; stroke-width: 0.3; stroke-linejoin: miter"/>
   </g>
   <g id="patch_40">
    <path d="M 319.104 119.464948 
L 353.5776 119.464948 
L 353.5776 99.883615 
L 319.104 99.883615 
z
" clip-path="url(#p2dcaa15d5a)" style="fill: #fcfbfd; stroke: #ffffff; stroke-width: 0.3; stroke-linejoin: miter"/>
   </g>
   <g id="patch_41">
    <path d="M 356.04 119.464948 
L 390.5136 119.464948 
L 390.5136 99.883615 
L 356.04 99.883615 
z
" clip-path="url(#p2dcaa15d5a)" style="fill: #fcfbfd; stroke: #ffffff; stroke-width: 0.3; stroke-linejoin: miter"/>
   </g>
   <g id="patch_42">
    <path d="M 23.616 140.444948 
L 58.0896 140.444948 
L 58.0896 120.863615 
L 23.616 120.863615 
z
" clip-path="url(#p2dcaa15d5a)" style="fill: #fcfbfd; stroke: #ffffff; stroke-width: 0.3; stroke-linejoin: miter"/>
   </g>
   <g id="patch_43">
    <path d="M 60.552 140.444948 
L 95.0256 140.444948 
L 95.0256 120.863615 
L 60.552 120.863615 
z
" clip-path="url(#p2dcaa15d5a)" style="fill: #fcfbfd; stroke: #ffffff; stroke-width: 0.3; stroke-linejoin: miter"/>
   </g>
   <g id="patch_44">
    <path d="M 97.488 140.444948 
L 131.9616 140.444948 
L 131.9616 120.863615 
L 97.488 120.863615 
z
" clip-path="url(#p2dcaa15d5a)" style="fill: #babadb; stroke: #ffffff; stroke-width: 0.3; stroke-linejoin: miter"/>
   </g>
   <g id="patch_45">
    <path d="M 134.424 140.444948 
L 168.8976 140.444948 
L 168.8976 120.863615 
L 134.424 120.863615 
z
" clip-path="url(#p2dcaa15d5a)" style="fill: #8885be; stroke: #ffffff; stroke-width: 0.3; stroke-linejoin: miter"/>
   </g>
   <g id="patch_46">
    <path d="M 171.36 140.444948 
L 205.8336 140.444948 
L 205.8336 120.863615 
L 171.36 120.863615 
z
" clip-path="url(#p2dcaa15d5a)" style="fill: #491285; stroke: #ffffff; stroke-width: 0.3; stroke-linejoin: miter"/>
   </g>
   <g id="patch_47">
    <path d="M 208.296 140.444948 
L 242.7696 140.444948 
L 242.7696 120.863615 
L 208.296 120.863615 
z
" clip-path="url(#p2dcaa15d5a)" style="fill: #8481bc; stroke: #ffffff; stroke-width: 0.3; stroke-linejoin: miter"/>
   </g>
   <g id="patch_48">
    <path d="M 245.232 140.444948 
L 279.7056 140.444948 
L 279.7056 120.863615 
L 245.232 120.863615 
z
" clip-path="url(#p2dcaa15d5a)" style="fill: #c2c3df; stroke: #ffffff; stroke-width: 0.3; stroke-linejoin: miter"/>
   </g>
   <g id="patch_49">
    <path d="M 282.168 140.444948 
L 316.6416 140.444948 
L 316.6416 120.863615 
L 282.168 120.863615 
z
" clip-path="url(#p2dcaa15d5a)" style="fill: #fcfbfd; stroke: #ffffff; stroke-width: 0.3; stroke-linejoin: miter"/>
   </g>
   <g id="patch_50">
    <path d="M 319.104 140.444948 
L 353.5776 140.444948 
L 353.5776 120.863615 
L 319.104 120.863615 
z
" clip-path="url(#p2dcaa15d5a)" style="fill: #fcfbfd; stroke: #ffffff; stroke-width: 0.3; stroke-linejoin: miter"/>
   </g>
   <g id="patch_51">
    <path d="M 356.04 140.444948 
L 390.5136 140.444948 
L 390.5136 120.863615 
L 356.04 120.863615 
z
" clip-path="url(#p2dcaa15d5a)" style="fill: #fcfbfd; stroke: #ffffff; stroke-width: 0.3; stroke-linejoin: miter"/>
   </g>
   <g id="patch_52">
    <path d="M 23.616 161.424948 
L 58.0896 161.424948 
L 58.0896 141.843615 
L 23.616 141.843615 
z
" clip-path="url(#p2dcaa15d5a)" style="fill: #fcfbfd; stroke: #ffffff; stroke-width: 0.3; stroke-linejoin: miter"/>
   </g>
   <g id="patch_53">
    <path d="M 60.552 161.424948 
L 95.0256 161.424948 
L 95.0256 141.843615 
L 60.552 141.843615 
z
" clip-path="url(#p2dcaa15d5a)" style="fill: #fcfbfd; stroke: #ffffff; stroke-width: 0.3; stroke-linejoin: miter"/>
   </g>
   <g id="patch_54">
    <path d="M 97.488 161.424948 
L 131.9616 161.424948 
L 131.9616 141.843615 
L 97.488 141.843615 
z
" clip-path="url(#p2dcaa15d5a)" style="fill: #fcfbfd; stroke: #ffffff; stroke-width: 0.3; stroke-linejoin: miter"/>
   </g>
   <g id="patch_55">
    <path d="M 134.424 161.424948 
L 168.8976 161.424948 
L 168.8976 141.843615 
L 134.424 141.843615 
z
" clip-path="url(#p2dcaa15d5a)" style="fill: #bfc0de; stroke: #ffffff; stroke-width: 0.3; stroke-linejoin: miter"/>
   </g>
   <g id="patch_56">
    <path d="M 171.36 161.424948 
L 205.8336 161.424948 
L 205.8336 141.843615 
L 171.36 141.843615 
z
" clip-path="url(#p2dcaa15d5a)" style="fill: #8986be; stroke: #ffffff; stroke-width: 0.3; stroke-linejoin: miter"/>
   </g>
   <g id="patch_57">
    <path d="M 208.296 161.424948 
L 242.7696 161.424948 
L 242.7696 141.843615 
L 208.296 141.843615 
z
" clip-path="url(#p2dcaa15d5a)" style="fill: #460d83; stroke: #ffffff; stroke-width: 0.3; stroke-linejoin: miter"/>
   </g>
   <g id="patch_58">
    <path d="M 245.232 161.424948 
L 279.7056 161.424948 
L 279.7056 141.843615 
L 245.232 141.843615 
z
" clip-path="url(#p2dcaa15d5a)" style="fill: #807dba; stroke: #ffffff; stroke-width: 0.3; stroke-linejoin: miter"/>
   </g>
   <g id="patch_59">
    <path d="M 282.168 161.424948 
L 316.6416 161.424948 
L 316.6416 141.843615 
L 282.168 141.843615 
z
" clip-path="url(#p2dcaa15d5a)" style="fill: #c1c2df; stroke: #ffffff; stroke-width: 0.3; stroke-linejoin: miter"/>
   </g>
   <g id="patch_60">
    <path d="M 319.104 161.424948 
L 353.5776 161.424948 
L 353.5776 141.843615 
L 319.104 141.843615 
z
" clip-path="url(#p2dcaa15d5a)" style="fill: #fcfbfd; stroke: #ffffff; stroke-width: 0.3; stroke-linejoin: miter"/>
   </g>
   <g id="patch_61">
    <path d="M 356.04 161.424948 
L 390.5136 161.424948 
L 390.5136 141.843615 
L 356.04 141.843615 
z
" clip-path="url(#p2dcaa15d5a)" style="fill: #fcfbfd; stroke: #ffffff; stroke-width: 0.3; stroke-linejoin: miter"/>
   </g>
   <g id="patch_62">
    <path d="M 23.616 182.404948 
L 58.0896 182.404948 
L 58.0896 162.823615 
L 23.616 162.823615 
z
" clip-path="url(#p2dcaa15d5a)" style="fill: #fcfbfd; stroke: #ffffff; stroke-width: 0.3; stroke-linejoin: miter"/>
   </g>
   <g id="patch_63">
    <path d="M 60.552 182.404948 
L 95.0256 182.404948 
L 95.0256 162.823615 
L 60.552 162.823615 
z
" clip-path="url(#p2dcaa15d5a)" style="fill: #fcfbfd; stroke: #ffffff; stroke-width: 0.3; stroke-linejoin: miter"/>
   </g>
   <g id="patch_64">
    <path d="M 97.488 182.404948 
L 131.9616 182.404948 
L 131.9616 162.823615 
L 97.488 162.823615 
z
" clip-path="url(#p2dcaa15d5a)" style="fill: #fcfbfd; stroke: #ffffff; stroke-width: 0.3; stroke-linejoin: miter"/>
   </g>
   <g id="patch_65">
    <path d="M 134.424 182.404948 
L 168.8976 182.404948 
L 168.8976 162.823615 
L 134.424 162.823615 
z
" clip-path="url(#p2dcaa15d5a)" style="fill: #fcfbfd; stroke: #ffffff; stroke-width: 0.3; stroke-linejoin: miter"/>
   </g>
   <g id="patch_66">
    <path d="M 171.36 182.404948 
L 205.8336 182.404948 
L 205.8336 162.823615 
L 171.36 162.823615 
z
" clip-path="url(#p2dcaa15d5a)" style="fill: #bbbbdb; stroke: #ffffff; stroke-width: 0.3; stroke-linejoin: miter"/>
   </g>
   <g id="patch_67">
    <path d="M 208.296 182.404948 
L 242.7696 182.404948 
L 242.7696 162.823615 
L 208.296 162.823615 
z
" clip-path="url(#p2dcaa15d5a)" style="fill: #8481bc; stroke: #ffffff; stroke-width: 0.3; stroke-linejoin: miter"/>
   </g>
   <g id="patch_68">
    <path d="M 245.232 182.404948 
L 279.7056 182.404948 
L 279.7056 162.823615 
L 245.232 162.823615 
z
" clip-path="url(#p2dcaa15d5a)" style="fill: #4d1a89; stroke: #ffffff; stroke-width: 0.3; stroke-linejoin: miter"/>
   </g>
   <g id="patch_69">
    <path d="M 282.168 182.404948 
L 316.6416 182.404948 
L 316.6416 162.823615 
L 282.168 162.823615 
z
" clip-path="url(#p2dcaa15d5a)" style="fill: #8481bc; stroke: #ffffff; stroke-width: 0.3; stroke-linejoin: miter"/>
   </g>
   <g id="patch_70">
    <path d="M 319.104 182.404948 
L 353.5776 182.404948 
L 353.5776 162.823615 
L 319.104 162.823615 
z
" clip-path="url(#p2dcaa15d5a)" style="fill: #c2c3df; stroke: #ffffff; stroke-width: 0.3; stroke-linejoin: miter"/>
   </g>
   <g id="patch_71">
    <path d="M 356.04 182.404948 
L 390.5136 182.404948 
L 390.5136 162.823615 
L 356.04 162.823615 
z
" clip-path="url(#p2dcaa15d5a)" style="fill: #fcfbfd; stroke: #ffffff; stroke-width: 0.3; stroke-linejoin: miter"/>
   </g>
   <g id="patch_72">
    <path d="M 23.616 203.384948 
L 58.0896 203.384948 
L 58.0896 183.803615 
L 23.616 183.803615 
z
" clip-path="url(#p2dcaa15d5a)" style="fill: #fcfbfd; stroke: #ffffff; stroke-width: 0.3; stroke-linejoin: miter"/>
   </g>
   <g id="patch_73">
    <path d="M 60.552 203.384948 
L 95.0256 203.384948 
L 95.0256 183.803615 
L 60.552 183.803615 
z
" clip-path="url(#p2dcaa15d5a)" style="fill: #fcfbfd; stroke: #ffffff; stroke-width: 0.3; stroke-linejoin: miter"/>
   </g>
   <g id="patch_74">
    <path d="M 97.488 203.384948 
L 131.9616 203.384948 
L 131.9616 183.803615 
L 97.488 183.803615 
z
" clip-path="url(#p2dcaa15d5a)" style="fill: #fcfbfd; stroke: #ffffff; stroke-width: 0.3; stroke-linejoin: miter"/>
   </g>
   <g id="patch_75">
    <path d="M 134.424 203.384948 
L 168.8976 203.384948 
L 168.8976 183.803615 
L 134.424 183.803615 
z
" clip-path="url(#p2dcaa15d5a)" style="fill: #fcfbfd; stroke: #ffffff; stroke-width: 0.3; stroke-linejoin: miter"/>
   </g>
   <g id="patch_76">
    <path d="M 171.36 203.384948 
L 205.8336 203.384948 
L 205.8336 183.803615 
L 171.36 183.803615 
z
" clip-path="url(#p2dcaa15d5a)" style="fill: #fcfbfd; stroke: #ffffff; stroke-width: 0.3; stroke-linejoin: miter"/>
   </g>
   <g id="patch_77">
    <path d="M 208.296 203.384948 
L 242.7696 203.384948 
L 242.7696 183.803615 
L 208.296 183.803615 
z
" clip-path="url(#p2dcaa15d5a)" style="fill: #c4c5e0; stroke: #ffffff; stroke-width: 0.3; stroke-linejoin: miter"/>
   </g>
   <g id="patch_78">
    <path d="M 245.232 203.384948 
L 279.7056 203.384948 
L 279.7056 183.803615 
L 245.232 183.803615 
z
" clip-path="url(#p2dcaa15d5a)" style="fill: #7d78b7; stroke: #ffffff; stroke-width: 0.3; stroke-linejoin: miter"/>
   </g>
   <g id="patch_79">
    <path d="M 282.168 203.384948 
L 316.6416 203.384948 
L 316.6416 183.803615 
L 282.168 183.803615 
z
" clip-path="url(#p2dcaa15d5a)" style="fill: #3f007d; stroke: #ffffff; stroke-width: 0.3; stroke-linejoin: miter"/>
   </g>
   <g id="patch_80">
    <path d="M 319.104 203.384948 
L 353.5776 203.384948 
L 353.5776 183.803615 
L 319.104 183.803615 
z
" clip-path="url(#p2dcaa15d5a)" style="fill: #807cba; stroke: #ffffff; stroke-width: 0.3; stroke-linejoin: miter"/>
   </g>
   <g id="patch_81">
    <path d="M 356.04 203.384948 
L 390.5136 203.384948 
L 390.5136 183.803615 
L 356.04 183.803615 
z
" clip-path="url(#p2dcaa15d5a)" style="fill: #bfc0de; stroke: #ffffff; stroke-width: 0.3; stroke-linejoin: miter"/>
   </g>
   <g id="patch_82">
    <path d="M 23.616 224.364948 
L 58.0896 224.364948 
L 58.0896 204.783615 
L 23.616 204.783615 
z
" clip-path="url(#p2dcaa15d5a)" style="fill: #fcfbfd; stroke: #ffffff; stroke-width: 0.3; stroke-linejoin: miter"/>
   </g>
   <g id="patch_83">
    <path d="M 60.552 224.364948 
L 95.0256 224.364948 
L 95.0256 204.783615 
L 60.552 204.783615 
z
" clip-path="url(#p2dcaa15d5a)" style="fill: #fcfbfd; stroke: #ffffff; stroke-width: 0.3; stroke-linejoin: miter"/>
   </g>
   <g id="patch_84">
    <path d="M 97.488 224.364948 
L 131.9616 224.364948 
L 131.9616 204.783615 
L 97.488 204.783615 
z
" clip-path="url(#p2dcaa15d5a)" style="fill: #fcfbfd; stroke: #ffffff; stroke-width: 0.3; stroke-linejoin: miter"/>
   </g>
   <g id="patch_85">
    <path d="M 134.424 224.364948 
L 168.8976 224.364948 
L 168.8976 204.783615 
L 134.424 204.783615 
z
" clip-path="url(#p2dcaa15d5a)" style="fill: #fcfbfd; stroke: #ffffff; stroke-width: 0.3; stroke-linejoin: miter"/>
   </g>
   <g id="patch_86">
    <path d="M 171.36 224.364948 
L 205.8336 224.364948 
L 205.8336 204.783615 
L 171.36 204.783615 
z
" clip-path="url(#p2dcaa15d5a)" style="fill: #fcfbfd; stroke: #ffffff; stroke-width: 0.3; stroke-linejoin: miter"/>
   </g>
   <g id="patch_87">
    <path d="M 208.296 224.364948 
L 242.7696 224.364948 
L 242.7696 204.783615 
L 208.296 204.783615 
z
" clip-path="url(#p2dcaa15d5a)" style="fill: #fcfbfd; stroke: #ffffff; stroke-width: 0.3; stroke-linejoin: miter"/>
   </g>
   <g id="patch_88">
    <path d="M 245.232 224.364948 
L 279.7056 224.364948 
L 279.7056 204.783615 
L 245.232 204.783615 
z
" clip-path="url(#p2dcaa15d5a)" style="fill: #c3c4e0; stroke: #ffffff; stroke-width: 0.3; stroke-linejoin: miter"/>
   </g>
   <g id="patch_89">
    <path d="M 282.168 224.364948 
L 316.6416 224.364948 
L 316.6416 204.783615 
L 282.168 204.783615 
z
" clip-path="url(#p2dcaa15d5a)" style="fill: #827fbb; stroke: #ffffff; stroke-width: 0.3; stroke-linejoin: miter"/>
   </g>
   <g id="patch_90">
    <path d="M 319.104 224.364948 
L 353.5776 224.364948 
L 353.5776 204.783615 
L 319.104 204.783615 
z
" clip-path="url(#p2dcaa15d5a)" style="fill: #470f84; stroke: #ffffff; stroke-width: 0.3; stroke-linejoin: miter"/>
   </g>
   <g id="patch_91">
    <path d="M 356.04 224.364948 
L 390.5136 224.364948 
L 390.5136 204.783615 
L 356.04 204.783615 
z
" clip-path="url(#p2dcaa15d5a)" style="fill: #8e8bc1; stroke: #ffffff; stroke-width: 0.3; stroke-linejoin: miter"/>
   </g>
   <g id="patch_92">
    <path d="M 23.616 245.344948 
L 58.0896 245.344948 
L 58.0896 225.763615 
L 23.616 225.763615 
z
" clip-path="url(#p2dcaa15d5a)" style="fill: #fcfbfd; stroke: #ffffff; stroke-width: 0.3; stroke-linejoin: miter"/>
   </g>
   <g id="patch_93">
    <path d="M 60.552 245.344948 
L 95.0256 245.344948 
L 95.0256 225.763615 
L 60.552 225.763615 
z
" clip-path="url(#p2dcaa15d5a)" style="fill: #fcfbfd; stroke: #ffffff; stroke-width: 0.3; stroke-linejoin: miter"/>
   </g>
   <g id="patch_94">
    <path d="M 97.488 245.344948 
L 131.9616 245.344948 
L 131.9616 225.763615 
L 97.488 225.763615 
z
" clip-path="url(#p2dcaa15d5a)" style="fill: #fcfbfd; stroke: #ffffff; stroke-width: 0.3; stroke-linejoin: miter"/>
   </g>
   <g id="patch_95">
    <path d="M 134.424 245.344948 
L 168.8976 245.344948 
L 168.8976 225.763615 
L 134.424 225.763615 
z
" clip-path="url(#p2dcaa15d5a)" style="fill: #fcfbfd; stroke: #ffffff; stroke-width: 0.3; stroke-linejoin: miter"/>
   </g>
   <g id="patch_96">
    <path d="M 171.36 245.344948 
L 205.8336 245.344948 
L 205.8336 225.763615 
L 171.36 225.763615 
z
" clip-path="url(#p2dcaa15d5a)" style="fill: #fcfbfd; stroke: #ffffff; stroke-width: 0.3; stroke-linejoin: miter"/>
   </g>
   <g id="patch_97">
    <path d="M 208.296 245.344948 
L 242.7696 245.344948 
L 242.7696 225.763615 
L 208.296 225.763615 
z
" clip-path="url(#p2dcaa15d5a)" style="fill: #fcfbfd; stroke: #ffffff; stroke-width: 0.3; stroke-linejoin: miter"/>
   </g>
   <g id="patch_98">
    <path d="M 245.232 245.344948 
L 279.7056 245.344948 
L 279.7056 225.763615 
L 245.232 225.763615 
z
" clip-path="url(#p2dcaa15d5a)" style="fill: #fcfbfd; stroke: #ffffff; stroke-width: 0.3; stroke-linejoin: miter"/>
   </g>
   <g id="patch_99">
    <path d="M 282.168 245.344948 
L 316.6416 245.344948 
L 316.6416 225.763615 
L 282.168 225.763615 
z
" clip-path="url(#p2dcaa15d5a)" style="fill: #bbbbdb; stroke: #ffffff; stroke-width: 0.3; stroke-linejoin: miter"/>
   </g>
   <g id="patch_100">
    <path d="M 319.104 245.344948 
L 353.5776 245.344948 
L 353.5776 225.763615 
L 319.104 225.763615 
z
" clip-path="url(#p2dcaa15d5a)" style="fill: #908dc2; stroke: #ffffff; stroke-width: 0.3; stroke-linejoin: miter"/>
   </g>
   <g id="patch_101">
    <path d="M 356.04 245.344948 
L 390.5136 245.344948 
L 390.5136 225.763615 
L 356.04 225.763615 
z
" clip-path="url(#p2dcaa15d5a)" style="fill: #40017e; stroke: #ffffff; stroke-width: 0.3; stroke-linejoin: miter"/>
   </g>
   <g id="text_1">
    <!-- Local head focuses on nearby positions -->
    <g transform="translate(123.627656 251.584694) scale(0.09 -0.09)">
     <defs>
      <path id="DejaVuSans-Oblique-4c" d="M 1075 4666 
L 1709 4666 
L 909 525 
L 3181 525 
L 3078 0 
L 172 0 
L 1075 4666 
z
" transform="scale(0.015625)"/>
      <path id="DejaVuSans-Oblique-6f" d="M 1625 -91 
Q 1009 -91 651 289 
Q 294 669 294 1325 
Q 294 1706 417 2101 
Q 541 2497 738 2766 
Q 1047 3184 1428 3384 
Q 1809 3584 2291 3584 
Q 2888 3584 3255 3212 
Q 3622 2841 3622 2241 
Q 3622 1825 3500 1412 
Q 3378 1000 3181 728 
Q 2875 309 2494 109 
Q 2113 -91 1625 -91 
z
M 891 1344 
Q 891 869 1089 633 
Q 1288 397 1691 397 
Q 2269 397 2648 901 
Q 3028 1406 3028 2181 
Q 3028 2634 2825 2865 
Q 2622 3097 2228 3097 
Q 1903 3097 1650 2945 
Q 1397 2794 1197 2484 
Q 1050 2253 970 1956 
Q 891 1659 891 1344 
z
" transform="scale(0.015625)"/>
      <path id="DejaVuSans-Oblique-63" d="M 3431 3366 
L 3316 2797 
Q 3109 2947 2876 3022 
Q 2644 3097 2394 3097 
Q 2119 3097 1870 3000 
Q 1622 2903 1453 2725 
Q 1184 2453 1037 2087 
Q 891 1722 891 1331 
Q 891 859 1127 628 
Q 1363 397 1844 397 
Q 2081 397 2348 469 
Q 2616 541 2906 684 
L 2797 116 
Q 2547 13 2283 -39 
Q 2019 -91 1741 -91 
Q 1044 -91 669 257 
Q 294 606 294 1253 
Q 294 1797 489 2255 
Q 684 2713 1069 3078 
Q 1331 3328 1684 3456 
Q 2038 3584 2456 3584 
Q 2700 3584 2940 3529 
Q 3181 3475 3431 3366 
z
" transform="scale(0.015625)"/>
      <path id="DejaVuSans-Oblique-61" d="M 3438 1997 
L 3047 0 
L 2472 0 
L 2578 531 
Q 2325 219 2001 64 
Q 1678 -91 1281 -91 
Q 834 -91 548 182 
Q 263 456 263 884 
Q 263 1497 752 1853 
Q 1241 2209 2100 2209 
L 2900 2209 
L 2931 2363 
Q 2938 2388 2941 2417 
Q 2944 2447 2944 2509 
Q 2944 2788 2717 2942 
Q 2491 3097 2081 3097 
Q 1800 3097 1504 3025 
Q 1209 2953 897 2809 
L 997 3341 
Q 1322 3463 1633 3523 
Q 1944 3584 2234 3584 
Q 2853 3584 3176 3315 
Q 3500 3047 3500 2534 
Q 3500 2431 3484 2292 
Q 3469 2153 3438 1997 
z
M 2816 1759 
L 2241 1759 
Q 1534 1759 1195 1570 
Q 856 1381 856 984 
Q 856 709 1029 553 
Q 1203 397 1509 397 
Q 1978 397 2328 733 
Q 2678 1069 2791 1631 
L 2816 1759 
z
" transform="scale(0.015625)"/>
      <path id="DejaVuSans-Oblique-6c" d="M 1172 4863 
L 1747 4863 
L 800 0 
L 225 0 
L 1172 4863 
z
" transform="scale(0.015625)"/>
      <path id="DejaVuSans-Oblique-20" transform="scale(0.015625)"/>
      <path id="DejaVuSans-Oblique-68" d="M 3566 2113 
L 3156 0 
L 2578 0 
L 2988 2091 
Q 3016 2238 3031 2350 
Q 3047 2463 3047 2528 
Q 3047 2791 2881 2937 
Q 2716 3084 2419 3084 
Q 1956 3084 1617 2771 
Q 1278 2459 1178 1941 
L 800 0 
L 225 0 
L 1172 4863 
L 1747 4863 
L 1375 2950 
Q 1594 3244 1934 3414 
Q 2275 3584 2650 3584 
Q 3113 3584 3367 3334 
Q 3622 3084 3622 2631 
Q 3622 2519 3608 2391 
Q 3594 2263 3566 2113 
z
" transform="scale(0.015625)"/>
      <path id="DejaVuSans-Oblique-65" d="M 3078 2063 
Q 3088 2113 3092 2166 
Q 3097 2219 3097 2272 
Q 3097 2653 2873 2875 
Q 2650 3097 2266 3097 
Q 1838 3097 1509 2826 
Q 1181 2556 1013 2059 
L 3078 2063 
z
M 3578 1613 
L 903 1613 
Q 884 1494 878 1425 
Q 872 1356 872 1306 
Q 872 872 1139 634 
Q 1406 397 1894 397 
Q 2269 397 2603 481 
Q 2938 566 3225 728 
L 3116 159 
Q 2806 34 2476 -28 
Q 2147 -91 1806 -91 
Q 1078 -91 686 257 
Q 294 606 294 1247 
Q 294 1794 489 2264 
Q 684 2734 1063 3103 
Q 1306 3334 1642 3459 
Q 1978 3584 2356 3584 
Q 2950 3584 3301 3228 
Q 3653 2872 3653 2272 
Q 3653 2128 3634 1964 
Q 3616 1800 3578 1613 
z
" transform="scale(0.015625)"/>
      <path id="DejaVuSans-Oblique-64" d="M 2675 525 
Q 2444 222 2128 65 
Q 1813 -91 1428 -91 
Q 903 -91 598 267 
Q 294 625 294 1247 
Q 294 1766 478 2236 
Q 663 2706 1013 3078 
Q 1244 3325 1534 3454 
Q 1825 3584 2144 3584 
Q 2481 3584 2739 3421 
Q 2997 3259 3138 2956 
L 3513 4863 
L 4091 4863 
L 3144 0 
L 2566 0 
L 2675 525 
z
M 891 1350 
Q 891 897 1095 644 
Q 1300 391 1663 391 
Q 1931 391 2161 520 
Q 2391 650 2566 903 
Q 2750 1166 2856 1509 
Q 2963 1853 2963 2188 
Q 2963 2622 2758 2865 
Q 2553 3109 2194 3109 
Q 1922 3109 1687 2981 
Q 1453 2853 1288 2613 
Q 1106 2353 998 2009 
Q 891 1666 891 1350 
z
" transform="scale(0.015625)"/>
      <path id="DejaVuSans-Oblique-66" d="M 3059 4863 
L 2969 4384 
L 2419 4384 
Q 2106 4384 1964 4261 
Q 1822 4138 1753 3809 
L 1691 3500 
L 2638 3500 
L 2553 3053 
L 1606 3053 
L 1013 0 
L 434 0 
L 1031 3053 
L 481 3053 
L 563 3500 
L 1113 3500 
L 1159 3744 
Q 1278 4363 1576 4613 
Q 1875 4863 2516 4863 
L 3059 4863 
z
" transform="scale(0.015625)"/>
      <path id="DejaVuSans-Oblique-75" d="M 428 1388 
L 838 3500 
L 1416 3500 
L 1006 1409 
Q 975 1256 961 1147 
Q 947 1038 947 966 
Q 947 700 1109 554 
Q 1272 409 1569 409 
Q 2031 409 2368 721 
Q 2706 1034 2809 1563 
L 3194 3500 
L 3769 3500 
L 3091 0 
L 2516 0 
L 2631 550 
Q 2388 244 2052 76 
Q 1716 -91 1338 -91 
Q 878 -91 622 161 
Q 366 413 366 863 
Q 366 956 381 1097 
Q 397 1238 428 1388 
z
" transform="scale(0.015625)"/>
      <path id="DejaVuSans-Oblique-73" d="M 3200 3397 
L 3091 2853 
Q 2863 2978 2609 3040 
Q 2356 3103 2088 3103 
Q 1634 3103 1373 2948 
Q 1113 2794 1113 2528 
Q 1113 2219 1719 2053 
Q 1766 2041 1788 2034 
L 1972 1978 
Q 2547 1819 2739 1644 
Q 2931 1469 2931 1166 
Q 2931 609 2489 259 
Q 2047 -91 1331 -91 
Q 1053 -91 747 -37 
Q 441 16 72 128 
L 184 722 
Q 500 559 806 475 
Q 1113 391 1394 391 
Q 1816 391 2080 572 
Q 2344 753 2344 1031 
Q 2344 1331 1650 1516 
L 1591 1531 
L 1394 1581 
Q 956 1697 753 1886 
Q 550 2075 550 2369 
Q 550 2928 970 3256 
Q 1391 3584 2113 3584 
Q 2397 3584 2667 3537 
Q 2938 3491 3200 3397 
z
" transform="scale(0.015625)"/>
      <path id="DejaVuSans-Oblique-6e" d="M 3566 2113 
L 3156 0 
L 2578 0 
L 2988 2091 
Q 3016 2238 3031 2350 
Q 3047 2463 3047 2528 
Q 3047 2791 2881 2937 
Q 2716 3084 2419 3084 
Q 1956 3084 1622 2776 
Q 1288 2469 1184 1941 
L 800 0 
L 225 0 
L 903 3500 
L 1478 3500 
L 1363 2950 
Q 1603 3253 1940 3418 
Q 2278 3584 2650 3584 
Q 3113 3584 3367 3334 
Q 3622 3084 3622 2631 
Q 3622 2519 3608 2391 
Q 3594 2263 3566 2113 
z
" transform="scale(0.015625)"/>
      <path id="DejaVuSans-Oblique-72" d="M 2853 2969 
Q 2766 3016 2653 3041 
Q 2541 3066 2413 3066 
Q 1953 3066 1609 2717 
Q 1266 2369 1153 1784 
L 800 0 
L 225 0 
L 909 3500 
L 1484 3500 
L 1375 2956 
Q 1603 3259 1920 3421 
Q 2238 3584 2597 3584 
Q 2691 3584 2781 3573 
Q 2872 3563 2963 3538 
L 2853 2969 
z
" transform="scale(0.015625)"/>
      <path id="DejaVuSans-Oblique-62" d="M 3169 2138 
Q 3169 2591 2961 2847 
Q 2753 3103 2388 3103 
Q 2122 3103 1889 2973 
Q 1656 2844 1484 2597 
Q 1303 2338 1198 1995 
Q 1094 1653 1094 1313 
Q 1094 881 1298 636 
Q 1503 391 1863 391 
Q 2134 391 2365 517 
Q 2597 644 2772 891 
Q 2950 1147 3059 1487 
Q 3169 1828 3169 2138 
z
M 1381 2969 
Q 1594 3256 1914 3420 
Q 2234 3584 2584 3584 
Q 3122 3584 3439 3221 
Q 3756 2859 3756 2241 
Q 3756 1734 3570 1259 
Q 3384 784 3041 416 
Q 2816 172 2522 40 
Q 2228 -91 1906 -91 
Q 1566 -91 1316 65 
Q 1066 222 909 531 
L 806 0 
L 231 0 
L 1178 4863 
L 1753 4863 
L 1381 2969 
z
" transform="scale(0.015625)"/>
      <path id="DejaVuSans-Oblique-79" d="M 1588 -325 
Q 1188 -997 936 -1164 
Q 684 -1331 294 -1331 
L -159 -1331 
L -63 -850 
L 269 -850 
Q 509 -850 678 -719 
Q 847 -588 1056 -206 
L 1234 128 
L 459 3500 
L 1069 3500 
L 1650 819 
L 3256 3500 
L 3859 3500 
L 1588 -325 
z
" transform="scale(0.015625)"/>
      <path id="DejaVuSans-Oblique-70" d="M 3175 2156 
Q 3175 2616 2975 2859 
Q 2775 3103 2400 3103 
Q 2144 3103 1911 2972 
Q 1678 2841 1497 2591 
Q 1319 2344 1212 1994 
Q 1106 1644 1106 1300 
Q 1106 863 1306 627 
Q 1506 391 1875 391 
Q 2147 391 2380 519 
Q 2613 647 2778 891 
Q 2956 1147 3065 1494 
Q 3175 1841 3175 2156 
z
M 1394 2969 
Q 1625 3272 1939 3428 
Q 2253 3584 2638 3584 
Q 3175 3584 3472 3232 
Q 3769 2881 3769 2247 
Q 3769 1728 3584 1258 
Q 3400 788 3053 416 
Q 2822 169 2531 39 
Q 2241 -91 1919 -91 
Q 1547 -91 1294 64 
Q 1041 219 916 525 
L 556 -1331 
L -19 -1331 
L 922 3500 
L 1497 3500 
L 1394 2969 
z
" transform="scale(0.015625)"/>
      <path id="DejaVuSans-Oblique-69" d="M 1172 4863 
L 1747 4863 
L 1606 4134 
L 1031 4134 
L 1172 4863 
z
M 909 3500 
L 1484 3500 
L 800 0 
L 225 0 
L 909 3500 
z
" transform="scale(0.015625)"/>
      <path id="DejaVuSans-Oblique-74" d="M 2706 3500 
L 2619 3053 
L 1472 3053 
L 1100 1153 
Q 1081 1047 1072 975 
Q 1063 903 1063 863 
Q 1063 663 1183 572 
Q 1303 481 1569 481 
L 2150 481 
L 2053 0 
L 1503 0 
Q 991 0 739 200 
Q 488 400 488 806 
Q 488 878 497 964 
Q 506 1050 525 1153 
L 897 3053 
L 409 3053 
L 500 3500 
L 978 3500 
L 1172 4494 
L 1747 4494 
L 1556 3500 
L 2706 3500 
z
" transform="scale(0.015625)"/>
     </defs>
     <use xlink:href="#DejaVuSans-Oblique-4c"/>
     <use xlink:href="#DejaVuSans-Oblique-6f" transform="translate(55.712891 0)"/>
     <use xlink:href="#DejaVuSans-Oblique-63" transform="translate(116.894531 0)"/>
     <use xlink:href="#DejaVuSans-Oblique-61" transform="translate(171.875 0)"/>
     <use xlink:href="#DejaVuSans-Oblique-6c" transform="translate(233.154297 0)"/>
     <use xlink:href="#DejaVuSans-Oblique-20" transform="translate(260.9375 0)"/>
     <use xlink:href="#DejaVuSans-Oblique-68" transform="translate(292.724609 0)"/>
     <use xlink:href="#DejaVuSans-Oblique-65" transform="translate(356.103516 0)"/>
     <use xlink:href="#DejaVuSans-Oblique-61" transform="translate(417.626953 0)"/>
     <use xlink:href="#DejaVuSans-Oblique-64" transform="translate(478.90625 0)"/>
     <use xlink:href="#DejaVuSans-Oblique-20" transform="translate(542.382812 0)"/>
     <use xlink:href="#DejaVuSans-Oblique-66" transform="translate(574.169922 0)"/>
     <use xlink:href="#DejaVuSans-Oblique-6f" transform="translate(609.375 0)"/>
     <use xlink:href="#DejaVuSans-Oblique-63" transform="translate(670.556641 0)"/>
     <use xlink:href="#DejaVuSans-Oblique-75" transform="translate(725.537109 0)"/>
     <use xlink:href="#DejaVuSans-Oblique-73" transform="translate(788.916016 0)"/>
     <use xlink:href="#DejaVuSans-Oblique-65" transform="translate(841.015625 0)"/>
     <use xlink:href="#DejaVuSans-Oblique-73" transform="translate(902.539062 0)"/>
     <use xlink:href="#DejaVuSans-Oblique-20" transform="translate(954.638672 0)"/>
     <use xlink:href="#DejaVuSans-Oblique-6f" transform="translate(986.425781 0)"/>
     <use xlink:href="#DejaVuSans-Oblique-6e" transform="translate(1047.607422 0)"/>
     <use xlink:href="#DejaVuSans-Oblique-20" transform="translate(1110.986328 0)"/>
     <use xlink:href="#DejaVuSans-Oblique-6e" transform="translate(1142.773438 0)"/>
     <use xlink:href="#DejaVuSans-Oblique-65" transform="translate(1206.152344 0)"/>
     <use xlink:href="#DejaVuSans-Oblique-61" transform="translate(1267.675781 0)"/>
     <use xlink:href="#DejaVuSans-Oblique-72" transform="translate(1328.955078 0)"/>
     <use xlink:href="#DejaVuSans-Oblique-62" transform="translate(1370.068359 0)"/>
     <use xlink:href="#DejaVuSans-Oblique-79" transform="translate(1433.544922 0)"/>
     <use xlink:href="#DejaVuSans-Oblique-20" transform="translate(1492.724609 0)"/>
     <use xlink:href="#DejaVuSans-Oblique-70" transform="translate(1524.511719 0)"/>
     <use xlink:href="#DejaVuSans-Oblique-6f" transform="translate(1587.988281 0)"/>
     <use xlink:href="#DejaVuSans-Oblique-73" transform="translate(1649.169922 0)"/>
     <use xlink:href="#DejaVuSans-Oblique-69" transform="translate(1701.269531 0)"/>
     <use xlink:href="#DejaVuSans-Oblique-74" transform="translate(1729.052734 0)"/>
     <use xlink:href="#DejaVuSans-Oblique-69" transform="translate(1768.261719 0)"/>
     <use xlink:href="#DejaVuSans-Oblique-6f" transform="translate(1796.044922 0)"/>
     <use xlink:href="#DejaVuSans-Oblique-6e" transform="translate(1857.226562 0)"/>
     <use xlink:href="#DejaVuSans-Oblique-73" transform="translate(1920.605469 0)"/>
    </g>
    <!-- (k-mer like patterns) -->
    <g transform="translate(165.964219 261.662726) scale(0.09 -0.09)">
     <defs>
      <path id="DejaVuSans-Oblique-28" d="M 2731 4856 
Q 1903 3822 1495 2892 
Q 1088 1963 1088 1100 
Q 1088 606 1206 120 
Q 1325 -366 1563 -844 
L 1063 -844 
Q 775 -306 634 201 
Q 494 709 494 1197 
Q 494 2125 923 3036 
Q 1353 3947 2222 4856 
L 2731 4856 
z
" transform="scale(0.015625)"/>
      <path id="DejaVuSans-Oblique-6b" d="M 1172 4863 
L 1747 4863 
L 1197 2028 
L 3169 3500 
L 3916 3500 
L 1716 1825 
L 3322 0 
L 2625 0 
L 1131 1709 
L 800 0 
L 225 0 
L 1172 4863 
z
" transform="scale(0.015625)"/>
      <path id="DejaVuSans-Oblique-2d" d="M 391 2009 
L 2075 2009 
L 1978 1497 
L 288 1497 
L 391 2009 
z
" transform="scale(0.015625)"/>
      <path id="DejaVuSans-Oblique-6d" d="M 5747 2113 
L 5338 0 
L 4763 0 
L 5166 2094 
Q 5191 2228 5203 2325 
Q 5216 2422 5216 2491 
Q 5216 2772 5059 2928 
Q 4903 3084 4622 3084 
Q 4203 3084 3875 2770 
Q 3547 2456 3450 1953 
L 3066 0 
L 2491 0 
L 2900 2094 
Q 2925 2209 2937 2307 
Q 2950 2406 2950 2484 
Q 2950 2769 2794 2926 
Q 2638 3084 2363 3084 
Q 1938 3084 1609 2770 
Q 1281 2456 1184 1953 
L 800 0 
L 225 0 
L 909 3500 
L 1484 3500 
L 1375 2956 
Q 1609 3263 1923 3423 
Q 2238 3584 2597 3584 
Q 2978 3584 3223 3384 
Q 3469 3184 3519 2828 
Q 3781 3197 4126 3390 
Q 4472 3584 4856 3584 
Q 5306 3584 5551 3325 
Q 5797 3066 5797 2591 
Q 5797 2488 5784 2364 
Q 5772 2241 5747 2113 
z
" transform="scale(0.015625)"/>
      <path id="DejaVuSans-Oblique-29" d="M -397 -844 
Q 434 191 840 1120 
Q 1247 2050 1247 2913 
Q 1247 3406 1130 3892 
Q 1013 4378 775 4856 
L 1275 4856 
Q 1563 4316 1703 3812 
Q 1844 3309 1844 2822 
Q 1844 1891 1411 973 
Q 978 56 116 -844 
L -397 -844 
z
" transform="scale(0.015625)"/>
     </defs>
     <use xlink:href="#DejaVuSans-Oblique-28"/>
     <use xlink:href="#DejaVuSans-Oblique-6b" transform="translate(39.013672 0)"/>
     <use xlink:href="#DejaVuSans-Oblique-2d" transform="translate(96.923828 0)"/>
     <use xlink:href="#DejaVuSans-Oblique-6d" transform="translate(133.007812 0)"/>
     <use xlink:href="#DejaVuSans-Oblique-65" transform="translate(230.419922 0)"/>
     <use xlink:href="#DejaVuSans-Oblique-72" transform="translate(291.943359 0)"/>
     <use xlink:href="#DejaVuSans-Oblique-20" transform="translate(333.056641 0)"/>
     <use xlink:href="#DejaVuSans-Oblique-6c" transform="translate(364.84375 0)"/>
     <use xlink:href="#DejaVuSans-Oblique-69" transform="translate(392.626953 0)"/>
     <use xlink:href="#DejaVuSans-Oblique-6b" transform="translate(420.410156 0)"/>
     <use xlink:href="#DejaVuSans-Oblique-65" transform="translate(478.320312 0)"/>
     <use xlink:href="#DejaVuSans-Oblique-20" transform="translate(539.84375 0)"/>
     <use xlink:href="#DejaVuSans-Oblique-70" transform="translate(571.630859 0)"/>
     <use xlink:href="#DejaVuSans-Oblique-61" transform="translate(635.107422 0)"/>
     <use xlink:href="#DejaVuSans-Oblique-74" transform="translate(696.386719 0)"/>
     <use xlink:href="#DejaVuSans-Oblique-74" transform="translate(735.595703 0)"/>
     <use xlink:href="#DejaVuSans-Oblique-65" transform="translate(774.804688 0)"/>
     <use xlink:href="#DejaVuSans-Oblique-72" transform="translate(836.328125 0)"/>
     <use xlink:href="#DejaVuSans-Oblique-6e" transform="translate(877.441406 0)"/>
     <use xlink:href="#DejaVuSans-Oblique-73" transform="translate(940.820312 0)"/>
     <use xlink:href="#DejaVuSans-Oblique-29" transform="translate(992.919922 0)"/>
    </g>
   </g>
   <g id="text_2">
    <!-- C. Local Attention Head -->
    <g transform="translate(7.2 15.558281) scale(0.11 -0.11)">
     <defs>
      <path id="DejaVuSans-Bold-43" d="M 4288 256 
Q 3956 84 3597 -3 
Q 3238 -91 2847 -91 
Q 1681 -91 1000 561 
Q 319 1213 319 2328 
Q 319 3447 1000 4098 
Q 1681 4750 2847 4750 
Q 3238 4750 3597 4662 
Q 3956 4575 4288 4403 
L 4288 3438 
Q 3953 3666 3628 3772 
Q 3303 3878 2944 3878 
Q 2300 3878 1931 3465 
Q 1563 3053 1563 2328 
Q 1563 1606 1931 1193 
Q 2300 781 2944 781 
Q 3303 781 3628 887 
Q 3953 994 4288 1222 
L 4288 256 
z
" transform="scale(0.015625)"/>
      <path id="DejaVuSans-Bold-2e" d="M 653 1209 
L 1778 1209 
L 1778 0 
L 653 0 
L 653 1209 
z
" transform="scale(0.015625)"/>
      <path id="DejaVuSans-Bold-20" transform="scale(0.015625)"/>
      <path id="DejaVuSans-Bold-4c" d="M 588 4666 
L 1791 4666 
L 1791 909 
L 3903 909 
L 3903 0 
L 588 0 
L 588 4666 
z
" transform="scale(0.015625)"/>
      <path id="DejaVuSans-Bold-6f" d="M 2203 2784 
Q 1831 2784 1636 2517 
Q 1441 2250 1441 1747 
Q 1441 1244 1636 976 
Q 1831 709 2203 709 
Q 2569 709 2762 976 
Q 2956 1244 2956 1747 
Q 2956 2250 2762 2517 
Q 2569 2784 2203 2784 
z
M 2203 3584 
Q 3106 3584 3614 3096 
Q 4122 2609 4122 1747 
Q 4122 884 3614 396 
Q 3106 -91 2203 -91 
Q 1297 -91 786 396 
Q 275 884 275 1747 
Q 275 2609 786 3096 
Q 1297 3584 2203 3584 
z
" transform="scale(0.015625)"/>
      <path id="DejaVuSans-Bold-63" d="M 3366 3391 
L 3366 2478 
Q 3138 2634 2908 2709 
Q 2678 2784 2431 2784 
Q 1963 2784 1702 2511 
Q 1441 2238 1441 1747 
Q 1441 1256 1702 982 
Q 1963 709 2431 709 
Q 2694 709 2930 787 
Q 3166 866 3366 1019 
L 3366 103 
Q 3103 6 2833 -42 
Q 2563 -91 2291 -91 
Q 1344 -91 809 395 
Q 275 881 275 1747 
Q 275 2613 809 3098 
Q 1344 3584 2291 3584 
Q 2566 3584 2833 3536 
Q 3100 3488 3366 3391 
z
" transform="scale(0.015625)"/>
      <path id="DejaVuSans-Bold-61" d="M 2106 1575 
Q 1756 1575 1579 1456 
Q 1403 1338 1403 1106 
Q 1403 894 1545 773 
Q 1688 653 1941 653 
Q 2256 653 2472 879 
Q 2688 1106 2688 1447 
L 2688 1575 
L 2106 1575 
z
M 3816 1997 
L 3816 0 
L 2688 0 
L 2688 519 
Q 2463 200 2181 54 
Q 1900 -91 1497 -91 
Q 953 -91 614 226 
Q 275 544 275 1050 
Q 275 1666 698 1953 
Q 1122 2241 2028 2241 
L 2688 2241 
L 2688 2328 
Q 2688 2594 2478 2717 
Q 2269 2841 1825 2841 
Q 1466 2841 1156 2769 
Q 847 2697 581 2553 
L 581 3406 
Q 941 3494 1303 3539 
Q 1666 3584 2028 3584 
Q 2975 3584 3395 3211 
Q 3816 2838 3816 1997 
z
" transform="scale(0.015625)"/>
      <path id="DejaVuSans-Bold-6c" d="M 538 4863 
L 1656 4863 
L 1656 0 
L 538 0 
L 538 4863 
z
" transform="scale(0.015625)"/>
      <path id="DejaVuSans-Bold-41" d="M 3419 850 
L 1538 850 
L 1241 0 
L 31 0 
L 1759 4666 
L 3194 4666 
L 4922 0 
L 3713 0 
L 3419 850 
z
M 1838 1716 
L 3116 1716 
L 2478 3572 
L 1838 1716 
z
" transform="scale(0.015625)"/>
      <path id="DejaVuSans-Bold-74" d="M 1759 4494 
L 1759 3500 
L 2913 3500 
L 2913 2700 
L 1759 2700 
L 1759 1216 
Q 1759 972 1856 886 
Q 1953 800 2241 800 
L 2816 800 
L 2816 0 
L 1856 0 
Q 1194 0 917 276 
Q 641 553 641 1216 
L 641 2700 
L 84 2700 
L 84 3500 
L 641 3500 
L 641 4494 
L 1759 4494 
z
" transform="scale(0.015625)"/>
      <path id="DejaVuSans-Bold-65" d="M 4031 1759 
L 4031 1441 
L 1416 1441 
Q 1456 1047 1700 850 
Q 1944 653 2381 653 
Q 2734 653 3104 758 
Q 3475 863 3866 1075 
L 3866 213 
Q 3469 63 3072 -14 
Q 2675 -91 2278 -91 
Q 1328 -91 801 392 
Q 275 875 275 1747 
Q 275 2603 792 3093 
Q 1309 3584 2216 3584 
Q 3041 3584 3536 3087 
Q 4031 2591 4031 1759 
z
M 2881 2131 
Q 2881 2450 2695 2645 
Q 2509 2841 2209 2841 
Q 1884 2841 1681 2658 
Q 1478 2475 1428 2131 
L 2881 2131 
z
" transform="scale(0.015625)"/>
      <path id="DejaVuSans-Bold-6e" d="M 4056 2131 
L 4056 0 
L 2931 0 
L 2931 347 
L 2931 1631 
Q 2931 2084 2911 2256 
Q 2891 2428 2841 2509 
Q 2775 2619 2662 2680 
Q 2550 2741 2406 2741 
Q 2056 2741 1856 2470 
Q 1656 2200 1656 1722 
L 1656 0 
L 538 0 
L 538 3500 
L 1656 3500 
L 1656 2988 
Q 1909 3294 2193 3439 
Q 2478 3584 2822 3584 
Q 3428 3584 3742 3212 
Q 4056 2841 4056 2131 
z
" transform="scale(0.015625)"/>
      <path id="DejaVuSans-Bold-69" d="M 538 3500 
L 1656 3500 
L 1656 0 
L 538 0 
L 538 3500 
z
M 538 4863 
L 1656 4863 
L 1656 3950 
L 538 3950 
L 538 4863 
z
" transform="scale(0.015625)"/>
      <path id="DejaVuSans-Bold-48" d="M 588 4666 
L 1791 4666 
L 1791 2888 
L 3566 2888 
L 3566 4666 
L 4769 4666 
L 4769 0 
L 3566 0 
L 3566 1978 
L 1791 1978 
L 1791 0 
L 588 0 
L 588 4666 
z
" transform="scale(0.015625)"/>
      <path id="DejaVuSans-Bold-64" d="M 2919 2988 
L 2919 4863 
L 4044 4863 
L 4044 0 
L 2919 0 
L 2919 506 
Q 2688 197 2409 53 
Q 2131 -91 1766 -91 
Q 1119 -91 703 423 
Q 288 938 288 1747 
Q 288 2556 703 3070 
Q 1119 3584 1766 3584 
Q 2128 3584 2408 3439 
Q 2688 3294 2919 2988 
z
M 2181 722 
Q 2541 722 2730 984 
Q 2919 1247 2919 1747 
Q 2919 2247 2730 2509 
Q 2541 2772 2181 2772 
Q 1825 2772 1636 2509 
Q 1447 2247 1447 1747 
Q 1447 1247 1636 984 
Q 1825 722 2181 722 
z
" transform="scale(0.015625)"/>
     </defs>
     <use xlink:href="#DejaVuSans-Bold-43"/>
     <use xlink:href="#DejaVuSans-Bold-2e" transform="translate(73.388672 0)"/>
     <use xlink:href="#DejaVuSans-Bold-20" transform="translate(111.376953 0)"/>
     <use xlink:href="#DejaVuSans-Bold-4c" transform="translate(146.191406 0)"/>
     <use xlink:href="#DejaVuSans-Bold-6f" transform="translate(209.912109 0)"/>
     <use xlink:href="#DejaVuSans-Bold-63" transform="translate(278.613281 0)"/>
     <use xlink:href="#DejaVuSans-Bold-61" transform="translate(337.890625 0)"/>
     <use xlink:href="#DejaVuSans-Bold-6c" transform="translate(405.371094 0)"/>
     <use xlink:href="#DejaVuSans-Bold-20" transform="translate(439.648438 0)"/>
     <use xlink:href="#DejaVuSans-Bold-41" transform="translate(474.462891 0)"/>
     <use xlink:href="#DejaVuSans-Bold-74" transform="translate(551.855469 0)"/>
     <use xlink:href="#DejaVuSans-Bold-74" transform="translate(599.658203 0)"/>
     <use xlink:href="#DejaVuSans-Bold-65" transform="translate(647.460938 0)"/>
     <use xlink:href="#DejaVuSans-Bold-6e" transform="translate(715.283203 0)"/>
     <use xlink:href="#DejaVuSans-Bold-74" transform="translate(786.474609 0)"/>
     <use xlink:href="#DejaVuSans-Bold-69" transform="translate(834.277344 0)"/>
     <use xlink:href="#DejaVuSans-Bold-6f" transform="translate(868.554688 0)"/>
     <use xlink:href="#DejaVuSans-Bold-6e" transform="translate(937.255859 0)"/>
     <use xlink:href="#DejaVuSans-Bold-20" transform="translate(1008.447266 0)"/>
     <use xlink:href="#DejaVuSans-Bold-48" transform="translate(1043.261719 0)"/>
     <use xlink:href="#DejaVuSans-Bold-65" transform="translate(1126.953125 0)"/>
     <use xlink:href="#DejaVuSans-Bold-61" transform="translate(1194.775391 0)"/>
     <use xlink:href="#DejaVuSans-Bold-64" transform="translate(1262.255859 0)"/>
    </g>
   </g>
  </g>
 </g>
 <defs>
  <clipPath id="p2dcaa15d5a">
   <rect x="7.2" y="21.558281" width="410.4" height="251.76"/>
  </clipPath>
 </defs>
</svg>
