<?xml version="1.0" encoding="utf-8" standalone="no"?>
<!DOCTYPE svg PUBLIC "-//W3C//DTD SVG 1.1//EN"
  "http://www.w3.org/Graphics/SVG/1.1/DTD/svg11.dtd">
<svg xmlns:xlink="http://www.w3.org/1999/xlink" width="424.8pt" height="280.518281pt" viewBox="0 0 424.8 280.518281" xmlns="http://www.w3.org/2000/svg" version="1.1">
 <metadata>
  <rdf:RDF xmlns:dc="http://purl.org/dc/elements/1.1/" xmlns:cc="http://creativecommons.org/ns#" xmlns:rdf="http://www.w3.org/1999/02/22-rdf-syntax-ns#">
   <cc:Work>
    <dc:type rdf:resource="http://purl.org/dc/dcmitype/StillImage"/>
    <dc:date>2026-01-08T05:49:22.201354</dc:date>
    <dc:format>image/svg+xml</dc:format>
    <dc:creator>
     <cc:Agent>
      <dc:title>Matplotlib v3.10.7, https://matplotlib.org/</dc:title>
     </cc:Agent>
    </dc:creator>
   </cc:Work>
  </rdf:RDF>
 </metadata>
 <defs>
  <style type="text/css">*{stroke-linejoin: round; stroke-linecap: butt}</style>
 </defs>
 <g id="figure_1">
  <g id="patch_1">
   <path d="M 0 280.518281 
L 424.8 280.518281 
L 424.8 0 
L 0 0 
z
" style="fill: #ffffff"/>
  </g>
  <g id="axes_1">
   <g id="patch_2">
    <path d="M 33.965217 69.973666 
L 74.113043 69.973666 
L 74.113043 48.186743 
L 33.965217 48.186743 
z
" clip-path="url(#pb7783b7b01)" style="fill: #f7f6f6; stroke: #ffffff; stroke-width: 0.5; stroke-linejoin: miter"/>
   </g>
   <g id="patch_3">
    <path d="M 78.573913 69.973666 
L 118.721739 69.973666 
L 118.721739 48.186743 
L 78.573913 48.186743 
z
" clip-path="url(#pb7783b7b01)" style="fill: #e0ecf3; stroke: #ffffff; stroke-width: 0.5; stroke-linejoin: miter"/>
   </g>
   <g id="patch_4">
    <path d="M 123.182609 69.973666 
L 163.330435 69.973666 
L 163.330435 48.186743 
L 123.182609 48.186743 
z
" clip-path="url(#pb7783b7b01)" style="fill: #c2ddec; stroke: #ffffff; stroke-width: 0.5; stroke-linejoin: miter"/>
   </g>
   <g id="patch_5">
    <path d="M 167.791304 69.973666 
L 207.93913 69.973666 
L 207.93913 48.186743 
L 167.791304 48.186743 
z
" clip-path="url(#pb7783b7b01)" style="fill: #9bc9e0; stroke: #ffffff; stroke-width: 0.5; stroke-linejoin: miter"/>
   </g>
   <g id="patch_6">
    <path d="M 212.4 69.973666 
L 252.547826 69.973666 
L 252.547826 48.186743 
L 212.4 48.186743 
z
" clip-path="url(#pb7783b7b01)" style="fill: #6bacd1; stroke: #ffffff; stroke-width: 0.5; stroke-linejoin: miter"/>
   </g>
   <g id="patch_7">
    <path d="M 257.008696 69.973666 
L 297.156522 69.973666 
L 297.156522 48.186743 
L 257.008696 48.186743 
z
" clip-path="url(#pb7783b7b01)" style="fill: #3f8ec0; stroke: #ffffff; stroke-width: 0.5; stroke-linejoin: miter"/>
   </g>
   <g id="patch_8">
    <path d="M 301.617391 69.973666 
L 341.765217 69.973666 
L 341.765217 48.186743 
L 301.617391 48.186743 
z
" clip-path="url(#pb7783b7b01)" style="fill: #2a71b2; stroke: #ffffff; stroke-width: 0.5; stroke-linejoin: miter"/>
   </g>
   <g id="patch_9">
    <path d="M 346.226087 69.973666 
L 386.373913 69.973666 
L 386.373913 48.186743 
L 346.226087 48.186743 
z
" clip-path="url(#pb7783b7b01)" style="fill: #175290; stroke: #ffffff; stroke-width: 0.5; stroke-linejoin: miter"/>
   </g>
   <g id="patch_10">
    <path d="M 33.965217 94.181358 
L 74.113043 94.181358 
L 74.113043 72.394435 
L 33.965217 72.394435 
z
" clip-path="url(#pb7783b7b01)" style="fill: #e0ecf3; stroke: #ffffff; stroke-width: 0.5; stroke-linejoin: miter"/>
   </g>
   <g id="patch_11">
    <path d="M 78.573913 94.181358 
L 118.721739 94.181358 
L 118.721739 72.394435 
L 78.573913 72.394435 
z
" clip-path="url(#pb7783b7b01)" style="fill: #f7f6f6; stroke: #ffffff; stroke-width: 0.5; stroke-linejoin: miter"/>
   </g>
   <g id="patch_12">
    <path d="M 123.182609 94.181358 
L 163.330435 94.181358 
L 163.330435 72.394435 
L 123.182609 72.394435 
z
" clip-path="url(#pb7783b7b01)" style="fill: #e0ecf3; stroke: #ffffff; stroke-width: 0.5; stroke-linejoin: miter"/>
   </g>
   <g id="patch_13">
    <path d="M 167.791304 94.181358 
L 207.93913 94.181358 
L 207.93913 72.394435 
L 167.791304 72.394435 
z
" clip-path="url(#pb7783b7b01)" style="fill: #c2ddec; stroke: #ffffff; stroke-width: 0.5; stroke-linejoin: miter"/>
   </g>
   <g id="patch_14">
    <path d="M 212.4 94.181358 
L 252.547826 94.181358 
L 252.547826 72.394435 
L 212.4 72.394435 
z
" clip-path="url(#pb7783b7b01)" style="fill: #9bc9e0; stroke: #ffffff; stroke-width: 0.5; stroke-linejoin: miter"/>
   </g>
   <g id="patch_15">
    <path d="M 257.008696 94.181358 
L 297.156522 94.181358 
L 297.156522 72.394435 
L 257.008696 72.394435 
z
" clip-path="url(#pb7783b7b01)" style="fill: #6bacd1; stroke: #ffffff; stroke-width: 0.5; stroke-linejoin: miter"/>
   </g>
   <g id="patch_16">
    <path d="M 301.617391 94.181358 
L 341.765217 94.181358 
L 341.765217 72.394435 
L 301.617391 72.394435 
z
" clip-path="url(#pb7783b7b01)" style="fill: #3f8ec0; stroke: #ffffff; stroke-width: 0.5; stroke-linejoin: miter"/>
   </g>
   <g id="patch_17">
    <path d="M 346.226087 94.181358 
L 386.373913 94.181358 
L 386.373913 72.394435 
L 346.226087 72.394435 
z
" clip-path="url(#pb7783b7b01)" style="fill: #2a71b2; stroke: #ffffff; stroke-width: 0.5; stroke-linejoin: miter"/>
   </g>
   <g id="patch_18">
    <path d="M 33.965217 118.38905 
L 74.113043 118.38905 
L 74.113043 96.602127 
L 33.965217 96.602127 
z
" clip-path="url(#pb7783b7b01)" style="fill: #c2ddec; stroke: #ffffff; stroke-width: 0.5; stroke-linejoin: miter"/>
   </g>
   <g id="patch_19">
    <path d="M 78.573913 118.38905 
L 118.721739 118.38905 
L 118.721739 96.602127 
L 78.573913 96.602127 
z
" clip-path="url(#pb7783b7b01)" style="fill: #e0ecf3; stroke: #ffffff; stroke-width: 0.5; stroke-linejoin: miter"/>
   </g>
   <g id="patch_20">
    <path d="M 123.182609 118.38905 
L 163.330435 118.38905 
L 163.330435 96.602127 
L 123.182609 96.602127 
z
" clip-path="url(#pb7783b7b01)" style="fill: #f7f6f6; stroke: #ffffff; stroke-width: 0.5; stroke-linejoin: miter"/>
   </g>
   <g id="patch_21">
    <path d="M 167.791304 118.38905 
L 207.93913 118.38905 
L 207.93913 96.602127 
L 167.791304 96.602127 
z
" clip-path="url(#pb7783b7b01)" style="fill: #e0ecf3; stroke: #ffffff; stroke-width: 0.5; stroke-linejoin: miter"/>
   </g>
   <g id="patch_22">
    <path d="M 212.4 118.38905 
L 252.547826 118.38905 
L 252.547826 96.602127 
L 212.4 96.602127 
z
" clip-path="url(#pb7783b7b01)" style="fill: #c2ddec; stroke: #ffffff; stroke-width: 0.5; stroke-linejoin: miter"/>
   </g>
   <g id="patch_23">
    <path d="M 257.008696 118.38905 
L 297.156522 118.38905 
L 297.156522 96.602127 
L 257.008696 96.602127 
z
" clip-path="url(#pb7783b7b01)" style="fill: #9bc9e0; stroke: #ffffff; stroke-width: 0.5; stroke-linejoin: miter"/>
   </g>
   <g id="patch_24">
    <path d="M 301.617391 118.38905 
L 341.765217 118.38905 
L 341.765217 96.602127 
L 301.617391 96.602127 
z
" clip-path="url(#pb7783b7b01)" style="fill: #6bacd1; stroke: #ffffff; stroke-width: 0.5; stroke-linejoin: miter"/>
   </g>
   <g id="patch_25">
    <path d="M 346.226087 118.38905 
L 386.373913 118.38905 
L 386.373913 96.602127 
L 346.226087 96.602127 
z
" clip-path="url(#pb7783b7b01)" style="fill: #3f8ec0; stroke: #ffffff; stroke-width: 0.5; stroke-linejoin: miter"/>
   </g>
   <g id="patch_26">
    <path d="M 33.965217 142.596743 
L 74.113043 142.596743 
L 74.113043 120.80982 
L 33.965217 120.80982 
z
" clip-path="url(#pb7783b7b01)" style="fill: #9bc9e0; stroke: #ffffff; stroke-width: 0.5; stroke-linejoin: miter"/>
   </g>
   <g id="patch_27">
    <path d="M 78.573913 142.596743 
L 118.721739 142.596743 
L 118.721739 120.80982 
L 78.573913 120.80982 
z
" clip-path="url(#pb7783b7b01)" style="fill: #c2ddec; stroke: #ffffff; stroke-width: 0.5; stroke-linejoin: miter"/>
   </g>
   <g id="patch_28">
    <path d="M 123.182609 142.596743 
L 163.330435 142.596743 
L 163.330435 120.80982 
L 123.182609 120.80982 
z
" clip-path="url(#pb7783b7b01)" style="fill: #e0ecf3; stroke: #ffffff; stroke-width: 0.5; stroke-linejoin: miter"/>
   </g>
   <g id="patch_29">
    <path d="M 167.791304 142.596743 
L 207.93913 142.596743 
L 207.93913 120.80982 
L 167.791304 120.80982 
z
" clip-path="url(#pb7783b7b01)" style="fill: #f7f6f6; stroke: #ffffff; stroke-width: 0.5; stroke-linejoin: miter"/>
   </g>
   <g id="patch_30">
    <path d="M 212.4 142.596743 
L 252.547826 142.596743 
L 252.547826 120.80982 
L 212.4 120.80982 
z
" clip-path="url(#pb7783b7b01)" style="fill: #e0ecf3; stroke: #ffffff; stroke-width: 0.5; stroke-linejoin: miter"/>
   </g>
   <g id="patch_31">
    <path d="M 257.008696 142.596743 
L 297.156522 142.596743 
L 297.156522 120.80982 
L 257.008696 120.80982 
z
" clip-path="url(#pb7783b7b01)" style="fill: #c2ddec; stroke: #ffffff; stroke-width: 0.5; stroke-linejoin: miter"/>
   </g>
   <g id="patch_32">
    <path d="M 301.617391 142.596743 
L 341.765217 142.596743 
L 341.765217 120.80982 
L 301.617391 120.80982 
z
" clip-path="url(#pb7783b7b01)" style="fill: #9bc9e0; stroke: #ffffff; stroke-width: 0.5; stroke-linejoin: miter"/>
   </g>
   <g id="patch_33">
    <path d="M 346.226087 142.596743 
L 386.373913 142.596743 
L 386.373913 120.80982 
L 346.226087 120.80982 
z
" clip-path="url(#pb7783b7b01)" style="fill: #6bacd1; stroke: #ffffff; stroke-width: 0.5; stroke-linejoin: miter"/>
   </g>
   <g id="patch_34">
    <path d="M 33.965217 166.804435 
L 74.113043 166.804435 
L 74.113043 145.017512 
L 33.965217 145.017512 
z
" clip-path="url(#pb7783b7b01)" style="fill: #6bacd1; stroke: #ffffff; stroke-width: 0.5; stroke-linejoin: miter"/>
   </g>
   <g id="patch_35">
    <path d="M 78.573913 166.804435 
L 118.721739 166.804435 
L 118.721739 145.017512 
L 78.573913 145.017512 
z
" clip-path="url(#pb7783b7b01)" style="fill: #9bc9e0; stroke: #ffffff; stroke-width: 0.5; stroke-linejoin: miter"/>
   </g>
   <g id="patch_36">
    <path d="M 123.182609 166.804435 
L 163.330435 166.804435 
L 163.330435 145.017512 
L 123.182609 145.017512 
z
" clip-path="url(#pb7783b7b01)" style="fill: #c2ddec; stroke: #ffffff; stroke-width: 0.5; stroke-linejoin: miter"/>
   </g>
   <g id="patch_37">
    <path d="M 167.791304 166.804435 
L 207.93913 166.804435 
L 207.93913 145.017512 
L 167.791304 145.017512 
z
" clip-path="url(#pb7783b7b01)" style="fill: #e0ecf3; stroke: #ffffff; stroke-width: 0.5; stroke-linejoin: miter"/>
   </g>
   <g id="patch_38">
    <path d="M 212.4 166.804435 
L 252.547826 166.804435 
L 252.547826 145.017512 
L 212.4 145.017512 
z
" clip-path="url(#pb7783b7b01)" style="fill: #f7f6f6; stroke: #ffffff; stroke-width: 0.5; stroke-linejoin: miter"/>
   </g>
   <g id="patch_39">
    <path d="M 257.008696 166.804435 
L 297.156522 166.804435 
L 297.156522 145.017512 
L 257.008696 145.017512 
z
" clip-path="url(#pb7783b7b01)" style="fill: #e0ecf3; stroke: #ffffff; stroke-width: 0.5; stroke-linejoin: miter"/>
   </g>
   <g id="patch_40">
    <path d="M 301.617391 166.804435 
L 341.765217 166.804435 
L 341.765217 145.017512 
L 301.617391 145.017512 
z
" clip-path="url(#pb7783b7b01)" style="fill: #c2ddec; stroke: #ffffff; stroke-width: 0.5; stroke-linejoin: miter"/>
   </g>
   <g id="patch_41">
    <path d="M 346.226087 166.804435 
L 386.373913 166.804435 
L 386.373913 145.017512 
L 346.226087 145.017512 
z
" clip-path="url(#pb7783b7b01)" style="fill: #9bc9e0; stroke: #ffffff; stroke-width: 0.5; stroke-linejoin: miter"/>
   </g>
   <g id="patch_42">
    <path d="M 33.965217 191.012127 
L 74.113043 191.012127 
L 74.113043 169.225204 
L 33.965217 169.225204 
z
" clip-path="url(#pb7783b7b01)" style="fill: #3f8ec0; stroke: #ffffff; stroke-width: 0.5; stroke-linejoin: miter"/>
   </g>
   <g id="patch_43">
    <path d="M 78.573913 191.012127 
L 118.721739 191.012127 
L 118.721739 169.225204 
L 78.573913 169.225204 
z
" clip-path="url(#pb7783b7b01)" style="fill: #6bacd1; stroke: #ffffff; stroke-width: 0.5; stroke-linejoin: miter"/>
   </g>
   <g id="patch_44">
    <path d="M 123.182609 191.012127 
L 163.330435 191.012127 
L 163.330435 169.225204 
L 123.182609 169.225204 
z
" clip-path="url(#pb7783b7b01)" style="fill: #9bc9e0; stroke: #ffffff; stroke-width: 0.5; stroke-linejoin: miter"/>
   </g>
   <g id="patch_45">
    <path d="M 167.791304 191.012127 
L 207.93913 191.012127 
L 207.93913 169.225204 
L 167.791304 169.225204 
z
" clip-path="url(#pb7783b7b01)" style="fill: #c2ddec; stroke: #ffffff; stroke-width: 0.5; stroke-linejoin: miter"/>
   </g>
   <g id="patch_46">
    <path d="M 212.4 191.012127 
L 252.547826 191.012127 
L 252.547826 169.225204 
L 212.4 169.225204 
z
" clip-path="url(#pb7783b7b01)" style="fill: #e0ecf3; stroke: #ffffff; stroke-width: 0.5; stroke-linejoin: miter"/>
   </g>
   <g id="patch_47">
    <path d="M 257.008696 191.012127 
L 297.156522 191.012127 
L 297.156522 169.225204 
L 257.008696 169.225204 
z
" clip-path="url(#pb7783b7b01)" style="fill: #f7f6f6; stroke: #ffffff; stroke-width: 0.5; stroke-linejoin: miter"/>
   </g>
   <g id="patch_48">
    <path d="M 301.617391 191.012127 
L 341.765217 191.012127 
L 341.765217 169.225204 
L 301.617391 169.225204 
z
" clip-path="url(#pb7783b7b01)" style="fill: #e0ecf3; stroke: #ffffff; stroke-width: 0.5; stroke-linejoin: miter"/>
   </g>
   <g id="patch_49">
    <path d="M 346.226087 191.012127 
L 386.373913 191.012127 
L 386.373913 169.225204 
L 346.226087 169.225204 
z
" clip-path="url(#pb7783b7b01)" style="fill: #c2ddec; stroke: #ffffff; stroke-width: 0.5; stroke-linejoin: miter"/>
   </g>
   <g id="patch_50">
    <path d="M 33.965217 215.21982 
L 74.113043 215.21982 
L 74.113043 193.432897 
L 33.965217 193.432897 
z
" clip-path="url(#pb7783b7b01)" style="fill: #2a71b2; stroke: #ffffff; stroke-width: 0.5; stroke-linejoin: miter"/>
   </g>
   <g id="patch_51">
    <path d="M 78.573913 215.21982 
L 118.721739 215.21982 
L 118.721739 193.432897 
L 78.573913 193.432897 
z
" clip-path="url(#pb7783b7b01)" style="fill: #3f8ec0; stroke: #ffffff; stroke-width: 0.5; stroke-linejoin: miter"/>
   </g>
   <g id="patch_52">
    <path d="M 123.182609 215.21982 
L 163.330435 215.21982 
L 163.330435 193.432897 
L 123.182609 193.432897 
z
" clip-path="url(#pb7783b7b01)" style="fill: #6bacd1; stroke: #ffffff; stroke-width: 0.5; stroke-linejoin: miter"/>
   </g>
   <g id="patch_53">
    <path d="M 167.791304 215.21982 
L 207.93913 215.21982 
L 207.93913 193.432897 
L 167.791304 193.432897 
z
" clip-path="url(#pb7783b7b01)" style="fill: #9bc9e0; stroke: #ffffff; stroke-width: 0.5; stroke-linejoin: miter"/>
   </g>
   <g id="patch_54">
    <path d="M 212.4 215.21982 
L 252.547826 215.21982 
L 252.547826 193.432897 
L 212.4 193.432897 
z
" clip-path="url(#pb7783b7b01)" style="fill: #c2ddec; stroke: #ffffff; stroke-width: 0.5; stroke-linejoin: miter"/>
   </g>
   <g id="patch_55">
    <path d="M 257.008696 215.21982 
L 297.156522 215.21982 
L 297.156522 193.432897 
L 257.008696 193.432897 
z
" clip-path="url(#pb7783b7b01)" style="fill: #e0ecf3; stroke: #ffffff; stroke-width: 0.5; stroke-linejoin: miter"/>
   </g>
   <g id="patch_56">
    <path d="M 301.617391 215.21982 
L 341.765217 215.21982 
L 341.765217 193.432897 
L 301.617391 193.432897 
z
" clip-path="url(#pb7783b7b01)" style="fill: #f7f6f6; stroke: #ffffff; stroke-width: 0.5; stroke-linejoin: miter"/>
   </g>
   <g id="patch_57">
    <path d="M 346.226087 215.21982 
L 386.373913 215.21982 
L 386.373913 193.432897 
L 346.226087 193.432897 
z
" clip-path="url(#pb7783b7b01)" style="fill: #e0ecf3; stroke: #ffffff; stroke-width: 0.5; stroke-linejoin: miter"/>
   </g>
   <g id="patch_58">
    <path d="M 33.965217 239.427512 
L 74.113043 239.427512 
L 74.113043 217.640589 
L 33.965217 217.640589 
z
" clip-path="url(#pb7783b7b01)" style="fill: #175290; stroke: #ffffff; stroke-width: 0.5; stroke-linejoin: miter"/>
   </g>
   <g id="patch_59">
    <path d="M 78.573913 239.427512 
L 118.721739 239.427512 
L 118.721739 217.640589 
L 78.573913 217.640589 
z
" clip-path="url(#pb7783b7b01)" style="fill: #2a71b2; stroke: #ffffff; stroke-width: 0.5; stroke-linejoin: miter"/>
   </g>
   <g id="patch_60">
    <path d="M 123.182609 239.427512 
L 163.330435 239.427512 
L 163.330435 217.640589 
L 123.182609 217.640589 
z
" clip-path="url(#pb7783b7b01)" style="fill: #3f8ec0; stroke: #ffffff; stroke-width: 0.5; stroke-linejoin: miter"/>
   </g>
   <g id="patch_61">
    <path d="M 167.791304 239.427512 
L 207.93913 239.427512 
L 207.93913 217.640589 
L 167.791304 217.640589 
z
" clip-path="url(#pb7783b7b01)" style="fill: #6bacd1; stroke: #ffffff; stroke-width: 0.5; stroke-linejoin: miter"/>
   </g>
   <g id="patch_62">
    <path d="M 212.4 239.427512 
L 252.547826 239.427512 
L 252.547826 217.640589 
L 212.4 217.640589 
z
" clip-path="url(#pb7783b7b01)" style="fill: #9bc9e0; stroke: #ffffff; stroke-width: 0.5; stroke-linejoin: miter"/>
   </g>
   <g id="patch_63">
    <path d="M 257.008696 239.427512 
L 297.156522 239.427512 
L 297.156522 217.640589 
L 257.008696 217.640589 
z
" clip-path="url(#pb7783b7b01)" style="fill: #c2ddec; stroke: #ffffff; stroke-width: 0.5; stroke-linejoin: miter"/>
   </g>
   <g id="patch_64">
    <path d="M 301.617391 239.427512 
L 341.765217 239.427512 
L 341.765217 217.640589 
L 301.617391 217.640589 
z
" clip-path="url(#pb7783b7b01)" style="fill: #e0ecf3; stroke: #ffffff; stroke-width: 0.5; stroke-linejoin: miter"/>
   </g>
   <g id="patch_65">
    <path d="M 346.226087 239.427512 
L 386.373913 239.427512 
L 386.373913 217.640589 
L 346.226087 217.640589 
z
" clip-path="url(#pb7783b7b01)" style="fill: #f7f6f6; stroke: #ffffff; stroke-width: 0.5; stroke-linejoin: miter"/>
   </g>
   <g id="text_1">
    <!-- Bias = -m × |query_pos - key_pos| -->
    <g transform="translate(134.737734 258.793666) scale(0.09 -0.09)">
     <defs>
      <path id="DejaVuSans-Oblique-42" d="M 1081 4666 
L 2694 4666 
Q 3350 4666 3675 4422 
Q 4000 4178 4000 3688 
Q 4000 3238 3720 2911 
Q 3441 2584 2988 2516 
Q 3375 2428 3569 2181 
Q 3763 1934 3763 1522 
Q 3763 819 3242 409 
Q 2722 0 1819 0 
L 172 0 
L 1081 4666 
z
M 1234 2228 
L 903 519 
L 1919 519 
Q 2491 519 2800 781 
Q 3109 1044 3109 1522 
Q 3109 1891 2904 2059 
Q 2700 2228 2247 2228 
L 1234 2228 
z
M 1606 4147 
L 1331 2741 
L 2272 2741 
Q 2775 2741 3058 2959 
Q 3341 3178 3341 3566 
Q 3341 3869 3150 4008 
Q 2959 4147 2541 4147 
L 1606 4147 
z
" transform="scale(0.015625)"/>
      <path id="DejaVuSans-Oblique-69" d="M 1172 4863 
L 1747 4863 
L 1606 4134 
L 1031 4134 
L 1172 4863 
z
M 909 3500 
L 1484 3500 
L 800 0 
L 225 0 
L 909 3500 
z
" transform="scale(0.015625)"/>
      <path id="DejaVuSans-Oblique-61" d="M 3438 1997 
L 3047 0 
L 2472 0 
L 2578 531 
Q 2325 219 2001 64 
Q 1678 -91 1281 -91 
Q 834 -91 548 182 
Q 263 456 263 884 
Q 263 1497 752 1853 
Q 1241 2209 2100 2209 
L 2900 2209 
L 2931 2363 
Q 2938 2388 2941 2417 
Q 2944 2447 2944 2509 
Q 2944 2788 2717 2942 
Q 2491 3097 2081 3097 
Q 1800 3097 1504 3025 
Q 1209 2953 897 2809 
L 997 3341 
Q 1322 3463 1633 3523 
Q 1944 3584 2234 3584 
Q 2853 3584 3176 3315 
Q 3500 3047 3500 2534 
Q 3500 2431 3484 2292 
Q 3469 2153 3438 1997 
z
M 2816 1759 
L 2241 1759 
Q 1534 1759 1195 1570 
Q 856 1381 856 984 
Q 856 709 1029 553 
Q 1203 397 1509 397 
Q 1978 397 2328 733 
Q 2678 1069 2791 1631 
L 2816 1759 
z
" transform="scale(0.015625)"/>
      <path id="DejaVuSans-Oblique-73" d="M 3200 3397 
L 3091 2853 
Q 2863 2978 2609 3040 
Q 2356 3103 2088 3103 
Q 1634 3103 1373 2948 
Q 1113 2794 1113 2528 
Q 1113 2219 1719 2053 
Q 1766 2041 1788 2034 
L 1972 1978 
Q 2547 1819 2739 1644 
Q 2931 1469 2931 1166 
Q 2931 609 2489 259 
Q 2047 -91 1331 -91 
Q 1053 -91 747 -37 
Q 441 16 72 128 
L 184 722 
Q 500 559 806 475 
Q 1113 391 1394 391 
Q 1816 391 2080 572 
Q 2344 753 2344 1031 
Q 2344 1331 1650 1516 
L 1591 1531 
L 1394 1581 
Q 956 1697 753 1886 
Q 550 2075 550 2369 
Q 550 2928 970 3256 
Q 1391 3584 2113 3584 
Q 2397 3584 2667 3537 
Q 2938 3491 3200 3397 
z
" transform="scale(0.015625)"/>
      <path id="DejaVuSans-Oblique-20" transform="scale(0.015625)"/>
      <path id="DejaVuSans-Oblique-3d" d="M 678 2906 
L 4684 2906 
L 4684 2381 
L 678 2381 
L 678 2906 
z
M 678 1631 
L 4684 1631 
L 4684 1100 
L 678 1100 
L 678 1631 
z
" transform="scale(0.015625)"/>
      <path id="DejaVuSans-Oblique-2d" d="M 391 2009 
L 2075 2009 
L 1978 1497 
L 288 1497 
L 391 2009 
z
" transform="scale(0.015625)"/>
      <path id="DejaVuSans-Oblique-6d" d="M 5747 2113 
L 5338 0 
L 4763 0 
L 5166 2094 
Q 5191 2228 5203 2325 
Q 5216 2422 5216 2491 
Q 5216 2772 5059 2928 
Q 4903 3084 4622 3084 
Q 4203 3084 3875 2770 
Q 3547 2456 3450 1953 
L 3066 0 
L 2491 0 
L 2900 2094 
Q 2925 2209 2937 2307 
Q 2950 2406 2950 2484 
Q 2950 2769 2794 2926 
Q 2638 3084 2363 3084 
Q 1938 3084 1609 2770 
Q 1281 2456 1184 1953 
L 800 0 
L 225 0 
L 909 3500 
L 1484 3500 
L 1375 2956 
Q 1609 3263 1923 3423 
Q 2238 3584 2597 3584 
Q 2978 3584 3223 3384 
Q 3469 3184 3519 2828 
Q 3781 3197 4126 3390 
Q 4472 3584 4856 3584 
Q 5306 3584 5551 3325 
Q 5797 3066 5797 2591 
Q 5797 2488 5784 2364 
Q 5772 2241 5747 2113 
z
" transform="scale(0.015625)"/>
      <path id="DejaVuSans-Oblique-d7" d="M 4488 3438 
L 3059 2003 
L 4488 575 
L 4116 197 
L 2681 1631 
L 1247 197 
L 878 575 
L 2303 2003 
L 878 3438 
L 1247 3816 
L 2681 2381 
L 4116 3816 
L 4488 3438 
z
" transform="scale(0.015625)"/>
      <path id="DejaVuSans-Oblique-7c" d="M 1344 4891 
L 1344 -1509 
L 813 -1509 
L 813 4891 
L 1344 4891 
z
" transform="scale(0.015625)"/>
      <path id="DejaVuSans-Oblique-71" d="M 2669 525 
Q 2438 222 2123 65 
Q 1809 -91 1428 -91 
Q 897 -91 595 267 
Q 294 625 294 1253 
Q 294 1759 480 2231 
Q 666 2703 1013 3078 
Q 1238 3322 1530 3453 
Q 1822 3584 2144 3584 
Q 2531 3584 2781 3431 
Q 3031 3278 3144 2969 
L 3244 3494 
L 3822 3494 
L 2888 -1319 
L 2309 -1319 
L 2669 525 
z
M 891 1338 
Q 891 875 1084 633 
Q 1278 391 1644 391 
Q 2188 391 2572 911 
Q 2956 1431 2956 2175 
Q 2956 2625 2757 2864 
Q 2559 3103 2188 3103 
Q 1916 3103 1684 2976 
Q 1453 2850 1281 2606 
Q 1100 2350 995 2006 
Q 891 1663 891 1338 
z
" transform="scale(0.015625)"/>
      <path id="DejaVuSans-Oblique-75" d="M 428 1388 
L 838 3500 
L 1416 3500 
L 1006 1409 
Q 975 1256 961 1147 
Q 947 1038 947 966 
Q 947 700 1109 554 
Q 1272 409 1569 409 
Q 2031 409 2368 721 
Q 2706 1034 2809 1563 
L 3194 3500 
L 3769 3500 
L 3091 0 
L 2516 0 
L 2631 550 
Q 2388 244 2052 76 
Q 1716 -91 1338 -91 
Q 878 -91 622 161 
Q 366 413 366 863 
Q 366 956 381 1097 
Q 397 1238 428 1388 
z
" transform="scale(0.015625)"/>
      <path id="DejaVuSans-Oblique-65" d="M 3078 2063 
Q 3088 2113 3092 2166 
Q 3097 2219 3097 2272 
Q 3097 2653 2873 2875 
Q 2650 3097 2266 3097 
Q 1838 3097 1509 2826 
Q 1181 2556 1013 2059 
L 3078 2063 
z
M 3578 1613 
L 903 1613 
Q 884 1494 878 1425 
Q 872 1356 872 1306 
Q 872 872 1139 634 
Q 1406 397 1894 397 
Q 2269 397 2603 481 
Q 2938 566 3225 728 
L 3116 159 
Q 2806 34 2476 -28 
Q 2147 -91 1806 -91 
Q 1078 -91 686 257 
Q 294 606 294 1247 
Q 294 1794 489 2264 
Q 684 2734 1063 3103 
Q 1306 3334 1642 3459 
Q 1978 3584 2356 3584 
Q 2950 3584 3301 3228 
Q 3653 2872 3653 2272 
Q 3653 2128 3634 1964 
Q 3616 1800 3578 1613 
z
" transform="scale(0.015625)"/>
      <path id="DejaVuSans-Oblique-72" d="M 2853 2969 
Q 2766 3016 2653 3041 
Q 2541 3066 2413 3066 
Q 1953 3066 1609 2717 
Q 1266 2369 1153 1784 
L 800 0 
L 225 0 
L 909 3500 
L 1484 3500 
L 1375 2956 
Q 1603 3259 1920 3421 
Q 2238 3584 2597 3584 
Q 2691 3584 2781 3573 
Q 2872 3563 2963 3538 
L 2853 2969 
z
" transform="scale(0.015625)"/>
      <path id="DejaVuSans-Oblique-79" d="M 1588 -325 
Q 1188 -997 936 -1164 
Q 684 -1331 294 -1331 
L -159 -1331 
L -63 -850 
L 269 -850 
Q 509 -850 678 -719 
Q 847 -588 1056 -206 
L 1234 128 
L 459 3500 
L 1069 3500 
L 1650 819 
L 3256 3500 
L 3859 3500 
L 1588 -325 
z
" transform="scale(0.015625)"/>
      <path id="DejaVuSans-Oblique-5f" d="M 3263 -1063 
L 3263 -1509 
L -63 -1509 
L -63 -1063 
L 3263 -1063 
z
" transform="scale(0.015625)"/>
      <path id="DejaVuSans-Oblique-70" d="M 3175 2156 
Q 3175 2616 2975 2859 
Q 2775 3103 2400 3103 
Q 2144 3103 1911 2972 
Q 1678 2841 1497 2591 
Q 1319 2344 1212 1994 
Q 1106 1644 1106 1300 
Q 1106 863 1306 627 
Q 1506 391 1875 391 
Q 2147 391 2380 519 
Q 2613 647 2778 891 
Q 2956 1147 3065 1494 
Q 3175 1841 3175 2156 
z
M 1394 2969 
Q 1625 3272 1939 3428 
Q 2253 3584 2638 3584 
Q 3175 3584 3472 3232 
Q 3769 2881 3769 2247 
Q 3769 1728 3584 1258 
Q 3400 788 3053 416 
Q 2822 169 2531 39 
Q 2241 -91 1919 -91 
Q 1547 -91 1294 64 
Q 1041 219 916 525 
L 556 -1331 
L -19 -1331 
L 922 3500 
L 1497 3500 
L 1394 2969 
z
" transform="scale(0.015625)"/>
      <path id="DejaVuSans-Oblique-6f" d="M 1625 -91 
Q 1009 -91 651 289 
Q 294 669 294 1325 
Q 294 1706 417 2101 
Q 541 2497 738 2766 
Q 1047 3184 1428 3384 
Q 1809 3584 2291 3584 
Q 2888 3584 3255 3212 
Q 3622 2841 3622 2241 
Q 3622 1825 3500 1412 
Q 3378 1000 3181 728 
Q 2875 309 2494 109 
Q 2113 -91 1625 -91 
z
M 891 1344 
Q 891 869 1089 633 
Q 1288 397 1691 397 
Q 2269 397 2648 901 
Q 3028 1406 3028 2181 
Q 3028 2634 2825 2865 
Q 2622 3097 2228 3097 
Q 1903 3097 1650 2945 
Q 1397 2794 1197 2484 
Q 1050 2253 970 1956 
Q 891 1659 891 1344 
z
" transform="scale(0.015625)"/>
      <path id="DejaVuSans-Oblique-6b" d="M 1172 4863 
L 1747 4863 
L 1197 2028 
L 3169 3500 
L 3916 3500 
L 1716 1825 
L 3322 0 
L 2625 0 
L 1131 1709 
L 800 0 
L 225 0 
L 1172 4863 
z
" transform="scale(0.015625)"/>
     </defs>
     <use xlink:href="#DejaVuSans-Oblique-42"/>
     <use xlink:href="#DejaVuSans-Oblique-69" transform="translate(68.603516 0)"/>
     <use xlink:href="#DejaVuSans-Oblique-61" transform="translate(96.386719 0)"/>
     <use xlink:href="#DejaVuSans-Oblique-73" transform="translate(157.666016 0)"/>
     <use xlink:href="#DejaVuSans-Oblique-20" transform="translate(209.765625 0)"/>
     <use xlink:href="#DejaVuSans-Oblique-3d" transform="translate(241.552734 0)"/>
     <use xlink:href="#DejaVuSans-Oblique-20" transform="translate(325.341797 0)"/>
     <use xlink:href="#DejaVuSans-Oblique-2d" transform="translate(357.128906 0)"/>
     <use xlink:href="#DejaVuSans-Oblique-6d" transform="translate(393.212891 0)"/>
     <use xlink:href="#DejaVuSans-Oblique-20" transform="translate(490.625 0)"/>
     <use xlink:href="#DejaVuSans-Oblique-d7" transform="translate(522.412109 0)"/>
     <use xlink:href="#DejaVuSans-Oblique-20" transform="translate(606.201172 0)"/>
     <use xlink:href="#DejaVuSans-Oblique-7c" transform="translate(637.988281 0)"/>
     <use xlink:href="#DejaVuSans-Oblique-71" transform="translate(671.679688 0)"/>
     <use xlink:href="#DejaVuSans-Oblique-75" transform="translate(735.15625 0)"/>
     <use xlink:href="#DejaVuSans-Oblique-65" transform="translate(798.535156 0)"/>
     <use xlink:href="#DejaVuSans-Oblique-72" transform="translate(860.058594 0)"/>
     <use xlink:href="#DejaVuSans-Oblique-79" transform="translate(901.171875 0)"/>
     <use xlink:href="#DejaVuSans-Oblique-5f" transform="translate(960.351562 0)"/>
     <use xlink:href="#DejaVuSans-Oblique-70" transform="translate(1010.351562 0)"/>
     <use xlink:href="#DejaVuSans-Oblique-6f" transform="translate(1073.828125 0)"/>
     <use xlink:href="#DejaVuSans-Oblique-73" transform="translate(1135.009766 0)"/>
     <use xlink:href="#DejaVuSans-Oblique-20" transform="translate(1187.109375 0)"/>
     <use xlink:href="#DejaVuSans-Oblique-2d" transform="translate(1218.896484 0)"/>
     <use xlink:href="#DejaVuSans-Oblique-20" transform="translate(1254.980469 0)"/>
     <use xlink:href="#DejaVuSans-Oblique-6b" transform="translate(1286.767578 0)"/>
     <use xlink:href="#DejaVuSans-Oblique-65" transform="translate(1344.677734 0)"/>
     <use xlink:href="#DejaVuSans-Oblique-79" transform="translate(1406.201172 0)"/>
     <use xlink:href="#DejaVuSans-Oblique-5f" transform="translate(1465.380859 0)"/>
     <use xlink:href="#DejaVuSans-Oblique-70" transform="translate(1515.380859 0)"/>
     <use xlink:href="#DejaVuSans-Oblique-6f" transform="translate(1578.857422 0)"/>
     <use xlink:href="#DejaVuSans-Oblique-73" transform="translate(1640.039062 0)"/>
     <use xlink:href="#DejaVuSans-Oblique-7c" transform="translate(1692.138672 0)"/>
    </g>
   </g>
   <g id="text_2">
    <!-- Closer positions get higher attention -->
    <g transform="translate(130.056328 36.082897) scale(0.09 -0.09)">
     <defs>
      <path id="DejaVuSans-43" d="M 4122 4306 
L 4122 3641 
Q 3803 3938 3442 4084 
Q 3081 4231 2675 4231 
Q 1875 4231 1450 3742 
Q 1025 3253 1025 2328 
Q 1025 1406 1450 917 
Q 1875 428 2675 428 
Q 3081 428 3442 575 
Q 3803 722 4122 1019 
L 4122 359 
Q 3791 134 3420 21 
Q 3050 -91 2638 -91 
Q 1578 -91 968 557 
Q 359 1206 359 2328 
Q 359 3453 968 4101 
Q 1578 4750 2638 4750 
Q 3056 4750 3426 4639 
Q 3797 4528 4122 4306 
z
" transform="scale(0.015625)"/>
      <path id="DejaVuSans-6c" d="M 603 4863 
L 1178 4863 
L 1178 0 
L 603 0 
L 603 4863 
z
" transform="scale(0.015625)"/>
      <path id="DejaVuSans-6f" d="M 1959 3097 
Q 1497 3097 1228 2736 
Q 959 2375 959 1747 
Q 959 1119 1226 758 
Q 1494 397 1959 397 
Q 2419 397 2687 759 
Q 2956 1122 2956 1747 
Q 2956 2369 2687 2733 
Q 2419 3097 1959 3097 
z
M 1959 3584 
Q 2709 3584 3137 3096 
Q 3566 2609 3566 1747 
Q 3566 888 3137 398 
Q 2709 -91 1959 -91 
Q 1206 -91 779 398 
Q 353 888 353 1747 
Q 353 2609 779 3096 
Q 1206 3584 1959 3584 
z
" transform="scale(0.015625)"/>
      <path id="DejaVuSans-73" d="M 2834 3397 
L 2834 2853 
Q 2591 2978 2328 3040 
Q 2066 3103 1784 3103 
Q 1356 3103 1142 2972 
Q 928 2841 928 2578 
Q 928 2378 1081 2264 
Q 1234 2150 1697 2047 
L 1894 2003 
Q 2506 1872 2764 1633 
Q 3022 1394 3022 966 
Q 3022 478 2636 193 
Q 2250 -91 1575 -91 
Q 1294 -91 989 -36 
Q 684 19 347 128 
L 347 722 
Q 666 556 975 473 
Q 1284 391 1588 391 
Q 1994 391 2212 530 
Q 2431 669 2431 922 
Q 2431 1156 2273 1281 
Q 2116 1406 1581 1522 
L 1381 1569 
Q 847 1681 609 1914 
Q 372 2147 372 2553 
Q 372 3047 722 3315 
Q 1072 3584 1716 3584 
Q 2034 3584 2315 3537 
Q 2597 3491 2834 3397 
z
" transform="scale(0.015625)"/>
      <path id="DejaVuSans-65" d="M 3597 1894 
L 3597 1613 
L 953 1613 
Q 991 1019 1311 708 
Q 1631 397 2203 397 
Q 2534 397 2845 478 
Q 3156 559 3463 722 
L 3463 178 
Q 3153 47 2828 -22 
Q 2503 -91 2169 -91 
Q 1331 -91 842 396 
Q 353 884 353 1716 
Q 353 2575 817 3079 
Q 1281 3584 2069 3584 
Q 2775 3584 3186 3129 
Q 3597 2675 3597 1894 
z
M 3022 2063 
Q 3016 2534 2758 2815 
Q 2500 3097 2075 3097 
Q 1594 3097 1305 2825 
Q 1016 2553 972 2059 
L 3022 2063 
z
" transform="scale(0.015625)"/>
      <path id="DejaVuSans-72" d="M 2631 2963 
Q 2534 3019 2420 3045 
Q 2306 3072 2169 3072 
Q 1681 3072 1420 2755 
Q 1159 2438 1159 1844 
L 1159 0 
L 581 0 
L 581 3500 
L 1159 3500 
L 1159 2956 
Q 1341 3275 1631 3429 
Q 1922 3584 2338 3584 
Q 2397 3584 2469 3576 
Q 2541 3569 2628 3553 
L 2631 2963 
z
" transform="scale(0.015625)"/>
      <path id="DejaVuSans-20" transform="scale(0.015625)"/>
      <path id="DejaVuSans-70" d="M 1159 525 
L 1159 -1331 
L 581 -1331 
L 581 3500 
L 1159 3500 
L 1159 2969 
Q 1341 3281 1617 3432 
Q 1894 3584 2278 3584 
Q 2916 3584 3314 3078 
Q 3713 2572 3713 1747 
Q 3713 922 3314 415 
Q 2916 -91 2278 -91 
Q 1894 -91 1617 61 
Q 1341 213 1159 525 
z
M 3116 1747 
Q 3116 2381 2855 2742 
Q 2594 3103 2138 3103 
Q 1681 3103 1420 2742 
Q 1159 2381 1159 1747 
Q 1159 1113 1420 752 
Q 1681 391 2138 391 
Q 2594 391 2855 752 
Q 3116 1113 3116 1747 
z
" transform="scale(0.015625)"/>
      <path id="DejaVuSans-69" d="M 603 3500 
L 1178 3500 
L 1178 0 
L 603 0 
L 603 3500 
z
M 603 4863 
L 1178 4863 
L 1178 4134 
L 603 4134 
L 603 4863 
z
" transform="scale(0.015625)"/>
      <path id="DejaVuSans-74" d="M 1172 4494 
L 1172 3500 
L 2356 3500 
L 2356 3053 
L 1172 3053 
L 1172 1153 
Q 1172 725 1289 603 
Q 1406 481 1766 481 
L 2356 481 
L 2356 0 
L 1766 0 
Q 1100 0 847 248 
Q 594 497 594 1153 
L 594 3053 
L 172 3053 
L 172 3500 
L 594 3500 
L 594 4494 
L 1172 4494 
z
" transform="scale(0.015625)"/>
      <path id="DejaVuSans-6e" d="M 3513 2113 
L 3513 0 
L 2938 0 
L 2938 2094 
Q 2938 2591 2744 2837 
Q 2550 3084 2163 3084 
Q 1697 3084 1428 2787 
Q 1159 2491 1159 1978 
L 1159 0 
L 581 0 
L 581 3500 
L 1159 3500 
L 1159 2956 
Q 1366 3272 1645 3428 
Q 1925 3584 2291 3584 
Q 2894 3584 3203 3211 
Q 3513 2838 3513 2113 
z
" transform="scale(0.015625)"/>
      <path id="DejaVuSans-67" d="M 2906 1791 
Q 2906 2416 2648 2759 
Q 2391 3103 1925 3103 
Q 1463 3103 1205 2759 
Q 947 2416 947 1791 
Q 947 1169 1205 825 
Q 1463 481 1925 481 
Q 2391 481 2648 825 
Q 2906 1169 2906 1791 
z
M 3481 434 
Q 3481 -459 3084 -895 
Q 2688 -1331 1869 -1331 
Q 1566 -1331 1297 -1286 
Q 1028 -1241 775 -1147 
L 775 -588 
Q 1028 -725 1275 -790 
Q 1522 -856 1778 -856 
Q 2344 -856 2625 -561 
Q 2906 -266 2906 331 
L 2906 616 
Q 2728 306 2450 153 
Q 2172 0 1784 0 
Q 1141 0 747 490 
Q 353 981 353 1791 
Q 353 2603 747 3093 
Q 1141 3584 1784 3584 
Q 2172 3584 2450 3431 
Q 2728 3278 2906 2969 
L 2906 3500 
L 3481 3500 
L 3481 434 
z
" transform="scale(0.015625)"/>
      <path id="DejaVuSans-68" d="M 3513 2113 
L 3513 0 
L 2938 0 
L 2938 2094 
Q 2938 2591 2744 2837 
Q 2550 3084 2163 3084 
Q 1697 3084 1428 2787 
Q 1159 2491 1159 1978 
L 1159 0 
L 581 0 
L 581 4863 
L 1159 4863 
L 1159 2956 
Q 1366 3272 1645 3428 
Q 1925 3584 2291 3584 
Q 2894 3584 3203 3211 
Q 3513 2838 3513 2113 
z
" transform="scale(0.015625)"/>
      <path id="DejaVuSans-61" d="M 2194 1759 
Q 1497 1759 1228 1600 
Q 959 1441 959 1056 
Q 959 750 1161 570 
Q 1363 391 1709 391 
Q 2188 391 2477 730 
Q 2766 1069 2766 1631 
L 2766 1759 
L 2194 1759 
z
M 3341 1997 
L 3341 0 
L 2766 0 
L 2766 531 
Q 2569 213 2275 61 
Q 1981 -91 1556 -91 
Q 1019 -91 701 211 
Q 384 513 384 1019 
Q 384 1609 779 1909 
Q 1175 2209 1959 2209 
L 2766 2209 
L 2766 2266 
Q 2766 2663 2505 2880 
Q 2244 3097 1772 3097 
Q 1472 3097 1187 3025 
Q 903 2953 641 2809 
L 641 3341 
Q 956 3463 1253 3523 
Q 1550 3584 1831 3584 
Q 2591 3584 2966 3190 
Q 3341 2797 3341 1997 
z
" transform="scale(0.015625)"/>
     </defs>
     <use xlink:href="#DejaVuSans-43"/>
     <use xlink:href="#DejaVuSans-6c" transform="translate(69.824219 0)"/>
     <use xlink:href="#DejaVuSans-6f" transform="translate(97.607422 0)"/>
     <use xlink:href="#DejaVuSans-73" transform="translate(158.789062 0)"/>
     <use xlink:href="#DejaVuSans-65" transform="translate(210.888672 0)"/>
     <use xlink:href="#DejaVuSans-72" transform="translate(272.412109 0)"/>
     <use xlink:href="#DejaVuSans-20" transform="translate(313.525391 0)"/>
     <use xlink:href="#DejaVuSans-70" transform="translate(345.3125 0)"/>
     <use xlink:href="#DejaVuSans-6f" transform="translate(408.789062 0)"/>
     <use xlink:href="#DejaVuSans-73" transform="translate(469.970703 0)"/>
     <use xlink:href="#DejaVuSans-69" transform="translate(522.070312 0)"/>
     <use xlink:href="#DejaVuSans-74" transform="translate(549.853516 0)"/>
     <use xlink:href="#DejaVuSans-69" transform="translate(589.0625 0)"/>
     <use xlink:href="#DejaVuSans-6f" transform="translate(616.845703 0)"/>
     <use xlink:href="#DejaVuSans-6e" transform="translate(678.027344 0)"/>
     <use xlink:href="#DejaVuSans-73" transform="translate(741.40625 0)"/>
     <use xlink:href="#DejaVuSans-20" transform="translate(793.505859 0)"/>
     <use xlink:href="#DejaVuSans-67" transform="translate(825.292969 0)"/>
     <use xlink:href="#DejaVuSans-65" transform="translate(888.769531 0)"/>
     <use xlink:href="#DejaVuSans-74" transform="translate(950.292969 0)"/>
     <use xlink:href="#DejaVuSans-20" transform="translate(989.501953 0)"/>
     <use xlink:href="#DejaVuSans-68" transform="translate(1021.289062 0)"/>
     <use xlink:href="#DejaVuSans-69" transform="translate(1084.667969 0)"/>
     <use xlink:href="#DejaVuSans-67" transform="translate(1112.451172 0)"/>
     <use xlink:href="#DejaVuSans-68" transform="translate(1175.927734 0)"/>
     <use xlink:href="#DejaVuSans-65" transform="translate(1239.306641 0)"/>
     <use xlink:href="#DejaVuSans-72" transform="translate(1300.830078 0)"/>
     <use xlink:href="#DejaVuSans-20" transform="translate(1341.943359 0)"/>
     <use xlink:href="#DejaVuSans-61" transform="translate(1373.730469 0)"/>
     <use xlink:href="#DejaVuSans-74" transform="translate(1435.009766 0)"/>
     <use xlink:href="#DejaVuSans-74" transform="translate(1474.21875 0)"/>
     <use xlink:href="#DejaVuSans-65" transform="translate(1513.427734 0)"/>
     <use xlink:href="#DejaVuSans-6e" transform="translate(1574.951172 0)"/>
     <use xlink:href="#DejaVuSans-74" transform="translate(1638.330078 0)"/>
     <use xlink:href="#DejaVuSans-69" transform="translate(1677.539062 0)"/>
     <use xlink:href="#DejaVuSans-6f" transform="translate(1705.322266 0)"/>
     <use xlink:href="#DejaVuSans-6e" transform="translate(1766.503906 0)"/>
    </g>
   </g>
   <g id="text_3">
    <!-- C. ALiBi (Attention with Linear Biases) -->
    <g transform="translate(7.2 15.558281) scale(0.11 -0.11)">
     <defs>
      <path id="DejaVuSans-Bold-43" d="M 4288 256 
Q 3956 84 3597 -3 
Q 3238 -91 2847 -91 
Q 1681 -91 1000 561 
Q 319 1213 319 2328 
Q 319 3447 1000 4098 
Q 1681 4750 2847 4750 
Q 3238 4750 3597 4662 
Q 3956 4575 4288 4403 
L 4288 3438 
Q 3953 3666 3628 3772 
Q 3303 3878 2944 3878 
Q 2300 3878 1931 3465 
Q 1563 3053 1563 2328 
Q 1563 1606 1931 1193 
Q 2300 781 2944 781 
Q 3303 781 3628 887 
Q 3953 994 4288 1222 
L 4288 256 
z
" transform="scale(0.015625)"/>
      <path id="DejaVuSans-Bold-2e" d="M 653 1209 
L 1778 1209 
L 1778 0 
L 653 0 
L 653 1209 
z
" transform="scale(0.015625)"/>
      <path id="DejaVuSans-Bold-20" transform="scale(0.015625)"/>
      <path id="DejaVuSans-Bold-41" d="M 3419 850 
L 1538 850 
L 1241 0 
L 31 0 
L 1759 4666 
L 3194 4666 
L 4922 0 
L 3713 0 
L 3419 850 
z
M 1838 1716 
L 3116 1716 
L 2478 3572 
L 1838 1716 
z
" transform="scale(0.015625)"/>
      <path id="DejaVuSans-Bold-4c" d="M 588 4666 
L 1791 4666 
L 1791 909 
L 3903 909 
L 3903 0 
L 588 0 
L 588 4666 
z
" transform="scale(0.015625)"/>
      <path id="DejaVuSans-Bold-69" d="M 538 3500 
L 1656 3500 
L 1656 0 
L 538 0 
L 538 3500 
z
M 538 4863 
L 1656 4863 
L 1656 3950 
L 538 3950 
L 538 4863 
z
" transform="scale(0.015625)"/>
      <path id="DejaVuSans-Bold-42" d="M 2456 2859 
Q 2741 2859 2887 2984 
Q 3034 3109 3034 3353 
Q 3034 3594 2887 3720 
Q 2741 3847 2456 3847 
L 1791 3847 
L 1791 2859 
L 2456 2859 
z
M 2497 819 
Q 2859 819 3042 972 
Q 3225 1125 3225 1434 
Q 3225 1738 3044 1889 
Q 2863 2041 2497 2041 
L 1791 2041 
L 1791 819 
L 2497 819 
z
M 3616 2497 
Q 4003 2384 4215 2081 
Q 4428 1778 4428 1338 
Q 4428 663 3972 331 
Q 3516 0 2584 0 
L 588 0 
L 588 4666 
L 2394 4666 
Q 3366 4666 3802 4372 
Q 4238 4078 4238 3431 
Q 4238 3091 4078 2852 
Q 3919 2613 3616 2497 
z
" transform="scale(0.015625)"/>
      <path id="DejaVuSans-Bold-28" d="M 2413 -844 
L 1484 -844 
Q 1006 -72 778 623 
Q 550 1319 550 2003 
Q 550 2688 779 3389 
Q 1009 4091 1484 4856 
L 2413 4856 
Q 2013 4116 1813 3408 
Q 1613 2700 1613 2009 
Q 1613 1319 1811 609 
Q 2009 -100 2413 -844 
z
" transform="scale(0.015625)"/>
      <path id="DejaVuSans-Bold-74" d="M 1759 4494 
L 1759 3500 
L 2913 3500 
L 2913 2700 
L 1759 2700 
L 1759 1216 
Q 1759 972 1856 886 
Q 1953 800 2241 800 
L 2816 800 
L 2816 0 
L 1856 0 
Q 1194 0 917 276 
Q 641 553 641 1216 
L 641 2700 
L 84 2700 
L 84 3500 
L 641 3500 
L 641 4494 
L 1759 4494 
z
" transform="scale(0.015625)"/>
      <path id="DejaVuSans-Bold-65" d="M 4031 1759 
L 4031 1441 
L 1416 1441 
Q 1456 1047 1700 850 
Q 1944 653 2381 653 
Q 2734 653 3104 758 
Q 3475 863 3866 1075 
L 3866 213 
Q 3469 63 3072 -14 
Q 2675 -91 2278 -91 
Q 1328 -91 801 392 
Q 275 875 275 1747 
Q 275 2603 792 3093 
Q 1309 3584 2216 3584 
Q 3041 3584 3536 3087 
Q 4031 2591 4031 1759 
z
M 2881 2131 
Q 2881 2450 2695 2645 
Q 2509 2841 2209 2841 
Q 1884 2841 1681 2658 
Q 1478 2475 1428 2131 
L 2881 2131 
z
" transform="scale(0.015625)"/>
      <path id="DejaVuSans-Bold-6e" d="M 4056 2131 
L 4056 0 
L 2931 0 
L 2931 347 
L 2931 1631 
Q 2931 2084 2911 2256 
Q 2891 2428 2841 2509 
Q 2775 2619 2662 2680 
Q 2550 2741 2406 2741 
Q 2056 2741 1856 2470 
Q 1656 2200 1656 1722 
L 1656 0 
L 538 0 
L 538 3500 
L 1656 3500 
L 1656 2988 
Q 1909 3294 2193 3439 
Q 2478 3584 2822 3584 
Q 3428 3584 3742 3212 
Q 4056 2841 4056 2131 
z
" transform="scale(0.015625)"/>
      <path id="DejaVuSans-Bold-6f" d="M 2203 2784 
Q 1831 2784 1636 2517 
Q 1441 2250 1441 1747 
Q 1441 1244 1636 976 
Q 1831 709 2203 709 
Q 2569 709 2762 976 
Q 2956 1244 2956 1747 
Q 2956 2250 2762 2517 
Q 2569 2784 2203 2784 
z
M 2203 3584 
Q 3106 3584 3614 3096 
Q 4122 2609 4122 1747 
Q 4122 884 3614 396 
Q 3106 -91 2203 -91 
Q 1297 -91 786 396 
Q 275 884 275 1747 
Q 275 2609 786 3096 
Q 1297 3584 2203 3584 
z
" transform="scale(0.015625)"/>
      <path id="DejaVuSans-Bold-77" d="M 225 3500 
L 1313 3500 
L 1900 1088 
L 2491 3500 
L 3425 3500 
L 4013 1113 
L 4603 3500 
L 5691 3500 
L 4769 0 
L 3547 0 
L 2956 2406 
L 2369 0 
L 1147 0 
L 225 3500 
z
" transform="scale(0.015625)"/>
      <path id="DejaVuSans-Bold-68" d="M 4056 2131 
L 4056 0 
L 2931 0 
L 2931 347 
L 2931 1625 
Q 2931 2084 2911 2256 
Q 2891 2428 2841 2509 
Q 2775 2619 2662 2680 
Q 2550 2741 2406 2741 
Q 2056 2741 1856 2470 
Q 1656 2200 1656 1722 
L 1656 0 
L 538 0 
L 538 4863 
L 1656 4863 
L 1656 2988 
Q 1909 3294 2193 3439 
Q 2478 3584 2822 3584 
Q 3428 3584 3742 3212 
Q 4056 2841 4056 2131 
z
" transform="scale(0.015625)"/>
      <path id="DejaVuSans-Bold-61" d="M 2106 1575 
Q 1756 1575 1579 1456 
Q 1403 1338 1403 1106 
Q 1403 894 1545 773 
Q 1688 653 1941 653 
Q 2256 653 2472 879 
Q 2688 1106 2688 1447 
L 2688 1575 
L 2106 1575 
z
M 3816 1997 
L 3816 0 
L 2688 0 
L 2688 519 
Q 2463 200 2181 54 
Q 1900 -91 1497 -91 
Q 953 -91 614 226 
Q 275 544 275 1050 
Q 275 1666 698 1953 
Q 1122 2241 2028 2241 
L 2688 2241 
L 2688 2328 
Q 2688 2594 2478 2717 
Q 2269 2841 1825 2841 
Q 1466 2841 1156 2769 
Q 847 2697 581 2553 
L 581 3406 
Q 941 3494 1303 3539 
Q 1666 3584 2028 3584 
Q 2975 3584 3395 3211 
Q 3816 2838 3816 1997 
z
" transform="scale(0.015625)"/>
      <path id="DejaVuSans-Bold-72" d="M 3138 2547 
Q 2991 2616 2845 2648 
Q 2700 2681 2553 2681 
Q 2122 2681 1889 2404 
Q 1656 2128 1656 1613 
L 1656 0 
L 538 0 
L 538 3500 
L 1656 3500 
L 1656 2925 
Q 1872 3269 2151 3426 
Q 2431 3584 2822 3584 
Q 2878 3584 2943 3579 
Q 3009 3575 3134 3559 
L 3138 2547 
z
" transform="scale(0.015625)"/>
      <path id="DejaVuSans-Bold-73" d="M 3272 3391 
L 3272 2541 
Q 2913 2691 2578 2766 
Q 2244 2841 1947 2841 
Q 1628 2841 1473 2761 
Q 1319 2681 1319 2516 
Q 1319 2381 1436 2309 
Q 1553 2238 1856 2203 
L 2053 2175 
Q 2913 2066 3209 1816 
Q 3506 1566 3506 1031 
Q 3506 472 3093 190 
Q 2681 -91 1863 -91 
Q 1516 -91 1145 -36 
Q 775 19 384 128 
L 384 978 
Q 719 816 1070 734 
Q 1422 653 1784 653 
Q 2113 653 2278 743 
Q 2444 834 2444 1013 
Q 2444 1163 2330 1236 
Q 2216 1309 1875 1350 
L 1678 1375 
Q 931 1469 631 1722 
Q 331 1975 331 2491 
Q 331 3047 712 3315 
Q 1094 3584 1881 3584 
Q 2191 3584 2531 3537 
Q 2872 3491 3272 3391 
z
" transform="scale(0.015625)"/>
      <path id="DejaVuSans-Bold-29" d="M 513 -844 
Q 913 -100 1113 609 
Q 1313 1319 1313 2009 
Q 1313 2700 1113 3408 
Q 913 4116 513 4856 
L 1441 4856 
Q 1916 4091 2145 3389 
Q 2375 2688 2375 2003 
Q 2375 1319 2147 623 
Q 1919 -72 1441 -844 
L 513 -844 
z
" transform="scale(0.015625)"/>
     </defs>
     <use xlink:href="#DejaVuSans-Bold-43"/>
     <use xlink:href="#DejaVuSans-Bold-2e" transform="translate(73.388672 0)"/>
     <use xlink:href="#DejaVuSans-Bold-20" transform="translate(111.376953 0)"/>
     <use xlink:href="#DejaVuSans-Bold-41" transform="translate(146.191406 0)"/>
     <use xlink:href="#DejaVuSans-Bold-4c" transform="translate(223.583984 0)"/>
     <use xlink:href="#DejaVuSans-Bold-69" transform="translate(287.304688 0)"/>
     <use xlink:href="#DejaVuSans-Bold-42" transform="translate(321.582031 0)"/>
     <use xlink:href="#DejaVuSans-Bold-69" transform="translate(397.802734 0)"/>
     <use xlink:href="#DejaVuSans-Bold-20" transform="translate(432.080078 0)"/>
     <use xlink:href="#DejaVuSans-Bold-28" transform="translate(466.894531 0)"/>
     <use xlink:href="#DejaVuSans-Bold-41" transform="translate(512.597656 0)"/>
     <use xlink:href="#DejaVuSans-Bold-74" transform="translate(589.990234 0)"/>
     <use xlink:href="#DejaVuSans-Bold-74" transform="translate(637.792969 0)"/>
     <use xlink:href="#DejaVuSans-Bold-65" transform="translate(685.595703 0)"/>
     <use xlink:href="#DejaVuSans-Bold-6e" transform="translate(753.417969 0)"/>
     <use xlink:href="#DejaVuSans-Bold-74" transform="translate(824.609375 0)"/>
     <use xlink:href="#DejaVuSans-Bold-69" transform="translate(872.412109 0)"/>
     <use xlink:href="#DejaVuSans-Bold-6f" transform="translate(906.689453 0)"/>
     <use xlink:href="#DejaVuSans-Bold-6e" transform="translate(975.390625 0)"/>
     <use xlink:href="#DejaVuSans-Bold-20" transform="translate(1046.582031 0)"/>
     <use xlink:href="#DejaVuSans-Bold-77" transform="translate(1081.396484 0)"/>
     <use xlink:href="#DejaVuSans-Bold-69" transform="translate(1173.779297 0)"/>
     <use xlink:href="#DejaVuSans-Bold-74" transform="translate(1208.056641 0)"/>
     <use xlink:href="#DejaVuSans-Bold-68" transform="translate(1255.859375 0)"/>
     <use xlink:href="#DejaVuSans-Bold-20" transform="translate(1327.050781 0)"/>
     <use xlink:href="#DejaVuSans-Bold-4c" transform="translate(1361.865234 0)"/>
     <use xlink:href="#DejaVuSans-Bold-69" transform="translate(1425.585938 0)"/>
     <use xlink:href="#DejaVuSans-Bold-6e" transform="translate(1459.863281 0)"/>
     <use xlink:href="#DejaVuSans-Bold-65" transform="translate(1531.054688 0)"/>
     <use xlink:href="#DejaVuSans-Bold-61" transform="translate(1598.876953 0)"/>
     <use xlink:href="#DejaVuSans-Bold-72" transform="translate(1666.357422 0)"/>
     <use xlink:href="#DejaVuSans-Bold-20" transform="translate(1715.673828 0)"/>
     <use xlink:href="#DejaVuSans-Bold-42" transform="translate(1750.488281 0)"/>
     <use xlink:href="#DejaVuSans-Bold-69" transform="translate(1826.708984 0)"/>
     <use xlink:href="#DejaVuSans-Bold-61" transform="translate(1860.986328 0)"/>
     <use xlink:href="#DejaVuSans-Bold-73" transform="translate(1928.466797 0)"/>
     <use xlink:href="#DejaVuSans-Bold-65" transform="translate(1987.988281 0)"/>
     <use xlink:href="#DejaVuSans-Bold-73" transform="translate(2055.810547 0)"/>
     <use xlink:href="#DejaVuSans-Bold-29" transform="translate(2115.332031 0)"/>
    </g>
   </g>
  </g>
 </g>
 <defs>
  <clipPath id="pb7783b7b01">
   <rect x="7.2" y="21.558281" width="410.4" height="251.76"/>
  </clipPath>
 </defs>
</svg>
