<?xml version="1.0" encoding="utf-8" ?>
<svg xmlns="http://www.w3.org/2000/svg" xmlns:ev="http://www.w3.org/2001/xml-events" xmlns:xlink="http://www.w3.org/1999/xlink" baseProfile="full" height="800" version="1.1" width="1200">
  <defs>
    <marker id="id16" markerHeight="7" markerWidth="7" orient="auto" refX="6" refY="3">
      <path d="M0,0 L0,6 L6,3 z" fill="#333333"/>
    </marker>
  </defs>
  <rect fill="white" height="800" width="1200" x="0" y="0"/>
  <text fill="#111" font-family="Arial, Helvetica, sans-serif" font-size="28" font-weight="700" x="60" y="50">Figure 3.3: Linkage Disequilibrium and Tag-Causal Distinction (Three-Panel)</text>
  <text fill="#444" font-family="Arial, Helvetica, sans-serif" font-size="16" x="60" y="78">Panel A</text>
  <rect fill="#f1f1f1" height="18" stroke="#333" stroke-width="1.5" width="420" x="120" y="140"/>
  <rect fill="#cccccc" height="18" stroke="none" width="12" x="324.0" y="140"/>
  <rect fill="#d62728" height="18" opacity="0.35" stroke="none" width="70.71137714289743" x="387.01514492128126" y="140"/>
  <rect fill="#ffbb78" height="18" opacity="0.35" stroke="none" width="70.42372731342687" x="255.41342801357132" y="140"/>
  <rect fill="#2ca02c" height="18" opacity="0.35" stroke="none" width="66.93689513727492" x="173.69794136052082" y="140"/>
  <text fill="#333" font-family="Arial, Helvetica, sans-serif" font-size="13" text-anchor="end" x="90" y="154">1</text>
  <rect fill="#f1f1f1" height="18" stroke="#333" stroke-width="1.5" width="420" x="650" y="140"/>
  <rect fill="#cccccc" height="18" stroke="none" width="12" x="854.0" y="140"/>
  <rect fill="#2ca02c" height="18" opacity="0.35" stroke="none" width="49.18487513930111" x="871.6758250241581" y="140"/>
  <text fill="#333" font-family="Arial, Helvetica, sans-serif" font-size="13" text-anchor="end" x="620" y="154">13</text>
  <rect fill="#f1f1f1" height="18" stroke="#333" stroke-width="1.5" width="420" x="120" y="178"/>
  <rect fill="#cccccc" height="18" stroke="none" width="12" x="324.0" y="178"/>
  <rect fill="#d62728" height="18" opacity="0.35" stroke="none" width="47.89255925560532" x="343.5192702060583" y="178"/>
  <rect fill="#d62728" height="18" opacity="0.35" stroke="none" width="59.26072171586288" x="457.9269937036926" y="178"/>
  <text fill="#333" font-family="Arial, Helvetica, sans-serif" font-size="13" text-anchor="end" x="90" y="192">2</text>
  <rect fill="#f1f1f1" height="18" stroke="#333" stroke-width="1.5" width="420" x="650" y="178"/>
  <rect fill="#cccccc" height="18" stroke="none" width="12" x="854.0" y="178"/>
  <rect fill="#2ca02c" height="18" opacity="0.35" stroke="none" width="61.50876193901683" x="868.5341054305231" y="178"/>
  <text fill="#333" font-family="Arial, Helvetica, sans-serif" font-size="13" text-anchor="end" x="620" y="192">14</text>
  <rect fill="#f1f1f1" height="18" stroke="#333" stroke-width="1.5" width="420" x="120" y="216"/>
  <rect fill="#cccccc" height="18" stroke="none" width="12" x="324.0" y="216"/>
  <rect fill="#ffbb78" height="18" opacity="0.35" stroke="none" width="43.837108552770125" x="400.4675514549352" y="216"/>
  <text fill="#333" font-family="Arial, Helvetica, sans-serif" font-size="13" text-anchor="end" x="90" y="230">3</text>
  <rect fill="#f1f1f1" height="18" stroke="#333" stroke-width="1.5" width="420" x="650" y="216"/>
  <rect fill="#cccccc" height="18" stroke="none" width="12" x="854.0" y="216"/>
  <rect fill="#9467bd" height="18" opacity="0.35" stroke="none" width="54.40199997483759" x="723.8849800262642" y="216"/>
  <text fill="#333" font-family="Arial, Helvetica, sans-serif" font-size="13" text-anchor="end" x="620" y="230">15</text>
  <rect fill="#f1f1f1" height="18" stroke="#333" stroke-width="1.5" width="420" x="120" y="254"/>
  <rect fill="#cccccc" height="18" stroke="none" width="12" x="324.0" y="254"/>
  <rect fill="#ffbb78" height="18" opacity="0.35" stroke="none" width="29.497246130127834" x="335.80717369607953" y="254"/>
  <rect fill="#9467bd" height="18" opacity="0.35" stroke="none" width="71.31283405761722" x="475.826298699711" y="254"/>
  <rect fill="#2ca02c" height="18" opacity="0.35" stroke="none" width="75.09184658592697" x="395.9467512468431" y="254"/>
  <text fill="#333" font-family="Arial, Helvetica, sans-serif" font-size="13" text-anchor="end" x="90" y="268">4</text>
  <rect fill="#f1f1f1" height="18" stroke="#333" stroke-width="1.5" width="420" x="650" y="254"/>
  <rect fill="#cccccc" height="18" stroke="none" width="12" x="854.0" y="254"/>
  <rect fill="#2ca02c" height="18" opacity="0.35" stroke="none" width="40.27574521838198" x="978.467601539543" y="254"/>
  <rect fill="#ffbb78" height="18" opacity="0.35" stroke="none" width="41.037043877852796" x="681.3764607624175" y="254"/>
  <rect fill="#d62728" height="18" opacity="0.35" stroke="none" width="51.481979854552335" x="947.972136811479" y="254"/>
  <text fill="#333" font-family="Arial, Helvetica, sans-serif" font-size="13" text-anchor="end" x="620" y="268">16</text>
  <rect fill="#f1f1f1" height="18" stroke="#333" stroke-width="1.5" width="420" x="120" y="292"/>
  <rect fill="#cccccc" height="18" stroke="none" width="12" x="324.0" y="292"/>
  <rect fill="#2ca02c" height="18" opacity="0.35" stroke="none" width="69.11489628269415" x="224.5968011059643" y="292"/>
  <rect fill="#d62728" height="18" opacity="0.35" stroke="none" width="25.245591382497683" x="461.0441615750051" y="292"/>
  <text fill="#333" font-family="Arial, Helvetica, sans-serif" font-size="13" text-anchor="end" x="90" y="306">5</text>
  <rect fill="#f1f1f1" height="18" stroke="#333" stroke-width="1.5" width="420" x="650" y="292"/>
  <rect fill="#cccccc" height="18" stroke="none" width="12" x="854.0" y="292"/>
  <rect fill="#9467bd" height="18" opacity="0.35" stroke="none" width="40.04689973598367" x="838.644861139783" y="292"/>
  <rect fill="#d62728" height="18" opacity="0.35" stroke="none" width="70.15838914637777" x="993.2998528953964" y="292"/>
  <rect fill="#9467bd" height="18" opacity="0.35" stroke="none" width="72.36025020805124" x="992.8922700418157" y="292"/>
  <text fill="#333" font-family="Arial, Helvetica, sans-serif" font-size="13" text-anchor="end" x="620" y="306">17</text>
  <rect fill="#f1f1f1" height="18" stroke="#333" stroke-width="1.5" width="420" x="120" y="330"/>
  <rect fill="#cccccc" height="18" stroke="none" width="12" x="324.0" y="330"/>
  <rect fill="#9467bd" height="18" opacity="0.35" stroke="none" width="37.4691688751503" x="258.3541332802246" y="330"/>
  <text fill="#333" font-family="Arial, Helvetica, sans-serif" font-size="13" text-anchor="end" x="90" y="344">6</text>
  <rect fill="#f1f1f1" height="18" stroke="#333" stroke-width="1.5" width="420" x="650" y="330"/>
  <rect fill="#cccccc" height="18" stroke="none" width="12" x="854.0" y="330"/>
  <rect fill="#d62728" height="18" opacity="0.35" stroke="none" width="59.56997380794961" x="1023.9434956742679" y="330"/>
  <rect fill="#9467bd" height="18" opacity="0.35" stroke="none" width="32.30136196683894" x="861.0749620093965" y="330"/>
  <rect fill="#2ca02c" height="18" opacity="0.35" stroke="none" width="38.2415964113971" x="880.1140973305347" y="330"/>
  <text fill="#333" font-family="Arial, Helvetica, sans-serif" font-size="13" text-anchor="end" x="620" y="344">18</text>
  <rect fill="#f1f1f1" height="18" stroke="#333" stroke-width="1.5" width="420" x="120" y="368"/>
  <rect fill="#cccccc" height="18" stroke="none" width="12" x="324.0" y="368"/>
  <rect fill="#ffbb78" height="18" opacity="0.35" stroke="none" width="71.39267970489593" x="399.0635026530218" y="368"/>
  <text fill="#333" font-family="Arial, Helvetica, sans-serif" font-size="13" text-anchor="end" x="90" y="382">7</text>
  <rect fill="#f1f1f1" height="18" stroke="#333" stroke-width="1.5" width="420" x="650" y="368"/>
  <rect fill="#cccccc" height="18" stroke="none" width="12" x="854.0" y="368"/>
  <rect fill="#ffbb78" height="18" opacity="0.35" stroke="none" width="68.71029318204215" x="748.3876919368361" y="368"/>
  <rect fill="#d62728" height="18" opacity="0.35" stroke="none" width="33.282036893533586" x="813.3612101850864" y="368"/>
  <text fill="#333" font-family="Arial, Helvetica, sans-serif" font-size="13" text-anchor="end" x="620" y="382">19</text>
  <rect fill="#f1f1f1" height="18" stroke="#333" stroke-width="1.5" width="420" x="120" y="406"/>
  <rect fill="#cccccc" height="18" stroke="none" width="12" x="324.0" y="406"/>
  <rect fill="#2ca02c" height="18" opacity="0.35" stroke="none" width="36.71172936664855" x="299.5336915099323" y="406"/>
  <text fill="#333" font-family="Arial, Helvetica, sans-serif" font-size="13" text-anchor="end" x="90" y="420">8</text>
  <rect fill="#f1f1f1" height="18" stroke="#333" stroke-width="1.5" width="420" x="650" y="406"/>
  <rect fill="#cccccc" height="18" stroke="none" width="12" x="854.0" y="406"/>
  <rect fill="#d62728" height="18" opacity="0.35" stroke="none" width="29.1356488900791" x="919.686957978708" y="406"/>
  <text fill="#333" font-family="Arial, Helvetica, sans-serif" font-size="13" text-anchor="end" x="620" y="420">20</text>
  <rect fill="#f1f1f1" height="18" stroke="#333" stroke-width="1.5" width="420" x="120" y="444"/>
  <rect fill="#cccccc" height="18" stroke="none" width="12" x="324.0" y="444"/>
  <rect fill="#d62728" height="18" opacity="0.35" stroke="none" width="68.39517782198726" x="443.8244898508508" y="444"/>
  <rect fill="#9467bd" height="18" opacity="0.35" stroke="none" width="57.83313021605366" x="326.56876504547574" y="444"/>
  <text fill="#333" font-family="Arial, Helvetica, sans-serif" font-size="13" text-anchor="end" x="90" y="458">9</text>
  <rect fill="#f1f1f1" height="18" stroke="#333" stroke-width="1.5" width="420" x="650" y="444"/>
  <rect fill="#cccccc" height="18" stroke="none" width="12" x="854.0" y="444"/>
  <rect fill="#d62728" height="18" opacity="0.35" stroke="none" width="52.54428731913421" x="966.022120624759" y="444"/>
  <rect fill="#d62728" height="18" opacity="0.35" stroke="none" width="68.279503864728" x="970.0215662738875" y="444"/>
  <text fill="#333" font-family="Arial, Helvetica, sans-serif" font-size="13" text-anchor="end" x="620" y="458">21</text>
  <rect fill="#f1f1f1" height="18" stroke="#333" stroke-width="1.5" width="420" x="120" y="482"/>
  <rect fill="#cccccc" height="18" stroke="none" width="12" x="324.0" y="482"/>
  <rect fill="#d62728" height="18" opacity="0.35" stroke="none" width="73.80010478773146" x="354.1826446338198" y="482"/>
  <rect fill="#ffbb78" height="18" opacity="0.35" stroke="none" width="41.72964395887042" x="360.75055486473843" y="482"/>
  <rect fill="#d62728" height="18" opacity="0.35" stroke="none" width="61.18928486667382" x="165.7625469757826" y="482"/>
  <text fill="#333" font-family="Arial, Helvetica, sans-serif" font-size="13" text-anchor="end" x="90" y="496">10</text>
  <rect fill="#f1f1f1" height="18" stroke="#333" stroke-width="1.5" width="420" x="650" y="482"/>
  <rect fill="#cccccc" height="18" stroke="none" width="12" x="854.0" y="482"/>
  <rect fill="#9467bd" height="18" opacity="0.35" stroke="none" width="58.73705958237745" x="934.1776159394078" y="482"/>
  <rect fill="#9467bd" height="18" opacity="0.35" stroke="none" width="54.22986186719419" x="725.3437584334731" y="482"/>
  <text fill="#333" font-family="Arial, Helvetica, sans-serif" font-size="13" text-anchor="end" x="620" y="496">22</text>
  <rect fill="#f1f1f1" height="18" stroke="#333" stroke-width="1.5" width="420" x="120" y="520"/>
  <rect fill="#cccccc" height="18" stroke="none" width="12" x="324.0" y="520"/>
  <rect fill="#2ca02c" height="18" opacity="0.35" stroke="none" width="46.812390357408944" x="495.6520960952319" y="520"/>
  <rect fill="#2ca02c" height="18" opacity="0.35" stroke="none" width="69.29191858044481" x="239.7800686082955" y="520"/>
  <rect fill="#9467bd" height="18" opacity="0.35" stroke="none" width="40.919303089033484" x="205.071212470356" y="520"/>
  <text fill="#333" font-family="Arial, Helvetica, sans-serif" font-size="13" text-anchor="end" x="90" y="534">11</text>
  <rect fill="#f1f1f1" height="18" stroke="#333" stroke-width="1.5" width="420" x="650" y="520"/>
  <rect fill="#cccccc" height="18" stroke="none" width="12" x="854.0" y="520"/>
  <rect fill="#ffbb78" height="18" opacity="0.35" stroke="none" width="35.9691142531566" x="776.5819247683012" y="520"/>
  <rect fill="#d62728" height="18" opacity="0.35" stroke="none" width="27.313993398854382" x="831.7336909256294" y="520"/>
  <rect fill="#d62728" height="18" opacity="0.35" stroke="none" width="29.96560702566223" x="932.5263229978898" y="520"/>
  <text fill="#333" font-family="Arial, Helvetica, sans-serif" font-size="13" text-anchor="end" x="620" y="534">X</text>
  <rect fill="#f1f1f1" height="18" stroke="#333" stroke-width="1.5" width="420" x="120" y="558"/>
  <rect fill="#cccccc" height="18" stroke="none" width="12" x="324.0" y="558"/>
  <rect fill="#ffbb78" height="18" opacity="0.35" stroke="none" width="45.943678218645815" x="484.8324942020613" y="558"/>
  <text fill="#333" font-family="Arial, Helvetica, sans-serif" font-size="13" text-anchor="end" x="90" y="572">12</text>
  <rect fill="#f1f1f1" height="18" stroke="#333" stroke-width="1.5" width="420" x="650" y="558"/>
  <rect fill="#cccccc" height="18" stroke="none" width="12" x="854.0" y="558"/>
  <rect fill="#9467bd" height="18" opacity="0.35" stroke="none" width="35.07193734907117" x="1003.3901653017656" y="558"/>
  <rect fill="#2ca02c" height="18" opacity="0.35" stroke="none" width="39.073874050414304" x="925.0168814828737" y="558"/>
  <rect fill="#ffbb78" height="18" opacity="0.35" stroke="none" width="29.270092029185825" x="817.6666950926455" y="558"/>
  <text fill="#333" font-family="Arial, Helvetica, sans-serif" font-size="13" text-anchor="end" x="620" y="572">Y</text>
  <path d="M 980,160 L 1045.0,160.0 A 65,65 0 1,1 1018.2060413990107,107.4138953656284 Z" fill="#dddddd" stroke="white" stroke-width="1.5"/>
  <path d="M 980,160 L 1018.2060413990107,107.4138953656284 A 65,65 0 0,1 1032.5861046343716,121.79395860098923 Z" fill="#ffbb78" stroke="white" stroke-width="1.5"/>
  <path d="M 980,160 L 1032.5861046343716,121.79395860098923 A 65,65 0 0,1 1041.818673559185,139.9138953656284 Z" fill="#2ca02c" stroke="white" stroke-width="1.5"/>
  <path d="M 980,160 L 1041.818673559185,139.9138953656284 A 65,65 0 0,1 1045.0,159.99999999999997 Z" fill="#9467bd" stroke="white" stroke-width="1.5"/>
  <text fill="#333" font-family="Arial, Helvetica, sans-serif" font-size="12" text-anchor="middle" x="980" y="255">Genome fraction</text>
  <rect fill="none" height="120" stroke="#999" stroke-width="1.5" width="220" x="930" y="340"/>
  <line stroke="#333" stroke-width="3" x1="948" x2="966" y1="375" y2="375"/>
  <line stroke="#333" stroke-width="3" x1="976" x2="994" y1="375" y2="375"/>
  <line stroke="#333" stroke-width="3" x1="1004" x2="1022" y1="375" y2="375"/>
  <line stroke="#333" stroke-width="3" x1="1032" x2="1050" y1="375" y2="375"/>
  <line stroke="#333" stroke-width="3" x1="1060" x2="1078" y1="375" y2="375"/>
  <line stroke="#333" stroke-width="3" x1="1088" x2="1106" y1="375" y2="375"/>
  <line stroke="#333" stroke-width="3" x1="1116" x2="1134" y1="375" y2="375"/>
  <line stroke="#d62728" stroke-width="4" x1="955" x2="1125" y1="420" y2="420"/>
  <text fill="#333" font-family="Arial, Helvetica, sans-serif" font-size="12" x="945" y="360">short reads</text>
  <text fill="#333" font-family="Arial, Helvetica, sans-serif" font-size="12" x="945" y="450">long read spans region</text>
  <text fill="#999" font-family="Arial, Helvetica, sans-serif" font-size="12" text-anchor="end" x="1140" y="776">Auto-generated SVG</text>
</svg>
