<?xml version="1.0" encoding="utf-8" ?>
<svg xmlns="http://www.w3.org/2000/svg" xmlns:ev="http://www.w3.org/2001/xml-events" xmlns:xlink="http://www.w3.org/1999/xlink" baseProfile="full" height="800" version="1.1" width="1200">
  <defs>
    <marker id="id17" markerHeight="7" markerWidth="7" orient="auto" refX="6" refY="3">
      <path d="M0,0 L0,6 L6,3 z" fill="#333333"/>
    </marker>
  </defs>
  <rect fill="white" height="800" width="1200" x="0" y="0"/>
  <text fill="#111" font-family="Arial, Helvetica, sans-serif" font-size="28" font-weight="700" x="60" y="50">Figure 3.3: Linkage Disequilibrium and Tag-Causal Distinction (Three-Panel)</text>
  <text fill="#444" font-family="Arial, Helvetica, sans-serif" font-size="16" x="60" y="78">Panel B</text>
  <rect fill="#f1f1f1" height="18" stroke="#333" stroke-width="1.5" width="420" x="120" y="140"/>
  <rect fill="#cccccc" height="18" stroke="none" width="12" x="324.0" y="140"/>
  <rect fill="#2ca02c" height="18" opacity="0.35" stroke="none" width="30.203459037632438" x="196.59280065361895" y="140"/>
  <text fill="#333" font-family="Arial, Helvetica, sans-serif" font-size="13" text-anchor="end" x="90" y="154">1</text>
  <rect fill="#f1f1f1" height="18" stroke="#333" stroke-width="1.5" width="420" x="650" y="140"/>
  <rect fill="#cccccc" height="18" stroke="none" width="12" x="854.0" y="140"/>
  <rect fill="#d62728" height="18" opacity="0.35" stroke="none" width="59.03840489667214" x="797.9107862729038" y="140"/>
  <rect fill="#d62728" height="18" opacity="0.35" stroke="none" width="32.95997574290575" x="985.9008218972913" y="140"/>
  <rect fill="#9467bd" height="18" opacity="0.35" stroke="none" width="69.80542253933518" x="903.2203100026503" y="140"/>
  <text fill="#333" font-family="Arial, Helvetica, sans-serif" font-size="13" text-anchor="end" x="620" y="154">13</text>
  <rect fill="#f1f1f1" height="18" stroke="#333" stroke-width="1.5" width="420" x="120" y="178"/>
  <rect fill="#cccccc" height="18" stroke="none" width="12" x="324.0" y="178"/>
  <rect fill="#d62728" height="18" opacity="0.35" stroke="none" width="30.20027668001625" x="392.8001856036217" y="178"/>
  <text fill="#333" font-family="Arial, Helvetica, sans-serif" font-size="13" text-anchor="end" x="90" y="192">2</text>
  <rect fill="#f1f1f1" height="18" stroke="#333" stroke-width="1.5" width="420" x="650" y="178"/>
  <rect fill="#cccccc" height="18" stroke="none" width="12" x="854.0" y="178"/>
  <rect fill="#ffbb78" height="18" opacity="0.35" stroke="none" width="38.240162634128666" x="916.4228432292907" y="178"/>
  <rect fill="#9467bd" height="18" opacity="0.35" stroke="none" width="48.76826028113614" x="947.1180769069608" y="178"/>
  <rect fill="#9467bd" height="18" opacity="0.35" stroke="none" width="46.51894396867175" x="956.6577967549994" y="178"/>
  <text fill="#333" font-family="Arial, Helvetica, sans-serif" font-size="13" text-anchor="end" x="620" y="192">14</text>
  <rect fill="#f1f1f1" height="18" stroke="#333" stroke-width="1.5" width="420" x="120" y="216"/>
  <rect fill="#cccccc" height="18" stroke="none" width="12" x="324.0" y="216"/>
  <rect fill="#2ca02c" height="18" opacity="0.35" stroke="none" width="47.23951428470221" x="205.87799440105422" y="216"/>
  <text fill="#333" font-family="Arial, Helvetica, sans-serif" font-size="13" text-anchor="end" x="90" y="230">3</text>
  <rect fill="#f1f1f1" height="18" stroke="#333" stroke-width="1.5" width="420" x="650" y="216"/>
  <rect fill="#cccccc" height="18" stroke="none" width="12" x="854.0" y="216"/>
  <rect fill="#2ca02c" height="18" opacity="0.35" stroke="none" width="45.25266639958298" x="683.7346708372344" y="216"/>
  <rect fill="#ffbb78" height="18" opacity="0.35" stroke="none" width="38.59819041387533" x="989.0606833186257" y="216"/>
  <rect fill="#9467bd" height="18" opacity="0.35" stroke="none" width="46.668287379342765" x="950.5543805701645" y="216"/>
  <text fill="#333" font-family="Arial, Helvetica, sans-serif" font-size="13" text-anchor="end" x="620" y="230">15</text>
  <rect fill="#f1f1f1" height="18" stroke="#333" stroke-width="1.5" width="420" x="120" y="254"/>
  <rect fill="#cccccc" height="18" stroke="none" width="12" x="324.0" y="254"/>
  <rect fill="#ffbb78" height="18" opacity="0.35" stroke="none" width="27.770540332850402" x="181.53305697210004" y="254"/>
  <text fill="#333" font-family="Arial, Helvetica, sans-serif" font-size="13" text-anchor="end" x="90" y="268">4</text>
  <rect fill="#f1f1f1" height="18" stroke="#333" stroke-width="1.5" width="420" x="650" y="254"/>
  <rect fill="#cccccc" height="18" stroke="none" width="12" x="854.0" y="254"/>
  <rect fill="#9467bd" height="18" opacity="0.35" stroke="none" width="72.0263738184543" x="865.3884219332532" y="254"/>
  <rect fill="#ffbb78" height="18" opacity="0.35" stroke="none" width="45.62581559611308" x="883.7337059200643" y="254"/>
  <text fill="#333" font-family="Arial, Helvetica, sans-serif" font-size="13" text-anchor="end" x="620" y="268">16</text>
  <rect fill="#f1f1f1" height="18" stroke="#333" stroke-width="1.5" width="420" x="120" y="292"/>
  <rect fill="#cccccc" height="18" stroke="none" width="12" x="324.0" y="292"/>
  <rect fill="#ffbb78" height="18" opacity="0.35" stroke="none" width="74.71223146854507" x="406.54441589451164" y="292"/>
  <text fill="#333" font-family="Arial, Helvetica, sans-serif" font-size="13" text-anchor="end" x="90" y="306">5</text>
  <rect fill="#f1f1f1" height="18" stroke="#333" stroke-width="1.5" width="420" x="650" y="292"/>
  <rect fill="#cccccc" height="18" stroke="none" width="12" x="854.0" y="292"/>
  <rect fill="#9467bd" height="18" opacity="0.35" stroke="none" width="48.49678481266076" x="1008.1911684779589" y="292"/>
  <rect fill="#2ca02c" height="18" opacity="0.35" stroke="none" width="44.17281684457203" x="861.5648214328099" y="292"/>
  <text fill="#333" font-family="Arial, Helvetica, sans-serif" font-size="13" text-anchor="end" x="620" y="306">17</text>
  <rect fill="#f1f1f1" height="18" stroke="#333" stroke-width="1.5" width="420" x="120" y="330"/>
  <rect fill="#cccccc" height="18" stroke="none" width="12" x="324.0" y="330"/>
  <rect fill="#2ca02c" height="18" opacity="0.35" stroke="none" width="52.83484614224399" x="224.37442555329966" y="330"/>
  <rect fill="#2ca02c" height="18" opacity="0.35" stroke="none" width="69.04131190469998" x="306.7268431395035" y="330"/>
  <text fill="#333" font-family="Arial, Helvetica, sans-serif" font-size="13" text-anchor="end" x="90" y="344">6</text>
  <rect fill="#f1f1f1" height="18" stroke="#333" stroke-width="1.5" width="420" x="650" y="330"/>
  <rect fill="#cccccc" height="18" stroke="none" width="12" x="854.0" y="330"/>
  <rect fill="#ffbb78" height="18" opacity="0.35" stroke="none" width="53.881741887454886" x="865.2449497576004" y="330"/>
  <text fill="#333" font-family="Arial, Helvetica, sans-serif" font-size="13" text-anchor="end" x="620" y="344">18</text>
  <rect fill="#f1f1f1" height="18" stroke="#333" stroke-width="1.5" width="420" x="120" y="368"/>
  <rect fill="#cccccc" height="18" stroke="none" width="12" x="324.0" y="368"/>
  <rect fill="#d62728" height="18" opacity="0.35" stroke="none" width="40.08285200458242" x="407.780697361221" y="368"/>
  <rect fill="#2ca02c" height="18" opacity="0.35" stroke="none" width="42.78023873069675" x="391.821694317604" y="368"/>
  <rect fill="#d62728" height="18" opacity="0.35" stroke="none" width="29.08682683994262" x="308.1360564653943" y="368"/>
  <text fill="#333" font-family="Arial, Helvetica, sans-serif" font-size="13" text-anchor="end" x="90" y="382">7</text>
  <rect fill="#f1f1f1" height="18" stroke="#333" stroke-width="1.5" width="420" x="650" y="368"/>
  <rect fill="#cccccc" height="18" stroke="none" width="12" x="854.0" y="368"/>
  <rect fill="#d62728" height="18" opacity="0.35" stroke="none" width="28.714533185594437" x="902.6265335427054" y="368"/>
  <rect fill="#2ca02c" height="18" opacity="0.35" stroke="none" width="51.252974201374926" x="760.5776804092061" y="368"/>
  <rect fill="#2ca02c" height="18" opacity="0.35" stroke="none" width="28.84563234966391" x="1025.527110558797" y="368"/>
  <text fill="#333" font-family="Arial, Helvetica, sans-serif" font-size="13" text-anchor="end" x="620" y="382">19</text>
  <rect fill="#f1f1f1" height="18" stroke="#333" stroke-width="1.5" width="420" x="120" y="406"/>
  <rect fill="#cccccc" height="18" stroke="none" width="12" x="324.0" y="406"/>
  <rect fill="#9467bd" height="18" opacity="0.35" stroke="none" width="31.78623904429964" x="435.593454901449" y="406"/>
  <text fill="#333" font-family="Arial, Helvetica, sans-serif" font-size="13" text-anchor="end" x="90" y="420">8</text>
  <rect fill="#f1f1f1" height="18" stroke="#333" stroke-width="1.5" width="420" x="650" y="406"/>
  <rect fill="#cccccc" height="18" stroke="none" width="12" x="854.0" y="406"/>
  <rect fill="#9467bd" height="18" opacity="0.35" stroke="none" width="58.71644701088304" x="796.0192372976808" y="406"/>
  <rect fill="#ffbb78" height="18" opacity="0.35" stroke="none" width="45.10607207295248" x="918.0557919132855" y="406"/>
  <text fill="#333" font-family="Arial, Helvetica, sans-serif" font-size="13" text-anchor="end" x="620" y="420">20</text>
  <rect fill="#f1f1f1" height="18" stroke="#333" stroke-width="1.5" width="420" x="120" y="444"/>
  <rect fill="#cccccc" height="18" stroke="none" width="12" x="324.0" y="444"/>
  <rect fill="#2ca02c" height="18" opacity="0.35" stroke="none" width="33.314896957056796" x="363.34279295152044" y="444"/>
  <rect fill="#9467bd" height="18" opacity="0.35" stroke="none" width="55.38771412147339" x="214.25190911464762" y="444"/>
  <rect fill="#d62728" height="18" opacity="0.35" stroke="none" width="34.781329668054745" x="418.7709553327216" y="444"/>
  <text fill="#333" font-family="Arial, Helvetica, sans-serif" font-size="13" text-anchor="end" x="90" y="458">9</text>
  <rect fill="#f1f1f1" height="18" stroke="#333" stroke-width="1.5" width="420" x="650" y="444"/>
  <rect fill="#cccccc" height="18" stroke="none" width="12" x="854.0" y="444"/>
  <rect fill="#ffbb78" height="18" opacity="0.35" stroke="none" width="72.76146386123331" x="1014.8614103553888" y="444"/>
  <rect fill="#2ca02c" height="18" opacity="0.35" stroke="none" width="50.509162578256145" x="852.9156630404725" y="444"/>
  <text fill="#333" font-family="Arial, Helvetica, sans-serif" font-size="13" text-anchor="end" x="620" y="458">21</text>
  <rect fill="#f1f1f1" height="18" stroke="#333" stroke-width="1.5" width="420" x="120" y="482"/>
  <rect fill="#cccccc" height="18" stroke="none" width="12" x="324.0" y="482"/>
  <rect fill="#ffbb78" height="18" opacity="0.35" stroke="none" width="56.53383741941928" x="306.9411415735741" y="482"/>
  <text fill="#333" font-family="Arial, Helvetica, sans-serif" font-size="13" text-anchor="end" x="90" y="496">10</text>
  <rect fill="#f1f1f1" height="18" stroke="#333" stroke-width="1.5" width="420" x="650" y="482"/>
  <rect fill="#cccccc" height="18" stroke="none" width="12" x="854.0" y="482"/>
  <rect fill="#2ca02c" height="18" opacity="0.35" stroke="none" width="50.23121446198508" x="970.1879500996316" y="482"/>
  <text fill="#333" font-family="Arial, Helvetica, sans-serif" font-size="13" text-anchor="end" x="620" y="496">22</text>
  <rect fill="#f1f1f1" height="18" stroke="#333" stroke-width="1.5" width="420" x="120" y="520"/>
  <rect fill="#cccccc" height="18" stroke="none" width="12" x="324.0" y="520"/>
  <rect fill="#9467bd" height="18" opacity="0.35" stroke="none" width="68.71883742964971" x="156.6825054404049" y="520"/>
  <rect fill="#d62728" height="18" opacity="0.35" stroke="none" width="40.21105426347746" x="481.52448270235584" y="520"/>
  <text fill="#333" font-family="Arial, Helvetica, sans-serif" font-size="13" text-anchor="end" x="90" y="534">11</text>
  <rect fill="#f1f1f1" height="18" stroke="#333" stroke-width="1.5" width="420" x="650" y="520"/>
  <rect fill="#cccccc" height="18" stroke="none" width="12" x="854.0" y="520"/>
  <rect fill="#2ca02c" height="18" opacity="0.35" stroke="none" width="49.056317176873385" x="824.8616109749439" y="520"/>
  <text fill="#333" font-family="Arial, Helvetica, sans-serif" font-size="13" text-anchor="end" x="620" y="534">X</text>
  <rect fill="#f1f1f1" height="18" stroke="#333" stroke-width="1.5" width="420" x="120" y="558"/>
  <rect fill="#cccccc" height="18" stroke="none" width="12" x="324.0" y="558"/>
  <rect fill="#9467bd" height="18" opacity="0.35" stroke="none" width="64.36492309994435" x="443.05760908826016" y="558"/>
  <text fill="#333" font-family="Arial, Helvetica, sans-serif" font-size="13" text-anchor="end" x="90" y="572">12</text>
  <rect fill="#f1f1f1" height="18" stroke="#333" stroke-width="1.5" width="420" x="650" y="558"/>
  <rect fill="#cccccc" height="18" stroke="none" width="12" x="854.0" y="558"/>
  <rect fill="#9467bd" height="18" opacity="0.35" stroke="none" width="55.448368411948024" x="987.4455092253787" y="558"/>
  <rect fill="#ffbb78" height="18" opacity="0.35" stroke="none" width="69.31129570772245" x="796.047084780228" y="558"/>
  <text fill="#333" font-family="Arial, Helvetica, sans-serif" font-size="13" text-anchor="end" x="620" y="572">Y</text>
  <path d="M 980,160 L 1045.0,160.0 A 65,65 0 1,1 1018.2060413990107,107.4138953656284 Z" fill="#dddddd" stroke="white" stroke-width="1.5"/>
  <path d="M 980,160 L 1018.2060413990107,107.4138953656284 A 65,65 0 0,1 1032.5861046343716,121.79395860098923 Z" fill="#ffbb78" stroke="white" stroke-width="1.5"/>
  <path d="M 980,160 L 1032.5861046343716,121.79395860098923 A 65,65 0 0,1 1041.818673559185,139.9138953656284 Z" fill="#2ca02c" stroke="white" stroke-width="1.5"/>
  <path d="M 980,160 L 1041.818673559185,139.9138953656284 A 65,65 0 0,1 1045.0,159.99999999999997 Z" fill="#9467bd" stroke="white" stroke-width="1.5"/>
  <text fill="#333" font-family="Arial, Helvetica, sans-serif" font-size="12" text-anchor="middle" x="980" y="255">Genome fraction</text>
  <rect fill="none" height="120" stroke="#999" stroke-width="1.5" width="220" x="930" y="340"/>
  <line stroke="#333" stroke-width="3" x1="948" x2="966" y1="375" y2="375"/>
  <line stroke="#333" stroke-width="3" x1="976" x2="994" y1="375" y2="375"/>
  <line stroke="#333" stroke-width="3" x1="1004" x2="1022" y1="375" y2="375"/>
  <line stroke="#333" stroke-width="3" x1="1032" x2="1050" y1="375" y2="375"/>
  <line stroke="#333" stroke-width="3" x1="1060" x2="1078" y1="375" y2="375"/>
  <line stroke="#333" stroke-width="3" x1="1088" x2="1106" y1="375" y2="375"/>
  <line stroke="#333" stroke-width="3" x1="1116" x2="1134" y1="375" y2="375"/>
  <line stroke="#d62728" stroke-width="4" x1="955" x2="1125" y1="420" y2="420"/>
  <text fill="#333" font-family="Arial, Helvetica, sans-serif" font-size="12" x="945" y="360">short reads</text>
  <text fill="#333" font-family="Arial, Helvetica, sans-serif" font-size="12" x="945" y="450">long read spans region</text>
  <text fill="#999" font-family="Arial, Helvetica, sans-serif" font-size="12" text-anchor="end" x="1140" y="776">Auto-generated SVG</text>
</svg>
