<?xml version="1.0" encoding="utf-8" ?>
<svg xmlns="http://www.w3.org/2000/svg" xmlns:ev="http://www.w3.org/2001/xml-events" xmlns:xlink="http://www.w3.org/1999/xlink" baseProfile="full" height="800" version="1.1" width="1200">
  <defs>
    <marker id="id20" markerHeight="7" markerWidth="7" orient="auto" refX="6" refY="3">
      <path d="M0,0 L0,6 L6,3 z" fill="#333333"/>
    </marker>
  </defs>
  <rect fill="white" height="800" width="1200" x="0" y="0"/>
  <text fill="#111" font-family="Arial, Helvetica, sans-serif" font-size="28" font-weight="700" x="60" y="50">Figure 3.4: Polygenic Score Construction (Two-Panel)</text>
  <text fill="#444" font-family="Arial, Helvetica, sans-serif" font-size="16" x="60" y="78">Panel B</text>
  <line stroke="#333" stroke-width="2" x1="140" x2="1000" y1="720" y2="720"/>
  <line stroke="#333" stroke-width="2" x1="140" x2="140" y1="160" y2="720"/>
  <circle cx="256.1275074417309" cy="533.3034821629645" fill="#2ca02c" opacity="0.75" r="4"/>
  <circle cx="387.88896403771145" cy="557.8328977908827" fill="#1f77b4" opacity="0.75" r="4"/>
  <circle cx="503.7030227017759" cy="534.69905099158" fill="#1f77b4" opacity="0.75" r="4"/>
  <circle cx="401.497243368427" cy="450.8135945938462" fill="#1f77b4" opacity="0.75" r="4"/>
  <circle cx="263.73330873976226" cy="584.4899440567538" fill="#1f77b4" opacity="0.75" r="4"/>
  <circle cx="377.16928408983756" cy="530.4521079063596" fill="#2ca02c" opacity="0.75" r="4"/>
  <circle cx="324.0166388031157" cy="550.1877717689465" fill="#1f77b4" opacity="0.75" r="4"/>
  <circle cx="429.3508320447544" cy="486.4385472588672" fill="#2ca02c" opacity="0.75" r="4"/>
  <circle cx="234.41526241680504" cy="557.822752536925" fill="#1f77b4" opacity="0.75" r="4"/>
  <circle cx="457.92487298873175" cy="523.1205037695922" fill="#2ca02c" opacity="0.75" r="4"/>
  <circle cx="605.602697766703" cy="544.6051524589741" fill="#2ca02c" opacity="0.75" r="4"/>
  <circle cx="457.7382055099935" cy="457.1574790237847" fill="#1f77b4" opacity="0.75" r="4"/>
  <circle cx="390.0473611473182" cy="465.13801601139687" fill="#2ca02c" opacity="0.75" r="4"/>
  <circle cx="448.44092788931096" cy="515.9210359181016" fill="#2ca02c" opacity="0.75" r="4"/>
  <circle cx="447.11299241907057" cy="546.8627455367829" fill="#ff7f0e" opacity="0.75" r="4"/>
  <circle cx="374.94255061480266" cy="578.0569130721481" fill="#ff7f0e" opacity="0.75" r="4"/>
  <circle cx="315.0245770484025" cy="491.42700114641457" fill="#1f77b4" opacity="0.75" r="4"/>
  <circle cx="450.9908815435849" cy="448.71400446369313" fill="#2ca02c" opacity="0.75" r="4"/>
  <circle cx="447.4237048550366" cy="497.5147260748152" fill="#1f77b4" opacity="0.75" r="4"/>
  <circle cx="451.73294770056805" cy="612.4082255741039" fill="#2ca02c" opacity="0.75" r="4"/>
  <circle cx="511.890890775464" cy="469.3501073920623" fill="#ff7f0e" opacity="0.75" r="4"/>
  <circle cx="281.1452787651151" cy="538.7858453636745" fill="#1f77b4" opacity="0.75" r="4"/>
  <circle cx="439.56035582355946" cy="531.8025541881432" fill="#2ca02c" opacity="0.75" r="4"/>
  <circle cx="242.02383185424168" cy="426.2142781102175" fill="#ff7f0e" opacity="0.75" r="4"/>
  <circle cx="466.8514827742243" cy="531.1529551889619" fill="#ff7f0e" opacity="0.75" r="4"/>
  <circle cx="488.1891886733051" cy="607.6194271644599" fill="#2ca02c" opacity="0.75" r="4"/>
  <circle cx="438.2361973655825" cy="600.5925092578526" fill="#ff7f0e" opacity="0.75" r="4"/>
  <circle cx="429.5128859503505" cy="516.0360239958475" fill="#2ca02c" opacity="0.75" r="4"/>
  <circle cx="252.09381508957222" cy="545.3108355108533" fill="#2ca02c" opacity="0.75" r="4"/>
  <circle cx="397.08784652059103" cy="506.5423843945364" fill="#2ca02c" opacity="0.75" r="4"/>
  <circle cx="382.15304840481" cy="507.3711067392012" fill="#1f77b4" opacity="0.75" r="4"/>
  <circle cx="286.34740560228596" cy="608.8124091897369" fill="#2ca02c" opacity="0.75" r="4"/>
  <circle cx="351.81556528169995" cy="514.4049215565224" fill="#ff7f0e" opacity="0.75" r="4"/>
  <circle cx="330.7859445799646" cy="490.3982296729052" fill="#ff7f0e" opacity="0.75" r="4"/>
  <circle cx="426.80025195818035" cy="539.6847164865196" fill="#2ca02c" opacity="0.75" r="4"/>
  <circle cx="453.74625255744763" cy="496.159483539644" fill="#ff7f0e" opacity="0.75" r="4"/>
  <circle cx="414.24174676381386" cy="520.7749809308135" fill="#1f77b4" opacity="0.75" r="4"/>
  <circle cx="334.69889358159844" cy="518.9294595621661" fill="#ff7f0e" opacity="0.75" r="4"/>
  <circle cx="451.61407602495154" cy="443.2029424774657" fill="#2ca02c" opacity="0.75" r="4"/>
  <circle cx="347.76321711437674" cy="531.3280931827862" fill="#ff7f0e" opacity="0.75" r="4"/>
  <circle cx="524.3698095527067" cy="567.798157065839" fill="#ff7f0e" opacity="0.75" r="4"/>
  <circle cx="334.3087651063288" cy="484.90625102045203" fill="#ff7f0e" opacity="0.75" r="4"/>
  <circle cx="467.7001579971062" cy="547.8743389026031" fill="#2ca02c" opacity="0.75" r="4"/>
  <circle cx="341.3317435337922" cy="543.9345708813842" fill="#2ca02c" opacity="0.75" r="4"/>
  <circle cx="458.1247023519397" cy="554.5145312916945" fill="#1f77b4" opacity="0.75" r="4"/>
  <circle cx="405.22441681081267" cy="548.4512802793679" fill="#2ca02c" opacity="0.75" r="4"/>
  <circle cx="352.60123106244146" cy="468.77527736131265" fill="#1f77b4" opacity="0.75" r="4"/>
  <circle cx="468.7008843759121" cy="512.6339458539312" fill="#1f77b4" opacity="0.75" r="4"/>
  <circle cx="484.699246233587" cy="557.2105089940299" fill="#2ca02c" opacity="0.75" r="4"/>
  <circle cx="396.90688847025996" cy="552.3703120841872" fill="#1f77b4" opacity="0.75" r="4"/>
  <circle cx="481.6537127621115" cy="491.09971226449557" fill="#ff7f0e" opacity="0.75" r="4"/>
  <circle cx="399.02719231317315" cy="493.3524790925416" fill="#2ca02c" opacity="0.75" r="4"/>
  <circle cx="388.7384346745573" cy="607.6246551158188" fill="#2ca02c" opacity="0.75" r="4"/>
  <circle cx="391.6890553419166" cy="548.6941724884723" fill="#2ca02c" opacity="0.75" r="4"/>
  <circle cx="489.1245579403084" cy="545.5781846242403" fill="#1f77b4" opacity="0.75" r="4"/>
  <circle cx="757.535496109197" cy="344.9105563509685" fill="#ff7f0e" opacity="0.75" r="4"/>
  <circle cx="487.0655300878834" cy="497.28415424369024" fill="#2ca02c" opacity="0.75" r="4"/>
  <circle cx="661.1937810393862" cy="377.4803153041587" fill="#1f77b4" opacity="0.75" r="4"/>
  <circle cx="734.5530825300996" cy="407.8833444578114" fill="#2ca02c" opacity="0.75" r="4"/>
  <circle cx="759.9785001678345" cy="328.70796511668334" fill="#2ca02c" opacity="0.75" r="4"/>
  <circle cx="685.6696429985288" cy="443.1014168073632" fill="#2ca02c" opacity="0.75" r="4"/>
  <circle cx="546.7456099655521" cy="439.1830584661697" fill="#1f77b4" opacity="0.75" r="4"/>
  <circle cx="675.7480175004883" cy="377.5187415273026" fill="#ff7f0e" opacity="0.75" r="4"/>
  <circle cx="732.4692214899898" cy="426.54669978644574" fill="#ff7f0e" opacity="0.75" r="4"/>
  <circle cx="740.1220045307902" cy="356.8394158575586" fill="#ff7f0e" opacity="0.75" r="4"/>
  <circle cx="501.80922339433" cy="390.9731302318982" fill="#2ca02c" opacity="0.75" r="4"/>
  <circle cx="481.53011200037724" cy="420.3416676892835" fill="#ff7f0e" opacity="0.75" r="4"/>
  <circle cx="751.3928432587456" cy="448.81036154227473" fill="#2ca02c" opacity="0.75" r="4"/>
  <circle cx="657.2939052853206" cy="416.2587716045525" fill="#2ca02c" opacity="0.75" r="4"/>
  <circle cx="545.9647182163137" cy="388.87011452107726" fill="#1f77b4" opacity="0.75" r="4"/>
  <circle cx="626.9898011052649" cy="373.59261252365565" fill="#2ca02c" opacity="0.75" r="4"/>
  <circle cx="656.8977309673836" cy="340.69414513229697" fill="#ff7f0e" opacity="0.75" r="4"/>
  <circle cx="666.3228968734476" cy="447.8518830893016" fill="#2ca02c" opacity="0.75" r="4"/>
  <circle cx="877.2992192645863" cy="360.7592283898144" fill="#2ca02c" opacity="0.75" r="4"/>
  <circle cx="619.3027497260696" cy="349.36298783752954" fill="#2ca02c" opacity="0.75" r="4"/>
  <circle cx="658.1682224395199" cy="480.2396107549391" fill="#ff7f0e" opacity="0.75" r="4"/>
  <circle cx="599.9341972199105" cy="338.9321848319748" fill="#1f77b4" opacity="0.75" r="4"/>
  <circle cx="732.849967006403" cy="419.95710818739866" fill="#ff7f0e" opacity="0.75" r="4"/>
  <circle cx="493.0324391795657" cy="454.571343813273" fill="#2ca02c" opacity="0.75" r="4"/>
  <circle cx="634.919142612034" cy="385.3362625855218" fill="#1f77b4" opacity="0.75" r="4"/>
  <circle cx="700.2912043517928" cy="417.335080462154" fill="#1f77b4" opacity="0.75" r="4"/>
  <circle cx="678.5017105412198" cy="395.8787279228666" fill="#ff7f0e" opacity="0.75" r="4"/>
  <circle cx="610.2431456271088" cy="405.22338189617096" fill="#2ca02c" opacity="0.75" r="4"/>
  <circle cx="570.9842183882936" cy="420.37271030580075" fill="#2ca02c" opacity="0.75" r="4"/>
  <circle cx="701.4182697335938" cy="432.2956070765956" fill="#ff7f0e" opacity="0.75" r="4"/>
  <circle cx="657.621667186002" cy="441.29424304557347" fill="#1f77b4" opacity="0.75" r="4"/>
  <circle cx="640.4469729204811" cy="320.0490269024484" fill="#1f77b4" opacity="0.75" r="4"/>
  <circle cx="660.3681970460813" cy="377.4077153172062" fill="#1f77b4" opacity="0.75" r="4"/>
  <circle cx="509.2396106438522" cy="307.86565923532885" fill="#2ca02c" opacity="0.75" r="4"/>
  <circle cx="759.7146850154526" cy="497.3618319883658" fill="#ff7f0e" opacity="0.75" r="4"/>
  <circle cx="727.6992200018642" cy="453.8935608934348" fill="#2ca02c" opacity="0.75" r="4"/>
  <circle cx="748.5548332221051" cy="383.156674629445" fill="#2ca02c" opacity="0.75" r="4"/>
  <circle cx="828.5278407498005" cy="455.20842600045887" fill="#ff7f0e" opacity="0.75" r="4"/>
  <circle cx="591.6199067895182" cy="342.11840766443106" fill="#1f77b4" opacity="0.75" r="4"/>
  <circle cx="638.3195580780151" cy="461.8310209293123" fill="#ff7f0e" opacity="0.75" r="4"/>
  <circle cx="746.2092374765086" cy="431.1207735563849" fill="#ff7f0e" opacity="0.75" r="4"/>
  <circle cx="629.5426410159753" cy="462.57192704822654" fill="#ff7f0e" opacity="0.75" r="4"/>
  <circle cx="712.0780475501318" cy="489.312651702796" fill="#2ca02c" opacity="0.75" r="4"/>
  <circle cx="628.1373192828398" cy="446.9415363518932" fill="#1f77b4" opacity="0.75" r="4"/>
  <circle cx="699.5603884305153" cy="466.16139412215773" fill="#ff7f0e" opacity="0.75" r="4"/>
  <circle cx="537.5416043036166" cy="593.8541571621387" fill="#2ca02c" opacity="0.75" r="4"/>
  <circle cx="659.7617905499767" cy="420.0580203697795" fill="#2ca02c" opacity="0.75" r="4"/>
  <circle cx="742.0052713348292" cy="385.0798131244619" fill="#ff7f0e" opacity="0.75" r="4"/>
  <circle cx="559.6316523872905" cy="440.1059550611401" fill="#2ca02c" opacity="0.75" r="4"/>
  <circle cx="703.8860983732932" cy="396.3908361334742" fill="#2ca02c" opacity="0.75" r="4"/>
  <circle cx="672.7585458545142" cy="468.19295534795083" fill="#ff7f0e" opacity="0.75" r="4"/>
  <circle cx="692.51863511758" cy="390.15903158422793" fill="#ff7f0e" opacity="0.75" r="4"/>
  <circle cx="615.00132000033" cy="478.7209811137149" fill="#1f77b4" opacity="0.75" r="4"/>
  <circle cx="610.1464628329156" cy="360.57016936577867" fill="#ff7f0e" opacity="0.75" r="4"/>
  <circle cx="643.0023444924554" cy="428.02082001578486" fill="#2ca02c" opacity="0.75" r="4"/>
  <circle cx="462.52249745766517" cy="591.2499969435654" fill="#2ca02c" opacity="0.75" r="4"/>
  <circle cx="582.4000407883125" cy="537.2943376044228" fill="#2ca02c" opacity="0.75" r="4"/>
  <circle cx="490.8679286406334" cy="633.90798059131" fill="#2ca02c" opacity="0.75" r="4"/>
  <circle cx="504.9088099337465" cy="546.9435635580069" fill="#1f77b4" opacity="0.75" r="4"/>
  <circle cx="427.9086983585123" cy="588.3464984441176" fill="#ff7f0e" opacity="0.75" r="4"/>
  <circle cx="481.7180283062866" cy="559.1265140687217" fill="#1f77b4" opacity="0.75" r="4"/>
  <circle cx="512.552727773556" cy="657.4487027539916" fill="#2ca02c" opacity="0.75" r="4"/>
  <circle cx="468.08476206680837" cy="505.6158185414256" fill="#2ca02c" opacity="0.75" r="4"/>
  <circle cx="569.9673472689092" cy="610.0140635763398" fill="#1f77b4" opacity="0.75" r="4"/>
  <circle cx="483.26566783954763" cy="536.9873428550031" fill="#1f77b4" opacity="0.75" r="4"/>
  <circle cx="477.3935098887766" cy="611.7443562766668" fill="#1f77b4" opacity="0.75" r="4"/>
  <circle cx="547.9746584760019" cy="596.2410859089769" fill="#ff7f0e" opacity="0.75" r="4"/>
  <circle cx="523.8349443963236" cy="545.2293106844544" fill="#2ca02c" opacity="0.75" r="4"/>
  <circle cx="521.6042610120294" cy="575.508428068686" fill="#1f77b4" opacity="0.75" r="4"/>
  <circle cx="552.1526490837839" cy="592.4004570201398" fill="#ff7f0e" opacity="0.75" r="4"/>
  <circle cx="509.130586318745" cy="540.2265180269184" fill="#2ca02c" opacity="0.75" r="4"/>
  <circle cx="528.5484168808873" cy="604.650230853809" fill="#1f77b4" opacity="0.75" r="4"/>
  <circle cx="495.9902070083205" cy="555.1490128788305" fill="#2ca02c" opacity="0.75" r="4"/>
  <circle cx="308.5916052826695" cy="545.4948036377248" fill="#1f77b4" opacity="0.75" r="4"/>
  <circle cx="670.8015309550432" cy="604.5276834018623" fill="#1f77b4" opacity="0.75" r="4"/>
  <circle cx="546.5260075824742" cy="626.7140677924305" fill="#2ca02c" opacity="0.75" r="4"/>
  <circle cx="499.2648827128512" cy="656.12964874301" fill="#ff7f0e" opacity="0.75" r="4"/>
  <circle cx="595.305634544769" cy="638.2937466120662" fill="#1f77b4" opacity="0.75" r="4"/>
  <circle cx="575.1952867102327" cy="679.6897999803847" fill="#1f77b4" opacity="0.75" r="4"/>
  <circle cx="501.0668731952866" cy="587.1747303930949" fill="#ff7f0e" opacity="0.75" r="4"/>
  <circle cx="498.13556302251567" cy="600.500731331822" fill="#1f77b4" opacity="0.75" r="4"/>
  <circle cx="575.575235700629" cy="579.9874716324725" fill="#2ca02c" opacity="0.75" r="4"/>
  <circle cx="617.02908776508" cy="597.4182114734249" fill="#ff7f0e" opacity="0.75" r="4"/>
  <circle cx="567.6678694167015" cy="541.7932592803194" fill="#2ca02c" opacity="0.75" r="4"/>
  <circle cx="422.4544889759512" cy="551.0599883122065" fill="#2ca02c" opacity="0.75" r="4"/>
  <circle cx="528.1271809092477" cy="587.6421708587457" fill="#2ca02c" opacity="0.75" r="4"/>
  <circle cx="573.759722861367" cy="567.8056254385706" fill="#2ca02c" opacity="0.75" r="4"/>
  <circle cx="501.0483908919595" cy="593.4562905627317" fill="#2ca02c" opacity="0.75" r="4"/>
  <circle cx="590.5709767682149" cy="601.7553162497711" fill="#2ca02c" opacity="0.75" r="4"/>
  <circle cx="549.7364806247175" cy="533.2218220216919" fill="#1f77b4" opacity="0.75" r="4"/>
  <circle cx="620.2334726483218" cy="647.3982272664887" fill="#ff7f0e" opacity="0.75" r="4"/>
  <circle cx="610.3862025411267" cy="559.5333161852824" fill="#2ca02c" opacity="0.75" r="4"/>
  <circle cx="505.41526360809394" cy="546.4890658984593" fill="#2ca02c" opacity="0.75" r="4"/>
  <circle cx="526.8530911617593" cy="529.2270192643323" fill="#1f77b4" opacity="0.75" r="4"/>
  <circle cx="633.083630269212" cy="612.9574495942556" fill="#1f77b4" opacity="0.75" r="4"/>
  <circle cx="500.17078932268606" cy="578.5355453554484" fill="#ff7f0e" opacity="0.75" r="4"/>
  <circle cx="594.3447138789456" cy="615.0081545321566" fill="#ff7f0e" opacity="0.75" r="4"/>
  <circle cx="503.70840585447155" cy="549.0790330172671" fill="#1f77b4" opacity="0.75" r="4"/>
  <circle cx="445.7303528197274" cy="570.8879114724627" fill="#1f77b4" opacity="0.75" r="4"/>
  <circle cx="482.5138402589515" cy="581.5778201544382" fill="#2ca02c" opacity="0.75" r="4"/>
  <circle cx="509.2898446430874" cy="491.461811818477" fill="#1f77b4" opacity="0.75" r="4"/>
  <circle cx="550.6220825192172" cy="573.5769002388806" fill="#ff7f0e" opacity="0.75" r="4"/>
  <circle cx="567.0770022245752" cy="617.4860074428311" fill="#ff7f0e" opacity="0.75" r="4"/>
  <circle cx="524.160430198325" cy="589.9688383770103" fill="#2ca02c" opacity="0.75" r="4"/>
  <circle cx="637.8248192986662" cy="569.2797420656718" fill="#2ca02c" opacity="0.75" r="4"/>
  <circle cx="471.97468276019873" cy="631.9889577407921" fill="#1f77b4" opacity="0.75" r="4"/>
  <circle cx="489.92158770495234" cy="603.138520638319" fill="#2ca02c" opacity="0.75" r="4"/>
  <circle cx="539.2538815656767" cy="516.175110740578" fill="#ff7f0e" opacity="0.75" r="4"/>
  <circle cx="580.3561232664299" cy="510.0766424069268" fill="#1f77b4" opacity="0.75" r="4"/>
  <circle cx="509.0372234114554" cy="528.9083374502126" fill="#1f77b4" opacity="0.75" r="4"/>
  <circle cx="914.0" cy="244.0" fill="#d62728" opacity="0.9" r="7"/>
  <text fill="#333" font-family="Arial, Helvetica, sans-serif" font-size="16" text-anchor="middle" x="570.0" y="765">Dimension 1</text>
  <text fill="#333" font-family="Arial, Helvetica, sans-serif" font-size="16" text-anchor="middle" transform="rotate(-90,85,440.0)" x="85" y="440.0">Dimension 2</text>
  <text fill="#999" font-family="Arial, Helvetica, sans-serif" font-size="12" text-anchor="end" x="1140" y="776">Auto-generated SVG</text>
</svg>
