<?xml version="1.0" encoding="utf-8" ?>
<svg xmlns="http://www.w3.org/2000/svg" xmlns:ev="http://www.w3.org/2001/xml-events" xmlns:xlink="http://www.w3.org/1999/xlink" baseProfile="full" height="800" version="1.1" width="1200">
  <defs>
    <marker id="id21" markerHeight="7" markerWidth="7" orient="auto" refX="6" refY="3">
      <path d="M0,0 L0,6 L6,3 z" fill="#333333"/>
    </marker>
  </defs>
  <rect fill="white" height="800" width="1200" x="0" y="0"/>
  <text fill="#111" font-family="Arial, Helvetica, sans-serif" font-size="28" font-weight="700" x="60" y="50">Figure 3.5: Polygenic Score Portability</text>
  <line stroke="#333" stroke-width="2" x1="140" x2="1040" y1="690" y2="690"/>
  <line stroke="#333" stroke-width="2" x1="140" x2="140" y1="170" y2="690"/>
  <rect fill="#1f77b4" height="77.05804655986122" stroke="white" stroke-width="1" width="120.0" x="200.0" y="612.9419534401388"/>
  <rect fill="#ff7f0e" height="130.89077892121364" stroke="white" stroke-width="1" width="120.0" x="200.0" y="482.0511745189252"/>
  <rect fill="#2ca02c" height="111.37832697899853" stroke="white" stroke-width="1" width="120.0" x="200.0" y="370.6728475399267"/>
  <rect fill="#9467bd" height="87.65001929011075" stroke="white" stroke-width="1" width="120.0" x="200.0" y="283.0228282498159"/>
  <rect fill="#8c564b" height="113.0228282498159" stroke="white" stroke-width="1" width="120.0" x="200.0" y="170.0"/>
  <text fill="#333" font-family="Arial, Helvetica, sans-serif" font-size="14" text-anchor="middle" x="260.0" y="720">Resource 1</text>
  <rect fill="#1f77b4" height="58.3849979672783" stroke="white" stroke-width="1" width="120.0" x="380.0" y="631.6150020327217"/>
  <rect fill="#ff7f0e" height="70.21514400392432" stroke="white" stroke-width="1" width="120.0" x="380.0" y="561.3998580287973"/>
  <rect fill="#2ca02c" height="140.09173498010108" stroke="white" stroke-width="1" width="120.0" x="380.0" y="421.30812304869625"/>
  <rect fill="#9467bd" height="117.96973184979356" stroke="white" stroke-width="1" width="120.0" x="380.0" y="303.3383911989027"/>
  <rect fill="#8c564b" height="133.33839119890274" stroke="white" stroke-width="1" width="120.0" x="380.0" y="169.99999999999994"/>
  <text fill="#333" font-family="Arial, Helvetica, sans-serif" font-size="14" text-anchor="middle" x="440.0" y="720">Resource 2</text>
  <rect fill="#1f77b4" height="116.23426171775566" stroke="white" stroke-width="1" width="120.0" x="560.0" y="573.7657382822443"/>
  <rect fill="#ff7f0e" height="120.9022556917674" stroke="white" stroke-width="1" width="120.0" x="560.0" y="452.86348259047696"/>
  <rect fill="#2ca02c" height="81.76525703315998" stroke="white" stroke-width="1" width="120.0" x="560.0" y="371.098225557317"/>
  <rect fill="#9467bd" height="133.42311336332432" stroke="white" stroke-width="1" width="120.0" x="560.0" y="237.67511219399267"/>
  <rect fill="#8c564b" height="67.67511219399266" stroke="white" stroke-width="1" width="120.0" x="560.0" y="170.0"/>
  <text fill="#333" font-family="Arial, Helvetica, sans-serif" font-size="14" text-anchor="middle" x="620.0" y="720">Resource 3</text>
  <rect fill="#1f77b4" height="139.92224239528562" stroke="white" stroke-width="1" width="120.0" x="740.0" y="550.0777576047144"/>
  <rect fill="#ff7f0e" height="141.4800607770549" stroke="white" stroke-width="1" width="120.0" x="740.0" y="408.59769682765955"/>
  <rect fill="#2ca02c" height="94.26475484796438" stroke="white" stroke-width="1" width="120.0" x="740.0" y="314.3329419796952"/>
  <rect fill="#9467bd" height="50.031441769572936" stroke="white" stroke-width="1" width="120.0" x="740.0" y="264.30150021012224"/>
  <rect fill="#8c564b" height="94.30150021012217" stroke="white" stroke-width="1" width="120.0" x="740.0" y="170.00000000000006"/>
  <text fill="#333" font-family="Arial, Helvetica, sans-serif" font-size="14" text-anchor="middle" x="800.0" y="720">Resource 4</text>
  <rect fill="#1f77b4" height="121.66435347398719" stroke="white" stroke-width="1" width="120.0" x="920.0" y="568.3356465260129"/>
  <rect fill="#ff7f0e" height="61.46820038949991" stroke="white" stroke-width="1" width="120.0" x="920.0" y="506.86744613651297"/>
  <rect fill="#2ca02c" height="84.09603023814233" stroke="white" stroke-width="1" width="120.0" x="920.0" y="422.7714158983706"/>
  <rect fill="#9467bd" height="117.75643167643584" stroke="white" stroke-width="1" width="120.0" x="920.0" y="305.01498422193475"/>
  <rect fill="#8c564b" height="135.01498422193475" stroke="white" stroke-width="1" width="120.0" x="920.0" y="170.0"/>
  <text fill="#333" font-family="Arial, Helvetica, sans-serif" font-size="14" text-anchor="middle" x="980.0" y="720">Resource 5</text>
  <rect fill="#1f77b4" height="18" stroke="none" width="18" x="1070" y="176"/>
  <text fill="#333" font-family="Arial, Helvetica, sans-serif" font-size="14" x="1096" y="190">Group 1</text>
  <rect fill="#ff7f0e" height="18" stroke="none" width="18" x="1070" y="202"/>
  <text fill="#333" font-family="Arial, Helvetica, sans-serif" font-size="14" x="1096" y="216">Group 2</text>
  <rect fill="#2ca02c" height="18" stroke="none" width="18" x="1070" y="228"/>
  <text fill="#333" font-family="Arial, Helvetica, sans-serif" font-size="14" x="1096" y="242">Group 3</text>
  <rect fill="#9467bd" height="18" stroke="none" width="18" x="1070" y="254"/>
  <text fill="#333" font-family="Arial, Helvetica, sans-serif" font-size="14" x="1096" y="268">Group 4</text>
  <rect fill="#8c564b" height="18" stroke="none" width="18" x="1070" y="280"/>
  <text fill="#333" font-family="Arial, Helvetica, sans-serif" font-size="14" x="1096" y="294">Other</text>
  <text fill="#999" font-family="Arial, Helvetica, sans-serif" font-size="12" text-anchor="end" x="1140" y="776">Auto-generated SVG</text>
</svg>
