<?xml version="1.0" encoding="UTF-8" standalone="no"?>
<!DOCTYPE svg PUBLIC "-//W3C//DTD SVG 1.1//EN"
 "http://www.w3.org/Graphics/SVG/1.1/DTD/svg11.dtd">
<!-- Generated by graphviz version 2.43.0 (0)
 -->
<!-- Title: message_passing Pages: 1 -->
<svg width="386pt" height="288pt"
 viewBox="0.00 0.00 385.77 288.00" xmlns="http://www.w3.org/2000/svg" xmlns:xlink="http://www.w3.org/1999/xlink">
<g id="graph0" class="graph" transform="scale(1.11 1.11) rotate(0) translate(4 255.59)">
<title>message_passing</title>
<polygon fill="white" stroke="transparent" points="-4,4 -4,-255.59 343.72,-255.59 343.72,4 -4,4"/>
<!-- v -->
<g id="node1" class="node">
<title>v</title>
<ellipse fill="#d62728" stroke="black" stroke-width="1.5" cx="207.65" cy="-125.8" rx="36.12" ry="36.12"/>
<text text-anchor="middle" x="207.65" y="-128.6" font-family="Arial" font-size="9.00" fill="white">Node v</text>
<text text-anchor="middle" x="207.65" y="-118.6" font-family="Arial" font-size="9.00" fill="white">(update)</text>
</g>
<!-- agg -->
<g id="node5" class="node">
<title>agg</title>
<path fill="#2ca02c" stroke="black" stroke-width="1.5" d="M327.72,-143.8C327.72,-143.8 292.72,-143.8 292.72,-143.8 286.72,-143.8 280.72,-137.8 280.72,-131.8 280.72,-131.8 280.72,-119.8 280.72,-119.8 280.72,-113.8 286.72,-107.8 292.72,-107.8 292.72,-107.8 327.72,-107.8 327.72,-107.8 333.72,-107.8 339.72,-113.8 339.72,-119.8 339.72,-119.8 339.72,-131.8 339.72,-131.8 339.72,-137.8 333.72,-143.8 327.72,-143.8"/>
<text text-anchor="middle" x="310.22" y="-128.6" font-family="Arial" font-size="9.00" fill="white">Aggregate</text>
<text text-anchor="middle" x="310.22" y="-118.6" font-family="Arial" font-size="9.00" fill="white">&amp; Update</text>
</g>
<!-- v&#45;&gt;agg -->
<g id="edge4" class="edge">
<title>v&#45;&gt;agg</title>
<path fill="none" stroke="black" d="M243.83,-125.8C252.46,-125.8 261.74,-125.8 270.53,-125.8"/>
<polygon fill="black" stroke="black" points="270.54,-129.3 280.54,-125.8 270.54,-122.3 270.54,-129.3"/>
</g>
<!-- n1 -->
<g id="node2" class="node">
<title>n1</title>
<ellipse fill="#1f77b4" stroke="black" stroke-width="1.5" cx="35.8" cy="-215.8" rx="35.59" ry="35.59"/>
<text text-anchor="middle" x="35.8" y="-213.6" font-family="Arial" font-size="9.00" fill="white">Neighbor 1</text>
</g>
<!-- n1&#45;&gt;v -->
<g id="edge1" class="edge">
<title>n1&#45;&gt;v</title>
<path fill="none" stroke="black" d="M67.95,-199.29C95.64,-184.62 136.28,-163.08 166.42,-147.11"/>
<polygon fill="black" stroke="black" points="168.21,-150.13 175.41,-142.35 164.93,-143.94 168.21,-150.13"/>
<text text-anchor="middle" x="121.59" y="-189.6" font-family="Times,serif" font-size="14.00">Message</text>
</g>
<!-- n2 -->
<g id="node3" class="node">
<title>n2</title>
<ellipse fill="#1f77b4" stroke="black" stroke-width="1.5" cx="35.8" cy="-125.8" rx="35.59" ry="35.59"/>
<text text-anchor="middle" x="35.8" y="-123.6" font-family="Arial" font-size="9.00" fill="white">Neighbor 2</text>
</g>
<!-- n2&#45;&gt;v -->
<g id="edge2" class="edge">
<title>n2&#45;&gt;v</title>
<path fill="none" stroke="black" d="M71.99,-125.8C97.84,-125.8 133.18,-125.8 161.17,-125.8"/>
<polygon fill="black" stroke="black" points="161.5,-129.3 171.5,-125.8 161.5,-122.3 161.5,-129.3"/>
<text text-anchor="middle" x="121.59" y="-129.6" font-family="Times,serif" font-size="14.00">Message</text>
</g>
<!-- n3 -->
<g id="node4" class="node">
<title>n3</title>
<ellipse fill="#1f77b4" stroke="black" stroke-width="1.5" cx="35.8" cy="-35.8" rx="35.59" ry="35.59"/>
<text text-anchor="middle" x="35.8" y="-33.6" font-family="Arial" font-size="9.00" fill="white">Neighbor 3</text>
</g>
<!-- n3&#45;&gt;v -->
<g id="edge3" class="edge">
<title>n3&#45;&gt;v</title>
<path fill="none" stroke="black" d="M67.95,-52.3C95.64,-66.97 136.28,-88.51 166.42,-104.48"/>
<polygon fill="black" stroke="black" points="164.93,-107.65 175.41,-109.24 168.21,-101.47 164.93,-107.65"/>
<text text-anchor="middle" x="121.59" y="-99.6" font-family="Times,serif" font-size="14.00">Message</text>
</g>
</g>
</svg>
