<?xml version="1.0" encoding="UTF-8" standalone="no"?>
<!DOCTYPE svg PUBLIC "-//W3C//DTD SVG 1.1//EN"
 "http://www.w3.org/Graphics/SVG/1.1/DTD/svg11.dtd">
<!-- Generated by graphviz version 2.43.0 (0)
 -->
<!-- Title: integration Pages: 1 -->
<svg width="576pt" height="301pt"
 viewBox="0.00 0.00 576.00 300.52" xmlns="http://www.w3.org/2000/svg" xmlns:xlink="http://www.w3.org/1999/xlink">
<g id="graph0" class="graph" transform="scale(1.47 1.47) rotate(0) translate(4 200)">
<title>integration</title>
<polygon fill="white" stroke="transparent" points="-4,4 -4,-200 387,-200 387,4 -4,4"/>
<!-- seq -->
<g id="node1" class="node">
<title>seq</title>
<path fill="#1f77b4" stroke="black" stroke-width="1.5" d="M56,-196C56,-196 12,-196 12,-196 6,-196 0,-190 0,-184 0,-184 0,-172 0,-172 0,-166 6,-160 12,-160 12,-160 56,-160 56,-160 62,-160 68,-166 68,-172 68,-172 68,-184 68,-184 68,-190 62,-196 56,-196"/>
<text text-anchor="middle" x="34" y="-180.8" font-family="Arial" font-size="9.00" fill="white">Sequence</text>
<text text-anchor="middle" x="34" y="-170.8" font-family="Arial" font-size="9.00" fill="white">Embeddings</text>
</g>
<!-- gnn -->
<g id="node4" class="node">
<title>gnn</title>
<path fill="#9467bd" stroke="black" stroke-width="1.5" d="M183,-109C183,-109 135,-109 135,-109 129,-109 123,-103 123,-97 123,-97 123,-85 123,-85 123,-79 129,-73 135,-73 135,-73 183,-73 183,-73 189,-73 195,-79 195,-85 195,-85 195,-97 195,-97 195,-103 189,-109 183,-109"/>
<text text-anchor="middle" x="159" y="-93.8" font-family="Arial" font-size="9.00" fill="white">Graph Neural</text>
<text text-anchor="middle" x="159" y="-83.8" font-family="Arial" font-size="9.00" fill="white">Network</text>
</g>
<!-- seq&#45;&gt;gnn -->
<g id="edge1" class="edge">
<title>seq&#45;&gt;gnn</title>
<path fill="none" stroke="black" d="M40.54,-159.79C46.03,-145.33 53,-127 53,-127 53,-127 84.57,-116.58 113.25,-107.11"/>
<polygon fill="black" stroke="black" points="114.42,-110.41 122.82,-103.95 112.22,-103.76 114.42,-110.41"/>
<text text-anchor="middle" x="104" y="-130.8" font-family="Times,serif" font-size="14.00">Node features</text>
</g>
<!-- struct -->
<g id="node2" class="node">
<title>struct</title>
<path fill="#2ca02c" stroke="black" stroke-width="1.5" d="M174,-196C174,-196 144,-196 144,-196 138,-196 132,-190 132,-184 132,-184 132,-172 132,-172 132,-166 138,-160 144,-160 144,-160 174,-160 174,-160 180,-160 186,-166 186,-172 186,-172 186,-184 186,-184 186,-190 180,-196 174,-196"/>
<text text-anchor="middle" x="159" y="-180.8" font-family="Arial" font-size="9.00" fill="white">Structure</text>
<text text-anchor="middle" x="159" y="-170.8" font-family="Arial" font-size="9.00" fill="white">Features</text>
</g>
<!-- struct&#45;&gt;gnn -->
<g id="edge2" class="edge">
<title>struct&#45;&gt;gnn</title>
<path fill="none" stroke="black" d="M159,-159.8C159,-148.16 159,-132.55 159,-119.24"/>
<polygon fill="black" stroke="black" points="162.5,-119.18 159,-109.18 155.5,-119.18 162.5,-119.18"/>
<text text-anchor="middle" x="209.5" y="-130.8" font-family="Times,serif" font-size="14.00">Edge features</text>
</g>
<!-- network -->
<g id="node3" class="node">
<title>network</title>
<path fill="#ff7f0e" stroke="black" stroke-width="1.5" d="M298,-196C298,-196 268,-196 268,-196 262,-196 256,-190 256,-184 256,-184 256,-172 256,-172 256,-166 262,-160 268,-160 268,-160 298,-160 298,-160 304,-160 310,-166 310,-172 310,-172 310,-184 310,-184 310,-190 304,-196 298,-196"/>
<text text-anchor="middle" x="283" y="-180.8" font-family="Arial" font-size="9.00">Network</text>
<text text-anchor="middle" x="283" y="-170.8" font-family="Arial" font-size="9.00">Topology</text>
</g>
<!-- network&#45;&gt;gnn -->
<g id="edge3" class="edge">
<title>network&#45;&gt;gnn</title>
<path fill="none" stroke="black" d="M275.43,-159.79C269.07,-145.33 261,-127 261,-127 261,-127 231.85,-117 204.71,-107.69"/>
<polygon fill="black" stroke="black" points="205.84,-104.37 195.25,-104.44 203.57,-110.99 205.84,-104.37"/>
<text text-anchor="middle" x="325" y="-130.8" font-family="Times,serif" font-size="14.00">Graph structure</text>
</g>
<!-- output -->
<g id="node5" class="node">
<title>output</title>
<path fill="#98df8a" stroke="black" stroke-width="1.5" d="M176,-36C176,-36 142,-36 142,-36 136,-36 130,-30 130,-24 130,-24 130,-12 130,-12 130,-6 136,0 142,0 142,0 176,0 176,0 182,0 188,-6 188,-12 188,-12 188,-24 188,-24 188,-30 182,-36 176,-36"/>
<text text-anchor="middle" x="159" y="-20.8" font-family="Arial" font-size="9.00">Integrated</text>
<text text-anchor="middle" x="159" y="-10.8" font-family="Arial" font-size="9.00">Prediction</text>
</g>
<!-- gnn&#45;&gt;output -->
<g id="edge4" class="edge">
<title>gnn&#45;&gt;output</title>
<path fill="none" stroke="black" d="M159,-72.81C159,-64.79 159,-55.05 159,-46.07"/>
<polygon fill="black" stroke="black" points="162.5,-46.03 159,-36.03 155.5,-46.03 162.5,-46.03"/>
</g>
</g>
</svg>
