<?xml version="1.0" encoding="UTF-8" standalone="no"?>
<!DOCTYPE svg PUBLIC "-//W3C//DTD SVG 1.1//EN"
 "http://www.w3.org/Graphics/SVG/1.1/DTD/svg11.dtd">
<!-- Generated by graphviz version 2.43.0 (0)
 -->
<!-- Title: kg Pages: 1 -->
<svg width="720pt" height="135pt"
 viewBox="0.00 0.00 720.00 135.16" xmlns="http://www.w3.org/2000/svg" xmlns:xlink="http://www.w3.org/1999/xlink">
<g id="graph0" class="graph" transform="scale(1.28 1.28) rotate(0) translate(4 102)">
<title>kg</title>
<polygon fill="white" stroke="transparent" points="-4,4 -4,-102 560.67,-102 560.67,4 -4,4"/>
<!-- drug -->
<g id="node1" class="node">
<title>drug</title>
<path fill="#1f77b4" stroke="black" stroke-width="1.5" d="M42,-98C42,-98 12,-98 12,-98 6,-98 0,-92 0,-86 0,-86 0,-74 0,-74 0,-68 6,-62 12,-62 12,-62 42,-62 42,-62 48,-62 54,-68 54,-74 54,-74 54,-86 54,-86 54,-92 48,-98 42,-98"/>
<text text-anchor="middle" x="27" y="-77.8" font-family="Arial" font-size="9.00" fill="white">Drug</text>
</g>
<!-- protein -->
<g id="node4" class="node">
<title>protein</title>
<ellipse fill="#ff7f0e" stroke="black" stroke-width="1.5" cx="175" cy="-55" rx="27" ry="18"/>
<text text-anchor="middle" x="175" y="-52.8" font-family="Arial" font-size="9.00">Protein</text>
</g>
<!-- drug&#45;&gt;protein -->
<g id="edge1" class="edge">
<title>drug&#45;&gt;protein</title>
<path fill="none" stroke="#1f77b4" d="M54.1,-75.53C77.71,-71.49 112.66,-65.5 138.74,-61.04"/>
<polygon fill="#1f77b4" stroke="#1f77b4" points="139.35,-64.48 148.61,-59.35 138.17,-57.59 139.35,-64.48"/>
<text text-anchor="middle" x="101" y="-74.8" font-family="Times,serif" font-size="14.00">targets</text>
</g>
<!-- gene -->
<g id="node2" class="node">
<title>gene</title>
<ellipse fill="#2ca02c" stroke="black" stroke-width="1.5" cx="27" cy="-18" rx="27" ry="18"/>
<text text-anchor="middle" x="27" y="-15.8" font-family="Arial" font-size="9.00" fill="white">Gene</text>
</g>
<!-- disease -->
<g id="node3" class="node">
<title>disease</title>
<path fill="#d62728" stroke="black" stroke-width="1.5" d="M550.97,-31C550.97,-31 545.44,-37 545.44,-37 542.68,-40 535.84,-43 531.76,-43 531.76,-43 514.91,-43 514.91,-43 510.83,-43 503.99,-40 501.22,-37 501.22,-37 495.69,-31 495.69,-31 492.93,-28 492.93,-22 495.69,-19 495.69,-19 501.22,-13 501.22,-13 503.99,-10 510.83,-7 514.91,-7 514.91,-7 531.76,-7 531.76,-7 535.84,-7 542.68,-10 545.44,-13 545.44,-13 550.97,-19 550.97,-19 553.74,-22 553.74,-28 550.97,-31"/>
<text text-anchor="middle" x="523.33" y="-22.8" font-family="Arial" font-size="9.00" fill="white">Disease</text>
</g>
<!-- gene&#45;&gt;disease -->
<g id="edge5" class="edge">
<title>gene&#45;&gt;disease</title>
<path fill="none" stroke="#d62728" stroke-dasharray="5,2" d="M54.23,-18.37C135.11,-19.52 381.2,-23 480.31,-24.4"/>
<polygon fill="#d62728" stroke="#d62728" points="480.49,-27.91 490.54,-24.55 480.59,-20.91 480.49,-27.91"/>
<text text-anchor="middle" x="263" y="-24.8" font-family="Times,serif" font-size="14.00">causes</text>
</g>
<!-- gene&#45;&gt;protein -->
<g id="edge2" class="edge">
<title>gene&#45;&gt;protein</title>
<path fill="none" stroke="#2ca02c" d="M52.44,-24.19C76.33,-30.25 112.94,-39.53 139.74,-46.32"/>
<polygon fill="#2ca02c" stroke="#2ca02c" points="138.93,-49.72 149.48,-48.79 140.65,-42.94 138.93,-49.72"/>
<text text-anchor="middle" x="101" y="-46.8" font-family="Times,serif" font-size="14.00">encodes</text>
</g>
<!-- pathway -->
<g id="node5" class="node">
<title>pathway</title>
<path fill="#9467bd" stroke="black" stroke-width="1.5" d="M366,-73C366,-73 336,-73 336,-73 330,-73 324,-67 324,-61 324,-61 324,-49 324,-49 324,-43 330,-37 336,-37 336,-37 366,-37 366,-37 372,-37 378,-43 378,-49 378,-49 378,-61 378,-61 378,-67 372,-73 366,-73"/>
<text text-anchor="middle" x="351" y="-52.8" font-family="Arial" font-size="9.00" fill="white">Pathway</text>
</g>
<!-- protein&#45;&gt;pathway -->
<g id="edge3" class="edge">
<title>protein&#45;&gt;pathway</title>
<path fill="none" stroke="#ff7f0e" d="M202.05,-55C231.65,-55 280.16,-55 313.52,-55"/>
<polygon fill="#ff7f0e" stroke="#ff7f0e" points="313.77,-58.5 323.77,-55 313.77,-51.5 313.77,-58.5"/>
<text text-anchor="middle" x="263" y="-58.8" font-family="Times,serif" font-size="14.00">participates</text>
</g>
<!-- pathway&#45;&gt;disease -->
<g id="edge4" class="edge">
<title>pathway&#45;&gt;disease</title>
<path fill="none" stroke="#9467bd" d="M378.24,-50.38C406.7,-45.37 452.39,-37.32 484.67,-31.63"/>
<polygon fill="#9467bd" stroke="#9467bd" points="485.41,-35.06 494.65,-29.88 484.19,-28.16 485.41,-35.06"/>
<text text-anchor="middle" x="434" y="-49.8" font-family="Times,serif" font-size="14.00">associated</text>
</g>
</g>
</svg>
