<?xml version="1.0" encoding="utf-8" standalone="no"?>
<!DOCTYPE svg PUBLIC "-//W3C//DTD SVG 1.1//EN"
  "http://www.w3.org/Graphics/SVG/1.1/DTD/svg11.dtd">
<svg xmlns:xlink="http://www.w3.org/1999/xlink" width="568.8pt" height="352.518281pt" viewBox="0 0 568.8 352.518281" xmlns="http://www.w3.org/2000/svg" version="1.1">
 <metadata>
  <rdf:RDF xmlns:dc="http://purl.org/dc/elements/1.1/" xmlns:cc="http://creativecommons.org/ns#" xmlns:rdf="http://www.w3.org/1999/02/22-rdf-syntax-ns#">
   <cc:Work>
    <dc:type rdf:resource="http://purl.org/dc/dcmitype/StillImage"/>
    <dc:date>2026-01-08T10:37:06.604875</dc:date>
    <dc:format>image/svg+xml</dc:format>
    <dc:creator>
     <cc:Agent>
      <dc:title>Matplotlib v3.10.7, https://matplotlib.org/</dc:title>
     </cc:Agent>
    </dc:creator>
   </cc:Work>
  </rdf:RDF>
 </metadata>
 <defs>
  <style type="text/css">*{stroke-linejoin: round; stroke-linecap: butt}</style>
 </defs>
 <g id="figure_1">
  <g id="patch_1">
   <path d="M 0 352.518281 
L 568.8 352.518281 
L 568.8 0 
L 0 0 
z
" style="fill: #ffffff"/>
  </g>
  <g id="axes_1">
   <g id="patch_2">
    <path d="M 284.4 221.981138 
C 294.201907 221.981138 303.603672 218.732244 310.534667 212.949985 
C 317.465661 207.167727 321.36 199.324201 321.36 191.146853 
C 321.36 182.969505 317.465661 175.125978 310.534667 169.34372 
C 303.603672 163.561462 294.201907 160.312567 284.4 160.312567 
C 274.598093 160.312567 265.196328 163.561462 258.265333 169.34372 
C 251.334339 175.125978 247.44 182.969505 247.44 191.146853 
C 247.44 199.324201 251.334339 207.167727 258.265333 212.949985 
C 265.196328 218.732244 274.598093 221.981138 284.4 221.981138 
z
" clip-path="url(#pc640d5079d)" style="fill: #d62728; stroke: #ffffff; stroke-width: 2; stroke-linejoin: miter"/>
   </g>
   <g id="patch_3">
    <path d="M 99.6 144.895424 
C 109.401907 144.895424 118.803672 141.646529 125.734667 135.864271 
C 132.665661 130.082013 136.56 122.238487 136.56 114.061138 
C 136.56 105.88379 132.665661 98.040264 125.734667 92.258006 
C 118.803672 86.475748 109.401907 83.226853 99.6 83.226853 
C 89.798093 83.226853 80.396328 86.475748 73.465333 92.258006 
C 66.534339 98.040264 62.64 105.88379 62.64 114.061138 
C 62.64 122.238487 66.534339 130.082013 73.465333 135.864271 
C 80.396328 141.646529 89.798093 144.895424 99.6 144.895424 
z
" clip-path="url(#pc640d5079d)" style="fill: #1f77b4; stroke: #ffffff; stroke-width: 2; stroke-linejoin: miter"/>
   </g>
   <g id="patch_4">
    <path d="M 192 106.352567 
C 201.801907 106.352567 211.203672 103.103672 218.134667 97.321414 
C 225.065661 91.539155 228.96 83.695629 228.96 75.518281 
C 228.96 67.340933 225.065661 59.497407 218.134667 53.715149 
C 211.203672 47.93289 201.801907 44.683996 192 44.683996 
C 182.198093 44.683996 172.796328 47.93289 165.865333 53.715149 
C 158.934339 59.497407 155.04 67.340933 155.04 75.518281 
C 155.04 83.695629 158.934339 91.539155 165.865333 97.321414 
C 172.796328 103.103672 182.198093 106.352567 192 106.352567 
z
" clip-path="url(#pc640d5079d)" style="fill: #1f77b4; stroke: #ffffff; stroke-width: 2; stroke-linejoin: miter"/>
   </g>
   <g id="patch_5">
    <path d="M 376.8 106.352567 
C 386.601907 106.352567 396.003672 103.103672 402.934667 97.321414 
C 409.865661 91.539155 413.76 83.695629 413.76 75.518281 
C 413.76 67.340933 409.865661 59.497407 402.934667 53.715149 
C 396.003672 47.93289 386.601907 44.683996 376.8 44.683996 
C 366.998093 44.683996 357.596328 47.93289 350.665333 53.715149 
C 343.734339 59.497407 339.84 67.340933 339.84 75.518281 
C 339.84 83.695629 343.734339 91.539155 350.665333 97.321414 
C 357.596328 103.103672 366.998093 106.352567 376.8 106.352567 
z
" clip-path="url(#pc640d5079d)" style="fill: #1f77b4; stroke: #ffffff; stroke-width: 2; stroke-linejoin: miter"/>
   </g>
   <g id="patch_6">
    <path d="M 469.2 144.895424 
C 479.001907 144.895424 488.403672 141.646529 495.334667 135.864271 
C 502.265661 130.082013 506.16 122.238487 506.16 114.061138 
C 506.16 105.88379 502.265661 98.040264 495.334667 92.258006 
C 488.403672 86.475748 479.001907 83.226853 469.2 83.226853 
C 459.398093 83.226853 449.996328 86.475748 443.065333 92.258006 
C 436.134339 98.040264 432.24 105.88379 432.24 114.061138 
C 432.24 122.238487 436.134339 130.082013 443.065333 135.864271 
C 449.996328 141.646529 459.398093 144.895424 469.2 144.895424 
z
" clip-path="url(#pc640d5079d)" style="fill: #1f77b4; stroke: #ffffff; stroke-width: 2; stroke-linejoin: miter"/>
   </g>
   <g id="patch_7">
    <path d="M 192 308.317138 
L 376.8 308.317138 
Q 378.648 308.317138 378.648 306.775424 
L 378.648 245.106853 
Q 378.648 243.565138 376.8 243.565138 
L 192 243.565138 
Q 190.152 243.565138 190.152 245.106853 
L 190.152 306.775424 
Q 190.152 308.317138 192 308.317138 
z
" clip-path="url(#pc640d5079d)" style="fill: #2ca02c; opacity: 0.8; stroke: #ffffff; stroke-linejoin: miter"/>
   </g>
   <g id="patch_8">
    <path d="M 101.446985 114.831572 
Q 192.000855 152.604352 280.491002 189.516291 
" style="fill: none; stroke: #ff7f0e; stroke-width: 2; stroke-linecap: round"/>
    <path d="M 277.569263 186.13052 
L 280.491002 189.516291 
L 276.029343 189.82222 
" style="fill: none; stroke: #ff7f0e; stroke-width: 2; stroke-linecap: round"/>
   </g>
   <g id="patch_9">
    <path d="M 193.249182 77.081497 
Q 238.200099 133.332691 281.755103 187.837051 
" style="fill: none; stroke: #ff7f0e; stroke-width: 2; stroke-linecap: round"/>
    <path d="M 280.820433 183.463678 
L 281.755103 187.837051 
L 277.695603 185.960763 
" style="fill: none; stroke: #ff7f0e; stroke-width: 2; stroke-linecap: round"/>
   </g>
   <g id="patch_10">
    <path d="M 375.550818 77.081497 
Q 330.599901 133.332691 287.044897 187.837051 
" style="fill: none; stroke: #ff7f0e; stroke-width: 2; stroke-linecap: round"/>
    <path d="M 291.104397 185.960763 
L 287.044897 187.837051 
L 287.979567 183.463678 
" style="fill: none; stroke: #ff7f0e; stroke-width: 2; stroke-linecap: round"/>
   </g>
   <g id="patch_11">
    <path d="M 467.353015 114.831572 
Q 376.799145 152.604352 288.308998 189.516291 
" style="fill: none; stroke: #ff7f0e; stroke-width: 2; stroke-linecap: round"/>
    <path d="M 292.770657 189.82222 
L 288.308998 189.516291 
L 291.230737 186.13052 
" style="fill: none; stroke: #ff7f0e; stroke-width: 2; stroke-linecap: round"/>
   </g>
   <g id="text_1">
    <!-- Target -->
    <g style="fill: #ffffff" transform="translate(268.229531 193.559978) scale(0.09 -0.09)">
     <defs>
      <path id="DejaVuSans-Bold-54" d="M 31 4666 
L 4331 4666 
L 4331 3756 
L 2784 3756 
L 2784 0 
L 1581 0 
L 1581 3756 
L 31 3756 
L 31 4666 
z
" transform="scale(0.015625)"/>
      <path id="DejaVuSans-Bold-61" d="M 2106 1575 
Q 1756 1575 1579 1456 
Q 1403 1338 1403 1106 
Q 1403 894 1545 773 
Q 1688 653 1941 653 
Q 2256 653 2472 879 
Q 2688 1106 2688 1447 
L 2688 1575 
L 2106 1575 
z
M 3816 1997 
L 3816 0 
L 2688 0 
L 2688 519 
Q 2463 200 2181 54 
Q 1900 -91 1497 -91 
Q 953 -91 614 226 
Q 275 544 275 1050 
Q 275 1666 698 1953 
Q 1122 2241 2028 2241 
L 2688 2241 
L 2688 2328 
Q 2688 2594 2478 2717 
Q 2269 2841 1825 2841 
Q 1466 2841 1156 2769 
Q 847 2697 581 2553 
L 581 3406 
Q 941 3494 1303 3539 
Q 1666 3584 2028 3584 
Q 2975 3584 3395 3211 
Q 3816 2838 3816 1997 
z
" transform="scale(0.015625)"/>
      <path id="DejaVuSans-Bold-72" d="M 3138 2547 
Q 2991 2616 2845 2648 
Q 2700 2681 2553 2681 
Q 2122 2681 1889 2404 
Q 1656 2128 1656 1613 
L 1656 0 
L 538 0 
L 538 3500 
L 1656 3500 
L 1656 2925 
Q 1872 3269 2151 3426 
Q 2431 3584 2822 3584 
Q 2878 3584 2943 3579 
Q 3009 3575 3134 3559 
L 3138 2547 
z
" transform="scale(0.015625)"/>
      <path id="DejaVuSans-Bold-67" d="M 2919 594 
Q 2688 288 2409 144 
Q 2131 0 1766 0 
Q 1125 0 706 504 
Q 288 1009 288 1791 
Q 288 2575 706 3076 
Q 1125 3578 1766 3578 
Q 2131 3578 2409 3434 
Q 2688 3291 2919 2981 
L 2919 3500 
L 4044 3500 
L 4044 353 
Q 4044 -491 3511 -936 
Q 2978 -1381 1966 -1381 
Q 1638 -1381 1331 -1331 
Q 1025 -1281 716 -1178 
L 716 -306 
Q 1009 -475 1290 -558 
Q 1572 -641 1856 -641 
Q 2406 -641 2662 -400 
Q 2919 -159 2919 353 
L 2919 594 
z
M 2181 2772 
Q 1834 2772 1640 2515 
Q 1447 2259 1447 1791 
Q 1447 1309 1634 1061 
Q 1822 813 2181 813 
Q 2531 813 2725 1069 
Q 2919 1325 2919 1791 
Q 2919 2259 2725 2515 
Q 2531 2772 2181 2772 
z
" transform="scale(0.015625)"/>
      <path id="DejaVuSans-Bold-65" d="M 4031 1759 
L 4031 1441 
L 1416 1441 
Q 1456 1047 1700 850 
Q 1944 653 2381 653 
Q 2734 653 3104 758 
Q 3475 863 3866 1075 
L 3866 213 
Q 3469 63 3072 -14 
Q 2675 -91 2278 -91 
Q 1328 -91 801 392 
Q 275 875 275 1747 
Q 275 2603 792 3093 
Q 1309 3584 2216 3584 
Q 3041 3584 3536 3087 
Q 4031 2591 4031 1759 
z
M 2881 2131 
Q 2881 2450 2695 2645 
Q 2509 2841 2209 2841 
Q 1884 2841 1681 2658 
Q 1478 2475 1428 2131 
L 2881 2131 
z
" transform="scale(0.015625)"/>
      <path id="DejaVuSans-Bold-74" d="M 1759 4494 
L 1759 3500 
L 2913 3500 
L 2913 2700 
L 1759 2700 
L 1759 1216 
Q 1759 972 1856 886 
Q 1953 800 2241 800 
L 2816 800 
L 2816 0 
L 1856 0 
Q 1194 0 917 276 
Q 641 553 641 1216 
L 641 2700 
L 84 2700 
L 84 3500 
L 641 3500 
L 641 4494 
L 1759 4494 
z
" transform="scale(0.015625)"/>
     </defs>
     <use xlink:href="#DejaVuSans-Bold-54"/>
     <use xlink:href="#DejaVuSans-Bold-61" transform="translate(55.337891 0)"/>
     <use xlink:href="#DejaVuSans-Bold-72" transform="translate(122.818359 0)"/>
     <use xlink:href="#DejaVuSans-Bold-67" transform="translate(172.134766 0)"/>
     <use xlink:href="#DejaVuSans-Bold-65" transform="translate(243.716797 0)"/>
     <use xlink:href="#DejaVuSans-Bold-74" transform="translate(311.539062 0)"/>
    </g>
   </g>
   <g id="text_2">
    <!-- h1 -->
    <g style="fill: #ffffff" transform="translate(93.265547 116.544576) scale(0.09 -0.09)">
     <defs>
      <path id="DejaVuSans-Bold-68" d="M 4056 2131 
L 4056 0 
L 2931 0 
L 2931 347 
L 2931 1625 
Q 2931 2084 2911 2256 
Q 2891 2428 2841 2509 
Q 2775 2619 2662 2680 
Q 2550 2741 2406 2741 
Q 2056 2741 1856 2470 
Q 1656 2200 1656 1722 
L 1656 0 
L 538 0 
L 538 4863 
L 1656 4863 
L 1656 2988 
Q 1909 3294 2193 3439 
Q 2478 3584 2822 3584 
Q 3428 3584 3742 3212 
Q 4056 2841 4056 2131 
z
" transform="scale(0.015625)"/>
      <path id="DejaVuSans-Bold-31" d="M 750 831 
L 1813 831 
L 1813 3847 
L 722 3622 
L 722 4441 
L 1806 4666 
L 2950 4666 
L 2950 831 
L 4013 831 
L 4013 0 
L 750 0 
L 750 831 
z
" transform="scale(0.015625)"/>
     </defs>
     <use xlink:href="#DejaVuSans-Bold-68"/>
     <use xlink:href="#DejaVuSans-Bold-31" transform="translate(71.191406 0)"/>
    </g>
   </g>
   <g id="text_3">
    <!-- h2 -->
    <g style="fill: #ffffff" transform="translate(185.665547 78.001719) scale(0.09 -0.09)">
     <defs>
      <path id="DejaVuSans-Bold-32" d="M 1844 884 
L 3897 884 
L 3897 0 
L 506 0 
L 506 884 
L 2209 2388 
Q 2438 2594 2547 2791 
Q 2656 2988 2656 3200 
Q 2656 3528 2436 3728 
Q 2216 3928 1850 3928 
Q 1569 3928 1234 3808 
Q 900 3688 519 3450 
L 519 4475 
Q 925 4609 1322 4679 
Q 1719 4750 2100 4750 
Q 2938 4750 3402 4381 
Q 3866 4013 3866 3353 
Q 3866 2972 3669 2642 
Q 3472 2313 2841 1759 
L 1844 884 
z
" transform="scale(0.015625)"/>
     </defs>
     <use xlink:href="#DejaVuSans-Bold-68"/>
     <use xlink:href="#DejaVuSans-Bold-32" transform="translate(71.191406 0)"/>
    </g>
   </g>
   <g id="text_4">
    <!-- h3 -->
    <g style="fill: #ffffff" transform="translate(370.465547 78.001719) scale(0.09 -0.09)">
     <defs>
      <path id="DejaVuSans-Bold-33" d="M 2981 2516 
Q 3453 2394 3698 2092 
Q 3944 1791 3944 1325 
Q 3944 631 3412 270 
Q 2881 -91 1863 -91 
Q 1503 -91 1142 -33 
Q 781 25 428 141 
L 428 1069 
Q 766 900 1098 814 
Q 1431 728 1753 728 
Q 2231 728 2486 893 
Q 2741 1059 2741 1369 
Q 2741 1688 2480 1852 
Q 2219 2016 1709 2016 
L 1228 2016 
L 1228 2791 
L 1734 2791 
Q 2188 2791 2409 2933 
Q 2631 3075 2631 3366 
Q 2631 3634 2415 3781 
Q 2200 3928 1806 3928 
Q 1516 3928 1219 3862 
Q 922 3797 628 3669 
L 628 4550 
Q 984 4650 1334 4700 
Q 1684 4750 2022 4750 
Q 2931 4750 3382 4451 
Q 3834 4153 3834 3553 
Q 3834 3144 3618 2883 
Q 3403 2622 2981 2516 
z
" transform="scale(0.015625)"/>
     </defs>
     <use xlink:href="#DejaVuSans-Bold-68"/>
     <use xlink:href="#DejaVuSans-Bold-33" transform="translate(71.191406 0)"/>
    </g>
   </g>
   <g id="text_5">
    <!-- h4 -->
    <g style="fill: #ffffff" transform="translate(462.865547 116.544576) scale(0.09 -0.09)">
     <defs>
      <path id="DejaVuSans-Bold-34" d="M 2356 3675 
L 1038 1722 
L 2356 1722 
L 2356 3675 
z
M 2156 4666 
L 3494 4666 
L 3494 1722 
L 4159 1722 
L 4159 850 
L 3494 850 
L 3494 0 
L 2356 0 
L 2356 850 
L 288 850 
L 288 1881 
L 2156 4666 
z
" transform="scale(0.015625)"/>
     </defs>
     <use xlink:href="#DejaVuSans-Bold-68"/>
     <use xlink:href="#DejaVuSans-Bold-34" transform="translate(71.191406 0)"/>
    </g>
   </g>
   <g id="text_6">
    <!-- AGG() -->
    <g style="fill: #ffffff" transform="translate(267.752344 278.700513) scale(0.1 -0.1)">
     <defs>
      <path id="DejaVuSans-Bold-41" d="M 3419 850 
L 1538 850 
L 1241 0 
L 31 0 
L 1759 4666 
L 3194 4666 
L 4922 0 
L 3713 0 
L 3419 850 
z
M 1838 1716 
L 3116 1716 
L 2478 3572 
L 1838 1716 
z
" transform="scale(0.015625)"/>
      <path id="DejaVuSans-Bold-47" d="M 4781 347 
Q 4331 128 3847 18 
Q 3363 -91 2847 -91 
Q 1681 -91 1000 561 
Q 319 1213 319 2328 
Q 319 3456 1012 4103 
Q 1706 4750 2913 4750 
Q 3378 4750 3804 4662 
Q 4231 4575 4609 4403 
L 4609 3438 
Q 4219 3659 3833 3768 
Q 3447 3878 3059 3878 
Q 2341 3878 1952 3476 
Q 1563 3075 1563 2328 
Q 1563 1588 1938 1184 
Q 2313 781 3003 781 
Q 3191 781 3352 804 
Q 3513 828 3641 878 
L 3641 1784 
L 2906 1784 
L 2906 2591 
L 4781 2591 
L 4781 347 
z
" transform="scale(0.015625)"/>
      <path id="DejaVuSans-Bold-28" d="M 2413 -844 
L 1484 -844 
Q 1006 -72 778 623 
Q 550 1319 550 2003 
Q 550 2688 779 3389 
Q 1009 4091 1484 4856 
L 2413 4856 
Q 2013 4116 1813 3408 
Q 1613 2700 1613 2009 
Q 1613 1319 1811 609 
Q 2009 -100 2413 -844 
z
" transform="scale(0.015625)"/>
      <path id="DejaVuSans-Bold-29" d="M 513 -844 
Q 913 -100 1113 609 
Q 1313 1319 1313 2009 
Q 1313 2700 1113 3408 
Q 913 4116 513 4856 
L 1441 4856 
Q 1916 4091 2145 3389 
Q 2375 2688 2375 2003 
Q 2375 1319 2147 623 
Q 1919 -72 1441 -844 
L 513 -844 
z
" transform="scale(0.015625)"/>
     </defs>
     <use xlink:href="#DejaVuSans-Bold-41"/>
     <use xlink:href="#DejaVuSans-Bold-47" transform="translate(77.392578 0)"/>
     <use xlink:href="#DejaVuSans-Bold-47" transform="translate(159.472656 0)"/>
     <use xlink:href="#DejaVuSans-Bold-28" transform="translate(241.552734 0)"/>
     <use xlink:href="#DejaVuSans-Bold-29" transform="translate(287.255859 0)"/>
    </g>
   </g>
   <g id="patch_12">
    <path d="M 284.4 223.982619 
Q 284.4 233.545512 284.4 240.872337 
" style="fill: none; stroke: #555555; stroke-width: 2; stroke-linecap: round"/>
    <path d="M 286.4 236.872337 
L 284.4 240.872337 
L 282.4 236.872337 
" style="fill: none; stroke: #555555; stroke-width: 2; stroke-linecap: round"/>
   </g>
   <g id="text_7">
    <!-- C. Aggregation Combines Neighbor Information -->
    <g transform="translate(7.2 15.558281) scale(0.11 -0.11)">
     <defs>
      <path id="DejaVuSans-Bold-43" d="M 4288 256 
Q 3956 84 3597 -3 
Q 3238 -91 2847 -91 
Q 1681 -91 1000 561 
Q 319 1213 319 2328 
Q 319 3447 1000 4098 
Q 1681 4750 2847 4750 
Q 3238 4750 3597 4662 
Q 3956 4575 4288 4403 
L 4288 3438 
Q 3953 3666 3628 3772 
Q 3303 3878 2944 3878 
Q 2300 3878 1931 3465 
Q 1563 3053 1563 2328 
Q 1563 1606 1931 1193 
Q 2300 781 2944 781 
Q 3303 781 3628 887 
Q 3953 994 4288 1222 
L 4288 256 
z
" transform="scale(0.015625)"/>
      <path id="DejaVuSans-Bold-2e" d="M 653 1209 
L 1778 1209 
L 1778 0 
L 653 0 
L 653 1209 
z
" transform="scale(0.015625)"/>
      <path id="DejaVuSans-Bold-20" transform="scale(0.015625)"/>
      <path id="DejaVuSans-Bold-69" d="M 538 3500 
L 1656 3500 
L 1656 0 
L 538 0 
L 538 3500 
z
M 538 4863 
L 1656 4863 
L 1656 3950 
L 538 3950 
L 538 4863 
z
" transform="scale(0.015625)"/>
      <path id="DejaVuSans-Bold-6f" d="M 2203 2784 
Q 1831 2784 1636 2517 
Q 1441 2250 1441 1747 
Q 1441 1244 1636 976 
Q 1831 709 2203 709 
Q 2569 709 2762 976 
Q 2956 1244 2956 1747 
Q 2956 2250 2762 2517 
Q 2569 2784 2203 2784 
z
M 2203 3584 
Q 3106 3584 3614 3096 
Q 4122 2609 4122 1747 
Q 4122 884 3614 396 
Q 3106 -91 2203 -91 
Q 1297 -91 786 396 
Q 275 884 275 1747 
Q 275 2609 786 3096 
Q 1297 3584 2203 3584 
z
" transform="scale(0.015625)"/>
      <path id="DejaVuSans-Bold-6e" d="M 4056 2131 
L 4056 0 
L 2931 0 
L 2931 347 
L 2931 1631 
Q 2931 2084 2911 2256 
Q 2891 2428 2841 2509 
Q 2775 2619 2662 2680 
Q 2550 2741 2406 2741 
Q 2056 2741 1856 2470 
Q 1656 2200 1656 1722 
L 1656 0 
L 538 0 
L 538 3500 
L 1656 3500 
L 1656 2988 
Q 1909 3294 2193 3439 
Q 2478 3584 2822 3584 
Q 3428 3584 3742 3212 
Q 4056 2841 4056 2131 
z
" transform="scale(0.015625)"/>
      <path id="DejaVuSans-Bold-6d" d="M 3781 2919 
Q 3994 3244 4286 3414 
Q 4578 3584 4928 3584 
Q 5531 3584 5847 3212 
Q 6163 2841 6163 2131 
L 6163 0 
L 5038 0 
L 5038 1825 
Q 5041 1866 5042 1909 
Q 5044 1953 5044 2034 
Q 5044 2406 4934 2573 
Q 4825 2741 4581 2741 
Q 4263 2741 4089 2478 
Q 3916 2216 3909 1719 
L 3909 0 
L 2784 0 
L 2784 1825 
Q 2784 2406 2684 2573 
Q 2584 2741 2328 2741 
Q 2006 2741 1831 2477 
Q 1656 2213 1656 1722 
L 1656 0 
L 531 0 
L 531 3500 
L 1656 3500 
L 1656 2988 
Q 1863 3284 2130 3434 
Q 2397 3584 2719 3584 
Q 3081 3584 3359 3409 
Q 3638 3234 3781 2919 
z
" transform="scale(0.015625)"/>
      <path id="DejaVuSans-Bold-62" d="M 2400 722 
Q 2759 722 2948 984 
Q 3138 1247 3138 1747 
Q 3138 2247 2948 2509 
Q 2759 2772 2400 2772 
Q 2041 2772 1848 2508 
Q 1656 2244 1656 1747 
Q 1656 1250 1848 986 
Q 2041 722 2400 722 
z
M 1656 2988 
Q 1888 3294 2169 3439 
Q 2450 3584 2816 3584 
Q 3463 3584 3878 3070 
Q 4294 2556 4294 1747 
Q 4294 938 3878 423 
Q 3463 -91 2816 -91 
Q 2450 -91 2169 54 
Q 1888 200 1656 506 
L 1656 0 
L 538 0 
L 538 4863 
L 1656 4863 
L 1656 2988 
z
" transform="scale(0.015625)"/>
      <path id="DejaVuSans-Bold-73" d="M 3272 3391 
L 3272 2541 
Q 2913 2691 2578 2766 
Q 2244 2841 1947 2841 
Q 1628 2841 1473 2761 
Q 1319 2681 1319 2516 
Q 1319 2381 1436 2309 
Q 1553 2238 1856 2203 
L 2053 2175 
Q 2913 2066 3209 1816 
Q 3506 1566 3506 1031 
Q 3506 472 3093 190 
Q 2681 -91 1863 -91 
Q 1516 -91 1145 -36 
Q 775 19 384 128 
L 384 978 
Q 719 816 1070 734 
Q 1422 653 1784 653 
Q 2113 653 2278 743 
Q 2444 834 2444 1013 
Q 2444 1163 2330 1236 
Q 2216 1309 1875 1350 
L 1678 1375 
Q 931 1469 631 1722 
Q 331 1975 331 2491 
Q 331 3047 712 3315 
Q 1094 3584 1881 3584 
Q 2191 3584 2531 3537 
Q 2872 3491 3272 3391 
z
" transform="scale(0.015625)"/>
      <path id="DejaVuSans-Bold-4e" d="M 588 4666 
L 1931 4666 
L 3628 1466 
L 3628 4666 
L 4769 4666 
L 4769 0 
L 3425 0 
L 1728 3200 
L 1728 0 
L 588 0 
L 588 4666 
z
" transform="scale(0.015625)"/>
      <path id="DejaVuSans-Bold-49" d="M 588 4666 
L 1791 4666 
L 1791 0 
L 588 0 
L 588 4666 
z
" transform="scale(0.015625)"/>
      <path id="DejaVuSans-Bold-66" d="M 2841 4863 
L 2841 4128 
L 2222 4128 
Q 1984 4128 1890 4042 
Q 1797 3956 1797 3744 
L 1797 3500 
L 2753 3500 
L 2753 2700 
L 1797 2700 
L 1797 0 
L 678 0 
L 678 2700 
L 122 2700 
L 122 3500 
L 678 3500 
L 678 3744 
Q 678 4316 997 4589 
Q 1316 4863 1984 4863 
L 2841 4863 
z
" transform="scale(0.015625)"/>
     </defs>
     <use xlink:href="#DejaVuSans-Bold-43"/>
     <use xlink:href="#DejaVuSans-Bold-2e" transform="translate(73.388672 0)"/>
     <use xlink:href="#DejaVuSans-Bold-20" transform="translate(111.376953 0)"/>
     <use xlink:href="#DejaVuSans-Bold-41" transform="translate(146.191406 0)"/>
     <use xlink:href="#DejaVuSans-Bold-67" transform="translate(223.583984 0)"/>
     <use xlink:href="#DejaVuSans-Bold-67" transform="translate(295.166016 0)"/>
     <use xlink:href="#DejaVuSans-Bold-72" transform="translate(366.748047 0)"/>
     <use xlink:href="#DejaVuSans-Bold-65" transform="translate(416.064453 0)"/>
     <use xlink:href="#DejaVuSans-Bold-67" transform="translate(483.886719 0)"/>
     <use xlink:href="#DejaVuSans-Bold-61" transform="translate(555.46875 0)"/>
     <use xlink:href="#DejaVuSans-Bold-74" transform="translate(622.949219 0)"/>
     <use xlink:href="#DejaVuSans-Bold-69" transform="translate(670.751953 0)"/>
     <use xlink:href="#DejaVuSans-Bold-6f" transform="translate(705.029297 0)"/>
     <use xlink:href="#DejaVuSans-Bold-6e" transform="translate(773.730469 0)"/>
     <use xlink:href="#DejaVuSans-Bold-20" transform="translate(844.921875 0)"/>
     <use xlink:href="#DejaVuSans-Bold-43" transform="translate(879.736328 0)"/>
     <use xlink:href="#DejaVuSans-Bold-6f" transform="translate(953.125 0)"/>
     <use xlink:href="#DejaVuSans-Bold-6d" transform="translate(1021.826172 0)"/>
     <use xlink:href="#DejaVuSans-Bold-62" transform="translate(1126.025391 0)"/>
     <use xlink:href="#DejaVuSans-Bold-69" transform="translate(1197.607422 0)"/>
     <use xlink:href="#DejaVuSans-Bold-6e" transform="translate(1231.884766 0)"/>
     <use xlink:href="#DejaVuSans-Bold-65" transform="translate(1303.076172 0)"/>
     <use xlink:href="#DejaVuSans-Bold-73" transform="translate(1370.898438 0)"/>
     <use xlink:href="#DejaVuSans-Bold-20" transform="translate(1430.419922 0)"/>
     <use xlink:href="#DejaVuSans-Bold-4e" transform="translate(1465.234375 0)"/>
     <use xlink:href="#DejaVuSans-Bold-65" transform="translate(1548.925781 0)"/>
     <use xlink:href="#DejaVuSans-Bold-69" transform="translate(1616.748047 0)"/>
     <use xlink:href="#DejaVuSans-Bold-67" transform="translate(1651.025391 0)"/>
     <use xlink:href="#DejaVuSans-Bold-68" transform="translate(1722.607422 0)"/>
     <use xlink:href="#DejaVuSans-Bold-62" transform="translate(1793.798828 0)"/>
     <use xlink:href="#DejaVuSans-Bold-6f" transform="translate(1865.380859 0)"/>
     <use xlink:href="#DejaVuSans-Bold-72" transform="translate(1934.082031 0)"/>
     <use xlink:href="#DejaVuSans-Bold-20" transform="translate(1983.398438 0)"/>
     <use xlink:href="#DejaVuSans-Bold-49" transform="translate(2018.212891 0)"/>
     <use xlink:href="#DejaVuSans-Bold-6e" transform="translate(2055.419922 0)"/>
     <use xlink:href="#DejaVuSans-Bold-66" transform="translate(2126.611328 0)"/>
     <use xlink:href="#DejaVuSans-Bold-6f" transform="translate(2170.117188 0)"/>
     <use xlink:href="#DejaVuSans-Bold-72" transform="translate(2238.818359 0)"/>
     <use xlink:href="#DejaVuSans-Bold-6d" transform="translate(2288.134766 0)"/>
     <use xlink:href="#DejaVuSans-Bold-61" transform="translate(2392.333984 0)"/>
     <use xlink:href="#DejaVuSans-Bold-74" transform="translate(2459.814453 0)"/>
     <use xlink:href="#DejaVuSans-Bold-69" transform="translate(2507.617188 0)"/>
     <use xlink:href="#DejaVuSans-Bold-6f" transform="translate(2541.894531 0)"/>
     <use xlink:href="#DejaVuSans-Bold-6e" transform="translate(2610.595703 0)"/>
    </g>
   </g>
  </g>
 </g>
 <defs>
  <clipPath id="pc640d5079d">
   <rect x="7.2" y="21.558281" width="554.4" height="323.76"/>
  </clipPath>
 </defs>
</svg>
