<?xml version="1.0" encoding="UTF-8" standalone="no"?>
<!DOCTYPE svg PUBLIC "-//W3C//DTD SVG 1.1//EN"
 "http://www.w3.org/Graphics/SVG/1.1/DTD/svg11.dtd">
<!-- Generated by graphviz version 2.43.0 (0)
 -->
<!-- Title: gnn_integrate Pages: 1 -->
<svg width="268pt" height="504pt"
 viewBox="0.00 0.00 267.92 504.00" xmlns="http://www.w3.org/2000/svg" xmlns:xlink="http://www.w3.org/1999/xlink">
<g id="graph0" class="graph" transform="scale(1.38 1.38) rotate(0) translate(4 360)">
<title>gnn_integrate</title>
<polygon fill="white" stroke="transparent" points="-4,4 -4,-360 189.5,-360 189.5,4 -4,4"/>
<!-- esm -->
<g id="node1" class="node">
<title>esm</title>
<path fill="#1f77b4" stroke="black" stroke-width="1.5" d="M60.5,-356C60.5,-356 16.5,-356 16.5,-356 10.5,-356 4.5,-350 4.5,-344 4.5,-344 4.5,-332 4.5,-332 4.5,-326 10.5,-320 16.5,-320 16.5,-320 60.5,-320 60.5,-320 66.5,-320 72.5,-326 72.5,-332 72.5,-332 72.5,-344 72.5,-344 72.5,-350 66.5,-356 60.5,-356"/>
<text text-anchor="middle" x="38.5" y="-340.8" font-family="Arial" font-size="9.00" fill="white">ESM&#45;2</text>
<text text-anchor="middle" x="38.5" y="-330.8" font-family="Arial" font-size="9.00" fill="white">Embeddings</text>
</g>
<!-- init -->
<g id="node3" class="node">
<title>init</title>
<path fill="#aec7e8" stroke="black" stroke-width="1.5" d="M65,-269C65,-269 12,-269 12,-269 6,-269 0,-263 0,-257 0,-257 0,-245 0,-245 0,-239 6,-233 12,-233 12,-233 65,-233 65,-233 71,-233 77,-239 77,-245 77,-245 77,-257 77,-257 77,-263 71,-269 65,-269"/>
<text text-anchor="middle" x="38.5" y="-253.8" font-family="Arial" font-size="9.00">Initialize</text>
<text text-anchor="middle" x="38.5" y="-243.8" font-family="Arial" font-size="9.00">Node Features</text>
</g>
<!-- esm&#45;&gt;init -->
<g id="edge1" class="edge">
<title>esm&#45;&gt;init</title>
<path fill="none" stroke="black" d="M38.5,-319.8C38.5,-308.16 38.5,-292.55 38.5,-279.24"/>
<polygon fill="black" stroke="black" points="42,-279.18 38.5,-269.18 35,-279.18 42,-279.18"/>
<text text-anchor="middle" x="70.5" y="-290.8" font-family="Times,serif" font-size="14.00">Features</text>
</g>
<!-- ppi -->
<g id="node2" class="node">
<title>ppi</title>
<path fill="#2ca02c" stroke="black" stroke-width="1.5" d="M137.5,-269C137.5,-269 107.5,-269 107.5,-269 101.5,-269 95.5,-263 95.5,-257 95.5,-257 95.5,-245 95.5,-245 95.5,-239 101.5,-233 107.5,-233 107.5,-233 137.5,-233 137.5,-233 143.5,-233 149.5,-239 149.5,-245 149.5,-245 149.5,-257 149.5,-257 149.5,-263 143.5,-269 137.5,-269"/>
<text text-anchor="middle" x="122.5" y="-253.8" font-family="Arial" font-size="9.00" fill="white">PPI</text>
<text text-anchor="middle" x="122.5" y="-243.8" font-family="Arial" font-size="9.00" fill="white">Network</text>
</g>
<!-- gnn -->
<g id="node4" class="node">
<title>gnn</title>
<path fill="#9467bd" stroke="black" stroke-width="1.5" d="M116.5,-182C116.5,-182 86.5,-182 86.5,-182 80.5,-182 74.5,-176 74.5,-170 74.5,-170 74.5,-158 74.5,-158 74.5,-152 80.5,-146 86.5,-146 86.5,-146 116.5,-146 116.5,-146 122.5,-146 128.5,-152 128.5,-158 128.5,-158 128.5,-170 128.5,-170 128.5,-176 122.5,-182 116.5,-182"/>
<text text-anchor="middle" x="101.5" y="-166.8" font-family="Arial" font-size="9.00" fill="white">GNN</text>
<text text-anchor="middle" x="101.5" y="-156.8" font-family="Arial" font-size="9.00" fill="white">Layers</text>
</g>
<!-- ppi&#45;&gt;gnn -->
<g id="edge2" class="edge">
<title>ppi&#45;&gt;gnn</title>
<path fill="none" stroke="black" d="M118.25,-232.8C115.38,-221.16 111.52,-205.55 108.23,-192.24"/>
<polygon fill="black" stroke="black" points="111.54,-191.04 105.74,-182.18 104.74,-192.72 111.54,-191.04"/>
<text text-anchor="middle" x="149" y="-203.8" font-family="Times,serif" font-size="14.00">Adjacency</text>
</g>
<!-- init&#45;&gt;gnn -->
<g id="edge3" class="edge">
<title>init&#45;&gt;gnn</title>
<path fill="none" stroke="black" d="M51.25,-232.8C60.3,-220.59 72.6,-203.99 82.76,-190.28"/>
<polygon fill="black" stroke="black" points="85.63,-192.29 88.77,-182.18 80,-188.13 85.63,-192.29"/>
</g>
<!-- readout -->
<g id="node5" class="node">
<title>readout</title>
<path fill="#ffbb78" stroke="black" stroke-width="1.5" d="M116.5,-109C116.5,-109 86.5,-109 86.5,-109 80.5,-109 74.5,-103 74.5,-97 74.5,-97 74.5,-85 74.5,-85 74.5,-79 80.5,-73 86.5,-73 86.5,-73 116.5,-73 116.5,-73 122.5,-73 128.5,-79 128.5,-85 128.5,-85 128.5,-97 128.5,-97 128.5,-103 122.5,-109 116.5,-109"/>
<text text-anchor="middle" x="101.5" y="-93.8" font-family="Arial" font-size="9.00">Graph</text>
<text text-anchor="middle" x="101.5" y="-83.8" font-family="Arial" font-size="9.00">Readout</text>
</g>
<!-- gnn&#45;&gt;readout -->
<g id="edge4" class="edge">
<title>gnn&#45;&gt;readout</title>
<path fill="none" stroke="black" d="M101.5,-145.81C101.5,-137.79 101.5,-128.05 101.5,-119.07"/>
<polygon fill="black" stroke="black" points="105,-119.03 101.5,-109.03 98,-119.03 105,-119.03"/>
</g>
<!-- pred -->
<g id="node6" class="node">
<title>pred</title>
<path fill="#98df8a" stroke="black" stroke-width="1.5" d="M118.5,-36C118.5,-36 84.5,-36 84.5,-36 78.5,-36 72.5,-30 72.5,-24 72.5,-24 72.5,-12 72.5,-12 72.5,-6 78.5,0 84.5,0 84.5,0 118.5,0 118.5,0 124.5,0 130.5,-6 130.5,-12 130.5,-12 130.5,-24 130.5,-24 130.5,-30 124.5,-36 118.5,-36"/>
<text text-anchor="middle" x="101.5" y="-15.8" font-family="Arial" font-size="9.00">Prediction</text>
</g>
<!-- readout&#45;&gt;pred -->
<g id="edge5" class="edge">
<title>readout&#45;&gt;pred</title>
<path fill="none" stroke="black" d="M101.5,-72.81C101.5,-64.79 101.5,-55.05 101.5,-46.07"/>
<polygon fill="black" stroke="black" points="105,-46.03 101.5,-36.03 98,-46.03 105,-46.03"/>
</g>
</g>
</svg>
