<?xml version="1.0" encoding="utf-8" ?>
<svg xmlns="http://www.w3.org/2000/svg" xmlns:ev="http://www.w3.org/2001/xml-events" xmlns:xlink="http://www.w3.org/1999/xlink" baseProfile="full" height="800" version="1.1" width="1200">
  <defs>
    <marker id="id38" markerHeight="7" markerWidth="7" orient="auto" refX="6" refY="3">
      <path d="M0,0 L0,6 L6,3 z" fill="#333333"/>
    </marker>
  </defs>
  <rect fill="white" height="800" width="1200" x="0" y="0"/>
  <text fill="#111" font-family="Arial, Helvetica, sans-serif" font-size="28" font-weight="700" x="60" y="50">Figure 5.3: Embedding Space Visualization (Three-Panel)</text>
  <text fill="#444" font-family="Arial, Helvetica, sans-serif" font-size="16" x="60" y="78">Panel B</text>
  <line stroke="#333" stroke-width="2" x1="140" x2="1000" y1="720" y2="720"/>
  <line stroke="#333" stroke-width="2" x1="140" x2="140" y1="160" y2="720"/>
  <circle cx="212.86738384110913" cy="534.3005255451312" fill="#2ca02c" opacity="0.75" r="4"/>
  <circle cx="359.1430539983515" cy="482.92038425159615" fill="#1f77b4" opacity="0.75" r="4"/>
  <circle cx="434.4335242995107" cy="481.74011388480494" fill="#2ca02c" opacity="0.75" r="4"/>
  <circle cx="480.5966722135248" cy="562.9774868303987" fill="#2ca02c" opacity="0.75" r="4"/>
  <circle cx="372.32254730400143" cy="531.122801890254" fill="#2ca02c" opacity="0.75" r="4"/>
  <circle cx="364.6105468391417" cy="609.5929721080165" fill="#ff7f0e" opacity="0.75" r="4"/>
  <circle cx="329.56529322276833" cy="572.1094541736278" fill="#1f77b4" opacity="0.75" r="4"/>
  <circle cx="365.7401080008417" cy="565.74305174958" fill="#2ca02c" opacity="0.75" r="4"/>
  <circle cx="303.9538963882462" cy="538.5638733613546" fill="#1f77b4" opacity="0.75" r="4"/>
  <circle cx="351.5944894846755" cy="500.0538854193629" fill="#ff7f0e" opacity="0.75" r="4"/>
  <circle cx="408.0071115537018" cy="545.2850617317956" fill="#ff7f0e" opacity="0.75" r="4"/>
  <circle cx="505.52238203913254" cy="462.2423118189189" fill="#2ca02c" opacity="0.75" r="4"/>
  <circle cx="476.85438844351535" cy="511.12387464349945" fill="#1f77b4" opacity="0.75" r="4"/>
  <circle cx="420.0503990578181" cy="516.8462945014765" fill="#2ca02c" opacity="0.75" r="4"/>
  <circle cx="562.9745514486586" cy="559.7811768633937" fill="#ff7f0e" opacity="0.75" r="4"/>
  <circle cx="436.8776085058192" cy="504.2993594943957" fill="#ff7f0e" opacity="0.75" r="4"/>
  <circle cx="396.8449191361799" cy="505.79355775614493" fill="#ff7f0e" opacity="0.75" r="4"/>
  <circle cx="312.0435525864914" cy="533.4823586574048" fill="#2ca02c" opacity="0.75" r="4"/>
  <circle cx="566.459915919054" cy="449.6162924316105" fill="#2ca02c" opacity="0.75" r="4"/>
  <circle cx="383.8509199609275" cy="523.7323733907864" fill="#2ca02c" opacity="0.75" r="4"/>
  <circle cx="437.73793318274153" cy="578.6786456384664" fill="#1f77b4" opacity="0.75" r="4"/>
  <circle cx="363.00487746001863" cy="519.0140685447348" fill="#1f77b4" opacity="0.75" r="4"/>
  <circle cx="389.8448674059714" cy="553.3500661990263" fill="#ff7f0e" opacity="0.75" r="4"/>
  <circle cx="385.05079099067325" cy="602.492401343316" fill="#2ca02c" opacity="0.75" r="4"/>
  <circle cx="404.87609781209983" cy="444.90652064263656" fill="#2ca02c" opacity="0.75" r="4"/>
  <circle cx="438.0176465662636" cy="570.459475265297" fill="#ff7f0e" opacity="0.75" r="4"/>
  <circle cx="472.37074492454485" cy="457.50019152027033" fill="#ff7f0e" opacity="0.75" r="4"/>
  <circle cx="332.5291188954469" cy="522.3790942897634" fill="#ff7f0e" opacity="0.75" r="4"/>
  <circle cx="449.92512619576956" cy="480.4652935499702" fill="#2ca02c" opacity="0.75" r="4"/>
  <circle cx="336.2323556581084" cy="581.2806498839302" fill="#1f77b4" opacity="0.75" r="4"/>
  <circle cx="311.92022739851666" cy="646.5698707544736" fill="#1f77b4" opacity="0.75" r="4"/>
  <circle cx="493.56699173307976" cy="489.44514153270046" fill="#2ca02c" opacity="0.75" r="4"/>
  <circle cx="460.264412516559" cy="518.4732626810489" fill="#ff7f0e" opacity="0.75" r="4"/>
  <circle cx="298.69365610937007" cy="501.83037122788824" fill="#ff7f0e" opacity="0.75" r="4"/>
  <circle cx="312.1846432082503" cy="531.3978943165342" fill="#ff7f0e" opacity="0.75" r="4"/>
  <circle cx="417.4607815844284" cy="582.7829084358743" fill="#ff7f0e" opacity="0.75" r="4"/>
  <circle cx="441.87447968677577" cy="482.884225202587" fill="#2ca02c" opacity="0.75" r="4"/>
  <circle cx="483.7226009449987" cy="569.3994565480289" fill="#2ca02c" opacity="0.75" r="4"/>
  <circle cx="418.26139249723417" cy="503.2797011937259" fill="#2ca02c" opacity="0.75" r="4"/>
  <circle cx="334.80967129323335" cy="405.4745473119072" fill="#1f77b4" opacity="0.75" r="4"/>
  <circle cx="535.4356184360267" cy="372.4979403149799" fill="#2ca02c" opacity="0.75" r="4"/>
  <circle cx="350.2894949875616" cy="557.0323579234309" fill="#1f77b4" opacity="0.75" r="4"/>
  <circle cx="270.0576989194716" cy="551.3453850515917" fill="#1f77b4" opacity="0.75" r="4"/>
  <circle cx="448.80485202982277" cy="499.07899185833327" fill="#ff7f0e" opacity="0.75" r="4"/>
  <circle cx="388.78733842343644" cy="542.72574357626" fill="#ff7f0e" opacity="0.75" r="4"/>
  <circle cx="363.48443124213645" cy="515.4429749046119" fill="#2ca02c" opacity="0.75" r="4"/>
  <circle cx="368.86353718912153" cy="449.4752878761548" fill="#2ca02c" opacity="0.75" r="4"/>
  <circle cx="461.38645842450575" cy="515.2157106845185" fill="#ff7f0e" opacity="0.75" r="4"/>
  <circle cx="445.3310857304457" cy="552.0425803103351" fill="#2ca02c" opacity="0.75" r="4"/>
  <circle cx="403.42842062244375" cy="557.6585553433038" fill="#1f77b4" opacity="0.75" r="4"/>
  <circle cx="383.79901298575703" cy="510.6644612432097" fill="#2ca02c" opacity="0.75" r="4"/>
  <circle cx="367.04418144993315" cy="534.0762986934658" fill="#1f77b4" opacity="0.75" r="4"/>
  <circle cx="482.16885143213574" cy="520.5039165600845" fill="#1f77b4" opacity="0.75" r="4"/>
  <circle cx="497.00000486957384" cy="515.4849533668519" fill="#2ca02c" opacity="0.75" r="4"/>
  <circle cx="440.380204288878" cy="556.4445705871954" fill="#2ca02c" opacity="0.75" r="4"/>
  <circle cx="716.0896429159375" cy="458.58148457673974" fill="#2ca02c" opacity="0.75" r="4"/>
  <circle cx="725.3806759909212" cy="480.95537161467865" fill="#ff7f0e" opacity="0.75" r="4"/>
  <circle cx="682.2330442522422" cy="426.11433297476833" fill="#1f77b4" opacity="0.75" r="4"/>
  <circle cx="683.6826823696547" cy="395.06984099503944" fill="#1f77b4" opacity="0.75" r="4"/>
  <circle cx="684.1065076700634" cy="336.34897316432887" fill="#1f77b4" opacity="0.75" r="4"/>
  <circle cx="682.4586632593945" cy="557.8418435888935" fill="#ff7f0e" opacity="0.75" r="4"/>
  <circle cx="722.9360409353893" cy="417.94963344168093" fill="#ff7f0e" opacity="0.75" r="4"/>
  <circle cx="653.1715588870071" cy="475.1530919653174" fill="#1f77b4" opacity="0.75" r="4"/>
  <circle cx="579.1996725629917" cy="402.21675199791696" fill="#ff7f0e" opacity="0.75" r="4"/>
  <circle cx="654.1816573605466" cy="419.1735344556933" fill="#ff7f0e" opacity="0.75" r="4"/>
  <circle cx="605.2407822917986" cy="385.23462328035475" fill="#1f77b4" opacity="0.75" r="4"/>
  <circle cx="734.4452879912149" cy="520.2114552134016" fill="#2ca02c" opacity="0.75" r="4"/>
  <circle cx="721.6438071652015" cy="448.37549215948405" fill="#ff7f0e" opacity="0.75" r="4"/>
  <circle cx="571.9834248631654" cy="381.42670337545485" fill="#ff7f0e" opacity="0.75" r="4"/>
  <circle cx="676.5407852188807" cy="398.6028546337041" fill="#ff7f0e" opacity="0.75" r="4"/>
  <circle cx="603.5977571543318" cy="353.0260224667678" fill="#2ca02c" opacity="0.75" r="4"/>
  <circle cx="714.1795063800655" cy="464.8185182478431" fill="#2ca02c" opacity="0.75" r="4"/>
  <circle cx="731.8651866751121" cy="413.0925214958293" fill="#2ca02c" opacity="0.75" r="4"/>
  <circle cx="635.300352323763" cy="341.7241556932157" fill="#ff7f0e" opacity="0.75" r="4"/>
  <circle cx="614.3505306323301" cy="377.2712168199565" fill="#ff7f0e" opacity="0.75" r="4"/>
  <circle cx="745.8192275127019" cy="389.7442906964915" fill="#ff7f0e" opacity="0.75" r="4"/>
  <circle cx="716.0362391578096" cy="440.890886760115" fill="#1f77b4" opacity="0.75" r="4"/>
  <circle cx="664.8798640956401" cy="435.96181834852763" fill="#2ca02c" opacity="0.75" r="4"/>
  <circle cx="575.943327654089" cy="405.71491425726083" fill="#1f77b4" opacity="0.75" r="4"/>
  <circle cx="622.8669629117588" cy="383.5386943857018" fill="#ff7f0e" opacity="0.75" r="4"/>
  <circle cx="604.8163146256644" cy="483.9723896632261" fill="#ff7f0e" opacity="0.75" r="4"/>
  <circle cx="662.9464842145588" cy="425.712256170958" fill="#2ca02c" opacity="0.75" r="4"/>
  <circle cx="597.8902523967311" cy="357.96871982813843" fill="#1f77b4" opacity="0.75" r="4"/>
  <circle cx="695.0284226594919" cy="394.0173681305233" fill="#2ca02c" opacity="0.75" r="4"/>
  <circle cx="669.0848356153886" cy="480.69787631198477" fill="#2ca02c" opacity="0.75" r="4"/>
  <circle cx="672.2348107564802" cy="429.83303863133" fill="#1f77b4" opacity="0.75" r="4"/>
  <circle cx="578.5917805595661" cy="423.0482130595098" fill="#2ca02c" opacity="0.75" r="4"/>
  <circle cx="681.2616242165325" cy="345.4142280589417" fill="#2ca02c" opacity="0.75" r="4"/>
  <circle cx="634.7161912598303" cy="512.6746668176809" fill="#ff7f0e" opacity="0.75" r="4"/>
  <circle cx="622.00287184689" cy="372.22423134759134" fill="#2ca02c" opacity="0.75" r="4"/>
  <circle cx="443.53151402829764" cy="411.2294865377436" fill="#1f77b4" opacity="0.75" r="4"/>
  <circle cx="626.2478132882851" cy="437.37304458934426" fill="#ff7f0e" opacity="0.75" r="4"/>
  <circle cx="664.3843100161529" cy="518.6515489556087" fill="#1f77b4" opacity="0.75" r="4"/>
  <circle cx="745.8107207896212" cy="437.512288590656" fill="#2ca02c" opacity="0.75" r="4"/>
  <circle cx="765.9068773963135" cy="362.9602904289791" fill="#ff7f0e" opacity="0.75" r="4"/>
  <circle cx="729.375846762235" cy="399.8345036337661" fill="#1f77b4" opacity="0.75" r="4"/>
  <circle cx="568.4696560180639" cy="433.4124752410657" fill="#2ca02c" opacity="0.75" r="4"/>
  <circle cx="667.6785440057752" cy="435.09553301207427" fill="#1f77b4" opacity="0.75" r="4"/>
  <circle cx="634.0856968065607" cy="451.3224791476618" fill="#ff7f0e" opacity="0.75" r="4"/>
  <circle cx="523.4294231284077" cy="445.6176655758946" fill="#ff7f0e" opacity="0.75" r="4"/>
  <circle cx="564.3442585690291" cy="539.4165118428574" fill="#ff7f0e" opacity="0.75" r="4"/>
  <circle cx="670.4725649953231" cy="429.72769664584894" fill="#2ca02c" opacity="0.75" r="4"/>
  <circle cx="758.6569991685515" cy="433.26864091357936" fill="#1f77b4" opacity="0.75" r="4"/>
  <circle cx="748.0774042368229" cy="493.5694213235315" fill="#ff7f0e" opacity="0.75" r="4"/>
  <circle cx="679.228584466807" cy="374.1797920886556" fill="#2ca02c" opacity="0.75" r="4"/>
  <circle cx="651.2441569093119" cy="469.77123715569184" fill="#2ca02c" opacity="0.75" r="4"/>
  <circle cx="677.3171654110878" cy="406.3585531016116" fill="#1f77b4" opacity="0.75" r="4"/>
  <circle cx="709.4383348087781" cy="400.3185168732422" fill="#ff7f0e" opacity="0.75" r="4"/>
  <circle cx="662.1472932568008" cy="470.0630065930703" fill="#1f77b4" opacity="0.75" r="4"/>
  <circle cx="684.7771560889836" cy="429.9660223971604" fill="#1f77b4" opacity="0.75" r="4"/>
  <circle cx="517.5848986598936" cy="588.310526872441" fill="#ff7f0e" opacity="0.75" r="4"/>
  <circle cx="532.1866647959757" cy="585.94006407383" fill="#1f77b4" opacity="0.75" r="4"/>
  <circle cx="613.6738685499181" cy="583.2230665091877" fill="#ff7f0e" opacity="0.75" r="4"/>
  <circle cx="613.5716570551463" cy="565.3579589744793" fill="#2ca02c" opacity="0.75" r="4"/>
  <circle cx="526.1543847094013" cy="609.777195299802" fill="#2ca02c" opacity="0.75" r="4"/>
  <circle cx="516.8969718145913" cy="598.853023011361" fill="#2ca02c" opacity="0.75" r="4"/>
  <circle cx="493.7773304227727" cy="527.0056410265327" fill="#ff7f0e" opacity="0.75" r="4"/>
  <circle cx="503.0060374836412" cy="630.6673114847272" fill="#2ca02c" opacity="0.75" r="4"/>
  <circle cx="496.6450277501458" cy="564.0927765214316" fill="#ff7f0e" opacity="0.75" r="4"/>
  <circle cx="463.0826341100136" cy="523.4587955187451" fill="#ff7f0e" opacity="0.75" r="4"/>
  <circle cx="521.7074664837662" cy="572.8814261377536" fill="#2ca02c" opacity="0.75" r="4"/>
  <circle cx="533.6438310820804" cy="530.6863438788419" fill="#ff7f0e" opacity="0.75" r="4"/>
  <circle cx="417.3630070319375" cy="548.9832873527598" fill="#ff7f0e" opacity="0.75" r="4"/>
  <circle cx="555.8783013335396" cy="575.3397404713503" fill="#2ca02c" opacity="0.75" r="4"/>
  <circle cx="569.8056178889636" cy="554.2043307799265" fill="#ff7f0e" opacity="0.75" r="4"/>
  <circle cx="614.9981604942682" cy="528.8867846402987" fill="#ff7f0e" opacity="0.75" r="4"/>
  <circle cx="513.4080345588923" cy="589.3949997225141" fill="#1f77b4" opacity="0.75" r="4"/>
  <circle cx="554.3179903374305" cy="546.5551234440879" fill="#2ca02c" opacity="0.75" r="4"/>
  <circle cx="544.635824495913" cy="569.9894922217981" fill="#2ca02c" opacity="0.75" r="4"/>
  <circle cx="511.8645818217629" cy="589.150514018191" fill="#ff7f0e" opacity="0.75" r="4"/>
  <circle cx="538.9791927741978" cy="575.6378807686962" fill="#2ca02c" opacity="0.75" r="4"/>
  <circle cx="462.7338823021088" cy="618.6153852401615" fill="#ff7f0e" opacity="0.75" r="4"/>
  <circle cx="595.078519373481" cy="573.1209269019446" fill="#ff7f0e" opacity="0.75" r="4"/>
  <circle cx="490.120864664658" cy="596.317685152087" fill="#ff7f0e" opacity="0.75" r="4"/>
  <circle cx="457.1939344156576" cy="565.2299573060887" fill="#1f77b4" opacity="0.75" r="4"/>
  <circle cx="542.8728039675432" cy="495.93044272036724" fill="#1f77b4" opacity="0.75" r="4"/>
  <circle cx="576.4615256036844" cy="590.0570418790878" fill="#ff7f0e" opacity="0.75" r="4"/>
  <circle cx="519.6282947732919" cy="639.6105404859104" fill="#1f77b4" opacity="0.75" r="4"/>
  <circle cx="511.47465085611583" cy="563.9669549807788" fill="#1f77b4" opacity="0.75" r="4"/>
  <circle cx="465.0504394303042" cy="587.5960917570508" fill="#1f77b4" opacity="0.75" r="4"/>
  <circle cx="403.6993931079391" cy="599.6654461990236" fill="#ff7f0e" opacity="0.75" r="4"/>
  <circle cx="545.0738259719016" cy="614.4388479055758" fill="#2ca02c" opacity="0.75" r="4"/>
  <circle cx="568.0901000554528" cy="626.6174324124229" fill="#2ca02c" opacity="0.75" r="4"/>
  <circle cx="516.2836960684249" cy="586.0560682151099" fill="#ff7f0e" opacity="0.75" r="4"/>
  <circle cx="538.5204518917328" cy="573.5465541581725" fill="#2ca02c" opacity="0.75" r="4"/>
  <circle cx="597.9755083383232" cy="571.2915427335835" fill="#ff7f0e" opacity="0.75" r="4"/>
  <circle cx="503.9282813885733" cy="535.0018487497366" fill="#ff7f0e" opacity="0.75" r="4"/>
  <circle cx="480.06242726012255" cy="582.2771301327404" fill="#2ca02c" opacity="0.75" r="4"/>
  <circle cx="473.5281975584305" cy="512.6172038208778" fill="#1f77b4" opacity="0.75" r="4"/>
  <circle cx="565.2260219872962" cy="639.6939794351812" fill="#ff7f0e" opacity="0.75" r="4"/>
  <circle cx="577.6507970301914" cy="598.5089185854256" fill="#2ca02c" opacity="0.75" r="4"/>
  <circle cx="586.2378918855002" cy="524.3988278542046" fill="#ff7f0e" opacity="0.75" r="4"/>
  <circle cx="563.5475042695352" cy="530.1873376602716" fill="#2ca02c" opacity="0.75" r="4"/>
  <circle cx="497.7129540020736" cy="580.553705330726" fill="#ff7f0e" opacity="0.75" r="4"/>
  <circle cx="628.2231479868237" cy="581.587379611303" fill="#ff7f0e" opacity="0.75" r="4"/>
  <circle cx="533.6479814644333" cy="560.1560955122269" fill="#2ca02c" opacity="0.75" r="4"/>
  <circle cx="533.9356289604176" cy="553.0923622655259" fill="#2ca02c" opacity="0.75" r="4"/>
  <circle cx="536.5275814799252" cy="555.2834669244426" fill="#1f77b4" opacity="0.75" r="4"/>
  <circle cx="483.9175082515996" cy="615.2475356692322" fill="#2ca02c" opacity="0.75" r="4"/>
  <circle cx="525.1058634398532" cy="557.2237149444973" fill="#ff7f0e" opacity="0.75" r="4"/>
  <circle cx="516.2551342957725" cy="622.3539298077275" fill="#ff7f0e" opacity="0.75" r="4"/>
  <circle cx="544.4140396094604" cy="563.5643260592581" fill="#2ca02c" opacity="0.75" r="4"/>
  <circle cx="555.8137124156277" cy="528.201455201732" fill="#1f77b4" opacity="0.75" r="4"/>
  <circle cx="520.1738306270363" cy="579.3485545544686" fill="#ff7f0e" opacity="0.75" r="4"/>
  <circle cx="411.01165797883795" cy="609.0171548460551" fill="#1f77b4" opacity="0.75" r="4"/>
  <circle cx="914.0" cy="244.0" fill="#d62728" opacity="0.9" r="7"/>
  <text fill="#333" font-family="Arial, Helvetica, sans-serif" font-size="16" text-anchor="middle" x="570.0" y="765">Dimension 1</text>
  <text fill="#333" font-family="Arial, Helvetica, sans-serif" font-size="16" text-anchor="middle" transform="rotate(-90,85,440.0)" x="85" y="440.0">Dimension 2</text>
  <text fill="#999" font-family="Arial, Helvetica, sans-serif" font-size="12" text-anchor="end" x="1140" y="776">Auto-generated SVG</text>
</svg>
