<?xml version="1.0" encoding="utf-8" ?>
<svg xmlns="http://www.w3.org/2000/svg" xmlns:ev="http://www.w3.org/2001/xml-events" xmlns:xlink="http://www.w3.org/1999/xlink" baseProfile="full" height="800" version="1.1" width="1200">
  <defs>
    <marker id="id39" markerHeight="7" markerWidth="7" orient="auto" refX="6" refY="3">
      <path d="M0,0 L0,6 L6,3 z" fill="#333333"/>
    </marker>
  </defs>
  <rect fill="white" height="800" width="1200" x="0" y="0"/>
  <text fill="#111" font-family="Arial, Helvetica, sans-serif" font-size="28" font-weight="700" x="60" y="50">Figure 5.3: Embedding Space Visualization (Three-Panel)</text>
  <text fill="#444" font-family="Arial, Helvetica, sans-serif" font-size="16" x="60" y="78">Panel C</text>
  <line stroke="#333" stroke-width="2" x1="140" x2="1000" y1="720" y2="720"/>
  <line stroke="#333" stroke-width="2" x1="140" x2="140" y1="160" y2="720"/>
  <circle cx="447.3852928937346" cy="587.5639605940103" fill="#1f77b4" opacity="0.75" r="4"/>
  <circle cx="479.6202228578036" cy="520.855963289514" fill="#1f77b4" opacity="0.75" r="4"/>
  <circle cx="488.2583878007481" cy="539.620496230127" fill="#2ca02c" opacity="0.75" r="4"/>
  <circle cx="371.23950014492993" cy="536.6431903945914" fill="#1f77b4" opacity="0.75" r="4"/>
  <circle cx="381.3824775175489" cy="542.1111368848719" fill="#2ca02c" opacity="0.75" r="4"/>
  <circle cx="406.8440346796792" cy="519.3097310298108" fill="#2ca02c" opacity="0.75" r="4"/>
  <circle cx="496.5521470021177" cy="595.180034136283" fill="#1f77b4" opacity="0.75" r="4"/>
  <circle cx="350.25828311333066" cy="542.3745279138157" fill="#2ca02c" opacity="0.75" r="4"/>
  <circle cx="300.8896163860462" cy="590.2810447537757" fill="#ff7f0e" opacity="0.75" r="4"/>
  <circle cx="280.5801662447853" cy="587.381880291442" fill="#1f77b4" opacity="0.75" r="4"/>
  <circle cx="382.4100307458033" cy="535.921553713106" fill="#1f77b4" opacity="0.75" r="4"/>
  <circle cx="436.0457689287552" cy="587.9685601946933" fill="#1f77b4" opacity="0.75" r="4"/>
  <circle cx="443.9488462436202" cy="483.9836592427625" fill="#2ca02c" opacity="0.75" r="4"/>
  <circle cx="307.4028493553508" cy="529.3876981272737" fill="#ff7f0e" opacity="0.75" r="4"/>
  <circle cx="449.00420035256343" cy="548.4763729381814" fill="#2ca02c" opacity="0.75" r="4"/>
  <circle cx="339.6198533749448" cy="530.2622042383413" fill="#1f77b4" opacity="0.75" r="4"/>
  <circle cx="327.09408889795566" cy="557.0905920969309" fill="#2ca02c" opacity="0.75" r="4"/>
  <circle cx="502.4582324711426" cy="491.4020060260699" fill="#1f77b4" opacity="0.75" r="4"/>
  <circle cx="338.1702617346699" cy="589.5087254748966" fill="#1f77b4" opacity="0.75" r="4"/>
  <circle cx="478.18833665785934" cy="544.637356641754" fill="#1f77b4" opacity="0.75" r="4"/>
  <circle cx="366.3226365274104" cy="580.3103221316737" fill="#2ca02c" opacity="0.75" r="4"/>
  <circle cx="227.52657433745014" cy="507.49446926666684" fill="#2ca02c" opacity="0.75" r="4"/>
  <circle cx="358.172567785125" cy="536.5453448854693" fill="#2ca02c" opacity="0.75" r="4"/>
  <circle cx="591.0301019889603" cy="489.63786509335097" fill="#2ca02c" opacity="0.75" r="4"/>
  <circle cx="508.02595646931206" cy="524.8352921155963" fill="#1f77b4" opacity="0.75" r="4"/>
  <circle cx="324.0478667115898" cy="538.2817623396302" fill="#2ca02c" opacity="0.75" r="4"/>
  <circle cx="427.63224864888576" cy="484.27495234256736" fill="#2ca02c" opacity="0.75" r="4"/>
  <circle cx="377.67792786540315" cy="519.1115082759425" fill="#ff7f0e" opacity="0.75" r="4"/>
  <circle cx="400.8218482393783" cy="502.26788447772316" fill="#ff7f0e" opacity="0.75" r="4"/>
  <circle cx="308.54803057424385" cy="543.1552613933931" fill="#1f77b4" opacity="0.75" r="4"/>
  <circle cx="412.5297526140795" cy="565.3577137074471" fill="#2ca02c" opacity="0.75" r="4"/>
  <circle cx="324.9384862511002" cy="534.2656449018734" fill="#2ca02c" opacity="0.75" r="4"/>
  <circle cx="440.19678443133415" cy="403.0198737274892" fill="#1f77b4" opacity="0.75" r="4"/>
  <circle cx="451.00602524481906" cy="478.3208561993939" fill="#ff7f0e" opacity="0.75" r="4"/>
  <circle cx="286.5636678934835" cy="505.712277065546" fill="#2ca02c" opacity="0.75" r="4"/>
  <circle cx="390.7564324152577" cy="592.1113868913893" fill="#ff7f0e" opacity="0.75" r="4"/>
  <circle cx="455.45528845034136" cy="612.6883089145433" fill="#1f77b4" opacity="0.75" r="4"/>
  <circle cx="362.069252861673" cy="591.3802720971144" fill="#1f77b4" opacity="0.75" r="4"/>
  <circle cx="456.3464557505062" cy="556.3196952325077" fill="#1f77b4" opacity="0.75" r="4"/>
  <circle cx="298.5443448114698" cy="538.9996567218847" fill="#1f77b4" opacity="0.75" r="4"/>
  <circle cx="401.36104598851574" cy="547.2394417353986" fill="#ff7f0e" opacity="0.75" r="4"/>
  <circle cx="356.8787095379755" cy="545.7870578583558" fill="#1f77b4" opacity="0.75" r="4"/>
  <circle cx="464.5206642950332" cy="539.9373078117368" fill="#1f77b4" opacity="0.75" r="4"/>
  <circle cx="383.3106415822018" cy="476.0259686264799" fill="#2ca02c" opacity="0.75" r="4"/>
  <circle cx="406.4895778588126" cy="511.2366346263637" fill="#1f77b4" opacity="0.75" r="4"/>
  <circle cx="442.3176217872807" cy="574.0967841089052" fill="#2ca02c" opacity="0.75" r="4"/>
  <circle cx="375.5954495706054" cy="486.09660560830287" fill="#ff7f0e" opacity="0.75" r="4"/>
  <circle cx="357.32827248421904" cy="589.3108511000805" fill="#2ca02c" opacity="0.75" r="4"/>
  <circle cx="285.00186278148124" cy="519.0657762623489" fill="#2ca02c" opacity="0.75" r="4"/>
  <circle cx="279.3361841249333" cy="526.0295299180414" fill="#ff7f0e" opacity="0.75" r="4"/>
  <circle cx="494.7957911100037" cy="505.18538408075557" fill="#2ca02c" opacity="0.75" r="4"/>
  <circle cx="466.46222385405144" cy="531.0926530462891" fill="#1f77b4" opacity="0.75" r="4"/>
  <circle cx="363.35124912307293" cy="512.9848378320369" fill="#2ca02c" opacity="0.75" r="4"/>
  <circle cx="403.0582930577747" cy="562.2799959160279" fill="#ff7f0e" opacity="0.75" r="4"/>
  <circle cx="470.70390319781694" cy="516.3008965847312" fill="#2ca02c" opacity="0.75" r="4"/>
  <circle cx="634.8787345788257" cy="402.38821013339395" fill="#1f77b4" opacity="0.75" r="4"/>
  <circle cx="632.9198223425062" cy="422.9504188910041" fill="#2ca02c" opacity="0.75" r="4"/>
  <circle cx="658.5978916654145" cy="495.1152511759099" fill="#1f77b4" opacity="0.75" r="4"/>
  <circle cx="571.1587389333065" cy="499.9892391860357" fill="#ff7f0e" opacity="0.75" r="4"/>
  <circle cx="762.5333577863518" cy="422.9016706289376" fill="#2ca02c" opacity="0.75" r="4"/>
  <circle cx="779.8335457974605" cy="400.57133943222084" fill="#1f77b4" opacity="0.75" r="4"/>
  <circle cx="709.6325002594849" cy="425.34318512051857" fill="#1f77b4" opacity="0.75" r="4"/>
  <circle cx="619.4983800847567" cy="364.95426186500384" fill="#2ca02c" opacity="0.75" r="4"/>
  <circle cx="718.3690670342205" cy="452.5260545878407" fill="#ff7f0e" opacity="0.75" r="4"/>
  <circle cx="566.0557480142876" cy="440.2794379160094" fill="#ff7f0e" opacity="0.75" r="4"/>
  <circle cx="694.082120447499" cy="335.8156067387341" fill="#ff7f0e" opacity="0.75" r="4"/>
  <circle cx="706.138757328095" cy="328.7929030445622" fill="#ff7f0e" opacity="0.75" r="4"/>
  <circle cx="833.4697272044813" cy="407.2097689289151" fill="#ff7f0e" opacity="0.75" r="4"/>
  <circle cx="540.9499411894544" cy="303.84911932951877" fill="#1f77b4" opacity="0.75" r="4"/>
  <circle cx="790.8219048387288" cy="383.8773535280012" fill="#1f77b4" opacity="0.75" r="4"/>
  <circle cx="527.2717088802751" cy="369.53492259661397" fill="#2ca02c" opacity="0.75" r="4"/>
  <circle cx="738.6583842985381" cy="439.91435718908184" fill="#1f77b4" opacity="0.75" r="4"/>
  <circle cx="461.76417578491373" cy="388.62743397289216" fill="#ff7f0e" opacity="0.75" r="4"/>
  <circle cx="626.546729631357" cy="420.1197575670435" fill="#1f77b4" opacity="0.75" r="4"/>
  <circle cx="704.3265703116471" cy="449.6941055134815" fill="#ff7f0e" opacity="0.75" r="4"/>
  <circle cx="605.2541614467036" cy="428.1048325430145" fill="#2ca02c" opacity="0.75" r="4"/>
  <circle cx="897.1754103395259" cy="395.0308980057626" fill="#1f77b4" opacity="0.75" r="4"/>
  <circle cx="587.1824362891277" cy="389.0858128992739" fill="#1f77b4" opacity="0.75" r="4"/>
  <circle cx="684.2867449259243" cy="389.98711975829485" fill="#1f77b4" opacity="0.75" r="4"/>
  <circle cx="529.065471526898" cy="478.3572338140335" fill="#1f77b4" opacity="0.75" r="4"/>
  <circle cx="592.9301335351033" cy="428.024875311402" fill="#2ca02c" opacity="0.75" r="4"/>
  <circle cx="637.3935257706555" cy="423.2476592555045" fill="#ff7f0e" opacity="0.75" r="4"/>
  <circle cx="456.2705852342105" cy="433.601163416732" fill="#2ca02c" opacity="0.75" r="4"/>
  <circle cx="697.7476825230826" cy="356.07660644988755" fill="#1f77b4" opacity="0.75" r="4"/>
  <circle cx="673.7821954919907" cy="392.8259489687422" fill="#2ca02c" opacity="0.75" r="4"/>
  <circle cx="679.1892170015891" cy="446.1272124510567" fill="#1f77b4" opacity="0.75" r="4"/>
  <circle cx="753.9946126829473" cy="378.5717673712524" fill="#ff7f0e" opacity="0.75" r="4"/>
  <circle cx="606.6649409881396" cy="341.3332081808685" fill="#1f77b4" opacity="0.75" r="4"/>
  <circle cx="712.9603740518645" cy="330.6986733776326" fill="#ff7f0e" opacity="0.75" r="4"/>
  <circle cx="750.1249504852619" cy="389.59760472481497" fill="#2ca02c" opacity="0.75" r="4"/>
  <circle cx="646.2309975653575" cy="474.1831547236729" fill="#2ca02c" opacity="0.75" r="4"/>
  <circle cx="551.3032920174545" cy="414.46622491748553" fill="#ff7f0e" opacity="0.75" r="4"/>
  <circle cx="569.6994754830955" cy="454.1376905982856" fill="#2ca02c" opacity="0.75" r="4"/>
  <circle cx="648.4281746764932" cy="505.7476142627462" fill="#ff7f0e" opacity="0.75" r="4"/>
  <circle cx="664.396584719123" cy="452.7428613697578" fill="#2ca02c" opacity="0.75" r="4"/>
  <circle cx="718.5524779309758" cy="401.84693264943496" fill="#ff7f0e" opacity="0.75" r="4"/>
  <circle cx="568.3227140908845" cy="444.71302369920784" fill="#2ca02c" opacity="0.75" r="4"/>
  <circle cx="601.3807589559476" cy="375.2598454333391" fill="#2ca02c" opacity="0.75" r="4"/>
  <circle cx="741.4737352941249" cy="279.0040163433232" fill="#ff7f0e" opacity="0.75" r="4"/>
  <circle cx="666.4338081975034" cy="388.48931019453374" fill="#1f77b4" opacity="0.75" r="4"/>
  <circle cx="825.776874226217" cy="413.9765527558609" fill="#1f77b4" opacity="0.75" r="4"/>
  <circle cx="669.6886533175228" cy="414.2996344143003" fill="#1f77b4" opacity="0.75" r="4"/>
  <circle cx="582.8663579929571" cy="360.9801274985988" fill="#1f77b4" opacity="0.75" r="4"/>
  <circle cx="605.5906323442159" cy="400.9449862323516" fill="#ff7f0e" opacity="0.75" r="4"/>
  <circle cx="631.7896117871951" cy="335.8275018630843" fill="#2ca02c" opacity="0.75" r="4"/>
  <circle cx="716.2384260014838" cy="481.54695229557933" fill="#1f77b4" opacity="0.75" r="4"/>
  <circle cx="641.6190435254454" cy="372.2167874114775" fill="#2ca02c" opacity="0.75" r="4"/>
  <circle cx="634.5790676048373" cy="471.3268114212356" fill="#1f77b4" opacity="0.75" r="4"/>
  <circle cx="554.9483179287049" cy="412.4338195956243" fill="#ff7f0e" opacity="0.75" r="4"/>
  <circle cx="633.6565041213951" cy="348.8657323886109" fill="#ff7f0e" opacity="0.75" r="4"/>
  <circle cx="565.6395441362897" cy="569.9463676699676" fill="#ff7f0e" opacity="0.75" r="4"/>
  <circle cx="511.1901675883551" cy="588.9756390479697" fill="#ff7f0e" opacity="0.75" r="4"/>
  <circle cx="456.24909994543725" cy="547.4114184430564" fill="#ff7f0e" opacity="0.75" r="4"/>
  <circle cx="440.6941565400953" cy="531.7942355410211" fill="#ff7f0e" opacity="0.75" r="4"/>
  <circle cx="491.33796556441246" cy="544.265400834827" fill="#1f77b4" opacity="0.75" r="4"/>
  <circle cx="517.9132855533092" cy="697.3519694227233" fill="#1f77b4" opacity="0.75" r="4"/>
  <circle cx="499.35020641925496" cy="578.8238112362907" fill="#ff7f0e" opacity="0.75" r="4"/>
  <circle cx="495.53181438238715" cy="550.2269045275" fill="#1f77b4" opacity="0.75" r="4"/>
  <circle cx="419.3430154421474" cy="613.3303912739469" fill="#ff7f0e" opacity="0.75" r="4"/>
  <circle cx="564.6482551476374" cy="518.4210649301082" fill="#1f77b4" opacity="0.75" r="4"/>
  <circle cx="506.9057028335172" cy="584.0715514364633" fill="#2ca02c" opacity="0.75" r="4"/>
  <circle cx="426.62194125490436" cy="570.5878047323769" fill="#ff7f0e" opacity="0.75" r="4"/>
  <circle cx="434.7012638561823" cy="563.8580728254915" fill="#1f77b4" opacity="0.75" r="4"/>
  <circle cx="554.9213433979828" cy="624.3138315759686" fill="#1f77b4" opacity="0.75" r="4"/>
  <circle cx="592.3513676528646" cy="615.9146489372454" fill="#1f77b4" opacity="0.75" r="4"/>
  <circle cx="501.02044154910607" cy="554.1211333156086" fill="#2ca02c" opacity="0.75" r="4"/>
  <circle cx="597.0585891376763" cy="603.6591267338648" fill="#1f77b4" opacity="0.75" r="4"/>
  <circle cx="515.9213304928478" cy="605.6142136680929" fill="#ff7f0e" opacity="0.75" r="4"/>
  <circle cx="550.9160271519625" cy="618.0145002601391" fill="#1f77b4" opacity="0.75" r="4"/>
  <circle cx="617.6761379807507" cy="596.6482994157634" fill="#2ca02c" opacity="0.75" r="4"/>
  <circle cx="541.5507307170451" cy="566.322112708933" fill="#1f77b4" opacity="0.75" r="4"/>
  <circle cx="470.9269382738143" cy="599.2347877087027" fill="#2ca02c" opacity="0.75" r="4"/>
  <circle cx="509.5907720016147" cy="536.421408268886" fill="#ff7f0e" opacity="0.75" r="4"/>
  <circle cx="496.39590521771134" cy="572.4379320503868" fill="#ff7f0e" opacity="0.75" r="4"/>
  <circle cx="457.553650796453" cy="578.8039935154413" fill="#1f77b4" opacity="0.75" r="4"/>
  <circle cx="624.9752272481439" cy="544.165961564821" fill="#ff7f0e" opacity="0.75" r="4"/>
  <circle cx="495.6665738816731" cy="583.5207092768096" fill="#2ca02c" opacity="0.75" r="4"/>
  <circle cx="516.2892412033816" cy="602.2802517597025" fill="#ff7f0e" opacity="0.75" r="4"/>
  <circle cx="541.2540697842622" cy="576.8565488622368" fill="#1f77b4" opacity="0.75" r="4"/>
  <circle cx="492.4390918783393" cy="591.298417829458" fill="#2ca02c" opacity="0.75" r="4"/>
  <circle cx="481.42512416175504" cy="525.0245492249143" fill="#1f77b4" opacity="0.75" r="4"/>
  <circle cx="518.3443885854953" cy="603.5859131800094" fill="#2ca02c" opacity="0.75" r="4"/>
  <circle cx="489.51716003317495" cy="560.8275912240422" fill="#ff7f0e" opacity="0.75" r="4"/>
  <circle cx="560.518824608183" cy="540.2144158731205" fill="#2ca02c" opacity="0.75" r="4"/>
  <circle cx="587.4935674673281" cy="561.8645077574758" fill="#2ca02c" opacity="0.75" r="4"/>
  <circle cx="467.1680912301677" cy="579.3387235409518" fill="#1f77b4" opacity="0.75" r="4"/>
  <circle cx="488.832806282841" cy="648.5543357309576" fill="#1f77b4" opacity="0.75" r="4"/>
  <circle cx="509.53532067179736" cy="536.6136679075194" fill="#1f77b4" opacity="0.75" r="4"/>
  <circle cx="662.7658926216351" cy="614.7813415852519" fill="#1f77b4" opacity="0.75" r="4"/>
  <circle cx="576.2945998262105" cy="629.7135819858252" fill="#ff7f0e" opacity="0.75" r="4"/>
  <circle cx="442.90000990004603" cy="627.8933182399339" fill="#ff7f0e" opacity="0.75" r="4"/>
  <circle cx="608.2721450504825" cy="611.9865891444283" fill="#1f77b4" opacity="0.75" r="4"/>
  <circle cx="510.67327026854815" cy="525.435699232591" fill="#2ca02c" opacity="0.75" r="4"/>
  <circle cx="507.7574654569781" cy="577.8734756143381" fill="#1f77b4" opacity="0.75" r="4"/>
  <circle cx="513.2497858384199" cy="551.2905458668138" fill="#ff7f0e" opacity="0.75" r="4"/>
  <circle cx="546.5654589590616" cy="589.9100497160177" fill="#1f77b4" opacity="0.75" r="4"/>
  <circle cx="580.8486337001038" cy="592.3897690455655" fill="#ff7f0e" opacity="0.75" r="4"/>
  <circle cx="421.2800281980219" cy="542.2808559191265" fill="#ff7f0e" opacity="0.75" r="4"/>
  <circle cx="480.54844852695896" cy="569.6911679623576" fill="#1f77b4" opacity="0.75" r="4"/>
  <circle cx="520.228637581743" cy="619.4953468627613" fill="#ff7f0e" opacity="0.75" r="4"/>
  <circle cx="508.5466072481608" cy="577.2005415080359" fill="#ff7f0e" opacity="0.75" r="4"/>
  <circle cx="437.70816693468606" cy="605.0480365111617" fill="#2ca02c" opacity="0.75" r="4"/>
  <circle cx="514.0782771470153" cy="578.8449662709305" fill="#1f77b4" opacity="0.75" r="4"/>
  <circle cx="563.796986601338" cy="539.7130795804151" fill="#1f77b4" opacity="0.75" r="4"/>
  <circle cx="542.7377451966651" cy="592.4938482355187" fill="#ff7f0e" opacity="0.75" r="4"/>
  <circle cx="914.0" cy="244.0" fill="#d62728" opacity="0.9" r="7"/>
  <text fill="#333" font-family="Arial, Helvetica, sans-serif" font-size="16" text-anchor="middle" x="570.0" y="765">Dimension 1</text>
  <text fill="#333" font-family="Arial, Helvetica, sans-serif" font-size="16" text-anchor="middle" transform="rotate(-90,85,440.0)" x="85" y="440.0">Dimension 2</text>
  <text fill="#999" font-family="Arial, Helvetica, sans-serif" font-size="12" text-anchor="end" x="1140" y="776">Auto-generated SVG</text>
</svg>
