<?xml version="1.0" encoding="UTF-8" standalone="no"?>
<!DOCTYPE svg PUBLIC "-//W3C//DTD SVG 1.1//EN"
 "http://www.w3.org/Graphics/SVG/1.1/DTD/svg11.dtd">
<!-- Generated by graphviz version 2.43.0 (0)
 -->
<!-- Title: regulatory Pages: 1 -->
<svg width="607pt" height="720pt"
 viewBox="0.00 0.00 606.82 720.00" xmlns="http://www.w3.org/2000/svg" xmlns:xlink="http://www.w3.org/1999/xlink">
<g id="graph0" class="graph" transform="scale(2.41 2.41) rotate(0) translate(4 295)">
<title>regulatory</title>
<polygon fill="white" stroke="transparent" points="-4,4 -4,-295 248,-295 248,4 -4,4"/>
<g id="clust1" class="cluster">
<title>cluster_input</title>
<path fill="none" stroke="black" d="M20,-208C20,-208 224,-208 224,-208 230,-208 236,-214 236,-220 236,-220 236,-271 236,-271 236,-277 230,-283 224,-283 224,-283 20,-283 20,-283 14,-283 8,-277 8,-271 8,-271 8,-220 8,-220 8,-214 14,-208 20,-208"/>
<text text-anchor="middle" x="122" y="-267.8" font-family="Times,serif" font-size="14.00">Design Inputs</text>
</g>
<!-- cell -->
<g id="node1" class="node">
<title>cell</title>
<path fill="#aec7e8" stroke="black" stroke-width="1.5" d="M216,-252C216,-252 184,-252 184,-252 178,-252 172,-246 172,-240 172,-240 172,-228 172,-228 172,-222 178,-216 184,-216 184,-216 216,-216 216,-216 222,-216 228,-222 228,-228 228,-228 228,-240 228,-240 228,-246 222,-252 216,-252"/>
<text text-anchor="middle" x="200" y="-236.8" font-family="Arial" font-size="9.00">Target</text>
<text text-anchor="middle" x="200" y="-226.8" font-family="Arial" font-size="9.00">Cell Type</text>
</g>
<!-- dna_fm -->
<g id="node4" class="node">
<title>dna_fm</title>
<path fill="#1f77b4" stroke="black" stroke-width="1.5" d="M156.5,-180C156.5,-180 89.5,-180 89.5,-180 83.5,-180 77.5,-174 77.5,-168 77.5,-168 77.5,-156 77.5,-156 77.5,-150 83.5,-144 89.5,-144 89.5,-144 156.5,-144 156.5,-144 162.5,-144 168.5,-150 168.5,-156 168.5,-156 168.5,-168 168.5,-168 168.5,-174 162.5,-180 156.5,-180"/>
<text text-anchor="middle" x="123" y="-164.8" font-family="Arial" font-size="9.00" fill="white">DNA</text>
<text text-anchor="middle" x="123" y="-154.8" font-family="Arial" font-size="9.00" fill="white">Foundation Model</text>
</g>
<!-- cell&#45;&gt;dna_fm -->
<g id="edge1" class="edge">
<title>cell&#45;&gt;dna_fm</title>
<path fill="none" stroke="black" d="M180.97,-215.7C171.46,-207.05 159.79,-196.45 149.43,-187.03"/>
<polygon fill="black" stroke="black" points="151.57,-184.24 141.81,-180.1 146.86,-189.42 151.57,-184.24"/>
</g>
<!-- expr -->
<g id="node2" class="node">
<title>expr</title>
<path fill="#98df8a" stroke="black" stroke-width="1.5" d="M142,-252C142,-252 104,-252 104,-252 98,-252 92,-246 92,-240 92,-240 92,-228 92,-228 92,-222 98,-216 104,-216 104,-216 142,-216 142,-216 148,-216 154,-222 154,-228 154,-228 154,-240 154,-240 154,-246 148,-252 142,-252"/>
<text text-anchor="middle" x="123" y="-236.8" font-family="Arial" font-size="9.00">Expression</text>
<text text-anchor="middle" x="123" y="-226.8" font-family="Arial" font-size="9.00">Level</text>
</g>
<!-- expr&#45;&gt;dna_fm -->
<g id="edge2" class="edge">
<title>expr&#45;&gt;dna_fm</title>
<path fill="none" stroke="black" d="M123,-215.7C123,-207.98 123,-198.71 123,-190.11"/>
<polygon fill="black" stroke="black" points="126.5,-190.1 123,-180.1 119.5,-190.1 126.5,-190.1"/>
</g>
<!-- spec -->
<g id="node3" class="node">
<title>spec</title>
<path fill="#ffbb78" stroke="black" stroke-width="1.5" d="M62,-252C62,-252 28,-252 28,-252 22,-252 16,-246 16,-240 16,-240 16,-228 16,-228 16,-222 22,-216 28,-216 28,-216 62,-216 62,-216 68,-216 74,-222 74,-228 74,-228 74,-240 74,-240 74,-246 68,-252 62,-252"/>
<text text-anchor="middle" x="45" y="-231.8" font-family="Arial" font-size="9.00">Specificity</text>
</g>
<!-- spec&#45;&gt;dna_fm -->
<g id="edge3" class="edge">
<title>spec&#45;&gt;dna_fm</title>
<path fill="none" stroke="black" d="M64.28,-215.7C73.92,-207.05 85.73,-196.45 96.23,-187.03"/>
<polygon fill="black" stroke="black" points="98.84,-189.39 103.94,-180.1 94.16,-184.18 98.84,-189.39"/>
</g>
<!-- optimize -->
<g id="node5" class="node">
<title>optimize</title>
<path fill="#9467bd" stroke="black" stroke-width="1.5" d="M145,-108C145,-108 101,-108 101,-108 95,-108 89,-102 89,-96 89,-96 89,-84 89,-84 89,-78 95,-72 101,-72 101,-72 145,-72 145,-72 151,-72 157,-78 157,-84 157,-84 157,-96 157,-96 157,-102 151,-108 145,-108"/>
<text text-anchor="middle" x="123" y="-92.8" font-family="Arial" font-size="9.00" fill="white">Gradient</text>
<text text-anchor="middle" x="123" y="-82.8" font-family="Arial" font-size="9.00" fill="white">Optimization</text>
</g>
<!-- dna_fm&#45;&gt;optimize -->
<g id="edge4" class="edge">
<title>dna_fm&#45;&gt;optimize</title>
<path fill="none" stroke="black" d="M123,-143.7C123,-135.98 123,-126.71 123,-118.11"/>
<polygon fill="black" stroke="black" points="126.5,-118.1 123,-108.1 119.5,-118.1 126.5,-118.1"/>
</g>
<!-- promoter -->
<g id="node6" class="node">
<title>promoter</title>
<path fill="#2ca02c" stroke="black" stroke-width="1.5" d="M139,-36C139,-36 107,-36 107,-36 101,-36 95,-30 95,-24 95,-24 95,-12 95,-12 95,-6 101,0 107,0 107,0 139,0 139,0 145,0 151,-6 151,-12 151,-12 151,-24 151,-24 151,-30 145,-36 139,-36"/>
<text text-anchor="middle" x="123" y="-20.8" font-family="Arial" font-size="9.00" fill="white">Designed</text>
<text text-anchor="middle" x="123" y="-10.8" font-family="Arial" font-size="9.00" fill="white">Promoter</text>
</g>
<!-- optimize&#45;&gt;promoter -->
<g id="edge5" class="edge">
<title>optimize&#45;&gt;promoter</title>
<path fill="none" stroke="black" d="M123,-71.7C123,-63.98 123,-54.71 123,-46.11"/>
<polygon fill="black" stroke="black" points="126.5,-46.1 123,-36.1 119.5,-46.1 126.5,-46.1"/>
</g>
</g>
</svg>
