<?xml version="1.0" encoding="UTF-8" standalone="no"?>
<!DOCTYPE svg PUBLIC "-//W3C//DTD SVG 1.1//EN"
 "http://www.w3.org/Graphics/SVG/1.1/DTD/svg11.dtd">
<!-- Generated by graphviz version 2.43.0 (0)
 -->
<!-- Title: dbtl Pages: 1 -->
<svg width="249pt" height="576pt"
 viewBox="0.00 0.00 248.55 576.00" xmlns="http://www.w3.org/2000/svg" xmlns:xlink="http://www.w3.org/1999/xlink">
<g id="graph0" class="graph" transform="scale(1.97 1.97) rotate(0) translate(4 288)">
<title>dbtl</title>
<polygon fill="white" stroke="transparent" points="-4,4 -4,-288 122,-288 122,4 -4,4"/>
<!-- design -->
<g id="node1" class="node">
<title>design</title>
<path fill="#1f77b4" stroke="black" stroke-width="1.5" d="M83,-284C83,-284 53,-284 53,-284 47,-284 41,-278 41,-272 41,-272 41,-260 41,-260 41,-254 47,-248 53,-248 53,-248 83,-248 83,-248 89,-248 95,-254 95,-260 95,-260 95,-272 95,-272 95,-278 89,-284 83,-284"/>
<text text-anchor="middle" x="68" y="-263.8" font-family="Arial" font-size="9.00" fill="white">Design</text>
</g>
<!-- build -->
<g id="node2" class="node">
<title>build</title>
<path fill="#2ca02c" stroke="black" stroke-width="1.5" d="M42,-211C42,-211 12,-211 12,-211 6,-211 0,-205 0,-199 0,-199 0,-187 0,-187 0,-181 6,-175 12,-175 12,-175 42,-175 42,-175 48,-175 54,-181 54,-187 54,-187 54,-199 54,-199 54,-205 48,-211 42,-211"/>
<text text-anchor="middle" x="27" y="-190.8" font-family="Arial" font-size="9.00" fill="white">Build</text>
</g>
<!-- design&#45;&gt;build -->
<g id="edge1" class="edge">
<title>design&#45;&gt;build</title>
<path fill="none" stroke="black" d="M58.08,-247.81C53.24,-239.44 47.33,-229.2 41.96,-219.9"/>
<polygon fill="black" stroke="black" points="44.87,-217.94 36.83,-211.03 38.8,-221.44 44.87,-217.94"/>
</g>
<!-- test -->
<g id="node3" class="node">
<title>test</title>
<path fill="#ff7f0e" stroke="black" stroke-width="1.5" d="M42,-109C42,-109 12,-109 12,-109 6,-109 0,-103 0,-97 0,-97 0,-85 0,-85 0,-79 6,-73 12,-73 12,-73 42,-73 42,-73 48,-73 54,-79 54,-85 54,-85 54,-97 54,-97 54,-103 48,-109 42,-109"/>
<text text-anchor="middle" x="27" y="-88.8" font-family="Arial" font-size="9.00" fill="white">Test</text>
</g>
<!-- build&#45;&gt;test -->
<g id="edge2" class="edge">
<title>build&#45;&gt;test</title>
<path fill="none" stroke="black" d="M27,-174.58C27,-159.38 27,-137.07 27,-119.46"/>
<polygon fill="black" stroke="black" points="30.5,-119.22 27,-109.22 23.5,-119.22 30.5,-119.22"/>
</g>
<!-- learn -->
<g id="node4" class="node">
<title>learn</title>
<path fill="#9467bd" stroke="black" stroke-width="1.5" d="M69,-36C69,-36 39,-36 39,-36 33,-36 27,-30 27,-24 27,-24 27,-12 27,-12 27,-6 33,0 39,0 39,0 69,0 69,0 75,0 81,-6 81,-12 81,-12 81,-24 81,-24 81,-30 75,-36 69,-36"/>
<text text-anchor="middle" x="54" y="-15.8" font-family="Arial" font-size="9.00" fill="white">Learn</text>
</g>
<!-- test&#45;&gt;learn -->
<g id="edge3" class="edge">
<title>test&#45;&gt;learn</title>
<path fill="none" stroke="black" d="M33.54,-72.81C36.65,-64.62 40.45,-54.62 43.93,-45.48"/>
<polygon fill="black" stroke="black" points="47.24,-46.62 47.52,-36.03 40.7,-44.13 47.24,-46.62"/>
</g>
<!-- learn&#45;&gt;design -->
<g id="edge4" class="edge">
<title>learn&#45;&gt;design</title>
<path fill="none" stroke="black" d="M56.85,-36.09C59.48,-51.91 63,-73 63,-73 63,-73 65.92,-185.01 67.29,-237.92"/>
<polygon fill="black" stroke="black" points="63.8,-238.06 67.56,-247.96 70.79,-237.87 63.8,-238.06"/>
<text text-anchor="middle" x="91.5" y="-145.8" font-family="Times,serif" font-size="14.00">FM</text>
<text text-anchor="middle" x="91.5" y="-130.8" font-family="Times,serif" font-size="14.00">Update</text>
</g>
</g>
</svg>
