<?xml version="1.0" encoding="utf-8" ?>
<svg xmlns="http://www.w3.org/2000/svg" xmlns:ev="http://www.w3.org/2001/xml-events" xmlns:xlink="http://www.w3.org/1999/xlink" baseProfile="full" height="800" version="1.1" width="1200">
  <defs>
    <marker id="id95" markerHeight="7" markerWidth="7" orient="auto" refX="6" refY="3">
      <path d="M0,0 L0,6 L6,3 z" fill="#333333"/>
    </marker>
  </defs>
  <rect fill="white" height="800" width="1200" x="0" y="0"/>
  <text fill="#111" font-family="Arial, Helvetica, sans-serif" font-size="28" font-weight="700" x="60" y="50">Figure 11.4: Proxy-Target Gap</text>
  <line stroke="#333" stroke-width="2" x1="140" x2="1000" y1="720" y2="720"/>
  <line stroke="#333" stroke-width="2" x1="140" x2="140" y1="160" y2="720"/>
  <circle cx="466.1641108674364" cy="561.6068414644606" fill="#2ca02c" opacity="0.75" r="4"/>
  <circle cx="432.00174160651005" cy="505.6913072222785" fill="#1f77b4" opacity="0.75" r="4"/>
  <circle cx="479.45749329123123" cy="527.4733619842278" fill="#2ca02c" opacity="0.75" r="4"/>
  <circle cx="274.4616803323563" cy="555.7569959466115" fill="#2ca02c" opacity="0.75" r="4"/>
  <circle cx="473.36501417606945" cy="477.8392195646225" fill="#ff7f0e" opacity="0.75" r="4"/>
  <circle cx="343.56793579753696" cy="536.7107793624175" fill="#ff7f0e" opacity="0.75" r="4"/>
  <circle cx="413.30580358539765" cy="589.6035912575242" fill="#1f77b4" opacity="0.75" r="4"/>
  <circle cx="312.54509759241296" cy="625.7789160188366" fill="#1f77b4" opacity="0.75" r="4"/>
  <circle cx="359.11186776359057" cy="563.1873332999105" fill="#ff7f0e" opacity="0.75" r="4"/>
  <circle cx="481.97920249557933" cy="527.6381455148883" fill="#2ca02c" opacity="0.75" r="4"/>
  <circle cx="385.3159494062447" cy="476.14639439940294" fill="#ff7f0e" opacity="0.75" r="4"/>
  <circle cx="410.137414301592" cy="528.8578094804338" fill="#2ca02c" opacity="0.75" r="4"/>
  <circle cx="350.96324816236324" cy="506.3397576571292" fill="#ff7f0e" opacity="0.75" r="4"/>
  <circle cx="288.9811567605996" cy="505.4542718057951" fill="#ff7f0e" opacity="0.75" r="4"/>
  <circle cx="354.5964807598622" cy="522.3914155970955" fill="#ff7f0e" opacity="0.75" r="4"/>
  <circle cx="368.3182100513767" cy="536.3701087537264" fill="#1f77b4" opacity="0.75" r="4"/>
  <circle cx="297.62182700362007" cy="528.7280723483075" fill="#2ca02c" opacity="0.75" r="4"/>
  <circle cx="272.7977328333893" cy="560.91396501122" fill="#ff7f0e" opacity="0.75" r="4"/>
  <circle cx="452.47533625426286" cy="427.2709216498974" fill="#1f77b4" opacity="0.75" r="4"/>
  <circle cx="507.8778540721073" cy="467.38684525880814" fill="#2ca02c" opacity="0.75" r="4"/>
  <circle cx="492.677257119454" cy="535.5370505328533" fill="#ff7f0e" opacity="0.75" r="4"/>
  <circle cx="456.17764909660326" cy="528.9536245444739" fill="#ff7f0e" opacity="0.75" r="4"/>
  <circle cx="407.15990958878774" cy="619.2961371385557" fill="#2ca02c" opacity="0.75" r="4"/>
  <circle cx="420.4589033279274" cy="489.8962034131921" fill="#ff7f0e" opacity="0.75" r="4"/>
  <circle cx="371.04629692447537" cy="585.1356817044257" fill="#ff7f0e" opacity="0.75" r="4"/>
  <circle cx="320.4639957912499" cy="634.2486924374657" fill="#1f77b4" opacity="0.75" r="4"/>
  <circle cx="515.5321351160962" cy="531.3992432448371" fill="#1f77b4" opacity="0.75" r="4"/>
  <circle cx="312.0004097097858" cy="501.5221131800075" fill="#ff7f0e" opacity="0.75" r="4"/>
  <circle cx="410.56903636882856" cy="491.7435432646342" fill="#ff7f0e" opacity="0.75" r="4"/>
  <circle cx="420.23384787054283" cy="438.9555425130017" fill="#1f77b4" opacity="0.75" r="4"/>
  <circle cx="426.5018763188324" cy="514.8369056882095" fill="#2ca02c" opacity="0.75" r="4"/>
  <circle cx="433.1604713572743" cy="534.0743085729036" fill="#ff7f0e" opacity="0.75" r="4"/>
  <circle cx="508.2995626124661" cy="575.3956160837945" fill="#1f77b4" opacity="0.75" r="4"/>
  <circle cx="449.31716806005227" cy="568.729278530833" fill="#ff7f0e" opacity="0.75" r="4"/>
  <circle cx="388.9171025845682" cy="552.7399296730784" fill="#2ca02c" opacity="0.75" r="4"/>
  <circle cx="414.0125108562738" cy="435.18053837080157" fill="#ff7f0e" opacity="0.75" r="4"/>
  <circle cx="266.62271983334216" cy="515.833643463274" fill="#2ca02c" opacity="0.75" r="4"/>
  <circle cx="413.0845817442991" cy="515.4235484150624" fill="#2ca02c" opacity="0.75" r="4"/>
  <circle cx="397.5015306243776" cy="560.6289096971482" fill="#1f77b4" opacity="0.75" r="4"/>
  <circle cx="361.1899912307271" cy="548.3581227374684" fill="#2ca02c" opacity="0.75" r="4"/>
  <circle cx="322.2194236914679" cy="583.9570776741466" fill="#1f77b4" opacity="0.75" r="4"/>
  <circle cx="387.1121055655862" cy="547.5703703520732" fill="#1f77b4" opacity="0.75" r="4"/>
  <circle cx="445.9551952264003" cy="560.3061915414385" fill="#ff7f0e" opacity="0.75" r="4"/>
  <circle cx="277.8210945739586" cy="569.7515308014611" fill="#1f77b4" opacity="0.75" r="4"/>
  <circle cx="356.9978235118034" cy="577.1308928804765" fill="#1f77b4" opacity="0.75" r="4"/>
  <circle cx="438.79131905327375" cy="551.6181905474289" fill="#1f77b4" opacity="0.75" r="4"/>
  <circle cx="471.5685976006065" cy="527.5078166475181" fill="#ff7f0e" opacity="0.75" r="4"/>
  <circle cx="473.62929390139294" cy="495.76827576436807" fill="#ff7f0e" opacity="0.75" r="4"/>
  <circle cx="392.7771015026839" cy="482.8741189268076" fill="#ff7f0e" opacity="0.75" r="4"/>
  <circle cx="356.75991850117407" cy="615.5383208377475" fill="#1f77b4" opacity="0.75" r="4"/>
  <circle cx="345.1921306444396" cy="543.2632781654927" fill="#ff7f0e" opacity="0.75" r="4"/>
  <circle cx="289.2903226884676" cy="534.0831099484601" fill="#2ca02c" opacity="0.75" r="4"/>
  <circle cx="350.90626021555215" cy="514.3992234433265" fill="#2ca02c" opacity="0.75" r="4"/>
  <circle cx="484.21030824654025" cy="560.8066838628822" fill="#1f77b4" opacity="0.75" r="4"/>
  <circle cx="344.9767706204785" cy="532.7671112224227" fill="#ff7f0e" opacity="0.75" r="4"/>
  <circle cx="731.5814545853924" cy="431.84717268682317" fill="#2ca02c" opacity="0.75" r="4"/>
  <circle cx="590.8621944284607" cy="437.8993102130084" fill="#1f77b4" opacity="0.75" r="4"/>
  <circle cx="575.8800266607909" cy="507.93983435988224" fill="#ff7f0e" opacity="0.75" r="4"/>
  <circle cx="539.5122901826448" cy="427.34924919595557" fill="#1f77b4" opacity="0.75" r="4"/>
  <circle cx="741.9128465608802" cy="392.83027019847384" fill="#ff7f0e" opacity="0.75" r="4"/>
  <circle cx="601.7760381275442" cy="466.7808858738795" fill="#ff7f0e" opacity="0.75" r="4"/>
  <circle cx="517.4199241846745" cy="336.64017110525253" fill="#ff7f0e" opacity="0.75" r="4"/>
  <circle cx="722.8915034635188" cy="441.3747110224782" fill="#ff7f0e" opacity="0.75" r="4"/>
  <circle cx="691.3097482133584" cy="439.81525904524693" fill="#2ca02c" opacity="0.75" r="4"/>
  <circle cx="490.2545449091466" cy="332.06104567565086" fill="#1f77b4" opacity="0.75" r="4"/>
  <circle cx="743.107336108695" cy="556.6078929426512" fill="#2ca02c" opacity="0.75" r="4"/>
  <circle cx="701.9489623585122" cy="449.9657583042371" fill="#ff7f0e" opacity="0.75" r="4"/>
  <circle cx="782.6025934353717" cy="467.9460900796628" fill="#ff7f0e" opacity="0.75" r="4"/>
  <circle cx="753.4474732614523" cy="340.2293455678465" fill="#1f77b4" opacity="0.75" r="4"/>
  <circle cx="594.9763593842529" cy="407.8007712237785" fill="#ff7f0e" opacity="0.75" r="4"/>
  <circle cx="638.9012761403193" cy="456.1810389911493" fill="#ff7f0e" opacity="0.75" r="4"/>
  <circle cx="632.7195625983579" cy="405.2488641865997" fill="#2ca02c" opacity="0.75" r="4"/>
  <circle cx="862.4116331030028" cy="433.9013648097809" fill="#ff7f0e" opacity="0.75" r="4"/>
  <circle cx="646.8754524365859" cy="439.85724876297803" fill="#2ca02c" opacity="0.75" r="4"/>
  <circle cx="750.7867324047764" cy="420.50998322321834" fill="#ff7f0e" opacity="0.75" r="4"/>
  <circle cx="685.6186455980534" cy="388.54510539851725" fill="#1f77b4" opacity="0.75" r="4"/>
  <circle cx="637.6152546440557" cy="519.5117672737983" fill="#2ca02c" opacity="0.75" r="4"/>
  <circle cx="804.3072849012195" cy="383.75349522371965" fill="#ff7f0e" opacity="0.75" r="4"/>
  <circle cx="650.5565005062235" cy="392.9239454726961" fill="#ff7f0e" opacity="0.75" r="4"/>
  <circle cx="644.0508594632846" cy="350.3988645927892" fill="#1f77b4" opacity="0.75" r="4"/>
  <circle cx="682.4242144229436" cy="375.12604027822624" fill="#2ca02c" opacity="0.75" r="4"/>
  <circle cx="632.706066336427" cy="395.78492829157483" fill="#ff7f0e" opacity="0.75" r="4"/>
  <circle cx="598.4730857339179" cy="366.64152313717494" fill="#ff7f0e" opacity="0.75" r="4"/>
  <circle cx="603.0532449334432" cy="286.20933279410394" fill="#2ca02c" opacity="0.75" r="4"/>
  <circle cx="697.6576804673799" cy="413.2699811957081" fill="#2ca02c" opacity="0.75" r="4"/>
  <circle cx="800.7366414309225" cy="416.5065295893554" fill="#1f77b4" opacity="0.75" r="4"/>
  <circle cx="739.6939528269272" cy="485.10889134093975" fill="#2ca02c" opacity="0.75" r="4"/>
  <circle cx="606.8465936151738" cy="381.40597070664023" fill="#ff7f0e" opacity="0.75" r="4"/>
  <circle cx="690.3275399454395" cy="394.5028806483715" fill="#1f77b4" opacity="0.75" r="4"/>
  <circle cx="600.1273225200516" cy="495.06791996666743" fill="#2ca02c" opacity="0.75" r="4"/>
  <circle cx="621.4219289222693" cy="480.476677580886" fill="#ff7f0e" opacity="0.75" r="4"/>
  <circle cx="592.9357937868806" cy="446.1191288140931" fill="#2ca02c" opacity="0.75" r="4"/>
  <circle cx="806.7990877007582" cy="345.9897781193736" fill="#2ca02c" opacity="0.75" r="4"/>
  <circle cx="628.3658917513203" cy="441.9589906768336" fill="#ff7f0e" opacity="0.75" r="4"/>
  <circle cx="741.2579092220818" cy="471.5994036612728" fill="#ff7f0e" opacity="0.75" r="4"/>
  <circle cx="674.9606083118884" cy="465.1005061801578" fill="#2ca02c" opacity="0.75" r="4"/>
  <circle cx="564.5184048667232" cy="436.5617240902256" fill="#2ca02c" opacity="0.75" r="4"/>
  <circle cx="616.642802158931" cy="364.8198678304763" fill="#2ca02c" opacity="0.75" r="4"/>
  <circle cx="598.2694809807472" cy="437.8204648239896" fill="#ff7f0e" opacity="0.75" r="4"/>
  <circle cx="645.5856624341783" cy="362.88245062554597" fill="#1f77b4" opacity="0.75" r="4"/>
  <circle cx="557.627580682172" cy="444.1596470612683" fill="#ff7f0e" opacity="0.75" r="4"/>
  <circle cx="669.6670307948194" cy="439.90121272892384" fill="#1f77b4" opacity="0.75" r="4"/>
  <circle cx="704.096859063705" cy="442.18402062748106" fill="#ff7f0e" opacity="0.75" r="4"/>
  <circle cx="689.1757187322702" cy="417.0734759347775" fill="#1f77b4" opacity="0.75" r="4"/>
  <circle cx="608.9754071566335" cy="499.69591130356304" fill="#1f77b4" opacity="0.75" r="4"/>
  <circle cx="675.0506971235072" cy="466.44490491212514" fill="#2ca02c" opacity="0.75" r="4"/>
  <circle cx="537.5334117577786" cy="417.0312275155179" fill="#2ca02c" opacity="0.75" r="4"/>
  <circle cx="831.081800115605" cy="354.660481817236" fill="#ff7f0e" opacity="0.75" r="4"/>
  <circle cx="503.25942646096297" cy="410.7893575570099" fill="#2ca02c" opacity="0.75" r="4"/>
  <circle cx="530.6985685368425" cy="405.5526737741443" fill="#1f77b4" opacity="0.75" r="4"/>
  <circle cx="441.43300407394673" cy="523.6331113831757" fill="#2ca02c" opacity="0.75" r="4"/>
  <circle cx="474.07254643233205" cy="569.4292739447609" fill="#2ca02c" opacity="0.75" r="4"/>
  <circle cx="446.07816745005783" cy="670.5249255464653" fill="#1f77b4" opacity="0.75" r="4"/>
  <circle cx="524.7357312273607" cy="570.6415846561276" fill="#1f77b4" opacity="0.75" r="4"/>
  <circle cx="546.6020233588029" cy="576.8654723956724" fill="#ff7f0e" opacity="0.75" r="4"/>
  <circle cx="550.6621337574226" cy="621.6515981386683" fill="#2ca02c" opacity="0.75" r="4"/>
  <circle cx="500.542359819892" cy="619.4342841993964" fill="#1f77b4" opacity="0.75" r="4"/>
  <circle cx="517.8011217508142" cy="593.1903526142676" fill="#1f77b4" opacity="0.75" r="4"/>
  <circle cx="594.181710235668" cy="589.8869473522013" fill="#2ca02c" opacity="0.75" r="4"/>
  <circle cx="486.1936773863839" cy="607.2647963777575" fill="#ff7f0e" opacity="0.75" r="4"/>
  <circle cx="546.5713556510108" cy="564.3834887144826" fill="#2ca02c" opacity="0.75" r="4"/>
  <circle cx="588.4463922533243" cy="589.5900173552027" fill="#1f77b4" opacity="0.75" r="4"/>
  <circle cx="519.2388998489336" cy="586.3516565535501" fill="#1f77b4" opacity="0.75" r="4"/>
  <circle cx="596.3226560794144" cy="582.651436842875" fill="#1f77b4" opacity="0.75" r="4"/>
  <circle cx="570.0909865205876" cy="632.3399638434162" fill="#2ca02c" opacity="0.75" r="4"/>
  <circle cx="536.9616054944731" cy="524.3287396913773" fill="#2ca02c" opacity="0.75" r="4"/>
  <circle cx="517.3184165710799" cy="571.5567004348152" fill="#ff7f0e" opacity="0.75" r="4"/>
  <circle cx="606.7797810298985" cy="602.3455256354775" fill="#2ca02c" opacity="0.75" r="4"/>
  <circle cx="485.71887680246925" cy="607.5734928013296" fill="#1f77b4" opacity="0.75" r="4"/>
  <circle cx="464.1271683442161" cy="665.7371127609473" fill="#1f77b4" opacity="0.75" r="4"/>
  <circle cx="441.6129181594816" cy="615.9644559231788" fill="#ff7f0e" opacity="0.75" r="4"/>
  <circle cx="464.3812407894526" cy="600.0579797679427" fill="#2ca02c" opacity="0.75" r="4"/>
  <circle cx="580.2398565574413" cy="611.9087131506317" fill="#1f77b4" opacity="0.75" r="4"/>
  <circle cx="363.5918731177118" cy="521.3920538641496" fill="#2ca02c" opacity="0.75" r="4"/>
  <circle cx="467.0874845986607" cy="495.37598631103435" fill="#2ca02c" opacity="0.75" r="4"/>
  <circle cx="562.6748165131239" cy="606.7767245818493" fill="#1f77b4" opacity="0.75" r="4"/>
  <circle cx="395.498506105414" cy="639.1225301595492" fill="#1f77b4" opacity="0.75" r="4"/>
  <circle cx="487.74942922518915" cy="589.8993007459711" fill="#2ca02c" opacity="0.75" r="4"/>
  <circle cx="543.0682394125092" cy="536.376427301401" fill="#2ca02c" opacity="0.75" r="4"/>
  <circle cx="579.8145576829285" cy="642.9894734720981" fill="#1f77b4" opacity="0.75" r="4"/>
  <circle cx="526.5071950808901" cy="552.0673978699176" fill="#2ca02c" opacity="0.75" r="4"/>
  <circle cx="487.4572263790216" cy="577.1922916609064" fill="#2ca02c" opacity="0.75" r="4"/>
  <circle cx="522.8041004581385" cy="561.8491228841317" fill="#2ca02c" opacity="0.75" r="4"/>
  <circle cx="565.6641296105267" cy="576.77038624224" fill="#2ca02c" opacity="0.75" r="4"/>
  <circle cx="540.2986869721847" cy="584.2762486607089" fill="#2ca02c" opacity="0.75" r="4"/>
  <circle cx="474.4200445723292" cy="556.2606295532705" fill="#1f77b4" opacity="0.75" r="4"/>
  <circle cx="461.682856474428" cy="589.7969973635787" fill="#1f77b4" opacity="0.75" r="4"/>
  <circle cx="577.4957906794133" cy="567.9086240917487" fill="#2ca02c" opacity="0.75" r="4"/>
  <circle cx="471.5310936600311" cy="568.8339283282603" fill="#1f77b4" opacity="0.75" r="4"/>
  <circle cx="500.56267276616285" cy="639.7528944967723" fill="#1f77b4" opacity="0.75" r="4"/>
  <circle cx="483.02129616464794" cy="594.583698902896" fill="#2ca02c" opacity="0.75" r="4"/>
  <circle cx="528.9474774729413" cy="576.0917435754116" fill="#1f77b4" opacity="0.75" r="4"/>
  <circle cx="500.3225050723973" cy="587.9810538109314" fill="#ff7f0e" opacity="0.75" r="4"/>
  <circle cx="490.6407266419157" cy="547.7967947580696" fill="#1f77b4" opacity="0.75" r="4"/>
  <circle cx="613.1927734605913" cy="593.7959209573305" fill="#2ca02c" opacity="0.75" r="4"/>
  <circle cx="607.2125726270651" cy="549.7058989702821" fill="#ff7f0e" opacity="0.75" r="4"/>
  <circle cx="559.9891327023734" cy="665.1930718953183" fill="#1f77b4" opacity="0.75" r="4"/>
  <circle cx="446.546800330144" cy="601.1572098770343" fill="#1f77b4" opacity="0.75" r="4"/>
  <circle cx="560.9104573350968" cy="580.1197328362198" fill="#ff7f0e" opacity="0.75" r="4"/>
  <circle cx="467.50494772662927" cy="558.6721859022425" fill="#1f77b4" opacity="0.75" r="4"/>
  <circle cx="573.3947179965522" cy="550.9963633640516" fill="#1f77b4" opacity="0.75" r="4"/>
  <circle cx="423.17640192361534" cy="587.5389259963399" fill="#ff7f0e" opacity="0.75" r="4"/>
  <circle cx="519.9305595344192" cy="528.6017252165173" fill="#1f77b4" opacity="0.75" r="4"/>
  <circle cx="558.8858308466622" cy="594.9640154993101" fill="#2ca02c" opacity="0.75" r="4"/>
  <circle cx="668.2621134739966" cy="510.1929223405904" fill="#1f77b4" opacity="0.75" r="4"/>
  <circle cx="914.0" cy="244.0" fill="#d62728" opacity="0.9" r="7"/>
  <text fill="#333" font-family="Arial, Helvetica, sans-serif" font-size="16" text-anchor="middle" x="570.0" y="765">Dimension 1</text>
  <text fill="#333" font-family="Arial, Helvetica, sans-serif" font-size="16" text-anchor="middle" transform="rotate(-90,85,440.0)" x="85" y="440.0">Dimension 2</text>
  <text fill="#999" font-family="Arial, Helvetica, sans-serif" font-size="12" text-anchor="end" x="1140" y="776">Auto-generated SVG</text>
</svg>
