<?xml version="1.0" encoding="utf-8" standalone="no"?>
<!DOCTYPE svg PUBLIC "-//W3C//DTD SVG 1.1//EN"
  "http://www.w3.org/Graphics/SVG/1.1/DTD/svg11.dtd">
<svg xmlns:xlink="http://www.w3.org/1999/xlink" width="568.8pt" height="280.518281pt" viewBox="0 0 568.8 280.518281" xmlns="http://www.w3.org/2000/svg" version="1.1">
 <metadata>
  <rdf:RDF xmlns:dc="http://purl.org/dc/elements/1.1/" xmlns:cc="http://creativecommons.org/ns#" xmlns:rdf="http://www.w3.org/1999/02/22-rdf-syntax-ns#">
   <cc:Work>
    <dc:type rdf:resource="http://purl.org/dc/dcmitype/StillImage"/>
    <dc:date>2026-01-08T10:37:03.595281</dc:date>
    <dc:format>image/svg+xml</dc:format>
    <dc:creator>
     <cc:Agent>
      <dc:title>Matplotlib v3.10.7, https://matplotlib.org/</dc:title>
     </cc:Agent>
    </dc:creator>
   </cc:Work>
  </rdf:RDF>
 </metadata>
 <defs>
  <style type="text/css">*{stroke-linejoin: round; stroke-linecap: butt}</style>
 </defs>
 <g id="figure_1">
  <g id="patch_1">
   <path d="M 0 280.518281 
L 568.8 280.518281 
L 568.8 0 
L 0 0 
z
" style="fill: #ffffff"/>
  </g>
  <g id="axes_1">
   <g id="patch_2">
    <path d="M 46.8 154.487561 
L 165.6 154.487561 
Q 167.184 154.487561 167.184 152.473481 
L 167.184 71.910281 
Q 167.184 69.896201 165.6 69.896201 
L 46.8 69.896201 
Q 45.216 69.896201 45.216 71.910281 
L 45.216 152.473481 
Q 45.216 154.487561 46.8 154.487561 
z
" clip-path="url(#pbb4f0a7303)" style="fill: #1f77b4; opacity: 0.7; stroke: #ffffff; stroke-linejoin: miter"/>
   </g>
   <g id="patch_3">
    <path d="M 244.8 154.487561 
L 324 154.487561 
Q 325.584 154.487561 325.584 152.473481 
L 325.584 71.910281 
Q 325.584 69.896201 324 69.896201 
L 244.8 69.896201 
Q 243.216 69.896201 243.216 71.910281 
L 243.216 152.473481 
Q 243.216 154.487561 244.8 154.487561 
z
" clip-path="url(#pbb4f0a7303)" style="fill: #d62728; opacity: 0.7; stroke: #ffffff; stroke-linejoin: miter"/>
   </g>
   <g id="patch_4">
    <path d="M 403.2 154.487561 
L 522 154.487561 
Q 523.584 154.487561 523.584 152.473481 
L 523.584 71.910281 
Q 523.584 69.896201 522 69.896201 
L 403.2 69.896201 
Q 401.616 69.896201 401.616 71.910281 
L 401.616 152.473481 
Q 401.616 154.487561 403.2 154.487561 
z
" clip-path="url(#pbb4f0a7303)" style="fill: #555555; opacity: 0.5; stroke: #ffffff; stroke-linejoin: miter"/>
   </g>
   <g id="text_1">
    <!-- Enhancer -->
    <g style="fill: #ffffff" transform="translate(82.539844 114.675319) scale(0.09 -0.09)">
     <defs>
      <path id="DejaVuSans-Bold-45" d="M 588 4666 
L 3834 4666 
L 3834 3756 
L 1791 3756 
L 1791 2888 
L 3713 2888 
L 3713 1978 
L 1791 1978 
L 1791 909 
L 3903 909 
L 3903 0 
L 588 0 
L 588 4666 
z
" transform="scale(0.015625)"/>
      <path id="DejaVuSans-Bold-6e" d="M 4056 2131 
L 4056 0 
L 2931 0 
L 2931 347 
L 2931 1631 
Q 2931 2084 2911 2256 
Q 2891 2428 2841 2509 
Q 2775 2619 2662 2680 
Q 2550 2741 2406 2741 
Q 2056 2741 1856 2470 
Q 1656 2200 1656 1722 
L 1656 0 
L 538 0 
L 538 3500 
L 1656 3500 
L 1656 2988 
Q 1909 3294 2193 3439 
Q 2478 3584 2822 3584 
Q 3428 3584 3742 3212 
Q 4056 2841 4056 2131 
z
" transform="scale(0.015625)"/>
      <path id="DejaVuSans-Bold-68" d="M 4056 2131 
L 4056 0 
L 2931 0 
L 2931 347 
L 2931 1625 
Q 2931 2084 2911 2256 
Q 2891 2428 2841 2509 
Q 2775 2619 2662 2680 
Q 2550 2741 2406 2741 
Q 2056 2741 1856 2470 
Q 1656 2200 1656 1722 
L 1656 0 
L 538 0 
L 538 4863 
L 1656 4863 
L 1656 2988 
Q 1909 3294 2193 3439 
Q 2478 3584 2822 3584 
Q 3428 3584 3742 3212 
Q 4056 2841 4056 2131 
z
" transform="scale(0.015625)"/>
      <path id="DejaVuSans-Bold-61" d="M 2106 1575 
Q 1756 1575 1579 1456 
Q 1403 1338 1403 1106 
Q 1403 894 1545 773 
Q 1688 653 1941 653 
Q 2256 653 2472 879 
Q 2688 1106 2688 1447 
L 2688 1575 
L 2106 1575 
z
M 3816 1997 
L 3816 0 
L 2688 0 
L 2688 519 
Q 2463 200 2181 54 
Q 1900 -91 1497 -91 
Q 953 -91 614 226 
Q 275 544 275 1050 
Q 275 1666 698 1953 
Q 1122 2241 2028 2241 
L 2688 2241 
L 2688 2328 
Q 2688 2594 2478 2717 
Q 2269 2841 1825 2841 
Q 1466 2841 1156 2769 
Q 847 2697 581 2553 
L 581 3406 
Q 941 3494 1303 3539 
Q 1666 3584 2028 3584 
Q 2975 3584 3395 3211 
Q 3816 2838 3816 1997 
z
" transform="scale(0.015625)"/>
      <path id="DejaVuSans-Bold-63" d="M 3366 3391 
L 3366 2478 
Q 3138 2634 2908 2709 
Q 2678 2784 2431 2784 
Q 1963 2784 1702 2511 
Q 1441 2238 1441 1747 
Q 1441 1256 1702 982 
Q 1963 709 2431 709 
Q 2694 709 2930 787 
Q 3166 866 3366 1019 
L 3366 103 
Q 3103 6 2833 -42 
Q 2563 -91 2291 -91 
Q 1344 -91 809 395 
Q 275 881 275 1747 
Q 275 2613 809 3098 
Q 1344 3584 2291 3584 
Q 2566 3584 2833 3536 
Q 3100 3488 3366 3391 
z
" transform="scale(0.015625)"/>
      <path id="DejaVuSans-Bold-65" d="M 4031 1759 
L 4031 1441 
L 1416 1441 
Q 1456 1047 1700 850 
Q 1944 653 2381 653 
Q 2734 653 3104 758 
Q 3475 863 3866 1075 
L 3866 213 
Q 3469 63 3072 -14 
Q 2675 -91 2278 -91 
Q 1328 -91 801 392 
Q 275 875 275 1747 
Q 275 2603 792 3093 
Q 1309 3584 2216 3584 
Q 3041 3584 3536 3087 
Q 4031 2591 4031 1759 
z
M 2881 2131 
Q 2881 2450 2695 2645 
Q 2509 2841 2209 2841 
Q 1884 2841 1681 2658 
Q 1478 2475 1428 2131 
L 2881 2131 
z
" transform="scale(0.015625)"/>
      <path id="DejaVuSans-Bold-72" d="M 3138 2547 
Q 2991 2616 2845 2648 
Q 2700 2681 2553 2681 
Q 2122 2681 1889 2404 
Q 1656 2128 1656 1613 
L 1656 0 
L 538 0 
L 538 3500 
L 1656 3500 
L 1656 2925 
Q 1872 3269 2151 3426 
Q 2431 3584 2822 3584 
Q 2878 3584 2943 3579 
Q 3009 3575 3134 3559 
L 3138 2547 
z
" transform="scale(0.015625)"/>
     </defs>
     <use xlink:href="#DejaVuSans-Bold-45"/>
     <use xlink:href="#DejaVuSans-Bold-6e" transform="translate(68.310547 0)"/>
     <use xlink:href="#DejaVuSans-Bold-68" transform="translate(139.501953 0)"/>
     <use xlink:href="#DejaVuSans-Bold-61" transform="translate(210.693359 0)"/>
     <use xlink:href="#DejaVuSans-Bold-6e" transform="translate(278.173828 0)"/>
     <use xlink:href="#DejaVuSans-Bold-63" transform="translate(349.365234 0)"/>
     <use xlink:href="#DejaVuSans-Bold-65" transform="translate(408.642578 0)"/>
     <use xlink:href="#DejaVuSans-Bold-72" transform="translate(476.464844 0)"/>
    </g>
   </g>
   <g id="text_2">
    <!-- WNT6 -->
    <g style="fill: #ffffff" transform="translate(269.469844 114.675319) scale(0.09 -0.09)">
     <defs>
      <path id="DejaVuSans-Bold-57" d="M 191 4666 
L 1344 4666 
L 2150 1275 
L 2950 4666 
L 4109 4666 
L 4909 1275 
L 5716 4666 
L 6859 4666 
L 5759 0 
L 4372 0 
L 3525 3547 
L 2688 0 
L 1300 0 
L 191 4666 
z
" transform="scale(0.015625)"/>
      <path id="DejaVuSans-Bold-4e" d="M 588 4666 
L 1931 4666 
L 3628 1466 
L 3628 4666 
L 4769 4666 
L 4769 0 
L 3425 0 
L 1728 3200 
L 1728 0 
L 588 0 
L 588 4666 
z
" transform="scale(0.015625)"/>
      <path id="DejaVuSans-Bold-54" d="M 31 4666 
L 4331 4666 
L 4331 3756 
L 2784 3756 
L 2784 0 
L 1581 0 
L 1581 3756 
L 31 3756 
L 31 4666 
z
" transform="scale(0.015625)"/>
      <path id="DejaVuSans-Bold-36" d="M 2316 2303 
Q 2000 2303 1842 2098 
Q 1684 1894 1684 1484 
Q 1684 1075 1842 870 
Q 2000 666 2316 666 
Q 2634 666 2792 870 
Q 2950 1075 2950 1484 
Q 2950 1894 2792 2098 
Q 2634 2303 2316 2303 
z
M 3803 4544 
L 3803 3681 
Q 3506 3822 3243 3889 
Q 2981 3956 2731 3956 
Q 2194 3956 1894 3657 
Q 1594 3359 1544 2772 
Q 1750 2925 1990 3001 
Q 2231 3078 2516 3078 
Q 3231 3078 3670 2659 
Q 4109 2241 4109 1563 
Q 4109 813 3618 361 
Q 3128 -91 2303 -91 
Q 1394 -91 895 523 
Q 397 1138 397 2266 
Q 397 3422 980 4083 
Q 1563 4744 2578 4744 
Q 2900 4744 3203 4694 
Q 3506 4644 3803 4544 
z
" transform="scale(0.015625)"/>
     </defs>
     <use xlink:href="#DejaVuSans-Bold-57"/>
     <use xlink:href="#DejaVuSans-Bold-4e" transform="translate(110.302734 0)"/>
     <use xlink:href="#DejaVuSans-Bold-54" transform="translate(193.994141 0)"/>
     <use xlink:href="#DejaVuSans-Bold-36" transform="translate(262.207031 0)"/>
    </g>
   </g>
   <g id="text_3">
    <!-- TAD -->
    <g style="fill: #ffffff" transform="translate(454.650625 109.920256) scale(0.08 -0.08)">
     <defs>
      <path id="DejaVuSans-54" d="M -19 4666 
L 3928 4666 
L 3928 4134 
L 2272 4134 
L 2272 0 
L 1638 0 
L 1638 4134 
L -19 4134 
L -19 4666 
z
" transform="scale(0.015625)"/>
      <path id="DejaVuSans-41" d="M 2188 4044 
L 1331 1722 
L 3047 1722 
L 2188 4044 
z
M 1831 4666 
L 2547 4666 
L 4325 0 
L 3669 0 
L 3244 1197 
L 1141 1197 
L 716 0 
L 50 0 
L 1831 4666 
z
" transform="scale(0.015625)"/>
      <path id="DejaVuSans-44" d="M 1259 4147 
L 1259 519 
L 2022 519 
Q 2988 519 3436 956 
Q 3884 1394 3884 2338 
Q 3884 3275 3436 3711 
Q 2988 4147 2022 4147 
L 1259 4147 
z
M 628 4666 
L 1925 4666 
Q 3281 4666 3915 4102 
Q 4550 3538 4550 2338 
Q 4550 1131 3912 565 
Q 3275 0 1925 0 
L 628 0 
L 628 4666 
z
" transform="scale(0.015625)"/>
     </defs>
     <use xlink:href="#DejaVuSans-54"/>
     <use xlink:href="#DejaVuSans-41" transform="translate(53.333984 0)"/>
     <use xlink:href="#DejaVuSans-44" transform="translate(121.742188 0)"/>
    </g>
    <!-- Boundary -->
    <g style="fill: #ffffff" transform="translate(443.335625 118.878506) scale(0.08 -0.08)">
     <defs>
      <path id="DejaVuSans-42" d="M 1259 2228 
L 1259 519 
L 2272 519 
Q 2781 519 3026 730 
Q 3272 941 3272 1375 
Q 3272 1813 3026 2020 
Q 2781 2228 2272 2228 
L 1259 2228 
z
M 1259 4147 
L 1259 2741 
L 2194 2741 
Q 2656 2741 2882 2914 
Q 3109 3088 3109 3444 
Q 3109 3797 2882 3972 
Q 2656 4147 2194 4147 
L 1259 4147 
z
M 628 4666 
L 2241 4666 
Q 2963 4666 3353 4366 
Q 3744 4066 3744 3513 
Q 3744 3084 3544 2831 
Q 3344 2578 2956 2516 
Q 3422 2416 3680 2098 
Q 3938 1781 3938 1306 
Q 3938 681 3513 340 
Q 3088 0 2303 0 
L 628 0 
L 628 4666 
z
" transform="scale(0.015625)"/>
      <path id="DejaVuSans-6f" d="M 1959 3097 
Q 1497 3097 1228 2736 
Q 959 2375 959 1747 
Q 959 1119 1226 758 
Q 1494 397 1959 397 
Q 2419 397 2687 759 
Q 2956 1122 2956 1747 
Q 2956 2369 2687 2733 
Q 2419 3097 1959 3097 
z
M 1959 3584 
Q 2709 3584 3137 3096 
Q 3566 2609 3566 1747 
Q 3566 888 3137 398 
Q 2709 -91 1959 -91 
Q 1206 -91 779 398 
Q 353 888 353 1747 
Q 353 2609 779 3096 
Q 1206 3584 1959 3584 
z
" transform="scale(0.015625)"/>
      <path id="DejaVuSans-75" d="M 544 1381 
L 544 3500 
L 1119 3500 
L 1119 1403 
Q 1119 906 1312 657 
Q 1506 409 1894 409 
Q 2359 409 2629 706 
Q 2900 1003 2900 1516 
L 2900 3500 
L 3475 3500 
L 3475 0 
L 2900 0 
L 2900 538 
Q 2691 219 2414 64 
Q 2138 -91 1772 -91 
Q 1169 -91 856 284 
Q 544 659 544 1381 
z
M 1991 3584 
L 1991 3584 
z
" transform="scale(0.015625)"/>
      <path id="DejaVuSans-6e" d="M 3513 2113 
L 3513 0 
L 2938 0 
L 2938 2094 
Q 2938 2591 2744 2837 
Q 2550 3084 2163 3084 
Q 1697 3084 1428 2787 
Q 1159 2491 1159 1978 
L 1159 0 
L 581 0 
L 581 3500 
L 1159 3500 
L 1159 2956 
Q 1366 3272 1645 3428 
Q 1925 3584 2291 3584 
Q 2894 3584 3203 3211 
Q 3513 2838 3513 2113 
z
" transform="scale(0.015625)"/>
      <path id="DejaVuSans-64" d="M 2906 2969 
L 2906 4863 
L 3481 4863 
L 3481 0 
L 2906 0 
L 2906 525 
Q 2725 213 2448 61 
Q 2172 -91 1784 -91 
Q 1150 -91 751 415 
Q 353 922 353 1747 
Q 353 2572 751 3078 
Q 1150 3584 1784 3584 
Q 2172 3584 2448 3432 
Q 2725 3281 2906 2969 
z
M 947 1747 
Q 947 1113 1208 752 
Q 1469 391 1925 391 
Q 2381 391 2643 752 
Q 2906 1113 2906 1747 
Q 2906 2381 2643 2742 
Q 2381 3103 1925 3103 
Q 1469 3103 1208 2742 
Q 947 2381 947 1747 
z
" transform="scale(0.015625)"/>
      <path id="DejaVuSans-61" d="M 2194 1759 
Q 1497 1759 1228 1600 
Q 959 1441 959 1056 
Q 959 750 1161 570 
Q 1363 391 1709 391 
Q 2188 391 2477 730 
Q 2766 1069 2766 1631 
L 2766 1759 
L 2194 1759 
z
M 3341 1997 
L 3341 0 
L 2766 0 
L 2766 531 
Q 2569 213 2275 61 
Q 1981 -91 1556 -91 
Q 1019 -91 701 211 
Q 384 513 384 1019 
Q 384 1609 779 1909 
Q 1175 2209 1959 2209 
L 2766 2209 
L 2766 2266 
Q 2766 2663 2505 2880 
Q 2244 3097 1772 3097 
Q 1472 3097 1187 3025 
Q 903 2953 641 2809 
L 641 3341 
Q 956 3463 1253 3523 
Q 1550 3584 1831 3584 
Q 2591 3584 2966 3190 
Q 3341 2797 3341 1997 
z
" transform="scale(0.015625)"/>
      <path id="DejaVuSans-72" d="M 2631 2963 
Q 2534 3019 2420 3045 
Q 2306 3072 2169 3072 
Q 1681 3072 1420 2755 
Q 1159 2438 1159 1844 
L 1159 0 
L 581 0 
L 581 3500 
L 1159 3500 
L 1159 2956 
Q 1341 3275 1631 3429 
Q 1922 3584 2338 3584 
Q 2397 3584 2469 3576 
Q 2541 3569 2628 3553 
L 2631 2963 
z
" transform="scale(0.015625)"/>
      <path id="DejaVuSans-79" d="M 2059 -325 
Q 1816 -950 1584 -1140 
Q 1353 -1331 966 -1331 
L 506 -1331 
L 506 -850 
L 844 -850 
Q 1081 -850 1212 -737 
Q 1344 -625 1503 -206 
L 1606 56 
L 191 3500 
L 800 3500 
L 1894 763 
L 2988 3500 
L 3597 3500 
L 2059 -325 
z
" transform="scale(0.015625)"/>
     </defs>
     <use xlink:href="#DejaVuSans-42"/>
     <use xlink:href="#DejaVuSans-6f" transform="translate(68.603516 0)"/>
     <use xlink:href="#DejaVuSans-75" transform="translate(129.785156 0)"/>
     <use xlink:href="#DejaVuSans-6e" transform="translate(193.164062 0)"/>
     <use xlink:href="#DejaVuSans-64" transform="translate(256.542969 0)"/>
     <use xlink:href="#DejaVuSans-61" transform="translate(320.019531 0)"/>
     <use xlink:href="#DejaVuSans-72" transform="translate(381.298828 0)"/>
     <use xlink:href="#DejaVuSans-79" transform="translate(422.412109 0)"/>
    </g>
   </g>
   <g id="patch_5">
    <path d="M 167.596436 112.191881 
Q 205.19689 112.191881 239.443242 112.191881 
" style="fill: none; stroke: #ff7f0e; stroke-width: 3; stroke-linecap: round"/>
    <path d="M 235.443242 110.191881 
L 239.443242 112.191881 
L 235.443242 114.191881 
" style="fill: none; stroke: #ff7f0e; stroke-width: 3; stroke-linecap: round"/>
   </g>
   <g id="text_4">
    <!-- Ectopic -->
    <g style="fill: #ff7f0e" transform="translate(186.784453 51.76185) scale(0.09 -0.09)">
     <defs>
      <path id="DejaVuSans-Bold-74" d="M 1759 4494 
L 1759 3500 
L 2913 3500 
L 2913 2700 
L 1759 2700 
L 1759 1216 
Q 1759 972 1856 886 
Q 1953 800 2241 800 
L 2816 800 
L 2816 0 
L 1856 0 
Q 1194 0 917 276 
Q 641 553 641 1216 
L 641 2700 
L 84 2700 
L 84 3500 
L 641 3500 
L 641 4494 
L 1759 4494 
z
" transform="scale(0.015625)"/>
      <path id="DejaVuSans-Bold-6f" d="M 2203 2784 
Q 1831 2784 1636 2517 
Q 1441 2250 1441 1747 
Q 1441 1244 1636 976 
Q 1831 709 2203 709 
Q 2569 709 2762 976 
Q 2956 1244 2956 1747 
Q 2956 2250 2762 2517 
Q 2569 2784 2203 2784 
z
M 2203 3584 
Q 3106 3584 3614 3096 
Q 4122 2609 4122 1747 
Q 4122 884 3614 396 
Q 3106 -91 2203 -91 
Q 1297 -91 786 396 
Q 275 884 275 1747 
Q 275 2609 786 3096 
Q 1297 3584 2203 3584 
z
" transform="scale(0.015625)"/>
      <path id="DejaVuSans-Bold-70" d="M 1656 506 
L 1656 -1331 
L 538 -1331 
L 538 3500 
L 1656 3500 
L 1656 2988 
Q 1888 3294 2169 3439 
Q 2450 3584 2816 3584 
Q 3463 3584 3878 3070 
Q 4294 2556 4294 1747 
Q 4294 938 3878 423 
Q 3463 -91 2816 -91 
Q 2450 -91 2169 54 
Q 1888 200 1656 506 
z
M 2400 2772 
Q 2041 2772 1848 2508 
Q 1656 2244 1656 1747 
Q 1656 1250 1848 986 
Q 2041 722 2400 722 
Q 2759 722 2948 984 
Q 3138 1247 3138 1747 
Q 3138 2247 2948 2509 
Q 2759 2772 2400 2772 
z
" transform="scale(0.015625)"/>
      <path id="DejaVuSans-Bold-69" d="M 538 3500 
L 1656 3500 
L 1656 0 
L 538 0 
L 538 3500 
z
M 538 4863 
L 1656 4863 
L 1656 3950 
L 538 3950 
L 538 4863 
z
" transform="scale(0.015625)"/>
     </defs>
     <use xlink:href="#DejaVuSans-Bold-45"/>
     <use xlink:href="#DejaVuSans-Bold-63" transform="translate(68.310547 0)"/>
     <use xlink:href="#DejaVuSans-Bold-74" transform="translate(127.587891 0)"/>
     <use xlink:href="#DejaVuSans-Bold-6f" transform="translate(175.390625 0)"/>
     <use xlink:href="#DejaVuSans-Bold-70" transform="translate(244.091797 0)"/>
     <use xlink:href="#DejaVuSans-Bold-69" transform="translate(315.673828 0)"/>
     <use xlink:href="#DejaVuSans-Bold-63" transform="translate(349.951172 0)"/>
    </g>
    <!-- activation -->
    <g style="fill: #ff7f0e" transform="translate(179.843203 61.839881) scale(0.09 -0.09)">
     <defs>
      <path id="DejaVuSans-Bold-76" d="M 97 3500 
L 1216 3500 
L 2088 1081 
L 2956 3500 
L 4078 3500 
L 2700 0 
L 1472 0 
L 97 3500 
z
" transform="scale(0.015625)"/>
     </defs>
     <use xlink:href="#DejaVuSans-Bold-61"/>
     <use xlink:href="#DejaVuSans-Bold-63" transform="translate(67.480469 0)"/>
     <use xlink:href="#DejaVuSans-Bold-74" transform="translate(126.757812 0)"/>
     <use xlink:href="#DejaVuSans-Bold-69" transform="translate(174.560547 0)"/>
     <use xlink:href="#DejaVuSans-Bold-76" transform="translate(208.837891 0)"/>
     <use xlink:href="#DejaVuSans-Bold-61" transform="translate(274.023438 0)"/>
     <use xlink:href="#DejaVuSans-Bold-74" transform="translate(341.503906 0)"/>
     <use xlink:href="#DejaVuSans-Bold-69" transform="translate(389.306641 0)"/>
     <use xlink:href="#DejaVuSans-Bold-6f" transform="translate(423.583984 0)"/>
     <use xlink:href="#DejaVuSans-Bold-6e" transform="translate(492.285156 0)"/>
    </g>
   </g>
   <g id="text_5">
    <!-- Brachydactyly -->
    <g style="fill: #d62728" transform="translate(284.026562 211.690344) scale(0.1 -0.1)">
     <defs>
      <path id="DejaVuSans-Bold-42" d="M 2456 2859 
Q 2741 2859 2887 2984 
Q 3034 3109 3034 3353 
Q 3034 3594 2887 3720 
Q 2741 3847 2456 3847 
L 1791 3847 
L 1791 2859 
L 2456 2859 
z
M 2497 819 
Q 2859 819 3042 972 
Q 3225 1125 3225 1434 
Q 3225 1738 3044 1889 
Q 2863 2041 2497 2041 
L 1791 2041 
L 1791 819 
L 2497 819 
z
M 3616 2497 
Q 4003 2384 4215 2081 
Q 4428 1778 4428 1338 
Q 4428 663 3972 331 
Q 3516 0 2584 0 
L 588 0 
L 588 4666 
L 2394 4666 
Q 3366 4666 3802 4372 
Q 4238 4078 4238 3431 
Q 4238 3091 4078 2852 
Q 3919 2613 3616 2497 
z
" transform="scale(0.015625)"/>
      <path id="DejaVuSans-Bold-79" d="M 78 3500 
L 1197 3500 
L 2138 1125 
L 2938 3500 
L 4056 3500 
L 2584 -331 
Q 2363 -916 2067 -1148 
Q 1772 -1381 1288 -1381 
L 641 -1381 
L 641 -647 
L 991 -647 
Q 1275 -647 1404 -556 
Q 1534 -466 1606 -231 
L 1638 -134 
L 78 3500 
z
" transform="scale(0.015625)"/>
      <path id="DejaVuSans-Bold-64" d="M 2919 2988 
L 2919 4863 
L 4044 4863 
L 4044 0 
L 2919 0 
L 2919 506 
Q 2688 197 2409 53 
Q 2131 -91 1766 -91 
Q 1119 -91 703 423 
Q 288 938 288 1747 
Q 288 2556 703 3070 
Q 1119 3584 1766 3584 
Q 2128 3584 2408 3439 
Q 2688 3294 2919 2988 
z
M 2181 722 
Q 2541 722 2730 984 
Q 2919 1247 2919 1747 
Q 2919 2247 2730 2509 
Q 2541 2772 2181 2772 
Q 1825 2772 1636 2509 
Q 1447 2247 1447 1747 
Q 1447 1247 1636 984 
Q 1825 722 2181 722 
z
" transform="scale(0.015625)"/>
      <path id="DejaVuSans-Bold-6c" d="M 538 4863 
L 1656 4863 
L 1656 0 
L 538 0 
L 538 4863 
z
" transform="scale(0.015625)"/>
     </defs>
     <use xlink:href="#DejaVuSans-Bold-42"/>
     <use xlink:href="#DejaVuSans-Bold-72" transform="translate(76.220703 0)"/>
     <use xlink:href="#DejaVuSans-Bold-61" transform="translate(125.537109 0)"/>
     <use xlink:href="#DejaVuSans-Bold-63" transform="translate(193.017578 0)"/>
     <use xlink:href="#DejaVuSans-Bold-68" transform="translate(252.294922 0)"/>
     <use xlink:href="#DejaVuSans-Bold-79" transform="translate(323.486328 0)"/>
     <use xlink:href="#DejaVuSans-Bold-64" transform="translate(388.671875 0)"/>
     <use xlink:href="#DejaVuSans-Bold-61" transform="translate(460.253906 0)"/>
     <use xlink:href="#DejaVuSans-Bold-63" transform="translate(527.734375 0)"/>
     <use xlink:href="#DejaVuSans-Bold-74" transform="translate(587.011719 0)"/>
     <use xlink:href="#DejaVuSans-Bold-79" transform="translate(634.814453 0)"/>
     <use xlink:href="#DejaVuSans-Bold-6c" transform="translate(700 0)"/>
     <use xlink:href="#DejaVuSans-Bold-79" transform="translate(734.277344 0)"/>
    </g>
    <!-- phenotype -->
    <g style="fill: #d62728" transform="translate(293.85625 222.966281) scale(0.1 -0.1)">
     <use xlink:href="#DejaVuSans-Bold-70"/>
     <use xlink:href="#DejaVuSans-Bold-68" transform="translate(71.582031 0)"/>
     <use xlink:href="#DejaVuSans-Bold-65" transform="translate(142.773438 0)"/>
     <use xlink:href="#DejaVuSans-Bold-6e" transform="translate(210.595703 0)"/>
     <use xlink:href="#DejaVuSans-Bold-6f" transform="translate(281.787109 0)"/>
     <use xlink:href="#DejaVuSans-Bold-74" transform="translate(350.488281 0)"/>
     <use xlink:href="#DejaVuSans-Bold-79" transform="translate(398.291016 0)"/>
     <use xlink:href="#DejaVuSans-Bold-70" transform="translate(463.476562 0)"/>
     <use xlink:href="#DejaVuSans-Bold-65" transform="translate(535.058594 0)"/>
    </g>
   </g>
   <g id="text_6">
    <!-- C. Ectopic WNT6 Activation Causes Brachydactyly -->
    <g transform="translate(7.2 15.558281) scale(0.11 -0.11)">
     <defs>
      <path id="DejaVuSans-Bold-43" d="M 4288 256 
Q 3956 84 3597 -3 
Q 3238 -91 2847 -91 
Q 1681 -91 1000 561 
Q 319 1213 319 2328 
Q 319 3447 1000 4098 
Q 1681 4750 2847 4750 
Q 3238 4750 3597 4662 
Q 3956 4575 4288 4403 
L 4288 3438 
Q 3953 3666 3628 3772 
Q 3303 3878 2944 3878 
Q 2300 3878 1931 3465 
Q 1563 3053 1563 2328 
Q 1563 1606 1931 1193 
Q 2300 781 2944 781 
Q 3303 781 3628 887 
Q 3953 994 4288 1222 
L 4288 256 
z
" transform="scale(0.015625)"/>
      <path id="DejaVuSans-Bold-2e" d="M 653 1209 
L 1778 1209 
L 1778 0 
L 653 0 
L 653 1209 
z
" transform="scale(0.015625)"/>
      <path id="DejaVuSans-Bold-20" transform="scale(0.015625)"/>
      <path id="DejaVuSans-Bold-41" d="M 3419 850 
L 1538 850 
L 1241 0 
L 31 0 
L 1759 4666 
L 3194 4666 
L 4922 0 
L 3713 0 
L 3419 850 
z
M 1838 1716 
L 3116 1716 
L 2478 3572 
L 1838 1716 
z
" transform="scale(0.015625)"/>
      <path id="DejaVuSans-Bold-75" d="M 500 1363 
L 500 3500 
L 1625 3500 
L 1625 3150 
Q 1625 2866 1622 2436 
Q 1619 2006 1619 1863 
Q 1619 1441 1641 1255 
Q 1663 1069 1716 984 
Q 1784 875 1895 815 
Q 2006 756 2150 756 
Q 2500 756 2700 1025 
Q 2900 1294 2900 1772 
L 2900 3500 
L 4019 3500 
L 4019 0 
L 2900 0 
L 2900 506 
Q 2647 200 2364 54 
Q 2081 -91 1741 -91 
Q 1134 -91 817 281 
Q 500 653 500 1363 
z
" transform="scale(0.015625)"/>
      <path id="DejaVuSans-Bold-73" d="M 3272 3391 
L 3272 2541 
Q 2913 2691 2578 2766 
Q 2244 2841 1947 2841 
Q 1628 2841 1473 2761 
Q 1319 2681 1319 2516 
Q 1319 2381 1436 2309 
Q 1553 2238 1856 2203 
L 2053 2175 
Q 2913 2066 3209 1816 
Q 3506 1566 3506 1031 
Q 3506 472 3093 190 
Q 2681 -91 1863 -91 
Q 1516 -91 1145 -36 
Q 775 19 384 128 
L 384 978 
Q 719 816 1070 734 
Q 1422 653 1784 653 
Q 2113 653 2278 743 
Q 2444 834 2444 1013 
Q 2444 1163 2330 1236 
Q 2216 1309 1875 1350 
L 1678 1375 
Q 931 1469 631 1722 
Q 331 1975 331 2491 
Q 331 3047 712 3315 
Q 1094 3584 1881 3584 
Q 2191 3584 2531 3537 
Q 2872 3491 3272 3391 
z
" transform="scale(0.015625)"/>
     </defs>
     <use xlink:href="#DejaVuSans-Bold-43"/>
     <use xlink:href="#DejaVuSans-Bold-2e" transform="translate(73.388672 0)"/>
     <use xlink:href="#DejaVuSans-Bold-20" transform="translate(111.376953 0)"/>
     <use xlink:href="#DejaVuSans-Bold-45" transform="translate(146.191406 0)"/>
     <use xlink:href="#DejaVuSans-Bold-63" transform="translate(214.501953 0)"/>
     <use xlink:href="#DejaVuSans-Bold-74" transform="translate(273.779297 0)"/>
     <use xlink:href="#DejaVuSans-Bold-6f" transform="translate(321.582031 0)"/>
     <use xlink:href="#DejaVuSans-Bold-70" transform="translate(390.283203 0)"/>
     <use xlink:href="#DejaVuSans-Bold-69" transform="translate(461.865234 0)"/>
     <use xlink:href="#DejaVuSans-Bold-63" transform="translate(496.142578 0)"/>
     <use xlink:href="#DejaVuSans-Bold-20" transform="translate(555.419922 0)"/>
     <use xlink:href="#DejaVuSans-Bold-57" transform="translate(590.234375 0)"/>
     <use xlink:href="#DejaVuSans-Bold-4e" transform="translate(700.537109 0)"/>
     <use xlink:href="#DejaVuSans-Bold-54" transform="translate(784.228516 0)"/>
     <use xlink:href="#DejaVuSans-Bold-36" transform="translate(852.441406 0)"/>
     <use xlink:href="#DejaVuSans-Bold-20" transform="translate(922.021484 0)"/>
     <use xlink:href="#DejaVuSans-Bold-41" transform="translate(956.835938 0)"/>
     <use xlink:href="#DejaVuSans-Bold-63" transform="translate(1034.228516 0)"/>
     <use xlink:href="#DejaVuSans-Bold-74" transform="translate(1093.505859 0)"/>
     <use xlink:href="#DejaVuSans-Bold-69" transform="translate(1141.308594 0)"/>
     <use xlink:href="#DejaVuSans-Bold-76" transform="translate(1175.585938 0)"/>
     <use xlink:href="#DejaVuSans-Bold-61" transform="translate(1240.771484 0)"/>
     <use xlink:href="#DejaVuSans-Bold-74" transform="translate(1308.251953 0)"/>
     <use xlink:href="#DejaVuSans-Bold-69" transform="translate(1356.054688 0)"/>
     <use xlink:href="#DejaVuSans-Bold-6f" transform="translate(1390.332031 0)"/>
     <use xlink:href="#DejaVuSans-Bold-6e" transform="translate(1459.033203 0)"/>
     <use xlink:href="#DejaVuSans-Bold-20" transform="translate(1530.224609 0)"/>
     <use xlink:href="#DejaVuSans-Bold-43" transform="translate(1565.039062 0)"/>
     <use xlink:href="#DejaVuSans-Bold-61" transform="translate(1638.427734 0)"/>
     <use xlink:href="#DejaVuSans-Bold-75" transform="translate(1705.908203 0)"/>
     <use xlink:href="#DejaVuSans-Bold-73" transform="translate(1777.099609 0)"/>
     <use xlink:href="#DejaVuSans-Bold-65" transform="translate(1836.621094 0)"/>
     <use xlink:href="#DejaVuSans-Bold-73" transform="translate(1904.443359 0)"/>
     <use xlink:href="#DejaVuSans-Bold-20" transform="translate(1963.964844 0)"/>
     <use xlink:href="#DejaVuSans-Bold-42" transform="translate(1998.779297 0)"/>
     <use xlink:href="#DejaVuSans-Bold-72" transform="translate(2075 0)"/>
     <use xlink:href="#DejaVuSans-Bold-61" transform="translate(2124.316406 0)"/>
     <use xlink:href="#DejaVuSans-Bold-63" transform="translate(2191.796875 0)"/>
     <use xlink:href="#DejaVuSans-Bold-68" transform="translate(2251.074219 0)"/>
     <use xlink:href="#DejaVuSans-Bold-79" transform="translate(2322.265625 0)"/>
     <use xlink:href="#DejaVuSans-Bold-64" transform="translate(2387.451172 0)"/>
     <use xlink:href="#DejaVuSans-Bold-61" transform="translate(2459.033203 0)"/>
     <use xlink:href="#DejaVuSans-Bold-63" transform="translate(2526.513672 0)"/>
     <use xlink:href="#DejaVuSans-Bold-74" transform="translate(2585.791016 0)"/>
     <use xlink:href="#DejaVuSans-Bold-79" transform="translate(2633.59375 0)"/>
     <use xlink:href="#DejaVuSans-Bold-6c" transform="translate(2698.779297 0)"/>
     <use xlink:href="#DejaVuSans-Bold-79" transform="translate(2733.056641 0)"/>
    </g>
   </g>
  </g>
 </g>
 <defs>
  <clipPath id="pbb4f0a7303">
   <rect x="7.2" y="21.558281" width="554.4" height="251.76"/>
  </clipPath>
 </defs>
</svg>
