<?xml version="1.0" encoding="utf-8" standalone="no"?>
<!DOCTYPE svg PUBLIC "-//W3C//DTD SVG 1.1//EN"
  "http://www.w3.org/Graphics/SVG/1.1/DTD/svg11.dtd">
<svg xmlns:xlink="http://www.w3.org/1999/xlink" width="568.8pt" height="280.518281pt" viewBox="0 0 568.8 280.518281" xmlns="http://www.w3.org/2000/svg" version="1.1">
 <metadata>
  <rdf:RDF xmlns:dc="http://purl.org/dc/elements/1.1/" xmlns:cc="http://creativecommons.org/ns#" xmlns:rdf="http://www.w3.org/1999/02/22-rdf-syntax-ns#">
   <cc:Work>
    <dc:type rdf:resource="http://purl.org/dc/dcmitype/StillImage"/>
    <dc:date>2026-01-08T10:37:04.357985</dc:date>
    <dc:format>image/svg+xml</dc:format>
    <dc:creator>
     <cc:Agent>
      <dc:title>Matplotlib v3.10.7, https://matplotlib.org/</dc:title>
     </cc:Agent>
    </dc:creator>
   </cc:Work>
  </rdf:RDF>
 </metadata>
 <defs>
  <style type="text/css">*{stroke-linejoin: round; stroke-linecap: butt}</style>
 </defs>
 <g id="figure_1">
  <g id="patch_1">
   <path d="M 0 280.518281 
L 568.8 280.518281 
L 568.8 0 
L 0 0 
z
" style="fill: #ffffff"/>
  </g>
  <g id="axes_1">
   <g id="line2d_1">
    <path d="M 36.378947 195.853666 
L 503.242105 195.853666 
" clip-path="url(#p0e1d0e4017)" style="fill: none; stroke: #555555; stroke-width: 4; stroke-linecap: square"/>
   </g>
   <g id="patch_2">
    <path d="M 94.736842 226.839512 
L 153.094737 226.839512 
Q 154.261895 226.839512 154.261895 224.902897 
L 154.261895 166.804435 
Q 154.261895 164.86782 153.094737 164.86782 
L 94.736842 164.86782 
Q 93.569684 164.86782 93.569684 166.804435 
L 93.569684 224.902897 
Q 93.569684 226.839512 94.736842 226.839512 
z
" clip-path="url(#p0e1d0e4017)" style="fill: #ff7f0e; opacity: 0.8; stroke: #ffffff; stroke-linejoin: miter"/>
   </g>
   <g id="patch_3">
    <path d="M 357.347368 226.839512 
L 415.705263 226.839512 
Q 416.872421 226.839512 416.872421 224.902897 
L 416.872421 166.804435 
Q 416.872421 164.86782 415.705263 164.86782 
L 357.347368 164.86782 
Q 356.180211 164.86782 356.180211 166.804435 
L 356.180211 224.902897 
Q 356.180211 226.839512 357.347368 226.839512 
z
" clip-path="url(#p0e1d0e4017)" style="fill: #2ca02c; opacity: 0.8; stroke: #ffffff; stroke-linejoin: miter"/>
   </g>
   <g id="line2d_2">
    <path d="M 386.526316 195.853666 
L 386.256535 188.408903 
L 385.448301 180.994733 
L 384.104936 173.641621 
L 382.231959 166.379784 
L 379.837067 159.23906 
L 376.930101 152.248795 
L 373.523007 145.43771 
L 369.629784 138.833796 
L 365.266432 132.464189 
L 360.450879 126.355063 
L 355.202915 120.531521 
L 349.544103 115.017494 
L 343.497698 109.83564 
L 337.088545 105.007253 
L 330.342981 100.552173 
L 323.288725 96.488708 
L 315.954765 92.833554 
L 308.371236 89.601733 
L 300.569302 86.806523 
L 292.581022 84.459411 
L 284.439222 82.570042 
L 276.177359 81.14618 
L 267.829381 80.193676 
L 259.429593 79.716443 
L 251.012512 79.716443 
L 242.612724 80.193676 
L 234.264746 81.14618 
L 226.002883 82.570042 
L 217.861083 84.459411 
L 209.872803 86.806523 
L 202.070869 89.601733 
L 194.487341 92.833554 
L 187.15338 96.488708 
L 180.099124 100.552173 
L 173.35356 105.007253 
L 166.944407 109.83564 
L 160.898002 115.017494 
L 155.239191 120.531521 
L 149.991226 126.355063 
L 145.175673 132.464189 
L 140.812321 138.833796 
L 136.919098 145.43771 
L 133.512004 152.248795 
L 130.605038 159.23906 
L 128.210146 166.379784 
L 126.337169 173.641621 
L 124.993804 180.994733 
L 124.18557 188.408903 
L 123.915789 195.853666 
" clip-path="url(#p0e1d0e4017)" style="fill: none; stroke-dasharray: 7.4,3.2; stroke-dashoffset: 0; stroke: #9467bd; stroke-width: 2"/>
   </g>
   <g id="text_1">
    <!-- E -->
    <g style="fill: #ffffff" transform="translate(119.817039 199.164916) scale(0.12 -0.12)">
     <defs>
      <path id="DejaVuSans-Bold-45" d="M 588 4666 
L 3834 4666 
L 3834 3756 
L 1791 3756 
L 1791 2888 
L 3713 2888 
L 3713 1978 
L 1791 1978 
L 1791 909 
L 3903 909 
L 3903 0 
L 588 0 
L 588 4666 
z
" transform="scale(0.015625)"/>
     </defs>
     <use xlink:href="#DejaVuSans-Bold-45"/>
    </g>
   </g>
   <g id="text_2">
    <!-- P -->
    <g style="fill: #ffffff" transform="translate(382.128503 199.164916) scale(0.12 -0.12)">
     <defs>
      <path id="DejaVuSans-Bold-50" d="M 588 4666 
L 2584 4666 
Q 3475 4666 3951 4270 
Q 4428 3875 4428 3144 
Q 4428 2409 3951 2014 
Q 3475 1619 2584 1619 
L 1791 1619 
L 1791 0 
L 588 0 
L 588 4666 
z
M 1791 3794 
L 1791 2491 
L 2456 2491 
Q 2806 2491 2997 2661 
Q 3188 2831 3188 3144 
Q 3188 3456 2997 3625 
Q 2806 3794 2456 3794 
L 1791 3794 
z
" transform="scale(0.015625)"/>
     </defs>
     <use xlink:href="#DejaVuSans-Bold-50"/>
    </g>
   </g>
   <g id="patch_4">
    <path d="M 417.70348 195.853666 
Q 444.884021 195.853666 469.828495 195.853666 
" style="fill: none; stroke: #1f77b4; stroke-width: 2; stroke-linecap: round"/>
    <path d="M 465.828495 193.853666 
L 469.828495 195.853666 
L 465.828495 197.853666 
" style="fill: none; stroke: #1f77b4; stroke-width: 2; stroke-linecap: round"/>
   </g>
   <g id="text_3">
    <!-- Gene -->
    <g transform="translate(491.570526 195.853666) scale(0.1 -0.1)">
     <defs>
      <path id="DejaVuSans-Bold-47" d="M 4781 347 
Q 4331 128 3847 18 
Q 3363 -91 2847 -91 
Q 1681 -91 1000 561 
Q 319 1213 319 2328 
Q 319 3456 1012 4103 
Q 1706 4750 2913 4750 
Q 3378 4750 3804 4662 
Q 4231 4575 4609 4403 
L 4609 3438 
Q 4219 3659 3833 3768 
Q 3447 3878 3059 3878 
Q 2341 3878 1952 3476 
Q 1563 3075 1563 2328 
Q 1563 1588 1938 1184 
Q 2313 781 3003 781 
Q 3191 781 3352 804 
Q 3513 828 3641 878 
L 3641 1784 
L 2906 1784 
L 2906 2591 
L 4781 2591 
L 4781 347 
z
" transform="scale(0.015625)"/>
      <path id="DejaVuSans-Bold-65" d="M 4031 1759 
L 4031 1441 
L 1416 1441 
Q 1456 1047 1700 850 
Q 1944 653 2381 653 
Q 2734 653 3104 758 
Q 3475 863 3866 1075 
L 3866 213 
Q 3469 63 3072 -14 
Q 2675 -91 2278 -91 
Q 1328 -91 801 392 
Q 275 875 275 1747 
Q 275 2603 792 3093 
Q 1309 3584 2216 3584 
Q 3041 3584 3536 3087 
Q 4031 2591 4031 1759 
z
M 2881 2131 
Q 2881 2450 2695 2645 
Q 2509 2841 2209 2841 
Q 1884 2841 1681 2658 
Q 1478 2475 1428 2131 
L 2881 2131 
z
" transform="scale(0.015625)"/>
      <path id="DejaVuSans-Bold-6e" d="M 4056 2131 
L 4056 0 
L 2931 0 
L 2931 347 
L 2931 1631 
Q 2931 2084 2911 2256 
Q 2891 2428 2841 2509 
Q 2775 2619 2662 2680 
Q 2550 2741 2406 2741 
Q 2056 2741 1856 2470 
Q 1656 2200 1656 1722 
L 1656 0 
L 538 0 
L 538 3500 
L 1656 3500 
L 1656 2988 
Q 1909 3294 2193 3439 
Q 2478 3584 2822 3584 
Q 3428 3584 3742 3212 
Q 4056 2841 4056 2131 
z
" transform="scale(0.015625)"/>
     </defs>
     <use xlink:href="#DejaVuSans-Bold-47"/>
     <use xlink:href="#DejaVuSans-Bold-65" transform="translate(82.080078 0)"/>
     <use xlink:href="#DejaVuSans-Bold-6e" transform="translate(149.902344 0)"/>
     <use xlink:href="#DejaVuSans-Bold-65" transform="translate(221.09375 0)"/>
    </g>
   </g>
   <g id="text_4">
    <!-- Chromatin Loop -->
    <g style="fill: #9467bd" transform="translate(210.467928 60.290589) scale(0.1 -0.1)">
     <defs>
      <path id="DejaVuSans-Bold-43" d="M 4288 256 
Q 3956 84 3597 -3 
Q 3238 -91 2847 -91 
Q 1681 -91 1000 561 
Q 319 1213 319 2328 
Q 319 3447 1000 4098 
Q 1681 4750 2847 4750 
Q 3238 4750 3597 4662 
Q 3956 4575 4288 4403 
L 4288 3438 
Q 3953 3666 3628 3772 
Q 3303 3878 2944 3878 
Q 2300 3878 1931 3465 
Q 1563 3053 1563 2328 
Q 1563 1606 1931 1193 
Q 2300 781 2944 781 
Q 3303 781 3628 887 
Q 3953 994 4288 1222 
L 4288 256 
z
" transform="scale(0.015625)"/>
      <path id="DejaVuSans-Bold-68" d="M 4056 2131 
L 4056 0 
L 2931 0 
L 2931 347 
L 2931 1625 
Q 2931 2084 2911 2256 
Q 2891 2428 2841 2509 
Q 2775 2619 2662 2680 
Q 2550 2741 2406 2741 
Q 2056 2741 1856 2470 
Q 1656 2200 1656 1722 
L 1656 0 
L 538 0 
L 538 4863 
L 1656 4863 
L 1656 2988 
Q 1909 3294 2193 3439 
Q 2478 3584 2822 3584 
Q 3428 3584 3742 3212 
Q 4056 2841 4056 2131 
z
" transform="scale(0.015625)"/>
      <path id="DejaVuSans-Bold-72" d="M 3138 2547 
Q 2991 2616 2845 2648 
Q 2700 2681 2553 2681 
Q 2122 2681 1889 2404 
Q 1656 2128 1656 1613 
L 1656 0 
L 538 0 
L 538 3500 
L 1656 3500 
L 1656 2925 
Q 1872 3269 2151 3426 
Q 2431 3584 2822 3584 
Q 2878 3584 2943 3579 
Q 3009 3575 3134 3559 
L 3138 2547 
z
" transform="scale(0.015625)"/>
      <path id="DejaVuSans-Bold-6f" d="M 2203 2784 
Q 1831 2784 1636 2517 
Q 1441 2250 1441 1747 
Q 1441 1244 1636 976 
Q 1831 709 2203 709 
Q 2569 709 2762 976 
Q 2956 1244 2956 1747 
Q 2956 2250 2762 2517 
Q 2569 2784 2203 2784 
z
M 2203 3584 
Q 3106 3584 3614 3096 
Q 4122 2609 4122 1747 
Q 4122 884 3614 396 
Q 3106 -91 2203 -91 
Q 1297 -91 786 396 
Q 275 884 275 1747 
Q 275 2609 786 3096 
Q 1297 3584 2203 3584 
z
" transform="scale(0.015625)"/>
      <path id="DejaVuSans-Bold-6d" d="M 3781 2919 
Q 3994 3244 4286 3414 
Q 4578 3584 4928 3584 
Q 5531 3584 5847 3212 
Q 6163 2841 6163 2131 
L 6163 0 
L 5038 0 
L 5038 1825 
Q 5041 1866 5042 1909 
Q 5044 1953 5044 2034 
Q 5044 2406 4934 2573 
Q 4825 2741 4581 2741 
Q 4263 2741 4089 2478 
Q 3916 2216 3909 1719 
L 3909 0 
L 2784 0 
L 2784 1825 
Q 2784 2406 2684 2573 
Q 2584 2741 2328 2741 
Q 2006 2741 1831 2477 
Q 1656 2213 1656 1722 
L 1656 0 
L 531 0 
L 531 3500 
L 1656 3500 
L 1656 2988 
Q 1863 3284 2130 3434 
Q 2397 3584 2719 3584 
Q 3081 3584 3359 3409 
Q 3638 3234 3781 2919 
z
" transform="scale(0.015625)"/>
      <path id="DejaVuSans-Bold-61" d="M 2106 1575 
Q 1756 1575 1579 1456 
Q 1403 1338 1403 1106 
Q 1403 894 1545 773 
Q 1688 653 1941 653 
Q 2256 653 2472 879 
Q 2688 1106 2688 1447 
L 2688 1575 
L 2106 1575 
z
M 3816 1997 
L 3816 0 
L 2688 0 
L 2688 519 
Q 2463 200 2181 54 
Q 1900 -91 1497 -91 
Q 953 -91 614 226 
Q 275 544 275 1050 
Q 275 1666 698 1953 
Q 1122 2241 2028 2241 
L 2688 2241 
L 2688 2328 
Q 2688 2594 2478 2717 
Q 2269 2841 1825 2841 
Q 1466 2841 1156 2769 
Q 847 2697 581 2553 
L 581 3406 
Q 941 3494 1303 3539 
Q 1666 3584 2028 3584 
Q 2975 3584 3395 3211 
Q 3816 2838 3816 1997 
z
" transform="scale(0.015625)"/>
      <path id="DejaVuSans-Bold-74" d="M 1759 4494 
L 1759 3500 
L 2913 3500 
L 2913 2700 
L 1759 2700 
L 1759 1216 
Q 1759 972 1856 886 
Q 1953 800 2241 800 
L 2816 800 
L 2816 0 
L 1856 0 
Q 1194 0 917 276 
Q 641 553 641 1216 
L 641 2700 
L 84 2700 
L 84 3500 
L 641 3500 
L 641 4494 
L 1759 4494 
z
" transform="scale(0.015625)"/>
      <path id="DejaVuSans-Bold-69" d="M 538 3500 
L 1656 3500 
L 1656 0 
L 538 0 
L 538 3500 
z
M 538 4863 
L 1656 4863 
L 1656 3950 
L 538 3950 
L 538 4863 
z
" transform="scale(0.015625)"/>
      <path id="DejaVuSans-Bold-20" transform="scale(0.015625)"/>
      <path id="DejaVuSans-Bold-4c" d="M 588 4666 
L 1791 4666 
L 1791 909 
L 3903 909 
L 3903 0 
L 588 0 
L 588 4666 
z
" transform="scale(0.015625)"/>
      <path id="DejaVuSans-Bold-70" d="M 1656 506 
L 1656 -1331 
L 538 -1331 
L 538 3500 
L 1656 3500 
L 1656 2988 
Q 1888 3294 2169 3439 
Q 2450 3584 2816 3584 
Q 3463 3584 3878 3070 
Q 4294 2556 4294 1747 
Q 4294 938 3878 423 
Q 3463 -91 2816 -91 
Q 2450 -91 2169 54 
Q 1888 200 1656 506 
z
M 2400 2772 
Q 2041 2772 1848 2508 
Q 1656 2244 1656 1747 
Q 1656 1250 1848 986 
Q 2041 722 2400 722 
Q 2759 722 2948 984 
Q 3138 1247 3138 1747 
Q 3138 2247 2948 2509 
Q 2759 2772 2400 2772 
z
" transform="scale(0.015625)"/>
     </defs>
     <use xlink:href="#DejaVuSans-Bold-43"/>
     <use xlink:href="#DejaVuSans-Bold-68" transform="translate(73.388672 0)"/>
     <use xlink:href="#DejaVuSans-Bold-72" transform="translate(144.580078 0)"/>
     <use xlink:href="#DejaVuSans-Bold-6f" transform="translate(193.896484 0)"/>
     <use xlink:href="#DejaVuSans-Bold-6d" transform="translate(262.597656 0)"/>
     <use xlink:href="#DejaVuSans-Bold-61" transform="translate(366.796875 0)"/>
     <use xlink:href="#DejaVuSans-Bold-74" transform="translate(434.277344 0)"/>
     <use xlink:href="#DejaVuSans-Bold-69" transform="translate(482.080078 0)"/>
     <use xlink:href="#DejaVuSans-Bold-6e" transform="translate(516.357422 0)"/>
     <use xlink:href="#DejaVuSans-Bold-20" transform="translate(587.548828 0)"/>
     <use xlink:href="#DejaVuSans-Bold-4c" transform="translate(622.363281 0)"/>
     <use xlink:href="#DejaVuSans-Bold-6f" transform="translate(686.083984 0)"/>
     <use xlink:href="#DejaVuSans-Bold-6f" transform="translate(754.785156 0)"/>
     <use xlink:href="#DejaVuSans-Bold-70" transform="translate(823.486328 0)"/>
    </g>
   </g>
   <g id="text_5">
    <!-- D. Loops Connect Enhancers to Promoters -->
    <g transform="translate(7.2 15.558281) scale(0.11 -0.11)">
     <defs>
      <path id="DejaVuSans-Bold-44" d="M 1791 3756 
L 1791 909 
L 2222 909 
Q 2959 909 3348 1275 
Q 3738 1641 3738 2338 
Q 3738 3031 3350 3393 
Q 2963 3756 2222 3756 
L 1791 3756 
z
M 588 4666 
L 1856 4666 
Q 2919 4666 3439 4514 
Q 3959 4363 4331 4000 
Q 4659 3684 4818 3271 
Q 4978 2859 4978 2338 
Q 4978 1809 4818 1395 
Q 4659 981 4331 666 
Q 3956 303 3431 151 
Q 2906 0 1856 0 
L 588 0 
L 588 4666 
z
" transform="scale(0.015625)"/>
      <path id="DejaVuSans-Bold-2e" d="M 653 1209 
L 1778 1209 
L 1778 0 
L 653 0 
L 653 1209 
z
" transform="scale(0.015625)"/>
      <path id="DejaVuSans-Bold-73" d="M 3272 3391 
L 3272 2541 
Q 2913 2691 2578 2766 
Q 2244 2841 1947 2841 
Q 1628 2841 1473 2761 
Q 1319 2681 1319 2516 
Q 1319 2381 1436 2309 
Q 1553 2238 1856 2203 
L 2053 2175 
Q 2913 2066 3209 1816 
Q 3506 1566 3506 1031 
Q 3506 472 3093 190 
Q 2681 -91 1863 -91 
Q 1516 -91 1145 -36 
Q 775 19 384 128 
L 384 978 
Q 719 816 1070 734 
Q 1422 653 1784 653 
Q 2113 653 2278 743 
Q 2444 834 2444 1013 
Q 2444 1163 2330 1236 
Q 2216 1309 1875 1350 
L 1678 1375 
Q 931 1469 631 1722 
Q 331 1975 331 2491 
Q 331 3047 712 3315 
Q 1094 3584 1881 3584 
Q 2191 3584 2531 3537 
Q 2872 3491 3272 3391 
z
" transform="scale(0.015625)"/>
      <path id="DejaVuSans-Bold-63" d="M 3366 3391 
L 3366 2478 
Q 3138 2634 2908 2709 
Q 2678 2784 2431 2784 
Q 1963 2784 1702 2511 
Q 1441 2238 1441 1747 
Q 1441 1256 1702 982 
Q 1963 709 2431 709 
Q 2694 709 2930 787 
Q 3166 866 3366 1019 
L 3366 103 
Q 3103 6 2833 -42 
Q 2563 -91 2291 -91 
Q 1344 -91 809 395 
Q 275 881 275 1747 
Q 275 2613 809 3098 
Q 1344 3584 2291 3584 
Q 2566 3584 2833 3536 
Q 3100 3488 3366 3391 
z
" transform="scale(0.015625)"/>
     </defs>
     <use xlink:href="#DejaVuSans-Bold-44"/>
     <use xlink:href="#DejaVuSans-Bold-2e" transform="translate(83.007812 0)"/>
     <use xlink:href="#DejaVuSans-Bold-20" transform="translate(120.996094 0)"/>
     <use xlink:href="#DejaVuSans-Bold-4c" transform="translate(155.810547 0)"/>
     <use xlink:href="#DejaVuSans-Bold-6f" transform="translate(219.53125 0)"/>
     <use xlink:href="#DejaVuSans-Bold-6f" transform="translate(288.232422 0)"/>
     <use xlink:href="#DejaVuSans-Bold-70" transform="translate(356.933594 0)"/>
     <use xlink:href="#DejaVuSans-Bold-73" transform="translate(428.515625 0)"/>
     <use xlink:href="#DejaVuSans-Bold-20" transform="translate(488.037109 0)"/>
     <use xlink:href="#DejaVuSans-Bold-43" transform="translate(522.851562 0)"/>
     <use xlink:href="#DejaVuSans-Bold-6f" transform="translate(596.240234 0)"/>
     <use xlink:href="#DejaVuSans-Bold-6e" transform="translate(664.941406 0)"/>
     <use xlink:href="#DejaVuSans-Bold-6e" transform="translate(736.132812 0)"/>
     <use xlink:href="#DejaVuSans-Bold-65" transform="translate(807.324219 0)"/>
     <use xlink:href="#DejaVuSans-Bold-63" transform="translate(875.146484 0)"/>
     <use xlink:href="#DejaVuSans-Bold-74" transform="translate(934.423828 0)"/>
     <use xlink:href="#DejaVuSans-Bold-20" transform="translate(982.226562 0)"/>
     <use xlink:href="#DejaVuSans-Bold-45" transform="translate(1017.041016 0)"/>
     <use xlink:href="#DejaVuSans-Bold-6e" transform="translate(1085.351562 0)"/>
     <use xlink:href="#DejaVuSans-Bold-68" transform="translate(1156.542969 0)"/>
     <use xlink:href="#DejaVuSans-Bold-61" transform="translate(1227.734375 0)"/>
     <use xlink:href="#DejaVuSans-Bold-6e" transform="translate(1295.214844 0)"/>
     <use xlink:href="#DejaVuSans-Bold-63" transform="translate(1366.40625 0)"/>
     <use xlink:href="#DejaVuSans-Bold-65" transform="translate(1425.683594 0)"/>
     <use xlink:href="#DejaVuSans-Bold-72" transform="translate(1493.505859 0)"/>
     <use xlink:href="#DejaVuSans-Bold-73" transform="translate(1542.822266 0)"/>
     <use xlink:href="#DejaVuSans-Bold-20" transform="translate(1602.34375 0)"/>
     <use xlink:href="#DejaVuSans-Bold-74" transform="translate(1637.158203 0)"/>
     <use xlink:href="#DejaVuSans-Bold-6f" transform="translate(1684.960938 0)"/>
     <use xlink:href="#DejaVuSans-Bold-20" transform="translate(1753.662109 0)"/>
     <use xlink:href="#DejaVuSans-Bold-50" transform="translate(1788.476562 0)"/>
     <use xlink:href="#DejaVuSans-Bold-72" transform="translate(1861.767578 0)"/>
     <use xlink:href="#DejaVuSans-Bold-6f" transform="translate(1911.083984 0)"/>
     <use xlink:href="#DejaVuSans-Bold-6d" transform="translate(1979.785156 0)"/>
     <use xlink:href="#DejaVuSans-Bold-6f" transform="translate(2083.984375 0)"/>
     <use xlink:href="#DejaVuSans-Bold-74" transform="translate(2152.685547 0)"/>
     <use xlink:href="#DejaVuSans-Bold-65" transform="translate(2200.488281 0)"/>
     <use xlink:href="#DejaVuSans-Bold-72" transform="translate(2268.310547 0)"/>
     <use xlink:href="#DejaVuSans-Bold-73" transform="translate(2317.626953 0)"/>
    </g>
   </g>
  </g>
 </g>
 <defs>
  <clipPath id="p0e1d0e4017">
   <rect x="7.2" y="21.558281" width="554.4" height="251.76"/>
  </clipPath>
 </defs>
</svg>
