<?xml version="1.0" encoding="utf-8" standalone="no"?>
<!DOCTYPE svg PUBLIC "-//W3C//DTD SVG 1.1//EN"
  "http://www.w3.org/Graphics/SVG/1.1/DTD/svg11.dtd">
<svg xmlns:xlink="http://www.w3.org/1999/xlink" width="568.8pt" height="352.518281pt" viewBox="0 0 568.8 352.518281" xmlns="http://www.w3.org/2000/svg" version="1.1">
 <metadata>
  <rdf:RDF xmlns:dc="http://purl.org/dc/elements/1.1/" xmlns:cc="http://creativecommons.org/ns#" xmlns:rdf="http://www.w3.org/1999/02/22-rdf-syntax-ns#">
   <cc:Work>
    <dc:type rdf:resource="http://purl.org/dc/dcmitype/StillImage"/>
    <dc:date>2026-01-08T10:37:04.547565</dc:date>
    <dc:format>image/svg+xml</dc:format>
    <dc:creator>
     <cc:Agent>
      <dc:title>Matplotlib v3.10.7, https://matplotlib.org/</dc:title>
     </cc:Agent>
    </dc:creator>
   </cc:Work>
  </rdf:RDF>
 </metadata>
 <defs>
  <style type="text/css">*{stroke-linejoin: round; stroke-linecap: butt}</style>
 </defs>
 <g id="figure_1">
  <g id="patch_1">
   <path d="M 0 352.518281 
L 568.8 352.518281 
L 568.8 0 
L 0 0 
z
" style="fill: #ffffff"/>
  </g>
  <g id="axes_1">
   <g id="line2d_1">
    <path d="M 62.64 168.721918 
L 506.16 168.721918 
" clip-path="url(#p3617e453ea)" style="fill: none; stroke: #555555; stroke-width: 6; stroke-linecap: square"/>
   </g>
   <g id="patch_2">
    <path d="M 228.96 227.587372 
C 234.841144 227.587372 240.482203 221.384937 244.6408 210.34608 
C 248.799397 199.307223 251.136 184.333219 251.136 168.721918 
C 251.136 153.110617 248.799397 138.136612 244.6408 127.097756 
C 240.482203 116.058899 234.841144 109.856463 228.96 109.856463 
C 223.078856 109.856463 217.437797 116.058899 213.2792 127.097756 
C 209.120603 138.136612 206.784 153.110617 206.784 168.721918 
C 206.784 184.333219 209.120603 199.307223 213.2792 210.34608 
C 217.437797 221.384937 223.078856 227.587372 228.96 227.587372 
z
" clip-path="url(#p3617e453ea)" style="fill: #2ca02c; stroke: #ffffff; stroke-width: 2; stroke-linejoin: miter"/>
   </g>
   <g id="patch_3">
    <path d="M 339.84 227.587372 
C 345.721144 227.587372 351.362203 221.384937 355.5208 210.34608 
C 359.679397 199.307223 362.016 184.333219 362.016 168.721918 
C 362.016 153.110617 359.679397 138.136612 355.5208 127.097756 
C 351.362203 116.058899 345.721144 109.856463 339.84 109.856463 
C 333.958856 109.856463 328.317797 116.058899 324.1592 127.097756 
C 320.000603 138.136612 317.664 153.110617 317.664 168.721918 
C 317.664 184.333219 320.000603 199.307223 324.1592 210.34608 
C 328.317797 221.384937 333.958856 227.587372 339.84 227.587372 
z
" clip-path="url(#p3617e453ea)" style="fill: #2ca02c; stroke: #ffffff; stroke-width: 2; stroke-linejoin: miter"/>
   </g>
   <g id="text_1">
    <!-- C -->
    <g style="fill: #ffffff" transform="translate(225.290469 171.481293) scale(0.1 -0.1)">
     <defs>
      <path id="DejaVuSans-Bold-43" d="M 4288 256 
Q 3956 84 3597 -3 
Q 3238 -91 2847 -91 
Q 1681 -91 1000 561 
Q 319 1213 319 2328 
Q 319 3447 1000 4098 
Q 1681 4750 2847 4750 
Q 3238 4750 3597 4662 
Q 3956 4575 4288 4403 
L 4288 3438 
Q 3953 3666 3628 3772 
Q 3303 3878 2944 3878 
Q 2300 3878 1931 3465 
Q 1563 3053 1563 2328 
Q 1563 1606 1931 1193 
Q 2300 781 2944 781 
Q 3303 781 3628 887 
Q 3953 994 4288 1222 
L 4288 256 
z
" transform="scale(0.015625)"/>
     </defs>
     <use xlink:href="#DejaVuSans-Bold-43"/>
    </g>
   </g>
   <g id="patch_4">
    <path d="M 252.441575 168.721918 
Q 215.096945 168.721918 175.516248 168.721918 
" style="fill: none; stroke: #2ca02c; stroke-width: 2; stroke-linecap: round"/>
    <path d="M 248.441575 166.721918 
L 252.441575 168.721918 
L 248.441575 170.721918 
" style="fill: none; stroke: #2ca02c; stroke-width: 2; stroke-linecap: round"/>
   </g>
   <g id="text_2">
    <!-- C -->
    <g style="fill: #ffffff" transform="translate(336.170469 171.481293) scale(0.1 -0.1)">
     <use xlink:href="#DejaVuSans-Bold-43"/>
    </g>
   </g>
   <g id="patch_5">
    <path d="M 393.277643 168.721918 
Q 353.696945 168.721918 316.352316 168.721918 
" style="fill: none; stroke: #2ca02c; stroke-width: 2; stroke-linecap: round"/>
    <path d="M 320.352316 170.721918 
L 316.352316 168.721918 
L 320.352316 166.721918 
" style="fill: none; stroke: #2ca02c; stroke-width: 2; stroke-linecap: round"/>
   </g>
   <g id="text_3">
    <!-- STOP -->
    <g style="fill: #d62728" transform="translate(132.365391 271.736463) scale(0.09 -0.09)">
     <defs>
      <path id="DejaVuSans-Bold-53" d="M 3834 4519 
L 3834 3531 
Q 3450 3703 3084 3790 
Q 2719 3878 2394 3878 
Q 1963 3878 1756 3759 
Q 1550 3641 1550 3391 
Q 1550 3203 1689 3098 
Q 1828 2994 2194 2919 
L 2706 2816 
Q 3484 2659 3812 2340 
Q 4141 2022 4141 1434 
Q 4141 663 3683 286 
Q 3225 -91 2284 -91 
Q 1841 -91 1394 -6 
Q 947 78 500 244 
L 500 1259 
Q 947 1022 1364 901 
Q 1781 781 2169 781 
Q 2563 781 2772 912 
Q 2981 1044 2981 1288 
Q 2981 1506 2839 1625 
Q 2697 1744 2272 1838 
L 1806 1941 
Q 1106 2091 782 2419 
Q 459 2747 459 3303 
Q 459 4000 909 4375 
Q 1359 4750 2203 4750 
Q 2588 4750 2994 4692 
Q 3400 4634 3834 4519 
z
" transform="scale(0.015625)"/>
      <path id="DejaVuSans-Bold-54" d="M 31 4666 
L 4331 4666 
L 4331 3756 
L 2784 3756 
L 2784 0 
L 1581 0 
L 1581 3756 
L 31 3756 
L 31 4666 
z
" transform="scale(0.015625)"/>
      <path id="DejaVuSans-Bold-4f" d="M 2719 3878 
Q 2169 3878 1866 3472 
Q 1563 3066 1563 2328 
Q 1563 1594 1866 1187 
Q 2169 781 2719 781 
Q 3272 781 3575 1187 
Q 3878 1594 3878 2328 
Q 3878 3066 3575 3472 
Q 3272 3878 2719 3878 
z
M 2719 4750 
Q 3844 4750 4481 4106 
Q 5119 3463 5119 2328 
Q 5119 1197 4481 553 
Q 3844 -91 2719 -91 
Q 1597 -91 958 553 
Q 319 1197 319 2328 
Q 319 3463 958 4106 
Q 1597 4750 2719 4750 
z
" transform="scale(0.015625)"/>
      <path id="DejaVuSans-Bold-50" d="M 588 4666 
L 2584 4666 
Q 3475 4666 3951 4270 
Q 4428 3875 4428 3144 
Q 4428 2409 3951 2014 
Q 3475 1619 2584 1619 
L 1791 1619 
L 1791 0 
L 588 0 
L 588 4666 
z
M 1791 3794 
L 1791 2491 
L 2456 2491 
Q 2806 2491 2997 2661 
Q 3188 2831 3188 3144 
Q 3188 3456 2997 3625 
Q 2806 3794 2456 3794 
L 1791 3794 
z
" transform="scale(0.015625)"/>
     </defs>
     <use xlink:href="#DejaVuSans-Bold-53"/>
     <use xlink:href="#DejaVuSans-Bold-54" transform="translate(72.021484 0)"/>
     <use xlink:href="#DejaVuSans-Bold-4f" transform="translate(140.234375 0)"/>
     <use xlink:href="#DejaVuSans-Bold-50" transform="translate(225.244141 0)"/>
    </g>
   </g>
   <g id="text_4">
    <!-- STOP -->
    <g style="fill: #d62728" transform="translate(409.565391 271.736463) scale(0.09 -0.09)">
     <use xlink:href="#DejaVuSans-Bold-53"/>
     <use xlink:href="#DejaVuSans-Bold-54" transform="translate(72.021484 0)"/>
     <use xlink:href="#DejaVuSans-Bold-4f" transform="translate(140.234375 0)"/>
     <use xlink:href="#DejaVuSans-Bold-50" transform="translate(225.244141 0)"/>
    </g>
   </g>
   <g id="text_5">
    <!-- C. Convergent CTCF Sites Halt Extrusion -->
    <g transform="translate(7.2 15.558281) scale(0.11 -0.11)">
     <defs>
      <path id="DejaVuSans-Bold-2e" d="M 653 1209 
L 1778 1209 
L 1778 0 
L 653 0 
L 653 1209 
z
" transform="scale(0.015625)"/>
      <path id="DejaVuSans-Bold-20" transform="scale(0.015625)"/>
      <path id="DejaVuSans-Bold-6f" d="M 2203 2784 
Q 1831 2784 1636 2517 
Q 1441 2250 1441 1747 
Q 1441 1244 1636 976 
Q 1831 709 2203 709 
Q 2569 709 2762 976 
Q 2956 1244 2956 1747 
Q 2956 2250 2762 2517 
Q 2569 2784 2203 2784 
z
M 2203 3584 
Q 3106 3584 3614 3096 
Q 4122 2609 4122 1747 
Q 4122 884 3614 396 
Q 3106 -91 2203 -91 
Q 1297 -91 786 396 
Q 275 884 275 1747 
Q 275 2609 786 3096 
Q 1297 3584 2203 3584 
z
" transform="scale(0.015625)"/>
      <path id="DejaVuSans-Bold-6e" d="M 4056 2131 
L 4056 0 
L 2931 0 
L 2931 347 
L 2931 1631 
Q 2931 2084 2911 2256 
Q 2891 2428 2841 2509 
Q 2775 2619 2662 2680 
Q 2550 2741 2406 2741 
Q 2056 2741 1856 2470 
Q 1656 2200 1656 1722 
L 1656 0 
L 538 0 
L 538 3500 
L 1656 3500 
L 1656 2988 
Q 1909 3294 2193 3439 
Q 2478 3584 2822 3584 
Q 3428 3584 3742 3212 
Q 4056 2841 4056 2131 
z
" transform="scale(0.015625)"/>
      <path id="DejaVuSans-Bold-76" d="M 97 3500 
L 1216 3500 
L 2088 1081 
L 2956 3500 
L 4078 3500 
L 2700 0 
L 1472 0 
L 97 3500 
z
" transform="scale(0.015625)"/>
      <path id="DejaVuSans-Bold-65" d="M 4031 1759 
L 4031 1441 
L 1416 1441 
Q 1456 1047 1700 850 
Q 1944 653 2381 653 
Q 2734 653 3104 758 
Q 3475 863 3866 1075 
L 3866 213 
Q 3469 63 3072 -14 
Q 2675 -91 2278 -91 
Q 1328 -91 801 392 
Q 275 875 275 1747 
Q 275 2603 792 3093 
Q 1309 3584 2216 3584 
Q 3041 3584 3536 3087 
Q 4031 2591 4031 1759 
z
M 2881 2131 
Q 2881 2450 2695 2645 
Q 2509 2841 2209 2841 
Q 1884 2841 1681 2658 
Q 1478 2475 1428 2131 
L 2881 2131 
z
" transform="scale(0.015625)"/>
      <path id="DejaVuSans-Bold-72" d="M 3138 2547 
Q 2991 2616 2845 2648 
Q 2700 2681 2553 2681 
Q 2122 2681 1889 2404 
Q 1656 2128 1656 1613 
L 1656 0 
L 538 0 
L 538 3500 
L 1656 3500 
L 1656 2925 
Q 1872 3269 2151 3426 
Q 2431 3584 2822 3584 
Q 2878 3584 2943 3579 
Q 3009 3575 3134 3559 
L 3138 2547 
z
" transform="scale(0.015625)"/>
      <path id="DejaVuSans-Bold-67" d="M 2919 594 
Q 2688 288 2409 144 
Q 2131 0 1766 0 
Q 1125 0 706 504 
Q 288 1009 288 1791 
Q 288 2575 706 3076 
Q 1125 3578 1766 3578 
Q 2131 3578 2409 3434 
Q 2688 3291 2919 2981 
L 2919 3500 
L 4044 3500 
L 4044 353 
Q 4044 -491 3511 -936 
Q 2978 -1381 1966 -1381 
Q 1638 -1381 1331 -1331 
Q 1025 -1281 716 -1178 
L 716 -306 
Q 1009 -475 1290 -558 
Q 1572 -641 1856 -641 
Q 2406 -641 2662 -400 
Q 2919 -159 2919 353 
L 2919 594 
z
M 2181 2772 
Q 1834 2772 1640 2515 
Q 1447 2259 1447 1791 
Q 1447 1309 1634 1061 
Q 1822 813 2181 813 
Q 2531 813 2725 1069 
Q 2919 1325 2919 1791 
Q 2919 2259 2725 2515 
Q 2531 2772 2181 2772 
z
" transform="scale(0.015625)"/>
      <path id="DejaVuSans-Bold-74" d="M 1759 4494 
L 1759 3500 
L 2913 3500 
L 2913 2700 
L 1759 2700 
L 1759 1216 
Q 1759 972 1856 886 
Q 1953 800 2241 800 
L 2816 800 
L 2816 0 
L 1856 0 
Q 1194 0 917 276 
Q 641 553 641 1216 
L 641 2700 
L 84 2700 
L 84 3500 
L 641 3500 
L 641 4494 
L 1759 4494 
z
" transform="scale(0.015625)"/>
      <path id="DejaVuSans-Bold-46" d="M 588 4666 
L 3834 4666 
L 3834 3756 
L 1791 3756 
L 1791 2888 
L 3713 2888 
L 3713 1978 
L 1791 1978 
L 1791 0 
L 588 0 
L 588 4666 
z
" transform="scale(0.015625)"/>
      <path id="DejaVuSans-Bold-69" d="M 538 3500 
L 1656 3500 
L 1656 0 
L 538 0 
L 538 3500 
z
M 538 4863 
L 1656 4863 
L 1656 3950 
L 538 3950 
L 538 4863 
z
" transform="scale(0.015625)"/>
      <path id="DejaVuSans-Bold-73" d="M 3272 3391 
L 3272 2541 
Q 2913 2691 2578 2766 
Q 2244 2841 1947 2841 
Q 1628 2841 1473 2761 
Q 1319 2681 1319 2516 
Q 1319 2381 1436 2309 
Q 1553 2238 1856 2203 
L 2053 2175 
Q 2913 2066 3209 1816 
Q 3506 1566 3506 1031 
Q 3506 472 3093 190 
Q 2681 -91 1863 -91 
Q 1516 -91 1145 -36 
Q 775 19 384 128 
L 384 978 
Q 719 816 1070 734 
Q 1422 653 1784 653 
Q 2113 653 2278 743 
Q 2444 834 2444 1013 
Q 2444 1163 2330 1236 
Q 2216 1309 1875 1350 
L 1678 1375 
Q 931 1469 631 1722 
Q 331 1975 331 2491 
Q 331 3047 712 3315 
Q 1094 3584 1881 3584 
Q 2191 3584 2531 3537 
Q 2872 3491 3272 3391 
z
" transform="scale(0.015625)"/>
      <path id="DejaVuSans-Bold-48" d="M 588 4666 
L 1791 4666 
L 1791 2888 
L 3566 2888 
L 3566 4666 
L 4769 4666 
L 4769 0 
L 3566 0 
L 3566 1978 
L 1791 1978 
L 1791 0 
L 588 0 
L 588 4666 
z
" transform="scale(0.015625)"/>
      <path id="DejaVuSans-Bold-61" d="M 2106 1575 
Q 1756 1575 1579 1456 
Q 1403 1338 1403 1106 
Q 1403 894 1545 773 
Q 1688 653 1941 653 
Q 2256 653 2472 879 
Q 2688 1106 2688 1447 
L 2688 1575 
L 2106 1575 
z
M 3816 1997 
L 3816 0 
L 2688 0 
L 2688 519 
Q 2463 200 2181 54 
Q 1900 -91 1497 -91 
Q 953 -91 614 226 
Q 275 544 275 1050 
Q 275 1666 698 1953 
Q 1122 2241 2028 2241 
L 2688 2241 
L 2688 2328 
Q 2688 2594 2478 2717 
Q 2269 2841 1825 2841 
Q 1466 2841 1156 2769 
Q 847 2697 581 2553 
L 581 3406 
Q 941 3494 1303 3539 
Q 1666 3584 2028 3584 
Q 2975 3584 3395 3211 
Q 3816 2838 3816 1997 
z
" transform="scale(0.015625)"/>
      <path id="DejaVuSans-Bold-6c" d="M 538 4863 
L 1656 4863 
L 1656 0 
L 538 0 
L 538 4863 
z
" transform="scale(0.015625)"/>
      <path id="DejaVuSans-Bold-45" d="M 588 4666 
L 3834 4666 
L 3834 3756 
L 1791 3756 
L 1791 2888 
L 3713 2888 
L 3713 1978 
L 1791 1978 
L 1791 909 
L 3903 909 
L 3903 0 
L 588 0 
L 588 4666 
z
" transform="scale(0.015625)"/>
      <path id="DejaVuSans-Bold-78" d="M 1422 1791 
L 159 3500 
L 1344 3500 
L 2059 2463 
L 2784 3500 
L 3969 3500 
L 2706 1797 
L 4031 0 
L 2847 0 
L 2059 1106 
L 1281 0 
L 97 0 
L 1422 1791 
z
" transform="scale(0.015625)"/>
      <path id="DejaVuSans-Bold-75" d="M 500 1363 
L 500 3500 
L 1625 3500 
L 1625 3150 
Q 1625 2866 1622 2436 
Q 1619 2006 1619 1863 
Q 1619 1441 1641 1255 
Q 1663 1069 1716 984 
Q 1784 875 1895 815 
Q 2006 756 2150 756 
Q 2500 756 2700 1025 
Q 2900 1294 2900 1772 
L 2900 3500 
L 4019 3500 
L 4019 0 
L 2900 0 
L 2900 506 
Q 2647 200 2364 54 
Q 2081 -91 1741 -91 
Q 1134 -91 817 281 
Q 500 653 500 1363 
z
" transform="scale(0.015625)"/>
     </defs>
     <use xlink:href="#DejaVuSans-Bold-43"/>
     <use xlink:href="#DejaVuSans-Bold-2e" transform="translate(73.388672 0)"/>
     <use xlink:href="#DejaVuSans-Bold-20" transform="translate(111.376953 0)"/>
     <use xlink:href="#DejaVuSans-Bold-43" transform="translate(146.191406 0)"/>
     <use xlink:href="#DejaVuSans-Bold-6f" transform="translate(219.580078 0)"/>
     <use xlink:href="#DejaVuSans-Bold-6e" transform="translate(288.28125 0)"/>
     <use xlink:href="#DejaVuSans-Bold-76" transform="translate(359.472656 0)"/>
     <use xlink:href="#DejaVuSans-Bold-65" transform="translate(424.658203 0)"/>
     <use xlink:href="#DejaVuSans-Bold-72" transform="translate(492.480469 0)"/>
     <use xlink:href="#DejaVuSans-Bold-67" transform="translate(541.796875 0)"/>
     <use xlink:href="#DejaVuSans-Bold-65" transform="translate(613.378906 0)"/>
     <use xlink:href="#DejaVuSans-Bold-6e" transform="translate(681.201172 0)"/>
     <use xlink:href="#DejaVuSans-Bold-74" transform="translate(752.392578 0)"/>
     <use xlink:href="#DejaVuSans-Bold-20" transform="translate(800.195312 0)"/>
     <use xlink:href="#DejaVuSans-Bold-43" transform="translate(835.009766 0)"/>
     <use xlink:href="#DejaVuSans-Bold-54" transform="translate(908.398438 0)"/>
     <use xlink:href="#DejaVuSans-Bold-43" transform="translate(976.611328 0)"/>
     <use xlink:href="#DejaVuSans-Bold-46" transform="translate(1050 0)"/>
     <use xlink:href="#DejaVuSans-Bold-20" transform="translate(1118.310547 0)"/>
     <use xlink:href="#DejaVuSans-Bold-53" transform="translate(1153.125 0)"/>
     <use xlink:href="#DejaVuSans-Bold-69" transform="translate(1225.146484 0)"/>
     <use xlink:href="#DejaVuSans-Bold-74" transform="translate(1259.423828 0)"/>
     <use xlink:href="#DejaVuSans-Bold-65" transform="translate(1307.226562 0)"/>
     <use xlink:href="#DejaVuSans-Bold-73" transform="translate(1375.048828 0)"/>
     <use xlink:href="#DejaVuSans-Bold-20" transform="translate(1434.570312 0)"/>
     <use xlink:href="#DejaVuSans-Bold-48" transform="translate(1469.384766 0)"/>
     <use xlink:href="#DejaVuSans-Bold-61" transform="translate(1553.076172 0)"/>
     <use xlink:href="#DejaVuSans-Bold-6c" transform="translate(1620.556641 0)"/>
     <use xlink:href="#DejaVuSans-Bold-74" transform="translate(1654.833984 0)"/>
     <use xlink:href="#DejaVuSans-Bold-20" transform="translate(1702.636719 0)"/>
     <use xlink:href="#DejaVuSans-Bold-45" transform="translate(1737.451172 0)"/>
     <use xlink:href="#DejaVuSans-Bold-78" transform="translate(1805.761719 0)"/>
     <use xlink:href="#DejaVuSans-Bold-74" transform="translate(1870.263672 0)"/>
     <use xlink:href="#DejaVuSans-Bold-72" transform="translate(1918.066406 0)"/>
     <use xlink:href="#DejaVuSans-Bold-75" transform="translate(1967.382812 0)"/>
     <use xlink:href="#DejaVuSans-Bold-73" transform="translate(2038.574219 0)"/>
     <use xlink:href="#DejaVuSans-Bold-69" transform="translate(2098.095703 0)"/>
     <use xlink:href="#DejaVuSans-Bold-6f" transform="translate(2132.373047 0)"/>
     <use xlink:href="#DejaVuSans-Bold-6e" transform="translate(2201.074219 0)"/>
    </g>
   </g>
   <g id="PathCollection_1">
    <defs>
     <path id="m28a1859749" d="M 8.660254 0 
L -8.660254 -8.660254 
L -8.660254 8.660254 
z
" style="stroke: #d62728"/>
    </defs>
    <g clip-path="url(#p3617e453ea)">
     <use xlink:href="#m28a1859749" x="145.8" y="168.721918" style="fill: #d62728; stroke: #d62728"/>
    </g>
   </g>
   <g id="PathCollection_2">
    <defs>
     <path id="m70c11ca6cc" d="M -8.660254 -0 
L 8.660254 8.660254 
L 8.660254 -8.660254 
z
" style="stroke: #d62728"/>
    </defs>
    <g clip-path="url(#p3617e453ea)">
     <use xlink:href="#m70c11ca6cc" x="423" y="168.721918" style="fill: #d62728; stroke: #d62728"/>
    </g>
   </g>
  </g>
 </g>
 <defs>
  <clipPath id="p3617e453ea">
   <rect x="7.2" y="21.558281" width="554.4" height="323.76"/>
  </clipPath>
 </defs>
</svg>
