<?xml version="1.0" encoding="utf-8" standalone="no"?>
<!DOCTYPE svg PUBLIC "-//W3C//DTD SVG 1.1//EN"
  "http://www.w3.org/Graphics/SVG/1.1/DTD/svg11.dtd">
<svg xmlns:xlink="http://www.w3.org/1999/xlink" width="352.82125pt" height="280.674531pt" viewBox="0 0 352.82125 280.674531" xmlns="http://www.w3.org/2000/svg" version="1.1">
 <metadata>
  <rdf:RDF xmlns:dc="http://purl.org/dc/elements/1.1/" xmlns:cc="http://creativecommons.org/ns#" xmlns:rdf="http://www.w3.org/1999/02/22-rdf-syntax-ns#">
   <cc:Work>
    <dc:type rdf:resource="http://purl.org/dc/dcmitype/StillImage"/>
    <dc:date>2026-01-08T05:55:29.622640</dc:date>
    <dc:format>image/svg+xml</dc:format>
    <dc:creator>
     <cc:Agent>
      <dc:title>Matplotlib v3.10.7, https://matplotlib.org/</dc:title>
     </cc:Agent>
    </dc:creator>
   </cc:Work>
  </rdf:RDF>
 </metadata>
 <defs>
  <style type="text/css">*{stroke-linejoin: round; stroke-linecap: butt}</style>
 </defs>
 <g id="figure_1">
  <g id="patch_1">
   <path d="M 0 280.674531 
L 352.82125 280.674531 
L 352.82125 0 
L 0 0 
z
" style="fill: #ffffff"/>
  </g>
  <g id="axes_1">
   <g id="patch_2">
    <path d="M 43.78125 243.118281 
L 345.62125 243.118281 
L 345.62125 21.558281 
L 43.78125 21.558281 
z
" style="fill: #ffffff"/>
   </g>
   <g id="FillBetweenPolyCollection_1">
    <defs>
     <path id="m2a96b615cb" d="M 57.50125 -144.571749 
L 57.50125 -83.387752 
L 60.272967 -71.467612 
L 63.044684 -88.526891 
L 65.816402 -107.409218 
L 68.588119 -72.602088 
L 71.359836 -73.632456 
L 74.131553 -111.645152 
L 76.90327 -96.119243 
L 79.674987 -71.922929 
L 82.446705 -93.593066 
L 85.218422 -74.10652 
L 87.990139 -75.0894 
L 90.761856 -90.552576 
L 93.533573 -47.627159 
L 96.30529 -52.498781 
L 99.077008 -77.240271 
L 101.848725 -69.081619 
L 104.620442 -97.176974 
L 107.392159 -73.279191 
L 110.163876 -64.02461 
L 112.935593 -123.749522 
L 115.707311 -90.283507 
L 118.479028 -97.295388 
L 121.250745 -67.890943 
L 124.022462 -86.875736 
L 126.794179 -101.270502 
L 129.565896 -76.564178 
L 132.337614 -108.730576 
L 135.109331 -89.848549 
L 137.881048 -97.179411 
L 140.652765 -91.886836 
L 143.424482 -142.965069 
L 146.196199 -105.943237 
L 148.967917 -85.676881 
L 151.739634 -125.054104 
L 154.511351 -84.409911 
L 157.283068 -114.598346 
L 160.054785 -71.40186 
L 162.826503 -85.3108 
L 165.59822 -117.443663 
L 168.369937 -129.519556 
L 171.141654 -118.98381 
L 173.913371 -114.160237 
L 176.685088 -111.407969 
L 179.456806 -88.42495 
L 182.228523 -104.927964 
L 185.00024 -111.244405 
L 187.771957 -143.228667 
L 190.543674 -129.707027 
L 193.315391 -87.772466 
L 196.087109 -131.368698 
L 198.858826 -117.935523 
L 201.630543 -113.013583 
L 204.40226 -140.324148 
L 207.173977 -149.906139 
L 209.945694 -148.902428 
L 212.717412 -113.823755 
L 215.489129 -125.663066 
L 218.260846 -139.755389 
L 221.032563 -153.925333 
L 223.80428 -125.286851 
L 226.575997 -132.303031 
L 229.347715 -114.556185 
L 232.119432 -113.753317 
L 234.891149 -155.750777 
L 237.662866 -167.86968 
L 240.434583 -139.771029 
L 243.206301 -162.736403 
L 245.978018 -150.675165 
L 248.749735 -131.172751 
L 251.521452 -152.730328 
L 254.293169 -177.757561 
L 257.064886 -146.689193 
L 259.836604 -180.360271 
L 262.608321 -96.051095 
L 265.380038 -167.272381 
L 268.151755 -153.315283 
L 270.923472 -146.471866 
L 273.695189 -155.471485 
L 276.466907 -114.094285 
L 279.238624 -151.179987 
L 282.010341 -163.973347 
L 284.782058 -187.861344 
L 287.553775 -148.180275 
L 290.325492 -143.2913 
L 293.09721 -150.577123 
L 295.868927 -180.509644 
L 298.640644 -169.575126 
L 301.412361 -153.096109 
L 304.184078 -175.398342 
L 306.955795 -167.940322 
L 309.727513 -186.745683 
L 312.49923 -153.702387 
L 315.270947 -162.367999 
L 318.042664 -162.083678 
L 320.814381 -141.262728 
L 323.586098 -178.179934 
L 326.357816 -178.494829 
L 329.129533 -174.305014 
L 331.90125 -170.446435 
L 331.90125 -231.630431 
L 331.90125 -231.630431 
L 329.129533 -235.489011 
L 326.357816 -239.678825 
L 323.586098 -239.363931 
L 320.814381 -202.446725 
L 318.042664 -223.267675 
L 315.270947 -223.551996 
L 312.49923 -214.886384 
L 309.727513 -247.929679 
L 306.955795 -229.124319 
L 304.184078 -236.582339 
L 301.412361 -214.280106 
L 298.640644 -230.759123 
L 295.868927 -241.693641 
L 293.09721 -211.76112 
L 290.325492 -204.475297 
L 287.553775 -209.364272 
L 284.782058 -249.045341 
L 282.010341 -225.157344 
L 279.238624 -212.363984 
L 276.466907 -175.278282 
L 273.695189 -216.655482 
L 270.923472 -207.655863 
L 268.151755 -214.49928 
L 265.380038 -228.456378 
L 262.608321 -157.235092 
L 259.836604 -241.544268 
L 257.064886 -207.87319 
L 254.293169 -238.941558 
L 251.521452 -213.914325 
L 248.749735 -192.356747 
L 245.978018 -211.859161 
L 243.206301 -223.9204 
L 240.434583 -200.955026 
L 237.662866 -229.053676 
L 234.891149 -216.934773 
L 232.119432 -174.937313 
L 229.347715 -175.740182 
L 226.575997 -193.487027 
L 223.80428 -186.470848 
L 221.032563 -215.10933 
L 218.260846 -200.939386 
L 215.489129 -186.847063 
L 212.717412 -175.007751 
L 209.945694 -210.086425 
L 207.173977 -211.090135 
L 204.40226 -201.508145 
L 201.630543 -174.19758 
L 198.858826 -179.11952 
L 196.087109 -192.552695 
L 193.315391 -148.956462 
L 190.543674 -190.891023 
L 187.771957 -204.412664 
L 185.00024 -172.428402 
L 182.228523 -166.11196 
L 179.456806 -149.608947 
L 176.685088 -172.591966 
L 173.913371 -175.344233 
L 171.141654 -180.167807 
L 168.369937 -190.703553 
L 165.59822 -178.62766 
L 162.826503 -146.494797 
L 160.054785 -132.585857 
L 157.283068 -175.782343 
L 154.511351 -145.593908 
L 151.739634 -186.238101 
L 148.967917 -146.860878 
L 146.196199 -167.127234 
L 143.424482 -204.149066 
L 140.652765 -153.070833 
L 137.881048 -158.363408 
L 135.109331 -151.032546 
L 132.337614 -169.914573 
L 129.565896 -137.748175 
L 126.794179 -162.454499 
L 124.022462 -148.059733 
L 121.250745 -129.07494 
L 118.479028 -158.479384 
L 115.707311 -151.467503 
L 112.935593 -184.933518 
L 110.163876 -125.208607 
L 107.392159 -134.463187 
L 104.620442 -158.36097 
L 101.848725 -130.265615 
L 99.077008 -138.424268 
L 96.30529 -113.682778 
L 93.533573 -108.811156 
L 90.761856 -151.736573 
L 87.990139 -136.273397 
L 85.218422 -135.290517 
L 82.446705 -154.777063 
L 79.674987 -133.106925 
L 76.90327 -157.30324 
L 74.131553 -172.829149 
L 71.359836 -134.816453 
L 68.588119 -133.786084 
L 65.816402 -168.593215 
L 63.044684 -149.710888 
L 60.272967 -132.651609 
L 57.50125 -144.571749 
z
" style="stroke: #1f77b4; stroke-opacity: 0.2"/>
    </defs>
    <g clip-path="url(#pc708a9d041)">
     <use xlink:href="#m2a96b615cb" x="0" y="280.674531" style="fill: #1f77b4; fill-opacity: 0.2; stroke: #1f77b4; stroke-opacity: 0.2"/>
    </g>
   </g>
   <g id="matplotlib.axis_1">
    <g id="xtick_1">
     <g id="line2d_1">
      <defs>
       <path id="m5c4a549c8d" d="M 0 0 
L 0 3.5 
" style="stroke: #000000; stroke-width: 0.8"/>
      </defs>
      <g>
       <use xlink:href="#m5c4a549c8d" x="57.50125" y="243.118281" style="stroke: #000000; stroke-width: 0.8"/>
      </g>
     </g>
     <g id="text_1">
      <!-- 0.0 -->
      <g transform="translate(49.549688 257.716719) scale(0.1 -0.1)">
       <defs>
        <path id="DejaVuSans-30" d="M 2034 4250 
Q 1547 4250 1301 3770 
Q 1056 3291 1056 2328 
Q 1056 1369 1301 889 
Q 1547 409 2034 409 
Q 2525 409 2770 889 
Q 3016 1369 3016 2328 
Q 3016 3291 2770 3770 
Q 2525 4250 2034 4250 
z
M 2034 4750 
Q 2819 4750 3233 4129 
Q 3647 3509 3647 2328 
Q 3647 1150 3233 529 
Q 2819 -91 2034 -91 
Q 1250 -91 836 529 
Q 422 1150 422 2328 
Q 422 3509 836 4129 
Q 1250 4750 2034 4750 
z
" transform="scale(0.015625)"/>
        <path id="DejaVuSans-2e" d="M 684 794 
L 1344 794 
L 1344 0 
L 684 0 
L 684 794 
z
" transform="scale(0.015625)"/>
       </defs>
       <use xlink:href="#DejaVuSans-30"/>
       <use xlink:href="#DejaVuSans-2e" transform="translate(63.623047 0)"/>
       <use xlink:href="#DejaVuSans-30" transform="translate(95.410156 0)"/>
      </g>
     </g>
    </g>
    <g id="xtick_2">
     <g id="line2d_2">
      <g>
       <use xlink:href="#m5c4a549c8d" x="112.38125" y="243.118281" style="stroke: #000000; stroke-width: 0.8"/>
      </g>
     </g>
     <g id="text_2">
      <!-- 0.2 -->
      <g transform="translate(104.429688 257.716719) scale(0.1 -0.1)">
       <defs>
        <path id="DejaVuSans-32" d="M 1228 531 
L 3431 531 
L 3431 0 
L 469 0 
L 469 531 
Q 828 903 1448 1529 
Q 2069 2156 2228 2338 
Q 2531 2678 2651 2914 
Q 2772 3150 2772 3378 
Q 2772 3750 2511 3984 
Q 2250 4219 1831 4219 
Q 1534 4219 1204 4116 
Q 875 4013 500 3803 
L 500 4441 
Q 881 4594 1212 4672 
Q 1544 4750 1819 4750 
Q 2544 4750 2975 4387 
Q 3406 4025 3406 3419 
Q 3406 3131 3298 2873 
Q 3191 2616 2906 2266 
Q 2828 2175 2409 1742 
Q 1991 1309 1228 531 
z
" transform="scale(0.015625)"/>
       </defs>
       <use xlink:href="#DejaVuSans-30"/>
       <use xlink:href="#DejaVuSans-2e" transform="translate(63.623047 0)"/>
       <use xlink:href="#DejaVuSans-32" transform="translate(95.410156 0)"/>
      </g>
     </g>
    </g>
    <g id="xtick_3">
     <g id="line2d_3">
      <g>
       <use xlink:href="#m5c4a549c8d" x="167.26125" y="243.118281" style="stroke: #000000; stroke-width: 0.8"/>
      </g>
     </g>
     <g id="text_3">
      <!-- 0.4 -->
      <g transform="translate(159.309688 257.716719) scale(0.1 -0.1)">
       <defs>
        <path id="DejaVuSans-34" d="M 2419 4116 
L 825 1625 
L 2419 1625 
L 2419 4116 
z
M 2253 4666 
L 3047 4666 
L 3047 1625 
L 3713 1625 
L 3713 1100 
L 3047 1100 
L 3047 0 
L 2419 0 
L 2419 1100 
L 313 1100 
L 313 1709 
L 2253 4666 
z
" transform="scale(0.015625)"/>
       </defs>
       <use xlink:href="#DejaVuSans-30"/>
       <use xlink:href="#DejaVuSans-2e" transform="translate(63.623047 0)"/>
       <use xlink:href="#DejaVuSans-34" transform="translate(95.410156 0)"/>
      </g>
     </g>
    </g>
    <g id="xtick_4">
     <g id="line2d_4">
      <g>
       <use xlink:href="#m5c4a549c8d" x="222.14125" y="243.118281" style="stroke: #000000; stroke-width: 0.8"/>
      </g>
     </g>
     <g id="text_4">
      <!-- 0.6 -->
      <g transform="translate(214.189688 257.716719) scale(0.1 -0.1)">
       <defs>
        <path id="DejaVuSans-36" d="M 2113 2584 
Q 1688 2584 1439 2293 
Q 1191 2003 1191 1497 
Q 1191 994 1439 701 
Q 1688 409 2113 409 
Q 2538 409 2786 701 
Q 3034 994 3034 1497 
Q 3034 2003 2786 2293 
Q 2538 2584 2113 2584 
z
M 3366 4563 
L 3366 3988 
Q 3128 4100 2886 4159 
Q 2644 4219 2406 4219 
Q 1781 4219 1451 3797 
Q 1122 3375 1075 2522 
Q 1259 2794 1537 2939 
Q 1816 3084 2150 3084 
Q 2853 3084 3261 2657 
Q 3669 2231 3669 1497 
Q 3669 778 3244 343 
Q 2819 -91 2113 -91 
Q 1303 -91 875 529 
Q 447 1150 447 2328 
Q 447 3434 972 4092 
Q 1497 4750 2381 4750 
Q 2619 4750 2861 4703 
Q 3103 4656 3366 4563 
z
" transform="scale(0.015625)"/>
       </defs>
       <use xlink:href="#DejaVuSans-30"/>
       <use xlink:href="#DejaVuSans-2e" transform="translate(63.623047 0)"/>
       <use xlink:href="#DejaVuSans-36" transform="translate(95.410156 0)"/>
      </g>
     </g>
    </g>
    <g id="xtick_5">
     <g id="line2d_5">
      <g>
       <use xlink:href="#m5c4a549c8d" x="277.02125" y="243.118281" style="stroke: #000000; stroke-width: 0.8"/>
      </g>
     </g>
     <g id="text_5">
      <!-- 0.8 -->
      <g transform="translate(269.069687 257.716719) scale(0.1 -0.1)">
       <defs>
        <path id="DejaVuSans-38" d="M 2034 2216 
Q 1584 2216 1326 1975 
Q 1069 1734 1069 1313 
Q 1069 891 1326 650 
Q 1584 409 2034 409 
Q 2484 409 2743 651 
Q 3003 894 3003 1313 
Q 3003 1734 2745 1975 
Q 2488 2216 2034 2216 
z
M 1403 2484 
Q 997 2584 770 2862 
Q 544 3141 544 3541 
Q 544 4100 942 4425 
Q 1341 4750 2034 4750 
Q 2731 4750 3128 4425 
Q 3525 4100 3525 3541 
Q 3525 3141 3298 2862 
Q 3072 2584 2669 2484 
Q 3125 2378 3379 2068 
Q 3634 1759 3634 1313 
Q 3634 634 3220 271 
Q 2806 -91 2034 -91 
Q 1263 -91 848 271 
Q 434 634 434 1313 
Q 434 1759 690 2068 
Q 947 2378 1403 2484 
z
M 1172 3481 
Q 1172 3119 1398 2916 
Q 1625 2713 2034 2713 
Q 2441 2713 2670 2916 
Q 2900 3119 2900 3481 
Q 2900 3844 2670 4047 
Q 2441 4250 2034 4250 
Q 1625 4250 1398 4047 
Q 1172 3844 1172 3481 
z
" transform="scale(0.015625)"/>
       </defs>
       <use xlink:href="#DejaVuSans-30"/>
       <use xlink:href="#DejaVuSans-2e" transform="translate(63.623047 0)"/>
       <use xlink:href="#DejaVuSans-38" transform="translate(95.410156 0)"/>
      </g>
     </g>
    </g>
    <g id="xtick_6">
     <g id="line2d_6">
      <g>
       <use xlink:href="#m5c4a549c8d" x="331.90125" y="243.118281" style="stroke: #000000; stroke-width: 0.8"/>
      </g>
     </g>
     <g id="text_6">
      <!-- 1.0 -->
      <g transform="translate(323.949688 257.716719) scale(0.1 -0.1)">
       <defs>
        <path id="DejaVuSans-31" d="M 794 531 
L 1825 531 
L 1825 4091 
L 703 3866 
L 703 4441 
L 1819 4666 
L 2450 4666 
L 2450 531 
L 3481 531 
L 3481 0 
L 794 0 
L 794 531 
z
" transform="scale(0.015625)"/>
       </defs>
       <use xlink:href="#DejaVuSans-31"/>
       <use xlink:href="#DejaVuSans-2e" transform="translate(63.623047 0)"/>
       <use xlink:href="#DejaVuSans-30" transform="translate(95.410156 0)"/>
      </g>
     </g>
    </g>
    <g id="text_7">
     <!-- Task Relatedness -->
     <g transform="translate(145.92625 271.394844) scale(0.1 -0.1)">
      <defs>
       <path id="DejaVuSans-Bold-54" d="M 31 4666 
L 4331 4666 
L 4331 3756 
L 2784 3756 
L 2784 0 
L 1581 0 
L 1581 3756 
L 31 3756 
L 31 4666 
z
" transform="scale(0.015625)"/>
       <path id="DejaVuSans-Bold-61" d="M 2106 1575 
Q 1756 1575 1579 1456 
Q 1403 1338 1403 1106 
Q 1403 894 1545 773 
Q 1688 653 1941 653 
Q 2256 653 2472 879 
Q 2688 1106 2688 1447 
L 2688 1575 
L 2106 1575 
z
M 3816 1997 
L 3816 0 
L 2688 0 
L 2688 519 
Q 2463 200 2181 54 
Q 1900 -91 1497 -91 
Q 953 -91 614 226 
Q 275 544 275 1050 
Q 275 1666 698 1953 
Q 1122 2241 2028 2241 
L 2688 2241 
L 2688 2328 
Q 2688 2594 2478 2717 
Q 2269 2841 1825 2841 
Q 1466 2841 1156 2769 
Q 847 2697 581 2553 
L 581 3406 
Q 941 3494 1303 3539 
Q 1666 3584 2028 3584 
Q 2975 3584 3395 3211 
Q 3816 2838 3816 1997 
z
" transform="scale(0.015625)"/>
       <path id="DejaVuSans-Bold-73" d="M 3272 3391 
L 3272 2541 
Q 2913 2691 2578 2766 
Q 2244 2841 1947 2841 
Q 1628 2841 1473 2761 
Q 1319 2681 1319 2516 
Q 1319 2381 1436 2309 
Q 1553 2238 1856 2203 
L 2053 2175 
Q 2913 2066 3209 1816 
Q 3506 1566 3506 1031 
Q 3506 472 3093 190 
Q 2681 -91 1863 -91 
Q 1516 -91 1145 -36 
Q 775 19 384 128 
L 384 978 
Q 719 816 1070 734 
Q 1422 653 1784 653 
Q 2113 653 2278 743 
Q 2444 834 2444 1013 
Q 2444 1163 2330 1236 
Q 2216 1309 1875 1350 
L 1678 1375 
Q 931 1469 631 1722 
Q 331 1975 331 2491 
Q 331 3047 712 3315 
Q 1094 3584 1881 3584 
Q 2191 3584 2531 3537 
Q 2872 3491 3272 3391 
z
" transform="scale(0.015625)"/>
       <path id="DejaVuSans-Bold-6b" d="M 538 4863 
L 1656 4863 
L 1656 2216 
L 2944 3500 
L 4244 3500 
L 2534 1894 
L 4378 0 
L 3022 0 
L 1656 1459 
L 1656 0 
L 538 0 
L 538 4863 
z
" transform="scale(0.015625)"/>
       <path id="DejaVuSans-Bold-20" transform="scale(0.015625)"/>
       <path id="DejaVuSans-Bold-52" d="M 2297 2597 
Q 2675 2597 2839 2737 
Q 3003 2878 3003 3200 
Q 3003 3519 2839 3656 
Q 2675 3794 2297 3794 
L 1791 3794 
L 1791 2597 
L 2297 2597 
z
M 1791 1766 
L 1791 0 
L 588 0 
L 588 4666 
L 2425 4666 
Q 3347 4666 3776 4356 
Q 4206 4047 4206 3378 
Q 4206 2916 3982 2619 
Q 3759 2322 3309 2181 
Q 3556 2125 3751 1926 
Q 3947 1728 4147 1325 
L 4800 0 
L 3519 0 
L 2950 1159 
Q 2778 1509 2601 1637 
Q 2425 1766 2131 1766 
L 1791 1766 
z
" transform="scale(0.015625)"/>
       <path id="DejaVuSans-Bold-65" d="M 4031 1759 
L 4031 1441 
L 1416 1441 
Q 1456 1047 1700 850 
Q 1944 653 2381 653 
Q 2734 653 3104 758 
Q 3475 863 3866 1075 
L 3866 213 
Q 3469 63 3072 -14 
Q 2675 -91 2278 -91 
Q 1328 -91 801 392 
Q 275 875 275 1747 
Q 275 2603 792 3093 
Q 1309 3584 2216 3584 
Q 3041 3584 3536 3087 
Q 4031 2591 4031 1759 
z
M 2881 2131 
Q 2881 2450 2695 2645 
Q 2509 2841 2209 2841 
Q 1884 2841 1681 2658 
Q 1478 2475 1428 2131 
L 2881 2131 
z
" transform="scale(0.015625)"/>
       <path id="DejaVuSans-Bold-6c" d="M 538 4863 
L 1656 4863 
L 1656 0 
L 538 0 
L 538 4863 
z
" transform="scale(0.015625)"/>
       <path id="DejaVuSans-Bold-74" d="M 1759 4494 
L 1759 3500 
L 2913 3500 
L 2913 2700 
L 1759 2700 
L 1759 1216 
Q 1759 972 1856 886 
Q 1953 800 2241 800 
L 2816 800 
L 2816 0 
L 1856 0 
Q 1194 0 917 276 
Q 641 553 641 1216 
L 641 2700 
L 84 2700 
L 84 3500 
L 641 3500 
L 641 4494 
L 1759 4494 
z
" transform="scale(0.015625)"/>
       <path id="DejaVuSans-Bold-64" d="M 2919 2988 
L 2919 4863 
L 4044 4863 
L 4044 0 
L 2919 0 
L 2919 506 
Q 2688 197 2409 53 
Q 2131 -91 1766 -91 
Q 1119 -91 703 423 
Q 288 938 288 1747 
Q 288 2556 703 3070 
Q 1119 3584 1766 3584 
Q 2128 3584 2408 3439 
Q 2688 3294 2919 2988 
z
M 2181 722 
Q 2541 722 2730 984 
Q 2919 1247 2919 1747 
Q 2919 2247 2730 2509 
Q 2541 2772 2181 2772 
Q 1825 2772 1636 2509 
Q 1447 2247 1447 1747 
Q 1447 1247 1636 984 
Q 1825 722 2181 722 
z
" transform="scale(0.015625)"/>
       <path id="DejaVuSans-Bold-6e" d="M 4056 2131 
L 4056 0 
L 2931 0 
L 2931 347 
L 2931 1631 
Q 2931 2084 2911 2256 
Q 2891 2428 2841 2509 
Q 2775 2619 2662 2680 
Q 2550 2741 2406 2741 
Q 2056 2741 1856 2470 
Q 1656 2200 1656 1722 
L 1656 0 
L 538 0 
L 538 3500 
L 1656 3500 
L 1656 2988 
Q 1909 3294 2193 3439 
Q 2478 3584 2822 3584 
Q 3428 3584 3742 3212 
Q 4056 2841 4056 2131 
z
" transform="scale(0.015625)"/>
      </defs>
      <use xlink:href="#DejaVuSans-Bold-54"/>
      <use xlink:href="#DejaVuSans-Bold-61" transform="translate(55.337891 0)"/>
      <use xlink:href="#DejaVuSans-Bold-73" transform="translate(122.818359 0)"/>
      <use xlink:href="#DejaVuSans-Bold-6b" transform="translate(182.339844 0)"/>
      <use xlink:href="#DejaVuSans-Bold-20" transform="translate(248.84375 0)"/>
      <use xlink:href="#DejaVuSans-Bold-52" transform="translate(283.658203 0)"/>
      <use xlink:href="#DejaVuSans-Bold-65" transform="translate(360.660156 0)"/>
      <use xlink:href="#DejaVuSans-Bold-6c" transform="translate(428.482422 0)"/>
      <use xlink:href="#DejaVuSans-Bold-61" transform="translate(462.759766 0)"/>
      <use xlink:href="#DejaVuSans-Bold-74" transform="translate(530.240234 0)"/>
      <use xlink:href="#DejaVuSans-Bold-65" transform="translate(578.042969 0)"/>
      <use xlink:href="#DejaVuSans-Bold-64" transform="translate(645.865234 0)"/>
      <use xlink:href="#DejaVuSans-Bold-6e" transform="translate(717.447266 0)"/>
      <use xlink:href="#DejaVuSans-Bold-65" transform="translate(788.638672 0)"/>
      <use xlink:href="#DejaVuSans-Bold-73" transform="translate(856.460938 0)"/>
      <use xlink:href="#DejaVuSans-Bold-73" transform="translate(915.982422 0)"/>
     </g>
    </g>
   </g>
   <g id="matplotlib.axis_2">
    <g id="ytick_1">
     <g id="line2d_7">
      <defs>
       <path id="mbae2f34f7b" d="M 0 0 
L -3.5 0 
" style="stroke: #000000; stroke-width: 0.8"/>
      </defs>
      <g>
       <use xlink:href="#mbae2f34f7b" x="43.78125" y="238.009097" style="stroke: #000000; stroke-width: 0.8"/>
      </g>
     </g>
     <g id="text_8">
      <!-- 0.0 -->
      <g transform="translate(20.878125 241.808316) scale(0.1 -0.1)">
       <use xlink:href="#DejaVuSans-30"/>
       <use xlink:href="#DejaVuSans-2e" transform="translate(63.623047 0)"/>
       <use xlink:href="#DejaVuSans-30" transform="translate(95.410156 0)"/>
      </g>
     </g>
    </g>
    <g id="ytick_2">
     <g id="line2d_8">
      <g>
       <use xlink:href="#mbae2f34f7b" x="43.78125" y="197.219766" style="stroke: #000000; stroke-width: 0.8"/>
      </g>
     </g>
     <g id="text_9">
      <!-- 0.2 -->
      <g transform="translate(20.878125 201.018984) scale(0.1 -0.1)">
       <use xlink:href="#DejaVuSans-30"/>
       <use xlink:href="#DejaVuSans-2e" transform="translate(63.623047 0)"/>
       <use xlink:href="#DejaVuSans-32" transform="translate(95.410156 0)"/>
      </g>
     </g>
    </g>
    <g id="ytick_3">
     <g id="line2d_9">
      <g>
       <use xlink:href="#mbae2f34f7b" x="43.78125" y="156.430434" style="stroke: #000000; stroke-width: 0.8"/>
      </g>
     </g>
     <g id="text_10">
      <!-- 0.4 -->
      <g transform="translate(20.878125 160.229653) scale(0.1 -0.1)">
       <use xlink:href="#DejaVuSans-30"/>
       <use xlink:href="#DejaVuSans-2e" transform="translate(63.623047 0)"/>
       <use xlink:href="#DejaVuSans-34" transform="translate(95.410156 0)"/>
      </g>
     </g>
    </g>
    <g id="ytick_4">
     <g id="line2d_10">
      <g>
       <use xlink:href="#mbae2f34f7b" x="43.78125" y="115.641103" style="stroke: #000000; stroke-width: 0.8"/>
      </g>
     </g>
     <g id="text_11">
      <!-- 0.6 -->
      <g transform="translate(20.878125 119.440322) scale(0.1 -0.1)">
       <use xlink:href="#DejaVuSans-30"/>
       <use xlink:href="#DejaVuSans-2e" transform="translate(63.623047 0)"/>
       <use xlink:href="#DejaVuSans-36" transform="translate(95.410156 0)"/>
      </g>
     </g>
    </g>
    <g id="ytick_5">
     <g id="line2d_11">
      <g>
       <use xlink:href="#mbae2f34f7b" x="43.78125" y="74.851772" style="stroke: #000000; stroke-width: 0.8"/>
      </g>
     </g>
     <g id="text_12">
      <!-- 0.8 -->
      <g transform="translate(20.878125 78.650991) scale(0.1 -0.1)">
       <use xlink:href="#DejaVuSans-30"/>
       <use xlink:href="#DejaVuSans-2e" transform="translate(63.623047 0)"/>
       <use xlink:href="#DejaVuSans-38" transform="translate(95.410156 0)"/>
      </g>
     </g>
    </g>
    <g id="ytick_6">
     <g id="line2d_12">
      <g>
       <use xlink:href="#mbae2f34f7b" x="43.78125" y="34.062441" style="stroke: #000000; stroke-width: 0.8"/>
      </g>
     </g>
     <g id="text_13">
      <!-- 1.0 -->
      <g transform="translate(20.878125 37.86166) scale(0.1 -0.1)">
       <use xlink:href="#DejaVuSans-31"/>
       <use xlink:href="#DejaVuSans-2e" transform="translate(63.623047 0)"/>
       <use xlink:href="#DejaVuSans-30" transform="translate(95.410156 0)"/>
      </g>
     </g>
    </g>
    <g id="text_14">
     <!-- Transfer Performance -->
     <g transform="translate(14.798438 193.44375) rotate(-90) scale(0.1 -0.1)">
      <defs>
       <path id="DejaVuSans-Bold-72" d="M 3138 2547 
Q 2991 2616 2845 2648 
Q 2700 2681 2553 2681 
Q 2122 2681 1889 2404 
Q 1656 2128 1656 1613 
L 1656 0 
L 538 0 
L 538 3500 
L 1656 3500 
L 1656 2925 
Q 1872 3269 2151 3426 
Q 2431 3584 2822 3584 
Q 2878 3584 2943 3579 
Q 3009 3575 3134 3559 
L 3138 2547 
z
" transform="scale(0.015625)"/>
       <path id="DejaVuSans-Bold-66" d="M 2841 4863 
L 2841 4128 
L 2222 4128 
Q 1984 4128 1890 4042 
Q 1797 3956 1797 3744 
L 1797 3500 
L 2753 3500 
L 2753 2700 
L 1797 2700 
L 1797 0 
L 678 0 
L 678 2700 
L 122 2700 
L 122 3500 
L 678 3500 
L 678 3744 
Q 678 4316 997 4589 
Q 1316 4863 1984 4863 
L 2841 4863 
z
" transform="scale(0.015625)"/>
       <path id="DejaVuSans-Bold-50" d="M 588 4666 
L 2584 4666 
Q 3475 4666 3951 4270 
Q 4428 3875 4428 3144 
Q 4428 2409 3951 2014 
Q 3475 1619 2584 1619 
L 1791 1619 
L 1791 0 
L 588 0 
L 588 4666 
z
M 1791 3794 
L 1791 2491 
L 2456 2491 
Q 2806 2491 2997 2661 
Q 3188 2831 3188 3144 
Q 3188 3456 2997 3625 
Q 2806 3794 2456 3794 
L 1791 3794 
z
" transform="scale(0.015625)"/>
       <path id="DejaVuSans-Bold-6f" d="M 2203 2784 
Q 1831 2784 1636 2517 
Q 1441 2250 1441 1747 
Q 1441 1244 1636 976 
Q 1831 709 2203 709 
Q 2569 709 2762 976 
Q 2956 1244 2956 1747 
Q 2956 2250 2762 2517 
Q 2569 2784 2203 2784 
z
M 2203 3584 
Q 3106 3584 3614 3096 
Q 4122 2609 4122 1747 
Q 4122 884 3614 396 
Q 3106 -91 2203 -91 
Q 1297 -91 786 396 
Q 275 884 275 1747 
Q 275 2609 786 3096 
Q 1297 3584 2203 3584 
z
" transform="scale(0.015625)"/>
       <path id="DejaVuSans-Bold-6d" d="M 3781 2919 
Q 3994 3244 4286 3414 
Q 4578 3584 4928 3584 
Q 5531 3584 5847 3212 
Q 6163 2841 6163 2131 
L 6163 0 
L 5038 0 
L 5038 1825 
Q 5041 1866 5042 1909 
Q 5044 1953 5044 2034 
Q 5044 2406 4934 2573 
Q 4825 2741 4581 2741 
Q 4263 2741 4089 2478 
Q 3916 2216 3909 1719 
L 3909 0 
L 2784 0 
L 2784 1825 
Q 2784 2406 2684 2573 
Q 2584 2741 2328 2741 
Q 2006 2741 1831 2477 
Q 1656 2213 1656 1722 
L 1656 0 
L 531 0 
L 531 3500 
L 1656 3500 
L 1656 2988 
Q 1863 3284 2130 3434 
Q 2397 3584 2719 3584 
Q 3081 3584 3359 3409 
Q 3638 3234 3781 2919 
z
" transform="scale(0.015625)"/>
       <path id="DejaVuSans-Bold-63" d="M 3366 3391 
L 3366 2478 
Q 3138 2634 2908 2709 
Q 2678 2784 2431 2784 
Q 1963 2784 1702 2511 
Q 1441 2238 1441 1747 
Q 1441 1256 1702 982 
Q 1963 709 2431 709 
Q 2694 709 2930 787 
Q 3166 866 3366 1019 
L 3366 103 
Q 3103 6 2833 -42 
Q 2563 -91 2291 -91 
Q 1344 -91 809 395 
Q 275 881 275 1747 
Q 275 2613 809 3098 
Q 1344 3584 2291 3584 
Q 2566 3584 2833 3536 
Q 3100 3488 3366 3391 
z
" transform="scale(0.015625)"/>
      </defs>
      <use xlink:href="#DejaVuSans-Bold-54"/>
      <use xlink:href="#DejaVuSans-Bold-72" transform="translate(57.212891 0)"/>
      <use xlink:href="#DejaVuSans-Bold-61" transform="translate(106.529297 0)"/>
      <use xlink:href="#DejaVuSans-Bold-6e" transform="translate(174.009766 0)"/>
      <use xlink:href="#DejaVuSans-Bold-73" transform="translate(245.201172 0)"/>
      <use xlink:href="#DejaVuSans-Bold-66" transform="translate(304.722656 0)"/>
      <use xlink:href="#DejaVuSans-Bold-65" transform="translate(348.228516 0)"/>
      <use xlink:href="#DejaVuSans-Bold-72" transform="translate(416.050781 0)"/>
      <use xlink:href="#DejaVuSans-Bold-20" transform="translate(465.367188 0)"/>
      <use xlink:href="#DejaVuSans-Bold-50" transform="translate(500.181641 0)"/>
      <use xlink:href="#DejaVuSans-Bold-65" transform="translate(573.472656 0)"/>
      <use xlink:href="#DejaVuSans-Bold-72" transform="translate(641.294922 0)"/>
      <use xlink:href="#DejaVuSans-Bold-66" transform="translate(690.611328 0)"/>
      <use xlink:href="#DejaVuSans-Bold-6f" transform="translate(734.117188 0)"/>
      <use xlink:href="#DejaVuSans-Bold-72" transform="translate(802.818359 0)"/>
      <use xlink:href="#DejaVuSans-Bold-6d" transform="translate(852.134766 0)"/>
      <use xlink:href="#DejaVuSans-Bold-61" transform="translate(956.333984 0)"/>
      <use xlink:href="#DejaVuSans-Bold-6e" transform="translate(1023.814453 0)"/>
      <use xlink:href="#DejaVuSans-Bold-63" transform="translate(1095.005859 0)"/>
      <use xlink:href="#DejaVuSans-Bold-65" transform="translate(1154.283203 0)"/>
     </g>
    </g>
   </g>
   <g id="line2d_13">
    <path d="M 57.50125 166.694781 
L 60.272967 178.614921 
L 63.044684 161.555642 
L 65.816402 142.673315 
L 68.588119 177.480445 
L 71.359836 176.450077 
L 74.131553 138.437381 
L 76.90327 153.96329 
L 79.674987 178.159604 
L 82.446705 156.489467 
L 85.218422 175.976013 
L 87.990139 174.993133 
L 90.761856 159.529957 
L 93.533573 202.455374 
L 96.30529 197.583752 
L 99.077008 172.842262 
L 101.848725 181.000914 
L 104.620442 152.905559 
L 107.392159 176.803342 
L 110.163876 186.057923 
L 112.935593 126.333011 
L 115.707311 159.799026 
L 118.479028 152.787145 
L 121.250745 182.19159 
L 124.022462 163.206797 
L 126.794179 148.812031 
L 129.565896 173.518355 
L 132.337614 141.351957 
L 135.109331 160.233984 
L 137.881048 152.903122 
L 140.652765 158.195697 
L 143.424482 107.117464 
L 146.196199 144.139296 
L 148.967917 164.405651 
L 151.739634 125.028429 
L 154.511351 165.672621 
L 157.283068 135.484187 
L 160.054785 178.680673 
L 162.826503 164.771733 
L 165.59822 132.63887 
L 168.369937 120.562976 
L 171.141654 131.098723 
L 173.913371 135.922296 
L 176.685088 138.674564 
L 179.456806 161.657582 
L 182.228523 145.154569 
L 185.00024 138.838127 
L 187.771957 106.853866 
L 190.543674 120.375506 
L 193.315391 162.310067 
L 196.087109 118.713835 
L 198.858826 132.14701 
L 201.630543 137.06895 
L 204.40226 109.758385 
L 207.173977 100.176394 
L 209.945694 101.180105 
L 212.717412 136.258778 
L 215.489129 124.419467 
L 218.260846 110.327143 
L 221.032563 96.1572 
L 223.80428 124.795681 
L 226.575997 117.779502 
L 229.347715 135.526348 
L 232.119432 136.329216 
L 234.891149 94.331756 
L 237.662866 82.212853 
L 240.434583 110.311504 
L 243.206301 87.34613 
L 245.978018 99.407368 
L 248.749735 118.909782 
L 251.521452 97.352204 
L 254.293169 72.324972 
L 257.064886 103.39334 
L 259.836604 69.722262 
L 262.608321 154.031438 
L 265.380038 82.810152 
L 268.151755 96.767249 
L 270.923472 103.610667 
L 273.695189 94.611048 
L 276.466907 135.988248 
L 279.238624 98.902545 
L 282.010341 86.109186 
L 284.782058 62.221189 
L 287.553775 101.902258 
L 290.325492 106.791233 
L 293.09721 99.50541 
L 295.868927 69.572889 
L 298.640644 80.507407 
L 301.412361 96.986424 
L 304.184078 74.684191 
L 306.955795 82.14221 
L 309.727513 63.33685 
L 312.49923 96.380145 
L 315.270947 87.714534 
L 318.042664 87.998855 
L 320.814381 108.819804 
L 323.586098 71.902599 
L 326.357816 71.587704 
L 329.129533 75.777518 
L 331.90125 79.636098 
" clip-path="url(#pc708a9d041)" style="fill: none; stroke: #1f77b4; stroke-opacity: 0.5; stroke-width: 1.5; stroke-linecap: square"/>
    <defs>
     <path id="m290b3983ca" d="M 0 1.5 
C 0.397805 1.5 0.77937 1.341951 1.06066 1.06066 
C 1.341951 0.77937 1.5 0.397805 1.5 0 
C 1.5 -0.397805 1.341951 -0.77937 1.06066 -1.06066 
C 0.77937 -1.341951 0.397805 -1.5 0 -1.5 
C -0.397805 -1.5 -0.77937 -1.341951 -1.06066 -1.06066 
C -1.341951 -0.77937 -1.5 -0.397805 -1.5 0 
C -1.5 0.397805 -1.341951 0.77937 -1.06066 1.06066 
C -0.77937 1.341951 -0.397805 1.5 0 1.5 
z
" style="stroke: #1f77b4; stroke-opacity: 0.5"/>
    </defs>
    <g clip-path="url(#pc708a9d041)">
     <use xlink:href="#m290b3983ca" x="57.50125" y="166.694781" style="fill: #1f77b4; fill-opacity: 0.5; stroke: #1f77b4; stroke-opacity: 0.5"/>
     <use xlink:href="#m290b3983ca" x="60.272967" y="178.614921" style="fill: #1f77b4; fill-opacity: 0.5; stroke: #1f77b4; stroke-opacity: 0.5"/>
     <use xlink:href="#m290b3983ca" x="63.044684" y="161.555642" style="fill: #1f77b4; fill-opacity: 0.5; stroke: #1f77b4; stroke-opacity: 0.5"/>
     <use xlink:href="#m290b3983ca" x="65.816402" y="142.673315" style="fill: #1f77b4; fill-opacity: 0.5; stroke: #1f77b4; stroke-opacity: 0.5"/>
     <use xlink:href="#m290b3983ca" x="68.588119" y="177.480445" style="fill: #1f77b4; fill-opacity: 0.5; stroke: #1f77b4; stroke-opacity: 0.5"/>
     <use xlink:href="#m290b3983ca" x="71.359836" y="176.450077" style="fill: #1f77b4; fill-opacity: 0.5; stroke: #1f77b4; stroke-opacity: 0.5"/>
     <use xlink:href="#m290b3983ca" x="74.131553" y="138.437381" style="fill: #1f77b4; fill-opacity: 0.5; stroke: #1f77b4; stroke-opacity: 0.5"/>
     <use xlink:href="#m290b3983ca" x="76.90327" y="153.96329" style="fill: #1f77b4; fill-opacity: 0.5; stroke: #1f77b4; stroke-opacity: 0.5"/>
     <use xlink:href="#m290b3983ca" x="79.674987" y="178.159604" style="fill: #1f77b4; fill-opacity: 0.5; stroke: #1f77b4; stroke-opacity: 0.5"/>
     <use xlink:href="#m290b3983ca" x="82.446705" y="156.489467" style="fill: #1f77b4; fill-opacity: 0.5; stroke: #1f77b4; stroke-opacity: 0.5"/>
     <use xlink:href="#m290b3983ca" x="85.218422" y="175.976013" style="fill: #1f77b4; fill-opacity: 0.5; stroke: #1f77b4; stroke-opacity: 0.5"/>
     <use xlink:href="#m290b3983ca" x="87.990139" y="174.993133" style="fill: #1f77b4; fill-opacity: 0.5; stroke: #1f77b4; stroke-opacity: 0.5"/>
     <use xlink:href="#m290b3983ca" x="90.761856" y="159.529957" style="fill: #1f77b4; fill-opacity: 0.5; stroke: #1f77b4; stroke-opacity: 0.5"/>
     <use xlink:href="#m290b3983ca" x="93.533573" y="202.455374" style="fill: #1f77b4; fill-opacity: 0.5; stroke: #1f77b4; stroke-opacity: 0.5"/>
     <use xlink:href="#m290b3983ca" x="96.30529" y="197.583752" style="fill: #1f77b4; fill-opacity: 0.5; stroke: #1f77b4; stroke-opacity: 0.5"/>
     <use xlink:href="#m290b3983ca" x="99.077008" y="172.842262" style="fill: #1f77b4; fill-opacity: 0.5; stroke: #1f77b4; stroke-opacity: 0.5"/>
     <use xlink:href="#m290b3983ca" x="101.848725" y="181.000914" style="fill: #1f77b4; fill-opacity: 0.5; stroke: #1f77b4; stroke-opacity: 0.5"/>
     <use xlink:href="#m290b3983ca" x="104.620442" y="152.905559" style="fill: #1f77b4; fill-opacity: 0.5; stroke: #1f77b4; stroke-opacity: 0.5"/>
     <use xlink:href="#m290b3983ca" x="107.392159" y="176.803342" style="fill: #1f77b4; fill-opacity: 0.5; stroke: #1f77b4; stroke-opacity: 0.5"/>
     <use xlink:href="#m290b3983ca" x="110.163876" y="186.057923" style="fill: #1f77b4; fill-opacity: 0.5; stroke: #1f77b4; stroke-opacity: 0.5"/>
     <use xlink:href="#m290b3983ca" x="112.935593" y="126.333011" style="fill: #1f77b4; fill-opacity: 0.5; stroke: #1f77b4; stroke-opacity: 0.5"/>
     <use xlink:href="#m290b3983ca" x="115.707311" y="159.799026" style="fill: #1f77b4; fill-opacity: 0.5; stroke: #1f77b4; stroke-opacity: 0.5"/>
     <use xlink:href="#m290b3983ca" x="118.479028" y="152.787145" style="fill: #1f77b4; fill-opacity: 0.5; stroke: #1f77b4; stroke-opacity: 0.5"/>
     <use xlink:href="#m290b3983ca" x="121.250745" y="182.19159" style="fill: #1f77b4; fill-opacity: 0.5; stroke: #1f77b4; stroke-opacity: 0.5"/>
     <use xlink:href="#m290b3983ca" x="124.022462" y="163.206797" style="fill: #1f77b4; fill-opacity: 0.5; stroke: #1f77b4; stroke-opacity: 0.5"/>
     <use xlink:href="#m290b3983ca" x="126.794179" y="148.812031" style="fill: #1f77b4; fill-opacity: 0.5; stroke: #1f77b4; stroke-opacity: 0.5"/>
     <use xlink:href="#m290b3983ca" x="129.565896" y="173.518355" style="fill: #1f77b4; fill-opacity: 0.5; stroke: #1f77b4; stroke-opacity: 0.5"/>
     <use xlink:href="#m290b3983ca" x="132.337614" y="141.351957" style="fill: #1f77b4; fill-opacity: 0.5; stroke: #1f77b4; stroke-opacity: 0.5"/>
     <use xlink:href="#m290b3983ca" x="135.109331" y="160.233984" style="fill: #1f77b4; fill-opacity: 0.5; stroke: #1f77b4; stroke-opacity: 0.5"/>
     <use xlink:href="#m290b3983ca" x="137.881048" y="152.903122" style="fill: #1f77b4; fill-opacity: 0.5; stroke: #1f77b4; stroke-opacity: 0.5"/>
     <use xlink:href="#m290b3983ca" x="140.652765" y="158.195697" style="fill: #1f77b4; fill-opacity: 0.5; stroke: #1f77b4; stroke-opacity: 0.5"/>
     <use xlink:href="#m290b3983ca" x="143.424482" y="107.117464" style="fill: #1f77b4; fill-opacity: 0.5; stroke: #1f77b4; stroke-opacity: 0.5"/>
     <use xlink:href="#m290b3983ca" x="146.196199" y="144.139296" style="fill: #1f77b4; fill-opacity: 0.5; stroke: #1f77b4; stroke-opacity: 0.5"/>
     <use xlink:href="#m290b3983ca" x="148.967917" y="164.405651" style="fill: #1f77b4; fill-opacity: 0.5; stroke: #1f77b4; stroke-opacity: 0.5"/>
     <use xlink:href="#m290b3983ca" x="151.739634" y="125.028429" style="fill: #1f77b4; fill-opacity: 0.5; stroke: #1f77b4; stroke-opacity: 0.5"/>
     <use xlink:href="#m290b3983ca" x="154.511351" y="165.672621" style="fill: #1f77b4; fill-opacity: 0.5; stroke: #1f77b4; stroke-opacity: 0.5"/>
     <use xlink:href="#m290b3983ca" x="157.283068" y="135.484187" style="fill: #1f77b4; fill-opacity: 0.5; stroke: #1f77b4; stroke-opacity: 0.5"/>
     <use xlink:href="#m290b3983ca" x="160.054785" y="178.680673" style="fill: #1f77b4; fill-opacity: 0.5; stroke: #1f77b4; stroke-opacity: 0.5"/>
     <use xlink:href="#m290b3983ca" x="162.826503" y="164.771733" style="fill: #1f77b4; fill-opacity: 0.5; stroke: #1f77b4; stroke-opacity: 0.5"/>
     <use xlink:href="#m290b3983ca" x="165.59822" y="132.63887" style="fill: #1f77b4; fill-opacity: 0.5; stroke: #1f77b4; stroke-opacity: 0.5"/>
     <use xlink:href="#m290b3983ca" x="168.369937" y="120.562976" style="fill: #1f77b4; fill-opacity: 0.5; stroke: #1f77b4; stroke-opacity: 0.5"/>
     <use xlink:href="#m290b3983ca" x="171.141654" y="131.098723" style="fill: #1f77b4; fill-opacity: 0.5; stroke: #1f77b4; stroke-opacity: 0.5"/>
     <use xlink:href="#m290b3983ca" x="173.913371" y="135.922296" style="fill: #1f77b4; fill-opacity: 0.5; stroke: #1f77b4; stroke-opacity: 0.5"/>
     <use xlink:href="#m290b3983ca" x="176.685088" y="138.674564" style="fill: #1f77b4; fill-opacity: 0.5; stroke: #1f77b4; stroke-opacity: 0.5"/>
     <use xlink:href="#m290b3983ca" x="179.456806" y="161.657582" style="fill: #1f77b4; fill-opacity: 0.5; stroke: #1f77b4; stroke-opacity: 0.5"/>
     <use xlink:href="#m290b3983ca" x="182.228523" y="145.154569" style="fill: #1f77b4; fill-opacity: 0.5; stroke: #1f77b4; stroke-opacity: 0.5"/>
     <use xlink:href="#m290b3983ca" x="185.00024" y="138.838127" style="fill: #1f77b4; fill-opacity: 0.5; stroke: #1f77b4; stroke-opacity: 0.5"/>
     <use xlink:href="#m290b3983ca" x="187.771957" y="106.853866" style="fill: #1f77b4; fill-opacity: 0.5; stroke: #1f77b4; stroke-opacity: 0.5"/>
     <use xlink:href="#m290b3983ca" x="190.543674" y="120.375506" style="fill: #1f77b4; fill-opacity: 0.5; stroke: #1f77b4; stroke-opacity: 0.5"/>
     <use xlink:href="#m290b3983ca" x="193.315391" y="162.310067" style="fill: #1f77b4; fill-opacity: 0.5; stroke: #1f77b4; stroke-opacity: 0.5"/>
     <use xlink:href="#m290b3983ca" x="196.087109" y="118.713835" style="fill: #1f77b4; fill-opacity: 0.5; stroke: #1f77b4; stroke-opacity: 0.5"/>
     <use xlink:href="#m290b3983ca" x="198.858826" y="132.14701" style="fill: #1f77b4; fill-opacity: 0.5; stroke: #1f77b4; stroke-opacity: 0.5"/>
     <use xlink:href="#m290b3983ca" x="201.630543" y="137.06895" style="fill: #1f77b4; fill-opacity: 0.5; stroke: #1f77b4; stroke-opacity: 0.5"/>
     <use xlink:href="#m290b3983ca" x="204.40226" y="109.758385" style="fill: #1f77b4; fill-opacity: 0.5; stroke: #1f77b4; stroke-opacity: 0.5"/>
     <use xlink:href="#m290b3983ca" x="207.173977" y="100.176394" style="fill: #1f77b4; fill-opacity: 0.5; stroke: #1f77b4; stroke-opacity: 0.5"/>
     <use xlink:href="#m290b3983ca" x="209.945694" y="101.180105" style="fill: #1f77b4; fill-opacity: 0.5; stroke: #1f77b4; stroke-opacity: 0.5"/>
     <use xlink:href="#m290b3983ca" x="212.717412" y="136.258778" style="fill: #1f77b4; fill-opacity: 0.5; stroke: #1f77b4; stroke-opacity: 0.5"/>
     <use xlink:href="#m290b3983ca" x="215.489129" y="124.419467" style="fill: #1f77b4; fill-opacity: 0.5; stroke: #1f77b4; stroke-opacity: 0.5"/>
     <use xlink:href="#m290b3983ca" x="218.260846" y="110.327143" style="fill: #1f77b4; fill-opacity: 0.5; stroke: #1f77b4; stroke-opacity: 0.5"/>
     <use xlink:href="#m290b3983ca" x="221.032563" y="96.1572" style="fill: #1f77b4; fill-opacity: 0.5; stroke: #1f77b4; stroke-opacity: 0.5"/>
     <use xlink:href="#m290b3983ca" x="223.80428" y="124.795681" style="fill: #1f77b4; fill-opacity: 0.5; stroke: #1f77b4; stroke-opacity: 0.5"/>
     <use xlink:href="#m290b3983ca" x="226.575997" y="117.779502" style="fill: #1f77b4; fill-opacity: 0.5; stroke: #1f77b4; stroke-opacity: 0.5"/>
     <use xlink:href="#m290b3983ca" x="229.347715" y="135.526348" style="fill: #1f77b4; fill-opacity: 0.5; stroke: #1f77b4; stroke-opacity: 0.5"/>
     <use xlink:href="#m290b3983ca" x="232.119432" y="136.329216" style="fill: #1f77b4; fill-opacity: 0.5; stroke: #1f77b4; stroke-opacity: 0.5"/>
     <use xlink:href="#m290b3983ca" x="234.891149" y="94.331756" style="fill: #1f77b4; fill-opacity: 0.5; stroke: #1f77b4; stroke-opacity: 0.5"/>
     <use xlink:href="#m290b3983ca" x="237.662866" y="82.212853" style="fill: #1f77b4; fill-opacity: 0.5; stroke: #1f77b4; stroke-opacity: 0.5"/>
     <use xlink:href="#m290b3983ca" x="240.434583" y="110.311504" style="fill: #1f77b4; fill-opacity: 0.5; stroke: #1f77b4; stroke-opacity: 0.5"/>
     <use xlink:href="#m290b3983ca" x="243.206301" y="87.34613" style="fill: #1f77b4; fill-opacity: 0.5; stroke: #1f77b4; stroke-opacity: 0.5"/>
     <use xlink:href="#m290b3983ca" x="245.978018" y="99.407368" style="fill: #1f77b4; fill-opacity: 0.5; stroke: #1f77b4; stroke-opacity: 0.5"/>
     <use xlink:href="#m290b3983ca" x="248.749735" y="118.909782" style="fill: #1f77b4; fill-opacity: 0.5; stroke: #1f77b4; stroke-opacity: 0.5"/>
     <use xlink:href="#m290b3983ca" x="251.521452" y="97.352204" style="fill: #1f77b4; fill-opacity: 0.5; stroke: #1f77b4; stroke-opacity: 0.5"/>
     <use xlink:href="#m290b3983ca" x="254.293169" y="72.324972" style="fill: #1f77b4; fill-opacity: 0.5; stroke: #1f77b4; stroke-opacity: 0.5"/>
     <use xlink:href="#m290b3983ca" x="257.064886" y="103.39334" style="fill: #1f77b4; fill-opacity: 0.5; stroke: #1f77b4; stroke-opacity: 0.5"/>
     <use xlink:href="#m290b3983ca" x="259.836604" y="69.722262" style="fill: #1f77b4; fill-opacity: 0.5; stroke: #1f77b4; stroke-opacity: 0.5"/>
     <use xlink:href="#m290b3983ca" x="262.608321" y="154.031438" style="fill: #1f77b4; fill-opacity: 0.5; stroke: #1f77b4; stroke-opacity: 0.5"/>
     <use xlink:href="#m290b3983ca" x="265.380038" y="82.810152" style="fill: #1f77b4; fill-opacity: 0.5; stroke: #1f77b4; stroke-opacity: 0.5"/>
     <use xlink:href="#m290b3983ca" x="268.151755" y="96.767249" style="fill: #1f77b4; fill-opacity: 0.5; stroke: #1f77b4; stroke-opacity: 0.5"/>
     <use xlink:href="#m290b3983ca" x="270.923472" y="103.610667" style="fill: #1f77b4; fill-opacity: 0.5; stroke: #1f77b4; stroke-opacity: 0.5"/>
     <use xlink:href="#m290b3983ca" x="273.695189" y="94.611048" style="fill: #1f77b4; fill-opacity: 0.5; stroke: #1f77b4; stroke-opacity: 0.5"/>
     <use xlink:href="#m290b3983ca" x="276.466907" y="135.988248" style="fill: #1f77b4; fill-opacity: 0.5; stroke: #1f77b4; stroke-opacity: 0.5"/>
     <use xlink:href="#m290b3983ca" x="279.238624" y="98.902545" style="fill: #1f77b4; fill-opacity: 0.5; stroke: #1f77b4; stroke-opacity: 0.5"/>
     <use xlink:href="#m290b3983ca" x="282.010341" y="86.109186" style="fill: #1f77b4; fill-opacity: 0.5; stroke: #1f77b4; stroke-opacity: 0.5"/>
     <use xlink:href="#m290b3983ca" x="284.782058" y="62.221189" style="fill: #1f77b4; fill-opacity: 0.5; stroke: #1f77b4; stroke-opacity: 0.5"/>
     <use xlink:href="#m290b3983ca" x="287.553775" y="101.902258" style="fill: #1f77b4; fill-opacity: 0.5; stroke: #1f77b4; stroke-opacity: 0.5"/>
     <use xlink:href="#m290b3983ca" x="290.325492" y="106.791233" style="fill: #1f77b4; fill-opacity: 0.5; stroke: #1f77b4; stroke-opacity: 0.5"/>
     <use xlink:href="#m290b3983ca" x="293.09721" y="99.50541" style="fill: #1f77b4; fill-opacity: 0.5; stroke: #1f77b4; stroke-opacity: 0.5"/>
     <use xlink:href="#m290b3983ca" x="295.868927" y="69.572889" style="fill: #1f77b4; fill-opacity: 0.5; stroke: #1f77b4; stroke-opacity: 0.5"/>
     <use xlink:href="#m290b3983ca" x="298.640644" y="80.507407" style="fill: #1f77b4; fill-opacity: 0.5; stroke: #1f77b4; stroke-opacity: 0.5"/>
     <use xlink:href="#m290b3983ca" x="301.412361" y="96.986424" style="fill: #1f77b4; fill-opacity: 0.5; stroke: #1f77b4; stroke-opacity: 0.5"/>
     <use xlink:href="#m290b3983ca" x="304.184078" y="74.684191" style="fill: #1f77b4; fill-opacity: 0.5; stroke: #1f77b4; stroke-opacity: 0.5"/>
     <use xlink:href="#m290b3983ca" x="306.955795" y="82.14221" style="fill: #1f77b4; fill-opacity: 0.5; stroke: #1f77b4; stroke-opacity: 0.5"/>
     <use xlink:href="#m290b3983ca" x="309.727513" y="63.33685" style="fill: #1f77b4; fill-opacity: 0.5; stroke: #1f77b4; stroke-opacity: 0.5"/>
     <use xlink:href="#m290b3983ca" x="312.49923" y="96.380145" style="fill: #1f77b4; fill-opacity: 0.5; stroke: #1f77b4; stroke-opacity: 0.5"/>
     <use xlink:href="#m290b3983ca" x="315.270947" y="87.714534" style="fill: #1f77b4; fill-opacity: 0.5; stroke: #1f77b4; stroke-opacity: 0.5"/>
     <use xlink:href="#m290b3983ca" x="318.042664" y="87.998855" style="fill: #1f77b4; fill-opacity: 0.5; stroke: #1f77b4; stroke-opacity: 0.5"/>
     <use xlink:href="#m290b3983ca" x="320.814381" y="108.819804" style="fill: #1f77b4; fill-opacity: 0.5; stroke: #1f77b4; stroke-opacity: 0.5"/>
     <use xlink:href="#m290b3983ca" x="323.586098" y="71.902599" style="fill: #1f77b4; fill-opacity: 0.5; stroke: #1f77b4; stroke-opacity: 0.5"/>
     <use xlink:href="#m290b3983ca" x="326.357816" y="71.587704" style="fill: #1f77b4; fill-opacity: 0.5; stroke: #1f77b4; stroke-opacity: 0.5"/>
     <use xlink:href="#m290b3983ca" x="329.129533" y="75.777518" style="fill: #1f77b4; fill-opacity: 0.5; stroke: #1f77b4; stroke-opacity: 0.5"/>
     <use xlink:href="#m290b3983ca" x="331.90125" y="79.636098" style="fill: #1f77b4; fill-opacity: 0.5; stroke: #1f77b4; stroke-opacity: 0.5"/>
    </g>
   </g>
   <g id="patch_3">
    <path d="M 43.78125 243.118281 
L 43.78125 21.558281 
" style="fill: none; stroke: #000000; stroke-width: 0.8; stroke-linejoin: miter; stroke-linecap: square"/>
   </g>
   <g id="patch_4">
    <path d="M 43.78125 243.118281 
L 345.62125 243.118281 
" style="fill: none; stroke: #000000; stroke-width: 0.8; stroke-linejoin: miter; stroke-linecap: square"/>
   </g>
   <g id="text_15">
    <g id="patch_5">
     <path d="M 149.410859 225.534 
L 239.991641 225.534 
Q 242.691641 225.534 242.691641 222.834 
L 242.691641 204.045656 
Q 242.691641 201.345656 239.991641 201.345656 
L 149.410859 201.345656 
Q 146.710859 201.345656 146.710859 204.045656 
L 146.710859 222.834 
Q 146.710859 225.534 149.410859 225.534 
z
" style="fill: #ffffff; stroke: #cccccc; stroke-linejoin: miter"/>
    </g>
    <!-- High relatedness -->
    <g transform="translate(156.602422 210.88425) scale(0.09 -0.09)">
     <defs>
      <path id="DejaVuSans-Oblique-48" d="M 1081 4666 
L 1716 4666 
L 1344 2753 
L 3634 2753 
L 4006 4666 
L 4641 4666 
L 3731 0 
L 3097 0 
L 3531 2222 
L 1241 2222 
L 806 0 
L 172 0 
L 1081 4666 
z
" transform="scale(0.015625)"/>
      <path id="DejaVuSans-Oblique-69" d="M 1172 4863 
L 1747 4863 
L 1606 4134 
L 1031 4134 
L 1172 4863 
z
M 909 3500 
L 1484 3500 
L 800 0 
L 225 0 
L 909 3500 
z
" transform="scale(0.015625)"/>
      <path id="DejaVuSans-Oblique-67" d="M 3816 3500 
L 3219 434 
Q 3047 -456 2561 -893 
Q 2075 -1331 1253 -1331 
Q 950 -1331 690 -1286 
Q 431 -1241 206 -1147 
L 313 -588 
Q 525 -725 762 -790 
Q 1000 -856 1269 -856 
Q 1816 -856 2167 -557 
Q 2519 -259 2631 300 
L 2681 563 
Q 2441 288 2122 144 
Q 1803 0 1434 0 
Q 903 0 598 351 
Q 294 703 294 1319 
Q 294 1803 478 2267 
Q 663 2731 997 3091 
Q 1219 3328 1514 3456 
Q 1809 3584 2131 3584 
Q 2484 3584 2746 3420 
Q 3009 3256 3138 2956 
L 3238 3500 
L 3816 3500 
z
M 2950 2216 
Q 2950 2641 2750 2872 
Q 2550 3103 2181 3103 
Q 1953 3103 1747 3012 
Q 1541 2922 1394 2759 
Q 1156 2491 1023 2127 
Q 891 1763 891 1375 
Q 891 944 1092 712 
Q 1294 481 1672 481 
Q 2219 481 2584 976 
Q 2950 1472 2950 2216 
z
" transform="scale(0.015625)"/>
      <path id="DejaVuSans-Oblique-68" d="M 3566 2113 
L 3156 0 
L 2578 0 
L 2988 2091 
Q 3016 2238 3031 2350 
Q 3047 2463 3047 2528 
Q 3047 2791 2881 2937 
Q 2716 3084 2419 3084 
Q 1956 3084 1617 2771 
Q 1278 2459 1178 1941 
L 800 0 
L 225 0 
L 1172 4863 
L 1747 4863 
L 1375 2950 
Q 1594 3244 1934 3414 
Q 2275 3584 2650 3584 
Q 3113 3584 3367 3334 
Q 3622 3084 3622 2631 
Q 3622 2519 3608 2391 
Q 3594 2263 3566 2113 
z
" transform="scale(0.015625)"/>
      <path id="DejaVuSans-Oblique-20" transform="scale(0.015625)"/>
      <path id="DejaVuSans-Oblique-72" d="M 2853 2969 
Q 2766 3016 2653 3041 
Q 2541 3066 2413 3066 
Q 1953 3066 1609 2717 
Q 1266 2369 1153 1784 
L 800 0 
L 225 0 
L 909 3500 
L 1484 3500 
L 1375 2956 
Q 1603 3259 1920 3421 
Q 2238 3584 2597 3584 
Q 2691 3584 2781 3573 
Q 2872 3563 2963 3538 
L 2853 2969 
z
" transform="scale(0.015625)"/>
      <path id="DejaVuSans-Oblique-65" d="M 3078 2063 
Q 3088 2113 3092 2166 
Q 3097 2219 3097 2272 
Q 3097 2653 2873 2875 
Q 2650 3097 2266 3097 
Q 1838 3097 1509 2826 
Q 1181 2556 1013 2059 
L 3078 2063 
z
M 3578 1613 
L 903 1613 
Q 884 1494 878 1425 
Q 872 1356 872 1306 
Q 872 872 1139 634 
Q 1406 397 1894 397 
Q 2269 397 2603 481 
Q 2938 566 3225 728 
L 3116 159 
Q 2806 34 2476 -28 
Q 2147 -91 1806 -91 
Q 1078 -91 686 257 
Q 294 606 294 1247 
Q 294 1794 489 2264 
Q 684 2734 1063 3103 
Q 1306 3334 1642 3459 
Q 1978 3584 2356 3584 
Q 2950 3584 3301 3228 
Q 3653 2872 3653 2272 
Q 3653 2128 3634 1964 
Q 3616 1800 3578 1613 
z
" transform="scale(0.015625)"/>
      <path id="DejaVuSans-Oblique-6c" d="M 1172 4863 
L 1747 4863 
L 800 0 
L 225 0 
L 1172 4863 
z
" transform="scale(0.015625)"/>
      <path id="DejaVuSans-Oblique-61" d="M 3438 1997 
L 3047 0 
L 2472 0 
L 2578 531 
Q 2325 219 2001 64 
Q 1678 -91 1281 -91 
Q 834 -91 548 182 
Q 263 456 263 884 
Q 263 1497 752 1853 
Q 1241 2209 2100 2209 
L 2900 2209 
L 2931 2363 
Q 2938 2388 2941 2417 
Q 2944 2447 2944 2509 
Q 2944 2788 2717 2942 
Q 2491 3097 2081 3097 
Q 1800 3097 1504 3025 
Q 1209 2953 897 2809 
L 997 3341 
Q 1322 3463 1633 3523 
Q 1944 3584 2234 3584 
Q 2853 3584 3176 3315 
Q 3500 3047 3500 2534 
Q 3500 2431 3484 2292 
Q 3469 2153 3438 1997 
z
M 2816 1759 
L 2241 1759 
Q 1534 1759 1195 1570 
Q 856 1381 856 984 
Q 856 709 1029 553 
Q 1203 397 1509 397 
Q 1978 397 2328 733 
Q 2678 1069 2791 1631 
L 2816 1759 
z
" transform="scale(0.015625)"/>
      <path id="DejaVuSans-Oblique-74" d="M 2706 3500 
L 2619 3053 
L 1472 3053 
L 1100 1153 
Q 1081 1047 1072 975 
Q 1063 903 1063 863 
Q 1063 663 1183 572 
Q 1303 481 1569 481 
L 2150 481 
L 2053 0 
L 1503 0 
Q 991 0 739 200 
Q 488 400 488 806 
Q 488 878 497 964 
Q 506 1050 525 1153 
L 897 3053 
L 409 3053 
L 500 3500 
L 978 3500 
L 1172 4494 
L 1747 4494 
L 1556 3500 
L 2706 3500 
z
" transform="scale(0.015625)"/>
      <path id="DejaVuSans-Oblique-64" d="M 2675 525 
Q 2444 222 2128 65 
Q 1813 -91 1428 -91 
Q 903 -91 598 267 
Q 294 625 294 1247 
Q 294 1766 478 2236 
Q 663 2706 1013 3078 
Q 1244 3325 1534 3454 
Q 1825 3584 2144 3584 
Q 2481 3584 2739 3421 
Q 2997 3259 3138 2956 
L 3513 4863 
L 4091 4863 
L 3144 0 
L 2566 0 
L 2675 525 
z
M 891 1350 
Q 891 897 1095 644 
Q 1300 391 1663 391 
Q 1931 391 2161 520 
Q 2391 650 2566 903 
Q 2750 1166 2856 1509 
Q 2963 1853 2963 2188 
Q 2963 2622 2758 2865 
Q 2553 3109 2194 3109 
Q 1922 3109 1687 2981 
Q 1453 2853 1288 2613 
Q 1106 2353 998 2009 
Q 891 1666 891 1350 
z
" transform="scale(0.015625)"/>
      <path id="DejaVuSans-Oblique-6e" d="M 3566 2113 
L 3156 0 
L 2578 0 
L 2988 2091 
Q 3016 2238 3031 2350 
Q 3047 2463 3047 2528 
Q 3047 2791 2881 2937 
Q 2716 3084 2419 3084 
Q 1956 3084 1622 2776 
Q 1288 2469 1184 1941 
L 800 0 
L 225 0 
L 903 3500 
L 1478 3500 
L 1363 2950 
Q 1603 3253 1940 3418 
Q 2278 3584 2650 3584 
Q 3113 3584 3367 3334 
Q 3622 3084 3622 2631 
Q 3622 2519 3608 2391 
Q 3594 2263 3566 2113 
z
" transform="scale(0.015625)"/>
      <path id="DejaVuSans-Oblique-73" d="M 3200 3397 
L 3091 2853 
Q 2863 2978 2609 3040 
Q 2356 3103 2088 3103 
Q 1634 3103 1373 2948 
Q 1113 2794 1113 2528 
Q 1113 2219 1719 2053 
Q 1766 2041 1788 2034 
L 1972 1978 
Q 2547 1819 2739 1644 
Q 2931 1469 2931 1166 
Q 2931 609 2489 259 
Q 2047 -91 1331 -91 
Q 1053 -91 747 -37 
Q 441 16 72 128 
L 184 722 
Q 500 559 806 475 
Q 1113 391 1394 391 
Q 1816 391 2080 572 
Q 2344 753 2344 1031 
Q 2344 1331 1650 1516 
L 1591 1531 
L 1394 1581 
Q 956 1697 753 1886 
Q 550 2075 550 2369 
Q 550 2928 970 3256 
Q 1391 3584 2113 3584 
Q 2397 3584 2667 3537 
Q 2938 3491 3200 3397 
z
" transform="scale(0.015625)"/>
     </defs>
     <use xlink:href="#DejaVuSans-Oblique-48"/>
     <use xlink:href="#DejaVuSans-Oblique-69" transform="translate(75.195312 0)"/>
     <use xlink:href="#DejaVuSans-Oblique-67" transform="translate(102.978516 0)"/>
     <use xlink:href="#DejaVuSans-Oblique-68" transform="translate(166.455078 0)"/>
     <use xlink:href="#DejaVuSans-Oblique-20" transform="translate(229.833984 0)"/>
     <use xlink:href="#DejaVuSans-Oblique-72" transform="translate(261.621094 0)"/>
     <use xlink:href="#DejaVuSans-Oblique-65" transform="translate(302.734375 0)"/>
     <use xlink:href="#DejaVuSans-Oblique-6c" transform="translate(364.257812 0)"/>
     <use xlink:href="#DejaVuSans-Oblique-61" transform="translate(392.041016 0)"/>
     <use xlink:href="#DejaVuSans-Oblique-74" transform="translate(453.320312 0)"/>
     <use xlink:href="#DejaVuSans-Oblique-65" transform="translate(492.529297 0)"/>
     <use xlink:href="#DejaVuSans-Oblique-64" transform="translate(554.052734 0)"/>
     <use xlink:href="#DejaVuSans-Oblique-6e" transform="translate(617.529297 0)"/>
     <use xlink:href="#DejaVuSans-Oblique-65" transform="translate(680.908203 0)"/>
     <use xlink:href="#DejaVuSans-Oblique-73" transform="translate(742.431641 0)"/>
     <use xlink:href="#DejaVuSans-Oblique-73" transform="translate(794.53125 0)"/>
    </g>
    <!--  More transferable -->
    <g transform="translate(149.410859 220.962281) scale(0.09 -0.09)">
     <defs>
      <path id="DejaVuSans-Oblique-2192" d="M 5050 2147 
L 5050 1866 
L 3822 638 
L 3447 1013 
L 4175 1741 
L 366 1741 
L 366 2272 
L 4175 2272 
L 3447 3000 
L 3822 3375 
L 5050 2147 
z
" transform="scale(0.015625)"/>
      <path id="DejaVuSans-Oblique-4d" d="M 1081 4666 
L 2028 4666 
L 2572 1522 
L 4378 4666 
L 5350 4666 
L 4441 0 
L 3828 0 
L 4622 4091 
L 2791 897 
L 2175 897 
L 1581 4103 
L 788 0 
L 172 0 
L 1081 4666 
z
" transform="scale(0.015625)"/>
      <path id="DejaVuSans-Oblique-6f" d="M 1625 -91 
Q 1009 -91 651 289 
Q 294 669 294 1325 
Q 294 1706 417 2101 
Q 541 2497 738 2766 
Q 1047 3184 1428 3384 
Q 1809 3584 2291 3584 
Q 2888 3584 3255 3212 
Q 3622 2841 3622 2241 
Q 3622 1825 3500 1412 
Q 3378 1000 3181 728 
Q 2875 309 2494 109 
Q 2113 -91 1625 -91 
z
M 891 1344 
Q 891 869 1089 633 
Q 1288 397 1691 397 
Q 2269 397 2648 901 
Q 3028 1406 3028 2181 
Q 3028 2634 2825 2865 
Q 2622 3097 2228 3097 
Q 1903 3097 1650 2945 
Q 1397 2794 1197 2484 
Q 1050 2253 970 1956 
Q 891 1659 891 1344 
z
" transform="scale(0.015625)"/>
      <path id="DejaVuSans-Oblique-66" d="M 3059 4863 
L 2969 4384 
L 2419 4384 
Q 2106 4384 1964 4261 
Q 1822 4138 1753 3809 
L 1691 3500 
L 2638 3500 
L 2553 3053 
L 1606 3053 
L 1013 0 
L 434 0 
L 1031 3053 
L 481 3053 
L 563 3500 
L 1113 3500 
L 1159 3744 
Q 1278 4363 1576 4613 
Q 1875 4863 2516 4863 
L 3059 4863 
z
" transform="scale(0.015625)"/>
      <path id="DejaVuSans-Oblique-62" d="M 3169 2138 
Q 3169 2591 2961 2847 
Q 2753 3103 2388 3103 
Q 2122 3103 1889 2973 
Q 1656 2844 1484 2597 
Q 1303 2338 1198 1995 
Q 1094 1653 1094 1313 
Q 1094 881 1298 636 
Q 1503 391 1863 391 
Q 2134 391 2365 517 
Q 2597 644 2772 891 
Q 2950 1147 3059 1487 
Q 3169 1828 3169 2138 
z
M 1381 2969 
Q 1594 3256 1914 3420 
Q 2234 3584 2584 3584 
Q 3122 3584 3439 3221 
Q 3756 2859 3756 2241 
Q 3756 1734 3570 1259 
Q 3384 784 3041 416 
Q 2816 172 2522 40 
Q 2228 -91 1906 -91 
Q 1566 -91 1316 65 
Q 1066 222 909 531 
L 806 0 
L 231 0 
L 1178 4863 
L 1753 4863 
L 1381 2969 
z
" transform="scale(0.015625)"/>
     </defs>
     <use xlink:href="#DejaVuSans-Oblique-2192"/>
     <use xlink:href="#DejaVuSans-Oblique-20" transform="translate(83.789062 0)"/>
     <use xlink:href="#DejaVuSans-Oblique-4d" transform="translate(115.576172 0)"/>
     <use xlink:href="#DejaVuSans-Oblique-6f" transform="translate(201.855469 0)"/>
     <use xlink:href="#DejaVuSans-Oblique-72" transform="translate(263.037109 0)"/>
     <use xlink:href="#DejaVuSans-Oblique-65" transform="translate(304.150391 0)"/>
     <use xlink:href="#DejaVuSans-Oblique-20" transform="translate(365.673828 0)"/>
     <use xlink:href="#DejaVuSans-Oblique-74" transform="translate(397.460938 0)"/>
     <use xlink:href="#DejaVuSans-Oblique-72" transform="translate(436.669922 0)"/>
     <use xlink:href="#DejaVuSans-Oblique-61" transform="translate(477.783203 0)"/>
     <use xlink:href="#DejaVuSans-Oblique-6e" transform="translate(539.0625 0)"/>
     <use xlink:href="#DejaVuSans-Oblique-73" transform="translate(602.441406 0)"/>
     <use xlink:href="#DejaVuSans-Oblique-66" transform="translate(654.541016 0)"/>
     <use xlink:href="#DejaVuSans-Oblique-65" transform="translate(689.746094 0)"/>
     <use xlink:href="#DejaVuSans-Oblique-72" transform="translate(751.269531 0)"/>
     <use xlink:href="#DejaVuSans-Oblique-61" transform="translate(792.382812 0)"/>
     <use xlink:href="#DejaVuSans-Oblique-62" transform="translate(853.662109 0)"/>
     <use xlink:href="#DejaVuSans-Oblique-6c" transform="translate(917.138672 0)"/>
     <use xlink:href="#DejaVuSans-Oblique-65" transform="translate(944.921875 0)"/>
    </g>
   </g>
   <g id="text_16">
    <!-- A. Task Relatedness -->
    <g transform="translate(43.78125 15.558281) scale(0.11 -0.11)">
     <defs>
      <path id="DejaVuSans-Bold-41" d="M 3419 850 
L 1538 850 
L 1241 0 
L 31 0 
L 1759 4666 
L 3194 4666 
L 4922 0 
L 3713 0 
L 3419 850 
z
M 1838 1716 
L 3116 1716 
L 2478 3572 
L 1838 1716 
z
" transform="scale(0.015625)"/>
      <path id="DejaVuSans-Bold-2e" d="M 653 1209 
L 1778 1209 
L 1778 0 
L 653 0 
L 653 1209 
z
" transform="scale(0.015625)"/>
     </defs>
     <use xlink:href="#DejaVuSans-Bold-41"/>
     <use xlink:href="#DejaVuSans-Bold-2e" transform="translate(79.267578 0)"/>
     <use xlink:href="#DejaVuSans-Bold-20" transform="translate(117.255859 0)"/>
     <use xlink:href="#DejaVuSans-Bold-54" transform="translate(152.070312 0)"/>
     <use xlink:href="#DejaVuSans-Bold-61" transform="translate(207.408203 0)"/>
     <use xlink:href="#DejaVuSans-Bold-73" transform="translate(274.888672 0)"/>
     <use xlink:href="#DejaVuSans-Bold-6b" transform="translate(334.410156 0)"/>
     <use xlink:href="#DejaVuSans-Bold-20" transform="translate(400.914062 0)"/>
     <use xlink:href="#DejaVuSans-Bold-52" transform="translate(435.728516 0)"/>
     <use xlink:href="#DejaVuSans-Bold-65" transform="translate(512.730469 0)"/>
     <use xlink:href="#DejaVuSans-Bold-6c" transform="translate(580.552734 0)"/>
     <use xlink:href="#DejaVuSans-Bold-61" transform="translate(614.830078 0)"/>
     <use xlink:href="#DejaVuSans-Bold-74" transform="translate(682.310547 0)"/>
     <use xlink:href="#DejaVuSans-Bold-65" transform="translate(730.113281 0)"/>
     <use xlink:href="#DejaVuSans-Bold-64" transform="translate(797.935547 0)"/>
     <use xlink:href="#DejaVuSans-Bold-6e" transform="translate(869.517578 0)"/>
     <use xlink:href="#DejaVuSans-Bold-65" transform="translate(940.708984 0)"/>
     <use xlink:href="#DejaVuSans-Bold-73" transform="translate(1008.53125 0)"/>
     <use xlink:href="#DejaVuSans-Bold-73" transform="translate(1068.052734 0)"/>
    </g>
   </g>
  </g>
 </g>
 <defs>
  <clipPath id="pc708a9d041">
   <rect x="43.78125" y="21.558281" width="301.84" height="221.56"/>
  </clipPath>
 </defs>
</svg>
