<?xml version="1.0" encoding="utf-8" standalone="no"?>
<!DOCTYPE svg PUBLIC "-//W3C//DTD SVG 1.1//EN"
  "http://www.w3.org/Graphics/SVG/1.1/DTD/svg11.dtd">
<svg xmlns:xlink="http://www.w3.org/1999/xlink" width="352.82125pt" height="280.752656pt" viewBox="0 0 352.82125 280.752656" xmlns="http://www.w3.org/2000/svg" version="1.1">
 <metadata>
  <rdf:RDF xmlns:dc="http://purl.org/dc/elements/1.1/" xmlns:cc="http://creativecommons.org/ns#" xmlns:rdf="http://www.w3.org/1999/02/22-rdf-syntax-ns#">
   <cc:Work>
    <dc:type rdf:resource="http://purl.org/dc/dcmitype/StillImage"/>
    <dc:date>2026-01-08T05:55:29.723558</dc:date>
    <dc:format>image/svg+xml</dc:format>
    <dc:creator>
     <cc:Agent>
      <dc:title>Matplotlib v3.10.7, https://matplotlib.org/</dc:title>
     </cc:Agent>
    </dc:creator>
   </cc:Work>
  </rdf:RDF>
 </metadata>
 <defs>
  <style type="text/css">*{stroke-linejoin: round; stroke-linecap: butt}</style>
 </defs>
 <g id="figure_1">
  <g id="patch_1">
   <path d="M 0 280.752656 
L 352.82125 280.752656 
L 352.82125 0 
L 0 0 
z
" style="fill: #ffffff"/>
  </g>
  <g id="axes_1">
   <g id="patch_2">
    <path d="M 43.78125 243.118281 
L 345.62125 243.118281 
L 345.62125 21.558281 
L 43.78125 21.558281 
z
" style="fill: #ffffff"/>
   </g>
   <g id="FillBetweenPolyCollection_1">
    <defs>
     <path id="m873d99ddf3" d="M 57.50125 -232.700057 
L 57.50125 -176.378388 
L 60.272967 -163.509196 
L 63.044684 -177.316412 
L 65.816402 -192.801797 
L 68.588119 -158.864457 
L 71.359836 -157.916589 
L 74.131553 -191.012041 
L 76.90327 -174.823633 
L 79.674987 -150.653861 
L 82.446705 -168.705508 
L 85.218422 -148.871216 
L 87.990139 -147.879634 
L 90.761856 -160.217589 
L 93.533573 -118.807128 
L 96.30529 -121.395247 
L 99.077008 -142.274164 
L 101.848725 -132.867532 
L 104.620442 -156.83378 
L 107.392159 -132.938815 
L 110.163876 -122.523349 
L 112.935593 -175.605535 
L 115.707311 -142.902731 
L 118.479028 -147.461021 
L 121.250745 -118.497013 
L 124.022462 -134.07672 
L 126.794179 -145.431174 
L 129.565896 -120.791923 
L 132.337614 -148.505686 
L 135.109331 -129.227872 
L 137.881048 -134.079794 
L 140.652765 -127.311471 
L 143.424482 -172.434134 
L 146.196199 -136.458096 
L 148.967917 -115.905967 
L 151.739634 -150.257507 
L 154.511351 -110.946979 
L 157.283068 -136.839969 
L 160.054785 -95.17998 
L 162.826503 -106.087216 
L 165.59822 -133.770109 
L 168.369937 -142.989972 
L 171.141654 -131.395155 
L 173.913371 -125.058561 
L 176.685088 -120.628665 
L 179.456806 -97.575768 
L 182.228523 -110.870925 
L 185.00024 -114.789043 
L 187.771957 -142.335144 
L 190.543674 -127.991724 
L 193.315391 -87.493374 
L 196.087109 -125.728636 
L 198.858826 -111.466651 
L 201.630543 -105.039508 
L 204.40226 -128.283334 
L 207.173977 -135.207486 
L 209.945694 -132.387188 
L 212.717412 -98.199885 
L 215.489129 -107.201967 
L 218.260846 -118.278012 
L 221.032563 -129.42551 
L 223.80428 -101.166593 
L 226.575997 -105.728839 
L 229.347715 -87.495994 
L 232.119432 -84.860577 
L 234.891149 -121.624122 
L 237.662866 -130.883576 
L 240.434583 -103.121589 
L 243.206301 -122.365539 
L 245.978018 -109.366462 
L 248.749735 -89.517564 
L 251.521452 -107.465596 
L 254.293169 -128.607547 
L 257.064886 -98.111848 
L 259.836604 -127.210713 
L 262.608321 -47.705284 
L 265.380038 -111.37022 
L 268.151755 -96.625949 
L 270.923472 -88.43003 
L 273.695189 -94.818091 
L 276.466907 -54.832809 
L 279.238624 -87.074936 
L 282.010341 -96.955248 
L 284.782058 -117.048499 
L 287.553775 -78.624555 
L 290.325492 -72.227757 
L 293.09721 -77.038219 
L 295.868927 -102.695633 
L 298.640644 -90.733735 
L 301.412361 -73.667962 
L 304.184078 -92.301472 
L 306.955795 -83.539793 
L 309.727513 -98.954327 
L 312.49923 -66.64065 
L 315.270947 -72.721248 
L 318.042664 -70.563169 
L 320.814381 -49.50052 
L 323.586098 -81.587542 
L 326.357816 -79.981059 
L 329.129533 -74.227859 
L 331.90125 -68.77957 
L 331.90125 -125.101239 
L 331.90125 -125.101239 
L 329.129533 -130.549528 
L 326.357816 -136.302728 
L 323.586098 -137.90921 
L 320.814381 -105.822189 
L 318.042664 -126.884838 
L 315.270947 -129.042917 
L 312.49923 -122.962319 
L 309.727513 -155.275996 
L 306.955795 -139.861462 
L 304.184078 -148.623141 
L 301.412361 -129.989631 
L 298.640644 -147.055404 
L 295.868927 -159.017302 
L 293.09721 -133.359888 
L 290.325492 -128.549426 
L 287.553775 -134.946224 
L 284.782058 -173.370168 
L 282.010341 -153.276917 
L 279.238624 -143.396605 
L 276.466907 -111.154478 
L 273.695189 -151.13976 
L 270.923472 -144.751699 
L 268.151755 -152.947618 
L 265.380038 -167.691889 
L 262.608321 -104.026953 
L 259.836604 -183.532382 
L 257.064886 -154.433517 
L 254.293169 -184.929216 
L 251.521452 -163.787264 
L 248.749735 -145.839232 
L 245.978018 -165.688131 
L 243.206301 -178.687208 
L 240.434583 -159.443258 
L 237.662866 -187.205245 
L 234.891149 -177.945791 
L 232.119432 -141.182246 
L 229.347715 -143.817663 
L 226.575997 -162.050508 
L 223.80428 -157.488261 
L 221.032563 -185.747178 
L 218.260846 -174.599681 
L 215.489129 -163.523635 
L 212.717412 -154.521554 
L 209.945694 -188.708857 
L 207.173977 -191.529154 
L 204.40226 -184.605003 
L 201.630543 -161.361177 
L 198.858826 -167.78832 
L 196.087109 -182.050305 
L 193.315391 -143.815043 
L 190.543674 -184.313392 
L 187.771957 -198.656813 
L 185.00024 -171.110712 
L 182.228523 -167.192594 
L 179.456806 -153.897437 
L 176.685088 -176.950334 
L 173.913371 -181.38023 
L 171.141654 -187.716823 
L 168.369937 -199.311641 
L 165.59822 -190.091778 
L 162.826503 -162.408885 
L 160.054785 -151.501649 
L 157.283068 -193.161638 
L 154.511351 -167.268648 
L 151.739634 -206.579175 
L 148.967917 -172.227636 
L 146.196199 -192.779765 
L 143.424482 -228.755803 
L 140.652765 -183.633139 
L 137.881048 -190.401463 
L 135.109331 -185.549541 
L 132.337614 -204.827355 
L 129.565896 -177.113592 
L 126.794179 -201.752843 
L 124.022462 -190.398389 
L 121.250745 -174.818682 
L 118.479028 -203.78269 
L 115.707311 -199.2244 
L 112.935593 -231.927204 
L 110.163876 -178.845018 
L 107.392159 -189.260484 
L 104.620442 -213.155449 
L 101.848725 -189.189201 
L 99.077008 -198.595833 
L 96.30529 -177.716916 
L 93.533573 -175.128797 
L 90.761856 -216.539258 
L 87.990139 -204.201303 
L 85.218422 -205.192885 
L 82.446705 -225.027176 
L 79.674987 -206.97553 
L 76.90327 -231.145301 
L 74.131553 -247.33371 
L 71.359836 -214.238258 
L 68.588119 -215.186126 
L 65.816402 -249.123466 
L 63.044684 -233.638081 
L 60.272967 -219.830865 
L 57.50125 -232.700057 
z
" style="stroke: #1f77b4; stroke-opacity: 0.2"/>
    </defs>
    <g clip-path="url(#paa97f43cc9)">
     <use xlink:href="#m873d99ddf3" x="0" y="280.752656" style="fill: #1f77b4; fill-opacity: 0.2; stroke: #1f77b4; stroke-opacity: 0.2"/>
    </g>
   </g>
   <g id="matplotlib.axis_1">
    <g id="xtick_1">
     <g id="line2d_1">
      <defs>
       <path id="m6be911f770" d="M 0 0 
L 0 3.5 
" style="stroke: #000000; stroke-width: 0.8"/>
      </defs>
      <g>
       <use xlink:href="#m6be911f770" x="57.50125" y="243.118281" style="stroke: #000000; stroke-width: 0.8"/>
      </g>
     </g>
     <g id="text_1">
      <!-- 0.0 -->
      <g transform="translate(49.549688 257.716719) scale(0.1 -0.1)">
       <defs>
        <path id="DejaVuSans-30" d="M 2034 4250 
Q 1547 4250 1301 3770 
Q 1056 3291 1056 2328 
Q 1056 1369 1301 889 
Q 1547 409 2034 409 
Q 2525 409 2770 889 
Q 3016 1369 3016 2328 
Q 3016 3291 2770 3770 
Q 2525 4250 2034 4250 
z
M 2034 4750 
Q 2819 4750 3233 4129 
Q 3647 3509 3647 2328 
Q 3647 1150 3233 529 
Q 2819 -91 2034 -91 
Q 1250 -91 836 529 
Q 422 1150 422 2328 
Q 422 3509 836 4129 
Q 1250 4750 2034 4750 
z
" transform="scale(0.015625)"/>
        <path id="DejaVuSans-2e" d="M 684 794 
L 1344 794 
L 1344 0 
L 684 0 
L 684 794 
z
" transform="scale(0.015625)"/>
       </defs>
       <use xlink:href="#DejaVuSans-30"/>
       <use xlink:href="#DejaVuSans-2e" transform="translate(63.623047 0)"/>
       <use xlink:href="#DejaVuSans-30" transform="translate(95.410156 0)"/>
      </g>
     </g>
    </g>
    <g id="xtick_2">
     <g id="line2d_2">
      <g>
       <use xlink:href="#m6be911f770" x="112.38125" y="243.118281" style="stroke: #000000; stroke-width: 0.8"/>
      </g>
     </g>
     <g id="text_2">
      <!-- 0.2 -->
      <g transform="translate(104.429688 257.716719) scale(0.1 -0.1)">
       <defs>
        <path id="DejaVuSans-32" d="M 1228 531 
L 3431 531 
L 3431 0 
L 469 0 
L 469 531 
Q 828 903 1448 1529 
Q 2069 2156 2228 2338 
Q 2531 2678 2651 2914 
Q 2772 3150 2772 3378 
Q 2772 3750 2511 3984 
Q 2250 4219 1831 4219 
Q 1534 4219 1204 4116 
Q 875 4013 500 3803 
L 500 4441 
Q 881 4594 1212 4672 
Q 1544 4750 1819 4750 
Q 2544 4750 2975 4387 
Q 3406 4025 3406 3419 
Q 3406 3131 3298 2873 
Q 3191 2616 2906 2266 
Q 2828 2175 2409 1742 
Q 1991 1309 1228 531 
z
" transform="scale(0.015625)"/>
       </defs>
       <use xlink:href="#DejaVuSans-30"/>
       <use xlink:href="#DejaVuSans-2e" transform="translate(63.623047 0)"/>
       <use xlink:href="#DejaVuSans-32" transform="translate(95.410156 0)"/>
      </g>
     </g>
    </g>
    <g id="xtick_3">
     <g id="line2d_3">
      <g>
       <use xlink:href="#m6be911f770" x="167.26125" y="243.118281" style="stroke: #000000; stroke-width: 0.8"/>
      </g>
     </g>
     <g id="text_3">
      <!-- 0.4 -->
      <g transform="translate(159.309688 257.716719) scale(0.1 -0.1)">
       <defs>
        <path id="DejaVuSans-34" d="M 2419 4116 
L 825 1625 
L 2419 1625 
L 2419 4116 
z
M 2253 4666 
L 3047 4666 
L 3047 1625 
L 3713 1625 
L 3713 1100 
L 3047 1100 
L 3047 0 
L 2419 0 
L 2419 1100 
L 313 1100 
L 313 1709 
L 2253 4666 
z
" transform="scale(0.015625)"/>
       </defs>
       <use xlink:href="#DejaVuSans-30"/>
       <use xlink:href="#DejaVuSans-2e" transform="translate(63.623047 0)"/>
       <use xlink:href="#DejaVuSans-34" transform="translate(95.410156 0)"/>
      </g>
     </g>
    </g>
    <g id="xtick_4">
     <g id="line2d_4">
      <g>
       <use xlink:href="#m6be911f770" x="222.14125" y="243.118281" style="stroke: #000000; stroke-width: 0.8"/>
      </g>
     </g>
     <g id="text_4">
      <!-- 0.6 -->
      <g transform="translate(214.189688 257.716719) scale(0.1 -0.1)">
       <defs>
        <path id="DejaVuSans-36" d="M 2113 2584 
Q 1688 2584 1439 2293 
Q 1191 2003 1191 1497 
Q 1191 994 1439 701 
Q 1688 409 2113 409 
Q 2538 409 2786 701 
Q 3034 994 3034 1497 
Q 3034 2003 2786 2293 
Q 2538 2584 2113 2584 
z
M 3366 4563 
L 3366 3988 
Q 3128 4100 2886 4159 
Q 2644 4219 2406 4219 
Q 1781 4219 1451 3797 
Q 1122 3375 1075 2522 
Q 1259 2794 1537 2939 
Q 1816 3084 2150 3084 
Q 2853 3084 3261 2657 
Q 3669 2231 3669 1497 
Q 3669 778 3244 343 
Q 2819 -91 2113 -91 
Q 1303 -91 875 529 
Q 447 1150 447 2328 
Q 447 3434 972 4092 
Q 1497 4750 2381 4750 
Q 2619 4750 2861 4703 
Q 3103 4656 3366 4563 
z
" transform="scale(0.015625)"/>
       </defs>
       <use xlink:href="#DejaVuSans-30"/>
       <use xlink:href="#DejaVuSans-2e" transform="translate(63.623047 0)"/>
       <use xlink:href="#DejaVuSans-36" transform="translate(95.410156 0)"/>
      </g>
     </g>
    </g>
    <g id="xtick_5">
     <g id="line2d_5">
      <g>
       <use xlink:href="#m6be911f770" x="277.02125" y="243.118281" style="stroke: #000000; stroke-width: 0.8"/>
      </g>
     </g>
     <g id="text_5">
      <!-- 0.8 -->
      <g transform="translate(269.069687 257.716719) scale(0.1 -0.1)">
       <defs>
        <path id="DejaVuSans-38" d="M 2034 2216 
Q 1584 2216 1326 1975 
Q 1069 1734 1069 1313 
Q 1069 891 1326 650 
Q 1584 409 2034 409 
Q 2484 409 2743 651 
Q 3003 894 3003 1313 
Q 3003 1734 2745 1975 
Q 2488 2216 2034 2216 
z
M 1403 2484 
Q 997 2584 770 2862 
Q 544 3141 544 3541 
Q 544 4100 942 4425 
Q 1341 4750 2034 4750 
Q 2731 4750 3128 4425 
Q 3525 4100 3525 3541 
Q 3525 3141 3298 2862 
Q 3072 2584 2669 2484 
Q 3125 2378 3379 2068 
Q 3634 1759 3634 1313 
Q 3634 634 3220 271 
Q 2806 -91 2034 -91 
Q 1263 -91 848 271 
Q 434 634 434 1313 
Q 434 1759 690 2068 
Q 947 2378 1403 2484 
z
M 1172 3481 
Q 1172 3119 1398 2916 
Q 1625 2713 2034 2713 
Q 2441 2713 2670 2916 
Q 2900 3119 2900 3481 
Q 2900 3844 2670 4047 
Q 2441 4250 2034 4250 
Q 1625 4250 1398 4047 
Q 1172 3844 1172 3481 
z
" transform="scale(0.015625)"/>
       </defs>
       <use xlink:href="#DejaVuSans-30"/>
       <use xlink:href="#DejaVuSans-2e" transform="translate(63.623047 0)"/>
       <use xlink:href="#DejaVuSans-38" transform="translate(95.410156 0)"/>
      </g>
     </g>
    </g>
    <g id="xtick_6">
     <g id="line2d_6">
      <g>
       <use xlink:href="#m6be911f770" x="331.90125" y="243.118281" style="stroke: #000000; stroke-width: 0.8"/>
      </g>
     </g>
     <g id="text_6">
      <!-- 1.0 -->
      <g transform="translate(323.949688 257.716719) scale(0.1 -0.1)">
       <defs>
        <path id="DejaVuSans-31" d="M 794 531 
L 1825 531 
L 1825 4091 
L 703 3866 
L 703 4441 
L 1819 4666 
L 2450 4666 
L 2450 531 
L 3481 531 
L 3481 0 
L 794 0 
L 794 531 
z
" transform="scale(0.015625)"/>
       </defs>
       <use xlink:href="#DejaVuSans-31"/>
       <use xlink:href="#DejaVuSans-2e" transform="translate(63.623047 0)"/>
       <use xlink:href="#DejaVuSans-30" transform="translate(95.410156 0)"/>
      </g>
     </g>
    </g>
    <g id="text_7">
     <!-- Data Quantity -->
     <g transform="translate(155.174687 271.394844) scale(0.1 -0.1)">
      <defs>
       <path id="DejaVuSans-Bold-44" d="M 1791 3756 
L 1791 909 
L 2222 909 
Q 2959 909 3348 1275 
Q 3738 1641 3738 2338 
Q 3738 3031 3350 3393 
Q 2963 3756 2222 3756 
L 1791 3756 
z
M 588 4666 
L 1856 4666 
Q 2919 4666 3439 4514 
Q 3959 4363 4331 4000 
Q 4659 3684 4818 3271 
Q 4978 2859 4978 2338 
Q 4978 1809 4818 1395 
Q 4659 981 4331 666 
Q 3956 303 3431 151 
Q 2906 0 1856 0 
L 588 0 
L 588 4666 
z
" transform="scale(0.015625)"/>
       <path id="DejaVuSans-Bold-61" d="M 2106 1575 
Q 1756 1575 1579 1456 
Q 1403 1338 1403 1106 
Q 1403 894 1545 773 
Q 1688 653 1941 653 
Q 2256 653 2472 879 
Q 2688 1106 2688 1447 
L 2688 1575 
L 2106 1575 
z
M 3816 1997 
L 3816 0 
L 2688 0 
L 2688 519 
Q 2463 200 2181 54 
Q 1900 -91 1497 -91 
Q 953 -91 614 226 
Q 275 544 275 1050 
Q 275 1666 698 1953 
Q 1122 2241 2028 2241 
L 2688 2241 
L 2688 2328 
Q 2688 2594 2478 2717 
Q 2269 2841 1825 2841 
Q 1466 2841 1156 2769 
Q 847 2697 581 2553 
L 581 3406 
Q 941 3494 1303 3539 
Q 1666 3584 2028 3584 
Q 2975 3584 3395 3211 
Q 3816 2838 3816 1997 
z
" transform="scale(0.015625)"/>
       <path id="DejaVuSans-Bold-74" d="M 1759 4494 
L 1759 3500 
L 2913 3500 
L 2913 2700 
L 1759 2700 
L 1759 1216 
Q 1759 972 1856 886 
Q 1953 800 2241 800 
L 2816 800 
L 2816 0 
L 1856 0 
Q 1194 0 917 276 
Q 641 553 641 1216 
L 641 2700 
L 84 2700 
L 84 3500 
L 641 3500 
L 641 4494 
L 1759 4494 
z
" transform="scale(0.015625)"/>
       <path id="DejaVuSans-Bold-20" transform="scale(0.015625)"/>
       <path id="DejaVuSans-Bold-51" d="M 2847 -84 
L 2753 -84 
Q 1600 -84 959 553 
Q 319 1191 319 2328 
Q 319 3463 958 4106 
Q 1597 4750 2719 4750 
Q 3853 4750 4486 4112 
Q 5119 3475 5119 2328 
Q 5119 1541 4783 972 
Q 4447 403 3816 116 
L 4756 -934 
L 3609 -934 
L 2847 -84 
z
M 2719 3878 
Q 2169 3878 1866 3472 
Q 1563 3066 1563 2328 
Q 1563 1578 1859 1179 
Q 2156 781 2719 781 
Q 3272 781 3575 1187 
Q 3878 1594 3878 2328 
Q 3878 3066 3575 3472 
Q 3272 3878 2719 3878 
z
" transform="scale(0.015625)"/>
       <path id="DejaVuSans-Bold-75" d="M 500 1363 
L 500 3500 
L 1625 3500 
L 1625 3150 
Q 1625 2866 1622 2436 
Q 1619 2006 1619 1863 
Q 1619 1441 1641 1255 
Q 1663 1069 1716 984 
Q 1784 875 1895 815 
Q 2006 756 2150 756 
Q 2500 756 2700 1025 
Q 2900 1294 2900 1772 
L 2900 3500 
L 4019 3500 
L 4019 0 
L 2900 0 
L 2900 506 
Q 2647 200 2364 54 
Q 2081 -91 1741 -91 
Q 1134 -91 817 281 
Q 500 653 500 1363 
z
" transform="scale(0.015625)"/>
       <path id="DejaVuSans-Bold-6e" d="M 4056 2131 
L 4056 0 
L 2931 0 
L 2931 347 
L 2931 1631 
Q 2931 2084 2911 2256 
Q 2891 2428 2841 2509 
Q 2775 2619 2662 2680 
Q 2550 2741 2406 2741 
Q 2056 2741 1856 2470 
Q 1656 2200 1656 1722 
L 1656 0 
L 538 0 
L 538 3500 
L 1656 3500 
L 1656 2988 
Q 1909 3294 2193 3439 
Q 2478 3584 2822 3584 
Q 3428 3584 3742 3212 
Q 4056 2841 4056 2131 
z
" transform="scale(0.015625)"/>
       <path id="DejaVuSans-Bold-69" d="M 538 3500 
L 1656 3500 
L 1656 0 
L 538 0 
L 538 3500 
z
M 538 4863 
L 1656 4863 
L 1656 3950 
L 538 3950 
L 538 4863 
z
" transform="scale(0.015625)"/>
       <path id="DejaVuSans-Bold-79" d="M 78 3500 
L 1197 3500 
L 2138 1125 
L 2938 3500 
L 4056 3500 
L 2584 -331 
Q 2363 -916 2067 -1148 
Q 1772 -1381 1288 -1381 
L 641 -1381 
L 641 -647 
L 991 -647 
Q 1275 -647 1404 -556 
Q 1534 -466 1606 -231 
L 1638 -134 
L 78 3500 
z
" transform="scale(0.015625)"/>
      </defs>
      <use xlink:href="#DejaVuSans-Bold-44"/>
      <use xlink:href="#DejaVuSans-Bold-61" transform="translate(83.007812 0)"/>
      <use xlink:href="#DejaVuSans-Bold-74" transform="translate(150.488281 0)"/>
      <use xlink:href="#DejaVuSans-Bold-61" transform="translate(198.291016 0)"/>
      <use xlink:href="#DejaVuSans-Bold-20" transform="translate(265.771484 0)"/>
      <use xlink:href="#DejaVuSans-Bold-51" transform="translate(300.585938 0)"/>
      <use xlink:href="#DejaVuSans-Bold-75" transform="translate(385.595703 0)"/>
      <use xlink:href="#DejaVuSans-Bold-61" transform="translate(456.787109 0)"/>
      <use xlink:href="#DejaVuSans-Bold-6e" transform="translate(524.267578 0)"/>
      <use xlink:href="#DejaVuSans-Bold-74" transform="translate(595.458984 0)"/>
      <use xlink:href="#DejaVuSans-Bold-69" transform="translate(643.261719 0)"/>
      <use xlink:href="#DejaVuSans-Bold-74" transform="translate(677.539062 0)"/>
      <use xlink:href="#DejaVuSans-Bold-79" transform="translate(725.341797 0)"/>
     </g>
    </g>
   </g>
   <g id="matplotlib.axis_2">
    <g id="ytick_1">
     <g id="line2d_7">
      <defs>
       <path id="m93f1b2bb51" d="M 0 0 
L -3.5 0 
" style="stroke: #000000; stroke-width: 0.8"/>
      </defs>
      <g>
       <use xlink:href="#m93f1b2bb51" x="43.78125" y="235.729807" style="stroke: #000000; stroke-width: 0.8"/>
      </g>
     </g>
     <g id="text_8">
      <!-- 0.2 -->
      <g transform="translate(20.878125 239.529026) scale(0.1 -0.1)">
       <use xlink:href="#DejaVuSans-30"/>
       <use xlink:href="#DejaVuSans-2e" transform="translate(63.623047 0)"/>
       <use xlink:href="#DejaVuSans-32" transform="translate(95.410156 0)"/>
      </g>
     </g>
    </g>
    <g id="ytick_2">
     <g id="line2d_8">
      <g>
       <use xlink:href="#m93f1b2bb51" x="43.78125" y="198.182028" style="stroke: #000000; stroke-width: 0.8"/>
      </g>
     </g>
     <g id="text_9">
      <!-- 0.4 -->
      <g transform="translate(20.878125 201.981247) scale(0.1 -0.1)">
       <use xlink:href="#DejaVuSans-30"/>
       <use xlink:href="#DejaVuSans-2e" transform="translate(63.623047 0)"/>
       <use xlink:href="#DejaVuSans-34" transform="translate(95.410156 0)"/>
      </g>
     </g>
    </g>
    <g id="ytick_3">
     <g id="line2d_9">
      <g>
       <use xlink:href="#m93f1b2bb51" x="43.78125" y="160.634249" style="stroke: #000000; stroke-width: 0.8"/>
      </g>
     </g>
     <g id="text_10">
      <!-- 0.6 -->
      <g transform="translate(20.878125 164.433468) scale(0.1 -0.1)">
       <use xlink:href="#DejaVuSans-30"/>
       <use xlink:href="#DejaVuSans-2e" transform="translate(63.623047 0)"/>
       <use xlink:href="#DejaVuSans-36" transform="translate(95.410156 0)"/>
      </g>
     </g>
    </g>
    <g id="ytick_4">
     <g id="line2d_10">
      <g>
       <use xlink:href="#m93f1b2bb51" x="43.78125" y="123.08647" style="stroke: #000000; stroke-width: 0.8"/>
      </g>
     </g>
     <g id="text_11">
      <!-- 0.8 -->
      <g transform="translate(20.878125 126.885688) scale(0.1 -0.1)">
       <use xlink:href="#DejaVuSans-30"/>
       <use xlink:href="#DejaVuSans-2e" transform="translate(63.623047 0)"/>
       <use xlink:href="#DejaVuSans-38" transform="translate(95.410156 0)"/>
      </g>
     </g>
    </g>
    <g id="ytick_5">
     <g id="line2d_11">
      <g>
       <use xlink:href="#m93f1b2bb51" x="43.78125" y="85.53869" style="stroke: #000000; stroke-width: 0.8"/>
      </g>
     </g>
     <g id="text_12">
      <!-- 1.0 -->
      <g transform="translate(20.878125 89.337909) scale(0.1 -0.1)">
       <use xlink:href="#DejaVuSans-31"/>
       <use xlink:href="#DejaVuSans-2e" transform="translate(63.623047 0)"/>
       <use xlink:href="#DejaVuSans-30" transform="translate(95.410156 0)"/>
      </g>
     </g>
    </g>
    <g id="ytick_6">
     <g id="line2d_12">
      <g>
       <use xlink:href="#m93f1b2bb51" x="43.78125" y="47.990911" style="stroke: #000000; stroke-width: 0.8"/>
      </g>
     </g>
     <g id="text_13">
      <!-- 1.2 -->
      <g transform="translate(20.878125 51.79013) scale(0.1 -0.1)">
       <use xlink:href="#DejaVuSans-31"/>
       <use xlink:href="#DejaVuSans-2e" transform="translate(63.623047 0)"/>
       <use xlink:href="#DejaVuSans-32" transform="translate(95.410156 0)"/>
      </g>
     </g>
    </g>
    <g id="text_14">
     <!-- Transfer Performance -->
     <g transform="translate(14.798438 193.44375) rotate(-90) scale(0.1 -0.1)">
      <defs>
       <path id="DejaVuSans-Bold-54" d="M 31 4666 
L 4331 4666 
L 4331 3756 
L 2784 3756 
L 2784 0 
L 1581 0 
L 1581 3756 
L 31 3756 
L 31 4666 
z
" transform="scale(0.015625)"/>
       <path id="DejaVuSans-Bold-72" d="M 3138 2547 
Q 2991 2616 2845 2648 
Q 2700 2681 2553 2681 
Q 2122 2681 1889 2404 
Q 1656 2128 1656 1613 
L 1656 0 
L 538 0 
L 538 3500 
L 1656 3500 
L 1656 2925 
Q 1872 3269 2151 3426 
Q 2431 3584 2822 3584 
Q 2878 3584 2943 3579 
Q 3009 3575 3134 3559 
L 3138 2547 
z
" transform="scale(0.015625)"/>
       <path id="DejaVuSans-Bold-73" d="M 3272 3391 
L 3272 2541 
Q 2913 2691 2578 2766 
Q 2244 2841 1947 2841 
Q 1628 2841 1473 2761 
Q 1319 2681 1319 2516 
Q 1319 2381 1436 2309 
Q 1553 2238 1856 2203 
L 2053 2175 
Q 2913 2066 3209 1816 
Q 3506 1566 3506 1031 
Q 3506 472 3093 190 
Q 2681 -91 1863 -91 
Q 1516 -91 1145 -36 
Q 775 19 384 128 
L 384 978 
Q 719 816 1070 734 
Q 1422 653 1784 653 
Q 2113 653 2278 743 
Q 2444 834 2444 1013 
Q 2444 1163 2330 1236 
Q 2216 1309 1875 1350 
L 1678 1375 
Q 931 1469 631 1722 
Q 331 1975 331 2491 
Q 331 3047 712 3315 
Q 1094 3584 1881 3584 
Q 2191 3584 2531 3537 
Q 2872 3491 3272 3391 
z
" transform="scale(0.015625)"/>
       <path id="DejaVuSans-Bold-66" d="M 2841 4863 
L 2841 4128 
L 2222 4128 
Q 1984 4128 1890 4042 
Q 1797 3956 1797 3744 
L 1797 3500 
L 2753 3500 
L 2753 2700 
L 1797 2700 
L 1797 0 
L 678 0 
L 678 2700 
L 122 2700 
L 122 3500 
L 678 3500 
L 678 3744 
Q 678 4316 997 4589 
Q 1316 4863 1984 4863 
L 2841 4863 
z
" transform="scale(0.015625)"/>
       <path id="DejaVuSans-Bold-65" d="M 4031 1759 
L 4031 1441 
L 1416 1441 
Q 1456 1047 1700 850 
Q 1944 653 2381 653 
Q 2734 653 3104 758 
Q 3475 863 3866 1075 
L 3866 213 
Q 3469 63 3072 -14 
Q 2675 -91 2278 -91 
Q 1328 -91 801 392 
Q 275 875 275 1747 
Q 275 2603 792 3093 
Q 1309 3584 2216 3584 
Q 3041 3584 3536 3087 
Q 4031 2591 4031 1759 
z
M 2881 2131 
Q 2881 2450 2695 2645 
Q 2509 2841 2209 2841 
Q 1884 2841 1681 2658 
Q 1478 2475 1428 2131 
L 2881 2131 
z
" transform="scale(0.015625)"/>
       <path id="DejaVuSans-Bold-50" d="M 588 4666 
L 2584 4666 
Q 3475 4666 3951 4270 
Q 4428 3875 4428 3144 
Q 4428 2409 3951 2014 
Q 3475 1619 2584 1619 
L 1791 1619 
L 1791 0 
L 588 0 
L 588 4666 
z
M 1791 3794 
L 1791 2491 
L 2456 2491 
Q 2806 2491 2997 2661 
Q 3188 2831 3188 3144 
Q 3188 3456 2997 3625 
Q 2806 3794 2456 3794 
L 1791 3794 
z
" transform="scale(0.015625)"/>
       <path id="DejaVuSans-Bold-6f" d="M 2203 2784 
Q 1831 2784 1636 2517 
Q 1441 2250 1441 1747 
Q 1441 1244 1636 976 
Q 1831 709 2203 709 
Q 2569 709 2762 976 
Q 2956 1244 2956 1747 
Q 2956 2250 2762 2517 
Q 2569 2784 2203 2784 
z
M 2203 3584 
Q 3106 3584 3614 3096 
Q 4122 2609 4122 1747 
Q 4122 884 3614 396 
Q 3106 -91 2203 -91 
Q 1297 -91 786 396 
Q 275 884 275 1747 
Q 275 2609 786 3096 
Q 1297 3584 2203 3584 
z
" transform="scale(0.015625)"/>
       <path id="DejaVuSans-Bold-6d" d="M 3781 2919 
Q 3994 3244 4286 3414 
Q 4578 3584 4928 3584 
Q 5531 3584 5847 3212 
Q 6163 2841 6163 2131 
L 6163 0 
L 5038 0 
L 5038 1825 
Q 5041 1866 5042 1909 
Q 5044 1953 5044 2034 
Q 5044 2406 4934 2573 
Q 4825 2741 4581 2741 
Q 4263 2741 4089 2478 
Q 3916 2216 3909 1719 
L 3909 0 
L 2784 0 
L 2784 1825 
Q 2784 2406 2684 2573 
Q 2584 2741 2328 2741 
Q 2006 2741 1831 2477 
Q 1656 2213 1656 1722 
L 1656 0 
L 531 0 
L 531 3500 
L 1656 3500 
L 1656 2988 
Q 1863 3284 2130 3434 
Q 2397 3584 2719 3584 
Q 3081 3584 3359 3409 
Q 3638 3234 3781 2919 
z
" transform="scale(0.015625)"/>
       <path id="DejaVuSans-Bold-63" d="M 3366 3391 
L 3366 2478 
Q 3138 2634 2908 2709 
Q 2678 2784 2431 2784 
Q 1963 2784 1702 2511 
Q 1441 2238 1441 1747 
Q 1441 1256 1702 982 
Q 1963 709 2431 709 
Q 2694 709 2930 787 
Q 3166 866 3366 1019 
L 3366 103 
Q 3103 6 2833 -42 
Q 2563 -91 2291 -91 
Q 1344 -91 809 395 
Q 275 881 275 1747 
Q 275 2613 809 3098 
Q 1344 3584 2291 3584 
Q 2566 3584 2833 3536 
Q 3100 3488 3366 3391 
z
" transform="scale(0.015625)"/>
      </defs>
      <use xlink:href="#DejaVuSans-Bold-54"/>
      <use xlink:href="#DejaVuSans-Bold-72" transform="translate(57.212891 0)"/>
      <use xlink:href="#DejaVuSans-Bold-61" transform="translate(106.529297 0)"/>
      <use xlink:href="#DejaVuSans-Bold-6e" transform="translate(174.009766 0)"/>
      <use xlink:href="#DejaVuSans-Bold-73" transform="translate(245.201172 0)"/>
      <use xlink:href="#DejaVuSans-Bold-66" transform="translate(304.722656 0)"/>
      <use xlink:href="#DejaVuSans-Bold-65" transform="translate(348.228516 0)"/>
      <use xlink:href="#DejaVuSans-Bold-72" transform="translate(416.050781 0)"/>
      <use xlink:href="#DejaVuSans-Bold-20" transform="translate(465.367188 0)"/>
      <use xlink:href="#DejaVuSans-Bold-50" transform="translate(500.181641 0)"/>
      <use xlink:href="#DejaVuSans-Bold-65" transform="translate(573.472656 0)"/>
      <use xlink:href="#DejaVuSans-Bold-72" transform="translate(641.294922 0)"/>
      <use xlink:href="#DejaVuSans-Bold-66" transform="translate(690.611328 0)"/>
      <use xlink:href="#DejaVuSans-Bold-6f" transform="translate(734.117188 0)"/>
      <use xlink:href="#DejaVuSans-Bold-72" transform="translate(802.818359 0)"/>
      <use xlink:href="#DejaVuSans-Bold-6d" transform="translate(852.134766 0)"/>
      <use xlink:href="#DejaVuSans-Bold-61" transform="translate(956.333984 0)"/>
      <use xlink:href="#DejaVuSans-Bold-6e" transform="translate(1023.814453 0)"/>
      <use xlink:href="#DejaVuSans-Bold-63" transform="translate(1095.005859 0)"/>
      <use xlink:href="#DejaVuSans-Bold-65" transform="translate(1154.283203 0)"/>
     </g>
    </g>
   </g>
   <g id="line2d_13">
    <path d="M 57.50125 76.213434 
L 60.272967 89.082625 
L 63.044684 75.27541 
L 65.816402 59.790025 
L 68.588119 93.727365 
L 71.359836 94.675233 
L 74.131553 61.579781 
L 76.90327 77.768189 
L 79.674987 101.937961 
L 82.446705 83.886314 
L 85.218422 103.720605 
L 87.990139 104.712188 
L 90.761856 92.374232 
L 93.533573 133.784694 
L 96.30529 131.196575 
L 99.077008 110.317658 
L 101.848725 119.72429 
L 104.620442 95.758042 
L 107.392159 119.653007 
L 110.163876 130.068473 
L 112.935593 76.986287 
L 115.707311 109.689091 
L 118.479028 105.130801 
L 121.250745 134.094809 
L 124.022462 118.515101 
L 126.794179 107.160648 
L 129.565896 131.799899 
L 132.337614 104.086136 
L 135.109331 123.36395 
L 137.881048 118.512028 
L 140.652765 125.280351 
L 143.424482 80.157688 
L 146.196199 116.133726 
L 148.967917 136.685855 
L 151.739634 102.334315 
L 154.511351 141.644843 
L 157.283068 115.751853 
L 160.054785 157.411842 
L 162.826503 146.504606 
L 165.59822 118.821713 
L 168.369937 109.60185 
L 171.141654 121.196667 
L 173.913371 127.533261 
L 176.685088 131.963156 
L 179.456806 155.016054 
L 182.228523 141.720897 
L 185.00024 137.802779 
L 187.771957 110.256678 
L 190.543674 124.600098 
L 193.315391 165.098448 
L 196.087109 126.863186 
L 198.858826 141.125171 
L 201.630543 147.552314 
L 204.40226 124.308488 
L 207.173977 117.384336 
L 209.945694 120.204634 
L 212.717412 154.391937 
L 215.489129 145.389855 
L 218.260846 134.313809 
L 221.032563 123.166312 
L 223.80428 151.425229 
L 226.575997 146.862982 
L 229.347715 165.095828 
L 232.119432 167.731245 
L 234.891149 130.9677 
L 237.662866 121.708246 
L 240.434583 149.470233 
L 243.206301 130.226283 
L 245.978018 143.22536 
L 248.749735 163.074258 
L 251.521452 145.126226 
L 254.293169 123.984275 
L 257.064886 154.479974 
L 259.836604 125.381109 
L 262.608321 204.886538 
L 265.380038 141.221602 
L 268.151755 155.965873 
L 270.923472 164.161792 
L 273.695189 157.773731 
L 276.466907 197.759013 
L 279.238624 165.516886 
L 282.010341 155.636574 
L 284.782058 135.543323 
L 287.553775 173.967266 
L 290.325492 180.364064 
L 293.09721 175.553602 
L 295.868927 149.896189 
L 298.640644 161.858086 
L 301.412361 178.923859 
L 304.184078 160.29035 
L 306.955795 169.052029 
L 309.727513 153.637494 
L 312.49923 185.951172 
L 315.270947 179.870574 
L 318.042664 182.028652 
L 320.814381 203.091302 
L 323.586098 171.00428 
L 326.357816 172.610763 
L 329.129533 178.363963 
L 331.90125 183.812251 
" clip-path="url(#paa97f43cc9)" style="fill: none; stroke: #1f77b4; stroke-opacity: 0.5; stroke-width: 1.5; stroke-linecap: square"/>
    <defs>
     <path id="m6d0415d9b2" d="M 0 1.5 
C 0.397805 1.5 0.77937 1.341951 1.06066 1.06066 
C 1.341951 0.77937 1.5 0.397805 1.5 0 
C 1.5 -0.397805 1.341951 -0.77937 1.06066 -1.06066 
C 0.77937 -1.341951 0.397805 -1.5 0 -1.5 
C -0.397805 -1.5 -0.77937 -1.341951 -1.06066 -1.06066 
C -1.341951 -0.77937 -1.5 -0.397805 -1.5 0 
C -1.5 0.397805 -1.341951 0.77937 -1.06066 1.06066 
C -0.77937 1.341951 -0.397805 1.5 0 1.5 
z
" style="stroke: #1f77b4; stroke-opacity: 0.5"/>
    </defs>
    <g clip-path="url(#paa97f43cc9)">
     <use xlink:href="#m6d0415d9b2" x="57.50125" y="76.213434" style="fill: #1f77b4; fill-opacity: 0.5; stroke: #1f77b4; stroke-opacity: 0.5"/>
     <use xlink:href="#m6d0415d9b2" x="60.272967" y="89.082625" style="fill: #1f77b4; fill-opacity: 0.5; stroke: #1f77b4; stroke-opacity: 0.5"/>
     <use xlink:href="#m6d0415d9b2" x="63.044684" y="75.27541" style="fill: #1f77b4; fill-opacity: 0.5; stroke: #1f77b4; stroke-opacity: 0.5"/>
     <use xlink:href="#m6d0415d9b2" x="65.816402" y="59.790025" style="fill: #1f77b4; fill-opacity: 0.5; stroke: #1f77b4; stroke-opacity: 0.5"/>
     <use xlink:href="#m6d0415d9b2" x="68.588119" y="93.727365" style="fill: #1f77b4; fill-opacity: 0.5; stroke: #1f77b4; stroke-opacity: 0.5"/>
     <use xlink:href="#m6d0415d9b2" x="71.359836" y="94.675233" style="fill: #1f77b4; fill-opacity: 0.5; stroke: #1f77b4; stroke-opacity: 0.5"/>
     <use xlink:href="#m6d0415d9b2" x="74.131553" y="61.579781" style="fill: #1f77b4; fill-opacity: 0.5; stroke: #1f77b4; stroke-opacity: 0.5"/>
     <use xlink:href="#m6d0415d9b2" x="76.90327" y="77.768189" style="fill: #1f77b4; fill-opacity: 0.5; stroke: #1f77b4; stroke-opacity: 0.5"/>
     <use xlink:href="#m6d0415d9b2" x="79.674987" y="101.937961" style="fill: #1f77b4; fill-opacity: 0.5; stroke: #1f77b4; stroke-opacity: 0.5"/>
     <use xlink:href="#m6d0415d9b2" x="82.446705" y="83.886314" style="fill: #1f77b4; fill-opacity: 0.5; stroke: #1f77b4; stroke-opacity: 0.5"/>
     <use xlink:href="#m6d0415d9b2" x="85.218422" y="103.720605" style="fill: #1f77b4; fill-opacity: 0.5; stroke: #1f77b4; stroke-opacity: 0.5"/>
     <use xlink:href="#m6d0415d9b2" x="87.990139" y="104.712188" style="fill: #1f77b4; fill-opacity: 0.5; stroke: #1f77b4; stroke-opacity: 0.5"/>
     <use xlink:href="#m6d0415d9b2" x="90.761856" y="92.374232" style="fill: #1f77b4; fill-opacity: 0.5; stroke: #1f77b4; stroke-opacity: 0.5"/>
     <use xlink:href="#m6d0415d9b2" x="93.533573" y="133.784694" style="fill: #1f77b4; fill-opacity: 0.5; stroke: #1f77b4; stroke-opacity: 0.5"/>
     <use xlink:href="#m6d0415d9b2" x="96.30529" y="131.196575" style="fill: #1f77b4; fill-opacity: 0.5; stroke: #1f77b4; stroke-opacity: 0.5"/>
     <use xlink:href="#m6d0415d9b2" x="99.077008" y="110.317658" style="fill: #1f77b4; fill-opacity: 0.5; stroke: #1f77b4; stroke-opacity: 0.5"/>
     <use xlink:href="#m6d0415d9b2" x="101.848725" y="119.72429" style="fill: #1f77b4; fill-opacity: 0.5; stroke: #1f77b4; stroke-opacity: 0.5"/>
     <use xlink:href="#m6d0415d9b2" x="104.620442" y="95.758042" style="fill: #1f77b4; fill-opacity: 0.5; stroke: #1f77b4; stroke-opacity: 0.5"/>
     <use xlink:href="#m6d0415d9b2" x="107.392159" y="119.653007" style="fill: #1f77b4; fill-opacity: 0.5; stroke: #1f77b4; stroke-opacity: 0.5"/>
     <use xlink:href="#m6d0415d9b2" x="110.163876" y="130.068473" style="fill: #1f77b4; fill-opacity: 0.5; stroke: #1f77b4; stroke-opacity: 0.5"/>
     <use xlink:href="#m6d0415d9b2" x="112.935593" y="76.986287" style="fill: #1f77b4; fill-opacity: 0.5; stroke: #1f77b4; stroke-opacity: 0.5"/>
     <use xlink:href="#m6d0415d9b2" x="115.707311" y="109.689091" style="fill: #1f77b4; fill-opacity: 0.5; stroke: #1f77b4; stroke-opacity: 0.5"/>
     <use xlink:href="#m6d0415d9b2" x="118.479028" y="105.130801" style="fill: #1f77b4; fill-opacity: 0.5; stroke: #1f77b4; stroke-opacity: 0.5"/>
     <use xlink:href="#m6d0415d9b2" x="121.250745" y="134.094809" style="fill: #1f77b4; fill-opacity: 0.5; stroke: #1f77b4; stroke-opacity: 0.5"/>
     <use xlink:href="#m6d0415d9b2" x="124.022462" y="118.515101" style="fill: #1f77b4; fill-opacity: 0.5; stroke: #1f77b4; stroke-opacity: 0.5"/>
     <use xlink:href="#m6d0415d9b2" x="126.794179" y="107.160648" style="fill: #1f77b4; fill-opacity: 0.5; stroke: #1f77b4; stroke-opacity: 0.5"/>
     <use xlink:href="#m6d0415d9b2" x="129.565896" y="131.799899" style="fill: #1f77b4; fill-opacity: 0.5; stroke: #1f77b4; stroke-opacity: 0.5"/>
     <use xlink:href="#m6d0415d9b2" x="132.337614" y="104.086136" style="fill: #1f77b4; fill-opacity: 0.5; stroke: #1f77b4; stroke-opacity: 0.5"/>
     <use xlink:href="#m6d0415d9b2" x="135.109331" y="123.36395" style="fill: #1f77b4; fill-opacity: 0.5; stroke: #1f77b4; stroke-opacity: 0.5"/>
     <use xlink:href="#m6d0415d9b2" x="137.881048" y="118.512028" style="fill: #1f77b4; fill-opacity: 0.5; stroke: #1f77b4; stroke-opacity: 0.5"/>
     <use xlink:href="#m6d0415d9b2" x="140.652765" y="125.280351" style="fill: #1f77b4; fill-opacity: 0.5; stroke: #1f77b4; stroke-opacity: 0.5"/>
     <use xlink:href="#m6d0415d9b2" x="143.424482" y="80.157688" style="fill: #1f77b4; fill-opacity: 0.5; stroke: #1f77b4; stroke-opacity: 0.5"/>
     <use xlink:href="#m6d0415d9b2" x="146.196199" y="116.133726" style="fill: #1f77b4; fill-opacity: 0.5; stroke: #1f77b4; stroke-opacity: 0.5"/>
     <use xlink:href="#m6d0415d9b2" x="148.967917" y="136.685855" style="fill: #1f77b4; fill-opacity: 0.5; stroke: #1f77b4; stroke-opacity: 0.5"/>
     <use xlink:href="#m6d0415d9b2" x="151.739634" y="102.334315" style="fill: #1f77b4; fill-opacity: 0.5; stroke: #1f77b4; stroke-opacity: 0.5"/>
     <use xlink:href="#m6d0415d9b2" x="154.511351" y="141.644843" style="fill: #1f77b4; fill-opacity: 0.5; stroke: #1f77b4; stroke-opacity: 0.5"/>
     <use xlink:href="#m6d0415d9b2" x="157.283068" y="115.751853" style="fill: #1f77b4; fill-opacity: 0.5; stroke: #1f77b4; stroke-opacity: 0.5"/>
     <use xlink:href="#m6d0415d9b2" x="160.054785" y="157.411842" style="fill: #1f77b4; fill-opacity: 0.5; stroke: #1f77b4; stroke-opacity: 0.5"/>
     <use xlink:href="#m6d0415d9b2" x="162.826503" y="146.504606" style="fill: #1f77b4; fill-opacity: 0.5; stroke: #1f77b4; stroke-opacity: 0.5"/>
     <use xlink:href="#m6d0415d9b2" x="165.59822" y="118.821713" style="fill: #1f77b4; fill-opacity: 0.5; stroke: #1f77b4; stroke-opacity: 0.5"/>
     <use xlink:href="#m6d0415d9b2" x="168.369937" y="109.60185" style="fill: #1f77b4; fill-opacity: 0.5; stroke: #1f77b4; stroke-opacity: 0.5"/>
     <use xlink:href="#m6d0415d9b2" x="171.141654" y="121.196667" style="fill: #1f77b4; fill-opacity: 0.5; stroke: #1f77b4; stroke-opacity: 0.5"/>
     <use xlink:href="#m6d0415d9b2" x="173.913371" y="127.533261" style="fill: #1f77b4; fill-opacity: 0.5; stroke: #1f77b4; stroke-opacity: 0.5"/>
     <use xlink:href="#m6d0415d9b2" x="176.685088" y="131.963156" style="fill: #1f77b4; fill-opacity: 0.5; stroke: #1f77b4; stroke-opacity: 0.5"/>
     <use xlink:href="#m6d0415d9b2" x="179.456806" y="155.016054" style="fill: #1f77b4; fill-opacity: 0.5; stroke: #1f77b4; stroke-opacity: 0.5"/>
     <use xlink:href="#m6d0415d9b2" x="182.228523" y="141.720897" style="fill: #1f77b4; fill-opacity: 0.5; stroke: #1f77b4; stroke-opacity: 0.5"/>
     <use xlink:href="#m6d0415d9b2" x="185.00024" y="137.802779" style="fill: #1f77b4; fill-opacity: 0.5; stroke: #1f77b4; stroke-opacity: 0.5"/>
     <use xlink:href="#m6d0415d9b2" x="187.771957" y="110.256678" style="fill: #1f77b4; fill-opacity: 0.5; stroke: #1f77b4; stroke-opacity: 0.5"/>
     <use xlink:href="#m6d0415d9b2" x="190.543674" y="124.600098" style="fill: #1f77b4; fill-opacity: 0.5; stroke: #1f77b4; stroke-opacity: 0.5"/>
     <use xlink:href="#m6d0415d9b2" x="193.315391" y="165.098448" style="fill: #1f77b4; fill-opacity: 0.5; stroke: #1f77b4; stroke-opacity: 0.5"/>
     <use xlink:href="#m6d0415d9b2" x="196.087109" y="126.863186" style="fill: #1f77b4; fill-opacity: 0.5; stroke: #1f77b4; stroke-opacity: 0.5"/>
     <use xlink:href="#m6d0415d9b2" x="198.858826" y="141.125171" style="fill: #1f77b4; fill-opacity: 0.5; stroke: #1f77b4; stroke-opacity: 0.5"/>
     <use xlink:href="#m6d0415d9b2" x="201.630543" y="147.552314" style="fill: #1f77b4; fill-opacity: 0.5; stroke: #1f77b4; stroke-opacity: 0.5"/>
     <use xlink:href="#m6d0415d9b2" x="204.40226" y="124.308488" style="fill: #1f77b4; fill-opacity: 0.5; stroke: #1f77b4; stroke-opacity: 0.5"/>
     <use xlink:href="#m6d0415d9b2" x="207.173977" y="117.384336" style="fill: #1f77b4; fill-opacity: 0.5; stroke: #1f77b4; stroke-opacity: 0.5"/>
     <use xlink:href="#m6d0415d9b2" x="209.945694" y="120.204634" style="fill: #1f77b4; fill-opacity: 0.5; stroke: #1f77b4; stroke-opacity: 0.5"/>
     <use xlink:href="#m6d0415d9b2" x="212.717412" y="154.391937" style="fill: #1f77b4; fill-opacity: 0.5; stroke: #1f77b4; stroke-opacity: 0.5"/>
     <use xlink:href="#m6d0415d9b2" x="215.489129" y="145.389855" style="fill: #1f77b4; fill-opacity: 0.5; stroke: #1f77b4; stroke-opacity: 0.5"/>
     <use xlink:href="#m6d0415d9b2" x="218.260846" y="134.313809" style="fill: #1f77b4; fill-opacity: 0.5; stroke: #1f77b4; stroke-opacity: 0.5"/>
     <use xlink:href="#m6d0415d9b2" x="221.032563" y="123.166312" style="fill: #1f77b4; fill-opacity: 0.5; stroke: #1f77b4; stroke-opacity: 0.5"/>
     <use xlink:href="#m6d0415d9b2" x="223.80428" y="151.425229" style="fill: #1f77b4; fill-opacity: 0.5; stroke: #1f77b4; stroke-opacity: 0.5"/>
     <use xlink:href="#m6d0415d9b2" x="226.575997" y="146.862982" style="fill: #1f77b4; fill-opacity: 0.5; stroke: #1f77b4; stroke-opacity: 0.5"/>
     <use xlink:href="#m6d0415d9b2" x="229.347715" y="165.095828" style="fill: #1f77b4; fill-opacity: 0.5; stroke: #1f77b4; stroke-opacity: 0.5"/>
     <use xlink:href="#m6d0415d9b2" x="232.119432" y="167.731245" style="fill: #1f77b4; fill-opacity: 0.5; stroke: #1f77b4; stroke-opacity: 0.5"/>
     <use xlink:href="#m6d0415d9b2" x="234.891149" y="130.9677" style="fill: #1f77b4; fill-opacity: 0.5; stroke: #1f77b4; stroke-opacity: 0.5"/>
     <use xlink:href="#m6d0415d9b2" x="237.662866" y="121.708246" style="fill: #1f77b4; fill-opacity: 0.5; stroke: #1f77b4; stroke-opacity: 0.5"/>
     <use xlink:href="#m6d0415d9b2" x="240.434583" y="149.470233" style="fill: #1f77b4; fill-opacity: 0.5; stroke: #1f77b4; stroke-opacity: 0.5"/>
     <use xlink:href="#m6d0415d9b2" x="243.206301" y="130.226283" style="fill: #1f77b4; fill-opacity: 0.5; stroke: #1f77b4; stroke-opacity: 0.5"/>
     <use xlink:href="#m6d0415d9b2" x="245.978018" y="143.22536" style="fill: #1f77b4; fill-opacity: 0.5; stroke: #1f77b4; stroke-opacity: 0.5"/>
     <use xlink:href="#m6d0415d9b2" x="248.749735" y="163.074258" style="fill: #1f77b4; fill-opacity: 0.5; stroke: #1f77b4; stroke-opacity: 0.5"/>
     <use xlink:href="#m6d0415d9b2" x="251.521452" y="145.126226" style="fill: #1f77b4; fill-opacity: 0.5; stroke: #1f77b4; stroke-opacity: 0.5"/>
     <use xlink:href="#m6d0415d9b2" x="254.293169" y="123.984275" style="fill: #1f77b4; fill-opacity: 0.5; stroke: #1f77b4; stroke-opacity: 0.5"/>
     <use xlink:href="#m6d0415d9b2" x="257.064886" y="154.479974" style="fill: #1f77b4; fill-opacity: 0.5; stroke: #1f77b4; stroke-opacity: 0.5"/>
     <use xlink:href="#m6d0415d9b2" x="259.836604" y="125.381109" style="fill: #1f77b4; fill-opacity: 0.5; stroke: #1f77b4; stroke-opacity: 0.5"/>
     <use xlink:href="#m6d0415d9b2" x="262.608321" y="204.886538" style="fill: #1f77b4; fill-opacity: 0.5; stroke: #1f77b4; stroke-opacity: 0.5"/>
     <use xlink:href="#m6d0415d9b2" x="265.380038" y="141.221602" style="fill: #1f77b4; fill-opacity: 0.5; stroke: #1f77b4; stroke-opacity: 0.5"/>
     <use xlink:href="#m6d0415d9b2" x="268.151755" y="155.965873" style="fill: #1f77b4; fill-opacity: 0.5; stroke: #1f77b4; stroke-opacity: 0.5"/>
     <use xlink:href="#m6d0415d9b2" x="270.923472" y="164.161792" style="fill: #1f77b4; fill-opacity: 0.5; stroke: #1f77b4; stroke-opacity: 0.5"/>
     <use xlink:href="#m6d0415d9b2" x="273.695189" y="157.773731" style="fill: #1f77b4; fill-opacity: 0.5; stroke: #1f77b4; stroke-opacity: 0.5"/>
     <use xlink:href="#m6d0415d9b2" x="276.466907" y="197.759013" style="fill: #1f77b4; fill-opacity: 0.5; stroke: #1f77b4; stroke-opacity: 0.5"/>
     <use xlink:href="#m6d0415d9b2" x="279.238624" y="165.516886" style="fill: #1f77b4; fill-opacity: 0.5; stroke: #1f77b4; stroke-opacity: 0.5"/>
     <use xlink:href="#m6d0415d9b2" x="282.010341" y="155.636574" style="fill: #1f77b4; fill-opacity: 0.5; stroke: #1f77b4; stroke-opacity: 0.5"/>
     <use xlink:href="#m6d0415d9b2" x="284.782058" y="135.543323" style="fill: #1f77b4; fill-opacity: 0.5; stroke: #1f77b4; stroke-opacity: 0.5"/>
     <use xlink:href="#m6d0415d9b2" x="287.553775" y="173.967266" style="fill: #1f77b4; fill-opacity: 0.5; stroke: #1f77b4; stroke-opacity: 0.5"/>
     <use xlink:href="#m6d0415d9b2" x="290.325492" y="180.364064" style="fill: #1f77b4; fill-opacity: 0.5; stroke: #1f77b4; stroke-opacity: 0.5"/>
     <use xlink:href="#m6d0415d9b2" x="293.09721" y="175.553602" style="fill: #1f77b4; fill-opacity: 0.5; stroke: #1f77b4; stroke-opacity: 0.5"/>
     <use xlink:href="#m6d0415d9b2" x="295.868927" y="149.896189" style="fill: #1f77b4; fill-opacity: 0.5; stroke: #1f77b4; stroke-opacity: 0.5"/>
     <use xlink:href="#m6d0415d9b2" x="298.640644" y="161.858086" style="fill: #1f77b4; fill-opacity: 0.5; stroke: #1f77b4; stroke-opacity: 0.5"/>
     <use xlink:href="#m6d0415d9b2" x="301.412361" y="178.923859" style="fill: #1f77b4; fill-opacity: 0.5; stroke: #1f77b4; stroke-opacity: 0.5"/>
     <use xlink:href="#m6d0415d9b2" x="304.184078" y="160.29035" style="fill: #1f77b4; fill-opacity: 0.5; stroke: #1f77b4; stroke-opacity: 0.5"/>
     <use xlink:href="#m6d0415d9b2" x="306.955795" y="169.052029" style="fill: #1f77b4; fill-opacity: 0.5; stroke: #1f77b4; stroke-opacity: 0.5"/>
     <use xlink:href="#m6d0415d9b2" x="309.727513" y="153.637494" style="fill: #1f77b4; fill-opacity: 0.5; stroke: #1f77b4; stroke-opacity: 0.5"/>
     <use xlink:href="#m6d0415d9b2" x="312.49923" y="185.951172" style="fill: #1f77b4; fill-opacity: 0.5; stroke: #1f77b4; stroke-opacity: 0.5"/>
     <use xlink:href="#m6d0415d9b2" x="315.270947" y="179.870574" style="fill: #1f77b4; fill-opacity: 0.5; stroke: #1f77b4; stroke-opacity: 0.5"/>
     <use xlink:href="#m6d0415d9b2" x="318.042664" y="182.028652" style="fill: #1f77b4; fill-opacity: 0.5; stroke: #1f77b4; stroke-opacity: 0.5"/>
     <use xlink:href="#m6d0415d9b2" x="320.814381" y="203.091302" style="fill: #1f77b4; fill-opacity: 0.5; stroke: #1f77b4; stroke-opacity: 0.5"/>
     <use xlink:href="#m6d0415d9b2" x="323.586098" y="171.00428" style="fill: #1f77b4; fill-opacity: 0.5; stroke: #1f77b4; stroke-opacity: 0.5"/>
     <use xlink:href="#m6d0415d9b2" x="326.357816" y="172.610763" style="fill: #1f77b4; fill-opacity: 0.5; stroke: #1f77b4; stroke-opacity: 0.5"/>
     <use xlink:href="#m6d0415d9b2" x="329.129533" y="178.363963" style="fill: #1f77b4; fill-opacity: 0.5; stroke: #1f77b4; stroke-opacity: 0.5"/>
     <use xlink:href="#m6d0415d9b2" x="331.90125" y="183.812251" style="fill: #1f77b4; fill-opacity: 0.5; stroke: #1f77b4; stroke-opacity: 0.5"/>
    </g>
   </g>
   <g id="patch_3">
    <path d="M 43.78125 243.118281 
L 43.78125 21.558281 
" style="fill: none; stroke: #000000; stroke-width: 0.8; stroke-linejoin: miter; stroke-linecap: square"/>
   </g>
   <g id="patch_4">
    <path d="M 43.78125 243.118281 
L 345.62125 243.118281 
" style="fill: none; stroke: #000000; stroke-width: 0.8; stroke-linejoin: miter; stroke-linecap: square"/>
   </g>
   <g id="text_15">
    <g id="patch_5">
     <path d="M 126.802578 225.534 
L 262.599922 225.534 
Q 265.299922 225.534 265.299922 222.834 
L 265.299922 204.045656 
Q 265.299922 201.345656 262.599922 201.345656 
L 126.802578 201.345656 
Q 124.102578 201.345656 124.102578 204.045656 
L 124.102578 222.834 
Q 124.102578 225.534 126.802578 225.534 
z
" style="fill: #ffffff; stroke: #cccccc; stroke-linejoin: miter"/>
    </g>
    <!-- Less data -->
    <g transform="translate(173.170156 210.88425) scale(0.09 -0.09)">
     <defs>
      <path id="DejaVuSans-Oblique-4c" d="M 1075 4666 
L 1709 4666 
L 909 525 
L 3181 525 
L 3078 0 
L 172 0 
L 1075 4666 
z
" transform="scale(0.015625)"/>
      <path id="DejaVuSans-Oblique-65" d="M 3078 2063 
Q 3088 2113 3092 2166 
Q 3097 2219 3097 2272 
Q 3097 2653 2873 2875 
Q 2650 3097 2266 3097 
Q 1838 3097 1509 2826 
Q 1181 2556 1013 2059 
L 3078 2063 
z
M 3578 1613 
L 903 1613 
Q 884 1494 878 1425 
Q 872 1356 872 1306 
Q 872 872 1139 634 
Q 1406 397 1894 397 
Q 2269 397 2603 481 
Q 2938 566 3225 728 
L 3116 159 
Q 2806 34 2476 -28 
Q 2147 -91 1806 -91 
Q 1078 -91 686 257 
Q 294 606 294 1247 
Q 294 1794 489 2264 
Q 684 2734 1063 3103 
Q 1306 3334 1642 3459 
Q 1978 3584 2356 3584 
Q 2950 3584 3301 3228 
Q 3653 2872 3653 2272 
Q 3653 2128 3634 1964 
Q 3616 1800 3578 1613 
z
" transform="scale(0.015625)"/>
      <path id="DejaVuSans-Oblique-73" d="M 3200 3397 
L 3091 2853 
Q 2863 2978 2609 3040 
Q 2356 3103 2088 3103 
Q 1634 3103 1373 2948 
Q 1113 2794 1113 2528 
Q 1113 2219 1719 2053 
Q 1766 2041 1788 2034 
L 1972 1978 
Q 2547 1819 2739 1644 
Q 2931 1469 2931 1166 
Q 2931 609 2489 259 
Q 2047 -91 1331 -91 
Q 1053 -91 747 -37 
Q 441 16 72 128 
L 184 722 
Q 500 559 806 475 
Q 1113 391 1394 391 
Q 1816 391 2080 572 
Q 2344 753 2344 1031 
Q 2344 1331 1650 1516 
L 1591 1531 
L 1394 1581 
Q 956 1697 753 1886 
Q 550 2075 550 2369 
Q 550 2928 970 3256 
Q 1391 3584 2113 3584 
Q 2397 3584 2667 3537 
Q 2938 3491 3200 3397 
z
" transform="scale(0.015625)"/>
      <path id="DejaVuSans-Oblique-20" transform="scale(0.015625)"/>
      <path id="DejaVuSans-Oblique-64" d="M 2675 525 
Q 2444 222 2128 65 
Q 1813 -91 1428 -91 
Q 903 -91 598 267 
Q 294 625 294 1247 
Q 294 1766 478 2236 
Q 663 2706 1013 3078 
Q 1244 3325 1534 3454 
Q 1825 3584 2144 3584 
Q 2481 3584 2739 3421 
Q 2997 3259 3138 2956 
L 3513 4863 
L 4091 4863 
L 3144 0 
L 2566 0 
L 2675 525 
z
M 891 1350 
Q 891 897 1095 644 
Q 1300 391 1663 391 
Q 1931 391 2161 520 
Q 2391 650 2566 903 
Q 2750 1166 2856 1509 
Q 2963 1853 2963 2188 
Q 2963 2622 2758 2865 
Q 2553 3109 2194 3109 
Q 1922 3109 1687 2981 
Q 1453 2853 1288 2613 
Q 1106 2353 998 2009 
Q 891 1666 891 1350 
z
" transform="scale(0.015625)"/>
      <path id="DejaVuSans-Oblique-61" d="M 3438 1997 
L 3047 0 
L 2472 0 
L 2578 531 
Q 2325 219 2001 64 
Q 1678 -91 1281 -91 
Q 834 -91 548 182 
Q 263 456 263 884 
Q 263 1497 752 1853 
Q 1241 2209 2100 2209 
L 2900 2209 
L 2931 2363 
Q 2938 2388 2941 2417 
Q 2944 2447 2944 2509 
Q 2944 2788 2717 2942 
Q 2491 3097 2081 3097 
Q 1800 3097 1504 3025 
Q 1209 2953 897 2809 
L 997 3341 
Q 1322 3463 1633 3523 
Q 1944 3584 2234 3584 
Q 2853 3584 3176 3315 
Q 3500 3047 3500 2534 
Q 3500 2431 3484 2292 
Q 3469 2153 3438 1997 
z
M 2816 1759 
L 2241 1759 
Q 1534 1759 1195 1570 
Q 856 1381 856 984 
Q 856 709 1029 553 
Q 1203 397 1509 397 
Q 1978 397 2328 733 
Q 2678 1069 2791 1631 
L 2816 1759 
z
" transform="scale(0.015625)"/>
      <path id="DejaVuSans-Oblique-74" d="M 2706 3500 
L 2619 3053 
L 1472 3053 
L 1100 1153 
Q 1081 1047 1072 975 
Q 1063 903 1063 863 
Q 1063 663 1183 572 
Q 1303 481 1569 481 
L 2150 481 
L 2053 0 
L 1503 0 
Q 991 0 739 200 
Q 488 400 488 806 
Q 488 878 497 964 
Q 506 1050 525 1153 
L 897 3053 
L 409 3053 
L 500 3500 
L 978 3500 
L 1172 4494 
L 1747 4494 
L 1556 3500 
L 2706 3500 
z
" transform="scale(0.015625)"/>
     </defs>
     <use xlink:href="#DejaVuSans-Oblique-4c"/>
     <use xlink:href="#DejaVuSans-Oblique-65" transform="translate(55.712891 0)"/>
     <use xlink:href="#DejaVuSans-Oblique-73" transform="translate(117.236328 0)"/>
     <use xlink:href="#DejaVuSans-Oblique-73" transform="translate(169.335938 0)"/>
     <use xlink:href="#DejaVuSans-Oblique-20" transform="translate(221.435547 0)"/>
     <use xlink:href="#DejaVuSans-Oblique-64" transform="translate(253.222656 0)"/>
     <use xlink:href="#DejaVuSans-Oblique-61" transform="translate(316.699219 0)"/>
     <use xlink:href="#DejaVuSans-Oblique-74" transform="translate(377.978516 0)"/>
     <use xlink:href="#DejaVuSans-Oblique-61" transform="translate(417.1875 0)"/>
    </g>
    <!-- → More reliance on pretrained -->
    <g transform="translate(126.802578 220.962281) scale(0.09 -0.09)">
     <defs>
      <path id="DejaVuSans-Oblique-2192" d="M 5050 2147 
L 5050 1866 
L 3822 638 
L 3447 1013 
L 4175 1741 
L 366 1741 
L 366 2272 
L 4175 2272 
L 3447 3000 
L 3822 3375 
L 5050 2147 
z
" transform="scale(0.015625)"/>
      <path id="DejaVuSans-Oblique-4d" d="M 1081 4666 
L 2028 4666 
L 2572 1522 
L 4378 4666 
L 5350 4666 
L 4441 0 
L 3828 0 
L 4622 4091 
L 2791 897 
L 2175 897 
L 1581 4103 
L 788 0 
L 172 0 
L 1081 4666 
z
" transform="scale(0.015625)"/>
      <path id="DejaVuSans-Oblique-6f" d="M 1625 -91 
Q 1009 -91 651 289 
Q 294 669 294 1325 
Q 294 1706 417 2101 
Q 541 2497 738 2766 
Q 1047 3184 1428 3384 
Q 1809 3584 2291 3584 
Q 2888 3584 3255 3212 
Q 3622 2841 3622 2241 
Q 3622 1825 3500 1412 
Q 3378 1000 3181 728 
Q 2875 309 2494 109 
Q 2113 -91 1625 -91 
z
M 891 1344 
Q 891 869 1089 633 
Q 1288 397 1691 397 
Q 2269 397 2648 901 
Q 3028 1406 3028 2181 
Q 3028 2634 2825 2865 
Q 2622 3097 2228 3097 
Q 1903 3097 1650 2945 
Q 1397 2794 1197 2484 
Q 1050 2253 970 1956 
Q 891 1659 891 1344 
z
" transform="scale(0.015625)"/>
      <path id="DejaVuSans-Oblique-72" d="M 2853 2969 
Q 2766 3016 2653 3041 
Q 2541 3066 2413 3066 
Q 1953 3066 1609 2717 
Q 1266 2369 1153 1784 
L 800 0 
L 225 0 
L 909 3500 
L 1484 3500 
L 1375 2956 
Q 1603 3259 1920 3421 
Q 2238 3584 2597 3584 
Q 2691 3584 2781 3573 
Q 2872 3563 2963 3538 
L 2853 2969 
z
" transform="scale(0.015625)"/>
      <path id="DejaVuSans-Oblique-6c" d="M 1172 4863 
L 1747 4863 
L 800 0 
L 225 0 
L 1172 4863 
z
" transform="scale(0.015625)"/>
      <path id="DejaVuSans-Oblique-69" d="M 1172 4863 
L 1747 4863 
L 1606 4134 
L 1031 4134 
L 1172 4863 
z
M 909 3500 
L 1484 3500 
L 800 0 
L 225 0 
L 909 3500 
z
" transform="scale(0.015625)"/>
      <path id="DejaVuSans-Oblique-6e" d="M 3566 2113 
L 3156 0 
L 2578 0 
L 2988 2091 
Q 3016 2238 3031 2350 
Q 3047 2463 3047 2528 
Q 3047 2791 2881 2937 
Q 2716 3084 2419 3084 
Q 1956 3084 1622 2776 
Q 1288 2469 1184 1941 
L 800 0 
L 225 0 
L 903 3500 
L 1478 3500 
L 1363 2950 
Q 1603 3253 1940 3418 
Q 2278 3584 2650 3584 
Q 3113 3584 3367 3334 
Q 3622 3084 3622 2631 
Q 3622 2519 3608 2391 
Q 3594 2263 3566 2113 
z
" transform="scale(0.015625)"/>
      <path id="DejaVuSans-Oblique-63" d="M 3431 3366 
L 3316 2797 
Q 3109 2947 2876 3022 
Q 2644 3097 2394 3097 
Q 2119 3097 1870 3000 
Q 1622 2903 1453 2725 
Q 1184 2453 1037 2087 
Q 891 1722 891 1331 
Q 891 859 1127 628 
Q 1363 397 1844 397 
Q 2081 397 2348 469 
Q 2616 541 2906 684 
L 2797 116 
Q 2547 13 2283 -39 
Q 2019 -91 1741 -91 
Q 1044 -91 669 257 
Q 294 606 294 1253 
Q 294 1797 489 2255 
Q 684 2713 1069 3078 
Q 1331 3328 1684 3456 
Q 2038 3584 2456 3584 
Q 2700 3584 2940 3529 
Q 3181 3475 3431 3366 
z
" transform="scale(0.015625)"/>
      <path id="DejaVuSans-Oblique-70" d="M 3175 2156 
Q 3175 2616 2975 2859 
Q 2775 3103 2400 3103 
Q 2144 3103 1911 2972 
Q 1678 2841 1497 2591 
Q 1319 2344 1212 1994 
Q 1106 1644 1106 1300 
Q 1106 863 1306 627 
Q 1506 391 1875 391 
Q 2147 391 2380 519 
Q 2613 647 2778 891 
Q 2956 1147 3065 1494 
Q 3175 1841 3175 2156 
z
M 1394 2969 
Q 1625 3272 1939 3428 
Q 2253 3584 2638 3584 
Q 3175 3584 3472 3232 
Q 3769 2881 3769 2247 
Q 3769 1728 3584 1258 
Q 3400 788 3053 416 
Q 2822 169 2531 39 
Q 2241 -91 1919 -91 
Q 1547 -91 1294 64 
Q 1041 219 916 525 
L 556 -1331 
L -19 -1331 
L 922 3500 
L 1497 3500 
L 1394 2969 
z
" transform="scale(0.015625)"/>
     </defs>
     <use xlink:href="#DejaVuSans-Oblique-2192"/>
     <use xlink:href="#DejaVuSans-Oblique-20" transform="translate(83.789062 0)"/>
     <use xlink:href="#DejaVuSans-Oblique-4d" transform="translate(115.576172 0)"/>
     <use xlink:href="#DejaVuSans-Oblique-6f" transform="translate(201.855469 0)"/>
     <use xlink:href="#DejaVuSans-Oblique-72" transform="translate(263.037109 0)"/>
     <use xlink:href="#DejaVuSans-Oblique-65" transform="translate(304.150391 0)"/>
     <use xlink:href="#DejaVuSans-Oblique-20" transform="translate(365.673828 0)"/>
     <use xlink:href="#DejaVuSans-Oblique-72" transform="translate(397.460938 0)"/>
     <use xlink:href="#DejaVuSans-Oblique-65" transform="translate(438.574219 0)"/>
     <use xlink:href="#DejaVuSans-Oblique-6c" transform="translate(500.097656 0)"/>
     <use xlink:href="#DejaVuSans-Oblique-69" transform="translate(527.880859 0)"/>
     <use xlink:href="#DejaVuSans-Oblique-61" transform="translate(555.664062 0)"/>
     <use xlink:href="#DejaVuSans-Oblique-6e" transform="translate(616.943359 0)"/>
     <use xlink:href="#DejaVuSans-Oblique-63" transform="translate(680.322266 0)"/>
     <use xlink:href="#DejaVuSans-Oblique-65" transform="translate(735.302734 0)"/>
     <use xlink:href="#DejaVuSans-Oblique-20" transform="translate(796.826172 0)"/>
     <use xlink:href="#DejaVuSans-Oblique-6f" transform="translate(828.613281 0)"/>
     <use xlink:href="#DejaVuSans-Oblique-6e" transform="translate(889.794922 0)"/>
     <use xlink:href="#DejaVuSans-Oblique-20" transform="translate(953.173828 0)"/>
     <use xlink:href="#DejaVuSans-Oblique-70" transform="translate(984.960938 0)"/>
     <use xlink:href="#DejaVuSans-Oblique-72" transform="translate(1048.4375 0)"/>
     <use xlink:href="#DejaVuSans-Oblique-65" transform="translate(1089.550781 0)"/>
     <use xlink:href="#DejaVuSans-Oblique-74" transform="translate(1151.074219 0)"/>
     <use xlink:href="#DejaVuSans-Oblique-72" transform="translate(1190.283203 0)"/>
     <use xlink:href="#DejaVuSans-Oblique-61" transform="translate(1231.396484 0)"/>
     <use xlink:href="#DejaVuSans-Oblique-69" transform="translate(1292.675781 0)"/>
     <use xlink:href="#DejaVuSans-Oblique-6e" transform="translate(1320.458984 0)"/>
     <use xlink:href="#DejaVuSans-Oblique-65" transform="translate(1383.837891 0)"/>
     <use xlink:href="#DejaVuSans-Oblique-64" transform="translate(1445.361328 0)"/>
    </g>
   </g>
   <g id="text_16">
    <!-- B. Data Quantity -->
    <g transform="translate(43.78125 15.558281) scale(0.11 -0.11)">
     <defs>
      <path id="DejaVuSans-Bold-42" d="M 2456 2859 
Q 2741 2859 2887 2984 
Q 3034 3109 3034 3353 
Q 3034 3594 2887 3720 
Q 2741 3847 2456 3847 
L 1791 3847 
L 1791 2859 
L 2456 2859 
z
M 2497 819 
Q 2859 819 3042 972 
Q 3225 1125 3225 1434 
Q 3225 1738 3044 1889 
Q 2863 2041 2497 2041 
L 1791 2041 
L 1791 819 
L 2497 819 
z
M 3616 2497 
Q 4003 2384 4215 2081 
Q 4428 1778 4428 1338 
Q 4428 663 3972 331 
Q 3516 0 2584 0 
L 588 0 
L 588 4666 
L 2394 4666 
Q 3366 4666 3802 4372 
Q 4238 4078 4238 3431 
Q 4238 3091 4078 2852 
Q 3919 2613 3616 2497 
z
" transform="scale(0.015625)"/>
      <path id="DejaVuSans-Bold-2e" d="M 653 1209 
L 1778 1209 
L 1778 0 
L 653 0 
L 653 1209 
z
" transform="scale(0.015625)"/>
     </defs>
     <use xlink:href="#DejaVuSans-Bold-42"/>
     <use xlink:href="#DejaVuSans-Bold-2e" transform="translate(76.220703 0)"/>
     <use xlink:href="#DejaVuSans-Bold-20" transform="translate(114.208984 0)"/>
     <use xlink:href="#DejaVuSans-Bold-44" transform="translate(149.023438 0)"/>
     <use xlink:href="#DejaVuSans-Bold-61" transform="translate(232.03125 0)"/>
     <use xlink:href="#DejaVuSans-Bold-74" transform="translate(299.511719 0)"/>
     <use xlink:href="#DejaVuSans-Bold-61" transform="translate(347.314453 0)"/>
     <use xlink:href="#DejaVuSans-Bold-20" transform="translate(414.794922 0)"/>
     <use xlink:href="#DejaVuSans-Bold-51" transform="translate(449.609375 0)"/>
     <use xlink:href="#DejaVuSans-Bold-75" transform="translate(534.619141 0)"/>
     <use xlink:href="#DejaVuSans-Bold-61" transform="translate(605.810547 0)"/>
     <use xlink:href="#DejaVuSans-Bold-6e" transform="translate(673.291016 0)"/>
     <use xlink:href="#DejaVuSans-Bold-74" transform="translate(744.482422 0)"/>
     <use xlink:href="#DejaVuSans-Bold-69" transform="translate(792.285156 0)"/>
     <use xlink:href="#DejaVuSans-Bold-74" transform="translate(826.5625 0)"/>
     <use xlink:href="#DejaVuSans-Bold-79" transform="translate(874.365234 0)"/>
    </g>
   </g>
  </g>
 </g>
 <defs>
  <clipPath id="paa97f43cc9">
   <rect x="43.78125" y="21.558281" width="301.84" height="221.56"/>
  </clipPath>
 </defs>
</svg>
