<?xml version="1.0" encoding="UTF-8" standalone="no"?>
<!DOCTYPE svg PUBLIC "-//W3C//DTD SVG 1.1//EN"
 "http://www.w3.org/Graphics/SVG/1.1/DTD/svg11.dtd">
<!-- Generated by graphviz version 2.43.0 (0)
 -->
<!-- Title: escalation Pages: 1 -->
<svg width="202pt" height="576pt"
 viewBox="0.00 0.00 202.25 576.00" xmlns="http://www.w3.org/2000/svg" xmlns:xlink="http://www.w3.org/1999/xlink">
<g id="graph0" class="graph" transform="scale(1.08 1.08) rotate(0) translate(4 530)">
<title>escalation</title>
<polygon fill="white" stroke="transparent" points="-4,4 -4,-530 183.5,-530 183.5,4 -4,4"/>
<!-- start -->
<g id="node1" class="node">
<title>start</title>
<path fill="#aec7e8" stroke="black" stroke-width="1.5" d="M127.5,-526C127.5,-526 65.5,-526 65.5,-526 59.5,-526 53.5,-520 53.5,-514 53.5,-514 53.5,-502 53.5,-502 53.5,-496 59.5,-490 65.5,-490 65.5,-490 127.5,-490 127.5,-490 133.5,-490 139.5,-496 139.5,-502 139.5,-502 139.5,-514 139.5,-514 139.5,-520 133.5,-526 127.5,-526"/>
<text text-anchor="middle" x="96.5" y="-511" font-family="Arial" font-size="10.00">Start with</text>
<text text-anchor="middle" x="96.5" y="-500" font-family="Arial" font-size="10.00">Frozen Encoder</text>
</g>
<!-- probe -->
<g id="node2" class="node">
<title>probe</title>
<path fill="#98df8a" stroke="black" stroke-width="1.5" d="M120,-453C120,-453 73,-453 73,-453 67,-453 61,-447 61,-441 61,-441 61,-429 61,-429 61,-423 67,-417 73,-417 73,-417 120,-417 120,-417 126,-417 132,-423 132,-429 132,-429 132,-441 132,-441 132,-447 126,-453 120,-453"/>
<text text-anchor="middle" x="96.5" y="-438" font-family="Arial" font-size="10.00">Linear Probe</text>
<text text-anchor="middle" x="96.5" y="-427" font-family="Arial" font-size="10.00">Test</text>
</g>
<!-- start&#45;&gt;probe -->
<g id="edge1" class="edge">
<title>start&#45;&gt;probe</title>
<path fill="none" stroke="black" d="M96.5,-489.81C96.5,-481.79 96.5,-472.05 96.5,-463.07"/>
<polygon fill="black" stroke="black" points="100,-463.03 96.5,-453.03 93,-463.03 100,-463.03"/>
</g>
<!-- check1 -->
<g id="node3" class="node">
<title>check1</title>
<path fill="#fff8dc" stroke="black" stroke-width="1.5" d="M85.42,-375.38C85.42,-375.38 35.58,-354.62 35.58,-354.62 30.04,-352.31 30.04,-347.69 35.58,-345.38 35.58,-345.38 85.42,-324.62 85.42,-324.62 90.96,-322.31 102.04,-322.31 107.58,-324.62 107.58,-324.62 157.42,-345.38 157.42,-345.38 162.96,-347.69 162.96,-352.31 157.42,-354.62 157.42,-354.62 107.58,-375.38 107.58,-375.38 102.04,-377.69 90.96,-377.69 85.42,-375.38"/>
<text text-anchor="middle" x="96.5" y="-353" font-family="Arial" font-size="10.00">Performance</text>
<text text-anchor="middle" x="96.5" y="-342" font-family="Arial" font-size="10.00">Sufficient?</text>
</g>
<!-- probe&#45;&gt;check1 -->
<g id="edge2" class="edge">
<title>probe&#45;&gt;check1</title>
<path fill="none" stroke="black" d="M96.5,-416.8C96.5,-409.14 96.5,-399.78 96.5,-390.55"/>
<polygon fill="black" stroke="black" points="100,-390.27 96.5,-380.27 93,-390.27 100,-390.27"/>
</g>
<!-- partial -->
<g id="node4" class="node">
<title>partial</title>
<path fill="#ffbb78" stroke="black" stroke-width="1.5" d="M104,-269C104,-269 63,-269 63,-269 57,-269 51,-263 51,-257 51,-257 51,-245 51,-245 51,-239 57,-233 63,-233 63,-233 104,-233 104,-233 110,-233 116,-239 116,-245 116,-245 116,-257 116,-257 116,-263 110,-269 104,-269"/>
<text text-anchor="middle" x="83.5" y="-254" font-family="Arial" font-size="10.00">Unfreeze</text>
<text text-anchor="middle" x="83.5" y="-243" font-family="Arial" font-size="10.00">Top Layers</text>
</g>
<!-- check1&#45;&gt;partial -->
<g id="edge4" class="edge">
<title>check1&#45;&gt;partial</title>
<path fill="none" stroke="black" d="M92.81,-321.46C91.03,-308.2 88.91,-292.36 87.14,-279.15"/>
<polygon fill="black" stroke="black" points="90.61,-278.67 85.81,-269.22 83.67,-279.6 90.61,-278.67"/>
<text text-anchor="middle" x="100" y="-290.8" font-family="Times,serif" font-size="14.00">No</text>
</g>
<!-- done -->
<g id="node7" class="node">
<title>done</title>
<path fill="#2ca02c" stroke="black" stroke-width="1.5" d="M116.5,-36C116.5,-36 86.5,-36 86.5,-36 80.5,-36 74.5,-30 74.5,-24 74.5,-24 74.5,-12 74.5,-12 74.5,-6 80.5,0 86.5,0 86.5,0 116.5,0 116.5,0 122.5,0 128.5,-6 128.5,-12 128.5,-12 128.5,-24 128.5,-24 128.5,-30 122.5,-36 116.5,-36"/>
<text text-anchor="middle" x="101.5" y="-15.5" font-family="Arial" font-size="10.00" fill="white">Done</text>
</g>
<!-- check1&#45;&gt;done -->
<g id="edge3" class="edge">
<title>check1&#45;&gt;done</title>
<path fill="none" stroke="black" d="M110.54,-325.52C127.71,-296.81 154.5,-252 154.5,-252 154.5,-252 154.5,-252 154.5,-90 154.5,-90 135.59,-64.66 120.36,-44.26"/>
<polygon fill="black" stroke="black" points="123.12,-42.11 114.33,-36.19 117.51,-46.29 123.12,-42.11"/>
<text text-anchor="middle" x="167" y="-174.3" font-family="Times,serif" font-size="14.00">Yes</text>
</g>
<!-- check2 -->
<g id="node5" class="node">
<title>check2</title>
<path fill="#fff8dc" stroke="black" stroke-width="1.5" d="M55.17,-192.06C55.17,-192.06 26.1,-181.94 26.1,-181.94 20.44,-179.97 20.44,-176.03 26.1,-174.06 26.1,-174.06 55.17,-163.94 55.17,-163.94 60.83,-161.97 72.17,-161.97 77.83,-163.94 77.83,-163.94 106.9,-174.06 106.9,-174.06 112.56,-176.03 112.56,-179.97 106.9,-181.94 106.9,-181.94 77.83,-192.06 77.83,-192.06 72.17,-194.03 60.83,-194.03 55.17,-192.06"/>
<text text-anchor="middle" x="66.5" y="-175.5" font-family="Arial" font-size="10.00">Improved?</text>
</g>
<!-- partial&#45;&gt;check2 -->
<g id="edge5" class="edge">
<title>partial&#45;&gt;check2</title>
<path fill="none" stroke="black" d="M79.38,-232.81C77.39,-224.46 74.94,-214.25 72.72,-204.98"/>
<polygon fill="black" stroke="black" points="76.08,-203.97 70.34,-195.06 69.27,-205.6 76.08,-203.97"/>
</g>
<!-- full -->
<g id="node6" class="node">
<title>full</title>
<path fill="#d62728" stroke="black" stroke-width="1.5" d="M53,-109C53,-109 12,-109 12,-109 6,-109 0,-103 0,-97 0,-97 0,-85 0,-85 0,-79 6,-73 12,-73 12,-73 53,-73 53,-73 59,-73 65,-79 65,-85 65,-85 65,-97 65,-97 65,-103 59,-109 53,-109"/>
<text text-anchor="middle" x="32.5" y="-94" font-family="Arial" font-size="10.00" fill="white">Full</text>
<text text-anchor="middle" x="32.5" y="-83" font-family="Arial" font-size="10.00" fill="white">Fine&#45;tuning</text>
</g>
<!-- check2&#45;&gt;full -->
<g id="edge7" class="edge">
<title>check2&#45;&gt;full</title>
<path fill="none" stroke="black" d="M60.42,-161.8C55.61,-149.78 48.78,-132.69 43.07,-118.43"/>
<polygon fill="black" stroke="black" points="46.31,-117.09 39.34,-109.11 39.81,-119.69 46.31,-117.09"/>
<text text-anchor="middle" x="62" y="-130.8" font-family="Times,serif" font-size="14.00">No</text>
</g>
<!-- check2&#45;&gt;done -->
<g id="edge6" class="edge">
<title>check2&#45;&gt;done</title>
<path fill="none" stroke="black" d="M71.03,-161.14C73.68,-151.88 76.5,-142 76.5,-142 76.5,-142 88.64,-82.27 96,-46.06"/>
<polygon fill="black" stroke="black" points="99.46,-46.6 98.02,-36.1 92.6,-45.21 99.46,-46.6"/>
<text text-anchor="middle" x="102" y="-87.3" font-family="Times,serif" font-size="14.00">Yes</text>
</g>
<!-- full&#45;&gt;done -->
<g id="edge8" class="edge">
<title>full&#45;&gt;done</title>
<path fill="none" stroke="black" d="M49.2,-72.81C57.76,-64 68.34,-53.13 77.73,-43.46"/>
<polygon fill="black" stroke="black" points="80.49,-45.64 84.95,-36.03 75.47,-40.76 80.49,-45.64"/>
</g>
</g>
</svg>
