<?xml version="1.0" encoding="UTF-8" standalone="no"?>
<!DOCTYPE svg PUBLIC "-//W3C//DTD SVG 1.1//EN"
 "http://www.w3.org/Graphics/SVG/1.1/DTD/svg11.dtd">
<!-- Generated by graphviz version 2.43.0 (0)
 -->
<!-- Title: probing Pages: 1 -->
<svg width="720pt" height="61pt"
 viewBox="0.00 0.00 720.00 60.54" xmlns="http://www.w3.org/2000/svg" xmlns:xlink="http://www.w3.org/1999/xlink">
<g id="graph0" class="graph" transform="scale(1.08 1.08) rotate(0) translate(4 52)">
<title>probing</title>
<polygon fill="white" stroke="transparent" points="-4,4 -4,-52 662,-52 662,4 -4,4"/>
<!-- input -->
<g id="node1" class="node">
<title>input</title>
<path fill="#aec7e8" stroke="black" stroke-width="1.5" d="M60,-36C60,-36 12,-36 12,-36 6,-36 0,-30 0,-24 0,-24 0,-12 0,-12 0,-6 6,0 12,0 12,0 60,0 60,0 66,0 72,-6 72,-12 72,-12 72,-24 72,-24 72,-30 66,-36 60,-36"/>
<text text-anchor="middle" x="36" y="-21" font-family="Arial" font-size="10.00">Downstream</text>
<text text-anchor="middle" x="36" y="-10" font-family="Arial" font-size="10.00">Data</text>
</g>
<!-- encoder -->
<g id="node2" class="node">
<title>encoder</title>
<path fill="#9467bd" stroke="black" stroke-width="1.5" d="M151,-36C151,-36 121,-36 121,-36 115,-36 109,-30 109,-24 109,-24 109,-12 109,-12 109,-6 115,0 121,0 121,0 151,0 151,0 157,0 163,-6 163,-12 163,-12 163,-24 163,-24 163,-30 157,-36 151,-36"/>
<text text-anchor="middle" x="136" y="-21" font-family="Arial" font-size="10.00" fill="white">Frozen</text>
<text text-anchor="middle" x="136" y="-10" font-family="Arial" font-size="10.00" fill="white">Encoder</text>
</g>
<!-- input&#45;&gt;encoder -->
<g id="edge1" class="edge">
<title>input&#45;&gt;encoder</title>
<path fill="none" stroke="black" d="M72.1,-18C80.69,-18 89.9,-18 98.56,-18"/>
<polygon fill="black" stroke="black" points="98.75,-21.5 108.75,-18 98.75,-14.5 98.75,-21.5"/>
</g>
<!-- embed -->
<g id="node3" class="node">
<title>embed</title>
<path fill="#c5b0d5" stroke="black" stroke-width="1.5" d="M359,-36C359,-36 312,-36 312,-36 306,-36 300,-30 300,-24 300,-24 300,-12 300,-12 300,-6 306,0 312,0 312,0 359,0 359,0 365,0 371,-6 371,-12 371,-12 371,-24 371,-24 371,-30 365,-36 359,-36"/>
<text text-anchor="middle" x="335.5" y="-21" font-family="Arial" font-size="10.00">Fixed</text>
<text text-anchor="middle" x="335.5" y="-10" font-family="Arial" font-size="10.00">Embeddings</text>
</g>
<!-- encoder&#45;&gt;embed -->
<g id="edge2" class="edge">
<title>encoder&#45;&gt;embed</title>
<path fill="none" stroke="black" d="M163.23,-18C195.49,-18 250.79,-18 289.81,-18"/>
<polygon fill="black" stroke="black" points="289.85,-21.5 299.85,-18 289.85,-14.5 289.85,-21.5"/>
<text text-anchor="middle" x="231.5" y="-36.8" font-family="Times,serif" font-size="14.00">Forward pass</text>
<text text-anchor="middle" x="231.5" y="-21.8" font-family="Times,serif" font-size="14.00">(no gradients)</text>
</g>
<!-- probe -->
<g id="node4" class="node">
<title>probe</title>
<path fill="#ff7f0e" stroke="black" stroke-width="1.5" d="M466,-36C466,-36 420,-36 420,-36 414,-36 408,-30 408,-24 408,-24 408,-12 408,-12 408,-6 414,0 420,0 420,0 466,0 466,0 472,0 478,-6 478,-12 478,-12 478,-24 478,-24 478,-30 472,-36 466,-36"/>
<text text-anchor="middle" x="443" y="-21" font-family="Arial" font-size="10.00">Trainable</text>
<text text-anchor="middle" x="443" y="-10" font-family="Arial" font-size="10.00">Linear Layer</text>
</g>
<!-- embed&#45;&gt;probe -->
<g id="edge3" class="edge">
<title>embed&#45;&gt;probe</title>
<path fill="none" stroke="black" d="M371.04,-18C379.51,-18 388.69,-18 397.55,-18"/>
<polygon fill="black" stroke="black" points="397.74,-21.5 407.74,-18 397.74,-14.5 397.74,-21.5"/>
</g>
<!-- output -->
<g id="node5" class="node">
<title>output</title>
<path fill="#2ca02c" stroke="black" stroke-width="1.5" d="M646,-36C646,-36 605,-36 605,-36 599,-36 593,-30 593,-24 593,-24 593,-12 593,-12 593,-6 599,0 605,0 605,0 646,0 646,0 652,0 658,-6 658,-12 658,-12 658,-24 658,-24 658,-30 652,-36 646,-36"/>
<text text-anchor="middle" x="625.5" y="-15.5" font-family="Arial" font-size="10.00" fill="white">Predictions</text>
</g>
<!-- probe&#45;&gt;output -->
<g id="edge4" class="edge">
<title>probe&#45;&gt;output</title>
<path fill="none" stroke="black" d="M478.38,-18C508.06,-18 551.04,-18 582.7,-18"/>
<polygon fill="black" stroke="black" points="582.97,-21.5 592.97,-18 582.97,-14.5 582.97,-21.5"/>
<text text-anchor="middle" x="535.5" y="-36.8" font-family="Times,serif" font-size="14.00">Trained</text>
<text text-anchor="middle" x="535.5" y="-21.8" font-family="Times,serif" font-size="14.00">(gradients)</text>
</g>
</g>
</svg>
