<?xml version="1.0" encoding="UTF-8" standalone="no"?>
<!DOCTYPE svg PUBLIC "-//W3C//DTD SVG 1.1//EN"
 "http://www.w3.org/Graphics/SVG/1.1/DTD/svg11.dtd">
<!-- Generated by graphviz version 2.43.0 (0)
 -->
<!-- Title: decision Pages: 1 -->
<svg width="576pt" height="534pt"
 viewBox="0.00 0.00 576.00 533.67" xmlns="http://www.w3.org/2000/svg" xmlns:xlink="http://www.w3.org/1999/xlink">
<g id="graph0" class="graph" transform="scale(2.57 2.57) rotate(0) translate(4 204)">
<title>decision</title>
<polygon fill="white" stroke="transparent" points="-4,4 -4,-204 220.5,-204 220.5,4 -4,4"/>
<!-- start -->
<g id="node1" class="node">
<title>start</title>
<path fill="#fff8dc" stroke="black" stroke-width="1.5" d="M94.52,-196.51C94.52,-196.51 25.48,-175.49 25.48,-175.49 19.74,-173.75 19.74,-170.25 25.48,-168.51 25.48,-168.51 94.52,-147.49 94.52,-147.49 100.26,-145.75 111.74,-145.75 117.48,-147.49 117.48,-147.49 186.52,-168.51 186.52,-168.51 192.26,-170.25 192.26,-173.75 186.52,-175.49 186.52,-175.49 117.48,-196.51 117.48,-196.51 111.74,-198.25 100.26,-198.25 94.52,-196.51"/>
<text text-anchor="middle" x="106" y="-174.8" font-family="Arial" font-size="9.00">How much</text>
<text text-anchor="middle" x="106" y="-164.8" font-family="Arial" font-size="9.00">downstream data?</text>
</g>
<!-- little -->
<g id="node2" class="node">
<title>little</title>
<path fill="#aec7e8" stroke="black" stroke-width="1.5" d="M42,-108C42,-108 12,-108 12,-108 6,-108 0,-102 0,-96 0,-96 0,-84 0,-84 0,-78 6,-72 12,-72 12,-72 42,-72 42,-72 48,-72 54,-78 54,-84 54,-84 54,-96 54,-96 54,-102 48,-108 42,-108"/>
<text text-anchor="middle" x="27" y="-92.8" font-family="Arial" font-size="9.00">&lt; 1000</text>
<text text-anchor="middle" x="27" y="-82.8" font-family="Arial" font-size="9.00">samples</text>
</g>
<!-- start&#45;&gt;little -->
<g id="edge1" class="edge">
<title>start&#45;&gt;little</title>
<path fill="none" stroke="black" d="M85.24,-149.98C74.77,-139.37 62.01,-126.45 51.1,-115.4"/>
<polygon fill="black" stroke="black" points="53.41,-112.77 43.9,-108.11 48.43,-117.68 53.41,-112.77"/>
</g>
<!-- medium -->
<g id="node3" class="node">
<title>medium</title>
<path fill="#98df8a" stroke="black" stroke-width="1.5" d="M127.5,-108C127.5,-108 84.5,-108 84.5,-108 78.5,-108 72.5,-102 72.5,-96 72.5,-96 72.5,-84 72.5,-84 72.5,-78 78.5,-72 84.5,-72 84.5,-72 127.5,-72 127.5,-72 133.5,-72 139.5,-78 139.5,-84 139.5,-84 139.5,-96 139.5,-96 139.5,-102 133.5,-108 127.5,-108"/>
<text text-anchor="middle" x="106" y="-92.8" font-family="Arial" font-size="9.00">1000&#45;10000</text>
<text text-anchor="middle" x="106" y="-82.8" font-family="Arial" font-size="9.00">samples</text>
</g>
<!-- start&#45;&gt;medium -->
<g id="edge2" class="edge">
<title>start&#45;&gt;medium</title>
<path fill="none" stroke="black" d="M106,-143.92C106,-135.72 106,-126.72 106,-118.49"/>
<polygon fill="black" stroke="black" points="109.5,-118.27 106,-108.27 102.5,-118.27 109.5,-118.27"/>
</g>
<!-- lots -->
<g id="node4" class="node">
<title>lots</title>
<path fill="#ffbb78" stroke="black" stroke-width="1.5" d="M200,-108C200,-108 170,-108 170,-108 164,-108 158,-102 158,-96 158,-96 158,-84 158,-84 158,-78 164,-72 170,-72 170,-72 200,-72 200,-72 206,-72 212,-78 212,-84 212,-84 212,-96 212,-96 212,-102 206,-108 200,-108"/>
<text text-anchor="middle" x="185" y="-92.8" font-family="Arial" font-size="9.00">&gt; 10000</text>
<text text-anchor="middle" x="185" y="-82.8" font-family="Arial" font-size="9.00">samples</text>
</g>
<!-- start&#45;&gt;lots -->
<g id="edge3" class="edge">
<title>start&#45;&gt;lots</title>
<path fill="none" stroke="black" d="M126.76,-149.98C137.23,-139.37 149.99,-126.45 160.9,-115.4"/>
<polygon fill="black" stroke="black" points="163.57,-117.68 168.1,-108.11 158.59,-112.77 163.57,-117.68"/>
</g>
<!-- probe -->
<g id="node5" class="node">
<title>probe</title>
<path fill="#1f77b4" stroke="black" stroke-width="1.5" d="M42,-36C42,-36 12,-36 12,-36 6,-36 0,-30 0,-24 0,-24 0,-12 0,-12 0,-6 6,0 12,0 12,0 42,0 42,0 48,0 54,-6 54,-12 54,-12 54,-24 54,-24 54,-30 48,-36 42,-36"/>
<text text-anchor="middle" x="27" y="-20.8" font-family="Arial" font-size="9.00" fill="white">Linear</text>
<text text-anchor="middle" x="27" y="-10.8" font-family="Arial" font-size="9.00" fill="white">Probing</text>
</g>
<!-- little&#45;&gt;probe -->
<g id="edge4" class="edge">
<title>little&#45;&gt;probe</title>
<path fill="none" stroke="black" d="M27,-71.7C27,-63.98 27,-54.71 27,-46.11"/>
<polygon fill="black" stroke="black" points="30.5,-46.1 27,-36.1 23.5,-46.1 30.5,-46.1"/>
</g>
<!-- lora -->
<g id="node6" class="node">
<title>lora</title>
<path fill="#2ca02c" stroke="black" stroke-width="1.5" d="M121,-36C121,-36 91,-36 91,-36 85,-36 79,-30 79,-24 79,-24 79,-12 79,-12 79,-6 85,0 91,0 91,0 121,0 121,0 127,0 133,-6 133,-12 133,-12 133,-24 133,-24 133,-30 127,-36 121,-36"/>
<text text-anchor="middle" x="106" y="-20.8" font-family="Arial" font-size="9.00" fill="white">LoRA /</text>
<text text-anchor="middle" x="106" y="-10.8" font-family="Arial" font-size="9.00" fill="white">Adapter</text>
</g>
<!-- medium&#45;&gt;lora -->
<g id="edge5" class="edge">
<title>medium&#45;&gt;lora</title>
<path fill="none" stroke="black" d="M106,-71.7C106,-63.98 106,-54.71 106,-46.11"/>
<polygon fill="black" stroke="black" points="109.5,-46.1 106,-36.1 102.5,-46.1 109.5,-46.1"/>
</g>
<!-- finetune -->
<g id="node7" class="node">
<title>finetune</title>
<path fill="#d62728" stroke="black" stroke-width="1.5" d="M204.5,-36C204.5,-36 165.5,-36 165.5,-36 159.5,-36 153.5,-30 153.5,-24 153.5,-24 153.5,-12 153.5,-12 153.5,-6 159.5,0 165.5,0 165.5,0 204.5,0 204.5,0 210.5,0 216.5,-6 216.5,-12 216.5,-12 216.5,-24 216.5,-24 216.5,-30 210.5,-36 204.5,-36"/>
<text text-anchor="middle" x="185" y="-20.8" font-family="Arial" font-size="9.00" fill="white">Full</text>
<text text-anchor="middle" x="185" y="-10.8" font-family="Arial" font-size="9.00" fill="white">Fine&#45;tuning</text>
</g>
<!-- lots&#45;&gt;finetune -->
<g id="edge6" class="edge">
<title>lots&#45;&gt;finetune</title>
<path fill="none" stroke="black" d="M185,-71.7C185,-63.98 185,-54.71 185,-46.11"/>
<polygon fill="black" stroke="black" points="188.5,-46.1 185,-36.1 181.5,-46.1 188.5,-46.1"/>
</g>
</g>
</svg>
