<?xml version="1.0" encoding="utf-8" ?>
<svg xmlns="http://www.w3.org/2000/svg" xmlns:ev="http://www.w3.org/2001/xml-events" xmlns:xlink="http://www.w3.org/1999/xlink" baseProfile="full" height="800" version="1.1" width="1200">
  <defs>
    <marker id="id84" markerHeight="7" markerWidth="7" orient="auto" refX="6" refY="3">
      <path d="M0,0 L0,6 L6,3 z" fill="#333333"/>
    </marker>
  </defs>
  <rect fill="white" height="800" width="1200" x="0" y="0"/>
  <text fill="#111" font-family="Arial, Helvetica, sans-serif" font-size="28" font-weight="700" x="60" y="50">Figure 10.4: Domain Shift Detection (Three-Panel)</text>
  <text fill="#444" font-family="Arial, Helvetica, sans-serif" font-size="16" x="60" y="78">Panel A</text>
  <line stroke="#333" stroke-width="2" x1="140" x2="1000" y1="720" y2="720"/>
  <line stroke="#333" stroke-width="2" x1="140" x2="140" y1="160" y2="720"/>
  <circle cx="408.3980924106604" cy="538.1668902140747" fill="#1f77b4" opacity="0.75" r="4"/>
  <circle cx="478.37038524322145" cy="537.3245113730488" fill="#ff7f0e" opacity="0.75" r="4"/>
  <circle cx="412.16533189859433" cy="523.2361483097158" fill="#1f77b4" opacity="0.75" r="4"/>
  <circle cx="369.16308027499355" cy="577.4751824473503" fill="#ff7f0e" opacity="0.75" r="4"/>
  <circle cx="344.623237336413" cy="565.125985011178" fill="#1f77b4" opacity="0.75" r="4"/>
  <circle cx="492.1497616440674" cy="485.63099546406306" fill="#1f77b4" opacity="0.75" r="4"/>
  <circle cx="360.92500958568024" cy="571.8068630981888" fill="#1f77b4" opacity="0.75" r="4"/>
  <circle cx="464.7904352553022" cy="525.6144611287916" fill="#ff7f0e" opacity="0.75" r="4"/>
  <circle cx="451.4505373072573" cy="565.2761789795634" fill="#2ca02c" opacity="0.75" r="4"/>
  <circle cx="238.58479765617435" cy="549.6451099221465" fill="#ff7f0e" opacity="0.75" r="4"/>
  <circle cx="385.7267694870068" cy="432.89801165135157" fill="#ff7f0e" opacity="0.75" r="4"/>
  <circle cx="485.5274896580045" cy="462.14776911428413" fill="#1f77b4" opacity="0.75" r="4"/>
  <circle cx="404.47695173548783" cy="510.7301035119267" fill="#1f77b4" opacity="0.75" r="4"/>
  <circle cx="363.4625622896274" cy="505.53996974608873" fill="#2ca02c" opacity="0.75" r="4"/>
  <circle cx="400.28430009795136" cy="411.89621108787946" fill="#1f77b4" opacity="0.75" r="4"/>
  <circle cx="408.45111490061896" cy="541.7128122924148" fill="#ff7f0e" opacity="0.75" r="4"/>
  <circle cx="472.1622893223331" cy="567.7953245042173" fill="#2ca02c" opacity="0.75" r="4"/>
  <circle cx="314.14742642750764" cy="632.7737457881626" fill="#2ca02c" opacity="0.75" r="4"/>
  <circle cx="326.506455422638" cy="492.87684239586963" fill="#2ca02c" opacity="0.75" r="4"/>
  <circle cx="304.4816850922395" cy="455.8629351591158" fill="#2ca02c" opacity="0.75" r="4"/>
  <circle cx="510.01231393072595" cy="562.6156431567" fill="#2ca02c" opacity="0.75" r="4"/>
  <circle cx="284.3002364548574" cy="450.2010644319324" fill="#1f77b4" opacity="0.75" r="4"/>
  <circle cx="370.0864263668269" cy="459.01464800829126" fill="#2ca02c" opacity="0.75" r="4"/>
  <circle cx="235.37146594057901" cy="502.17115392768534" fill="#2ca02c" opacity="0.75" r="4"/>
  <circle cx="390.9620370211582" cy="542.150825061691" fill="#ff7f0e" opacity="0.75" r="4"/>
  <circle cx="485.3946392938028" cy="526.0663692510795" fill="#1f77b4" opacity="0.75" r="4"/>
  <circle cx="495.1601463021022" cy="599.2560249541559" fill="#1f77b4" opacity="0.75" r="4"/>
  <circle cx="266.43671048883044" cy="505.2889581174828" fill="#1f77b4" opacity="0.75" r="4"/>
  <circle cx="348.6397369992892" cy="607.4855977383656" fill="#ff7f0e" opacity="0.75" r="4"/>
  <circle cx="320.5239494862344" cy="504.82039653791156" fill="#ff7f0e" opacity="0.75" r="4"/>
  <circle cx="556.7414513414838" cy="506.30208782622725" fill="#2ca02c" opacity="0.75" r="4"/>
  <circle cx="339.4906193289274" cy="516.9867197168614" fill="#1f77b4" opacity="0.75" r="4"/>
  <circle cx="318.9488524481671" cy="536.1987143669645" fill="#1f77b4" opacity="0.75" r="4"/>
  <circle cx="317.64285747512776" cy="522.9853831458133" fill="#ff7f0e" opacity="0.75" r="4"/>
  <circle cx="476.5942694990509" cy="493.7951803226182" fill="#1f77b4" opacity="0.75" r="4"/>
  <circle cx="384.68224336483996" cy="503.1587416424022" fill="#1f77b4" opacity="0.75" r="4"/>
  <circle cx="376.84749629212706" cy="530.0775296334446" fill="#1f77b4" opacity="0.75" r="4"/>
  <circle cx="402.21932181134383" cy="402.3927544447614" fill="#1f77b4" opacity="0.75" r="4"/>
  <circle cx="320.0080009954709" cy="571.5429707743368" fill="#2ca02c" opacity="0.75" r="4"/>
  <circle cx="353.07730961523515" cy="475.83320932790093" fill="#1f77b4" opacity="0.75" r="4"/>
  <circle cx="303.7091480437762" cy="523.4269079532244" fill="#ff7f0e" opacity="0.75" r="4"/>
  <circle cx="301.32227728079073" cy="518.167398495897" fill="#1f77b4" opacity="0.75" r="4"/>
  <circle cx="425.2345267852183" cy="507.38080802387316" fill="#1f77b4" opacity="0.75" r="4"/>
  <circle cx="363.5120781887022" cy="502.5323004994939" fill="#ff7f0e" opacity="0.75" r="4"/>
  <circle cx="334.3871270111705" cy="431.6018212132915" fill="#ff7f0e" opacity="0.75" r="4"/>
  <circle cx="367.93820223257603" cy="538.0074060649273" fill="#2ca02c" opacity="0.75" r="4"/>
  <circle cx="378.48712443611623" cy="495.32895189931986" fill="#ff7f0e" opacity="0.75" r="4"/>
  <circle cx="341.3056161336279" cy="512.8346739235255" fill="#2ca02c" opacity="0.75" r="4"/>
  <circle cx="312.3591125009746" cy="513.264377821607" fill="#2ca02c" opacity="0.75" r="4"/>
  <circle cx="349.31476051528057" cy="470.25511898948525" fill="#ff7f0e" opacity="0.75" r="4"/>
  <circle cx="442.7870621369943" cy="428.93989982118524" fill="#ff7f0e" opacity="0.75" r="4"/>
  <circle cx="384.54084496957125" cy="471.1383675978717" fill="#1f77b4" opacity="0.75" r="4"/>
  <circle cx="404.67340816936513" cy="547.5854190194848" fill="#1f77b4" opacity="0.75" r="4"/>
  <circle cx="402.9147838081217" cy="514.8665009592231" fill="#ff7f0e" opacity="0.75" r="4"/>
  <circle cx="239.09515166157223" cy="587.534943969869" fill="#1f77b4" opacity="0.75" r="4"/>
  <circle cx="696.3275065459455" cy="406.0708054423883" fill="#ff7f0e" opacity="0.75" r="4"/>
  <circle cx="643.428124095848" cy="409.6740617942528" fill="#ff7f0e" opacity="0.75" r="4"/>
  <circle cx="503.14929685994326" cy="379.5343017475344" fill="#ff7f0e" opacity="0.75" r="4"/>
  <circle cx="569.4360098769512" cy="458.86078476322035" fill="#1f77b4" opacity="0.75" r="4"/>
  <circle cx="709.3715711358026" cy="414.60691727549136" fill="#2ca02c" opacity="0.75" r="4"/>
  <circle cx="498.13324515301065" cy="428.3170302596526" fill="#ff7f0e" opacity="0.75" r="4"/>
  <circle cx="771.1286861661414" cy="495.3927541357042" fill="#2ca02c" opacity="0.75" r="4"/>
  <circle cx="809.6859387733856" cy="433.98986712596894" fill="#ff7f0e" opacity="0.75" r="4"/>
  <circle cx="641.3850971139493" cy="418.81914080505186" fill="#ff7f0e" opacity="0.75" r="4"/>
  <circle cx="615.1960499883097" cy="397.61052326934555" fill="#1f77b4" opacity="0.75" r="4"/>
  <circle cx="671.3024964959834" cy="434.72683989663517" fill="#1f77b4" opacity="0.75" r="4"/>
  <circle cx="692.4019880240003" cy="379.17375289490457" fill="#ff7f0e" opacity="0.75" r="4"/>
  <circle cx="691.7430256382521" cy="392.37747455023464" fill="#1f77b4" opacity="0.75" r="4"/>
  <circle cx="626.9373760053836" cy="385.7087077294768" fill="#ff7f0e" opacity="0.75" r="4"/>
  <circle cx="567.0368379522522" cy="460.25842584805525" fill="#2ca02c" opacity="0.75" r="4"/>
  <circle cx="679.8922385361817" cy="549.3250265916263" fill="#2ca02c" opacity="0.75" r="4"/>
  <circle cx="489.0194354885426" cy="471.59776879874056" fill="#ff7f0e" opacity="0.75" r="4"/>
  <circle cx="693.4146462089666" cy="359.91477467159643" fill="#2ca02c" opacity="0.75" r="4"/>
  <circle cx="686.068111366583" cy="421.14528682095545" fill="#ff7f0e" opacity="0.75" r="4"/>
  <circle cx="516.9604174037718" cy="356.8353525396508" fill="#ff7f0e" opacity="0.75" r="4"/>
  <circle cx="762.1108721467194" cy="387.19797996449375" fill="#1f77b4" opacity="0.75" r="4"/>
  <circle cx="640.8175615747509" cy="343.24318841241416" fill="#ff7f0e" opacity="0.75" r="4"/>
  <circle cx="654.459651782439" cy="382.03561172557147" fill="#ff7f0e" opacity="0.75" r="4"/>
  <circle cx="720.5095437138756" cy="456.03862300711285" fill="#ff7f0e" opacity="0.75" r="4"/>
  <circle cx="575.3034128434165" cy="403.5820274855664" fill="#ff7f0e" opacity="0.75" r="4"/>
  <circle cx="637.6885872558305" cy="471.2224141786866" fill="#1f77b4" opacity="0.75" r="4"/>
  <circle cx="657.9281506000196" cy="475.60162986799907" fill="#2ca02c" opacity="0.75" r="4"/>
  <circle cx="752.6164680648939" cy="358.7788126529416" fill="#1f77b4" opacity="0.75" r="4"/>
  <circle cx="725.8954264953181" cy="373.8980292012262" fill="#2ca02c" opacity="0.75" r="4"/>
  <circle cx="636.727389233635" cy="451.6740985199052" fill="#2ca02c" opacity="0.75" r="4"/>
  <circle cx="627.140840546253" cy="514.1068867711022" fill="#1f77b4" opacity="0.75" r="4"/>
  <circle cx="629.2281083586406" cy="429.04737885456694" fill="#1f77b4" opacity="0.75" r="4"/>
  <circle cx="718.4032248657336" cy="411.2595515655568" fill="#2ca02c" opacity="0.75" r="4"/>
  <circle cx="623.7063095097203" cy="418.27055770126447" fill="#ff7f0e" opacity="0.75" r="4"/>
  <circle cx="638.4321774582565" cy="381.44872012641383" fill="#1f77b4" opacity="0.75" r="4"/>
  <circle cx="623.9352349696996" cy="452.1836953613027" fill="#1f77b4" opacity="0.75" r="4"/>
  <circle cx="652.5484535517598" cy="459.8912708215397" fill="#1f77b4" opacity="0.75" r="4"/>
  <circle cx="731.7940248851112" cy="414.20587092741425" fill="#1f77b4" opacity="0.75" r="4"/>
  <circle cx="621.5759969393815" cy="381.29407906492247" fill="#ff7f0e" opacity="0.75" r="4"/>
  <circle cx="657.1551501071285" cy="399.6736026756644" fill="#1f77b4" opacity="0.75" r="4"/>
  <circle cx="697.6410864735667" cy="456.7216487204865" fill="#1f77b4" opacity="0.75" r="4"/>
  <circle cx="633.8685678414499" cy="351.1556292999919" fill="#ff7f0e" opacity="0.75" r="4"/>
  <circle cx="535.9141202374205" cy="330.8883085581768" fill="#1f77b4" opacity="0.75" r="4"/>
  <circle cx="674.0514281762163" cy="366.2603381145358" fill="#1f77b4" opacity="0.75" r="4"/>
  <circle cx="675.3325071999724" cy="498.01812609722344" fill="#1f77b4" opacity="0.75" r="4"/>
  <circle cx="613.9324316743057" cy="439.3108577842296" fill="#2ca02c" opacity="0.75" r="4"/>
  <circle cx="655.4713929328736" cy="390.3282183231464" fill="#2ca02c" opacity="0.75" r="4"/>
  <circle cx="765.2363297617741" cy="427.7030435192262" fill="#ff7f0e" opacity="0.75" r="4"/>
  <circle cx="652.7547553715722" cy="371.97745385736107" fill="#1f77b4" opacity="0.75" r="4"/>
  <circle cx="715.4098772701324" cy="484.09734318676544" fill="#ff7f0e" opacity="0.75" r="4"/>
  <circle cx="688.3343848852207" cy="396.30100670185846" fill="#2ca02c" opacity="0.75" r="4"/>
  <circle cx="763.0584023744626" cy="356.67639303460396" fill="#ff7f0e" opacity="0.75" r="4"/>
  <circle cx="644.7939081094123" cy="405.7755011258387" fill="#2ca02c" opacity="0.75" r="4"/>
  <circle cx="622.4093454756994" cy="376.8248964861952" fill="#ff7f0e" opacity="0.75" r="4"/>
  <circle cx="660.4309582882453" cy="348.22622424493136" fill="#1f77b4" opacity="0.75" r="4"/>
  <circle cx="547.1292604686868" cy="656.5048903578129" fill="#1f77b4" opacity="0.75" r="4"/>
  <circle cx="579.3523487453749" cy="628.4287620164744" fill="#1f77b4" opacity="0.75" r="4"/>
  <circle cx="546.6035095887319" cy="613.7468356451287" fill="#2ca02c" opacity="0.75" r="4"/>
  <circle cx="586.3377865136733" cy="607.1738550707792" fill="#2ca02c" opacity="0.75" r="4"/>
  <circle cx="459.4714735871981" cy="597.238297165951" fill="#1f77b4" opacity="0.75" r="4"/>
  <circle cx="586.2738915731728" cy="591.5725210909819" fill="#ff7f0e" opacity="0.75" r="4"/>
  <circle cx="554.7836612608061" cy="616.5503510347751" fill="#ff7f0e" opacity="0.75" r="4"/>
  <circle cx="366.9333921152295" cy="551.0691556948705" fill="#2ca02c" opacity="0.75" r="4"/>
  <circle cx="541.9447936243525" cy="530.4498327791437" fill="#1f77b4" opacity="0.75" r="4"/>
  <circle cx="489.98133685319493" cy="572.7588802207656" fill="#ff7f0e" opacity="0.75" r="4"/>
  <circle cx="560.0256171800098" cy="514.7220151772128" fill="#2ca02c" opacity="0.75" r="4"/>
  <circle cx="378.1467614981387" cy="639.6028502676425" fill="#2ca02c" opacity="0.75" r="4"/>
  <circle cx="508.06580588296316" cy="624.2594469089122" fill="#1f77b4" opacity="0.75" r="4"/>
  <circle cx="602.0849374030752" cy="647.1096316594437" fill="#2ca02c" opacity="0.75" r="4"/>
  <circle cx="598.3059881835148" cy="614.2406848952294" fill="#ff7f0e" opacity="0.75" r="4"/>
  <circle cx="653.7920977788563" cy="590.307971683327" fill="#ff7f0e" opacity="0.75" r="4"/>
  <circle cx="543.9692140307077" cy="528.335639335419" fill="#1f77b4" opacity="0.75" r="4"/>
  <circle cx="598.6379143008337" cy="581.1954304092757" fill="#2ca02c" opacity="0.75" r="4"/>
  <circle cx="608.7698036821891" cy="571.1606259967664" fill="#ff7f0e" opacity="0.75" r="4"/>
  <circle cx="541.9813833750168" cy="619.6571194676819" fill="#2ca02c" opacity="0.75" r="4"/>
  <circle cx="574.9328696495674" cy="570.4599705005226" fill="#ff7f0e" opacity="0.75" r="4"/>
  <circle cx="592.8346764436244" cy="612.4081227365191" fill="#2ca02c" opacity="0.75" r="4"/>
  <circle cx="616.2265956869976" cy="581.0373577947798" fill="#1f77b4" opacity="0.75" r="4"/>
  <circle cx="549.9833443111711" cy="593.7187679833323" fill="#ff7f0e" opacity="0.75" r="4"/>
  <circle cx="481.9825754966063" cy="632.0528599705158" fill="#ff7f0e" opacity="0.75" r="4"/>
  <circle cx="603.857908375294" cy="559.2995984900231" fill="#1f77b4" opacity="0.75" r="4"/>
  <circle cx="662.4625294875725" cy="599.148896250859" fill="#ff7f0e" opacity="0.75" r="4"/>
  <circle cx="516.7803384323765" cy="597.8677185520191" fill="#2ca02c" opacity="0.75" r="4"/>
  <circle cx="624.9461856115709" cy="555.7339748806259" fill="#2ca02c" opacity="0.75" r="4"/>
  <circle cx="424.97230885724014" cy="596.4696595528413" fill="#2ca02c" opacity="0.75" r="4"/>
  <circle cx="474.60196967671726" cy="613.7839980930731" fill="#ff7f0e" opacity="0.75" r="4"/>
  <circle cx="549.8906283106026" cy="615.8954557582609" fill="#1f77b4" opacity="0.75" r="4"/>
  <circle cx="486.3882109818436" cy="620.0274223505539" fill="#ff7f0e" opacity="0.75" r="4"/>
  <circle cx="513.900588406872" cy="663.0793809527595" fill="#ff7f0e" opacity="0.75" r="4"/>
  <circle cx="433.1829989778406" cy="553.2441406310942" fill="#ff7f0e" opacity="0.75" r="4"/>
  <circle cx="566.8823826751569" cy="568.133777626228" fill="#1f77b4" opacity="0.75" r="4"/>
  <circle cx="496.88470760782184" cy="644.2421092575287" fill="#1f77b4" opacity="0.75" r="4"/>
  <circle cx="606.0620539714976" cy="522.6184520455973" fill="#2ca02c" opacity="0.75" r="4"/>
  <circle cx="514.98468518198" cy="600.1804626678295" fill="#2ca02c" opacity="0.75" r="4"/>
  <circle cx="509.1322095928018" cy="636.4553375095605" fill="#1f77b4" opacity="0.75" r="4"/>
  <circle cx="491.16094784374934" cy="611.2191136523318" fill="#2ca02c" opacity="0.75" r="4"/>
  <circle cx="607.9390422953984" cy="565.9304644483275" fill="#1f77b4" opacity="0.75" r="4"/>
  <circle cx="568.9723928177161" cy="629.4512592108125" fill="#2ca02c" opacity="0.75" r="4"/>
  <circle cx="533.9575817763596" cy="585.3081609371691" fill="#1f77b4" opacity="0.75" r="4"/>
  <circle cx="571.6072922815383" cy="599.8272125079901" fill="#2ca02c" opacity="0.75" r="4"/>
  <circle cx="552.206652999032" cy="593.1344867418809" fill="#2ca02c" opacity="0.75" r="4"/>
  <circle cx="639.4615031258909" cy="563.2022250214674" fill="#2ca02c" opacity="0.75" r="4"/>
  <circle cx="573.5249930721559" cy="649.3859222528686" fill="#2ca02c" opacity="0.75" r="4"/>
  <circle cx="513.6431813035344" cy="557.5291379611984" fill="#2ca02c" opacity="0.75" r="4"/>
  <circle cx="575.8857744751451" cy="590.1341952271873" fill="#1f77b4" opacity="0.75" r="4"/>
  <circle cx="453.54107090849493" cy="658.7323293012855" fill="#ff7f0e" opacity="0.75" r="4"/>
  <circle cx="616.0751574065545" cy="599.8113454270099" fill="#2ca02c" opacity="0.75" r="4"/>
  <circle cx="428.5401296531878" cy="566.0236705599367" fill="#2ca02c" opacity="0.75" r="4"/>
  <circle cx="558.9872490043383" cy="519.1485042184224" fill="#2ca02c" opacity="0.75" r="4"/>
  <circle cx="614.3118541860115" cy="515.9635417175716" fill="#2ca02c" opacity="0.75" r="4"/>
  <circle cx="914.0" cy="244.0" fill="#d62728" opacity="0.9" r="7"/>
  <text fill="#333" font-family="Arial, Helvetica, sans-serif" font-size="16" text-anchor="middle" x="570.0" y="765">Dimension 1</text>
  <text fill="#333" font-family="Arial, Helvetica, sans-serif" font-size="16" text-anchor="middle" transform="rotate(-90,85,440.0)" x="85" y="440.0">Dimension 2</text>
  <text fill="#999" font-family="Arial, Helvetica, sans-serif" font-size="12" text-anchor="end" x="1140" y="776">Auto-generated SVG</text>
</svg>
