<?xml version="1.0" encoding="utf-8" standalone="no"?>
<!DOCTYPE svg PUBLIC "-//W3C//DTD SVG 1.1//EN"
  "http://www.w3.org/Graphics/SVG/1.1/DTD/svg11.dtd">
<svg xmlns:xlink="http://www.w3.org/1999/xlink" width="568.8pt" height="280.518281pt" viewBox="0 0 568.8 280.518281" xmlns="http://www.w3.org/2000/svg" version="1.1">
 <metadata>
  <rdf:RDF xmlns:dc="http://purl.org/dc/elements/1.1/" xmlns:cc="http://creativecommons.org/ns#" xmlns:rdf="http://www.w3.org/1999/02/22-rdf-syntax-ns#">
   <cc:Work>
    <dc:type rdf:resource="http://purl.org/dc/dcmitype/StillImage"/>
    <dc:date>2026-01-08T05:45:30.781944</dc:date>
    <dc:format>image/svg+xml</dc:format>
    <dc:creator>
     <cc:Agent>
      <dc:title>Matplotlib v3.10.7, https://matplotlib.org/</dc:title>
     </cc:Agent>
    </dc:creator>
   </cc:Work>
  </rdf:RDF>
 </metadata>
 <defs>
  <style type="text/css">*{stroke-linejoin: round; stroke-linecap: butt}</style>
 </defs>
 <g id="figure_1">
  <g id="patch_1">
   <path d="M 0 280.518281 
L 568.8 280.518281 
L 568.8 0 
L 0 0 
z
" style="fill: #ffffff"/>
  </g>
  <g id="axes_1">
   <g id="patch_2">
    <path d="M 24.102439 157.18383 
L 186.365854 157.18383 
Q 187.718049 157.18383 187.718049 155.559572 
L 187.718049 131.195701 
Q 187.718049 129.571443 186.365854 129.571443 
L 24.102439 129.571443 
Q 22.750244 129.571443 22.750244 131.195701 
L 22.750244 155.559572 
Q 22.750244 157.18383 24.102439 157.18383 
z
" clip-path="url(#p9c60ef6777)" style="fill: #9467bd; opacity: 0.3; stroke: #9467bd; stroke-width: 2; stroke-linejoin: miter"/>
   </g>
   <g id="patch_3">
    <path d="M 91.712195 197.790281 
L 253.97561 197.790281 
Q 255.327805 197.790281 255.327805 196.166023 
L 255.327805 171.802152 
Q 255.327805 170.177894 253.97561 170.177894 
L 91.712195 170.177894 
Q 90.36 170.177894 90.36 171.802152 
L 90.36 196.166023 
Q 90.36 197.790281 91.712195 197.790281 
z
" clip-path="url(#p9c60ef6777)" style="fill: #9467bd; opacity: 0.3; stroke: #9467bd; stroke-width: 2; stroke-linejoin: miter"/>
   </g>
   <g id="patch_4">
    <path d="M 159.321951 238.396733 
L 321.585366 238.396733 
Q 322.937561 238.396733 322.937561 236.772475 
L 322.937561 212.408604 
Q 322.937561 210.784346 321.585366 210.784346 
L 159.321951 210.784346 
Q 157.969756 210.784346 157.969756 212.408604 
L 157.969756 236.772475 
Q 157.969756 238.396733 159.321951 238.396733 
z
" clip-path="url(#p9c60ef6777)" style="fill: #9467bd; opacity: 0.3; stroke: #9467bd; stroke-width: 2; stroke-linejoin: miter"/>
   </g>
   <g id="text_1">
    <g id="patch_5">
     <path d="M 32.980953 69.171608 
L 42.267828 69.171608 
Q 43.467828 69.171608 43.467828 67.971608 
L 43.467828 56.357858 
Q 43.467828 55.157858 42.267828 55.157858 
L 32.980953 55.157858 
Q 31.780953 55.157858 31.780953 56.357858 
L 31.780953 67.971608 
Q 31.780953 69.171608 32.980953 69.171608 
z
" style="fill: #ffffff; stroke: #2ca02c; stroke-width: 1.5; stroke-linejoin: miter"/>
    </g>
    <!-- A -->
    <g style="fill: #2ca02c" transform="translate(32.980953 65.475983) scale(0.12 -0.12)">
     <defs>
      <path id="DejaVuSans-Bold-41" d="M 3419 850 
L 1538 850 
L 1241 0 
L 31 0 
L 1759 4666 
L 3194 4666 
L 4922 0 
L 3713 0 
L 3419 850 
z
M 1838 1716 
L 3116 1716 
L 2478 3572 
L 1838 1716 
z
" transform="scale(0.015625)"/>
     </defs>
     <use xlink:href="#DejaVuSans-Bold-41"/>
    </g>
   </g>
   <g id="text_2">
    <g id="patch_6">
     <path d="M 67.336143 69.171608 
L 75.522393 69.171608 
Q 76.722393 69.171608 76.722393 67.971608 
L 76.722393 56.357858 
Q 76.722393 55.157858 75.522393 55.157858 
L 67.336143 55.157858 
Q 66.136143 55.157858 66.136143 56.357858 
L 66.136143 67.971608 
Q 66.136143 69.171608 67.336143 69.171608 
z
" style="fill: #ffffff; stroke: #d62728; stroke-width: 1.5; stroke-linejoin: miter"/>
    </g>
    <!-- T -->
    <g style="fill: #d62728" transform="translate(67.336143 65.475983) scale(0.12 -0.12)">
     <defs>
      <path id="DejaVuSans-Bold-54" d="M 31 4666 
L 4331 4666 
L 4331 3756 
L 2784 3756 
L 2784 0 
L 1581 0 
L 1581 3756 
L 31 3756 
L 31 4666 
z
" transform="scale(0.015625)"/>
     </defs>
     <use xlink:href="#DejaVuSans-Bold-54"/>
    </g>
   </g>
   <g id="text_3">
    <g id="patch_7">
     <path d="M 100.830709 69.171608 
L 109.637584 69.171608 
Q 110.837584 69.171608 110.837584 67.971608 
L 110.837584 56.357858 
Q 110.837584 55.157858 109.637584 55.157858 
L 100.830709 55.157858 
Q 99.630709 55.157858 99.630709 56.357858 
L 99.630709 67.971608 
Q 99.630709 69.171608 100.830709 69.171608 
z
" style="fill: #ffffff; stroke: #1f77b4; stroke-width: 1.5; stroke-linejoin: miter"/>
    </g>
    <!-- C -->
    <g style="fill: #1f77b4" transform="translate(100.830709 65.475983) scale(0.12 -0.12)">
     <defs>
      <path id="DejaVuSans-Bold-43" d="M 4288 256 
Q 3956 84 3597 -3 
Q 3238 -91 2847 -91 
Q 1681 -91 1000 561 
Q 319 1213 319 2328 
Q 319 3447 1000 4098 
Q 1681 4750 2847 4750 
Q 3238 4750 3597 4662 
Q 3956 4575 4288 4403 
L 4288 3438 
Q 3953 3666 3628 3772 
Q 3303 3878 2944 3878 
Q 2300 3878 1931 3465 
Q 1563 3053 1563 2328 
Q 1563 1606 1931 1193 
Q 2300 781 2944 781 
Q 3303 781 3628 887 
Q 3953 994 4288 1222 
L 4288 256 
z
" transform="scale(0.015625)"/>
     </defs>
     <use xlink:href="#DejaVuSans-Bold-43"/>
    </g>
   </g>
   <g id="text_4">
    <g id="patch_8">
     <path d="M 134.114337 69.171608 
L 143.963712 69.171608 
Q 145.163712 69.171608 145.163712 67.971608 
L 145.163712 56.357858 
Q 145.163712 55.157858 143.963712 55.157858 
L 134.114337 55.157858 
Q 132.914337 55.157858 132.914337 56.357858 
L 132.914337 67.971608 
Q 132.914337 69.171608 134.114337 69.171608 
z
" style="fill: #ffffff; stroke: #ff7f0e; stroke-width: 1.5; stroke-linejoin: miter"/>
    </g>
    <!-- G -->
    <g style="fill: #ff7f0e" transform="translate(134.114337 65.475983) scale(0.12 -0.12)">
     <defs>
      <path id="DejaVuSans-Bold-47" d="M 4781 347 
Q 4331 128 3847 18 
Q 3363 -91 2847 -91 
Q 1681 -91 1000 561 
Q 319 1213 319 2328 
Q 319 3456 1012 4103 
Q 1706 4750 2913 4750 
Q 3378 4750 3804 4662 
Q 4231 4575 4609 4403 
L 4609 3438 
Q 4219 3659 3833 3768 
Q 3447 3878 3059 3878 
Q 2341 3878 1952 3476 
Q 1563 3075 1563 2328 
Q 1563 1588 1938 1184 
Q 2313 781 3003 781 
Q 3191 781 3352 804 
Q 3513 828 3641 878 
L 3641 1784 
L 2906 1784 
L 2906 2591 
L 4781 2591 
L 4781 347 
z
" transform="scale(0.015625)"/>
     </defs>
     <use xlink:href="#DejaVuSans-Bold-47"/>
    </g>
   </g>
   <g id="text_5">
    <g id="patch_9">
     <path d="M 168.200465 69.171608 
L 177.48734 69.171608 
Q 178.68734 69.171608 178.68734 67.971608 
L 178.68734 56.357858 
Q 178.68734 55.157858 177.48734 55.157858 
L 168.200465 55.157858 
Q 167.000465 55.157858 167.000465 56.357858 
L 167.000465 67.971608 
Q 167.000465 69.171608 168.200465 69.171608 
z
" style="fill: #ffffff; stroke: #2ca02c; stroke-width: 1.5; stroke-linejoin: miter"/>
    </g>
    <!-- A -->
    <g style="fill: #2ca02c" transform="translate(168.200465 65.475983) scale(0.12 -0.12)">
     <use xlink:href="#DejaVuSans-Bold-41"/>
    </g>
   </g>
   <g id="text_6">
    <g id="patch_10">
     <path d="M 202.555655 69.171608 
L 210.741905 69.171608 
Q 211.941905 69.171608 211.941905 67.971608 
L 211.941905 56.357858 
Q 211.941905 55.157858 210.741905 55.157858 
L 202.555655 55.157858 
Q 201.355655 55.157858 201.355655 56.357858 
L 201.355655 67.971608 
Q 201.355655 69.171608 202.555655 69.171608 
z
" style="fill: #ffffff; stroke: #d62728; stroke-width: 1.5; stroke-linejoin: miter"/>
    </g>
    <!-- T -->
    <g style="fill: #d62728" transform="translate(202.555655 65.475983) scale(0.12 -0.12)">
     <use xlink:href="#DejaVuSans-Bold-54"/>
    </g>
   </g>
   <g id="text_7">
    <g id="patch_11">
     <path d="M 236.050221 69.171608 
L 244.857096 69.171608 
Q 246.057096 69.171608 246.057096 67.971608 
L 246.057096 56.357858 
Q 246.057096 55.157858 244.857096 55.157858 
L 236.050221 55.157858 
Q 234.850221 55.157858 234.850221 56.357858 
L 234.850221 67.971608 
Q 234.850221 69.171608 236.050221 69.171608 
z
" style="fill: #ffffff; stroke: #1f77b4; stroke-width: 1.5; stroke-linejoin: miter"/>
    </g>
    <!-- C -->
    <g style="fill: #1f77b4" transform="translate(236.050221 65.475983) scale(0.12 -0.12)">
     <use xlink:href="#DejaVuSans-Bold-43"/>
    </g>
   </g>
   <g id="text_8">
    <g id="patch_12">
     <path d="M 269.333849 69.171608 
L 279.183224 69.171608 
Q 280.383224 69.171608 280.383224 67.971608 
L 280.383224 56.357858 
Q 280.383224 55.157858 279.183224 55.157858 
L 269.333849 55.157858 
Q 268.133849 55.157858 268.133849 56.357858 
L 268.133849 67.971608 
Q 268.133849 69.171608 269.333849 69.171608 
z
" style="fill: #ffffff; stroke: #ff7f0e; stroke-width: 1.5; stroke-linejoin: miter"/>
    </g>
    <!-- G -->
    <g style="fill: #ff7f0e" transform="translate(269.333849 65.475983) scale(0.12 -0.12)">
     <use xlink:href="#DejaVuSans-Bold-47"/>
    </g>
   </g>
   <g id="text_9">
    <g id="patch_13">
     <path d="M 303.419977 69.171608 
L 312.706852 69.171608 
Q 313.906852 69.171608 313.906852 67.971608 
L 313.906852 56.357858 
Q 313.906852 55.157858 312.706852 55.157858 
L 303.419977 55.157858 
Q 302.219977 55.157858 302.219977 56.357858 
L 302.219977 67.971608 
Q 302.219977 69.171608 303.419977 69.171608 
z
" style="fill: #ffffff; stroke: #2ca02c; stroke-width: 1.5; stroke-linejoin: miter"/>
    </g>
    <!-- A -->
    <g style="fill: #2ca02c" transform="translate(303.419977 65.475983) scale(0.12 -0.12)">
     <use xlink:href="#DejaVuSans-Bold-41"/>
    </g>
   </g>
   <g id="text_10">
    <g id="patch_14">
     <path d="M 337.775168 69.171608 
L 345.961418 69.171608 
Q 347.161418 69.171608 347.161418 67.971608 
L 347.161418 56.357858 
Q 347.161418 55.157858 345.961418 55.157858 
L 337.775168 55.157858 
Q 336.575168 55.157858 336.575168 56.357858 
L 336.575168 67.971608 
Q 336.575168 69.171608 337.775168 69.171608 
z
" style="fill: #ffffff; stroke: #d62728; stroke-width: 1.5; stroke-linejoin: miter"/>
    </g>
    <!-- T -->
    <g style="fill: #d62728" transform="translate(337.775168 65.475983) scale(0.12 -0.12)">
     <use xlink:href="#DejaVuSans-Bold-54"/>
    </g>
   </g>
   <g id="text_11">
    <g id="patch_15">
     <path d="M 371.269733 69.171608 
L 380.076608 69.171608 
Q 381.276608 69.171608 381.276608 67.971608 
L 381.276608 56.357858 
Q 381.276608 55.157858 380.076608 55.157858 
L 371.269733 55.157858 
Q 370.069733 55.157858 370.069733 56.357858 
L 370.069733 67.971608 
Q 370.069733 69.171608 371.269733 69.171608 
z
" style="fill: #ffffff; stroke: #1f77b4; stroke-width: 1.5; stroke-linejoin: miter"/>
    </g>
    <!-- C -->
    <g style="fill: #1f77b4" transform="translate(371.269733 65.475983) scale(0.12 -0.12)">
     <use xlink:href="#DejaVuSans-Bold-43"/>
    </g>
   </g>
   <g id="text_12">
    <g id="patch_16">
     <path d="M 404.553361 69.171608 
L 414.402736 69.171608 
Q 415.602736 69.171608 415.602736 67.971608 
L 415.602736 56.357858 
Q 415.602736 55.157858 414.402736 55.157858 
L 404.553361 55.157858 
Q 403.353361 55.157858 403.353361 56.357858 
L 403.353361 67.971608 
Q 403.353361 69.171608 404.553361 69.171608 
z
" style="fill: #ffffff; stroke: #ff7f0e; stroke-width: 1.5; stroke-linejoin: miter"/>
    </g>
    <!-- G -->
    <g style="fill: #ff7f0e" transform="translate(404.553361 65.475983) scale(0.12 -0.12)">
     <use xlink:href="#DejaVuSans-Bold-47"/>
    </g>
   </g>
   <g id="patch_17">
    <path d="M 195.127649 143.377636 
Q 326.655504 143.377636 457.065324 143.377636 
" style="fill: none; stroke: #555555; stroke-linecap: round"/>
    <path d="M 453.065324 141.377636 
L 457.065324 143.377636 
L 453.065324 145.377636 
" style="fill: none; stroke: #555555; stroke-linecap: round"/>
   </g>
   <g id="text_13">
    <!-- 0.52 -->
    <g style="fill: #d62728" transform="translate(481.654306 146.137011) scale(0.1 -0.1)">
     <defs>
      <path id="DejaVuSans-Bold-30" d="M 2944 2338 
Q 2944 3213 2780 3570 
Q 2616 3928 2228 3928 
Q 1841 3928 1675 3570 
Q 1509 3213 1509 2338 
Q 1509 1453 1675 1090 
Q 1841 728 2228 728 
Q 2613 728 2778 1090 
Q 2944 1453 2944 2338 
z
M 4147 2328 
Q 4147 1169 3647 539 
Q 3147 -91 2228 -91 
Q 1306 -91 806 539 
Q 306 1169 306 2328 
Q 306 3491 806 4120 
Q 1306 4750 2228 4750 
Q 3147 4750 3647 4120 
Q 4147 3491 4147 2328 
z
" transform="scale(0.015625)"/>
      <path id="DejaVuSans-Bold-2e" d="M 653 1209 
L 1778 1209 
L 1778 0 
L 653 0 
L 653 1209 
z
" transform="scale(0.015625)"/>
      <path id="DejaVuSans-Bold-35" d="M 678 4666 
L 3669 4666 
L 3669 3781 
L 1638 3781 
L 1638 3059 
Q 1775 3097 1914 3117 
Q 2053 3138 2203 3138 
Q 3056 3138 3531 2711 
Q 4006 2284 4006 1522 
Q 4006 766 3489 337 
Q 2972 -91 2053 -91 
Q 1656 -91 1267 -14 
Q 878 63 494 219 
L 494 1166 
Q 875 947 1217 837 
Q 1559 728 1863 728 
Q 2300 728 2551 942 
Q 2803 1156 2803 1522 
Q 2803 1891 2551 2103 
Q 2300 2316 1863 2316 
Q 1603 2316 1309 2248 
Q 1016 2181 678 2041 
L 678 4666 
z
" transform="scale(0.015625)"/>
      <path id="DejaVuSans-Bold-32" d="M 1844 884 
L 3897 884 
L 3897 0 
L 506 0 
L 506 884 
L 2209 2388 
Q 2438 2594 2547 2791 
Q 2656 2988 2656 3200 
Q 2656 3528 2436 3728 
Q 2216 3928 1850 3928 
Q 1569 3928 1234 3808 
Q 900 3688 519 3450 
L 519 4475 
Q 925 4609 1322 4679 
Q 1719 4750 2100 4750 
Q 2938 4750 3402 4381 
Q 3866 4013 3866 3353 
Q 3866 2972 3669 2642 
Q 3472 2313 2841 1759 
L 1844 884 
z
" transform="scale(0.015625)"/>
     </defs>
     <use xlink:href="#DejaVuSans-Bold-30"/>
     <use xlink:href="#DejaVuSans-Bold-2e" transform="translate(69.580078 0)"/>
     <use xlink:href="#DejaVuSans-Bold-35" transform="translate(107.568359 0)"/>
     <use xlink:href="#DejaVuSans-Bold-32" transform="translate(177.148438 0)"/>
    </g>
   </g>
   <g id="patch_18">
    <path d="M 262.736064 183.984088 
Q 360.46196 183.984088 457.069821 183.984088 
" style="fill: none; stroke: #555555; stroke-linecap: round"/>
    <path d="M 453.069821 181.984088 
L 457.069821 183.984088 
L 453.069821 185.984088 
" style="fill: none; stroke: #555555; stroke-linecap: round"/>
   </g>
   <g id="text_14">
    <!-- 0.78 -->
    <g style="fill: #d62728" transform="translate(481.654306 186.743463) scale(0.1 -0.1)">
     <defs>
      <path id="DejaVuSans-Bold-37" d="M 428 4666 
L 3944 4666 
L 3944 3988 
L 2125 0 
L 953 0 
L 2675 3781 
L 428 3781 
L 428 4666 
z
" transform="scale(0.015625)"/>
      <path id="DejaVuSans-Bold-38" d="M 2228 2088 
Q 1891 2088 1709 1903 
Q 1528 1719 1528 1375 
Q 1528 1031 1709 848 
Q 1891 666 2228 666 
Q 2563 666 2741 848 
Q 2919 1031 2919 1375 
Q 2919 1722 2741 1905 
Q 2563 2088 2228 2088 
z
M 1350 2484 
Q 925 2613 709 2878 
Q 494 3144 494 3541 
Q 494 4131 934 4440 
Q 1375 4750 2228 4750 
Q 3075 4750 3515 4442 
Q 3956 4134 3956 3541 
Q 3956 3144 3739 2878 
Q 3522 2613 3097 2484 
Q 3572 2353 3814 2058 
Q 4056 1763 4056 1313 
Q 4056 619 3595 264 
Q 3134 -91 2228 -91 
Q 1319 -91 855 264 
Q 391 619 391 1313 
Q 391 1763 633 2058 
Q 875 2353 1350 2484 
z
M 1631 3419 
Q 1631 3141 1786 2991 
Q 1941 2841 2228 2841 
Q 2509 2841 2662 2991 
Q 2816 3141 2816 3419 
Q 2816 3697 2662 3845 
Q 2509 3994 2228 3994 
Q 1941 3994 1786 3844 
Q 1631 3694 1631 3419 
z
" transform="scale(0.015625)"/>
     </defs>
     <use xlink:href="#DejaVuSans-Bold-30"/>
     <use xlink:href="#DejaVuSans-Bold-2e" transform="translate(69.580078 0)"/>
     <use xlink:href="#DejaVuSans-Bold-37" transform="translate(107.568359 0)"/>
     <use xlink:href="#DejaVuSans-Bold-38" transform="translate(177.148438 0)"/>
    </g>
   </g>
   <g id="patch_19">
    <path d="M 330.345975 224.590539 
Q 394.265169 224.590539 457.066328 224.590539 
" style="fill: none; stroke: #555555; stroke-linecap: round"/>
    <path d="M 453.066328 222.590539 
L 457.066328 224.590539 
L 453.066328 226.590539 
" style="fill: none; stroke: #555555; stroke-linecap: round"/>
   </g>
   <g id="text_15">
    <!-- 0.35 -->
    <g style="fill: #555555" transform="translate(482.857431 227.349914) scale(0.1 -0.1)">
     <defs>
      <path id="DejaVuSans-30" d="M 2034 4250 
Q 1547 4250 1301 3770 
Q 1056 3291 1056 2328 
Q 1056 1369 1301 889 
Q 1547 409 2034 409 
Q 2525 409 2770 889 
Q 3016 1369 3016 2328 
Q 3016 3291 2770 3770 
Q 2525 4250 2034 4250 
z
M 2034 4750 
Q 2819 4750 3233 4129 
Q 3647 3509 3647 2328 
Q 3647 1150 3233 529 
Q 2819 -91 2034 -91 
Q 1250 -91 836 529 
Q 422 1150 422 2328 
Q 422 3509 836 4129 
Q 1250 4750 2034 4750 
z
" transform="scale(0.015625)"/>
      <path id="DejaVuSans-2e" d="M 684 794 
L 1344 794 
L 1344 0 
L 684 0 
L 684 794 
z
" transform="scale(0.015625)"/>
      <path id="DejaVuSans-33" d="M 2597 2516 
Q 3050 2419 3304 2112 
Q 3559 1806 3559 1356 
Q 3559 666 3084 287 
Q 2609 -91 1734 -91 
Q 1441 -91 1130 -33 
Q 819 25 488 141 
L 488 750 
Q 750 597 1062 519 
Q 1375 441 1716 441 
Q 2309 441 2620 675 
Q 2931 909 2931 1356 
Q 2931 1769 2642 2001 
Q 2353 2234 1838 2234 
L 1294 2234 
L 1294 2753 
L 1863 2753 
Q 2328 2753 2575 2939 
Q 2822 3125 2822 3475 
Q 2822 3834 2567 4026 
Q 2313 4219 1838 4219 
Q 1578 4219 1281 4162 
Q 984 4106 628 3988 
L 628 4550 
Q 988 4650 1302 4700 
Q 1616 4750 1894 4750 
Q 2613 4750 3031 4423 
Q 3450 4097 3450 3541 
Q 3450 3153 3228 2886 
Q 3006 2619 2597 2516 
z
" transform="scale(0.015625)"/>
      <path id="DejaVuSans-35" d="M 691 4666 
L 3169 4666 
L 3169 4134 
L 1269 4134 
L 1269 2991 
Q 1406 3038 1543 3061 
Q 1681 3084 1819 3084 
Q 2600 3084 3056 2656 
Q 3513 2228 3513 1497 
Q 3513 744 3044 326 
Q 2575 -91 1722 -91 
Q 1428 -91 1123 -41 
Q 819 9 494 109 
L 494 744 
Q 775 591 1075 516 
Q 1375 441 1709 441 
Q 2250 441 2565 725 
Q 2881 1009 2881 1497 
Q 2881 1984 2565 2268 
Q 2250 2553 1709 2553 
Q 1456 2553 1204 2497 
Q 953 2441 691 2322 
L 691 4666 
z
" transform="scale(0.015625)"/>
     </defs>
     <use xlink:href="#DejaVuSans-30"/>
     <use xlink:href="#DejaVuSans-2e" transform="translate(63.623047 0)"/>
     <use xlink:href="#DejaVuSans-33" transform="translate(95.410156 0)"/>
     <use xlink:href="#DejaVuSans-35" transform="translate(159.033203 0)"/>
    </g>
   </g>
   <g id="text_16">
    <!-- Activation -->
    <g transform="translate(471.382666 248.95441) scale(0.09 -0.09)">
     <defs>
      <path id="DejaVuSans-Oblique-41" d="M 2356 4666 
L 3072 4666 
L 3938 0 
L 3278 0 
L 3084 1197 
L 984 1197 
L 325 0 
L -341 0 
L 2356 4666 
z
M 2584 4044 
L 1275 1722 
L 2988 1722 
L 2584 4044 
z
" transform="scale(0.015625)"/>
      <path id="DejaVuSans-Oblique-63" d="M 3431 3366 
L 3316 2797 
Q 3109 2947 2876 3022 
Q 2644 3097 2394 3097 
Q 2119 3097 1870 3000 
Q 1622 2903 1453 2725 
Q 1184 2453 1037 2087 
Q 891 1722 891 1331 
Q 891 859 1127 628 
Q 1363 397 1844 397 
Q 2081 397 2348 469 
Q 2616 541 2906 684 
L 2797 116 
Q 2547 13 2283 -39 
Q 2019 -91 1741 -91 
Q 1044 -91 669 257 
Q 294 606 294 1253 
Q 294 1797 489 2255 
Q 684 2713 1069 3078 
Q 1331 3328 1684 3456 
Q 2038 3584 2456 3584 
Q 2700 3584 2940 3529 
Q 3181 3475 3431 3366 
z
" transform="scale(0.015625)"/>
      <path id="DejaVuSans-Oblique-74" d="M 2706 3500 
L 2619 3053 
L 1472 3053 
L 1100 1153 
Q 1081 1047 1072 975 
Q 1063 903 1063 863 
Q 1063 663 1183 572 
Q 1303 481 1569 481 
L 2150 481 
L 2053 0 
L 1503 0 
Q 991 0 739 200 
Q 488 400 488 806 
Q 488 878 497 964 
Q 506 1050 525 1153 
L 897 3053 
L 409 3053 
L 500 3500 
L 978 3500 
L 1172 4494 
L 1747 4494 
L 1556 3500 
L 2706 3500 
z
" transform="scale(0.015625)"/>
      <path id="DejaVuSans-Oblique-69" d="M 1172 4863 
L 1747 4863 
L 1606 4134 
L 1031 4134 
L 1172 4863 
z
M 909 3500 
L 1484 3500 
L 800 0 
L 225 0 
L 909 3500 
z
" transform="scale(0.015625)"/>
      <path id="DejaVuSans-Oblique-76" d="M 459 3500 
L 1069 3500 
L 1581 525 
L 3256 3500 
L 3866 3500 
L 1875 0 
L 1100 0 
L 459 3500 
z
" transform="scale(0.015625)"/>
      <path id="DejaVuSans-Oblique-61" d="M 3438 1997 
L 3047 0 
L 2472 0 
L 2578 531 
Q 2325 219 2001 64 
Q 1678 -91 1281 -91 
Q 834 -91 548 182 
Q 263 456 263 884 
Q 263 1497 752 1853 
Q 1241 2209 2100 2209 
L 2900 2209 
L 2931 2363 
Q 2938 2388 2941 2417 
Q 2944 2447 2944 2509 
Q 2944 2788 2717 2942 
Q 2491 3097 2081 3097 
Q 1800 3097 1504 3025 
Q 1209 2953 897 2809 
L 997 3341 
Q 1322 3463 1633 3523 
Q 1944 3584 2234 3584 
Q 2853 3584 3176 3315 
Q 3500 3047 3500 2534 
Q 3500 2431 3484 2292 
Q 3469 2153 3438 1997 
z
M 2816 1759 
L 2241 1759 
Q 1534 1759 1195 1570 
Q 856 1381 856 984 
Q 856 709 1029 553 
Q 1203 397 1509 397 
Q 1978 397 2328 733 
Q 2678 1069 2791 1631 
L 2816 1759 
z
" transform="scale(0.015625)"/>
      <path id="DejaVuSans-Oblique-6f" d="M 1625 -91 
Q 1009 -91 651 289 
Q 294 669 294 1325 
Q 294 1706 417 2101 
Q 541 2497 738 2766 
Q 1047 3184 1428 3384 
Q 1809 3584 2291 3584 
Q 2888 3584 3255 3212 
Q 3622 2841 3622 2241 
Q 3622 1825 3500 1412 
Q 3378 1000 3181 728 
Q 2875 309 2494 109 
Q 2113 -91 1625 -91 
z
M 891 1344 
Q 891 869 1089 633 
Q 1288 397 1691 397 
Q 2269 397 2648 901 
Q 3028 1406 3028 2181 
Q 3028 2634 2825 2865 
Q 2622 3097 2228 3097 
Q 1903 3097 1650 2945 
Q 1397 2794 1197 2484 
Q 1050 2253 970 1956 
Q 891 1659 891 1344 
z
" transform="scale(0.015625)"/>
      <path id="DejaVuSans-Oblique-6e" d="M 3566 2113 
L 3156 0 
L 2578 0 
L 2988 2091 
Q 3016 2238 3031 2350 
Q 3047 2463 3047 2528 
Q 3047 2791 2881 2937 
Q 2716 3084 2419 3084 
Q 1956 3084 1622 2776 
Q 1288 2469 1184 1941 
L 800 0 
L 225 0 
L 903 3500 
L 1478 3500 
L 1363 2950 
Q 1603 3253 1940 3418 
Q 2278 3584 2650 3584 
Q 3113 3584 3367 3334 
Q 3622 3084 3622 2631 
Q 3622 2519 3608 2391 
Q 3594 2263 3566 2113 
z
" transform="scale(0.015625)"/>
     </defs>
     <use xlink:href="#DejaVuSans-Oblique-41"/>
     <use xlink:href="#DejaVuSans-Oblique-63" transform="translate(68.408203 0)"/>
     <use xlink:href="#DejaVuSans-Oblique-74" transform="translate(123.388672 0)"/>
     <use xlink:href="#DejaVuSans-Oblique-69" transform="translate(162.597656 0)"/>
     <use xlink:href="#DejaVuSans-Oblique-76" transform="translate(190.380859 0)"/>
     <use xlink:href="#DejaVuSans-Oblique-61" transform="translate(249.560547 0)"/>
     <use xlink:href="#DejaVuSans-Oblique-74" transform="translate(310.839844 0)"/>
     <use xlink:href="#DejaVuSans-Oblique-69" transform="translate(350.048828 0)"/>
     <use xlink:href="#DejaVuSans-Oblique-6f" transform="translate(377.832031 0)"/>
     <use xlink:href="#DejaVuSans-Oblique-6e" transform="translate(439.013672 0)"/>
    </g>
   </g>
   <g id="text_17">
    <!-- A. Sliding Convolution -->
    <g transform="translate(7.2 15.558281) scale(0.11 -0.11)">
     <defs>
      <path id="DejaVuSans-Bold-20" transform="scale(0.015625)"/>
      <path id="DejaVuSans-Bold-53" d="M 3834 4519 
L 3834 3531 
Q 3450 3703 3084 3790 
Q 2719 3878 2394 3878 
Q 1963 3878 1756 3759 
Q 1550 3641 1550 3391 
Q 1550 3203 1689 3098 
Q 1828 2994 2194 2919 
L 2706 2816 
Q 3484 2659 3812 2340 
Q 4141 2022 4141 1434 
Q 4141 663 3683 286 
Q 3225 -91 2284 -91 
Q 1841 -91 1394 -6 
Q 947 78 500 244 
L 500 1259 
Q 947 1022 1364 901 
Q 1781 781 2169 781 
Q 2563 781 2772 912 
Q 2981 1044 2981 1288 
Q 2981 1506 2839 1625 
Q 2697 1744 2272 1838 
L 1806 1941 
Q 1106 2091 782 2419 
Q 459 2747 459 3303 
Q 459 4000 909 4375 
Q 1359 4750 2203 4750 
Q 2588 4750 2994 4692 
Q 3400 4634 3834 4519 
z
" transform="scale(0.015625)"/>
      <path id="DejaVuSans-Bold-6c" d="M 538 4863 
L 1656 4863 
L 1656 0 
L 538 0 
L 538 4863 
z
" transform="scale(0.015625)"/>
      <path id="DejaVuSans-Bold-69" d="M 538 3500 
L 1656 3500 
L 1656 0 
L 538 0 
L 538 3500 
z
M 538 4863 
L 1656 4863 
L 1656 3950 
L 538 3950 
L 538 4863 
z
" transform="scale(0.015625)"/>
      <path id="DejaVuSans-Bold-64" d="M 2919 2988 
L 2919 4863 
L 4044 4863 
L 4044 0 
L 2919 0 
L 2919 506 
Q 2688 197 2409 53 
Q 2131 -91 1766 -91 
Q 1119 -91 703 423 
Q 288 938 288 1747 
Q 288 2556 703 3070 
Q 1119 3584 1766 3584 
Q 2128 3584 2408 3439 
Q 2688 3294 2919 2988 
z
M 2181 722 
Q 2541 722 2730 984 
Q 2919 1247 2919 1747 
Q 2919 2247 2730 2509 
Q 2541 2772 2181 2772 
Q 1825 2772 1636 2509 
Q 1447 2247 1447 1747 
Q 1447 1247 1636 984 
Q 1825 722 2181 722 
z
" transform="scale(0.015625)"/>
      <path id="DejaVuSans-Bold-6e" d="M 4056 2131 
L 4056 0 
L 2931 0 
L 2931 347 
L 2931 1631 
Q 2931 2084 2911 2256 
Q 2891 2428 2841 2509 
Q 2775 2619 2662 2680 
Q 2550 2741 2406 2741 
Q 2056 2741 1856 2470 
Q 1656 2200 1656 1722 
L 1656 0 
L 538 0 
L 538 3500 
L 1656 3500 
L 1656 2988 
Q 1909 3294 2193 3439 
Q 2478 3584 2822 3584 
Q 3428 3584 3742 3212 
Q 4056 2841 4056 2131 
z
" transform="scale(0.015625)"/>
      <path id="DejaVuSans-Bold-67" d="M 2919 594 
Q 2688 288 2409 144 
Q 2131 0 1766 0 
Q 1125 0 706 504 
Q 288 1009 288 1791 
Q 288 2575 706 3076 
Q 1125 3578 1766 3578 
Q 2131 3578 2409 3434 
Q 2688 3291 2919 2981 
L 2919 3500 
L 4044 3500 
L 4044 353 
Q 4044 -491 3511 -936 
Q 2978 -1381 1966 -1381 
Q 1638 -1381 1331 -1331 
Q 1025 -1281 716 -1178 
L 716 -306 
Q 1009 -475 1290 -558 
Q 1572 -641 1856 -641 
Q 2406 -641 2662 -400 
Q 2919 -159 2919 353 
L 2919 594 
z
M 2181 2772 
Q 1834 2772 1640 2515 
Q 1447 2259 1447 1791 
Q 1447 1309 1634 1061 
Q 1822 813 2181 813 
Q 2531 813 2725 1069 
Q 2919 1325 2919 1791 
Q 2919 2259 2725 2515 
Q 2531 2772 2181 2772 
z
" transform="scale(0.015625)"/>
      <path id="DejaVuSans-Bold-6f" d="M 2203 2784 
Q 1831 2784 1636 2517 
Q 1441 2250 1441 1747 
Q 1441 1244 1636 976 
Q 1831 709 2203 709 
Q 2569 709 2762 976 
Q 2956 1244 2956 1747 
Q 2956 2250 2762 2517 
Q 2569 2784 2203 2784 
z
M 2203 3584 
Q 3106 3584 3614 3096 
Q 4122 2609 4122 1747 
Q 4122 884 3614 396 
Q 3106 -91 2203 -91 
Q 1297 -91 786 396 
Q 275 884 275 1747 
Q 275 2609 786 3096 
Q 1297 3584 2203 3584 
z
" transform="scale(0.015625)"/>
      <path id="DejaVuSans-Bold-76" d="M 97 3500 
L 1216 3500 
L 2088 1081 
L 2956 3500 
L 4078 3500 
L 2700 0 
L 1472 0 
L 97 3500 
z
" transform="scale(0.015625)"/>
      <path id="DejaVuSans-Bold-75" d="M 500 1363 
L 500 3500 
L 1625 3500 
L 1625 3150 
Q 1625 2866 1622 2436 
Q 1619 2006 1619 1863 
Q 1619 1441 1641 1255 
Q 1663 1069 1716 984 
Q 1784 875 1895 815 
Q 2006 756 2150 756 
Q 2500 756 2700 1025 
Q 2900 1294 2900 1772 
L 2900 3500 
L 4019 3500 
L 4019 0 
L 2900 0 
L 2900 506 
Q 2647 200 2364 54 
Q 2081 -91 1741 -91 
Q 1134 -91 817 281 
Q 500 653 500 1363 
z
" transform="scale(0.015625)"/>
      <path id="DejaVuSans-Bold-74" d="M 1759 4494 
L 1759 3500 
L 2913 3500 
L 2913 2700 
L 1759 2700 
L 1759 1216 
Q 1759 972 1856 886 
Q 1953 800 2241 800 
L 2816 800 
L 2816 0 
L 1856 0 
Q 1194 0 917 276 
Q 641 553 641 1216 
L 641 2700 
L 84 2700 
L 84 3500 
L 641 3500 
L 641 4494 
L 1759 4494 
z
" transform="scale(0.015625)"/>
     </defs>
     <use xlink:href="#DejaVuSans-Bold-41"/>
     <use xlink:href="#DejaVuSans-Bold-2e" transform="translate(79.267578 0)"/>
     <use xlink:href="#DejaVuSans-Bold-20" transform="translate(117.255859 0)"/>
     <use xlink:href="#DejaVuSans-Bold-53" transform="translate(152.070312 0)"/>
     <use xlink:href="#DejaVuSans-Bold-6c" transform="translate(224.091797 0)"/>
     <use xlink:href="#DejaVuSans-Bold-69" transform="translate(258.369141 0)"/>
     <use xlink:href="#DejaVuSans-Bold-64" transform="translate(292.646484 0)"/>
     <use xlink:href="#DejaVuSans-Bold-69" transform="translate(364.228516 0)"/>
     <use xlink:href="#DejaVuSans-Bold-6e" transform="translate(398.505859 0)"/>
     <use xlink:href="#DejaVuSans-Bold-67" transform="translate(469.697266 0)"/>
     <use xlink:href="#DejaVuSans-Bold-20" transform="translate(541.279297 0)"/>
     <use xlink:href="#DejaVuSans-Bold-43" transform="translate(576.09375 0)"/>
     <use xlink:href="#DejaVuSans-Bold-6f" transform="translate(649.482422 0)"/>
     <use xlink:href="#DejaVuSans-Bold-6e" transform="translate(718.183594 0)"/>
     <use xlink:href="#DejaVuSans-Bold-76" transform="translate(789.375 0)"/>
     <use xlink:href="#DejaVuSans-Bold-6f" transform="translate(854.560547 0)"/>
     <use xlink:href="#DejaVuSans-Bold-6c" transform="translate(923.261719 0)"/>
     <use xlink:href="#DejaVuSans-Bold-75" transform="translate(957.539062 0)"/>
     <use xlink:href="#DejaVuSans-Bold-74" transform="translate(1028.730469 0)"/>
     <use xlink:href="#DejaVuSans-Bold-69" transform="translate(1076.533203 0)"/>
     <use xlink:href="#DejaVuSans-Bold-6f" transform="translate(1110.810547 0)"/>
     <use xlink:href="#DejaVuSans-Bold-6e" transform="translate(1179.511719 0)"/>
    </g>
   </g>
  </g>
 </g>
 <defs>
  <clipPath id="p9c60ef6777">
   <rect x="7.2" y="21.558281" width="554.4" height="251.76"/>
  </clipPath>
 </defs>
</svg>
