<?xml version="1.0" encoding="utf-8" standalone="no"?>
<!DOCTYPE svg PUBLIC "-//W3C//DTD SVG 1.1//EN"
  "http://www.w3.org/Graphics/SVG/1.1/DTD/svg11.dtd">
<svg xmlns:xlink="http://www.w3.org/1999/xlink" width="496.8pt" height="352.47pt" viewBox="0 0 496.8 352.47" xmlns="http://www.w3.org/2000/svg" version="1.1">
 <metadata>
  <rdf:RDF xmlns:dc="http://purl.org/dc/elements/1.1/" xmlns:cc="http://creativecommons.org/ns#" xmlns:rdf="http://www.w3.org/1999/02/22-rdf-syntax-ns#">
   <cc:Work>
    <dc:type rdf:resource="http://purl.org/dc/dcmitype/StillImage"/>
    <dc:date>2026-01-08T05:45:31.008944</dc:date>
    <dc:format>image/svg+xml</dc:format>
    <dc:creator>
     <cc:Agent>
      <dc:title>Matplotlib v3.10.7, https://matplotlib.org/</dc:title>
     </cc:Agent>
    </dc:creator>
   </cc:Work>
  </rdf:RDF>
 </metadata>
 <defs>
  <style type="text/css">*{stroke-linejoin: round; stroke-linecap: butt}</style>
 </defs>
 <g id="figure_1">
  <g id="patch_1">
   <path d="M 0 352.47 
L 496.8 352.47 
L 496.8 0 
L 0 0 
z
" style="fill: #ffffff"/>
  </g>
  <g id="axes_1">
   <g id="patch_2">
    <path d="M 14.621538 83.187217 
L 35.401846 83.187217 
L 35.401846 48.94892 
L 14.621538 48.94892 
z
" clip-path="url(#pf78e6f9a3f)" style="fill: #9fcae1; stroke: #ffffff; stroke-width: 0.5; stroke-linejoin: miter"/>
   </g>
   <g id="patch_3">
    <path d="M 36.886154 83.187217 
L 57.666462 83.187217 
L 57.666462 48.94892 
L 36.886154 48.94892 
z
" clip-path="url(#pf78e6f9a3f)" style="fill: #083c7d; stroke: #ffffff; stroke-width: 0.5; stroke-linejoin: miter"/>
   </g>
   <g id="patch_4">
    <path d="M 59.150769 83.187217 
L 79.931077 83.187217 
L 79.931077 48.94892 
L 59.150769 48.94892 
z
" clip-path="url(#pf78e6f9a3f)" style="fill: #2575b7; stroke: #ffffff; stroke-width: 0.5; stroke-linejoin: miter"/>
   </g>
   <g id="patch_5">
    <path d="M 81.415385 83.187217 
L 102.195692 83.187217 
L 102.195692 48.94892 
L 81.415385 48.94892 
z
" clip-path="url(#pf78e6f9a3f)" style="fill: #4a98c9; stroke: #ffffff; stroke-width: 0.5; stroke-linejoin: miter"/>
   </g>
   <g id="patch_6">
    <path d="M 103.68 83.187217 
L 124.460308 83.187217 
L 124.460308 48.94892 
L 103.68 48.94892 
z
" clip-path="url(#pf78e6f9a3f)" style="fill: #d9e7f5; stroke: #ffffff; stroke-width: 0.5; stroke-linejoin: miter"/>
   </g>
   <g id="patch_7">
    <path d="M 125.944615 83.187217 
L 146.724923 83.187217 
L 146.724923 48.94892 
L 125.944615 48.94892 
z
" clip-path="url(#pf78e6f9a3f)" style="fill: #d9e7f5; stroke: #ffffff; stroke-width: 0.5; stroke-linejoin: miter"/>
   </g>
   <g id="patch_8">
    <path d="M 148.209231 83.187217 
L 168.989538 83.187217 
L 168.989538 48.94892 
L 148.209231 48.94892 
z
" clip-path="url(#pf78e6f9a3f)" style="fill: #ecf4fb; stroke: #ffffff; stroke-width: 0.5; stroke-linejoin: miter"/>
   </g>
   <g id="patch_9">
    <path d="M 170.473846 83.187217 
L 191.254154 83.187217 
L 191.254154 48.94892 
L 170.473846 48.94892 
z
" clip-path="url(#pf78e6f9a3f)" style="fill: #0a539e; stroke: #ffffff; stroke-width: 0.5; stroke-linejoin: miter"/>
   </g>
   <g id="patch_10">
    <path d="M 14.621538 131.120834 
L 35.401846 131.120834 
L 35.401846 96.882537 
L 14.621538 96.882537 
z
" clip-path="url(#pf78e6f9a3f)" style="fill: #4a98c9; stroke: #ffffff; stroke-width: 0.5; stroke-linejoin: miter"/>
   </g>
   <g id="patch_11">
    <path d="M 36.886154 131.120834 
L 57.666462 131.120834 
L 57.666462 96.882537 
L 36.886154 96.882537 
z
" clip-path="url(#pf78e6f9a3f)" style="fill: #2c7cba; stroke: #ffffff; stroke-width: 0.5; stroke-linejoin: miter"/>
   </g>
   <g id="patch_12">
    <path d="M 59.150769 131.120834 
L 79.931077 131.120834 
L 79.931077 96.882537 
L 59.150769 96.882537 
z
" clip-path="url(#pf78e6f9a3f)" style="fill: #f3f8fe; stroke: #ffffff; stroke-width: 0.5; stroke-linejoin: miter"/>
   </g>
   <g id="patch_13">
    <path d="M 81.415385 131.120834 
L 102.195692 131.120834 
L 102.195692 96.882537 
L 81.415385 96.882537 
z
" clip-path="url(#pf78e6f9a3f)" style="fill: #083776; stroke: #ffffff; stroke-width: 0.5; stroke-linejoin: miter"/>
   </g>
   <g id="patch_14">
    <path d="M 103.68 131.120834 
L 124.460308 131.120834 
L 124.460308 96.882537 
L 103.68 96.882537 
z
" clip-path="url(#pf78e6f9a3f)" style="fill: #105ba4; stroke: #ffffff; stroke-width: 0.5; stroke-linejoin: miter"/>
   </g>
   <g id="patch_15">
    <path d="M 125.944615 131.120834 
L 146.724923 131.120834 
L 146.724923 96.882537 
L 125.944615 96.882537 
z
" clip-path="url(#pf78e6f9a3f)" style="fill: #cde0f1; stroke: #ffffff; stroke-width: 0.5; stroke-linejoin: miter"/>
   </g>
   <g id="patch_16">
    <path d="M 148.209231 131.120834 
L 168.989538 131.120834 
L 168.989538 96.882537 
L 148.209231 96.882537 
z
" clip-path="url(#pf78e6f9a3f)" style="fill: #d3e4f3; stroke: #ffffff; stroke-width: 0.5; stroke-linejoin: miter"/>
   </g>
   <g id="patch_17">
    <path d="M 170.473846 131.120834 
L 191.254154 131.120834 
L 191.254154 96.882537 
L 170.473846 96.882537 
z
" clip-path="url(#pf78e6f9a3f)" style="fill: #d3e4f3; stroke: #ffffff; stroke-width: 0.5; stroke-linejoin: miter"/>
   </g>
   <g id="patch_18">
    <path d="M 14.621538 179.054451 
L 35.401846 179.054451 
L 35.401846 144.816154 
L 14.621538 144.816154 
z
" clip-path="url(#pf78e6f9a3f)" style="fill: #b5d4e9; stroke: #ffffff; stroke-width: 0.5; stroke-linejoin: miter"/>
   </g>
   <g id="patch_19">
    <path d="M 36.886154 179.054451 
L 57.666462 179.054451 
L 57.666462 144.816154 
L 36.886154 144.816154 
z
" clip-path="url(#pf78e6f9a3f)" style="fill: #63a8d3; stroke: #ffffff; stroke-width: 0.5; stroke-linejoin: miter"/>
   </g>
   <g id="patch_20">
    <path d="M 59.150769 179.054451 
L 79.931077 179.054451 
L 79.931077 144.816154 
L 59.150769 144.816154 
z
" clip-path="url(#pf78e6f9a3f)" style="fill: #87bddc; stroke: #ffffff; stroke-width: 0.5; stroke-linejoin: miter"/>
   </g>
   <g id="patch_21">
    <path d="M 81.415385 179.054451 
L 102.195692 179.054451 
L 102.195692 144.816154 
L 81.415385 144.816154 
z
" clip-path="url(#pf78e6f9a3f)" style="fill: #b9d6ea; stroke: #ffffff; stroke-width: 0.5; stroke-linejoin: miter"/>
   </g>
   <g id="patch_22">
    <path d="M 103.68 179.054451 
L 124.460308 179.054451 
L 124.460308 144.816154 
L 103.68 144.816154 
z
" clip-path="url(#pf78e6f9a3f)" style="fill: #4695c8; stroke: #ffffff; stroke-width: 0.5; stroke-linejoin: miter"/>
   </g>
   <g id="patch_23">
    <path d="M 125.944615 179.054451 
L 146.724923 179.054451 
L 146.724923 144.816154 
L 125.944615 144.816154 
z
" clip-path="url(#pf78e6f9a3f)" style="fill: #dce9f6; stroke: #ffffff; stroke-width: 0.5; stroke-linejoin: miter"/>
   </g>
   <g id="patch_24">
    <path d="M 148.209231 179.054451 
L 168.989538 179.054451 
L 168.989538 144.816154 
L 148.209231 144.816154 
z
" clip-path="url(#pf78e6f9a3f)" style="fill: #b9d6ea; stroke: #ffffff; stroke-width: 0.5; stroke-linejoin: miter"/>
   </g>
   <g id="patch_25">
    <path d="M 170.473846 179.054451 
L 191.254154 179.054451 
L 191.254154 144.816154 
L 170.473846 144.816154 
z
" clip-path="url(#pf78e6f9a3f)" style="fill: #a1cbe2; stroke: #ffffff; stroke-width: 0.5; stroke-linejoin: miter"/>
   </g>
   <g id="patch_26">
    <path d="M 14.621538 226.988068 
L 35.401846 226.988068 
L 35.401846 192.749771 
L 14.621538 192.749771 
z
" clip-path="url(#pf78e6f9a3f)" style="fill: #7db8da; stroke: #ffffff; stroke-width: 0.5; stroke-linejoin: miter"/>
   </g>
   <g id="patch_27">
    <path d="M 36.886154 226.988068 
L 57.666462 226.988068 
L 57.666462 192.749771 
L 36.886154 192.749771 
z
" clip-path="url(#pf78e6f9a3f)" style="fill: #1967ad; stroke: #ffffff; stroke-width: 0.5; stroke-linejoin: miter"/>
   </g>
   <g id="patch_28">
    <path d="M 59.150769 226.988068 
L 79.931077 226.988068 
L 79.931077 192.749771 
L 59.150769 192.749771 
z
" clip-path="url(#pf78e6f9a3f)" style="fill: #d0e1f2; stroke: #ffffff; stroke-width: 0.5; stroke-linejoin: miter"/>
   </g>
   <g id="patch_29">
    <path d="M 81.415385 226.988068 
L 102.195692 226.988068 
L 102.195692 192.749771 
L 81.415385 192.749771 
z
" clip-path="url(#pf78e6f9a3f)" style="fill: #66abd4; stroke: #ffffff; stroke-width: 0.5; stroke-linejoin: miter"/>
   </g>
   <g id="patch_30">
    <path d="M 103.68 226.988068 
L 124.460308 226.988068 
L 124.460308 192.749771 
L 103.68 192.749771 
z
" clip-path="url(#pf78e6f9a3f)" style="fill: #4d99ca; stroke: #ffffff; stroke-width: 0.5; stroke-linejoin: miter"/>
   </g>
   <g id="patch_31">
    <path d="M 125.944615 226.988068 
L 146.724923 226.988068 
L 146.724923 192.749771 
L 125.944615 192.749771 
z
" clip-path="url(#pf78e6f9a3f)" style="fill: #eef5fc; stroke: #ffffff; stroke-width: 0.5; stroke-linejoin: miter"/>
   </g>
   <g id="patch_32">
    <path d="M 148.209231 226.988068 
L 168.989538 226.988068 
L 168.989538 192.749771 
L 148.209231 192.749771 
z
" clip-path="url(#pf78e6f9a3f)" style="fill: #4896c8; stroke: #ffffff; stroke-width: 0.5; stroke-linejoin: miter"/>
   </g>
   <g id="patch_33">
    <path d="M 170.473846 226.988068 
L 191.254154 226.988068 
L 191.254154 192.749771 
L 170.473846 192.749771 
z
" clip-path="url(#pf78e6f9a3f)" style="fill: #d6e5f4; stroke: #ffffff; stroke-width: 0.5; stroke-linejoin: miter"/>
   </g>
   <g id="patch_34">
    <path d="M 14.621538 274.921686 
L 35.401846 274.921686 
L 35.401846 240.683388 
L 14.621538 240.683388 
z
" clip-path="url(#pf78e6f9a3f)" style="fill: #eaf3fb; stroke: #ffffff; stroke-width: 0.5; stroke-linejoin: miter"/>
   </g>
   <g id="patch_35">
    <path d="M 36.886154 274.921686 
L 57.666462 274.921686 
L 57.666462 240.683388 
L 36.886154 240.683388 
z
" clip-path="url(#pf78e6f9a3f)" style="fill: #083d7f; stroke: #ffffff; stroke-width: 0.5; stroke-linejoin: miter"/>
   </g>
   <g id="patch_36">
    <path d="M 59.150769 274.921686 
L 79.931077 274.921686 
L 79.931077 240.683388 
L 59.150769 240.683388 
z
" clip-path="url(#pf78e6f9a3f)" style="fill: #083877; stroke: #ffffff; stroke-width: 0.5; stroke-linejoin: miter"/>
   </g>
   <g id="patch_37">
    <path d="M 81.415385 274.921686 
L 102.195692 274.921686 
L 102.195692 240.683388 
L 81.415385 240.683388 
z
" clip-path="url(#pf78e6f9a3f)" style="fill: #1562a9; stroke: #ffffff; stroke-width: 0.5; stroke-linejoin: miter"/>
   </g>
   <g id="patch_38">
    <path d="M 103.68 274.921686 
L 124.460308 274.921686 
L 124.460308 240.683388 
L 103.68 240.683388 
z
" clip-path="url(#pf78e6f9a3f)" style="fill: #b5d4e9; stroke: #ffffff; stroke-width: 0.5; stroke-linejoin: miter"/>
   </g>
   <g id="patch_39">
    <path d="M 125.944615 274.921686 
L 146.724923 274.921686 
L 146.724923 240.683388 
L 125.944615 240.683388 
z
" clip-path="url(#pf78e6f9a3f)" style="fill: #e3eef9; stroke: #ffffff; stroke-width: 0.5; stroke-linejoin: miter"/>
   </g>
   <g id="patch_40">
    <path d="M 148.209231 274.921686 
L 168.989538 274.921686 
L 168.989538 240.683388 
L 148.209231 240.683388 
z
" clip-path="url(#pf78e6f9a3f)" style="fill: #3282be; stroke: #ffffff; stroke-width: 0.5; stroke-linejoin: miter"/>
   </g>
   <g id="patch_41">
    <path d="M 170.473846 274.921686 
L 191.254154 274.921686 
L 191.254154 240.683388 
L 170.473846 240.683388 
z
" clip-path="url(#pf78e6f9a3f)" style="fill: #84bcdb; stroke: #ffffff; stroke-width: 0.5; stroke-linejoin: miter"/>
   </g>
   <g id="patch_42">
    <path d="M 14.621538 322.855303 
L 35.401846 322.855303 
L 35.401846 288.617005 
L 14.621538 288.617005 
z
" clip-path="url(#pf78e6f9a3f)" style="fill: #dfebf7; stroke: #ffffff; stroke-width: 0.5; stroke-linejoin: miter"/>
   </g>
   <g id="patch_43">
    <path d="M 36.886154 322.855303 
L 57.666462 322.855303 
L 57.666462 288.617005 
L 36.886154 288.617005 
z
" clip-path="url(#pf78e6f9a3f)" style="fill: #6dafd7; stroke: #ffffff; stroke-width: 0.5; stroke-linejoin: miter"/>
   </g>
   <g id="patch_44">
    <path d="M 59.150769 322.855303 
L 79.931077 322.855303 
L 79.931077 288.617005 
L 59.150769 288.617005 
z
" clip-path="url(#pf78e6f9a3f)" style="fill: #f1f7fd; stroke: #ffffff; stroke-width: 0.5; stroke-linejoin: miter"/>
   </g>
   <g id="patch_45">
    <path d="M 81.415385 322.855303 
L 102.195692 322.855303 
L 102.195692 288.617005 
L 81.415385 288.617005 
z
" clip-path="url(#pf78e6f9a3f)" style="fill: #08488e; stroke: #ffffff; stroke-width: 0.5; stroke-linejoin: miter"/>
   </g>
   <g id="patch_46">
    <path d="M 103.68 322.855303 
L 124.460308 322.855303 
L 124.460308 288.617005 
L 103.68 288.617005 
z
" clip-path="url(#pf78e6f9a3f)" style="fill: #c3daee; stroke: #ffffff; stroke-width: 0.5; stroke-linejoin: miter"/>
   </g>
   <g id="patch_47">
    <path d="M 125.944615 322.855303 
L 146.724923 322.855303 
L 146.724923 288.617005 
L 125.944615 288.617005 
z
" clip-path="url(#pf78e6f9a3f)" style="fill: #3888c1; stroke: #ffffff; stroke-width: 0.5; stroke-linejoin: miter"/>
   </g>
   <g id="patch_48">
    <path d="M 148.209231 322.855303 
L 168.989538 322.855303 
L 168.989538 288.617005 
L 148.209231 288.617005 
z
" clip-path="url(#pf78e6f9a3f)" style="fill: #b3d3e8; stroke: #ffffff; stroke-width: 0.5; stroke-linejoin: miter"/>
   </g>
   <g id="patch_49">
    <path d="M 170.473846 322.855303 
L 191.254154 322.855303 
L 191.254154 288.617005 
L 170.473846 288.617005 
z
" clip-path="url(#pf78e6f9a3f)" style="fill: #64a9d3; stroke: #ffffff; stroke-width: 0.5; stroke-linejoin: miter"/>
   </g>
   <g id="text_1">
    <!-- Filter 1 -->
    <g transform="translate(215.003077 68.551506) scale(0.09 -0.09)">
     <defs>
      <path id="DejaVuSans-46" d="M 628 4666 
L 3309 4666 
L 3309 4134 
L 1259 4134 
L 1259 2759 
L 3109 2759 
L 3109 2228 
L 1259 2228 
L 1259 0 
L 628 0 
L 628 4666 
z
" transform="scale(0.015625)"/>
      <path id="DejaVuSans-69" d="M 603 3500 
L 1178 3500 
L 1178 0 
L 603 0 
L 603 3500 
z
M 603 4863 
L 1178 4863 
L 1178 4134 
L 603 4134 
L 603 4863 
z
" transform="scale(0.015625)"/>
      <path id="DejaVuSans-6c" d="M 603 4863 
L 1178 4863 
L 1178 0 
L 603 0 
L 603 4863 
z
" transform="scale(0.015625)"/>
      <path id="DejaVuSans-74" d="M 1172 4494 
L 1172 3500 
L 2356 3500 
L 2356 3053 
L 1172 3053 
L 1172 1153 
Q 1172 725 1289 603 
Q 1406 481 1766 481 
L 2356 481 
L 2356 0 
L 1766 0 
Q 1100 0 847 248 
Q 594 497 594 1153 
L 594 3053 
L 172 3053 
L 172 3500 
L 594 3500 
L 594 4494 
L 1172 4494 
z
" transform="scale(0.015625)"/>
      <path id="DejaVuSans-65" d="M 3597 1894 
L 3597 1613 
L 953 1613 
Q 991 1019 1311 708 
Q 1631 397 2203 397 
Q 2534 397 2845 478 
Q 3156 559 3463 722 
L 3463 178 
Q 3153 47 2828 -22 
Q 2503 -91 2169 -91 
Q 1331 -91 842 396 
Q 353 884 353 1716 
Q 353 2575 817 3079 
Q 1281 3584 2069 3584 
Q 2775 3584 3186 3129 
Q 3597 2675 3597 1894 
z
M 3022 2063 
Q 3016 2534 2758 2815 
Q 2500 3097 2075 3097 
Q 1594 3097 1305 2825 
Q 1016 2553 972 2059 
L 3022 2063 
z
" transform="scale(0.015625)"/>
      <path id="DejaVuSans-72" d="M 2631 2963 
Q 2534 3019 2420 3045 
Q 2306 3072 2169 3072 
Q 1681 3072 1420 2755 
Q 1159 2438 1159 1844 
L 1159 0 
L 581 0 
L 581 3500 
L 1159 3500 
L 1159 2956 
Q 1341 3275 1631 3429 
Q 1922 3584 2338 3584 
Q 2397 3584 2469 3576 
Q 2541 3569 2628 3553 
L 2631 2963 
z
" transform="scale(0.015625)"/>
      <path id="DejaVuSans-20" transform="scale(0.015625)"/>
      <path id="DejaVuSans-31" d="M 794 531 
L 1825 531 
L 1825 4091 
L 703 3866 
L 703 4441 
L 1819 4666 
L 2450 4666 
L 2450 531 
L 3481 531 
L 3481 0 
L 794 0 
L 794 531 
z
" transform="scale(0.015625)"/>
     </defs>
     <use xlink:href="#DejaVuSans-46"/>
     <use xlink:href="#DejaVuSans-69" transform="translate(50.269531 0)"/>
     <use xlink:href="#DejaVuSans-6c" transform="translate(78.052734 0)"/>
     <use xlink:href="#DejaVuSans-74" transform="translate(105.835938 0)"/>
     <use xlink:href="#DejaVuSans-65" transform="translate(145.044922 0)"/>
     <use xlink:href="#DejaVuSans-72" transform="translate(206.568359 0)"/>
     <use xlink:href="#DejaVuSans-20" transform="translate(247.681641 0)"/>
     <use xlink:href="#DejaVuSans-31" transform="translate(279.46875 0)"/>
    </g>
   </g>
   <g id="text_2">
    <!-- → TATA box -->
    <g style="fill: #555555" transform="translate(341.169231 68.551506) scale(0.09 -0.09)">
     <defs>
      <path id="DejaVuSans-Oblique-2192" d="M 5050 2147 
L 5050 1866 
L 3822 638 
L 3447 1013 
L 4175 1741 
L 366 1741 
L 366 2272 
L 4175 2272 
L 3447 3000 
L 3822 3375 
L 5050 2147 
z
" transform="scale(0.015625)"/>
      <path id="DejaVuSans-Oblique-20" transform="scale(0.015625)"/>
      <path id="DejaVuSans-Oblique-54" d="M 378 4666 
L 4325 4666 
L 4225 4134 
L 2559 4134 
L 1759 0 
L 1125 0 
L 1925 4134 
L 275 4134 
L 378 4666 
z
" transform="scale(0.015625)"/>
      <path id="DejaVuSans-Oblique-41" d="M 2356 4666 
L 3072 4666 
L 3938 0 
L 3278 0 
L 3084 1197 
L 984 1197 
L 325 0 
L -341 0 
L 2356 4666 
z
M 2584 4044 
L 1275 1722 
L 2988 1722 
L 2584 4044 
z
" transform="scale(0.015625)"/>
      <path id="DejaVuSans-Oblique-62" d="M 3169 2138 
Q 3169 2591 2961 2847 
Q 2753 3103 2388 3103 
Q 2122 3103 1889 2973 
Q 1656 2844 1484 2597 
Q 1303 2338 1198 1995 
Q 1094 1653 1094 1313 
Q 1094 881 1298 636 
Q 1503 391 1863 391 
Q 2134 391 2365 517 
Q 2597 644 2772 891 
Q 2950 1147 3059 1487 
Q 3169 1828 3169 2138 
z
M 1381 2969 
Q 1594 3256 1914 3420 
Q 2234 3584 2584 3584 
Q 3122 3584 3439 3221 
Q 3756 2859 3756 2241 
Q 3756 1734 3570 1259 
Q 3384 784 3041 416 
Q 2816 172 2522 40 
Q 2228 -91 1906 -91 
Q 1566 -91 1316 65 
Q 1066 222 909 531 
L 806 0 
L 231 0 
L 1178 4863 
L 1753 4863 
L 1381 2969 
z
" transform="scale(0.015625)"/>
      <path id="DejaVuSans-Oblique-6f" d="M 1625 -91 
Q 1009 -91 651 289 
Q 294 669 294 1325 
Q 294 1706 417 2101 
Q 541 2497 738 2766 
Q 1047 3184 1428 3384 
Q 1809 3584 2291 3584 
Q 2888 3584 3255 3212 
Q 3622 2841 3622 2241 
Q 3622 1825 3500 1412 
Q 3378 1000 3181 728 
Q 2875 309 2494 109 
Q 2113 -91 1625 -91 
z
M 891 1344 
Q 891 869 1089 633 
Q 1288 397 1691 397 
Q 2269 397 2648 901 
Q 3028 1406 3028 2181 
Q 3028 2634 2825 2865 
Q 2622 3097 2228 3097 
Q 1903 3097 1650 2945 
Q 1397 2794 1197 2484 
Q 1050 2253 970 1956 
Q 891 1659 891 1344 
z
" transform="scale(0.015625)"/>
      <path id="DejaVuSans-Oblique-78" d="M 3841 3500 
L 2234 1784 
L 3219 0 
L 2559 0 
L 1819 1388 
L 531 0 
L -166 0 
L 1556 1844 
L 641 3500 
L 1300 3500 
L 1972 2234 
L 3144 3500 
L 3841 3500 
z
" transform="scale(0.015625)"/>
     </defs>
     <use xlink:href="#DejaVuSans-Oblique-2192"/>
     <use xlink:href="#DejaVuSans-Oblique-20" transform="translate(83.789062 0)"/>
     <use xlink:href="#DejaVuSans-Oblique-54" transform="translate(115.576172 0)"/>
     <use xlink:href="#DejaVuSans-Oblique-41" transform="translate(167.535156 0)"/>
     <use xlink:href="#DejaVuSans-Oblique-54" transform="translate(228.693359 0)"/>
     <use xlink:href="#DejaVuSans-Oblique-41" transform="translate(280.652344 0)"/>
     <use xlink:href="#DejaVuSans-Oblique-20" transform="translate(349.060547 0)"/>
     <use xlink:href="#DejaVuSans-Oblique-62" transform="translate(380.847656 0)"/>
     <use xlink:href="#DejaVuSans-Oblique-6f" transform="translate(444.324219 0)"/>
     <use xlink:href="#DejaVuSans-Oblique-78" transform="translate(505.505859 0)"/>
    </g>
   </g>
   <g id="text_3">
    <!-- Filter 2 -->
    <g transform="translate(215.003077 116.485123) scale(0.09 -0.09)">
     <defs>
      <path id="DejaVuSans-32" d="M 1228 531 
L 3431 531 
L 3431 0 
L 469 0 
L 469 531 
Q 828 903 1448 1529 
Q 2069 2156 2228 2338 
Q 2531 2678 2651 2914 
Q 2772 3150 2772 3378 
Q 2772 3750 2511 3984 
Q 2250 4219 1831 4219 
Q 1534 4219 1204 4116 
Q 875 4013 500 3803 
L 500 4441 
Q 881 4594 1212 4672 
Q 1544 4750 1819 4750 
Q 2544 4750 2975 4387 
Q 3406 4025 3406 3419 
Q 3406 3131 3298 2873 
Q 3191 2616 2906 2266 
Q 2828 2175 2409 1742 
Q 1991 1309 1228 531 
z
" transform="scale(0.015625)"/>
     </defs>
     <use xlink:href="#DejaVuSans-46"/>
     <use xlink:href="#DejaVuSans-69" transform="translate(50.269531 0)"/>
     <use xlink:href="#DejaVuSans-6c" transform="translate(78.052734 0)"/>
     <use xlink:href="#DejaVuSans-74" transform="translate(105.835938 0)"/>
     <use xlink:href="#DejaVuSans-65" transform="translate(145.044922 0)"/>
     <use xlink:href="#DejaVuSans-72" transform="translate(206.568359 0)"/>
     <use xlink:href="#DejaVuSans-20" transform="translate(247.681641 0)"/>
     <use xlink:href="#DejaVuSans-32" transform="translate(279.46875 0)"/>
    </g>
   </g>
   <g id="text_4">
    <!-- → GC box -->
    <g style="fill: #555555" transform="translate(341.169231 116.485123) scale(0.09 -0.09)">
     <defs>
      <path id="DejaVuSans-Oblique-47" d="M 3494 697 
L 3738 1919 
L 2700 1919 
L 2797 2438 
L 4453 2438 
L 4050 384 
Q 3634 156 3143 32 
Q 2653 -91 2156 -91 
Q 1278 -91 783 396 
Q 288 884 288 1753 
Q 288 2475 589 3126 
Q 891 3778 1422 4213 
Q 1756 4484 2153 4617 
Q 2550 4750 3034 4750 
Q 3472 4750 3873 4639 
Q 4275 4528 4641 4306 
L 4513 3634 
Q 4231 3928 3853 4083 
Q 3475 4238 3047 4238 
Q 2550 4238 2172 4048 
Q 1794 3859 1497 3463 
Q 1244 3125 1098 2667 
Q 953 2209 953 1734 
Q 953 1081 1287 751 
Q 1622 422 2284 422 
Q 2616 422 2925 492 
Q 3234 563 3494 697 
z
" transform="scale(0.015625)"/>
      <path id="DejaVuSans-Oblique-43" d="M 4447 4306 
L 4319 3641 
Q 4019 3944 3683 4091 
Q 3347 4238 2956 4238 
Q 2422 4238 2017 3981 
Q 1613 3725 1319 3200 
Q 1131 2863 1032 2486 
Q 934 2109 934 1728 
Q 934 1091 1264 756 
Q 1594 422 2222 422 
Q 2656 422 3056 561 
Q 3456 700 3834 978 
L 3688 231 
Q 3316 72 2936 -9 
Q 2556 -91 2175 -91 
Q 1278 -91 773 396 
Q 269 884 269 1753 
Q 269 2309 461 2846 
Q 653 3384 1013 3828 
Q 1394 4300 1883 4525 
Q 2372 4750 3022 4750 
Q 3422 4750 3780 4639 
Q 4138 4528 4447 4306 
z
" transform="scale(0.015625)"/>
     </defs>
     <use xlink:href="#DejaVuSans-Oblique-2192"/>
     <use xlink:href="#DejaVuSans-Oblique-20" transform="translate(83.789062 0)"/>
     <use xlink:href="#DejaVuSans-Oblique-47" transform="translate(115.576172 0)"/>
     <use xlink:href="#DejaVuSans-Oblique-43" transform="translate(193.066406 0)"/>
     <use xlink:href="#DejaVuSans-Oblique-20" transform="translate(262.890625 0)"/>
     <use xlink:href="#DejaVuSans-Oblique-62" transform="translate(294.677734 0)"/>
     <use xlink:href="#DejaVuSans-Oblique-6f" transform="translate(358.154297 0)"/>
     <use xlink:href="#DejaVuSans-Oblique-78" transform="translate(419.335938 0)"/>
    </g>
   </g>
   <g id="text_5">
    <!-- Filter 3 -->
    <g transform="translate(215.003077 164.41874) scale(0.09 -0.09)">
     <defs>
      <path id="DejaVuSans-33" d="M 2597 2516 
Q 3050 2419 3304 2112 
Q 3559 1806 3559 1356 
Q 3559 666 3084 287 
Q 2609 -91 1734 -91 
Q 1441 -91 1130 -33 
Q 819 25 488 141 
L 488 750 
Q 750 597 1062 519 
Q 1375 441 1716 441 
Q 2309 441 2620 675 
Q 2931 909 2931 1356 
Q 2931 1769 2642 2001 
Q 2353 2234 1838 2234 
L 1294 2234 
L 1294 2753 
L 1863 2753 
Q 2328 2753 2575 2939 
Q 2822 3125 2822 3475 
Q 2822 3834 2567 4026 
Q 2313 4219 1838 4219 
Q 1578 4219 1281 4162 
Q 984 4106 628 3988 
L 628 4550 
Q 988 4650 1302 4700 
Q 1616 4750 1894 4750 
Q 2613 4750 3031 4423 
Q 3450 4097 3450 3541 
Q 3450 3153 3228 2886 
Q 3006 2619 2597 2516 
z
" transform="scale(0.015625)"/>
     </defs>
     <use xlink:href="#DejaVuSans-46"/>
     <use xlink:href="#DejaVuSans-69" transform="translate(50.269531 0)"/>
     <use xlink:href="#DejaVuSans-6c" transform="translate(78.052734 0)"/>
     <use xlink:href="#DejaVuSans-74" transform="translate(105.835938 0)"/>
     <use xlink:href="#DejaVuSans-65" transform="translate(145.044922 0)"/>
     <use xlink:href="#DejaVuSans-72" transform="translate(206.568359 0)"/>
     <use xlink:href="#DejaVuSans-20" transform="translate(247.681641 0)"/>
     <use xlink:href="#DejaVuSans-33" transform="translate(279.46875 0)"/>
    </g>
   </g>
   <g id="text_6">
    <!-- → CAAT box -->
    <g style="fill: #555555" transform="translate(341.169231 164.41874) scale(0.09 -0.09)">
     <use xlink:href="#DejaVuSans-Oblique-2192"/>
     <use xlink:href="#DejaVuSans-Oblique-20" transform="translate(83.789062 0)"/>
     <use xlink:href="#DejaVuSans-Oblique-43" transform="translate(115.576172 0)"/>
     <use xlink:href="#DejaVuSans-Oblique-41" transform="translate(185.400391 0)"/>
     <use xlink:href="#DejaVuSans-Oblique-41" transform="translate(253.808594 0)"/>
     <use xlink:href="#DejaVuSans-Oblique-54" transform="translate(314.966797 0)"/>
     <use xlink:href="#DejaVuSans-Oblique-20" transform="translate(376.050781 0)"/>
     <use xlink:href="#DejaVuSans-Oblique-62" transform="translate(407.837891 0)"/>
     <use xlink:href="#DejaVuSans-Oblique-6f" transform="translate(471.314453 0)"/>
     <use xlink:href="#DejaVuSans-Oblique-78" transform="translate(532.496094 0)"/>
    </g>
   </g>
   <g id="text_7">
    <!-- Filter 4 -->
    <g transform="translate(215.003077 212.352357) scale(0.09 -0.09)">
     <defs>
      <path id="DejaVuSans-34" d="M 2419 4116 
L 825 1625 
L 2419 1625 
L 2419 4116 
z
M 2253 4666 
L 3047 4666 
L 3047 1625 
L 3713 1625 
L 3713 1100 
L 3047 1100 
L 3047 0 
L 2419 0 
L 2419 1100 
L 313 1100 
L 313 1709 
L 2253 4666 
z
" transform="scale(0.015625)"/>
     </defs>
     <use xlink:href="#DejaVuSans-46"/>
     <use xlink:href="#DejaVuSans-69" transform="translate(50.269531 0)"/>
     <use xlink:href="#DejaVuSans-6c" transform="translate(78.052734 0)"/>
     <use xlink:href="#DejaVuSans-74" transform="translate(105.835938 0)"/>
     <use xlink:href="#DejaVuSans-65" transform="translate(145.044922 0)"/>
     <use xlink:href="#DejaVuSans-72" transform="translate(206.568359 0)"/>
     <use xlink:href="#DejaVuSans-20" transform="translate(247.681641 0)"/>
     <use xlink:href="#DejaVuSans-34" transform="translate(279.46875 0)"/>
    </g>
   </g>
   <g id="text_8">
    <!-- → E-box -->
    <g style="fill: #555555" transform="translate(341.169231 212.352357) scale(0.09 -0.09)">
     <defs>
      <path id="DejaVuSans-Oblique-45" d="M 1081 4666 
L 4031 4666 
L 3928 4134 
L 1606 4134 
L 1338 2753 
L 3566 2753 
L 3463 2222 
L 1234 2222 
L 909 531 
L 3284 531 
L 3181 0 
L 172 0 
L 1081 4666 
z
" transform="scale(0.015625)"/>
      <path id="DejaVuSans-Oblique-2d" d="M 391 2009 
L 2075 2009 
L 1978 1497 
L 288 1497 
L 391 2009 
z
" transform="scale(0.015625)"/>
     </defs>
     <use xlink:href="#DejaVuSans-Oblique-2192"/>
     <use xlink:href="#DejaVuSans-Oblique-20" transform="translate(83.789062 0)"/>
     <use xlink:href="#DejaVuSans-Oblique-45" transform="translate(115.576172 0)"/>
     <use xlink:href="#DejaVuSans-Oblique-2d" transform="translate(178.759766 0)"/>
     <use xlink:href="#DejaVuSans-Oblique-62" transform="translate(214.84375 0)"/>
     <use xlink:href="#DejaVuSans-Oblique-6f" transform="translate(278.320312 0)"/>
     <use xlink:href="#DejaVuSans-Oblique-78" transform="translate(339.501953 0)"/>
    </g>
   </g>
   <g id="text_9">
    <!-- Filter 5 -->
    <g transform="translate(215.003077 260.285974) scale(0.09 -0.09)">
     <defs>
      <path id="DejaVuSans-35" d="M 691 4666 
L 3169 4666 
L 3169 4134 
L 1269 4134 
L 1269 2991 
Q 1406 3038 1543 3061 
Q 1681 3084 1819 3084 
Q 2600 3084 3056 2656 
Q 3513 2228 3513 1497 
Q 3513 744 3044 326 
Q 2575 -91 1722 -91 
Q 1428 -91 1123 -41 
Q 819 9 494 109 
L 494 744 
Q 775 591 1075 516 
Q 1375 441 1709 441 
Q 2250 441 2565 725 
Q 2881 1009 2881 1497 
Q 2881 1984 2565 2268 
Q 2250 2553 1709 2553 
Q 1456 2553 1204 2497 
Q 953 2441 691 2322 
L 691 4666 
z
" transform="scale(0.015625)"/>
     </defs>
     <use xlink:href="#DejaVuSans-46"/>
     <use xlink:href="#DejaVuSans-69" transform="translate(50.269531 0)"/>
     <use xlink:href="#DejaVuSans-6c" transform="translate(78.052734 0)"/>
     <use xlink:href="#DejaVuSans-74" transform="translate(105.835938 0)"/>
     <use xlink:href="#DejaVuSans-65" transform="translate(145.044922 0)"/>
     <use xlink:href="#DejaVuSans-72" transform="translate(206.568359 0)"/>
     <use xlink:href="#DejaVuSans-20" transform="translate(247.681641 0)"/>
     <use xlink:href="#DejaVuSans-35" transform="translate(279.46875 0)"/>
    </g>
   </g>
   <g id="text_10">
    <!-- → AP-1 -->
    <g style="fill: #555555" transform="translate(341.169231 260.285974) scale(0.09 -0.09)">
     <defs>
      <path id="DejaVuSans-Oblique-50" d="M 1081 4666 
L 2541 4666 
Q 3178 4666 3512 4369 
Q 3847 4072 3847 3500 
Q 3847 2731 3353 2303 
Q 2859 1875 1966 1875 
L 1172 1875 
L 806 0 
L 172 0 
L 1081 4666 
z
M 1613 4147 
L 1275 2394 
L 2069 2394 
Q 2606 2394 2893 2669 
Q 3181 2944 3181 3456 
Q 3181 3784 2986 3965 
Q 2791 4147 2438 4147 
L 1613 4147 
z
" transform="scale(0.015625)"/>
      <path id="DejaVuSans-Oblique-31" d="M 416 531 
L 1447 531 
L 2144 4122 
L 978 3897 
L 1088 4441 
L 2247 4666 
L 2881 4666 
L 2075 531 
L 3103 531 
L 3003 0 
L 313 0 
L 416 531 
z
" transform="scale(0.015625)"/>
     </defs>
     <use xlink:href="#DejaVuSans-Oblique-2192"/>
     <use xlink:href="#DejaVuSans-Oblique-20" transform="translate(83.789062 0)"/>
     <use xlink:href="#DejaVuSans-Oblique-41" transform="translate(115.576172 0)"/>
     <use xlink:href="#DejaVuSans-Oblique-50" transform="translate(183.984375 0)"/>
     <use xlink:href="#DejaVuSans-Oblique-2d" transform="translate(238.787109 0)"/>
     <use xlink:href="#DejaVuSans-Oblique-31" transform="translate(274.871094 0)"/>
    </g>
   </g>
   <g id="text_11">
    <!-- Filter 6 -->
    <g transform="translate(215.003077 308.219591) scale(0.09 -0.09)">
     <defs>
      <path id="DejaVuSans-36" d="M 2113 2584 
Q 1688 2584 1439 2293 
Q 1191 2003 1191 1497 
Q 1191 994 1439 701 
Q 1688 409 2113 409 
Q 2538 409 2786 701 
Q 3034 994 3034 1497 
Q 3034 2003 2786 2293 
Q 2538 2584 2113 2584 
z
M 3366 4563 
L 3366 3988 
Q 3128 4100 2886 4159 
Q 2644 4219 2406 4219 
Q 1781 4219 1451 3797 
Q 1122 3375 1075 2522 
Q 1259 2794 1537 2939 
Q 1816 3084 2150 3084 
Q 2853 3084 3261 2657 
Q 3669 2231 3669 1497 
Q 3669 778 3244 343 
Q 2819 -91 2113 -91 
Q 1303 -91 875 529 
Q 447 1150 447 2328 
Q 447 3434 972 4092 
Q 1497 4750 2381 4750 
Q 2619 4750 2861 4703 
Q 3103 4656 3366 4563 
z
" transform="scale(0.015625)"/>
     </defs>
     <use xlink:href="#DejaVuSans-46"/>
     <use xlink:href="#DejaVuSans-69" transform="translate(50.269531 0)"/>
     <use xlink:href="#DejaVuSans-6c" transform="translate(78.052734 0)"/>
     <use xlink:href="#DejaVuSans-74" transform="translate(105.835938 0)"/>
     <use xlink:href="#DejaVuSans-65" transform="translate(145.044922 0)"/>
     <use xlink:href="#DejaVuSans-72" transform="translate(206.568359 0)"/>
     <use xlink:href="#DejaVuSans-20" transform="translate(247.681641 0)"/>
     <use xlink:href="#DejaVuSans-36" transform="translate(279.46875 0)"/>
    </g>
   </g>
   <g id="text_12">
    <!-- → Unknown -->
    <g style="fill: #555555" transform="translate(341.169231 308.219591) scale(0.09 -0.09)">
     <defs>
      <path id="DejaVuSans-Oblique-55" d="M 991 4666 
L 1625 4666 
L 1075 1831 
Q 1041 1641 1027 1517 
Q 1013 1394 1013 1300 
Q 1013 869 1253 645 
Q 1494 422 1959 422 
Q 2563 422 2898 753 
Q 3234 1084 3378 1831 
L 3928 4666 
L 4563 4666 
L 4000 1753 
Q 3816 809 3300 359 
Q 2784 -91 1888 -91 
Q 1188 -91 780 261 
Q 372 613 372 1216 
Q 372 1325 387 1461 
Q 403 1597 434 1753 
L 991 4666 
z
" transform="scale(0.015625)"/>
      <path id="DejaVuSans-Oblique-6e" d="M 3566 2113 
L 3156 0 
L 2578 0 
L 2988 2091 
Q 3016 2238 3031 2350 
Q 3047 2463 3047 2528 
Q 3047 2791 2881 2937 
Q 2716 3084 2419 3084 
Q 1956 3084 1622 2776 
Q 1288 2469 1184 1941 
L 800 0 
L 225 0 
L 903 3500 
L 1478 3500 
L 1363 2950 
Q 1603 3253 1940 3418 
Q 2278 3584 2650 3584 
Q 3113 3584 3367 3334 
Q 3622 3084 3622 2631 
Q 3622 2519 3608 2391 
Q 3594 2263 3566 2113 
z
" transform="scale(0.015625)"/>
      <path id="DejaVuSans-Oblique-6b" d="M 1172 4863 
L 1747 4863 
L 1197 2028 
L 3169 3500 
L 3916 3500 
L 1716 1825 
L 3322 0 
L 2625 0 
L 1131 1709 
L 800 0 
L 225 0 
L 1172 4863 
z
" transform="scale(0.015625)"/>
      <path id="DejaVuSans-Oblique-77" d="M 544 3500 
L 1113 3500 
L 1259 684 
L 2566 3500 
L 3231 3500 
L 3425 684 
L 4666 3500 
L 5241 3500 
L 3641 0 
L 2969 0 
L 2797 2900 
L 1459 0 
L 781 0 
L 544 3500 
z
" transform="scale(0.015625)"/>
     </defs>
     <use xlink:href="#DejaVuSans-Oblique-2192"/>
     <use xlink:href="#DejaVuSans-Oblique-20" transform="translate(83.789062 0)"/>
     <use xlink:href="#DejaVuSans-Oblique-55" transform="translate(115.576172 0)"/>
     <use xlink:href="#DejaVuSans-Oblique-6e" transform="translate(188.769531 0)"/>
     <use xlink:href="#DejaVuSans-Oblique-6b" transform="translate(252.148438 0)"/>
     <use xlink:href="#DejaVuSans-Oblique-6e" transform="translate(310.058594 0)"/>
     <use xlink:href="#DejaVuSans-Oblique-6f" transform="translate(373.4375 0)"/>
     <use xlink:href="#DejaVuSans-Oblique-77" transform="translate(434.619141 0)"/>
     <use xlink:href="#DejaVuSans-Oblique-6e" transform="translate(516.40625 0)"/>
    </g>
   </g>
   <g id="text_13">
    <!-- Different filters learn different sequence patterns -->
    <g transform="translate(118.595607 343.398281) scale(0.09 -0.09)">
     <defs>
      <path id="DejaVuSans-Oblique-44" d="M 1081 4666 
L 2438 4666 
Q 3519 4666 4070 4208 
Q 4622 3750 4622 2847 
Q 4622 2250 4412 1698 
Q 4203 1147 3834 769 
Q 3463 381 2891 190 
Q 2319 0 1538 0 
L 172 0 
L 1081 4666 
z
M 1613 4147 
L 909 519 
L 1734 519 
Q 2794 519 3375 1128 
Q 3956 1738 3956 2847 
Q 3956 3519 3581 3833 
Q 3206 4147 2406 4147 
L 1613 4147 
z
" transform="scale(0.015625)"/>
      <path id="DejaVuSans-Oblique-69" d="M 1172 4863 
L 1747 4863 
L 1606 4134 
L 1031 4134 
L 1172 4863 
z
M 909 3500 
L 1484 3500 
L 800 0 
L 225 0 
L 909 3500 
z
" transform="scale(0.015625)"/>
      <path id="DejaVuSans-Oblique-66" d="M 3059 4863 
L 2969 4384 
L 2419 4384 
Q 2106 4384 1964 4261 
Q 1822 4138 1753 3809 
L 1691 3500 
L 2638 3500 
L 2553 3053 
L 1606 3053 
L 1013 0 
L 434 0 
L 1031 3053 
L 481 3053 
L 563 3500 
L 1113 3500 
L 1159 3744 
Q 1278 4363 1576 4613 
Q 1875 4863 2516 4863 
L 3059 4863 
z
" transform="scale(0.015625)"/>
      <path id="DejaVuSans-Oblique-65" d="M 3078 2063 
Q 3088 2113 3092 2166 
Q 3097 2219 3097 2272 
Q 3097 2653 2873 2875 
Q 2650 3097 2266 3097 
Q 1838 3097 1509 2826 
Q 1181 2556 1013 2059 
L 3078 2063 
z
M 3578 1613 
L 903 1613 
Q 884 1494 878 1425 
Q 872 1356 872 1306 
Q 872 872 1139 634 
Q 1406 397 1894 397 
Q 2269 397 2603 481 
Q 2938 566 3225 728 
L 3116 159 
Q 2806 34 2476 -28 
Q 2147 -91 1806 -91 
Q 1078 -91 686 257 
Q 294 606 294 1247 
Q 294 1794 489 2264 
Q 684 2734 1063 3103 
Q 1306 3334 1642 3459 
Q 1978 3584 2356 3584 
Q 2950 3584 3301 3228 
Q 3653 2872 3653 2272 
Q 3653 2128 3634 1964 
Q 3616 1800 3578 1613 
z
" transform="scale(0.015625)"/>
      <path id="DejaVuSans-Oblique-72" d="M 2853 2969 
Q 2766 3016 2653 3041 
Q 2541 3066 2413 3066 
Q 1953 3066 1609 2717 
Q 1266 2369 1153 1784 
L 800 0 
L 225 0 
L 909 3500 
L 1484 3500 
L 1375 2956 
Q 1603 3259 1920 3421 
Q 2238 3584 2597 3584 
Q 2691 3584 2781 3573 
Q 2872 3563 2963 3538 
L 2853 2969 
z
" transform="scale(0.015625)"/>
      <path id="DejaVuSans-Oblique-74" d="M 2706 3500 
L 2619 3053 
L 1472 3053 
L 1100 1153 
Q 1081 1047 1072 975 
Q 1063 903 1063 863 
Q 1063 663 1183 572 
Q 1303 481 1569 481 
L 2150 481 
L 2053 0 
L 1503 0 
Q 991 0 739 200 
Q 488 400 488 806 
Q 488 878 497 964 
Q 506 1050 525 1153 
L 897 3053 
L 409 3053 
L 500 3500 
L 978 3500 
L 1172 4494 
L 1747 4494 
L 1556 3500 
L 2706 3500 
z
" transform="scale(0.015625)"/>
      <path id="DejaVuSans-Oblique-6c" d="M 1172 4863 
L 1747 4863 
L 800 0 
L 225 0 
L 1172 4863 
z
" transform="scale(0.015625)"/>
      <path id="DejaVuSans-Oblique-73" d="M 3200 3397 
L 3091 2853 
Q 2863 2978 2609 3040 
Q 2356 3103 2088 3103 
Q 1634 3103 1373 2948 
Q 1113 2794 1113 2528 
Q 1113 2219 1719 2053 
Q 1766 2041 1788 2034 
L 1972 1978 
Q 2547 1819 2739 1644 
Q 2931 1469 2931 1166 
Q 2931 609 2489 259 
Q 2047 -91 1331 -91 
Q 1053 -91 747 -37 
Q 441 16 72 128 
L 184 722 
Q 500 559 806 475 
Q 1113 391 1394 391 
Q 1816 391 2080 572 
Q 2344 753 2344 1031 
Q 2344 1331 1650 1516 
L 1591 1531 
L 1394 1581 
Q 956 1697 753 1886 
Q 550 2075 550 2369 
Q 550 2928 970 3256 
Q 1391 3584 2113 3584 
Q 2397 3584 2667 3537 
Q 2938 3491 3200 3397 
z
" transform="scale(0.015625)"/>
      <path id="DejaVuSans-Oblique-61" d="M 3438 1997 
L 3047 0 
L 2472 0 
L 2578 531 
Q 2325 219 2001 64 
Q 1678 -91 1281 -91 
Q 834 -91 548 182 
Q 263 456 263 884 
Q 263 1497 752 1853 
Q 1241 2209 2100 2209 
L 2900 2209 
L 2931 2363 
Q 2938 2388 2941 2417 
Q 2944 2447 2944 2509 
Q 2944 2788 2717 2942 
Q 2491 3097 2081 3097 
Q 1800 3097 1504 3025 
Q 1209 2953 897 2809 
L 997 3341 
Q 1322 3463 1633 3523 
Q 1944 3584 2234 3584 
Q 2853 3584 3176 3315 
Q 3500 3047 3500 2534 
Q 3500 2431 3484 2292 
Q 3469 2153 3438 1997 
z
M 2816 1759 
L 2241 1759 
Q 1534 1759 1195 1570 
Q 856 1381 856 984 
Q 856 709 1029 553 
Q 1203 397 1509 397 
Q 1978 397 2328 733 
Q 2678 1069 2791 1631 
L 2816 1759 
z
" transform="scale(0.015625)"/>
      <path id="DejaVuSans-Oblique-64" d="M 2675 525 
Q 2444 222 2128 65 
Q 1813 -91 1428 -91 
Q 903 -91 598 267 
Q 294 625 294 1247 
Q 294 1766 478 2236 
Q 663 2706 1013 3078 
Q 1244 3325 1534 3454 
Q 1825 3584 2144 3584 
Q 2481 3584 2739 3421 
Q 2997 3259 3138 2956 
L 3513 4863 
L 4091 4863 
L 3144 0 
L 2566 0 
L 2675 525 
z
M 891 1350 
Q 891 897 1095 644 
Q 1300 391 1663 391 
Q 1931 391 2161 520 
Q 2391 650 2566 903 
Q 2750 1166 2856 1509 
Q 2963 1853 2963 2188 
Q 2963 2622 2758 2865 
Q 2553 3109 2194 3109 
Q 1922 3109 1687 2981 
Q 1453 2853 1288 2613 
Q 1106 2353 998 2009 
Q 891 1666 891 1350 
z
" transform="scale(0.015625)"/>
      <path id="DejaVuSans-Oblique-71" d="M 2669 525 
Q 2438 222 2123 65 
Q 1809 -91 1428 -91 
Q 897 -91 595 267 
Q 294 625 294 1253 
Q 294 1759 480 2231 
Q 666 2703 1013 3078 
Q 1238 3322 1530 3453 
Q 1822 3584 2144 3584 
Q 2531 3584 2781 3431 
Q 3031 3278 3144 2969 
L 3244 3494 
L 3822 3494 
L 2888 -1319 
L 2309 -1319 
L 2669 525 
z
M 891 1338 
Q 891 875 1084 633 
Q 1278 391 1644 391 
Q 2188 391 2572 911 
Q 2956 1431 2956 2175 
Q 2956 2625 2757 2864 
Q 2559 3103 2188 3103 
Q 1916 3103 1684 2976 
Q 1453 2850 1281 2606 
Q 1100 2350 995 2006 
Q 891 1663 891 1338 
z
" transform="scale(0.015625)"/>
      <path id="DejaVuSans-Oblique-75" d="M 428 1388 
L 838 3500 
L 1416 3500 
L 1006 1409 
Q 975 1256 961 1147 
Q 947 1038 947 966 
Q 947 700 1109 554 
Q 1272 409 1569 409 
Q 2031 409 2368 721 
Q 2706 1034 2809 1563 
L 3194 3500 
L 3769 3500 
L 3091 0 
L 2516 0 
L 2631 550 
Q 2388 244 2052 76 
Q 1716 -91 1338 -91 
Q 878 -91 622 161 
Q 366 413 366 863 
Q 366 956 381 1097 
Q 397 1238 428 1388 
z
" transform="scale(0.015625)"/>
      <path id="DejaVuSans-Oblique-63" d="M 3431 3366 
L 3316 2797 
Q 3109 2947 2876 3022 
Q 2644 3097 2394 3097 
Q 2119 3097 1870 3000 
Q 1622 2903 1453 2725 
Q 1184 2453 1037 2087 
Q 891 1722 891 1331 
Q 891 859 1127 628 
Q 1363 397 1844 397 
Q 2081 397 2348 469 
Q 2616 541 2906 684 
L 2797 116 
Q 2547 13 2283 -39 
Q 2019 -91 1741 -91 
Q 1044 -91 669 257 
Q 294 606 294 1253 
Q 294 1797 489 2255 
Q 684 2713 1069 3078 
Q 1331 3328 1684 3456 
Q 2038 3584 2456 3584 
Q 2700 3584 2940 3529 
Q 3181 3475 3431 3366 
z
" transform="scale(0.015625)"/>
      <path id="DejaVuSans-Oblique-70" d="M 3175 2156 
Q 3175 2616 2975 2859 
Q 2775 3103 2400 3103 
Q 2144 3103 1911 2972 
Q 1678 2841 1497 2591 
Q 1319 2344 1212 1994 
Q 1106 1644 1106 1300 
Q 1106 863 1306 627 
Q 1506 391 1875 391 
Q 2147 391 2380 519 
Q 2613 647 2778 891 
Q 2956 1147 3065 1494 
Q 3175 1841 3175 2156 
z
M 1394 2969 
Q 1625 3272 1939 3428 
Q 2253 3584 2638 3584 
Q 3175 3584 3472 3232 
Q 3769 2881 3769 2247 
Q 3769 1728 3584 1258 
Q 3400 788 3053 416 
Q 2822 169 2531 39 
Q 2241 -91 1919 -91 
Q 1547 -91 1294 64 
Q 1041 219 916 525 
L 556 -1331 
L -19 -1331 
L 922 3500 
L 1497 3500 
L 1394 2969 
z
" transform="scale(0.015625)"/>
     </defs>
     <use xlink:href="#DejaVuSans-Oblique-44"/>
     <use xlink:href="#DejaVuSans-Oblique-69" transform="translate(77.001953 0)"/>
     <use xlink:href="#DejaVuSans-Oblique-66" transform="translate(104.785156 0)"/>
     <use xlink:href="#DejaVuSans-Oblique-66" transform="translate(139.990234 0)"/>
     <use xlink:href="#DejaVuSans-Oblique-65" transform="translate(175.195312 0)"/>
     <use xlink:href="#DejaVuSans-Oblique-72" transform="translate(236.71875 0)"/>
     <use xlink:href="#DejaVuSans-Oblique-65" transform="translate(277.832031 0)"/>
     <use xlink:href="#DejaVuSans-Oblique-6e" transform="translate(339.355469 0)"/>
     <use xlink:href="#DejaVuSans-Oblique-74" transform="translate(402.734375 0)"/>
     <use xlink:href="#DejaVuSans-Oblique-20" transform="translate(441.943359 0)"/>
     <use xlink:href="#DejaVuSans-Oblique-66" transform="translate(473.730469 0)"/>
     <use xlink:href="#DejaVuSans-Oblique-69" transform="translate(508.935547 0)"/>
     <use xlink:href="#DejaVuSans-Oblique-6c" transform="translate(536.71875 0)"/>
     <use xlink:href="#DejaVuSans-Oblique-74" transform="translate(564.501953 0)"/>
     <use xlink:href="#DejaVuSans-Oblique-65" transform="translate(603.710938 0)"/>
     <use xlink:href="#DejaVuSans-Oblique-72" transform="translate(665.234375 0)"/>
     <use xlink:href="#DejaVuSans-Oblique-73" transform="translate(706.347656 0)"/>
     <use xlink:href="#DejaVuSans-Oblique-20" transform="translate(758.447266 0)"/>
     <use xlink:href="#DejaVuSans-Oblique-6c" transform="translate(790.234375 0)"/>
     <use xlink:href="#DejaVuSans-Oblique-65" transform="translate(818.017578 0)"/>
     <use xlink:href="#DejaVuSans-Oblique-61" transform="translate(879.541016 0)"/>
     <use xlink:href="#DejaVuSans-Oblique-72" transform="translate(940.820312 0)"/>
     <use xlink:href="#DejaVuSans-Oblique-6e" transform="translate(981.933594 0)"/>
     <use xlink:href="#DejaVuSans-Oblique-20" transform="translate(1045.3125 0)"/>
     <use xlink:href="#DejaVuSans-Oblique-64" transform="translate(1077.099609 0)"/>
     <use xlink:href="#DejaVuSans-Oblique-69" transform="translate(1140.576172 0)"/>
     <use xlink:href="#DejaVuSans-Oblique-66" transform="translate(1168.359375 0)"/>
     <use xlink:href="#DejaVuSans-Oblique-66" transform="translate(1203.564453 0)"/>
     <use xlink:href="#DejaVuSans-Oblique-65" transform="translate(1238.769531 0)"/>
     <use xlink:href="#DejaVuSans-Oblique-72" transform="translate(1300.292969 0)"/>
     <use xlink:href="#DejaVuSans-Oblique-65" transform="translate(1341.40625 0)"/>
     <use xlink:href="#DejaVuSans-Oblique-6e" transform="translate(1402.929688 0)"/>
     <use xlink:href="#DejaVuSans-Oblique-74" transform="translate(1466.308594 0)"/>
     <use xlink:href="#DejaVuSans-Oblique-20" transform="translate(1505.517578 0)"/>
     <use xlink:href="#DejaVuSans-Oblique-73" transform="translate(1537.304688 0)"/>
     <use xlink:href="#DejaVuSans-Oblique-65" transform="translate(1589.404297 0)"/>
     <use xlink:href="#DejaVuSans-Oblique-71" transform="translate(1650.927734 0)"/>
     <use xlink:href="#DejaVuSans-Oblique-75" transform="translate(1714.404297 0)"/>
     <use xlink:href="#DejaVuSans-Oblique-65" transform="translate(1777.783203 0)"/>
     <use xlink:href="#DejaVuSans-Oblique-6e" transform="translate(1839.306641 0)"/>
     <use xlink:href="#DejaVuSans-Oblique-63" transform="translate(1902.685547 0)"/>
     <use xlink:href="#DejaVuSans-Oblique-65" transform="translate(1957.666016 0)"/>
     <use xlink:href="#DejaVuSans-Oblique-20" transform="translate(2019.189453 0)"/>
     <use xlink:href="#DejaVuSans-Oblique-70" transform="translate(2050.976562 0)"/>
     <use xlink:href="#DejaVuSans-Oblique-61" transform="translate(2114.453125 0)"/>
     <use xlink:href="#DejaVuSans-Oblique-74" transform="translate(2175.732422 0)"/>
     <use xlink:href="#DejaVuSans-Oblique-74" transform="translate(2214.941406 0)"/>
     <use xlink:href="#DejaVuSans-Oblique-65" transform="translate(2254.150391 0)"/>
     <use xlink:href="#DejaVuSans-Oblique-72" transform="translate(2315.673828 0)"/>
     <use xlink:href="#DejaVuSans-Oblique-6e" transform="translate(2356.787109 0)"/>
     <use xlink:href="#DejaVuSans-Oblique-73" transform="translate(2420.166016 0)"/>
    </g>
   </g>
   <g id="text_14">
    <!-- C. Multiple Filter Diversity -->
    <g transform="translate(7.2 15.558281) scale(0.11 -0.11)">
     <defs>
      <path id="DejaVuSans-Bold-43" d="M 4288 256 
Q 3956 84 3597 -3 
Q 3238 -91 2847 -91 
Q 1681 -91 1000 561 
Q 319 1213 319 2328 
Q 319 3447 1000 4098 
Q 1681 4750 2847 4750 
Q 3238 4750 3597 4662 
Q 3956 4575 4288 4403 
L 4288 3438 
Q 3953 3666 3628 3772 
Q 3303 3878 2944 3878 
Q 2300 3878 1931 3465 
Q 1563 3053 1563 2328 
Q 1563 1606 1931 1193 
Q 2300 781 2944 781 
Q 3303 781 3628 887 
Q 3953 994 4288 1222 
L 4288 256 
z
" transform="scale(0.015625)"/>
      <path id="DejaVuSans-Bold-2e" d="M 653 1209 
L 1778 1209 
L 1778 0 
L 653 0 
L 653 1209 
z
" transform="scale(0.015625)"/>
      <path id="DejaVuSans-Bold-20" transform="scale(0.015625)"/>
      <path id="DejaVuSans-Bold-4d" d="M 588 4666 
L 2119 4666 
L 3181 2169 
L 4250 4666 
L 5778 4666 
L 5778 0 
L 4641 0 
L 4641 3413 
L 3566 897 
L 2803 897 
L 1728 3413 
L 1728 0 
L 588 0 
L 588 4666 
z
" transform="scale(0.015625)"/>
      <path id="DejaVuSans-Bold-75" d="M 500 1363 
L 500 3500 
L 1625 3500 
L 1625 3150 
Q 1625 2866 1622 2436 
Q 1619 2006 1619 1863 
Q 1619 1441 1641 1255 
Q 1663 1069 1716 984 
Q 1784 875 1895 815 
Q 2006 756 2150 756 
Q 2500 756 2700 1025 
Q 2900 1294 2900 1772 
L 2900 3500 
L 4019 3500 
L 4019 0 
L 2900 0 
L 2900 506 
Q 2647 200 2364 54 
Q 2081 -91 1741 -91 
Q 1134 -91 817 281 
Q 500 653 500 1363 
z
" transform="scale(0.015625)"/>
      <path id="DejaVuSans-Bold-6c" d="M 538 4863 
L 1656 4863 
L 1656 0 
L 538 0 
L 538 4863 
z
" transform="scale(0.015625)"/>
      <path id="DejaVuSans-Bold-74" d="M 1759 4494 
L 1759 3500 
L 2913 3500 
L 2913 2700 
L 1759 2700 
L 1759 1216 
Q 1759 972 1856 886 
Q 1953 800 2241 800 
L 2816 800 
L 2816 0 
L 1856 0 
Q 1194 0 917 276 
Q 641 553 641 1216 
L 641 2700 
L 84 2700 
L 84 3500 
L 641 3500 
L 641 4494 
L 1759 4494 
z
" transform="scale(0.015625)"/>
      <path id="DejaVuSans-Bold-69" d="M 538 3500 
L 1656 3500 
L 1656 0 
L 538 0 
L 538 3500 
z
M 538 4863 
L 1656 4863 
L 1656 3950 
L 538 3950 
L 538 4863 
z
" transform="scale(0.015625)"/>
      <path id="DejaVuSans-Bold-70" d="M 1656 506 
L 1656 -1331 
L 538 -1331 
L 538 3500 
L 1656 3500 
L 1656 2988 
Q 1888 3294 2169 3439 
Q 2450 3584 2816 3584 
Q 3463 3584 3878 3070 
Q 4294 2556 4294 1747 
Q 4294 938 3878 423 
Q 3463 -91 2816 -91 
Q 2450 -91 2169 54 
Q 1888 200 1656 506 
z
M 2400 2772 
Q 2041 2772 1848 2508 
Q 1656 2244 1656 1747 
Q 1656 1250 1848 986 
Q 2041 722 2400 722 
Q 2759 722 2948 984 
Q 3138 1247 3138 1747 
Q 3138 2247 2948 2509 
Q 2759 2772 2400 2772 
z
" transform="scale(0.015625)"/>
      <path id="DejaVuSans-Bold-65" d="M 4031 1759 
L 4031 1441 
L 1416 1441 
Q 1456 1047 1700 850 
Q 1944 653 2381 653 
Q 2734 653 3104 758 
Q 3475 863 3866 1075 
L 3866 213 
Q 3469 63 3072 -14 
Q 2675 -91 2278 -91 
Q 1328 -91 801 392 
Q 275 875 275 1747 
Q 275 2603 792 3093 
Q 1309 3584 2216 3584 
Q 3041 3584 3536 3087 
Q 4031 2591 4031 1759 
z
M 2881 2131 
Q 2881 2450 2695 2645 
Q 2509 2841 2209 2841 
Q 1884 2841 1681 2658 
Q 1478 2475 1428 2131 
L 2881 2131 
z
" transform="scale(0.015625)"/>
      <path id="DejaVuSans-Bold-46" d="M 588 4666 
L 3834 4666 
L 3834 3756 
L 1791 3756 
L 1791 2888 
L 3713 2888 
L 3713 1978 
L 1791 1978 
L 1791 0 
L 588 0 
L 588 4666 
z
" transform="scale(0.015625)"/>
      <path id="DejaVuSans-Bold-72" d="M 3138 2547 
Q 2991 2616 2845 2648 
Q 2700 2681 2553 2681 
Q 2122 2681 1889 2404 
Q 1656 2128 1656 1613 
L 1656 0 
L 538 0 
L 538 3500 
L 1656 3500 
L 1656 2925 
Q 1872 3269 2151 3426 
Q 2431 3584 2822 3584 
Q 2878 3584 2943 3579 
Q 3009 3575 3134 3559 
L 3138 2547 
z
" transform="scale(0.015625)"/>
      <path id="DejaVuSans-Bold-44" d="M 1791 3756 
L 1791 909 
L 2222 909 
Q 2959 909 3348 1275 
Q 3738 1641 3738 2338 
Q 3738 3031 3350 3393 
Q 2963 3756 2222 3756 
L 1791 3756 
z
M 588 4666 
L 1856 4666 
Q 2919 4666 3439 4514 
Q 3959 4363 4331 4000 
Q 4659 3684 4818 3271 
Q 4978 2859 4978 2338 
Q 4978 1809 4818 1395 
Q 4659 981 4331 666 
Q 3956 303 3431 151 
Q 2906 0 1856 0 
L 588 0 
L 588 4666 
z
" transform="scale(0.015625)"/>
      <path id="DejaVuSans-Bold-76" d="M 97 3500 
L 1216 3500 
L 2088 1081 
L 2956 3500 
L 4078 3500 
L 2700 0 
L 1472 0 
L 97 3500 
z
" transform="scale(0.015625)"/>
      <path id="DejaVuSans-Bold-73" d="M 3272 3391 
L 3272 2541 
Q 2913 2691 2578 2766 
Q 2244 2841 1947 2841 
Q 1628 2841 1473 2761 
Q 1319 2681 1319 2516 
Q 1319 2381 1436 2309 
Q 1553 2238 1856 2203 
L 2053 2175 
Q 2913 2066 3209 1816 
Q 3506 1566 3506 1031 
Q 3506 472 3093 190 
Q 2681 -91 1863 -91 
Q 1516 -91 1145 -36 
Q 775 19 384 128 
L 384 978 
Q 719 816 1070 734 
Q 1422 653 1784 653 
Q 2113 653 2278 743 
Q 2444 834 2444 1013 
Q 2444 1163 2330 1236 
Q 2216 1309 1875 1350 
L 1678 1375 
Q 931 1469 631 1722 
Q 331 1975 331 2491 
Q 331 3047 712 3315 
Q 1094 3584 1881 3584 
Q 2191 3584 2531 3537 
Q 2872 3491 3272 3391 
z
" transform="scale(0.015625)"/>
      <path id="DejaVuSans-Bold-79" d="M 78 3500 
L 1197 3500 
L 2138 1125 
L 2938 3500 
L 4056 3500 
L 2584 -331 
Q 2363 -916 2067 -1148 
Q 1772 -1381 1288 -1381 
L 641 -1381 
L 641 -647 
L 991 -647 
Q 1275 -647 1404 -556 
Q 1534 -466 1606 -231 
L 1638 -134 
L 78 3500 
z
" transform="scale(0.015625)"/>
     </defs>
     <use xlink:href="#DejaVuSans-Bold-43"/>
     <use xlink:href="#DejaVuSans-Bold-2e" transform="translate(73.388672 0)"/>
     <use xlink:href="#DejaVuSans-Bold-20" transform="translate(111.376953 0)"/>
     <use xlink:href="#DejaVuSans-Bold-4d" transform="translate(146.191406 0)"/>
     <use xlink:href="#DejaVuSans-Bold-75" transform="translate(245.703125 0)"/>
     <use xlink:href="#DejaVuSans-Bold-6c" transform="translate(316.894531 0)"/>
     <use xlink:href="#DejaVuSans-Bold-74" transform="translate(351.171875 0)"/>
     <use xlink:href="#DejaVuSans-Bold-69" transform="translate(398.974609 0)"/>
     <use xlink:href="#DejaVuSans-Bold-70" transform="translate(433.251953 0)"/>
     <use xlink:href="#DejaVuSans-Bold-6c" transform="translate(504.833984 0)"/>
     <use xlink:href="#DejaVuSans-Bold-65" transform="translate(539.111328 0)"/>
     <use xlink:href="#DejaVuSans-Bold-20" transform="translate(606.933594 0)"/>
     <use xlink:href="#DejaVuSans-Bold-46" transform="translate(641.748047 0)"/>
     <use xlink:href="#DejaVuSans-Bold-69" transform="translate(710.058594 0)"/>
     <use xlink:href="#DejaVuSans-Bold-6c" transform="translate(744.335938 0)"/>
     <use xlink:href="#DejaVuSans-Bold-74" transform="translate(778.613281 0)"/>
     <use xlink:href="#DejaVuSans-Bold-65" transform="translate(826.416016 0)"/>
     <use xlink:href="#DejaVuSans-Bold-72" transform="translate(894.238281 0)"/>
     <use xlink:href="#DejaVuSans-Bold-20" transform="translate(943.554688 0)"/>
     <use xlink:href="#DejaVuSans-Bold-44" transform="translate(978.369141 0)"/>
     <use xlink:href="#DejaVuSans-Bold-69" transform="translate(1061.376953 0)"/>
     <use xlink:href="#DejaVuSans-Bold-76" transform="translate(1095.654297 0)"/>
     <use xlink:href="#DejaVuSans-Bold-65" transform="translate(1160.839844 0)"/>
     <use xlink:href="#DejaVuSans-Bold-72" transform="translate(1228.662109 0)"/>
     <use xlink:href="#DejaVuSans-Bold-73" transform="translate(1277.978516 0)"/>
     <use xlink:href="#DejaVuSans-Bold-69" transform="translate(1337.5 0)"/>
     <use xlink:href="#DejaVuSans-Bold-74" transform="translate(1371.777344 0)"/>
     <use xlink:href="#DejaVuSans-Bold-79" transform="translate(1419.580078 0)"/>
    </g>
   </g>
  </g>
 </g>
 <defs>
  <clipPath id="pf78e6f9a3f">
   <rect x="7.2" y="21.558281" width="482.4" height="321.84"/>
  </clipPath>
 </defs>
</svg>
