<?xml version="1.0" encoding="utf-8" standalone="no"?>
<!DOCTYPE svg PUBLIC "-//W3C//DTD SVG 1.1//EN"
  "http://www.w3.org/Graphics/SVG/1.1/DTD/svg11.dtd">
<svg xmlns:xlink="http://www.w3.org/1999/xlink" width="424.860937pt" height="280.674531pt" viewBox="0 0 424.860937 280.674531" xmlns="http://www.w3.org/2000/svg" version="1.1">
 <metadata>
  <rdf:RDF xmlns:dc="http://purl.org/dc/elements/1.1/" xmlns:cc="http://creativecommons.org/ns#" xmlns:rdf="http://www.w3.org/1999/02/22-rdf-syntax-ns#">
   <cc:Work>
    <dc:type rdf:resource="http://purl.org/dc/dcmitype/StillImage"/>
    <dc:date>2026-01-08T05:45:31.882847</dc:date>
    <dc:format>image/svg+xml</dc:format>
    <dc:creator>
     <cc:Agent>
      <dc:title>Matplotlib v3.10.7, https://matplotlib.org/</dc:title>
     </cc:Agent>
    </dc:creator>
   </cc:Work>
  </rdf:RDF>
 </metadata>
 <defs>
  <style type="text/css">*{stroke-linejoin: round; stroke-linecap: butt}</style>
 </defs>
 <g id="figure_1">
  <g id="patch_1">
   <path d="M 0 280.674531 
L 424.860937 280.674531 
L 424.860937 0 
L 0 0 
z
" style="fill: #ffffff"/>
  </g>
  <g id="axes_1">
   <g id="patch_2">
    <path d="M 52.160938 243.118281 
L 417.660937 243.118281 
L 417.660937 21.558281 
L 52.160938 21.558281 
z
" style="fill: #ffffff"/>
   </g>
   <g id="PathCollection_1">
    <defs>
     <path id="mc3a63483a9" d="M 0 3.162278 
C 0.838646 3.162278 1.643056 2.82908 2.236068 2.236068 
C 2.82908 1.643056 3.162278 0.838646 3.162278 0 
C 3.162278 -0.838646 2.82908 -1.643056 2.236068 -2.236068 
C 1.643056 -2.82908 0.838646 -3.162278 0 -3.162278 
C -0.838646 -3.162278 -1.643056 -2.82908 -2.236068 -2.236068 
C -2.82908 -1.643056 -3.162278 -0.838646 -3.162278 0 
C -3.162278 0.838646 -2.82908 1.643056 -2.236068 2.236068 
C -1.643056 2.82908 -0.838646 3.162278 0 3.162278 
z
" style="stroke: #ffffff; stroke-opacity: 0.6; stroke-width: 0.5"/>
    </defs>
    <g clip-path="url(#pe16b61c9f2)">
     <use xlink:href="#mc3a63483a9" x="267.919851" y="108.4952" style="fill: #1f77b4; fill-opacity: 0.6; stroke: #ffffff; stroke-opacity: 0.6; stroke-width: 0.5"/>
     <use xlink:href="#mc3a63483a9" x="225.722646" y="144.717645" style="fill: #1f77b4; fill-opacity: 0.6; stroke: #ffffff; stroke-opacity: 0.6; stroke-width: 0.5"/>
     <use xlink:href="#mc3a63483a9" x="277.952785" y="119.221355" style="fill: #1f77b4; fill-opacity: 0.6; stroke: #ffffff; stroke-opacity: 0.6; stroke-width: 0.5"/>
     <use xlink:href="#mc3a63483a9" x="336.123194" y="64.145517" style="fill: #1f77b4; fill-opacity: 0.6; stroke: #ffffff; stroke-opacity: 0.6; stroke-width: 0.5"/>
     <use xlink:href="#mc3a63483a9" x="219.350381" y="125.003461" style="fill: #1f77b4; fill-opacity: 0.6; stroke: #ffffff; stroke-opacity: 0.6; stroke-width: 0.5"/>
     <use xlink:href="#mc3a63483a9" x="219.351472" y="126.65159" style="fill: #1f77b4; fill-opacity: 0.6; stroke: #ffffff; stroke-opacity: 0.6; stroke-width: 0.5"/>
     <use xlink:href="#mc3a63483a9" x="339.856807" y="85.967122" style="fill: #1f77b4; fill-opacity: 0.6; stroke: #ffffff; stroke-opacity: 0.6; stroke-width: 0.5"/>
     <use xlink:href="#mc3a63483a9" x="285.910464" y="108.521902" style="fill: #1f77b4; fill-opacity: 0.6; stroke: #ffffff; stroke-opacity: 0.6; stroke-width: 0.5"/>
     <use xlink:href="#mc3a63483a9" x="203.712231" y="145.651451" style="fill: #1f77b4; fill-opacity: 0.6; stroke: #ffffff; stroke-opacity: 0.6; stroke-width: 0.5"/>
     <use xlink:href="#mc3a63483a9" x="270.966519" y="95.955221" style="fill: #1f77b4; fill-opacity: 0.6; stroke: #ffffff; stroke-opacity: 0.6; stroke-width: 0.5"/>
     <use xlink:href="#mc3a63483a9" x="204.114725" y="158.81758" style="fill: #1f77b4; fill-opacity: 0.6; stroke: #ffffff; stroke-opacity: 0.6; stroke-width: 0.5"/>
     <use xlink:href="#mc3a63483a9" x="203.961078" y="154.053791" style="fill: #1f77b4; fill-opacity: 0.6; stroke: #ffffff; stroke-opacity: 0.6; stroke-width: 0.5"/>
     <use xlink:href="#mc3a63483a9" x="250.99043" y="141.973946" style="fill: #1f77b4; fill-opacity: 0.6; stroke: #ffffff; stroke-opacity: 0.6; stroke-width: 0.5"/>
     <use xlink:href="#mc3a63483a9" x="107.764769" y="226.607809" style="fill: #1f77b4; fill-opacity: 0.6; stroke: #ffffff; stroke-opacity: 0.6; stroke-width: 0.5"/>
     <use xlink:href="#mc3a63483a9" x="120.282307" y="186.12848" style="fill: #1f77b4; fill-opacity: 0.6; stroke: #ffffff; stroke-opacity: 0.6; stroke-width: 0.5"/>
     <use xlink:href="#mc3a63483a9" x="197.544375" y="132.28514" style="fill: #1f77b4; fill-opacity: 0.6; stroke: #ffffff; stroke-opacity: 0.6; stroke-width: 0.5"/>
     <use xlink:href="#mc3a63483a9" x="167.603706" y="173.281551" style="fill: #1f77b4; fill-opacity: 0.6; stroke: #ffffff; stroke-opacity: 0.6; stroke-width: 0.5"/>
     <use xlink:href="#mc3a63483a9" x="255.794101" y="104.300634" style="fill: #1f77b4; fill-opacity: 0.6; stroke: #ffffff; stroke-opacity: 0.6; stroke-width: 0.5"/>
     <use xlink:href="#mc3a63483a9" x="174.56861" y="162.068245" style="fill: #1f77b4; fill-opacity: 0.6; stroke: #ffffff; stroke-opacity: 0.6; stroke-width: 0.5"/>
     <use xlink:href="#mc3a63483a9" x="141.056937" y="198.168762" style="fill: #1f77b4; fill-opacity: 0.6; stroke: #ffffff; stroke-opacity: 0.6; stroke-width: 0.5"/>
     <use xlink:href="#mc3a63483a9" x="332.30996" y="70.49739" style="fill: #1f77b4; fill-opacity: 0.6; stroke: #ffffff; stroke-opacity: 0.6; stroke-width: 0.5"/>
     <use xlink:href="#mc3a63483a9" x="219.907076" y="116.296917" style="fill: #1f77b4; fill-opacity: 0.6; stroke: #ffffff; stroke-opacity: 0.6; stroke-width: 0.5"/>
     <use xlink:href="#mc3a63483a9" x="239.398494" y="131.003688" style="fill: #1f77b4; fill-opacity: 0.6; stroke: #ffffff; stroke-opacity: 0.6; stroke-width: 0.5"/>
     <use xlink:href="#mc3a63483a9" x="140.229944" y="162.112589" style="fill: #1f77b4; fill-opacity: 0.6; stroke: #ffffff; stroke-opacity: 0.6; stroke-width: 0.5"/>
     <use xlink:href="#mc3a63483a9" x="198.734231" y="197.333404" style="fill: #1f77b4; fill-opacity: 0.6; stroke: #ffffff; stroke-opacity: 0.6; stroke-width: 0.5"/>
     <use xlink:href="#mc3a63483a9" x="242.282248" y="115.147858" style="fill: #1f77b4; fill-opacity: 0.6; stroke: #ffffff; stroke-opacity: 0.6; stroke-width: 0.5"/>
     <use xlink:href="#mc3a63483a9" x="158.422182" y="175.981918" style="fill: #1f77b4; fill-opacity: 0.6; stroke: #ffffff; stroke-opacity: 0.6; stroke-width: 0.5"/>
     <use xlink:href="#mc3a63483a9" x="259.877779" y="123.466132" style="fill: #1f77b4; fill-opacity: 0.6; stroke: #ffffff; stroke-opacity: 0.6; stroke-width: 0.5"/>
     <use xlink:href="#mc3a63483a9" x="194.995766" y="154.67163" style="fill: #1f77b4; fill-opacity: 0.6; stroke: #ffffff; stroke-opacity: 0.6; stroke-width: 0.5"/>
     <use xlink:href="#mc3a63483a9" x="215.526562" y="177.132405" style="fill: #1f77b4; fill-opacity: 0.6; stroke: #ffffff; stroke-opacity: 0.6; stroke-width: 0.5"/>
     <use xlink:href="#mc3a63483a9" x="194.924798" y="159.862064" style="fill: #1f77b4; fill-opacity: 0.6; stroke: #ffffff; stroke-opacity: 0.6; stroke-width: 0.5"/>
     <use xlink:href="#mc3a63483a9" x="358.003242" y="55.652282" style="fill: #1f77b4; fill-opacity: 0.6; stroke: #ffffff; stroke-opacity: 0.6; stroke-width: 0.5"/>
     <use xlink:href="#mc3a63483a9" x="234.013986" y="109.101719" style="fill: #1f77b4; fill-opacity: 0.6; stroke: #ffffff; stroke-opacity: 0.6; stroke-width: 0.5"/>
     <use xlink:href="#mc3a63483a9" x="164.621238" y="182.391459" style="fill: #1f77b4; fill-opacity: 0.6; stroke: #ffffff; stroke-opacity: 0.6; stroke-width: 0.5"/>
     <use xlink:href="#mc3a63483a9" x="289.572786" y="114.650911" style="fill: #1f77b4; fill-opacity: 0.6; stroke: #ffffff; stroke-opacity: 0.6; stroke-width: 0.5"/>
     <use xlink:href="#mc3a63483a9" x="153.780328" y="188.41199" style="fill: #1f77b4; fill-opacity: 0.6; stroke: #ffffff; stroke-opacity: 0.6; stroke-width: 0.5"/>
     <use xlink:href="#mc3a63483a9" x="248.790873" y="109.82343" style="fill: #1f77b4; fill-opacity: 0.6; stroke: #ffffff; stroke-opacity: 0.6; stroke-width: 0.5"/>
     <use xlink:href="#mc3a63483a9" x="104.68195" y="203.183819" style="fill: #1f77b4; fill-opacity: 0.6; stroke: #ffffff; stroke-opacity: 0.6; stroke-width: 0.5"/>
     <use xlink:href="#mc3a63483a9" x="146.646937" y="193.016198" style="fill: #1f77b4; fill-opacity: 0.6; stroke: #ffffff; stroke-opacity: 0.6; stroke-width: 0.5"/>
     <use xlink:href="#mc3a63483a9" x="247.993261" y="116.935376" style="fill: #1f77b4; fill-opacity: 0.6; stroke: #ffffff; stroke-opacity: 0.6; stroke-width: 0.5"/>
     <use xlink:href="#mc3a63483a9" x="283.985398" y="102.921869" style="fill: #1f77b4; fill-opacity: 0.6; stroke: #ffffff; stroke-opacity: 0.6; stroke-width: 0.5"/>
     <use xlink:href="#mc3a63483a9" x="246.299139" y="110.389657" style="fill: #1f77b4; fill-opacity: 0.6; stroke: #ffffff; stroke-opacity: 0.6; stroke-width: 0.5"/>
     <use xlink:href="#mc3a63483a9" x="227.225583" y="149.085935" style="fill: #1f77b4; fill-opacity: 0.6; stroke: #ffffff; stroke-opacity: 0.6; stroke-width: 0.5"/>
     <use xlink:href="#mc3a63483a9" x="214.901228" y="150.050503" style="fill: #1f77b4; fill-opacity: 0.6; stroke: #ffffff; stroke-opacity: 0.6; stroke-width: 0.5"/>
     <use xlink:href="#mc3a63483a9" x="136.656431" y="196.540124" style="fill: #1f77b4; fill-opacity: 0.6; stroke: #ffffff; stroke-opacity: 0.6; stroke-width: 0.5"/>
     <use xlink:href="#mc3a63483a9" x="187.074018" y="184.985466" style="fill: #1f77b4; fill-opacity: 0.6; stroke: #ffffff; stroke-opacity: 0.6; stroke-width: 0.5"/>
     <use xlink:href="#mc3a63483a9" x="204.299397" y="145.891636" style="fill: #1f77b4; fill-opacity: 0.6; stroke: #ffffff; stroke-opacity: 0.6; stroke-width: 0.5"/>
     <use xlink:href="#mc3a63483a9" x="305.161515" y="87.917121" style="fill: #1f77b4; fill-opacity: 0.6; stroke: #ffffff; stroke-opacity: 0.6; stroke-width: 0.5"/>
     <use xlink:href="#mc3a63483a9" x="257.745935" y="119.675408" style="fill: #1f77b4; fill-opacity: 0.6; stroke: #ffffff; stroke-opacity: 0.6; stroke-width: 0.5"/>
     <use xlink:href="#mc3a63483a9" x="117.748905" y="204.912203" style="fill: #1f77b4; fill-opacity: 0.6; stroke: #ffffff; stroke-opacity: 0.6; stroke-width: 0.5"/>
    </g>
   </g>
   <g id="matplotlib.axis_1">
    <g id="xtick_1">
     <g id="line2d_1">
      <defs>
       <path id="mcc15ba86a2" d="M 0 0 
L 0 3.5 
" style="stroke: #000000; stroke-width: 0.8"/>
      </defs>
      <g>
       <use xlink:href="#mcc15ba86a2" x="102.001847" y="243.118281" style="stroke: #000000; stroke-width: 0.8"/>
      </g>
     </g>
     <g id="text_1">
      <!-- −2 -->
      <g transform="translate(94.630753 257.716719) scale(0.1 -0.1)">
       <defs>
        <path id="DejaVuSans-2212" d="M 678 2272 
L 4684 2272 
L 4684 1741 
L 678 1741 
L 678 2272 
z
" transform="scale(0.015625)"/>
        <path id="DejaVuSans-32" d="M 1228 531 
L 3431 531 
L 3431 0 
L 469 0 
L 469 531 
Q 828 903 1448 1529 
Q 2069 2156 2228 2338 
Q 2531 2678 2651 2914 
Q 2772 3150 2772 3378 
Q 2772 3750 2511 3984 
Q 2250 4219 1831 4219 
Q 1534 4219 1204 4116 
Q 875 4013 500 3803 
L 500 4441 
Q 881 4594 1212 4672 
Q 1544 4750 1819 4750 
Q 2544 4750 2975 4387 
Q 3406 4025 3406 3419 
Q 3406 3131 3298 2873 
Q 3191 2616 2906 2266 
Q 2828 2175 2409 1742 
Q 1991 1309 1228 531 
z
" transform="scale(0.015625)"/>
       </defs>
       <use xlink:href="#DejaVuSans-2212"/>
       <use xlink:href="#DejaVuSans-32" transform="translate(83.789062 0)"/>
      </g>
     </g>
    </g>
    <g id="xtick_2">
     <g id="line2d_2">
      <g>
       <use xlink:href="#mcc15ba86a2" x="168.456392" y="243.118281" style="stroke: #000000; stroke-width: 0.8"/>
      </g>
     </g>
     <g id="text_2">
      <!-- −1 -->
      <g transform="translate(161.085298 257.716719) scale(0.1 -0.1)">
       <defs>
        <path id="DejaVuSans-31" d="M 794 531 
L 1825 531 
L 1825 4091 
L 703 3866 
L 703 4441 
L 1819 4666 
L 2450 4666 
L 2450 531 
L 3481 531 
L 3481 0 
L 794 0 
L 794 531 
z
" transform="scale(0.015625)"/>
       </defs>
       <use xlink:href="#DejaVuSans-2212"/>
       <use xlink:href="#DejaVuSans-31" transform="translate(83.789062 0)"/>
      </g>
     </g>
    </g>
    <g id="xtick_3">
     <g id="line2d_3">
      <g>
       <use xlink:href="#mcc15ba86a2" x="234.910938" y="243.118281" style="stroke: #000000; stroke-width: 0.8"/>
      </g>
     </g>
     <g id="text_3">
      <!-- 0 -->
      <g transform="translate(231.729688 257.716719) scale(0.1 -0.1)">
       <defs>
        <path id="DejaVuSans-30" d="M 2034 4250 
Q 1547 4250 1301 3770 
Q 1056 3291 1056 2328 
Q 1056 1369 1301 889 
Q 1547 409 2034 409 
Q 2525 409 2770 889 
Q 3016 1369 3016 2328 
Q 3016 3291 2770 3770 
Q 2525 4250 2034 4250 
z
M 2034 4750 
Q 2819 4750 3233 4129 
Q 3647 3509 3647 2328 
Q 3647 1150 3233 529 
Q 2819 -91 2034 -91 
Q 1250 -91 836 529 
Q 422 1150 422 2328 
Q 422 3509 836 4129 
Q 1250 4750 2034 4750 
z
" transform="scale(0.015625)"/>
       </defs>
       <use xlink:href="#DejaVuSans-30"/>
      </g>
     </g>
    </g>
    <g id="xtick_4">
     <g id="line2d_4">
      <g>
       <use xlink:href="#mcc15ba86a2" x="301.365483" y="243.118281" style="stroke: #000000; stroke-width: 0.8"/>
      </g>
     </g>
     <g id="text_4">
      <!-- 1 -->
      <g transform="translate(298.184233 257.716719) scale(0.1 -0.1)">
       <use xlink:href="#DejaVuSans-31"/>
      </g>
     </g>
    </g>
    <g id="xtick_5">
     <g id="line2d_5">
      <g>
       <use xlink:href="#mcc15ba86a2" x="367.820028" y="243.118281" style="stroke: #000000; stroke-width: 0.8"/>
      </g>
     </g>
     <g id="text_5">
      <!-- 2 -->
      <g transform="translate(364.638778 257.716719) scale(0.1 -0.1)">
       <use xlink:href="#DejaVuSans-32"/>
      </g>
     </g>
    </g>
    <g id="text_6">
     <!-- Predicted Allelic Effect -->
     <g transform="translate(170.698438 271.394844) scale(0.1 -0.1)">
      <defs>
       <path id="DejaVuSans-Bold-50" d="M 588 4666 
L 2584 4666 
Q 3475 4666 3951 4270 
Q 4428 3875 4428 3144 
Q 4428 2409 3951 2014 
Q 3475 1619 2584 1619 
L 1791 1619 
L 1791 0 
L 588 0 
L 588 4666 
z
M 1791 3794 
L 1791 2491 
L 2456 2491 
Q 2806 2491 2997 2661 
Q 3188 2831 3188 3144 
Q 3188 3456 2997 3625 
Q 2806 3794 2456 3794 
L 1791 3794 
z
" transform="scale(0.015625)"/>
       <path id="DejaVuSans-Bold-72" d="M 3138 2547 
Q 2991 2616 2845 2648 
Q 2700 2681 2553 2681 
Q 2122 2681 1889 2404 
Q 1656 2128 1656 1613 
L 1656 0 
L 538 0 
L 538 3500 
L 1656 3500 
L 1656 2925 
Q 1872 3269 2151 3426 
Q 2431 3584 2822 3584 
Q 2878 3584 2943 3579 
Q 3009 3575 3134 3559 
L 3138 2547 
z
" transform="scale(0.015625)"/>
       <path id="DejaVuSans-Bold-65" d="M 4031 1759 
L 4031 1441 
L 1416 1441 
Q 1456 1047 1700 850 
Q 1944 653 2381 653 
Q 2734 653 3104 758 
Q 3475 863 3866 1075 
L 3866 213 
Q 3469 63 3072 -14 
Q 2675 -91 2278 -91 
Q 1328 -91 801 392 
Q 275 875 275 1747 
Q 275 2603 792 3093 
Q 1309 3584 2216 3584 
Q 3041 3584 3536 3087 
Q 4031 2591 4031 1759 
z
M 2881 2131 
Q 2881 2450 2695 2645 
Q 2509 2841 2209 2841 
Q 1884 2841 1681 2658 
Q 1478 2475 1428 2131 
L 2881 2131 
z
" transform="scale(0.015625)"/>
       <path id="DejaVuSans-Bold-64" d="M 2919 2988 
L 2919 4863 
L 4044 4863 
L 4044 0 
L 2919 0 
L 2919 506 
Q 2688 197 2409 53 
Q 2131 -91 1766 -91 
Q 1119 -91 703 423 
Q 288 938 288 1747 
Q 288 2556 703 3070 
Q 1119 3584 1766 3584 
Q 2128 3584 2408 3439 
Q 2688 3294 2919 2988 
z
M 2181 722 
Q 2541 722 2730 984 
Q 2919 1247 2919 1747 
Q 2919 2247 2730 2509 
Q 2541 2772 2181 2772 
Q 1825 2772 1636 2509 
Q 1447 2247 1447 1747 
Q 1447 1247 1636 984 
Q 1825 722 2181 722 
z
" transform="scale(0.015625)"/>
       <path id="DejaVuSans-Bold-69" d="M 538 3500 
L 1656 3500 
L 1656 0 
L 538 0 
L 538 3500 
z
M 538 4863 
L 1656 4863 
L 1656 3950 
L 538 3950 
L 538 4863 
z
" transform="scale(0.015625)"/>
       <path id="DejaVuSans-Bold-63" d="M 3366 3391 
L 3366 2478 
Q 3138 2634 2908 2709 
Q 2678 2784 2431 2784 
Q 1963 2784 1702 2511 
Q 1441 2238 1441 1747 
Q 1441 1256 1702 982 
Q 1963 709 2431 709 
Q 2694 709 2930 787 
Q 3166 866 3366 1019 
L 3366 103 
Q 3103 6 2833 -42 
Q 2563 -91 2291 -91 
Q 1344 -91 809 395 
Q 275 881 275 1747 
Q 275 2613 809 3098 
Q 1344 3584 2291 3584 
Q 2566 3584 2833 3536 
Q 3100 3488 3366 3391 
z
" transform="scale(0.015625)"/>
       <path id="DejaVuSans-Bold-74" d="M 1759 4494 
L 1759 3500 
L 2913 3500 
L 2913 2700 
L 1759 2700 
L 1759 1216 
Q 1759 972 1856 886 
Q 1953 800 2241 800 
L 2816 800 
L 2816 0 
L 1856 0 
Q 1194 0 917 276 
Q 641 553 641 1216 
L 641 2700 
L 84 2700 
L 84 3500 
L 641 3500 
L 641 4494 
L 1759 4494 
z
" transform="scale(0.015625)"/>
       <path id="DejaVuSans-Bold-20" transform="scale(0.015625)"/>
       <path id="DejaVuSans-Bold-41" d="M 3419 850 
L 1538 850 
L 1241 0 
L 31 0 
L 1759 4666 
L 3194 4666 
L 4922 0 
L 3713 0 
L 3419 850 
z
M 1838 1716 
L 3116 1716 
L 2478 3572 
L 1838 1716 
z
" transform="scale(0.015625)"/>
       <path id="DejaVuSans-Bold-6c" d="M 538 4863 
L 1656 4863 
L 1656 0 
L 538 0 
L 538 4863 
z
" transform="scale(0.015625)"/>
       <path id="DejaVuSans-Bold-45" d="M 588 4666 
L 3834 4666 
L 3834 3756 
L 1791 3756 
L 1791 2888 
L 3713 2888 
L 3713 1978 
L 1791 1978 
L 1791 909 
L 3903 909 
L 3903 0 
L 588 0 
L 588 4666 
z
" transform="scale(0.015625)"/>
       <path id="DejaVuSans-Bold-66" d="M 2841 4863 
L 2841 4128 
L 2222 4128 
Q 1984 4128 1890 4042 
Q 1797 3956 1797 3744 
L 1797 3500 
L 2753 3500 
L 2753 2700 
L 1797 2700 
L 1797 0 
L 678 0 
L 678 2700 
L 122 2700 
L 122 3500 
L 678 3500 
L 678 3744 
Q 678 4316 997 4589 
Q 1316 4863 1984 4863 
L 2841 4863 
z
" transform="scale(0.015625)"/>
      </defs>
      <use xlink:href="#DejaVuSans-Bold-50"/>
      <use xlink:href="#DejaVuSans-Bold-72" transform="translate(73.291016 0)"/>
      <use xlink:href="#DejaVuSans-Bold-65" transform="translate(122.607422 0)"/>
      <use xlink:href="#DejaVuSans-Bold-64" transform="translate(190.429688 0)"/>
      <use xlink:href="#DejaVuSans-Bold-69" transform="translate(262.011719 0)"/>
      <use xlink:href="#DejaVuSans-Bold-63" transform="translate(296.289062 0)"/>
      <use xlink:href="#DejaVuSans-Bold-74" transform="translate(355.566406 0)"/>
      <use xlink:href="#DejaVuSans-Bold-65" transform="translate(403.369141 0)"/>
      <use xlink:href="#DejaVuSans-Bold-64" transform="translate(471.191406 0)"/>
      <use xlink:href="#DejaVuSans-Bold-20" transform="translate(542.773438 0)"/>
      <use xlink:href="#DejaVuSans-Bold-41" transform="translate(577.587891 0)"/>
      <use xlink:href="#DejaVuSans-Bold-6c" transform="translate(654.980469 0)"/>
      <use xlink:href="#DejaVuSans-Bold-6c" transform="translate(689.257812 0)"/>
      <use xlink:href="#DejaVuSans-Bold-65" transform="translate(723.535156 0)"/>
      <use xlink:href="#DejaVuSans-Bold-6c" transform="translate(791.357422 0)"/>
      <use xlink:href="#DejaVuSans-Bold-69" transform="translate(825.634766 0)"/>
      <use xlink:href="#DejaVuSans-Bold-63" transform="translate(859.912109 0)"/>
      <use xlink:href="#DejaVuSans-Bold-20" transform="translate(919.189453 0)"/>
      <use xlink:href="#DejaVuSans-Bold-45" transform="translate(954.003906 0)"/>
      <use xlink:href="#DejaVuSans-Bold-66" transform="translate(1022.314453 0)"/>
      <use xlink:href="#DejaVuSans-Bold-66" transform="translate(1065.820312 0)"/>
      <use xlink:href="#DejaVuSans-Bold-65" transform="translate(1109.326172 0)"/>
      <use xlink:href="#DejaVuSans-Bold-63" transform="translate(1177.148438 0)"/>
      <use xlink:href="#DejaVuSans-Bold-74" transform="translate(1236.425781 0)"/>
     </g>
    </g>
   </g>
   <g id="matplotlib.axis_2">
    <g id="ytick_1">
     <g id="line2d_6">
      <defs>
       <path id="mcf52d08308" d="M 0 0 
L -3.5 0 
" style="stroke: #000000; stroke-width: 0.8"/>
      </defs>
      <g>
       <use xlink:href="#mcf52d08308" x="52.160938" y="215.686639" style="stroke: #000000; stroke-width: 0.8"/>
      </g>
     </g>
     <g id="text_7">
      <!-- −1.5 -->
      <g transform="translate(20.878125 219.485858) scale(0.1 -0.1)">
       <defs>
        <path id="DejaVuSans-2e" d="M 684 794 
L 1344 794 
L 1344 0 
L 684 0 
L 684 794 
z
" transform="scale(0.015625)"/>
        <path id="DejaVuSans-35" d="M 691 4666 
L 3169 4666 
L 3169 4134 
L 1269 4134 
L 1269 2991 
Q 1406 3038 1543 3061 
Q 1681 3084 1819 3084 
Q 2600 3084 3056 2656 
Q 3513 2228 3513 1497 
Q 3513 744 3044 326 
Q 2575 -91 1722 -91 
Q 1428 -91 1123 -41 
Q 819 9 494 109 
L 494 744 
Q 775 591 1075 516 
Q 1375 441 1709 441 
Q 2250 441 2565 725 
Q 2881 1009 2881 1497 
Q 2881 1984 2565 2268 
Q 2250 2553 1709 2553 
Q 1456 2553 1204 2497 
Q 953 2441 691 2322 
L 691 4666 
z
" transform="scale(0.015625)"/>
       </defs>
       <use xlink:href="#DejaVuSans-2212"/>
       <use xlink:href="#DejaVuSans-31" transform="translate(83.789062 0)"/>
       <use xlink:href="#DejaVuSans-2e" transform="translate(147.412109 0)"/>
       <use xlink:href="#DejaVuSans-35" transform="translate(179.199219 0)"/>
      </g>
     </g>
    </g>
    <g id="ytick_2">
     <g id="line2d_7">
      <g>
       <use xlink:href="#mcf52d08308" x="52.160938" y="188.129938" style="stroke: #000000; stroke-width: 0.8"/>
      </g>
     </g>
     <g id="text_8">
      <!-- −1.0 -->
      <g transform="translate(20.878125 191.929156) scale(0.1 -0.1)">
       <use xlink:href="#DejaVuSans-2212"/>
       <use xlink:href="#DejaVuSans-31" transform="translate(83.789062 0)"/>
       <use xlink:href="#DejaVuSans-2e" transform="translate(147.412109 0)"/>
       <use xlink:href="#DejaVuSans-30" transform="translate(179.199219 0)"/>
      </g>
     </g>
    </g>
    <g id="ytick_3">
     <g id="line2d_8">
      <g>
       <use xlink:href="#mcf52d08308" x="52.160938" y="160.573237" style="stroke: #000000; stroke-width: 0.8"/>
      </g>
     </g>
     <g id="text_9">
      <!-- −0.5 -->
      <g transform="translate(20.878125 164.372455) scale(0.1 -0.1)">
       <use xlink:href="#DejaVuSans-2212"/>
       <use xlink:href="#DejaVuSans-30" transform="translate(83.789062 0)"/>
       <use xlink:href="#DejaVuSans-2e" transform="translate(147.412109 0)"/>
       <use xlink:href="#DejaVuSans-35" transform="translate(179.199219 0)"/>
      </g>
     </g>
    </g>
    <g id="ytick_4">
     <g id="line2d_9">
      <g>
       <use xlink:href="#mcf52d08308" x="52.160938" y="133.016536" style="stroke: #000000; stroke-width: 0.8"/>
      </g>
     </g>
     <g id="text_10">
      <!-- 0.0 -->
      <g transform="translate(29.257813 136.815754) scale(0.1 -0.1)">
       <use xlink:href="#DejaVuSans-30"/>
       <use xlink:href="#DejaVuSans-2e" transform="translate(63.623047 0)"/>
       <use xlink:href="#DejaVuSans-30" transform="translate(95.410156 0)"/>
      </g>
     </g>
    </g>
    <g id="ytick_5">
     <g id="line2d_10">
      <g>
       <use xlink:href="#mcf52d08308" x="52.160938" y="105.459834" style="stroke: #000000; stroke-width: 0.8"/>
      </g>
     </g>
     <g id="text_11">
      <!-- 0.5 -->
      <g transform="translate(29.257813 109.259053) scale(0.1 -0.1)">
       <use xlink:href="#DejaVuSans-30"/>
       <use xlink:href="#DejaVuSans-2e" transform="translate(63.623047 0)"/>
       <use xlink:href="#DejaVuSans-35" transform="translate(95.410156 0)"/>
      </g>
     </g>
    </g>
    <g id="ytick_6">
     <g id="line2d_11">
      <g>
       <use xlink:href="#mcf52d08308" x="52.160938" y="77.903133" style="stroke: #000000; stroke-width: 0.8"/>
      </g>
     </g>
     <g id="text_12">
      <!-- 1.0 -->
      <g transform="translate(29.257813 81.702352) scale(0.1 -0.1)">
       <use xlink:href="#DejaVuSans-31"/>
       <use xlink:href="#DejaVuSans-2e" transform="translate(63.623047 0)"/>
       <use xlink:href="#DejaVuSans-30" transform="translate(95.410156 0)"/>
      </g>
     </g>
    </g>
    <g id="ytick_7">
     <g id="line2d_12">
      <g>
       <use xlink:href="#mcf52d08308" x="52.160938" y="50.346432" style="stroke: #000000; stroke-width: 0.8"/>
      </g>
     </g>
     <g id="text_13">
      <!-- 1.5 -->
      <g transform="translate(29.257813 54.145651) scale(0.1 -0.1)">
       <use xlink:href="#DejaVuSans-31"/>
       <use xlink:href="#DejaVuSans-2e" transform="translate(63.623047 0)"/>
       <use xlink:href="#DejaVuSans-35" transform="translate(95.410156 0)"/>
      </g>
     </g>
    </g>
    <g id="ytick_8">
     <g id="line2d_13">
      <g>
       <use xlink:href="#mcf52d08308" x="52.160938" y="22.789731" style="stroke: #000000; stroke-width: 0.8"/>
      </g>
     </g>
     <g id="text_14">
      <!-- 2.0 -->
      <g transform="translate(29.257813 26.58895) scale(0.1 -0.1)">
       <use xlink:href="#DejaVuSans-32"/>
       <use xlink:href="#DejaVuSans-2e" transform="translate(63.623047 0)"/>
       <use xlink:href="#DejaVuSans-30" transform="translate(95.410156 0)"/>
      </g>
     </g>
    </g>
    <g id="text_15">
     <!-- Observed Allelic Imbalance -->
     <g transform="translate(14.798438 208.819531) rotate(-90) scale(0.1 -0.1)">
      <defs>
       <path id="DejaVuSans-Bold-4f" d="M 2719 3878 
Q 2169 3878 1866 3472 
Q 1563 3066 1563 2328 
Q 1563 1594 1866 1187 
Q 2169 781 2719 781 
Q 3272 781 3575 1187 
Q 3878 1594 3878 2328 
Q 3878 3066 3575 3472 
Q 3272 3878 2719 3878 
z
M 2719 4750 
Q 3844 4750 4481 4106 
Q 5119 3463 5119 2328 
Q 5119 1197 4481 553 
Q 3844 -91 2719 -91 
Q 1597 -91 958 553 
Q 319 1197 319 2328 
Q 319 3463 958 4106 
Q 1597 4750 2719 4750 
z
" transform="scale(0.015625)"/>
       <path id="DejaVuSans-Bold-62" d="M 2400 722 
Q 2759 722 2948 984 
Q 3138 1247 3138 1747 
Q 3138 2247 2948 2509 
Q 2759 2772 2400 2772 
Q 2041 2772 1848 2508 
Q 1656 2244 1656 1747 
Q 1656 1250 1848 986 
Q 2041 722 2400 722 
z
M 1656 2988 
Q 1888 3294 2169 3439 
Q 2450 3584 2816 3584 
Q 3463 3584 3878 3070 
Q 4294 2556 4294 1747 
Q 4294 938 3878 423 
Q 3463 -91 2816 -91 
Q 2450 -91 2169 54 
Q 1888 200 1656 506 
L 1656 0 
L 538 0 
L 538 4863 
L 1656 4863 
L 1656 2988 
z
" transform="scale(0.015625)"/>
       <path id="DejaVuSans-Bold-73" d="M 3272 3391 
L 3272 2541 
Q 2913 2691 2578 2766 
Q 2244 2841 1947 2841 
Q 1628 2841 1473 2761 
Q 1319 2681 1319 2516 
Q 1319 2381 1436 2309 
Q 1553 2238 1856 2203 
L 2053 2175 
Q 2913 2066 3209 1816 
Q 3506 1566 3506 1031 
Q 3506 472 3093 190 
Q 2681 -91 1863 -91 
Q 1516 -91 1145 -36 
Q 775 19 384 128 
L 384 978 
Q 719 816 1070 734 
Q 1422 653 1784 653 
Q 2113 653 2278 743 
Q 2444 834 2444 1013 
Q 2444 1163 2330 1236 
Q 2216 1309 1875 1350 
L 1678 1375 
Q 931 1469 631 1722 
Q 331 1975 331 2491 
Q 331 3047 712 3315 
Q 1094 3584 1881 3584 
Q 2191 3584 2531 3537 
Q 2872 3491 3272 3391 
z
" transform="scale(0.015625)"/>
       <path id="DejaVuSans-Bold-76" d="M 97 3500 
L 1216 3500 
L 2088 1081 
L 2956 3500 
L 4078 3500 
L 2700 0 
L 1472 0 
L 97 3500 
z
" transform="scale(0.015625)"/>
       <path id="DejaVuSans-Bold-49" d="M 588 4666 
L 1791 4666 
L 1791 0 
L 588 0 
L 588 4666 
z
" transform="scale(0.015625)"/>
       <path id="DejaVuSans-Bold-6d" d="M 3781 2919 
Q 3994 3244 4286 3414 
Q 4578 3584 4928 3584 
Q 5531 3584 5847 3212 
Q 6163 2841 6163 2131 
L 6163 0 
L 5038 0 
L 5038 1825 
Q 5041 1866 5042 1909 
Q 5044 1953 5044 2034 
Q 5044 2406 4934 2573 
Q 4825 2741 4581 2741 
Q 4263 2741 4089 2478 
Q 3916 2216 3909 1719 
L 3909 0 
L 2784 0 
L 2784 1825 
Q 2784 2406 2684 2573 
Q 2584 2741 2328 2741 
Q 2006 2741 1831 2477 
Q 1656 2213 1656 1722 
L 1656 0 
L 531 0 
L 531 3500 
L 1656 3500 
L 1656 2988 
Q 1863 3284 2130 3434 
Q 2397 3584 2719 3584 
Q 3081 3584 3359 3409 
Q 3638 3234 3781 2919 
z
" transform="scale(0.015625)"/>
       <path id="DejaVuSans-Bold-61" d="M 2106 1575 
Q 1756 1575 1579 1456 
Q 1403 1338 1403 1106 
Q 1403 894 1545 773 
Q 1688 653 1941 653 
Q 2256 653 2472 879 
Q 2688 1106 2688 1447 
L 2688 1575 
L 2106 1575 
z
M 3816 1997 
L 3816 0 
L 2688 0 
L 2688 519 
Q 2463 200 2181 54 
Q 1900 -91 1497 -91 
Q 953 -91 614 226 
Q 275 544 275 1050 
Q 275 1666 698 1953 
Q 1122 2241 2028 2241 
L 2688 2241 
L 2688 2328 
Q 2688 2594 2478 2717 
Q 2269 2841 1825 2841 
Q 1466 2841 1156 2769 
Q 847 2697 581 2553 
L 581 3406 
Q 941 3494 1303 3539 
Q 1666 3584 2028 3584 
Q 2975 3584 3395 3211 
Q 3816 2838 3816 1997 
z
" transform="scale(0.015625)"/>
       <path id="DejaVuSans-Bold-6e" d="M 4056 2131 
L 4056 0 
L 2931 0 
L 2931 347 
L 2931 1631 
Q 2931 2084 2911 2256 
Q 2891 2428 2841 2509 
Q 2775 2619 2662 2680 
Q 2550 2741 2406 2741 
Q 2056 2741 1856 2470 
Q 1656 2200 1656 1722 
L 1656 0 
L 538 0 
L 538 3500 
L 1656 3500 
L 1656 2988 
Q 1909 3294 2193 3439 
Q 2478 3584 2822 3584 
Q 3428 3584 3742 3212 
Q 4056 2841 4056 2131 
z
" transform="scale(0.015625)"/>
      </defs>
      <use xlink:href="#DejaVuSans-Bold-4f"/>
      <use xlink:href="#DejaVuSans-Bold-62" transform="translate(85.009766 0)"/>
      <use xlink:href="#DejaVuSans-Bold-73" transform="translate(156.591797 0)"/>
      <use xlink:href="#DejaVuSans-Bold-65" transform="translate(216.113281 0)"/>
      <use xlink:href="#DejaVuSans-Bold-72" transform="translate(283.935547 0)"/>
      <use xlink:href="#DejaVuSans-Bold-76" transform="translate(333.251953 0)"/>
      <use xlink:href="#DejaVuSans-Bold-65" transform="translate(398.4375 0)"/>
      <use xlink:href="#DejaVuSans-Bold-64" transform="translate(466.259766 0)"/>
      <use xlink:href="#DejaVuSans-Bold-20" transform="translate(537.841797 0)"/>
      <use xlink:href="#DejaVuSans-Bold-41" transform="translate(572.65625 0)"/>
      <use xlink:href="#DejaVuSans-Bold-6c" transform="translate(650.048828 0)"/>
      <use xlink:href="#DejaVuSans-Bold-6c" transform="translate(684.326172 0)"/>
      <use xlink:href="#DejaVuSans-Bold-65" transform="translate(718.603516 0)"/>
      <use xlink:href="#DejaVuSans-Bold-6c" transform="translate(786.425781 0)"/>
      <use xlink:href="#DejaVuSans-Bold-69" transform="translate(820.703125 0)"/>
      <use xlink:href="#DejaVuSans-Bold-63" transform="translate(854.980469 0)"/>
      <use xlink:href="#DejaVuSans-Bold-20" transform="translate(914.257812 0)"/>
      <use xlink:href="#DejaVuSans-Bold-49" transform="translate(949.072266 0)"/>
      <use xlink:href="#DejaVuSans-Bold-6d" transform="translate(986.279297 0)"/>
      <use xlink:href="#DejaVuSans-Bold-62" transform="translate(1090.478516 0)"/>
      <use xlink:href="#DejaVuSans-Bold-61" transform="translate(1162.060547 0)"/>
      <use xlink:href="#DejaVuSans-Bold-6c" transform="translate(1229.541016 0)"/>
      <use xlink:href="#DejaVuSans-Bold-61" transform="translate(1263.818359 0)"/>
      <use xlink:href="#DejaVuSans-Bold-6e" transform="translate(1331.298828 0)"/>
      <use xlink:href="#DejaVuSans-Bold-63" transform="translate(1402.490234 0)"/>
      <use xlink:href="#DejaVuSans-Bold-65" transform="translate(1461.767578 0)"/>
     </g>
    </g>
   </g>
   <g id="line2d_14">
    <path d="M 68.774574 233.047372 
L 72.130864 231.012845 
L 75.487154 228.978318 
L 78.843444 226.943791 
L 82.199735 224.909264 
L 85.556025 222.874737 
L 88.912315 220.84021 
L 92.268605 218.805683 
L 95.624895 216.771155 
L 98.981185 214.736628 
L 102.337476 212.702101 
L 105.693766 210.667574 
L 109.050056 208.633047 
L 112.406346 206.59852 
L 115.762636 204.563993 
L 119.118926 202.529466 
L 122.475217 200.494939 
L 125.831507 198.460412 
L 129.187797 196.425885 
L 132.544087 194.391357 
L 135.900377 192.35683 
L 139.256668 190.322303 
L 142.612958 188.287776 
L 145.969248 186.253249 
L 149.325538 184.218722 
L 152.681828 182.184195 
L 156.038118 180.149668 
L 159.394409 178.115141 
L 162.750699 176.080614 
L 166.106989 174.046087 
L 169.463279 172.011559 
L 172.819569 169.977032 
L 176.175859 167.942505 
L 179.53215 165.907978 
L 182.88844 163.873451 
L 186.24473 161.838924 
L 189.60102 159.804397 
L 192.95731 157.76987 
L 196.3136 155.735343 
L 199.669891 153.700816 
L 203.026181 151.666289 
L 206.382471 149.631762 
L 209.738761 147.597234 
L 213.095051 145.562707 
L 216.451342 143.52818 
L 219.807632 141.493653 
L 223.163922 139.459126 
L 226.520212 137.424599 
L 229.876502 135.390072 
L 233.232792 133.355545 
L 236.589083 131.321018 
L 239.945373 129.286491 
L 243.301663 127.251964 
L 246.657953 125.217436 
L 250.014243 123.182909 
L 253.370533 121.148382 
L 256.726824 119.113855 
L 260.083114 117.079328 
L 263.439404 115.044801 
L 266.795694 113.010274 
L 270.151984 110.975747 
L 273.508275 108.94122 
L 276.864565 106.906693 
L 280.220855 104.872166 
L 283.577145 102.837638 
L 286.933435 100.803111 
L 290.289725 98.768584 
L 293.646016 96.734057 
L 297.002306 94.69953 
L 300.358596 92.665003 
L 303.714886 90.630476 
L 307.071176 88.595949 
L 310.427466 86.561422 
L 313.783757 84.526895 
L 317.140047 82.492368 
L 320.496337 80.45784 
L 323.852627 78.423313 
L 327.208917 76.388786 
L 330.565207 74.354259 
L 333.921498 72.319732 
L 337.277788 70.285205 
L 340.634078 68.250678 
L 343.990368 66.216151 
L 347.346658 64.181624 
L 350.702949 62.147097 
L 354.059239 60.11257 
L 357.415529 58.078042 
L 360.771819 56.043515 
L 364.128109 54.008988 
L 367.484399 51.974461 
L 370.84069 49.939934 
L 374.19698 47.905407 
L 377.55327 45.87088 
L 380.90956 43.836353 
L 384.26585 41.801826 
L 387.62214 39.767299 
L 390.978431 37.732772 
L 394.334721 35.698245 
L 397.691011 33.663717 
L 401.047301 31.62919 
" clip-path="url(#pe16b61c9f2)" style="fill: none; stroke-dasharray: 5.55,2.4; stroke-dashoffset: 0; stroke: #ff0000; stroke-width: 1.5"/>
   </g>
   <g id="line2d_15">
    <path d="M 52.160938 133.016536 
L 417.660937 133.016536 
" clip-path="url(#pe16b61c9f2)" style="fill: none; stroke: #cccccc; stroke-width: 0.5; stroke-linecap: square"/>
   </g>
   <g id="line2d_16">
    <path d="M 234.910938 243.118281 
L 234.910938 21.558281 
" clip-path="url(#pe16b61c9f2)" style="fill: none; stroke: #cccccc; stroke-width: 0.5; stroke-linecap: square"/>
   </g>
   <g id="patch_3">
    <path d="M 52.160938 243.118281 
L 52.160938 21.558281 
" style="fill: none; stroke: #000000; stroke-width: 0.8; stroke-linejoin: miter; stroke-linecap: square"/>
   </g>
   <g id="patch_4">
    <path d="M 417.660937 243.118281 
L 417.660937 21.558281 
" style="fill: none; stroke: #000000; stroke-width: 0.8; stroke-linejoin: miter; stroke-linecap: square"/>
   </g>
   <g id="patch_5">
    <path d="M 52.160938 243.118281 
L 417.660938 243.118281 
" style="fill: none; stroke: #000000; stroke-width: 0.8; stroke-linejoin: miter; stroke-linecap: square"/>
   </g>
   <g id="patch_6">
    <path d="M 52.160938 21.558281 
L 417.660938 21.558281 
" style="fill: none; stroke: #000000; stroke-width: 0.8; stroke-linejoin: miter; stroke-linecap: square"/>
   </g>
   <g id="text_16">
    <!-- C. Validation via Allelic Imbalance -->
    <g transform="translate(52.160938 15.558281) scale(0.11 -0.11)">
     <defs>
      <path id="DejaVuSans-Bold-43" d="M 4288 256 
Q 3956 84 3597 -3 
Q 3238 -91 2847 -91 
Q 1681 -91 1000 561 
Q 319 1213 319 2328 
Q 319 3447 1000 4098 
Q 1681 4750 2847 4750 
Q 3238 4750 3597 4662 
Q 3956 4575 4288 4403 
L 4288 3438 
Q 3953 3666 3628 3772 
Q 3303 3878 2944 3878 
Q 2300 3878 1931 3465 
Q 1563 3053 1563 2328 
Q 1563 1606 1931 1193 
Q 2300 781 2944 781 
Q 3303 781 3628 887 
Q 3953 994 4288 1222 
L 4288 256 
z
" transform="scale(0.015625)"/>
      <path id="DejaVuSans-Bold-2e" d="M 653 1209 
L 1778 1209 
L 1778 0 
L 653 0 
L 653 1209 
z
" transform="scale(0.015625)"/>
      <path id="DejaVuSans-Bold-56" d="M 31 4666 
L 1241 4666 
L 2478 1222 
L 3713 4666 
L 4922 4666 
L 3194 0 
L 1759 0 
L 31 4666 
z
" transform="scale(0.015625)"/>
      <path id="DejaVuSans-Bold-6f" d="M 2203 2784 
Q 1831 2784 1636 2517 
Q 1441 2250 1441 1747 
Q 1441 1244 1636 976 
Q 1831 709 2203 709 
Q 2569 709 2762 976 
Q 2956 1244 2956 1747 
Q 2956 2250 2762 2517 
Q 2569 2784 2203 2784 
z
M 2203 3584 
Q 3106 3584 3614 3096 
Q 4122 2609 4122 1747 
Q 4122 884 3614 396 
Q 3106 -91 2203 -91 
Q 1297 -91 786 396 
Q 275 884 275 1747 
Q 275 2609 786 3096 
Q 1297 3584 2203 3584 
z
" transform="scale(0.015625)"/>
     </defs>
     <use xlink:href="#DejaVuSans-Bold-43"/>
     <use xlink:href="#DejaVuSans-Bold-2e" transform="translate(73.388672 0)"/>
     <use xlink:href="#DejaVuSans-Bold-20" transform="translate(111.376953 0)"/>
     <use xlink:href="#DejaVuSans-Bold-56" transform="translate(146.191406 0)"/>
     <use xlink:href="#DejaVuSans-Bold-61" transform="translate(218.083984 0)"/>
     <use xlink:href="#DejaVuSans-Bold-6c" transform="translate(285.564453 0)"/>
     <use xlink:href="#DejaVuSans-Bold-69" transform="translate(319.841797 0)"/>
     <use xlink:href="#DejaVuSans-Bold-64" transform="translate(354.119141 0)"/>
     <use xlink:href="#DejaVuSans-Bold-61" transform="translate(425.701172 0)"/>
     <use xlink:href="#DejaVuSans-Bold-74" transform="translate(493.181641 0)"/>
     <use xlink:href="#DejaVuSans-Bold-69" transform="translate(540.984375 0)"/>
     <use xlink:href="#DejaVuSans-Bold-6f" transform="translate(575.261719 0)"/>
     <use xlink:href="#DejaVuSans-Bold-6e" transform="translate(643.962891 0)"/>
     <use xlink:href="#DejaVuSans-Bold-20" transform="translate(715.154297 0)"/>
     <use xlink:href="#DejaVuSans-Bold-76" transform="translate(749.96875 0)"/>
     <use xlink:href="#DejaVuSans-Bold-69" transform="translate(815.154297 0)"/>
     <use xlink:href="#DejaVuSans-Bold-61" transform="translate(849.431641 0)"/>
     <use xlink:href="#DejaVuSans-Bold-20" transform="translate(916.912109 0)"/>
     <use xlink:href="#DejaVuSans-Bold-41" transform="translate(951.726562 0)"/>
     <use xlink:href="#DejaVuSans-Bold-6c" transform="translate(1029.119141 0)"/>
     <use xlink:href="#DejaVuSans-Bold-6c" transform="translate(1063.396484 0)"/>
     <use xlink:href="#DejaVuSans-Bold-65" transform="translate(1097.673828 0)"/>
     <use xlink:href="#DejaVuSans-Bold-6c" transform="translate(1165.496094 0)"/>
     <use xlink:href="#DejaVuSans-Bold-69" transform="translate(1199.773438 0)"/>
     <use xlink:href="#DejaVuSans-Bold-63" transform="translate(1234.050781 0)"/>
     <use xlink:href="#DejaVuSans-Bold-20" transform="translate(1293.328125 0)"/>
     <use xlink:href="#DejaVuSans-Bold-49" transform="translate(1328.142578 0)"/>
     <use xlink:href="#DejaVuSans-Bold-6d" transform="translate(1365.349609 0)"/>
     <use xlink:href="#DejaVuSans-Bold-62" transform="translate(1469.548828 0)"/>
     <use xlink:href="#DejaVuSans-Bold-61" transform="translate(1541.130859 0)"/>
     <use xlink:href="#DejaVuSans-Bold-6c" transform="translate(1608.611328 0)"/>
     <use xlink:href="#DejaVuSans-Bold-61" transform="translate(1642.888672 0)"/>
     <use xlink:href="#DejaVuSans-Bold-6e" transform="translate(1710.369141 0)"/>
     <use xlink:href="#DejaVuSans-Bold-63" transform="translate(1781.560547 0)"/>
     <use xlink:href="#DejaVuSans-Bold-65" transform="translate(1840.837891 0)"/>
    </g>
   </g>
   <g id="legend_1">
    <g id="patch_7">
     <path d="M 345.559687 238.618281 
L 411.360937 238.618281 
Q 413.160937 238.618281 413.160937 236.818281 
L 413.160937 224.507969 
Q 413.160937 222.707969 411.360937 222.707969 
L 345.559687 222.707969 
Q 343.759687 222.707969 343.759687 224.507969 
L 343.759687 236.818281 
Q 343.759687 238.618281 345.559687 238.618281 
z
" style="fill: #ffffff; opacity: 0.8; stroke: #cccccc; stroke-linejoin: miter"/>
    </g>
    <g id="line2d_17">
     <path d="M 347.359688 229.996562 
L 356.359688 229.996562 
L 365.359688 229.996562 
" style="fill: none; stroke-dasharray: 5.55,2.4; stroke-dashoffset: 0; stroke: #ff0000; stroke-width: 1.5"/>
    </g>
    <g id="text_17">
     <!-- r = 0.72 -->
     <g transform="translate(372.559687 233.146562) scale(0.09 -0.09)">
      <defs>
       <path id="DejaVuSans-72" d="M 2631 2963 
Q 2534 3019 2420 3045 
Q 2306 3072 2169 3072 
Q 1681 3072 1420 2755 
Q 1159 2438 1159 1844 
L 1159 0 
L 581 0 
L 581 3500 
L 1159 3500 
L 1159 2956 
Q 1341 3275 1631 3429 
Q 1922 3584 2338 3584 
Q 2397 3584 2469 3576 
Q 2541 3569 2628 3553 
L 2631 2963 
z
" transform="scale(0.015625)"/>
       <path id="DejaVuSans-20" transform="scale(0.015625)"/>
       <path id="DejaVuSans-3d" d="M 678 2906 
L 4684 2906 
L 4684 2381 
L 678 2381 
L 678 2906 
z
M 678 1631 
L 4684 1631 
L 4684 1100 
L 678 1100 
L 678 1631 
z
" transform="scale(0.015625)"/>
       <path id="DejaVuSans-37" d="M 525 4666 
L 3525 4666 
L 3525 4397 
L 1831 0 
L 1172 0 
L 2766 4134 
L 525 4134 
L 525 4666 
z
" transform="scale(0.015625)"/>
      </defs>
      <use xlink:href="#DejaVuSans-72"/>
      <use xlink:href="#DejaVuSans-20" transform="translate(41.113281 0)"/>
      <use xlink:href="#DejaVuSans-3d" transform="translate(72.900391 0)"/>
      <use xlink:href="#DejaVuSans-20" transform="translate(156.689453 0)"/>
      <use xlink:href="#DejaVuSans-30" transform="translate(188.476562 0)"/>
      <use xlink:href="#DejaVuSans-2e" transform="translate(252.099609 0)"/>
      <use xlink:href="#DejaVuSans-37" transform="translate(283.886719 0)"/>
      <use xlink:href="#DejaVuSans-32" transform="translate(347.509766 0)"/>
     </g>
    </g>
   </g>
  </g>
 </g>
 <defs>
  <clipPath id="pe16b61c9f2">
   <rect x="52.160938" y="21.558281" width="365.5" height="221.56"/>
  </clipPath>
 </defs>
</svg>
