<?xml version="1.0" encoding="utf-8" standalone="no"?>
<!DOCTYPE svg PUBLIC "-//W3C//DTD SVG 1.1//EN"
  "http://www.w3.org/Graphics/SVG/1.1/DTD/svg11.dtd">
<svg xmlns:xlink="http://www.w3.org/1999/xlink" width="424.8pt" height="352.518281pt" viewBox="0 0 424.8 352.518281" xmlns="http://www.w3.org/2000/svg" version="1.1">
 <metadata>
  <rdf:RDF xmlns:dc="http://purl.org/dc/elements/1.1/" xmlns:cc="http://creativecommons.org/ns#" xmlns:rdf="http://www.w3.org/1999/02/22-rdf-syntax-ns#">
   <cc:Work>
    <dc:type rdf:resource="http://purl.org/dc/dcmitype/StillImage"/>
    <dc:date>2026-01-08T05:45:32.646476</dc:date>
    <dc:format>image/svg+xml</dc:format>
    <dc:creator>
     <cc:Agent>
      <dc:title>Matplotlib v3.10.7, https://matplotlib.org/</dc:title>
     </cc:Agent>
    </dc:creator>
   </cc:Work>
  </rdf:RDF>
 </metadata>
 <defs>
  <style type="text/css">*{stroke-linejoin: round; stroke-linecap: butt}</style>
 </defs>
 <g id="figure_1">
  <g id="patch_1">
   <path d="M 0 352.518281 
L 424.8 352.518281 
L 424.8 0 
L 0 0 
z
" style="fill: #ffffff"/>
  </g>
  <g id="axes_1">
   <g id="patch_2">
    <path d="M 72.864 65.805481 
L 195.984 65.805481 
Q 197.6256 65.805481 197.6256 64.726281 
L 197.6256 43.142281 
Q 197.6256 42.063081 195.984 42.063081 
L 72.864 42.063081 
Q 71.2224 42.063081 71.2224 43.142281 
L 71.2224 64.726281 
Q 71.2224 65.805481 72.864 65.805481 
z
" clip-path="url(#pf6f49cd017)" style="fill: #aec7e8; stroke: #333333; stroke-width: 1.5; stroke-linejoin: miter"/>
   </g>
   <g id="patch_3">
    <path d="M 72.864 108.973481 
L 195.984 108.973481 
Q 197.6256 108.973481 197.6256 107.894281 
L 197.6256 86.310281 
Q 197.6256 85.231081 195.984 85.231081 
L 72.864 85.231081 
Q 71.2224 85.231081 71.2224 86.310281 
L 71.2224 107.894281 
Q 71.2224 108.973481 72.864 108.973481 
z
" clip-path="url(#pf6f49cd017)" style="fill: #98df8a; stroke: #333333; stroke-width: 1.5; stroke-linejoin: miter"/>
   </g>
   <g id="patch_4">
    <path d="M 72.864 141.349481 
L 195.984 141.349481 
Q 197.6256 141.349481 197.6256 140.270281 
L 197.6256 118.686281 
Q 197.6256 117.607081 195.984 117.607081 
L 72.864 117.607081 
Q 71.2224 117.607081 71.2224 118.686281 
L 71.2224 140.270281 
Q 71.2224 141.349481 72.864 141.349481 
z
" clip-path="url(#pf6f49cd017)" style="fill: #ffbb78; stroke: #333333; stroke-width: 1.5; stroke-linejoin: miter"/>
   </g>
   <g id="patch_5">
    <path d="M 72.864 173.725481 
L 195.984 173.725481 
Q 197.6256 173.725481 197.6256 172.646281 
L 197.6256 151.062281 
Q 197.6256 149.983081 195.984 149.983081 
L 72.864 149.983081 
Q 71.2224 149.983081 71.2224 151.062281 
L 71.2224 172.646281 
Q 71.2224 173.725481 72.864 173.725481 
z
" clip-path="url(#pf6f49cd017)" style="fill: #1f77b4; stroke: #333333; stroke-width: 1.5; stroke-linejoin: miter"/>
   </g>
   <g id="patch_6">
    <path d="M 72.864 206.101481 
L 195.984 206.101481 
Q 197.6256 206.101481 197.6256 205.022281 
L 197.6256 183.438281 
Q 197.6256 182.359081 195.984 182.359081 
L 72.864 182.359081 
Q 71.2224 182.359081 71.2224 183.438281 
L 71.2224 205.022281 
Q 71.2224 206.101481 72.864 206.101481 
z
" clip-path="url(#pf6f49cd017)" style="fill: #98df8a; stroke: #333333; stroke-width: 1.5; stroke-linejoin: miter"/>
   </g>
   <g id="patch_7">
    <path d="M 72.864 238.477481 
L 195.984 238.477481 
Q 197.6256 238.477481 197.6256 237.398281 
L 197.6256 215.814281 
Q 197.6256 214.735081 195.984 214.735081 
L 72.864 214.735081 
Q 71.2224 214.735081 71.2224 215.814281 
L 71.2224 237.398281 
Q 71.2224 238.477481 72.864 238.477481 
z
" clip-path="url(#pf6f49cd017)" style="fill: #ffbb78; stroke: #333333; stroke-width: 1.5; stroke-linejoin: miter"/>
   </g>
   <g id="patch_8">
    <path d="M 72.864 270.853481 
L 195.984 270.853481 
Q 197.6256 270.853481 197.6256 269.774281 
L 197.6256 248.190281 
Q 197.6256 247.111081 195.984 247.111081 
L 72.864 247.111081 
Q 71.2224 247.111081 71.2224 248.190281 
L 71.2224 269.774281 
Q 71.2224 270.853481 72.864 270.853481 
z
" clip-path="url(#pf6f49cd017)" style="fill: #1f77b4; stroke: #333333; stroke-width: 1.5; stroke-linejoin: miter"/>
   </g>
   <g id="patch_9">
    <path d="M 134.424 304.848281 
C 137.689181 304.848281 140.821067 303.995446 143.129899 302.477604 
C 145.43873 300.959761 146.736 298.900835 146.736 296.754281 
C 146.736 294.607727 145.43873 292.548802 143.129899 291.030959 
C 140.821067 289.513116 137.689181 288.660281 134.424 288.660281 
C 131.158819 288.660281 128.026933 289.513116 125.718101 291.030959 
C 123.40927 292.548802 122.112 294.607727 122.112 296.754281 
C 122.112 298.900835 123.40927 300.959761 125.718101 302.477604 
C 128.026933 303.995446 131.158819 304.848281 134.424 304.848281 
z
" clip-path="url(#pf6f49cd017)" style="fill: #ffffff; stroke: #333333; stroke-width: 1.5; stroke-linejoin: miter"/>
   </g>
   <g id="patch_10">
    <path d="M 72.864 324.813481 
L 195.984 324.813481 
Q 197.6256 324.813481 197.6256 323.734281 
L 197.6256 302.150281 
Q 197.6256 301.071081 195.984 301.071081 
L 72.864 301.071081 
Q 71.2224 301.071081 71.2224 302.150281 
L 71.2224 323.734281 
Q 71.2224 324.813481 72.864 324.813481 
z
" clip-path="url(#pf6f49cd017)" style="fill: #d62728; stroke: #333333; stroke-width: 1.5; stroke-linejoin: miter"/>
   </g>
   <g id="line2d_1">
    <path d="M 253.44 258.982281 
L 146.736 296.754281 
" clip-path="url(#pf6f49cd017)" style="fill: none; stroke: #000000; stroke-linecap: square"/>
   </g>
   <g id="text_1">
    <!-- Input -->
    <g transform="translate(122.771813 56.417719) scale(0.09 -0.09)">
     <defs>
      <path id="DejaVuSans-49" d="M 628 4666 
L 1259 4666 
L 1259 0 
L 628 0 
L 628 4666 
z
" transform="scale(0.015625)"/>
      <path id="DejaVuSans-6e" d="M 3513 2113 
L 3513 0 
L 2938 0 
L 2938 2094 
Q 2938 2591 2744 2837 
Q 2550 3084 2163 3084 
Q 1697 3084 1428 2787 
Q 1159 2491 1159 1978 
L 1159 0 
L 581 0 
L 581 3500 
L 1159 3500 
L 1159 2956 
Q 1366 3272 1645 3428 
Q 1925 3584 2291 3584 
Q 2894 3584 3203 3211 
Q 3513 2838 3513 2113 
z
" transform="scale(0.015625)"/>
      <path id="DejaVuSans-70" d="M 1159 525 
L 1159 -1331 
L 581 -1331 
L 581 3500 
L 1159 3500 
L 1159 2969 
Q 1341 3281 1617 3432 
Q 1894 3584 2278 3584 
Q 2916 3584 3314 3078 
Q 3713 2572 3713 1747 
Q 3713 922 3314 415 
Q 2916 -91 2278 -91 
Q 1894 -91 1617 61 
Q 1341 213 1159 525 
z
M 3116 1747 
Q 3116 2381 2855 2742 
Q 2594 3103 2138 3103 
Q 1681 3103 1420 2742 
Q 1159 2381 1159 1747 
Q 1159 1113 1420 752 
Q 1681 391 2138 391 
Q 2594 391 2855 752 
Q 3116 1113 3116 1747 
z
" transform="scale(0.015625)"/>
      <path id="DejaVuSans-75" d="M 544 1381 
L 544 3500 
L 1119 3500 
L 1119 1403 
Q 1119 906 1312 657 
Q 1506 409 1894 409 
Q 2359 409 2629 706 
Q 2900 1003 2900 1516 
L 2900 3500 
L 3475 3500 
L 3475 0 
L 2900 0 
L 2900 538 
Q 2691 219 2414 64 
Q 2138 -91 1772 -91 
Q 1169 -91 856 284 
Q 544 659 544 1381 
z
M 1991 3584 
L 1991 3584 
z
" transform="scale(0.015625)"/>
      <path id="DejaVuSans-74" d="M 1172 4494 
L 1172 3500 
L 2356 3500 
L 2356 3053 
L 1172 3053 
L 1172 1153 
Q 1172 725 1289 603 
Q 1406 481 1766 481 
L 2356 481 
L 2356 0 
L 1766 0 
Q 1100 0 847 248 
Q 594 497 594 1153 
L 594 3053 
L 172 3053 
L 172 3500 
L 594 3500 
L 594 4494 
L 1172 4494 
z
" transform="scale(0.015625)"/>
     </defs>
     <use xlink:href="#DejaVuSans-49"/>
     <use xlink:href="#DejaVuSans-6e" transform="translate(29.492188 0)"/>
     <use xlink:href="#DejaVuSans-70" transform="translate(92.871094 0)"/>
     <use xlink:href="#DejaVuSans-75" transform="translate(156.347656 0)"/>
     <use xlink:href="#DejaVuSans-74" transform="translate(219.726562 0)"/>
    </g>
   </g>
   <g id="patch_11">
    <path d="M 134.424 68.122494 
Q 134.424 67.424347 134.424 67.844234 
" style="fill: none; stroke: #555555; stroke-linecap: round"/>
    <path d="M 132.424 71.844234 
L 134.424 67.844234 
L 136.424 71.844234 
" style="fill: none; stroke: #555555; stroke-linecap: round"/>
   </g>
   <g id="text_2">
    <!-- BatchNorm -->
    <g transform="translate(109.214156 99.585719) scale(0.09 -0.09)">
     <defs>
      <path id="DejaVuSans-42" d="M 1259 2228 
L 1259 519 
L 2272 519 
Q 2781 519 3026 730 
Q 3272 941 3272 1375 
Q 3272 1813 3026 2020 
Q 2781 2228 2272 2228 
L 1259 2228 
z
M 1259 4147 
L 1259 2741 
L 2194 2741 
Q 2656 2741 2882 2914 
Q 3109 3088 3109 3444 
Q 3109 3797 2882 3972 
Q 2656 4147 2194 4147 
L 1259 4147 
z
M 628 4666 
L 2241 4666 
Q 2963 4666 3353 4366 
Q 3744 4066 3744 3513 
Q 3744 3084 3544 2831 
Q 3344 2578 2956 2516 
Q 3422 2416 3680 2098 
Q 3938 1781 3938 1306 
Q 3938 681 3513 340 
Q 3088 0 2303 0 
L 628 0 
L 628 4666 
z
" transform="scale(0.015625)"/>
      <path id="DejaVuSans-61" d="M 2194 1759 
Q 1497 1759 1228 1600 
Q 959 1441 959 1056 
Q 959 750 1161 570 
Q 1363 391 1709 391 
Q 2188 391 2477 730 
Q 2766 1069 2766 1631 
L 2766 1759 
L 2194 1759 
z
M 3341 1997 
L 3341 0 
L 2766 0 
L 2766 531 
Q 2569 213 2275 61 
Q 1981 -91 1556 -91 
Q 1019 -91 701 211 
Q 384 513 384 1019 
Q 384 1609 779 1909 
Q 1175 2209 1959 2209 
L 2766 2209 
L 2766 2266 
Q 2766 2663 2505 2880 
Q 2244 3097 1772 3097 
Q 1472 3097 1187 3025 
Q 903 2953 641 2809 
L 641 3341 
Q 956 3463 1253 3523 
Q 1550 3584 1831 3584 
Q 2591 3584 2966 3190 
Q 3341 2797 3341 1997 
z
" transform="scale(0.015625)"/>
      <path id="DejaVuSans-63" d="M 3122 3366 
L 3122 2828 
Q 2878 2963 2633 3030 
Q 2388 3097 2138 3097 
Q 1578 3097 1268 2742 
Q 959 2388 959 1747 
Q 959 1106 1268 751 
Q 1578 397 2138 397 
Q 2388 397 2633 464 
Q 2878 531 3122 666 
L 3122 134 
Q 2881 22 2623 -34 
Q 2366 -91 2075 -91 
Q 1284 -91 818 406 
Q 353 903 353 1747 
Q 353 2603 823 3093 
Q 1294 3584 2113 3584 
Q 2378 3584 2631 3529 
Q 2884 3475 3122 3366 
z
" transform="scale(0.015625)"/>
      <path id="DejaVuSans-68" d="M 3513 2113 
L 3513 0 
L 2938 0 
L 2938 2094 
Q 2938 2591 2744 2837 
Q 2550 3084 2163 3084 
Q 1697 3084 1428 2787 
Q 1159 2491 1159 1978 
L 1159 0 
L 581 0 
L 581 4863 
L 1159 4863 
L 1159 2956 
Q 1366 3272 1645 3428 
Q 1925 3584 2291 3584 
Q 2894 3584 3203 3211 
Q 3513 2838 3513 2113 
z
" transform="scale(0.015625)"/>
      <path id="DejaVuSans-4e" d="M 628 4666 
L 1478 4666 
L 3547 763 
L 3547 4666 
L 4159 4666 
L 4159 0 
L 3309 0 
L 1241 3903 
L 1241 0 
L 628 0 
L 628 4666 
z
" transform="scale(0.015625)"/>
      <path id="DejaVuSans-6f" d="M 1959 3097 
Q 1497 3097 1228 2736 
Q 959 2375 959 1747 
Q 959 1119 1226 758 
Q 1494 397 1959 397 
Q 2419 397 2687 759 
Q 2956 1122 2956 1747 
Q 2956 2369 2687 2733 
Q 2419 3097 1959 3097 
z
M 1959 3584 
Q 2709 3584 3137 3096 
Q 3566 2609 3566 1747 
Q 3566 888 3137 398 
Q 2709 -91 1959 -91 
Q 1206 -91 779 398 
Q 353 888 353 1747 
Q 353 2609 779 3096 
Q 1206 3584 1959 3584 
z
" transform="scale(0.015625)"/>
      <path id="DejaVuSans-72" d="M 2631 2963 
Q 2534 3019 2420 3045 
Q 2306 3072 2169 3072 
Q 1681 3072 1420 2755 
Q 1159 2438 1159 1844 
L 1159 0 
L 581 0 
L 581 3500 
L 1159 3500 
L 1159 2956 
Q 1341 3275 1631 3429 
Q 1922 3584 2338 3584 
Q 2397 3584 2469 3576 
Q 2541 3569 2628 3553 
L 2631 2963 
z
" transform="scale(0.015625)"/>
      <path id="DejaVuSans-6d" d="M 3328 2828 
Q 3544 3216 3844 3400 
Q 4144 3584 4550 3584 
Q 5097 3584 5394 3201 
Q 5691 2819 5691 2113 
L 5691 0 
L 5113 0 
L 5113 2094 
Q 5113 2597 4934 2840 
Q 4756 3084 4391 3084 
Q 3944 3084 3684 2787 
Q 3425 2491 3425 1978 
L 3425 0 
L 2847 0 
L 2847 2094 
Q 2847 2600 2669 2842 
Q 2491 3084 2119 3084 
Q 1678 3084 1418 2786 
Q 1159 2488 1159 1978 
L 1159 0 
L 581 0 
L 581 3500 
L 1159 3500 
L 1159 2956 
Q 1356 3278 1631 3431 
Q 1906 3584 2284 3584 
Q 2666 3584 2933 3390 
Q 3200 3197 3328 2828 
z
" transform="scale(0.015625)"/>
     </defs>
     <use xlink:href="#DejaVuSans-42"/>
     <use xlink:href="#DejaVuSans-61" transform="translate(68.603516 0)"/>
     <use xlink:href="#DejaVuSans-74" transform="translate(129.882812 0)"/>
     <use xlink:href="#DejaVuSans-63" transform="translate(169.091797 0)"/>
     <use xlink:href="#DejaVuSans-68" transform="translate(224.072266 0)"/>
     <use xlink:href="#DejaVuSans-4e" transform="translate(287.451172 0)"/>
     <use xlink:href="#DejaVuSans-6f" transform="translate(362.255859 0)"/>
     <use xlink:href="#DejaVuSans-72" transform="translate(423.4375 0)"/>
     <use xlink:href="#DejaVuSans-6d" transform="translate(462.800781 0)"/>
    </g>
   </g>
   <g id="patch_12">
    <path d="M 134.424 111.290494 
Q 134.424 110.592347 134.424 111.012234 
" style="fill: none; stroke: #555555; stroke-linecap: round"/>
    <path d="M 132.424 115.012234 
L 134.424 111.012234 
L 136.424 115.012234 
" style="fill: none; stroke: #555555; stroke-linecap: round"/>
   </g>
   <g id="text_3">
    <!-- ReLU -->
    <g transform="translate(123.155016 131.961719) scale(0.09 -0.09)">
     <defs>
      <path id="DejaVuSans-52" d="M 2841 2188 
Q 3044 2119 3236 1894 
Q 3428 1669 3622 1275 
L 4263 0 
L 3584 0 
L 2988 1197 
Q 2756 1666 2539 1819 
Q 2322 1972 1947 1972 
L 1259 1972 
L 1259 0 
L 628 0 
L 628 4666 
L 2053 4666 
Q 2853 4666 3247 4331 
Q 3641 3997 3641 3322 
Q 3641 2881 3436 2590 
Q 3231 2300 2841 2188 
z
M 1259 4147 
L 1259 2491 
L 2053 2491 
Q 2509 2491 2742 2702 
Q 2975 2913 2975 3322 
Q 2975 3731 2742 3939 
Q 2509 4147 2053 4147 
L 1259 4147 
z
" transform="scale(0.015625)"/>
      <path id="DejaVuSans-65" d="M 3597 1894 
L 3597 1613 
L 953 1613 
Q 991 1019 1311 708 
Q 1631 397 2203 397 
Q 2534 397 2845 478 
Q 3156 559 3463 722 
L 3463 178 
Q 3153 47 2828 -22 
Q 2503 -91 2169 -91 
Q 1331 -91 842 396 
Q 353 884 353 1716 
Q 353 2575 817 3079 
Q 1281 3584 2069 3584 
Q 2775 3584 3186 3129 
Q 3597 2675 3597 1894 
z
M 3022 2063 
Q 3016 2534 2758 2815 
Q 2500 3097 2075 3097 
Q 1594 3097 1305 2825 
Q 1016 2553 972 2059 
L 3022 2063 
z
" transform="scale(0.015625)"/>
      <path id="DejaVuSans-4c" d="M 628 4666 
L 1259 4666 
L 1259 531 
L 3531 531 
L 3531 0 
L 628 0 
L 628 4666 
z
" transform="scale(0.015625)"/>
      <path id="DejaVuSans-55" d="M 556 4666 
L 1191 4666 
L 1191 1831 
Q 1191 1081 1462 751 
Q 1734 422 2344 422 
Q 2950 422 3222 751 
Q 3494 1081 3494 1831 
L 3494 4666 
L 4128 4666 
L 4128 1753 
Q 4128 841 3676 375 
Q 3225 -91 2344 -91 
Q 1459 -91 1007 375 
Q 556 841 556 1753 
L 556 4666 
z
" transform="scale(0.015625)"/>
     </defs>
     <use xlink:href="#DejaVuSans-52"/>
     <use xlink:href="#DejaVuSans-65" transform="translate(64.982422 0)"/>
     <use xlink:href="#DejaVuSans-4c" transform="translate(126.505859 0)"/>
     <use xlink:href="#DejaVuSans-55" transform="translate(177.21875 0)"/>
    </g>
   </g>
   <g id="patch_13">
    <path d="M 134.424 143.666494 
Q 134.424 142.968347 134.424 143.388234 
" style="fill: none; stroke: #555555; stroke-linecap: round"/>
    <path d="M 132.424 147.388234 
L 134.424 143.388234 
L 136.424 147.388234 
" style="fill: none; stroke: #555555; stroke-linecap: round"/>
   </g>
   <g id="text_4">
    <!-- Conv -->
    <g transform="translate(123.012984 164.337719) scale(0.09 -0.09)">
     <defs>
      <path id="DejaVuSans-43" d="M 4122 4306 
L 4122 3641 
Q 3803 3938 3442 4084 
Q 3081 4231 2675 4231 
Q 1875 4231 1450 3742 
Q 1025 3253 1025 2328 
Q 1025 1406 1450 917 
Q 1875 428 2675 428 
Q 3081 428 3442 575 
Q 3803 722 4122 1019 
L 4122 359 
Q 3791 134 3420 21 
Q 3050 -91 2638 -91 
Q 1578 -91 968 557 
Q 359 1206 359 2328 
Q 359 3453 968 4101 
Q 1578 4750 2638 4750 
Q 3056 4750 3426 4639 
Q 3797 4528 4122 4306 
z
" transform="scale(0.015625)"/>
      <path id="DejaVuSans-76" d="M 191 3500 
L 800 3500 
L 1894 563 
L 2988 3500 
L 3597 3500 
L 2284 0 
L 1503 0 
L 191 3500 
z
" transform="scale(0.015625)"/>
     </defs>
     <use xlink:href="#DejaVuSans-43"/>
     <use xlink:href="#DejaVuSans-6f" transform="translate(69.824219 0)"/>
     <use xlink:href="#DejaVuSans-6e" transform="translate(131.005859 0)"/>
     <use xlink:href="#DejaVuSans-76" transform="translate(194.384766 0)"/>
    </g>
   </g>
   <g id="patch_14">
    <path d="M 134.424 176.042494 
Q 134.424 175.344347 134.424 175.764234 
" style="fill: none; stroke: #555555; stroke-linecap: round"/>
    <path d="M 132.424 179.764234 
L 134.424 175.764234 
L 136.424 179.764234 
" style="fill: none; stroke: #555555; stroke-linecap: round"/>
   </g>
   <g id="text_5">
    <!-- BatchNorm -->
    <g transform="translate(109.214156 196.713719) scale(0.09 -0.09)">
     <use xlink:href="#DejaVuSans-42"/>
     <use xlink:href="#DejaVuSans-61" transform="translate(68.603516 0)"/>
     <use xlink:href="#DejaVuSans-74" transform="translate(129.882812 0)"/>
     <use xlink:href="#DejaVuSans-63" transform="translate(169.091797 0)"/>
     <use xlink:href="#DejaVuSans-68" transform="translate(224.072266 0)"/>
     <use xlink:href="#DejaVuSans-4e" transform="translate(287.451172 0)"/>
     <use xlink:href="#DejaVuSans-6f" transform="translate(362.255859 0)"/>
     <use xlink:href="#DejaVuSans-72" transform="translate(423.4375 0)"/>
     <use xlink:href="#DejaVuSans-6d" transform="translate(462.800781 0)"/>
    </g>
   </g>
   <g id="patch_15">
    <path d="M 134.424 208.418494 
Q 134.424 207.720347 134.424 208.140234 
" style="fill: none; stroke: #555555; stroke-linecap: round"/>
    <path d="M 132.424 212.140234 
L 134.424 208.140234 
L 136.424 212.140234 
" style="fill: none; stroke: #555555; stroke-linecap: round"/>
   </g>
   <g id="text_6">
    <!-- ReLU -->
    <g transform="translate(123.155016 229.089719) scale(0.09 -0.09)">
     <use xlink:href="#DejaVuSans-52"/>
     <use xlink:href="#DejaVuSans-65" transform="translate(64.982422 0)"/>
     <use xlink:href="#DejaVuSans-4c" transform="translate(126.505859 0)"/>
     <use xlink:href="#DejaVuSans-55" transform="translate(177.21875 0)"/>
    </g>
   </g>
   <g id="patch_16">
    <path d="M 134.424 240.794494 
Q 134.424 240.096347 134.424 240.516234 
" style="fill: none; stroke: #555555; stroke-linecap: round"/>
    <path d="M 132.424 244.516234 
L 134.424 240.516234 
L 136.424 244.516234 
" style="fill: none; stroke: #555555; stroke-linecap: round"/>
   </g>
   <g id="text_7">
    <!-- Conv -->
    <g transform="translate(123.012984 261.465719) scale(0.09 -0.09)">
     <use xlink:href="#DejaVuSans-43"/>
     <use xlink:href="#DejaVuSans-6f" transform="translate(69.824219 0)"/>
     <use xlink:href="#DejaVuSans-6e" transform="translate(131.005859 0)"/>
     <use xlink:href="#DejaVuSans-76" transform="translate(194.384766 0)"/>
    </g>
   </g>
   <g id="patch_17">
    <path d="M 252.418012 55.651984 
Q 192.947004 156.459271 251.282983 255.340667 
" style="fill: none; stroke: #d62728; stroke-width: 2; stroke-linecap: round"/>
    <path d="M 250.973061 250.879283 
L 251.282983 255.340667 
L 247.527922 252.911773 
" style="fill: none; stroke: #d62728; stroke-width: 2; stroke-linecap: round"/>
   </g>
   <g id="text_8">
    <!-- Skip -->
    <g style="fill: #d62728" transform="translate(319.104 159.298703) scale(0.09 -0.09)">
     <defs>
      <path id="DejaVuSans-53" d="M 3425 4513 
L 3425 3897 
Q 3066 4069 2747 4153 
Q 2428 4238 2131 4238 
Q 1616 4238 1336 4038 
Q 1056 3838 1056 3469 
Q 1056 3159 1242 3001 
Q 1428 2844 1947 2747 
L 2328 2669 
Q 3034 2534 3370 2195 
Q 3706 1856 3706 1288 
Q 3706 609 3251 259 
Q 2797 -91 1919 -91 
Q 1588 -91 1214 -16 
Q 841 59 441 206 
L 441 856 
Q 825 641 1194 531 
Q 1563 422 1919 422 
Q 2459 422 2753 634 
Q 3047 847 3047 1241 
Q 3047 1584 2836 1778 
Q 2625 1972 2144 2069 
L 1759 2144 
Q 1053 2284 737 2584 
Q 422 2884 422 3419 
Q 422 4038 858 4394 
Q 1294 4750 2059 4750 
Q 2388 4750 2728 4690 
Q 3069 4631 3425 4513 
z
" transform="scale(0.015625)"/>
      <path id="DejaVuSans-6b" d="M 581 4863 
L 1159 4863 
L 1159 1991 
L 2875 3500 
L 3609 3500 
L 1753 1863 
L 3688 0 
L 2938 0 
L 1159 1709 
L 1159 0 
L 581 0 
L 581 4863 
z
" transform="scale(0.015625)"/>
      <path id="DejaVuSans-69" d="M 603 3500 
L 1178 3500 
L 1178 0 
L 603 0 
L 603 3500 
z
M 603 4863 
L 1178 4863 
L 1178 4134 
L 603 4134 
L 603 4863 
z
" transform="scale(0.015625)"/>
     </defs>
     <use xlink:href="#DejaVuSans-53"/>
     <use xlink:href="#DejaVuSans-6b" transform="translate(63.476562 0)"/>
     <use xlink:href="#DejaVuSans-69" transform="translate(121.386719 0)"/>
     <use xlink:href="#DejaVuSans-70" transform="translate(149.169922 0)"/>
    </g>
    <!-- Connection -->
    <g style="fill: #d62728" transform="translate(319.104 169.376734) scale(0.09 -0.09)">
     <use xlink:href="#DejaVuSans-43"/>
     <use xlink:href="#DejaVuSans-6f" transform="translate(69.824219 0)"/>
     <use xlink:href="#DejaVuSans-6e" transform="translate(131.005859 0)"/>
     <use xlink:href="#DejaVuSans-6e" transform="translate(194.384766 0)"/>
     <use xlink:href="#DejaVuSans-65" transform="translate(257.763672 0)"/>
     <use xlink:href="#DejaVuSans-63" transform="translate(319.287109 0)"/>
     <use xlink:href="#DejaVuSans-74" transform="translate(374.267578 0)"/>
     <use xlink:href="#DejaVuSans-69" transform="translate(413.476562 0)"/>
     <use xlink:href="#DejaVuSans-6f" transform="translate(441.259766 0)"/>
     <use xlink:href="#DejaVuSans-6e" transform="translate(502.441406 0)"/>
    </g>
   </g>
   <g id="text_9">
    <!-- + -->
    <g transform="translate(129.396187 300.065531) scale(0.12 -0.12)">
     <defs>
      <path id="DejaVuSans-Bold-2b" d="M 3053 4013 
L 3053 2375 
L 4684 2375 
L 4684 1638 
L 3053 1638 
L 3053 0 
L 2309 0 
L 2309 1638 
L 678 1638 
L 678 2375 
L 2309 2375 
L 2309 4013 
L 3053 4013 
z
" transform="scale(0.015625)"/>
     </defs>
     <use xlink:href="#DejaVuSans-Bold-2b"/>
    </g>
   </g>
   <g id="patch_18">
    <path d="M 134.424 271.778021 
Q 134.424 277.871089 134.424 282.846123 
" style="fill: none; stroke: #555555; stroke-linecap: round"/>
    <path d="M 136.424 278.846123 
L 134.424 282.846123 
L 132.424 278.846123 
" style="fill: none; stroke: #555555; stroke-linecap: round"/>
   </g>
   <g id="text_10">
    <!-- Output -->
    <g style="fill: #ffffff" transform="translate(118.792828 315.425719) scale(0.09 -0.09)">
     <defs>
      <path id="DejaVuSans-4f" d="M 2522 4238 
Q 1834 4238 1429 3725 
Q 1025 3213 1025 2328 
Q 1025 1447 1429 934 
Q 1834 422 2522 422 
Q 3209 422 3611 934 
Q 4013 1447 4013 2328 
Q 4013 3213 3611 3725 
Q 3209 4238 2522 4238 
z
M 2522 4750 
Q 3503 4750 4090 4092 
Q 4678 3434 4678 2328 
Q 4678 1225 4090 567 
Q 3503 -91 2522 -91 
Q 1538 -91 948 565 
Q 359 1222 359 2328 
Q 359 3434 948 4092 
Q 1538 4750 2522 4750 
z
" transform="scale(0.015625)"/>
     </defs>
     <use xlink:href="#DejaVuSans-4f"/>
     <use xlink:href="#DejaVuSans-75" transform="translate(78.710938 0)"/>
     <use xlink:href="#DejaVuSans-74" transform="translate(142.089844 0)"/>
     <use xlink:href="#DejaVuSans-70" transform="translate(181.298828 0)"/>
     <use xlink:href="#DejaVuSans-75" transform="translate(244.775391 0)"/>
     <use xlink:href="#DejaVuSans-74" transform="translate(308.154297 0)"/>
    </g>
   </g>
   <g id="patch_19">
    <path d="M 134.424 306.848068 
Q 134.424 307.197175 134.424 306.428247 
" style="fill: none; stroke: #555555; stroke-linecap: round"/>
    <path d="M 136.424 302.428247 
L 134.424 306.428247 
L 132.424 302.428247 
" style="fill: none; stroke: #555555; stroke-linecap: round"/>
   </g>
   <g id="text_11">
    <!-- B. Residual Block Structure -->
    <g transform="translate(7.2 15.558281) scale(0.11 -0.11)">
     <defs>
      <path id="DejaVuSans-Bold-42" d="M 2456 2859 
Q 2741 2859 2887 2984 
Q 3034 3109 3034 3353 
Q 3034 3594 2887 3720 
Q 2741 3847 2456 3847 
L 1791 3847 
L 1791 2859 
L 2456 2859 
z
M 2497 819 
Q 2859 819 3042 972 
Q 3225 1125 3225 1434 
Q 3225 1738 3044 1889 
Q 2863 2041 2497 2041 
L 1791 2041 
L 1791 819 
L 2497 819 
z
M 3616 2497 
Q 4003 2384 4215 2081 
Q 4428 1778 4428 1338 
Q 4428 663 3972 331 
Q 3516 0 2584 0 
L 588 0 
L 588 4666 
L 2394 4666 
Q 3366 4666 3802 4372 
Q 4238 4078 4238 3431 
Q 4238 3091 4078 2852 
Q 3919 2613 3616 2497 
z
" transform="scale(0.015625)"/>
      <path id="DejaVuSans-Bold-2e" d="M 653 1209 
L 1778 1209 
L 1778 0 
L 653 0 
L 653 1209 
z
" transform="scale(0.015625)"/>
      <path id="DejaVuSans-Bold-20" transform="scale(0.015625)"/>
      <path id="DejaVuSans-Bold-52" d="M 2297 2597 
Q 2675 2597 2839 2737 
Q 3003 2878 3003 3200 
Q 3003 3519 2839 3656 
Q 2675 3794 2297 3794 
L 1791 3794 
L 1791 2597 
L 2297 2597 
z
M 1791 1766 
L 1791 0 
L 588 0 
L 588 4666 
L 2425 4666 
Q 3347 4666 3776 4356 
Q 4206 4047 4206 3378 
Q 4206 2916 3982 2619 
Q 3759 2322 3309 2181 
Q 3556 2125 3751 1926 
Q 3947 1728 4147 1325 
L 4800 0 
L 3519 0 
L 2950 1159 
Q 2778 1509 2601 1637 
Q 2425 1766 2131 1766 
L 1791 1766 
z
" transform="scale(0.015625)"/>
      <path id="DejaVuSans-Bold-65" d="M 4031 1759 
L 4031 1441 
L 1416 1441 
Q 1456 1047 1700 850 
Q 1944 653 2381 653 
Q 2734 653 3104 758 
Q 3475 863 3866 1075 
L 3866 213 
Q 3469 63 3072 -14 
Q 2675 -91 2278 -91 
Q 1328 -91 801 392 
Q 275 875 275 1747 
Q 275 2603 792 3093 
Q 1309 3584 2216 3584 
Q 3041 3584 3536 3087 
Q 4031 2591 4031 1759 
z
M 2881 2131 
Q 2881 2450 2695 2645 
Q 2509 2841 2209 2841 
Q 1884 2841 1681 2658 
Q 1478 2475 1428 2131 
L 2881 2131 
z
" transform="scale(0.015625)"/>
      <path id="DejaVuSans-Bold-73" d="M 3272 3391 
L 3272 2541 
Q 2913 2691 2578 2766 
Q 2244 2841 1947 2841 
Q 1628 2841 1473 2761 
Q 1319 2681 1319 2516 
Q 1319 2381 1436 2309 
Q 1553 2238 1856 2203 
L 2053 2175 
Q 2913 2066 3209 1816 
Q 3506 1566 3506 1031 
Q 3506 472 3093 190 
Q 2681 -91 1863 -91 
Q 1516 -91 1145 -36 
Q 775 19 384 128 
L 384 978 
Q 719 816 1070 734 
Q 1422 653 1784 653 
Q 2113 653 2278 743 
Q 2444 834 2444 1013 
Q 2444 1163 2330 1236 
Q 2216 1309 1875 1350 
L 1678 1375 
Q 931 1469 631 1722 
Q 331 1975 331 2491 
Q 331 3047 712 3315 
Q 1094 3584 1881 3584 
Q 2191 3584 2531 3537 
Q 2872 3491 3272 3391 
z
" transform="scale(0.015625)"/>
      <path id="DejaVuSans-Bold-69" d="M 538 3500 
L 1656 3500 
L 1656 0 
L 538 0 
L 538 3500 
z
M 538 4863 
L 1656 4863 
L 1656 3950 
L 538 3950 
L 538 4863 
z
" transform="scale(0.015625)"/>
      <path id="DejaVuSans-Bold-64" d="M 2919 2988 
L 2919 4863 
L 4044 4863 
L 4044 0 
L 2919 0 
L 2919 506 
Q 2688 197 2409 53 
Q 2131 -91 1766 -91 
Q 1119 -91 703 423 
Q 288 938 288 1747 
Q 288 2556 703 3070 
Q 1119 3584 1766 3584 
Q 2128 3584 2408 3439 
Q 2688 3294 2919 2988 
z
M 2181 722 
Q 2541 722 2730 984 
Q 2919 1247 2919 1747 
Q 2919 2247 2730 2509 
Q 2541 2772 2181 2772 
Q 1825 2772 1636 2509 
Q 1447 2247 1447 1747 
Q 1447 1247 1636 984 
Q 1825 722 2181 722 
z
" transform="scale(0.015625)"/>
      <path id="DejaVuSans-Bold-75" d="M 500 1363 
L 500 3500 
L 1625 3500 
L 1625 3150 
Q 1625 2866 1622 2436 
Q 1619 2006 1619 1863 
Q 1619 1441 1641 1255 
Q 1663 1069 1716 984 
Q 1784 875 1895 815 
Q 2006 756 2150 756 
Q 2500 756 2700 1025 
Q 2900 1294 2900 1772 
L 2900 3500 
L 4019 3500 
L 4019 0 
L 2900 0 
L 2900 506 
Q 2647 200 2364 54 
Q 2081 -91 1741 -91 
Q 1134 -91 817 281 
Q 500 653 500 1363 
z
" transform="scale(0.015625)"/>
      <path id="DejaVuSans-Bold-61" d="M 2106 1575 
Q 1756 1575 1579 1456 
Q 1403 1338 1403 1106 
Q 1403 894 1545 773 
Q 1688 653 1941 653 
Q 2256 653 2472 879 
Q 2688 1106 2688 1447 
L 2688 1575 
L 2106 1575 
z
M 3816 1997 
L 3816 0 
L 2688 0 
L 2688 519 
Q 2463 200 2181 54 
Q 1900 -91 1497 -91 
Q 953 -91 614 226 
Q 275 544 275 1050 
Q 275 1666 698 1953 
Q 1122 2241 2028 2241 
L 2688 2241 
L 2688 2328 
Q 2688 2594 2478 2717 
Q 2269 2841 1825 2841 
Q 1466 2841 1156 2769 
Q 847 2697 581 2553 
L 581 3406 
Q 941 3494 1303 3539 
Q 1666 3584 2028 3584 
Q 2975 3584 3395 3211 
Q 3816 2838 3816 1997 
z
" transform="scale(0.015625)"/>
      <path id="DejaVuSans-Bold-6c" d="M 538 4863 
L 1656 4863 
L 1656 0 
L 538 0 
L 538 4863 
z
" transform="scale(0.015625)"/>
      <path id="DejaVuSans-Bold-6f" d="M 2203 2784 
Q 1831 2784 1636 2517 
Q 1441 2250 1441 1747 
Q 1441 1244 1636 976 
Q 1831 709 2203 709 
Q 2569 709 2762 976 
Q 2956 1244 2956 1747 
Q 2956 2250 2762 2517 
Q 2569 2784 2203 2784 
z
M 2203 3584 
Q 3106 3584 3614 3096 
Q 4122 2609 4122 1747 
Q 4122 884 3614 396 
Q 3106 -91 2203 -91 
Q 1297 -91 786 396 
Q 275 884 275 1747 
Q 275 2609 786 3096 
Q 1297 3584 2203 3584 
z
" transform="scale(0.015625)"/>
      <path id="DejaVuSans-Bold-63" d="M 3366 3391 
L 3366 2478 
Q 3138 2634 2908 2709 
Q 2678 2784 2431 2784 
Q 1963 2784 1702 2511 
Q 1441 2238 1441 1747 
Q 1441 1256 1702 982 
Q 1963 709 2431 709 
Q 2694 709 2930 787 
Q 3166 866 3366 1019 
L 3366 103 
Q 3103 6 2833 -42 
Q 2563 -91 2291 -91 
Q 1344 -91 809 395 
Q 275 881 275 1747 
Q 275 2613 809 3098 
Q 1344 3584 2291 3584 
Q 2566 3584 2833 3536 
Q 3100 3488 3366 3391 
z
" transform="scale(0.015625)"/>
      <path id="DejaVuSans-Bold-6b" d="M 538 4863 
L 1656 4863 
L 1656 2216 
L 2944 3500 
L 4244 3500 
L 2534 1894 
L 4378 0 
L 3022 0 
L 1656 1459 
L 1656 0 
L 538 0 
L 538 4863 
z
" transform="scale(0.015625)"/>
      <path id="DejaVuSans-Bold-53" d="M 3834 4519 
L 3834 3531 
Q 3450 3703 3084 3790 
Q 2719 3878 2394 3878 
Q 1963 3878 1756 3759 
Q 1550 3641 1550 3391 
Q 1550 3203 1689 3098 
Q 1828 2994 2194 2919 
L 2706 2816 
Q 3484 2659 3812 2340 
Q 4141 2022 4141 1434 
Q 4141 663 3683 286 
Q 3225 -91 2284 -91 
Q 1841 -91 1394 -6 
Q 947 78 500 244 
L 500 1259 
Q 947 1022 1364 901 
Q 1781 781 2169 781 
Q 2563 781 2772 912 
Q 2981 1044 2981 1288 
Q 2981 1506 2839 1625 
Q 2697 1744 2272 1838 
L 1806 1941 
Q 1106 2091 782 2419 
Q 459 2747 459 3303 
Q 459 4000 909 4375 
Q 1359 4750 2203 4750 
Q 2588 4750 2994 4692 
Q 3400 4634 3834 4519 
z
" transform="scale(0.015625)"/>
      <path id="DejaVuSans-Bold-74" d="M 1759 4494 
L 1759 3500 
L 2913 3500 
L 2913 2700 
L 1759 2700 
L 1759 1216 
Q 1759 972 1856 886 
Q 1953 800 2241 800 
L 2816 800 
L 2816 0 
L 1856 0 
Q 1194 0 917 276 
Q 641 553 641 1216 
L 641 2700 
L 84 2700 
L 84 3500 
L 641 3500 
L 641 4494 
L 1759 4494 
z
" transform="scale(0.015625)"/>
      <path id="DejaVuSans-Bold-72" d="M 3138 2547 
Q 2991 2616 2845 2648 
Q 2700 2681 2553 2681 
Q 2122 2681 1889 2404 
Q 1656 2128 1656 1613 
L 1656 0 
L 538 0 
L 538 3500 
L 1656 3500 
L 1656 2925 
Q 1872 3269 2151 3426 
Q 2431 3584 2822 3584 
Q 2878 3584 2943 3579 
Q 3009 3575 3134 3559 
L 3138 2547 
z
" transform="scale(0.015625)"/>
     </defs>
     <use xlink:href="#DejaVuSans-Bold-42"/>
     <use xlink:href="#DejaVuSans-Bold-2e" transform="translate(76.220703 0)"/>
     <use xlink:href="#DejaVuSans-Bold-20" transform="translate(114.208984 0)"/>
     <use xlink:href="#DejaVuSans-Bold-52" transform="translate(149.023438 0)"/>
     <use xlink:href="#DejaVuSans-Bold-65" transform="translate(226.025391 0)"/>
     <use xlink:href="#DejaVuSans-Bold-73" transform="translate(293.847656 0)"/>
     <use xlink:href="#DejaVuSans-Bold-69" transform="translate(353.369141 0)"/>
     <use xlink:href="#DejaVuSans-Bold-64" transform="translate(387.646484 0)"/>
     <use xlink:href="#DejaVuSans-Bold-75" transform="translate(459.228516 0)"/>
     <use xlink:href="#DejaVuSans-Bold-61" transform="translate(530.419922 0)"/>
     <use xlink:href="#DejaVuSans-Bold-6c" transform="translate(597.900391 0)"/>
     <use xlink:href="#DejaVuSans-Bold-20" transform="translate(632.177734 0)"/>
     <use xlink:href="#DejaVuSans-Bold-42" transform="translate(666.992188 0)"/>
     <use xlink:href="#DejaVuSans-Bold-6c" transform="translate(743.212891 0)"/>
     <use xlink:href="#DejaVuSans-Bold-6f" transform="translate(777.490234 0)"/>
     <use xlink:href="#DejaVuSans-Bold-63" transform="translate(846.191406 0)"/>
     <use xlink:href="#DejaVuSans-Bold-6b" transform="translate(905.46875 0)"/>
     <use xlink:href="#DejaVuSans-Bold-20" transform="translate(971.972656 0)"/>
     <use xlink:href="#DejaVuSans-Bold-53" transform="translate(1006.787109 0)"/>
     <use xlink:href="#DejaVuSans-Bold-74" transform="translate(1078.808594 0)"/>
     <use xlink:href="#DejaVuSans-Bold-72" transform="translate(1126.611328 0)"/>
     <use xlink:href="#DejaVuSans-Bold-75" transform="translate(1175.927734 0)"/>
     <use xlink:href="#DejaVuSans-Bold-63" transform="translate(1247.119141 0)"/>
     <use xlink:href="#DejaVuSans-Bold-74" transform="translate(1306.396484 0)"/>
     <use xlink:href="#DejaVuSans-Bold-75" transform="translate(1354.199219 0)"/>
     <use xlink:href="#DejaVuSans-Bold-72" transform="translate(1425.390625 0)"/>
     <use xlink:href="#DejaVuSans-Bold-65" transform="translate(1474.707031 0)"/>
    </g>
   </g>
  </g>
 </g>
 <defs>
  <clipPath id="pf6f49cd017">
   <rect x="7.2" y="21.558281" width="410.4" height="323.76"/>
  </clipPath>
 </defs>
</svg>
