<?xml version="1.0" encoding="UTF-8" standalone="no"?>
<!DOCTYPE svg PUBLIC "-//W3C//DTD SVG 1.1//EN"
 "http://www.w3.org/Graphics/SVG/1.1/DTD/svg11.dtd">
<!-- Generated by graphviz version 2.43.0 (0)
 -->
<!-- Title: multiscale Pages: 1 -->
<svg width="348pt" height="720pt"
 viewBox="0.00 0.00 348.39 720.00" xmlns="http://www.w3.org/2000/svg" xmlns:xlink="http://www.w3.org/1999/xlink">
<g id="graph0" class="graph" transform="scale(1.55 1.55) rotate(0) translate(4 461)">
<title>multiscale</title>
<polygon fill="white" stroke="transparent" points="-4,4 -4,-461 221,-461 221,4 -4,4"/>
<!-- nucleotide -->
<g id="node1" class="node">
<title>nucleotide</title>
<path fill="#1f77b4" stroke="black" stroke-width="1.5" d="M200.5,-457C200.5,-457 163.5,-457 163.5,-457 157.5,-457 151.5,-451 151.5,-445 151.5,-445 151.5,-433 151.5,-433 151.5,-427 157.5,-421 163.5,-421 163.5,-421 200.5,-421 200.5,-421 206.5,-421 212.5,-427 212.5,-433 212.5,-433 212.5,-445 212.5,-445 212.5,-451 206.5,-457 200.5,-457"/>
<text text-anchor="middle" x="182" y="-441.8" font-family="Arial" font-size="9.00" fill="white">Nucleotide</text>
<text text-anchor="middle" x="182" y="-431.8" font-family="Arial" font-size="9.00" fill="white">(1 bp)</text>
</g>
<!-- motif -->
<g id="node2" class="node">
<title>motif</title>
<path fill="#2ca02c" stroke="black" stroke-width="1.5" d="M164.5,-370C164.5,-370 129.5,-370 129.5,-370 123.5,-370 117.5,-364 117.5,-358 117.5,-358 117.5,-346 117.5,-346 117.5,-340 123.5,-334 129.5,-334 129.5,-334 164.5,-334 164.5,-334 170.5,-334 176.5,-340 176.5,-346 176.5,-346 176.5,-358 176.5,-358 176.5,-364 170.5,-370 164.5,-370"/>
<text text-anchor="middle" x="147" y="-354.8" font-family="Arial" font-size="9.00" fill="white">Motif</text>
<text text-anchor="middle" x="147" y="-344.8" font-family="Arial" font-size="9.00" fill="white">(10&#45;20 bp)</text>
</g>
<!-- nucleotide&#45;&gt;motif -->
<g id="edge1" class="edge">
<title>nucleotide&#45;&gt;motif</title>
<path fill="none" stroke="black" d="M165.4,-420.91C156.77,-412.03 148,-403 148,-403 148,-403 147.78,-392.04 147.55,-380.37"/>
<polygon fill="black" stroke="black" points="151.04,-380.14 147.34,-370.21 144.04,-380.28 151.04,-380.14"/>
<text text-anchor="middle" x="175.5" y="-391.8" font-family="Times,serif" font-size="14.00">↑ Scale</text>
</g>
<!-- unified -->
<g id="node6" class="node">
<title>unified</title>
<path fill="#555555" stroke="black" stroke-width="1.5" d="M174.5,-36C174.5,-36 107.5,-36 107.5,-36 101.5,-36 95.5,-30 95.5,-24 95.5,-24 95.5,-12 95.5,-12 95.5,-6 101.5,0 107.5,0 107.5,0 174.5,0 174.5,0 180.5,0 186.5,-6 186.5,-12 186.5,-12 186.5,-24 186.5,-24 186.5,-30 180.5,-36 174.5,-36"/>
<text text-anchor="middle" x="141" y="-20.8" font-family="Arial" font-size="9.00" fill="white">Unified</text>
<text text-anchor="middle" x="141" y="-10.8" font-family="Arial" font-size="9.00" fill="white">Foundation Model</text>
</g>
<!-- nucleotide&#45;&gt;unified -->
<g id="edge5" class="edge">
<title>nucleotide&#45;&gt;unified</title>
<path fill="none" stroke="black" stroke-dasharray="5,2" d="M192.25,-420.91C197.58,-412.03 203,-403 203,-403 203,-403 217,-353 217,-353 217,-353 217,-353 217,-90 217,-90 188.91,-63.75 166.88,-43.18"/>
<polygon fill="black" stroke="black" points="169.09,-40.46 159.4,-36.19 164.32,-45.57 169.09,-40.46"/>
</g>
<!-- element -->
<g id="node3" class="node">
<title>element</title>
<path fill="#ff7f0e" stroke="black" stroke-width="1.5" d="M134.5,-283C134.5,-283 83.5,-283 83.5,-283 77.5,-283 71.5,-277 71.5,-271 71.5,-271 71.5,-259 71.5,-259 71.5,-253 77.5,-247 83.5,-247 83.5,-247 134.5,-247 134.5,-247 140.5,-247 146.5,-253 146.5,-259 146.5,-259 146.5,-271 146.5,-271 146.5,-277 140.5,-283 134.5,-283"/>
<text text-anchor="middle" x="109" y="-267.8" font-family="Arial" font-size="9.00" fill="white">Element</text>
<text text-anchor="middle" x="109" y="-257.8" font-family="Arial" font-size="9.00" fill="white">(100&#45;1000 bp)</text>
</g>
<!-- motif&#45;&gt;element -->
<g id="edge2" class="edge">
<title>motif&#45;&gt;element</title>
<path fill="none" stroke="black" d="M128.93,-333.91C119.54,-325.03 110,-316 110,-316 110,-316 109.78,-305.04 109.55,-293.37"/>
<polygon fill="black" stroke="black" points="113.04,-293.14 109.34,-283.21 106.04,-293.28 113.04,-293.14"/>
<text text-anchor="middle" x="137.5" y="-304.8" font-family="Times,serif" font-size="14.00">↑ Scale</text>
</g>
<!-- motif&#45;&gt;unified -->
<g id="edge6" class="edge">
<title>motif&#45;&gt;unified</title>
<path fill="none" stroke="black" stroke-dasharray="5,2" d="M155.79,-333.91C160.36,-325.03 165,-316 165,-316 165,-316 179,-266 179,-266 179,-266 179,-266 179,-90 179,-90 165.8,-65.33 154.96,-45.08"/>
<polygon fill="black" stroke="black" points="158,-43.35 150.2,-36.19 151.83,-46.66 158,-43.35"/>
</g>
<!-- gene -->
<g id="node4" class="node">
<title>gene</title>
<path fill="#9467bd" stroke="black" stroke-width="1.5" d="M88.5,-196C88.5,-196 53.5,-196 53.5,-196 47.5,-196 41.5,-190 41.5,-184 41.5,-184 41.5,-172 41.5,-172 41.5,-166 47.5,-160 53.5,-160 53.5,-160 88.5,-160 88.5,-160 94.5,-160 100.5,-166 100.5,-172 100.5,-172 100.5,-184 100.5,-184 100.5,-190 94.5,-196 88.5,-196"/>
<text text-anchor="middle" x="71" y="-180.8" font-family="Arial" font-size="9.00" fill="white">Gene</text>
<text text-anchor="middle" x="71" y="-170.8" font-family="Arial" font-size="9.00" fill="white">(1&#45;100 kb)</text>
</g>
<!-- element&#45;&gt;gene -->
<g id="edge3" class="edge">
<title>element&#45;&gt;gene</title>
<path fill="none" stroke="black" d="M90.93,-246.91C81.54,-238.03 72,-229 72,-229 72,-229 71.78,-218.04 71.55,-206.37"/>
<polygon fill="black" stroke="black" points="75.04,-206.14 71.34,-196.21 68.04,-206.28 75.04,-206.14"/>
<text text-anchor="middle" x="99.5" y="-217.8" font-family="Times,serif" font-size="14.00">↑ Scale</text>
</g>
<!-- element&#45;&gt;unified -->
<g id="edge7" class="edge">
<title>element&#45;&gt;unified</title>
<path fill="none" stroke="black" stroke-dasharray="5,2" d="M117.79,-246.91C122.36,-238.03 127,-229 127,-229 127,-229 135.39,-103.09 139.18,-46.26"/>
<polygon fill="black" stroke="black" points="142.68,-46.4 139.85,-36.19 135.7,-45.93 142.68,-46.4"/>
</g>
<!-- chromosome -->
<g id="node5" class="node">
<title>chromosome</title>
<path fill="#d62728" stroke="black" stroke-width="1.5" d="M60,-109C60,-109 12,-109 12,-109 6,-109 0,-103 0,-97 0,-97 0,-85 0,-85 0,-79 6,-73 12,-73 12,-73 60,-73 60,-73 66,-73 72,-79 72,-85 72,-85 72,-97 72,-97 72,-103 66,-109 60,-109"/>
<text text-anchor="middle" x="36" y="-93.8" font-family="Arial" font-size="9.00" fill="white">Chromosome</text>
<text text-anchor="middle" x="36" y="-83.8" font-family="Arial" font-size="9.00" fill="white">(Mb&#45;Gb)</text>
</g>
<!-- gene&#45;&gt;chromosome -->
<g id="edge4" class="edge">
<title>gene&#45;&gt;chromosome</title>
<path fill="none" stroke="black" d="M52.93,-159.91C43.54,-151.03 34,-142 34,-142 34,-142 34,-127 34,-127 34,-127 34.18,-123.82 34.44,-119.37"/>
<polygon fill="black" stroke="black" points="37.95,-119.27 35.02,-109.09 30.96,-118.87 37.95,-119.27"/>
<text text-anchor="middle" x="61.5" y="-130.8" font-family="Times,serif" font-size="14.00">↑ Scale</text>
</g>
<!-- gene&#45;&gt;unified -->
<g id="edge8" class="edge">
<title>gene&#45;&gt;unified</title>
<path fill="none" stroke="black" stroke-dasharray="5,2" d="M79.79,-159.91C84.36,-151.03 89,-142 89,-142 89,-142 114.47,-81.76 129.76,-45.59"/>
<polygon fill="black" stroke="black" points="133.1,-46.68 133.77,-36.1 126.65,-43.95 133.1,-46.68"/>
</g>
<!-- chromosome&#45;&gt;unified -->
<g id="edge9" class="edge">
<title>chromosome&#45;&gt;unified</title>
<path fill="none" stroke="black" stroke-dasharray="5,2" d="M61.26,-72.84C74.91,-63.57 89,-54 89,-54 89,-54 97.18,-48.49 107.06,-41.84"/>
<polygon fill="black" stroke="black" points="109.27,-44.58 115.61,-36.09 105.36,-38.77 109.27,-44.58"/>
</g>
</g>
</svg>
