<?xml version="1.0" encoding="UTF-8" standalone="no"?>
<!DOCTYPE svg PUBLIC "-//W3C//DTD SVG 1.1//EN"
 "http://www.w3.org/Graphics/SVG/1.1/DTD/svg11.dtd">
<!-- Generated by graphviz version 2.43.0 (0)
 -->
<!-- Title: lhs Pages: 1 -->
<svg width="205pt" height="576pt"
 viewBox="0.00 0.00 204.66 576.00" xmlns="http://www.w3.org/2000/svg" xmlns:xlink="http://www.w3.org/1999/xlink">
<g id="graph0" class="graph" transform="scale(1.23 1.23) rotate(0) translate(4 466)">
<title>lhs</title>
<polygon fill="white" stroke="transparent" points="-4,4 -4,-466 163,-466 163,4 -4,4"/>
<g id="clust1" class="cluster">
<title>cluster_clinical</title>
<path fill="none" stroke="black" d="M55,-235C55,-235 139,-235 139,-235 145,-235 151,-241 151,-247 151,-247 151,-442 151,-442 151,-448 145,-454 139,-454 139,-454 55,-454 55,-454 49,-454 43,-448 43,-442 43,-442 43,-247 43,-247 43,-241 49,-235 55,-235"/>
<text text-anchor="middle" x="97" y="-438.8" font-family="Times,serif" font-size="14.00">Clinical Care</text>
</g>
<g id="clust2" class="cluster">
<title>cluster_learning</title>
<path fill="none" stroke="black" d="M20,-8C20,-8 134,-8 134,-8 140,-8 146,-14 146,-20 146,-20 146,-215 146,-215 146,-221 140,-227 134,-227 134,-227 20,-227 20,-227 14,-227 8,-221 8,-215 8,-215 8,-20 8,-20 8,-14 14,-8 20,-8"/>
<text text-anchor="middle" x="77" y="-211.8" font-family="Times,serif" font-size="14.00">Learning System</text>
</g>
<!-- patient -->
<g id="node1" class="node">
<title>patient</title>
<path fill="#aec7e8" stroke="black" stroke-width="1.5" d="M113,-423C113,-423 83,-423 83,-423 77,-423 71,-417 71,-411 71,-411 71,-399 71,-399 71,-393 77,-387 83,-387 83,-387 113,-387 113,-387 119,-387 125,-393 125,-399 125,-399 125,-411 125,-411 125,-417 119,-423 113,-423"/>
<text text-anchor="middle" x="98" y="-407.8" font-family="Arial" font-size="9.00">Patient</text>
<text text-anchor="middle" x="98" y="-397.8" font-family="Arial" font-size="9.00">Data</text>
</g>
<!-- decision -->
<g id="node2" class="node">
<title>decision</title>
<path fill="#98df8a" stroke="black" stroke-width="1.5" d="M113,-351C113,-351 83,-351 83,-351 77,-351 71,-345 71,-339 71,-339 71,-327 71,-327 71,-321 77,-315 83,-315 83,-315 113,-315 113,-315 119,-315 125,-321 125,-327 125,-327 125,-339 125,-339 125,-345 119,-351 113,-351"/>
<text text-anchor="middle" x="98" y="-335.8" font-family="Arial" font-size="9.00">Clinical</text>
<text text-anchor="middle" x="98" y="-325.8" font-family="Arial" font-size="9.00">Decision</text>
</g>
<!-- patient&#45;&gt;decision -->
<g id="edge1" class="edge">
<title>patient&#45;&gt;decision</title>
<path fill="none" stroke="black" d="M98,-386.7C98,-378.98 98,-369.71 98,-361.11"/>
<polygon fill="black" stroke="black" points="101.5,-361.1 98,-351.1 94.5,-361.1 101.5,-361.1"/>
</g>
<!-- outcome -->
<g id="node3" class="node">
<title>outcome</title>
<path fill="#ffbb78" stroke="black" stroke-width="1.5" d="M95,-279C95,-279 65,-279 65,-279 59,-279 53,-273 53,-267 53,-267 53,-255 53,-255 53,-249 59,-243 65,-243 65,-243 95,-243 95,-243 101,-243 107,-249 107,-255 107,-255 107,-267 107,-267 107,-273 101,-279 95,-279"/>
<text text-anchor="middle" x="80" y="-258.8" font-family="Arial" font-size="9.00">Outcome</text>
</g>
<!-- decision&#45;&gt;outcome -->
<g id="edge2" class="edge">
<title>decision&#45;&gt;outcome</title>
<path fill="none" stroke="black" d="M93.55,-314.7C91.55,-306.9 89.13,-297.51 86.9,-288.83"/>
<polygon fill="black" stroke="black" points="90.28,-287.92 84.4,-279.1 83.5,-289.66 90.28,-287.92"/>
</g>
<!-- aggregate -->
<g id="node4" class="node">
<title>aggregate</title>
<path fill="#1f77b4" stroke="black" stroke-width="1.5" d="M95.5,-196C95.5,-196 60.5,-196 60.5,-196 54.5,-196 48.5,-190 48.5,-184 48.5,-184 48.5,-172 48.5,-172 48.5,-166 54.5,-160 60.5,-160 60.5,-160 95.5,-160 95.5,-160 101.5,-160 107.5,-166 107.5,-172 107.5,-172 107.5,-184 107.5,-184 107.5,-190 101.5,-196 95.5,-196"/>
<text text-anchor="middle" x="78" y="-180.8" font-family="Arial" font-size="9.00" fill="white">Aggregate</text>
<text text-anchor="middle" x="78" y="-170.8" font-family="Arial" font-size="9.00" fill="white">Data</text>
</g>
<!-- outcome&#45;&gt;aggregate -->
<g id="edge3" class="edge">
<title>outcome&#45;&gt;aggregate</title>
<path fill="none" stroke="black" d="M79.58,-242.82C79.31,-232.19 78.97,-218.31 78.67,-206.2"/>
<polygon fill="black" stroke="black" points="82.17,-206.06 78.42,-196.15 75.17,-206.24 82.17,-206.06"/>
</g>
<!-- fm -->
<g id="node5" class="node">
<title>fm</title>
<path fill="#9467bd" stroke="black" stroke-width="1.5" d="M96.5,-124C96.5,-124 57.5,-124 57.5,-124 51.5,-124 45.5,-118 45.5,-112 45.5,-112 45.5,-100 45.5,-100 45.5,-94 51.5,-88 57.5,-88 57.5,-88 96.5,-88 96.5,-88 102.5,-88 108.5,-94 108.5,-100 108.5,-100 108.5,-112 108.5,-112 108.5,-118 102.5,-124 96.5,-124"/>
<text text-anchor="middle" x="77" y="-108.8" font-family="Arial" font-size="9.00" fill="white">Foundation</text>
<text text-anchor="middle" x="77" y="-98.8" font-family="Arial" font-size="9.00" fill="white">Model</text>
</g>
<!-- aggregate&#45;&gt;fm -->
<g id="edge4" class="edge">
<title>aggregate&#45;&gt;fm</title>
<path fill="none" stroke="black" d="M77.75,-159.7C77.64,-151.98 77.51,-142.71 77.39,-134.11"/>
<polygon fill="black" stroke="black" points="80.89,-134.05 77.24,-124.1 73.89,-134.15 80.89,-134.05"/>
</g>
<!-- update -->
<g id="node6" class="node">
<title>update</title>
<path fill="#2ca02c" stroke="black" stroke-width="1.5" d="M109,-52C109,-52 79,-52 79,-52 73,-52 67,-46 67,-40 67,-40 67,-28 67,-28 67,-22 73,-16 79,-16 79,-16 109,-16 109,-16 115,-16 121,-22 121,-28 121,-28 121,-40 121,-40 121,-46 115,-52 109,-52"/>
<text text-anchor="middle" x="94" y="-36.8" font-family="Arial" font-size="9.00" fill="white">Model</text>
<text text-anchor="middle" x="94" y="-26.8" font-family="Arial" font-size="9.00" fill="white">Update</text>
</g>
<!-- fm&#45;&gt;update -->
<g id="edge5" class="edge">
<title>fm&#45;&gt;update</title>
<path fill="none" stroke="black" d="M81.2,-87.7C83.1,-79.9 85.38,-70.51 87.48,-61.83"/>
<polygon fill="black" stroke="black" points="90.89,-62.65 89.85,-52.1 84.08,-61 90.89,-62.65"/>
</g>
<!-- update&#45;&gt;decision -->
<g id="edge6" class="edge">
<title>update&#45;&gt;decision</title>
<path fill="none" stroke="black" d="M101.73,-52.06C108.74,-67.55 118,-88 118,-88 118,-88 118,-124 118,-124 118,-124 117,-227 117,-227 117,-227 116,-279 116,-279 116,-279 111.59,-291.98 107.14,-305.1"/>
<polygon fill="black" stroke="black" points="103.7,-304.34 103.79,-314.94 110.32,-306.6 103.7,-304.34"/>
</g>
</g>
</svg>
