<?xml version="1.0" encoding="utf-8" ?>
<svg xmlns="http://www.w3.org/2000/svg" xmlns:ev="http://www.w3.org/2001/xml-events" xmlns:xlink="http://www.w3.org/1999/xlink" baseProfile="full" height="800" version="1.1" width="1200">
  <defs>
    <marker id="id14" markerHeight="7" markerWidth="7" orient="auto" refX="6" refY="3">
      <path d="M0,0 L0,6 L6,3 z" fill="#333333"/>
    </marker>
  </defs>
  <rect fill="white" height="800" width="1200" x="0" y="0"/>
  <text fill="#111" font-family="Arial, Helvetica, sans-serif" font-size="28" font-weight="700" x="60" y="50">Figure 3.1: Manhattan Plot Anatomy</text>
  <line stroke="#333" stroke-width="2" x1="140" x2="1000" y1="720" y2="720"/>
  <line stroke="#333" stroke-width="2" x1="140" x2="140" y1="160" y2="720"/>
  <circle cx="518.2713166996257" cy="504.6072300713844" fill="#2ca02c" opacity="0.75" r="4"/>
  <circle cx="500.2717650714682" cy="526.839858112696" fill="#2ca02c" opacity="0.75" r="4"/>
  <circle cx="439.47464672521136" cy="502.19280924919667" fill="#ff7f0e" opacity="0.75" r="4"/>
  <circle cx="328.53989175409225" cy="588.6464384686369" fill="#ff7f0e" opacity="0.75" r="4"/>
  <circle cx="415.7254159609819" cy="505.231703639408" fill="#1f77b4" opacity="0.75" r="4"/>
  <circle cx="370.7944794640633" cy="537.5627041592516" fill="#1f77b4" opacity="0.75" r="4"/>
  <circle cx="608.9358910358144" cy="593.8999684255468" fill="#2ca02c" opacity="0.75" r="4"/>
  <circle cx="299.48510014885403" cy="510.0893436685665" fill="#1f77b4" opacity="0.75" r="4"/>
  <circle cx="442.4275919215043" cy="506.3766922572844" fill="#1f77b4" opacity="0.75" r="4"/>
  <circle cx="351.9970863188438" cy="439.9799293254627" fill="#1f77b4" opacity="0.75" r="4"/>
  <circle cx="498.68260083871684" cy="556.5843918125242" fill="#2ca02c" opacity="0.75" r="4"/>
  <circle cx="405.7767591704549" cy="533.6561249917265" fill="#ff7f0e" opacity="0.75" r="4"/>
  <circle cx="380.5360934960022" cy="517.8244096665146" fill="#ff7f0e" opacity="0.75" r="4"/>
  <circle cx="330.71771968041276" cy="478.8956233908729" fill="#2ca02c" opacity="0.75" r="4"/>
  <circle cx="460.72517562484745" cy="486.9813887762705" fill="#2ca02c" opacity="0.75" r="4"/>
  <circle cx="288.4634922083468" cy="510.7191481910897" fill="#1f77b4" opacity="0.75" r="4"/>
  <circle cx="345.70584823291983" cy="530.1631792795597" fill="#1f77b4" opacity="0.75" r="4"/>
  <circle cx="402.0782679499085" cy="527.2012167444393" fill="#2ca02c" opacity="0.75" r="4"/>
  <circle cx="374.4868190163907" cy="599.9986468949947" fill="#1f77b4" opacity="0.75" r="4"/>
  <circle cx="467.4251234102528" cy="476.27523095320134" fill="#2ca02c" opacity="0.75" r="4"/>
  <circle cx="446.3618464644896" cy="515.5732354042411" fill="#ff7f0e" opacity="0.75" r="4"/>
  <circle cx="374.1094981849054" cy="519.9345449448822" fill="#2ca02c" opacity="0.75" r="4"/>
  <circle cx="279.2972681927535" cy="541.5692389226417" fill="#2ca02c" opacity="0.75" r="4"/>
  <circle cx="514.6254250521207" cy="421.24889729766016" fill="#1f77b4" opacity="0.75" r="4"/>
  <circle cx="417.5171078826764" cy="462.5119702903382" fill="#2ca02c" opacity="0.75" r="4"/>
  <circle cx="382.8914250539238" cy="570.9600903020248" fill="#ff7f0e" opacity="0.75" r="4"/>
  <circle cx="449.43688152727685" cy="539.1474250480209" fill="#1f77b4" opacity="0.75" r="4"/>
  <circle cx="428.9622772770221" cy="494.3121081155857" fill="#2ca02c" opacity="0.75" r="4"/>
  <circle cx="411.3599162054763" cy="519.8577931225971" fill="#1f77b4" opacity="0.75" r="4"/>
  <circle cx="408.45513491601236" cy="534.3488203843317" fill="#2ca02c" opacity="0.75" r="4"/>
  <circle cx="353.8569112939456" cy="548.6320970677323" fill="#1f77b4" opacity="0.75" r="4"/>
  <circle cx="409.8356162370094" cy="464.3154813788474" fill="#1f77b4" opacity="0.75" r="4"/>
  <circle cx="490.1320091058258" cy="548.8016072046968" fill="#2ca02c" opacity="0.75" r="4"/>
  <circle cx="368.7960950107954" cy="533.9279008737103" fill="#2ca02c" opacity="0.75" r="4"/>
  <circle cx="418.7468849071325" cy="521.8443526853678" fill="#1f77b4" opacity="0.75" r="4"/>
  <circle cx="537.2787430642209" cy="589.5128015272194" fill="#ff7f0e" opacity="0.75" r="4"/>
  <circle cx="479.2308338029144" cy="599.9779690622483" fill="#ff7f0e" opacity="0.75" r="4"/>
  <circle cx="379.5876751097445" cy="505.33837918785895" fill="#2ca02c" opacity="0.75" r="4"/>
  <circle cx="439.72842020549655" cy="536.067350022072" fill="#ff7f0e" opacity="0.75" r="4"/>
  <circle cx="556.5838316411157" cy="582.9087856197989" fill="#1f77b4" opacity="0.75" r="4"/>
  <circle cx="493.80596903000355" cy="498.84014837573136" fill="#2ca02c" opacity="0.75" r="4"/>
  <circle cx="309.55291834343615" cy="435.1226211594336" fill="#1f77b4" opacity="0.75" r="4"/>
  <circle cx="399.145862636124" cy="538.1974174014231" fill="#ff7f0e" opacity="0.75" r="4"/>
  <circle cx="325.54592803506785" cy="558.7569611391563" fill="#ff7f0e" opacity="0.75" r="4"/>
  <circle cx="434.963971076658" cy="500.9561290397289" fill="#2ca02c" opacity="0.75" r="4"/>
  <circle cx="430.1496863287299" cy="447.18279715614335" fill="#2ca02c" opacity="0.75" r="4"/>
  <circle cx="414.2468219316673" cy="562.0558565087003" fill="#1f77b4" opacity="0.75" r="4"/>
  <circle cx="372.3430425968994" cy="620.7174122936591" fill="#ff7f0e" opacity="0.75" r="4"/>
  <circle cx="331.6681268028108" cy="544.9706090527848" fill="#ff7f0e" opacity="0.75" r="4"/>
  <circle cx="370.11852826613324" cy="506.843262382936" fill="#1f77b4" opacity="0.75" r="4"/>
  <circle cx="491.90252524162236" cy="499.9739687947233" fill="#ff7f0e" opacity="0.75" r="4"/>
  <circle cx="318.0339848480434" cy="522.837114322007" fill="#2ca02c" opacity="0.75" r="4"/>
  <circle cx="407.1648886027512" cy="463.7442941853162" fill="#2ca02c" opacity="0.75" r="4"/>
  <circle cx="317.72024071469707" cy="551.5702830877062" fill="#ff7f0e" opacity="0.75" r="4"/>
  <circle cx="400.5323338950086" cy="443.8205663860305" fill="#1f77b4" opacity="0.75" r="4"/>
  <circle cx="639.8211551704117" cy="413.4559692070696" fill="#1f77b4" opacity="0.75" r="4"/>
  <circle cx="790.5292764735618" cy="442.5366691992451" fill="#1f77b4" opacity="0.75" r="4"/>
  <circle cx="677.7972639748922" cy="451.74024117903514" fill="#ff7f0e" opacity="0.75" r="4"/>
  <circle cx="751.376387740116" cy="460.7932158021342" fill="#1f77b4" opacity="0.75" r="4"/>
  <circle cx="749.5465296278892" cy="427.42559196983314" fill="#2ca02c" opacity="0.75" r="4"/>
  <circle cx="514.2142045958775" cy="342.97002184361236" fill="#1f77b4" opacity="0.75" r="4"/>
  <circle cx="804.0416184792933" cy="466.8424052200469" fill="#2ca02c" opacity="0.75" r="4"/>
  <circle cx="633.1288597286297" cy="417.2201443090755" fill="#1f77b4" opacity="0.75" r="4"/>
  <circle cx="715.0812826220684" cy="392.7208786366899" fill="#2ca02c" opacity="0.75" r="4"/>
  <circle cx="767.2393339008628" cy="450.60918755845836" fill="#ff7f0e" opacity="0.75" r="4"/>
  <circle cx="467.63510385050733" cy="409.7036300505041" fill="#ff7f0e" opacity="0.75" r="4"/>
  <circle cx="673.8446484585712" cy="428.45634033791697" fill="#ff7f0e" opacity="0.75" r="4"/>
  <circle cx="689.2247396835643" cy="408.41301913158134" fill="#2ca02c" opacity="0.75" r="4"/>
  <circle cx="707.7321759487702" cy="459.8909218644057" fill="#2ca02c" opacity="0.75" r="4"/>
  <circle cx="593.3308524601777" cy="340.78090458717935" fill="#ff7f0e" opacity="0.75" r="4"/>
  <circle cx="691.2040726439725" cy="444.331992071939" fill="#2ca02c" opacity="0.75" r="4"/>
  <circle cx="515.0379973491674" cy="473.6469168334742" fill="#ff7f0e" opacity="0.75" r="4"/>
  <circle cx="604.7005404040456" cy="438.82291244910675" fill="#2ca02c" opacity="0.75" r="4"/>
  <circle cx="633.2013004680673" cy="383.6700472130343" fill="#1f77b4" opacity="0.75" r="4"/>
  <circle cx="636.7992863096049" cy="371.6039797204153" fill="#1f77b4" opacity="0.75" r="4"/>
  <circle cx="651.8686011180002" cy="430.8942218442994" fill="#1f77b4" opacity="0.75" r="4"/>
  <circle cx="762.9800178942058" cy="320.1198336036618" fill="#1f77b4" opacity="0.75" r="4"/>
  <circle cx="631.587305077695" cy="424.3681514033897" fill="#1f77b4" opacity="0.75" r="4"/>
  <circle cx="622.7928529297175" cy="392.928705689498" fill="#ff7f0e" opacity="0.75" r="4"/>
  <circle cx="531.045733640216" cy="428.5209643815517" fill="#ff7f0e" opacity="0.75" r="4"/>
  <circle cx="606.6601475103166" cy="378.7416885644373" fill="#2ca02c" opacity="0.75" r="4"/>
  <circle cx="581.7004090076473" cy="422.3419543321531" fill="#1f77b4" opacity="0.75" r="4"/>
  <circle cx="654.2008542750312" cy="345.50210248418097" fill="#2ca02c" opacity="0.75" r="4"/>
  <circle cx="622.7212551632454" cy="399.3078073198304" fill="#ff7f0e" opacity="0.75" r="4"/>
  <circle cx="660.742905569477" cy="433.79092575229294" fill="#1f77b4" opacity="0.75" r="4"/>
  <circle cx="636.6046466747468" cy="312.8669123026338" fill="#1f77b4" opacity="0.75" r="4"/>
  <circle cx="679.3481157247652" cy="318.688083787652" fill="#1f77b4" opacity="0.75" r="4"/>
  <circle cx="678.7572519845138" cy="338.6112831756896" fill="#ff7f0e" opacity="0.75" r="4"/>
  <circle cx="595.1855319768133" cy="420.4216211114518" fill="#ff7f0e" opacity="0.75" r="4"/>
  <circle cx="780.3023772188475" cy="421.97638932202983" fill="#ff7f0e" opacity="0.75" r="4"/>
  <circle cx="700.0636885846907" cy="397.53920872112303" fill="#1f77b4" opacity="0.75" r="4"/>
  <circle cx="636.8798899997473" cy="397.7288036279964" fill="#1f77b4" opacity="0.75" r="4"/>
  <circle cx="535.7302086454036" cy="476.9665128030365" fill="#2ca02c" opacity="0.75" r="4"/>
  <circle cx="645.790882693643" cy="483.66787719086153" fill="#ff7f0e" opacity="0.75" r="4"/>
  <circle cx="665.7418759776714" cy="437.3837881679727" fill="#1f77b4" opacity="0.75" r="4"/>
  <circle cx="599.691568159348" cy="400.8540830126316" fill="#2ca02c" opacity="0.75" r="4"/>
  <circle cx="633.7356613377954" cy="397.29402045970323" fill="#ff7f0e" opacity="0.75" r="4"/>
  <circle cx="664.0642626207842" cy="443.5001512440559" fill="#ff7f0e" opacity="0.75" r="4"/>
  <circle cx="714.2042165344013" cy="378.9612267657292" fill="#1f77b4" opacity="0.75" r="4"/>
  <circle cx="674.9700192429962" cy="305.43737010402083" fill="#ff7f0e" opacity="0.75" r="4"/>
  <circle cx="649.859201782388" cy="482.65904615526813" fill="#2ca02c" opacity="0.75" r="4"/>
  <circle cx="739.8976933162386" cy="381.95613825236785" fill="#2ca02c" opacity="0.75" r="4"/>
  <circle cx="705.7824424346333" cy="419.98109779428506" fill="#2ca02c" opacity="0.75" r="4"/>
  <circle cx="715.7145061796523" cy="386.159961291482" fill="#1f77b4" opacity="0.75" r="4"/>
  <circle cx="486.90307703333565" cy="400.57709079586584" fill="#ff7f0e" opacity="0.75" r="4"/>
  <circle cx="550.3423407712419" cy="417.6431831405287" fill="#1f77b4" opacity="0.75" r="4"/>
  <circle cx="633.7017066493065" cy="329.1658402398567" fill="#1f77b4" opacity="0.75" r="4"/>
  <circle cx="672.6329954006399" cy="387.09769857063435" fill="#1f77b4" opacity="0.75" r="4"/>
  <circle cx="727.957009649954" cy="374.30941532614213" fill="#1f77b4" opacity="0.75" r="4"/>
  <circle cx="651.1326619079716" cy="462.6907456281671" fill="#1f77b4" opacity="0.75" r="4"/>
  <circle cx="501.4111383784088" cy="625.4388787856627" fill="#1f77b4" opacity="0.75" r="4"/>
  <circle cx="393.93742067807204" cy="547.9178189770521" fill="#2ca02c" opacity="0.75" r="4"/>
  <circle cx="453.71469100586177" cy="611.0683824037764" fill="#1f77b4" opacity="0.75" r="4"/>
  <circle cx="472.60306101602487" cy="596.7314699603505" fill="#1f77b4" opacity="0.75" r="4"/>
  <circle cx="504.6905516484556" cy="584.3798805415847" fill="#2ca02c" opacity="0.75" r="4"/>
  <circle cx="616.5389667356185" cy="562.4329368470499" fill="#1f77b4" opacity="0.75" r="4"/>
  <circle cx="448.8013954679717" cy="575.6340509357276" fill="#ff7f0e" opacity="0.75" r="4"/>
  <circle cx="570.838137429994" cy="594.2596269826726" fill="#1f77b4" opacity="0.75" r="4"/>
  <circle cx="514.5813115512296" cy="545.4351853641219" fill="#1f77b4" opacity="0.75" r="4"/>
  <circle cx="547.5740646237324" cy="684.9925554282235" fill="#2ca02c" opacity="0.75" r="4"/>
  <circle cx="388.21042324480584" cy="593.1196055775774" fill="#ff7f0e" opacity="0.75" r="4"/>
  <circle cx="544.4234560247328" cy="593.2160282747377" fill="#1f77b4" opacity="0.75" r="4"/>
  <circle cx="605.661851035891" cy="642.1759039738768" fill="#2ca02c" opacity="0.75" r="4"/>
  <circle cx="519.6690838077413" cy="550.9112253552908" fill="#2ca02c" opacity="0.75" r="4"/>
  <circle cx="527.6042699455884" cy="586.7614612688847" fill="#2ca02c" opacity="0.75" r="4"/>
  <circle cx="604.1834806979257" cy="526.0278747284697" fill="#ff7f0e" opacity="0.75" r="4"/>
  <circle cx="501.80446099028984" cy="543.5332460602781" fill="#2ca02c" opacity="0.75" r="4"/>
  <circle cx="428.28633146197575" cy="528.0221614431059" fill="#1f77b4" opacity="0.75" r="4"/>
  <circle cx="570.7867018168398" cy="605.8700067193358" fill="#ff7f0e" opacity="0.75" r="4"/>
  <circle cx="558.5059475307773" cy="616.6464087626339" fill="#1f77b4" opacity="0.75" r="4"/>
  <circle cx="612.9875943615937" cy="632.4871628516295" fill="#1f77b4" opacity="0.75" r="4"/>
  <circle cx="628.9282104033656" cy="619.7583734313789" fill="#2ca02c" opacity="0.75" r="4"/>
  <circle cx="572.5587403335893" cy="514.2068992964082" fill="#ff7f0e" opacity="0.75" r="4"/>
  <circle cx="612.9500864568556" cy="566.5349002234946" fill="#ff7f0e" opacity="0.75" r="4"/>
  <circle cx="490.67588032096313" cy="556.8117316342111" fill="#ff7f0e" opacity="0.75" r="4"/>
  <circle cx="540.2226914877144" cy="525.2675206715942" fill="#ff7f0e" opacity="0.75" r="4"/>
  <circle cx="480.0332244848796" cy="530.2990385993481" fill="#ff7f0e" opacity="0.75" r="4"/>
  <circle cx="530.8915157610595" cy="594.5363243687056" fill="#ff7f0e" opacity="0.75" r="4"/>
  <circle cx="456.77350766817756" cy="630.3255560215923" fill="#ff7f0e" opacity="0.75" r="4"/>
  <circle cx="705.9830904573546" cy="635.2232197811961" fill="#1f77b4" opacity="0.75" r="4"/>
  <circle cx="495.162119255895" cy="586.122559883278" fill="#ff7f0e" opacity="0.75" r="4"/>
  <circle cx="595.4191364362467" cy="606.8153155584378" fill="#ff7f0e" opacity="0.75" r="4"/>
  <circle cx="510.51161875953943" cy="610.076040764384" fill="#2ca02c" opacity="0.75" r="4"/>
  <circle cx="491.96524805751244" cy="598.1217844629665" fill="#ff7f0e" opacity="0.75" r="4"/>
  <circle cx="587.4297433159741" cy="616.4171615293989" fill="#2ca02c" opacity="0.75" r="4"/>
  <circle cx="637.7050699378227" cy="564.7006481688775" fill="#ff7f0e" opacity="0.75" r="4"/>
  <circle cx="513.9051255932294" cy="601.9383273145577" fill="#1f77b4" opacity="0.75" r="4"/>
  <circle cx="414.0874909582797" cy="616.2109313698422" fill="#ff7f0e" opacity="0.75" r="4"/>
  <circle cx="506.7347661095376" cy="610.4633302625386" fill="#2ca02c" opacity="0.75" r="4"/>
  <circle cx="508.9491720808409" cy="609.3854849980146" fill="#1f77b4" opacity="0.75" r="4"/>
  <circle cx="417.6245916150165" cy="583.971216760953" fill="#ff7f0e" opacity="0.75" r="4"/>
  <circle cx="522.0487352028049" cy="653.343380471162" fill="#2ca02c" opacity="0.75" r="4"/>
  <circle cx="544.4581121231531" cy="589.8448714221182" fill="#1f77b4" opacity="0.75" r="4"/>
  <circle cx="552.2777482094826" cy="506.4106885973791" fill="#2ca02c" opacity="0.75" r="4"/>
  <circle cx="520.2969280585946" cy="609.9911520578448" fill="#2ca02c" opacity="0.75" r="4"/>
  <circle cx="531.6873711369653" cy="569.4175602708467" fill="#1f77b4" opacity="0.75" r="4"/>
  <circle cx="506.3260600367096" cy="544.2120888621861" fill="#2ca02c" opacity="0.75" r="4"/>
  <circle cx="483.42722522404205" cy="589.518033068565" fill="#1f77b4" opacity="0.75" r="4"/>
  <circle cx="461.49046891966225" cy="595.5236352849361" fill="#1f77b4" opacity="0.75" r="4"/>
  <circle cx="464.53560415016807" cy="605.5308813659562" fill="#1f77b4" opacity="0.75" r="4"/>
  <circle cx="625.160374924868" cy="579.4614714865996" fill="#ff7f0e" opacity="0.75" r="4"/>
  <circle cx="538.6708385585529" cy="561.8473776464648" fill="#ff7f0e" opacity="0.75" r="4"/>
  <circle cx="465.84840244429296" cy="544.1096447693205" fill="#1f77b4" opacity="0.75" r="4"/>
  <circle cx="558.504596633104" cy="562.3690760070274" fill="#1f77b4" opacity="0.75" r="4"/>
  <circle cx="480.43113189606834" cy="567.3147685991323" fill="#ff7f0e" opacity="0.75" r="4"/>
  <circle cx="914.0" cy="244.0" fill="#d62728" opacity="0.9" r="7"/>
  <text fill="#333" font-family="Arial, Helvetica, sans-serif" font-size="16" text-anchor="middle" x="570.0" y="765">Dimension 1</text>
  <text fill="#333" font-family="Arial, Helvetica, sans-serif" font-size="16" text-anchor="middle" transform="rotate(-90,85,440.0)" x="85" y="440.0">Dimension 2</text>
  <text fill="#999" font-family="Arial, Helvetica, sans-serif" font-size="12" text-anchor="end" x="1140" y="776">Auto-generated SVG</text>
</svg>
