<?xml version="1.0" encoding="utf-8" standalone="no"?>
<!DOCTYPE svg PUBLIC "-//W3C//DTD SVG 1.1//EN"
  "http://www.w3.org/Graphics/SVG/1.1/DTD/svg11.dtd">
<svg xmlns:xlink="http://www.w3.org/1999/xlink" width="426.14233pt" height="280.518281pt" viewBox="0 0 426.14233 280.518281" xmlns="http://www.w3.org/2000/svg" version="1.1">
 <metadata>
  <rdf:RDF xmlns:dc="http://purl.org/dc/elements/1.1/" xmlns:cc="http://creativecommons.org/ns#" xmlns:rdf="http://www.w3.org/1999/02/22-rdf-syntax-ns#">
   <cc:Work>
    <dc:type rdf:resource="http://purl.org/dc/dcmitype/StillImage"/>
    <dc:date>2026-01-08T05:33:30.496819</dc:date>
    <dc:format>image/svg+xml</dc:format>
    <dc:creator>
     <cc:Agent>
      <dc:title>Matplotlib v3.10.7, https://matplotlib.org/</dc:title>
     </cc:Agent>
    </dc:creator>
   </cc:Work>
  </rdf:RDF>
 </metadata>
 <defs>
  <style type="text/css">*{stroke-linejoin: round; stroke-linecap: butt}</style>
 </defs>
 <g id="figure_1">
  <g id="patch_1">
   <path d="M 0 280.518281 
L 426.14233 280.518281 
L 426.14233 0 
L 0 0 
z
" style="fill: #ffffff"/>
  </g>
  <g id="axes_1">
   <g id="patch_2">
    <path d="M 48.48457 58.177918 
L 80.01289 58.177918 
Q 83.95393 58.177918 83.95393 55.88919 
L 83.95393 33.001918 
Q 83.95393 30.71319 80.01289 30.71319 
L 48.48457 30.71319 
Q 44.54353 30.71319 44.54353 33.001918 
L 44.54353 55.88919 
Q 44.54353 58.177918 48.48457 58.177918 
z
" clip-path="url(#pf7d468fddf)" style="fill: #1f77b4; stroke: #ffffff; stroke-linejoin: miter"/>
   </g>
   <g id="patch_3">
    <path d="M 83.516037 58.177918 
L 115.044357 58.177918 
Q 118.985397 58.177918 118.985397 55.88919 
L 118.985397 33.001918 
Q 118.985397 30.71319 115.044357 30.71319 
L 83.516037 30.71319 
Q 79.574997 30.71319 79.574997 33.001918 
L 79.574997 55.88919 
Q 79.574997 58.177918 83.516037 58.177918 
z
" clip-path="url(#pf7d468fddf)" style="fill: #ff7f0e; stroke: #ffffff; stroke-linejoin: miter"/>
   </g>
   <g id="patch_4">
    <path d="M 118.547503 58.177918 
L 150.075823 58.177918 
Q 154.016863 58.177918 154.016863 55.88919 
L 154.016863 33.001918 
Q 154.016863 30.71319 150.075823 30.71319 
L 118.547503 30.71319 
Q 114.606463 30.71319 114.606463 33.001918 
L 114.606463 55.88919 
Q 114.606463 58.177918 118.547503 58.177918 
z
" clip-path="url(#pf7d468fddf)" style="fill: #ff7f0e; stroke: #ffffff; stroke-linejoin: miter"/>
   </g>
   <g id="patch_5">
    <path d="M 153.57897 58.177918 
L 185.10729 58.177918 
Q 189.04833 58.177918 189.04833 55.88919 
L 189.04833 33.001918 
Q 189.04833 30.71319 185.10729 30.71319 
L 153.57897 30.71319 
Q 149.63793 30.71319 149.63793 33.001918 
L 149.63793 55.88919 
Q 149.63793 58.177918 153.57897 58.177918 
z
" clip-path="url(#pf7d468fddf)" style="fill: #ff7f0e; stroke: #ffffff; stroke-linejoin: miter"/>
   </g>
   <g id="patch_6">
    <path d="M 188.610437 58.177918 
L 220.138757 58.177918 
Q 224.079797 58.177918 224.079797 55.88919 
L 224.079797 33.001918 
Q 224.079797 30.71319 220.138757 30.71319 
L 188.610437 30.71319 
Q 184.669397 30.71319 184.669397 33.001918 
L 184.669397 55.88919 
Q 184.669397 58.177918 188.610437 58.177918 
z
" clip-path="url(#pf7d468fddf)" style="fill: #ff7f0e; stroke: #ffffff; stroke-linejoin: miter"/>
   </g>
   <g id="patch_7">
    <path d="M 223.641903 58.177918 
L 255.170223 58.177918 
Q 259.111263 58.177918 259.111263 55.88919 
L 259.111263 33.001918 
Q 259.111263 30.71319 255.170223 30.71319 
L 223.641903 30.71319 
Q 219.700863 30.71319 219.700863 33.001918 
L 219.700863 55.88919 
Q 219.700863 58.177918 223.641903 58.177918 
z
" clip-path="url(#pf7d468fddf)" style="fill: #ff7f0e; stroke: #ffffff; stroke-linejoin: miter"/>
   </g>
   <g id="patch_8">
    <path d="M 258.67337 58.177918 
L 290.20169 58.177918 
Q 294.14273 58.177918 294.14273 55.88919 
L 294.14273 33.001918 
Q 294.14273 30.71319 290.20169 30.71319 
L 258.67337 30.71319 
Q 254.73233 30.71319 254.73233 33.001918 
L 254.73233 55.88919 
Q 254.73233 58.177918 258.67337 58.177918 
z
" clip-path="url(#pf7d468fddf)" style="fill: #ff7f0e; stroke: #ffffff; stroke-linejoin: miter"/>
   </g>
   <g id="patch_9">
    <path d="M 293.704837 58.177918 
L 325.233157 58.177918 
Q 329.174197 58.177918 329.174197 55.88919 
L 329.174197 33.001918 
Q 329.174197 30.71319 325.233157 30.71319 
L 293.704837 30.71319 
Q 289.763797 30.71319 289.763797 33.001918 
L 289.763797 55.88919 
Q 289.763797 58.177918 293.704837 58.177918 
z
" clip-path="url(#pf7d468fddf)" style="fill: #1f77b4; stroke: #ffffff; stroke-linejoin: miter"/>
   </g>
   <g id="patch_10">
    <path d="M 328.736303 58.177918 
L 360.264623 58.177918 
Q 364.205663 58.177918 364.205663 55.88919 
L 364.205663 33.001918 
Q 364.205663 30.71319 360.264623 30.71319 
L 328.736303 30.71319 
Q 324.795263 30.71319 324.795263 33.001918 
L 324.795263 55.88919 
Q 324.795263 58.177918 328.736303 58.177918 
z
" clip-path="url(#pf7d468fddf)" style="fill: #1f77b4; stroke: #ffffff; stroke-linejoin: miter"/>
   </g>
   <g id="patch_11">
    <path d="M 363.76777 58.177918 
L 395.29609 58.177918 
Q 399.23713 58.177918 399.23713 55.88919 
L 399.23713 33.001918 
Q 399.23713 30.71319 395.29609 30.71319 
L 363.76777 30.71319 
Q 359.82673 30.71319 359.82673 33.001918 
L 359.82673 55.88919 
Q 359.82673 58.177918 363.76777 58.177918 
z
" clip-path="url(#pf7d468fddf)" style="fill: #1f77b4; stroke: #ffffff; stroke-linejoin: miter"/>
   </g>
   <g id="patch_12">
    <path d="M 48.48457 85.642645 
L 80.01289 85.642645 
Q 83.95393 85.642645 83.95393 83.353918 
L 83.95393 60.466645 
Q 83.95393 58.177918 80.01289 58.177918 
L 48.48457 58.177918 
Q 44.54353 58.177918 44.54353 60.466645 
L 44.54353 83.353918 
Q 44.54353 85.642645 48.48457 85.642645 
z
" clip-path="url(#pf7d468fddf)" style="fill: #ff7f0e; stroke: #ffffff; stroke-linejoin: miter"/>
   </g>
   <g id="patch_13">
    <path d="M 83.516037 85.642645 
L 115.044357 85.642645 
Q 118.985397 85.642645 118.985397 83.353918 
L 118.985397 60.466645 
Q 118.985397 58.177918 115.044357 58.177918 
L 83.516037 58.177918 
Q 79.574997 58.177918 79.574997 60.466645 
L 79.574997 83.353918 
Q 79.574997 85.642645 83.516037 85.642645 
z
" clip-path="url(#pf7d468fddf)" style="fill: #1f77b4; stroke: #ffffff; stroke-linejoin: miter"/>
   </g>
   <g id="patch_14">
    <path d="M 118.547503 85.642645 
L 150.075823 85.642645 
Q 154.016863 85.642645 154.016863 83.353918 
L 154.016863 60.466645 
Q 154.016863 58.177918 150.075823 58.177918 
L 118.547503 58.177918 
Q 114.606463 58.177918 114.606463 60.466645 
L 114.606463 83.353918 
Q 114.606463 85.642645 118.547503 85.642645 
z
" clip-path="url(#pf7d468fddf)" style="fill: #ff7f0e; stroke: #ffffff; stroke-linejoin: miter"/>
   </g>
   <g id="patch_15">
    <path d="M 153.57897 85.642645 
L 185.10729 85.642645 
Q 189.04833 85.642645 189.04833 83.353918 
L 189.04833 60.466645 
Q 189.04833 58.177918 185.10729 58.177918 
L 153.57897 58.177918 
Q 149.63793 58.177918 149.63793 60.466645 
L 149.63793 83.353918 
Q 149.63793 85.642645 153.57897 85.642645 
z
" clip-path="url(#pf7d468fddf)" style="fill: #ff7f0e; stroke: #ffffff; stroke-linejoin: miter"/>
   </g>
   <g id="patch_16">
    <path d="M 188.610437 85.642645 
L 220.138757 85.642645 
Q 224.079797 85.642645 224.079797 83.353918 
L 224.079797 60.466645 
Q 224.079797 58.177918 220.138757 58.177918 
L 188.610437 58.177918 
Q 184.669397 58.177918 184.669397 60.466645 
L 184.669397 83.353918 
Q 184.669397 85.642645 188.610437 85.642645 
z
" clip-path="url(#pf7d468fddf)" style="fill: #ff7f0e; stroke: #ffffff; stroke-linejoin: miter"/>
   </g>
   <g id="patch_17">
    <path d="M 223.641903 85.642645 
L 255.170223 85.642645 
Q 259.111263 85.642645 259.111263 83.353918 
L 259.111263 60.466645 
Q 259.111263 58.177918 255.170223 58.177918 
L 223.641903 58.177918 
Q 219.700863 58.177918 219.700863 60.466645 
L 219.700863 83.353918 
Q 219.700863 85.642645 223.641903 85.642645 
z
" clip-path="url(#pf7d468fddf)" style="fill: #ff7f0e; stroke: #ffffff; stroke-linejoin: miter"/>
   </g>
   <g id="patch_18">
    <path d="M 258.67337 85.642645 
L 290.20169 85.642645 
Q 294.14273 85.642645 294.14273 83.353918 
L 294.14273 60.466645 
Q 294.14273 58.177918 290.20169 58.177918 
L 258.67337 58.177918 
Q 254.73233 58.177918 254.73233 60.466645 
L 254.73233 83.353918 
Q 254.73233 85.642645 258.67337 85.642645 
z
" clip-path="url(#pf7d468fddf)" style="fill: #ff7f0e; stroke: #ffffff; stroke-linejoin: miter"/>
   </g>
   <g id="patch_19">
    <path d="M 293.704837 85.642645 
L 325.233157 85.642645 
Q 329.174197 85.642645 329.174197 83.353918 
L 329.174197 60.466645 
Q 329.174197 58.177918 325.233157 58.177918 
L 293.704837 58.177918 
Q 289.763797 58.177918 289.763797 60.466645 
L 289.763797 83.353918 
Q 289.763797 85.642645 293.704837 85.642645 
z
" clip-path="url(#pf7d468fddf)" style="fill: #1f77b4; stroke: #ffffff; stroke-linejoin: miter"/>
   </g>
   <g id="patch_20">
    <path d="M 328.736303 85.642645 
L 360.264623 85.642645 
Q 364.205663 85.642645 364.205663 83.353918 
L 364.205663 60.466645 
Q 364.205663 58.177918 360.264623 58.177918 
L 328.736303 58.177918 
Q 324.795263 58.177918 324.795263 60.466645 
L 324.795263 83.353918 
Q 324.795263 85.642645 328.736303 85.642645 
z
" clip-path="url(#pf7d468fddf)" style="fill: #1f77b4; stroke: #ffffff; stroke-linejoin: miter"/>
   </g>
   <g id="patch_21">
    <path d="M 363.76777 85.642645 
L 395.29609 85.642645 
Q 399.23713 85.642645 399.23713 83.353918 
L 399.23713 60.466645 
Q 399.23713 58.177918 395.29609 58.177918 
L 363.76777 58.177918 
Q 359.82673 58.177918 359.82673 60.466645 
L 359.82673 83.353918 
Q 359.82673 85.642645 363.76777 85.642645 
z
" clip-path="url(#pf7d468fddf)" style="fill: #ff7f0e; stroke: #ffffff; stroke-linejoin: miter"/>
   </g>
   <g id="patch_22">
    <path d="M 48.48457 113.107372 
L 80.01289 113.107372 
Q 83.95393 113.107372 83.95393 110.818645 
L 83.95393 87.931372 
Q 83.95393 85.642645 80.01289 85.642645 
L 48.48457 85.642645 
Q 44.54353 85.642645 44.54353 87.931372 
L 44.54353 110.818645 
Q 44.54353 113.107372 48.48457 113.107372 
z
" clip-path="url(#pf7d468fddf)" style="fill: #1f77b4; stroke: #ffffff; stroke-linejoin: miter"/>
   </g>
   <g id="patch_23">
    <path d="M 83.516037 113.107372 
L 115.044357 113.107372 
Q 118.985397 113.107372 118.985397 110.818645 
L 118.985397 87.931372 
Q 118.985397 85.642645 115.044357 85.642645 
L 83.516037 85.642645 
Q 79.574997 85.642645 79.574997 87.931372 
L 79.574997 110.818645 
Q 79.574997 113.107372 83.516037 113.107372 
z
" clip-path="url(#pf7d468fddf)" style="fill: #1f77b4; stroke: #ffffff; stroke-linejoin: miter"/>
   </g>
   <g id="patch_24">
    <path d="M 118.547503 113.107372 
L 150.075823 113.107372 
Q 154.016863 113.107372 154.016863 110.818645 
L 154.016863 87.931372 
Q 154.016863 85.642645 150.075823 85.642645 
L 118.547503 85.642645 
Q 114.606463 85.642645 114.606463 87.931372 
L 114.606463 110.818645 
Q 114.606463 113.107372 118.547503 113.107372 
z
" clip-path="url(#pf7d468fddf)" style="fill: #ff7f0e; stroke: #ffffff; stroke-linejoin: miter"/>
   </g>
   <g id="patch_25">
    <path d="M 153.57897 113.107372 
L 185.10729 113.107372 
Q 189.04833 113.107372 189.04833 110.818645 
L 189.04833 87.931372 
Q 189.04833 85.642645 185.10729 85.642645 
L 153.57897 85.642645 
Q 149.63793 85.642645 149.63793 87.931372 
L 149.63793 110.818645 
Q 149.63793 113.107372 153.57897 113.107372 
z
" clip-path="url(#pf7d468fddf)" style="fill: #ff7f0e; stroke: #ffffff; stroke-linejoin: miter"/>
   </g>
   <g id="patch_26">
    <path d="M 188.610437 113.107372 
L 220.138757 113.107372 
Q 224.079797 113.107372 224.079797 110.818645 
L 224.079797 87.931372 
Q 224.079797 85.642645 220.138757 85.642645 
L 188.610437 85.642645 
Q 184.669397 85.642645 184.669397 87.931372 
L 184.669397 110.818645 
Q 184.669397 113.107372 188.610437 113.107372 
z
" clip-path="url(#pf7d468fddf)" style="fill: #ff7f0e; stroke: #ffffff; stroke-linejoin: miter"/>
   </g>
   <g id="patch_27">
    <path d="M 223.641903 113.107372 
L 255.170223 113.107372 
Q 259.111263 113.107372 259.111263 110.818645 
L 259.111263 87.931372 
Q 259.111263 85.642645 255.170223 85.642645 
L 223.641903 85.642645 
Q 219.700863 85.642645 219.700863 87.931372 
L 219.700863 110.818645 
Q 219.700863 113.107372 223.641903 113.107372 
z
" clip-path="url(#pf7d468fddf)" style="fill: #ff7f0e; stroke: #ffffff; stroke-linejoin: miter"/>
   </g>
   <g id="patch_28">
    <path d="M 258.67337 113.107372 
L 290.20169 113.107372 
Q 294.14273 113.107372 294.14273 110.818645 
L 294.14273 87.931372 
Q 294.14273 85.642645 290.20169 85.642645 
L 258.67337 85.642645 
Q 254.73233 85.642645 254.73233 87.931372 
L 254.73233 110.818645 
Q 254.73233 113.107372 258.67337 113.107372 
z
" clip-path="url(#pf7d468fddf)" style="fill: #ff7f0e; stroke: #ffffff; stroke-linejoin: miter"/>
   </g>
   <g id="patch_29">
    <path d="M 293.704837 113.107372 
L 325.233157 113.107372 
Q 329.174197 113.107372 329.174197 110.818645 
L 329.174197 87.931372 
Q 329.174197 85.642645 325.233157 85.642645 
L 293.704837 85.642645 
Q 289.763797 85.642645 289.763797 87.931372 
L 289.763797 110.818645 
Q 289.763797 113.107372 293.704837 113.107372 
z
" clip-path="url(#pf7d468fddf)" style="fill: #1f77b4; stroke: #ffffff; stroke-linejoin: miter"/>
   </g>
   <g id="patch_30">
    <path d="M 328.736303 113.107372 
L 360.264623 113.107372 
Q 364.205663 113.107372 364.205663 110.818645 
L 364.205663 87.931372 
Q 364.205663 85.642645 360.264623 85.642645 
L 328.736303 85.642645 
Q 324.795263 85.642645 324.795263 87.931372 
L 324.795263 110.818645 
Q 324.795263 113.107372 328.736303 113.107372 
z
" clip-path="url(#pf7d468fddf)" style="fill: #1f77b4; stroke: #ffffff; stroke-linejoin: miter"/>
   </g>
   <g id="patch_31">
    <path d="M 363.76777 113.107372 
L 395.29609 113.107372 
Q 399.23713 113.107372 399.23713 110.818645 
L 399.23713 87.931372 
Q 399.23713 85.642645 395.29609 85.642645 
L 363.76777 85.642645 
Q 359.82673 85.642645 359.82673 87.931372 
L 359.82673 110.818645 
Q 359.82673 113.107372 363.76777 113.107372 
z
" clip-path="url(#pf7d468fddf)" style="fill: #ff7f0e; stroke: #ffffff; stroke-linejoin: miter"/>
   </g>
   <g id="patch_32">
    <path d="M 48.48457 140.572099 
L 80.01289 140.572099 
Q 83.95393 140.572099 83.95393 138.283372 
L 83.95393 115.396099 
Q 83.95393 113.107372 80.01289 113.107372 
L 48.48457 113.107372 
Q 44.54353 113.107372 44.54353 115.396099 
L 44.54353 138.283372 
Q 44.54353 140.572099 48.48457 140.572099 
z
" clip-path="url(#pf7d468fddf)" style="fill: #1f77b4; stroke: #ffffff; stroke-linejoin: miter"/>
   </g>
   <g id="patch_33">
    <path d="M 83.516037 140.572099 
L 115.044357 140.572099 
Q 118.985397 140.572099 118.985397 138.283372 
L 118.985397 115.396099 
Q 118.985397 113.107372 115.044357 113.107372 
L 83.516037 113.107372 
Q 79.574997 113.107372 79.574997 115.396099 
L 79.574997 138.283372 
Q 79.574997 140.572099 83.516037 140.572099 
z
" clip-path="url(#pf7d468fddf)" style="fill: #ff7f0e; stroke: #ffffff; stroke-linejoin: miter"/>
   </g>
   <g id="patch_34">
    <path d="M 118.547503 140.572099 
L 150.075823 140.572099 
Q 154.016863 140.572099 154.016863 138.283372 
L 154.016863 115.396099 
Q 154.016863 113.107372 150.075823 113.107372 
L 118.547503 113.107372 
Q 114.606463 113.107372 114.606463 115.396099 
L 114.606463 138.283372 
Q 114.606463 140.572099 118.547503 140.572099 
z
" clip-path="url(#pf7d468fddf)" style="fill: #ff7f0e; stroke: #ffffff; stroke-linejoin: miter"/>
   </g>
   <g id="patch_35">
    <path d="M 153.57897 140.572099 
L 185.10729 140.572099 
Q 189.04833 140.572099 189.04833 138.283372 
L 189.04833 115.396099 
Q 189.04833 113.107372 185.10729 113.107372 
L 153.57897 113.107372 
Q 149.63793 113.107372 149.63793 115.396099 
L 149.63793 138.283372 
Q 149.63793 140.572099 153.57897 140.572099 
z
" clip-path="url(#pf7d468fddf)" style="fill: #ff7f0e; stroke: #ffffff; stroke-linejoin: miter"/>
   </g>
   <g id="patch_36">
    <path d="M 188.610437 140.572099 
L 220.138757 140.572099 
Q 224.079797 140.572099 224.079797 138.283372 
L 224.079797 115.396099 
Q 224.079797 113.107372 220.138757 113.107372 
L 188.610437 113.107372 
Q 184.669397 113.107372 184.669397 115.396099 
L 184.669397 138.283372 
Q 184.669397 140.572099 188.610437 140.572099 
z
" clip-path="url(#pf7d468fddf)" style="fill: #ff7f0e; stroke: #ffffff; stroke-linejoin: miter"/>
   </g>
   <g id="patch_37">
    <path d="M 223.641903 140.572099 
L 255.170223 140.572099 
Q 259.111263 140.572099 259.111263 138.283372 
L 259.111263 115.396099 
Q 259.111263 113.107372 255.170223 113.107372 
L 223.641903 113.107372 
Q 219.700863 113.107372 219.700863 115.396099 
L 219.700863 138.283372 
Q 219.700863 140.572099 223.641903 140.572099 
z
" clip-path="url(#pf7d468fddf)" style="fill: #ff7f0e; stroke: #ffffff; stroke-linejoin: miter"/>
   </g>
   <g id="patch_38">
    <path d="M 258.67337 140.572099 
L 290.20169 140.572099 
Q 294.14273 140.572099 294.14273 138.283372 
L 294.14273 115.396099 
Q 294.14273 113.107372 290.20169 113.107372 
L 258.67337 113.107372 
Q 254.73233 113.107372 254.73233 115.396099 
L 254.73233 138.283372 
Q 254.73233 140.572099 258.67337 140.572099 
z
" clip-path="url(#pf7d468fddf)" style="fill: #ff7f0e; stroke: #ffffff; stroke-linejoin: miter"/>
   </g>
   <g id="patch_39">
    <path d="M 293.704837 140.572099 
L 325.233157 140.572099 
Q 329.174197 140.572099 329.174197 138.283372 
L 329.174197 115.396099 
Q 329.174197 113.107372 325.233157 113.107372 
L 293.704837 113.107372 
Q 289.763797 113.107372 289.763797 115.396099 
L 289.763797 138.283372 
Q 289.763797 140.572099 293.704837 140.572099 
z
" clip-path="url(#pf7d468fddf)" style="fill: #ff7f0e; stroke: #ffffff; stroke-linejoin: miter"/>
   </g>
   <g id="patch_40">
    <path d="M 328.736303 140.572099 
L 360.264623 140.572099 
Q 364.205663 140.572099 364.205663 138.283372 
L 364.205663 115.396099 
Q 364.205663 113.107372 360.264623 113.107372 
L 328.736303 113.107372 
Q 324.795263 113.107372 324.795263 115.396099 
L 324.795263 138.283372 
Q 324.795263 140.572099 328.736303 140.572099 
z
" clip-path="url(#pf7d468fddf)" style="fill: #ff7f0e; stroke: #ffffff; stroke-linejoin: miter"/>
   </g>
   <g id="patch_41">
    <path d="M 363.76777 140.572099 
L 395.29609 140.572099 
Q 399.23713 140.572099 399.23713 138.283372 
L 399.23713 115.396099 
Q 399.23713 113.107372 395.29609 113.107372 
L 363.76777 113.107372 
Q 359.82673 113.107372 359.82673 115.396099 
L 359.82673 138.283372 
Q 359.82673 140.572099 363.76777 140.572099 
z
" clip-path="url(#pf7d468fddf)" style="fill: #1f77b4; stroke: #ffffff; stroke-linejoin: miter"/>
   </g>
   <g id="patch_42">
    <path d="M 48.48457 168.036827 
L 80.01289 168.036827 
Q 83.95393 168.036827 83.95393 165.748099 
L 83.95393 142.860827 
Q 83.95393 140.572099 80.01289 140.572099 
L 48.48457 140.572099 
Q 44.54353 140.572099 44.54353 142.860827 
L 44.54353 165.748099 
Q 44.54353 168.036827 48.48457 168.036827 
z
" clip-path="url(#pf7d468fddf)" style="fill: #ff7f0e; stroke: #ffffff; stroke-linejoin: miter"/>
   </g>
   <g id="patch_43">
    <path d="M 83.516037 168.036827 
L 115.044357 168.036827 
Q 118.985397 168.036827 118.985397 165.748099 
L 118.985397 142.860827 
Q 118.985397 140.572099 115.044357 140.572099 
L 83.516037 140.572099 
Q 79.574997 140.572099 79.574997 142.860827 
L 79.574997 165.748099 
Q 79.574997 168.036827 83.516037 168.036827 
z
" clip-path="url(#pf7d468fddf)" style="fill: #1f77b4; stroke: #ffffff; stroke-linejoin: miter"/>
   </g>
   <g id="patch_44">
    <path d="M 118.547503 168.036827 
L 150.075823 168.036827 
Q 154.016863 168.036827 154.016863 165.748099 
L 154.016863 142.860827 
Q 154.016863 140.572099 150.075823 140.572099 
L 118.547503 140.572099 
Q 114.606463 140.572099 114.606463 142.860827 
L 114.606463 165.748099 
Q 114.606463 168.036827 118.547503 168.036827 
z
" clip-path="url(#pf7d468fddf)" style="fill: #1f77b4; stroke: #ffffff; stroke-linejoin: miter"/>
   </g>
   <g id="patch_45">
    <path d="M 153.57897 168.036827 
L 185.10729 168.036827 
Q 189.04833 168.036827 189.04833 165.748099 
L 189.04833 142.860827 
Q 189.04833 140.572099 185.10729 140.572099 
L 153.57897 140.572099 
Q 149.63793 140.572099 149.63793 142.860827 
L 149.63793 165.748099 
Q 149.63793 168.036827 153.57897 168.036827 
z
" clip-path="url(#pf7d468fddf)" style="fill: #1f77b4; stroke: #ffffff; stroke-linejoin: miter"/>
   </g>
   <g id="patch_46">
    <path d="M 188.610437 168.036827 
L 220.138757 168.036827 
Q 224.079797 168.036827 224.079797 165.748099 
L 224.079797 142.860827 
Q 224.079797 140.572099 220.138757 140.572099 
L 188.610437 140.572099 
Q 184.669397 140.572099 184.669397 142.860827 
L 184.669397 165.748099 
Q 184.669397 168.036827 188.610437 168.036827 
z
" clip-path="url(#pf7d468fddf)" style="fill: #1f77b4; stroke: #ffffff; stroke-linejoin: miter"/>
   </g>
   <g id="patch_47">
    <path d="M 223.641903 168.036827 
L 255.170223 168.036827 
Q 259.111263 168.036827 259.111263 165.748099 
L 259.111263 142.860827 
Q 259.111263 140.572099 255.170223 140.572099 
L 223.641903 140.572099 
Q 219.700863 140.572099 219.700863 142.860827 
L 219.700863 165.748099 
Q 219.700863 168.036827 223.641903 168.036827 
z
" clip-path="url(#pf7d468fddf)" style="fill: #1f77b4; stroke: #ffffff; stroke-linejoin: miter"/>
   </g>
   <g id="patch_48">
    <path d="M 258.67337 168.036827 
L 290.20169 168.036827 
Q 294.14273 168.036827 294.14273 165.748099 
L 294.14273 142.860827 
Q 294.14273 140.572099 290.20169 140.572099 
L 258.67337 140.572099 
Q 254.73233 140.572099 254.73233 142.860827 
L 254.73233 165.748099 
Q 254.73233 168.036827 258.67337 168.036827 
z
" clip-path="url(#pf7d468fddf)" style="fill: #1f77b4; stroke: #ffffff; stroke-linejoin: miter"/>
   </g>
   <g id="patch_49">
    <path d="M 293.704837 168.036827 
L 325.233157 168.036827 
Q 329.174197 168.036827 329.174197 165.748099 
L 329.174197 142.860827 
Q 329.174197 140.572099 325.233157 140.572099 
L 293.704837 140.572099 
Q 289.763797 140.572099 289.763797 142.860827 
L 289.763797 165.748099 
Q 289.763797 168.036827 293.704837 168.036827 
z
" clip-path="url(#pf7d468fddf)" style="fill: #ff7f0e; stroke: #ffffff; stroke-linejoin: miter"/>
   </g>
   <g id="patch_50">
    <path d="M 328.736303 168.036827 
L 360.264623 168.036827 
Q 364.205663 168.036827 364.205663 165.748099 
L 364.205663 142.860827 
Q 364.205663 140.572099 360.264623 140.572099 
L 328.736303 140.572099 
Q 324.795263 140.572099 324.795263 142.860827 
L 324.795263 165.748099 
Q 324.795263 168.036827 328.736303 168.036827 
z
" clip-path="url(#pf7d468fddf)" style="fill: #ff7f0e; stroke: #ffffff; stroke-linejoin: miter"/>
   </g>
   <g id="patch_51">
    <path d="M 363.76777 168.036827 
L 395.29609 168.036827 
Q 399.23713 168.036827 399.23713 165.748099 
L 399.23713 142.860827 
Q 399.23713 140.572099 395.29609 140.572099 
L 363.76777 140.572099 
Q 359.82673 140.572099 359.82673 142.860827 
L 359.82673 165.748099 
Q 359.82673 168.036827 363.76777 168.036827 
z
" clip-path="url(#pf7d468fddf)" style="fill: #ff7f0e; stroke: #ffffff; stroke-linejoin: miter"/>
   </g>
   <g id="patch_52">
    <path d="M 48.48457 195.501554 
L 80.01289 195.501554 
Q 83.95393 195.501554 83.95393 193.212827 
L 83.95393 170.325554 
Q 83.95393 168.036827 80.01289 168.036827 
L 48.48457 168.036827 
Q 44.54353 168.036827 44.54353 170.325554 
L 44.54353 193.212827 
Q 44.54353 195.501554 48.48457 195.501554 
z
" clip-path="url(#pf7d468fddf)" style="fill: #ff7f0e; stroke: #ffffff; stroke-linejoin: miter"/>
   </g>
   <g id="patch_53">
    <path d="M 83.516037 195.501554 
L 115.044357 195.501554 
Q 118.985397 195.501554 118.985397 193.212827 
L 118.985397 170.325554 
Q 118.985397 168.036827 115.044357 168.036827 
L 83.516037 168.036827 
Q 79.574997 168.036827 79.574997 170.325554 
L 79.574997 193.212827 
Q 79.574997 195.501554 83.516037 195.501554 
z
" clip-path="url(#pf7d468fddf)" style="fill: #ff7f0e; stroke: #ffffff; stroke-linejoin: miter"/>
   </g>
   <g id="patch_54">
    <path d="M 118.547503 195.501554 
L 150.075823 195.501554 
Q 154.016863 195.501554 154.016863 193.212827 
L 154.016863 170.325554 
Q 154.016863 168.036827 150.075823 168.036827 
L 118.547503 168.036827 
Q 114.606463 168.036827 114.606463 170.325554 
L 114.606463 193.212827 
Q 114.606463 195.501554 118.547503 195.501554 
z
" clip-path="url(#pf7d468fddf)" style="fill: #1f77b4; stroke: #ffffff; stroke-linejoin: miter"/>
   </g>
   <g id="patch_55">
    <path d="M 153.57897 195.501554 
L 185.10729 195.501554 
Q 189.04833 195.501554 189.04833 193.212827 
L 189.04833 170.325554 
Q 189.04833 168.036827 185.10729 168.036827 
L 153.57897 168.036827 
Q 149.63793 168.036827 149.63793 170.325554 
L 149.63793 193.212827 
Q 149.63793 195.501554 153.57897 195.501554 
z
" clip-path="url(#pf7d468fddf)" style="fill: #1f77b4; stroke: #ffffff; stroke-linejoin: miter"/>
   </g>
   <g id="patch_56">
    <path d="M 188.610437 195.501554 
L 220.138757 195.501554 
Q 224.079797 195.501554 224.079797 193.212827 
L 224.079797 170.325554 
Q 224.079797 168.036827 220.138757 168.036827 
L 188.610437 168.036827 
Q 184.669397 168.036827 184.669397 170.325554 
L 184.669397 193.212827 
Q 184.669397 195.501554 188.610437 195.501554 
z
" clip-path="url(#pf7d468fddf)" style="fill: #1f77b4; stroke: #ffffff; stroke-linejoin: miter"/>
   </g>
   <g id="patch_57">
    <path d="M 223.641903 195.501554 
L 255.170223 195.501554 
Q 259.111263 195.501554 259.111263 193.212827 
L 259.111263 170.325554 
Q 259.111263 168.036827 255.170223 168.036827 
L 223.641903 168.036827 
Q 219.700863 168.036827 219.700863 170.325554 
L 219.700863 193.212827 
Q 219.700863 195.501554 223.641903 195.501554 
z
" clip-path="url(#pf7d468fddf)" style="fill: #1f77b4; stroke: #ffffff; stroke-linejoin: miter"/>
   </g>
   <g id="patch_58">
    <path d="M 258.67337 195.501554 
L 290.20169 195.501554 
Q 294.14273 195.501554 294.14273 193.212827 
L 294.14273 170.325554 
Q 294.14273 168.036827 290.20169 168.036827 
L 258.67337 168.036827 
Q 254.73233 168.036827 254.73233 170.325554 
L 254.73233 193.212827 
Q 254.73233 195.501554 258.67337 195.501554 
z
" clip-path="url(#pf7d468fddf)" style="fill: #1f77b4; stroke: #ffffff; stroke-linejoin: miter"/>
   </g>
   <g id="patch_59">
    <path d="M 293.704837 195.501554 
L 325.233157 195.501554 
Q 329.174197 195.501554 329.174197 193.212827 
L 329.174197 170.325554 
Q 329.174197 168.036827 325.233157 168.036827 
L 293.704837 168.036827 
Q 289.763797 168.036827 289.763797 170.325554 
L 289.763797 193.212827 
Q 289.763797 195.501554 293.704837 195.501554 
z
" clip-path="url(#pf7d468fddf)" style="fill: #ff7f0e; stroke: #ffffff; stroke-linejoin: miter"/>
   </g>
   <g id="patch_60">
    <path d="M 328.736303 195.501554 
L 360.264623 195.501554 
Q 364.205663 195.501554 364.205663 193.212827 
L 364.205663 170.325554 
Q 364.205663 168.036827 360.264623 168.036827 
L 328.736303 168.036827 
Q 324.795263 168.036827 324.795263 170.325554 
L 324.795263 193.212827 
Q 324.795263 195.501554 328.736303 195.501554 
z
" clip-path="url(#pf7d468fddf)" style="fill: #ff7f0e; stroke: #ffffff; stroke-linejoin: miter"/>
   </g>
   <g id="patch_61">
    <path d="M 363.76777 195.501554 
L 395.29609 195.501554 
Q 399.23713 195.501554 399.23713 193.212827 
L 399.23713 170.325554 
Q 399.23713 168.036827 395.29609 168.036827 
L 363.76777 168.036827 
Q 359.82673 168.036827 359.82673 170.325554 
L 359.82673 193.212827 
Q 359.82673 195.501554 363.76777 195.501554 
z
" clip-path="url(#pf7d468fddf)" style="fill: #ff7f0e; stroke: #ffffff; stroke-linejoin: miter"/>
   </g>
   <g id="patch_62">
    <path d="M 48.48457 222.966281 
L 80.01289 222.966281 
Q 83.95393 222.966281 83.95393 220.677554 
L 83.95393 197.790281 
Q 83.95393 195.501554 80.01289 195.501554 
L 48.48457 195.501554 
Q 44.54353 195.501554 44.54353 197.790281 
L 44.54353 220.677554 
Q 44.54353 222.966281 48.48457 222.966281 
z
" clip-path="url(#pf7d468fddf)" style="fill: #1f77b4; stroke: #ffffff; stroke-linejoin: miter"/>
   </g>
   <g id="patch_63">
    <path d="M 83.516037 222.966281 
L 115.044357 222.966281 
Q 118.985397 222.966281 118.985397 220.677554 
L 118.985397 197.790281 
Q 118.985397 195.501554 115.044357 195.501554 
L 83.516037 195.501554 
Q 79.574997 195.501554 79.574997 197.790281 
L 79.574997 220.677554 
Q 79.574997 222.966281 83.516037 222.966281 
z
" clip-path="url(#pf7d468fddf)" style="fill: #1f77b4; stroke: #ffffff; stroke-linejoin: miter"/>
   </g>
   <g id="patch_64">
    <path d="M 118.547503 222.966281 
L 150.075823 222.966281 
Q 154.016863 222.966281 154.016863 220.677554 
L 154.016863 197.790281 
Q 154.016863 195.501554 150.075823 195.501554 
L 118.547503 195.501554 
Q 114.606463 195.501554 114.606463 197.790281 
L 114.606463 220.677554 
Q 114.606463 222.966281 118.547503 222.966281 
z
" clip-path="url(#pf7d468fddf)" style="fill: #1f77b4; stroke: #ffffff; stroke-linejoin: miter"/>
   </g>
   <g id="patch_65">
    <path d="M 153.57897 222.966281 
L 185.10729 222.966281 
Q 189.04833 222.966281 189.04833 220.677554 
L 189.04833 197.790281 
Q 189.04833 195.501554 185.10729 195.501554 
L 153.57897 195.501554 
Q 149.63793 195.501554 149.63793 197.790281 
L 149.63793 220.677554 
Q 149.63793 222.966281 153.57897 222.966281 
z
" clip-path="url(#pf7d468fddf)" style="fill: #1f77b4; stroke: #ffffff; stroke-linejoin: miter"/>
   </g>
   <g id="patch_66">
    <path d="M 188.610437 222.966281 
L 220.138757 222.966281 
Q 224.079797 222.966281 224.079797 220.677554 
L 224.079797 197.790281 
Q 224.079797 195.501554 220.138757 195.501554 
L 188.610437 195.501554 
Q 184.669397 195.501554 184.669397 197.790281 
L 184.669397 220.677554 
Q 184.669397 222.966281 188.610437 222.966281 
z
" clip-path="url(#pf7d468fddf)" style="fill: #1f77b4; stroke: #ffffff; stroke-linejoin: miter"/>
   </g>
   <g id="patch_67">
    <path d="M 223.641903 222.966281 
L 255.170223 222.966281 
Q 259.111263 222.966281 259.111263 220.677554 
L 259.111263 197.790281 
Q 259.111263 195.501554 255.170223 195.501554 
L 223.641903 195.501554 
Q 219.700863 195.501554 219.700863 197.790281 
L 219.700863 220.677554 
Q 219.700863 222.966281 223.641903 222.966281 
z
" clip-path="url(#pf7d468fddf)" style="fill: #1f77b4; stroke: #ffffff; stroke-linejoin: miter"/>
   </g>
   <g id="patch_68">
    <path d="M 258.67337 222.966281 
L 290.20169 222.966281 
Q 294.14273 222.966281 294.14273 220.677554 
L 294.14273 197.790281 
Q 294.14273 195.501554 290.20169 195.501554 
L 258.67337 195.501554 
Q 254.73233 195.501554 254.73233 197.790281 
L 254.73233 220.677554 
Q 254.73233 222.966281 258.67337 222.966281 
z
" clip-path="url(#pf7d468fddf)" style="fill: #1f77b4; stroke: #ffffff; stroke-linejoin: miter"/>
   </g>
   <g id="patch_69">
    <path d="M 293.704837 222.966281 
L 325.233157 222.966281 
Q 329.174197 222.966281 329.174197 220.677554 
L 329.174197 197.790281 
Q 329.174197 195.501554 325.233157 195.501554 
L 293.704837 195.501554 
Q 289.763797 195.501554 289.763797 197.790281 
L 289.763797 220.677554 
Q 289.763797 222.966281 293.704837 222.966281 
z
" clip-path="url(#pf7d468fddf)" style="fill: #ff7f0e; stroke: #ffffff; stroke-linejoin: miter"/>
   </g>
   <g id="patch_70">
    <path d="M 328.736303 222.966281 
L 360.264623 222.966281 
Q 364.205663 222.966281 364.205663 220.677554 
L 364.205663 197.790281 
Q 364.205663 195.501554 360.264623 195.501554 
L 328.736303 195.501554 
Q 324.795263 195.501554 324.795263 197.790281 
L 324.795263 220.677554 
Q 324.795263 222.966281 328.736303 222.966281 
z
" clip-path="url(#pf7d468fddf)" style="fill: #ff7f0e; stroke: #ffffff; stroke-linejoin: miter"/>
   </g>
   <g id="patch_71">
    <path d="M 363.76777 222.966281 
L 395.29609 222.966281 
Q 399.23713 222.966281 399.23713 220.677554 
L 399.23713 197.790281 
Q 399.23713 195.501554 395.29609 195.501554 
L 363.76777 195.501554 
Q 359.82673 195.501554 359.82673 197.790281 
L 359.82673 220.677554 
Q 359.82673 222.966281 363.76777 222.966281 
z
" clip-path="url(#pf7d468fddf)" style="fill: #ff7f0e; stroke: #ffffff; stroke-linejoin: miter"/>
   </g>
   <g id="patch_72">
    <path d="M 48.48457 250.431009 
L 80.01289 250.431009 
Q 83.95393 250.431009 83.95393 248.142281 
L 83.95393 225.255009 
Q 83.95393 222.966281 80.01289 222.966281 
L 48.48457 222.966281 
Q 44.54353 222.966281 44.54353 225.255009 
L 44.54353 248.142281 
Q 44.54353 250.431009 48.48457 250.431009 
z
" clip-path="url(#pf7d468fddf)" style="fill: #1f77b4; stroke: #ffffff; stroke-linejoin: miter"/>
   </g>
   <g id="patch_73">
    <path d="M 83.516037 250.431009 
L 115.044357 250.431009 
Q 118.985397 250.431009 118.985397 248.142281 
L 118.985397 225.255009 
Q 118.985397 222.966281 115.044357 222.966281 
L 83.516037 222.966281 
Q 79.574997 222.966281 79.574997 225.255009 
L 79.574997 248.142281 
Q 79.574997 250.431009 83.516037 250.431009 
z
" clip-path="url(#pf7d468fddf)" style="fill: #ff7f0e; stroke: #ffffff; stroke-linejoin: miter"/>
   </g>
   <g id="patch_74">
    <path d="M 118.547503 250.431009 
L 150.075823 250.431009 
Q 154.016863 250.431009 154.016863 248.142281 
L 154.016863 225.255009 
Q 154.016863 222.966281 150.075823 222.966281 
L 118.547503 222.966281 
Q 114.606463 222.966281 114.606463 225.255009 
L 114.606463 248.142281 
Q 114.606463 250.431009 118.547503 250.431009 
z
" clip-path="url(#pf7d468fddf)" style="fill: #1f77b4; stroke: #ffffff; stroke-linejoin: miter"/>
   </g>
   <g id="patch_75">
    <path d="M 153.57897 250.431009 
L 185.10729 250.431009 
Q 189.04833 250.431009 189.04833 248.142281 
L 189.04833 225.255009 
Q 189.04833 222.966281 185.10729 222.966281 
L 153.57897 222.966281 
Q 149.63793 222.966281 149.63793 225.255009 
L 149.63793 248.142281 
Q 149.63793 250.431009 153.57897 250.431009 
z
" clip-path="url(#pf7d468fddf)" style="fill: #1f77b4; stroke: #ffffff; stroke-linejoin: miter"/>
   </g>
   <g id="patch_76">
    <path d="M 188.610437 250.431009 
L 220.138757 250.431009 
Q 224.079797 250.431009 224.079797 248.142281 
L 224.079797 225.255009 
Q 224.079797 222.966281 220.138757 222.966281 
L 188.610437 222.966281 
Q 184.669397 222.966281 184.669397 225.255009 
L 184.669397 248.142281 
Q 184.669397 250.431009 188.610437 250.431009 
z
" clip-path="url(#pf7d468fddf)" style="fill: #1f77b4; stroke: #ffffff; stroke-linejoin: miter"/>
   </g>
   <g id="patch_77">
    <path d="M 223.641903 250.431009 
L 255.170223 250.431009 
Q 259.111263 250.431009 259.111263 248.142281 
L 259.111263 225.255009 
Q 259.111263 222.966281 255.170223 222.966281 
L 223.641903 222.966281 
Q 219.700863 222.966281 219.700863 225.255009 
L 219.700863 248.142281 
Q 219.700863 250.431009 223.641903 250.431009 
z
" clip-path="url(#pf7d468fddf)" style="fill: #1f77b4; stroke: #ffffff; stroke-linejoin: miter"/>
   </g>
   <g id="patch_78">
    <path d="M 258.67337 250.431009 
L 290.20169 250.431009 
Q 294.14273 250.431009 294.14273 248.142281 
L 294.14273 225.255009 
Q 294.14273 222.966281 290.20169 222.966281 
L 258.67337 222.966281 
Q 254.73233 222.966281 254.73233 225.255009 
L 254.73233 248.142281 
Q 254.73233 250.431009 258.67337 250.431009 
z
" clip-path="url(#pf7d468fddf)" style="fill: #1f77b4; stroke: #ffffff; stroke-linejoin: miter"/>
   </g>
   <g id="patch_79">
    <path d="M 293.704837 250.431009 
L 325.233157 250.431009 
Q 329.174197 250.431009 329.174197 248.142281 
L 329.174197 225.255009 
Q 329.174197 222.966281 325.233157 222.966281 
L 293.704837 222.966281 
Q 289.763797 222.966281 289.763797 225.255009 
L 289.763797 248.142281 
Q 289.763797 250.431009 293.704837 250.431009 
z
" clip-path="url(#pf7d468fddf)" style="fill: #1f77b4; stroke: #ffffff; stroke-linejoin: miter"/>
   </g>
   <g id="patch_80">
    <path d="M 328.736303 250.431009 
L 360.264623 250.431009 
Q 364.205663 250.431009 364.205663 248.142281 
L 364.205663 225.255009 
Q 364.205663 222.966281 360.264623 222.966281 
L 328.736303 222.966281 
Q 324.795263 222.966281 324.795263 225.255009 
L 324.795263 248.142281 
Q 324.795263 250.431009 328.736303 250.431009 
z
" clip-path="url(#pf7d468fddf)" style="fill: #1f77b4; stroke: #ffffff; stroke-linejoin: miter"/>
   </g>
   <g id="patch_81">
    <path d="M 363.76777 250.431009 
L 395.29609 250.431009 
Q 399.23713 250.431009 399.23713 248.142281 
L 399.23713 225.255009 
Q 399.23713 222.966281 395.29609 222.966281 
L 363.76777 222.966281 
Q 359.82673 222.966281 359.82673 225.255009 
L 359.82673 248.142281 
Q 359.82673 250.431009 363.76777 250.431009 
z
" clip-path="url(#pf7d468fddf)" style="fill: #1f77b4; stroke: #ffffff; stroke-linejoin: miter"/>
   </g>
   <g id="line2d_1">
    <path d="M 204.374597 39.868099 
" clip-path="url(#pf7d468fddf)" style="fill: none; stroke: #d62728; stroke-width: 1.5; stroke-linecap: square"/>
    <defs>
     <path id="mfa0f86fc02" d="M 0 -7.5 
L -1.683855 -2.317627 
L -7.132924 -2.317627 
L -2.724534 0.885255 
L -4.408389 6.067627 
L -0 2.864745 
L 4.408389 6.067627 
L 2.724534 0.885255 
L 7.132924 -2.317627 
L 1.683855 -2.317627 
z
" style="stroke: #ffffff; stroke-linejoin: bevel"/>
    </defs>
    <g clip-path="url(#pf7d468fddf)">
     <use xlink:href="#mfa0f86fc02" x="204.374597" y="39.868099" style="fill: #d62728; stroke: #ffffff; stroke-linejoin: bevel"/>
    </g>
   </g>
   <g id="text_1">
    <!-- Causal -->
    <g style="fill: #d62728" transform="translate(187.574128 30.71319) scale(0.09 -0.09)">
     <defs>
      <path id="DejaVuSans-Bold-43" d="M 4288 256 
Q 3956 84 3597 -3 
Q 3238 -91 2847 -91 
Q 1681 -91 1000 561 
Q 319 1213 319 2328 
Q 319 3447 1000 4098 
Q 1681 4750 2847 4750 
Q 3238 4750 3597 4662 
Q 3956 4575 4288 4403 
L 4288 3438 
Q 3953 3666 3628 3772 
Q 3303 3878 2944 3878 
Q 2300 3878 1931 3465 
Q 1563 3053 1563 2328 
Q 1563 1606 1931 1193 
Q 2300 781 2944 781 
Q 3303 781 3628 887 
Q 3953 994 4288 1222 
L 4288 256 
z
" transform="scale(0.015625)"/>
      <path id="DejaVuSans-Bold-61" d="M 2106 1575 
Q 1756 1575 1579 1456 
Q 1403 1338 1403 1106 
Q 1403 894 1545 773 
Q 1688 653 1941 653 
Q 2256 653 2472 879 
Q 2688 1106 2688 1447 
L 2688 1575 
L 2106 1575 
z
M 3816 1997 
L 3816 0 
L 2688 0 
L 2688 519 
Q 2463 200 2181 54 
Q 1900 -91 1497 -91 
Q 953 -91 614 226 
Q 275 544 275 1050 
Q 275 1666 698 1953 
Q 1122 2241 2028 2241 
L 2688 2241 
L 2688 2328 
Q 2688 2594 2478 2717 
Q 2269 2841 1825 2841 
Q 1466 2841 1156 2769 
Q 847 2697 581 2553 
L 581 3406 
Q 941 3494 1303 3539 
Q 1666 3584 2028 3584 
Q 2975 3584 3395 3211 
Q 3816 2838 3816 1997 
z
" transform="scale(0.015625)"/>
      <path id="DejaVuSans-Bold-75" d="M 500 1363 
L 500 3500 
L 1625 3500 
L 1625 3150 
Q 1625 2866 1622 2436 
Q 1619 2006 1619 1863 
Q 1619 1441 1641 1255 
Q 1663 1069 1716 984 
Q 1784 875 1895 815 
Q 2006 756 2150 756 
Q 2500 756 2700 1025 
Q 2900 1294 2900 1772 
L 2900 3500 
L 4019 3500 
L 4019 0 
L 2900 0 
L 2900 506 
Q 2647 200 2364 54 
Q 2081 -91 1741 -91 
Q 1134 -91 817 281 
Q 500 653 500 1363 
z
" transform="scale(0.015625)"/>
      <path id="DejaVuSans-Bold-73" d="M 3272 3391 
L 3272 2541 
Q 2913 2691 2578 2766 
Q 2244 2841 1947 2841 
Q 1628 2841 1473 2761 
Q 1319 2681 1319 2516 
Q 1319 2381 1436 2309 
Q 1553 2238 1856 2203 
L 2053 2175 
Q 2913 2066 3209 1816 
Q 3506 1566 3506 1031 
Q 3506 472 3093 190 
Q 2681 -91 1863 -91 
Q 1516 -91 1145 -36 
Q 775 19 384 128 
L 384 978 
Q 719 816 1070 734 
Q 1422 653 1784 653 
Q 2113 653 2278 743 
Q 2444 834 2444 1013 
Q 2444 1163 2330 1236 
Q 2216 1309 1875 1350 
L 1678 1375 
Q 931 1469 631 1722 
Q 331 1975 331 2491 
Q 331 3047 712 3315 
Q 1094 3584 1881 3584 
Q 2191 3584 2531 3537 
Q 2872 3491 3272 3391 
z
" transform="scale(0.015625)"/>
      <path id="DejaVuSans-Bold-6c" d="M 538 4863 
L 1656 4863 
L 1656 0 
L 538 0 
L 538 4863 
z
" transform="scale(0.015625)"/>
     </defs>
     <use xlink:href="#DejaVuSans-Bold-43"/>
     <use xlink:href="#DejaVuSans-Bold-61" transform="translate(73.388672 0)"/>
     <use xlink:href="#DejaVuSans-Bold-75" transform="translate(140.869141 0)"/>
     <use xlink:href="#DejaVuSans-Bold-73" transform="translate(212.060547 0)"/>
     <use xlink:href="#DejaVuSans-Bold-61" transform="translate(271.582031 0)"/>
     <use xlink:href="#DejaVuSans-Bold-6c" transform="translate(339.0625 0)"/>
    </g>
   </g>
   <g id="patch_82">
    <path d="M 302.289093 238.987372 
Q 204.373966 238.987372 106.458838 238.987372 
" style="fill: none; stroke: #555555; stroke-width: 1.5; stroke-linecap: round"/>
    <path d="M 298.289093 236.987372 
L 302.289093 238.987372 
L 298.289093 240.987372 
" style="fill: none; stroke: #555555; stroke-width: 1.5; stroke-linecap: round"/>
    <path d="M 110.458838 240.987372 
L 106.458838 238.987372 
L 110.458838 236.987372 
" style="fill: none; stroke: #555555; stroke-width: 1.5; stroke-linecap: round"/>
   </g>
   <g id="text_2">
    <!-- LD Block -->
    <g transform="translate(184.801003 248.142281) scale(0.09 -0.09)">
     <defs>
      <path id="DejaVuSans-4c" d="M 628 4666 
L 1259 4666 
L 1259 531 
L 3531 531 
L 3531 0 
L 628 0 
L 628 4666 
z
" transform="scale(0.015625)"/>
      <path id="DejaVuSans-44" d="M 1259 4147 
L 1259 519 
L 2022 519 
Q 2988 519 3436 956 
Q 3884 1394 3884 2338 
Q 3884 3275 3436 3711 
Q 2988 4147 2022 4147 
L 1259 4147 
z
M 628 4666 
L 1925 4666 
Q 3281 4666 3915 4102 
Q 4550 3538 4550 2338 
Q 4550 1131 3912 565 
Q 3275 0 1925 0 
L 628 0 
L 628 4666 
z
" transform="scale(0.015625)"/>
      <path id="DejaVuSans-20" transform="scale(0.015625)"/>
      <path id="DejaVuSans-42" d="M 1259 2228 
L 1259 519 
L 2272 519 
Q 2781 519 3026 730 
Q 3272 941 3272 1375 
Q 3272 1813 3026 2020 
Q 2781 2228 2272 2228 
L 1259 2228 
z
M 1259 4147 
L 1259 2741 
L 2194 2741 
Q 2656 2741 2882 2914 
Q 3109 3088 3109 3444 
Q 3109 3797 2882 3972 
Q 2656 4147 2194 4147 
L 1259 4147 
z
M 628 4666 
L 2241 4666 
Q 2963 4666 3353 4366 
Q 3744 4066 3744 3513 
Q 3744 3084 3544 2831 
Q 3344 2578 2956 2516 
Q 3422 2416 3680 2098 
Q 3938 1781 3938 1306 
Q 3938 681 3513 340 
Q 3088 0 2303 0 
L 628 0 
L 628 4666 
z
" transform="scale(0.015625)"/>
      <path id="DejaVuSans-6c" d="M 603 4863 
L 1178 4863 
L 1178 0 
L 603 0 
L 603 4863 
z
" transform="scale(0.015625)"/>
      <path id="DejaVuSans-6f" d="M 1959 3097 
Q 1497 3097 1228 2736 
Q 959 2375 959 1747 
Q 959 1119 1226 758 
Q 1494 397 1959 397 
Q 2419 397 2687 759 
Q 2956 1122 2956 1747 
Q 2956 2369 2687 2733 
Q 2419 3097 1959 3097 
z
M 1959 3584 
Q 2709 3584 3137 3096 
Q 3566 2609 3566 1747 
Q 3566 888 3137 398 
Q 2709 -91 1959 -91 
Q 1206 -91 779 398 
Q 353 888 353 1747 
Q 353 2609 779 3096 
Q 1206 3584 1959 3584 
z
" transform="scale(0.015625)"/>
      <path id="DejaVuSans-63" d="M 3122 3366 
L 3122 2828 
Q 2878 2963 2633 3030 
Q 2388 3097 2138 3097 
Q 1578 3097 1268 2742 
Q 959 2388 959 1747 
Q 959 1106 1268 751 
Q 1578 397 2138 397 
Q 2388 397 2633 464 
Q 2878 531 3122 666 
L 3122 134 
Q 2881 22 2623 -34 
Q 2366 -91 2075 -91 
Q 1284 -91 818 406 
Q 353 903 353 1747 
Q 353 2603 823 3093 
Q 1294 3584 2113 3584 
Q 2378 3584 2631 3529 
Q 2884 3475 3122 3366 
z
" transform="scale(0.015625)"/>
      <path id="DejaVuSans-6b" d="M 581 4863 
L 1159 4863 
L 1159 1991 
L 2875 3500 
L 3609 3500 
L 1753 1863 
L 3688 0 
L 2938 0 
L 1159 1709 
L 1159 0 
L 581 0 
L 581 4863 
z
" transform="scale(0.015625)"/>
     </defs>
     <use xlink:href="#DejaVuSans-4c"/>
     <use xlink:href="#DejaVuSans-44" transform="translate(55.712891 0)"/>
     <use xlink:href="#DejaVuSans-20" transform="translate(132.714844 0)"/>
     <use xlink:href="#DejaVuSans-42" transform="translate(164.501953 0)"/>
     <use xlink:href="#DejaVuSans-6c" transform="translate(233.105469 0)"/>
     <use xlink:href="#DejaVuSans-6f" transform="translate(260.888672 0)"/>
     <use xlink:href="#DejaVuSans-63" transform="translate(322.070312 0)"/>
     <use xlink:href="#DejaVuSans-6b" transform="translate(377.050781 0)"/>
    </g>
   </g>
   <g id="text_3">
    <!-- Genomic Position -->
    <g transform="translate(172.883299 261.874645) scale(0.1 -0.1)">
     <defs>
      <path id="DejaVuSans-Bold-47" d="M 4781 347 
Q 4331 128 3847 18 
Q 3363 -91 2847 -91 
Q 1681 -91 1000 561 
Q 319 1213 319 2328 
Q 319 3456 1012 4103 
Q 1706 4750 2913 4750 
Q 3378 4750 3804 4662 
Q 4231 4575 4609 4403 
L 4609 3438 
Q 4219 3659 3833 3768 
Q 3447 3878 3059 3878 
Q 2341 3878 1952 3476 
Q 1563 3075 1563 2328 
Q 1563 1588 1938 1184 
Q 2313 781 3003 781 
Q 3191 781 3352 804 
Q 3513 828 3641 878 
L 3641 1784 
L 2906 1784 
L 2906 2591 
L 4781 2591 
L 4781 347 
z
" transform="scale(0.015625)"/>
      <path id="DejaVuSans-Bold-65" d="M 4031 1759 
L 4031 1441 
L 1416 1441 
Q 1456 1047 1700 850 
Q 1944 653 2381 653 
Q 2734 653 3104 758 
Q 3475 863 3866 1075 
L 3866 213 
Q 3469 63 3072 -14 
Q 2675 -91 2278 -91 
Q 1328 -91 801 392 
Q 275 875 275 1747 
Q 275 2603 792 3093 
Q 1309 3584 2216 3584 
Q 3041 3584 3536 3087 
Q 4031 2591 4031 1759 
z
M 2881 2131 
Q 2881 2450 2695 2645 
Q 2509 2841 2209 2841 
Q 1884 2841 1681 2658 
Q 1478 2475 1428 2131 
L 2881 2131 
z
" transform="scale(0.015625)"/>
      <path id="DejaVuSans-Bold-6e" d="M 4056 2131 
L 4056 0 
L 2931 0 
L 2931 347 
L 2931 1631 
Q 2931 2084 2911 2256 
Q 2891 2428 2841 2509 
Q 2775 2619 2662 2680 
Q 2550 2741 2406 2741 
Q 2056 2741 1856 2470 
Q 1656 2200 1656 1722 
L 1656 0 
L 538 0 
L 538 3500 
L 1656 3500 
L 1656 2988 
Q 1909 3294 2193 3439 
Q 2478 3584 2822 3584 
Q 3428 3584 3742 3212 
Q 4056 2841 4056 2131 
z
" transform="scale(0.015625)"/>
      <path id="DejaVuSans-Bold-6f" d="M 2203 2784 
Q 1831 2784 1636 2517 
Q 1441 2250 1441 1747 
Q 1441 1244 1636 976 
Q 1831 709 2203 709 
Q 2569 709 2762 976 
Q 2956 1244 2956 1747 
Q 2956 2250 2762 2517 
Q 2569 2784 2203 2784 
z
M 2203 3584 
Q 3106 3584 3614 3096 
Q 4122 2609 4122 1747 
Q 4122 884 3614 396 
Q 3106 -91 2203 -91 
Q 1297 -91 786 396 
Q 275 884 275 1747 
Q 275 2609 786 3096 
Q 1297 3584 2203 3584 
z
" transform="scale(0.015625)"/>
      <path id="DejaVuSans-Bold-6d" d="M 3781 2919 
Q 3994 3244 4286 3414 
Q 4578 3584 4928 3584 
Q 5531 3584 5847 3212 
Q 6163 2841 6163 2131 
L 6163 0 
L 5038 0 
L 5038 1825 
Q 5041 1866 5042 1909 
Q 5044 1953 5044 2034 
Q 5044 2406 4934 2573 
Q 4825 2741 4581 2741 
Q 4263 2741 4089 2478 
Q 3916 2216 3909 1719 
L 3909 0 
L 2784 0 
L 2784 1825 
Q 2784 2406 2684 2573 
Q 2584 2741 2328 2741 
Q 2006 2741 1831 2477 
Q 1656 2213 1656 1722 
L 1656 0 
L 531 0 
L 531 3500 
L 1656 3500 
L 1656 2988 
Q 1863 3284 2130 3434 
Q 2397 3584 2719 3584 
Q 3081 3584 3359 3409 
Q 3638 3234 3781 2919 
z
" transform="scale(0.015625)"/>
      <path id="DejaVuSans-Bold-69" d="M 538 3500 
L 1656 3500 
L 1656 0 
L 538 0 
L 538 3500 
z
M 538 4863 
L 1656 4863 
L 1656 3950 
L 538 3950 
L 538 4863 
z
" transform="scale(0.015625)"/>
      <path id="DejaVuSans-Bold-63" d="M 3366 3391 
L 3366 2478 
Q 3138 2634 2908 2709 
Q 2678 2784 2431 2784 
Q 1963 2784 1702 2511 
Q 1441 2238 1441 1747 
Q 1441 1256 1702 982 
Q 1963 709 2431 709 
Q 2694 709 2930 787 
Q 3166 866 3366 1019 
L 3366 103 
Q 3103 6 2833 -42 
Q 2563 -91 2291 -91 
Q 1344 -91 809 395 
Q 275 881 275 1747 
Q 275 2613 809 3098 
Q 1344 3584 2291 3584 
Q 2566 3584 2833 3536 
Q 3100 3488 3366 3391 
z
" transform="scale(0.015625)"/>
      <path id="DejaVuSans-Bold-20" transform="scale(0.015625)"/>
      <path id="DejaVuSans-Bold-50" d="M 588 4666 
L 2584 4666 
Q 3475 4666 3951 4270 
Q 4428 3875 4428 3144 
Q 4428 2409 3951 2014 
Q 3475 1619 2584 1619 
L 1791 1619 
L 1791 0 
L 588 0 
L 588 4666 
z
M 1791 3794 
L 1791 2491 
L 2456 2491 
Q 2806 2491 2997 2661 
Q 3188 2831 3188 3144 
Q 3188 3456 2997 3625 
Q 2806 3794 2456 3794 
L 1791 3794 
z
" transform="scale(0.015625)"/>
      <path id="DejaVuSans-Bold-74" d="M 1759 4494 
L 1759 3500 
L 2913 3500 
L 2913 2700 
L 1759 2700 
L 1759 1216 
Q 1759 972 1856 886 
Q 1953 800 2241 800 
L 2816 800 
L 2816 0 
L 1856 0 
Q 1194 0 917 276 
Q 641 553 641 1216 
L 641 2700 
L 84 2700 
L 84 3500 
L 641 3500 
L 641 4494 
L 1759 4494 
z
" transform="scale(0.015625)"/>
     </defs>
     <use xlink:href="#DejaVuSans-Bold-47"/>
     <use xlink:href="#DejaVuSans-Bold-65" transform="translate(82.080078 0)"/>
     <use xlink:href="#DejaVuSans-Bold-6e" transform="translate(149.902344 0)"/>
     <use xlink:href="#DejaVuSans-Bold-6f" transform="translate(221.09375 0)"/>
     <use xlink:href="#DejaVuSans-Bold-6d" transform="translate(289.794922 0)"/>
     <use xlink:href="#DejaVuSans-Bold-69" transform="translate(393.994141 0)"/>
     <use xlink:href="#DejaVuSans-Bold-63" transform="translate(428.271484 0)"/>
     <use xlink:href="#DejaVuSans-Bold-20" transform="translate(487.548828 0)"/>
     <use xlink:href="#DejaVuSans-Bold-50" transform="translate(522.363281 0)"/>
     <use xlink:href="#DejaVuSans-Bold-6f" transform="translate(595.654297 0)"/>
     <use xlink:href="#DejaVuSans-Bold-73" transform="translate(664.355469 0)"/>
     <use xlink:href="#DejaVuSans-Bold-69" transform="translate(723.876953 0)"/>
     <use xlink:href="#DejaVuSans-Bold-74" transform="translate(758.154297 0)"/>
     <use xlink:href="#DejaVuSans-Bold-69" transform="translate(805.957031 0)"/>
     <use xlink:href="#DejaVuSans-Bold-6f" transform="translate(840.234375 0)"/>
     <use xlink:href="#DejaVuSans-Bold-6e" transform="translate(908.935547 0)"/>
    </g>
   </g>
   <g id="text_4">
    <!-- Haplotypes -->
    <g transform="translate(14.798438 167.876676) rotate(-90) scale(0.1 -0.1)">
     <defs>
      <path id="DejaVuSans-Bold-48" d="M 588 4666 
L 1791 4666 
L 1791 2888 
L 3566 2888 
L 3566 4666 
L 4769 4666 
L 4769 0 
L 3566 0 
L 3566 1978 
L 1791 1978 
L 1791 0 
L 588 0 
L 588 4666 
z
" transform="scale(0.015625)"/>
      <path id="DejaVuSans-Bold-70" d="M 1656 506 
L 1656 -1331 
L 538 -1331 
L 538 3500 
L 1656 3500 
L 1656 2988 
Q 1888 3294 2169 3439 
Q 2450 3584 2816 3584 
Q 3463 3584 3878 3070 
Q 4294 2556 4294 1747 
Q 4294 938 3878 423 
Q 3463 -91 2816 -91 
Q 2450 -91 2169 54 
Q 1888 200 1656 506 
z
M 2400 2772 
Q 2041 2772 1848 2508 
Q 1656 2244 1656 1747 
Q 1656 1250 1848 986 
Q 2041 722 2400 722 
Q 2759 722 2948 984 
Q 3138 1247 3138 1747 
Q 3138 2247 2948 2509 
Q 2759 2772 2400 2772 
z
" transform="scale(0.015625)"/>
      <path id="DejaVuSans-Bold-79" d="M 78 3500 
L 1197 3500 
L 2138 1125 
L 2938 3500 
L 4056 3500 
L 2584 -331 
Q 2363 -916 2067 -1148 
Q 1772 -1381 1288 -1381 
L 641 -1381 
L 641 -647 
L 991 -647 
Q 1275 -647 1404 -556 
Q 1534 -466 1606 -231 
L 1638 -134 
L 78 3500 
z
" transform="scale(0.015625)"/>
     </defs>
     <use xlink:href="#DejaVuSans-Bold-48"/>
     <use xlink:href="#DejaVuSans-Bold-61" transform="translate(83.691406 0)"/>
     <use xlink:href="#DejaVuSans-Bold-70" transform="translate(151.171875 0)"/>
     <use xlink:href="#DejaVuSans-Bold-6c" transform="translate(222.753906 0)"/>
     <use xlink:href="#DejaVuSans-Bold-6f" transform="translate(257.03125 0)"/>
     <use xlink:href="#DejaVuSans-Bold-74" transform="translate(325.732422 0)"/>
     <use xlink:href="#DejaVuSans-Bold-79" transform="translate(373.535156 0)"/>
     <use xlink:href="#DejaVuSans-Bold-70" transform="translate(438.720703 0)"/>
     <use xlink:href="#DejaVuSans-Bold-65" transform="translate(510.302734 0)"/>
     <use xlink:href="#DejaVuSans-Bold-73" transform="translate(578.125 0)"/>
    </g>
   </g>
   <g id="text_5">
    <!-- A. Haplotype Structure -->
    <g transform="translate(24.83833 15.558281) scale(0.11 -0.11)">
     <defs>
      <path id="DejaVuSans-Bold-41" d="M 3419 850 
L 1538 850 
L 1241 0 
L 31 0 
L 1759 4666 
L 3194 4666 
L 4922 0 
L 3713 0 
L 3419 850 
z
M 1838 1716 
L 3116 1716 
L 2478 3572 
L 1838 1716 
z
" transform="scale(0.015625)"/>
      <path id="DejaVuSans-Bold-2e" d="M 653 1209 
L 1778 1209 
L 1778 0 
L 653 0 
L 653 1209 
z
" transform="scale(0.015625)"/>
      <path id="DejaVuSans-Bold-53" d="M 3834 4519 
L 3834 3531 
Q 3450 3703 3084 3790 
Q 2719 3878 2394 3878 
Q 1963 3878 1756 3759 
Q 1550 3641 1550 3391 
Q 1550 3203 1689 3098 
Q 1828 2994 2194 2919 
L 2706 2816 
Q 3484 2659 3812 2340 
Q 4141 2022 4141 1434 
Q 4141 663 3683 286 
Q 3225 -91 2284 -91 
Q 1841 -91 1394 -6 
Q 947 78 500 244 
L 500 1259 
Q 947 1022 1364 901 
Q 1781 781 2169 781 
Q 2563 781 2772 912 
Q 2981 1044 2981 1288 
Q 2981 1506 2839 1625 
Q 2697 1744 2272 1838 
L 1806 1941 
Q 1106 2091 782 2419 
Q 459 2747 459 3303 
Q 459 4000 909 4375 
Q 1359 4750 2203 4750 
Q 2588 4750 2994 4692 
Q 3400 4634 3834 4519 
z
" transform="scale(0.015625)"/>
      <path id="DejaVuSans-Bold-72" d="M 3138 2547 
Q 2991 2616 2845 2648 
Q 2700 2681 2553 2681 
Q 2122 2681 1889 2404 
Q 1656 2128 1656 1613 
L 1656 0 
L 538 0 
L 538 3500 
L 1656 3500 
L 1656 2925 
Q 1872 3269 2151 3426 
Q 2431 3584 2822 3584 
Q 2878 3584 2943 3579 
Q 3009 3575 3134 3559 
L 3138 2547 
z
" transform="scale(0.015625)"/>
     </defs>
     <use xlink:href="#DejaVuSans-Bold-41"/>
     <use xlink:href="#DejaVuSans-Bold-2e" transform="translate(79.267578 0)"/>
     <use xlink:href="#DejaVuSans-Bold-20" transform="translate(117.255859 0)"/>
     <use xlink:href="#DejaVuSans-Bold-48" transform="translate(152.070312 0)"/>
     <use xlink:href="#DejaVuSans-Bold-61" transform="translate(235.761719 0)"/>
     <use xlink:href="#DejaVuSans-Bold-70" transform="translate(303.242188 0)"/>
     <use xlink:href="#DejaVuSans-Bold-6c" transform="translate(374.824219 0)"/>
     <use xlink:href="#DejaVuSans-Bold-6f" transform="translate(409.101562 0)"/>
     <use xlink:href="#DejaVuSans-Bold-74" transform="translate(477.802734 0)"/>
     <use xlink:href="#DejaVuSans-Bold-79" transform="translate(525.605469 0)"/>
     <use xlink:href="#DejaVuSans-Bold-70" transform="translate(590.791016 0)"/>
     <use xlink:href="#DejaVuSans-Bold-65" transform="translate(662.373047 0)"/>
     <use xlink:href="#DejaVuSans-Bold-20" transform="translate(730.195312 0)"/>
     <use xlink:href="#DejaVuSans-Bold-53" transform="translate(765.009766 0)"/>
     <use xlink:href="#DejaVuSans-Bold-74" transform="translate(837.03125 0)"/>
     <use xlink:href="#DejaVuSans-Bold-72" transform="translate(884.833984 0)"/>
     <use xlink:href="#DejaVuSans-Bold-75" transform="translate(934.150391 0)"/>
     <use xlink:href="#DejaVuSans-Bold-63" transform="translate(1005.341797 0)"/>
     <use xlink:href="#DejaVuSans-Bold-74" transform="translate(1064.619141 0)"/>
     <use xlink:href="#DejaVuSans-Bold-75" transform="translate(1112.421875 0)"/>
     <use xlink:href="#DejaVuSans-Bold-72" transform="translate(1183.613281 0)"/>
     <use xlink:href="#DejaVuSans-Bold-65" transform="translate(1232.929688 0)"/>
    </g>
   </g>
   <g id="legend_1">
    <g id="patch_83">
     <path d="M 30.43833 51.443281 
L 120.27833 51.443281 
Q 121.87833 51.443281 121.87833 49.843281 
L 121.87833 27.158281 
Q 121.87833 25.558281 120.27833 25.558281 
L 30.43833 25.558281 
Q 28.83833 25.558281 28.83833 27.158281 
L 28.83833 49.843281 
Q 28.83833 51.443281 30.43833 51.443281 
z
" style="fill: #ffffff; opacity: 0.8; stroke: #cccccc; stroke-linejoin: miter"/>
    </g>
    <g id="patch_84">
     <path d="M 32.03833 34.837031 
L 48.03833 34.837031 
L 48.03833 29.237031 
L 32.03833 29.237031 
z
" style="fill: #1f77b4; stroke: #ffffff; stroke-linejoin: miter"/>
    </g>
    <g id="text_6">
     <!-- Reference allele -->
     <g transform="translate(54.43833 34.837031) scale(0.08 -0.08)">
      <defs>
       <path id="DejaVuSans-52" d="M 2841 2188 
Q 3044 2119 3236 1894 
Q 3428 1669 3622 1275 
L 4263 0 
L 3584 0 
L 2988 1197 
Q 2756 1666 2539 1819 
Q 2322 1972 1947 1972 
L 1259 1972 
L 1259 0 
L 628 0 
L 628 4666 
L 2053 4666 
Q 2853 4666 3247 4331 
Q 3641 3997 3641 3322 
Q 3641 2881 3436 2590 
Q 3231 2300 2841 2188 
z
M 1259 4147 
L 1259 2491 
L 2053 2491 
Q 2509 2491 2742 2702 
Q 2975 2913 2975 3322 
Q 2975 3731 2742 3939 
Q 2509 4147 2053 4147 
L 1259 4147 
z
" transform="scale(0.015625)"/>
       <path id="DejaVuSans-65" d="M 3597 1894 
L 3597 1613 
L 953 1613 
Q 991 1019 1311 708 
Q 1631 397 2203 397 
Q 2534 397 2845 478 
Q 3156 559 3463 722 
L 3463 178 
Q 3153 47 2828 -22 
Q 2503 -91 2169 -91 
Q 1331 -91 842 396 
Q 353 884 353 1716 
Q 353 2575 817 3079 
Q 1281 3584 2069 3584 
Q 2775 3584 3186 3129 
Q 3597 2675 3597 1894 
z
M 3022 2063 
Q 3016 2534 2758 2815 
Q 2500 3097 2075 3097 
Q 1594 3097 1305 2825 
Q 1016 2553 972 2059 
L 3022 2063 
z
" transform="scale(0.015625)"/>
       <path id="DejaVuSans-66" d="M 2375 4863 
L 2375 4384 
L 1825 4384 
Q 1516 4384 1395 4259 
Q 1275 4134 1275 3809 
L 1275 3500 
L 2222 3500 
L 2222 3053 
L 1275 3053 
L 1275 0 
L 697 0 
L 697 3053 
L 147 3053 
L 147 3500 
L 697 3500 
L 697 3744 
Q 697 4328 969 4595 
Q 1241 4863 1831 4863 
L 2375 4863 
z
" transform="scale(0.015625)"/>
       <path id="DejaVuSans-72" d="M 2631 2963 
Q 2534 3019 2420 3045 
Q 2306 3072 2169 3072 
Q 1681 3072 1420 2755 
Q 1159 2438 1159 1844 
L 1159 0 
L 581 0 
L 581 3500 
L 1159 3500 
L 1159 2956 
Q 1341 3275 1631 3429 
Q 1922 3584 2338 3584 
Q 2397 3584 2469 3576 
Q 2541 3569 2628 3553 
L 2631 2963 
z
" transform="scale(0.015625)"/>
       <path id="DejaVuSans-6e" d="M 3513 2113 
L 3513 0 
L 2938 0 
L 2938 2094 
Q 2938 2591 2744 2837 
Q 2550 3084 2163 3084 
Q 1697 3084 1428 2787 
Q 1159 2491 1159 1978 
L 1159 0 
L 581 0 
L 581 3500 
L 1159 3500 
L 1159 2956 
Q 1366 3272 1645 3428 
Q 1925 3584 2291 3584 
Q 2894 3584 3203 3211 
Q 3513 2838 3513 2113 
z
" transform="scale(0.015625)"/>
       <path id="DejaVuSans-61" d="M 2194 1759 
Q 1497 1759 1228 1600 
Q 959 1441 959 1056 
Q 959 750 1161 570 
Q 1363 391 1709 391 
Q 2188 391 2477 730 
Q 2766 1069 2766 1631 
L 2766 1759 
L 2194 1759 
z
M 3341 1997 
L 3341 0 
L 2766 0 
L 2766 531 
Q 2569 213 2275 61 
Q 1981 -91 1556 -91 
Q 1019 -91 701 211 
Q 384 513 384 1019 
Q 384 1609 779 1909 
Q 1175 2209 1959 2209 
L 2766 2209 
L 2766 2266 
Q 2766 2663 2505 2880 
Q 2244 3097 1772 3097 
Q 1472 3097 1187 3025 
Q 903 2953 641 2809 
L 641 3341 
Q 956 3463 1253 3523 
Q 1550 3584 1831 3584 
Q 2591 3584 2966 3190 
Q 3341 2797 3341 1997 
z
" transform="scale(0.015625)"/>
      </defs>
      <use xlink:href="#DejaVuSans-52"/>
      <use xlink:href="#DejaVuSans-65" transform="translate(64.982422 0)"/>
      <use xlink:href="#DejaVuSans-66" transform="translate(126.505859 0)"/>
      <use xlink:href="#DejaVuSans-65" transform="translate(161.710938 0)"/>
      <use xlink:href="#DejaVuSans-72" transform="translate(223.234375 0)"/>
      <use xlink:href="#DejaVuSans-65" transform="translate(262.097656 0)"/>
      <use xlink:href="#DejaVuSans-6e" transform="translate(323.621094 0)"/>
      <use xlink:href="#DejaVuSans-63" transform="translate(387 0)"/>
      <use xlink:href="#DejaVuSans-65" transform="translate(441.980469 0)"/>
      <use xlink:href="#DejaVuSans-20" transform="translate(503.503906 0)"/>
      <use xlink:href="#DejaVuSans-61" transform="translate(535.291016 0)"/>
      <use xlink:href="#DejaVuSans-6c" transform="translate(596.570312 0)"/>
      <use xlink:href="#DejaVuSans-6c" transform="translate(624.353516 0)"/>
      <use xlink:href="#DejaVuSans-65" transform="translate(652.136719 0)"/>
      <use xlink:href="#DejaVuSans-6c" transform="translate(713.660156 0)"/>
      <use xlink:href="#DejaVuSans-65" transform="translate(741.443359 0)"/>
     </g>
    </g>
    <g id="patch_85">
     <path d="M 32.03833 46.579531 
L 48.03833 46.579531 
L 48.03833 40.979531 
L 32.03833 40.979531 
z
" style="fill: #ff7f0e; stroke: #ffffff; stroke-linejoin: miter"/>
    </g>
    <g id="text_7">
     <!-- Alternate allele -->
     <g transform="translate(54.43833 46.579531) scale(0.08 -0.08)">
      <defs>
       <path id="DejaVuSans-41" d="M 2188 4044 
L 1331 1722 
L 3047 1722 
L 2188 4044 
z
M 1831 4666 
L 2547 4666 
L 4325 0 
L 3669 0 
L 3244 1197 
L 1141 1197 
L 716 0 
L 50 0 
L 1831 4666 
z
" transform="scale(0.015625)"/>
       <path id="DejaVuSans-74" d="M 1172 4494 
L 1172 3500 
L 2356 3500 
L 2356 3053 
L 1172 3053 
L 1172 1153 
Q 1172 725 1289 603 
Q 1406 481 1766 481 
L 2356 481 
L 2356 0 
L 1766 0 
Q 1100 0 847 248 
Q 594 497 594 1153 
L 594 3053 
L 172 3053 
L 172 3500 
L 594 3500 
L 594 4494 
L 1172 4494 
z
" transform="scale(0.015625)"/>
      </defs>
      <use xlink:href="#DejaVuSans-41"/>
      <use xlink:href="#DejaVuSans-6c" transform="translate(68.408203 0)"/>
      <use xlink:href="#DejaVuSans-74" transform="translate(96.191406 0)"/>
      <use xlink:href="#DejaVuSans-65" transform="translate(135.400391 0)"/>
      <use xlink:href="#DejaVuSans-72" transform="translate(196.923828 0)"/>
      <use xlink:href="#DejaVuSans-6e" transform="translate(236.287109 0)"/>
      <use xlink:href="#DejaVuSans-61" transform="translate(299.666016 0)"/>
      <use xlink:href="#DejaVuSans-74" transform="translate(360.945312 0)"/>
      <use xlink:href="#DejaVuSans-65" transform="translate(400.154297 0)"/>
      <use xlink:href="#DejaVuSans-20" transform="translate(461.677734 0)"/>
      <use xlink:href="#DejaVuSans-61" transform="translate(493.464844 0)"/>
      <use xlink:href="#DejaVuSans-6c" transform="translate(554.744141 0)"/>
      <use xlink:href="#DejaVuSans-6c" transform="translate(582.527344 0)"/>
      <use xlink:href="#DejaVuSans-65" transform="translate(610.310547 0)"/>
      <use xlink:href="#DejaVuSans-6c" transform="translate(671.833984 0)"/>
      <use xlink:href="#DejaVuSans-65" transform="translate(699.617188 0)"/>
     </g>
    </g>
   </g>
  </g>
 </g>
 <defs>
  <clipPath id="pf7d468fddf">
   <rect x="24.83833" y="21.558281" width="394.104" height="251.76"/>
  </clipPath>
 </defs>
</svg>
