<?xml version="1.0" encoding="utf-8" ?>
<svg xmlns="http://www.w3.org/2000/svg" xmlns:ev="http://www.w3.org/2001/xml-events" xmlns:xlink="http://www.w3.org/1999/xlink" baseProfile="full" height="800" version="1.1" width="1200">
  <defs>
    <marker id="id19" markerHeight="7" markerWidth="7" orient="auto" refX="6" refY="3">
      <path d="M0,0 L0,6 L6,3 z" fill="#333333"/>
    </marker>
  </defs>
  <rect fill="white" height="800" width="1200" x="0" y="0"/>
  <text fill="#111" font-family="Arial, Helvetica, sans-serif" font-size="28" font-weight="700" x="60" y="50">Figure 3.4: Polygenic Score Construction (Two-Panel)</text>
  <text fill="#444" font-family="Arial, Helvetica, sans-serif" font-size="16" x="60" y="78">Panel A</text>
  <line stroke="#333" stroke-width="2" x1="140" x2="1000" y1="720" y2="720"/>
  <line stroke="#333" stroke-width="2" x1="140" x2="140" y1="160" y2="720"/>
  <circle cx="446.208835664363" cy="522.0436477341185" fill="#2ca02c" opacity="0.75" r="4"/>
  <circle cx="453.07910114187587" cy="546.1849671416601" fill="#2ca02c" opacity="0.75" r="4"/>
  <circle cx="410.2957289675846" cy="498.9727030865225" fill="#2ca02c" opacity="0.75" r="4"/>
  <circle cx="493.7736551010557" cy="571.1309229342254" fill="#ff7f0e" opacity="0.75" r="4"/>
  <circle cx="356.53297164554135" cy="485.9234403957375" fill="#2ca02c" opacity="0.75" r="4"/>
  <circle cx="465.1340524850851" cy="441.3841399079654" fill="#2ca02c" opacity="0.75" r="4"/>
  <circle cx="456.7485772039608" cy="538.8048620966263" fill="#1f77b4" opacity="0.75" r="4"/>
  <circle cx="397.58428707350345" cy="491.9463762000524" fill="#2ca02c" opacity="0.75" r="4"/>
  <circle cx="398.24631629674406" cy="555.4413141010596" fill="#1f77b4" opacity="0.75" r="4"/>
  <circle cx="363.7477922476315" cy="423.52757520934966" fill="#2ca02c" opacity="0.75" r="4"/>
  <circle cx="440.81395682105517" cy="529.1695648881894" fill="#1f77b4" opacity="0.75" r="4"/>
  <circle cx="341.47323568899594" cy="568.2913791757301" fill="#ff7f0e" opacity="0.75" r="4"/>
  <circle cx="415.6507878502981" cy="558.4831480326659" fill="#ff7f0e" opacity="0.75" r="4"/>
  <circle cx="387.8775735778527" cy="468.46877373177637" fill="#1f77b4" opacity="0.75" r="4"/>
  <circle cx="355.26731851497306" cy="549.4186057823255" fill="#2ca02c" opacity="0.75" r="4"/>
  <circle cx="370.5377709593411" cy="432.2333367321219" fill="#1f77b4" opacity="0.75" r="4"/>
  <circle cx="405.48727381310795" cy="537.5123903515995" fill="#ff7f0e" opacity="0.75" r="4"/>
  <circle cx="347.8281362705467" cy="530.36727637988" fill="#1f77b4" opacity="0.75" r="4"/>
  <circle cx="419.0167933121332" cy="554.4829989045703" fill="#2ca02c" opacity="0.75" r="4"/>
  <circle cx="390.3686644403149" cy="547.0757383814635" fill="#1f77b4" opacity="0.75" r="4"/>
  <circle cx="449.9193413973862" cy="592.4985825308913" fill="#2ca02c" opacity="0.75" r="4"/>
  <circle cx="389.49570411307457" cy="569.9701891974034" fill="#1f77b4" opacity="0.75" r="4"/>
  <circle cx="391.39556424264" cy="575.3838716085271" fill="#2ca02c" opacity="0.75" r="4"/>
  <circle cx="408.9870547383979" cy="608.4726755089207" fill="#1f77b4" opacity="0.75" r="4"/>
  <circle cx="293.05621156155394" cy="504.94572374799037" fill="#ff7f0e" opacity="0.75" r="4"/>
  <circle cx="406.34908701983994" cy="520.7158518308008" fill="#2ca02c" opacity="0.75" r="4"/>
  <circle cx="381.6104981614579" cy="476.323685750622" fill="#2ca02c" opacity="0.75" r="4"/>
  <circle cx="473.6451647605207" cy="569.6334242439766" fill="#2ca02c" opacity="0.75" r="4"/>
  <circle cx="269.28841302500444" cy="548.5906574167359" fill="#ff7f0e" opacity="0.75" r="4"/>
  <circle cx="412.90613157237607" cy="438.8745839134043" fill="#1f77b4" opacity="0.75" r="4"/>
  <circle cx="427.6839301416428" cy="493.4379065547071" fill="#ff7f0e" opacity="0.75" r="4"/>
  <circle cx="435.25574369606886" cy="466.41280816609134" fill="#ff7f0e" opacity="0.75" r="4"/>
  <circle cx="462.367836744452" cy="533.7181728087851" fill="#ff7f0e" opacity="0.75" r="4"/>
  <circle cx="502.9930764785123" cy="649.4905175884177" fill="#1f77b4" opacity="0.75" r="4"/>
  <circle cx="309.0817736300688" cy="500.33999996138334" fill="#ff7f0e" opacity="0.75" r="4"/>
  <circle cx="393.5350598845472" cy="548.8752792776545" fill="#2ca02c" opacity="0.75" r="4"/>
  <circle cx="398.72548679494037" cy="563.4361257421311" fill="#ff7f0e" opacity="0.75" r="4"/>
  <circle cx="556.7530266513179" cy="535.8720344824067" fill="#1f77b4" opacity="0.75" r="4"/>
  <circle cx="406.20701111517013" cy="476.29328931045904" fill="#1f77b4" opacity="0.75" r="4"/>
  <circle cx="344.98321898854215" cy="511.3715132879638" fill="#ff7f0e" opacity="0.75" r="4"/>
  <circle cx="444.7116964434746" cy="526.8731161231844" fill="#2ca02c" opacity="0.75" r="4"/>
  <circle cx="422.12562076368766" cy="454.5218129274081" fill="#1f77b4" opacity="0.75" r="4"/>
  <circle cx="406.2758656158219" cy="581.1564077884012" fill="#1f77b4" opacity="0.75" r="4"/>
  <circle cx="327.56231881541123" cy="544.9378788411907" fill="#ff7f0e" opacity="0.75" r="4"/>
  <circle cx="361.51900071224605" cy="453.3154690072655" fill="#1f77b4" opacity="0.75" r="4"/>
  <circle cx="433.47458882134015" cy="511.4305242279348" fill="#2ca02c" opacity="0.75" r="4"/>
  <circle cx="548.6483546303775" cy="582.854584617498" fill="#1f77b4" opacity="0.75" r="4"/>
  <circle cx="462.5828971114514" cy="582.4731594918208" fill="#1f77b4" opacity="0.75" r="4"/>
  <circle cx="305.62123199731025" cy="501.4408477216987" fill="#1f77b4" opacity="0.75" r="4"/>
  <circle cx="297.5935177658391" cy="581.4359815981597" fill="#1f77b4" opacity="0.75" r="4"/>
  <circle cx="395.87753754750383" cy="537.5535937004727" fill="#1f77b4" opacity="0.75" r="4"/>
  <circle cx="438.27007223623644" cy="512.853866717256" fill="#1f77b4" opacity="0.75" r="4"/>
  <circle cx="443.50775041796345" cy="463.5353903860716" fill="#1f77b4" opacity="0.75" r="4"/>
  <circle cx="322.9576057575837" cy="522.5725350207329" fill="#ff7f0e" opacity="0.75" r="4"/>
  <circle cx="333.8288384235333" cy="460.63652428913264" fill="#2ca02c" opacity="0.75" r="4"/>
  <circle cx="657.1144021337631" cy="377.4246073775962" fill="#ff7f0e" opacity="0.75" r="4"/>
  <circle cx="592.7751626196625" cy="444.5993598858875" fill="#ff7f0e" opacity="0.75" r="4"/>
  <circle cx="711.9051037416768" cy="402.03063526489746" fill="#ff7f0e" opacity="0.75" r="4"/>
  <circle cx="452.76796968119766" cy="424.8536270793689" fill="#ff7f0e" opacity="0.75" r="4"/>
  <circle cx="725.9913374132437" cy="499.2265167492404" fill="#ff7f0e" opacity="0.75" r="4"/>
  <circle cx="564.2954818774108" cy="458.08717508202966" fill="#2ca02c" opacity="0.75" r="4"/>
  <circle cx="685.7465517181383" cy="445.4327378122495" fill="#ff7f0e" opacity="0.75" r="4"/>
  <circle cx="694.019332486288" cy="464.6895712453718" fill="#ff7f0e" opacity="0.75" r="4"/>
  <circle cx="686.7390652987067" cy="450.77742321123355" fill="#2ca02c" opacity="0.75" r="4"/>
  <circle cx="499.6577454586729" cy="377.5040586361931" fill="#ff7f0e" opacity="0.75" r="4"/>
  <circle cx="704.3321419695603" cy="445.6890370739136" fill="#ff7f0e" opacity="0.75" r="4"/>
  <circle cx="532.8625136924408" cy="358.9433136908324" fill="#1f77b4" opacity="0.75" r="4"/>
  <circle cx="620.3261934570289" cy="442.30341185569574" fill="#1f77b4" opacity="0.75" r="4"/>
  <circle cx="655.1146157096898" cy="435.29176413524715" fill="#2ca02c" opacity="0.75" r="4"/>
  <circle cx="690.585801994929" cy="473.03733439678274" fill="#1f77b4" opacity="0.75" r="4"/>
  <circle cx="586.3459343970183" cy="245.45068291707742" fill="#2ca02c" opacity="0.75" r="4"/>
  <circle cx="739.558283471299" cy="299.08690844367806" fill="#ff7f0e" opacity="0.75" r="4"/>
  <circle cx="582.6727345376928" cy="478.56529198158995" fill="#2ca02c" opacity="0.75" r="4"/>
  <circle cx="677.0009870781673" cy="352.09407373250065" fill="#1f77b4" opacity="0.75" r="4"/>
  <circle cx="718.325522079618" cy="393.47907995196385" fill="#ff7f0e" opacity="0.75" r="4"/>
  <circle cx="600.9625735686269" cy="419.42340861490794" fill="#2ca02c" opacity="0.75" r="4"/>
  <circle cx="611.939520598903" cy="453.69795106104436" fill="#1f77b4" opacity="0.75" r="4"/>
  <circle cx="517.280775506473" cy="460.11047242159253" fill="#1f77b4" opacity="0.75" r="4"/>
  <circle cx="704.2363294389473" cy="413.77736747168194" fill="#ff7f0e" opacity="0.75" r="4"/>
  <circle cx="711.9727543539256" cy="428.8154172675023" fill="#2ca02c" opacity="0.75" r="4"/>
  <circle cx="706.6736452803005" cy="403.1293460139051" fill="#1f77b4" opacity="0.75" r="4"/>
  <circle cx="840.5958833783034" cy="421.91892073105555" fill="#ff7f0e" opacity="0.75" r="4"/>
  <circle cx="650.5958911466688" cy="456.3156083567858" fill="#ff7f0e" opacity="0.75" r="4"/>
  <circle cx="524.059826092173" cy="395.00541972501105" fill="#1f77b4" opacity="0.75" r="4"/>
  <circle cx="586.0384740925117" cy="397.2791159015618" fill="#2ca02c" opacity="0.75" r="4"/>
  <circle cx="711.891973963296" cy="409.270010752565" fill="#ff7f0e" opacity="0.75" r="4"/>
  <circle cx="626.0788972774806" cy="431.1053418036254" fill="#1f77b4" opacity="0.75" r="4"/>
  <circle cx="562.4278750652576" cy="434.03702639982515" fill="#1f77b4" opacity="0.75" r="4"/>
  <circle cx="730.9970371942906" cy="364.76937000675775" fill="#2ca02c" opacity="0.75" r="4"/>
  <circle cx="527.776714110147" cy="429.9020465450981" fill="#ff7f0e" opacity="0.75" r="4"/>
  <circle cx="774.970226219881" cy="444.11715086757556" fill="#1f77b4" opacity="0.75" r="4"/>
  <circle cx="575.5346883013552" cy="399.24654097492146" fill="#1f77b4" opacity="0.75" r="4"/>
  <circle cx="668.1584557581012" cy="418.2180567949787" fill="#1f77b4" opacity="0.75" r="4"/>
  <circle cx="736.5446990859981" cy="460.03848814967915" fill="#1f77b4" opacity="0.75" r="4"/>
  <circle cx="699.1530413832296" cy="461.8898355410377" fill="#ff7f0e" opacity="0.75" r="4"/>
  <circle cx="515.0989657262264" cy="421.4029262526527" fill="#2ca02c" opacity="0.75" r="4"/>
  <circle cx="724.9858887714074" cy="419.75869552617235" fill="#ff7f0e" opacity="0.75" r="4"/>
  <circle cx="565.4985535519618" cy="455.71069834314574" fill="#ff7f0e" opacity="0.75" r="4"/>
  <circle cx="754.2210124167722" cy="504.5389521724667" fill="#1f77b4" opacity="0.75" r="4"/>
  <circle cx="778.2228257906747" cy="402.4303294411514" fill="#1f77b4" opacity="0.75" r="4"/>
  <circle cx="606.1649373011629" cy="385.52290135952387" fill="#ff7f0e" opacity="0.75" r="4"/>
  <circle cx="691.4078976908253" cy="377.99960359952877" fill="#2ca02c" opacity="0.75" r="4"/>
  <circle cx="580.622571295684" cy="424.898204247218" fill="#1f77b4" opacity="0.75" r="4"/>
  <circle cx="640.4746477994252" cy="334.52636331556454" fill="#2ca02c" opacity="0.75" r="4"/>
  <circle cx="738.4727485701326" cy="408.66856938803033" fill="#1f77b4" opacity="0.75" r="4"/>
  <circle cx="647.7606211510771" cy="288.66504867884123" fill="#1f77b4" opacity="0.75" r="4"/>
  <circle cx="677.6110282903608" cy="339.58232727929317" fill="#2ca02c" opacity="0.75" r="4"/>
  <circle cx="657.8875511661886" cy="422.50207435374256" fill="#ff7f0e" opacity="0.75" r="4"/>
  <circle cx="671.4089349899896" cy="438.1841613706658" fill="#1f77b4" opacity="0.75" r="4"/>
  <circle cx="541.6684584136979" cy="379.712594986497" fill="#ff7f0e" opacity="0.75" r="4"/>
  <circle cx="474.116168513526" cy="576.7385604601109" fill="#2ca02c" opacity="0.75" r="4"/>
  <circle cx="507.1440845242333" cy="486.6473269006534" fill="#ff7f0e" opacity="0.75" r="4"/>
  <circle cx="462.4455650120363" cy="567.4618102676882" fill="#2ca02c" opacity="0.75" r="4"/>
  <circle cx="529.2349027187164" cy="616.9152404863382" fill="#1f77b4" opacity="0.75" r="4"/>
  <circle cx="474.5858168269633" cy="611.2092641661369" fill="#2ca02c" opacity="0.75" r="4"/>
  <circle cx="527.6075929110334" cy="549.2712742388578" fill="#2ca02c" opacity="0.75" r="4"/>
  <circle cx="538.2745315349146" cy="580.5765865379296" fill="#ff7f0e" opacity="0.75" r="4"/>
  <circle cx="446.7206116776927" cy="582.8937888818182" fill="#2ca02c" opacity="0.75" r="4"/>
  <circle cx="571.7191643714782" cy="584.5851252691705" fill="#ff7f0e" opacity="0.75" r="4"/>
  <circle cx="575.793155476659" cy="542.3224419919418" fill="#2ca02c" opacity="0.75" r="4"/>
  <circle cx="521.4665440855131" cy="477.4418245978981" fill="#1f77b4" opacity="0.75" r="4"/>
  <circle cx="577.508381549238" cy="604.587124069614" fill="#2ca02c" opacity="0.75" r="4"/>
  <circle cx="511.25928198263534" cy="577.396438780577" fill="#2ca02c" opacity="0.75" r="4"/>
  <circle cx="671.1317660302429" cy="560.506104080174" fill="#ff7f0e" opacity="0.75" r="4"/>
  <circle cx="576.814383040151" cy="549.2782671117974" fill="#1f77b4" opacity="0.75" r="4"/>
  <circle cx="527.765142295259" cy="594.2385102758723" fill="#2ca02c" opacity="0.75" r="4"/>
  <circle cx="473.53062557933043" cy="592.1081095108618" fill="#1f77b4" opacity="0.75" r="4"/>
  <circle cx="431.11916278732883" cy="561.7070747050723" fill="#ff7f0e" opacity="0.75" r="4"/>
  <circle cx="483.332193781528" cy="626.8586265550352" fill="#2ca02c" opacity="0.75" r="4"/>
  <circle cx="421.5096788129318" cy="615.5765495961289" fill="#1f77b4" opacity="0.75" r="4"/>
  <circle cx="566.399447981408" cy="604.5497938215599" fill="#ff7f0e" opacity="0.75" r="4"/>
  <circle cx="613.2298854344447" cy="594.3865362511681" fill="#2ca02c" opacity="0.75" r="4"/>
  <circle cx="437.8591708500321" cy="516.3901024844624" fill="#ff7f0e" opacity="0.75" r="4"/>
  <circle cx="531.0719297807037" cy="532.9631038438687" fill="#ff7f0e" opacity="0.75" r="4"/>
  <circle cx="517.7880932003151" cy="596.9874207788602" fill="#1f77b4" opacity="0.75" r="4"/>
  <circle cx="591.5188107111741" cy="569.7496688407499" fill="#ff7f0e" opacity="0.75" r="4"/>
  <circle cx="550.592862713454" cy="559.5363075719213" fill="#1f77b4" opacity="0.75" r="4"/>
  <circle cx="394.4293786248861" cy="558.6373561045775" fill="#2ca02c" opacity="0.75" r="4"/>
  <circle cx="408.44499474299135" cy="623.6121034870546" fill="#2ca02c" opacity="0.75" r="4"/>
  <circle cx="544.5174617371199" cy="530.166727307185" fill="#ff7f0e" opacity="0.75" r="4"/>
  <circle cx="613.2665560672676" cy="648.8323273000303" fill="#1f77b4" opacity="0.75" r="4"/>
  <circle cx="634.3907416989532" cy="582.1226825120455" fill="#ff7f0e" opacity="0.75" r="4"/>
  <circle cx="553.7507554489416" cy="557.4791878833489" fill="#2ca02c" opacity="0.75" r="4"/>
  <circle cx="462.24480154668754" cy="596.9655500539441" fill="#1f77b4" opacity="0.75" r="4"/>
  <circle cx="450.28378499259037" cy="553.0401622256675" fill="#2ca02c" opacity="0.75" r="4"/>
  <circle cx="509.0267518466461" cy="592.55882847117" fill="#ff7f0e" opacity="0.75" r="4"/>
  <circle cx="615.6962574157465" cy="605.0180347835455" fill="#2ca02c" opacity="0.75" r="4"/>
  <circle cx="552.9621843086059" cy="543.8648090912069" fill="#1f77b4" opacity="0.75" r="4"/>
  <circle cx="574.3768492472544" cy="527.9369725166785" fill="#2ca02c" opacity="0.75" r="4"/>
  <circle cx="498.963689754409" cy="548.5385850816056" fill="#1f77b4" opacity="0.75" r="4"/>
  <circle cx="500.71839972784954" cy="604.6890480016903" fill="#1f77b4" opacity="0.75" r="4"/>
  <circle cx="606.3063392908439" cy="612.8967500218487" fill="#ff7f0e" opacity="0.75" r="4"/>
  <circle cx="553.4126246655467" cy="615.3237772190025" fill="#2ca02c" opacity="0.75" r="4"/>
  <circle cx="554.4531317024612" cy="596.4816058041419" fill="#ff7f0e" opacity="0.75" r="4"/>
  <circle cx="428.7514913026052" cy="536.1662147534421" fill="#ff7f0e" opacity="0.75" r="4"/>
  <circle cx="489.70120029764126" cy="612.9937426530663" fill="#2ca02c" opacity="0.75" r="4"/>
  <circle cx="538.7675917354234" cy="616.2484679871691" fill="#2ca02c" opacity="0.75" r="4"/>
  <circle cx="476.9443285076899" cy="640.5380778595847" fill="#1f77b4" opacity="0.75" r="4"/>
  <circle cx="569.9370556054383" cy="608.7772145153824" fill="#2ca02c" opacity="0.75" r="4"/>
  <circle cx="429.8203958497054" cy="568.6601269612393" fill="#2ca02c" opacity="0.75" r="4"/>
  <circle cx="559.471507942863" cy="553.53976143717" fill="#2ca02c" opacity="0.75" r="4"/>
  <circle cx="415.94176697476263" cy="657.41365351804" fill="#ff7f0e" opacity="0.75" r="4"/>
  <circle cx="512.4372323459141" cy="617.2820714808202" fill="#1f77b4" opacity="0.75" r="4"/>
  <circle cx="554.6795324617826" cy="655.2468010407463" fill="#ff7f0e" opacity="0.75" r="4"/>
  <circle cx="494.2156466683965" cy="617.4931190310901" fill="#ff7f0e" opacity="0.75" r="4"/>
  <circle cx="914.0" cy="244.0" fill="#d62728" opacity="0.9" r="7"/>
  <text fill="#333" font-family="Arial, Helvetica, sans-serif" font-size="16" text-anchor="middle" x="570.0" y="765">Dimension 1</text>
  <text fill="#333" font-family="Arial, Helvetica, sans-serif" font-size="16" text-anchor="middle" transform="rotate(-90,85,440.0)" x="85" y="440.0">Dimension 2</text>
  <text fill="#999" font-family="Arial, Helvetica, sans-serif" font-size="12" text-anchor="end" x="1140" y="776">Auto-generated SVG</text>
</svg>
