<?xml version="1.0" encoding="utf-8" standalone="no"?>
<!DOCTYPE svg PUBLIC "-//W3C//DTD SVG 1.1//EN"
  "http://www.w3.org/Graphics/SVG/1.1/DTD/svg11.dtd">
<svg xmlns:xlink="http://www.w3.org/1999/xlink" width="425.028594pt" height="352.186719pt" viewBox="0 0 425.028594 352.186719" xmlns="http://www.w3.org/2000/svg" version="1.1">
 <metadata>
  <rdf:RDF xmlns:dc="http://purl.org/dc/elements/1.1/" xmlns:cc="http://creativecommons.org/ns#" xmlns:rdf="http://www.w3.org/1999/02/22-rdf-syntax-ns#">
   <cc:Work>
    <dc:type rdf:resource="http://purl.org/dc/dcmitype/StillImage"/>
    <dc:date>2026-01-08T05:33:32.098332</dc:date>
    <dc:format>image/svg+xml</dc:format>
    <dc:creator>
     <cc:Agent>
      <dc:title>Matplotlib v3.10.7, https://matplotlib.org/</dc:title>
     </cc:Agent>
    </dc:creator>
   </cc:Work>
  </rdf:RDF>
 </metadata>
 <defs>
  <style type="text/css">*{stroke-linejoin: round; stroke-linecap: butt}</style>
 </defs>
 <g id="figure_1">
  <g id="patch_1">
   <path d="M 0 352.186719 
L 425.028594 352.186719 
L 425.028594 0 
L 0 0 
z
" style="fill: #ffffff"/>
  </g>
  <g id="axes_1">
   <g id="patch_2">
    <path d="M 49.868594 315.598281 
L 417.828594 315.598281 
L 417.828594 21.558281 
L 49.868594 21.558281 
z
" style="fill: #ffffff"/>
   </g>
   <g id="patch_3">
    <path d="M 70.970931 122.800497 
L 75.988567 122.800497 
L 75.988567 81.325206 
L 70.970931 81.325206 
z
" clip-path="url(#p20aa4bc940)" style="fill: #d3d3d3; opacity: 0.4"/>
   </g>
   <g id="patch_4">
    <path d="M 75.588503 122.800497 
L 80.606139 122.800497 
L 80.606139 113.175756 
L 75.588503 113.175756 
z
" clip-path="url(#p20aa4bc940)" style="fill: #d3d3d3; opacity: 0.4"/>
   </g>
   <g id="patch_5">
    <path d="M 79.623315 122.800497 
L 84.640952 122.800497 
L 84.640952 129.295775 
L 79.623315 129.295775 
z
" clip-path="url(#p20aa4bc940)" style="fill: #d3d3d3; opacity: 0.4"/>
   </g>
   <g id="patch_6">
    <path d="M 83.514726 122.800497 
L 88.532363 122.800497 
L 88.532363 139.711707 
L 83.514726 139.711707 
z
" clip-path="url(#p20aa4bc940)" style="fill: #d3d3d3; opacity: 0.4"/>
   </g>
   <g id="patch_7">
    <path d="M 85.845579 122.800497 
L 90.863216 122.800497 
L 90.863216 205.840314 
L 85.845579 205.840314 
z
" clip-path="url(#p20aa4bc940)" style="fill: #d3d3d3; opacity: 0.4"/>
   </g>
   <g id="patch_8">
    <path d="M 96.75744 122.800497 
L 101.775077 122.800497 
L 101.775077 163.22988 
L 96.75744 163.22988 
z
" clip-path="url(#p20aa4bc940)" style="fill: #d3d3d3; opacity: 0.4"/>
   </g>
   <g id="patch_9">
    <path d="M 104.908129 122.800497 
L 109.925765 122.800497 
L 109.925765 148.671846 
L 104.908129 148.671846 
z
" clip-path="url(#p20aa4bc940)" style="fill: #d3d3d3; opacity: 0.4"/>
   </g>
   <g id="patch_10">
    <path d="M 110.747195 122.800497 
L 115.764831 122.800497 
L 115.764831 63.428207 
L 110.747195 63.428207 
z
" clip-path="url(#p20aa4bc940)" style="fill: #d3d3d3; opacity: 0.4"/>
   </g>
   <g id="patch_11">
    <path d="M 116.266815 122.800497 
L 121.284452 122.800497 
L 121.284452 103.501494 
L 116.266815 103.501494 
z
" clip-path="url(#p20aa4bc940)" style="fill: #d3d3d3; opacity: 0.4"/>
   </g>
   <g id="patch_12">
    <path d="M 116.274884 122.800497 
L 121.29252 122.800497 
L 121.29252 221.820013 
L 116.274884 221.820013 
z
" clip-path="url(#p20aa4bc940)" style="fill: #d3d3d3; opacity: 0.4"/>
   </g>
   <g id="patch_13">
    <path d="M 121.1271 122.800497 
L 126.144736 122.800497 
L 126.144736 301.968309 
L 121.1271 301.968309 
z
" clip-path="url(#p20aa4bc940)" style="fill: #d3d3d3; opacity: 0.4"/>
   </g>
   <g id="patch_14">
    <path d="M 124.907335 122.800497 
L 129.924971 122.800497 
L 129.924971 144.428286 
L 124.907335 144.428286 
z
" clip-path="url(#p20aa4bc940)" style="fill: #d3d3d3; opacity: 0.4"/>
   </g>
   <g id="patch_15">
    <path d="M 125.435706 122.800497 
L 130.453342 122.800497 
L 130.453342 160.819194 
L 125.435706 160.819194 
z
" clip-path="url(#p20aa4bc940)" style="fill: #d3d3d3; opacity: 0.4"/>
   </g>
   <g id="patch_16">
    <path d="M 125.920726 122.800497 
L 130.938362 122.800497 
L 130.938362 88.446265 
L 125.920726 88.446265 
z
" clip-path="url(#p20aa4bc940)" style="fill: #d3d3d3; opacity: 0.4"/>
   </g>
   <g id="patch_17">
    <path d="M 130.877925 122.800497 
L 135.895562 122.800497 
L 135.895562 64.895364 
L 130.877925 64.895364 
z
" clip-path="url(#p20aa4bc940)" style="fill: #d3d3d3; opacity: 0.4"/>
   </g>
   <g id="patch_18">
    <path d="M 135.114593 122.800497 
L 140.132229 122.800497 
L 140.132229 70.496012 
L 135.114593 70.496012 
z
" clip-path="url(#p20aa4bc940)" style="fill: #d3d3d3; opacity: 0.4"/>
   </g>
   <g id="patch_19">
    <path d="M 150.649487 122.800497 
L 155.667123 122.800497 
L 155.667123 169.934371 
L 150.649487 169.934371 
z
" clip-path="url(#p20aa4bc940)" style="fill: #d3d3d3; opacity: 0.4"/>
   </g>
   <g id="patch_20">
    <path d="M 161.504025 122.800497 
L 166.521661 122.800497 
L 166.521661 140.167123 
L 161.504025 140.167123 
z
" clip-path="url(#p20aa4bc940)" style="fill: #d3d3d3; opacity: 0.4"/>
   </g>
   <g id="patch_21">
    <path d="M 161.810271 122.800497 
L 166.827907 122.800497 
L 166.827907 104.195393 
L 161.810271 104.195393 
z
" clip-path="url(#p20aa4bc940)" style="fill: #d3d3d3; opacity: 0.4"/>
   </g>
   <g id="patch_22">
    <path d="M 165.857026 122.800497 
L 170.874663 122.800497 
L 170.874663 68.009909 
L 165.857026 68.009909 
z
" clip-path="url(#p20aa4bc940)" style="fill: #d3d3d3; opacity: 0.4"/>
   </g>
   <g id="patch_23">
    <path d="M 165.981305 122.800497 
L 170.998941 122.800497 
L 170.998941 149.712874 
L 165.981305 149.712874 
z
" clip-path="url(#p20aa4bc940)" style="fill: #d3d3d3; opacity: 0.4"/>
   </g>
   <g id="patch_24">
    <path d="M 168.355419 122.800497 
L 173.373055 122.800497 
L 173.373055 133.227861 
L 168.355419 133.227861 
z
" clip-path="url(#p20aa4bc940)" style="fill: #d3d3d3; opacity: 0.4"/>
   </g>
   <g id="patch_25">
    <path d="M 186.636597 122.800497 
L 191.654234 122.800497 
L 191.654234 184.936775 
L 186.636597 184.936775 
z
" clip-path="url(#p20aa4bc940)" style="fill: #d3d3d3; opacity: 0.4"/>
   </g>
   <g id="patch_26">
    <path d="M 189.372305 122.800497 
L 194.389941 122.800497 
L 194.389941 189.984333 
L 189.372305 189.984333 
z
" clip-path="url(#p20aa4bc940)" style="fill: #d3d3d3; opacity: 0.4"/>
   </g>
   <g id="patch_27">
    <path d="M 208.574766 122.800497 
L 213.592402 122.800497 
L 213.592402 77.165737 
L 208.574766 77.165737 
z
" clip-path="url(#p20aa4bc940)" style="fill: #d3d3d3; opacity: 0.4"/>
   </g>
   <g id="patch_28">
    <path d="M 211.320241 122.800497 
L 216.337877 122.800497 
L 216.337877 259.41736 
L 211.320241 259.41736 
z
" clip-path="url(#p20aa4bc940)" style="fill: #d3d3d3; opacity: 0.4"/>
   </g>
   <g id="patch_29">
    <path d="M 216.644786 122.800497 
L 221.662422 122.800497 
L 221.662422 126.844879 
L 216.644786 126.844879 
z
" clip-path="url(#p20aa4bc940)" style="fill: #d3d3d3; opacity: 0.4"/>
   </g>
   <g id="patch_30">
    <path d="M 229.726408 122.800497 
L 234.744045 122.800497 
L 234.744045 66.438002 
L 229.726408 66.438002 
z
" clip-path="url(#p20aa4bc940)" style="fill: #d3d3d3; opacity: 0.4"/>
   </g>
   <g id="patch_31">
    <path d="M 236.101325 122.800497 
L 241.118961 122.800497 
L 241.118961 102.489545 
L 236.101325 102.489545 
z
" clip-path="url(#p20aa4bc940)" style="fill: #d3d3d3; opacity: 0.4"/>
   </g>
   <g id="patch_32">
    <path d="M 238.052711 122.800497 
L 243.070347 122.800497 
L 243.070347 159.03305 
L 238.052711 159.03305 
z
" clip-path="url(#p20aa4bc940)" style="fill: #d3d3d3; opacity: 0.4"/>
   </g>
   <g id="patch_33">
    <path d="M 239.621027 122.800497 
L 244.638663 122.800497 
L 244.638663 102.503048 
L 239.621027 102.503048 
z
" clip-path="url(#p20aa4bc940)" style="fill: #d3d3d3; opacity: 0.4"/>
   </g>
   <g id="patch_34">
    <path d="M 246.964789 122.800497 
L 251.982425 122.800497 
L 251.982425 36.418098 
L 246.964789 36.418098 
z
" clip-path="url(#p20aa4bc940)" style="fill: #d3d3d3; opacity: 0.4"/>
   </g>
   <g id="patch_35">
    <path d="M 262.253289 122.800497 
L 267.270925 122.800497 
L 267.270925 124.812633 
L 262.253289 124.812633 
z
" clip-path="url(#p20aa4bc940)" style="fill: #d3d3d3; opacity: 0.4"/>
   </g>
   <g id="patch_36">
    <path d="M 264.341935 122.800497 
L 269.359572 122.800497 
L 269.359572 34.923736 
L 264.341935 34.923736 
z
" clip-path="url(#p20aa4bc940)" style="fill: #d3d3d3; opacity: 0.4"/>
   </g>
   <g id="patch_37">
    <path d="M 265.163666 122.800497 
L 270.181303 122.800497 
L 270.181303 269.936053 
L 265.163666 269.936053 
z
" clip-path="url(#p20aa4bc940)" style="fill: #d3d3d3; opacity: 0.4"/>
   </g>
   <g id="patch_38">
    <path d="M 267.314506 122.800497 
L 272.332143 122.800497 
L 272.332143 76.639104 
L 267.314506 76.639104 
z
" clip-path="url(#p20aa4bc940)" style="fill: #d3d3d3; opacity: 0.4"/>
   </g>
   <g id="patch_39">
    <path d="M 268.755586 122.800497 
L 273.773222 122.800497 
L 273.773222 117.911579 
L 268.755586 117.911579 
z
" clip-path="url(#p20aa4bc940)" style="fill: #d3d3d3; opacity: 0.4"/>
   </g>
   <g id="patch_40">
    <path d="M 285.704957 122.800497 
L 290.722594 122.800497 
L 290.722594 139.593968 
L 285.704957 139.593968 
z
" clip-path="url(#p20aa4bc940)" style="fill: #d3d3d3; opacity: 0.4"/>
   </g>
   <g id="patch_41">
    <path d="M 292.967398 122.800497 
L 297.985034 122.800497 
L 297.985034 117.646838 
L 292.967398 117.646838 
z
" clip-path="url(#p20aa4bc940)" style="fill: #d3d3d3; opacity: 0.4"/>
   </g>
   <g id="patch_42">
    <path d="M 300.941944 122.800497 
L 305.959581 122.800497 
L 305.959581 234.430463 
L 300.941944 234.430463 
z
" clip-path="url(#p20aa4bc940)" style="fill: #d3d3d3; opacity: 0.4"/>
   </g>
   <g id="patch_43">
    <path d="M 308.943858 122.800497 
L 313.961495 122.800497 
L 313.961495 302.232827 
L 308.943858 302.232827 
z
" clip-path="url(#p20aa4bc940)" style="fill: #d3d3d3; opacity: 0.4"/>
   </g>
   <g id="patch_44">
    <path d="M 326.733727 122.800497 
L 331.751364 122.800497 
L 331.751364 102.7436 
L 326.733727 102.7436 
z
" clip-path="url(#p20aa4bc940)" style="fill: #d3d3d3; opacity: 0.4"/>
   </g>
   <g id="patch_45">
    <path d="M 334.501492 122.800497 
L 339.519128 122.800497 
L 339.519128 39.795947 
L 334.501492 39.795947 
z
" clip-path="url(#p20aa4bc940)" style="fill: #d3d3d3; opacity: 0.4"/>
   </g>
   <g id="patch_46">
    <path d="M 342.544861 122.800497 
L 347.562497 122.800497 
L 347.562497 151.908663 
L 342.544861 151.908663 
z
" clip-path="url(#p20aa4bc940)" style="fill: #d3d3d3; opacity: 0.4"/>
   </g>
   <g id="patch_47">
    <path d="M 353.829025 122.800497 
L 358.846662 122.800497 
L 358.846662 168.208791 
L 353.829025 168.208791 
z
" clip-path="url(#p20aa4bc940)" style="fill: #d3d3d3; opacity: 0.4"/>
   </g>
   <g id="patch_48">
    <path d="M 368.261171 122.800497 
L 373.278808 122.800497 
L 373.278808 150.981216 
L 368.261171 150.981216 
z
" clip-path="url(#p20aa4bc940)" style="fill: #d3d3d3; opacity: 0.4"/>
   </g>
   <g id="patch_49">
    <path d="M 381.496069 122.800497 
L 386.513705 122.800497 
L 386.513705 71.387785 
L 381.496069 71.387785 
z
" clip-path="url(#p20aa4bc940)" style="fill: #d3d3d3; opacity: 0.4"/>
   </g>
   <g id="patch_50">
    <path d="M 382.107808 122.800497 
L 387.125445 122.800497 
L 387.125445 104.336495 
L 382.107808 104.336495 
z
" clip-path="url(#p20aa4bc940)" style="fill: #d3d3d3; opacity: 0.4"/>
   </g>
   <g id="patch_51">
    <path d="M 387.097924 122.800497 
L 392.11556 122.800497 
L 392.11556 152.553988 
L 387.097924 152.553988 
z
" clip-path="url(#p20aa4bc940)" style="fill: #d3d3d3; opacity: 0.4"/>
   </g>
   <g id="patch_52">
    <path d="M 388.528893 122.800497 
L 393.546529 122.800497 
L 393.546529 93.973307 
L 388.528893 93.973307 
z
" clip-path="url(#p20aa4bc940)" style="fill: #d3d3d3; opacity: 0.4"/>
   </g>
   <g id="matplotlib.axis_1">
    <g id="xtick_1">
     <g id="line2d_1">
      <defs>
       <path id="mcc153cf3c3" d="M 0 0 
L 0 3.5 
" style="stroke: #000000; stroke-width: 0.8"/>
      </defs>
      <g>
       <use xlink:href="#mcc153cf3c3" x="66.594048" y="315.598281" style="stroke: #000000; stroke-width: 0.8"/>
      </g>
     </g>
     <g id="text_1">
      <!-- 0 -->
      <g transform="translate(63.730923 329.436875) scale(0.09 -0.09)">
       <defs>
        <path id="DejaVuSans-30" d="M 2034 4250 
Q 1547 4250 1301 3770 
Q 1056 3291 1056 2328 
Q 1056 1369 1301 889 
Q 1547 409 2034 409 
Q 2525 409 2770 889 
Q 3016 1369 3016 2328 
Q 3016 3291 2770 3770 
Q 2525 4250 2034 4250 
z
M 2034 4750 
Q 2819 4750 3233 4129 
Q 3647 3509 3647 2328 
Q 3647 1150 3233 529 
Q 2819 -91 2034 -91 
Q 1250 -91 836 529 
Q 422 1150 422 2328 
Q 422 3509 836 4129 
Q 1250 4750 2034 4750 
z
" transform="scale(0.015625)"/>
       </defs>
       <use xlink:href="#DejaVuSans-30"/>
      </g>
     </g>
    </g>
    <g id="xtick_2">
     <g id="line2d_2">
      <g>
       <use xlink:href="#mcc153cf3c3" x="133.495866" y="315.598281" style="stroke: #000000; stroke-width: 0.8"/>
      </g>
     </g>
     <g id="text_2">
      <!-- 20 -->
      <g transform="translate(127.769616 329.436875) scale(0.09 -0.09)">
       <defs>
        <path id="DejaVuSans-32" d="M 1228 531 
L 3431 531 
L 3431 0 
L 469 0 
L 469 531 
Q 828 903 1448 1529 
Q 2069 2156 2228 2338 
Q 2531 2678 2651 2914 
Q 2772 3150 2772 3378 
Q 2772 3750 2511 3984 
Q 2250 4219 1831 4219 
Q 1534 4219 1204 4116 
Q 875 4013 500 3803 
L 500 4441 
Q 881 4594 1212 4672 
Q 1544 4750 1819 4750 
Q 2544 4750 2975 4387 
Q 3406 4025 3406 3419 
Q 3406 3131 3298 2873 
Q 3191 2616 2906 2266 
Q 2828 2175 2409 1742 
Q 1991 1309 1228 531 
z
" transform="scale(0.015625)"/>
       </defs>
       <use xlink:href="#DejaVuSans-32"/>
       <use xlink:href="#DejaVuSans-30" transform="translate(63.623047 0)"/>
      </g>
     </g>
    </g>
    <g id="xtick_3">
     <g id="line2d_3">
      <g>
       <use xlink:href="#mcc153cf3c3" x="200.397685" y="315.598281" style="stroke: #000000; stroke-width: 0.8"/>
      </g>
     </g>
     <g id="text_3">
      <!-- 40 -->
      <g transform="translate(194.671435 329.436875) scale(0.09 -0.09)">
       <defs>
        <path id="DejaVuSans-34" d="M 2419 4116 
L 825 1625 
L 2419 1625 
L 2419 4116 
z
M 2253 4666 
L 3047 4666 
L 3047 1625 
L 3713 1625 
L 3713 1100 
L 3047 1100 
L 3047 0 
L 2419 0 
L 2419 1100 
L 313 1100 
L 313 1709 
L 2253 4666 
z
" transform="scale(0.015625)"/>
       </defs>
       <use xlink:href="#DejaVuSans-34"/>
       <use xlink:href="#DejaVuSans-30" transform="translate(63.623047 0)"/>
      </g>
     </g>
    </g>
    <g id="xtick_4">
     <g id="line2d_4">
      <g>
       <use xlink:href="#mcc153cf3c3" x="267.299503" y="315.598281" style="stroke: #000000; stroke-width: 0.8"/>
      </g>
     </g>
     <g id="text_4">
      <!-- 60 -->
      <g transform="translate(261.573253 329.436875) scale(0.09 -0.09)">
       <defs>
        <path id="DejaVuSans-36" d="M 2113 2584 
Q 1688 2584 1439 2293 
Q 1191 2003 1191 1497 
Q 1191 994 1439 701 
Q 1688 409 2113 409 
Q 2538 409 2786 701 
Q 3034 994 3034 1497 
Q 3034 2003 2786 2293 
Q 2538 2584 2113 2584 
z
M 3366 4563 
L 3366 3988 
Q 3128 4100 2886 4159 
Q 2644 4219 2406 4219 
Q 1781 4219 1451 3797 
Q 1122 3375 1075 2522 
Q 1259 2794 1537 2939 
Q 1816 3084 2150 3084 
Q 2853 3084 3261 2657 
Q 3669 2231 3669 1497 
Q 3669 778 3244 343 
Q 2819 -91 2113 -91 
Q 1303 -91 875 529 
Q 447 1150 447 2328 
Q 447 3434 972 4092 
Q 1497 4750 2381 4750 
Q 2619 4750 2861 4703 
Q 3103 4656 3366 4563 
z
" transform="scale(0.015625)"/>
       </defs>
       <use xlink:href="#DejaVuSans-36"/>
       <use xlink:href="#DejaVuSans-30" transform="translate(63.623047 0)"/>
      </g>
     </g>
    </g>
    <g id="xtick_5">
     <g id="line2d_5">
      <g>
       <use xlink:href="#mcc153cf3c3" x="334.201321" y="315.598281" style="stroke: #000000; stroke-width: 0.8"/>
      </g>
     </g>
     <g id="text_5">
      <!-- 80 -->
      <g transform="translate(328.475071 329.436875) scale(0.09 -0.09)">
       <defs>
        <path id="DejaVuSans-38" d="M 2034 2216 
Q 1584 2216 1326 1975 
Q 1069 1734 1069 1313 
Q 1069 891 1326 650 
Q 1584 409 2034 409 
Q 2484 409 2743 651 
Q 3003 894 3003 1313 
Q 3003 1734 2745 1975 
Q 2488 2216 2034 2216 
z
M 1403 2484 
Q 997 2584 770 2862 
Q 544 3141 544 3541 
Q 544 4100 942 4425 
Q 1341 4750 2034 4750 
Q 2731 4750 3128 4425 
Q 3525 4100 3525 3541 
Q 3525 3141 3298 2862 
Q 3072 2584 2669 2484 
Q 3125 2378 3379 2068 
Q 3634 1759 3634 1313 
Q 3634 634 3220 271 
Q 2806 -91 2034 -91 
Q 1263 -91 848 271 
Q 434 634 434 1313 
Q 434 1759 690 2068 
Q 947 2378 1403 2484 
z
M 1172 3481 
Q 1172 3119 1398 2916 
Q 1625 2713 2034 2713 
Q 2441 2713 2670 2916 
Q 2900 3119 2900 3481 
Q 2900 3844 2670 4047 
Q 2441 4250 2034 4250 
Q 1625 4250 1398 4047 
Q 1172 3844 1172 3481 
z
" transform="scale(0.015625)"/>
       </defs>
       <use xlink:href="#DejaVuSans-38"/>
       <use xlink:href="#DejaVuSans-30" transform="translate(63.623047 0)"/>
      </g>
     </g>
    </g>
    <g id="xtick_6">
     <g id="line2d_6">
      <g>
       <use xlink:href="#mcc153cf3c3" x="401.103139" y="315.598281" style="stroke: #000000; stroke-width: 0.8"/>
      </g>
     </g>
     <g id="text_6">
      <!-- 100 -->
      <g transform="translate(392.513764 329.436875) scale(0.09 -0.09)">
       <defs>
        <path id="DejaVuSans-31" d="M 794 531 
L 1825 531 
L 1825 4091 
L 703 3866 
L 703 4441 
L 1819 4666 
L 2450 4666 
L 2450 531 
L 3481 531 
L 3481 0 
L 794 0 
L 794 531 
z
" transform="scale(0.015625)"/>
       </defs>
       <use xlink:href="#DejaVuSans-31"/>
       <use xlink:href="#DejaVuSans-30" transform="translate(63.623047 0)"/>
       <use xlink:href="#DejaVuSans-30" transform="translate(127.246094 0)"/>
      </g>
     </g>
    </g>
    <g id="text_7">
     <!-- Genomic Position -->
     <g transform="translate(184.841562 342.907031) scale(0.1 -0.1)">
      <defs>
       <path id="DejaVuSans-Bold-47" d="M 4781 347 
Q 4331 128 3847 18 
Q 3363 -91 2847 -91 
Q 1681 -91 1000 561 
Q 319 1213 319 2328 
Q 319 3456 1012 4103 
Q 1706 4750 2913 4750 
Q 3378 4750 3804 4662 
Q 4231 4575 4609 4403 
L 4609 3438 
Q 4219 3659 3833 3768 
Q 3447 3878 3059 3878 
Q 2341 3878 1952 3476 
Q 1563 3075 1563 2328 
Q 1563 1588 1938 1184 
Q 2313 781 3003 781 
Q 3191 781 3352 804 
Q 3513 828 3641 878 
L 3641 1784 
L 2906 1784 
L 2906 2591 
L 4781 2591 
L 4781 347 
z
" transform="scale(0.015625)"/>
       <path id="DejaVuSans-Bold-65" d="M 4031 1759 
L 4031 1441 
L 1416 1441 
Q 1456 1047 1700 850 
Q 1944 653 2381 653 
Q 2734 653 3104 758 
Q 3475 863 3866 1075 
L 3866 213 
Q 3469 63 3072 -14 
Q 2675 -91 2278 -91 
Q 1328 -91 801 392 
Q 275 875 275 1747 
Q 275 2603 792 3093 
Q 1309 3584 2216 3584 
Q 3041 3584 3536 3087 
Q 4031 2591 4031 1759 
z
M 2881 2131 
Q 2881 2450 2695 2645 
Q 2509 2841 2209 2841 
Q 1884 2841 1681 2658 
Q 1478 2475 1428 2131 
L 2881 2131 
z
" transform="scale(0.015625)"/>
       <path id="DejaVuSans-Bold-6e" d="M 4056 2131 
L 4056 0 
L 2931 0 
L 2931 347 
L 2931 1631 
Q 2931 2084 2911 2256 
Q 2891 2428 2841 2509 
Q 2775 2619 2662 2680 
Q 2550 2741 2406 2741 
Q 2056 2741 1856 2470 
Q 1656 2200 1656 1722 
L 1656 0 
L 538 0 
L 538 3500 
L 1656 3500 
L 1656 2988 
Q 1909 3294 2193 3439 
Q 2478 3584 2822 3584 
Q 3428 3584 3742 3212 
Q 4056 2841 4056 2131 
z
" transform="scale(0.015625)"/>
       <path id="DejaVuSans-Bold-6f" d="M 2203 2784 
Q 1831 2784 1636 2517 
Q 1441 2250 1441 1747 
Q 1441 1244 1636 976 
Q 1831 709 2203 709 
Q 2569 709 2762 976 
Q 2956 1244 2956 1747 
Q 2956 2250 2762 2517 
Q 2569 2784 2203 2784 
z
M 2203 3584 
Q 3106 3584 3614 3096 
Q 4122 2609 4122 1747 
Q 4122 884 3614 396 
Q 3106 -91 2203 -91 
Q 1297 -91 786 396 
Q 275 884 275 1747 
Q 275 2609 786 3096 
Q 1297 3584 2203 3584 
z
" transform="scale(0.015625)"/>
       <path id="DejaVuSans-Bold-6d" d="M 3781 2919 
Q 3994 3244 4286 3414 
Q 4578 3584 4928 3584 
Q 5531 3584 5847 3212 
Q 6163 2841 6163 2131 
L 6163 0 
L 5038 0 
L 5038 1825 
Q 5041 1866 5042 1909 
Q 5044 1953 5044 2034 
Q 5044 2406 4934 2573 
Q 4825 2741 4581 2741 
Q 4263 2741 4089 2478 
Q 3916 2216 3909 1719 
L 3909 0 
L 2784 0 
L 2784 1825 
Q 2784 2406 2684 2573 
Q 2584 2741 2328 2741 
Q 2006 2741 1831 2477 
Q 1656 2213 1656 1722 
L 1656 0 
L 531 0 
L 531 3500 
L 1656 3500 
L 1656 2988 
Q 1863 3284 2130 3434 
Q 2397 3584 2719 3584 
Q 3081 3584 3359 3409 
Q 3638 3234 3781 2919 
z
" transform="scale(0.015625)"/>
       <path id="DejaVuSans-Bold-69" d="M 538 3500 
L 1656 3500 
L 1656 0 
L 538 0 
L 538 3500 
z
M 538 4863 
L 1656 4863 
L 1656 3950 
L 538 3950 
L 538 4863 
z
" transform="scale(0.015625)"/>
       <path id="DejaVuSans-Bold-63" d="M 3366 3391 
L 3366 2478 
Q 3138 2634 2908 2709 
Q 2678 2784 2431 2784 
Q 1963 2784 1702 2511 
Q 1441 2238 1441 1747 
Q 1441 1256 1702 982 
Q 1963 709 2431 709 
Q 2694 709 2930 787 
Q 3166 866 3366 1019 
L 3366 103 
Q 3103 6 2833 -42 
Q 2563 -91 2291 -91 
Q 1344 -91 809 395 
Q 275 881 275 1747 
Q 275 2613 809 3098 
Q 1344 3584 2291 3584 
Q 2566 3584 2833 3536 
Q 3100 3488 3366 3391 
z
" transform="scale(0.015625)"/>
       <path id="DejaVuSans-Bold-20" transform="scale(0.015625)"/>
       <path id="DejaVuSans-Bold-50" d="M 588 4666 
L 2584 4666 
Q 3475 4666 3951 4270 
Q 4428 3875 4428 3144 
Q 4428 2409 3951 2014 
Q 3475 1619 2584 1619 
L 1791 1619 
L 1791 0 
L 588 0 
L 588 4666 
z
M 1791 3794 
L 1791 2491 
L 2456 2491 
Q 2806 2491 2997 2661 
Q 3188 2831 3188 3144 
Q 3188 3456 2997 3625 
Q 2806 3794 2456 3794 
L 1791 3794 
z
" transform="scale(0.015625)"/>
       <path id="DejaVuSans-Bold-73" d="M 3272 3391 
L 3272 2541 
Q 2913 2691 2578 2766 
Q 2244 2841 1947 2841 
Q 1628 2841 1473 2761 
Q 1319 2681 1319 2516 
Q 1319 2381 1436 2309 
Q 1553 2238 1856 2203 
L 2053 2175 
Q 2913 2066 3209 1816 
Q 3506 1566 3506 1031 
Q 3506 472 3093 190 
Q 2681 -91 1863 -91 
Q 1516 -91 1145 -36 
Q 775 19 384 128 
L 384 978 
Q 719 816 1070 734 
Q 1422 653 1784 653 
Q 2113 653 2278 743 
Q 2444 834 2444 1013 
Q 2444 1163 2330 1236 
Q 2216 1309 1875 1350 
L 1678 1375 
Q 931 1469 631 1722 
Q 331 1975 331 2491 
Q 331 3047 712 3315 
Q 1094 3584 1881 3584 
Q 2191 3584 2531 3537 
Q 2872 3491 3272 3391 
z
" transform="scale(0.015625)"/>
       <path id="DejaVuSans-Bold-74" d="M 1759 4494 
L 1759 3500 
L 2913 3500 
L 2913 2700 
L 1759 2700 
L 1759 1216 
Q 1759 972 1856 886 
Q 1953 800 2241 800 
L 2816 800 
L 2816 0 
L 1856 0 
Q 1194 0 917 276 
Q 641 553 641 1216 
L 641 2700 
L 84 2700 
L 84 3500 
L 641 3500 
L 641 4494 
L 1759 4494 
z
" transform="scale(0.015625)"/>
      </defs>
      <use xlink:href="#DejaVuSans-Bold-47"/>
      <use xlink:href="#DejaVuSans-Bold-65" transform="translate(82.080078 0)"/>
      <use xlink:href="#DejaVuSans-Bold-6e" transform="translate(149.902344 0)"/>
      <use xlink:href="#DejaVuSans-Bold-6f" transform="translate(221.09375 0)"/>
      <use xlink:href="#DejaVuSans-Bold-6d" transform="translate(289.794922 0)"/>
      <use xlink:href="#DejaVuSans-Bold-69" transform="translate(393.994141 0)"/>
      <use xlink:href="#DejaVuSans-Bold-63" transform="translate(428.271484 0)"/>
      <use xlink:href="#DejaVuSans-Bold-20" transform="translate(487.548828 0)"/>
      <use xlink:href="#DejaVuSans-Bold-50" transform="translate(522.363281 0)"/>
      <use xlink:href="#DejaVuSans-Bold-6f" transform="translate(595.654297 0)"/>
      <use xlink:href="#DejaVuSans-Bold-73" transform="translate(664.355469 0)"/>
      <use xlink:href="#DejaVuSans-Bold-69" transform="translate(723.876953 0)"/>
      <use xlink:href="#DejaVuSans-Bold-74" transform="translate(758.154297 0)"/>
      <use xlink:href="#DejaVuSans-Bold-69" transform="translate(805.957031 0)"/>
      <use xlink:href="#DejaVuSans-Bold-6f" transform="translate(840.234375 0)"/>
      <use xlink:href="#DejaVuSans-Bold-6e" transform="translate(908.935547 0)"/>
     </g>
    </g>
   </g>
   <g id="matplotlib.axis_2">
    <g id="ytick_1">
     <g id="line2d_7">
      <defs>
       <path id="ma738fa9c4f" d="M 0 0 
L -3.5 0 
" style="stroke: #000000; stroke-width: 0.8"/>
      </defs>
      <g>
       <use xlink:href="#ma738fa9c4f" x="49.868594" y="310.014075" style="stroke: #000000; stroke-width: 0.8"/>
      </g>
     </g>
     <g id="text_8">
      <!-- −0.5 -->
      <g transform="translate(21.014063 313.433371) scale(0.09 -0.09)">
       <defs>
        <path id="DejaVuSans-2212" d="M 678 2272 
L 4684 2272 
L 4684 1741 
L 678 1741 
L 678 2272 
z
" transform="scale(0.015625)"/>
        <path id="DejaVuSans-2e" d="M 684 794 
L 1344 794 
L 1344 0 
L 684 0 
L 684 794 
z
" transform="scale(0.015625)"/>
        <path id="DejaVuSans-35" d="M 691 4666 
L 3169 4666 
L 3169 4134 
L 1269 4134 
L 1269 2991 
Q 1406 3038 1543 3061 
Q 1681 3084 1819 3084 
Q 2600 3084 3056 2656 
Q 3513 2228 3513 1497 
Q 3513 744 3044 326 
Q 2575 -91 1722 -91 
Q 1428 -91 1123 -41 
Q 819 9 494 109 
L 494 744 
Q 775 591 1075 516 
Q 1375 441 1709 441 
Q 2250 441 2565 725 
Q 2881 1009 2881 1497 
Q 2881 1984 2565 2268 
Q 2250 2553 1709 2553 
Q 1456 2553 1204 2497 
Q 953 2441 691 2322 
L 691 4666 
z
" transform="scale(0.015625)"/>
       </defs>
       <use xlink:href="#DejaVuSans-2212"/>
       <use xlink:href="#DejaVuSans-30" transform="translate(83.789062 0)"/>
       <use xlink:href="#DejaVuSans-2e" transform="translate(147.412109 0)"/>
       <use xlink:href="#DejaVuSans-35" transform="translate(179.199219 0)"/>
      </g>
     </g>
    </g>
    <g id="ytick_2">
     <g id="line2d_8">
      <g>
       <use xlink:href="#ma738fa9c4f" x="49.868594" y="272.571359" style="stroke: #000000; stroke-width: 0.8"/>
      </g>
     </g>
     <g id="text_9">
      <!-- −0.4 -->
      <g transform="translate(21.014063 275.990656) scale(0.09 -0.09)">
       <use xlink:href="#DejaVuSans-2212"/>
       <use xlink:href="#DejaVuSans-30" transform="translate(83.789062 0)"/>
       <use xlink:href="#DejaVuSans-2e" transform="translate(147.412109 0)"/>
       <use xlink:href="#DejaVuSans-34" transform="translate(179.199219 0)"/>
      </g>
     </g>
    </g>
    <g id="ytick_3">
     <g id="line2d_9">
      <g>
       <use xlink:href="#ma738fa9c4f" x="49.868594" y="235.128643" style="stroke: #000000; stroke-width: 0.8"/>
      </g>
     </g>
     <g id="text_10">
      <!-- −0.3 -->
      <g transform="translate(21.014063 238.54794) scale(0.09 -0.09)">
       <defs>
        <path id="DejaVuSans-33" d="M 2597 2516 
Q 3050 2419 3304 2112 
Q 3559 1806 3559 1356 
Q 3559 666 3084 287 
Q 2609 -91 1734 -91 
Q 1441 -91 1130 -33 
Q 819 25 488 141 
L 488 750 
Q 750 597 1062 519 
Q 1375 441 1716 441 
Q 2309 441 2620 675 
Q 2931 909 2931 1356 
Q 2931 1769 2642 2001 
Q 2353 2234 1838 2234 
L 1294 2234 
L 1294 2753 
L 1863 2753 
Q 2328 2753 2575 2939 
Q 2822 3125 2822 3475 
Q 2822 3834 2567 4026 
Q 2313 4219 1838 4219 
Q 1578 4219 1281 4162 
Q 984 4106 628 3988 
L 628 4550 
Q 988 4650 1302 4700 
Q 1616 4750 1894 4750 
Q 2613 4750 3031 4423 
Q 3450 4097 3450 3541 
Q 3450 3153 3228 2886 
Q 3006 2619 2597 2516 
z
" transform="scale(0.015625)"/>
       </defs>
       <use xlink:href="#DejaVuSans-2212"/>
       <use xlink:href="#DejaVuSans-30" transform="translate(83.789062 0)"/>
       <use xlink:href="#DejaVuSans-2e" transform="translate(147.412109 0)"/>
       <use xlink:href="#DejaVuSans-33" transform="translate(179.199219 0)"/>
      </g>
     </g>
    </g>
    <g id="ytick_4">
     <g id="line2d_10">
      <g>
       <use xlink:href="#ma738fa9c4f" x="49.868594" y="197.685928" style="stroke: #000000; stroke-width: 0.8"/>
      </g>
     </g>
     <g id="text_11">
      <!-- −0.2 -->
      <g transform="translate(21.014063 201.105225) scale(0.09 -0.09)">
       <use xlink:href="#DejaVuSans-2212"/>
       <use xlink:href="#DejaVuSans-30" transform="translate(83.789062 0)"/>
       <use xlink:href="#DejaVuSans-2e" transform="translate(147.412109 0)"/>
       <use xlink:href="#DejaVuSans-32" transform="translate(179.199219 0)"/>
      </g>
     </g>
    </g>
    <g id="ytick_5">
     <g id="line2d_11">
      <g>
       <use xlink:href="#ma738fa9c4f" x="49.868594" y="160.243212" style="stroke: #000000; stroke-width: 0.8"/>
      </g>
     </g>
     <g id="text_12">
      <!-- −0.1 -->
      <g transform="translate(21.014063 163.662509) scale(0.09 -0.09)">
       <use xlink:href="#DejaVuSans-2212"/>
       <use xlink:href="#DejaVuSans-30" transform="translate(83.789062 0)"/>
       <use xlink:href="#DejaVuSans-2e" transform="translate(147.412109 0)"/>
       <use xlink:href="#DejaVuSans-31" transform="translate(179.199219 0)"/>
      </g>
     </g>
    </g>
    <g id="ytick_6">
     <g id="line2d_12">
      <g>
       <use xlink:href="#ma738fa9c4f" x="49.868594" y="122.800497" style="stroke: #000000; stroke-width: 0.8"/>
      </g>
     </g>
     <g id="text_13">
      <!-- 0.0 -->
      <g transform="translate(28.555781 126.219794) scale(0.09 -0.09)">
       <use xlink:href="#DejaVuSans-30"/>
       <use xlink:href="#DejaVuSans-2e" transform="translate(63.623047 0)"/>
       <use xlink:href="#DejaVuSans-30" transform="translate(95.410156 0)"/>
      </g>
     </g>
    </g>
    <g id="ytick_7">
     <g id="line2d_13">
      <g>
       <use xlink:href="#ma738fa9c4f" x="49.868594" y="85.357781" style="stroke: #000000; stroke-width: 0.8"/>
      </g>
     </g>
     <g id="text_14">
      <!-- 0.1 -->
      <g transform="translate(28.555781 88.777078) scale(0.09 -0.09)">
       <use xlink:href="#DejaVuSans-30"/>
       <use xlink:href="#DejaVuSans-2e" transform="translate(63.623047 0)"/>
       <use xlink:href="#DejaVuSans-31" transform="translate(95.410156 0)"/>
      </g>
     </g>
    </g>
    <g id="ytick_8">
     <g id="line2d_14">
      <g>
       <use xlink:href="#ma738fa9c4f" x="49.868594" y="47.915066" style="stroke: #000000; stroke-width: 0.8"/>
      </g>
     </g>
     <g id="text_15">
      <!-- 0.2 -->
      <g transform="translate(28.555781 51.334363) scale(0.09 -0.09)">
       <use xlink:href="#DejaVuSans-30"/>
       <use xlink:href="#DejaVuSans-2e" transform="translate(63.623047 0)"/>
       <use xlink:href="#DejaVuSans-32" transform="translate(95.410156 0)"/>
      </g>
     </g>
    </g>
    <g id="text_16">
     <!-- Effect Size (β) -->
     <g transform="translate(14.934375 208.336094) rotate(-90) scale(0.1 -0.1)">
      <defs>
       <path id="DejaVuSans-Bold-45" d="M 588 4666 
L 3834 4666 
L 3834 3756 
L 1791 3756 
L 1791 2888 
L 3713 2888 
L 3713 1978 
L 1791 1978 
L 1791 909 
L 3903 909 
L 3903 0 
L 588 0 
L 588 4666 
z
" transform="scale(0.015625)"/>
       <path id="DejaVuSans-Bold-66" d="M 2841 4863 
L 2841 4128 
L 2222 4128 
Q 1984 4128 1890 4042 
Q 1797 3956 1797 3744 
L 1797 3500 
L 2753 3500 
L 2753 2700 
L 1797 2700 
L 1797 0 
L 678 0 
L 678 2700 
L 122 2700 
L 122 3500 
L 678 3500 
L 678 3744 
Q 678 4316 997 4589 
Q 1316 4863 1984 4863 
L 2841 4863 
z
" transform="scale(0.015625)"/>
       <path id="DejaVuSans-Bold-53" d="M 3834 4519 
L 3834 3531 
Q 3450 3703 3084 3790 
Q 2719 3878 2394 3878 
Q 1963 3878 1756 3759 
Q 1550 3641 1550 3391 
Q 1550 3203 1689 3098 
Q 1828 2994 2194 2919 
L 2706 2816 
Q 3484 2659 3812 2340 
Q 4141 2022 4141 1434 
Q 4141 663 3683 286 
Q 3225 -91 2284 -91 
Q 1841 -91 1394 -6 
Q 947 78 500 244 
L 500 1259 
Q 947 1022 1364 901 
Q 1781 781 2169 781 
Q 2563 781 2772 912 
Q 2981 1044 2981 1288 
Q 2981 1506 2839 1625 
Q 2697 1744 2272 1838 
L 1806 1941 
Q 1106 2091 782 2419 
Q 459 2747 459 3303 
Q 459 4000 909 4375 
Q 1359 4750 2203 4750 
Q 2588 4750 2994 4692 
Q 3400 4634 3834 4519 
z
" transform="scale(0.015625)"/>
       <path id="DejaVuSans-Bold-7a" d="M 366 3500 
L 3419 3500 
L 3419 2719 
L 1575 800 
L 3419 800 
L 3419 0 
L 288 0 
L 288 781 
L 2131 2700 
L 366 2700 
L 366 3500 
z
" transform="scale(0.015625)"/>
       <path id="DejaVuSans-Bold-28" d="M 2413 -844 
L 1484 -844 
Q 1006 -72 778 623 
Q 550 1319 550 2003 
Q 550 2688 779 3389 
Q 1009 4091 1484 4856 
L 2413 4856 
Q 2013 4116 1813 3408 
Q 1613 2700 1613 2009 
Q 1613 1319 1811 609 
Q 2009 -100 2413 -844 
z
" transform="scale(0.015625)"/>
       <path id="DejaVuSans-Bold-3b2" d="M 2575 3038 
Q 2772 3309 2772 3503 
Q 2772 3769 2648 3948 
Q 2525 4128 2241 4128 
Q 1900 4128 1778 3864 
Q 1656 3600 1656 3103 
L 1656 1747 
Q 1656 1250 1848 986 
Q 2041 722 2400 722 
Q 2800 722 2953 934 
Q 3106 1147 3106 1275 
Q 3106 1722 2738 1988 
Q 2538 2122 1988 2134 
L 1988 2847 
Q 2497 2925 2575 3038 
z
M 538 -1331 
L 538 3044 
Q 538 3922 969 4369 
Q 1325 4741 1672 4845 
Q 2019 4950 2259 4950 
Q 2500 4947 2538 4941 
Q 3178 4841 3538 4438 
Q 3788 4163 3788 3600 
Q 3788 3313 3616 3053 
Q 3406 2734 3094 2709 
Q 3556 2584 3844 2322 
Q 4294 1919 4294 1288 
Q 4294 731 3903 320 
Q 3513 -91 2809 -91 
Q 2106 -91 1656 506 
L 1656 -1331 
L 538 -1331 
z
" transform="scale(0.015625)"/>
       <path id="DejaVuSans-Bold-29" d="M 513 -844 
Q 913 -100 1113 609 
Q 1313 1319 1313 2009 
Q 1313 2700 1113 3408 
Q 913 4116 513 4856 
L 1441 4856 
Q 1916 4091 2145 3389 
Q 2375 2688 2375 2003 
Q 2375 1319 2147 623 
Q 1919 -72 1441 -844 
L 513 -844 
z
" transform="scale(0.015625)"/>
      </defs>
      <use xlink:href="#DejaVuSans-Bold-45"/>
      <use xlink:href="#DejaVuSans-Bold-66" transform="translate(68.310547 0)"/>
      <use xlink:href="#DejaVuSans-Bold-66" transform="translate(111.816406 0)"/>
      <use xlink:href="#DejaVuSans-Bold-65" transform="translate(155.322266 0)"/>
      <use xlink:href="#DejaVuSans-Bold-63" transform="translate(223.144531 0)"/>
      <use xlink:href="#DejaVuSans-Bold-74" transform="translate(282.421875 0)"/>
      <use xlink:href="#DejaVuSans-Bold-20" transform="translate(330.224609 0)"/>
      <use xlink:href="#DejaVuSans-Bold-53" transform="translate(365.039062 0)"/>
      <use xlink:href="#DejaVuSans-Bold-69" transform="translate(437.060547 0)"/>
      <use xlink:href="#DejaVuSans-Bold-7a" transform="translate(471.337891 0)"/>
      <use xlink:href="#DejaVuSans-Bold-65" transform="translate(529.541016 0)"/>
      <use xlink:href="#DejaVuSans-Bold-20" transform="translate(597.363281 0)"/>
      <use xlink:href="#DejaVuSans-Bold-28" transform="translate(632.177734 0)"/>
      <use xlink:href="#DejaVuSans-Bold-3b2" transform="translate(677.880859 0)"/>
      <use xlink:href="#DejaVuSans-Bold-29" transform="translate(749.462891 0)"/>
     </g>
    </g>
   </g>
   <g id="patch_53">
    <path d="M 70.970931 122.800497 
L 75.988567 122.800497 
L 75.988567 114.731533 
L 70.970931 114.731533 
z
" clip-path="url(#p20aa4bc940)" style="fill: #2ca02c; opacity: 0.8"/>
   </g>
   <g id="patch_54">
    <path d="M 75.588503 122.800497 
L 80.606139 122.800497 
L 80.606139 122.158999 
L 75.588503 122.158999 
z
" clip-path="url(#p20aa4bc940)" style="fill: #2ca02c; opacity: 0.8"/>
   </g>
   <g id="patch_55">
    <path d="M 79.623315 122.800497 
L 84.640952 122.800497 
L 84.640952 123.13733 
L 79.623315 123.13733 
z
" clip-path="url(#p20aa4bc940)" style="fill: #2ca02c; opacity: 0.8"/>
   </g>
   <g id="patch_56">
    <path d="M 83.514726 122.800497 
L 88.532363 122.800497 
L 88.532363 124.480926 
L 83.514726 124.480926 
z
" clip-path="url(#p20aa4bc940)" style="fill: #2ca02c; opacity: 0.8"/>
   </g>
   <g id="patch_57">
    <path d="M 85.845579 122.800497 
L 90.863216 122.800497 
L 90.863216 149.101943 
L 85.845579 149.101943 
z
" clip-path="url(#p20aa4bc940)" style="fill: #2ca02c; opacity: 0.8"/>
   </g>
   <g id="patch_58">
    <path d="M 96.75744 122.800497 
L 101.775077 122.800497 
L 101.775077 130.518786 
L 96.75744 130.518786 
z
" clip-path="url(#p20aa4bc940)" style="fill: #2ca02c; opacity: 0.8"/>
   </g>
   <g id="patch_59">
    <path d="M 104.908129 122.800497 
L 109.925765 122.800497 
L 109.925765 126.334136 
L 104.908129 126.334136 
z
" clip-path="url(#p20aa4bc940)" style="fill: #2ca02c; opacity: 0.8"/>
   </g>
   <g id="patch_60">
    <path d="M 110.747195 122.800497 
L 115.764831 122.800497 
L 115.764831 107.830766 
L 110.747195 107.830766 
z
" clip-path="url(#p20aa4bc940)" style="fill: #2ca02c; opacity: 0.8"/>
   </g>
   <g id="patch_61">
    <path d="M 116.266815 122.800497 
L 121.284452 122.800497 
L 121.284452 120.685407 
L 116.266815 120.685407 
z
" clip-path="url(#p20aa4bc940)" style="fill: #2ca02c; opacity: 0.8"/>
   </g>
   <g id="patch_62">
    <path d="M 116.274884 122.800497 
L 121.29252 122.800497 
L 121.29252 157.891583 
L 116.274884 157.891583 
z
" clip-path="url(#p20aa4bc940)" style="fill: #2ca02c; opacity: 0.8"/>
   </g>
   <g id="patch_63">
    <path d="M 121.1271 122.800497 
L 126.144736 122.800497 
L 126.144736 211.343284 
L 121.1271 211.343284 
z
" clip-path="url(#p20aa4bc940)" style="fill: #2ca02c; opacity: 0.8"/>
   </g>
   <g id="patch_64">
    <path d="M 124.907335 122.800497 
L 129.924971 122.800497 
L 129.924971 125.38177 
L 124.907335 125.38177 
z
" clip-path="url(#p20aa4bc940)" style="fill: #2ca02c; opacity: 0.8"/>
   </g>
   <g id="patch_65">
    <path d="M 125.435706 122.800497 
L 130.453342 122.800497 
L 130.453342 129.734716 
L 125.435706 129.734716 
z
" clip-path="url(#p20aa4bc940)" style="fill: #2ca02c; opacity: 0.8"/>
   </g>
   <g id="patch_66">
    <path d="M 125.920726 122.800497 
L 130.938362 122.800497 
L 130.938362 116.991466 
L 125.920726 116.991466 
z
" clip-path="url(#p20aa4bc940)" style="fill: #2ca02c; opacity: 0.8"/>
   </g>
   <g id="patch_67">
    <path d="M 130.877925 122.800497 
L 135.895562 122.800497 
L 135.895562 108.455989 
L 130.877925 108.455989 
z
" clip-path="url(#p20aa4bc940)" style="fill: #2ca02c; opacity: 0.8"/>
   </g>
   <g id="patch_68">
    <path d="M 135.114593 122.800497 
L 140.132229 122.800497 
L 140.132229 110.749304 
L 135.114593 110.749304 
z
" clip-path="url(#p20aa4bc940)" style="fill: #2ca02c; opacity: 0.8"/>
   </g>
   <g id="patch_69">
    <path d="M 150.649487 122.800497 
L 155.667123 122.800497 
L 155.667123 132.872599 
L 150.649487 132.872599 
z
" clip-path="url(#p20aa4bc940)" style="fill: #2ca02c; opacity: 0.8"/>
   </g>
   <g id="patch_70">
    <path d="M 161.504025 122.800497 
L 166.521661 122.800497 
L 166.521661 124.560372 
L 161.504025 124.560372 
z
" clip-path="url(#p20aa4bc940)" style="fill: #2ca02c; opacity: 0.8"/>
   </g>
   <g id="patch_71">
    <path d="M 161.810271 122.800497 
L 166.827907 122.800497 
L 166.827907 120.816308 
L 161.810271 120.816308 
z
" clip-path="url(#p20aa4bc940)" style="fill: #2ca02c; opacity: 0.8"/>
   </g>
   <g id="patch_72">
    <path d="M 165.857026 122.800497 
L 170.874663 122.800497 
L 170.874663 109.749918 
L 165.857026 109.749918 
z
" clip-path="url(#p20aa4bc940)" style="fill: #2ca02c; opacity: 0.8"/>
   </g>
   <g id="patch_73">
    <path d="M 165.981305 122.800497 
L 170.998941 122.800497 
L 170.998941 126.587353 
L 165.981305 126.587353 
z
" clip-path="url(#p20aa4bc940)" style="fill: #2ca02c; opacity: 0.8"/>
   </g>
   <g id="patch_74">
    <path d="M 168.355419 122.800497 
L 173.373055 122.800497 
L 173.373055 123.534279 
L 168.355419 123.534279 
z
" clip-path="url(#p20aa4bc940)" style="fill: #2ca02c; opacity: 0.8"/>
   </g>
   <g id="patch_75">
    <path d="M 186.636597 122.800497 
L 191.654234 122.800497 
L 191.654234 138.974607 
L 186.636597 138.974607 
z
" clip-path="url(#p20aa4bc940)" style="fill: #2ca02c; opacity: 0.8"/>
   </g>
   <g id="patch_76">
    <path d="M 189.372305 122.800497 
L 194.389941 122.800497 
L 194.389941 141.260214 
L 189.372305 141.260214 
z
" clip-path="url(#p20aa4bc940)" style="fill: #2ca02c; opacity: 0.8"/>
   </g>
   <g id="patch_77">
    <path d="M 208.574766 122.800497 
L 213.592402 122.800497 
L 213.592402 113.276107 
L 208.574766 113.276107 
z
" clip-path="url(#p20aa4bc940)" style="fill: #2ca02c; opacity: 0.8"/>
   </g>
   <g id="patch_78">
    <path d="M 211.320241 122.800497 
L 216.337877 122.800497 
L 216.337877 181.338892 
L 211.320241 181.338892 
z
" clip-path="url(#p20aa4bc940)" style="fill: #2ca02c; opacity: 0.8"/>
   </g>
   <g id="patch_79">
    <path d="M 216.644786 122.800497 
L 221.662422 122.800497 
L 221.662422 122.962035 
L 216.644786 122.962035 
z
" clip-path="url(#p20aa4bc940)" style="fill: #2ca02c; opacity: 0.8"/>
   </g>
   <g id="patch_80">
    <path d="M 229.726408 122.800497 
L 234.744045 122.800497 
L 234.744045 109.102605 
L 229.726408 109.102605 
z
" clip-path="url(#p20aa4bc940)" style="fill: #2ca02c; opacity: 0.8"/>
   </g>
   <g id="patch_81">
    <path d="M 236.101325 122.800497 
L 241.118961 122.800497 
L 241.118961 120.487877 
L 236.101325 120.487877 
z
" clip-path="url(#p20aa4bc940)" style="fill: #2ca02c; opacity: 0.8"/>
   </g>
   <g id="patch_82">
    <path d="M 238.052711 122.800497 
L 243.070347 122.800497 
L 243.070347 129.176041 
L 238.052711 129.176041 
z
" clip-path="url(#p20aa4bc940)" style="fill: #2ca02c; opacity: 0.8"/>
   </g>
   <g id="patch_83">
    <path d="M 239.621027 122.800497 
L 244.638663 122.800497 
L 244.638663 120.490564 
L 239.621027 120.490564 
z
" clip-path="url(#p20aa4bc940)" style="fill: #2ca02c; opacity: 0.8"/>
   </g>
   <g id="patch_84">
    <path d="M 246.964789 122.800497 
L 251.982425 122.800497 
L 251.982425 94.728993 
L 246.964789 94.728993 
z
" clip-path="url(#p20aa4bc940)" style="fill: #2ca02c; opacity: 0.8"/>
   </g>
   <g id="patch_85">
    <path d="M 262.253289 122.800497 
L 267.270925 122.800497 
L 267.270925 122.86052 
L 262.253289 122.86052 
z
" clip-path="url(#p20aa4bc940)" style="fill: #2ca02c; opacity: 0.8"/>
   </g>
   <g id="patch_86">
    <path d="M 264.341935 122.800497 
L 269.359572 122.800497 
L 269.359572 93.92546 
L 264.341935 93.92546 
z
" clip-path="url(#p20aa4bc940)" style="fill: #2ca02c; opacity: 0.8"/>
   </g>
   <g id="patch_87">
    <path d="M 265.163666 122.800497 
L 270.181303 122.800497 
L 270.181303 188.462196 
L 265.163666 188.462196 
z
" clip-path="url(#p20aa4bc940)" style="fill: #2ca02c; opacity: 0.8"/>
   </g>
   <g id="patch_88">
    <path d="M 267.314506 122.800497 
L 272.332143 122.800497 
L 272.332143 113.085069 
L 267.314506 113.085069 
z
" clip-path="url(#p20aa4bc940)" style="fill: #2ca02c; opacity: 0.8"/>
   </g>
   <g id="patch_89">
    <path d="M 268.755586 122.800497 
L 273.773222 122.800497 
L 273.773222 122.584987 
L 268.755586 122.584987 
z
" clip-path="url(#p20aa4bc940)" style="fill: #2ca02c; opacity: 0.8"/>
   </g>
   <g id="patch_90">
    <path d="M 285.704957 122.800497 
L 290.722594 122.800497 
L 290.722594 124.460655 
L 285.704957 124.460655 
z
" clip-path="url(#p20aa4bc940)" style="fill: #2ca02c; opacity: 0.8"/>
   </g>
   <g id="patch_91">
    <path d="M 292.967398 122.800497 
L 297.985034 122.800497 
L 297.985034 122.566666 
L 292.967398 122.566666 
z
" clip-path="url(#p20aa4bc940)" style="fill: #2ca02c; opacity: 0.8"/>
   </g>
   <g id="patch_92">
    <path d="M 300.941944 122.800497 
L 305.959581 122.800497 
L 305.959581 165.364082 
L 300.941944 165.364082 
z
" clip-path="url(#p20aa4bc940)" style="fill: #2ca02c; opacity: 0.8"/>
   </g>
   <g id="patch_93">
    <path d="M 308.943858 122.800497 
L 313.961495 122.800497 
L 313.961495 211.538823 
L 308.943858 211.538823 
z
" clip-path="url(#p20aa4bc940)" style="fill: #2ca02c; opacity: 0.8"/>
   </g>
   <g id="patch_94">
    <path d="M 326.733727 122.800497 
L 331.751364 122.800497 
L 331.751364 120.538202 
L 326.733727 120.538202 
z
" clip-path="url(#p20aa4bc940)" style="fill: #2ca02c; opacity: 0.8"/>
   </g>
   <g id="patch_95">
    <path d="M 334.501492 122.800497 
L 339.519128 122.800497 
L 339.519128 96.517522 
L 334.501492 96.517522 
z
" clip-path="url(#p20aa4bc940)" style="fill: #2ca02c; opacity: 0.8"/>
   </g>
   <g id="patch_96">
    <path d="M 342.544861 122.800497 
L 347.562497 122.800497 
L 347.562497 127.145894 
L 342.544861 127.145894 
z
" clip-path="url(#p20aa4bc940)" style="fill: #2ca02c; opacity: 0.8"/>
   </g>
   <g id="patch_97">
    <path d="M 353.829025 122.800497 
L 358.846662 122.800497 
L 358.846662 132.243195 
L 353.829025 132.243195 
z
" clip-path="url(#p20aa4bc940)" style="fill: #2ca02c; opacity: 0.8"/>
   </g>
   <g id="patch_98">
    <path d="M 368.261171 122.800497 
L 373.278808 122.800497 
L 373.278808 126.905978 
L 368.261171 126.905978 
z
" clip-path="url(#p20aa4bc940)" style="fill: #2ca02c; opacity: 0.8"/>
   </g>
   <g id="patch_99">
    <path d="M 381.496069 122.800497 
L 386.513705 122.800497 
L 386.513705 111.100354 
L 381.496069 111.100354 
z
" clip-path="url(#p20aa4bc940)" style="fill: #2ca02c; opacity: 0.8"/>
   </g>
   <g id="patch_100">
    <path d="M 382.107808 122.800497 
L 387.125445 122.800497 
L 387.125445 120.84247 
L 382.107808 120.84247 
z
" clip-path="url(#p20aa4bc940)" style="fill: #2ca02c; opacity: 0.8"/>
   </g>
   <g id="patch_101">
    <path d="M 387.097924 122.800497 
L 392.11556 122.800497 
L 392.11556 127.316238 
L 387.097924 127.316238 
z
" clip-path="url(#p20aa4bc940)" style="fill: #2ca02c; opacity: 0.8"/>
   </g>
   <g id="patch_102">
    <path d="M 388.528893 122.800497 
L 393.546529 122.800497 
L 393.546529 118.528397 
L 388.528893 118.528397 
z
" clip-path="url(#p20aa4bc940)" style="fill: #2ca02c; opacity: 0.8"/>
   </g>
   <g id="line2d_15">
    <path d="M 49.868594 122.800497 
L 417.828594 122.800497 
" clip-path="url(#p20aa4bc940)" style="fill: none; stroke: #333333; stroke-width: 0.5; stroke-linecap: square"/>
   </g>
   <g id="patch_103">
    <path d="M 49.868594 315.598281 
L 49.868594 21.558281 
" style="fill: none; stroke: #000000; stroke-width: 0.8; stroke-linejoin: miter; stroke-linecap: square"/>
   </g>
   <g id="patch_104">
    <path d="M 417.828594 315.598281 
L 417.828594 21.558281 
" style="fill: none; stroke: #000000; stroke-width: 0.8; stroke-linejoin: miter; stroke-linecap: square"/>
   </g>
   <g id="patch_105">
    <path d="M 49.868594 315.598281 
L 417.828594 315.598281 
" style="fill: none; stroke: #000000; stroke-width: 0.8; stroke-linejoin: miter; stroke-linecap: square"/>
   </g>
   <g id="patch_106">
    <path d="M 49.868594 21.558281 
L 417.828594 21.558281 
" style="fill: none; stroke: #000000; stroke-width: 0.8; stroke-linejoin: miter; stroke-linecap: square"/>
   </g>
   <g id="patch_107">
    <path d="M 291.514259 148.341535 
Q 253.592701 164.448994 216.494383 180.206776 
" style="fill: none; stroke: #555555; stroke-width: 0.8; stroke-linecap: round"/>
    <path d="M 220.065222 180.428389 
L 216.494383 180.206776 
L 218.814177 177.483073 
" style="fill: none; stroke: #555555; stroke-width: 0.8; stroke-linecap: round"/>
   </g>
   <g id="text_17">
    <!-- Strong signal: -->
    <g transform="translate(280.730877 134.937926) scale(0.08 -0.08)">
     <defs>
      <path id="DejaVuSans-53" d="M 3425 4513 
L 3425 3897 
Q 3066 4069 2747 4153 
Q 2428 4238 2131 4238 
Q 1616 4238 1336 4038 
Q 1056 3838 1056 3469 
Q 1056 3159 1242 3001 
Q 1428 2844 1947 2747 
L 2328 2669 
Q 3034 2534 3370 2195 
Q 3706 1856 3706 1288 
Q 3706 609 3251 259 
Q 2797 -91 1919 -91 
Q 1588 -91 1214 -16 
Q 841 59 441 206 
L 441 856 
Q 825 641 1194 531 
Q 1563 422 1919 422 
Q 2459 422 2753 634 
Q 3047 847 3047 1241 
Q 3047 1584 2836 1778 
Q 2625 1972 2144 2069 
L 1759 2144 
Q 1053 2284 737 2584 
Q 422 2884 422 3419 
Q 422 4038 858 4394 
Q 1294 4750 2059 4750 
Q 2388 4750 2728 4690 
Q 3069 4631 3425 4513 
z
" transform="scale(0.015625)"/>
      <path id="DejaVuSans-74" d="M 1172 4494 
L 1172 3500 
L 2356 3500 
L 2356 3053 
L 1172 3053 
L 1172 1153 
Q 1172 725 1289 603 
Q 1406 481 1766 481 
L 2356 481 
L 2356 0 
L 1766 0 
Q 1100 0 847 248 
Q 594 497 594 1153 
L 594 3053 
L 172 3053 
L 172 3500 
L 594 3500 
L 594 4494 
L 1172 4494 
z
" transform="scale(0.015625)"/>
      <path id="DejaVuSans-72" d="M 2631 2963 
Q 2534 3019 2420 3045 
Q 2306 3072 2169 3072 
Q 1681 3072 1420 2755 
Q 1159 2438 1159 1844 
L 1159 0 
L 581 0 
L 581 3500 
L 1159 3500 
L 1159 2956 
Q 1341 3275 1631 3429 
Q 1922 3584 2338 3584 
Q 2397 3584 2469 3576 
Q 2541 3569 2628 3553 
L 2631 2963 
z
" transform="scale(0.015625)"/>
      <path id="DejaVuSans-6f" d="M 1959 3097 
Q 1497 3097 1228 2736 
Q 959 2375 959 1747 
Q 959 1119 1226 758 
Q 1494 397 1959 397 
Q 2419 397 2687 759 
Q 2956 1122 2956 1747 
Q 2956 2369 2687 2733 
Q 2419 3097 1959 3097 
z
M 1959 3584 
Q 2709 3584 3137 3096 
Q 3566 2609 3566 1747 
Q 3566 888 3137 398 
Q 2709 -91 1959 -91 
Q 1206 -91 779 398 
Q 353 888 353 1747 
Q 353 2609 779 3096 
Q 1206 3584 1959 3584 
z
" transform="scale(0.015625)"/>
      <path id="DejaVuSans-6e" d="M 3513 2113 
L 3513 0 
L 2938 0 
L 2938 2094 
Q 2938 2591 2744 2837 
Q 2550 3084 2163 3084 
Q 1697 3084 1428 2787 
Q 1159 2491 1159 1978 
L 1159 0 
L 581 0 
L 581 3500 
L 1159 3500 
L 1159 2956 
Q 1366 3272 1645 3428 
Q 1925 3584 2291 3584 
Q 2894 3584 3203 3211 
Q 3513 2838 3513 2113 
z
" transform="scale(0.015625)"/>
      <path id="DejaVuSans-67" d="M 2906 1791 
Q 2906 2416 2648 2759 
Q 2391 3103 1925 3103 
Q 1463 3103 1205 2759 
Q 947 2416 947 1791 
Q 947 1169 1205 825 
Q 1463 481 1925 481 
Q 2391 481 2648 825 
Q 2906 1169 2906 1791 
z
M 3481 434 
Q 3481 -459 3084 -895 
Q 2688 -1331 1869 -1331 
Q 1566 -1331 1297 -1286 
Q 1028 -1241 775 -1147 
L 775 -588 
Q 1028 -725 1275 -790 
Q 1522 -856 1778 -856 
Q 2344 -856 2625 -561 
Q 2906 -266 2906 331 
L 2906 616 
Q 2728 306 2450 153 
Q 2172 0 1784 0 
Q 1141 0 747 490 
Q 353 981 353 1791 
Q 353 2603 747 3093 
Q 1141 3584 1784 3584 
Q 2172 3584 2450 3431 
Q 2728 3278 2906 2969 
L 2906 3500 
L 3481 3500 
L 3481 434 
z
" transform="scale(0.015625)"/>
      <path id="DejaVuSans-20" transform="scale(0.015625)"/>
      <path id="DejaVuSans-73" d="M 2834 3397 
L 2834 2853 
Q 2591 2978 2328 3040 
Q 2066 3103 1784 3103 
Q 1356 3103 1142 2972 
Q 928 2841 928 2578 
Q 928 2378 1081 2264 
Q 1234 2150 1697 2047 
L 1894 2003 
Q 2506 1872 2764 1633 
Q 3022 1394 3022 966 
Q 3022 478 2636 193 
Q 2250 -91 1575 -91 
Q 1294 -91 989 -36 
Q 684 19 347 128 
L 347 722 
Q 666 556 975 473 
Q 1284 391 1588 391 
Q 1994 391 2212 530 
Q 2431 669 2431 922 
Q 2431 1156 2273 1281 
Q 2116 1406 1581 1522 
L 1381 1569 
Q 847 1681 609 1914 
Q 372 2147 372 2553 
Q 372 3047 722 3315 
Q 1072 3584 1716 3584 
Q 2034 3584 2315 3537 
Q 2597 3491 2834 3397 
z
" transform="scale(0.015625)"/>
      <path id="DejaVuSans-69" d="M 603 3500 
L 1178 3500 
L 1178 0 
L 603 0 
L 603 3500 
z
M 603 4863 
L 1178 4863 
L 1178 4134 
L 603 4134 
L 603 4863 
z
" transform="scale(0.015625)"/>
      <path id="DejaVuSans-61" d="M 2194 1759 
Q 1497 1759 1228 1600 
Q 959 1441 959 1056 
Q 959 750 1161 570 
Q 1363 391 1709 391 
Q 2188 391 2477 730 
Q 2766 1069 2766 1631 
L 2766 1759 
L 2194 1759 
z
M 3341 1997 
L 3341 0 
L 2766 0 
L 2766 531 
Q 2569 213 2275 61 
Q 1981 -91 1556 -91 
Q 1019 -91 701 211 
Q 384 513 384 1019 
Q 384 1609 779 1909 
Q 1175 2209 1959 2209 
L 2766 2209 
L 2766 2266 
Q 2766 2663 2505 2880 
Q 2244 3097 1772 3097 
Q 1472 3097 1187 3025 
Q 903 2953 641 2809 
L 641 3341 
Q 956 3463 1253 3523 
Q 1550 3584 1831 3584 
Q 2591 3584 2966 3190 
Q 3341 2797 3341 1997 
z
" transform="scale(0.015625)"/>
      <path id="DejaVuSans-6c" d="M 603 4863 
L 1178 4863 
L 1178 0 
L 603 0 
L 603 4863 
z
" transform="scale(0.015625)"/>
      <path id="DejaVuSans-3a" d="M 750 794 
L 1409 794 
L 1409 0 
L 750 0 
L 750 794 
z
M 750 3309 
L 1409 3309 
L 1409 2516 
L 750 2516 
L 750 3309 
z
" transform="scale(0.015625)"/>
     </defs>
     <use xlink:href="#DejaVuSans-53"/>
     <use xlink:href="#DejaVuSans-74" transform="translate(63.476562 0)"/>
     <use xlink:href="#DejaVuSans-72" transform="translate(102.685547 0)"/>
     <use xlink:href="#DejaVuSans-6f" transform="translate(141.548828 0)"/>
     <use xlink:href="#DejaVuSans-6e" transform="translate(202.730469 0)"/>
     <use xlink:href="#DejaVuSans-67" transform="translate(266.109375 0)"/>
     <use xlink:href="#DejaVuSans-20" transform="translate(329.585938 0)"/>
     <use xlink:href="#DejaVuSans-73" transform="translate(361.373047 0)"/>
     <use xlink:href="#DejaVuSans-69" transform="translate(413.472656 0)"/>
     <use xlink:href="#DejaVuSans-67" transform="translate(441.255859 0)"/>
     <use xlink:href="#DejaVuSans-6e" transform="translate(504.732422 0)"/>
     <use xlink:href="#DejaVuSans-61" transform="translate(568.111328 0)"/>
     <use xlink:href="#DejaVuSans-6c" transform="translate(629.390625 0)"/>
     <use xlink:href="#DejaVuSans-3a" transform="translate(657.173828 0)"/>
    </g>
    <!-- minimal shrinkage -->
    <g transform="translate(280.730877 143.896176) scale(0.08 -0.08)">
     <defs>
      <path id="DejaVuSans-6d" d="M 3328 2828 
Q 3544 3216 3844 3400 
Q 4144 3584 4550 3584 
Q 5097 3584 5394 3201 
Q 5691 2819 5691 2113 
L 5691 0 
L 5113 0 
L 5113 2094 
Q 5113 2597 4934 2840 
Q 4756 3084 4391 3084 
Q 3944 3084 3684 2787 
Q 3425 2491 3425 1978 
L 3425 0 
L 2847 0 
L 2847 2094 
Q 2847 2600 2669 2842 
Q 2491 3084 2119 3084 
Q 1678 3084 1418 2786 
Q 1159 2488 1159 1978 
L 1159 0 
L 581 0 
L 581 3500 
L 1159 3500 
L 1159 2956 
Q 1356 3278 1631 3431 
Q 1906 3584 2284 3584 
Q 2666 3584 2933 3390 
Q 3200 3197 3328 2828 
z
" transform="scale(0.015625)"/>
      <path id="DejaVuSans-68" d="M 3513 2113 
L 3513 0 
L 2938 0 
L 2938 2094 
Q 2938 2591 2744 2837 
Q 2550 3084 2163 3084 
Q 1697 3084 1428 2787 
Q 1159 2491 1159 1978 
L 1159 0 
L 581 0 
L 581 4863 
L 1159 4863 
L 1159 2956 
Q 1366 3272 1645 3428 
Q 1925 3584 2291 3584 
Q 2894 3584 3203 3211 
Q 3513 2838 3513 2113 
z
" transform="scale(0.015625)"/>
      <path id="DejaVuSans-6b" d="M 581 4863 
L 1159 4863 
L 1159 1991 
L 2875 3500 
L 3609 3500 
L 1753 1863 
L 3688 0 
L 2938 0 
L 1159 1709 
L 1159 0 
L 581 0 
L 581 4863 
z
" transform="scale(0.015625)"/>
      <path id="DejaVuSans-65" d="M 3597 1894 
L 3597 1613 
L 953 1613 
Q 991 1019 1311 708 
Q 1631 397 2203 397 
Q 2534 397 2845 478 
Q 3156 559 3463 722 
L 3463 178 
Q 3153 47 2828 -22 
Q 2503 -91 2169 -91 
Q 1331 -91 842 396 
Q 353 884 353 1716 
Q 353 2575 817 3079 
Q 1281 3584 2069 3584 
Q 2775 3584 3186 3129 
Q 3597 2675 3597 1894 
z
M 3022 2063 
Q 3016 2534 2758 2815 
Q 2500 3097 2075 3097 
Q 1594 3097 1305 2825 
Q 1016 2553 972 2059 
L 3022 2063 
z
" transform="scale(0.015625)"/>
     </defs>
     <use xlink:href="#DejaVuSans-6d"/>
     <use xlink:href="#DejaVuSans-69" transform="translate(97.412109 0)"/>
     <use xlink:href="#DejaVuSans-6e" transform="translate(125.195312 0)"/>
     <use xlink:href="#DejaVuSans-69" transform="translate(188.574219 0)"/>
     <use xlink:href="#DejaVuSans-6d" transform="translate(216.357422 0)"/>
     <use xlink:href="#DejaVuSans-61" transform="translate(313.769531 0)"/>
     <use xlink:href="#DejaVuSans-6c" transform="translate(375.048828 0)"/>
     <use xlink:href="#DejaVuSans-20" transform="translate(402.832031 0)"/>
     <use xlink:href="#DejaVuSans-73" transform="translate(434.619141 0)"/>
     <use xlink:href="#DejaVuSans-68" transform="translate(486.71875 0)"/>
     <use xlink:href="#DejaVuSans-72" transform="translate(550.097656 0)"/>
     <use xlink:href="#DejaVuSans-69" transform="translate(591.210938 0)"/>
     <use xlink:href="#DejaVuSans-6e" transform="translate(618.994141 0)"/>
     <use xlink:href="#DejaVuSans-6b" transform="translate(682.373047 0)"/>
     <use xlink:href="#DejaVuSans-61" transform="translate(738.533203 0)"/>
     <use xlink:href="#DejaVuSans-67" transform="translate(799.8125 0)"/>
     <use xlink:href="#DejaVuSans-65" transform="translate(863.289062 0)"/>
    </g>
   </g>
   <g id="patch_108">
    <path d="M 309.659585 52.994668 
Q 276.602615 86.035071 244.178259 118.443176 
" style="fill: none; stroke: #555555; stroke-width: 0.8; stroke-linecap: round"/>
    <path d="M 247.572655 117.312656 
L 244.178259 118.443176 
L 245.310481 115.049347 
" style="fill: none; stroke: #555555; stroke-width: 0.8; stroke-linecap: round"/>
   </g>
   <g id="text_18">
    <!-- Weak signal: -->
    <g transform="translate(292.306209 29.998566) scale(0.08 -0.08)">
     <defs>
      <path id="DejaVuSans-57" d="M 213 4666 
L 850 4666 
L 1831 722 
L 2809 4666 
L 3519 4666 
L 4500 722 
L 5478 4666 
L 6119 4666 
L 4947 0 
L 4153 0 
L 3169 4050 
L 2175 0 
L 1381 0 
L 213 4666 
z
" transform="scale(0.015625)"/>
     </defs>
     <use xlink:href="#DejaVuSans-57"/>
     <use xlink:href="#DejaVuSans-65" transform="translate(93.001953 0)"/>
     <use xlink:href="#DejaVuSans-61" transform="translate(154.525391 0)"/>
     <use xlink:href="#DejaVuSans-6b" transform="translate(215.804688 0)"/>
     <use xlink:href="#DejaVuSans-20" transform="translate(273.714844 0)"/>
     <use xlink:href="#DejaVuSans-73" transform="translate(305.501953 0)"/>
     <use xlink:href="#DejaVuSans-69" transform="translate(357.601562 0)"/>
     <use xlink:href="#DejaVuSans-67" transform="translate(385.384766 0)"/>
     <use xlink:href="#DejaVuSans-6e" transform="translate(448.861328 0)"/>
     <use xlink:href="#DejaVuSans-61" transform="translate(512.240234 0)"/>
     <use xlink:href="#DejaVuSans-6c" transform="translate(573.519531 0)"/>
     <use xlink:href="#DejaVuSans-3a" transform="translate(601.302734 0)"/>
    </g>
    <!-- strong shrinkage -->
    <g transform="translate(292.306209 38.956816) scale(0.08 -0.08)">
     <use xlink:href="#DejaVuSans-73"/>
     <use xlink:href="#DejaVuSans-74" transform="translate(52.099609 0)"/>
     <use xlink:href="#DejaVuSans-72" transform="translate(91.308594 0)"/>
     <use xlink:href="#DejaVuSans-6f" transform="translate(130.171875 0)"/>
     <use xlink:href="#DejaVuSans-6e" transform="translate(191.353516 0)"/>
     <use xlink:href="#DejaVuSans-67" transform="translate(254.732422 0)"/>
     <use xlink:href="#DejaVuSans-20" transform="translate(318.208984 0)"/>
     <use xlink:href="#DejaVuSans-73" transform="translate(349.996094 0)"/>
     <use xlink:href="#DejaVuSans-68" transform="translate(402.095703 0)"/>
     <use xlink:href="#DejaVuSans-72" transform="translate(465.474609 0)"/>
     <use xlink:href="#DejaVuSans-69" transform="translate(506.587891 0)"/>
     <use xlink:href="#DejaVuSans-6e" transform="translate(534.371094 0)"/>
     <use xlink:href="#DejaVuSans-6b" transform="translate(597.75 0)"/>
     <use xlink:href="#DejaVuSans-61" transform="translate(653.910156 0)"/>
     <use xlink:href="#DejaVuSans-67" transform="translate(715.189453 0)"/>
     <use xlink:href="#DejaVuSans-65" transform="translate(778.666016 0)"/>
    </g>
    <!-- toward zero -->
    <g transform="translate(292.306209 47.915066) scale(0.08 -0.08)">
     <defs>
      <path id="DejaVuSans-77" d="M 269 3500 
L 844 3500 
L 1563 769 
L 2278 3500 
L 2956 3500 
L 3675 769 
L 4391 3500 
L 4966 3500 
L 4050 0 
L 3372 0 
L 2619 2869 
L 1863 0 
L 1184 0 
L 269 3500 
z
" transform="scale(0.015625)"/>
      <path id="DejaVuSans-64" d="M 2906 2969 
L 2906 4863 
L 3481 4863 
L 3481 0 
L 2906 0 
L 2906 525 
Q 2725 213 2448 61 
Q 2172 -91 1784 -91 
Q 1150 -91 751 415 
Q 353 922 353 1747 
Q 353 2572 751 3078 
Q 1150 3584 1784 3584 
Q 2172 3584 2448 3432 
Q 2725 3281 2906 2969 
z
M 947 1747 
Q 947 1113 1208 752 
Q 1469 391 1925 391 
Q 2381 391 2643 752 
Q 2906 1113 2906 1747 
Q 2906 2381 2643 2742 
Q 2381 3103 1925 3103 
Q 1469 3103 1208 2742 
Q 947 2381 947 1747 
z
" transform="scale(0.015625)"/>
      <path id="DejaVuSans-7a" d="M 353 3500 
L 3084 3500 
L 3084 2975 
L 922 459 
L 3084 459 
L 3084 0 
L 275 0 
L 275 525 
L 2438 3041 
L 353 3041 
L 353 3500 
z
" transform="scale(0.015625)"/>
     </defs>
     <use xlink:href="#DejaVuSans-74"/>
     <use xlink:href="#DejaVuSans-6f" transform="translate(39.208984 0)"/>
     <use xlink:href="#DejaVuSans-77" transform="translate(100.390625 0)"/>
     <use xlink:href="#DejaVuSans-61" transform="translate(182.177734 0)"/>
     <use xlink:href="#DejaVuSans-72" transform="translate(243.457031 0)"/>
     <use xlink:href="#DejaVuSans-64" transform="translate(282.820312 0)"/>
     <use xlink:href="#DejaVuSans-20" transform="translate(346.296875 0)"/>
     <use xlink:href="#DejaVuSans-7a" transform="translate(378.083984 0)"/>
     <use xlink:href="#DejaVuSans-65" transform="translate(430.574219 0)"/>
     <use xlink:href="#DejaVuSans-72" transform="translate(492.097656 0)"/>
     <use xlink:href="#DejaVuSans-6f" transform="translate(530.960938 0)"/>
    </g>
   </g>
   <g id="text_19">
    <g id="patch_109">
     <path d="M 296.42955 59.005456 
L 410.469394 59.005456 
Q 413.169394 59.005456 413.169394 56.305456 
L 413.169394 27.439081 
Q 413.169394 24.739081 410.469394 24.739081 
L 296.42955 24.739081 
Q 293.72955 24.739081 293.72955 27.439081 
L 293.72955 56.305456 
Q 293.72955 59.005456 296.42955 59.005456 
z
" style="fill: #ffffff; stroke: #cccccc; stroke-linejoin: miter"/>
    </g>
    <!-- All 50 variants contribute -->
    <g transform="translate(296.42955 34.277675) scale(0.09 -0.09)">
     <defs>
      <path id="DejaVuSans-41" d="M 2188 4044 
L 1331 1722 
L 3047 1722 
L 2188 4044 
z
M 1831 4666 
L 2547 4666 
L 4325 0 
L 3669 0 
L 3244 1197 
L 1141 1197 
L 716 0 
L 50 0 
L 1831 4666 
z
" transform="scale(0.015625)"/>
      <path id="DejaVuSans-76" d="M 191 3500 
L 800 3500 
L 1894 563 
L 2988 3500 
L 3597 3500 
L 2284 0 
L 1503 0 
L 191 3500 
z
" transform="scale(0.015625)"/>
      <path id="DejaVuSans-63" d="M 3122 3366 
L 3122 2828 
Q 2878 2963 2633 3030 
Q 2388 3097 2138 3097 
Q 1578 3097 1268 2742 
Q 959 2388 959 1747 
Q 959 1106 1268 751 
Q 1578 397 2138 397 
Q 2388 397 2633 464 
Q 2878 531 3122 666 
L 3122 134 
Q 2881 22 2623 -34 
Q 2366 -91 2075 -91 
Q 1284 -91 818 406 
Q 353 903 353 1747 
Q 353 2603 823 3093 
Q 1294 3584 2113 3584 
Q 2378 3584 2631 3529 
Q 2884 3475 3122 3366 
z
" transform="scale(0.015625)"/>
      <path id="DejaVuSans-62" d="M 3116 1747 
Q 3116 2381 2855 2742 
Q 2594 3103 2138 3103 
Q 1681 3103 1420 2742 
Q 1159 2381 1159 1747 
Q 1159 1113 1420 752 
Q 1681 391 2138 391 
Q 2594 391 2855 752 
Q 3116 1113 3116 1747 
z
M 1159 2969 
Q 1341 3281 1617 3432 
Q 1894 3584 2278 3584 
Q 2916 3584 3314 3078 
Q 3713 2572 3713 1747 
Q 3713 922 3314 415 
Q 2916 -91 2278 -91 
Q 1894 -91 1617 61 
Q 1341 213 1159 525 
L 1159 0 
L 581 0 
L 581 4863 
L 1159 4863 
L 1159 2969 
z
" transform="scale(0.015625)"/>
      <path id="DejaVuSans-75" d="M 544 1381 
L 544 3500 
L 1119 3500 
L 1119 1403 
Q 1119 906 1312 657 
Q 1506 409 1894 409 
Q 2359 409 2629 706 
Q 2900 1003 2900 1516 
L 2900 3500 
L 3475 3500 
L 3475 0 
L 2900 0 
L 2900 538 
Q 2691 219 2414 64 
Q 2138 -91 1772 -91 
Q 1169 -91 856 284 
Q 544 659 544 1381 
z
M 1991 3584 
L 1991 3584 
z
" transform="scale(0.015625)"/>
     </defs>
     <use xlink:href="#DejaVuSans-41"/>
     <use xlink:href="#DejaVuSans-6c" transform="translate(68.408203 0)"/>
     <use xlink:href="#DejaVuSans-6c" transform="translate(96.191406 0)"/>
     <use xlink:href="#DejaVuSans-20" transform="translate(123.974609 0)"/>
     <use xlink:href="#DejaVuSans-35" transform="translate(155.761719 0)"/>
     <use xlink:href="#DejaVuSans-30" transform="translate(219.384766 0)"/>
     <use xlink:href="#DejaVuSans-20" transform="translate(283.007812 0)"/>
     <use xlink:href="#DejaVuSans-76" transform="translate(314.794922 0)"/>
     <use xlink:href="#DejaVuSans-61" transform="translate(373.974609 0)"/>
     <use xlink:href="#DejaVuSans-72" transform="translate(435.253906 0)"/>
     <use xlink:href="#DejaVuSans-69" transform="translate(476.367188 0)"/>
     <use xlink:href="#DejaVuSans-61" transform="translate(504.150391 0)"/>
     <use xlink:href="#DejaVuSans-6e" transform="translate(565.429688 0)"/>
     <use xlink:href="#DejaVuSans-74" transform="translate(628.808594 0)"/>
     <use xlink:href="#DejaVuSans-73" transform="translate(668.017578 0)"/>
     <use xlink:href="#DejaVuSans-20" transform="translate(720.117188 0)"/>
     <use xlink:href="#DejaVuSans-63" transform="translate(751.904297 0)"/>
     <use xlink:href="#DejaVuSans-6f" transform="translate(806.884766 0)"/>
     <use xlink:href="#DejaVuSans-6e" transform="translate(868.066406 0)"/>
     <use xlink:href="#DejaVuSans-74" transform="translate(931.445312 0)"/>
     <use xlink:href="#DejaVuSans-72" transform="translate(970.654297 0)"/>
     <use xlink:href="#DejaVuSans-69" transform="translate(1011.767578 0)"/>
     <use xlink:href="#DejaVuSans-62" transform="translate(1039.550781 0)"/>
     <use xlink:href="#DejaVuSans-75" transform="translate(1103.027344 0)"/>
     <use xlink:href="#DejaVuSans-74" transform="translate(1166.40625 0)"/>
     <use xlink:href="#DejaVuSans-65" transform="translate(1205.615234 0)"/>
    </g>
    <!-- Weights modulated by -->
    <g transform="translate(309.180019 44.355706) scale(0.09 -0.09)">
     <defs>
      <path id="DejaVuSans-79" d="M 2059 -325 
Q 1816 -950 1584 -1140 
Q 1353 -1331 966 -1331 
L 506 -1331 
L 506 -850 
L 844 -850 
Q 1081 -850 1212 -737 
Q 1344 -625 1503 -206 
L 1606 56 
L 191 3500 
L 800 3500 
L 1894 763 
L 2988 3500 
L 3597 3500 
L 2059 -325 
z
" transform="scale(0.015625)"/>
     </defs>
     <use xlink:href="#DejaVuSans-57"/>
     <use xlink:href="#DejaVuSans-65" transform="translate(93.001953 0)"/>
     <use xlink:href="#DejaVuSans-69" transform="translate(154.525391 0)"/>
     <use xlink:href="#DejaVuSans-67" transform="translate(182.308594 0)"/>
     <use xlink:href="#DejaVuSans-68" transform="translate(245.785156 0)"/>
     <use xlink:href="#DejaVuSans-74" transform="translate(309.164062 0)"/>
     <use xlink:href="#DejaVuSans-73" transform="translate(348.373047 0)"/>
     <use xlink:href="#DejaVuSans-20" transform="translate(400.472656 0)"/>
     <use xlink:href="#DejaVuSans-6d" transform="translate(432.259766 0)"/>
     <use xlink:href="#DejaVuSans-6f" transform="translate(529.671875 0)"/>
     <use xlink:href="#DejaVuSans-64" transform="translate(590.853516 0)"/>
     <use xlink:href="#DejaVuSans-75" transform="translate(654.330078 0)"/>
     <use xlink:href="#DejaVuSans-6c" transform="translate(717.708984 0)"/>
     <use xlink:href="#DejaVuSans-61" transform="translate(745.492188 0)"/>
     <use xlink:href="#DejaVuSans-74" transform="translate(806.771484 0)"/>
     <use xlink:href="#DejaVuSans-65" transform="translate(845.980469 0)"/>
     <use xlink:href="#DejaVuSans-64" transform="translate(907.503906 0)"/>
     <use xlink:href="#DejaVuSans-20" transform="translate(970.980469 0)"/>
     <use xlink:href="#DejaVuSans-62" transform="translate(1002.767578 0)"/>
     <use xlink:href="#DejaVuSans-79" transform="translate(1066.244141 0)"/>
    </g>
    <!-- evidence strength -->
    <g transform="translate(328.901269 54.433738) scale(0.09 -0.09)">
     <use xlink:href="#DejaVuSans-65"/>
     <use xlink:href="#DejaVuSans-76" transform="translate(61.523438 0)"/>
     <use xlink:href="#DejaVuSans-69" transform="translate(120.703125 0)"/>
     <use xlink:href="#DejaVuSans-64" transform="translate(148.486328 0)"/>
     <use xlink:href="#DejaVuSans-65" transform="translate(211.962891 0)"/>
     <use xlink:href="#DejaVuSans-6e" transform="translate(273.486328 0)"/>
     <use xlink:href="#DejaVuSans-63" transform="translate(336.865234 0)"/>
     <use xlink:href="#DejaVuSans-65" transform="translate(391.845703 0)"/>
     <use xlink:href="#DejaVuSans-20" transform="translate(453.369141 0)"/>
     <use xlink:href="#DejaVuSans-73" transform="translate(485.15625 0)"/>
     <use xlink:href="#DejaVuSans-74" transform="translate(537.255859 0)"/>
     <use xlink:href="#DejaVuSans-72" transform="translate(576.464844 0)"/>
     <use xlink:href="#DejaVuSans-65" transform="translate(615.328125 0)"/>
     <use xlink:href="#DejaVuSans-6e" transform="translate(676.851562 0)"/>
     <use xlink:href="#DejaVuSans-67" transform="translate(740.230469 0)"/>
     <use xlink:href="#DejaVuSans-74" transform="translate(803.707031 0)"/>
     <use xlink:href="#DejaVuSans-68" transform="translate(842.916016 0)"/>
    </g>
   </g>
   <g id="text_20">
    <!-- B. Bayesian Methods (LDpred, PRS-CS) -->
    <g transform="translate(49.868594 15.558281) scale(0.11 -0.11)">
     <defs>
      <path id="DejaVuSans-Bold-42" d="M 2456 2859 
Q 2741 2859 2887 2984 
Q 3034 3109 3034 3353 
Q 3034 3594 2887 3720 
Q 2741 3847 2456 3847 
L 1791 3847 
L 1791 2859 
L 2456 2859 
z
M 2497 819 
Q 2859 819 3042 972 
Q 3225 1125 3225 1434 
Q 3225 1738 3044 1889 
Q 2863 2041 2497 2041 
L 1791 2041 
L 1791 819 
L 2497 819 
z
M 3616 2497 
Q 4003 2384 4215 2081 
Q 4428 1778 4428 1338 
Q 4428 663 3972 331 
Q 3516 0 2584 0 
L 588 0 
L 588 4666 
L 2394 4666 
Q 3366 4666 3802 4372 
Q 4238 4078 4238 3431 
Q 4238 3091 4078 2852 
Q 3919 2613 3616 2497 
z
" transform="scale(0.015625)"/>
      <path id="DejaVuSans-Bold-2e" d="M 653 1209 
L 1778 1209 
L 1778 0 
L 653 0 
L 653 1209 
z
" transform="scale(0.015625)"/>
      <path id="DejaVuSans-Bold-61" d="M 2106 1575 
Q 1756 1575 1579 1456 
Q 1403 1338 1403 1106 
Q 1403 894 1545 773 
Q 1688 653 1941 653 
Q 2256 653 2472 879 
Q 2688 1106 2688 1447 
L 2688 1575 
L 2106 1575 
z
M 3816 1997 
L 3816 0 
L 2688 0 
L 2688 519 
Q 2463 200 2181 54 
Q 1900 -91 1497 -91 
Q 953 -91 614 226 
Q 275 544 275 1050 
Q 275 1666 698 1953 
Q 1122 2241 2028 2241 
L 2688 2241 
L 2688 2328 
Q 2688 2594 2478 2717 
Q 2269 2841 1825 2841 
Q 1466 2841 1156 2769 
Q 847 2697 581 2553 
L 581 3406 
Q 941 3494 1303 3539 
Q 1666 3584 2028 3584 
Q 2975 3584 3395 3211 
Q 3816 2838 3816 1997 
z
" transform="scale(0.015625)"/>
      <path id="DejaVuSans-Bold-79" d="M 78 3500 
L 1197 3500 
L 2138 1125 
L 2938 3500 
L 4056 3500 
L 2584 -331 
Q 2363 -916 2067 -1148 
Q 1772 -1381 1288 -1381 
L 641 -1381 
L 641 -647 
L 991 -647 
Q 1275 -647 1404 -556 
Q 1534 -466 1606 -231 
L 1638 -134 
L 78 3500 
z
" transform="scale(0.015625)"/>
      <path id="DejaVuSans-Bold-4d" d="M 588 4666 
L 2119 4666 
L 3181 2169 
L 4250 4666 
L 5778 4666 
L 5778 0 
L 4641 0 
L 4641 3413 
L 3566 897 
L 2803 897 
L 1728 3413 
L 1728 0 
L 588 0 
L 588 4666 
z
" transform="scale(0.015625)"/>
      <path id="DejaVuSans-Bold-68" d="M 4056 2131 
L 4056 0 
L 2931 0 
L 2931 347 
L 2931 1625 
Q 2931 2084 2911 2256 
Q 2891 2428 2841 2509 
Q 2775 2619 2662 2680 
Q 2550 2741 2406 2741 
Q 2056 2741 1856 2470 
Q 1656 2200 1656 1722 
L 1656 0 
L 538 0 
L 538 4863 
L 1656 4863 
L 1656 2988 
Q 1909 3294 2193 3439 
Q 2478 3584 2822 3584 
Q 3428 3584 3742 3212 
Q 4056 2841 4056 2131 
z
" transform="scale(0.015625)"/>
      <path id="DejaVuSans-Bold-64" d="M 2919 2988 
L 2919 4863 
L 4044 4863 
L 4044 0 
L 2919 0 
L 2919 506 
Q 2688 197 2409 53 
Q 2131 -91 1766 -91 
Q 1119 -91 703 423 
Q 288 938 288 1747 
Q 288 2556 703 3070 
Q 1119 3584 1766 3584 
Q 2128 3584 2408 3439 
Q 2688 3294 2919 2988 
z
M 2181 722 
Q 2541 722 2730 984 
Q 2919 1247 2919 1747 
Q 2919 2247 2730 2509 
Q 2541 2772 2181 2772 
Q 1825 2772 1636 2509 
Q 1447 2247 1447 1747 
Q 1447 1247 1636 984 
Q 1825 722 2181 722 
z
" transform="scale(0.015625)"/>
      <path id="DejaVuSans-Bold-4c" d="M 588 4666 
L 1791 4666 
L 1791 909 
L 3903 909 
L 3903 0 
L 588 0 
L 588 4666 
z
" transform="scale(0.015625)"/>
      <path id="DejaVuSans-Bold-44" d="M 1791 3756 
L 1791 909 
L 2222 909 
Q 2959 909 3348 1275 
Q 3738 1641 3738 2338 
Q 3738 3031 3350 3393 
Q 2963 3756 2222 3756 
L 1791 3756 
z
M 588 4666 
L 1856 4666 
Q 2919 4666 3439 4514 
Q 3959 4363 4331 4000 
Q 4659 3684 4818 3271 
Q 4978 2859 4978 2338 
Q 4978 1809 4818 1395 
Q 4659 981 4331 666 
Q 3956 303 3431 151 
Q 2906 0 1856 0 
L 588 0 
L 588 4666 
z
" transform="scale(0.015625)"/>
      <path id="DejaVuSans-Bold-70" d="M 1656 506 
L 1656 -1331 
L 538 -1331 
L 538 3500 
L 1656 3500 
L 1656 2988 
Q 1888 3294 2169 3439 
Q 2450 3584 2816 3584 
Q 3463 3584 3878 3070 
Q 4294 2556 4294 1747 
Q 4294 938 3878 423 
Q 3463 -91 2816 -91 
Q 2450 -91 2169 54 
Q 1888 200 1656 506 
z
M 2400 2772 
Q 2041 2772 1848 2508 
Q 1656 2244 1656 1747 
Q 1656 1250 1848 986 
Q 2041 722 2400 722 
Q 2759 722 2948 984 
Q 3138 1247 3138 1747 
Q 3138 2247 2948 2509 
Q 2759 2772 2400 2772 
z
" transform="scale(0.015625)"/>
      <path id="DejaVuSans-Bold-72" d="M 3138 2547 
Q 2991 2616 2845 2648 
Q 2700 2681 2553 2681 
Q 2122 2681 1889 2404 
Q 1656 2128 1656 1613 
L 1656 0 
L 538 0 
L 538 3500 
L 1656 3500 
L 1656 2925 
Q 1872 3269 2151 3426 
Q 2431 3584 2822 3584 
Q 2878 3584 2943 3579 
Q 3009 3575 3134 3559 
L 3138 2547 
z
" transform="scale(0.015625)"/>
      <path id="DejaVuSans-Bold-2c" d="M 653 1209 
L 1778 1209 
L 1778 256 
L 1006 -909 
L 341 -909 
L 653 256 
L 653 1209 
z
" transform="scale(0.015625)"/>
      <path id="DejaVuSans-Bold-52" d="M 2297 2597 
Q 2675 2597 2839 2737 
Q 3003 2878 3003 3200 
Q 3003 3519 2839 3656 
Q 2675 3794 2297 3794 
L 1791 3794 
L 1791 2597 
L 2297 2597 
z
M 1791 1766 
L 1791 0 
L 588 0 
L 588 4666 
L 2425 4666 
Q 3347 4666 3776 4356 
Q 4206 4047 4206 3378 
Q 4206 2916 3982 2619 
Q 3759 2322 3309 2181 
Q 3556 2125 3751 1926 
Q 3947 1728 4147 1325 
L 4800 0 
L 3519 0 
L 2950 1159 
Q 2778 1509 2601 1637 
Q 2425 1766 2131 1766 
L 1791 1766 
z
" transform="scale(0.015625)"/>
      <path id="DejaVuSans-Bold-2d" d="M 347 2297 
L 2309 2297 
L 2309 1388 
L 347 1388 
L 347 2297 
z
" transform="scale(0.015625)"/>
      <path id="DejaVuSans-Bold-43" d="M 4288 256 
Q 3956 84 3597 -3 
Q 3238 -91 2847 -91 
Q 1681 -91 1000 561 
Q 319 1213 319 2328 
Q 319 3447 1000 4098 
Q 1681 4750 2847 4750 
Q 3238 4750 3597 4662 
Q 3956 4575 4288 4403 
L 4288 3438 
Q 3953 3666 3628 3772 
Q 3303 3878 2944 3878 
Q 2300 3878 1931 3465 
Q 1563 3053 1563 2328 
Q 1563 1606 1931 1193 
Q 2300 781 2944 781 
Q 3303 781 3628 887 
Q 3953 994 4288 1222 
L 4288 256 
z
" transform="scale(0.015625)"/>
     </defs>
     <use xlink:href="#DejaVuSans-Bold-42"/>
     <use xlink:href="#DejaVuSans-Bold-2e" transform="translate(76.220703 0)"/>
     <use xlink:href="#DejaVuSans-Bold-20" transform="translate(114.208984 0)"/>
     <use xlink:href="#DejaVuSans-Bold-42" transform="translate(149.023438 0)"/>
     <use xlink:href="#DejaVuSans-Bold-61" transform="translate(225.244141 0)"/>
     <use xlink:href="#DejaVuSans-Bold-79" transform="translate(289.599609 0)"/>
     <use xlink:href="#DejaVuSans-Bold-65" transform="translate(354.785156 0)"/>
     <use xlink:href="#DejaVuSans-Bold-73" transform="translate(422.607422 0)"/>
     <use xlink:href="#DejaVuSans-Bold-69" transform="translate(482.128906 0)"/>
     <use xlink:href="#DejaVuSans-Bold-61" transform="translate(516.40625 0)"/>
     <use xlink:href="#DejaVuSans-Bold-6e" transform="translate(583.886719 0)"/>
     <use xlink:href="#DejaVuSans-Bold-20" transform="translate(655.078125 0)"/>
     <use xlink:href="#DejaVuSans-Bold-4d" transform="translate(689.892578 0)"/>
     <use xlink:href="#DejaVuSans-Bold-65" transform="translate(789.404297 0)"/>
     <use xlink:href="#DejaVuSans-Bold-74" transform="translate(857.226562 0)"/>
     <use xlink:href="#DejaVuSans-Bold-68" transform="translate(905.029297 0)"/>
     <use xlink:href="#DejaVuSans-Bold-6f" transform="translate(976.220703 0)"/>
     <use xlink:href="#DejaVuSans-Bold-64" transform="translate(1044.921875 0)"/>
     <use xlink:href="#DejaVuSans-Bold-73" transform="translate(1116.503906 0)"/>
     <use xlink:href="#DejaVuSans-Bold-20" transform="translate(1176.025391 0)"/>
     <use xlink:href="#DejaVuSans-Bold-28" transform="translate(1210.839844 0)"/>
     <use xlink:href="#DejaVuSans-Bold-4c" transform="translate(1256.542969 0)"/>
     <use xlink:href="#DejaVuSans-Bold-44" transform="translate(1320.263672 0)"/>
     <use xlink:href="#DejaVuSans-Bold-70" transform="translate(1403.271484 0)"/>
     <use xlink:href="#DejaVuSans-Bold-72" transform="translate(1474.853516 0)"/>
     <use xlink:href="#DejaVuSans-Bold-65" transform="translate(1524.169922 0)"/>
     <use xlink:href="#DejaVuSans-Bold-64" transform="translate(1591.992188 0)"/>
     <use xlink:href="#DejaVuSans-Bold-2c" transform="translate(1663.574219 0)"/>
     <use xlink:href="#DejaVuSans-Bold-20" transform="translate(1701.5625 0)"/>
     <use xlink:href="#DejaVuSans-Bold-50" transform="translate(1736.376953 0)"/>
     <use xlink:href="#DejaVuSans-Bold-52" transform="translate(1809.667969 0)"/>
     <use xlink:href="#DejaVuSans-Bold-53" transform="translate(1886.669922 0)"/>
     <use xlink:href="#DejaVuSans-Bold-2d" transform="translate(1958.691406 0)"/>
     <use xlink:href="#DejaVuSans-Bold-43" transform="translate(2000.195312 0)"/>
     <use xlink:href="#DejaVuSans-Bold-53" transform="translate(2075.458984 0)"/>
     <use xlink:href="#DejaVuSans-Bold-29" transform="translate(2147.480469 0)"/>
    </g>
   </g>
   <g id="legend_1">
    <g id="patch_110">
     <path d="M 55.468594 51.543281 
L 191.758594 51.543281 
Q 193.358594 51.543281 193.358594 49.943281 
L 193.358594 27.158281 
Q 193.358594 25.558281 191.758594 25.558281 
L 55.468594 25.558281 
Q 53.868594 25.558281 53.868594 27.158281 
L 53.868594 49.943281 
Q 53.868594 51.543281 55.468594 51.543281 
z
" style="fill: #ffffff; opacity: 0.8; stroke: #cccccc; stroke-linejoin: miter"/>
    </g>
    <g id="patch_111">
     <path d="M 57.068594 34.887031 
L 73.068594 34.887031 
L 73.068594 29.287031 
L 57.068594 29.287031 
z
" style="fill: #d3d3d3; opacity: 0.4"/>
    </g>
    <g id="text_21">
     <!-- GWAS effect (βₘₐᵣginal) -->
     <g transform="translate(79.468594 34.887031) scale(0.08 -0.08)">
      <defs>
       <path id="DejaVuSans-47" d="M 3809 666 
L 3809 1919 
L 2778 1919 
L 2778 2438 
L 4434 2438 
L 4434 434 
Q 4069 175 3628 42 
Q 3188 -91 2688 -91 
Q 1594 -91 976 548 
Q 359 1188 359 2328 
Q 359 3472 976 4111 
Q 1594 4750 2688 4750 
Q 3144 4750 3555 4637 
Q 3966 4525 4313 4306 
L 4313 3634 
Q 3963 3931 3569 4081 
Q 3175 4231 2741 4231 
Q 1884 4231 1454 3753 
Q 1025 3275 1025 2328 
Q 1025 1384 1454 906 
Q 1884 428 2741 428 
Q 3075 428 3337 486 
Q 3600 544 3809 666 
z
" transform="scale(0.015625)"/>
       <path id="DejaVuSans-66" d="M 2375 4863 
L 2375 4384 
L 1825 4384 
Q 1516 4384 1395 4259 
Q 1275 4134 1275 3809 
L 1275 3500 
L 2222 3500 
L 2222 3053 
L 1275 3053 
L 1275 0 
L 697 0 
L 697 3053 
L 147 3053 
L 147 3500 
L 697 3500 
L 697 3744 
Q 697 4328 969 4595 
Q 1241 4863 1831 4863 
L 2375 4863 
z
" transform="scale(0.015625)"/>
       <path id="DejaVuSans-28" d="M 1984 4856 
Q 1566 4138 1362 3434 
Q 1159 2731 1159 2009 
Q 1159 1288 1364 580 
Q 1569 -128 1984 -844 
L 1484 -844 
Q 1016 -109 783 600 
Q 550 1309 550 2009 
Q 550 2706 781 3412 
Q 1013 4119 1484 4856 
L 1984 4856 
z
" transform="scale(0.015625)"/>
       <path id="DejaVuSans-3b2" d="M 1178 216 
L 1178 -1331 
L 600 -1331 
L 600 3478 
Q 600 4903 1931 4903 
Q 3288 4903 3288 3700 
Q 3288 2844 2750 2531 
Q 3625 2250 3625 1416 
Q 3625 -66 2119 -66 
Q 1456 -66 1178 216 
z
M 1178 966 
Q 1525 425 2141 425 
Q 3041 425 3041 1406 
Q 3041 2288 1591 2219 
L 1591 2750 
Q 2725 2750 2725 3750 
Q 2725 4434 1994 4434 
Q 1178 4434 1178 3459 
L 1178 966 
z
" transform="scale(0.015625)"/>
       <path id="DejaVuSans-2098" d="M 2156 1082 
L 2156 -24 
L 1794 -24 
L 1794 1147 
Q 1794 1432 1681 1568 
Q 1569 1704 1334 1704 
Q 1056 1704 893 1536 
Q 731 1369 731 1082 
L 731 -24 
L 366 -24 
L 366 1935 
L 731 1935 
L 731 1632 
Q 853 1810 1026 1896 
Q 1200 1982 1441 1982 
Q 1678 1982 1847 1874 
Q 2016 1766 2097 1560 
Q 2231 1776 2420 1879 
Q 2609 1982 2866 1982 
Q 3213 1982 3398 1768 
Q 3584 1554 3584 1160 
L 3584 -24 
L 3222 -24 
L 3222 1147 
Q 3222 1429 3109 1566 
Q 2997 1704 2766 1704 
Q 2484 1704 2320 1536 
Q 2156 1369 2156 1082 
z
" transform="scale(0.015625)"/>
       <path id="DejaVuSans-2090" d="M 1381 960 
Q 944 960 775 872 
Q 603 782 603 566 
Q 603 394 731 294 
Q 859 194 1078 194 
Q 1378 194 1559 385 
Q 1744 576 1744 888 
L 1744 960 
L 1381 960 
z
M 2103 1094 
L 2103 -24 
L 1744 -24 
L 1744 272 
Q 1619 94 1434 10 
Q 1247 -74 981 -74 
Q 641 -74 441 94 
Q 241 263 241 547 
Q 241 876 491 1044 
Q 741 1213 1234 1213 
L 1744 1213 
L 1744 1244 
Q 1744 1466 1578 1588 
Q 1413 1710 1116 1710 
Q 928 1710 747 1669 
Q 569 1629 403 1547 
L 403 1847 
Q 603 1913 791 1947 
Q 975 1982 1153 1982 
Q 1631 1982 1869 1763 
Q 2103 1541 2103 1094 
z
" transform="scale(0.015625)"/>
       <path id="DejaVuSans-1d63" d="M 1656 1635 
Q 1597 1666 1525 1680 
Q 1453 1694 1366 1694 
Q 1059 1694 895 1517 
Q 731 1341 731 1007 
L 731 -24 
L 366 -24 
L 366 1935 
L 731 1935 
L 731 1632 
Q 844 1810 1026 1896 
Q 1209 1982 1472 1982 
Q 1509 1982 1554 1979 
Q 1600 1976 1656 1966 
L 1656 1635 
z
" transform="scale(0.015625)"/>
       <path id="DejaVuSans-29" d="M 513 4856 
L 1013 4856 
Q 1481 4119 1714 3412 
Q 1947 2706 1947 2009 
Q 1947 1309 1714 600 
Q 1481 -109 1013 -844 
L 513 -844 
Q 928 -128 1133 580 
Q 1338 1288 1338 2009 
Q 1338 2731 1133 3434 
Q 928 4138 513 4856 
z
" transform="scale(0.015625)"/>
      </defs>
      <use xlink:href="#DejaVuSans-47"/>
      <use xlink:href="#DejaVuSans-57" transform="translate(77.490234 0)"/>
      <use xlink:href="#DejaVuSans-41" transform="translate(170.867188 0)"/>
      <use xlink:href="#DejaVuSans-53" transform="translate(239.275391 0)"/>
      <use xlink:href="#DejaVuSans-20" transform="translate(302.751953 0)"/>
      <use xlink:href="#DejaVuSans-65" transform="translate(334.539062 0)"/>
      <use xlink:href="#DejaVuSans-66" transform="translate(396.0625 0)"/>
      <use xlink:href="#DejaVuSans-66" transform="translate(431.267578 0)"/>
      <use xlink:href="#DejaVuSans-65" transform="translate(466.472656 0)"/>
      <use xlink:href="#DejaVuSans-63" transform="translate(527.996094 0)"/>
      <use xlink:href="#DejaVuSans-74" transform="translate(582.976562 0)"/>
      <use xlink:href="#DejaVuSans-20" transform="translate(622.185547 0)"/>
      <use xlink:href="#DejaVuSans-28" transform="translate(653.972656 0)"/>
      <use xlink:href="#DejaVuSans-3b2" transform="translate(692.986328 0)"/>
      <use xlink:href="#DejaVuSans-2098" transform="translate(756.804688 0)"/>
      <use xlink:href="#DejaVuSans-2090" transform="translate(819.109375 0)"/>
      <use xlink:href="#DejaVuSans-1d63" transform="translate(858.269531 0)"/>
      <use xlink:href="#DejaVuSans-67" transform="translate(884.148438 0)"/>
      <use xlink:href="#DejaVuSans-69" transform="translate(947.625 0)"/>
      <use xlink:href="#DejaVuSans-6e" transform="translate(975.408203 0)"/>
      <use xlink:href="#DejaVuSans-61" transform="translate(1038.787109 0)"/>
      <use xlink:href="#DejaVuSans-6c" transform="translate(1100.066406 0)"/>
      <use xlink:href="#DejaVuSans-29" transform="translate(1127.849609 0)"/>
     </g>
    </g>
    <g id="patch_112">
     <path d="M 57.068594 46.679531 
L 73.068594 46.679531 
L 73.068594 41.079531 
L 57.068594 41.079531 
z
" style="fill: #2ca02c; opacity: 0.8"/>
    </g>
    <g id="text_22">
     <!-- Posterior effect (βposterior) -->
     <g transform="translate(79.468594 46.679531) scale(0.08 -0.08)">
      <defs>
       <path id="DejaVuSans-50" d="M 1259 4147 
L 1259 2394 
L 2053 2394 
Q 2494 2394 2734 2622 
Q 2975 2850 2975 3272 
Q 2975 3691 2734 3919 
Q 2494 4147 2053 4147 
L 1259 4147 
z
M 628 4666 
L 2053 4666 
Q 2838 4666 3239 4311 
Q 3641 3956 3641 3272 
Q 3641 2581 3239 2228 
Q 2838 1875 2053 1875 
L 1259 1875 
L 1259 0 
L 628 0 
L 628 4666 
z
" transform="scale(0.015625)"/>
       <path id="DejaVuSans-70" d="M 1159 525 
L 1159 -1331 
L 581 -1331 
L 581 3500 
L 1159 3500 
L 1159 2969 
Q 1341 3281 1617 3432 
Q 1894 3584 2278 3584 
Q 2916 3584 3314 3078 
Q 3713 2572 3713 1747 
Q 3713 922 3314 415 
Q 2916 -91 2278 -91 
Q 1894 -91 1617 61 
Q 1341 213 1159 525 
z
M 3116 1747 
Q 3116 2381 2855 2742 
Q 2594 3103 2138 3103 
Q 1681 3103 1420 2742 
Q 1159 2381 1159 1747 
Q 1159 1113 1420 752 
Q 1681 391 2138 391 
Q 2594 391 2855 752 
Q 3116 1113 3116 1747 
z
" transform="scale(0.015625)"/>
      </defs>
      <use xlink:href="#DejaVuSans-50"/>
      <use xlink:href="#DejaVuSans-6f" transform="translate(56.677734 0)"/>
      <use xlink:href="#DejaVuSans-73" transform="translate(117.859375 0)"/>
      <use xlink:href="#DejaVuSans-74" transform="translate(169.958984 0)"/>
      <use xlink:href="#DejaVuSans-65" transform="translate(209.167969 0)"/>
      <use xlink:href="#DejaVuSans-72" transform="translate(270.691406 0)"/>
      <use xlink:href="#DejaVuSans-69" transform="translate(311.804688 0)"/>
      <use xlink:href="#DejaVuSans-6f" transform="translate(339.587891 0)"/>
      <use xlink:href="#DejaVuSans-72" transform="translate(400.769531 0)"/>
      <use xlink:href="#DejaVuSans-20" transform="translate(441.882812 0)"/>
      <use xlink:href="#DejaVuSans-65" transform="translate(473.669922 0)"/>
      <use xlink:href="#DejaVuSans-66" transform="translate(535.193359 0)"/>
      <use xlink:href="#DejaVuSans-66" transform="translate(570.398438 0)"/>
      <use xlink:href="#DejaVuSans-65" transform="translate(605.603516 0)"/>
      <use xlink:href="#DejaVuSans-63" transform="translate(667.126953 0)"/>
      <use xlink:href="#DejaVuSans-74" transform="translate(722.107422 0)"/>
      <use xlink:href="#DejaVuSans-20" transform="translate(761.316406 0)"/>
      <use xlink:href="#DejaVuSans-28" transform="translate(793.103516 0)"/>
      <use xlink:href="#DejaVuSans-3b2" transform="translate(832.117188 0)"/>
      <use xlink:href="#DejaVuSans-70" transform="translate(895.935547 0)"/>
      <use xlink:href="#DejaVuSans-6f" transform="translate(959.412109 0)"/>
      <use xlink:href="#DejaVuSans-73" transform="translate(1020.59375 0)"/>
      <use xlink:href="#DejaVuSans-74" transform="translate(1072.693359 0)"/>
      <use xlink:href="#DejaVuSans-65" transform="translate(1111.902344 0)"/>
      <use xlink:href="#DejaVuSans-72" transform="translate(1173.425781 0)"/>
      <use xlink:href="#DejaVuSans-69" transform="translate(1214.539062 0)"/>
      <use xlink:href="#DejaVuSans-6f" transform="translate(1242.322266 0)"/>
      <use xlink:href="#DejaVuSans-72" transform="translate(1303.503906 0)"/>
      <use xlink:href="#DejaVuSans-29" transform="translate(1344.617188 0)"/>
     </g>
    </g>
   </g>
  </g>
 </g>
 <defs>
  <clipPath id="p20aa4bc940">
   <rect x="49.868594" y="21.558281" width="367.96" height="294.04"/>
  </clipPath>
 </defs>
</svg>
