<?xml version="1.0" encoding="UTF-8" standalone="no"?>
<!DOCTYPE svg PUBLIC "-//W3C//DTD SVG 1.1//EN"
 "http://www.w3.org/Graphics/SVG/1.1/DTD/svg11.dtd">
<!-- Generated by graphviz version 2.43.0 (0)
 -->
<!-- Title: fusion_A Pages: 1 -->
<svg width="576pt" height="156pt"
 viewBox="0.00 0.00 576.00 156.37" xmlns="http://www.w3.org/2000/svg" xmlns:xlink="http://www.w3.org/1999/xlink">
<g id="graph0" class="graph" transform="scale(1.6 1.6) rotate(0) translate(4 94)">
<title>fusion_A</title>
<polygon fill="white" stroke="transparent" points="-4,4 -4,-94 357,-94 357,4 -4,4"/>
<!-- m1 -->
<g id="node1" class="node">
<title>m1</title>
<path fill="#1f77b4" stroke="black" stroke-width="1.5" d="M47,-90C47,-90 17,-90 17,-90 11,-90 5,-84 5,-78 5,-78 5,-66 5,-66 5,-60 11,-54 17,-54 17,-54 47,-54 47,-54 53,-54 59,-60 59,-66 59,-66 59,-78 59,-78 59,-84 53,-90 47,-90"/>
<text text-anchor="middle" x="32" y="-69.8" font-family="Arial" font-size="9.00" fill="white">RNA&#45;seq</text>
</g>
<!-- concat -->
<g id="node3" class="node">
<title>concat</title>
<path fill="#ffbb78" stroke="black" stroke-width="1.5" d="M157,-63C157,-63 112,-63 112,-63 106,-63 100,-57 100,-51 100,-51 100,-39 100,-39 100,-33 106,-27 112,-27 112,-27 157,-27 157,-27 163,-27 169,-33 169,-39 169,-39 169,-51 169,-51 169,-57 163,-63 157,-63"/>
<text text-anchor="middle" x="134.5" y="-42.8" font-family="Arial" font-size="9.00">Concatenate</text>
</g>
<!-- m1&#45;&gt;concat -->
<g id="edge1" class="edge">
<title>m1&#45;&gt;concat</title>
<path fill="none" stroke="black" d="M59.14,-64.98C68.57,-62.44 79.49,-59.51 90.01,-56.68"/>
<polygon fill="black" stroke="black" points="91.15,-60 99.9,-54.03 89.34,-53.24 91.15,-60"/>
</g>
<!-- m2 -->
<g id="node2" class="node">
<title>m2</title>
<path fill="#2ca02c" stroke="black" stroke-width="1.5" d="M52,-36C52,-36 12,-36 12,-36 6,-36 0,-30 0,-24 0,-24 0,-12 0,-12 0,-6 6,0 12,0 12,0 52,0 52,0 58,0 64,-6 64,-12 64,-12 64,-24 64,-24 64,-30 58,-36 52,-36"/>
<text text-anchor="middle" x="32" y="-15.8" font-family="Arial" font-size="9.00" fill="white">Methylation</text>
</g>
<!-- m2&#45;&gt;concat -->
<g id="edge2" class="edge">
<title>m2&#45;&gt;concat</title>
<path fill="none" stroke="black" d="M64.25,-26.39C72.45,-28.6 81.45,-31.02 90.17,-33.36"/>
<polygon fill="black" stroke="black" points="89.26,-36.74 99.83,-35.95 91.08,-29.98 89.26,-36.74"/>
</g>
<!-- model -->
<g id="node4" class="node">
<title>model</title>
<path fill="#9467bd" stroke="black" stroke-width="1.5" d="M247,-63C247,-63 217,-63 217,-63 211,-63 205,-57 205,-51 205,-51 205,-39 205,-39 205,-33 211,-27 217,-27 217,-27 247,-27 247,-27 253,-27 259,-33 259,-39 259,-39 259,-51 259,-51 259,-57 253,-63 247,-63"/>
<text text-anchor="middle" x="232" y="-47.8" font-family="Arial" font-size="9.00" fill="white">Single</text>
<text text-anchor="middle" x="232" y="-37.8" font-family="Arial" font-size="9.00" fill="white">Model</text>
</g>
<!-- concat&#45;&gt;model -->
<g id="edge3" class="edge">
<title>concat&#45;&gt;model</title>
<path fill="none" stroke="black" d="M169.17,-45C177.4,-45 186.25,-45 194.6,-45"/>
<polygon fill="black" stroke="black" points="194.83,-48.5 204.83,-45 194.83,-41.5 194.83,-48.5"/>
</g>
<!-- out -->
<g id="node5" class="node">
<title>out</title>
<path fill="#98df8a" stroke="black" stroke-width="1.5" d="M341,-63C341,-63 307,-63 307,-63 301,-63 295,-57 295,-51 295,-51 295,-39 295,-39 295,-33 301,-27 307,-27 307,-27 341,-27 341,-27 347,-27 353,-33 353,-39 353,-39 353,-51 353,-51 353,-57 347,-63 341,-63"/>
<text text-anchor="middle" x="324" y="-42.8" font-family="Arial" font-size="9.00">Prediction</text>
</g>
<!-- model&#45;&gt;out -->
<g id="edge4" class="edge">
<title>model&#45;&gt;out</title>
<path fill="none" stroke="black" d="M259.03,-45C267,-45 275.95,-45 284.56,-45"/>
<polygon fill="black" stroke="black" points="284.82,-48.5 294.82,-45 284.82,-41.5 284.82,-48.5"/>
</g>
</g>
</svg>
