<?xml version="1.0" encoding="UTF-8" standalone="no"?>
<!DOCTYPE svg PUBLIC "-//W3C//DTD SVG 1.1//EN"
 "http://www.w3.org/Graphics/SVG/1.1/DTD/svg11.dtd">
<!-- Generated by graphviz version 2.43.0 (0)
 -->
<!-- Title: fusion_C Pages: 1 -->
<svg width="576pt" height="129pt"
 viewBox="0.00 0.00 576.00 129.47" xmlns="http://www.w3.org/2000/svg" xmlns:xlink="http://www.w3.org/1999/xlink">
<g id="graph0" class="graph" transform="scale(1.32 1.32) rotate(0) translate(4 94)">
<title>fusion_C</title>
<polygon fill="white" stroke="transparent" points="-4,4 -4,-94 432,-94 432,4 -4,4"/>
<!-- m1 -->
<g id="node1" class="node">
<title>m1</title>
<path fill="#1f77b4" stroke="black" stroke-width="1.5" d="M47,-90C47,-90 17,-90 17,-90 11,-90 5,-84 5,-78 5,-78 5,-66 5,-66 5,-60 11,-54 17,-54 17,-54 47,-54 47,-54 53,-54 59,-60 59,-66 59,-66 59,-78 59,-78 59,-84 53,-90 47,-90"/>
<text text-anchor="middle" x="32" y="-69.8" font-family="Arial" font-size="9.00" fill="white">RNA&#45;seq</text>
</g>
<!-- model1 -->
<g id="node3" class="node">
<title>model1</title>
<path fill="#aec7e8" stroke="black" stroke-width="1.5" d="M142,-90C142,-90 112,-90 112,-90 106,-90 100,-84 100,-78 100,-78 100,-66 100,-66 100,-60 106,-54 112,-54 112,-54 142,-54 142,-54 148,-54 154,-60 154,-66 154,-66 154,-78 154,-78 154,-84 148,-90 142,-90"/>
<text text-anchor="middle" x="127" y="-69.8" font-family="Arial" font-size="9.00">Model 1</text>
</g>
<!-- m1&#45;&gt;model1 -->
<g id="edge1" class="edge">
<title>m1&#45;&gt;model1</title>
<path fill="none" stroke="black" d="M59.4,-72C68.81,-72 79.57,-72 89.66,-72"/>
<polygon fill="black" stroke="black" points="89.85,-75.5 99.85,-72 89.85,-68.5 89.85,-75.5"/>
</g>
<!-- m2 -->
<g id="node2" class="node">
<title>m2</title>
<path fill="#2ca02c" stroke="black" stroke-width="1.5" d="M52,-36C52,-36 12,-36 12,-36 6,-36 0,-30 0,-24 0,-24 0,-12 0,-12 0,-6 6,0 12,0 12,0 52,0 52,0 58,0 64,-6 64,-12 64,-12 64,-24 64,-24 64,-30 58,-36 52,-36"/>
<text text-anchor="middle" x="32" y="-15.8" font-family="Arial" font-size="9.00" fill="white">Methylation</text>
</g>
<!-- model2 -->
<g id="node4" class="node">
<title>model2</title>
<path fill="#98df8a" stroke="black" stroke-width="1.5" d="M142,-36C142,-36 112,-36 112,-36 106,-36 100,-30 100,-24 100,-24 100,-12 100,-12 100,-6 106,0 112,0 112,0 142,0 142,0 148,0 154,-6 154,-12 154,-12 154,-24 154,-24 154,-30 148,-36 142,-36"/>
<text text-anchor="middle" x="127" y="-15.8" font-family="Arial" font-size="9.00">Model 2</text>
</g>
<!-- m2&#45;&gt;model2 -->
<g id="edge2" class="edge">
<title>m2&#45;&gt;model2</title>
<path fill="none" stroke="black" d="M64.23,-18C72.48,-18 81.46,-18 89.94,-18"/>
<polygon fill="black" stroke="black" points="89.97,-21.5 99.97,-18 89.97,-14.5 89.97,-21.5"/>
</g>
<!-- p1 -->
<g id="node5" class="node">
<title>p1</title>
<path fill="#c5b0d5" stroke="black" stroke-width="1.5" d="M232,-90C232,-90 202,-90 202,-90 196,-90 190,-84 190,-78 190,-78 190,-66 190,-66 190,-60 196,-54 202,-54 202,-54 232,-54 232,-54 238,-54 244,-60 244,-66 244,-66 244,-78 244,-78 244,-84 238,-90 232,-90"/>
<text text-anchor="middle" x="217" y="-69.8" font-family="Arial" font-size="9.00">Pred 1</text>
</g>
<!-- model1&#45;&gt;p1 -->
<g id="edge3" class="edge">
<title>model1&#45;&gt;p1</title>
<path fill="none" stroke="black" d="M154.4,-72C162.39,-72 171.31,-72 179.82,-72"/>
<polygon fill="black" stroke="black" points="179.92,-75.5 189.92,-72 179.92,-68.5 179.92,-75.5"/>
</g>
<!-- p2 -->
<g id="node6" class="node">
<title>p2</title>
<path fill="#c5b0d5" stroke="black" stroke-width="1.5" d="M232,-36C232,-36 202,-36 202,-36 196,-36 190,-30 190,-24 190,-24 190,-12 190,-12 190,-6 196,0 202,0 202,0 232,0 232,0 238,0 244,-6 244,-12 244,-12 244,-24 244,-24 244,-30 238,-36 232,-36"/>
<text text-anchor="middle" x="217" y="-15.8" font-family="Arial" font-size="9.00">Pred 2</text>
</g>
<!-- model2&#45;&gt;p2 -->
<g id="edge4" class="edge">
<title>model2&#45;&gt;p2</title>
<path fill="none" stroke="black" d="M154.4,-18C162.39,-18 171.31,-18 179.82,-18"/>
<polygon fill="black" stroke="black" points="179.92,-21.5 189.92,-18 179.92,-14.5 179.92,-21.5"/>
</g>
<!-- combine -->
<g id="node7" class="node">
<title>combine</title>
<path fill="#9467bd" stroke="black" stroke-width="1.5" d="M326,-63C326,-63 292,-63 292,-63 286,-63 280,-57 280,-51 280,-51 280,-39 280,-39 280,-33 286,-27 292,-27 292,-27 326,-27 326,-27 332,-27 338,-33 338,-39 338,-39 338,-51 338,-51 338,-57 332,-63 326,-63"/>
<text text-anchor="middle" x="309" y="-42.8" font-family="Arial" font-size="9.00" fill="white">Ensemble</text>
</g>
<!-- p1&#45;&gt;combine -->
<g id="edge5" class="edge">
<title>p1&#45;&gt;combine</title>
<path fill="none" stroke="black" d="M244.03,-64.19C252.18,-61.75 261.34,-59 270.13,-56.36"/>
<polygon fill="black" stroke="black" points="271.25,-59.68 279.82,-53.45 269.24,-52.97 271.25,-59.68"/>
</g>
<!-- p2&#45;&gt;combine -->
<g id="edge6" class="edge">
<title>p2&#45;&gt;combine</title>
<path fill="none" stroke="black" d="M244.03,-25.81C252.18,-28.25 261.34,-31 270.13,-33.64"/>
<polygon fill="black" stroke="black" points="269.24,-37.03 279.82,-36.55 271.25,-30.32 269.24,-37.03"/>
</g>
<!-- out -->
<g id="node8" class="node">
<title>out</title>
<path fill="#98df8a" stroke="black" stroke-width="1.5" d="M416,-63C416,-63 386,-63 386,-63 380,-63 374,-57 374,-51 374,-51 374,-39 374,-39 374,-33 380,-27 386,-27 386,-27 416,-27 416,-27 422,-27 428,-33 428,-39 428,-39 428,-51 428,-51 428,-57 422,-63 416,-63"/>
<text text-anchor="middle" x="401" y="-42.8" font-family="Arial" font-size="9.00">Final</text>
</g>
<!-- combine&#45;&gt;out -->
<g id="edge7" class="edge">
<title>combine&#45;&gt;out</title>
<path fill="none" stroke="black" d="M338.48,-45C346.44,-45 355.21,-45 363.57,-45"/>
<polygon fill="black" stroke="black" points="363.85,-48.5 373.85,-45 363.85,-41.5 363.85,-48.5"/>
</g>
</g>
</svg>
