<?xml version="1.0" encoding="utf-8" standalone="no"?>
<!DOCTYPE svg PUBLIC "-//W3C//DTD SVG 1.1//EN"
  "http://www.w3.org/Graphics/SVG/1.1/DTD/svg11.dtd">
<svg xmlns:xlink="http://www.w3.org/1999/xlink" width="568.8pt" height="352.518281pt" viewBox="0 0 568.8 352.518281" xmlns="http://www.w3.org/2000/svg" version="1.1">
 <metadata>
  <rdf:RDF xmlns:dc="http://purl.org/dc/elements/1.1/" xmlns:cc="http://creativecommons.org/ns#" xmlns:rdf="http://www.w3.org/1999/02/22-rdf-syntax-ns#">
   <cc:Work>
    <dc:type rdf:resource="http://purl.org/dc/dcmitype/StillImage"/>
    <dc:date>2026-01-08T06:18:02.163948</dc:date>
    <dc:format>image/svg+xml</dc:format>
    <dc:creator>
     <cc:Agent>
      <dc:title>Matplotlib v3.10.7, https://matplotlib.org/</dc:title>
     </cc:Agent>
    </dc:creator>
   </cc:Work>
  </rdf:RDF>
 </metadata>
 <defs>
  <style type="text/css">*{stroke-linejoin: round; stroke-linecap: butt}</style>
 </defs>
 <g id="figure_1">
  <g id="patch_1">
   <path d="M 0 352.518281 
L 568.8 352.518281 
L 568.8 0 
L 0 0 
z
" style="fill: #ffffff"/>
  </g>
  <g id="axes_1">
   <g id="patch_2">
    <path d="M 46.8 162.162624 
L 205.2 162.162624 
Q 206.784 162.162624 206.784 160.312567 
L 206.784 67.80971 
Q 206.784 65.959653 205.2 65.959653 
L 46.8 65.959653 
Q 45.216 65.959653 45.216 67.80971 
L 45.216 160.312567 
Q 45.216 162.162624 46.8 162.162624 
z
" clip-path="url(#pe6b4cd22ee)" style="fill: #1f77b4; opacity: 0.7; stroke: #ffffff; stroke-linejoin: miter"/>
   </g>
   <g id="patch_3">
    <path d="M 363.6 162.162624 
L 522 162.162624 
Q 523.584 162.162624 523.584 160.312567 
L 523.584 67.80971 
Q 523.584 65.959653 522 65.959653 
L 363.6 65.959653 
Q 362.016 65.959653 362.016 67.80971 
L 362.016 160.312567 
Q 362.016 162.162624 363.6 162.162624 
z
" clip-path="url(#pe6b4cd22ee)" style="fill: #2ca02c; opacity: 0.7; stroke: #ffffff; stroke-linejoin: miter"/>
   </g>
   <g id="patch_4">
    <path d="M 205.2 299.066853 
L 363.6 299.066853 
L 363.6 188.063424 
L 205.2 188.063424 
z
" clip-path="url(#pe6b4cd22ee)" style="fill: #9467bd; opacity: 0.7; stroke: #ffffff; stroke-linejoin: miter"/>
   </g>
   <g id="text_1">
    <!-- RNA -->
    <g style="fill: #ffffff" transform="translate(114.096094 111.182545) scale(0.1 -0.1)">
     <defs>
      <path id="DejaVuSans-Bold-52" d="M 2297 2597 
Q 2675 2597 2839 2737 
Q 3003 2878 3003 3200 
Q 3003 3519 2839 3656 
Q 2675 3794 2297 3794 
L 1791 3794 
L 1791 2597 
L 2297 2597 
z
M 1791 1766 
L 1791 0 
L 588 0 
L 588 4666 
L 2425 4666 
Q 3347 4666 3776 4356 
Q 4206 4047 4206 3378 
Q 4206 2916 3982 2619 
Q 3759 2322 3309 2181 
Q 3556 2125 3751 1926 
Q 3947 1728 4147 1325 
L 4800 0 
L 3519 0 
L 2950 1159 
Q 2778 1509 2601 1637 
Q 2425 1766 2131 1766 
L 1791 1766 
z
" transform="scale(0.015625)"/>
      <path id="DejaVuSans-Bold-4e" d="M 588 4666 
L 1931 4666 
L 3628 1466 
L 3628 4666 
L 4769 4666 
L 4769 0 
L 3425 0 
L 1728 3200 
L 1728 0 
L 588 0 
L 588 4666 
z
" transform="scale(0.015625)"/>
      <path id="DejaVuSans-Bold-41" d="M 3419 850 
L 1538 850 
L 1241 0 
L 31 0 
L 1759 4666 
L 3194 4666 
L 4922 0 
L 3713 0 
L 3419 850 
z
M 1838 1716 
L 3116 1716 
L 2478 3572 
L 1838 1716 
z
" transform="scale(0.015625)"/>
     </defs>
     <use xlink:href="#DejaVuSans-Bold-52"/>
     <use xlink:href="#DejaVuSans-Bold-4e" transform="translate(77.001953 0)"/>
     <use xlink:href="#DejaVuSans-Bold-41" transform="translate(160.693359 0)"/>
    </g>
    <!-- Embeddings -->
    <g style="fill: #ffffff" transform="translate(91.417969 122.380357) scale(0.1 -0.1)">
     <defs>
      <path id="DejaVuSans-Bold-45" d="M 588 4666 
L 3834 4666 
L 3834 3756 
L 1791 3756 
L 1791 2888 
L 3713 2888 
L 3713 1978 
L 1791 1978 
L 1791 909 
L 3903 909 
L 3903 0 
L 588 0 
L 588 4666 
z
" transform="scale(0.015625)"/>
      <path id="DejaVuSans-Bold-6d" d="M 3781 2919 
Q 3994 3244 4286 3414 
Q 4578 3584 4928 3584 
Q 5531 3584 5847 3212 
Q 6163 2841 6163 2131 
L 6163 0 
L 5038 0 
L 5038 1825 
Q 5041 1866 5042 1909 
Q 5044 1953 5044 2034 
Q 5044 2406 4934 2573 
Q 4825 2741 4581 2741 
Q 4263 2741 4089 2478 
Q 3916 2216 3909 1719 
L 3909 0 
L 2784 0 
L 2784 1825 
Q 2784 2406 2684 2573 
Q 2584 2741 2328 2741 
Q 2006 2741 1831 2477 
Q 1656 2213 1656 1722 
L 1656 0 
L 531 0 
L 531 3500 
L 1656 3500 
L 1656 2988 
Q 1863 3284 2130 3434 
Q 2397 3584 2719 3584 
Q 3081 3584 3359 3409 
Q 3638 3234 3781 2919 
z
" transform="scale(0.015625)"/>
      <path id="DejaVuSans-Bold-62" d="M 2400 722 
Q 2759 722 2948 984 
Q 3138 1247 3138 1747 
Q 3138 2247 2948 2509 
Q 2759 2772 2400 2772 
Q 2041 2772 1848 2508 
Q 1656 2244 1656 1747 
Q 1656 1250 1848 986 
Q 2041 722 2400 722 
z
M 1656 2988 
Q 1888 3294 2169 3439 
Q 2450 3584 2816 3584 
Q 3463 3584 3878 3070 
Q 4294 2556 4294 1747 
Q 4294 938 3878 423 
Q 3463 -91 2816 -91 
Q 2450 -91 2169 54 
Q 1888 200 1656 506 
L 1656 0 
L 538 0 
L 538 4863 
L 1656 4863 
L 1656 2988 
z
" transform="scale(0.015625)"/>
      <path id="DejaVuSans-Bold-65" d="M 4031 1759 
L 4031 1441 
L 1416 1441 
Q 1456 1047 1700 850 
Q 1944 653 2381 653 
Q 2734 653 3104 758 
Q 3475 863 3866 1075 
L 3866 213 
Q 3469 63 3072 -14 
Q 2675 -91 2278 -91 
Q 1328 -91 801 392 
Q 275 875 275 1747 
Q 275 2603 792 3093 
Q 1309 3584 2216 3584 
Q 3041 3584 3536 3087 
Q 4031 2591 4031 1759 
z
M 2881 2131 
Q 2881 2450 2695 2645 
Q 2509 2841 2209 2841 
Q 1884 2841 1681 2658 
Q 1478 2475 1428 2131 
L 2881 2131 
z
" transform="scale(0.015625)"/>
      <path id="DejaVuSans-Bold-64" d="M 2919 2988 
L 2919 4863 
L 4044 4863 
L 4044 0 
L 2919 0 
L 2919 506 
Q 2688 197 2409 53 
Q 2131 -91 1766 -91 
Q 1119 -91 703 423 
Q 288 938 288 1747 
Q 288 2556 703 3070 
Q 1119 3584 1766 3584 
Q 2128 3584 2408 3439 
Q 2688 3294 2919 2988 
z
M 2181 722 
Q 2541 722 2730 984 
Q 2919 1247 2919 1747 
Q 2919 2247 2730 2509 
Q 2541 2772 2181 2772 
Q 1825 2772 1636 2509 
Q 1447 2247 1447 1747 
Q 1447 1247 1636 984 
Q 1825 722 2181 722 
z
" transform="scale(0.015625)"/>
      <path id="DejaVuSans-Bold-69" d="M 538 3500 
L 1656 3500 
L 1656 0 
L 538 0 
L 538 3500 
z
M 538 4863 
L 1656 4863 
L 1656 3950 
L 538 3950 
L 538 4863 
z
" transform="scale(0.015625)"/>
      <path id="DejaVuSans-Bold-6e" d="M 4056 2131 
L 4056 0 
L 2931 0 
L 2931 347 
L 2931 1631 
Q 2931 2084 2911 2256 
Q 2891 2428 2841 2509 
Q 2775 2619 2662 2680 
Q 2550 2741 2406 2741 
Q 2056 2741 1856 2470 
Q 1656 2200 1656 1722 
L 1656 0 
L 538 0 
L 538 3500 
L 1656 3500 
L 1656 2988 
Q 1909 3294 2193 3439 
Q 2478 3584 2822 3584 
Q 3428 3584 3742 3212 
Q 4056 2841 4056 2131 
z
" transform="scale(0.015625)"/>
      <path id="DejaVuSans-Bold-67" d="M 2919 594 
Q 2688 288 2409 144 
Q 2131 0 1766 0 
Q 1125 0 706 504 
Q 288 1009 288 1791 
Q 288 2575 706 3076 
Q 1125 3578 1766 3578 
Q 2131 3578 2409 3434 
Q 2688 3291 2919 2981 
L 2919 3500 
L 4044 3500 
L 4044 353 
Q 4044 -491 3511 -936 
Q 2978 -1381 1966 -1381 
Q 1638 -1381 1331 -1331 
Q 1025 -1281 716 -1178 
L 716 -306 
Q 1009 -475 1290 -558 
Q 1572 -641 1856 -641 
Q 2406 -641 2662 -400 
Q 2919 -159 2919 353 
L 2919 594 
z
M 2181 2772 
Q 1834 2772 1640 2515 
Q 1447 2259 1447 1791 
Q 1447 1309 1634 1061 
Q 1822 813 2181 813 
Q 2531 813 2725 1069 
Q 2919 1325 2919 1791 
Q 2919 2259 2725 2515 
Q 2531 2772 2181 2772 
z
" transform="scale(0.015625)"/>
      <path id="DejaVuSans-Bold-73" d="M 3272 3391 
L 3272 2541 
Q 2913 2691 2578 2766 
Q 2244 2841 1947 2841 
Q 1628 2841 1473 2761 
Q 1319 2681 1319 2516 
Q 1319 2381 1436 2309 
Q 1553 2238 1856 2203 
L 2053 2175 
Q 2913 2066 3209 1816 
Q 3506 1566 3506 1031 
Q 3506 472 3093 190 
Q 2681 -91 1863 -91 
Q 1516 -91 1145 -36 
Q 775 19 384 128 
L 384 978 
Q 719 816 1070 734 
Q 1422 653 1784 653 
Q 2113 653 2278 743 
Q 2444 834 2444 1013 
Q 2444 1163 2330 1236 
Q 2216 1309 1875 1350 
L 1678 1375 
Q 931 1469 631 1722 
Q 331 1975 331 2491 
Q 331 3047 712 3315 
Q 1094 3584 1881 3584 
Q 2191 3584 2531 3537 
Q 2872 3491 3272 3391 
z
" transform="scale(0.015625)"/>
     </defs>
     <use xlink:href="#DejaVuSans-Bold-45"/>
     <use xlink:href="#DejaVuSans-Bold-6d" transform="translate(68.310547 0)"/>
     <use xlink:href="#DejaVuSans-Bold-62" transform="translate(172.509766 0)"/>
     <use xlink:href="#DejaVuSans-Bold-65" transform="translate(244.091797 0)"/>
     <use xlink:href="#DejaVuSans-Bold-64" transform="translate(311.914062 0)"/>
     <use xlink:href="#DejaVuSans-Bold-64" transform="translate(383.496094 0)"/>
     <use xlink:href="#DejaVuSans-Bold-69" transform="translate(455.078125 0)"/>
     <use xlink:href="#DejaVuSans-Bold-6e" transform="translate(489.355469 0)"/>
     <use xlink:href="#DejaVuSans-Bold-67" transform="translate(560.546875 0)"/>
     <use xlink:href="#DejaVuSans-Bold-73" transform="translate(632.128906 0)"/>
    </g>
   </g>
   <g id="text_2">
    <!-- Protein -->
    <g style="fill: #ffffff" transform="translate(422.179687 111.182545) scale(0.1 -0.1)">
     <defs>
      <path id="DejaVuSans-Bold-50" d="M 588 4666 
L 2584 4666 
Q 3475 4666 3951 4270 
Q 4428 3875 4428 3144 
Q 4428 2409 3951 2014 
Q 3475 1619 2584 1619 
L 1791 1619 
L 1791 0 
L 588 0 
L 588 4666 
z
M 1791 3794 
L 1791 2491 
L 2456 2491 
Q 2806 2491 2997 2661 
Q 3188 2831 3188 3144 
Q 3188 3456 2997 3625 
Q 2806 3794 2456 3794 
L 1791 3794 
z
" transform="scale(0.015625)"/>
      <path id="DejaVuSans-Bold-72" d="M 3138 2547 
Q 2991 2616 2845 2648 
Q 2700 2681 2553 2681 
Q 2122 2681 1889 2404 
Q 1656 2128 1656 1613 
L 1656 0 
L 538 0 
L 538 3500 
L 1656 3500 
L 1656 2925 
Q 1872 3269 2151 3426 
Q 2431 3584 2822 3584 
Q 2878 3584 2943 3579 
Q 3009 3575 3134 3559 
L 3138 2547 
z
" transform="scale(0.015625)"/>
      <path id="DejaVuSans-Bold-6f" d="M 2203 2784 
Q 1831 2784 1636 2517 
Q 1441 2250 1441 1747 
Q 1441 1244 1636 976 
Q 1831 709 2203 709 
Q 2569 709 2762 976 
Q 2956 1244 2956 1747 
Q 2956 2250 2762 2517 
Q 2569 2784 2203 2784 
z
M 2203 3584 
Q 3106 3584 3614 3096 
Q 4122 2609 4122 1747 
Q 4122 884 3614 396 
Q 3106 -91 2203 -91 
Q 1297 -91 786 396 
Q 275 884 275 1747 
Q 275 2609 786 3096 
Q 1297 3584 2203 3584 
z
" transform="scale(0.015625)"/>
      <path id="DejaVuSans-Bold-74" d="M 1759 4494 
L 1759 3500 
L 2913 3500 
L 2913 2700 
L 1759 2700 
L 1759 1216 
Q 1759 972 1856 886 
Q 1953 800 2241 800 
L 2816 800 
L 2816 0 
L 1856 0 
Q 1194 0 917 276 
Q 641 553 641 1216 
L 641 2700 
L 84 2700 
L 84 3500 
L 641 3500 
L 641 4494 
L 1759 4494 
z
" transform="scale(0.015625)"/>
     </defs>
     <use xlink:href="#DejaVuSans-Bold-50"/>
     <use xlink:href="#DejaVuSans-Bold-72" transform="translate(73.291016 0)"/>
     <use xlink:href="#DejaVuSans-Bold-6f" transform="translate(122.607422 0)"/>
     <use xlink:href="#DejaVuSans-Bold-74" transform="translate(191.308594 0)"/>
     <use xlink:href="#DejaVuSans-Bold-65" transform="translate(239.111328 0)"/>
     <use xlink:href="#DejaVuSans-Bold-69" transform="translate(306.933594 0)"/>
     <use xlink:href="#DejaVuSans-Bold-6e" transform="translate(341.210938 0)"/>
    </g>
    <!-- Embeddings -->
    <g style="fill: #ffffff" transform="translate(408.217969 122.380357) scale(0.1 -0.1)">
     <use xlink:href="#DejaVuSans-Bold-45"/>
     <use xlink:href="#DejaVuSans-Bold-6d" transform="translate(68.310547 0)"/>
     <use xlink:href="#DejaVuSans-Bold-62" transform="translate(172.509766 0)"/>
     <use xlink:href="#DejaVuSans-Bold-65" transform="translate(244.091797 0)"/>
     <use xlink:href="#DejaVuSans-Bold-64" transform="translate(311.914062 0)"/>
     <use xlink:href="#DejaVuSans-Bold-64" transform="translate(383.496094 0)"/>
     <use xlink:href="#DejaVuSans-Bold-69" transform="translate(455.078125 0)"/>
     <use xlink:href="#DejaVuSans-Bold-6e" transform="translate(489.355469 0)"/>
     <use xlink:href="#DejaVuSans-Bold-67" transform="translate(560.546875 0)"/>
     <use xlink:href="#DejaVuSans-Bold-73" transform="translate(632.128906 0)"/>
    </g>
   </g>
   <g id="text_3">
    <!-- Cross- -->
    <g style="fill: #ffffff" transform="translate(266.803125 240.725607) scale(0.1 -0.1)">
     <defs>
      <path id="DejaVuSans-Bold-43" d="M 4288 256 
Q 3956 84 3597 -3 
Q 3238 -91 2847 -91 
Q 1681 -91 1000 561 
Q 319 1213 319 2328 
Q 319 3447 1000 4098 
Q 1681 4750 2847 4750 
Q 3238 4750 3597 4662 
Q 3956 4575 4288 4403 
L 4288 3438 
Q 3953 3666 3628 3772 
Q 3303 3878 2944 3878 
Q 2300 3878 1931 3465 
Q 1563 3053 1563 2328 
Q 1563 1606 1931 1193 
Q 2300 781 2944 781 
Q 3303 781 3628 887 
Q 3953 994 4288 1222 
L 4288 256 
z
" transform="scale(0.015625)"/>
      <path id="DejaVuSans-Bold-2d" d="M 347 2297 
L 2309 2297 
L 2309 1388 
L 347 1388 
L 347 2297 
z
" transform="scale(0.015625)"/>
     </defs>
     <use xlink:href="#DejaVuSans-Bold-43"/>
     <use xlink:href="#DejaVuSans-Bold-72" transform="translate(73.388672 0)"/>
     <use xlink:href="#DejaVuSans-Bold-6f" transform="translate(122.705078 0)"/>
     <use xlink:href="#DejaVuSans-Bold-73" transform="translate(191.40625 0)"/>
     <use xlink:href="#DejaVuSans-Bold-73" transform="translate(250.927734 0)"/>
     <use xlink:href="#DejaVuSans-Bold-2d" transform="translate(310.449219 0)"/>
    </g>
    <!-- Attention -->
    <g style="fill: #ffffff" transform="translate(257.701562 251.92342) scale(0.1 -0.1)">
     <use xlink:href="#DejaVuSans-Bold-41"/>
     <use xlink:href="#DejaVuSans-Bold-74" transform="translate(77.392578 0)"/>
     <use xlink:href="#DejaVuSans-Bold-74" transform="translate(125.195312 0)"/>
     <use xlink:href="#DejaVuSans-Bold-65" transform="translate(172.998047 0)"/>
     <use xlink:href="#DejaVuSans-Bold-6e" transform="translate(240.820312 0)"/>
     <use xlink:href="#DejaVuSans-Bold-74" transform="translate(312.011719 0)"/>
     <use xlink:href="#DejaVuSans-Bold-69" transform="translate(359.814453 0)"/>
     <use xlink:href="#DejaVuSans-Bold-6f" transform="translate(394.091797 0)"/>
     <use xlink:href="#DejaVuSans-Bold-6e" transform="translate(462.792969 0)"/>
    </g>
   </g>
   <g id="patch_5">
    <path d="M 205.2 162.312072 
Q 205.2 201.939307 205.2 239.330475 
" style="fill: none; stroke: #555555; stroke-width: 2; stroke-linecap: round"/>
    <path d="M 207.2 235.330475 
L 205.2 239.330475 
L 203.2 235.330475 
" style="fill: none; stroke: #555555; stroke-width: 2; stroke-linecap: round"/>
   </g>
   <g id="patch_6">
    <path d="M 363.6 162.312072 
Q 363.6 201.939307 363.6 239.330475 
" style="fill: none; stroke: #555555; stroke-width: 2; stroke-linecap: round"/>
    <path d="M 365.6 235.330475 
L 363.6 239.330475 
L 361.6 235.330475 
" style="fill: none; stroke: #555555; stroke-width: 2; stroke-linecap: round"/>
   </g>
   <g id="text_4">
    <!-- A. Cross-Attention for Multi-Modal Fusion -->
    <g transform="translate(7.2 15.558281) scale(0.11 -0.11)">
     <defs>
      <path id="DejaVuSans-Bold-2e" d="M 653 1209 
L 1778 1209 
L 1778 0 
L 653 0 
L 653 1209 
z
" transform="scale(0.015625)"/>
      <path id="DejaVuSans-Bold-20" transform="scale(0.015625)"/>
      <path id="DejaVuSans-Bold-66" d="M 2841 4863 
L 2841 4128 
L 2222 4128 
Q 1984 4128 1890 4042 
Q 1797 3956 1797 3744 
L 1797 3500 
L 2753 3500 
L 2753 2700 
L 1797 2700 
L 1797 0 
L 678 0 
L 678 2700 
L 122 2700 
L 122 3500 
L 678 3500 
L 678 3744 
Q 678 4316 997 4589 
Q 1316 4863 1984 4863 
L 2841 4863 
z
" transform="scale(0.015625)"/>
      <path id="DejaVuSans-Bold-4d" d="M 588 4666 
L 2119 4666 
L 3181 2169 
L 4250 4666 
L 5778 4666 
L 5778 0 
L 4641 0 
L 4641 3413 
L 3566 897 
L 2803 897 
L 1728 3413 
L 1728 0 
L 588 0 
L 588 4666 
z
" transform="scale(0.015625)"/>
      <path id="DejaVuSans-Bold-75" d="M 500 1363 
L 500 3500 
L 1625 3500 
L 1625 3150 
Q 1625 2866 1622 2436 
Q 1619 2006 1619 1863 
Q 1619 1441 1641 1255 
Q 1663 1069 1716 984 
Q 1784 875 1895 815 
Q 2006 756 2150 756 
Q 2500 756 2700 1025 
Q 2900 1294 2900 1772 
L 2900 3500 
L 4019 3500 
L 4019 0 
L 2900 0 
L 2900 506 
Q 2647 200 2364 54 
Q 2081 -91 1741 -91 
Q 1134 -91 817 281 
Q 500 653 500 1363 
z
" transform="scale(0.015625)"/>
      <path id="DejaVuSans-Bold-6c" d="M 538 4863 
L 1656 4863 
L 1656 0 
L 538 0 
L 538 4863 
z
" transform="scale(0.015625)"/>
      <path id="DejaVuSans-Bold-61" d="M 2106 1575 
Q 1756 1575 1579 1456 
Q 1403 1338 1403 1106 
Q 1403 894 1545 773 
Q 1688 653 1941 653 
Q 2256 653 2472 879 
Q 2688 1106 2688 1447 
L 2688 1575 
L 2106 1575 
z
M 3816 1997 
L 3816 0 
L 2688 0 
L 2688 519 
Q 2463 200 2181 54 
Q 1900 -91 1497 -91 
Q 953 -91 614 226 
Q 275 544 275 1050 
Q 275 1666 698 1953 
Q 1122 2241 2028 2241 
L 2688 2241 
L 2688 2328 
Q 2688 2594 2478 2717 
Q 2269 2841 1825 2841 
Q 1466 2841 1156 2769 
Q 847 2697 581 2553 
L 581 3406 
Q 941 3494 1303 3539 
Q 1666 3584 2028 3584 
Q 2975 3584 3395 3211 
Q 3816 2838 3816 1997 
z
" transform="scale(0.015625)"/>
      <path id="DejaVuSans-Bold-46" d="M 588 4666 
L 3834 4666 
L 3834 3756 
L 1791 3756 
L 1791 2888 
L 3713 2888 
L 3713 1978 
L 1791 1978 
L 1791 0 
L 588 0 
L 588 4666 
z
" transform="scale(0.015625)"/>
     </defs>
     <use xlink:href="#DejaVuSans-Bold-41"/>
     <use xlink:href="#DejaVuSans-Bold-2e" transform="translate(79.267578 0)"/>
     <use xlink:href="#DejaVuSans-Bold-20" transform="translate(117.255859 0)"/>
     <use xlink:href="#DejaVuSans-Bold-43" transform="translate(152.070312 0)"/>
     <use xlink:href="#DejaVuSans-Bold-72" transform="translate(225.458984 0)"/>
     <use xlink:href="#DejaVuSans-Bold-6f" transform="translate(274.775391 0)"/>
     <use xlink:href="#DejaVuSans-Bold-73" transform="translate(343.476562 0)"/>
     <use xlink:href="#DejaVuSans-Bold-73" transform="translate(402.998047 0)"/>
     <use xlink:href="#DejaVuSans-Bold-2d" transform="translate(462.519531 0)"/>
     <use xlink:href="#DejaVuSans-Bold-41" transform="translate(504.023438 0)"/>
     <use xlink:href="#DejaVuSans-Bold-74" transform="translate(581.416016 0)"/>
     <use xlink:href="#DejaVuSans-Bold-74" transform="translate(629.21875 0)"/>
     <use xlink:href="#DejaVuSans-Bold-65" transform="translate(677.021484 0)"/>
     <use xlink:href="#DejaVuSans-Bold-6e" transform="translate(744.84375 0)"/>
     <use xlink:href="#DejaVuSans-Bold-74" transform="translate(816.035156 0)"/>
     <use xlink:href="#DejaVuSans-Bold-69" transform="translate(863.837891 0)"/>
     <use xlink:href="#DejaVuSans-Bold-6f" transform="translate(898.115234 0)"/>
     <use xlink:href="#DejaVuSans-Bold-6e" transform="translate(966.816406 0)"/>
     <use xlink:href="#DejaVuSans-Bold-20" transform="translate(1038.007812 0)"/>
     <use xlink:href="#DejaVuSans-Bold-66" transform="translate(1072.822266 0)"/>
     <use xlink:href="#DejaVuSans-Bold-6f" transform="translate(1116.328125 0)"/>
     <use xlink:href="#DejaVuSans-Bold-72" transform="translate(1185.029297 0)"/>
     <use xlink:href="#DejaVuSans-Bold-20" transform="translate(1234.345703 0)"/>
     <use xlink:href="#DejaVuSans-Bold-4d" transform="translate(1269.160156 0)"/>
     <use xlink:href="#DejaVuSans-Bold-75" transform="translate(1368.671875 0)"/>
     <use xlink:href="#DejaVuSans-Bold-6c" transform="translate(1439.863281 0)"/>
     <use xlink:href="#DejaVuSans-Bold-74" transform="translate(1474.140625 0)"/>
     <use xlink:href="#DejaVuSans-Bold-69" transform="translate(1521.943359 0)"/>
     <use xlink:href="#DejaVuSans-Bold-2d" transform="translate(1556.220703 0)"/>
     <use xlink:href="#DejaVuSans-Bold-4d" transform="translate(1597.724609 0)"/>
     <use xlink:href="#DejaVuSans-Bold-6f" transform="translate(1697.236328 0)"/>
     <use xlink:href="#DejaVuSans-Bold-64" transform="translate(1765.9375 0)"/>
     <use xlink:href="#DejaVuSans-Bold-61" transform="translate(1837.519531 0)"/>
     <use xlink:href="#DejaVuSans-Bold-6c" transform="translate(1905 0)"/>
     <use xlink:href="#DejaVuSans-Bold-20" transform="translate(1939.277344 0)"/>
     <use xlink:href="#DejaVuSans-Bold-46" transform="translate(1974.091797 0)"/>
     <use xlink:href="#DejaVuSans-Bold-75" transform="translate(2037.402344 0)"/>
     <use xlink:href="#DejaVuSans-Bold-73" transform="translate(2108.59375 0)"/>
     <use xlink:href="#DejaVuSans-Bold-69" transform="translate(2168.115234 0)"/>
     <use xlink:href="#DejaVuSans-Bold-6f" transform="translate(2202.392578 0)"/>
     <use xlink:href="#DejaVuSans-Bold-6e" transform="translate(2271.09375 0)"/>
    </g>
   </g>
  </g>
 </g>
 <defs>
  <clipPath id="pe6b4cd22ee">
   <rect x="7.2" y="21.558281" width="554.4" height="323.76"/>
  </clipPath>
 </defs>
</svg>
