<?xml version="1.0" encoding="UTF-8" standalone="no"?>
<!DOCTYPE svg PUBLIC "-//W3C//DTD SVG 1.1//EN"
 "http://www.w3.org/Graphics/SVG/1.1/DTD/svg11.dtd">
<!-- Generated by graphviz version 2.43.0 (0)
 -->
<!-- Title: cascade Pages: 1 -->
<svg width="864pt" height="95pt"
 viewBox="0.00 0.00 864.00 94.61" xmlns="http://www.w3.org/2000/svg" xmlns:xlink="http://www.w3.org/1999/xlink">
<g id="graph0" class="graph" transform="scale(1.39 1.39) rotate(0) translate(4 64)">
<title>cascade</title>
<polygon fill="white" stroke="transparent" points="-4,4 -4,-64 617,-64 617,4 -4,4"/>
<!-- dna -->
<g id="node1" class="node">
<title>dna</title>
<path fill="#1f77b4" stroke="black" stroke-width="1.5" d="M46,-60C46,-60 12,-60 12,-60 6,-60 0,-54 0,-48 0,-48 0,-36 0,-36 0,-30 6,-24 12,-24 12,-24 46,-24 46,-24 52,-24 58,-30 58,-36 58,-36 58,-48 58,-48 58,-54 52,-60 46,-60"/>
<text text-anchor="middle" x="29" y="-44.8" font-family="Arial" font-size="9.00" fill="white">DNA</text>
<text text-anchor="middle" x="29" y="-34.8" font-family="Arial" font-size="9.00" fill="white">(Genome)</text>
</g>
<!-- rna -->
<g id="node2" class="node">
<title>rna</title>
<path fill="#2ca02c" stroke="black" stroke-width="1.5" d="M260,-60C260,-60 203,-60 203,-60 197,-60 191,-54 191,-48 191,-48 191,-36 191,-36 191,-30 197,-24 203,-24 203,-24 260,-24 260,-24 266,-24 272,-30 272,-36 272,-36 272,-48 272,-48 272,-54 266,-60 260,-60"/>
<text text-anchor="middle" x="231.5" y="-44.8" font-family="Arial" font-size="9.00" fill="white">RNA</text>
<text text-anchor="middle" x="231.5" y="-34.8" font-family="Arial" font-size="9.00" fill="white">(Transcriptome)</text>
</g>
<!-- dna&#45;&gt;rna -->
<g id="edge1" class="edge">
<title>dna&#45;&gt;rna</title>
<path fill="none" stroke="black" d="M58.3,-42C90.11,-42 142.34,-42 180.95,-42"/>
<polygon fill="black" stroke="black" points="180.95,-45.5 190.95,-42 180.95,-38.5 180.95,-45.5"/>
<text text-anchor="middle" x="124.5" y="-45.8" font-family="Times,serif" font-size="14.00">Transcription</text>
</g>
<!-- protein -->
<g id="node3" class="node">
<title>protein</title>
<path fill="#ff7f0e" stroke="black" stroke-width="1.5" d="M440,-60C440,-60 402,-60 402,-60 396,-60 390,-54 390,-48 390,-48 390,-36 390,-36 390,-30 396,-24 402,-24 402,-24 440,-24 440,-24 446,-24 452,-30 452,-36 452,-36 452,-48 452,-48 452,-54 446,-60 440,-60"/>
<text text-anchor="middle" x="421" y="-44.8" font-family="Arial" font-size="9.00">Protein</text>
<text text-anchor="middle" x="421" y="-34.8" font-family="Arial" font-size="9.00">(Proteome)</text>
</g>
<!-- rna&#45;&gt;protein -->
<g id="edge2" class="edge">
<title>rna&#45;&gt;protein</title>
<path fill="none" stroke="black" d="M272.26,-42C303.85,-42 347.83,-42 379.58,-42"/>
<polygon fill="black" stroke="black" points="379.84,-45.5 389.84,-42 379.84,-38.5 379.84,-45.5"/>
<text text-anchor="middle" x="331" y="-45.8" font-family="Times,serif" font-size="14.00">Translation</text>
</g>
<!-- protein&#45;&gt;dna -->
<g id="edge4" class="edge">
<title>protein&#45;&gt;dna</title>
<path fill="none" stroke="black" stroke-dasharray="5,2" d="M389.69,-33.4C346.39,-21.11 272,0 272,0 272,0 191,0 191,0 191,0 115.32,-19.74 67.73,-32.16"/>
<polygon fill="black" stroke="black" points="66.84,-28.77 58.04,-34.68 68.6,-35.55 66.84,-28.77"/>
<text text-anchor="middle" x="231.5" y="-3.8" font-family="Times,serif" font-size="14.00">Regulation</text>
</g>
<!-- phenotype -->
<g id="node4" class="node">
<title>phenotype</title>
<path fill="#d62728" stroke="black" stroke-width="1.5" d="M601,-60C601,-60 564,-60 564,-60 558,-60 552,-54 552,-48 552,-48 552,-36 552,-36 552,-30 558,-24 564,-24 564,-24 601,-24 601,-24 607,-24 613,-30 613,-36 613,-36 613,-48 613,-48 613,-54 607,-60 601,-60"/>
<text text-anchor="middle" x="582.5" y="-39.8" font-family="Arial" font-size="9.00" fill="white">Phenotype</text>
</g>
<!-- protein&#45;&gt;phenotype -->
<g id="edge3" class="edge">
<title>protein&#45;&gt;phenotype</title>
<path fill="none" stroke="black" d="M452,-42C477.37,-42 513.91,-42 541.72,-42"/>
<polygon fill="black" stroke="black" points="541.9,-45.5 551.9,-42 541.9,-38.5 541.9,-45.5"/>
<text text-anchor="middle" x="502" y="-45.8" font-family="Times,serif" font-size="14.00">Function</text>
</g>
</g>
</svg>
