<?xml version="1.0" encoding="UTF-8" standalone="no"?>
<!DOCTYPE svg PUBLIC "-//W3C//DTD SVG 1.1//EN"
 "http://www.w3.org/Graphics/SVG/1.1/DTD/svg11.dtd">
<!-- Generated by graphviz version 2.43.0 (0)
 -->
<!-- Title: closedloop Pages: 1 -->
<svg width="148pt" height="432pt"
 viewBox="0.00 0.00 147.69 432.00" xmlns="http://www.w3.org/2000/svg" xmlns:xlink="http://www.w3.org/1999/xlink">
<g id="graph0" class="graph" transform="scale(1.3 1.3) rotate(0) translate(4 328)">
<title>closedloop</title>
<polygon fill="white" stroke="transparent" points="-4,4 -4,-328 109.5,-328 109.5,4 -4,4"/>
<!-- obs -->
<g id="node1" class="node">
<title>obs</title>
<path fill="#aec7e8" stroke="black" stroke-width="1.5" d="M93.5,-324C93.5,-324 43.5,-324 43.5,-324 37.5,-324 31.5,-318 31.5,-312 31.5,-312 31.5,-300 31.5,-300 31.5,-294 37.5,-288 43.5,-288 43.5,-288 93.5,-288 93.5,-288 99.5,-288 105.5,-294 105.5,-300 105.5,-300 105.5,-312 105.5,-312 105.5,-318 99.5,-324 93.5,-324"/>
<text text-anchor="middle" x="68.5" y="-308.8" font-family="Arial" font-size="9.00">Observational</text>
<text text-anchor="middle" x="68.5" y="-298.8" font-family="Arial" font-size="9.00">Data</text>
</g>
<!-- model -->
<g id="node2" class="node">
<title>model</title>
<path fill="#9467bd" stroke="black" stroke-width="1.5" d="M83.5,-252C83.5,-252 53.5,-252 53.5,-252 47.5,-252 41.5,-246 41.5,-240 41.5,-240 41.5,-228 41.5,-228 41.5,-222 47.5,-216 53.5,-216 53.5,-216 83.5,-216 83.5,-216 89.5,-216 95.5,-222 95.5,-228 95.5,-228 95.5,-240 95.5,-240 95.5,-246 89.5,-252 83.5,-252"/>
<text text-anchor="middle" x="68.5" y="-236.8" font-family="Arial" font-size="9.00" fill="white">Causal</text>
<text text-anchor="middle" x="68.5" y="-226.8" font-family="Arial" font-size="9.00" fill="white">Model</text>
</g>
<!-- obs&#45;&gt;model -->
<g id="edge1" class="edge">
<title>obs&#45;&gt;model</title>
<path fill="none" stroke="black" d="M68.5,-287.7C68.5,-279.98 68.5,-270.71 68.5,-262.11"/>
<polygon fill="black" stroke="black" points="72,-262.1 68.5,-252.1 65,-262.1 72,-262.1"/>
</g>
<!-- predict -->
<g id="node3" class="node">
<title>predict</title>
<path fill="#ffbb78" stroke="black" stroke-width="1.5" d="M58,-180C58,-180 17,-180 17,-180 11,-180 5,-174 5,-168 5,-168 5,-156 5,-156 5,-150 11,-144 17,-144 17,-144 58,-144 58,-144 64,-144 70,-150 70,-156 70,-156 70,-168 70,-168 70,-174 64,-180 58,-180"/>
<text text-anchor="middle" x="37.5" y="-164.8" font-family="Arial" font-size="9.00">Predicted</text>
<text text-anchor="middle" x="37.5" y="-154.8" font-family="Arial" font-size="9.00">Intervention</text>
</g>
<!-- model&#45;&gt;predict -->
<g id="edge2" class="edge">
<title>model&#45;&gt;predict</title>
<path fill="none" stroke="black" d="M60.84,-215.7C57.31,-207.73 53.04,-198.1 49.13,-189.26"/>
<polygon fill="black" stroke="black" points="52.32,-187.83 45.07,-180.1 45.92,-190.67 52.32,-187.83"/>
</g>
<!-- exp -->
<g id="node4" class="node">
<title>exp</title>
<path fill="#98df8a" stroke="black" stroke-width="1.5" d="M59,-108C59,-108 12,-108 12,-108 6,-108 0,-102 0,-96 0,-96 0,-84 0,-84 0,-78 6,-72 12,-72 12,-72 59,-72 59,-72 65,-72 71,-78 71,-84 71,-84 71,-96 71,-96 71,-102 65,-108 59,-108"/>
<text text-anchor="middle" x="35.5" y="-92.8" font-family="Arial" font-size="9.00">Experimental</text>
<text text-anchor="middle" x="35.5" y="-82.8" font-family="Arial" font-size="9.00">Validation</text>
</g>
<!-- predict&#45;&gt;exp -->
<g id="edge3" class="edge">
<title>predict&#45;&gt;exp</title>
<path fill="none" stroke="black" d="M37.01,-143.7C36.79,-135.98 36.52,-126.71 36.27,-118.11"/>
<polygon fill="black" stroke="black" points="39.77,-118 35.99,-108.1 32.78,-118.2 39.77,-118"/>
</g>
<!-- refine -->
<g id="node5" class="node">
<title>refine</title>
<path fill="#d62728" stroke="black" stroke-width="1.5" d="M87.5,-36C87.5,-36 47.5,-36 47.5,-36 41.5,-36 35.5,-30 35.5,-24 35.5,-24 35.5,-12 35.5,-12 35.5,-6 41.5,0 47.5,0 47.5,0 87.5,0 87.5,0 93.5,0 99.5,-6 99.5,-12 99.5,-12 99.5,-24 99.5,-24 99.5,-30 93.5,-36 87.5,-36"/>
<text text-anchor="middle" x="67.5" y="-20.8" font-family="Arial" font-size="9.00" fill="white">Model</text>
<text text-anchor="middle" x="67.5" y="-10.8" font-family="Arial" font-size="9.00" fill="white">Refinement</text>
</g>
<!-- exp&#45;&gt;refine -->
<g id="edge4" class="edge">
<title>exp&#45;&gt;refine</title>
<path fill="none" stroke="black" d="M43.41,-71.7C47.05,-63.73 51.45,-54.1 55.49,-45.26"/>
<polygon fill="black" stroke="black" points="58.71,-46.65 59.68,-36.1 52.34,-43.74 58.71,-46.65"/>
</g>
<!-- refine&#45;&gt;model -->
<g id="edge5" class="edge">
<title>refine&#45;&gt;model</title>
<path fill="none" stroke="black" d="M71.68,-36.06C75.49,-51.55 80.5,-72 80.5,-72 80.5,-72 80.5,-108 80.5,-108 80.5,-108 79.5,-180 79.5,-180 79.5,-180 76.81,-192.98 74.08,-206.1"/>
<polygon fill="black" stroke="black" points="70.65,-205.44 72.04,-215.94 77.5,-206.86 70.65,-205.44"/>
</g>
</g>
</svg>
