<?xml version="1.0" encoding="utf-8" ?>
<svg xmlns="http://www.w3.org/2000/svg" xmlns:ev="http://www.w3.org/2001/xml-events" xmlns:xlink="http://www.w3.org/1999/xlink" baseProfile="full" height="800" version="1.1" width="1200">
  <defs>
    <marker id="id349" markerHeight="7" markerWidth="7" orient="auto" refX="6" refY="3">
      <path d="M0,0 L0,6 L6,3 z" fill="#333333"/>
    </marker>
  </defs>
  <rect fill="white" height="800" width="1200" x="0" y="0"/>
  <text fill="#111" font-family="Arial, Helvetica, sans-serif" font-size="28" font-weight="700" x="60" y="50">Figure 2: Network-Based Target Discovery</text>
  <line stroke="#333" stroke-width="2" x1="140" x2="1000" y1="720" y2="720"/>
  <line stroke="#333" stroke-width="2" x1="140" x2="140" y1="160" y2="720"/>
  <circle cx="339.4124624218175" cy="536.2306094976467" fill="#1f77b4" opacity="0.75" r="4"/>
  <circle cx="381.144313900287" cy="495.55300493704266" fill="#2ca02c" opacity="0.75" r="4"/>
  <circle cx="466.21076619354983" cy="557.5823498676735" fill="#2ca02c" opacity="0.75" r="4"/>
  <circle cx="315.3637232313132" cy="530.2930335590545" fill="#ff7f0e" opacity="0.75" r="4"/>
  <circle cx="466.2009292726323" cy="496.1546622885629" fill="#ff7f0e" opacity="0.75" r="4"/>
  <circle cx="476.12968983932996" cy="480.1685506533021" fill="#2ca02c" opacity="0.75" r="4"/>
  <circle cx="321.61452291685066" cy="621.5052019974439" fill="#2ca02c" opacity="0.75" r="4"/>
  <circle cx="417.5541115341859" cy="514.2126807994109" fill="#1f77b4" opacity="0.75" r="4"/>
  <circle cx="325.23288849414024" cy="498.9949798610885" fill="#2ca02c" opacity="0.75" r="4"/>
  <circle cx="324.10663504018265" cy="592.2502845019499" fill="#ff7f0e" opacity="0.75" r="4"/>
  <circle cx="386.33075651638313" cy="499.3183838674043" fill="#1f77b4" opacity="0.75" r="4"/>
  <circle cx="334.31587051187535" cy="546.8799257915705" fill="#1f77b4" opacity="0.75" r="4"/>
  <circle cx="397.2844306351625" cy="497.7716356225612" fill="#2ca02c" opacity="0.75" r="4"/>
  <circle cx="460.6107478581811" cy="528.1036896894805" fill="#1f77b4" opacity="0.75" r="4"/>
  <circle cx="401.72760331651216" cy="555.1520632006182" fill="#ff7f0e" opacity="0.75" r="4"/>
  <circle cx="273.0644536300191" cy="512.7561170507597" fill="#1f77b4" opacity="0.75" r="4"/>
  <circle cx="468.7690074686942" cy="524.009676316399" fill="#ff7f0e" opacity="0.75" r="4"/>
  <circle cx="470.77329646205897" cy="521.1718558465082" fill="#ff7f0e" opacity="0.75" r="4"/>
  <circle cx="393.397128685079" cy="588.084718298303" fill="#1f77b4" opacity="0.75" r="4"/>
  <circle cx="480.6062122688988" cy="511.6555110794553" fill="#ff7f0e" opacity="0.75" r="4"/>
  <circle cx="358.09157970565104" cy="519.0251874134209" fill="#1f77b4" opacity="0.75" r="4"/>
  <circle cx="433.56024131084905" cy="498.90992164665477" fill="#ff7f0e" opacity="0.75" r="4"/>
  <circle cx="369.13246642751255" cy="550.0504021851527" fill="#2ca02c" opacity="0.75" r="4"/>
  <circle cx="503.47200535025326" cy="550.1063442940706" fill="#2ca02c" opacity="0.75" r="4"/>
  <circle cx="330.7158577983656" cy="470.80922201482076" fill="#2ca02c" opacity="0.75" r="4"/>
  <circle cx="376.00063386091097" cy="490.7626000064239" fill="#1f77b4" opacity="0.75" r="4"/>
  <circle cx="419.48684367010964" cy="503.0757941571857" fill="#1f77b4" opacity="0.75" r="4"/>
  <circle cx="355.4406643286402" cy="567.3814058832885" fill="#2ca02c" opacity="0.75" r="4"/>
  <circle cx="452.1679767320094" cy="502.65254032521455" fill="#1f77b4" opacity="0.75" r="4"/>
  <circle cx="351.7156607981684" cy="546.2420177423029" fill="#2ca02c" opacity="0.75" r="4"/>
  <circle cx="415.6914794543194" cy="513.7105342798118" fill="#2ca02c" opacity="0.75" r="4"/>
  <circle cx="427.28033965780764" cy="526.0492589650307" fill="#ff7f0e" opacity="0.75" r="4"/>
  <circle cx="362.6055887298584" cy="481.4999856291998" fill="#ff7f0e" opacity="0.75" r="4"/>
  <circle cx="535.1734072561866" cy="498.7669295270142" fill="#1f77b4" opacity="0.75" r="4"/>
  <circle cx="380.9572270319351" cy="498.20135648914714" fill="#1f77b4" opacity="0.75" r="4"/>
  <circle cx="399.7523354113722" cy="447.89638280864875" fill="#2ca02c" opacity="0.75" r="4"/>
  <circle cx="433.2413265184575" cy="544.1971976109664" fill="#ff7f0e" opacity="0.75" r="4"/>
  <circle cx="478.35890715626084" cy="540.7623803519705" fill="#ff7f0e" opacity="0.75" r="4"/>
  <circle cx="448.96077706030593" cy="517.7083838976099" fill="#ff7f0e" opacity="0.75" r="4"/>
  <circle cx="358.00868159123934" cy="509.12814552699143" fill="#ff7f0e" opacity="0.75" r="4"/>
  <circle cx="477.35947747999137" cy="523.06585486624" fill="#ff7f0e" opacity="0.75" r="4"/>
  <circle cx="370.0666648426653" cy="463.35584212502766" fill="#1f77b4" opacity="0.75" r="4"/>
  <circle cx="384.76918718707043" cy="446.1576347666177" fill="#2ca02c" opacity="0.75" r="4"/>
  <circle cx="440.0591985233036" cy="541.0409966816948" fill="#1f77b4" opacity="0.75" r="4"/>
  <circle cx="461.4823513019172" cy="485.65242763114475" fill="#2ca02c" opacity="0.75" r="4"/>
  <circle cx="336.97156186354084" cy="487.3076617586124" fill="#1f77b4" opacity="0.75" r="4"/>
  <circle cx="535.9775184004202" cy="444.5153927123851" fill="#1f77b4" opacity="0.75" r="4"/>
  <circle cx="361.81387228888764" cy="580.8788406858873" fill="#1f77b4" opacity="0.75" r="4"/>
  <circle cx="376.3724853732311" cy="506.9991345164271" fill="#2ca02c" opacity="0.75" r="4"/>
  <circle cx="426.1192464502026" cy="489.9156403523989" fill="#1f77b4" opacity="0.75" r="4"/>
  <circle cx="374.7271170000929" cy="459.26334780768985" fill="#1f77b4" opacity="0.75" r="4"/>
  <circle cx="382.86404876581844" cy="444.3052461014265" fill="#1f77b4" opacity="0.75" r="4"/>
  <circle cx="416.1217289146295" cy="480.60777222086733" fill="#2ca02c" opacity="0.75" r="4"/>
  <circle cx="361.14602012487234" cy="580.8866172421101" fill="#1f77b4" opacity="0.75" r="4"/>
  <circle cx="475.27813971858774" cy="524.8359299104421" fill="#2ca02c" opacity="0.75" r="4"/>
  <circle cx="521.7439207532022" cy="475.36846750116894" fill="#ff7f0e" opacity="0.75" r="4"/>
  <circle cx="615.2318980683517" cy="395.4666294317621" fill="#1f77b4" opacity="0.75" r="4"/>
  <circle cx="517.8478823431753" cy="362.30344562707944" fill="#1f77b4" opacity="0.75" r="4"/>
  <circle cx="618.7365627492595" cy="460.2322470839498" fill="#1f77b4" opacity="0.75" r="4"/>
  <circle cx="594.5039312930066" cy="449.93031644465884" fill="#ff7f0e" opacity="0.75" r="4"/>
  <circle cx="751.4528949855016" cy="432.07488504429244" fill="#1f77b4" opacity="0.75" r="4"/>
  <circle cx="636.260695763503" cy="419.8514823431304" fill="#1f77b4" opacity="0.75" r="4"/>
  <circle cx="654.6094015237884" cy="380.9236224600454" fill="#ff7f0e" opacity="0.75" r="4"/>
  <circle cx="705.2295596343469" cy="516.4934989152455" fill="#2ca02c" opacity="0.75" r="4"/>
  <circle cx="665.2232410693798" cy="407.36467582434454" fill="#2ca02c" opacity="0.75" r="4"/>
  <circle cx="664.9863836215708" cy="453.3265590615018" fill="#ff7f0e" opacity="0.75" r="4"/>
  <circle cx="699.9147351345906" cy="396.7408853238796" fill="#2ca02c" opacity="0.75" r="4"/>
  <circle cx="691.5676983780278" cy="463.3749146515735" fill="#1f77b4" opacity="0.75" r="4"/>
  <circle cx="694.1934179472383" cy="339.0358466518241" fill="#1f77b4" opacity="0.75" r="4"/>
  <circle cx="717.3921796584964" cy="420.62757724654307" fill="#ff7f0e" opacity="0.75" r="4"/>
  <circle cx="654.838674917532" cy="478.5770439253039" fill="#1f77b4" opacity="0.75" r="4"/>
  <circle cx="678.0696806718521" cy="462.20070174969294" fill="#ff7f0e" opacity="0.75" r="4"/>
  <circle cx="627.251648278986" cy="433.6619313846035" fill="#1f77b4" opacity="0.75" r="4"/>
  <circle cx="586.0795434644594" cy="401.539394623971" fill="#2ca02c" opacity="0.75" r="4"/>
  <circle cx="712.7677772349621" cy="468.879804279331" fill="#2ca02c" opacity="0.75" r="4"/>
  <circle cx="498.3853023024917" cy="413.5289817494272" fill="#1f77b4" opacity="0.75" r="4"/>
  <circle cx="659.525726296749" cy="319.24639842839133" fill="#1f77b4" opacity="0.75" r="4"/>
  <circle cx="679.9783797002619" cy="387.47063620596566" fill="#1f77b4" opacity="0.75" r="4"/>
  <circle cx="612.7744489297415" cy="320.2628901691211" fill="#2ca02c" opacity="0.75" r="4"/>
  <circle cx="672.4237636005847" cy="499.5450544851276" fill="#2ca02c" opacity="0.75" r="4"/>
  <circle cx="607.4656345043817" cy="434.2312142637997" fill="#2ca02c" opacity="0.75" r="4"/>
  <circle cx="643.1555811430742" cy="375.9358182454564" fill="#1f77b4" opacity="0.75" r="4"/>
  <circle cx="643.7956100027177" cy="384.8000375844173" fill="#2ca02c" opacity="0.75" r="4"/>
  <circle cx="631.4926186053636" cy="417.93723075585734" fill="#ff7f0e" opacity="0.75" r="4"/>
  <circle cx="655.2010456117898" cy="459.08829367604955" fill="#1f77b4" opacity="0.75" r="4"/>
  <circle cx="729.949764095533" cy="448.02036147270917" fill="#2ca02c" opacity="0.75" r="4"/>
  <circle cx="652.2011020618016" cy="456.21350969817775" fill="#1f77b4" opacity="0.75" r="4"/>
  <circle cx="703.7696756992561" cy="389.8050640742732" fill="#1f77b4" opacity="0.75" r="4"/>
  <circle cx="604.9672512613467" cy="328.7114651603294" fill="#2ca02c" opacity="0.75" r="4"/>
  <circle cx="622.7919693173837" cy="339.94723424511085" fill="#ff7f0e" opacity="0.75" r="4"/>
  <circle cx="751.8641492890022" cy="457.7735322590702" fill="#1f77b4" opacity="0.75" r="4"/>
  <circle cx="724.0728264443135" cy="479.1243058901302" fill="#2ca02c" opacity="0.75" r="4"/>
  <circle cx="641.5983445513987" cy="399.41013722884753" fill="#ff7f0e" opacity="0.75" r="4"/>
  <circle cx="671.6482968478384" cy="406.414384232996" fill="#ff7f0e" opacity="0.75" r="4"/>
  <circle cx="665.6140769303295" cy="385.48462356482526" fill="#2ca02c" opacity="0.75" r="4"/>
  <circle cx="625.3441315378664" cy="369.7589673417695" fill="#1f77b4" opacity="0.75" r="4"/>
  <circle cx="767.5894747052287" cy="426.71341324384593" fill="#ff7f0e" opacity="0.75" r="4"/>
  <circle cx="532.2659917872663" cy="429.82492799032923" fill="#ff7f0e" opacity="0.75" r="4"/>
  <circle cx="686.5369583343045" cy="405.34652190800387" fill="#ff7f0e" opacity="0.75" r="4"/>
  <circle cx="663.2830802881713" cy="418.4824962418821" fill="#2ca02c" opacity="0.75" r="4"/>
  <circle cx="667.16059798912" cy="389.65545523505887" fill="#ff7f0e" opacity="0.75" r="4"/>
  <circle cx="393.51561496112174" cy="468.9063733948608" fill="#ff7f0e" opacity="0.75" r="4"/>
  <circle cx="685.9107670512296" cy="488.33551428038606" fill="#ff7f0e" opacity="0.75" r="4"/>
  <circle cx="690.1828048429186" cy="415.2209390620925" fill="#ff7f0e" opacity="0.75" r="4"/>
  <circle cx="573.1175025933373" cy="422.7362695185645" fill="#1f77b4" opacity="0.75" r="4"/>
  <circle cx="808.3596091559042" cy="457.33889804722236" fill="#ff7f0e" opacity="0.75" r="4"/>
  <circle cx="749.704031086862" cy="364.6957626209187" fill="#2ca02c" opacity="0.75" r="4"/>
  <circle cx="705.0400699954268" cy="360.04931048303456" fill="#ff7f0e" opacity="0.75" r="4"/>
  <circle cx="742.0730458001109" cy="348.1849082060683" fill="#1f77b4" opacity="0.75" r="4"/>
  <circle cx="582.6345039950983" cy="320.1458336650618" fill="#2ca02c" opacity="0.75" r="4"/>
  <circle cx="559.193697147502" cy="565.4898963701065" fill="#1f77b4" opacity="0.75" r="4"/>
  <circle cx="538.8300227104822" cy="609.7699643188628" fill="#ff7f0e" opacity="0.75" r="4"/>
  <circle cx="485.8520993320718" cy="557.3467182296242" fill="#ff7f0e" opacity="0.75" r="4"/>
  <circle cx="454.2227733700206" cy="500.11901222651363" fill="#2ca02c" opacity="0.75" r="4"/>
  <circle cx="625.5062163798888" cy="570.6298354111556" fill="#ff7f0e" opacity="0.75" r="4"/>
  <circle cx="594.3795207623091" cy="560.3244459175648" fill="#1f77b4" opacity="0.75" r="4"/>
  <circle cx="654.431918101664" cy="563.6377722428347" fill="#ff7f0e" opacity="0.75" r="4"/>
  <circle cx="420.10660447822755" cy="611.1263066289104" fill="#ff7f0e" opacity="0.75" r="4"/>
  <circle cx="527.8852588392285" cy="593.9176655538793" fill="#1f77b4" opacity="0.75" r="4"/>
  <circle cx="566.8908970975835" cy="574.9416464992769" fill="#1f77b4" opacity="0.75" r="4"/>
  <circle cx="546.7395333808497" cy="602.3098440176764" fill="#2ca02c" opacity="0.75" r="4"/>
  <circle cx="533.7734346837016" cy="554.458126386525" fill="#ff7f0e" opacity="0.75" r="4"/>
  <circle cx="447.3857941399821" cy="583.7352765413785" fill="#1f77b4" opacity="0.75" r="4"/>
  <circle cx="540.7739872275883" cy="585.9688246826938" fill="#1f77b4" opacity="0.75" r="4"/>
  <circle cx="539.8712533502207" cy="551.2423872153754" fill="#ff7f0e" opacity="0.75" r="4"/>
  <circle cx="369.1250566719506" cy="645.4039921415533" fill="#2ca02c" opacity="0.75" r="4"/>
  <circle cx="442.22422268540964" cy="574.3519881900181" fill="#2ca02c" opacity="0.75" r="4"/>
  <circle cx="588.3733633859066" cy="557.7090521581054" fill="#ff7f0e" opacity="0.75" r="4"/>
  <circle cx="482.0846706886275" cy="536.6407876697813" fill="#ff7f0e" opacity="0.75" r="4"/>
  <circle cx="541.3931115671257" cy="558.0449859352973" fill="#2ca02c" opacity="0.75" r="4"/>
  <circle cx="444.13663099414725" cy="610.0015358354481" fill="#2ca02c" opacity="0.75" r="4"/>
  <circle cx="500.50815167484654" cy="624.1436047396564" fill="#2ca02c" opacity="0.75" r="4"/>
  <circle cx="535.3205657063177" cy="565.8194221962001" fill="#2ca02c" opacity="0.75" r="4"/>
  <circle cx="496.51543505163477" cy="612.662351890134" fill="#2ca02c" opacity="0.75" r="4"/>
  <circle cx="594.4793701761465" cy="588.5340312784463" fill="#1f77b4" opacity="0.75" r="4"/>
  <circle cx="521.936300904424" cy="570.3050845485814" fill="#ff7f0e" opacity="0.75" r="4"/>
  <circle cx="528.5442045035993" cy="591.0844191652361" fill="#1f77b4" opacity="0.75" r="4"/>
  <circle cx="516.1819392230045" cy="539.6025730963654" fill="#ff7f0e" opacity="0.75" r="4"/>
  <circle cx="624.4408625845438" cy="578.1811015916835" fill="#1f77b4" opacity="0.75" r="4"/>
  <circle cx="532.2242662522227" cy="557.0322988847445" fill="#1f77b4" opacity="0.75" r="4"/>
  <circle cx="479.2015703465578" cy="558.6160411651089" fill="#ff7f0e" opacity="0.75" r="4"/>
  <circle cx="576.8125053381661" cy="553.3576726025484" fill="#2ca02c" opacity="0.75" r="4"/>
  <circle cx="378.7264769985653" cy="598.529277418158" fill="#ff7f0e" opacity="0.75" r="4"/>
  <circle cx="481.0745087109001" cy="580.4459870872611" fill="#ff7f0e" opacity="0.75" r="4"/>
  <circle cx="513.4841321649212" cy="551.823276109539" fill="#ff7f0e" opacity="0.75" r="4"/>
  <circle cx="550.208859165303" cy="557.6159179083884" fill="#ff7f0e" opacity="0.75" r="4"/>
  <circle cx="508.66018207936776" cy="544.6675899106804" fill="#ff7f0e" opacity="0.75" r="4"/>
  <circle cx="446.91201933535433" cy="634.1267872468306" fill="#1f77b4" opacity="0.75" r="4"/>
  <circle cx="637.1978333016812" cy="528.9101701917166" fill="#ff7f0e" opacity="0.75" r="4"/>
  <circle cx="584.1549000116136" cy="559.6032941498569" fill="#2ca02c" opacity="0.75" r="4"/>
  <circle cx="440.7011449534031" cy="581.209671483093" fill="#ff7f0e" opacity="0.75" r="4"/>
  <circle cx="528.2763722108098" cy="615.5857821992274" fill="#ff7f0e" opacity="0.75" r="4"/>
  <circle cx="548.0879182811334" cy="681.0674665396243" fill="#1f77b4" opacity="0.75" r="4"/>
  <circle cx="455.6764857515114" cy="578.8891455647715" fill="#2ca02c" opacity="0.75" r="4"/>
  <circle cx="596.917899679876" cy="529.7476812193662" fill="#ff7f0e" opacity="0.75" r="4"/>
  <circle cx="509.25133605933746" cy="576.3490529761576" fill="#2ca02c" opacity="0.75" r="4"/>
  <circle cx="465.1112799353409" cy="590.6697310265445" fill="#ff7f0e" opacity="0.75" r="4"/>
  <circle cx="444.45844337525523" cy="548.280922296929" fill="#ff7f0e" opacity="0.75" r="4"/>
  <circle cx="525.2997370943526" cy="558.3495398342066" fill="#1f77b4" opacity="0.75" r="4"/>
  <circle cx="539.2284606172685" cy="566.0165674143025" fill="#2ca02c" opacity="0.75" r="4"/>
  <circle cx="566.6462241385295" cy="526.7231198797498" fill="#ff7f0e" opacity="0.75" r="4"/>
  <circle cx="484.5164503009422" cy="638.3452247116846" fill="#1f77b4" opacity="0.75" r="4"/>
  <circle cx="533.6834594862512" cy="535.0447847955079" fill="#2ca02c" opacity="0.75" r="4"/>
  <circle cx="451.5813815916932" cy="572.4743646640597" fill="#ff7f0e" opacity="0.75" r="4"/>
  <circle cx="634.8797210667469" cy="581.3638773046835" fill="#ff7f0e" opacity="0.75" r="4"/>
  <circle cx="914.0" cy="244.0" fill="#d62728" opacity="0.9" r="7"/>
  <text fill="#333" font-family="Arial, Helvetica, sans-serif" font-size="16" text-anchor="middle" x="570.0" y="765">Dimension 1</text>
  <text fill="#333" font-family="Arial, Helvetica, sans-serif" font-size="16" text-anchor="middle" transform="rotate(-90,85,440.0)" x="85" y="440.0">Dimension 2</text>
  <text fill="#999" font-family="Arial, Helvetica, sans-serif" font-size="12" text-anchor="end" x="1140" y="776">Auto-generated SVG</text>
</svg>
