<?xml version="1.0" encoding="utf-8" ?>
<svg xmlns="http://www.w3.org/2000/svg" xmlns:ev="http://www.w3.org/2001/xml-events" xmlns:xlink="http://www.w3.org/1999/xlink" baseProfile="full" height="800" version="1.1" width="1200">
  <defs>
    <marker id="id52" markerHeight="7" markerWidth="7" orient="auto" refX="6" refY="3">
      <path d="M0,0 L0,6 L6,3 z" fill="#333333"/>
    </marker>
  </defs>
  <rect fill="white" height="800" width="1200" x="0" y="0"/>
  <text fill="#111" font-family="Arial, Helvetica, sans-serif" font-size="28" font-weight="700" x="60" y="50">Figure 7.1: Self-Attention Mechanism (Five-Panel)</text>
  <text fill="#444" font-family="Arial, Helvetica, sans-serif" font-size="16" x="60" y="78">Panel B</text>
  <line stroke="#333" stroke-width="2" x1="140" x2="1000" y1="720" y2="720"/>
  <line stroke="#333" stroke-width="2" x1="140" x2="140" y1="160" y2="720"/>
  <circle cx="455.95229659439025" cy="517.1216647353446" fill="#1f77b4" opacity="0.75" r="4"/>
  <circle cx="301.38505271027816" cy="524.7730019859089" fill="#2ca02c" opacity="0.75" r="4"/>
  <circle cx="370.90584422686055" cy="503.4445864717846" fill="#1f77b4" opacity="0.75" r="4"/>
  <circle cx="330.69318647907096" cy="501.00644102334206" fill="#1f77b4" opacity="0.75" r="4"/>
  <circle cx="510.61579319901256" cy="558.8669843408096" fill="#ff7f0e" opacity="0.75" r="4"/>
  <circle cx="376.1906894977094" cy="552.564788270948" fill="#1f77b4" opacity="0.75" r="4"/>
  <circle cx="539.4677324437725" cy="568.2480317329941" fill="#1f77b4" opacity="0.75" r="4"/>
  <circle cx="445.23620711928606" cy="508.412613900102" fill="#1f77b4" opacity="0.75" r="4"/>
  <circle cx="389.20600433681204" cy="501.1385167007678" fill="#2ca02c" opacity="0.75" r="4"/>
  <circle cx="640.6912390818056" cy="549.5910637674069" fill="#ff7f0e" opacity="0.75" r="4"/>
  <circle cx="341.13076795185816" cy="571.645905136434" fill="#ff7f0e" opacity="0.75" r="4"/>
  <circle cx="476.16795222179167" cy="539.6914208578719" fill="#1f77b4" opacity="0.75" r="4"/>
  <circle cx="487.21213417515116" cy="479.45767027226236" fill="#ff7f0e" opacity="0.75" r="4"/>
  <circle cx="482.6152167549393" cy="523.5166531058736" fill="#1f77b4" opacity="0.75" r="4"/>
  <circle cx="281.3058127569684" cy="555.251198014978" fill="#ff7f0e" opacity="0.75" r="4"/>
  <circle cx="342.5559775866019" cy="531.3452633735096" fill="#1f77b4" opacity="0.75" r="4"/>
  <circle cx="410.86041357752913" cy="509.12428985154673" fill="#1f77b4" opacity="0.75" r="4"/>
  <circle cx="420.4704660707658" cy="588.6242293398726" fill="#2ca02c" opacity="0.75" r="4"/>
  <circle cx="353.44363677434853" cy="487.01542197279616" fill="#ff7f0e" opacity="0.75" r="4"/>
  <circle cx="354.3151122689552" cy="539.5502285217556" fill="#1f77b4" opacity="0.75" r="4"/>
  <circle cx="438.797987769944" cy="580.1826422684051" fill="#1f77b4" opacity="0.75" r="4"/>
  <circle cx="439.57238011795744" cy="509.40691121163" fill="#ff7f0e" opacity="0.75" r="4"/>
  <circle cx="368.38225621626225" cy="550.3194926044081" fill="#2ca02c" opacity="0.75" r="4"/>
  <circle cx="490.83928491117547" cy="519.1245692229313" fill="#ff7f0e" opacity="0.75" r="4"/>
  <circle cx="370.8249575719626" cy="551.1990880308097" fill="#ff7f0e" opacity="0.75" r="4"/>
  <circle cx="329.38981014428265" cy="590.1271531712092" fill="#1f77b4" opacity="0.75" r="4"/>
  <circle cx="260.7753206974089" cy="583.7259055750322" fill="#ff7f0e" opacity="0.75" r="4"/>
  <circle cx="309.3084427800889" cy="556.2277793831718" fill="#ff7f0e" opacity="0.75" r="4"/>
  <circle cx="353.5785231792114" cy="506.65983469702087" fill="#2ca02c" opacity="0.75" r="4"/>
  <circle cx="379.86624790701933" cy="534.467333433101" fill="#ff7f0e" opacity="0.75" r="4"/>
  <circle cx="446.03948431527596" cy="575.2295984729518" fill="#ff7f0e" opacity="0.75" r="4"/>
  <circle cx="421.56799589343706" cy="598.3554934268643" fill="#ff7f0e" opacity="0.75" r="4"/>
  <circle cx="452.2713816930498" cy="576.5769892741453" fill="#1f77b4" opacity="0.75" r="4"/>
  <circle cx="422.2460010297592" cy="532.9825264088153" fill="#2ca02c" opacity="0.75" r="4"/>
  <circle cx="412.1863276157744" cy="523.8558620301811" fill="#1f77b4" opacity="0.75" r="4"/>
  <circle cx="292.6595677158258" cy="574.4689279148337" fill="#1f77b4" opacity="0.75" r="4"/>
  <circle cx="360.0134763892837" cy="533.6868636571869" fill="#ff7f0e" opacity="0.75" r="4"/>
  <circle cx="410.4058956227169" cy="552.1416462845548" fill="#ff7f0e" opacity="0.75" r="4"/>
  <circle cx="445.1816424494553" cy="549.3969555020975" fill="#1f77b4" opacity="0.75" r="4"/>
  <circle cx="455.4556730055581" cy="426.1052962474879" fill="#1f77b4" opacity="0.75" r="4"/>
  <circle cx="444.6455201673617" cy="506.10597970157204" fill="#1f77b4" opacity="0.75" r="4"/>
  <circle cx="473.0105339055795" cy="499.04538337343234" fill="#1f77b4" opacity="0.75" r="4"/>
  <circle cx="457.48550085068155" cy="453.2224583967668" fill="#2ca02c" opacity="0.75" r="4"/>
  <circle cx="446.5884412408126" cy="585.2128139627271" fill="#2ca02c" opacity="0.75" r="4"/>
  <circle cx="518.4360523984128" cy="527.4545275361188" fill="#2ca02c" opacity="0.75" r="4"/>
  <circle cx="380.0155251609095" cy="473.82111490192705" fill="#ff7f0e" opacity="0.75" r="4"/>
  <circle cx="396.2954842863892" cy="452.35724319293433" fill="#ff7f0e" opacity="0.75" r="4"/>
  <circle cx="514.4134703745402" cy="517.7849211487662" fill="#1f77b4" opacity="0.75" r="4"/>
  <circle cx="479.1577216435966" cy="565.4747859468487" fill="#1f77b4" opacity="0.75" r="4"/>
  <circle cx="395.68014989468895" cy="520.8770054476242" fill="#ff7f0e" opacity="0.75" r="4"/>
  <circle cx="449.1831418307379" cy="490.34450686808725" fill="#2ca02c" opacity="0.75" r="4"/>
  <circle cx="326.2240044902194" cy="522.9041431457383" fill="#2ca02c" opacity="0.75" r="4"/>
  <circle cx="355.43230787598293" cy="559.7034454887867" fill="#1f77b4" opacity="0.75" r="4"/>
  <circle cx="366.7874082439023" cy="540.5911155728927" fill="#2ca02c" opacity="0.75" r="4"/>
  <circle cx="497.6850308264275" cy="518.0665320958707" fill="#ff7f0e" opacity="0.75" r="4"/>
  <circle cx="625.6048456467572" cy="396.3592756894469" fill="#ff7f0e" opacity="0.75" r="4"/>
  <circle cx="653.4709470048609" cy="366.1989818135935" fill="#ff7f0e" opacity="0.75" r="4"/>
  <circle cx="722.7310896402997" cy="423.8655481245031" fill="#2ca02c" opacity="0.75" r="4"/>
  <circle cx="687.490114075681" cy="422.64334756539046" fill="#1f77b4" opacity="0.75" r="4"/>
  <circle cx="742.1301178352521" cy="285.5433587186572" fill="#2ca02c" opacity="0.75" r="4"/>
  <circle cx="692.9443210297482" cy="414.9278258267101" fill="#2ca02c" opacity="0.75" r="4"/>
  <circle cx="631.5596297757822" cy="434.0846987981165" fill="#1f77b4" opacity="0.75" r="4"/>
  <circle cx="695.6708183864373" cy="478.8759155297404" fill="#1f77b4" opacity="0.75" r="4"/>
  <circle cx="693.211806501586" cy="394.2191189816446" fill="#1f77b4" opacity="0.75" r="4"/>
  <circle cx="641.7994573954554" cy="450.2716083608166" fill="#1f77b4" opacity="0.75" r="4"/>
  <circle cx="528.2018518379564" cy="475.5200530146918" fill="#ff7f0e" opacity="0.75" r="4"/>
  <circle cx="642.6933546684199" cy="477.01879880835526" fill="#2ca02c" opacity="0.75" r="4"/>
  <circle cx="687.468224554701" cy="447.844516506011" fill="#ff7f0e" opacity="0.75" r="4"/>
  <circle cx="715.1229676933591" cy="390.74968107012387" fill="#1f77b4" opacity="0.75" r="4"/>
  <circle cx="710.731889490638" cy="346.5049124494409" fill="#2ca02c" opacity="0.75" r="4"/>
  <circle cx="681.8156765741824" cy="430.8000466726964" fill="#2ca02c" opacity="0.75" r="4"/>
  <circle cx="761.6842876763496" cy="403.37818703710593" fill="#1f77b4" opacity="0.75" r="4"/>
  <circle cx="781.245688876774" cy="430.47960493234837" fill="#ff7f0e" opacity="0.75" r="4"/>
  <circle cx="596.0919934494532" cy="327.0457239282438" fill="#1f77b4" opacity="0.75" r="4"/>
  <circle cx="589.3333233801573" cy="487.8005777710742" fill="#2ca02c" opacity="0.75" r="4"/>
  <circle cx="729.5574736701584" cy="489.44991687678777" fill="#1f77b4" opacity="0.75" r="4"/>
  <circle cx="637.9042249430117" cy="419.9919712808806" fill="#ff7f0e" opacity="0.75" r="4"/>
  <circle cx="728.3917642068886" cy="370.1971276317471" fill="#1f77b4" opacity="0.75" r="4"/>
  <circle cx="691.0296989202978" cy="374.5306562867088" fill="#2ca02c" opacity="0.75" r="4"/>
  <circle cx="603.6229224819376" cy="461.3456355802972" fill="#1f77b4" opacity="0.75" r="4"/>
  <circle cx="658.5891506802012" cy="344.4745253277209" fill="#ff7f0e" opacity="0.75" r="4"/>
  <circle cx="682.203729742334" cy="455.76890386106686" fill="#2ca02c" opacity="0.75" r="4"/>
  <circle cx="725.0291112561504" cy="381.45392988461475" fill="#1f77b4" opacity="0.75" r="4"/>
  <circle cx="500.2577093648794" cy="378.4974265064758" fill="#1f77b4" opacity="0.75" r="4"/>
  <circle cx="626.2123808767378" cy="423.8312768085727" fill="#ff7f0e" opacity="0.75" r="4"/>
  <circle cx="640.3394182623038" cy="434.3674856254219" fill="#2ca02c" opacity="0.75" r="4"/>
  <circle cx="727.2600028413746" cy="415.42618964471944" fill="#1f77b4" opacity="0.75" r="4"/>
  <circle cx="495.4135568938695" cy="500.58485522292574" fill="#ff7f0e" opacity="0.75" r="4"/>
  <circle cx="703.789118557764" cy="467.4801581005742" fill="#1f77b4" opacity="0.75" r="4"/>
  <circle cx="653.8818126448157" cy="436.15266204711565" fill="#1f77b4" opacity="0.75" r="4"/>
  <circle cx="586.2101649524218" cy="424.53949637385824" fill="#2ca02c" opacity="0.75" r="4"/>
  <circle cx="638.2431962667331" cy="435.789163330372" fill="#2ca02c" opacity="0.75" r="4"/>
  <circle cx="803.4507254361649" cy="333.18502046167146" fill="#1f77b4" opacity="0.75" r="4"/>
  <circle cx="574.582503812351" cy="389.37434537994494" fill="#1f77b4" opacity="0.75" r="4"/>
  <circle cx="779.4212542228063" cy="394.3997194651187" fill="#ff7f0e" opacity="0.75" r="4"/>
  <circle cx="622.0607615638355" cy="462.4124939974538" fill="#1f77b4" opacity="0.75" r="4"/>
  <circle cx="629.4062662791766" cy="455.43138214840576" fill="#2ca02c" opacity="0.75" r="4"/>
  <circle cx="727.2606634695628" cy="448.8594405034459" fill="#2ca02c" opacity="0.75" r="4"/>
  <circle cx="685.2909323207209" cy="447.6176822626072" fill="#1f77b4" opacity="0.75" r="4"/>
  <circle cx="714.4233489186557" cy="389.93899072697036" fill="#ff7f0e" opacity="0.75" r="4"/>
  <circle cx="797.1441626601487" cy="348.1113039349959" fill="#ff7f0e" opacity="0.75" r="4"/>
  <circle cx="548.5134723757883" cy="499.7070753468736" fill="#2ca02c" opacity="0.75" r="4"/>
  <circle cx="600.6993391729783" cy="550.8507601046558" fill="#ff7f0e" opacity="0.75" r="4"/>
  <circle cx="678.0000000207029" cy="372.4040842491246" fill="#ff7f0e" opacity="0.75" r="4"/>
  <circle cx="582.0591348153939" cy="310.0299662081804" fill="#ff7f0e" opacity="0.75" r="4"/>
  <circle cx="585.3705031623939" cy="482.0609363026046" fill="#2ca02c" opacity="0.75" r="4"/>
  <circle cx="650.7884184460919" cy="374.69387319460316" fill="#ff7f0e" opacity="0.75" r="4"/>
  <circle cx="557.8101349861313" cy="392.99468492388223" fill="#1f77b4" opacity="0.75" r="4"/>
  <circle cx="833.5941915000807" cy="340.95499438385207" fill="#1f77b4" opacity="0.75" r="4"/>
  <circle cx="587.7952661369646" cy="444.7871750108526" fill="#ff7f0e" opacity="0.75" r="4"/>
  <circle cx="484.98528214439" cy="580.2225023339893" fill="#1f77b4" opacity="0.75" r="4"/>
  <circle cx="521.0780288936883" cy="547.2243787295098" fill="#ff7f0e" opacity="0.75" r="4"/>
  <circle cx="579.5781322984278" cy="534.9403571114617" fill="#ff7f0e" opacity="0.75" r="4"/>
  <circle cx="608.6871992018301" cy="488.0746152143466" fill="#ff7f0e" opacity="0.75" r="4"/>
  <circle cx="548.415762428994" cy="593.3672881953344" fill="#ff7f0e" opacity="0.75" r="4"/>
  <circle cx="569.847294644532" cy="553.2740572349088" fill="#2ca02c" opacity="0.75" r="4"/>
  <circle cx="417.48838154979876" cy="578.4056887047643" fill="#1f77b4" opacity="0.75" r="4"/>
  <circle cx="560.491581707772" cy="624.5513258160396" fill="#1f77b4" opacity="0.75" r="4"/>
  <circle cx="598.9929521065735" cy="612.2419807331196" fill="#1f77b4" opacity="0.75" r="4"/>
  <circle cx="551.1192409979963" cy="636.2676050163379" fill="#ff7f0e" opacity="0.75" r="4"/>
  <circle cx="443.95783527833424" cy="580.8950652561575" fill="#ff7f0e" opacity="0.75" r="4"/>
  <circle cx="541.6895976467365" cy="550.681876258956" fill="#1f77b4" opacity="0.75" r="4"/>
  <circle cx="498.60918799460956" cy="564.3298069388132" fill="#ff7f0e" opacity="0.75" r="4"/>
  <circle cx="476.3052520782826" cy="557.5560549751278" fill="#ff7f0e" opacity="0.75" r="4"/>
  <circle cx="573.4320757040036" cy="547.7579228125335" fill="#2ca02c" opacity="0.75" r="4"/>
  <circle cx="459.38634018175185" cy="586.6822557904309" fill="#ff7f0e" opacity="0.75" r="4"/>
  <circle cx="538.7196938244572" cy="544.808121966088" fill="#1f77b4" opacity="0.75" r="4"/>
  <circle cx="624.8015364291405" cy="622.7022039651412" fill="#2ca02c" opacity="0.75" r="4"/>
  <circle cx="466.83016630710756" cy="604.6659789654152" fill="#1f77b4" opacity="0.75" r="4"/>
  <circle cx="434.51966843543033" cy="580.1362471547147" fill="#2ca02c" opacity="0.75" r="4"/>
  <circle cx="578.8726780429593" cy="629.4129496322471" fill="#1f77b4" opacity="0.75" r="4"/>
  <circle cx="481.77925969090325" cy="543.5710674129033" fill="#1f77b4" opacity="0.75" r="4"/>
  <circle cx="515.6115088245709" cy="539.642242208746" fill="#2ca02c" opacity="0.75" r="4"/>
  <circle cx="427.2451790229071" cy="485.18799739462594" fill="#2ca02c" opacity="0.75" r="4"/>
  <circle cx="501.12750725609925" cy="646.5591924071132" fill="#ff7f0e" opacity="0.75" r="4"/>
  <circle cx="540.0882458127098" cy="479.60137036251666" fill="#1f77b4" opacity="0.75" r="4"/>
  <circle cx="619.2907993211662" cy="562.8084440953696" fill="#2ca02c" opacity="0.75" r="4"/>
  <circle cx="423.7529522513588" cy="581.6703045450469" fill="#2ca02c" opacity="0.75" r="4"/>
  <circle cx="510.7609901050867" cy="552.8701435325581" fill="#1f77b4" opacity="0.75" r="4"/>
  <circle cx="595.9136843581695" cy="611.6973924785636" fill="#2ca02c" opacity="0.75" r="4"/>
  <circle cx="463.0661930636979" cy="583.3159684193726" fill="#1f77b4" opacity="0.75" r="4"/>
  <circle cx="473.71220979687683" cy="601.3461593085211" fill="#ff7f0e" opacity="0.75" r="4"/>
  <circle cx="541.1838992751367" cy="577.733161877517" fill="#1f77b4" opacity="0.75" r="4"/>
  <circle cx="576.0222632771661" cy="599.0537638974424" fill="#1f77b4" opacity="0.75" r="4"/>
  <circle cx="555.480139035901" cy="617.2307398556031" fill="#1f77b4" opacity="0.75" r="4"/>
  <circle cx="521.5438895971331" cy="591.163602972514" fill="#1f77b4" opacity="0.75" r="4"/>
  <circle cx="541.0512925244768" cy="609.7524417722423" fill="#ff7f0e" opacity="0.75" r="4"/>
  <circle cx="552.4521749951441" cy="548.517872856451" fill="#ff7f0e" opacity="0.75" r="4"/>
  <circle cx="551.9669635381372" cy="586.8153564676456" fill="#1f77b4" opacity="0.75" r="4"/>
  <circle cx="416.07425635001215" cy="569.9034942821196" fill="#2ca02c" opacity="0.75" r="4"/>
  <circle cx="462.9016249235045" cy="683.0449742596927" fill="#2ca02c" opacity="0.75" r="4"/>
  <circle cx="595.4511785522457" cy="637.4743033844663" fill="#1f77b4" opacity="0.75" r="4"/>
  <circle cx="563.6106345528915" cy="554.4922926191298" fill="#1f77b4" opacity="0.75" r="4"/>
  <circle cx="497.6215405956066" cy="566.2755100048394" fill="#ff7f0e" opacity="0.75" r="4"/>
  <circle cx="480.8954703927291" cy="573.5567874369124" fill="#2ca02c" opacity="0.75" r="4"/>
  <circle cx="541.830592271137" cy="631.6356700394806" fill="#1f77b4" opacity="0.75" r="4"/>
  <circle cx="552.8746576159003" cy="556.0536514566172" fill="#1f77b4" opacity="0.75" r="4"/>
  <circle cx="562.8725257216913" cy="583.8296454800475" fill="#1f77b4" opacity="0.75" r="4"/>
  <circle cx="520.816530468933" cy="546.9803930833111" fill="#2ca02c" opacity="0.75" r="4"/>
  <circle cx="526.3551716863051" cy="626.6493720175812" fill="#ff7f0e" opacity="0.75" r="4"/>
  <circle cx="607.3896941105743" cy="516.9673461100728" fill="#2ca02c" opacity="0.75" r="4"/>
  <circle cx="501.6525491278695" cy="517.1474302378836" fill="#ff7f0e" opacity="0.75" r="4"/>
  <circle cx="568.4555080886504" cy="637.8083256784757" fill="#ff7f0e" opacity="0.75" r="4"/>
  <circle cx="537.5929769841412" cy="628.3440186060194" fill="#2ca02c" opacity="0.75" r="4"/>
  <circle cx="542.782752748887" cy="603.8534249182459" fill="#2ca02c" opacity="0.75" r="4"/>
  <circle cx="914.0" cy="244.0" fill="#d62728" opacity="0.9" r="7"/>
  <text fill="#333" font-family="Arial, Helvetica, sans-serif" font-size="16" text-anchor="middle" x="570.0" y="765">Dimension 1</text>
  <text fill="#333" font-family="Arial, Helvetica, sans-serif" font-size="16" text-anchor="middle" transform="rotate(-90,85,440.0)" x="85" y="440.0">Dimension 2</text>
  <text fill="#999" font-family="Arial, Helvetica, sans-serif" font-size="12" text-anchor="end" x="1140" y="776">Auto-generated SVG</text>
</svg>
