<?xml version="1.0" encoding="utf-8" ?>
<svg xmlns="http://www.w3.org/2000/svg" xmlns:ev="http://www.w3.org/2001/xml-events" xmlns:xlink="http://www.w3.org/1999/xlink" baseProfile="full" height="800" version="1.1" width="1200">
  <defs>
    <marker id="id54" markerHeight="7" markerWidth="7" orient="auto" refX="6" refY="3">
      <path d="M0,0 L0,6 L6,3 z" fill="#333333"/>
    </marker>
  </defs>
  <rect fill="white" height="800" width="1200" x="0" y="0"/>
  <text fill="#111" font-family="Arial, Helvetica, sans-serif" font-size="28" font-weight="700" x="60" y="50">Figure 7.1: Self-Attention Mechanism (Five-Panel)</text>
  <text fill="#444" font-family="Arial, Helvetica, sans-serif" font-size="16" x="60" y="78">Panel D</text>
  <line stroke="#333" stroke-width="2" x1="140" x2="1000" y1="720" y2="720"/>
  <line stroke="#333" stroke-width="2" x1="140" x2="140" y1="160" y2="720"/>
  <circle cx="370.3654174923855" cy="509.23171976105107" fill="#1f77b4" opacity="0.75" r="4"/>
  <circle cx="337.6917940596873" cy="505.5252826657837" fill="#2ca02c" opacity="0.75" r="4"/>
  <circle cx="300.80669212377984" cy="538.9653825594081" fill="#2ca02c" opacity="0.75" r="4"/>
  <circle cx="401.9539315882345" cy="520.9630488306827" fill="#2ca02c" opacity="0.75" r="4"/>
  <circle cx="457.65767942237574" cy="464.66128603100174" fill="#1f77b4" opacity="0.75" r="4"/>
  <circle cx="324.7475636739688" cy="526.503295878596" fill="#2ca02c" opacity="0.75" r="4"/>
  <circle cx="401.9066929522394" cy="469.2737069014786" fill="#ff7f0e" opacity="0.75" r="4"/>
  <circle cx="344.66562980162917" cy="490.98998556418866" fill="#ff7f0e" opacity="0.75" r="4"/>
  <circle cx="390.62466505347993" cy="528.9001788035047" fill="#1f77b4" opacity="0.75" r="4"/>
  <circle cx="349.18118921615337" cy="540.8080884199751" fill="#2ca02c" opacity="0.75" r="4"/>
  <circle cx="422.11373383995283" cy="588.8901302453542" fill="#ff7f0e" opacity="0.75" r="4"/>
  <circle cx="393.58315462679" cy="511.42021925182223" fill="#2ca02c" opacity="0.75" r="4"/>
  <circle cx="322.57468169193794" cy="513.637489779823" fill="#ff7f0e" opacity="0.75" r="4"/>
  <circle cx="403.5458872641428" cy="545.3517702273564" fill="#ff7f0e" opacity="0.75" r="4"/>
  <circle cx="397.4747705989388" cy="520.2570983965123" fill="#1f77b4" opacity="0.75" r="4"/>
  <circle cx="417.64711356217737" cy="536.2026869640674" fill="#1f77b4" opacity="0.75" r="4"/>
  <circle cx="390.92724548055605" cy="543.7847852402176" fill="#2ca02c" opacity="0.75" r="4"/>
  <circle cx="398.7438725755407" cy="512.5146758123024" fill="#1f77b4" opacity="0.75" r="4"/>
  <circle cx="392.49554188772265" cy="487.88933118523255" fill="#2ca02c" opacity="0.75" r="4"/>
  <circle cx="511.7745092570043" cy="486.1694084947467" fill="#2ca02c" opacity="0.75" r="4"/>
  <circle cx="407.60994911239294" cy="491.43998273942407" fill="#2ca02c" opacity="0.75" r="4"/>
  <circle cx="474.9217383304936" cy="496.0683632417765" fill="#ff7f0e" opacity="0.75" r="4"/>
  <circle cx="399.2655636478707" cy="493.72315000200507" fill="#1f77b4" opacity="0.75" r="4"/>
  <circle cx="369.0726034230508" cy="523.197351499929" fill="#ff7f0e" opacity="0.75" r="4"/>
  <circle cx="299.6511275966343" cy="561.2141486872504" fill="#1f77b4" opacity="0.75" r="4"/>
  <circle cx="391.98494194501586" cy="532.6482604193102" fill="#1f77b4" opacity="0.75" r="4"/>
  <circle cx="342.9390357014072" cy="483.5347999431204" fill="#1f77b4" opacity="0.75" r="4"/>
  <circle cx="411.61083927389274" cy="518.3802907516708" fill="#2ca02c" opacity="0.75" r="4"/>
  <circle cx="334.2549817688574" cy="532.8536397533649" fill="#ff7f0e" opacity="0.75" r="4"/>
  <circle cx="331.76406447593763" cy="538.3136664290721" fill="#2ca02c" opacity="0.75" r="4"/>
  <circle cx="332.7071797958199" cy="572.2041612086916" fill="#1f77b4" opacity="0.75" r="4"/>
  <circle cx="302.27699585169046" cy="516.691325458127" fill="#ff7f0e" opacity="0.75" r="4"/>
  <circle cx="475.32036536654357" cy="537.2099362884267" fill="#ff7f0e" opacity="0.75" r="4"/>
  <circle cx="288.72342527874935" cy="486.4458196791705" fill="#2ca02c" opacity="0.75" r="4"/>
  <circle cx="401.3716014514274" cy="506.70017772080257" fill="#2ca02c" opacity="0.75" r="4"/>
  <circle cx="560.1778963649463" cy="645.9558026598224" fill="#ff7f0e" opacity="0.75" r="4"/>
  <circle cx="360.266120143719" cy="555.9453262924986" fill="#2ca02c" opacity="0.75" r="4"/>
  <circle cx="392.0352142140878" cy="494.6650572816837" fill="#2ca02c" opacity="0.75" r="4"/>
  <circle cx="391.75752841050905" cy="544.184405884497" fill="#ff7f0e" opacity="0.75" r="4"/>
  <circle cx="483.69344502049563" cy="478.0741619301549" fill="#ff7f0e" opacity="0.75" r="4"/>
  <circle cx="421.24659134545755" cy="538.6305079503322" fill="#2ca02c" opacity="0.75" r="4"/>
  <circle cx="446.39939647807455" cy="606.1489443514961" fill="#2ca02c" opacity="0.75" r="4"/>
  <circle cx="336.43675692220097" cy="584.0796357965063" fill="#ff7f0e" opacity="0.75" r="4"/>
  <circle cx="343.4799442421552" cy="525.5380085538307" fill="#1f77b4" opacity="0.75" r="4"/>
  <circle cx="447.911984799479" cy="496.67501102797297" fill="#2ca02c" opacity="0.75" r="4"/>
  <circle cx="433.3031557059249" cy="503.75562912195716" fill="#ff7f0e" opacity="0.75" r="4"/>
  <circle cx="485.5347203756867" cy="555.4810055928349" fill="#1f77b4" opacity="0.75" r="4"/>
  <circle cx="468.4629253143871" cy="512.5359198159857" fill="#1f77b4" opacity="0.75" r="4"/>
  <circle cx="416.3854721891938" cy="351.50600004808365" fill="#ff7f0e" opacity="0.75" r="4"/>
  <circle cx="438.1069864038989" cy="468.8636041561896" fill="#1f77b4" opacity="0.75" r="4"/>
  <circle cx="330.4923423190586" cy="515.8741677595923" fill="#2ca02c" opacity="0.75" r="4"/>
  <circle cx="420.1314127445902" cy="529.1638026716157" fill="#1f77b4" opacity="0.75" r="4"/>
  <circle cx="280.5952832790036" cy="511.08872176159684" fill="#1f77b4" opacity="0.75" r="4"/>
  <circle cx="452.82056470389415" cy="547.6115886912223" fill="#2ca02c" opacity="0.75" r="4"/>
  <circle cx="467.69022814898864" cy="565.3542400263508" fill="#1f77b4" opacity="0.75" r="4"/>
  <circle cx="748.4493345997033" cy="395.0608447178711" fill="#1f77b4" opacity="0.75" r="4"/>
  <circle cx="517.3818812779068" cy="469.22484512690136" fill="#2ca02c" opacity="0.75" r="4"/>
  <circle cx="745.4032131649824" cy="385.83946011558453" fill="#2ca02c" opacity="0.75" r="4"/>
  <circle cx="714.1277447152285" cy="393.2169153268421" fill="#2ca02c" opacity="0.75" r="4"/>
  <circle cx="716.2290245040679" cy="451.10208190940216" fill="#2ca02c" opacity="0.75" r="4"/>
  <circle cx="687.9589412018486" cy="467.6559977117865" fill="#ff7f0e" opacity="0.75" r="4"/>
  <circle cx="691.6751830399659" cy="412.7459109042507" fill="#1f77b4" opacity="0.75" r="4"/>
  <circle cx="578.4187063095981" cy="405.74813648130043" fill="#1f77b4" opacity="0.75" r="4"/>
  <circle cx="706.9514474185252" cy="466.7841534282731" fill="#ff7f0e" opacity="0.75" r="4"/>
  <circle cx="621.4839086319242" cy="369.84623437460743" fill="#2ca02c" opacity="0.75" r="4"/>
  <circle cx="657.9200327132118" cy="313.0105444780826" fill="#ff7f0e" opacity="0.75" r="4"/>
  <circle cx="579.3300712480002" cy="429.2208972830928" fill="#ff7f0e" opacity="0.75" r="4"/>
  <circle cx="555.0678696365487" cy="409.9210310601379" fill="#1f77b4" opacity="0.75" r="4"/>
  <circle cx="643.1526864676937" cy="480.49233263215734" fill="#2ca02c" opacity="0.75" r="4"/>
  <circle cx="552.0627889568295" cy="422.6185237005715" fill="#ff7f0e" opacity="0.75" r="4"/>
  <circle cx="717.7047450032288" cy="415.9428494894578" fill="#2ca02c" opacity="0.75" r="4"/>
  <circle cx="716.8202542358418" cy="419.01154082829436" fill="#2ca02c" opacity="0.75" r="4"/>
  <circle cx="727.5067880187393" cy="376.6373841769829" fill="#ff7f0e" opacity="0.75" r="4"/>
  <circle cx="676.6359696466444" cy="432.53586609501883" fill="#2ca02c" opacity="0.75" r="4"/>
  <circle cx="674.9082320298363" cy="471.0678182603219" fill="#2ca02c" opacity="0.75" r="4"/>
  <circle cx="552.5363799362093" cy="376.51582767944365" fill="#ff7f0e" opacity="0.75" r="4"/>
  <circle cx="705.9368356705977" cy="350.79968314834565" fill="#2ca02c" opacity="0.75" r="4"/>
  <circle cx="569.2265388542429" cy="415.8644837265083" fill="#2ca02c" opacity="0.75" r="4"/>
  <circle cx="668.3063160387286" cy="305.4627006952595" fill="#ff7f0e" opacity="0.75" r="4"/>
  <circle cx="612.3908156729694" cy="490.02471559967677" fill="#2ca02c" opacity="0.75" r="4"/>
  <circle cx="690.0418850571068" cy="401.57209355718123" fill="#1f77b4" opacity="0.75" r="4"/>
  <circle cx="551.1060562351104" cy="437.0575692329095" fill="#ff7f0e" opacity="0.75" r="4"/>
  <circle cx="596.0687599746084" cy="410.54659118870734" fill="#1f77b4" opacity="0.75" r="4"/>
  <circle cx="618.747451609772" cy="346.1447240871205" fill="#2ca02c" opacity="0.75" r="4"/>
  <circle cx="691.6652100432487" cy="329.21759452410413" fill="#1f77b4" opacity="0.75" r="4"/>
  <circle cx="641.8096589016149" cy="454.1067855761134" fill="#1f77b4" opacity="0.75" r="4"/>
  <circle cx="707.5107484368331" cy="341.58550416292263" fill="#ff7f0e" opacity="0.75" r="4"/>
  <circle cx="678.2253879693153" cy="474.2288779451036" fill="#ff7f0e" opacity="0.75" r="4"/>
  <circle cx="627.7173093557028" cy="307.0652768244028" fill="#2ca02c" opacity="0.75" r="4"/>
  <circle cx="528.9154540856792" cy="356.43607446396874" fill="#2ca02c" opacity="0.75" r="4"/>
  <circle cx="793.8473719534576" cy="398.9462419290658" fill="#1f77b4" opacity="0.75" r="4"/>
  <circle cx="600.263901973153" cy="408.78072450558045" fill="#1f77b4" opacity="0.75" r="4"/>
  <circle cx="718.9361498925375" cy="417.7963088038368" fill="#2ca02c" opacity="0.75" r="4"/>
  <circle cx="743.7016397234768" cy="393.98090116182414" fill="#2ca02c" opacity="0.75" r="4"/>
  <circle cx="684.2105136050557" cy="376.3161335726696" fill="#ff7f0e" opacity="0.75" r="4"/>
  <circle cx="864.3160504307206" cy="480.65740157581746" fill="#2ca02c" opacity="0.75" r="4"/>
  <circle cx="656.252812664664" cy="374.0856322125442" fill="#1f77b4" opacity="0.75" r="4"/>
  <circle cx="644.3113000124674" cy="367.28104077923524" fill="#1f77b4" opacity="0.75" r="4"/>
  <circle cx="642.2596833147952" cy="306.5349690725386" fill="#2ca02c" opacity="0.75" r="4"/>
  <circle cx="734.0747993140644" cy="416.7707089416067" fill="#ff7f0e" opacity="0.75" r="4"/>
  <circle cx="614.059565196901" cy="389.25725715638" fill="#1f77b4" opacity="0.75" r="4"/>
  <circle cx="521.4688217622355" cy="364.351888771203" fill="#ff7f0e" opacity="0.75" r="4"/>
  <circle cx="682.582713241217" cy="376.1139402240237" fill="#ff7f0e" opacity="0.75" r="4"/>
  <circle cx="629.648052634989" cy="392.3952153874196" fill="#1f77b4" opacity="0.75" r="4"/>
  <circle cx="673.4277892075266" cy="442.5724724119676" fill="#2ca02c" opacity="0.75" r="4"/>
  <circle cx="794.3534009692049" cy="502.9820482180622" fill="#ff7f0e" opacity="0.75" r="4"/>
  <circle cx="769.811873705458" cy="324.58597687575235" fill="#2ca02c" opacity="0.75" r="4"/>
  <circle cx="681.9363029027406" cy="512.9151481401758" fill="#1f77b4" opacity="0.75" r="4"/>
  <circle cx="666.7662487640488" cy="449.03661816875314" fill="#ff7f0e" opacity="0.75" r="4"/>
  <circle cx="666.7249506927906" cy="467.3978314408055" fill="#1f77b4" opacity="0.75" r="4"/>
  <circle cx="507.89810788046333" cy="590.9678980363999" fill="#1f77b4" opacity="0.75" r="4"/>
  <circle cx="455.5390892603382" cy="532.0698474763067" fill="#1f77b4" opacity="0.75" r="4"/>
  <circle cx="566.8425989615853" cy="571.7855248837731" fill="#ff7f0e" opacity="0.75" r="4"/>
  <circle cx="486.2191954176663" cy="635.4535982728519" fill="#ff7f0e" opacity="0.75" r="4"/>
  <circle cx="428.59155676555156" cy="555.0370209748496" fill="#1f77b4" opacity="0.75" r="4"/>
  <circle cx="525.8855772327748" cy="566.1202364977504" fill="#ff7f0e" opacity="0.75" r="4"/>
  <circle cx="569.3330992105243" cy="532.0536389098866" fill="#1f77b4" opacity="0.75" r="4"/>
  <circle cx="468.9400449299911" cy="581.0072733183143" fill="#ff7f0e" opacity="0.75" r="4"/>
  <circle cx="552.2215040644098" cy="554.2103919970109" fill="#1f77b4" opacity="0.75" r="4"/>
  <circle cx="451.6708319733476" cy="617.0741157711216" fill="#2ca02c" opacity="0.75" r="4"/>
  <circle cx="537.1159953673582" cy="556.1377607354273" fill="#1f77b4" opacity="0.75" r="4"/>
  <circle cx="586.3967946765611" cy="588.2537032479102" fill="#2ca02c" opacity="0.75" r="4"/>
  <circle cx="499.0324796542918" cy="526.6045544603664" fill="#ff7f0e" opacity="0.75" r="4"/>
  <circle cx="495.5112536923457" cy="620.5453852338271" fill="#2ca02c" opacity="0.75" r="4"/>
  <circle cx="374.73563885348767" cy="536.787791951369" fill="#ff7f0e" opacity="0.75" r="4"/>
  <circle cx="584.2507206536543" cy="564.1758550879174" fill="#ff7f0e" opacity="0.75" r="4"/>
  <circle cx="482.04260481697867" cy="597.6817072622238" fill="#1f77b4" opacity="0.75" r="4"/>
  <circle cx="560.9544132259789" cy="590.2212318477887" fill="#ff7f0e" opacity="0.75" r="4"/>
  <circle cx="569.0694896141686" cy="572.3845058103859" fill="#ff7f0e" opacity="0.75" r="4"/>
  <circle cx="565.3482948842098" cy="612.3543613291503" fill="#2ca02c" opacity="0.75" r="4"/>
  <circle cx="555.1016811941647" cy="556.884813480568" fill="#2ca02c" opacity="0.75" r="4"/>
  <circle cx="592.2603688410732" cy="550.4005943536863" fill="#1f77b4" opacity="0.75" r="4"/>
  <circle cx="602.461129907796" cy="619.0312223355752" fill="#1f77b4" opacity="0.75" r="4"/>
  <circle cx="477.7510051100976" cy="569.5650130215222" fill="#ff7f0e" opacity="0.75" r="4"/>
  <circle cx="512.2504686970062" cy="608.9126459155727" fill="#ff7f0e" opacity="0.75" r="4"/>
  <circle cx="538.7811162871851" cy="534.7053196853055" fill="#1f77b4" opacity="0.75" r="4"/>
  <circle cx="539.7498530585779" cy="622.5292528141861" fill="#1f77b4" opacity="0.75" r="4"/>
  <circle cx="515.8009707839818" cy="593.4532332508334" fill="#1f77b4" opacity="0.75" r="4"/>
  <circle cx="477.28441753348477" cy="604.1928930157035" fill="#ff7f0e" opacity="0.75" r="4"/>
  <circle cx="511.0382009681404" cy="606.1402778475294" fill="#1f77b4" opacity="0.75" r="4"/>
  <circle cx="568.8485974472278" cy="601.5508359435158" fill="#2ca02c" opacity="0.75" r="4"/>
  <circle cx="433.3720626019043" cy="592.480635966982" fill="#1f77b4" opacity="0.75" r="4"/>
  <circle cx="528.6257433775709" cy="628.7958965552498" fill="#2ca02c" opacity="0.75" r="4"/>
  <circle cx="552.2001864468928" cy="610.2348149237986" fill="#ff7f0e" opacity="0.75" r="4"/>
  <circle cx="514.2285062731933" cy="482.46981556842564" fill="#1f77b4" opacity="0.75" r="4"/>
  <circle cx="468.66612652115276" cy="593.4665843805262" fill="#ff7f0e" opacity="0.75" r="4"/>
  <circle cx="579.1913355767198" cy="477.97441520871246" fill="#ff7f0e" opacity="0.75" r="4"/>
  <circle cx="634.4005979048037" cy="662.8126928683745" fill="#1f77b4" opacity="0.75" r="4"/>
  <circle cx="442.0034025582735" cy="565.1363128769078" fill="#1f77b4" opacity="0.75" r="4"/>
  <circle cx="624.7597269850273" cy="566.3271762188817" fill="#ff7f0e" opacity="0.75" r="4"/>
  <circle cx="492.24712549340484" cy="610.249182746914" fill="#1f77b4" opacity="0.75" r="4"/>
  <circle cx="529.7993054566457" cy="564.6478192275999" fill="#1f77b4" opacity="0.75" r="4"/>
  <circle cx="484.98518089039237" cy="539.814916573045" fill="#2ca02c" opacity="0.75" r="4"/>
  <circle cx="525.841824548196" cy="519.229264684672" fill="#1f77b4" opacity="0.75" r="4"/>
  <circle cx="601.6242812063088" cy="559.9793005599502" fill="#2ca02c" opacity="0.75" r="4"/>
  <circle cx="600.5907428161468" cy="597.0127498721513" fill="#1f77b4" opacity="0.75" r="4"/>
  <circle cx="534.4615872570619" cy="545.861274663619" fill="#1f77b4" opacity="0.75" r="4"/>
  <circle cx="634.6186528834739" cy="595.9594847411431" fill="#ff7f0e" opacity="0.75" r="4"/>
  <circle cx="448.2441065579613" cy="645.4979888124218" fill="#1f77b4" opacity="0.75" r="4"/>
  <circle cx="544.2512378215881" cy="572.9981332132061" fill="#2ca02c" opacity="0.75" r="4"/>
  <circle cx="454.25227318797465" cy="582.6790044002335" fill="#ff7f0e" opacity="0.75" r="4"/>
  <circle cx="535.7125861389115" cy="604.8102012992134" fill="#ff7f0e" opacity="0.75" r="4"/>
  <circle cx="509.91280875736715" cy="612.6681842789541" fill="#1f77b4" opacity="0.75" r="4"/>
  <circle cx="485.63260651067213" cy="577.9456915355756" fill="#1f77b4" opacity="0.75" r="4"/>
  <circle cx="594.1962224608342" cy="578.5178628942713" fill="#2ca02c" opacity="0.75" r="4"/>
  <circle cx="914.0" cy="244.0" fill="#d62728" opacity="0.9" r="7"/>
  <text fill="#333" font-family="Arial, Helvetica, sans-serif" font-size="16" text-anchor="middle" x="570.0" y="765">Dimension 1</text>
  <text fill="#333" font-family="Arial, Helvetica, sans-serif" font-size="16" text-anchor="middle" transform="rotate(-90,85,440.0)" x="85" y="440.0">Dimension 2</text>
  <text fill="#999" font-family="Arial, Helvetica, sans-serif" font-size="12" text-anchor="end" x="1140" y="776">Auto-generated SVG</text>
</svg>
