<?xml version="1.0" encoding="utf-8" ?>
<svg xmlns="http://www.w3.org/2000/svg" xmlns:ev="http://www.w3.org/2001/xml-events" xmlns:xlink="http://www.w3.org/1999/xlink" baseProfile="full" height="800" version="1.1" width="1200">
  <defs>
    <marker id="id55" markerHeight="7" markerWidth="7" orient="auto" refX="6" refY="3">
      <path d="M0,0 L0,6 L6,3 z" fill="#333333"/>
    </marker>
  </defs>
  <rect fill="white" height="800" width="1200" x="0" y="0"/>
  <text fill="#111" font-family="Arial, Helvetica, sans-serif" font-size="28" font-weight="700" x="60" y="50">Figure 7.1: Self-Attention Mechanism (Five-Panel)</text>
  <text fill="#444" font-family="Arial, Helvetica, sans-serif" font-size="16" x="60" y="78">Panel E</text>
  <line stroke="#333" stroke-width="2" x1="140" x2="1000" y1="720" y2="720"/>
  <line stroke="#333" stroke-width="2" x1="140" x2="140" y1="160" y2="720"/>
  <circle cx="510.67717866116504" cy="452.9975383196137" fill="#2ca02c" opacity="0.75" r="4"/>
  <circle cx="498.63765611242025" cy="583.7834796508452" fill="#ff7f0e" opacity="0.75" r="4"/>
  <circle cx="373.32092189191343" cy="517.2337127000724" fill="#2ca02c" opacity="0.75" r="4"/>
  <circle cx="419.5591032900213" cy="537.9528367271814" fill="#ff7f0e" opacity="0.75" r="4"/>
  <circle cx="286.0150735539687" cy="524.0487920800717" fill="#1f77b4" opacity="0.75" r="4"/>
  <circle cx="417.1219836679215" cy="489.3612726555537" fill="#ff7f0e" opacity="0.75" r="4"/>
  <circle cx="322.17946902310376" cy="516.1579198761767" fill="#ff7f0e" opacity="0.75" r="4"/>
  <circle cx="478.21228222024104" cy="511.93778436898356" fill="#1f77b4" opacity="0.75" r="4"/>
  <circle cx="372.03634652586555" cy="567.5688036015354" fill="#ff7f0e" opacity="0.75" r="4"/>
  <circle cx="438.70846453391425" cy="532.5525147435851" fill="#ff7f0e" opacity="0.75" r="4"/>
  <circle cx="286.91465974316947" cy="521.7291802316871" fill="#ff7f0e" opacity="0.75" r="4"/>
  <circle cx="435.5664207455948" cy="493.88438198772343" fill="#2ca02c" opacity="0.75" r="4"/>
  <circle cx="489.7399288893061" cy="491.9960600891108" fill="#1f77b4" opacity="0.75" r="4"/>
  <circle cx="369.9585322873853" cy="469.6324166688133" fill="#2ca02c" opacity="0.75" r="4"/>
  <circle cx="326.9720918952312" cy="557.0000764621204" fill="#ff7f0e" opacity="0.75" r="4"/>
  <circle cx="609.3469763338501" cy="500.20242284961245" fill="#ff7f0e" opacity="0.75" r="4"/>
  <circle cx="388.3873680002429" cy="500.5024587414519" fill="#2ca02c" opacity="0.75" r="4"/>
  <circle cx="341.9193663794208" cy="516.3365617382399" fill="#1f77b4" opacity="0.75" r="4"/>
  <circle cx="301.805590823982" cy="425.3242339832633" fill="#ff7f0e" opacity="0.75" r="4"/>
  <circle cx="322.6756500325383" cy="562.465009814086" fill="#ff7f0e" opacity="0.75" r="4"/>
  <circle cx="533.2504768096375" cy="542.0466256757197" fill="#1f77b4" opacity="0.75" r="4"/>
  <circle cx="585.4881211430622" cy="527.3243470154796" fill="#1f77b4" opacity="0.75" r="4"/>
  <circle cx="356.35290595802053" cy="491.13420132636" fill="#ff7f0e" opacity="0.75" r="4"/>
  <circle cx="530.6600864819573" cy="464.9778687999782" fill="#ff7f0e" opacity="0.75" r="4"/>
  <circle cx="366.7706082665426" cy="484.4011470154946" fill="#ff7f0e" opacity="0.75" r="4"/>
  <circle cx="427.5479663668433" cy="605.5874406640833" fill="#ff7f0e" opacity="0.75" r="4"/>
  <circle cx="313.90287159594766" cy="484.523059937086" fill="#1f77b4" opacity="0.75" r="4"/>
  <circle cx="433.79818249511527" cy="586.4810293501935" fill="#ff7f0e" opacity="0.75" r="4"/>
  <circle cx="334.744760171429" cy="549.0131555053972" fill="#1f77b4" opacity="0.75" r="4"/>
  <circle cx="355.4461669463079" cy="538.1380959037847" fill="#2ca02c" opacity="0.75" r="4"/>
  <circle cx="393.1795212241419" cy="450.25262748613056" fill="#2ca02c" opacity="0.75" r="4"/>
  <circle cx="231.62834930931325" cy="432.6489299481547" fill="#ff7f0e" opacity="0.75" r="4"/>
  <circle cx="397.14954582854506" cy="531.3598357404887" fill="#ff7f0e" opacity="0.75" r="4"/>
  <circle cx="448.8031617169253" cy="533.5230631879303" fill="#2ca02c" opacity="0.75" r="4"/>
  <circle cx="443.0662055407873" cy="582.1013805685665" fill="#ff7f0e" opacity="0.75" r="4"/>
  <circle cx="332.7200485660177" cy="459.40645395260464" fill="#1f77b4" opacity="0.75" r="4"/>
  <circle cx="390.0553625577522" cy="511.80779866098834" fill="#1f77b4" opacity="0.75" r="4"/>
  <circle cx="504.59223633894266" cy="507.6048885415986" fill="#1f77b4" opacity="0.75" r="4"/>
  <circle cx="351.38256682510286" cy="406.12216517095555" fill="#ff7f0e" opacity="0.75" r="4"/>
  <circle cx="375.61026981839575" cy="483.5360399823832" fill="#ff7f0e" opacity="0.75" r="4"/>
  <circle cx="355.21236917246756" cy="472.286463299522" fill="#2ca02c" opacity="0.75" r="4"/>
  <circle cx="379.66498449631797" cy="553.3892892426022" fill="#ff7f0e" opacity="0.75" r="4"/>
  <circle cx="342.39699230804206" cy="556.3238888629334" fill="#ff7f0e" opacity="0.75" r="4"/>
  <circle cx="329.4557963062135" cy="561.4700604499064" fill="#1f77b4" opacity="0.75" r="4"/>
  <circle cx="351.67368910948466" cy="559.528690615788" fill="#2ca02c" opacity="0.75" r="4"/>
  <circle cx="425.35072800953685" cy="500.5583726438289" fill="#1f77b4" opacity="0.75" r="4"/>
  <circle cx="570.7214000811956" cy="547.5008305038011" fill="#2ca02c" opacity="0.75" r="4"/>
  <circle cx="436.96746054228237" cy="527.3050572647071" fill="#2ca02c" opacity="0.75" r="4"/>
  <circle cx="431.01789734814895" cy="651.8906764952499" fill="#1f77b4" opacity="0.75" r="4"/>
  <circle cx="365.89934417455424" cy="491.3419565419364" fill="#2ca02c" opacity="0.75" r="4"/>
  <circle cx="483.5310827681732" cy="381.6631092852446" fill="#ff7f0e" opacity="0.75" r="4"/>
  <circle cx="560.6746516607288" cy="523.648373528433" fill="#2ca02c" opacity="0.75" r="4"/>
  <circle cx="276.8006061892083" cy="490.30161216275485" fill="#2ca02c" opacity="0.75" r="4"/>
  <circle cx="396.41280183383526" cy="466.14849517932186" fill="#1f77b4" opacity="0.75" r="4"/>
  <circle cx="392.700315451603" cy="528.0931621283806" fill="#1f77b4" opacity="0.75" r="4"/>
  <circle cx="666.8221704211711" cy="453.2097724000103" fill="#2ca02c" opacity="0.75" r="4"/>
  <circle cx="569.4214609719434" cy="403.1701649745086" fill="#2ca02c" opacity="0.75" r="4"/>
  <circle cx="559.8484147473245" cy="486.78590369120155" fill="#ff7f0e" opacity="0.75" r="4"/>
  <circle cx="631.1552963755653" cy="381.5361695421017" fill="#2ca02c" opacity="0.75" r="4"/>
  <circle cx="530.0611834799679" cy="409.3201529621589" fill="#1f77b4" opacity="0.75" r="4"/>
  <circle cx="582.8661908779445" cy="372.84502026672055" fill="#1f77b4" opacity="0.75" r="4"/>
  <circle cx="605.926258790303" cy="470.209116684337" fill="#ff7f0e" opacity="0.75" r="4"/>
  <circle cx="628.5593361973836" cy="317.5765952749688" fill="#ff7f0e" opacity="0.75" r="4"/>
  <circle cx="772.1328282915565" cy="381.4820991988224" fill="#1f77b4" opacity="0.75" r="4"/>
  <circle cx="599.2673933648477" cy="519.7039390257105" fill="#1f77b4" opacity="0.75" r="4"/>
  <circle cx="580.9010311499936" cy="368.7629828880213" fill="#2ca02c" opacity="0.75" r="4"/>
  <circle cx="591.9218767921873" cy="345.97797115379166" fill="#ff7f0e" opacity="0.75" r="4"/>
  <circle cx="600.1550156387536" cy="424.2935855245995" fill="#1f77b4" opacity="0.75" r="4"/>
  <circle cx="664.487434181919" cy="375.37667086703857" fill="#ff7f0e" opacity="0.75" r="4"/>
  <circle cx="622.5263983653151" cy="503.88821426784216" fill="#1f77b4" opacity="0.75" r="4"/>
  <circle cx="734.2351824823949" cy="283.2993514508663" fill="#1f77b4" opacity="0.75" r="4"/>
  <circle cx="656.2844651607752" cy="428.65957349127416" fill="#2ca02c" opacity="0.75" r="4"/>
  <circle cx="607.7491017057469" cy="361.5930526135265" fill="#1f77b4" opacity="0.75" r="4"/>
  <circle cx="722.5604510047626" cy="433.65704655298015" fill="#ff7f0e" opacity="0.75" r="4"/>
  <circle cx="741.2864002110177" cy="397.29923755067614" fill="#2ca02c" opacity="0.75" r="4"/>
  <circle cx="642.4287885209383" cy="356.7145551372482" fill="#2ca02c" opacity="0.75" r="4"/>
  <circle cx="690.4632665194235" cy="408.8262443794604" fill="#1f77b4" opacity="0.75" r="4"/>
  <circle cx="573.252345255504" cy="339.38117857913227" fill="#ff7f0e" opacity="0.75" r="4"/>
  <circle cx="566.6462221250247" cy="466.24119717672806" fill="#2ca02c" opacity="0.75" r="4"/>
  <circle cx="723.2903174545698" cy="380.9133098989828" fill="#ff7f0e" opacity="0.75" r="4"/>
  <circle cx="718.0482763644399" cy="434.95590252692114" fill="#ff7f0e" opacity="0.75" r="4"/>
  <circle cx="695.9105863276835" cy="474.20100324837097" fill="#1f77b4" opacity="0.75" r="4"/>
  <circle cx="844.5283142591089" cy="364.087982717103" fill="#2ca02c" opacity="0.75" r="4"/>
  <circle cx="620.1790598270863" cy="460.2158249798803" fill="#ff7f0e" opacity="0.75" r="4"/>
  <circle cx="795.982637029062" cy="481.9947850331214" fill="#ff7f0e" opacity="0.75" r="4"/>
  <circle cx="675.3713661000035" cy="416.8113040971345" fill="#1f77b4" opacity="0.75" r="4"/>
  <circle cx="578.0048555276687" cy="428.7523815430114" fill="#ff7f0e" opacity="0.75" r="4"/>
  <circle cx="731.6840062236515" cy="351.7353326583681" fill="#1f77b4" opacity="0.75" r="4"/>
  <circle cx="714.5292110655765" cy="539.4041547621727" fill="#1f77b4" opacity="0.75" r="4"/>
  <circle cx="695.1567616103231" cy="486.0866924928438" fill="#ff7f0e" opacity="0.75" r="4"/>
  <circle cx="651.9759932054654" cy="558.6371539815711" fill="#2ca02c" opacity="0.75" r="4"/>
  <circle cx="557.0860387629696" cy="460.495261434139" fill="#2ca02c" opacity="0.75" r="4"/>
  <circle cx="658.1787338761375" cy="430.34316902574403" fill="#2ca02c" opacity="0.75" r="4"/>
  <circle cx="583.0368049314994" cy="465.9514934773288" fill="#2ca02c" opacity="0.75" r="4"/>
  <circle cx="604.8319482102715" cy="540.0213322135546" fill="#2ca02c" opacity="0.75" r="4"/>
  <circle cx="567.4604631911103" cy="453.09772755550114" fill="#2ca02c" opacity="0.75" r="4"/>
  <circle cx="769.0370175583812" cy="367.63942756888866" fill="#1f77b4" opacity="0.75" r="4"/>
  <circle cx="663.3738643443902" cy="460.4242069757952" fill="#1f77b4" opacity="0.75" r="4"/>
  <circle cx="802.6458495828682" cy="437.22467921825444" fill="#2ca02c" opacity="0.75" r="4"/>
  <circle cx="563.0852189969432" cy="361.0146780937705" fill="#1f77b4" opacity="0.75" r="4"/>
  <circle cx="595.3136441665846" cy="396.0702614240963" fill="#2ca02c" opacity="0.75" r="4"/>
  <circle cx="583.7977261227218" cy="468.2388288936323" fill="#1f77b4" opacity="0.75" r="4"/>
  <circle cx="682.5229484886694" cy="397.9819938311059" fill="#2ca02c" opacity="0.75" r="4"/>
  <circle cx="668.2061599763471" cy="381.5466706391112" fill="#ff7f0e" opacity="0.75" r="4"/>
  <circle cx="489.7950084475314" cy="451.08454878013686" fill="#2ca02c" opacity="0.75" r="4"/>
  <circle cx="634.3509482602533" cy="414.18296426769354" fill="#2ca02c" opacity="0.75" r="4"/>
  <circle cx="729.02842765722" cy="417.41326839494263" fill="#1f77b4" opacity="0.75" r="4"/>
  <circle cx="683.6431725138478" cy="416.0694939269395" fill="#ff7f0e" opacity="0.75" r="4"/>
  <circle cx="662.0748995496671" cy="315.0387417631956" fill="#ff7f0e" opacity="0.75" r="4"/>
  <circle cx="659.616884418396" cy="393.08558461309275" fill="#2ca02c" opacity="0.75" r="4"/>
  <circle cx="490.0307966419981" cy="613.8855213689643" fill="#2ca02c" opacity="0.75" r="4"/>
  <circle cx="604.097183362092" cy="621.3195690851164" fill="#2ca02c" opacity="0.75" r="4"/>
  <circle cx="595.0557684713374" cy="515.2223008158109" fill="#2ca02c" opacity="0.75" r="4"/>
  <circle cx="520.5916576313728" cy="582.5120891407804" fill="#ff7f0e" opacity="0.75" r="4"/>
  <circle cx="529.4254914275473" cy="603.3897027800931" fill="#ff7f0e" opacity="0.75" r="4"/>
  <circle cx="540.6266211406239" cy="630.6219897626182" fill="#ff7f0e" opacity="0.75" r="4"/>
  <circle cx="444.71773993151334" cy="619.3906047289607" fill="#ff7f0e" opacity="0.75" r="4"/>
  <circle cx="557.1770029341469" cy="628.5918047079005" fill="#2ca02c" opacity="0.75" r="4"/>
  <circle cx="423.5111189590669" cy="542.5017771560622" fill="#ff7f0e" opacity="0.75" r="4"/>
  <circle cx="431.8001207406135" cy="602.1763643792743" fill="#ff7f0e" opacity="0.75" r="4"/>
  <circle cx="477.9134577278465" cy="607.5685881586771" fill="#ff7f0e" opacity="0.75" r="4"/>
  <circle cx="366.2076417542056" cy="554.5230909104234" fill="#1f77b4" opacity="0.75" r="4"/>
  <circle cx="489.7339360049884" cy="691.8121864740982" fill="#2ca02c" opacity="0.75" r="4"/>
  <circle cx="536.054537304205" cy="526.5590694140767" fill="#2ca02c" opacity="0.75" r="4"/>
  <circle cx="547.6436568911173" cy="613.7358685782782" fill="#1f77b4" opacity="0.75" r="4"/>
  <circle cx="594.5652354891863" cy="536.0864104427931" fill="#2ca02c" opacity="0.75" r="4"/>
  <circle cx="451.6934478999256" cy="540.9532500673042" fill="#2ca02c" opacity="0.75" r="4"/>
  <circle cx="515.3784926159733" cy="597.0522934683063" fill="#1f77b4" opacity="0.75" r="4"/>
  <circle cx="564.5866832566267" cy="564.8258464018173" fill="#1f77b4" opacity="0.75" r="4"/>
  <circle cx="484.5627174403604" cy="585.775846269694" fill="#ff7f0e" opacity="0.75" r="4"/>
  <circle cx="541.8661399818639" cy="584.9355583509188" fill="#1f77b4" opacity="0.75" r="4"/>
  <circle cx="615.2870203997919" cy="592.281113199123" fill="#1f77b4" opacity="0.75" r="4"/>
  <circle cx="599.4422673838835" cy="623.010624538611" fill="#ff7f0e" opacity="0.75" r="4"/>
  <circle cx="567.0921414340562" cy="651.803145498395" fill="#ff7f0e" opacity="0.75" r="4"/>
  <circle cx="547.9932404762693" cy="580.5075109326029" fill="#2ca02c" opacity="0.75" r="4"/>
  <circle cx="679.7949883714133" cy="591.2636380653478" fill="#1f77b4" opacity="0.75" r="4"/>
  <circle cx="630.3678552073404" cy="507.1053545053137" fill="#2ca02c" opacity="0.75" r="4"/>
  <circle cx="523.3568983005242" cy="554.3319244507309" fill="#ff7f0e" opacity="0.75" r="4"/>
  <circle cx="521.5658651461906" cy="602.6825989227677" fill="#1f77b4" opacity="0.75" r="4"/>
  <circle cx="555.0565523175394" cy="563.6488857387726" fill="#ff7f0e" opacity="0.75" r="4"/>
  <circle cx="472.7791817001432" cy="574.2577220650903" fill="#1f77b4" opacity="0.75" r="4"/>
  <circle cx="509.9999922347039" cy="544.3011844670234" fill="#1f77b4" opacity="0.75" r="4"/>
  <circle cx="524.3963488053039" cy="595.1830953898889" fill="#2ca02c" opacity="0.75" r="4"/>
  <circle cx="530.0074182065409" cy="615.0702288974766" fill="#1f77b4" opacity="0.75" r="4"/>
  <circle cx="497.4239948665105" cy="619.9164103326452" fill="#ff7f0e" opacity="0.75" r="4"/>
  <circle cx="623.9623203727444" cy="556.2704831670202" fill="#ff7f0e" opacity="0.75" r="4"/>
  <circle cx="450.7701775092583" cy="555.6462836245844" fill="#2ca02c" opacity="0.75" r="4"/>
  <circle cx="522.672376347972" cy="523.6921570209176" fill="#1f77b4" opacity="0.75" r="4"/>
  <circle cx="525.7285206886835" cy="641.1716265999283" fill="#ff7f0e" opacity="0.75" r="4"/>
  <circle cx="540.5299468545012" cy="586.6743562764877" fill="#2ca02c" opacity="0.75" r="4"/>
  <circle cx="512.4188161499559" cy="572.9744263314456" fill="#1f77b4" opacity="0.75" r="4"/>
  <circle cx="550.1052739412966" cy="594.168127572328" fill="#ff7f0e" opacity="0.75" r="4"/>
  <circle cx="429.4861770802987" cy="618.670142942871" fill="#ff7f0e" opacity="0.75" r="4"/>
  <circle cx="416.79069937673125" cy="592.1705172441461" fill="#2ca02c" opacity="0.75" r="4"/>
  <circle cx="544.5176435022825" cy="597.1272713074916" fill="#2ca02c" opacity="0.75" r="4"/>
  <circle cx="535.7928825659335" cy="598.5135840824468" fill="#2ca02c" opacity="0.75" r="4"/>
  <circle cx="594.9677282131472" cy="591.2283343982258" fill="#ff7f0e" opacity="0.75" r="4"/>
  <circle cx="497.5311254716186" cy="524.7569438487697" fill="#2ca02c" opacity="0.75" r="4"/>
  <circle cx="467.0355676038722" cy="571.6634680732013" fill="#1f77b4" opacity="0.75" r="4"/>
  <circle cx="587.6263575033561" cy="581.424576973167" fill="#1f77b4" opacity="0.75" r="4"/>
  <circle cx="537.9254556376954" cy="620.1360825961915" fill="#ff7f0e" opacity="0.75" r="4"/>
  <circle cx="537.3409655221642" cy="646.9548299653127" fill="#2ca02c" opacity="0.75" r="4"/>
  <circle cx="483.23566199980576" cy="616.8506082360416" fill="#2ca02c" opacity="0.75" r="4"/>
  <circle cx="527.5726674132661" cy="622.0940224189926" fill="#2ca02c" opacity="0.75" r="4"/>
  <circle cx="433.7103868016031" cy="517.7115831668821" fill="#2ca02c" opacity="0.75" r="4"/>
  <circle cx="914.0" cy="244.0" fill="#d62728" opacity="0.9" r="7"/>
  <text fill="#333" font-family="Arial, Helvetica, sans-serif" font-size="16" text-anchor="middle" x="570.0" y="765">Dimension 1</text>
  <text fill="#333" font-family="Arial, Helvetica, sans-serif" font-size="16" text-anchor="middle" transform="rotate(-90,85,440.0)" x="85" y="440.0">Dimension 2</text>
  <text fill="#999" font-family="Arial, Helvetica, sans-serif" font-size="12" text-anchor="end" x="1140" y="776">Auto-generated SVG</text>
</svg>
