<?xml version="1.0" encoding="utf-8" ?>
<svg xmlns="http://www.w3.org/2000/svg" xmlns:ev="http://www.w3.org/2001/xml-events" xmlns:xlink="http://www.w3.org/1999/xlink" baseProfile="full" height="800" version="1.1" width="1200">
  <defs>
    <marker id="id291" markerHeight="7" markerWidth="7" orient="auto" refX="6" refY="3">
      <path d="M0,0 L0,6 L6,3 z" fill="#333333"/>
    </marker>
  </defs>
  <rect fill="white" height="800" width="1200" x="0" y="0"/>
  <text fill="#111" font-family="Arial, Helvetica, sans-serif" font-size="28" font-weight="700" x="60" y="50">Figure 2: Calibration Diagrams</text>
  <text fill="#444" font-family="Arial, Helvetica, sans-serif" font-size="16" x="60" y="78">Panel A</text>
  <line stroke="#333" stroke-width="2" x1="140" x2="1000" y1="720" y2="720"/>
  <line stroke="#333" stroke-width="2" x1="140" x2="140" y1="160" y2="720"/>
  <circle cx="355.22386765236473" cy="532.5825942046428" fill="#2ca02c" opacity="0.75" r="4"/>
  <circle cx="444.17561500536704" cy="430.14770343626213" fill="#ff7f0e" opacity="0.75" r="4"/>
  <circle cx="405.6925590962568" cy="620.2063797629785" fill="#1f77b4" opacity="0.75" r="4"/>
  <circle cx="408.23439749264685" cy="620.9499636429152" fill="#2ca02c" opacity="0.75" r="4"/>
  <circle cx="330.14264897281237" cy="492.6506086638765" fill="#ff7f0e" opacity="0.75" r="4"/>
  <circle cx="423.1990435623917" cy="561.4844271926971" fill="#2ca02c" opacity="0.75" r="4"/>
  <circle cx="254.74152166338212" cy="498.6073291259734" fill="#1f77b4" opacity="0.75" r="4"/>
  <circle cx="333.4390056063315" cy="521.3119937707556" fill="#ff7f0e" opacity="0.75" r="4"/>
  <circle cx="379.6373470635398" cy="544.753040120446" fill="#2ca02c" opacity="0.75" r="4"/>
  <circle cx="327.71544539225016" cy="581.6757749906402" fill="#1f77b4" opacity="0.75" r="4"/>
  <circle cx="371.63448464583973" cy="506.63944717957554" fill="#ff7f0e" opacity="0.75" r="4"/>
  <circle cx="431.6981272554484" cy="559.3642264094021" fill="#ff7f0e" opacity="0.75" r="4"/>
  <circle cx="345.0938926385512" cy="546.942430950179" fill="#1f77b4" opacity="0.75" r="4"/>
  <circle cx="424.32462317818886" cy="510.05765462044667" fill="#2ca02c" opacity="0.75" r="4"/>
  <circle cx="527.1447996929583" cy="501.8108274162197" fill="#2ca02c" opacity="0.75" r="4"/>
  <circle cx="446.30020826230697" cy="556.1443568709947" fill="#2ca02c" opacity="0.75" r="4"/>
  <circle cx="452.6300602327821" cy="489.298861522323" fill="#ff7f0e" opacity="0.75" r="4"/>
  <circle cx="455.79477668808147" cy="437.40517951033604" fill="#2ca02c" opacity="0.75" r="4"/>
  <circle cx="382.4449705393447" cy="484.75494895891865" fill="#ff7f0e" opacity="0.75" r="4"/>
  <circle cx="441.653999062486" cy="522.4367920193943" fill="#2ca02c" opacity="0.75" r="4"/>
  <circle cx="499.1062835044484" cy="549.2417117219195" fill="#ff7f0e" opacity="0.75" r="4"/>
  <circle cx="351.9447764324089" cy="497.4735312923153" fill="#ff7f0e" opacity="0.75" r="4"/>
  <circle cx="358.5550304963298" cy="497.2674165033046" fill="#2ca02c" opacity="0.75" r="4"/>
  <circle cx="242.76808146626541" cy="491.44652373895775" fill="#2ca02c" opacity="0.75" r="4"/>
  <circle cx="501.9103326875105" cy="518.7810908043459" fill="#2ca02c" opacity="0.75" r="4"/>
  <circle cx="419.89574922142236" cy="601.5277394566137" fill="#2ca02c" opacity="0.75" r="4"/>
  <circle cx="401.8276481291406" cy="560.4508739481558" fill="#2ca02c" opacity="0.75" r="4"/>
  <circle cx="388.1370098252288" cy="546.4370347937934" fill="#2ca02c" opacity="0.75" r="4"/>
  <circle cx="439.30550321233244" cy="564.0350714052518" fill="#ff7f0e" opacity="0.75" r="4"/>
  <circle cx="256.4569463428519" cy="584.537157836294" fill="#2ca02c" opacity="0.75" r="4"/>
  <circle cx="372.6206940373626" cy="568.3405546103251" fill="#1f77b4" opacity="0.75" r="4"/>
  <circle cx="354.70397396603187" cy="585.4957977983777" fill="#1f77b4" opacity="0.75" r="4"/>
  <circle cx="566.8532466674875" cy="528.7585845231596" fill="#ff7f0e" opacity="0.75" r="4"/>
  <circle cx="512.1633214742112" cy="526.7802631177874" fill="#ff7f0e" opacity="0.75" r="4"/>
  <circle cx="504.9627293982697" cy="562.0084287352463" fill="#2ca02c" opacity="0.75" r="4"/>
  <circle cx="453.7352840713159" cy="475.5303409564795" fill="#1f77b4" opacity="0.75" r="4"/>
  <circle cx="419.1243096761548" cy="525.1720903708159" fill="#2ca02c" opacity="0.75" r="4"/>
  <circle cx="412.915460516731" cy="566.7423785406534" fill="#1f77b4" opacity="0.75" r="4"/>
  <circle cx="394.64027017344563" cy="534.0651178846407" fill="#1f77b4" opacity="0.75" r="4"/>
  <circle cx="272.68431567839355" cy="511.95341026268943" fill="#1f77b4" opacity="0.75" r="4"/>
  <circle cx="407.6829563348239" cy="575.27113531621" fill="#2ca02c" opacity="0.75" r="4"/>
  <circle cx="359.5814494137257" cy="558.7816502021215" fill="#2ca02c" opacity="0.75" r="4"/>
  <circle cx="515.1393636291406" cy="502.54330073357875" fill="#1f77b4" opacity="0.75" r="4"/>
  <circle cx="481.07066909038184" cy="486.64741030429286" fill="#1f77b4" opacity="0.75" r="4"/>
  <circle cx="304.9936877130799" cy="418.74024496290195" fill="#2ca02c" opacity="0.75" r="4"/>
  <circle cx="450.6685437695816" cy="496.84362366409766" fill="#2ca02c" opacity="0.75" r="4"/>
  <circle cx="430.5692381117816" cy="494.44220279230836" fill="#1f77b4" opacity="0.75" r="4"/>
  <circle cx="353.2448708649156" cy="559.2935576704401" fill="#ff7f0e" opacity="0.75" r="4"/>
  <circle cx="334.41898552589544" cy="515.4152640266061" fill="#ff7f0e" opacity="0.75" r="4"/>
  <circle cx="489.0009906695641" cy="524.0466750189053" fill="#ff7f0e" opacity="0.75" r="4"/>
  <circle cx="422.193247252523" cy="448.0945016362191" fill="#ff7f0e" opacity="0.75" r="4"/>
  <circle cx="311.23170728049035" cy="526.4918992240205" fill="#ff7f0e" opacity="0.75" r="4"/>
  <circle cx="336.11653775264085" cy="569.0641601523641" fill="#ff7f0e" opacity="0.75" r="4"/>
  <circle cx="403.6710614928062" cy="522.5411457995676" fill="#1f77b4" opacity="0.75" r="4"/>
  <circle cx="468.6990602189557" cy="567.6105686454073" fill="#ff7f0e" opacity="0.75" r="4"/>
  <circle cx="742.57760543443" cy="352.6942679672129" fill="#1f77b4" opacity="0.75" r="4"/>
  <circle cx="537.012118510505" cy="449.14032259440484" fill="#1f77b4" opacity="0.75" r="4"/>
  <circle cx="690.6015982621793" cy="337.98219778811904" fill="#1f77b4" opacity="0.75" r="4"/>
  <circle cx="684.0980472065148" cy="367.2086496626303" fill="#1f77b4" opacity="0.75" r="4"/>
  <circle cx="749.1875170718256" cy="405.80072555141226" fill="#1f77b4" opacity="0.75" r="4"/>
  <circle cx="707.1693320548989" cy="357.94987723371446" fill="#2ca02c" opacity="0.75" r="4"/>
  <circle cx="587.8802018495337" cy="404.8550562455297" fill="#1f77b4" opacity="0.75" r="4"/>
  <circle cx="636.4827826622654" cy="347.3027859295068" fill="#ff7f0e" opacity="0.75" r="4"/>
  <circle cx="743.648009755864" cy="414.1103860683519" fill="#2ca02c" opacity="0.75" r="4"/>
  <circle cx="670.0728333717965" cy="409.9515790509503" fill="#2ca02c" opacity="0.75" r="4"/>
  <circle cx="723.3366442516078" cy="415.779655989006" fill="#2ca02c" opacity="0.75" r="4"/>
  <circle cx="647.6305479509929" cy="388.5835296009391" fill="#ff7f0e" opacity="0.75" r="4"/>
  <circle cx="795.0488803616844" cy="418.25462748730945" fill="#2ca02c" opacity="0.75" r="4"/>
  <circle cx="593.2999716736196" cy="478.4349709663757" fill="#2ca02c" opacity="0.75" r="4"/>
  <circle cx="615.2500673467184" cy="404.567703679734" fill="#2ca02c" opacity="0.75" r="4"/>
  <circle cx="635.951892490217" cy="375.564109789268" fill="#1f77b4" opacity="0.75" r="4"/>
  <circle cx="672.837449776921" cy="350.1409740773832" fill="#ff7f0e" opacity="0.75" r="4"/>
  <circle cx="612.2654917435821" cy="309.74851867453305" fill="#1f77b4" opacity="0.75" r="4"/>
  <circle cx="811.8460698214353" cy="397.73311235037306" fill="#ff7f0e" opacity="0.75" r="4"/>
  <circle cx="760.0165251545536" cy="445.36117962794" fill="#2ca02c" opacity="0.75" r="4"/>
  <circle cx="631.7937219530966" cy="368.7898605684305" fill="#2ca02c" opacity="0.75" r="4"/>
  <circle cx="651.5367865687531" cy="432.1731081814108" fill="#1f77b4" opacity="0.75" r="4"/>
  <circle cx="684.251334541387" cy="443.48090167627856" fill="#2ca02c" opacity="0.75" r="4"/>
  <circle cx="695.630762990744" cy="455.78306070407" fill="#2ca02c" opacity="0.75" r="4"/>
  <circle cx="624.0839687990843" cy="420.31818590264754" fill="#ff7f0e" opacity="0.75" r="4"/>
  <circle cx="694.7065262600194" cy="452.630265775781" fill="#2ca02c" opacity="0.75" r="4"/>
  <circle cx="717.6875691095355" cy="486.5844551307012" fill="#ff7f0e" opacity="0.75" r="4"/>
  <circle cx="576.8499196829032" cy="408.17440149344577" fill="#ff7f0e" opacity="0.75" r="4"/>
  <circle cx="625.4045134600703" cy="408.47351408164093" fill="#1f77b4" opacity="0.75" r="4"/>
  <circle cx="613.3627987458898" cy="398.299848769807" fill="#ff7f0e" opacity="0.75" r="4"/>
  <circle cx="728.6454886564134" cy="322.3696545496138" fill="#1f77b4" opacity="0.75" r="4"/>
  <circle cx="675.6117704343628" cy="396.9802246008388" fill="#1f77b4" opacity="0.75" r="4"/>
  <circle cx="500.3308567679892" cy="318.99320783102996" fill="#2ca02c" opacity="0.75" r="4"/>
  <circle cx="625.1768549104504" cy="391.7069616574881" fill="#2ca02c" opacity="0.75" r="4"/>
  <circle cx="644.4914157509844" cy="294.92237504884906" fill="#ff7f0e" opacity="0.75" r="4"/>
  <circle cx="513.3901319243727" cy="292.4595229942462" fill="#1f77b4" opacity="0.75" r="4"/>
  <circle cx="692.0653562880485" cy="363.82706259538156" fill="#ff7f0e" opacity="0.75" r="4"/>
  <circle cx="757.7611655151975" cy="472.77502652573327" fill="#ff7f0e" opacity="0.75" r="4"/>
  <circle cx="798.4405314021328" cy="427.7135858819007" fill="#1f77b4" opacity="0.75" r="4"/>
  <circle cx="798.0246320200868" cy="396.89029185415654" fill="#2ca02c" opacity="0.75" r="4"/>
  <circle cx="749.9619426734655" cy="423.1868276038455" fill="#1f77b4" opacity="0.75" r="4"/>
  <circle cx="655.3143399260061" cy="349.54745248989224" fill="#2ca02c" opacity="0.75" r="4"/>
  <circle cx="697.717188858653" cy="402.7212157316919" fill="#2ca02c" opacity="0.75" r="4"/>
  <circle cx="737.4697565940827" cy="417.8139502664491" fill="#2ca02c" opacity="0.75" r="4"/>
  <circle cx="701.9116214277926" cy="423.53354781673664" fill="#ff7f0e" opacity="0.75" r="4"/>
  <circle cx="704.1483958346936" cy="415.67569401029573" fill="#1f77b4" opacity="0.75" r="4"/>
  <circle cx="643.3757023390933" cy="435.63551117201985" fill="#1f77b4" opacity="0.75" r="4"/>
  <circle cx="759.9552359978115" cy="365.8390904239881" fill="#ff7f0e" opacity="0.75" r="4"/>
  <circle cx="787.33965369451" cy="373.8250976522034" fill="#1f77b4" opacity="0.75" r="4"/>
  <circle cx="618.6833098913993" cy="419.8419017942285" fill="#1f77b4" opacity="0.75" r="4"/>
  <circle cx="616.3012245946509" cy="425.42189853504505" fill="#2ca02c" opacity="0.75" r="4"/>
  <circle cx="804.535468092574" cy="352.59180440074783" fill="#ff7f0e" opacity="0.75" r="4"/>
  <circle cx="619.444099692244" cy="436.1126656314544" fill="#1f77b4" opacity="0.75" r="4"/>
  <circle cx="602.8129693326205" cy="421.23529808665774" fill="#1f77b4" opacity="0.75" r="4"/>
  <circle cx="809.4384229712875" cy="457.24069373973225" fill="#1f77b4" opacity="0.75" r="4"/>
  <circle cx="519.7036805294802" cy="536.4721625035527" fill="#ff7f0e" opacity="0.75" r="4"/>
  <circle cx="491.566078129464" cy="547.763263065641" fill="#1f77b4" opacity="0.75" r="4"/>
  <circle cx="529.9483613278687" cy="559.6954301945339" fill="#2ca02c" opacity="0.75" r="4"/>
  <circle cx="465.2353529370402" cy="604.3191097696146" fill="#2ca02c" opacity="0.75" r="4"/>
  <circle cx="488.35630730639144" cy="591.7435656064977" fill="#2ca02c" opacity="0.75" r="4"/>
  <circle cx="531.9472048662624" cy="582.1707565256995" fill="#ff7f0e" opacity="0.75" r="4"/>
  <circle cx="476.2742640003081" cy="538.6078561194795" fill="#2ca02c" opacity="0.75" r="4"/>
  <circle cx="600.3365536841902" cy="621.205692088697" fill="#1f77b4" opacity="0.75" r="4"/>
  <circle cx="595.3919418220446" cy="537.826881730304" fill="#ff7f0e" opacity="0.75" r="4"/>
  <circle cx="541.9149787346408" cy="550.12820094104" fill="#2ca02c" opacity="0.75" r="4"/>
  <circle cx="584.2372308907027" cy="505.4980002309532" fill="#1f77b4" opacity="0.75" r="4"/>
  <circle cx="561.7005215595404" cy="530.9404549175583" fill="#1f77b4" opacity="0.75" r="4"/>
  <circle cx="476.60751267224435" cy="451.00709077269255" fill="#ff7f0e" opacity="0.75" r="4"/>
  <circle cx="501.9443972261103" cy="647.1271208264914" fill="#2ca02c" opacity="0.75" r="4"/>
  <circle cx="551.6755152655387" cy="554.5701492300816" fill="#2ca02c" opacity="0.75" r="4"/>
  <circle cx="532.6209606207242" cy="496.99672734722105" fill="#1f77b4" opacity="0.75" r="4"/>
  <circle cx="496.75570754416214" cy="498.2728407351355" fill="#2ca02c" opacity="0.75" r="4"/>
  <circle cx="578.8263388044447" cy="518.241902350443" fill="#ff7f0e" opacity="0.75" r="4"/>
  <circle cx="469.11908928202973" cy="575.3002399466752" fill="#ff7f0e" opacity="0.75" r="4"/>
  <circle cx="448.2938017507689" cy="559.7381821156343" fill="#2ca02c" opacity="0.75" r="4"/>
  <circle cx="529.7084678238674" cy="632.2624359752389" fill="#ff7f0e" opacity="0.75" r="4"/>
  <circle cx="519.3146109484177" cy="508.1806650517585" fill="#2ca02c" opacity="0.75" r="4"/>
  <circle cx="481.5049304950295" cy="593.9869390701972" fill="#2ca02c" opacity="0.75" r="4"/>
  <circle cx="477.3646068179198" cy="610.8753882237681" fill="#1f77b4" opacity="0.75" r="4"/>
  <circle cx="551.1277785580015" cy="619.0489650416008" fill="#2ca02c" opacity="0.75" r="4"/>
  <circle cx="545.2774295893864" cy="565.4336120343196" fill="#2ca02c" opacity="0.75" r="4"/>
  <circle cx="627.2415238277322" cy="566.6021565947733" fill="#2ca02c" opacity="0.75" r="4"/>
  <circle cx="479.38999773289885" cy="558.6257001802799" fill="#2ca02c" opacity="0.75" r="4"/>
  <circle cx="509.94712787466557" cy="598.4671442825107" fill="#1f77b4" opacity="0.75" r="4"/>
  <circle cx="568.7285028826191" cy="554.8690977037911" fill="#1f77b4" opacity="0.75" r="4"/>
  <circle cx="550.6254279473166" cy="597.2788138949381" fill="#ff7f0e" opacity="0.75" r="4"/>
  <circle cx="655.4560472479205" cy="516.9418299026111" fill="#ff7f0e" opacity="0.75" r="4"/>
  <circle cx="503.7024968212534" cy="527.9023911693629" fill="#1f77b4" opacity="0.75" r="4"/>
  <circle cx="563.4612730849889" cy="571.3414236068977" fill="#ff7f0e" opacity="0.75" r="4"/>
  <circle cx="586.9693275398785" cy="563.7084797400375" fill="#ff7f0e" opacity="0.75" r="4"/>
  <circle cx="545.5391102978942" cy="570.3712906470373" fill="#ff7f0e" opacity="0.75" r="4"/>
  <circle cx="513.0702600005767" cy="557.8733019867691" fill="#ff7f0e" opacity="0.75" r="4"/>
  <circle cx="499.6521296999529" cy="530.011146891193" fill="#ff7f0e" opacity="0.75" r="4"/>
  <circle cx="505.1311180609063" cy="551.9294770732581" fill="#2ca02c" opacity="0.75" r="4"/>
  <circle cx="511.8605342799615" cy="588.1035325743624" fill="#ff7f0e" opacity="0.75" r="4"/>
  <circle cx="415.315462955909" cy="499.2191414037562" fill="#ff7f0e" opacity="0.75" r="4"/>
  <circle cx="457.3813905871491" cy="511.38556998100154" fill="#2ca02c" opacity="0.75" r="4"/>
  <circle cx="493.7126618551184" cy="658.2597078719442" fill="#ff7f0e" opacity="0.75" r="4"/>
  <circle cx="561.7264753167308" cy="578.976708748798" fill="#2ca02c" opacity="0.75" r="4"/>
  <circle cx="481.8294632898597" cy="632.362505363222" fill="#1f77b4" opacity="0.75" r="4"/>
  <circle cx="577.0611671858815" cy="558.9106256208669" fill="#2ca02c" opacity="0.75" r="4"/>
  <circle cx="505.9190752045764" cy="568.908937368662" fill="#2ca02c" opacity="0.75" r="4"/>
  <circle cx="452.93484729187884" cy="609.9776066036383" fill="#ff7f0e" opacity="0.75" r="4"/>
  <circle cx="566.3526538467576" cy="556.6067057866056" fill="#2ca02c" opacity="0.75" r="4"/>
  <circle cx="441.3002943166624" cy="575.169364507768" fill="#1f77b4" opacity="0.75" r="4"/>
  <circle cx="419.82766359882055" cy="565.0632771865733" fill="#1f77b4" opacity="0.75" r="4"/>
  <circle cx="613.9127781314578" cy="652.1923057124557" fill="#ff7f0e" opacity="0.75" r="4"/>
  <circle cx="514.5474933641289" cy="596.0673094119976" fill="#1f77b4" opacity="0.75" r="4"/>
  <circle cx="562.3622492027697" cy="656.1761860984708" fill="#2ca02c" opacity="0.75" r="4"/>
  <circle cx="503.6251575577041" cy="607.1914324106859" fill="#1f77b4" opacity="0.75" r="4"/>
  <circle cx="914.0" cy="244.0" fill="#d62728" opacity="0.9" r="7"/>
  <text fill="#333" font-family="Arial, Helvetica, sans-serif" font-size="16" text-anchor="middle" x="570.0" y="765">Dimension 1</text>
  <text fill="#333" font-family="Arial, Helvetica, sans-serif" font-size="16" text-anchor="middle" transform="rotate(-90,85,440.0)" x="85" y="440.0">Dimension 2</text>
  <text fill="#999" font-family="Arial, Helvetica, sans-serif" font-size="12" text-anchor="end" x="1140" y="776">Auto-generated SVG</text>
</svg>
