<?xml version="1.0" encoding="utf-8" ?>
<svg xmlns="http://www.w3.org/2000/svg" xmlns:ev="http://www.w3.org/2001/xml-events" xmlns:xlink="http://www.w3.org/1999/xlink" baseProfile="full" height="800" version="1.1" width="1200">
  <defs>
    <marker id="id293" markerHeight="7" markerWidth="7" orient="auto" refX="6" refY="3">
      <path d="M0,0 L0,6 L6,3 z" fill="#333333"/>
    </marker>
  </defs>
  <rect fill="white" height="800" width="1200" x="0" y="0"/>
  <text fill="#111" font-family="Arial, Helvetica, sans-serif" font-size="28" font-weight="700" x="60" y="50">Figure 2: Calibration Diagrams</text>
  <text fill="#444" font-family="Arial, Helvetica, sans-serif" font-size="16" x="60" y="78">Panel C</text>
  <line stroke="#333" stroke-width="2" x1="140" x2="1000" y1="720" y2="720"/>
  <line stroke="#333" stroke-width="2" x1="140" x2="140" y1="160" y2="720"/>
  <circle cx="379.6069405399619" cy="488.86559249404536" fill="#ff7f0e" opacity="0.75" r="4"/>
  <circle cx="488.13720633900067" cy="576.1672605285696" fill="#ff7f0e" opacity="0.75" r="4"/>
  <circle cx="360.06109455839635" cy="525.1873980418596" fill="#2ca02c" opacity="0.75" r="4"/>
  <circle cx="443.970401765227" cy="563.048846472895" fill="#1f77b4" opacity="0.75" r="4"/>
  <circle cx="336.1580150430765" cy="534.4499006831511" fill="#2ca02c" opacity="0.75" r="4"/>
  <circle cx="212.42209774707248" cy="546.1011505199589" fill="#2ca02c" opacity="0.75" r="4"/>
  <circle cx="543.1561628985196" cy="600.7157835188658" fill="#ff7f0e" opacity="0.75" r="4"/>
  <circle cx="393.88508300408637" cy="549.0821016853788" fill="#1f77b4" opacity="0.75" r="4"/>
  <circle cx="401.0742154217698" cy="506.20210407779257" fill="#ff7f0e" opacity="0.75" r="4"/>
  <circle cx="424.9862791609376" cy="482.111008063952" fill="#1f77b4" opacity="0.75" r="4"/>
  <circle cx="418.6607251456804" cy="541.7298790538186" fill="#ff7f0e" opacity="0.75" r="4"/>
  <circle cx="434.4031152881394" cy="507.35785636732726" fill="#ff7f0e" opacity="0.75" r="4"/>
  <circle cx="103.17274848378099" cy="551.8178093522733" fill="#ff7f0e" opacity="0.75" r="4"/>
  <circle cx="429.5176039452129" cy="480.5787450285714" fill="#1f77b4" opacity="0.75" r="4"/>
  <circle cx="414.72544745347636" cy="584.2792193816792" fill="#ff7f0e" opacity="0.75" r="4"/>
  <circle cx="473.12795967429724" cy="560.1552413915675" fill="#1f77b4" opacity="0.75" r="4"/>
  <circle cx="413.6112236894332" cy="515.8086059953333" fill="#2ca02c" opacity="0.75" r="4"/>
  <circle cx="285.5323164363897" cy="483.7409488564919" fill="#1f77b4" opacity="0.75" r="4"/>
  <circle cx="392.3221219002536" cy="515.2671929604818" fill="#2ca02c" opacity="0.75" r="4"/>
  <circle cx="439.0754406589921" cy="520.0252220153415" fill="#ff7f0e" opacity="0.75" r="4"/>
  <circle cx="384.6357984547816" cy="580.4871799196751" fill="#1f77b4" opacity="0.75" r="4"/>
  <circle cx="430.7615002663339" cy="475.20202935877035" fill="#ff7f0e" opacity="0.75" r="4"/>
  <circle cx="442.27962696004965" cy="603.8950453226646" fill="#2ca02c" opacity="0.75" r="4"/>
  <circle cx="443.59406712349505" cy="525.4638688634677" fill="#1f77b4" opacity="0.75" r="4"/>
  <circle cx="314.0946272634043" cy="559.945004427243" fill="#2ca02c" opacity="0.75" r="4"/>
  <circle cx="338.0471120521347" cy="537.3133882868651" fill="#1f77b4" opacity="0.75" r="4"/>
  <circle cx="383.1783110901123" cy="515.1751014841577" fill="#ff7f0e" opacity="0.75" r="4"/>
  <circle cx="314.2908006938142" cy="477.3214941119304" fill="#ff7f0e" opacity="0.75" r="4"/>
  <circle cx="461.40607650298074" cy="543.6817636917126" fill="#ff7f0e" opacity="0.75" r="4"/>
  <circle cx="503.1623222710522" cy="535.2243867366294" fill="#2ca02c" opacity="0.75" r="4"/>
  <circle cx="417.7340511462964" cy="569.0604673140374" fill="#2ca02c" opacity="0.75" r="4"/>
  <circle cx="494.3699287194782" cy="466.0641379436145" fill="#ff7f0e" opacity="0.75" r="4"/>
  <circle cx="327.3035215424114" cy="463.88669431777475" fill="#ff7f0e" opacity="0.75" r="4"/>
  <circle cx="493.97074440192745" cy="564.7311535506129" fill="#ff7f0e" opacity="0.75" r="4"/>
  <circle cx="444.0807252235124" cy="501.0640965953118" fill="#2ca02c" opacity="0.75" r="4"/>
  <circle cx="331.4395066105252" cy="537.0989615106103" fill="#ff7f0e" opacity="0.75" r="4"/>
  <circle cx="533.6969641697351" cy="585.721519541372" fill="#2ca02c" opacity="0.75" r="4"/>
  <circle cx="398.75414154954314" cy="539.0025119576678" fill="#ff7f0e" opacity="0.75" r="4"/>
  <circle cx="258.93324075360977" cy="466.9057375557121" fill="#2ca02c" opacity="0.75" r="4"/>
  <circle cx="463.88709113052596" cy="552.4737806182546" fill="#2ca02c" opacity="0.75" r="4"/>
  <circle cx="373.5535543148004" cy="621.4664049497387" fill="#2ca02c" opacity="0.75" r="4"/>
  <circle cx="264.0770794460666" cy="442.5477299937284" fill="#ff7f0e" opacity="0.75" r="4"/>
  <circle cx="285.65028247819725" cy="532.1786154181418" fill="#2ca02c" opacity="0.75" r="4"/>
  <circle cx="446.36809939438444" cy="622.0468655447569" fill="#ff7f0e" opacity="0.75" r="4"/>
  <circle cx="370.94506139246494" cy="516.8334015050017" fill="#2ca02c" opacity="0.75" r="4"/>
  <circle cx="303.9413372076209" cy="514.4817095588353" fill="#1f77b4" opacity="0.75" r="4"/>
  <circle cx="283.60677815066356" cy="505.981932646416" fill="#2ca02c" opacity="0.75" r="4"/>
  <circle cx="393.6431705234531" cy="498.5450619885457" fill="#1f77b4" opacity="0.75" r="4"/>
  <circle cx="324.01132062100106" cy="553.0572046500588" fill="#2ca02c" opacity="0.75" r="4"/>
  <circle cx="316.77480194748983" cy="489.32553330373594" fill="#2ca02c" opacity="0.75" r="4"/>
  <circle cx="371.72499544877536" cy="551.4776038188838" fill="#2ca02c" opacity="0.75" r="4"/>
  <circle cx="404.6601414718541" cy="534.3289751123862" fill="#1f77b4" opacity="0.75" r="4"/>
  <circle cx="413.96854352592726" cy="545.4947141251722" fill="#ff7f0e" opacity="0.75" r="4"/>
  <circle cx="245.7293485007865" cy="572.033672691547" fill="#1f77b4" opacity="0.75" r="4"/>
  <circle cx="434.24520146702184" cy="526.6035771590099" fill="#2ca02c" opacity="0.75" r="4"/>
  <circle cx="766.1858183100989" cy="511.96441684095845" fill="#ff7f0e" opacity="0.75" r="4"/>
  <circle cx="547.0922734186786" cy="483.94087281607653" fill="#ff7f0e" opacity="0.75" r="4"/>
  <circle cx="686.3781698163863" cy="425.7950754091091" fill="#1f77b4" opacity="0.75" r="4"/>
  <circle cx="689.6400812590799" cy="399.05022064101684" fill="#1f77b4" opacity="0.75" r="4"/>
  <circle cx="610.8975703173555" cy="372.37497654908907" fill="#ff7f0e" opacity="0.75" r="4"/>
  <circle cx="580.8436508244374" cy="421.63292685747825" fill="#ff7f0e" opacity="0.75" r="4"/>
  <circle cx="570.7087180827373" cy="422.6333090878037" fill="#2ca02c" opacity="0.75" r="4"/>
  <circle cx="589.7559066761637" cy="420.08227302920426" fill="#ff7f0e" opacity="0.75" r="4"/>
  <circle cx="728.0577869739761" cy="444.07550032156036" fill="#1f77b4" opacity="0.75" r="4"/>
  <circle cx="646.9903387967837" cy="448.3361037493901" fill="#ff7f0e" opacity="0.75" r="4"/>
  <circle cx="493.51839934394394" cy="511.4489686907725" fill="#ff7f0e" opacity="0.75" r="4"/>
  <circle cx="665.2778670924354" cy="356.6205290512406" fill="#2ca02c" opacity="0.75" r="4"/>
  <circle cx="666.3462738806104" cy="444.8266939690227" fill="#1f77b4" opacity="0.75" r="4"/>
  <circle cx="611.7680096306083" cy="379.0325426381634" fill="#2ca02c" opacity="0.75" r="4"/>
  <circle cx="729.4403837401659" cy="345.8209517684013" fill="#2ca02c" opacity="0.75" r="4"/>
  <circle cx="702.696982933407" cy="467.59707482194386" fill="#2ca02c" opacity="0.75" r="4"/>
  <circle cx="707.5703210708368" cy="539.9958617277315" fill="#ff7f0e" opacity="0.75" r="4"/>
  <circle cx="687.0467409025941" cy="355.9143441489334" fill="#2ca02c" opacity="0.75" r="4"/>
  <circle cx="602.9312056766121" cy="376.0497864998864" fill="#ff7f0e" opacity="0.75" r="4"/>
  <circle cx="759.5050897962395" cy="443.0070693793018" fill="#1f77b4" opacity="0.75" r="4"/>
  <circle cx="659.4127149678233" cy="366.2145273065645" fill="#2ca02c" opacity="0.75" r="4"/>
  <circle cx="629.7671871478078" cy="461.04549150426345" fill="#1f77b4" opacity="0.75" r="4"/>
  <circle cx="701.1298410443452" cy="472.6051569758358" fill="#ff7f0e" opacity="0.75" r="4"/>
  <circle cx="648.897172029781" cy="405.5366689651297" fill="#ff7f0e" opacity="0.75" r="4"/>
  <circle cx="574.8345031809954" cy="381.066269603417" fill="#2ca02c" opacity="0.75" r="4"/>
  <circle cx="701.4711266003463" cy="435.04759649594433" fill="#2ca02c" opacity="0.75" r="4"/>
  <circle cx="581.9584250037581" cy="394.05085328264727" fill="#ff7f0e" opacity="0.75" r="4"/>
  <circle cx="604.7879497494231" cy="488.730656108383" fill="#1f77b4" opacity="0.75" r="4"/>
  <circle cx="793.6250245571765" cy="438.1343694963739" fill="#ff7f0e" opacity="0.75" r="4"/>
  <circle cx="701.3787818005842" cy="421.66524064475135" fill="#1f77b4" opacity="0.75" r="4"/>
  <circle cx="647.5047093747658" cy="381.59777790526744" fill="#ff7f0e" opacity="0.75" r="4"/>
  <circle cx="741.8680758392567" cy="464.2198333927549" fill="#1f77b4" opacity="0.75" r="4"/>
  <circle cx="577.4162301848417" cy="375.91352798216934" fill="#1f77b4" opacity="0.75" r="4"/>
  <circle cx="702.5667828980858" cy="419.61932200654627" fill="#ff7f0e" opacity="0.75" r="4"/>
  <circle cx="652.4973698414228" cy="468.76798396485043" fill="#ff7f0e" opacity="0.75" r="4"/>
  <circle cx="479.4448135458313" cy="344.1470584100717" fill="#ff7f0e" opacity="0.75" r="4"/>
  <circle cx="631.6914114785784" cy="438.0628647487264" fill="#1f77b4" opacity="0.75" r="4"/>
  <circle cx="738.8718782214138" cy="379.8376627715441" fill="#ff7f0e" opacity="0.75" r="4"/>
  <circle cx="695.3583187023694" cy="384.8966492464764" fill="#ff7f0e" opacity="0.75" r="4"/>
  <circle cx="672.2003305012295" cy="514.4599768806946" fill="#ff7f0e" opacity="0.75" r="4"/>
  <circle cx="661.1841490284024" cy="431.32530593849685" fill="#ff7f0e" opacity="0.75" r="4"/>
  <circle cx="569.6223450501436" cy="438.6903943392793" fill="#1f77b4" opacity="0.75" r="4"/>
  <circle cx="539.2177387116832" cy="433.29488223628493" fill="#2ca02c" opacity="0.75" r="4"/>
  <circle cx="703.2269609401582" cy="462.34435444315227" fill="#2ca02c" opacity="0.75" r="4"/>
  <circle cx="831.1585884151555" cy="426.7831672095086" fill="#1f77b4" opacity="0.75" r="4"/>
  <circle cx="589.6702664818029" cy="448.63770041592284" fill="#2ca02c" opacity="0.75" r="4"/>
  <circle cx="625.6559744627687" cy="361.66649860481357" fill="#2ca02c" opacity="0.75" r="4"/>
  <circle cx="667.5930395458602" cy="470.3371641305094" fill="#2ca02c" opacity="0.75" r="4"/>
  <circle cx="607.6725417907594" cy="394.4913748115368" fill="#ff7f0e" opacity="0.75" r="4"/>
  <circle cx="773.8969435992224" cy="475.04970548370517" fill="#2ca02c" opacity="0.75" r="4"/>
  <circle cx="859.3625602025302" cy="439.5904659658135" fill="#1f77b4" opacity="0.75" r="4"/>
  <circle cx="574.7454626730735" cy="384.54105673463476" fill="#ff7f0e" opacity="0.75" r="4"/>
  <circle cx="531.715158760778" cy="447.59312776162227" fill="#ff7f0e" opacity="0.75" r="4"/>
  <circle cx="671.2238997689385" cy="478.7518590857514" fill="#1f77b4" opacity="0.75" r="4"/>
  <circle cx="693.9602764716687" cy="474.4368555399098" fill="#1f77b4" opacity="0.75" r="4"/>
  <circle cx="548.3639241751289" cy="662.1691033126995" fill="#2ca02c" opacity="0.75" r="4"/>
  <circle cx="612.1934606212111" cy="657.9921759240922" fill="#ff7f0e" opacity="0.75" r="4"/>
  <circle cx="432.6344371900573" cy="601.0679661844642" fill="#1f77b4" opacity="0.75" r="4"/>
  <circle cx="471.82863063525764" cy="598.9390826915215" fill="#ff7f0e" opacity="0.75" r="4"/>
  <circle cx="510.1976997263011" cy="609.7990124591902" fill="#ff7f0e" opacity="0.75" r="4"/>
  <circle cx="575.4714281242207" cy="559.2300431534245" fill="#2ca02c" opacity="0.75" r="4"/>
  <circle cx="449.88023997293186" cy="574.4089647714293" fill="#1f77b4" opacity="0.75" r="4"/>
  <circle cx="538.8365151843575" cy="540.9574107090613" fill="#ff7f0e" opacity="0.75" r="4"/>
  <circle cx="488.9754870500858" cy="614.8018516000511" fill="#2ca02c" opacity="0.75" r="4"/>
  <circle cx="544.097002195026" cy="590.1956613884734" fill="#1f77b4" opacity="0.75" r="4"/>
  <circle cx="541.3482865078156" cy="456.4448793395853" fill="#1f77b4" opacity="0.75" r="4"/>
  <circle cx="548.7660172548921" cy="632.1100480868943" fill="#ff7f0e" opacity="0.75" r="4"/>
  <circle cx="482.7676664988151" cy="541.3028238638307" fill="#1f77b4" opacity="0.75" r="4"/>
  <circle cx="457.1393037158015" cy="560.1350018893089" fill="#1f77b4" opacity="0.75" r="4"/>
  <circle cx="504.42412875770117" cy="551.1994690163981" fill="#1f77b4" opacity="0.75" r="4"/>
  <circle cx="572.6985983042548" cy="573.5683766847999" fill="#2ca02c" opacity="0.75" r="4"/>
  <circle cx="556.8787096355364" cy="572.6086923636706" fill="#2ca02c" opacity="0.75" r="4"/>
  <circle cx="463.8758289787432" cy="557.8958962244911" fill="#1f77b4" opacity="0.75" r="4"/>
  <circle cx="506.49780134232566" cy="601.5002168374427" fill="#1f77b4" opacity="0.75" r="4"/>
  <circle cx="556.3668904301846" cy="593.0757318108888" fill="#ff7f0e" opacity="0.75" r="4"/>
  <circle cx="446.22960676124166" cy="530.9379146710871" fill="#ff7f0e" opacity="0.75" r="4"/>
  <circle cx="536.2429754730562" cy="615.1912068450217" fill="#ff7f0e" opacity="0.75" r="4"/>
  <circle cx="471.54872653586693" cy="544.6993840502439" fill="#1f77b4" opacity="0.75" r="4"/>
  <circle cx="465.1267792054852" cy="618.5908020342783" fill="#1f77b4" opacity="0.75" r="4"/>
  <circle cx="623.9023880740609" cy="563.1548854992445" fill="#1f77b4" opacity="0.75" r="4"/>
  <circle cx="371.71067133707476" cy="549.6668922358704" fill="#ff7f0e" opacity="0.75" r="4"/>
  <circle cx="566.6325020139693" cy="497.9276108516221" fill="#ff7f0e" opacity="0.75" r="4"/>
  <circle cx="478.2953848086462" cy="561.4314353474333" fill="#1f77b4" opacity="0.75" r="4"/>
  <circle cx="558.7706544912678" cy="583.0638535624872" fill="#1f77b4" opacity="0.75" r="4"/>
  <circle cx="590.9813500498531" cy="578.4726526556558" fill="#2ca02c" opacity="0.75" r="4"/>
  <circle cx="504.7629163483187" cy="654.8394840143665" fill="#2ca02c" opacity="0.75" r="4"/>
  <circle cx="538.6603239752327" cy="525.0596377394518" fill="#1f77b4" opacity="0.75" r="4"/>
  <circle cx="550.0964014156136" cy="600.2878651978062" fill="#ff7f0e" opacity="0.75" r="4"/>
  <circle cx="464.9236380049192" cy="516.4219559978518" fill="#1f77b4" opacity="0.75" r="4"/>
  <circle cx="514.0759040427283" cy="595.4611370566327" fill="#2ca02c" opacity="0.75" r="4"/>
  <circle cx="558.9370755701923" cy="491.2399162657081" fill="#ff7f0e" opacity="0.75" r="4"/>
  <circle cx="509.8309670419931" cy="574.7846210239281" fill="#2ca02c" opacity="0.75" r="4"/>
  <circle cx="493.20073507977236" cy="544.724942722034" fill="#ff7f0e" opacity="0.75" r="4"/>
  <circle cx="563.07649372415" cy="598.79039829459" fill="#1f77b4" opacity="0.75" r="4"/>
  <circle cx="594.2996606658248" cy="541.4572579355697" fill="#2ca02c" opacity="0.75" r="4"/>
  <circle cx="547.4963087540813" cy="580.3993643767817" fill="#2ca02c" opacity="0.75" r="4"/>
  <circle cx="509.2495009641987" cy="563.1799241298679" fill="#2ca02c" opacity="0.75" r="4"/>
  <circle cx="563.6720278671046" cy="635.5327988600404" fill="#ff7f0e" opacity="0.75" r="4"/>
  <circle cx="554.9387791623416" cy="631.2803195023188" fill="#ff7f0e" opacity="0.75" r="4"/>
  <circle cx="712.5893206736247" cy="575.5291123432028" fill="#2ca02c" opacity="0.75" r="4"/>
  <circle cx="553.7210481312529" cy="589.7653547010541" fill="#2ca02c" opacity="0.75" r="4"/>
  <circle cx="443.1165441926706" cy="579.1270188940912" fill="#2ca02c" opacity="0.75" r="4"/>
  <circle cx="532.0377576670583" cy="546.2534712966424" fill="#1f77b4" opacity="0.75" r="4"/>
  <circle cx="567.8222744351524" cy="587.6246801603088" fill="#ff7f0e" opacity="0.75" r="4"/>
  <circle cx="427.06839460879496" cy="578.8419951917242" fill="#2ca02c" opacity="0.75" r="4"/>
  <circle cx="563.1267506960062" cy="553.2847912888869" fill="#2ca02c" opacity="0.75" r="4"/>
  <circle cx="568.8299390404331" cy="561.1925694850775" fill="#2ca02c" opacity="0.75" r="4"/>
  <circle cx="628.0245415289514" cy="588.3449796358856" fill="#1f77b4" opacity="0.75" r="4"/>
  <circle cx="516.6432863120101" cy="506.615206689873" fill="#1f77b4" opacity="0.75" r="4"/>
  <circle cx="441.2866369103133" cy="661.0785782503718" fill="#1f77b4" opacity="0.75" r="4"/>
  <circle cx="914.0" cy="244.0" fill="#d62728" opacity="0.9" r="7"/>
  <text fill="#333" font-family="Arial, Helvetica, sans-serif" font-size="16" text-anchor="middle" x="570.0" y="765">Dimension 1</text>
  <text fill="#333" font-family="Arial, Helvetica, sans-serif" font-size="16" text-anchor="middle" transform="rotate(-90,85,440.0)" x="85" y="440.0">Dimension 2</text>
  <text fill="#999" font-family="Arial, Helvetica, sans-serif" font-size="12" text-anchor="end" x="1140" y="776">Auto-generated SVG</text>
</svg>
