<?xml version="1.0" encoding="UTF-8" standalone="no"?>
<!DOCTYPE svg PUBLIC "-//W3C//DTD SVG 1.1//EN"
 "http://www.w3.org/Graphics/SVG/1.1/DTD/svg11.dtd">
<!-- Generated by graphviz version 2.43.0 (0)
 -->
<!-- Title: calib_A Pages: 1 -->
<svg width="432pt" height="63pt"
 viewBox="0.00 0.00 432.00 62.73" xmlns="http://www.w3.org/2000/svg" xmlns:xlink="http://www.w3.org/1999/xlink">
<g id="graph0" class="graph" transform="scale(1.43 1.43) rotate(0) translate(4 40)">
<title>calib_A</title>
<polygon fill="white" stroke="transparent" points="-4,4 -4,-40 299,-40 299,4 -4,4"/>
<!-- logits -->
<g id="node1" class="node">
<title>logits</title>
<path fill="#aec7e8" stroke="black" stroke-width="1.5" d="M42,-36C42,-36 12,-36 12,-36 6,-36 0,-30 0,-24 0,-24 0,-12 0,-12 0,-6 6,0 12,0 12,0 42,0 42,0 48,0 54,-6 54,-12 54,-12 54,-24 54,-24 54,-30 48,-36 42,-36"/>
<text text-anchor="middle" x="27" y="-20.8" font-family="Arial" font-size="9.00">Raw</text>
<text text-anchor="middle" x="27" y="-10.8" font-family="Arial" font-size="9.00">Logits</text>
</g>
<!-- calib -->
<g id="node2" class="node">
<title>calib</title>
<path fill="#9467bd" stroke="black" stroke-width="1.5" d="M179,-36C179,-36 102,-36 102,-36 96,-36 90,-30 90,-24 90,-24 90,-12 90,-12 90,-6 96,0 102,0 102,0 179,0 179,0 185,0 191,-6 191,-12 191,-12 191,-24 191,-24 191,-30 185,-36 179,-36"/>
<text text-anchor="middle" x="140.5" y="-15.8" font-family="Arial" font-size="9.00" fill="white">Temperature Scaling</text>
</g>
<!-- logits&#45;&gt;calib -->
<g id="edge1" class="edge">
<title>logits&#45;&gt;calib</title>
<path fill="none" stroke="black" d="M54.14,-18C61.91,-18 70.75,-18 79.73,-18"/>
<polygon fill="black" stroke="black" points="79.88,-21.5 89.88,-18 79.88,-14.5 79.88,-21.5"/>
</g>
<!-- probs -->
<g id="node3" class="node">
<title>probs</title>
<path fill="#98df8a" stroke="black" stroke-width="1.5" d="M283,-36C283,-36 239,-36 239,-36 233,-36 227,-30 227,-24 227,-24 227,-12 227,-12 227,-6 233,0 239,0 239,0 283,0 283,0 289,0 295,-6 295,-12 295,-12 295,-24 295,-24 295,-30 289,-36 283,-36"/>
<text text-anchor="middle" x="261" y="-20.8" font-family="Arial" font-size="9.00">Calibrated</text>
<text text-anchor="middle" x="261" y="-10.8" font-family="Arial" font-size="9.00">Probabilities</text>
</g>
<!-- calib&#45;&gt;probs -->
<g id="edge2" class="edge">
<title>calib&#45;&gt;probs</title>
<path fill="none" stroke="black" d="M191.07,-18C199.54,-18 208.29,-18 216.58,-18"/>
<polygon fill="black" stroke="black" points="216.8,-21.5 226.8,-18 216.8,-14.5 216.8,-21.5"/>
</g>
</g>
</svg>
