<?xml version="1.0" encoding="utf-8" ?>
<svg xmlns="http://www.w3.org/2000/svg" xmlns:ev="http://www.w3.org/2001/xml-events" xmlns:xlink="http://www.w3.org/1999/xlink" baseProfile="full" height="800" version="1.1" width="1200">
  <defs>
    <marker id="id296" markerHeight="7" markerWidth="7" orient="auto" refX="6" refY="3">
      <path d="M0,0 L0,6 L6,3 z" fill="#333333"/>
    </marker>
  </defs>
  <rect fill="white" height="800" width="1200" x="0" y="0"/>
  <text fill="#111" font-family="Arial, Helvetica, sans-serif" font-size="28" font-weight="700" x="60" y="50">Figure 3: Calibration Methods</text>
  <text fill="#444" font-family="Arial, Helvetica, sans-serif" font-size="16" x="60" y="78">Panel B</text>
  <line stroke="#333" stroke-width="2" x1="140" x2="1000" y1="720" y2="720"/>
  <line stroke="#333" stroke-width="2" x1="140" x2="140" y1="160" y2="720"/>
  <circle cx="376.8408102189493" cy="490.3179306627065" fill="#1f77b4" opacity="0.75" r="4"/>
  <circle cx="310.28700579481324" cy="510.7998984490348" fill="#2ca02c" opacity="0.75" r="4"/>
  <circle cx="330.654034172615" cy="526.543295443882" fill="#1f77b4" opacity="0.75" r="4"/>
  <circle cx="388.58610139562234" cy="570.7677470734544" fill="#ff7f0e" opacity="0.75" r="4"/>
  <circle cx="436.3046706814908" cy="531.9104945802035" fill="#1f77b4" opacity="0.75" r="4"/>
  <circle cx="349.56175401856603" cy="498.46507735864674" fill="#ff7f0e" opacity="0.75" r="4"/>
  <circle cx="368.80904070806366" cy="544.5386008118519" fill="#ff7f0e" opacity="0.75" r="4"/>
  <circle cx="368.7490214673538" cy="477.03962627214196" fill="#ff7f0e" opacity="0.75" r="4"/>
  <circle cx="454.79054310522963" cy="535.9057843273378" fill="#1f77b4" opacity="0.75" r="4"/>
  <circle cx="417.55263731552265" cy="603.1866664760938" fill="#ff7f0e" opacity="0.75" r="4"/>
  <circle cx="373.08462115579016" cy="477.86877323273666" fill="#ff7f0e" opacity="0.75" r="4"/>
  <circle cx="412.3318949015316" cy="561.861123054008" fill="#ff7f0e" opacity="0.75" r="4"/>
  <circle cx="509.32403114561424" cy="564.2420338900627" fill="#1f77b4" opacity="0.75" r="4"/>
  <circle cx="349.7516241943458" cy="573.7986998152135" fill="#1f77b4" opacity="0.75" r="4"/>
  <circle cx="274.63278146612475" cy="489.1404590626473" fill="#2ca02c" opacity="0.75" r="4"/>
  <circle cx="337.6456816631532" cy="604.9011368571241" fill="#1f77b4" opacity="0.75" r="4"/>
  <circle cx="399.8543630180453" cy="476.9654238542536" fill="#ff7f0e" opacity="0.75" r="4"/>
  <circle cx="416.2091919034718" cy="512.0223568018721" fill="#2ca02c" opacity="0.75" r="4"/>
  <circle cx="291.52330036491" cy="536.1745143062599" fill="#1f77b4" opacity="0.75" r="4"/>
  <circle cx="404.3421979171408" cy="539.0843386729082" fill="#1f77b4" opacity="0.75" r="4"/>
  <circle cx="378.4121588693888" cy="541.0361223681847" fill="#2ca02c" opacity="0.75" r="4"/>
  <circle cx="311.4933151042952" cy="495.64542931922756" fill="#ff7f0e" opacity="0.75" r="4"/>
  <circle cx="447.21840098854886" cy="571.1004753276047" fill="#2ca02c" opacity="0.75" r="4"/>
  <circle cx="419.81560559084545" cy="404.19011514775593" fill="#2ca02c" opacity="0.75" r="4"/>
  <circle cx="346.3337020468727" cy="552.6431185795188" fill="#1f77b4" opacity="0.75" r="4"/>
  <circle cx="518.2339497314897" cy="534.831229338801" fill="#2ca02c" opacity="0.75" r="4"/>
  <circle cx="537.0906023860696" cy="591.6488586472675" fill="#2ca02c" opacity="0.75" r="4"/>
  <circle cx="467.36104105335164" cy="529.5392841490736" fill="#ff7f0e" opacity="0.75" r="4"/>
  <circle cx="398.61454031541416" cy="590.1938692139183" fill="#ff7f0e" opacity="0.75" r="4"/>
  <circle cx="473.0109871835263" cy="441.9671297874932" fill="#2ca02c" opacity="0.75" r="4"/>
  <circle cx="418.8099907471761" cy="575.4783998551836" fill="#ff7f0e" opacity="0.75" r="4"/>
  <circle cx="415.625331602238" cy="549.6690760674335" fill="#ff7f0e" opacity="0.75" r="4"/>
  <circle cx="405.44615528283384" cy="464.4478603190744" fill="#1f77b4" opacity="0.75" r="4"/>
  <circle cx="558.3892810125807" cy="532.4948466681271" fill="#2ca02c" opacity="0.75" r="4"/>
  <circle cx="395.8254669901986" cy="449.99603153831833" fill="#1f77b4" opacity="0.75" r="4"/>
  <circle cx="230.02077208073453" cy="457.8822695207781" fill="#ff7f0e" opacity="0.75" r="4"/>
  <circle cx="469.3004981629156" cy="590.4468163993654" fill="#1f77b4" opacity="0.75" r="4"/>
  <circle cx="373.31912891684294" cy="459.2532752295993" fill="#2ca02c" opacity="0.75" r="4"/>
  <circle cx="372.0735160707326" cy="506.63565724332113" fill="#1f77b4" opacity="0.75" r="4"/>
  <circle cx="426.4867255693338" cy="407.53807779491706" fill="#2ca02c" opacity="0.75" r="4"/>
  <circle cx="519.1973532441203" cy="567.2746967252137" fill="#ff7f0e" opacity="0.75" r="4"/>
  <circle cx="369.6951020984278" cy="564.8629591536942" fill="#ff7f0e" opacity="0.75" r="4"/>
  <circle cx="369.330554016791" cy="484.4100149481432" fill="#1f77b4" opacity="0.75" r="4"/>
  <circle cx="357.1738347748912" cy="533.7134419557026" fill="#ff7f0e" opacity="0.75" r="4"/>
  <circle cx="424.3577173411097" cy="608.3420523296563" fill="#2ca02c" opacity="0.75" r="4"/>
  <circle cx="415.3165504121329" cy="560.3231724604352" fill="#2ca02c" opacity="0.75" r="4"/>
  <circle cx="369.7280560724418" cy="432.01542511363016" fill="#ff7f0e" opacity="0.75" r="4"/>
  <circle cx="245.44655635277644" cy="490.56870913447426" fill="#2ca02c" opacity="0.75" r="4"/>
  <circle cx="296.16420788406276" cy="571.2298759909013" fill="#ff7f0e" opacity="0.75" r="4"/>
  <circle cx="407.34057000597835" cy="497.0614590437037" fill="#2ca02c" opacity="0.75" r="4"/>
  <circle cx="335.95482156251217" cy="590.2778186223441" fill="#ff7f0e" opacity="0.75" r="4"/>
  <circle cx="366.40834445073676" cy="492.1459890595929" fill="#1f77b4" opacity="0.75" r="4"/>
  <circle cx="396.4296774815964" cy="514.0670362940409" fill="#2ca02c" opacity="0.75" r="4"/>
  <circle cx="404.8254086747731" cy="491.63791353087987" fill="#1f77b4" opacity="0.75" r="4"/>
  <circle cx="423.1543868901568" cy="529.3448941710337" fill="#1f77b4" opacity="0.75" r="4"/>
  <circle cx="646.8906052503205" cy="378.6982825841426" fill="#ff7f0e" opacity="0.75" r="4"/>
  <circle cx="675.9406265114451" cy="457.13621309117707" fill="#ff7f0e" opacity="0.75" r="4"/>
  <circle cx="734.3274934464494" cy="433.32414442421" fill="#1f77b4" opacity="0.75" r="4"/>
  <circle cx="698.5632424849368" cy="426.028925943594" fill="#2ca02c" opacity="0.75" r="4"/>
  <circle cx="739.6632409348832" cy="384.9425335225957" fill="#ff7f0e" opacity="0.75" r="4"/>
  <circle cx="767.525991208495" cy="441.0971839767367" fill="#ff7f0e" opacity="0.75" r="4"/>
  <circle cx="574.2890961912987" cy="431.62566602864564" fill="#1f77b4" opacity="0.75" r="4"/>
  <circle cx="587.2920272198328" cy="439.74534895317385" fill="#ff7f0e" opacity="0.75" r="4"/>
  <circle cx="690.604501204211" cy="413.2283364036052" fill="#2ca02c" opacity="0.75" r="4"/>
  <circle cx="588.8246134155955" cy="456.3250580317144" fill="#1f77b4" opacity="0.75" r="4"/>
  <circle cx="473.68451238230523" cy="430.0326970358709" fill="#2ca02c" opacity="0.75" r="4"/>
  <circle cx="566.798800732987" cy="435.5298945075202" fill="#2ca02c" opacity="0.75" r="4"/>
  <circle cx="767.9109164096368" cy="388.85653430283094" fill="#2ca02c" opacity="0.75" r="4"/>
  <circle cx="721.3961209263935" cy="421.9605667845737" fill="#2ca02c" opacity="0.75" r="4"/>
  <circle cx="626.8385016728315" cy="448.4676609376469" fill="#1f77b4" opacity="0.75" r="4"/>
  <circle cx="649.8451132852754" cy="471.1875903061119" fill="#ff7f0e" opacity="0.75" r="4"/>
  <circle cx="698.2587137851291" cy="520.0253323311085" fill="#1f77b4" opacity="0.75" r="4"/>
  <circle cx="657.9728987206078" cy="441.1106821571418" fill="#2ca02c" opacity="0.75" r="4"/>
  <circle cx="702.0907378386463" cy="395.9924030334922" fill="#1f77b4" opacity="0.75" r="4"/>
  <circle cx="775.1886491967872" cy="348.60452622474384" fill="#1f77b4" opacity="0.75" r="4"/>
  <circle cx="734.4104872832153" cy="502.56663625132416" fill="#2ca02c" opacity="0.75" r="4"/>
  <circle cx="635.9626591060085" cy="395.73030475492044" fill="#2ca02c" opacity="0.75" r="4"/>
  <circle cx="520.0796449237567" cy="411.80692828540145" fill="#ff7f0e" opacity="0.75" r="4"/>
  <circle cx="583.2251670184357" cy="394.0118436132081" fill="#ff7f0e" opacity="0.75" r="4"/>
  <circle cx="558.167005754528" cy="511.9489981383957" fill="#2ca02c" opacity="0.75" r="4"/>
  <circle cx="682.0817649980224" cy="414.23222600912703" fill="#2ca02c" opacity="0.75" r="4"/>
  <circle cx="737.6705837882635" cy="435.35488084033346" fill="#ff7f0e" opacity="0.75" r="4"/>
  <circle cx="719.458019342801" cy="470.1985241772207" fill="#2ca02c" opacity="0.75" r="4"/>
  <circle cx="592.3628676098049" cy="423.7140161999625" fill="#ff7f0e" opacity="0.75" r="4"/>
  <circle cx="565.0310204260675" cy="448.75016718297246" fill="#1f77b4" opacity="0.75" r="4"/>
  <circle cx="613.8288014076329" cy="444.3763189523015" fill="#2ca02c" opacity="0.75" r="4"/>
  <circle cx="592.0705773413245" cy="382.55446919053566" fill="#ff7f0e" opacity="0.75" r="4"/>
  <circle cx="696.7352797496305" cy="399.84817913254574" fill="#ff7f0e" opacity="0.75" r="4"/>
  <circle cx="613.9835059894843" cy="448.34055695101245" fill="#2ca02c" opacity="0.75" r="4"/>
  <circle cx="634.0066950087584" cy="458.7924257895342" fill="#2ca02c" opacity="0.75" r="4"/>
  <circle cx="680.5164530466126" cy="334.1157047826804" fill="#1f77b4" opacity="0.75" r="4"/>
  <circle cx="636.9687115514519" cy="440.16625261594606" fill="#2ca02c" opacity="0.75" r="4"/>
  <circle cx="656.8994155963054" cy="363.7685641284613" fill="#2ca02c" opacity="0.75" r="4"/>
  <circle cx="703.3469319639977" cy="483.9794527249212" fill="#2ca02c" opacity="0.75" r="4"/>
  <circle cx="649.4045614364427" cy="409.34852110034785" fill="#1f77b4" opacity="0.75" r="4"/>
  <circle cx="697.4807929930723" cy="471.0439963597292" fill="#1f77b4" opacity="0.75" r="4"/>
  <circle cx="666.0435637066387" cy="513.5341468865666" fill="#1f77b4" opacity="0.75" r="4"/>
  <circle cx="635.2821016213977" cy="415.8508184223998" fill="#2ca02c" opacity="0.75" r="4"/>
  <circle cx="635.6755249753633" cy="365.59984334009744" fill="#1f77b4" opacity="0.75" r="4"/>
  <circle cx="574.4890178523654" cy="360.491639227611" fill="#1f77b4" opacity="0.75" r="4"/>
  <circle cx="539.2070460246201" cy="433.82805961243895" fill="#ff7f0e" opacity="0.75" r="4"/>
  <circle cx="756.2004619117805" cy="492.4071634246214" fill="#ff7f0e" opacity="0.75" r="4"/>
  <circle cx="454.1688723075799" cy="441.1963448704331" fill="#1f77b4" opacity="0.75" r="4"/>
  <circle cx="620.1267653852603" cy="335.8353603115339" fill="#2ca02c" opacity="0.75" r="4"/>
  <circle cx="743.045407060067" cy="460.2687107854492" fill="#2ca02c" opacity="0.75" r="4"/>
  <circle cx="685.6730210552043" cy="366.61867363051596" fill="#ff7f0e" opacity="0.75" r="4"/>
  <circle cx="455.5631970961306" cy="377.29365741991876" fill="#2ca02c" opacity="0.75" r="4"/>
  <circle cx="636.0463028114772" cy="464.5052622858368" fill="#2ca02c" opacity="0.75" r="4"/>
  <circle cx="664.3366730447277" cy="398.4599308795729" fill="#1f77b4" opacity="0.75" r="4"/>
  <circle cx="580.5004480719509" cy="386.5642324991196" fill="#2ca02c" opacity="0.75" r="4"/>
  <circle cx="542.9003365211622" cy="593.5386559541078" fill="#1f77b4" opacity="0.75" r="4"/>
  <circle cx="447.7208220862859" cy="598.3217305773562" fill="#ff7f0e" opacity="0.75" r="4"/>
  <circle cx="569.7905329201482" cy="545.1487090968747" fill="#1f77b4" opacity="0.75" r="4"/>
  <circle cx="616.5038437955156" cy="579.0707362009264" fill="#1f77b4" opacity="0.75" r="4"/>
  <circle cx="509.5300209429399" cy="546.2320177434044" fill="#ff7f0e" opacity="0.75" r="4"/>
  <circle cx="618.739845249755" cy="559.3278882376425" fill="#ff7f0e" opacity="0.75" r="4"/>
  <circle cx="555.720565171039" cy="619.783837602112" fill="#1f77b4" opacity="0.75" r="4"/>
  <circle cx="610.3490799286911" cy="574.4609128257507" fill="#ff7f0e" opacity="0.75" r="4"/>
  <circle cx="530.4683155765808" cy="659.7393346847218" fill="#ff7f0e" opacity="0.75" r="4"/>
  <circle cx="509.1497869045404" cy="539.2010772296674" fill="#1f77b4" opacity="0.75" r="4"/>
  <circle cx="576.9266162363883" cy="539.8349668414983" fill="#ff7f0e" opacity="0.75" r="4"/>
  <circle cx="603.9759447429451" cy="601.9442188918347" fill="#1f77b4" opacity="0.75" r="4"/>
  <circle cx="583.956885285476" cy="511.696699274332" fill="#1f77b4" opacity="0.75" r="4"/>
  <circle cx="547.6156739632988" cy="623.4687764949219" fill="#2ca02c" opacity="0.75" r="4"/>
  <circle cx="626.8634585630257" cy="621.4501840647982" fill="#1f77b4" opacity="0.75" r="4"/>
  <circle cx="626.4624629788486" cy="471.2277074284408" fill="#2ca02c" opacity="0.75" r="4"/>
  <circle cx="489.97182487887414" cy="525.1176424801006" fill="#ff7f0e" opacity="0.75" r="4"/>
  <circle cx="475.070183194358" cy="598.6189013644959" fill="#ff7f0e" opacity="0.75" r="4"/>
  <circle cx="636.8051729208569" cy="611.2044145050422" fill="#ff7f0e" opacity="0.75" r="4"/>
  <circle cx="551.4175073128883" cy="558.8924353416833" fill="#2ca02c" opacity="0.75" r="4"/>
  <circle cx="531.9207561571106" cy="520.8092193205707" fill="#ff7f0e" opacity="0.75" r="4"/>
  <circle cx="476.660858781368" cy="500.5008458328142" fill="#1f77b4" opacity="0.75" r="4"/>
  <circle cx="627.197935833972" cy="534.511565236245" fill="#ff7f0e" opacity="0.75" r="4"/>
  <circle cx="391.63726504582905" cy="534.6620387700696" fill="#ff7f0e" opacity="0.75" r="4"/>
  <circle cx="539.0647398133168" cy="578.757005644092" fill="#1f77b4" opacity="0.75" r="4"/>
  <circle cx="531.820525072883" cy="482.7025016271088" fill="#ff7f0e" opacity="0.75" r="4"/>
  <circle cx="521.356313159376" cy="588.8362367151024" fill="#2ca02c" opacity="0.75" r="4"/>
  <circle cx="535.4763673942408" cy="573.6734735570963" fill="#2ca02c" opacity="0.75" r="4"/>
  <circle cx="681.4451351808486" cy="587.4159865068873" fill="#ff7f0e" opacity="0.75" r="4"/>
  <circle cx="529.046814480008" cy="592.2303461953666" fill="#ff7f0e" opacity="0.75" r="4"/>
  <circle cx="549.5789632748199" cy="524.7227442533572" fill="#1f77b4" opacity="0.75" r="4"/>
  <circle cx="529.0774467183331" cy="678.7141556268489" fill="#1f77b4" opacity="0.75" r="4"/>
  <circle cx="468.4067143670035" cy="618.8287997238381" fill="#2ca02c" opacity="0.75" r="4"/>
  <circle cx="456.280422182625" cy="509.1070477407503" fill="#ff7f0e" opacity="0.75" r="4"/>
  <circle cx="492.40333225734156" cy="590.9793236581386" fill="#2ca02c" opacity="0.75" r="4"/>
  <circle cx="662.2874996376745" cy="552.987632895097" fill="#1f77b4" opacity="0.75" r="4"/>
  <circle cx="451.95354123726884" cy="628.2325829843451" fill="#2ca02c" opacity="0.75" r="4"/>
  <circle cx="461.957360726501" cy="502.2196733961009" fill="#1f77b4" opacity="0.75" r="4"/>
  <circle cx="555.6359765643958" cy="516.7938651852079" fill="#2ca02c" opacity="0.75" r="4"/>
  <circle cx="529.5248931556366" cy="563.4309550080178" fill="#1f77b4" opacity="0.75" r="4"/>
  <circle cx="657.6603567982543" cy="615.3125387700177" fill="#ff7f0e" opacity="0.75" r="4"/>
  <circle cx="512.5046233408268" cy="578.8602846612524" fill="#2ca02c" opacity="0.75" r="4"/>
  <circle cx="526.0948000716405" cy="582.2917615675688" fill="#1f77b4" opacity="0.75" r="4"/>
  <circle cx="545.2853341718146" cy="546.0522681744408" fill="#2ca02c" opacity="0.75" r="4"/>
  <circle cx="595.2037038083024" cy="603.77909081099" fill="#2ca02c" opacity="0.75" r="4"/>
  <circle cx="513.0138915698365" cy="580.9302151676739" fill="#1f77b4" opacity="0.75" r="4"/>
  <circle cx="445.66658391345084" cy="555.000434822359" fill="#2ca02c" opacity="0.75" r="4"/>
  <circle cx="594.2422536083918" cy="670.4037179198237" fill="#2ca02c" opacity="0.75" r="4"/>
  <circle cx="533.6764502574315" cy="664.0549033188827" fill="#ff7f0e" opacity="0.75" r="4"/>
  <circle cx="496.18502588630184" cy="585.7187222681791" fill="#ff7f0e" opacity="0.75" r="4"/>
  <circle cx="449.3705597761325" cy="602.1609640527895" fill="#1f77b4" opacity="0.75" r="4"/>
  <circle cx="552.4030699864904" cy="626.5513996972272" fill="#2ca02c" opacity="0.75" r="4"/>
  <circle cx="518.3742650068771" cy="562.8532026560283" fill="#ff7f0e" opacity="0.75" r="4"/>
  <circle cx="537.6598649906784" cy="546.6392231200756" fill="#ff7f0e" opacity="0.75" r="4"/>
  <circle cx="545.7276699365141" cy="579.6680502762347" fill="#2ca02c" opacity="0.75" r="4"/>
  <circle cx="914.0" cy="244.0" fill="#d62728" opacity="0.9" r="7"/>
  <text fill="#333" font-family="Arial, Helvetica, sans-serif" font-size="16" text-anchor="middle" x="570.0" y="765">Dimension 1</text>
  <text fill="#333" font-family="Arial, Helvetica, sans-serif" font-size="16" text-anchor="middle" transform="rotate(-90,85,440.0)" x="85" y="440.0">Dimension 2</text>
  <text fill="#999" font-family="Arial, Helvetica, sans-serif" font-size="12" text-anchor="end" x="1140" y="776">Auto-generated SVG</text>
</svg>
