<?xml version="1.0" encoding="UTF-8" standalone="no"?>
<!DOCTYPE svg PUBLIC "-//W3C//DTD SVG 1.1//EN"
 "http://www.w3.org/Graphics/SVG/1.1/DTD/svg11.dtd">
<!-- Generated by graphviz version 2.43.0 (0)
 -->
<!-- Title: calib_B Pages: 1 -->
<svg width="432pt" height="70pt"
 viewBox="0.00 0.00 432.00 70.40" xmlns="http://www.w3.org/2000/svg" xmlns:xlink="http://www.w3.org/1999/xlink">
<g id="graph0" class="graph" transform="scale(1.6 1.6) rotate(0) translate(4 40)">
<title>calib_B</title>
<polygon fill="white" stroke="transparent" points="-4,4 -4,-40 266,-40 266,4 -4,4"/>
<!-- logits -->
<g id="node1" class="node">
<title>logits</title>
<path fill="#aec7e8" stroke="black" stroke-width="1.5" d="M42,-36C42,-36 12,-36 12,-36 6,-36 0,-30 0,-24 0,-24 0,-12 0,-12 0,-6 6,0 12,0 12,0 42,0 42,0 48,0 54,-6 54,-12 54,-12 54,-24 54,-24 54,-30 48,-36 42,-36"/>
<text text-anchor="middle" x="27" y="-20.8" font-family="Arial" font-size="9.00">Raw</text>
<text text-anchor="middle" x="27" y="-10.8" font-family="Arial" font-size="9.00">Logits</text>
</g>
<!-- calib -->
<g id="node2" class="node">
<title>calib</title>
<path fill="#9467bd" stroke="black" stroke-width="1.5" d="M146,-36C146,-36 102,-36 102,-36 96,-36 90,-30 90,-24 90,-24 90,-12 90,-12 90,-6 96,0 102,0 102,0 146,0 146,0 152,0 158,-6 158,-12 158,-12 158,-24 158,-24 158,-30 152,-36 146,-36"/>
<text text-anchor="middle" x="124" y="-15.8" font-family="Arial" font-size="9.00" fill="white">Platt Scaling</text>
</g>
<!-- logits&#45;&gt;calib -->
<g id="edge1" class="edge">
<title>logits&#45;&gt;calib</title>
<path fill="none" stroke="black" d="M54.21,-18C62.11,-18 70.99,-18 79.69,-18"/>
<polygon fill="black" stroke="black" points="79.74,-21.5 89.74,-18 79.74,-14.5 79.74,-21.5"/>
</g>
<!-- probs -->
<g id="node3" class="node">
<title>probs</title>
<path fill="#98df8a" stroke="black" stroke-width="1.5" d="M250,-36C250,-36 206,-36 206,-36 200,-36 194,-30 194,-24 194,-24 194,-12 194,-12 194,-6 200,0 206,0 206,0 250,0 250,0 256,0 262,-6 262,-12 262,-12 262,-24 262,-24 262,-30 256,-36 250,-36"/>
<text text-anchor="middle" x="228" y="-20.8" font-family="Arial" font-size="9.00">Calibrated</text>
<text text-anchor="middle" x="228" y="-10.8" font-family="Arial" font-size="9.00">Probabilities</text>
</g>
<!-- calib&#45;&gt;probs -->
<g id="edge2" class="edge">
<title>calib&#45;&gt;probs</title>
<path fill="none" stroke="black" d="M158.12,-18C166.22,-18 175.02,-18 183.53,-18"/>
<polygon fill="black" stroke="black" points="183.7,-21.5 193.7,-18 183.7,-14.5 183.7,-21.5"/>
</g>
</g>
</svg>
