<?xml version="1.0" encoding="UTF-8" standalone="no"?>
<!DOCTYPE svg PUBLIC "-//W3C//DTD SVG 1.1//EN"
 "http://www.w3.org/Graphics/SVG/1.1/DTD/svg11.dtd">
<!-- Generated by graphviz version 2.43.0 (0)
 -->
<!-- Title: conformal Pages: 1 -->
<svg width="720pt" height="199pt"
 viewBox="0.00 0.00 720.00 198.76" xmlns="http://www.w3.org/2000/svg" xmlns:xlink="http://www.w3.org/1999/xlink">
<g id="graph0" class="graph" transform="scale(2.03 2.03) rotate(0) translate(4 94)">
<title>conformal</title>
<polygon fill="white" stroke="transparent" points="-4,4 -4,-94 351,-94 351,4 -4,4"/>
<!-- calib -->
<g id="node1" class="node">
<title>calib</title>
<path fill="#aec7e8" stroke="black" stroke-width="1.5" d="M50,-90C50,-90 12,-90 12,-90 6,-90 0,-84 0,-78 0,-78 0,-66 0,-66 0,-60 6,-54 12,-54 12,-54 50,-54 50,-54 56,-54 62,-60 62,-66 62,-66 62,-78 62,-78 62,-84 56,-90 50,-90"/>
<text text-anchor="middle" x="31" y="-74.8" font-family="Arial" font-size="9.00">Calibration</text>
<text text-anchor="middle" x="31" y="-64.8" font-family="Arial" font-size="9.00">Set</text>
</g>
<!-- scores -->
<g id="node2" class="node">
<title>scores</title>
<path fill="#98df8a" stroke="black" stroke-width="1.5" d="M147,-90C147,-90 110,-90 110,-90 104,-90 98,-84 98,-78 98,-78 98,-66 98,-66 98,-60 104,-54 110,-54 110,-54 147,-54 147,-54 153,-54 159,-60 159,-66 159,-66 159,-78 159,-78 159,-84 153,-90 147,-90"/>
<text text-anchor="middle" x="128.5" y="-74.8" font-family="Arial" font-size="9.00">Conformity</text>
<text text-anchor="middle" x="128.5" y="-64.8" font-family="Arial" font-size="9.00">Scores</text>
</g>
<!-- calib&#45;&gt;scores -->
<g id="edge1" class="edge">
<title>calib&#45;&gt;scores</title>
<path fill="none" stroke="black" d="M62.22,-72C70.3,-72 79.16,-72 87.67,-72"/>
<polygon fill="black" stroke="black" points="87.81,-75.5 97.81,-72 87.81,-68.5 87.81,-75.5"/>
</g>
<!-- quantile -->
<g id="node3" class="node">
<title>quantile</title>
<path fill="#ffbb78" stroke="black" stroke-width="1.5" d="M241,-90C241,-90 207,-90 207,-90 201,-90 195,-84 195,-78 195,-78 195,-66 195,-66 195,-60 201,-54 207,-54 207,-54 241,-54 241,-54 247,-54 253,-60 253,-66 253,-66 253,-78 253,-78 253,-84 247,-90 241,-90"/>
<text text-anchor="middle" x="224" y="-74.8" font-family="Arial" font-size="9.00">Quantile</text>
<text text-anchor="middle" x="224" y="-64.8" font-family="Arial" font-size="9.00">Threshold</text>
</g>
<!-- scores&#45;&gt;quantile -->
<g id="edge2" class="edge">
<title>scores&#45;&gt;quantile</title>
<path fill="none" stroke="black" d="M159.08,-72C167.22,-72 176.17,-72 184.72,-72"/>
<polygon fill="black" stroke="black" points="184.88,-75.5 194.88,-72 184.88,-68.5 184.88,-75.5"/>
</g>
<!-- interval -->
<g id="node5" class="node">
<title>interval</title>
<path fill="#2ca02c" stroke="black" stroke-width="1.5" d="M335,-63C335,-63 301,-63 301,-63 295,-63 289,-57 289,-51 289,-51 289,-39 289,-39 289,-33 295,-27 301,-27 301,-27 335,-27 335,-27 341,-27 347,-33 347,-39 347,-39 347,-51 347,-51 347,-57 341,-63 335,-63"/>
<text text-anchor="middle" x="318" y="-47.8" font-family="Arial" font-size="9.00" fill="white">Prediction</text>
<text text-anchor="middle" x="318" y="-37.8" font-family="Arial" font-size="9.00" fill="white">Set</text>
</g>
<!-- quantile&#45;&gt;interval -->
<g id="edge3" class="edge">
<title>quantile&#45;&gt;interval</title>
<path fill="none" stroke="black" d="M253.1,-63.75C261.32,-61.34 270.44,-58.66 279.15,-56.11"/>
<polygon fill="black" stroke="black" points="280.14,-59.46 288.75,-53.29 278.17,-52.75 280.14,-59.46"/>
</g>
<!-- test -->
<g id="node4" class="node">
<title>test</title>
<path fill="#c5b0d5" stroke="black" stroke-width="1.5" d="M241,-36C241,-36 207,-36 207,-36 201,-36 195,-30 195,-24 195,-24 195,-12 195,-12 195,-6 201,0 207,0 207,0 241,0 241,0 247,0 253,-6 253,-12 253,-12 253,-24 253,-24 253,-30 247,-36 241,-36"/>
<text text-anchor="middle" x="224" y="-20.8" font-family="Arial" font-size="9.00">Test</text>
<text text-anchor="middle" x="224" y="-10.8" font-family="Arial" font-size="9.00">Prediction</text>
</g>
<!-- test&#45;&gt;interval -->
<g id="edge4" class="edge">
<title>test&#45;&gt;interval</title>
<path fill="none" stroke="black" d="M253.1,-26.25C261.32,-28.66 270.44,-31.34 279.15,-33.89"/>
<polygon fill="black" stroke="black" points="278.17,-37.25 288.75,-36.71 280.14,-30.54 278.17,-37.25"/>
</g>
</g>
</svg>
